<?xml version="1.0" encoding="utf-8"?>
<!-- Generator: Adobe Illustrator 21.0.0, SVG Export Plug-In . SVG Version: 6.00 Build 0)  -->
<svg version="1.1" id="Layer_1" xmlns="http://www.w3.org/2000/svg" xmlns:xlink="http://www.w3.org/1999/xlink" x="0px" y="0px"
	 width="70.2px" height="150px" viewBox="0 0 70.2 150" style="enable-background:new 0 0 70.2 150;" xml:space="preserve">
<style type="text/css">
	.st0{fill:#8E8A8A;}
	.st1{fill:#D4D2D1;}
	.st2{fill:#9B9B9B;}
	.st3{fill:#6D6E6E;}
	.st4{fill:#F79420;}
	.st5{fill:#5C5C5B;}
	.st6{fill:#989897;}
	.st7{fill:#333333;}
</style>
<g>
	<path class="st0" d="M46.9,26.6c2.1-2.8,3.3-6.2,3.3-10C50.2,7.5,42.7,0,33.5,0c-0.5,30.1-13,42.2-13,42.2l0,0
		c-0.9,0.8-1.4,2-1.4,3.3c0,2.5,2,4.6,4.6,4.6c1.1,0,2.2-0.4,3-1.1l0,0l0,0c0.5-0.4,0.9-0.9,1.2-1.5c6.1-8,10.8-13.1,14-16.3
		C43.8,30,45.5,28.5,46.9,26.6L46.9,26.6L46.9,26.6z"/>
	<path class="st1" d="M51.9,42.7l-7.9-16.4h0c-0.1-0.2-0.2-0.4-0.2-0.7c0-0.7,0.6-1.3,1.3-1.3c0.3,0,0.6,0.1,0.9,0.3h0.1
		c1.8-2.5,2.9-5.7,2.9-9c0-8.6-7-15.6-15.6-15.6c-0.2,9.8-1.5,17.5-3.2,23.5c-0.1,0.3-0.1,0.5-0.1,0.8c0,0.6,0.3,1.2,0.7,1.7
		c0.1,0.1,0.1,0.3,0.2,0.4l10.3,21.4c1.4,2.9,4.9,4.2,7.9,2.8v0C52.1,49.1,53.3,45.6,51.9,42.7z"/>
	<path class="st2" d="M51.9,42.7l-7.9-16.4h0c-0.1-0.2-0.2-0.4-0.2-0.7c0-0.4,0.2-0.8,0.5-1c0,0,0,0,0,0c-6.7-1.8-6.7-9.6-6.7-9.6
		l0,0c0-0.3,0.1-0.5,0.1-0.8c0-2.7-2.1-4.8-4.8-4.9c-0.2,2.1-0.5,4.1-0.8,6c0,0.3-0.1,0.5-0.1,0.8c0,0.1,0,0.2-0.1,0.3
		c0,0.3-0.1,0.5-0.2,0.8c0,0.1,0,0.2-0.1,0.3c0,0.3-0.1,0.5-0.2,0.8c0,0.1-0.1,0.2-0.1,0.4c-0.4,1.7-0.8,3.4-1.2,4.9
		c-0.1,0.3-0.1,0.5-0.1,0.8c0,0.6,0.3,1.2,0.7,1.7c0.1,0.1,0.1,0.3,0.2,0.4l10.3,21.4c1.4,2.9,4.9,4.2,7.9,2.8v0
		C52.1,49.1,53.3,45.6,51.9,42.7z"/>
	<g>
		
			<rect x="11.7" y="47.9" transform="matrix(0.9832 0.1824 -0.1824 0.9832 16.0327 -1.4419)" class="st3" width="8.4" height="77.1"/>
		<path class="st4" d="M21.9,53.9L21.9,53.9c-2.6-0.5-4.3-3-3.8-5.6l0.2-1.3c0.5-2.6,3-4.3,5.6-3.8h0c2.6,0.5,4.3,3,3.8,5.6L27.5,50
			C27,52.6,24.5,54.4,21.9,53.9z"/>
		<path class="st4" d="M4.1,149.9L4.1,149.9c-2.6-0.5-4.3-3-3.8-5.6l3.9-20.9c0.5-2.6,3-4.3,5.6-3.8h0c2.6,0.5,4.3,3,3.8,5.6
			l-3.9,20.9C9.2,148.7,6.7,150.4,4.1,149.9z"/>
		
			<rect x="2.1" y="122.5" transform="matrix(0.9832 0.1824 -0.1824 0.9832 24.6736 0.9981)" class="st5" width="9.6" height="24.1"/>
	</g>
	<g>
		
			<rect x="50.2" y="47.9" transform="matrix(-0.9832 0.1824 -0.1824 -0.9832 123.5633 161.467)" class="st3" width="8.4" height="77.1"/>
		<path class="st4" d="M48.3,53.9L48.3,53.9c2.6-0.5,4.3-3,3.8-5.6L51.9,47c-0.5-2.6-3-4.3-5.6-3.8h0c-2.6,0.5-4.3,3-3.8,5.6
			l0.2,1.3C43.2,52.6,45.7,54.4,48.3,53.9z"/>
		<path class="st4" d="M66.1,149.9L66.1,149.9c2.6-0.5,4.3-3,3.8-5.6l-3.9-20.9c-0.5-2.6-3-4.3-5.6-3.8h0c-2.6,0.5-4.3,3-3.8,5.6
			l3.9,20.9C61,148.7,63.5,150.4,66.1,149.9z"/>
		
			<rect x="58.5" y="122.5" transform="matrix(-0.9832 0.1824 -0.1824 -0.9832 150.0861 255.3932)" class="st5" width="9.6" height="24.1"/>
	</g>
	<g>
		<circle class="st6" cx="36.2" cy="24.2" r="2"/>
		<circle class="st7" cx="36.2" cy="24.2" r="1.6"/>
		<polygon class="st6" points="35.2,23.6 36.2,23 37.2,23.6 37.2,24.8 36.2,25.3 35.2,24.8 		"/>
	</g>
</g>
</svg>
