<?xml version="1.0" encoding="utf-8"?>
<!-- Generator: Adobe Illustrator 21.0.0, SVG Export Plug-In . SVG Version: 6.00 Build 0)  -->
<svg version="1.1" id="Layer_1" xmlns="http://www.w3.org/2000/svg" xmlns:xlink="http://www.w3.org/1999/xlink" x="0px" y="0px"
	 width="38.8px" height="150px" viewBox="0 0 38.8 150" style="enable-background:new 0 0 38.8 150;" xml:space="preserve">
<style type="text/css">
	.st0{fill:#D4D2D1;}
	.st1{fill:#A5A5A5;}
	.st2{fill:#9B6728;}
	.st3{fill:#FFFFFF;}
</style>
<g>
	<path class="st0" d="M28.2,89h9.2v1.7c0.3-0.9,0.4-1.9,0.3-3c0,0-3.9-31.6-5.5-41.6C27.6,17.6,22.8,0,22.8,0l-3.9,2.5l2.3,1L18.9,5
		l2.2,1l-1.9,1.2l2.3,1l-2.3,1.5l2.2,1l-2,1.2l2.3,1l-2.3,1.5l2.2,1l-1.9,1.2l2.3,1l-2.3,1.5l2.2,1l-2,1.2l2.3,1l-2.3,1.5l2.2,1
		l-2,1.2l2.3,1l-2.3,1.5l2.2,1l-2,1.2l2.3,1l-2.3,1.5l2.2,1l-2,1.2l2.3,1l-2.3,1.5l2.2,1l-2,1.2l2.3,1l-2.3,1.5l2.2,1l-2,1.2l2.3,1
		l-2.3,1.5l2.2,1l-2,1.2l2.3,1l-2.3,1.5l2.2,1l-1.9,1.2l2.3,1l-2.3,1.5l2.2,1l-2,1.2l2.3,1l-2.3,1.5l2.2,1l-2,1.2l2.3,1l-2.3,1.5
		l2.2,1l-2,1.2l2.3,1l-2.3,1.5l2.2,1l-1.9,1.2l2.3,1l-2.3,1.5l2.2,1l-2,1.2l2.3,1l-2.3,1.5l2.2,1l-2,1.2l2.3,1L23.1,84l2.2,1
		l-1.9,1.2l2.3,1l-2.3,1.5l2.2,1l-2,1.2l2.3,1l-2.3,1.5l2.2,1l-2,1.2l2.3,1L23.9,98l3.1,1.3c0.4-0.1,0.9-0.2,1.3-0.4V89z"/>
	<rect x="28.2" y="89" class="st1" width="9.2" height="24.2"/>
	<path class="st2" d="M38.5,92c-3.5,8.5-13,8.8-13,8.8c2.4,29.4-23.3,33.1-23.3,33.1C-3.5,144.6,3.8,150,3.8,150
		C43.6,141.4,38.7,94.1,38.5,92z"/>
	<path class="st3" d="M30.6,103.9c0-0.9,0.6-1.7,1.5-1.7c0.9-0.1,1.6,0.6,1.6,1.6c0,0.9-0.6,1.7-1.5,1.7
		C31.4,105.5,30.6,104.8,30.6,103.9z"/>
	<path class="st3" d="M30.9,108.4c0-0.7,0.5-1.4,1.2-1.4c0.7,0,1.3,0.5,1.3,1.3c0,0.7-0.5,1.4-1.2,1.4
		C31.5,109.7,30.9,109.1,30.9,108.4z"/>
	<path class="st1" d="M37.7,87.7c0,0-3.9-31.6-5.5-41.6C27.6,17.6,22.8,0,22.8,0l-1.5,1l7,98C32.7,97.5,38.1,93.7,37.7,87.7z"/>
</g>
</svg>
