<?xml version="1.0" encoding="utf-8"?>
<!-- Generator: Adobe Illustrator 21.0.0, SVG Export Plug-In . SVG Version: 6.00 Build 0)  -->
<svg version="1.1" id="Layer_1" xmlns="http://www.w3.org/2000/svg" xmlns:xlink="http://www.w3.org/1999/xlink" x="0px" y="0px"
	 width="121.9px" height="150px" viewBox="0 0 121.9 150" style="enable-background:new 0 0 121.9 150;" xml:space="preserve">
<style type="text/css">
	.st0{fill:#A5A5A5;}
	.st1{fill:#D4D2D1;}
	.st2{fill:#8C8C8C;}
	.st3{fill:#F79420;}
	.st4{fill:#989897;}
	.st5{fill:#333333;}
</style>
<g>
	<path class="st0" d="M79.8,0l0.9,0.8c-2.4,6.3-11.9,30.3-9.6,51.7h-7.3L53.5,63.1l0,0c-1.5-0.3-3.1,0.3-3.9,1.6l-1.8,2.7l-10.9-6.6
		l18.5-20.2l-2.5-4C53,36.6,52.2,8.9,79.8,0z"/>
	<path class="st1" d="M61.5,46.1l-2.8-4.6c0,0-0.7-24.4,20.6-37.1c0.6-1.5,1-2.7,1.4-3.6L79.8,0C52.2,8.9,53,36.6,53,36.6l2.5,4
		l8.4,11.8h2.3L61.5,46.1z"/>
	<path class="st2" d="M88.9,59.7L87,57c-1-1.4-0.8-3.3,0.5-4.4l1.1-1l-7.7-11.2l-11.8,3.3c0,0-33.1-2.3-29.9-42.9l-0.7-0.1
		c-1.9-0.2-3.7,1-4.3,2.9C21.2,45.5,67.6,63,67.6,63l5.6-2c1.2-0.4,2.6-0.1,3.6,0.9l3.8,4L88.9,59.7z"/>
	<path class="st0" d="M44.8,75.9c0-1.2,0.4-2.9,0.9-4.7c0.3-1.3,0.8-3.3,0.7-3.7c0,0,0.1,0.2,0.2,0.3l0.7-1.6
		c1.2,0.6,0.7,2.5-0.1,5.5c-0.3,1.2-0.8,3.3-0.8,4.3c0.6-0.7,1.6-2.6,2.2-3.6c1.5-2.7,2.3-4.4,3.6-3.9c1.2,0.4,1,2.3,0.6,5.5
		c-0.1,1.2-0.4,3.3-0.3,4.3c0.5-0.8,1.3-2.8,1.7-3.9c1.1-2.9,1.7-4.7,3-4.5c1.2,0.2,1.3,2.1,1.3,5.3c0,1.2,0.1,3.3,0.3,4.3
		c0.4-0.9,0.9-2.9,1.1-4.1c0.7-3.1,1.1-4.9,2.4-4.9c1.3,0,1.5,1.9,2,5c0.2,1.2,0.5,3.3,0.8,4.2c0.3-0.9,0.5-3,0.6-4.3
		c0.3-3.2,0.4-5.1,1.7-5.2c1.2-0.2,1.8,1.7,2.7,4.7c0.3,1.2,0.9,3.2,1.4,4c0.2-1,0.1-3.1,0-4.3c-0.2-3.2-0.2-5.1,1-5.4
		c1.2-0.4,2,1.4,3.3,4.2c0.5,1.1,1.4,3.1,1.9,3.8c0-1-0.3-3.1-0.6-4.3c-0.6-3.1-0.9-5,0.3-5.5c1.2-0.5,2.1,1,3.8,3.6
		c0.8,1.2,2.2,3.5,2.8,3.7c0,0-0.1,0-0.2,0l0.7,1.6c-1.5,0.8-2.9-1.5-4.7-4.3c-0.5-0.7-1.1-1.7-1.5-2.3c0.1,0.8,0.3,2,0.5,2.8
		c0.6,3.4,1.1,6-0.4,6.6c-1.6,0.6-2.7-1.9-4.1-5c-0.3-0.8-0.8-1.8-1.2-2.5c0,0.8,0,2,0.1,2.8c0.2,3.4,0.3,6.2-1.3,6.5
		c-1.6,0.3-2.4-2.3-3.3-5.6c-0.2-0.8-0.5-1.9-0.8-2.6c-0.1,0.8-0.2,1.9-0.3,2.8c-0.3,3.4-0.5,6.1-2.1,6.2c-1.6,0-2-2.6-2.6-6
		c-0.1-0.8-0.3-1.9-0.5-2.7c-0.2,0.8-0.5,1.9-0.7,2.7c-0.7,3.4-1.3,6-2.9,5.8c-1.6-0.2-1.7-2.9-1.7-6.4c0-0.9,0-2-0.1-2.8
		c-0.3,0.7-0.7,1.8-1,2.6c-1.2,3.2-2.1,5.7-3.7,5.3c-1.6-0.5-1.3-3.2-0.9-6.6c0.1-0.9,0.2-2,0.3-2.8c-0.4,0.7-1,1.7-1.4,2.4
		c-1.6,3-2.9,5.3-4.4,4.7C45,77.5,44.8,76.8,44.8,75.9z"/>
	<path class="st3" d="M121.9,144.5c-4.2-23.1-15.1-48.6-20.5-60.3c-2-4.3-2-9.1-0.2-13.4l0.5-1.2c0.4-1-0.3-2.1-1.4-2.1h-3.6
		l-5.9-11.1c-0.5-1-1.8-1.3-2.7-0.8l-11.9,7c-0.9,0.6-1.2,1.8-0.7,2.7c7.9,13.2,19.5,35.6,28.1,57.7c-1.4,0.7-2.4,2.1-2.4,3.7
		c0,2.3,1.8,4.1,4.1,4.1c0.4,0,0.8-0.1,1.1-0.2c2.1,5.9,3.9,11.7,5.3,17.2C112.9,152.6,122.6,148.4,121.9,144.5z"/>
	<path class="st3" d="M51.4,64L37,60c-1.1-0.3-2.2,0.4-2.5,1.5L33.1,69l-4.5,1c-1,0.2-1.5,1.4-0.9,2.3l0.2,0.3
		c3,4.5,3.7,10.1,1.8,15.1c-4.4,11.5-13.9,33.1-29.1,52c-3.1,3.9,6,11.8,8.7,8.2c0.6-0.8,5.4-6.8,11.7-15.8c0.6,0.3,1.2,0.4,1.8,0.4
		c2.3,0,4.1-1.8,4.1-4.1c0-1.2-0.5-2.3-1.4-3.1c11.2-16.8,24.5-40,27.2-59.2C53,65.2,52.4,64.3,51.4,64z"/>
	<circle class="st4" cx="59.4" cy="48.1" r="4.2"/>
	<circle class="st5" cx="59.4" cy="48.1" r="3.3"/>
	<polygon class="st4" points="57.3,46.9 59.4,45.7 61.5,46.9 61.5,49.3 59.4,50.6 57.3,49.3 	"/>
</g>
</svg>
