<?xml version="1.0" encoding="utf-8"?>
<!-- Generator: Adobe Illustrator 21.0.0, SVG Export Plug-In . SVG Version: 6.00 Build 0)  -->
<svg version="1.1" id="Layer_1" xmlns="http://www.w3.org/2000/svg" xmlns:xlink="http://www.w3.org/1999/xlink" x="0px" y="0px"
	 width="86.6px" height="150px" viewBox="0 0 86.6 150" style="enable-background:new 0 0 86.6 150;" xml:space="preserve">
<style type="text/css">
	.st0{fill:#FFFFFF;}
	.st1{fill:#A5A5A5;}
	.st2{fill:#D4D2D1;}
	.st3{fill:#9B6728;}
</style>
<g>
	
		<ellipse transform="matrix(5.191842e-02 -0.9987 0.9987 5.191842e-02 -25.6067 102.5595)" class="st0" cx="41.2" cy="64.8" rx="2" ry="2"/>
	<g>
		<path class="st1" d="M30.6,84.9c-1.2-0.2-2.4,0.1-3.6,0.8l10.2-22.5c0,0,0,0,0,0l2.5-61.8c0-0.3,0.1-0.6,0.1-1
			c2.1,4,4.1,9.7,5.7,16.2c0.8,3.3,1.4,6.5,1.9,9.6L46,63.3c-0.1,2.8-1.9,5.4-4.2,5.9l-8.2,17.9C33,86,32,85.1,30.6,84.9z"/>
		<g>
			<path class="st2" d="M40.1,65.3C40.1,65.3,40.1,65.3,40.1,65.3l2.4-59.1C41.7,4,40.8,2,39.9,0.3c-0.1,0.3-0.1,0.6-0.1,1
				l-2.5,61.8c0,0,0,0,0,0L40.1,65.3z"/>
			<path class="st2" d="M33.6,87.1c0,0,0,0.1,0.1,0.1l0-0.1C33.7,87.1,33.7,87.1,33.6,87.1z"/>
		</g>
		<path class="st3" d="M3,149.6L3,149.6c2.5,1.1,5.5-0.1,6.6-2.6l26.5-61.2c1.1-2.5-0.1-5.5-2.6-6.6l0,0c-2.5-1.1-5.5,0.1-6.6,2.6
			L0.4,143C-0.7,145.5,0.5,148.5,3,149.6z"/>
	</g>
	<g>
		<path class="st1" d="M52.7,84.1c1.2-0.3,2.4,0,3.6,0.6l-11.2-22c0,0,0,0,0,0L40,1c0-0.3-0.1-0.6-0.2-1c-1.9,4.1-3.7,9.9-5,16.4
			c-0.7,3.3-1.2,6.6-1.5,9.7l3,37.1c0.2,2.8,2.2,5.3,4.4,5.8l8.9,17.6C50.3,85.3,51.3,84.4,52.7,84.1z"/>
		<ellipse transform="matrix(0.1389 -0.9903 0.9903 0.1389 -28.3367 96.2614)" class="st0" cx="41.2" cy="64.4" rx="2" ry="2"/>
		<path class="st3" d="M83.8,149.3L83.8,149.3c-2.5,1.2-5.5,0.2-6.7-2.3L47.3,85.2c-1.2-2.5-0.2-5.5,2.3-6.7h0
			c2.5-1.2,5.5-0.2,6.7,2.3l29.8,61.8C87.3,145.1,86.2,148.1,83.8,149.3z"/>
	</g>
</g>
</svg>
