<svg id="Layer_1" data-name="Layer 1" xmlns="http://www.w3.org/2000/svg" xmlns:xlink="http://www.w3.org/1999/xlink" width="610" height="420" viewBox="0 0 610 420"><defs><style>.cls-1,.cls-14,.cls-16,.cls-27,.cls-29,.cls-35,.cls-36,.cls-38,.cls-39,.cls-40,.cls-41,.cls-43,.cls-45,.cls-48{fill:none;}.cls-2{fill:#ad5d31;}.cls-3{clip-path:url(#clip-path);}.cls-4{opacity:0.3;}.cls-5{fill:#afcc69;}.cls-6{clip-path:url(#clip-path-2);}.cls-7{fill:#c3ea98;}.cls-34,.cls-8{fill:#85ba5d;}.cls-9{fill:#4e8e3b;}.cls-10{fill:#82dcf5;}.cls-11{fill:#aae5fd;}.cls-12{fill:#fddd97;}.cls-13{fill:#e3edbc;}.cls-14,.cls-16,.cls-36{stroke:#0e0c2b;}.cls-14,.cls-16,.cls-29,.cls-34,.cls-35,.cls-36,.cls-38,.cls-39,.cls-40,.cls-41,.cls-43,.cls-44,.cls-45,.cls-47,.cls-48,.cls-50{stroke-miterlimit:10;}.cls-14{stroke-width:2.1px;}.cls-15{fill:#b3b3b3;}.cls-16{stroke-width:2.02px;}.cls-17{fill:#ccc;}.cls-18{fill:#465a8c;}.cls-19{fill:#312766;}.cls-20{fill:#fff;}.cls-21{fill:#f29f53;}.cls-22{fill:#aa4232;}.cls-23{fill:#ef5932;}.cls-24{clip-path:url(#clip-path-7);}.cls-25{fill:#844526;}.cls-26{fill:#f2f2f2;}.cls-27{stroke:#ad5d31;stroke-linejoin:round;stroke-width:1.16px;}.cls-27,.cls-39,.cls-40,.cls-41,.cls-47,.cls-48{stroke-linecap:round;}.cls-28{clip-path:url(#clip-path-8);}.cls-29,.cls-35,.cls-38,.cls-39,.cls-40,.cls-43,.cls-45{stroke:#312766;}.cls-29{stroke-width:1.67px;}.cls-30{fill:#999;}.cls-31{fill:#e6e6e6;}.cls-32{fill:#213c68;}.cls-33{fill:#161656;}.cls-34,.cls-48{stroke:#85ba5d;}.cls-34{stroke-width:0.17px;}.cls-35,.cls-36{stroke-width:1.85px;}.cls-37{fill:gray;}.cls-38,.cls-39{stroke-width:3.7px;}.cls-40{stroke-width:1.48px;}.cls-41{stroke:#4e8e3b;}.cls-41,.cls-47,.cls-48{stroke-width:1.73px;}.cls-42,.cls-44,.cls-47{fill:#377722;}.cls-43{stroke-width:1.2px;}.cls-44,.cls-47{stroke:#377722;}.cls-44{stroke-width:0.29px;}.cls-45{stroke-width:1.55px;}.cls-46{fill:#296314;}.cls-49{fill:#0e0c2b;}.cls-50{fill:#ea4c89;stroke:#f9c9dc;stroke-width:5.72px;}</style><clipPath id="clip-path"><rect class="cls-1" x="95" y="-95" width="420" height="610" transform="translate(515 -95) rotate(90)"/></clipPath><clipPath id="clip-path-2"><rect class="cls-1" x="-273.5" y="-48.18" width="1665.56" height="936.88"/></clipPath><clipPath id="clip-path-7"><rect id="Front_wall" data-name="Front wall" class="cls-2" x="542.55" y="122.17" width="21.78" height="20.94"/></clipPath><clipPath id="clip-path-8"><rect id="Front_wall-2" data-name="Front wall" class="cls-1" x="545.31" y="140.04" width="23.14" height="43.75"/></clipPath></defs><title>example</title><g class="cls-3"><rect class="cls-4" x="-265.31" y="-39.93" width="1665.56" height="936.93"/><g id="restOfDiagram"><rect id="Grass_100_" data-name="Grass 100%" class="cls-5" x="-273.5" y="-48.13" width="1665.56" height="936.88"/><g id="lighter_green" data-name="lighter green"><g class="cls-6"><path class="cls-7" d="M-141.94,60h15.54A78.36,78.36,0,0,1-71,82.91l6.87,6.87a78.36,78.36,0,0,1,23,55.41h0a78.36,78.36,0,0,0,23,55.41l8,8a78.36,78.36,0,0,1,23,55.41v39.52a43.85,43.85,0,0,1-12.84,31l-5.65,5.65a43.85,43.85,0,0,0-12.84,31h0a43.85,43.85,0,0,0,12.84,31l3.61,3.61a43.85,43.85,0,0,1,12.84,31v52.79a51.17,51.17,0,0,0,15,36.18h0a51.17,51.17,0,0,1,15,36.18h0a165.48,165.48,0,0,1-48.47,117h0a41.46,41.46,0,0,1-45.86,8.7L-377,546.91l11.86-429.69Z"/><path class="cls-8" d="M409.78,239.38V195.7a52.65,52.65,0,0,1,15.42-37.23l24.39-24.39a52.65,52.65,0,0,1,37.23-15.42h14.79a52.65,52.65,0,0,0,37.23-15.42l25.4-25.4a52.65,52.65,0,0,1,37.23-15.42h0a52.65,52.65,0,0,1,52.65,52.65v10.12a52.65,52.65,0,0,0,15.42,37.23l33.64,33.64a52.65,52.65,0,0,1,15.42,37.23v16.82a52.65,52.65,0,0,1-15.42,37.23l-7.33,7.33a52.65,52.65,0,0,1-37.23,15.42H480.86A52.65,52.65,0,0,1,444,295L425.59,277A52.65,52.65,0,0,1,409.78,239.38Z"/><path class="cls-8" d="M84.77-64.09,115.4-33.45A70.16,70.16,0,0,0,165-12.91h0A70.16,70.16,0,0,1,214.62,7.64h0A79.41,79.41,0,0,0,270.77,30.9h54.5a62.32,62.32,0,0,1,44.07,18.25h0A62.32,62.32,0,0,0,413.4,67.41h0A103.65,103.65,0,0,0,486.7,37.05l1.85-1.85A61.21,61.21,0,0,0,506.47-8.08h0a61.21,61.21,0,0,0-17.93-43.28L457-82.94Z"/><path class="cls-8" d="M218.13,368.5H181a112.18,112.18,0,0,0-79.32,32.86h0a40.42,40.42,0,0,0-11.84,28.53l0,33.26A39.33,39.33,0,0,0,101.29,491l.3.3A40.45,40.45,0,0,1,113.48,520v.75a69.66,69.66,0,0,1-20.4,49.18h0A46,46,0,0,0,79.6,602.45h0A46,46,0,0,0,93.08,635l19.43,19.43a46,46,0,0,0,32.55,13.48h8.26a46,46,0,0,0,32.55-13.48l3.66-3.66a51.28,51.28,0,0,1,36.26-15h17.6a51.28,51.28,0,0,1,36.26,15h0a51.28,51.28,0,0,0,36.26,15h29.75A58.48,58.48,0,0,1,387,682.92l.86.86a58.48,58.48,0,0,0,41.35,17.13h0a58.48,58.48,0,0,0,41.35-17.13l5.77-5.77a58.32,58.32,0,0,1,41.24-17.08h12.33a58.32,58.32,0,0,0,41.24-17.08h0a58.32,58.32,0,0,0,17.08-41.24V551.75a41,41,0,0,0-12-29h0a41,41,0,0,1-12-29V468a76.78,76.78,0,0,0-22.49-54.29h0a76.78,76.78,0,0,0-54.29-22.49h-14.7A67.51,67.51,0,0,0,425,411h0a67.51,67.51,0,0,1-47.74,19.77h-29.7a67.51,67.51,0,0,1-40.51-13.5l-45.83-34.37A71.82,71.82,0,0,0,218.13,368.5Z"/></g></g><g id="Roads_Shadow" data-name="Roads Shadow"><g class="cls-6"><path class="cls-8" d="M93.08,895.11a3.61,3.61,0,0,1-3.61-3.61V705.17a60.19,60.19,0,0,0-17.63-42.56,67.42,67.42,0,0,1-19.75-47.67V275.14a68.61,68.61,0,0,0-5.25-26.39A68.6,68.6,0,0,0,31.9,226.38l-8-8A76.18,76.18,0,0,1,1.63,164.56V111.9A68.61,68.61,0,0,0-3.62,85.52,68.6,68.6,0,0,0-18.56,63.15,68.61,68.61,0,0,0-40.93,48.2,68.61,68.61,0,0,0-67.32,43H-99.43A3.61,3.61,0,0,1-103,39.34a3.61,3.61,0,0,1,3.61-3.61h32.11a75.8,75.8,0,0,1,29.15,5.8A75.8,75.8,0,0,1-13.45,58,75.8,75.8,0,0,1,3.06,82.75a75.8,75.8,0,0,1,5.8,29.15v52.66a68.95,68.95,0,0,0,20.19,48.75l8,8A75.8,75.8,0,0,1,53.52,246a75.8,75.8,0,0,1,5.8,29.15V614.95A60.19,60.19,0,0,0,76.95,657.5a67.42,67.42,0,0,1,19.75,47.67V891.5A3.61,3.61,0,0,1,93.08,895.11Z"/><path class="cls-8" d="M110.42,315h-55v-7.23h55a57,57,0,0,0,40.28-16.68,64.2,64.2,0,0,1,45.39-18.8h15.56a57,57,0,0,0,40.28-16.68l8.13-8.13a64.19,64.19,0,0,1,45.39-18.8H591.58A57,57,0,0,0,631.86,212l20-20a64.19,64.19,0,0,1,45.39-18.8h32.24a57,57,0,0,0,40.28-16.68l12.36-12.36a64.19,64.19,0,0,1,45.39-18.8H881.9a57,57,0,0,0,40.28-16.68l15.33-15.33a64.19,64.19,0,0,1,45.39-18.8h115.29a57,57,0,0,0,40.28-16.68L1282.77-86.44l5.11,5.11L1143.59,63a64.2,64.2,0,0,1-45.39,18.8H982.9a57,57,0,0,0-40.28,16.68l-15.33,15.33a64.19,64.19,0,0,1-45.39,18.8H827.55a57,57,0,0,0-40.28,16.68l-12.36,12.36a64.2,64.2,0,0,1-45.39,18.8H697.27A57,57,0,0,0,657,197.12l-20,20a64.19,64.19,0,0,1-45.39,18.8H305.45a57,57,0,0,0-40.28,16.68L257,260.75a64.19,64.19,0,0,1-45.39,18.8H196.09a57,57,0,0,0-40.28,16.68A64.2,64.2,0,0,1,110.42,315Z"/><path class="cls-8" d="M627.64,652.42l-62.87-73.94a107.26,107.26,0,0,0-81.85-37.84,114.66,114.66,0,0,1-81.08-33.58l-7.13-7.13a114.66,114.66,0,0,1-33.58-81.08V371.2a98.14,98.14,0,0,1,28.75-69.4l16.55-16.55A90.91,90.91,0,0,0,433.06,221V183.17a90.92,90.92,0,0,0-90.92-90.92H318.2A304.92,304.92,0,0,1,200.93,68.93,304.91,304.91,0,0,1,101.52,2.5L49.68-49.33l5.11-5.11L106.63-2.61A297.72,297.72,0,0,0,203.7,62.25,297.72,297.72,0,0,0,318.2,85h23.95a98.14,98.14,0,0,1,98.14,98.14V221a98.14,98.14,0,0,1-28.75,69.4L395,306.91a90.92,90.92,0,0,0-26.63,64.29v47.64a107.43,107.43,0,0,0,31.47,76l7.13,7.13a107.43,107.43,0,0,0,76,31.47,114.48,114.48,0,0,1,87.35,40.39l62.87,73.94Z"/><path class="cls-8" d="M325.64,623.11h-7.23V543.49a77.83,77.83,0,0,0-22.8-55A85.06,85.06,0,0,1,270.7,428.3v-95A58.39,58.39,0,0,1,329,275a50.76,50.76,0,0,0,36.13-15l30.92-30.92,5.11,5.11-30.92,30.92A58.32,58.32,0,0,1,329,282.2a51.15,51.15,0,0,0-51.09,51.09v95a77.83,77.83,0,0,0,22.8,55,85.06,85.06,0,0,1,24.91,60.15Z"/><path class="cls-8" d="M16.4,206.76l0-7.23,174-1.2a31.11,31.11,0,0,0,21.79-53.11L206.89,140a38.09,38.09,0,0,1-11.23-27.11V66.1h7.23v46.76a30.91,30.91,0,0,0,9.11,22l5.25,5.25a38.34,38.34,0,0,1-26.85,65.45Z"/><path class="cls-8" d="M506.25,457.72H395.18a52.75,52.75,0,0,1-37.55-15.55L356.52,441a45.57,45.57,0,0,0-32.44-13.44H297.77a52.75,52.75,0,0,1-37.55-15.55,45.57,45.57,0,0,0-32.44-13.44h-59.2a45.57,45.57,0,0,0-32.44,13.44l-5.57,5.57A52.75,52.75,0,0,1,93,433.18H55.42v-7.23H93a45.57,45.57,0,0,0,32.44-13.44l5.57-5.57a52.75,52.75,0,0,1,37.55-15.55h59.2a52.75,52.75,0,0,1,37.55,15.55,45.57,45.57,0,0,0,32.44,13.44h26.31a52.75,52.75,0,0,1,37.55,15.55l1.12,1.12a45.57,45.57,0,0,0,32.44,13.44H506.25a45.57,45.57,0,0,0,32.44-13.44l53.55-53.55A52.75,52.75,0,0,1,629.78,368H861.34a45.57,45.57,0,0,0,32.44-13.44l15.75-15.75a52.75,52.75,0,0,1,37.55-15.55h34.27a45.57,45.57,0,0,0,32.44-13.44l9.28-9.28a45.57,45.57,0,0,0,13.44-32.44V254a52.75,52.75,0,0,1,15.55-37.55l24-24a52.75,52.75,0,0,1,37.55-15.55H1154a45.57,45.57,0,0,0,32.44-13.44l24.17-24.17a52.75,52.75,0,0,1,37.55-15.55h65.75a45.57,45.57,0,0,0,32.44-13.44l89.44-89.44,5.11,5.11-89.44,89.44A52.75,52.75,0,0,1,1313.88,131h-65.75a45.57,45.57,0,0,0-32.44,13.44l-24.17,24.17A52.75,52.75,0,0,1,1154,184.12h-40.35a45.57,45.57,0,0,0-32.44,13.44l-24,24A45.57,45.57,0,0,0,1043.73,254v14a52.75,52.75,0,0,1-15.55,37.55l-9.28,9.28a52.75,52.75,0,0,1-37.55,15.55H947.07a45.57,45.57,0,0,0-32.44,13.44l-15.75,15.75a52.75,52.75,0,0,1-37.55,15.55H629.78a45.57,45.57,0,0,0-32.44,13.44L543.8,442.17A52.75,52.75,0,0,1,506.25,457.72Z"/><path class="cls-8" d="M644.74,375.12,633.64,364a132.47,132.47,0,0,1-38.8-93.67v-.13l1.38-38.59,7.22.26-1.37,38.53a125.24,125.24,0,0,0,36.68,88.49L649.85,370Z"/><path class="cls-8" d="M627.38,558.13A3.62,3.62,0,0,1,624,555.7a57.57,57.57,0,0,0-13.57-21.62,64.46,64.46,0,0,1-18.88-45.58v-31A57.23,57.23,0,0,0,574.76,417l-5.48-5.48a3.61,3.61,0,0,1,5.11-5.11l5.48,5.48a64.45,64.45,0,0,1,18.88,45.58v31A57.22,57.22,0,0,0,615.51,529a64.84,64.84,0,0,1,15.28,24.35,3.62,3.62,0,0,1-3.41,4.81Z"/></g></g><g id="Dark_green" data-name="Dark green"><g class="cls-6"><path class="cls-9" d="M132.77,445.11h0a44.39,44.39,0,0,0,43.67,52.35h99.91a42.21,42.21,0,0,0,29.84-12.36h0A42.21,42.21,0,0,1,336,472.74h4a17.13,17.13,0,0,0,17.13-17.13h0A17.13,17.13,0,0,0,340,438.47H293.58a40,40,0,0,1-31.13-14.89h0a40,40,0,0,0-31.13-14.89H176.44A44.39,44.39,0,0,0,132.77,445.11Z"/><path class="cls-9" d="M175.63-69.53l5.78,5.78a120.07,120.07,0,0,0,84.9,35.17h0a120.07,120.07,0,0,1,84.9,35.17h0a95.17,95.17,0,0,0,67.29,27.87h0a51,51,0,0,0,36.08-14.94l7.13-7.13a42.46,42.46,0,0,0,12.44-30h0a42.46,42.46,0,0,0-12.44-30L424.62-84.77Z"/></g></g><g id="Beachside"><g class="cls-6"><path class="cls-10" d="M-193.13-50.31l46,46a46.86,46.86,0,0,1,13.72,33.13v83.5a46.86,46.86,0,0,0,13.72,33.13l29.95,29.95A46.86,46.86,0,0,1-76,208.54v64a46.86,46.86,0,0,1-13.72,33.13l-26.41,26.41a46.86,46.86,0,0,1-33.13,13.72h0a46.86,46.86,0,0,0-33.13,13.72L-202.2,379.3a46.86,46.86,0,0,0-13.72,33.13v58.74A46.86,46.86,0,0,0-202.2,504.3l26.53,26.53a46.86,46.86,0,0,0,33.13,13.72h70.1a46.86,46.86,0,0,1,33.13,13.72l17.13,17.13A46.86,46.86,0,0,1-8.44,608.54v72.84A46.86,46.86,0,0,0,5.28,714.52l34.84,34.84A46.86,46.86,0,0,1,53.85,782.5v78.77A46.86,46.86,0,0,1,7,908.12H-231.7a46.86,46.86,0,0,1-46.86-46.86L-300.84-39.45c0-25.88,43.25-24.59,69.13-24.59h5.44A46.86,46.86,0,0,1-193.13-50.31Z"/><path class="cls-11" d="M-193.13-50.31l46,46a46.86,46.86,0,0,1,13.72,33.13v83.5a46.86,46.86,0,0,0,13.72,33.13l29.95,29.95A46.86,46.86,0,0,1-76,208.54v64a46.86,46.86,0,0,1-13.72,33.13l-26.41,26.41a46.86,46.86,0,0,1-33.13,13.72h0a46.86,46.86,0,0,0-33.13,13.72L-202.2,379.3a46.86,46.86,0,0,0-13.72,33.13v58.74A46.86,46.86,0,0,0-202.2,504.3l26.53,26.53a46.86,46.86,0,0,0,33.13,13.72h70.1a46.86,46.86,0,0,1,33.13,13.72l17.13,17.13A46.86,46.86,0,0,1-8.44,608.54v72.84A46.86,46.86,0,0,0,5.28,714.52l34.84,34.84A46.86,46.86,0,0,1,53.85,782.5v78.77A46.86,46.86,0,0,1,7,908.12H-231.7a46.86,46.86,0,0,1-46.86-46.86L-300.84-39.45c0-25.88,43.25-24.59,69.13-24.59h5.44A46.86,46.86,0,0,1-193.13-50.31Z"/><path class="cls-12" d="M40.12,749.36,5.28,714.52A46.86,46.86,0,0,1-8.44,681.39V608.54a46.86,46.86,0,0,0-13.72-33.13l-17.13-17.13a46.86,46.86,0,0,0-33.13-13.72H-110a46.86,46.86,0,0,1,23.59,6.38l-56.1-6.38a46.86,46.86,0,0,1-33.13-13.72L-202.2,504.3a46.86,46.86,0,0,1-13.72-33.13V412.43A46.86,46.86,0,0,1-202.2,379.3l19.58-19.58a47,47,0,0,1,33.25-13.93,46.86,46.86,0,0,0,33.23-13.72l26.41-26.41A46.86,46.86,0,0,0-76,272.51v-64A46.86,46.86,0,0,0-89.73,175.4l-29.95-29.95a46.86,46.86,0,0,1-13.72-33.13V28.82A46.86,46.86,0,0,0-147.13-4.31l-46-46c-8.79-8.79-16-36.57-28.47-36.57L-234.32-93a261.16,261.16,0,0,0-33.44,2l8.57,4.09c12.43,0,19.68,27.78,28.47,36.57l46,46A46.86,46.86,0,0,1-171,28.82v83.5a46.86,46.86,0,0,0,13.72,33.13l9,8.77a135.11,135.11,0,0,1,40.42,86.53h0A61.75,61.75,0,0,1-158,312.42h0c-17.1,3.77-35.32,13.54-49.82,22.82a99.42,99.42,0,0,0-45.09,70,55,55,0,0,0-.59,7.15l-.27,55.12a109,109,0,0,0,25.3,70.36h0a109,109,0,0,0,52.65,34.66c9.13,2.71,61.78,9.64,61.78,9.64a75.54,75.54,0,0,1,67.7,74.15l.33,25a46.86,46.86,0,0,0,13.72,33.13h0A165.82,165.82,0,0,1,16.26,831.77v29.49c0,25.88-5.44,62.4-31.32,62.4l-247.24,4.17a34.38,34.38,0,0,0,6,.53l278.83-4.7c25.88,0,31.32-36.52,31.32-62.4V782.5A46.86,46.86,0,0,0,40.12,749.36Z"/></g></g><path class="cls-8" d="M38.36,172.5H179.47a0,0,0,0,1,0,0v0a8.39,8.39,0,0,1-8.39,8.39H46.74a8.39,8.39,0,0,1-8.39-8.39v0a0,0,0,0,1,0,0Z"/><path class="cls-8" d="M407.9,350.62H585.7a0,0,0,0,1,0,0v0a8.39,8.39,0,0,1-8.39,8.39h-161a8.39,8.39,0,0,1-8.39-8.39v0a0,0,0,0,1,0,0Z"/><path class="cls-8" d="M367,216.45H244.42a8.56,8.56,0,0,1-8.56-8.56h0l139.63.06A8.48,8.48,0,0,1,367,216.45Z"/><path class="cls-8" d="M100.6,344H234.29a0,0,0,0,1,0,0v0a8.39,8.39,0,0,1-8.39,8.39H109A8.39,8.39,0,0,1,100.6,344v0A0,0,0,0,1,100.6,344Z"/><g id="Roads"><g class="cls-6"><path class="cls-13" d="M96,892.22a3.61,3.61,0,0,1-3.61-3.61V702.28a60.19,60.19,0,0,0-17.63-42.56A67.42,67.42,0,0,1,55,612.05V272.24a68.61,68.61,0,0,0-5.25-26.39,68.6,68.6,0,0,0-14.95-22.37l-8-8A76.18,76.18,0,0,1,4.52,161.67V109A68.61,68.61,0,0,0-.72,82.63,68.6,68.6,0,0,0-15.67,60.26,68.61,68.61,0,0,0-38,45.31a68.61,68.61,0,0,0-26.39-5.25H-96.54a3.61,3.61,0,0,1-3.61-3.61,3.61,3.61,0,0,1,3.61-3.61h32.11a75.8,75.8,0,0,1,29.15,5.8A75.8,75.8,0,0,1-10.56,55.15,75.8,75.8,0,0,1,6,79.86,75.8,75.8,0,0,1,11.75,109v52.66a68.95,68.95,0,0,0,20.19,48.75l8,8a75.8,75.8,0,0,1,16.51,24.71,75.8,75.8,0,0,1,5.8,29.15V612.05a60.19,60.19,0,0,0,17.63,42.56,67.42,67.42,0,0,1,19.75,47.67V888.6A3.61,3.61,0,0,1,96,892.22Z"/><path class="cls-13" d="M113.31,312.15h-55v-7.23h55a57,57,0,0,0,40.28-16.68A64.2,64.2,0,0,1,199,269.43h15.56a57,57,0,0,0,40.28-16.68l8.13-8.13a64.19,64.19,0,0,1,45.39-18.8H594.48a57,57,0,0,0,40.28-16.68l20-20a64.19,64.19,0,0,1,45.39-18.8h32.24a57,57,0,0,0,40.28-16.68L785,141.27a64.19,64.19,0,0,1,45.39-18.8h54.35a57,57,0,0,0,40.28-16.68L940.4,90.45a64.19,64.19,0,0,1,45.39-18.8h115.29A57,57,0,0,0,1141.37,55L1285.66-89.33l5.11,5.11L1146.48,60.08a64.2,64.2,0,0,1-45.39,18.8H985.8a57,57,0,0,0-40.28,16.68l-15.33,15.33a64.19,64.19,0,0,1-45.39,18.8H830.44a57,57,0,0,0-40.28,16.68L777.8,158.74a64.2,64.2,0,0,1-45.39,18.8H700.17a57,57,0,0,0-40.28,16.68l-20,20A64.19,64.19,0,0,1,594.48,233H308.34a57,57,0,0,0-40.28,16.68l-8.13,8.13a64.19,64.19,0,0,1-45.39,18.8H199a57,57,0,0,0-40.28,16.68,64.2,64.2,0,0,1-45.39,18.8Z"/><path class="cls-13" d="M630.54,649.53l-62.87-73.94a107.26,107.26,0,0,0-81.85-37.84,114.66,114.66,0,0,1-81.08-33.58L397.61,497A114.66,114.66,0,0,1,364,416V368.31a98.14,98.14,0,0,1,28.75-69.4l16.55-16.55A90.91,90.91,0,0,0,436,218.07V180.28A90.92,90.92,0,0,0,345,89.37H321.09A304.92,304.92,0,0,1,203.82,66,304.91,304.91,0,0,1,104.41-.39l-51-51,5.11-5.11,51,51a297.72,297.72,0,0,0,97.07,64.86,297.72,297.72,0,0,0,114.5,22.78H345a98.14,98.14,0,0,1,98.14,98.14v37.79a98.14,98.14,0,0,1-28.75,69.4L397.88,304a90.92,90.92,0,0,0-26.63,64.29V416a107.43,107.43,0,0,0,31.47,76l7.13,7.13a107.43,107.43,0,0,0,76,31.47,114.48,114.48,0,0,1,87.35,40.39L636,644.84Z"/><path class="cls-13" d="M328.53,620.22H321.3V540.6a77.83,77.83,0,0,0-22.8-55,85.06,85.06,0,0,1-24.91-60.15v-95a58.39,58.39,0,0,1,58.32-58.32,50.76,50.76,0,0,0,36.13-15L399,226.19l5.11,5.11-30.92,30.92a58.32,58.32,0,0,1-41.24,17.08,51.15,51.15,0,0,0-51.09,51.09v95a77.83,77.83,0,0,0,22.8,55,85.06,85.06,0,0,1,24.91,60.15Z"/><path class="cls-13" d="M19.3,203.87l0-7.23,174-1.2A31.11,31.11,0,0,0,215,142.33l-5.25-5.25A38.09,38.09,0,0,1,198.55,110V63.21h7.23V110a30.91,30.91,0,0,0,9.11,22l5.25,5.25a38.34,38.34,0,0,1-26.85,65.45Z"/><path class="cls-13" d="M509.14,454.83H398.08a52.75,52.75,0,0,1-37.55-15.55l-1.12-1.12A45.57,45.57,0,0,0,327,424.72H300.66a52.75,52.75,0,0,1-37.55-15.55,45.57,45.57,0,0,0-32.44-13.44h-59.2A45.57,45.57,0,0,0,139,409.17l-5.57,5.57a52.75,52.75,0,0,1-37.55,15.55H58.31v-7.23H95.93a45.57,45.57,0,0,0,32.44-13.44l5.57-5.57a52.75,52.75,0,0,1,37.55-15.55h59.2a52.75,52.75,0,0,1,37.55,15.55,45.57,45.57,0,0,0,32.44,13.44H327A52.75,52.75,0,0,1,364.52,433l1.12,1.12a45.57,45.57,0,0,0,32.44,13.44H509.14a45.57,45.57,0,0,0,32.44-13.44l53.55-53.55a52.75,52.75,0,0,1,37.55-15.55H864.23a45.57,45.57,0,0,0,32.44-13.44l15.75-15.75A52.75,52.75,0,0,1,950,320.32h34.27a45.57,45.57,0,0,0,32.44-13.44l9.28-9.28a45.57,45.57,0,0,0,13.44-32.44v-14a52.75,52.75,0,0,1,15.55-37.55l24-24A52.75,52.75,0,0,1,1116.51,174h40.35a45.57,45.57,0,0,0,32.44-13.44l24.17-24.17A52.75,52.75,0,0,1,1251,120.84h65.75a45.57,45.57,0,0,0,32.44-13.44L1438.64,18l5.11,5.11-89.44,89.44a52.75,52.75,0,0,1-37.55,15.55H1251a45.57,45.57,0,0,0-32.44,13.44l-24.17,24.17a52.75,52.75,0,0,1-37.55,15.55h-40.35a45.57,45.57,0,0,0-32.44,13.44l-24,24a45.57,45.57,0,0,0-13.44,32.44v14a52.75,52.75,0,0,1-15.55,37.55l-9.28,9.28a52.75,52.75,0,0,1-37.55,15.55H950A45.57,45.57,0,0,0,917.53,341l-15.75,15.75a52.75,52.75,0,0,1-37.55,15.55H632.67a45.57,45.57,0,0,0-32.44,13.44l-53.55,53.55A52.75,52.75,0,0,1,509.14,454.83Z"/><path class="cls-13" d="M647.63,372.23l-11.09-11.09a132.47,132.47,0,0,1-38.8-93.67v-.13l1.38-38.59,7.22.26L605,267.53A125.24,125.24,0,0,0,641.65,356l11.09,11.09Z"/><path class="cls-13" d="M630.27,555.24a3.62,3.62,0,0,1-3.41-2.42,57.57,57.57,0,0,0-13.57-21.62,64.46,64.46,0,0,1-18.88-45.58v-31a57.23,57.23,0,0,0-16.76-40.46l-5.48-5.48a3.61,3.61,0,0,1,5.11-5.11l5.48,5.48a64.45,64.45,0,0,1,18.88,45.58v31a57.22,57.22,0,0,0,16.76,40.46,64.84,64.84,0,0,1,15.28,24.35,3.62,3.62,0,0,1-3.41,4.81Z"/></g></g><g id="otherBuildings"><g id="tower"><line class="cls-14" x1="596.43" y1="21.81" x2="596.43" y2="37.99"/><line class="cls-14" x1="592.02" y1="28.12" x2="601.06" y2="28.12"/><line class="cls-14" x1="592.02" y1="24.76" x2="601.06" y2="24.76"/><rect class="cls-15" x="595.32" y="49.24" width="22.35" height="134.54"/><g id="roof_bars" data-name="roof bars"><line class="cls-16" x1="552.46" y1="32.34" x2="552.46" y2="41.83"/><line class="cls-16" x1="547.81" y1="32.34" x2="589.42" y2="32.34"/><line class="cls-16" x1="560.64" y1="32.34" x2="560.64" y2="41.83"/><line class="cls-16" x1="568.82" y1="32.34" x2="568.82" y2="41.83"/><line class="cls-16" x1="577" y1="32.34" x2="577" y2="41.83"/><line class="cls-16" x1="585.18" y1="32.34" x2="585.18" y2="41.83"/></g><rect class="cls-17" x="534.28" y="49.24" width="61.03" height="134.54"/><g id="window"><rect class="cls-18" x="541.76" y="50.79" width="47.48" height="18.12"/><rect class="cls-19" x="541.76" y="50.79" width="47.48" height="6.36"/></g><g id="window-2" data-name="window"><rect class="cls-18" x="541.76" y="68.58" width="47.48" height="18.12"/><rect class="cls-19" x="541.76" y="68.58" width="47.48" height="6.36"/></g><g id="window-3" data-name="window"><rect class="cls-18" x="541.76" y="86.48" width="47.48" height="17.88"/><rect class="cls-19" x="541.76" y="86.48" width="47.48" height="6.28"/></g><g id="window-4" data-name="window"><rect class="cls-18" x="541.76" y="104.21" width="47.48" height="17.99"/><rect class="cls-19" x="541.76" y="104.21" width="47.48" height="6.31"/></g><g id="window-5" data-name="window"><rect class="cls-18" x="541.76" y="121.93" width="47.48" height="18.12"/><rect class="cls-19" x="541.76" y="121.93" width="47.48" height="6.36"/></g><g id="window-6" data-name="window"><rect class="cls-18" x="541.76" y="138.54" width="47.48" height="20.47"/><rect class="cls-19" x="541.76" y="138.54" width="47.48" height="7.18"/></g><g id="window-7" data-name="window"><rect class="cls-18" x="541.76" y="155.66" width="47.48" height="21.81"/><rect class="cls-19" x="541.76" y="155.66" width="47.48" height="7.65"/></g><rect class="cls-20" x="534.13" y="43.16" width="61.19" height="6.08"/><rect class="cls-20" x="497.53" y="113.47" width="134.54" height="6.08" transform="translate(681.31 -448.29) rotate(90)"/><rect class="cls-20" x="525.01" y="113.47" width="134.54" height="6.08" transform="translate(708.79 -475.76) rotate(90)"/><rect class="cls-20" x="469.9" y="113.47" width="134.54" height="6.08" transform="translate(653.68 -420.65) rotate(90)"/><rect class="cls-15" x="473.71" y="115.74" width="134.54" height="1.55" transform="translate(657.49 -424.47) rotate(90)"/><rect class="cls-15" x="540.21" y="49.24" width="49.03" height="1.55" transform="translate(1129.44 100.04) rotate(180)"/><rect class="cls-15" x="501.35" y="115.74" width="134.54" height="1.55" transform="translate(685.13 -452.1) rotate(90)"/><rect class="cls-17" x="595.32" y="43.16" width="22.35" height="6.08"/><rect class="cls-20" x="546.52" y="37.09" width="43.12" height="6.08"/><rect class="cls-17" x="589.64" y="37.09" width="15.79" height="6.08"/><rect class="cls-18" x="597.48" y="51.42" width="4.38" height="4.38"/><rect class="cls-19" x="597.48" y="51.35" width="4.38" height="0.94"/><rect class="cls-18" x="604.3" y="51.42" width="4.38" height="4.38"/><rect class="cls-19" x="604.3" y="51.35" width="4.38" height="0.94"/><rect class="cls-18" x="597.48" y="57.7" width="4.38" height="4.38"/><rect class="cls-19" x="597.48" y="57.62" width="4.38" height="0.94"/></g><rect class="cls-2" x="497.78" y="107.25" width="20.81" height="34.11"/><rect class="cls-2" x="499.91" y="94.53" width="15.88" height="23.73"/><rect class="cls-21" x="493.63" y="107.25" width="18.07" height="34.11"/><rect class="cls-21" x="495.39" y="94.53" width="14.85" height="23.73"/><rect class="cls-22" x="492.59" y="90.96" width="26.02" height="3.57"/><rect class="cls-23" x="492.59" y="90.96" width="15.95" height="3.57"/><rect class="cls-2" x="495.39" y="94.53" width="20.39" height="3.03"/><polygon class="cls-23" points="505.61 68.41 492.59 90.96 518.61 90.96 505.61 68.41"/><polygon class="cls-22" points="505.61 68.41 505.61 90.96 518.61 90.96 512.12 79.69 505.61 68.41"/><rect id="Front_wall-3" data-name="Front wall" class="cls-2" x="460.3" y="120.34" width="104.03" height="5.11"/><rect id="Front_wall-4" data-name="Front wall" class="cls-23" x="460.3" y="117.51" width="82.25" height="2.83"/><rect id="Front_wall-5" data-name="Front wall" class="cls-22" x="542.55" y="117.51" width="21.78" height="2.83"/><rect id="Front_wall-6" data-name="Front wall" class="cls-2" x="460.3" y="148.79" width="104.03" height="7.34"/><rect id="Front_wall-7" data-name="Front wall" class="cls-21" x="460.3" y="122.17" width="82.25" height="20.11"/><rect id="Front_wall-8" data-name="Front wall" class="cls-2" x="479.27" y="140.04" width="89.18" height="43.75"/><rect id="Front_wall-9" data-name="Front wall" class="cls-2" x="542.55" y="122.17" width="21.78" height="20.94"/><rect id="Front_wall-10" data-name="Front wall" class="cls-2" x="542.55" y="122.17" width="21.78" height="20.94"/><g class="cls-24"><polygon class="cls-2" points="564.96 147.65 557.45 147.65 549.93 147.65 542.42 147.65 542.42 147.84 568.51 147.84 568.51 147.65 564.96 147.65"/><polygon class="cls-2" points="550.01 127.29 550.01 124.7 542.42 124.72 542.42 127.29 546.23 127.29 550.01 127.29"/><polygon class="cls-2" points="557.41 127.29 557.41 124.7 553.63 124.7 549.82 124.7 549.82 127.29 553.63 127.29 557.41 127.29"/><polygon class="cls-25" points="557.41 127.29 561.22 127.29 565 127.29 565 124.7 561.22 124.7 557.41 124.7 557.41 127.29"/><rect class="cls-2" x="565" y="124.7" width="3.52" height="2.59"/><polygon class="cls-25" points="561.3 124.7 561.3 122.11 553.71 122.11 553.71 124.7 557.48 124.7 561.3 124.7"/><polygon class="cls-2" points="561.3 124.7 565 124.7 568.51 124.7 568.51 122.11 561.3 122.11 561.3 124.7"/><polygon class="cls-2" points="550.01 132.47 550.01 129.88 546.23 129.88 542.42 129.88 542.42 132.47 546.23 132.47 550.01 132.47"/><polygon class="cls-2" points="557.41 132.47 557.41 129.88 553.63 129.88 549.82 129.88 549.82 132.47 553.63 132.47 557.41 132.47"/><polygon class="cls-2" points="557.41 132.47 561.22 132.47 565 132.47 565 129.88 561.22 129.88 557.41 129.88 557.41 132.47"/><rect class="cls-2" x="565" y="129.88" width="3.52" height="2.59"/><rect class="cls-25" x="542.42" y="127.29" width="3.7" height="2.59"/><polygon class="cls-2" points="553.71 127.29 549.9 127.29 546.12 127.29 546.12 129.88 549.9 129.88 553.71 129.88 553.71 127.29"/><rect class="cls-2" x="542.42" y="122.11" width="3.7" height="2.59"/><rect class="cls-2" x="538.72" y="129.63" width="3.7" height="2.59"/><polygon class="cls-2" points="553.71 122.11 549.9 122.11 546.12 122.11 546.12 124.7 549.9 124.7 553.71 124.7 553.71 122.11"/><polygon class="cls-2" points="553.71 127.29 553.71 129.88 557.48 129.88 561.3 129.88 561.3 127.29 557.48 127.29 553.71 127.29"/><polygon class="cls-2" points="561.3 127.29 561.3 129.88 565 129.88 568.51 129.88 568.51 127.29 565 127.29 561.3 127.29"/><polygon class="cls-2" points="550.01 137.66 550.01 135.07 546.23 135.07 542.42 135.07 542.42 137.66 546.23 137.66 550.01 137.66"/><polygon class="cls-25" points="557.41 137.66 557.41 135.07 553.63 135.07 549.82 135.07 549.82 137.66 553.63 137.66 557.41 137.66"/><polygon class="cls-2" points="557.41 137.66 561.22 137.66 565 137.66 565 135.07 561.22 135.07 557.41 135.07 557.41 137.66"/><rect class="cls-2" x="565" y="135.07" width="3.52" height="2.59"/><rect class="cls-2" x="542.42" y="132.47" width="3.7" height="2.59"/><polygon class="cls-2" points="553.71 132.47 549.9 132.47 546.12 132.47 546.12 135.07 549.9 135.07 553.71 135.07 553.71 132.47"/><polygon class="cls-2" points="553.71 132.47 553.71 135.07 557.48 135.07 561.3 135.07 561.3 132.47 557.48 132.47 553.71 132.47"/><polygon class="cls-2" points="561.3 132.47 561.3 135.07 565 135.07 568.51 135.07 568.51 132.47 565 132.47 561.3 132.47"/><polygon class="cls-2" points="550.01 142.65 550.01 140.25 546.23 140.25 542.42 140.25 542.42 142.65 546.23 142.65 550.01 142.65"/><polygon class="cls-2" points="557.41 142.65 557.41 140.25 553.63 140.25 549.82 140.25 549.82 142.65 553.63 142.65 557.41 142.65"/><polygon class="cls-2" points="557.41 142.65 561.22 142.65 565 142.65 565 140.25 561.22 140.25 557.41 140.25 557.41 142.65"/><rect class="cls-2" x="565" y="140.25" width="3.52" height="2.41"/><rect class="cls-2" x="542.42" y="137.66" width="3.7" height="2.59"/><rect class="cls-2" x="538.72" y="137.66" width="3.7" height="2.59"/><polygon class="cls-2" points="553.71 137.66 549.9 137.66 546.12 137.66 546.12 140.25 549.9 140.25 553.71 140.25 553.71 137.66"/><polygon class="cls-2" points="553.71 137.66 553.71 140.25 557.48 140.25 561.3 140.25 561.3 137.66 557.48 137.66 553.71 137.66"/><polygon class="cls-2" points="561.3 137.66 561.3 140.25 565 140.25 568.51 140.25 568.51 137.66 565 137.66 561.3 137.66"/><polygon class="cls-2" points="550.01 145.24 546.23 145.24 542.42 145.24 542.42 147.84 550.01 147.84 550.01 145.24"/><polygon class="cls-2" points="553.63 145.24 549.82 145.24 549.82 147.84 557.41 147.84 557.41 145.24 553.63 145.24"/><polygon class="cls-2" points="561.22 145.24 557.41 145.24 557.41 147.84 565 147.84 565 145.24 561.22 145.24"/><rect class="cls-2" x="565" y="145.24" width="3.52" height="2.59"/><polygon class="cls-2" points="546.12 142.65 542.42 142.65 542.42 142.84 542.42 145.24 546.12 145.24 546.12 142.65"/><polygon class="cls-2" points="553.71 142.65 549.9 142.65 546.12 142.65 546.12 145.24 549.9 145.24 553.71 145.24 553.71 142.65"/><polygon class="cls-2" points="553.71 142.65 553.71 145.24 557.48 145.24 561.3 145.24 561.3 142.65 557.48 142.65 553.71 142.65"/><polygon class="cls-2" points="561.3 142.65 561.3 145.24 565 145.24 568.51 145.24 568.51 142.65 565 142.65 561.3 142.65"/></g><rect id="Front_wall-11" data-name="Front wall" class="cls-21" x="456.18" y="140.04" width="89.18" height="37.26"/><rect id="Front_wall-12" data-name="Front wall" class="cls-2" x="460.3" y="138.51" width="104.03" height="1.52"/><rect id="Front_wall-13" data-name="Front wall" class="cls-2" x="459.2" y="142.5" width="83.35" height="1.71"/><rect id="Front_wall-14" data-name="Front wall" class="cls-2" x="444.23" y="159.19" width="31.66" height="1.71" transform="translate(620.1 -300.02) rotate(90)"/><rect class="cls-2" x="513.27" y="114.81" width="2.92" height="23.71"/><rect class="cls-2" x="484.46" y="120.34" width="2.92" height="18.18"/><rect class="cls-2" x="500.32" y="106" width="2.92" height="7.28"/><polygon class="cls-2" points="503.24 106 490.3 114.81 516.19 114.81 503.24 106"/><polygon class="cls-21" points="500.32 106 487.38 114.81 487.38 138.51 513.27 138.51 513.27 114.81 500.32 106"/><polygon class="cls-2" points="500.32 108.22 492.5 113.55 508.15 113.55 500.32 108.22"/><rect id="Front_wall-15" data-name="Front wall" class="cls-2" x="488.42" y="115.8" width="23.69" height="1.71"/><circle class="cls-2" cx="499.91" cy="128.14" r="7"/><circle class="cls-26" cx="499.91" cy="128.14" r="5.44"/><polyline class="cls-27" points="499.91 124.45 499.91 128.14 501.82 130.05"/><g id="Door"><path class="cls-2" d="M535.57,155v16.18H527V155a4,4,0,0,1,.08-.81l0-.1a4.31,4.31,0,0,1,3.23-3.27l.11,0a4.29,4.29,0,0,1,.86-.08,4.24,4.24,0,0,1,1.76.38l.17.08a4.35,4.35,0,0,1,1.11.8h0a4.33,4.33,0,0,1,.82,1.15c.06.13.12.27.17.41h0a4.19,4.19,0,0,1,.18.64A4,4,0,0,1,535.57,155Z"/></g><g id="Door-2" data-name="Door"><path class="cls-25" d="M535.57,155v16.18h-6.26V155.87a4.67,4.67,0,0,1,.09-.91s0-.08,0-.11a4.84,4.84,0,0,1,3.63-3.67l.12,0h0a4.35,4.35,0,0,1,1.11.8h0a4.33,4.33,0,0,1,.82,1.15c.06.13.12.27.17.41h0a4.19,4.19,0,0,1,.18.64A4,4,0,0,1,535.57,155Z"/></g><g id="Door-3" data-name="Door"><path class="cls-2" d="M520.29,155v16.18H511.7V155a4,4,0,0,1,.08-.81l0-.1a4.31,4.31,0,0,1,3.23-3.27l.11,0a4.29,4.29,0,0,1,.86-.08,4.24,4.24,0,0,1,1.76.38l.17.08a4.35,4.35,0,0,1,1.11.8h0a4.33,4.33,0,0,1,.82,1.15c.06.13.12.27.17.41h0a4.19,4.19,0,0,1,.18.64A4,4,0,0,1,520.29,155Z"/></g><g id="Door-4" data-name="Door"><path class="cls-25" d="M520.29,155v16.18H514V155.87a4.67,4.67,0,0,1,.09-.91s0-.08,0-.11a4.84,4.84,0,0,1,3.63-3.67l.12,0h0a4.35,4.35,0,0,1,1.11.8h0a4.33,4.33,0,0,1,.82,1.15c.06.13.12.27.17.41h0a4.19,4.19,0,0,1,.18.64A4,4,0,0,1,520.29,155Z"/></g><g id="Door-5" data-name="Door"><path class="cls-2" d="M489.73,155v16.18h-8.59V155a4,4,0,0,1,.08-.81l0-.1a4.31,4.31,0,0,1,3.23-3.27l.11,0a4.29,4.29,0,0,1,.86-.08,4.24,4.24,0,0,1,1.76.38l.17.08a4.35,4.35,0,0,1,1.11.8h0a4.33,4.33,0,0,1,.82,1.15c.06.13.12.27.17.41h0a4.19,4.19,0,0,1,.18.64A4,4,0,0,1,489.73,155Z"/></g><g id="Door-6" data-name="Door"><path class="cls-25" d="M489.73,155v16.18h-6.26V155.87a4.67,4.67,0,0,1,.09-.91s0-.08,0-.11a4.84,4.84,0,0,1,3.63-3.67l.12,0h0a4.35,4.35,0,0,1,1.11.8h0a4.33,4.33,0,0,1,.82,1.15c.06.13.12.27.17.41h0a4.19,4.19,0,0,1,.18.64A4,4,0,0,1,489.73,155Z"/></g><g id="Door-7" data-name="Door"><path class="cls-2" d="M505,155v16.18h-8.59V155a4,4,0,0,1,.08-.81l0-.1a4.31,4.31,0,0,1,3.23-3.27l.11,0a4.29,4.29,0,0,1,.86-.08,4.24,4.24,0,0,1,1.76.38l.17.08a4.35,4.35,0,0,1,1.11.8h0a4.33,4.33,0,0,1,.82,1.15c.06.13.12.27.17.41h0a4.19,4.19,0,0,1,.18.64A4,4,0,0,1,505,155Z"/></g><g id="Door-8" data-name="Door"><path class="cls-25" d="M505,155v16.18h-6.26V155.87a4.67,4.67,0,0,1,.09-.91s0-.08,0-.11a4.84,4.84,0,0,1,3.63-3.67l.12,0h0a4.35,4.35,0,0,1,1.11.8h0a4.33,4.33,0,0,1,.82,1.15c.06.13.12.27.17.41h0a4.19,4.19,0,0,1,.18.64A4,4,0,0,1,505,155Z"/></g><g id="Door-9" data-name="Door"><path class="cls-2" d="M474.45,155v16.18h-8.59V155a4,4,0,0,1,.08-.81l0-.1a4.31,4.31,0,0,1,3.23-3.27l.11,0a4.29,4.29,0,0,1,.86-.08,4.24,4.24,0,0,1,1.76.38l.17.08a4.35,4.35,0,0,1,1.11.8h0a4.33,4.33,0,0,1,.82,1.15c.06.13.12.27.17.41h0a4.19,4.19,0,0,1,.18.64A4,4,0,0,1,474.45,155Z"/></g><g id="Door-10" data-name="Door"><path class="cls-25" d="M474.45,155v16.18h-6.26V155.87a4.67,4.67,0,0,1,.09-.91s0-.08,0-.11a4.84,4.84,0,0,1,3.63-3.67l.12,0h0a4.35,4.35,0,0,1,1.11.8h0a4.33,4.33,0,0,1,.82,1.15c.06.13.12.27.17.41h0a4.19,4.19,0,0,1,.18.64A4,4,0,0,1,474.45,155Z"/></g><rect class="cls-2" x="460.91" y="173.99" width="107.54" height="1.1"/><rect class="cls-21" x="450.71" y="179.4" width="89.1" height="4.32"/><rect class="cls-21" x="453.6" y="175.08" width="89.1" height="4.32"/><rect class="cls-2" x="539.81" y="179.4" width="28.64" height="4.32"/><rect class="cls-2" x="542.7" y="175.08" width="25.75" height="4.32"/><rect class="cls-2" x="453.6" y="178.3" width="114.86" height="1.1"/><rect class="cls-2" x="450.71" y="182.61" width="117.75" height="1.24"/><g id="Door-11" data-name="Door"><path class="cls-2" d="M537,127.92v7.58h-5.5v-7.58a2.59,2.59,0,0,1,.05-.52v-.07a2.76,2.76,0,0,1,2.07-2.09h.07a2.74,2.74,0,0,1,.55-.05,2.71,2.71,0,0,1,1.12.24l.11.05a2.78,2.78,0,0,1,.71.51h0a2.77,2.77,0,0,1,.52.74c0,.09.08.17.11.26h0a2.68,2.68,0,0,1,.11.41A2.59,2.59,0,0,1,537,127.92Z"/></g><g id="Door-12" data-name="Door"><path class="cls-25" d="M537,127.92v7.58h-4v-7a3,3,0,0,1,.06-.59v-.07a3.1,3.1,0,0,1,2.32-2.35l.08,0h0a2.78,2.78,0,0,1,.71.51h0a2.77,2.77,0,0,1,.52.74c0,.09.08.17.11.26h0a2.68,2.68,0,0,1,.11.41A2.59,2.59,0,0,1,537,127.92Z"/></g><g id="Door-13" data-name="Door"><path class="cls-2" d="M527.23,127.92v7.58h-5.5v-7.58a2.59,2.59,0,0,1,.05-.52v-.07a2.76,2.76,0,0,1,2.07-2.09h.07a2.74,2.74,0,0,1,.55-.05,2.71,2.71,0,0,1,1.12.24l.11.05a2.78,2.78,0,0,1,.71.51h0a2.77,2.77,0,0,1,.52.74c0,.09.08.17.11.26h0a2.68,2.68,0,0,1,.11.41A2.59,2.59,0,0,1,527.23,127.92Z"/></g><g id="Door-14" data-name="Door"><path class="cls-25" d="M527.23,127.92v7.58h-4v-7a3,3,0,0,1,.06-.59v-.07a3.1,3.1,0,0,1,2.32-2.35l.08,0h0a2.78,2.78,0,0,1,.71.51h0a2.77,2.77,0,0,1,.52.74c0,.09.08.17.11.26h0a2.68,2.68,0,0,1,.11.41A2.59,2.59,0,0,1,527.23,127.92Z"/></g><g id="Door-15" data-name="Door"><path class="cls-2" d="M481.23,127.92v7.58h-5.5v-7.58a2.59,2.59,0,0,1,.05-.52v-.07a2.76,2.76,0,0,1,2.07-2.09h.07a2.74,2.74,0,0,1,.55-.05,2.71,2.71,0,0,1,1.12.24l.11.05a2.78,2.78,0,0,1,.71.51h0a2.77,2.77,0,0,1,.52.74c0,.09.08.17.11.26h0a2.68,2.68,0,0,1,.11.41A2.59,2.59,0,0,1,481.23,127.92Z"/></g><g id="Door-16" data-name="Door"><path class="cls-25" d="M481.23,127.92v7.58h-4v-7a3,3,0,0,1,.06-.59v-.07a3.1,3.1,0,0,1,2.32-2.35l.08,0h0a2.78,2.78,0,0,1,.71.51h0a2.77,2.77,0,0,1,.52.74c0,.09.08.17.11.26h0a2.68,2.68,0,0,1,.11.41A2.59,2.59,0,0,1,481.23,127.92Z"/></g><g id="Door-17" data-name="Door"><path class="cls-2" d="M471.45,127.92v7.58h-5.5v-7.58a2.59,2.59,0,0,1,.05-.52v-.07a2.76,2.76,0,0,1,2.07-2.09h.07a2.74,2.74,0,0,1,.55-.05,2.71,2.71,0,0,1,1.12.24l.11.05a2.78,2.78,0,0,1,.71.51h0a2.77,2.77,0,0,1,.52.74c0,.09.08.17.11.26h0a2.68,2.68,0,0,1,.11.41A2.59,2.59,0,0,1,471.45,127.92Z"/></g><g id="Door-18" data-name="Door"><path class="cls-25" d="M471.45,127.92v7.58h-4v-7a3,3,0,0,1,.06-.59v-.07a3.1,3.1,0,0,1,2.32-2.35l.08,0h0a2.78,2.78,0,0,1,.71.51h0a2.77,2.77,0,0,1,.52.74c0,.09.08.17.11.26h0a2.68,2.68,0,0,1,.11.41A2.59,2.59,0,0,1,471.45,127.92Z"/></g><g class="cls-28"><polygon class="cls-2" points="567.85 173.82 560.34 173.82 552.83 173.82 545.31 173.82 545.31 174 571.4 174 571.4 173.82 567.85 173.82"/><polygon class="cls-25" points="552.9 153.46 552.9 150.87 545.31 150.89 545.31 153.46 549.12 153.46 552.9 153.46"/><polygon class="cls-2" points="560.3 153.46 560.3 150.87 556.53 150.87 552.71 150.87 552.71 153.46 556.53 153.46 560.3 153.46"/><polygon class="cls-2" points="560.3 153.46 564.11 153.46 567.89 153.46 567.89 150.87 564.11 150.87 560.3 150.87 560.3 153.46"/><rect class="cls-2" x="567.89" y="150.87" width="3.52" height="2.59"/><polygon class="cls-2" points="564.19 150.87 564.19 148.28 556.6 148.28 556.6 150.87 560.38 150.87 564.19 150.87"/><polygon class="cls-2" points="564.19 150.87 567.89 150.87 571.4 150.87 571.4 148.28 564.19 148.28 564.19 150.87"/><polygon class="cls-2" points="552.9 158.64 552.9 156.05 549.12 156.05 545.31 156.05 545.31 158.64 549.12 158.64 552.9 158.64"/><polygon class="cls-2" points="560.3 158.64 560.3 156.05 556.53 156.05 552.71 156.05 552.71 158.64 556.53 158.64 560.3 158.64"/><polygon class="cls-25" points="560.3 158.64 564.11 158.64 567.89 158.64 567.89 156.05 564.11 156.05 560.3 156.05 560.3 158.64"/><rect class="cls-2" x="567.89" y="156.05" width="3.52" height="2.59"/><rect class="cls-2" x="545.31" y="153.46" width="3.7" height="2.59"/><polygon class="cls-2" points="556.6 153.46 552.79 153.46 549.01 153.46 549.01 156.05 552.79 156.05 556.6 156.05 556.6 153.46"/><rect class="cls-25" x="545.31" y="148.28" width="3.7" height="2.59"/><rect class="cls-2" x="541.61" y="148.28" width="3.7" height="2.59"/><polygon class="cls-2" points="556.6 148.28 552.79 148.28 549.01 148.28 549.01 150.87 552.79 150.87 556.6 150.87 556.6 148.28"/><polygon class="cls-2" points="556.6 153.46 556.6 156.05 560.38 156.05 564.19 156.05 564.19 153.46 560.38 153.46 556.6 153.46"/><polygon class="cls-25" points="564.19 153.46 564.19 156.05 567.89 156.05 571.4 156.05 571.4 153.46 567.89 153.46 564.19 153.46"/><polygon class="cls-2" points="552.9 163.83 552.9 161.24 549.12 161.24 545.31 161.24 545.31 163.83 549.12 163.83 552.9 163.83"/><polygon class="cls-2" points="560.3 163.83 560.3 161.24 556.53 161.24 552.71 161.24 552.71 163.83 556.53 163.83 560.3 163.83"/><polygon class="cls-2" points="560.3 163.83 564.11 163.83 567.89 163.83 567.89 161.24 564.11 161.24 560.3 161.24 560.3 163.83"/><rect class="cls-2" x="567.89" y="161.23" width="3.52" height="2.59"/><rect class="cls-2" x="545.31" y="158.64" width="3.7" height="2.59"/><polygon class="cls-2" points="556.6 158.64 552.79 158.64 549.01 158.64 549.01 161.24 552.79 161.24 556.6 161.24 556.6 158.64"/><polygon class="cls-2" points="556.6 158.64 556.6 161.24 560.38 161.24 564.19 161.24 564.19 158.64 560.38 158.64 556.6 158.64"/><polygon class="cls-2" points="564.19 158.64 564.19 161.24 567.89 161.24 571.4 161.24 571.4 158.64 567.89 158.64 564.19 158.64"/><polygon class="cls-2" points="552.9 168.82 552.9 166.42 549.12 166.42 545.31 166.42 545.31 168.82 549.12 168.82 552.9 168.82"/><polygon class="cls-2" points="560.3 168.82 560.3 166.42 556.53 166.42 552.71 166.42 552.71 168.82 556.53 168.82 560.3 168.82"/><polygon class="cls-2" points="560.3 168.82 564.11 168.82 567.89 168.82 567.89 166.42 564.11 166.42 560.3 166.42 560.3 168.82"/><rect class="cls-2" x="567.89" y="166.42" width="3.52" height="2.41"/><rect class="cls-25" x="545.31" y="166.42" width="3.7" height="2.59"/><rect class="cls-2" x="541.61" y="163.83" width="4.18" height="2.59"/><polygon class="cls-2" points="556.6 163.83 552.79 163.83 549.01 163.83 549.01 166.42 552.79 166.42 556.6 166.42 556.6 163.83"/><polygon class="cls-2" points="556.6 163.83 556.6 166.42 560.38 166.42 564.19 166.42 564.19 163.83 560.38 163.83 556.6 163.83"/><polygon class="cls-2" points="564.19 163.83 564.19 166.42 567.89 166.42 571.4 166.42 571.4 163.83 567.89 163.83 564.19 163.83"/><polygon class="cls-2" points="552.9 171.41 549.12 171.41 545.31 171.41 545.31 174 552.9 174 552.9 171.41"/><polygon class="cls-2" points="556.53 171.41 552.71 171.41 552.71 174 560.3 174 560.3 171.41 556.53 171.41"/><polygon class="cls-2" points="564.11 171.41 560.3 171.41 560.3 174 567.89 174 567.89 171.41 564.11 171.41"/><rect class="cls-2" x="567.89" y="171.41" width="3.52" height="2.59"/><polygon class="cls-2" points="549.01 168.82 545.31 168.82 545.31 169.01 545.31 171.41 549.01 171.41 549.01 168.82"/><polygon class="cls-2" points="556.6 168.82 552.79 168.82 549.01 168.82 549.01 171.41 552.79 171.41 556.6 171.41 556.6 168.82"/><polygon class="cls-2" points="556.6 168.82 556.6 171.41 560.38 171.41 564.19 171.41 564.19 168.82 560.38 168.82 556.6 168.82"/><polygon class="cls-25" points="564.19 168.82 564.19 171.41 567.89 171.41 571.4 171.41 571.4 168.82 567.89 168.82 564.19 168.82"/></g><polygon class="cls-23" points="519.47 414.49 513.67 424.54 525.26 424.54 519.47 414.49"/><polygon class="cls-22" points="519.47 414.49 519.47 424.54 525.26 424.54 522.37 419.52 519.47 414.49"/><line class="cls-29" x1="416.89" y1="329.39" x2="416.89" y2="350.51"/><path class="cls-8" d="M426.06,330a9.16,9.16,0,0,1-18.32,0c0-5.06,4.1-26.15,9.16-26.15S426.06,325,426.06,330Z"/><polygon class="cls-9" points="582.45 350.67 579.29 350.67 580.87 347.5 582.45 350.67"/><polygon class="cls-9" points="585.7 350.67 582.45 350.67 584.03 347.5 585.7 350.67"/><polygon class="cls-8" points="411.4 350.67 408.23 350.67 409.82 347.5 411.4 350.67"/><polygon class="cls-8" points="414.56 350.67 411.4 350.67 412.98 347.5 414.56 350.67"/><g id="Main"><rect class="cls-20" x="424.72" y="296.2" width="30.65" height="54.3"/><rect class="cls-20" x="455.37" y="296.2" width="30.65" height="54.3"/><rect class="cls-20" x="486.02" y="296.2" width="30.65" height="54.3"/><rect class="cls-20" x="516.66" y="296.2" width="30.81" height="54.3"/><rect class="cls-17" x="533.23" y="312.94" width="50.8" height="24.31" transform="translate(233.53 883.73) rotate(-90)"/></g><g id="Door-19" data-name="Door"><rect class="cls-18" x="428.89" y="335.01" width="8.33" height="15.49"/><rect class="cls-19" x="428.89" y="335.01" width="8.33" height="3.33"/><rect class="cls-19" x="422.81" y="341.09" width="15.49" height="3.33" transform="translate(87.8 773.31) rotate(-90)"/></g><g id="window-8" data-name="window"><rect class="cls-18" x="440.71" y="331.51" width="9.99" height="9.49"/><rect class="cls-19" x="440.71" y="331.51" width="9.99" height="3.33"/></g><g id="Door-20" data-name="Door"><rect class="cls-18" x="459.64" y="335.01" width="8.33" height="15.49"/><rect class="cls-19" x="459.64" y="335.01" width="8.33" height="3.33"/><rect class="cls-19" x="453.57" y="341.09" width="15.49" height="3.33" transform="translate(118.55 804.07) rotate(-90)"/></g><g id="window-9" data-name="window"><rect class="cls-18" x="471.47" y="331.51" width="9.99" height="9.49"/><rect class="cls-19" x="471.47" y="331.51" width="9.99" height="3.33"/></g><g id="Door-21" data-name="Door"><rect class="cls-18" x="490.4" y="335.01" width="8.33" height="15.49"/><rect class="cls-19" x="490.4" y="335.01" width="8.33" height="3.33"/><rect class="cls-19" x="484.32" y="341.09" width="15.49" height="3.33" transform="translate(149.31 834.82) rotate(-90)"/></g><g id="window-10" data-name="window"><rect class="cls-18" x="502.23" y="331.51" width="9.99" height="9.49"/><rect class="cls-19" x="502.23" y="331.51" width="9.99" height="3.33"/></g><g id="Door-22" data-name="Door"><rect class="cls-18" x="521.16" y="335.01" width="8.33" height="15.49"/><rect class="cls-19" x="521.16" y="335.01" width="8.33" height="3.33"/><rect class="cls-19" x="515.08" y="341.09" width="15.49" height="3.33" transform="translate(180.07 865.58) rotate(-90)"/></g><g id="window-11" data-name="window"><rect class="cls-18" x="532.98" y="331.51" width="9.99" height="9.49"/><rect class="cls-19" x="532.98" y="331.51" width="9.99" height="3.33"/></g><g id="Door-23" data-name="Door"><rect class="cls-18" x="429.05" y="306.65" width="8.33" height="15.49"/><rect class="cls-19" x="429.05" y="306.65" width="8.33" height="3.33"/><rect class="cls-19" x="422.97" y="312.73" width="15.49" height="3.33" transform="translate(116.32 745.12) rotate(-90)"/></g><g id="window-12" data-name="window"><rect class="cls-18" x="440.88" y="303.16" width="9.99" height="9.49"/><rect class="cls-19" x="440.88" y="303.16" width="9.99" height="3.33"/></g><g id="Door-24" data-name="Door"><rect class="cls-18" x="459.76" y="306.65" width="8.33" height="15.49"/><rect class="cls-19" x="459.76" y="306.65" width="8.33" height="3.33"/><rect class="cls-19" x="453.68" y="312.73" width="15.49" height="3.33" transform="translate(147.02 775.82) rotate(-90)"/></g><g id="window-13" data-name="window"><rect class="cls-18" x="471.58" y="303.16" width="9.99" height="9.49"/><rect class="cls-19" x="471.58" y="303.16" width="9.99" height="3.33"/></g><g id="Door-25" data-name="Door"><rect class="cls-18" x="490.46" y="306.65" width="8.33" height="15.49"/><rect class="cls-19" x="490.46" y="306.65" width="8.33" height="3.33"/><rect class="cls-19" x="484.38" y="312.73" width="15.49" height="3.33" transform="translate(177.72 806.52) rotate(-90)"/></g><g id="window-14" data-name="window"><rect class="cls-18" x="502.28" y="303.16" width="9.99" height="9.49"/><rect class="cls-19" x="502.28" y="303.16" width="9.99" height="3.33"/></g><g id="Door-26" data-name="Door"><rect class="cls-18" x="521.16" y="306.65" width="8.33" height="15.49"/><rect class="cls-19" x="521.16" y="306.65" width="8.33" height="3.33"/><rect class="cls-19" x="515.08" y="312.73" width="15.49" height="3.33" transform="translate(208.43 837.22) rotate(-90)"/></g><g id="window-15" data-name="window"><rect class="cls-18" x="532.98" y="303.16" width="9.99" height="9.49"/><rect class="cls-19" x="532.98" y="303.16" width="9.99" height="3.33"/></g><rect class="cls-15" x="426.72" y="315.86" width="120.75" height="7.16"/><rect class="cls-30" x="426.72" y="315.86" width="2" height="7.16"/><rect class="cls-30" x="457.37" y="315.86" width="2" height="7.16"/><rect class="cls-30" x="488.01" y="315.86" width="2" height="7.16"/><rect class="cls-30" x="518.66" y="315.86" width="2" height="7.16"/><rect class="cls-31" x="424.72" y="323.02" width="120.75" height="5.83"/><rect class="cls-20" x="424.72" y="323.02" width="121.75" height="2.33"/><g id="window-16" data-name="window"><rect class="cls-32" x="554.14" y="303.2" width="9.99" height="9.49"/><rect class="cls-33" x="554.14" y="303.2" width="9.99" height="3.33"/></g><g id="window-17" data-name="window"><rect class="cls-32" x="554.14" y="331.51" width="9.99" height="9.49"/><rect class="cls-33" x="554.14" y="331.51" width="9.99" height="3.33"/></g><rect class="cls-20" x="422.72" y="296.2" width="124.75" height="3.5"/><rect class="cls-31" x="422.74" y="296.87" width="124.75" height="3.16"/><rect class="cls-31" x="489.51" y="321.35" width="54.3" height="4" transform="translate(193.31 840.01) rotate(-90)"/><rect class="cls-20" x="514.66" y="296.2" width="2" height="54.3"/><rect class="cls-31" x="458.87" y="321.35" width="54.3" height="4" transform="translate(162.66 809.37) rotate(-90)"/><rect class="cls-20" x="484.02" y="296.2" width="2" height="54.3"/><rect class="cls-31" x="428.22" y="321.35" width="54.3" height="4" transform="translate(132.02 778.72) rotate(-90)"/><rect class="cls-20" x="453.37" y="296.2" width="2" height="54.3"/><rect class="cls-31" x="397.57" y="321.35" width="54.3" height="4" transform="translate(101.37 748.07) rotate(-90)"/><rect class="cls-20" x="396.57" y="322.35" width="54.3" height="2" transform="translate(100.37 747.07) rotate(-90)"/><rect class="cls-20" x="545.48" y="296.2" width="2" height="54.3"/><polygon class="cls-22" points="559.13 283.23 559.13 283.23 547.48 294.99 547.48 295.04 570.79 295.04 570.79 294.99 559.13 283.23"/><polygon class="cls-23" points="459.85 283.22 434.41 283.24 422.72 295.04 547.48 295.04 559.13 283.23 459.85 283.22"/><rect class="cls-20" x="422.72" y="295.04" width="124.75" height="1.82"/><rect class="cls-30" x="547.48" y="295.04" width="23.31" height="5"/><g id="roof_peak" data-name="roof peak"><polygon class="cls-22" points="532.02 286.39 532.02 286.39 540.63 295.06 549.31 286.38 532.02 286.39"/><polygon class="cls-20" points="540.81 295.04 532.02 286.39 523.33 295.04 523.33 296.86 540.81 296.86 540.81 295.04"/><polygon class="cls-31" points="522.52 299.7 541.52 299.7 532.04 289.21 522.52 299.7"/></g><g id="roof_peak-2" data-name="roof peak"><polygon class="cls-22" points="501.38 286.39 501.38 286.39 509.99 295.06 518.67 286.38 501.38 286.39"/><polygon class="cls-20" points="510.17 295.04 501.38 286.39 492.68 295.04 492.68 296.86 510.17 296.86 510.17 295.04"/><polygon class="cls-31" points="491.87 299.7 510.87 299.7 501.39 289.21 491.87 299.7"/></g><g id="roof_peak-3" data-name="roof peak"><polygon class="cls-22" points="440.09 286.39 440.09 286.39 448.69 295.06 457.37 286.38 440.09 286.39"/><polygon class="cls-20" points="448.87 295.04 440.09 286.39 431.38 295.04 431.38 296.86 448.87 296.86 448.87 295.04"/></g><g id="roof_peak-4" data-name="roof peak"><polygon class="cls-22" points="470.73 286.39 470.73 286.39 479.34 295.06 488.02 286.38 470.73 286.39"/><polygon class="cls-20" points="479.52 295.04 470.73 286.39 462.03 295.04 462.03 296.86 479.52 296.86 479.52 295.04"/><polygon class="cls-31" points="461.22 299.7 480.22 299.7 470.74 289.21 461.22 299.7"/></g><polygon class="cls-31" points="440.1 289.21 433.15 296.87 447.02 296.87 440.1 289.21"/><polygon class="cls-34" points="553.47 350.58 550.31 350.58 551.89 347.42 553.47 350.58"/><polygon class="cls-34" points="556.64 350.58 553.47 350.58 555.05 347.42 556.64 350.58"/><polygon class="cls-34" points="564.96 350.58 561.8 350.58 563.38 347.42 564.96 350.58"/><line class="cls-29" x1="576.45" y1="329.39" x2="576.45" y2="350.51"/><path class="cls-9" d="M581.41,319.18q0-.24,0-.48a5,5,0,0,0-9.95.17q0,.22,0,.43a7.4,7.4,0,0,1-1.91,5.49,9.16,9.16,0,1,0,13.66-.09A7.48,7.48,0,0,1,581.41,319.18Z"/><path id="bush" class="cls-9" d="M239.74,204.26a3.94,3.94,0,0,1,.68.06,3.92,3.92,0,0,1,7-1.54,3.93,3.93,0,0,1,4.82-2.26c0-.06,0-.12,0-.18a3.92,3.92,0,0,1,7.83-.28,3.92,3.92,0,0,1,7.27,2c0,.1,0,.2,0,.3a3.92,3.92,0,0,1,5.35,5.49h-36.8A3.92,3.92,0,0,1,239.74,204.26Z"/><path id="bush-2" data-name="bush" class="cls-8" d="M371.53,204.38a3.94,3.94,0,0,0-.68.06,3.92,3.92,0,0,0-7-1.54,3.93,3.93,0,0,0-4.82-2.26c0-.06,0-.12,0-.18a3.92,3.92,0,0,0-7.83-.28,3.92,3.92,0,0,0-7.27,2c0,.1,0,.2,0,.3a3.92,3.92,0,0,0-5.35,5.49l36.84-.06A3.9,3.9,0,0,0,371.53,204.38Z"/><g id="tree"><line class="cls-35" x1="258.78" y1="184.24" x2="258.78" y2="207.72"/></g><path class="cls-9" d="M267.85,162.13a9.35,9.35,0,1,0-18.14,0,13,13,0,0,1-1.32,9.85,12.12,12.12,0,1,0,20.87.13A13.29,13.29,0,0,1,267.85,162.13Z"/><g id="tree-2" data-name="tree"><line class="cls-35" x1="347.03" y1="184.61" x2="347.03" y2="208.09"/><path class="cls-9" d="M347,190.68h0a8.84,8.84,0,0,1-8.57-11l8-31.34a.59.59,0,0,1,1.14,0l8,31.34A8.84,8.84,0,0,1,347,190.68Z"/></g><g id="roof_bars-2" data-name="roof bars"><line class="cls-36" x1="273.51" y1="67.24" x2="273.51" y2="75.94"/><line class="cls-36" x1="269.26" y1="67.24" x2="307.38" y2="67.24"/><line class="cls-36" x1="281.01" y1="67.24" x2="281.01" y2="75.94"/><line class="cls-36" x1="288.5" y1="67.24" x2="288.5" y2="75.94"/><line class="cls-36" x1="296" y1="67.24" x2="296" y2="75.94"/><line class="cls-36" x1="303.49" y1="67.24" x2="303.49" y2="75.94"/></g><line class="cls-36" x1="327.92" y1="63.72" x2="327.92" y2="72.42"/><line class="cls-36" x1="332.55" y1="61.13" x2="332.55" y2="69.83"/><rect class="cls-37" x="321.26" y="67.05" width="18.14" height="5.92"/><rect class="cls-20" x="261.76" y="77.6" width="27.45" height="130.28"/><rect class="cls-17" x="289.21" y="77.6" width="27.45" height="130.28"/><rect class="cls-30" x="316.66" y="77.6" width="27.45" height="130.28"/><g id="Door-27" data-name="Door"><rect class="cls-18" x="265.74" y="190.68" width="18.51" height="17.21"/><rect class="cls-19" x="265.74" y="190.68" width="18.51" height="3.7"/><rect class="cls-19" x="258.99" y="197.43" width="17.21" height="3.7" transform="translate(68.31 466.87) rotate(-90)"/></g><g id="Door-28" data-name="Door"><rect class="cls-18" x="293.68" y="190.68" width="18.51" height="17.21"/><rect class="cls-19" x="293.68" y="190.68" width="18.51" height="3.7"/><rect class="cls-19" x="286.93" y="197.43" width="17.21" height="3.7" transform="translate(96.25 494.82) rotate(-90)"/></g><g id="Door-29" data-name="Door"><rect class="cls-32" x="321.07" y="190.68" width="18.51" height="17.21"/><rect class="cls-33" x="321.07" y="190.68" width="18.51" height="3.7"/><rect class="cls-33" x="314.32" y="197.43" width="17.21" height="3.7" transform="translate(123.64 522.21) rotate(-90)"/></g><g id="window-18" data-name="window"><rect class="cls-18" x="265.74" y="172.17" width="18.51" height="10.55"/><rect class="cls-19" x="265.74" y="172.17" width="18.51" height="3.7"/></g><g id="window-19" data-name="window"><rect class="cls-18" x="265.74" y="154.92" width="18.51" height="10.55"/><rect class="cls-19" x="265.74" y="154.92" width="18.51" height="3.7"/></g><g id="window-20" data-name="window"><rect class="cls-18" x="265.74" y="137.67" width="18.51" height="10.55"/><rect class="cls-19" x="265.74" y="137.67" width="18.51" height="3.7"/></g><g id="window-21" data-name="window"><rect class="cls-18" x="265.74" y="120.43" width="18.51" height="10.55"/><rect class="cls-19" x="265.74" y="120.43" width="18.51" height="3.7"/></g><g id="window-22" data-name="window"><rect class="cls-18" x="265.74" y="103.18" width="18.51" height="10.55"/><rect class="cls-19" x="265.74" y="103.18" width="18.51" height="3.7"/></g><g id="window-23" data-name="window"><rect class="cls-18" x="265.74" y="85.93" width="18.51" height="10.55"/><rect class="cls-19" x="265.74" y="85.93" width="18.51" height="3.7"/></g><g id="window-24" data-name="window"><rect class="cls-18" x="293.68" y="172.17" width="18.51" height="10.55"/><rect class="cls-19" x="293.68" y="172.17" width="18.51" height="3.7"/></g><g id="window-25" data-name="window"><rect class="cls-18" x="293.68" y="154.92" width="18.51" height="10.55"/><rect class="cls-19" x="293.68" y="154.92" width="18.51" height="3.7"/></g><g id="window-26" data-name="window"><rect class="cls-18" x="293.68" y="137.67" width="18.51" height="10.55"/><rect class="cls-19" x="293.68" y="137.67" width="18.51" height="3.7"/></g><g id="window-27" data-name="window"><rect class="cls-18" x="293.68" y="120.43" width="18.51" height="10.55"/><rect class="cls-19" x="293.68" y="120.43" width="18.51" height="3.7"/></g><g id="window-28" data-name="window"><rect class="cls-18" x="293.68" y="103.18" width="18.51" height="10.55"/><rect class="cls-19" x="293.68" y="103.18" width="18.51" height="3.7"/></g><g id="window-29" data-name="window"><rect class="cls-18" x="293.68" y="85.93" width="18.51" height="10.55"/><rect class="cls-19" x="293.68" y="85.93" width="18.51" height="3.7"/></g><g id="window-30" data-name="window"><rect class="cls-32" x="321.07" y="171.98" width="18.51" height="10.55"/><rect class="cls-33" x="321.07" y="171.98" width="18.51" height="3.7"/></g><g id="window-31" data-name="window"><rect class="cls-32" x="321.07" y="154.74" width="18.51" height="10.55"/><rect class="cls-33" x="321.07" y="154.74" width="18.51" height="3.7"/></g><g id="window-32" data-name="window"><rect class="cls-32" x="321.07" y="137.49" width="18.51" height="10.55"/><rect class="cls-33" x="321.07" y="137.49" width="18.51" height="3.7"/></g><g id="window-33" data-name="window"><rect class="cls-32" x="321.07" y="120.24" width="18.51" height="10.55"/><rect class="cls-33" x="321.07" y="120.24" width="18.51" height="3.7"/></g><g id="window-34" data-name="window"><rect class="cls-32" x="321.07" y="102.99" width="18.51" height="10.55"/><rect class="cls-33" x="321.07" y="102.99" width="18.51" height="3.7"/></g><g id="window-35" data-name="window"><rect class="cls-32" x="321.07" y="85.75" width="18.51" height="10.55"/><rect class="cls-33" x="321.07" y="85.75" width="18.51" height="3.7"/></g><rect class="cls-17" x="261.76" y="72.98" width="27.45" height="4.63"/><rect class="cls-30" x="289.21" y="72.98" width="27.45" height="4.63"/><rect class="cls-30" x="316.66" y="72.98" width="27.45" height="4.63"/><path class="cls-25" d="M351.88,197.09h0a.62.62,0,0,1,.62.62V208a0,0,0,0,1,0,0h-1.24a0,0,0,0,1,0,0V197.71a.62.62,0,0,1,.62-.62Z"/><path class="cls-25" d="M370.35,197.09h0a.62.62,0,0,1,.62.62V208a0,0,0,0,1,0,0h-1.24a0,0,0,0,1,0,0V197.71a.62.62,0,0,1,.62-.62Z"/><rect class="cls-2" x="348.77" y="202.2" width="24.68" height="1.58" rx="0.79" ry="0.79"/><rect class="cls-2" x="349.25" y="195.42" width="23.72" height="5.39" rx="0.58" ry="0.58"/><path class="cls-35" d="M249.62,207.59V175.9a3.73,3.73,0,0,0-3.73-3.73h-.09a3.73,3.73,0,0,0-3.75,3.73v1.64"/><line class="cls-38" x1="249.62" y1="198.19" x2="249.62" y2="207.89"/><line class="cls-39" x1="249.62" y1="193.32" x2="249.62" y2="204.57"/><circle class="cls-20" cx="242.04" cy="180.03" r="2.49"/><line class="cls-40" x1="240.91" y1="177.54" x2="243.16" y2="177.54"/><rect class="cls-17" x="562.84" y="143.02" width="51.98" height="40.91"/><g id="window-36" data-name="window"><rect class="cls-18" x="569.2" y="145.4" width="40.44" height="17.43"/><rect class="cls-19" x="569.2" y="145.4" width="40.44" height="6.12"/></g><g id="window-37" data-name="window"><rect class="cls-18" x="569.2" y="159.98" width="40.44" height="18.58"/><rect class="cls-19" x="569.2" y="159.98" width="40.44" height="6.52"/></g><rect class="cls-20" x="575.38" y="167.89" width="26.9" height="5.18" transform="translate(759.3 -418.35) rotate(90)"/><rect class="cls-20" x="591.77" y="160.88" width="40.91" height="5.18" transform="translate(775.7 -448.76) rotate(90)"/><rect class="cls-20" x="543.25" y="159.3" width="44.09" height="5.18" transform="translate(727.18 -403.41) rotate(90)"/><rect class="cls-15" x="548.13" y="162.86" width="40.82" height="1.32" transform="translate(732.06 -405.03) rotate(90)"/><rect class="cls-15" x="578.63" y="169.82" width="26.9" height="1.32" transform="translate(762.56 -421.6) rotate(90)"/><rect class="cls-20" x="600.36" y="131.5" width="9.62" height="5.18"/><rect class="cls-17" x="609.98" y="131.5" width="13.45" height="5.18"/><path id="bush-3" data-name="bush" class="cls-5" d="M512.17,204a5.76,5.76,0,0,0-4.24,1.86,5.19,5.19,0,0,0-6.71-2.62,7.22,7.22,0,0,0-14.14,1.09A7.22,7.22,0,0,0,477,209.74H518A5.78,5.78,0,0,0,512.17,204Z"/><polygon class="cls-9" points="537.1 208.88 532.66 208.88 534.88 204.53 537.1 208.88"/><polygon class="cls-9" points="541.54 208.88 537.1 208.88 539.32 204.53 541.54 208.88"/><line class="cls-41" x1="548.16" y1="209.46" x2="555.39" y2="209.46"/><line class="cls-41" x1="507.1" y1="216.4" x2="538.33" y2="216.4"/><line class="cls-41" x1="466.89" y1="209.46" x2="542.66" y2="209.46"/><path class="cls-9" d="M483.94,201.61a6.87,6.87,0,0,0-6.31,4.16,5.27,5.27,0,0,0-8,3.67h21.12a6.86,6.86,0,0,0-6.8-7.83Z"/><path class="cls-25" d="M509.76,197.89h0a.62.62,0,0,1,.62.62V208.8a0,0,0,0,1,0,0h-1.24a0,0,0,0,1,0,0V198.51A.62.62,0,0,1,509.76,197.89Z"/><path class="cls-25" d="M528.22,197.89h0a.62.62,0,0,1,.62.62V208.8a0,0,0,0,1,0,0H527.6a0,0,0,0,1,0,0V198.51A.62.62,0,0,1,528.22,197.89Z"/><rect class="cls-2" x="506.65" y="203" width="24.68" height="1.58" rx="0.79" ry="0.79"/><rect class="cls-2" x="507.13" y="196.23" width="23.72" height="5.39" rx="0.58" ry="0.58"/><path class="cls-26" d="M450.69,183.87h0a6.25,6.25,0,0,0,6,4.53H642.53a6.25,6.25,0,0,0,5.77-3.86l.26-.64Z"/><path id="bush-4" data-name="bush" class="cls-8" d="M550,180.25a3.94,3.94,0,0,1,.68.06,3.92,3.92,0,0,1,7-1.54,3.93,3.93,0,0,1,4.82-2.26c0-.06,0-.12,0-.18a3.92,3.92,0,0,1,7.83-.28,3.92,3.92,0,0,1,7.27,2c0,.1,0,.2,0,.3a3.92,3.92,0,0,1,5.35,5.49h-36.8A3.92,3.92,0,0,1,550,180.25Z"/><rect class="cls-22" x="562.08" y="139.84" width="52.79" height="3.17"/><rect class="cls-23" x="559.46" y="136.67" width="55.42" height="3.17"/><polygon class="cls-22" points="600.36 157.03 600.36 157.03 600.36 160.2 614.87 160.2 614.87 142.48 600.36 157.03"/><polygon class="cls-23" points="562.05 143.01 570.77 143.01 556.76 157.03 548.04 157.03 562.05 143.01"/><polygon class="cls-20" points="570.77 143.01 579.49 143.01 565.48 157.03 556.76 157.03 570.77 143.01"/><polygon class="cls-23" points="579.49 143.01 588.21 143.01 574.2 157.03 565.48 157.03 579.49 143.01"/><polygon class="cls-20" points="588.21 143.01 596.93 143.01 582.92 157.03 574.2 157.03 588.21 143.01"/><polygon class="cls-23" points="596.93 143.01 605.65 143.01 591.64 157.03 582.92 157.03 596.93 143.01"/><polygon class="cls-20" points="605.65 143.01 614.38 143.01 600.36 157.03 591.64 157.03 605.65 143.01"/><path class="cls-22" d="M548,157h8.72v1.44a4.36,4.36,0,0,1-4.36,4.36h0a4.36,4.36,0,0,1-4.36-4.36Z"/><path class="cls-15" d="M556.76,157h8.72v1.44a4.36,4.36,0,0,1-4.36,4.36h0a4.36,4.36,0,0,1-4.36-4.36Z"/><path class="cls-22" d="M565.48,157h8.72v1.44a4.36,4.36,0,0,1-4.36,4.36h0a4.36,4.36,0,0,1-4.36-4.36Z"/><path class="cls-15" d="M574.2,157h8.72v1.44a4.36,4.36,0,0,1-4.36,4.36h0a4.36,4.36,0,0,1-4.36-4.36Z"/><path class="cls-22" d="M582.92,157h8.72v1.44a4.36,4.36,0,0,1-4.36,4.36h0a4.36,4.36,0,0,1-4.36-4.36Z"/><path class="cls-15" d="M591.64,157h8.72v1.44a4.36,4.36,0,0,1-4.36,4.36h0a4.36,4.36,0,0,1-4.36-4.36Z"/></g><g id="trees"><path id="bush-5" data-name="bush" class="cls-42" d="M391.94,3.79a5.76,5.76,0,0,1,4.24,1.86A5.2,5.2,0,0,1,402.9,3,7.23,7.23,0,0,1,417,4.12a7.23,7.23,0,0,1,10.08,5.45h-41A5.78,5.78,0,0,1,391.94,3.79Z"/><line class="cls-43" x1="392.29" y1="-10.13" x2="392.29" y2="9.57"/><path class="cls-42" d="M384.3-.41,387.6-7h-.94A.75.75,0,0,1,386-8.08l4.14-8.27h-.94a.75.75,0,0,1-.67-1.09l3.86-7.71,3.86,7.71a.75.75,0,0,1-.67,1.09h-.94l4.14,8.27A.75.75,0,0,1,398.08-7h-.94l3.29,6.59a.75.75,0,0,1-.67,1.09H385A.75.75,0,0,1,384.3-.41Z"/><polygon class="cls-44" points="379.41 10.58 383.85 10.58 381.63 6.22 379.41 10.58"/><polygon class="cls-44" points="433.38 11.16 437.82 11.16 435.6 6.8 433.38 11.16"/><line class="cls-45" x1="414.8" y1="-23.47" x2="414.8" y2="9.86"/><path class="cls-46" d="M402.5-.62l5.07-10.14h-1.44a1.16,1.16,0,0,1-1-1.67l6.37-12.74H410a1.16,1.16,0,0,1-1-1.67l5.94-11.87,5.94,11.87a1.16,1.16,0,0,1-1,1.67h-1.44l6.37,12.74a1.16,1.16,0,0,1-1,1.67h-1.44L427.34-.62a1.16,1.16,0,0,1-1,1.67H403.53A1.16,1.16,0,0,1,402.5-.62Z"/><line class="cls-47" x1="431.36" y1="10.15" x2="376.41" y2="10.15"/><path class="cls-42" d="M203.52,443.43l-3.7-7.41h1.05a.84.84,0,0,0,.76-1.22L197,425.5H198a.84.84,0,0,0,.76-1.22l-4.33-8.67-4.33,8.67a.84.84,0,0,0,.76,1.22h1.05l-4.65,9.3A.84.84,0,0,0,188,436h1.05l-3.7,7.41a.84.84,0,0,0,.76,1.22h16.63A.84.84,0,0,0,203.52,443.43Z"/><path class="cls-46" d="M263.09,446l-3.7-7.41h1.05a.84.84,0,0,0,.76-1.22l-4.65-9.3h1.05a.84.84,0,0,0,.76-1.22L254,418.22l-4.33,8.67a.84.84,0,0,0,.76,1.22h1.05l-4.65,9.3a.84.84,0,0,0,.76,1.22h1.05l-3.7,7.41a.84.84,0,0,0,.76,1.22h16.63A.84.84,0,0,0,263.09,446Z"/><line class="cls-35" x1="224.36" y1="419.17" x2="224.36" y2="458.72"/><path class="cls-46" d="M236.7,442.29l-5.09-10.18h1.45a1.16,1.16,0,0,0,1-1.68l-6.39-12.78h1.45a1.16,1.16,0,0,0,1-1.68l-6-11.91-6,11.91a1.16,1.16,0,0,0,1,1.68h1.45l-6.39,12.78a1.16,1.16,0,0,0,1,1.68h1.45l-5.09,10.18a1.16,1.16,0,0,0,1,1.68h22.85A1.16,1.16,0,0,0,236.7,442.29Z"/><path class="cls-46" d="M325.42,447.78l-5.09-10.18h1.45a1.16,1.16,0,0,0,1-1.68l-6.39-12.78h1.45a1.16,1.16,0,0,0,1-1.68l-6-11.91-6,11.91a1.16,1.16,0,0,0,1,1.68h1.45l-6.39,12.78a1.16,1.16,0,0,0,1,1.68h1.45l-5.09,10.18a1.16,1.16,0,0,0,1,1.68h22.85A1.16,1.16,0,0,0,325.42,447.78Z"/><path id="bush-6" data-name="bush" class="cls-8" d="M262.4,6.11a7.87,7.87,0,0,1,5.8,2.55,7.1,7.1,0,0,1,9.17-3.58,9.87,9.87,0,0,1,19.33,1.5A9.87,9.87,0,0,1,310.45,14h-56A7.9,7.9,0,0,1,262.4,6.11Z"/><g id="tree-3" data-name="tree"><line class="cls-35" x1="285.5" y1="-13.78" x2="285.5" y2="9.69"/></g><g id="tree-4" data-name="tree"><line class="cls-35" x1="262.94" y1="-8.55" x2="262.94" y2="13.45"/></g><path class="cls-9" d="M294.89,10A10,10,0,0,0,276,14h30.13a6.39,6.39,0,0,0-11.26-4Z"/><line class="cls-41" x1="250.56" y1="14" x2="313.88" y2="14"/><line class="cls-41" x1="265.59" y1="20.94" x2="291.62" y2="20.94"/><polygon class="cls-9" points="262.08 21.81 258.56 21.81 260.32 18.3 262.08 21.81"/><polygon class="cls-9" points="297.93 21.81 294.42 21.81 296.18 18.3 297.93 21.81"/><polygon class="cls-9" points="258.57 21.81 255.06 21.81 256.81 18.3 258.57 21.81"/><g id="Park_8" data-name="Park 8"><path id="bush-7" data-name="bush" class="cls-9" d="M87.53,53.59a5.77,5.77,0,0,0-4.25,1.87,5.21,5.21,0,0,0-6.73-2.63,7.24,7.24,0,0,0-14.18,1.1,7.24,7.24,0,0,0-10.1,5.46H93.33A5.8,5.8,0,0,0,87.53,53.59Z"/><line class="cls-35" x1="53.71" y1="35.75" x2="53.71" y2="59.22"/><path class="cls-9" d="M56.35,45.59h0a3.15,3.15,0,0,1-5.08,0h0a28,28,0,0,1,0-28.15h0L53,15a1,1,0,0,1,1.53,0l1.77,2.42h0a28,28,0,0,1,0,28.15Z"/><line class="cls-48" x1="50.93" y1="66.61" x2="76.96" y2="66.61"/><polygon class="cls-8" points="100.63 60.83 97.11 60.83 98.87 57.31 100.63 60.83"/><polygon class="cls-8" points="48.58 67.48 45.06 67.48 46.82 63.97 48.58 67.48"/><polygon class="cls-8" points="104.06 60.83 100.55 60.83 102.3 57.31 104.06 60.83"/><line class="cls-35" x1="73.52" y1="35.65" x2="73.52" y2="59.04"/><path class="cls-46" d="M76.91,41.08h0a4.29,4.29,0,0,1-6.92,0h0A38.07,38.07,0,0,1,70,2.77h0L72.41-.52a1.29,1.29,0,0,1,2.09,0l2.41,3.29h0a38.07,38.07,0,0,1,0,38.31Z"/><path class="cls-8" d="M61.22,49.55a8.63,8.63,0,0,0-7.93,5.22,6.62,6.62,0,0,0-10.05,4.61H69.76a8.62,8.62,0,0,0-8.54-9.83Z"/><line class="cls-48" x1="35.9" y1="59.67" x2="95.18" y2="59.67"/></g><g id="Park_5" data-name="Park 5"><line class="cls-35" x1="318.87" y1="353.24" x2="318.87" y2="376.72"/><path class="cls-9" d="M323.77,339.71q0-.24,0-.48a5,5,0,0,0-9.95.17q0,.22,0,.43a7.4,7.4,0,0,1-1.91,5.49,9.16,9.16,0,1,0,13.66-.09A7.48,7.48,0,0,1,323.77,339.71Z"/><line class="cls-48" x1="308.58" y1="377.17" x2="335.18" y2="377.17"/><line class="cls-48" x1="316.09" y1="384.11" x2="324.19" y2="384.11"/><polygon class="cls-8" points="305.64 378.04 302.13 378.04 303.88 374.52 305.64 378.04"/><polygon class="cls-8" points="329.35 384.98 325.84 384.98 327.59 381.46 329.35 384.98"/><polygon class="cls-8" points="302.14 378.04 298.62 378.04 300.38 374.52 302.14 378.04"/></g></g></g><g id="link-1"><path id="bush-8" data-name="bush" class="cls-8" d="M42.77,168.34a4.47,4.47,0,0,1,.77.07,4.45,4.45,0,0,1,7.91-1.74,4.46,4.46,0,0,1,5.47-2.57c0-.07,0-.14,0-.21a4.45,4.45,0,0,1,8.89-.32A4.45,4.45,0,0,1,74,165.89c0,.11,0,.23,0,.34a4.45,4.45,0,0,1,6.07,6.23H38.33A4.45,4.45,0,0,1,42.77,168.34Z"/><rect id="Front_wall-16" data-name="Front wall" class="cls-21" x="61.58" y="146.73" width="58.48" height="25.72"/><polygon id="Roof" class="cls-19" points="133.3 133.63 74.59 133.59 61.46 146.73 120.27 146.73 133.3 133.63"/><g id="Side"><polygon class="cls-2" points="133.3 133.63 120.13 146.73 146.25 146.73 133.3 133.63"/><rect class="cls-2" x="120.06" y="146.73" width="26.09" height="25.72"/></g><g id="Door-30" data-name="Door"><rect class="cls-18" x="87.68" y="155.25" width="9.25" height="17.21"/><rect class="cls-19" x="87.72" y="155.29" width="9.25" height="3.69"/><rect class="cls-19" x="80.92" y="162" width="17.21" height="3.7" transform="translate(-74.32 253.38) rotate(-90)"/></g><g id="roof_peak-5" data-name="roof peak"><polygon class="cls-49" points="92.29 137.11 92.29 137.15 101.89 146.75 111.54 137.11 92.29 137.11"/><polygon class="cls-21" points="82.57 146.93 101.89 146.94 92.25 137.11 82.57 146.93"/></g><circle class="cls-19" cx="91.93" cy="145.44" r="1.85"/><g id="window-38" data-name="window"><rect class="cls-18" x="69.73" y="153.03" width="7.4" height="10.55"/><rect class="cls-19" x="69.73" y="153.03" width="7.4" height="3.7"/></g><g id="window-39" data-name="window"><rect class="cls-18" x="106.52" y="153.04" width="7.46" height="10.57"/><rect class="cls-19" x="106.55" y="153.03" width="7.4" height="3.7"/></g><path id="bush-9" data-name="bush" class="cls-8" d="M175.67,167.35a3.76,3.76,0,0,0-1.73.42,3.78,3.78,0,0,0-6.46-1.14,3.78,3.78,0,0,0-4.71-2.93,3.78,3.78,0,0,0-7.51.62s0,.05,0,.08a3.78,3.78,0,0,0-6,1.91,3.78,3.78,0,0,0-6.33,2.13,3.78,3.78,0,0,0-5.47,4h41.75a3.78,3.78,0,0,0-3.54-5.1Z"/><g id="tree-5" data-name="tree"><line class="cls-35" x1="50.89" y1="149" x2="50.89" y2="172.47"/><rect class="cls-9" x="43.08" y="124.9" width="15.73" height="31.83" rx="7.87" ry="7.87"/></g><g id="Garage"><rect id="Front_wall-17" data-name="Front wall" class="cls-21" x="123.95" y="150.25" width="28.68" height="22.21"/><polygon id="Roof-2" data-name="Roof" class="cls-19" points="162.15 140.83 133.42 140.81 123.98 150.25 152.74 150.25 162.15 140.83"/><g id="Side-2" data-name="Side"><polygon class="cls-2" points="162.15 140.83 152.72 150.25 171.51 150.25 162.15 140.83"/><rect class="cls-2" x="152.63" y="150.25" width="18.88" height="22.21"/></g><g id="window-40" data-name="window"><rect class="cls-32" x="158.37" y="153.03" width="7.4" height="10.55"/><rect class="cls-33" x="158.37" y="153.03" width="7.4" height="3.7"/></g><g id="garage_door" data-name="garage door"><rect class="cls-18" x="128.95" y="155.25" width="18.51" height="17.21"/><rect class="cls-19" x="128.99" y="155.29" width="18.47" height="3.69"/><rect class="cls-19" x="122.19" y="162" width="17.21" height="3.7" transform="translate(-33.06 294.65) rotate(-90)"/></g><g id="garage_door_8_rows" data-name="garage door 8 rows"><rect class="cls-19" x="128.95" y="155.25" width="18.51" height="2.15"/><rect class="cls-18" x="128.95" y="157.4" width="18.51" height="2.15"/><rect class="cls-19" x="128.95" y="159.55" width="18.51" height="2.15"/><rect class="cls-18" x="128.95" y="161.7" width="18.51" height="2.15"/><rect class="cls-19" x="128.95" y="163.85" width="18.51" height="2.15"/><rect class="cls-18" x="128.95" y="166" width="18.51" height="2.15"/><rect class="cls-19" x="128.95" y="168.15" width="18.51" height="2.15"/><rect class="cls-18" x="128.95" y="170.31" width="18.51" height="2.15"/><rect class="cls-19" x="128.95" y="155.25" width="2.22" height="17.21"/></g></g><path id="bush-10" data-name="bush" class="cls-9" d="M74.7,168.55a3.9,3.9,0,0,0-2.87,1.26A3.51,3.51,0,0,0,67.29,168a4.89,4.89,0,0,0-9.57.74,4.89,4.89,0,0,0-6.81,3.68h27.7A3.91,3.91,0,0,0,74.7,168.55Z"/><path id="bush-11" data-name="bush" class="cls-9" d="M109.14,166.72a4.07,4.07,0,0,0-3.93,3,4.07,4.07,0,0,0-5.77,2.72H119.3a4.07,4.07,0,0,0-6.1-2.1A4.07,4.07,0,0,0,109.14,166.72Z"/><path class="cls-50" d="M132.81,89.44c0,14.58-26.4,39.6-26.4,39.6S80,104,80,89.44a26.4,26.4,0,0,1,52.8,0Z"/><path class="cls-20" d="M100.2,104a.86.86,0,0,0,.89.89h12.52a.87.87,0,0,0,.64-.25.88.88,0,0,0,.25-.64V99.49a.86.86,0,0,0-.9-.9h-2.68V84.28a.86.86,0,0,0-.89-.89h-8.95a.87.87,0,0,0-.64.25.85.85,0,0,0-.25.64v4.48a.85.85,0,0,0,.25.64.87.87,0,0,0,.64.25h2.69v8.94h-2.69a.86.86,0,0,0-.89.9Zm3.58-25a.85.85,0,0,0,.89.89H110a.86.86,0,0,0,.64-.25.88.88,0,0,0,.25-.64V74.44a.88.88,0,0,0-.25-.64.87.87,0,0,0-.64-.25h-5.37a.86.86,0,0,0-.89.9Z"/></g><g id="link-2"><path class="cls-8" d="M230.67,338.89a3.76,3.76,0,0,0-1.73.42,3.78,3.78,0,0,0-6.46-1.14,3.78,3.78,0,0,0-4.71-2.93,3.78,3.78,0,0,0-7.51.62s0,.05,0,.08a3.78,3.78,0,0,0-6,1.91,3.78,3.78,0,0,0-6.33,2.13,3.78,3.78,0,0,0-5.47,4h41.75a3.78,3.78,0,0,0-3.54-5.1Z"/><path class="cls-8" d="M139.07,338.89a3.76,3.76,0,0,0-1.73.42,3.78,3.78,0,0,0-6.46-1.14,3.78,3.78,0,0,0-4.71-2.93,3.78,3.78,0,0,0-7.51.62s0,.05,0,.08a3.78,3.78,0,0,0-6,1.91,3.78,3.78,0,0,0-6.33,2.13,3.78,3.78,0,0,0-5.47,4h41.75a3.78,3.78,0,0,0-3.54-5.1Z"/><g id="aerial"><line class="cls-36" x1="133.47" y1="257.2" x2="133.47" y2="268.3"/><line class="cls-36" x1="201.02" y1="252.57" x2="201.02" y2="267.75"/><line class="cls-36" x1="197.13" y1="258.13" x2="205.09" y2="258.13"/><line class="cls-36" x1="197.13" y1="255.16" x2="205.09" y2="255.16"/><line class="cls-36" x1="127.55" y1="259.79" x2="127.55" y2="268.3"/></g><rect id="Front_wall-18" data-name="Front wall" class="cls-21" x="117" y="266.08" width="70.88" height="77.91"/><g id="Door-31" data-name="Door"><rect class="cls-18" x="123.84" y="326.78" width="9.25" height="17.21"/><rect class="cls-19" x="123.84" y="326.78" width="9.25" height="3.7"/><rect class="cls-19" x="117.09" y="333.54" width="17.21" height="3.7" transform="translate(-209.69 461.08) rotate(-90)"/></g><g id="window-41" data-name="window"><rect class="cls-18" x="124.74" y="310.01" width="7.46" height="10.57"/><rect class="cls-19" x="124.78" y="309.99" width="7.4" height="3.7"/></g><g id="window-42" data-name="window"><rect class="cls-18" x="124.74" y="292.31" width="7.46" height="10.57"/><rect class="cls-19" x="124.78" y="292.29" width="7.4" height="3.7"/></g><g id="window-43" data-name="window"><rect class="cls-18" x="124.74" y="274.61" width="7.46" height="10.57"/><rect class="cls-19" x="124.78" y="274.6" width="7.4" height="3.7"/></g><g id="Door-32" data-name="Door"><rect class="cls-18" x="147.9" y="326.78" width="9.25" height="17.21"/><rect class="cls-19" x="147.9" y="326.78" width="9.25" height="3.7"/><rect class="cls-19" x="141.15" y="333.54" width="17.21" height="3.7" transform="translate(-185.64 485.14) rotate(-90)"/></g><g id="window-44" data-name="window"><rect class="cls-18" x="148.8" y="310.01" width="7.46" height="10.57"/><rect class="cls-19" x="148.83" y="309.99" width="7.4" height="3.7"/></g><g id="window-45" data-name="window"><rect class="cls-18" x="148.8" y="292.31" width="7.46" height="10.57"/><rect class="cls-19" x="148.83" y="292.29" width="7.4" height="3.7"/></g><g id="window-46" data-name="window"><rect class="cls-18" x="148.8" y="274.61" width="7.46" height="10.57"/><rect class="cls-19" x="148.83" y="274.6" width="7.4" height="3.7"/></g><g id="Door-33" data-name="Door"><rect class="cls-18" x="172.52" y="326.78" width="9.25" height="17.21"/><rect class="cls-19" x="172.52" y="326.78" width="9.25" height="3.7"/><rect class="cls-19" x="165.76" y="333.54" width="17.21" height="3.7" transform="translate(-161.02 509.76) rotate(-90)"/></g><g id="window-47" data-name="window"><rect class="cls-18" x="173.41" y="310.01" width="7.46" height="10.57"/><rect class="cls-19" x="173.45" y="309.99" width="7.4" height="3.7"/></g><g id="window-48" data-name="window"><rect class="cls-18" x="173.41" y="292.31" width="7.46" height="10.57"/><rect class="cls-19" x="173.45" y="292.29" width="7.4" height="3.7"/></g><g id="window-49" data-name="window"><rect class="cls-18" x="173.41" y="274.61" width="7.46" height="10.57"/><rect class="cls-19" x="173.45" y="274.6" width="7.4" height="3.7"/></g><rect class="cls-2" x="102.2" y="304.36" width="76.99" height="2.22" transform="translate(-164.78 446.16) rotate(-90)"/><rect class="cls-2" x="126.25" y="304.36" width="76.99" height="2.22" transform="translate(-140.72 470.22) rotate(-90)"/><g id="Shadow"><rect class="cls-2" x="117" y="266.08" width="70.88" height="4.44"/></g><rect class="cls-20" x="117" y="263.31" width="70.88" height="4.41"/><rect class="cls-2" x="187.88" y="266.08" width="26.09" height="77.91"/><polygon class="cls-2" points="210.42 343.97 202.91 343.97 195.39 343.97 187.88 343.97 187.88 343.99 213.97 343.99 213.97 343.97 210.42 343.97"/><polygon class="cls-25" points="195.39 323.43 195.39 320.84 187.88 320.86 187.88 323.43 191.66 323.43 195.39 323.43"/><polygon class="cls-2" points="202.91 323.43 202.91 320.84 199.17 320.84 195.39 320.84 195.39 323.43 199.17 323.43 202.91 323.43"/><polygon class="cls-2" points="202.91 323.43 206.68 323.43 210.42 323.43 210.42 320.84 206.68 320.84 202.91 320.84 202.91 323.43"/><rect class="cls-2" x="210.42" y="320.84" width="3.55" height="2.59"/><polygon class="cls-2" points="206.68 320.84 206.68 318.25 199.17 318.25 199.17 320.84 202.91 320.84 206.68 320.84"/><polygon class="cls-2" points="206.68 320.84 210.42 320.84 213.97 320.84 213.97 318.25 206.68 318.25 206.68 320.84"/><polygon class="cls-2" points="195.39 328.61 195.39 326.02 191.66 326.02 187.88 326.02 187.88 328.61 191.66 328.61 195.39 328.61"/><polygon class="cls-2" points="202.91 328.61 202.91 326.02 199.17 326.02 195.39 326.02 195.39 328.61 199.17 328.61 202.91 328.61"/><polygon class="cls-2" points="202.91 328.61 206.68 328.61 210.42 328.61 210.42 326.02 206.68 326.02 202.91 326.02 202.91 328.61"/><rect class="cls-25" x="210.42" y="326.02" width="3.55" height="2.59"/><rect class="cls-2" x="187.88" y="323.43" width="3.78" height="2.59"/><polygon class="cls-25" points="199.17 323.43 195.39 323.43 191.66 323.43 191.66 326.02 195.39 326.02 199.17 326.02 199.17 323.43"/><rect class="cls-2" x="187.88" y="318.25" width="3.78" height="2.59"/><polygon class="cls-2" points="199.17 318.25 195.39 318.25 191.66 318.25 191.66 320.84 195.39 320.84 199.17 320.84 199.17 318.25"/><polygon class="cls-2" points="199.17 323.43 199.17 326.02 202.91 326.02 206.68 326.02 206.68 323.43 202.91 323.43 199.17 323.43"/><polygon class="cls-2" points="206.68 323.43 206.68 326.02 210.42 326.02 213.97 326.02 213.97 323.43 210.42 323.43 206.68 323.43"/><polygon class="cls-2" points="195.39 333.8 195.39 331.2 191.66 331.2 187.88 331.2 187.88 333.8 191.66 333.8 195.39 333.8"/><polygon class="cls-2" points="202.91 333.8 202.91 331.2 199.17 331.2 195.39 331.2 195.39 333.8 199.17 333.8 202.91 333.8"/><polygon class="cls-2" points="202.91 333.8 206.68 333.8 210.42 333.8 210.42 331.2 206.68 331.2 202.91 331.2 202.91 333.8"/><rect class="cls-25" x="210.42" y="331.2" width="3.55" height="2.59"/><rect class="cls-2" x="187.88" y="328.61" width="3.78" height="2.59"/><polygon class="cls-2" points="199.17 328.61 195.39 328.61 191.66 328.61 191.66 331.2 195.39 331.2 199.17 331.2 199.17 328.61"/><polygon class="cls-2" points="199.17 328.61 199.17 331.2 202.91 331.2 206.68 331.2 206.68 328.61 202.91 328.61 199.17 328.61"/><polygon class="cls-25" points="206.68 328.61 206.68 331.2 210.42 331.2 213.97 331.2 213.97 328.61 210.42 328.61 206.68 328.61"/><polygon class="cls-2" points="195.39 338.79 195.39 336.39 191.66 336.39 187.88 336.39 187.88 338.79 191.66 338.79 195.39 338.79"/><polygon class="cls-2" points="202.91 338.79 202.91 336.39 199.17 336.39 195.39 336.39 195.39 338.79 199.17 338.79 202.91 338.79"/><polygon class="cls-2" points="202.91 338.79 206.68 338.79 210.42 338.79 210.42 336.39 206.68 336.39 202.91 336.39 202.91 338.79"/><rect class="cls-2" x="210.42" y="336.39" width="3.55" height="2.41"/><rect class="cls-2" x="187.88" y="333.8" width="3.78" height="2.59"/><polygon class="cls-2" points="199.17 333.8 195.39 333.8 191.66 333.8 191.66 336.39 195.39 336.39 199.17 336.39 199.17 333.8"/><polygon class="cls-2" points="199.17 333.8 199.17 336.39 202.91 336.39 206.68 336.39 206.68 333.8 202.91 333.8 199.17 333.8"/><polygon class="cls-2" points="206.68 333.8 206.68 336.39 210.42 336.39 213.97 336.39 213.97 333.8 210.42 333.8 206.68 333.8"/><polygon class="cls-25" points="195.39 341.38 191.66 341.38 187.88 341.38 187.88 343.97 195.39 343.97 195.39 341.38"/><polygon class="cls-2" points="199.17 341.38 195.39 341.38 195.39 343.97 202.91 343.97 202.91 341.38 199.17 341.38"/><polygon class="cls-2" points="206.68 341.38 202.91 341.38 202.91 343.97 210.42 343.97 210.42 341.38 206.68 341.38"/><rect class="cls-2" x="210.42" y="341.38" width="3.55" height="2.59"/><polygon class="cls-25" points="191.66 338.79 187.88 338.79 187.88 338.98 187.88 341.38 191.66 341.38 191.66 338.79"/><polygon class="cls-2" points="187.88 341.4 184.18 341.4 184.18 341.59 184.18 343.99 187.88 343.99 187.88 341.4"/><polygon class="cls-2" points="199.17 338.79 195.39 338.79 191.66 338.79 191.66 341.38 195.39 341.38 199.17 341.38 199.17 338.79"/><polygon class="cls-2" points="199.17 338.79 199.17 341.38 202.91 341.38 206.68 341.38 206.68 338.79 202.91 338.79 199.17 338.79"/><polygon class="cls-2" points="206.68 338.79 206.68 341.38 210.42 341.38 213.97 341.38 213.97 338.79 210.42 338.79 206.68 338.79"/><polygon class="cls-2" points="210.42 318.25 202.91 318.25 195.39 318.25 187.88 318.25 187.88 318.27 213.97 318.27 213.97 318.25 210.42 318.25"/><polygon class="cls-2" points="195.39 297.71 195.39 295.12 187.88 295.14 187.88 297.71 191.66 297.71 195.39 297.71"/><polygon class="cls-2" points="202.91 297.71 202.91 295.12 199.17 295.12 195.39 295.12 195.39 297.71 199.17 297.71 202.91 297.71"/><polygon class="cls-2" points="202.91 297.71 206.68 297.71 210.42 297.71 210.42 295.12 206.68 295.12 202.91 295.12 202.91 297.71"/><rect class="cls-2" x="210.42" y="295.12" width="3.55" height="2.59"/><polygon class="cls-2" points="206.68 295.12 206.68 292.53 199.17 292.53 199.17 295.12 202.91 295.12 206.68 295.12"/><polygon class="cls-2" points="206.68 295.12 210.42 295.12 213.97 295.12 213.97 292.53 206.68 292.53 206.68 295.12"/><polygon class="cls-2" points="195.39 302.89 195.39 300.3 191.66 300.3 187.88 300.3 187.88 302.89 191.66 302.89 195.39 302.89"/><polygon class="cls-2" points="202.91 302.89 202.91 300.3 199.17 300.3 195.39 300.3 195.39 302.89 199.17 302.89 202.91 302.89"/><polygon class="cls-2" points="202.91 302.89 206.68 302.89 210.42 302.89 210.42 300.3 206.68 300.3 202.91 300.3 202.91 302.89"/><rect class="cls-2" x="210.42" y="300.3" width="3.55" height="2.59"/><rect class="cls-2" x="187.88" y="297.71" width="3.78" height="2.59"/><polygon class="cls-2" points="199.17 297.71 195.39 297.71 191.66 297.71 191.66 300.3 195.39 300.3 199.17 300.3 199.17 297.71"/><rect class="cls-25" x="187.88" y="292.53" width="3.78" height="2.59"/><polygon class="cls-2" points="199.17 292.53 195.39 292.53 191.66 292.53 191.66 295.12 195.39 295.12 199.17 295.12 199.17 292.53"/><polygon class="cls-2" points="199.17 297.71 199.17 300.3 202.91 300.3 206.68 300.3 206.68 297.71 202.91 297.71 199.17 297.71"/><polygon class="cls-2" points="206.68 297.71 206.68 300.3 210.42 300.3 213.97 300.3 213.97 297.71 210.42 297.71 206.68 297.71"/><polygon class="cls-2" points="195.39 308.07 195.39 305.48 191.66 305.48 187.88 305.48 187.88 308.07 191.66 308.07 195.39 308.07"/><polygon class="cls-2" points="202.91 308.07 202.91 305.48 199.17 305.48 195.39 305.48 195.39 308.07 199.17 308.07 202.91 308.07"/><polygon class="cls-25" points="202.91 308.07 206.68 308.07 210.42 308.07 210.42 305.48 206.68 305.48 202.91 305.48 202.91 308.07"/><rect class="cls-2" x="210.42" y="305.48" width="3.55" height="2.59"/><rect class="cls-2" x="187.88" y="302.89" width="3.78" height="2.59"/><polygon class="cls-2" points="199.17 302.89 195.39 302.89 191.66 302.89 191.66 305.48 195.39 305.48 199.17 305.48 199.17 302.89"/><polygon class="cls-25" points="199.17 302.89 199.17 305.48 202.91 305.48 206.68 305.48 206.68 302.89 202.91 302.89 199.17 302.89"/><polygon class="cls-2" points="206.68 302.89 206.68 305.48 210.42 305.48 213.97 305.48 213.97 302.89 210.42 302.89 206.68 302.89"/><polygon class="cls-2" points="195.39 313.07 195.39 310.66 191.66 310.66 187.88 310.66 187.88 313.07 191.66 313.07 195.39 313.07"/><polygon class="cls-2" points="202.91 313.07 202.91 310.66 199.17 310.66 195.39 310.66 195.39 313.07 199.17 313.07 202.91 313.07"/><polygon class="cls-2" points="202.91 313.07 206.68 313.07 210.42 313.07 210.42 310.66 206.68 310.66 202.91 310.66 202.91 313.07"/><rect class="cls-2" x="210.42" y="310.66" width="3.55" height="2.41"/><rect class="cls-2" x="187.88" y="308.07" width="3.78" height="2.59"/><polygon class="cls-2" points="199.17 308.07 195.39 308.07 191.66 308.07 191.66 310.66 195.39 310.66 199.17 310.66 199.17 308.07"/><polygon class="cls-25" points="199.17 308.07 199.17 310.66 202.91 310.66 206.68 310.66 206.68 308.07 202.91 308.07 199.17 308.07"/><polygon class="cls-2" points="206.68 308.07 206.68 310.66 210.42 310.66 213.97 310.66 213.97 308.07 210.42 308.07 206.68 308.07"/><polygon class="cls-2" points="195.39 315.66 191.66 315.66 187.88 315.66 187.88 318.25 195.39 318.25 195.39 315.66"/><polygon class="cls-2" points="199.17 315.66 195.39 315.66 195.39 318.25 202.91 318.25 202.91 315.66 199.17 315.66"/><polygon class="cls-2" points="206.68 315.66 202.91 315.66 202.91 318.25 210.42 318.25 210.42 315.66 206.68 315.66"/><rect class="cls-2" x="210.42" y="315.66" width="3.55" height="2.59"/><polygon class="cls-2" points="191.66 313.07 187.88 313.07 187.88 313.25 187.88 315.66 191.66 315.66 191.66 313.07"/><polygon class="cls-2" points="199.17 313.07 195.39 313.07 191.66 313.07 191.66 315.66 195.39 315.66 199.17 315.66 199.17 313.07"/><polygon class="cls-2" points="199.17 313.07 199.17 315.66 202.91 315.66 206.68 315.66 206.68 313.07 202.91 313.07 199.17 313.07"/><polygon class="cls-2" points="206.68 313.07 206.68 315.66 210.42 315.66 213.97 315.66 213.97 313.07 210.42 313.07 206.68 313.07"/><rect class="cls-2" x="184.18" y="274.6" width="3.7" height="2.59"/><polygon class="cls-2" points="195.39 271.98 195.39 269.39 187.88 269.41 187.88 271.98 191.66 271.98 195.39 271.98"/><polygon class="cls-2" points="202.91 271.98 202.91 269.39 199.17 269.39 195.39 269.39 195.39 271.98 199.17 271.98 202.91 271.98"/><polygon class="cls-2" points="202.91 271.98 206.68 271.98 210.42 271.98 210.42 269.39 206.68 269.39 202.91 269.39 202.91 271.98"/><rect class="cls-2" x="210.42" y="269.39" width="3.55" height="2.59"/><polygon class="cls-2" points="206.68 269.39 206.68 266.8 199.17 266.8 199.17 269.39 202.91 269.39 206.68 269.39"/><polygon class="cls-2" points="206.68 269.39 210.42 269.39 213.97 269.39 213.97 266.8 206.68 266.8 206.68 269.39"/><polygon class="cls-2" points="195.39 277.17 195.39 274.57 191.66 274.57 187.88 274.57 187.88 277.17 191.66 277.17 195.39 277.17"/><polygon class="cls-2" points="202.91 277.17 202.91 274.57 199.17 274.57 195.39 274.57 195.39 277.17 199.17 277.17 202.91 277.17"/><polygon class="cls-2" points="202.91 277.17 206.68 277.17 210.42 277.17 210.42 274.57 206.68 274.57 202.91 274.57 202.91 277.17"/><rect class="cls-25" x="210.42" y="274.58" width="3.55" height="2.59"/><rect class="cls-25" x="187.88" y="271.98" width="3.78" height="2.59"/><polygon class="cls-2" points="199.17 271.98 195.39 271.98 191.66 271.98 191.66 274.57 195.39 274.57 199.17 274.57 199.17 271.98"/><rect class="cls-2" x="187.88" y="266.8" width="3.78" height="2.59"/><polygon class="cls-2" points="199.17 266.8 195.39 266.8 191.66 266.8 191.66 269.39 195.39 269.39 199.17 269.39 199.17 266.8"/><polygon class="cls-2" points="199.17 271.98 199.17 274.57 202.91 274.57 206.68 274.57 206.68 271.98 202.91 271.98 199.17 271.98"/><polygon class="cls-2" points="206.68 271.98 206.68 274.57 210.42 274.57 213.97 274.57 213.97 271.98 210.42 271.98 206.68 271.98"/><polygon class="cls-2" points="195.39 282.35 195.39 279.76 191.66 279.76 187.88 279.76 187.88 282.35 191.66 282.35 195.39 282.35"/><polygon class="cls-2" points="202.91 282.35 202.91 279.76 199.17 279.76 195.39 279.76 195.39 282.35 199.17 282.35 202.91 282.35"/><polygon class="cls-2" points="202.91 282.35 206.68 282.35 210.42 282.35 210.42 279.76 206.68 279.76 202.91 279.76 202.91 282.35"/><rect class="cls-25" x="210.42" y="279.76" width="3.55" height="2.59"/><rect class="cls-2" x="187.88" y="277.17" width="3.78" height="2.59"/><polygon class="cls-2" points="199.17 277.17 195.39 277.17 191.66 277.17 191.66 279.76 195.39 279.76 199.17 279.76 199.17 277.17"/><polygon class="cls-2" points="199.17 277.17 199.17 279.76 202.91 279.76 206.68 279.76 206.68 277.17 202.91 277.17 199.17 277.17"/><polygon class="cls-25" points="206.68 277.17 206.68 279.76 210.42 279.76 213.97 279.76 213.97 277.17 210.42 277.17 206.68 277.17"/><polygon class="cls-2" points="195.39 287.35 195.39 284.94 191.66 284.94 187.88 284.94 187.88 287.35 191.66 287.35 195.39 287.35"/><polygon class="cls-2" points="202.91 287.35 202.91 284.94 199.17 284.94 195.39 284.94 195.39 287.35 199.17 287.35 202.91 287.35"/><polygon class="cls-2" points="202.91 287.35 206.68 287.35 210.42 287.35 210.42 284.94 206.68 284.94 202.91 284.94 202.91 287.35"/><rect class="cls-2" x="210.42" y="284.94" width="3.55" height="2.41"/><rect class="cls-2" x="187.88" y="282.35" width="3.78" height="2.59"/><polygon class="cls-2" points="199.17 282.35 195.39 282.35 191.66 282.35 191.66 284.94 195.39 284.94 199.17 284.94 199.17 282.35"/><polygon class="cls-2" points="199.17 282.35 199.17 284.94 202.91 284.94 206.68 284.94 206.68 282.35 202.91 282.35 199.17 282.35"/><polygon class="cls-2" points="206.68 282.35 206.68 284.94 210.42 284.94 213.97 284.94 213.97 282.35 210.42 282.35 206.68 282.35"/><polygon class="cls-25" points="195.39 289.94 191.66 289.94 187.88 289.94 187.88 292.55 195.39 292.53 195.39 289.94"/><polygon class="cls-2" points="199.17 289.94 195.39 289.94 195.39 292.53 202.91 292.53 202.91 289.94 199.17 289.94"/><polygon class="cls-2" points="206.68 289.94 202.91 289.94 202.91 292.53 210.42 292.53 210.42 289.94 206.68 289.94"/><rect class="cls-2" x="210.42" y="289.94" width="3.55" height="2.59"/><polygon class="cls-25" points="191.66 287.35 187.88 287.35 187.88 287.53 187.88 289.94 191.66 289.94 191.66 287.35"/><polygon class="cls-2" points="199.17 287.35 195.39 287.35 191.66 287.35 191.66 289.94 195.39 289.94 199.17 289.94 199.17 287.35"/><polygon class="cls-2" points="199.17 287.35 199.17 289.94 202.91 289.94 206.68 289.94 206.68 287.35 202.91 287.35 199.17 287.35"/><polygon class="cls-2" points="206.68 287.35 206.68 289.94 210.42 289.94 213.97 289.94 213.97 287.35 210.42 287.35 206.68 287.35"/><rect class="cls-25" x="187.88" y="266.08" width="26.09" height="4.44"/><rect class="cls-15" x="187.88" y="263.31" width="26.09" height="4.41"/><path id="bush-12" data-name="bush" class="cls-9" d="M223.39,340.08a3.9,3.9,0,0,0-2.87,1.26,3.51,3.51,0,0,0-4.54-1.77,4.89,4.89,0,0,0-9.57.74A4.89,4.89,0,0,0,199.6,344h27.7A3.91,3.91,0,0,0,223.39,340.08Z"/><path class="cls-50" d="M192.46,219.41c0,14.58-26.4,39.6-26.4,39.6s-26.4-25-26.4-39.6a26.4,26.4,0,0,1,52.8,0Z"/><path class="cls-20" d="M159.84,233.93a.86.86,0,0,0,.89.89h12.52a.87.87,0,0,0,.64-.25.88.88,0,0,0,.25-.64v-4.47a.86.86,0,0,0-.9-.9h-2.68V214.25a.86.86,0,0,0-.89-.89h-8.95a.87.87,0,0,0-.64.25.85.85,0,0,0-.25.64v4.48a.85.85,0,0,0,.25.64.87.87,0,0,0,.64.25h2.69v8.94h-2.69a.86.86,0,0,0-.89.9Zm3.58-25a.85.85,0,0,0,.89.89h5.37a.86.86,0,0,0,.64-.25.88.88,0,0,0,.25-.64v-4.47a.88.88,0,0,0-.25-.64.87.87,0,0,0-.64-.25h-5.37a.86.86,0,0,0-.89.9Z"/></g></g></svg>