<svg id="Layer_1" data-name="Layer 1" xmlns="http://www.w3.org/2000/svg" width="182.23" height="74.7" viewBox="0 0 182.23 74.7"><defs><style>.cls-1{fill:#85ba5d;}.cls-2{fill:#f29f53;}.cls-3{fill:#312766;}.cls-4{fill:#ad5d31;}.cls-5{fill:#465a8c;}.cls-6{fill:#0e0c2b;}.cls-7{fill:none;stroke:#312766;stroke-miterlimit:10;stroke-width:2.13px;}.cls-8{fill:#4e8e3b;}.cls-9{fill:#213c68;}.cls-10{fill:#161656;}</style></defs><title>info-1</title><path id="bush" class="cls-1" d="M15.1,59.95A5.14,5.14,0,0,1,16,60a5.12,5.12,0,0,1,9.09-2,5.12,5.12,0,0,1,6.28-3c0-.08,0-.16,0-.24a5.12,5.12,0,0,1,10.22-.37,5.12,5.12,0,0,1,9.48,2.67c0,.13,0,.26,0,.39a5.12,5.12,0,0,1,7,7.16H10A5.12,5.12,0,0,1,15.1,59.95Z"/><rect id="Front_wall" data-name="Front wall" class="cls-2" x="36.73" y="35.11" width="67.23" height="29.57"/><polygon id="Roof" class="cls-3" points="119.18 20.05 51.69 20 36.58 35.11 104.2 35.11 119.18 20.05"/><g id="Side"><polygon class="cls-4" points="119.18 20.05 104.04 35.11 134.06 35.11 119.18 20.05"/><rect class="cls-4" x="103.96" y="35.11" width="30" height="29.57"/></g><g id="Door"><rect class="cls-5" x="66.73" y="44.89" width="10.64" height="19.79"/><rect class="cls-3" x="66.78" y="44.95" width="10.63" height="4.24"/><rect class="cls-3" x="58.96" y="52.66" width="19.79" height="4.26" transform="translate(14.07 123.64) rotate(-90)"/></g><g id="roof_peak" data-name="roof peak"><polygon class="cls-6" points="72.03 24.04 72.03 24.09 83.07 35.13 94.16 24.04 72.03 24.04"/><polygon class="cls-2" points="60.86 35.33 83.07 35.34 71.99 24.04 60.86 35.33"/></g><circle class="cls-3" cx="71.62" cy="33.62" r="2.13"/><g id="window"><rect class="cls-5" x="46.09" y="42.34" width="8.51" height="12.13"/><rect class="cls-3" x="46.09" y="42.34" width="8.51" height="4.26"/></g><g id="window-2" data-name="window"><rect class="cls-5" x="88.39" y="42.36" width="8.58" height="12.15"/><rect class="cls-3" x="88.43" y="42.34" width="8.51" height="4.26"/></g><path id="bush-2" data-name="bush" class="cls-1" d="M167.89,58.81a4.32,4.32,0,0,0-2,.48A4.35,4.35,0,0,0,158.46,58a4.35,4.35,0,0,0-5.41-3.37,4.35,4.35,0,0,0-8.63.72s0,.06,0,.09a4.34,4.34,0,0,0-6.9,2.2,4.34,4.34,0,0,0-7.28,2.45A4.34,4.34,0,0,0,124,64.68h48a4.35,4.35,0,0,0-4.07-5.87Z"/><g id="tree"><line class="cls-7" x1="24.43" y1="37.71" x2="24.43" y2="64.7"/><rect class="cls-8" x="15.45" y="10" width="18.08" height="36.59" rx="9.04" ry="9.04"/></g><g id="Garage"><rect id="Front_wall-2" data-name="Front wall" class="cls-2" x="108.43" y="39.15" width="32.98" height="25.53"/><polygon id="Roof-2" data-name="Roof" class="cls-3" points="152.34 28.32 119.32 28.3 108.47 39.15 141.53 39.15 152.34 28.32"/><g id="Side-2" data-name="Side"><polygon class="cls-4" points="152.34 28.32 141.5 39.15 163.11 39.15 152.34 28.32"/><rect class="cls-4" x="141.41" y="39.15" width="21.7" height="25.53"/></g><g id="window-3" data-name="window"><rect class="cls-9" x="148" y="42.34" width="8.51" height="12.13"/><rect class="cls-10" x="148" y="42.34" width="8.51" height="4.26"/></g><g id="garage_door" data-name="garage door"><rect class="cls-5" x="114.17" y="44.89" width="21.28" height="19.79"/><rect class="cls-3" x="114.22" y="44.95" width="21.23" height="4.24"/><rect class="cls-3" x="106.41" y="52.66" width="19.79" height="4.26" transform="translate(61.51 171.09) rotate(-90)"/></g><g id="garage_door_8_rows" data-name="garage door 8 rows"><rect class="cls-3" x="114.17" y="44.89" width="21.28" height="2.47"/><rect class="cls-5" x="114.17" y="47.37" width="21.28" height="2.47"/><rect class="cls-3" x="114.17" y="49.84" width="21.28" height="2.47"/><rect class="cls-5" x="114.17" y="52.31" width="21.28" height="2.47"/><rect class="cls-3" x="114.17" y="54.79" width="21.28" height="2.47"/><rect class="cls-5" x="114.17" y="57.26" width="21.28" height="2.47"/><rect class="cls-3" x="114.17" y="59.73" width="21.28" height="2.47"/><rect class="cls-5" x="114.17" y="62.21" width="21.28" height="2.47"/><rect class="cls-3" x="114.17" y="44.89" width="2.55" height="19.79"/></g></g><path id="bush-3" data-name="bush" class="cls-8" d="M51.81,60.19a4.48,4.48,0,0,0-3.3,1.45,4,4,0,0,0-5.22-2,5.62,5.62,0,0,0-11,.85,5.62,5.62,0,0,0-7.83,4.23H56.3A4.5,4.5,0,0,0,51.81,60.19Z"/><path id="bush-4" data-name="bush" class="cls-8" d="M91.41,58.09a4.68,4.68,0,0,0-4.52,3.46,4.68,4.68,0,0,0-6.63,3.13h22.82a4.68,4.68,0,0,0-7-2.42A4.68,4.68,0,0,0,91.41,58.09Z"/></svg>