<svg id="Layer_1" data-name="Layer 1" xmlns="http://www.w3.org/2000/svg" width="158.59" height="114.8" viewBox="0 0 158.59 114.8"><defs><style>.cls-1{fill:#85ba5d;}.cls-2{fill:none;stroke:#0e0c2b;stroke-miterlimit:10;stroke-width:1.92px;}.cls-3{fill:#f29f53;}.cls-4{fill:#465a8c;}.cls-5{fill:#312766;}.cls-6{fill:#ad5d31;}.cls-7{fill:#fff;}.cls-8{fill:#844526;}.cls-9{fill:#b3b3b3;}.cls-10{fill:#4e8e3b;}</style></defs><title>info-2</title><path class="cls-1" d="M144.67,99.51a3.9,3.9,0,0,0-1.8.44,3.92,3.92,0,0,0-6.7-1.18,3.92,3.92,0,0,0-4.88-3,3.92,3.92,0,0,0-7.78.65s0,.05,0,.08a3.92,3.92,0,0,0-6.22,2,3.92,3.92,0,0,0-6.57,2.21A3.92,3.92,0,0,0,105,104.8h43.29a3.92,3.92,0,0,0-3.67-5.29Z"/><path class="cls-1" d="M49.68,99.51a3.9,3.9,0,0,0-1.8.44,3.92,3.92,0,0,0-6.7-1.18,3.92,3.92,0,0,0-4.88-3,3.92,3.92,0,0,0-7.78.65s0,.05,0,.08a3.92,3.92,0,0,0-6.22,2,3.92,3.92,0,0,0-6.57,2.21,3.92,3.92,0,0,0-5.67,4.16H53.35a3.92,3.92,0,0,0-3.67-5.29Z"/><g id="aerial"><line class="cls-2" x1="43.88" y1="14.8" x2="43.88" y2="26.31"/><line class="cls-2" x1="113.92" y1="10" x2="113.92" y2="25.74"/><line class="cls-2" x1="109.89" y1="15.76" x2="118.14" y2="15.76"/><line class="cls-2" x1="109.89" y1="12.69" x2="118.14" y2="12.69"/><line class="cls-2" x1="37.74" y1="17.49" x2="37.74" y2="26.31"/></g><rect id="Front_wall" data-name="Front wall" class="cls-3" x="26.8" y="24.01" width="73.5" height="80.79"/><g id="Door"><rect class="cls-4" x="33.9" y="86.95" width="9.59" height="17.85"/><rect class="cls-5" x="33.9" y="86.95" width="9.59" height="3.84"/><rect class="cls-5" x="26.89" y="93.96" width="17.85" height="3.84" transform="translate(-60.06 131.69) rotate(-90)"/></g><g id="window"><rect class="cls-4" x="34.83" y="69.56" width="7.74" height="10.96"/><rect class="cls-5" x="34.86" y="69.54" width="7.68" height="3.84"/></g><g id="window-2" data-name="window"><rect class="cls-4" x="34.83" y="51.2" width="7.74" height="10.96"/><rect class="cls-5" x="34.86" y="51.19" width="7.68" height="3.84"/></g><g id="window-3" data-name="window"><rect class="cls-4" x="34.83" y="32.85" width="7.74" height="10.96"/><rect class="cls-5" x="34.86" y="32.84" width="7.68" height="3.84"/></g><g id="Door-2" data-name="Door"><rect class="cls-4" x="58.84" y="86.95" width="9.59" height="17.85"/><rect class="cls-5" x="58.84" y="86.95" width="9.59" height="3.84"/><rect class="cls-5" x="51.84" y="93.96" width="17.85" height="3.84" transform="translate(-35.11 156.64) rotate(-90)"/></g><g id="window-4" data-name="window"><rect class="cls-4" x="59.77" y="69.56" width="7.74" height="10.96"/><rect class="cls-5" x="59.81" y="69.54" width="7.68" height="3.84"/></g><g id="window-5" data-name="window"><rect class="cls-4" x="59.77" y="51.2" width="7.74" height="10.96"/><rect class="cls-5" x="59.81" y="51.19" width="7.68" height="3.84"/></g><g id="window-6" data-name="window"><rect class="cls-4" x="59.77" y="32.85" width="7.74" height="10.96"/><rect class="cls-5" x="59.81" y="32.84" width="7.68" height="3.84"/></g><g id="Door-3" data-name="Door"><rect class="cls-4" x="84.37" y="86.95" width="9.59" height="17.85"/><rect class="cls-5" x="84.37" y="86.95" width="9.59" height="3.84"/><rect class="cls-5" x="77.36" y="93.96" width="17.85" height="3.84" transform="translate(-9.59 182.16) rotate(-90)"/></g><g id="window-7" data-name="window"><rect class="cls-4" x="85.3" y="69.56" width="7.74" height="10.96"/><rect class="cls-5" x="85.33" y="69.54" width="7.68" height="3.84"/></g><g id="window-8" data-name="window"><rect class="cls-4" x="85.3" y="51.2" width="7.74" height="10.96"/><rect class="cls-5" x="85.33" y="51.19" width="7.68" height="3.84"/></g><g id="window-9" data-name="window"><rect class="cls-4" x="85.3" y="32.85" width="7.74" height="10.96"/><rect class="cls-5" x="85.33" y="32.84" width="7.68" height="3.84"/></g><rect class="cls-6" x="11.45" y="63.7" width="79.83" height="2.3" transform="translate(-13.48 116.21) rotate(-90)"/><rect class="cls-6" x="36.4" y="63.7" width="79.83" height="2.3" transform="translate(11.46 141.16) rotate(-90)"/><g id="Shadow"><rect class="cls-6" x="26.8" y="24.01" width="73.5" height="4.61"/></g><rect class="cls-7" x="26.8" y="21.13" width="73.5" height="4.57"/><rect class="cls-6" x="100.3" y="24.01" width="27.06" height="80.79"/><polygon class="cls-6" points="123.67 104.78 115.88 104.78 108.09 104.78 100.3 104.78 100.3 104.8 127.36 104.8 127.36 104.78 123.67 104.78"/><polygon class="cls-8" points="108.09 83.48 108.09 80.79 100.3 80.81 100.3 83.48 104.21 83.48 108.09 83.48"/><polygon class="cls-6" points="115.88 83.48 115.88 80.79 112 80.79 108.09 80.79 108.09 83.48 112 83.48 115.88 83.48"/><polygon class="cls-6" points="115.88 83.48 119.8 83.48 123.67 83.48 123.67 80.79 119.8 80.79 115.88 80.79 115.88 83.48"/><rect class="cls-6" x="123.67" y="80.79" width="3.68" height="2.69"/><polygon class="cls-6" points="119.8 80.79 119.8 78.1 112 78.1 112 80.79 115.88 80.79 119.8 80.79"/><polygon class="cls-6" points="119.8 80.79 123.67 80.79 127.36 80.79 127.36 78.1 119.8 78.1 119.8 80.79"/><polygon class="cls-6" points="108.09 88.85 108.09 86.16 104.21 86.16 100.3 86.16 100.3 88.85 104.21 88.85 108.09 88.85"/><polygon class="cls-6" points="115.88 88.85 115.88 86.16 112 86.16 108.09 86.16 108.09 88.85 112 88.85 115.88 88.85"/><polygon class="cls-6" points="115.88 88.85 119.8 88.85 123.67 88.85 123.67 86.16 119.8 86.16 115.88 86.16 115.88 88.85"/><rect class="cls-8" x="123.67" y="86.16" width="3.68" height="2.69"/><rect class="cls-6" x="100.3" y="83.48" width="3.91" height="2.69"/><polygon class="cls-8" points="112 83.48 108.09 83.48 104.21 83.48 104.21 86.16 108.09 86.16 112 86.16 112 83.48"/><rect class="cls-6" x="100.3" y="78.1" width="3.91" height="2.69"/><polygon class="cls-6" points="112 78.1 108.09 78.1 104.21 78.1 104.21 80.79 108.09 80.79 112 80.79 112 78.1"/><polygon class="cls-6" points="112 83.48 112 86.16 115.88 86.16 119.8 86.16 119.8 83.48 115.88 83.48 112 83.48"/><polygon class="cls-6" points="119.8 83.48 119.8 86.16 123.67 86.16 127.36 86.16 127.36 83.48 123.67 83.48 119.8 83.48"/><polygon class="cls-6" points="108.09 94.22 108.09 91.54 104.21 91.54 100.3 91.54 100.3 94.22 104.21 94.22 108.09 94.22"/><polygon class="cls-6" points="115.88 94.22 115.88 91.54 112 91.54 108.09 91.54 108.09 94.22 112 94.22 115.88 94.22"/><polygon class="cls-6" points="115.88 94.22 119.8 94.22 123.67 94.22 123.67 91.54 119.8 91.54 115.88 91.54 115.88 94.22"/><rect class="cls-8" x="123.67" y="91.54" width="3.68" height="2.69"/><rect class="cls-6" x="100.3" y="88.85" width="3.91" height="2.69"/><polygon class="cls-6" points="112 88.85 108.09 88.85 104.21 88.85 104.21 91.54 108.09 91.54 112 91.54 112 88.85"/><polygon class="cls-6" points="112 88.85 112 91.54 115.88 91.54 119.8 91.54 119.8 88.85 115.88 88.85 112 88.85"/><polygon class="cls-8" points="119.8 88.85 119.8 91.54 123.67 91.54 127.36 91.54 127.36 88.85 123.67 88.85 119.8 88.85"/><polygon class="cls-6" points="108.09 99.4 108.09 96.91 104.21 96.91 100.3 96.91 100.3 99.4 104.21 99.4 108.09 99.4"/><polygon class="cls-6" points="115.88 99.4 115.88 96.91 112 96.91 108.09 96.91 108.09 99.4 112 99.4 115.88 99.4"/><polygon class="cls-6" points="115.88 99.4 119.8 99.4 123.67 99.4 123.67 96.91 119.8 96.91 115.88 96.91 115.88 99.4"/><rect class="cls-6" x="123.67" y="96.91" width="3.68" height="2.49"/><rect class="cls-6" x="100.3" y="94.22" width="3.91" height="2.69"/><polygon class="cls-6" points="112 94.22 108.09 94.22 104.21 94.22 104.21 96.91 108.09 96.91 112 96.91 112 94.22"/><polygon class="cls-6" points="112 94.22 112 96.91 115.88 96.91 119.8 96.91 119.8 94.22 115.88 94.22 112 94.22"/><polygon class="cls-6" points="119.8 94.22 119.8 96.91 123.67 96.91 127.36 96.91 127.36 94.22 123.67 94.22 119.8 94.22"/><polygon class="cls-8" points="108.09 102.09 104.21 102.09 100.3 102.09 100.3 104.78 108.09 104.78 108.09 102.09"/><polygon class="cls-6" points="112 102.09 108.09 102.09 108.09 104.78 115.88 104.78 115.88 102.09 112 102.09"/><polygon class="cls-6" points="119.8 102.09 115.88 102.09 115.88 104.78 123.67 104.78 123.67 102.09 119.8 102.09"/><rect class="cls-6" x="123.67" y="102.09" width="3.68" height="2.69"/><polygon class="cls-8" points="104.21 99.4 100.3 99.4 100.3 99.6 100.3 102.09 104.21 102.09 104.21 99.4"/><polygon class="cls-6" points="100.3 102.11 96.46 102.11 96.46 102.3 96.46 104.8 100.3 104.8 100.3 102.11"/><polygon class="cls-6" points="112 99.4 108.09 99.4 104.21 99.4 104.21 102.09 108.09 102.09 112 102.09 112 99.4"/><polygon class="cls-6" points="112 99.4 112 102.09 115.88 102.09 119.8 102.09 119.8 99.4 115.88 99.4 112 99.4"/><polygon class="cls-6" points="119.8 99.4 119.8 102.09 123.67 102.09 127.36 102.09 127.36 99.4 123.67 99.4 119.8 99.4"/><polygon class="cls-6" points="123.67 78.1 115.88 78.1 108.09 78.1 100.3 78.1 100.3 78.13 127.36 78.13 127.36 78.1 123.67 78.1"/><polygon class="cls-6" points="108.09 56.8 108.09 54.12 100.3 54.14 100.3 56.8 104.21 56.8 108.09 56.8"/><polygon class="cls-6" points="115.88 56.8 115.88 54.12 112 54.12 108.09 54.12 108.09 56.8 112 56.8 115.88 56.8"/><polygon class="cls-6" points="115.88 56.8 119.8 56.8 123.67 56.8 123.67 54.12 119.8 54.12 115.88 54.12 115.88 56.8"/><rect class="cls-6" x="123.67" y="54.12" width="3.68" height="2.69"/><polygon class="cls-6" points="119.8 54.12 119.8 51.43 112 51.43 112 54.12 115.88 54.12 119.8 54.12"/><polygon class="cls-6" points="119.8 54.12 123.67 54.12 127.36 54.12 127.36 51.43 119.8 51.43 119.8 54.12"/><polygon class="cls-6" points="108.09 62.18 108.09 59.49 104.21 59.49 100.3 59.49 100.3 62.18 104.21 62.18 108.09 62.18"/><polygon class="cls-6" points="115.88 62.18 115.88 59.49 112 59.49 108.09 59.49 108.09 62.18 112 62.18 115.88 62.18"/><polygon class="cls-6" points="115.88 62.18 119.8 62.18 123.67 62.18 123.67 59.49 119.8 59.49 115.88 59.49 115.88 62.18"/><rect class="cls-6" x="123.67" y="59.49" width="3.68" height="2.69"/><rect class="cls-6" x="100.3" y="56.8" width="3.91" height="2.69"/><polygon class="cls-6" points="112 56.8 108.09 56.8 104.21 56.8 104.21 59.49 108.09 59.49 112 59.49 112 56.8"/><rect class="cls-8" x="100.3" y="51.43" width="3.91" height="2.69"/><polygon class="cls-6" points="112 51.43 108.09 51.43 104.21 51.43 104.21 54.12 108.09 54.12 112 54.12 112 51.43"/><polygon class="cls-6" points="112 56.8 112 59.49 115.88 59.49 119.8 59.49 119.8 56.8 115.88 56.8 112 56.8"/><polygon class="cls-6" points="119.8 56.8 119.8 59.49 123.67 59.49 127.36 59.49 127.36 56.8 123.67 56.8 119.8 56.8"/><polygon class="cls-6" points="108.09 67.55 108.09 64.86 104.21 64.86 100.3 64.86 100.3 67.55 104.21 67.55 108.09 67.55"/><polygon class="cls-6" points="115.88 67.55 115.88 64.86 112 64.86 108.09 64.86 108.09 67.55 112 67.55 115.88 67.55"/><polygon class="cls-8" points="115.88 67.55 119.8 67.55 123.67 67.55 123.67 64.86 119.8 64.86 115.88 64.86 115.88 67.55"/><rect class="cls-6" x="123.67" y="64.86" width="3.68" height="2.69"/><rect class="cls-6" x="100.3" y="62.18" width="3.91" height="2.69"/><polygon class="cls-6" points="112 62.18 108.09 62.18 104.21 62.18 104.21 64.86 108.09 64.86 112 64.86 112 62.18"/><polygon class="cls-8" points="112 62.18 112 64.86 115.88 64.86 119.8 64.86 119.8 62.18 115.88 62.18 112 62.18"/><polygon class="cls-6" points="119.8 62.18 119.8 64.86 123.67 64.86 127.36 64.86 127.36 62.18 123.67 62.18 119.8 62.18"/><polygon class="cls-6" points="108.09 72.73 108.09 70.24 104.21 70.24 100.3 70.24 100.3 72.73 104.21 72.73 108.09 72.73"/><polygon class="cls-6" points="115.88 72.73 115.88 70.24 112 70.24 108.09 70.24 108.09 72.73 112 72.73 115.88 72.73"/><polygon class="cls-6" points="115.88 72.73 119.8 72.73 123.67 72.73 123.67 70.24 119.8 70.24 115.88 70.24 115.88 72.73"/><rect class="cls-6" x="123.67" y="70.24" width="3.68" height="2.49"/><rect class="cls-6" x="100.3" y="67.55" width="3.91" height="2.69"/><polygon class="cls-6" points="112 67.55 108.09 67.55 104.21 67.55 104.21 70.24 108.09 70.24 112 70.24 112 67.55"/><polygon class="cls-8" points="112 67.55 112 70.24 115.88 70.24 119.8 70.24 119.8 67.55 115.88 67.55 112 67.55"/><polygon class="cls-6" points="119.8 67.55 119.8 70.24 123.67 70.24 127.36 70.24 127.36 67.55 123.67 67.55 119.8 67.55"/><polygon class="cls-6" points="108.09 75.42 104.21 75.42 100.3 75.42 100.3 78.1 108.09 78.1 108.09 75.42"/><polygon class="cls-6" points="112 75.42 108.09 75.42 108.09 78.1 115.88 78.1 115.88 75.42 112 75.42"/><polygon class="cls-6" points="119.8 75.42 115.88 75.42 115.88 78.1 123.67 78.1 123.67 75.42 119.8 75.42"/><rect class="cls-6" x="123.67" y="75.42" width="3.68" height="2.69"/><polygon class="cls-6" points="104.21 72.73 100.3 72.73 100.3 72.92 100.3 75.42 104.21 75.42 104.21 72.73"/><polygon class="cls-6" points="112 72.73 108.09 72.73 104.21 72.73 104.21 75.42 108.09 75.42 112 75.42 112 72.73"/><polygon class="cls-6" points="112 72.73 112 75.42 115.88 75.42 119.8 75.42 119.8 72.73 115.88 72.73 112 72.73"/><polygon class="cls-6" points="119.8 72.73 119.8 75.42 123.67 75.42 127.36 75.42 127.36 72.73 123.67 72.73 119.8 72.73"/><rect class="cls-6" x="96.46" y="32.84" width="3.84" height="2.69"/><polygon class="cls-6" points="108.09 30.13 108.09 27.44 100.3 27.46 100.3 30.13 104.21 30.13 108.09 30.13"/><polygon class="cls-6" points="115.88 30.13 115.88 27.44 112 27.44 108.09 27.44 108.09 30.13 112 30.13 115.88 30.13"/><polygon class="cls-6" points="115.88 30.13 119.8 30.13 123.67 30.13 123.67 27.44 119.8 27.44 115.88 27.44 115.88 30.13"/><rect class="cls-6" x="123.67" y="27.44" width="3.68" height="2.69"/><polygon class="cls-6" points="119.8 27.44 119.8 24.76 112 24.76 112 27.44 115.88 27.44 119.8 27.44"/><polygon class="cls-6" points="119.8 27.44 123.67 27.44 127.36 27.44 127.36 24.76 119.8 24.76 119.8 27.44"/><polygon class="cls-6" points="108.09 35.5 108.09 32.82 104.21 32.82 100.3 32.82 100.3 35.5 104.21 35.5 108.09 35.5"/><polygon class="cls-6" points="115.88 35.5 115.88 32.82 112 32.82 108.09 32.82 108.09 35.5 112 35.5 115.88 35.5"/><polygon class="cls-6" points="115.88 35.5 119.8 35.5 123.67 35.5 123.67 32.82 119.8 32.82 115.88 32.82 115.88 35.5"/><rect class="cls-8" x="123.67" y="32.82" width="3.68" height="2.69"/><rect class="cls-8" x="100.3" y="30.13" width="3.91" height="2.69"/><polygon class="cls-6" points="112 30.13 108.09 30.13 104.21 30.13 104.21 32.82 108.09 32.82 112 32.82 112 30.13"/><rect class="cls-6" x="100.3" y="24.76" width="3.91" height="2.69"/><polygon class="cls-6" points="112 24.76 108.09 24.76 104.21 24.76 104.21 27.44 108.09 27.44 112 27.44 112 24.76"/><polygon class="cls-6" points="112 30.13 112 32.82 115.88 32.82 119.8 32.82 119.8 30.13 115.88 30.13 112 30.13"/><polygon class="cls-6" points="119.8 30.13 119.8 32.82 123.67 32.82 127.36 32.82 127.36 30.13 123.67 30.13 119.8 30.13"/><polygon class="cls-6" points="108.09 40.88 108.09 38.19 104.21 38.19 100.3 38.19 100.3 40.88 104.21 40.88 108.09 40.88"/><polygon class="cls-6" points="115.88 40.88 115.88 38.19 112 38.19 108.09 38.19 108.09 40.88 112 40.88 115.88 40.88"/><polygon class="cls-6" points="115.88 40.88 119.8 40.88 123.67 40.88 123.67 38.19 119.8 38.19 115.88 38.19 115.88 40.88"/><rect class="cls-8" x="123.67" y="38.19" width="3.68" height="2.69"/><rect class="cls-6" x="100.3" y="35.5" width="3.91" height="2.69"/><polygon class="cls-6" points="112 35.5 108.09 35.5 104.21 35.5 104.21 38.19 108.09 38.19 112 38.19 112 35.5"/><polygon class="cls-6" points="112 35.5 112 38.19 115.88 38.19 119.8 38.19 119.8 35.5 115.88 35.5 112 35.5"/><polygon class="cls-8" points="119.8 35.5 119.8 38.19 123.67 38.19 127.36 38.19 127.36 35.5 123.67 35.5 119.8 35.5"/><polygon class="cls-6" points="108.09 46.06 108.09 43.56 104.21 43.56 100.3 43.56 100.3 46.06 104.21 46.06 108.09 46.06"/><polygon class="cls-6" points="115.88 46.06 115.88 43.56 112 43.56 108.09 43.56 108.09 46.06 112 46.06 115.88 46.06"/><polygon class="cls-6" points="115.88 46.06 119.8 46.06 123.67 46.06 123.67 43.56 119.8 43.56 115.88 43.56 115.88 46.06"/><rect class="cls-6" x="123.67" y="43.56" width="3.68" height="2.49"/><rect class="cls-6" x="100.3" y="40.88" width="3.91" height="2.69"/><polygon class="cls-6" points="112 40.88 108.09 40.88 104.21 40.88 104.21 43.56 108.09 43.56 112 43.56 112 40.88"/><polygon class="cls-6" points="112 40.88 112 43.56 115.88 43.56 119.8 43.56 119.8 40.88 115.88 40.88 112 40.88"/><polygon class="cls-6" points="119.8 40.88 119.8 43.56 123.67 43.56 127.36 43.56 127.36 40.88 123.67 40.88 119.8 40.88"/><polygon class="cls-8" points="108.09 48.74 104.21 48.74 100.3 48.74 100.3 51.45 108.09 51.43 108.09 48.74"/><polygon class="cls-6" points="112 48.74 108.09 48.74 108.09 51.43 115.88 51.43 115.88 48.74 112 48.74"/><polygon class="cls-6" points="119.8 48.74 115.88 48.74 115.88 51.43 123.67 51.43 123.67 48.74 119.8 48.74"/><rect class="cls-6" x="123.67" y="48.74" width="3.68" height="2.69"/><polygon class="cls-8" points="104.21 46.06 100.3 46.06 100.3 46.25 100.3 48.74 104.21 48.74 104.21 46.06"/><polygon class="cls-6" points="112 46.06 108.09 46.06 104.21 46.06 104.21 48.74 108.09 48.74 112 48.74 112 46.06"/><polygon class="cls-6" points="112 46.06 112 48.74 115.88 48.74 119.8 48.74 119.8 46.06 115.88 46.06 112 46.06"/><polygon class="cls-6" points="119.8 46.06 119.8 48.74 123.67 48.74 127.36 48.74 127.36 46.06 123.67 46.06 119.8 46.06"/><rect class="cls-8" x="100.3" y="24.01" width="27.06" height="4.61"/><rect class="cls-9" x="100.3" y="21.13" width="27.06" height="4.57"/><path id="bush" class="cls-10" d="M137.12,100.74a4,4,0,0,0-3,1.31,3.64,3.64,0,0,0-4.71-1.84,5.07,5.07,0,0,0-9.92.77,5.07,5.07,0,0,0-7.06,3.82h28.72A4.05,4.05,0,0,0,137.12,100.74Z"/></svg>