<svg id="Layer_1" data-name="Layer 1" xmlns="http://www.w3.org/2000/svg" xmlns:xlink="http://www.w3.org/1999/xlink" width="258.81" height="92.76" viewBox="0 0 258.81 92.76"><defs><style>.cls-1,.cls-11,.cls-7,.cls-8,.cls-9{fill:none;}.cls-2{clip-path:url(#clip-path);}.cls-3{fill:#afcc69;}.cls-4{fill:#85ba5d;}.cls-5{fill:#f2f2f2;}.cls-6{fill:#4e8e3b;}.cls-11,.cls-7,.cls-8,.cls-9{stroke:#312766;stroke-miterlimit:10;}.cls-7{stroke-width:2.06px;}.cls-8,.cls-9{stroke-width:4.13px;}.cls-11,.cls-9{stroke-linecap:round;}.cls-10{fill:#fff;}.cls-11{stroke-width:1.65px;}.cls-12{fill:#b3b3b3;}.cls-13{fill:#312766;}.cls-14{fill:#0e0c2b;}.cls-15{fill:#ccc;}.cls-16{fill:#465a8c;}.cls-17{fill:#e6e6e6;}.cls-18,.cls-19{fill:#666;}.cls-19{opacity:0.5;}.cls-20{fill:#ad5d31;}.cls-21{fill:#844526;}.cls-22{fill:#377722;}</style><clipPath id="clip-path"><rect class="cls-1" x="469.13" y="23.35" width="886.67" height="430.57"/></clipPath></defs><title>info-5_1</title><g class="cls-2"><path class="cls-3" d="M1261.37-157.59h-3.92a88.5,88.5,0,0,0-62.58,25.92h0a88.5,88.5,0,0,0-25.92,62.58V-3.35a83.8,83.8,0,0,1-24.54,59.26h0a83.8,83.8,0,0,1-59.26,24.54H1041.4a82.36,82.36,0,0,0-58.24,24.12h0A82.36,82.36,0,0,0,959,162.81v64.9A54.18,54.18,0,0,1,943.18,266h0a54.18,54.18,0,0,1-38.31,15.87H885A54.18,54.18,0,0,1,846.69,266l-44.9-44.9a116.17,116.17,0,0,0-82.14-34H680a116.17,116.17,0,0,0-82.14,34h0a57.21,57.21,0,0,1-40.46,16.76h-5.5a57.21,57.21,0,0,1-40.46-16.76l-12.19-12.19a57.21,57.21,0,0,1-16.76-40.46h0A57.21,57.21,0,0,1,499.29,128h0a49.62,49.62,0,0,0-1.06-71.19L464.52,25.05a241.68,241.68,0,0,1-75.93-175.89h0A197.45,197.45,0,0,0,337.84-283h-290a89.59,89.59,0,0,1,21.84,58.61h0A89.59,89.59,0,0,1,43.42-161L22.53-140.14A89.59,89.59,0,0,1-40.82-113.9H-66.54A91.21,91.21,0,0,1-131-140.61h0a91.21,91.21,0,0,0-64.49-26.71H-280.9a102.68,102.68,0,0,1-72.6-30.07l-4-4a102.68,102.68,0,0,0-72.6-30.07h0a102.68,102.68,0,0,1-72.6-30.07L-524.15-283H-951l64.13,64.13a68.58,68.58,0,0,1,17.12,28.55q.73,2.4,1.29,4.86.37,1.64.66,3.3a68.56,68.56,0,0,1,.94,8.39q.08,1.7.08,3.4h0v45.58h10.26A114.68,114.68,0,0,1-775.45-91.2l10.05,10.05A114.68,114.68,0,0,1-731.8-.06h0A114.68,114.68,0,0,0-698.21,81l11.64,11.64A114.68,114.68,0,0,1-653,173.77v57.84A64.17,64.17,0,0,1-671.78,277l-8.27,8.27a64.17,64.17,0,0,0-18.8,45.38h0A64.17,64.17,0,0,0-680.05,376l5.28,5.28A64.17,64.17,0,0,1-656,426.67v77.27a74.88,74.88,0,0,0,21.93,53h0a74.88,74.88,0,0,1,21.93,53h0A242.18,242.18,0,0,1-683,781.09h0c-.29.29-.58.56-.88.84v2.73q0,.85,0,1.7,0,1.7.17,3.39a68.55,68.55,0,0,0,1.29,9q.35,1.68.79,3.34.24.9.5,1.79.18.63.38,1.26.6,1.9,1.3,3.76.47,1.24,1,2.47.34.8.7,1.59c.37.83.76,1.65,1.17,2.46.31.61.62,1.21.95,1.81q1.51,2.78,3.27,5.43,1.06,1.59,2.22,3.13.75,1,1.53,2,.94,1.17,1.94,2.3l.86,1q.93,1,1.9,2l.12.12,29.14,29.14,4.86,4.86,17,17a68.57,68.57,0,0,1,17.1,28.47l.08.28q.4,1.34.75,2.69t.64,2.72c.06.3.13.59.19.89q.49,2.47.81,5,.1.84.19,1.68.17,1.68.25,3.38t.08,3.4h0v115.28h0a221.79,221.79,0,0,1-3.4,40.15h102.71l-.52-73.5a76.2,76.2,0,0,1,22.32-54.42h0a76.2,76.2,0,0,0,22.32-53.88V862.33A76.2,76.2,0,0,1-427,808.45l20.75-20.75a76.2,76.2,0,0,1,53.88-22.32h36.2a87.23,87.23,0,0,1,61.68,25.55h0a87.23,87.23,0,0,0,61.68,25.55h7A87.23,87.23,0,0,1-124.16,842l7.88,7.88a87.23,87.23,0,0,0,61.68,25.55h43.27A69.47,69.47,0,0,0,37.8,855.12l4.3-4.3a69.47,69.47,0,0,1,49.12-20.35H105.9A69.47,69.47,0,0,0,155,810.13h0a69.47,69.47,0,0,1,49.12-20.35h22.34a52.17,52.17,0,0,1,36.89,15.28l42.41,42.41a52.17,52.17,0,0,1,15.28,36.89v31a52.17,52.17,0,0,1-15.28,36.89h0a52.17,52.17,0,0,0-15.28,36.89h0A111.08,111.08,0,0,0,323,1067.7l20.36,20.36H686.05l-70.67-74.84a212,212,0,0,1-21.82-263.85h0a125.92,125.92,0,0,1,89-36.88h0a125.92,125.92,0,0,1,89,36.88l19.13,19.13a81.47,81.47,0,0,0,57.61,23.86h0a81.47,81.47,0,0,0,81.47-81.47V663a110.89,110.89,0,0,1,32.48-78.41h0a110.89,110.89,0,0,1,78.41-32.48h22.61a110.89,110.89,0,0,1,78.41,32.48l23.11,23.11a58.36,58.36,0,0,0,41.27,17.09h0a58.36,58.36,0,0,1,41.27,17.09l17.18,17.18a58.36,58.36,0,0,0,41.27,17.09h59.88V589h-8a122.3,122.3,0,0,1-86.48-35.82h0a122.3,122.3,0,0,0-86.48-35.82h-49.91a79.47,79.47,0,0,1-56.19-23.28l-6.17-6.17q-2.38-2.38-4.52-4.93h-94l-.75,0-.37,0-.29,0a12.53,12.53,0,0,1-9.5-6.26h.14a12.93,12.93,0,0,1-1.77-6.51h97.71a79.46,79.46,0,0,1-9.9-38.4V424a79.47,79.47,0,0,1,23.28-56.19h0a79.47,79.47,0,0,1,56.19-23.28h38.12a41.74,41.74,0,0,0,41.74-41.74h0a41.74,41.74,0,0,1,12.23-29.52l11.33-11.33a248.27,248.27,0,0,1,133.65-69.15V-89.88l-41.79-41.79A88.5,88.5,0,0,0,1261.37-157.59Zm-1336,458.18h260.2a12.22,12.22,0,0,1-12.21,12.27H-62.32a12.27,12.27,0,0,1-12.27-12.27ZM-326.39,91.69h195.94a12.47,12.47,0,0,1-1.63,6.19h0a12.57,12.57,0,0,1-1.4,2l0,0a12.59,12.59,0,0,1-1.72,1.65l-.06.05a12.56,12.56,0,0,1-1.3.89l-.05,0-.61.34-.13.07-.66.31h0l-.72.28-.14,0-.58.18-.19.05-.69.17h-.05l-.75.13-.21,0-.58.06-.22,0-.78,0H-313.85l-.78,0-.22,0-.58-.06-.21,0-.75-.13h-.05l-.69-.17-.19-.05-.58-.18-.14,0-.72-.28h0l-.66-.31-.13-.07-.61-.34-.05,0a12.56,12.56,0,0,1-1.3-.89l-.06-.05a12.59,12.59,0,0,1-1.72-1.65l0,0a12.57,12.57,0,0,1-1.4-2h0a12.47,12.47,0,0,1-1.63-6.19Zm-2.28,199.16h0a12.13,12.13,0,0,1-12.11,12.27H-512.17a12.18,12.18,0,0,1-12.16-12.27h195.66ZM-603.15,52.18A12.27,12.27,0,0,1-615.43,39.9h206.52a12.27,12.27,0,0,1-12.27,12.27ZM189.33,669.36a85.35,85.35,0,0,1-25,60.35h0a85.35,85.35,0,0,1-60.35,25h-18a85.35,85.35,0,0,0-60.35,25l-8.45,8.45a85.59,85.59,0,0,1-60.52,25.07h0a85.59,85.59,0,0,1-60.52-25.07l-1.26-1.26a85.59,85.59,0,0,0-60.52-25.07h-43.53a75.05,75.05,0,0,1-53.07-22h0a75.05,75.05,0,0,0-53.07-22h-25.75a75.05,75.05,0,0,0-53.07,22l-5.35,5.35a67.37,67.37,0,0,1-47.64,19.73h-12.09A67.37,67.37,0,0,1-506.9,745.2l-28.43-28.43a67.37,67.37,0,0,1-19.73-47.64h0a67.37,67.37,0,0,1,19.73-47.64h0a101.94,101.94,0,0,0,29.86-72q0-.55,0-1.1a59.2,59.2,0,0,0-17.41-42l-.44-.44a57.55,57.55,0,0,1-16.86-40.76l.05-48.67a59.15,59.15,0,0,1,17.33-41.76h0a164.17,164.17,0,0,1,116.09-48.08h54.39a105.11,105.11,0,0,1,63.06,21l67.08,50.31a98.8,98.8,0,0,0,59.28,19.76h43.46a98.8,98.8,0,0,0,69.87-28.94h0A98.8,98.8,0,0,1,20.29,360H41.81a112.36,112.36,0,0,1,79.45,32.91h0a112.36,112.36,0,0,1,32.91,79.45v37.75a60,60,0,0,0,17.58,42.43h0a60,60,0,0,1,17.58,42.43Zm103-428.1H32.18a77.05,77.05,0,0,1-53.92-22l-27-26.42a77.05,77.05,0,0,1-23.13-55V73.86A77.05,77.05,0,0,1-49.27,19.37l35.69-35.69A77.05,77.05,0,0,1,40.91-38.89H62.56A77.05,77.05,0,0,0,117-61.45l37.17-37.17A77.05,77.05,0,0,1,208.7-121.2h0a77.05,77.05,0,0,1,77.05,77.05v14.81a77.05,77.05,0,0,0,22.57,54.49l49.23,49.23a77.05,77.05,0,0,1,22.57,54.49v24.61A77.05,77.05,0,0,1,357.56,208L346.83,218.7A77.05,77.05,0,0,1,292.35,241.26ZM856.64,470.82a170,170,0,0,1-49.8,120.24l-11.78,11.78a129.83,129.83,0,0,1-91.8,38h0A122.27,122.27,0,0,1,616.79,605h0a122.27,122.27,0,0,0-86.46-35.81H482.88a122.27,122.27,0,0,1-86.46-35.81L354.49,491.5a50.28,50.28,0,0,1-14.73-35.56h0A50.29,50.29,0,0,1,362.26,414l48.61-32.23A90.92,90.92,0,0,1,508.5,380h0a90.92,90.92,0,0,0,93.08,1l93.12-54.14A97.26,97.26,0,0,1,746,313.69h0a97.26,97.26,0,0,1,83.06,50.91l15.78,29.14a97.26,97.26,0,0,1,11.74,46.32Zm318.69-268.56a12.42,12.42,0,0,1-12.42,12.42H990.26a12.42,12.42,0,0,1-12.42-12.42h197.5Z"/><path class="cls-4" d="M357.56,208a77.05,77.05,0,0,0,22.57-54.49V128.87a77.05,77.05,0,0,0-22.57-54.49L308.32,25.15a77.05,77.05,0,0,1-22.57-54.49V-44.14A77.05,77.05,0,0,0,208.7-121.2h0a77.05,77.05,0,0,0-54.49,22.57L117-61.45A77.05,77.05,0,0,1,62.56-38.89H40.91A77.05,77.05,0,0,0-13.58-16.32L-49.27,19.37A77.05,77.05,0,0,0-71.84,73.86v63.93a77.05,77.05,0,0,0,23.13,55l27,26.42a77.05,77.05,0,0,0,53.92,22H292.35a77.05,77.05,0,0,0,54.49-22.57Z"/><path class="cls-1" d="M321.23,53.63a83,83,0,0,0-27,18.07L264.89,101a94,94,0,0,1-49.22,25.93l-1.86,52A183.29,183.29,0,0,0,267.5,308.49l13.23,13.23h88.41a5.31,5.31,0,0,1,3.79,0H593.25a66.69,66.69,0,0,0,47.47-19.66L663.77,279a77.21,77.21,0,0,1,55-22.76h30.22q-4.31-1.19-8.69-2.19a199.49,199.49,0,0,0-67.4-3.67L565.72,262.74a132.67,132.67,0,0,1-69.9-10.9,129.69,129.69,0,0,1-54.05-45.51,131.06,131.06,0,0,1-22.5-73.65A121.11,121.11,0,0,0,384,47.29h-30.9A83,83,0,0,0,321.23,53.63Z"/><path class="cls-1" d="M-369.21-125.68A435.72,435.72,0,0,0-201.64-92.34h35a142.92,142.92,0,0,1,55,10.93A142.92,142.92,0,0,1-65-50.27,142.93,142.93,0,0,1-33.9-3.67,142.92,142.92,0,0,1-23,51.29v55.3q0,5.7-.45,11.35H198.46a83.37,83.37,0,0,0,59-24.42l29.3-29.3a93.95,93.95,0,0,1,66.43-27.52h20.33L365,28.2a131.07,131.07,0,0,1-28.55-42.73,131.07,131.07,0,0,1-10-50.41v-91.2a120.54,120.54,0,0,0-9.22-46.36,120.53,120.53,0,0,0-26.26-39.3L253-279.67l3.82-3.82h-831l62.89,62.89A435.71,435.71,0,0,0-369.21-125.68Z"/><path class="cls-5" d="M205,128.29l.22-6.07,10.57.38-.15,4.34A94,94,0,0,0,264.89,101l29.3-29.3a83.37,83.37,0,0,1,59-24.42H384l-.25-.26L373.47,36.71H353.14a93.95,93.95,0,0,0-66.43,27.52l-29.3,29.3a83.37,83.37,0,0,1-59,24.42H-23.41q-.42,5.32-1.23,10.58h223.1Q201.76,128.52,205,128.29Z"/><path class="cls-5" d="M290.9-241.8a120.53,120.53,0,0,1,26.26,39.3,120.54,120.54,0,0,1,9.22,46.36v91.2a131.07,131.07,0,0,0,10,50.41A131.07,131.07,0,0,0,365,28.2l8.51,8.51L383.79,47l.25.26a121.11,121.11,0,0,1,35.23,85.4,131.06,131.06,0,0,0,22.5,73.65,129.69,129.69,0,0,0,54.05,45.51,132.67,132.67,0,0,0,69.9,10.9l107.14-12.35a199.49,199.49,0,0,1,67.4,3.67q4.37,1,8.69,2.19h19.93a68.1,68.1,0,0,0,9.92-.72,210.2,210.2,0,0,0-107.15-15.64L564.5,252.23a122.08,122.08,0,0,1-64.32-10,119.11,119.11,0,0,1-49.65-41.79,120.52,120.52,0,0,1-20.69-67.73,131.7,131.7,0,0,0-31.44-85.4q-3.41-4-7.14-7.74l-2.84-2.84-16-16a120.54,120.54,0,0,1-26.26-39.3A120.54,120.54,0,0,1,337-64.94v-91.2a131.07,131.07,0,0,0-10-50.41,131.07,131.07,0,0,0-28.55-42.73l-34.21-34.21h-7.33L253-279.67Z"/></g><g id="link-5"><path id="bush" class="cls-6" d="M244.53,77.08a4.19,4.19,0,0,0-1.93.47,4.21,4.21,0,0,0-7.19-1.27A4.21,4.21,0,0,0,230.17,73a4.21,4.21,0,0,0-8.36.69s0,.06,0,.08a4.21,4.21,0,0,0-6.68,2.12,4.21,4.21,0,0,0-7,2.37A4.2,4.2,0,0,0,202,82.76h46.73a5,5,0,0,0-4.21-5.68Z"/><path id="bush-2" data-name="bush" class="cls-6" d="M14.36,78.71a4.39,4.39,0,0,1,.75.07,4.37,4.37,0,0,1,7.77-1.71,4.38,4.38,0,0,1,5.37-2.52c0-.07,0-.13,0-.2A4.37,4.37,0,0,1,37,74a4.37,4.37,0,0,1,8.1,2.28c0,.11,0,.22,0,.33a4.37,4.37,0,0,1,6,6.12H10A4.37,4.37,0,0,1,14.36,78.71Z"/><g id="tree"><line class="cls-7" x1="35.69" y1="56.3" x2="35.69" y2="82.46"/></g><path class="cls-6" d="M45.69,31.67a10.42,10.42,0,1,0-20.23,0,14.51,14.51,0,0,1-1.47,11,13.51,13.51,0,1,0,23.27.15A14.82,14.82,0,0,1,45.69,31.67Z"/><path class="cls-7" d="M25.28,82.16V46.93a4.16,4.16,0,0,0-4.16-4.16h0A4.13,4.13,0,0,0,17,46.93v1.94"/><line class="cls-8" x1="25.43" y1="71.76" x2="25.43" y2="82.76"/><line class="cls-9" x1="25.43" y1="66.41" x2="25.43" y2="78.89"/><circle class="cls-10" cx="16.96" cy="51.69" r="2.82"/><line class="cls-11" x1="15.62" y1="48.87" x2="18.3" y2="48.87"/><rect class="cls-12" x="72.4" y="30.12" width="18.27" height="52.63"/><polygon class="cls-13" points="64.03 10 42.99 27.73 204.45 27.73 204.45 10 64.03 10"/><polygon class="cls-14" points="204.45 10 183.54 27.43 183.54 27.52 225.38 27.52 225.38 27.43 204.45 10"/><rect class="cls-15" x="43.03" y="27.51" width="182.35" height="2.61"/><polygon class="cls-15" points="72.61 80.15 43.03 80.15 43.03 27.58 57.82 15.24 72.61 27.58 72.61 80.15"/><polygon class="cls-10" points="72.61 82.76 43.03 82.76 43.03 30.19 57.82 17.86 72.61 30.19 72.61 82.76"/><g id="window"><rect class="cls-16" x="45.86" y="37.08" width="11.31" height="12.4"/><rect class="cls-13" x="45.86" y="37.08" width="11.31" height="4.35"/></g><g id="window-2" data-name="window"><rect class="cls-16" x="58.69" y="37.08" width="11.31" height="12.4"/><rect class="cls-13" x="58.69" y="37.08" width="11.31" height="4.35"/></g><g id="window-3" data-name="window"><rect class="cls-16" x="53.47" y="65.14" width="8.7" height="12.4"/><rect class="cls-13" x="53.47" y="65.14" width="8.7" height="4.35"/></g><g id="Door"><rect class="cls-17" x="79.79" y="62.53" width="10.87" height="20.23"/><rect class="cls-18" x="79.79" y="62.53" width="10.87" height="4.35"/><path class="cls-12" d="M88.49,71.45H82a3.26,3.26,0,1,1,6.52,0Z"/></g><rect class="cls-12" x="120.03" y="30.12" width="18.27" height="52.63"/><polygon class="cls-15" points="120.25 80.15 90.67 80.15 90.67 27.58 105.46 15.24 120.25 27.58 120.25 80.15"/><polygon class="cls-10" points="120.25 82.76 90.67 82.76 90.67 30.19 105.46 17.86 120.25 30.19 120.25 82.76"/><g id="window-4" data-name="window"><rect class="cls-16" x="93.28" y="37.08" width="11.31" height="12.4"/><rect class="cls-13" x="93.28" y="37.08" width="11.31" height="4.35"/></g><g id="window-5" data-name="window"><rect class="cls-16" x="106.11" y="37.08" width="11.31" height="12.4"/><rect class="cls-13" x="106.11" y="37.08" width="11.31" height="4.35"/></g><g id="window-6" data-name="window"><rect class="cls-16" x="101.11" y="65.14" width="8.7" height="12.4"/><rect class="cls-13" x="101.11" y="65.14" width="8.7" height="4.35"/></g><g id="Door-2" data-name="Door"><rect class="cls-17" x="127.21" y="62.53" width="10.87" height="20.23"/><rect class="cls-18" x="127.21" y="62.53" width="10.87" height="4.35"/><path class="cls-12" d="M136,71.45h-6.52a3.26,3.26,0,0,1,6.52,0Z"/></g><rect class="cls-12" x="167.44" y="30.12" width="18.27" height="52.63"/><polygon class="cls-15" points="167.66 80.15 138.08 80.15 138.08 27.58 152.87 15.24 167.66 27.58 167.66 80.15"/><polygon class="cls-10" points="167.66 82.76 138.08 82.76 138.08 30.19 152.87 17.86 167.66 30.19 167.66 82.76"/><g id="window-7" data-name="window"><rect class="cls-16" x="140.69" y="37.08" width="11.31" height="12.4"/><rect class="cls-13" x="140.69" y="37.08" width="11.31" height="4.35"/></g><g id="window-8" data-name="window"><rect class="cls-16" x="153.52" y="37.08" width="11.31" height="12.4"/><rect class="cls-13" x="153.52" y="37.08" width="11.31" height="4.35"/></g><g id="window-9" data-name="window"><rect class="cls-16" x="148.52" y="65.14" width="8.7" height="12.4"/><rect class="cls-13" x="148.52" y="65.14" width="8.7" height="4.35"/></g><g id="Door-3" data-name="Door"><rect class="cls-17" x="174.84" y="62.53" width="10.87" height="20.23"/><rect class="cls-18" x="174.84" y="62.53" width="10.87" height="4.35"/><path class="cls-12" d="M183.43,71.45H176.9a3.26,3.26,0,0,1,6.52,0Z"/></g><polygon class="cls-19" points="167.59 30.13 167.66 30.19 167.66 82.76 171.57 82.76 171.57 33.39 185.71 33.39 185.71 30.13 167.59 30.13"/><polygon class="cls-19" points="138.08 30.19 138.15 30.13 120.17 30.13 120.25 30.19 120.25 82.76 124.16 82.76 124.16 33.39 138.08 33.39 138.08 30.19"/><polygon class="cls-19" points="90.67 30.19 90.67 30.13 72.54 30.13 72.61 30.19 72.61 82.76 76.53 82.76 76.53 33.39 90.67 33.39 90.67 30.19"/><rect class="cls-15" x="185.71" y="30.12" width="39.67" height="52.63"/><g id="window-10" data-name="window"><rect class="cls-16" x="198.8" y="37.08" width="13.48" height="12.4"/><rect class="cls-13" x="198.8" y="37.08" width="13.48" height="4.35"/></g><g id="window-11" data-name="window"><rect class="cls-16" x="198.8" y="65.14" width="13.48" height="12.4"/><rect class="cls-13" x="198.8" y="65.14" width="13.48" height="4.35"/></g><rect class="cls-20" x="39.99" y="46.22" width="34.58" height="13.05"/><rect class="cls-21" x="39.99" y="49.26" width="34.58" height="1.96"/><rect class="cls-21" x="39.99" y="58.87" width="34.58" height="1.96"/><rect class="cls-21" x="39.99" y="54.27" width="34.58" height="1.96"/><rect class="cls-20" x="87.4" y="46.22" width="34.58" height="13.05"/><rect class="cls-21" x="87.4" y="49.26" width="34.58" height="1.96"/><rect class="cls-21" x="87.4" y="58.87" width="34.58" height="1.96"/><rect class="cls-21" x="87.4" y="54.27" width="34.58" height="1.96"/><rect class="cls-20" x="134.82" y="46.22" width="34.58" height="13.05"/><rect class="cls-21" x="134.82" y="49.26" width="34.58" height="1.96"/><rect class="cls-21" x="134.82" y="58.87" width="34.58" height="1.96"/><rect class="cls-21" x="134.82" y="54.27" width="34.58" height="1.96"/><polygon class="cls-4" points="112.24 82.76 109.6 82.76 110.92 80.11 112.24 82.76"/><polygon class="cls-4" points="114.89 82.76 112.24 82.76 113.57 80.11 114.89 82.76"/><polygon class="cls-4" points="117.53 82.76 114.89 82.76 116.21 80.11 117.53 82.76"/><polygon class="cls-14" points="87.21 15.24 57.82 15.24 72.52 27.5 87.21 15.24"/><polygon class="cls-14" points="134.84 15.24 105.45 15.24 120.15 27.5 134.84 15.24"/><polygon class="cls-14" points="182.23 15.24 152.84 15.24 167.53 27.5 182.23 15.24"/><path id="bush-3" data-name="bush" class="cls-22" d="M235.55,78.41a4.34,4.34,0,0,0-3.19,1.4,3.91,3.91,0,0,0-5.05-2,5.44,5.44,0,0,0-10.65.82,5.44,5.44,0,0,0-7.58,4.1H239.9A4.35,4.35,0,0,0,235.55,78.41Z"/></g></svg>