<svg id="Layer_1" data-name="Layer 1" xmlns="http://www.w3.org/2000/svg" xmlns:xlink="http://www.w3.org/1999/xlink" width="173.65" height="79.66" viewBox="0 0 173.65 79.66"><defs><style>.cls-1,.cls-10,.cls-11{fill:none;}.cls-2{clip-path:url(#clip-path);}.cls-3{fill:#afcc69;}.cls-4{fill:#85ba5d;}.cls-5{fill:#4d4d4d;}.cls-6{fill:#666;}.cls-7{fill:#ccc;}.cls-8{fill:#fff;}.cls-9{fill:#b3b3b3;}.cls-10{stroke:#666;}.cls-10,.cls-11{stroke-miterlimit:10;stroke-width:2.29px;}.cls-11{stroke:#4d4d4d;}.cls-12{fill:#465a8c;}.cls-13{fill:#312766;}</style><clipPath id="clip-path"><rect class="cls-1" x="401.09" y="260.62" width="886.67" height="430.57"/></clipPath></defs><title>info-4</title><g class="cls-2"><path class="cls-3" d="M1193.32,79.68h-3.92a88.5,88.5,0,0,0-62.58,25.92h0a88.5,88.5,0,0,0-25.92,62.58v65.74a83.8,83.8,0,0,1-24.54,59.26h0a83.8,83.8,0,0,1-59.26,24.54H973.36a82.36,82.36,0,0,0-58.24,24.12h0A82.36,82.36,0,0,0,891,400.08V465a54.18,54.18,0,0,1-15.87,38.31h0a54.18,54.18,0,0,1-38.31,15.87H817a54.18,54.18,0,0,1-38.31-15.87l-44.9-44.9a116.17,116.17,0,0,0-82.14-34H612a116.17,116.17,0,0,0-82.14,34h0a57.21,57.21,0,0,1-40.46,16.76h-5.5a57.21,57.21,0,0,1-40.46-16.76L431.25,446.2a57.21,57.21,0,0,1-16.76-40.46h0a57.21,57.21,0,0,1,16.76-40.46h0a49.62,49.62,0,0,0-1.06-71.19l-33.72-31.78A241.68,241.68,0,0,1,320.55,86.43h0A197.45,197.45,0,0,0,269.8-45.72h-290A89.59,89.59,0,0,1,1.62,12.89h0A89.59,89.59,0,0,1-24.62,76.24L-45.51,97.13a89.59,89.59,0,0,1-63.35,26.24h-25.73a91.21,91.21,0,0,1-64.49-26.71h0a91.21,91.21,0,0,0-64.49-26.71h-85.37a102.68,102.68,0,0,1-72.6-30.07l-4-4a102.68,102.68,0,0,0-72.6-30.07h0a102.68,102.68,0,0,1-72.6-30.07l-21.48-21.48h-426.86l64.13,64.13A68.58,68.58,0,0,1-937.81,47q.73,2.4,1.29,4.86.37,1.64.66,3.3a68.56,68.56,0,0,1,.94,8.39q.08,1.7.08,3.4h0v45.58h10.26a114.68,114.68,0,0,1,81.09,33.59l10.05,10.05a114.68,114.68,0,0,1,33.59,81.09h0a114.68,114.68,0,0,0,33.59,81.09l11.64,11.64A114.68,114.68,0,0,1-721,411v57.84a64.17,64.17,0,0,1-18.8,45.38l-8.27,8.27a64.17,64.17,0,0,0-18.8,45.38h0a64.17,64.17,0,0,0,18.8,45.38l5.28,5.28A64.17,64.17,0,0,1-724,663.94v77.27a74.88,74.88,0,0,0,21.93,53h0a74.88,74.88,0,0,1,21.93,53h0a242.18,242.18,0,0,1-70.93,171.25h0c-.29.29-.58.56-.88.84v2.73q0,.85,0,1.7,0,1.7.17,3.39a68.55,68.55,0,0,0,1.29,9q.35,1.68.79,3.34.24.9.5,1.79.18.63.38,1.26.6,1.9,1.3,3.76.47,1.24,1,2.47.34.8.7,1.59c.37.83.76,1.65,1.17,2.46.31.61.62,1.21.95,1.81q1.51,2.78,3.27,5.43,1.06,1.59,2.22,3.13.75,1,1.53,2,.94,1.17,1.94,2.3l.86,1q.93,1,1.9,2l.12.12,29.14,29.14,4.86,4.86,17,17a68.57,68.57,0,0,1,17.1,28.47l.08.28q.4,1.34.75,2.69t.64,2.72c.06.3.13.59.19.89q.49,2.47.81,5,.1.84.19,1.68.17,1.68.25,3.38t.08,3.4h0v115.28h0a221.79,221.79,0,0,1-3.4,40.15h102.71l-.52-73.5a76.2,76.2,0,0,1,22.32-54.42h0a76.2,76.2,0,0,0,22.32-53.88V1099.6A76.2,76.2,0,0,1-495,1045.72L-474.3,1025a76.2,76.2,0,0,1,53.88-22.32h36.2a87.23,87.23,0,0,1,61.68,25.55h0a87.23,87.23,0,0,0,61.68,25.55h7a87.23,87.23,0,0,1,61.68,25.55l7.88,7.88a87.23,87.23,0,0,0,61.68,25.55h43.27a69.47,69.47,0,0,0,49.12-20.35l4.3-4.3a69.47,69.47,0,0,1,49.12-20.35H37.86A69.47,69.47,0,0,0,87,1047.4h0A69.47,69.47,0,0,1,136.1,1027h22.34a52.17,52.17,0,0,1,36.89,15.28l42.41,42.41A52.17,52.17,0,0,1,253,1121.63v31a52.17,52.17,0,0,1-15.28,36.89h0a52.17,52.17,0,0,0-15.28,36.89h0A111.08,111.08,0,0,0,255,1305l20.36,20.36H618l-70.67-74.84a212,212,0,0,1-21.82-263.85h0a125.92,125.92,0,0,1,89-36.88h0a125.92,125.92,0,0,1,89,36.88l19.13,19.13a81.47,81.47,0,0,0,57.61,23.86h0a81.47,81.47,0,0,0,81.47-81.47v-47.9a110.89,110.89,0,0,1,32.48-78.41h0a110.89,110.89,0,0,1,78.41-32.48H995.3a110.89,110.89,0,0,1,78.41,32.48L1096.83,845A58.36,58.36,0,0,0,1138.1,862h0a58.36,58.36,0,0,1,41.27,17.09l17.18,17.18a58.36,58.36,0,0,0,41.27,17.09h59.88V826.27h-8a122.3,122.3,0,0,1-86.48-35.82h0a122.3,122.3,0,0,0-86.48-35.82h-49.91a79.47,79.47,0,0,1-56.19-23.28l-6.17-6.17q-2.38-2.38-4.52-4.93h-94l-.75,0-.37,0-.29,0a12.53,12.53,0,0,1-9.5-6.26h.14a12.93,12.93,0,0,1-1.77-6.51H991a79.46,79.46,0,0,1-9.9-38.4v-7.73a79.47,79.47,0,0,1,23.28-56.19h0a79.47,79.47,0,0,1,56.19-23.28h38.12A41.74,41.74,0,0,0,1140.48,540h0a41.74,41.74,0,0,1,12.23-29.52L1164,499.19A248.27,248.27,0,0,1,1297.69,430V147.39L1255.9,105.6A88.5,88.5,0,0,0,1193.32,79.68Zm-1336,458.18h260.2a12.22,12.22,0,0,1-12.21,12.27H-130.36a12.27,12.27,0,0,1-12.27-12.27ZM-394.43,329h195.94a12.47,12.47,0,0,1-1.63,6.19h0a12.57,12.57,0,0,1-1.4,2l0,0a12.59,12.59,0,0,1-1.72,1.65l-.06.05a12.56,12.56,0,0,1-1.3.89l-.05,0-.61.34-.13.07-.66.31h0l-.72.28-.14,0-.58.18-.19.05-.69.17h-.05l-.75.13-.21,0-.58.06-.22,0-.78,0H-381.9l-.78,0-.22,0-.58-.06-.21,0-.75-.13h-.05l-.69-.17-.19-.05-.58-.18-.14,0-.72-.28h0l-.66-.31-.13-.07-.61-.34-.05,0a12.56,12.56,0,0,1-1.3-.89l-.06-.05a12.59,12.59,0,0,1-1.72-1.65l0,0a12.57,12.57,0,0,1-1.4-2h0a12.47,12.47,0,0,1-1.63-6.19Zm-2.28,199.16h0a12.13,12.13,0,0,1-12.11,12.27H-580.21a12.18,12.18,0,0,1-12.16-12.27h195.66ZM-671.2,289.44a12.27,12.27,0,0,1-12.27-12.27H-477a12.27,12.27,0,0,1-12.27,12.27ZM121.28,906.63a85.35,85.35,0,0,1-25,60.35h0a85.35,85.35,0,0,1-60.35,25h-18a85.35,85.35,0,0,0-60.35,25l-8.45,8.45a85.59,85.59,0,0,1-60.52,25.07h0A85.59,85.59,0,0,1-172,1025.42l-1.26-1.26a85.59,85.59,0,0,0-60.52-25.07h-43.53a75.05,75.05,0,0,1-53.07-22h0a75.05,75.05,0,0,0-53.07-22h-25.75a75.05,75.05,0,0,0-53.07,22l-5.35,5.35a67.37,67.37,0,0,1-47.64,19.73h-12.09a67.37,67.37,0,0,1-47.64-19.73L-603.38,954a67.37,67.37,0,0,1-19.73-47.64h0a67.37,67.37,0,0,1,19.73-47.64h0a101.94,101.94,0,0,0,29.86-72q0-.55,0-1.1a59.2,59.2,0,0,0-17.41-42l-.44-.44a57.55,57.55,0,0,1-16.86-40.76l.05-48.67a59.15,59.15,0,0,1,17.33-41.76h0A164.17,164.17,0,0,1-474.76,564h54.39a105.11,105.11,0,0,1,63.06,21l67.08,50.31a98.8,98.8,0,0,0,59.28,19.76h43.46a98.8,98.8,0,0,0,69.87-28.94h0a98.8,98.8,0,0,1,69.87-28.94h21.52a112.36,112.36,0,0,1,79.45,32.91h0a112.36,112.36,0,0,1,32.91,79.45v37.75a60,60,0,0,0,17.58,42.43h0a60,60,0,0,1,17.58,42.43Zm103-428.1H-35.86a77.05,77.05,0,0,1-53.92-22l-27-26.42a77.05,77.05,0,0,1-23.13-55V311.13a77.05,77.05,0,0,1,22.57-54.49l35.69-35.69a77.05,77.05,0,0,1,54.49-22.57H-5.49A77.05,77.05,0,0,0,49,175.81l37.17-37.17a77.05,77.05,0,0,1,54.49-22.57h0a77.05,77.05,0,0,1,77.05,77.05v14.81a77.05,77.05,0,0,0,22.57,54.49l49.23,49.23a77.05,77.05,0,0,1,22.57,54.49v24.61a77.05,77.05,0,0,1-22.57,54.49L278.79,456A77.05,77.05,0,0,1,224.31,478.53ZM788.59,708.09a170,170,0,0,1-49.8,120.24L727,840.1a129.83,129.83,0,0,1-91.8,38h0a122.27,122.27,0,0,1-86.46-35.81h0a122.27,122.27,0,0,0-86.46-35.81H414.84a122.27,122.27,0,0,1-86.46-35.81l-41.93-41.93a50.28,50.28,0,0,1-14.73-35.56h0a50.29,50.29,0,0,1,22.5-41.91l48.61-32.23a90.92,90.92,0,0,1,97.63-1.82h0a90.92,90.92,0,0,0,93.08,1l93.12-54.14A97.26,97.26,0,0,1,678,551h0a97.26,97.26,0,0,1,83.06,50.91L776.85,631a97.26,97.26,0,0,1,11.74,46.32Zm318.69-268.56a12.42,12.42,0,0,1-12.42,12.42H922.21a12.42,12.42,0,0,1-12.42-12.42h197.5Z"/><path class="cls-4" d="M-570.72-24.24a102.68,102.68,0,0,0,72.6,30.07h0a102.68,102.68,0,0,1,72.6,30.07l4,4a102.68,102.68,0,0,0,72.6,30.07h85.37a91.21,91.21,0,0,1,64.49,26.71h0a91.21,91.21,0,0,0,64.49,26.71h25.73A89.59,89.59,0,0,0-45.51,97.13l20.89-20.89A89.59,89.59,0,0,0,1.62,12.89h0A89.59,89.59,0,0,0-20.22-45.72l-.44-.5h-572l.5.5Z"/><path class="cls-1" d="M-437.26,111.59a435.72,435.72,0,0,0,167.57,33.33h35a142.92,142.92,0,0,1,55,10.93A142.92,142.92,0,0,1-133.07,187a142.93,142.93,0,0,1,31.14,46.6,142.92,142.92,0,0,1,10.93,55v55.3q0,5.7-.45,11.35H130.42a83.37,83.37,0,0,0,59-24.42l29.3-29.3A93.95,93.95,0,0,1,285.1,274h20.33l-8.51-8.51a131.72,131.72,0,0,1-38.58-93.14V81.13A121.14,121.14,0,0,0,222.86-4.53L185-42.41l3.82-3.82h-831l62.89,62.89A435.71,435.71,0,0,0-437.26,111.59Z"/></g><polygon class="cls-5" points="145.88 27.63 135.47 27.63 117.7 37.88 117.72 37.89 163.63 37.89 163.65 37.88 145.88 27.63"/><polygon class="cls-6" points="135.53 27.63 27.8 27.63 10.03 37.88 10.05 37.89 117.7 37.88 135.53 27.63"/><polygon class="cls-7" points="163.65 69.65 117.7 69.65 117.7 37.89 163.61 37.86 163.65 69.65"/><rect class="cls-8" x="10" y="37.89" width="53.83" height="31.76"/><rect class="cls-8" x="64.81" y="37.89" width="53.83" height="31.76"/><g id="_60_degree_roof" data-name="60 degree roof"><polygon class="cls-6" points="33.11 24.63 10.14 37.89 117.7 37.89 140.71 24.67 140.64 24.63 33.11 24.63"/></g><polygon class="cls-5" points="140.64 24.63 140.75 24.63 117.7 37.89 117.7 41.09 163.64 41.07 163.61 37.86 140.64 24.63"/><g id="_60_degree_roof-2" data-name="60 degree roof"><polygon class="cls-7" points="140.79 27.83 117.7 41.09 117.7 69.65 163.65 69.65 163.64 41.07 140.79 27.83"/></g><polygon class="cls-7" points="117.7 41.09 126.89 41.06 126.89 44.26 117.7 44.26 117.7 41.09"/><rect class="cls-7" x="126.89" y="41.06" width="9.19" height="3.2"/><rect class="cls-7" x="136.08" y="41.06" width="9.19" height="3.2"/><rect class="cls-9" x="145.27" y="41.06" width="9.19" height="3.2"/><polygon class="cls-7" points="154.46 41.06 163.64 41.07 163.65 44.26 154.46 44.26 154.46 41.06"/><rect class="cls-9" x="131.51" y="37.86" width="9.19" height="3.2"/><rect class="cls-7" x="140.7" y="37.86" width="9.19" height="3.2"/><rect class="cls-7" x="117.7" y="47.46" width="9.19" height="3.2"/><rect class="cls-7" x="126.89" y="47.46" width="9.19" height="3.2"/><rect class="cls-7" x="136.08" y="47.46" width="9.19" height="3.2"/><rect class="cls-7" x="145.27" y="47.46" width="9.19" height="3.2"/><rect class="cls-7" x="154.46" y="47.46" width="9.19" height="3.2"/><rect class="cls-9" x="117.7" y="44.26" width="4.62" height="3.2"/><rect class="cls-7" x="122.32" y="44.26" width="9.19" height="3.2"/><rect class="cls-7" x="131.51" y="44.26" width="9.19" height="3.2"/><rect class="cls-9" x="140.7" y="44.26" width="9.19" height="3.2"/><rect class="cls-7" x="158.98" y="44.26" width="4.66" height="3.2"/><rect class="cls-9" x="149.89" y="44.26" width="9.19" height="3.2"/><rect class="cls-9" x="117.7" y="53.86" width="9.19" height="3.2"/><rect class="cls-7" x="126.89" y="53.86" width="9.19" height="3.2"/><rect class="cls-7" x="136.08" y="53.86" width="9.19" height="3.2"/><rect class="cls-7" x="145.27" y="53.86" width="9.19" height="3.2"/><rect class="cls-9" x="154.46" y="53.86" width="9.19" height="3.2"/><rect class="cls-7" x="117.7" y="50.66" width="4.62" height="3.2"/><rect class="cls-7" x="122.32" y="50.66" width="9.19" height="3.2"/><rect class="cls-7" x="131.51" y="50.66" width="9.19" height="3.2"/><rect class="cls-7" x="140.7" y="50.66" width="9.19" height="3.2"/><rect class="cls-7" x="158.98" y="50.66" width="4.66" height="3.2"/><rect class="cls-7" x="149.89" y="50.66" width="9.19" height="3.2"/><rect class="cls-9" x="117.7" y="60.26" width="9.19" height="3.2"/><rect class="cls-7" x="126.89" y="60.26" width="9.19" height="3.2"/><rect class="cls-7" x="136.08" y="60.26" width="9.19" height="3.2"/><rect class="cls-7" x="145.27" y="60.26" width="9.19" height="3.2"/><rect class="cls-7" x="154.46" y="60.26" width="9.19" height="3.2"/><rect class="cls-9" x="117.7" y="57.06" width="4.62" height="3.2"/><rect class="cls-7" x="113.13" y="57.06" width="4.62" height="3.2"/><rect class="cls-7" x="122.32" y="57.06" width="9.19" height="3.2"/><rect class="cls-7" x="131.51" y="57.06" width="9.19" height="3.2"/><rect class="cls-7" x="140.7" y="57.06" width="9.19" height="3.2"/><rect class="cls-7" x="158.98" y="57.06" width="4.66" height="3.2"/><rect class="cls-9" x="149.89" y="57.06" width="9.19" height="3.2"/><rect class="cls-7" x="117.7" y="66.44" width="9.19" height="3.21"/><rect class="cls-7" x="126.89" y="66.44" width="9.19" height="3.21"/><rect class="cls-9" x="136.08" y="66.44" width="9.19" height="3.21"/><rect class="cls-7" x="145.27" y="66.44" width="9.19" height="3.21"/><rect class="cls-7" x="154.46" y="66.44" width="9.19" height="3.21"/><rect class="cls-7" x="117.7" y="63.24" width="4.62" height="3.2"/><rect class="cls-7" x="122.32" y="63.24" width="9.19" height="3.2"/><rect class="cls-9" x="131.51" y="63.24" width="9.19" height="3.2"/><rect class="cls-7" x="140.7" y="63.24" width="9.19" height="3.2"/><rect class="cls-7" x="158.98" y="63.24" width="4.66" height="3.2"/><rect class="cls-7" x="149.89" y="63.24" width="9.19" height="3.2"/><rect class="cls-5" x="10.03" y="37.89" width="107.67" height="3.2"/><g id="aerial"><line class="cls-10" x1="129.82" y1="20.51" x2="129.82" y2="28.29"/><line class="cls-11" x1="140.56" y1="10" x2="140.56" y2="27.6"/><line class="cls-11" x1="135.76" y1="16.86" x2="145.59" y2="16.86"/><line class="cls-11" x1="135.76" y1="13.2" x2="145.59" y2="13.2"/></g><g id="Door"><rect class="cls-12" x="73.78" y="48.36" width="11.43" height="21.29"/><rect class="cls-13" x="73.78" y="48.36" width="11.43" height="4.57"/><rect class="cls-13" x="65.42" y="56.72" width="21.29" height="4.57" transform="translate(17.06 135.07) rotate(-90)"/></g><g id="window"><rect class="cls-12" x="94.35" y="46.76" width="15.32" height="13.03"/><rect class="cls-13" x="94.35" y="46.76" width="15.32" height="4.57"/></g><g id="Door-2" data-name="Door"><rect class="cls-12" x="43.43" y="48.36" width="11.43" height="21.29"/><rect class="cls-13" x="43.43" y="48.36" width="11.43" height="4.57"/><rect class="cls-13" x="35.08" y="56.72" width="21.29" height="4.57" transform="translate(-13.29 104.73) rotate(-90)"/></g><g id="window-2" data-name="window"><rect class="cls-12" x="18.97" y="46.76" width="15.32" height="13.03"/><rect class="cls-13" x="18.97" y="46.76" width="15.32" height="4.57"/></g><polygon class="cls-3" points="23.06 69.65 18.72 69.65 20.89 65.32 23.06 69.65"/><polygon class="cls-3" points="27.4 69.65 23.06 69.65 25.23 65.32 27.4 69.65"/><polygon class="cls-3" points="33.8 69.65 29.46 69.65 31.63 65.43 33.8 69.65"/><polygon class="cls-3" points="103.07 69.65 98.73 69.65 100.9 65.32 103.07 69.65"/><polygon class="cls-3" points="107.41 69.65 103.07 69.65 105.24 65.32 107.41 69.65"/><polygon class="cls-3" points="115.87 69.65 111.53 69.65 113.7 65.43 115.87 69.65"/><polygon class="cls-4" points="147.88 69.65 143.53 69.65 145.7 65.32 147.88 69.65"/><polygon class="cls-4" points="152.22 69.65 147.88 69.65 150.05 65.32 152.22 69.65"/><polygon class="cls-4" points="156.56 69.65 152.22 69.65 154.39 65.32 156.56 69.65"/><rect class="cls-7" x="10.03" y="41.05" width="107.67" height="2.51"/><rect class="cls-9" x="48.19" y="53.63" width="28.6" height="3.43" transform="translate(7.15 117.84) rotate(-90)"/><rect class="cls-7" x="51.28" y="53.98" width="28.6" height="2.74" transform="translate(10.23 120.93) rotate(-90)"/></svg>