<svg id="Layer_1" data-name="Layer 1" xmlns="http://www.w3.org/2000/svg" xmlns:xlink="http://www.w3.org/1999/xlink" width="184.85" height="80.31" viewBox="0 0 184.85 80.31"><defs><style>.cls-1,.cls-5{fill:none;}.cls-2{clip-path:url(#clip-path);}.cls-3{fill:#afcc69;}.cls-17,.cls-4{fill:#85ba5d;}.cls-5{stroke:#312766;stroke-width:2.14px;}.cls-17,.cls-5{stroke-miterlimit:10;}.cls-6{fill:#4e8e3b;}.cls-7{fill:#4d4d4d;}.cls-8{fill:#f29f53;}.cls-9{fill:#fff;}.cls-10{fill:#ad5d31;}.cls-11{fill:#844526;}.cls-12{fill:#465a8c;}.cls-13{fill:#312766;}.cls-14{fill:#b3b3b3;}.cls-15{fill:#ccc;}.cls-16{fill:#666;}.cls-17{stroke:#85ba5d;stroke-width:0.21px;}</style><clipPath id="clip-path"><rect class="cls-1" x="405.01" y="373.11" width="886.67" height="430.57"/></clipPath></defs><title>info-3</title><g class="cls-2"><path class="cls-1" d="M-16.3,66.77h290l-.45-.5h-290Z"/><path class="cls-3" d="M1197.24,192.17h-3.92a88.5,88.5,0,0,0-62.58,25.92h0a88.5,88.5,0,0,0-25.92,62.58v65.74a83.8,83.8,0,0,1-24.54,59.26h0A83.8,83.8,0,0,1,1021,430.21H977.28A82.36,82.36,0,0,0,919,454.33h0a82.36,82.36,0,0,0-24.12,58.24v64.9a54.18,54.18,0,0,1-15.87,38.31h0a54.18,54.18,0,0,1-38.31,15.87H820.88a54.18,54.18,0,0,1-38.31-15.87l-44.9-44.9a116.17,116.17,0,0,0-82.14-34H615.92a116.17,116.17,0,0,0-82.14,34h0a57.21,57.21,0,0,1-40.46,16.76h-5.5a57.21,57.21,0,0,1-40.46-16.76l-12.19-12.19a57.21,57.21,0,0,1-16.76-40.46h0a57.21,57.21,0,0,1,16.76-40.46h0a49.62,49.62,0,0,0-1.06-71.19L400.4,374.81a241.68,241.68,0,0,1-75.93-175.89h0A197.45,197.45,0,0,0,273.71,66.77h-290A89.59,89.59,0,0,1,5.54,125.38h0A89.59,89.59,0,0,1-20.7,188.73l-20.89,20.89a89.59,89.59,0,0,1-63.35,26.24h-25.73a91.21,91.21,0,0,1-64.49-26.71h0a91.21,91.21,0,0,0-64.49-26.71H-345a102.68,102.68,0,0,1-72.6-30.07l-4-4a102.68,102.68,0,0,0-72.6-30.07h0a102.68,102.68,0,0,1-72.6-30.07l-21.48-21.48h-426.86L-951,130.9a68.58,68.58,0,0,1,17.12,28.55q.73,2.4,1.29,4.86.37,1.64.66,3.3A68.56,68.56,0,0,1-931,176q.08,1.7.08,3.4h0V225h10.26a114.68,114.68,0,0,1,81.09,33.59l10.05,10.05a114.68,114.68,0,0,1,33.59,81.09h0a114.68,114.68,0,0,0,33.59,81.09l11.64,11.64a114.68,114.68,0,0,1,33.59,81.09v57.84a64.17,64.17,0,0,1-18.8,45.38l-8.27,8.27A64.17,64.17,0,0,0-763,680.39h0a64.17,64.17,0,0,0,18.8,45.38l5.28,5.28a64.17,64.17,0,0,1,18.8,45.38V853.7a74.88,74.88,0,0,0,21.93,53h0a74.88,74.88,0,0,1,21.93,53h0a242.18,242.18,0,0,1-70.93,171.25h0c-.29.29-.58.56-.88.84v2.73q0,.85,0,1.7,0,1.7.17,3.39a68.55,68.55,0,0,0,1.29,9q.35,1.68.79,3.34.24.9.5,1.79.18.63.38,1.26.6,1.9,1.3,3.76.47,1.24,1,2.47.34.8.7,1.59c.37.83.76,1.65,1.17,2.46.31.61.62,1.21.95,1.81q1.51,2.78,3.27,5.43,1.06,1.59,2.22,3.13.75,1,1.53,2,.94,1.17,1.94,2.3l.86,1q.93,1,1.9,2l.12.12,29.14,29.14,4.86,4.86,17,17a68.57,68.57,0,0,1,17.1,28.47l.08.28q.4,1.34.75,2.69t.64,2.72c.06.3.13.59.19.89q.49,2.47.81,5,.1.84.19,1.68.17,1.68.25,3.38t.08,3.4h0v115.28h0a221.79,221.79,0,0,1-3.4,40.15h102.71l-.52-73.5a76.2,76.2,0,0,1,22.32-54.42h0A76.2,76.2,0,0,0-513.45,1256v-43.94a76.2,76.2,0,0,1,22.32-53.88l20.75-20.75a76.2,76.2,0,0,1,53.88-22.32h36.2a87.23,87.23,0,0,1,61.68,25.55h0a87.23,87.23,0,0,0,61.68,25.55h7a87.23,87.23,0,0,1,61.68,25.55l7.88,7.88a87.23,87.23,0,0,0,61.68,25.55h43.27a69.47,69.47,0,0,0,49.12-20.35l4.3-4.3a69.47,69.47,0,0,1,49.12-20.35H41.78a69.47,69.47,0,0,0,49.12-20.35h0A69.47,69.47,0,0,1,140,1139.54h22.34a52.17,52.17,0,0,1,36.89,15.28l42.41,42.41a52.17,52.17,0,0,1,15.28,36.89v31A52.17,52.17,0,0,1,241.65,1302h0a52.17,52.17,0,0,0-15.28,36.89h0a111.08,111.08,0,0,0,32.54,78.55l20.36,20.36H621.93L551.26,1363a212,212,0,0,1-21.82-263.85h0a125.92,125.92,0,0,1,89-36.88h0a125.92,125.92,0,0,1,89,36.88l19.13,19.13a81.47,81.47,0,0,0,57.61,23.86h0a81.47,81.47,0,0,0,81.47-81.47v-47.9a110.89,110.89,0,0,1,32.48-78.41h0a110.89,110.89,0,0,1,78.41-32.48h22.61a110.89,110.89,0,0,1,78.41,32.48l23.11,23.11A58.36,58.36,0,0,0,1142,974.54h0a58.36,58.36,0,0,1,41.27,17.09l17.18,17.18a58.36,58.36,0,0,0,41.27,17.09h59.88V938.76h-8a122.3,122.3,0,0,1-86.48-35.82h0a122.3,122.3,0,0,0-86.48-35.82H1070.7a79.47,79.47,0,0,1-56.19-23.28l-6.17-6.17q-2.38-2.38-4.52-4.93h-94l-.75,0-.37,0-.29,0a12.53,12.53,0,0,1-9.5-6.26H899a12.93,12.93,0,0,1-1.77-6.51H995a79.46,79.46,0,0,1-9.9-38.4v-7.73a79.47,79.47,0,0,1,23.28-56.19h0a79.47,79.47,0,0,1,56.19-23.28h38.12a41.74,41.74,0,0,0,41.74-41.74h0A41.74,41.74,0,0,1,1156.62,623L1168,611.68a248.27,248.27,0,0,1,133.65-69.15V259.88l-41.79-41.79A88.5,88.5,0,0,0,1197.24,192.17Zm-1336,458.18h260.2a12.22,12.22,0,0,1-12.21,12.27H-126.44a12.27,12.27,0,0,1-12.27-12.27Zm-251.8-208.89h195.94a12.47,12.47,0,0,1-1.63,6.19h0a12.57,12.57,0,0,1-1.4,2l0,0a12.59,12.59,0,0,1-1.72,1.65l-.06.05a12.56,12.56,0,0,1-1.3.89l-.05,0-.61.34-.13.07-.66.31h0l-.72.28-.14,0-.58.18-.19.05-.69.17h-.05l-.75.13-.21,0-.58.06-.22,0-.78,0H-378l-.78,0-.22,0-.58-.06-.21,0-.75-.13h-.05l-.69-.17-.19-.05-.58-.18-.14,0-.72-.28h0l-.66-.31-.13-.07-.61-.34-.05,0a12.56,12.56,0,0,1-1.3-.89l-.06-.05a12.59,12.59,0,0,1-1.72-1.65l0,0a12.57,12.57,0,0,1-1.4-2h0a12.47,12.47,0,0,1-1.63-6.19Zm-2.28,199.16h0a12.13,12.13,0,0,1-12.11,12.27H-576.29a12.18,12.18,0,0,1-12.16-12.27h195.66ZM-667.28,401.93a12.27,12.27,0,0,1-12.27-12.27H-473a12.27,12.27,0,0,1-12.27,12.27ZM125.2,1019.12a85.35,85.35,0,0,1-25,60.35h0a85.35,85.35,0,0,1-60.35,25h-18a85.35,85.35,0,0,0-60.35,25l-8.45,8.45A85.59,85.59,0,0,1-107.52,1163h0A85.59,85.59,0,0,1-168,1137.92l-1.26-1.26a85.59,85.59,0,0,0-60.52-25.07h-43.53a75.05,75.05,0,0,1-53.07-22h0a75.05,75.05,0,0,0-53.07-22h-25.75a75.05,75.05,0,0,0-53.07,22l-5.35,5.35a67.37,67.37,0,0,1-47.64,19.73h-12.09A67.37,67.37,0,0,1-571,1095l-28.43-28.43a67.37,67.37,0,0,1-19.73-47.64h0a67.37,67.37,0,0,1,19.73-47.64h0a101.94,101.94,0,0,0,29.86-72q0-.55,0-1.1a59.2,59.2,0,0,0-17.41-42l-.44-.44A57.55,57.55,0,0,1-604.3,815l.05-48.67a59.15,59.15,0,0,1,17.33-41.76h0a164.17,164.17,0,0,1,116.09-48.08h54.39a105.11,105.11,0,0,1,63.06,21l67.08,50.31A98.8,98.8,0,0,0-227,767.59h43.46a98.8,98.8,0,0,0,69.87-28.94h0a98.8,98.8,0,0,1,69.87-28.94h21.52a112.36,112.36,0,0,1,79.45,32.91h0A112.36,112.36,0,0,1,90,822.07v37.75a60,60,0,0,0,17.58,42.43h0A60,60,0,0,1,125.2,944.7Zm103-428.1H-31.94a77.05,77.05,0,0,1-53.92-22l-27-26.42a77.05,77.05,0,0,1-23.13-55V423.62a77.05,77.05,0,0,1,22.57-54.49l35.69-35.69a77.05,77.05,0,0,1,54.49-22.57H-1.57A77.05,77.05,0,0,0,52.92,288.3l37.17-37.17a77.05,77.05,0,0,1,54.49-22.57h0a77.05,77.05,0,0,1,77.05,77.05v14.81a77.05,77.05,0,0,0,22.57,54.49l49.23,49.23A77.05,77.05,0,0,1,316,478.63v24.61a77.05,77.05,0,0,1-22.57,54.49l-10.72,10.72A77.05,77.05,0,0,1,228.22,591ZM792.51,820.58a170,170,0,0,1-49.8,120.24l-11.78,11.78a129.83,129.83,0,0,1-91.8,38h0a122.27,122.27,0,0,1-86.46-35.81h0A122.27,122.27,0,0,0,466.21,919H418.75a122.27,122.27,0,0,1-86.46-35.81l-41.93-41.93a50.28,50.28,0,0,1-14.73-35.56h0a50.29,50.29,0,0,1,22.5-41.91l48.61-32.23a90.92,90.92,0,0,1,97.63-1.82h0a90.92,90.92,0,0,0,93.08,1l93.12-54.14a97.26,97.26,0,0,1,51.34-13.15h0A97.26,97.26,0,0,1,765,714.35l15.78,29.14a97.26,97.26,0,0,1,11.74,46.32ZM1111.21,552a12.42,12.42,0,0,1-12.42,12.42H926.13A12.42,12.42,0,0,1,913.71,552h197.5Z"/><path class="cls-4" d="M-566.8,88.25a102.68,102.68,0,0,0,72.6,30.07h0a102.68,102.68,0,0,1,72.6,30.07l4,4A102.68,102.68,0,0,0-345,182.43h85.37a91.21,91.21,0,0,1,64.49,26.71h0a91.21,91.21,0,0,0,64.49,26.71h25.73a89.59,89.59,0,0,0,63.35-26.24l20.89-20.89A89.59,89.59,0,0,0,5.54,125.38h0A89.59,89.59,0,0,0-16.3,66.77l-.44-.5h-572l.5.5Z"/><path class="cls-1" d="M-433.34,224.08a435.72,435.72,0,0,0,167.57,33.33h35a142.92,142.92,0,0,1,55,10.93,142.92,142.92,0,0,1,46.6,31.14A142.93,142.93,0,0,1-98,346.08a142.92,142.92,0,0,1,10.93,55v55.3q0,5.7-.45,11.35H134.34a83.37,83.37,0,0,0,59-24.42l29.3-29.3A93.95,93.95,0,0,1,289,386.47h20.33L300.84,378a131.72,131.72,0,0,1-38.58-93.14v-91.2A121.14,121.14,0,0,0,226.78,108L188.9,70.08l3.82-3.82h-831l62.89,62.89A435.71,435.71,0,0,0-433.34,224.08Z"/></g><line class="cls-5" x1="22.57" y1="43.11" x2="22.57" y2="70.2"/><path class="cls-6" d="M31.16,31.94A9.73,9.73,0,0,0,28,19.38a6.25,6.25,0,1,0-10.86-.09A9.73,9.73,0,0,0,14,32a12.58,12.58,0,1,0,17.19,0Z"/><path id="bush" class="cls-6" d="M15.59,65.91a4.26,4.26,0,0,1,3.14,1.38,3.84,3.84,0,0,1,5-1.94,5.34,5.34,0,0,1,10.45.81,5.34,5.34,0,0,1,7.44,4H11.21A4.38,4.38,0,0,1,15.59,65.91Z"/><polygon class="cls-7" points="92.84 18.89 62.72 18.89 62.72 36.26 59.09 38.35 62.72 38.35 92.84 38.35 126.59 38.35 92.84 18.89"/><rect id="Front_wall" data-name="Front wall" class="cls-8" x="28.97" y="38.35" width="67.5" height="31.85"/><rect class="cls-9" x="28.97" y="63.56" width="67.5" height="6.64"/><g id="Side"><rect class="cls-10" x="96.47" y="38.35" width="30.12" height="31.85"/></g><g id="brick_wall" data-name="brick wall"><polygon class="cls-10" points="113.9 66.53 105.19 66.53 96.47 66.53 96.47 66.55 118.26 66.55 118.26 66.53 113.9 66.53"/><polygon class="cls-10" points="105.19 42.82 105.19 40.92 96.47 40.92 96.47 42.82 100.85 42.82 105.19 42.82"/><polygon class="cls-10" points="109.56 42.82 113.9 42.82 113.9 40.92 105.19 40.92 105.19 42.82 109.56 42.82"/><rect class="cls-10" x="113.9" y="40.92" width="4.36" height="1.9"/><polygon class="cls-10" points="105.19 48.8 105.19 45.81 100.85 45.81 96.47 45.81 96.47 48.8 100.85 48.8 105.19 48.8"/><polygon class="cls-10" points="113.9 48.8 113.9 45.81 109.56 45.81 105.19 45.81 105.19 48.8 109.56 48.8 113.9 48.8"/><rect class="cls-10" x="113.9" y="45.81" width="4.36" height="2.99"/><rect class="cls-11" x="96.47" y="42.82" width="4.38" height="2.99"/><polygon class="cls-10" points="109.56 42.82 105.19 42.82 100.85 42.82 100.85 45.81 105.19 45.81 109.56 45.81 109.56 42.82"/><polygon class="cls-10" points="109.56 42.82 109.56 45.81 113.9 45.81 118.26 45.81 118.26 42.82 113.9 42.82 109.56 42.82"/><polygon class="cls-10" points="105.19 54.78 105.19 51.79 100.85 51.79 96.47 51.79 96.47 54.78 100.85 54.78 105.19 54.78"/><polygon class="cls-10" points="113.9 54.78 113.9 51.79 109.56 51.79 105.19 51.79 105.19 54.78 109.56 54.78 113.9 54.78"/><rect class="cls-10" x="113.9" y="51.79" width="4.36" height="2.99"/><rect class="cls-10" x="96.47" y="54.78" width="4.38" height="2.99"/><rect class="cls-10" x="91.98" y="42.84" width="4.49" height="2.99"/><rect class="cls-10" x="91.98" y="60.57" width="4.49" height="2.99"/><polygon class="cls-10" points="109.56 48.8 105.19 48.8 100.85 48.8 100.85 51.79 105.19 51.79 109.56 51.79 109.56 48.8"/><polygon class="cls-10" points="109.56 48.8 109.56 51.79 113.9 51.79 118.26 51.79 118.26 48.8 113.9 48.8 109.56 48.8"/><polygon class="cls-11" points="105.19 60.55 105.19 57.77 100.85 57.77 96.47 57.77 96.47 60.55 100.85 60.55 105.19 60.55"/><polygon class="cls-10" points="113.9 60.55 113.9 57.77 109.56 57.77 105.19 57.77 105.19 60.55 109.56 60.55 113.9 60.55"/><rect class="cls-10" x="113.9" y="57.77" width="4.36" height="2.78"/><rect class="cls-11" x="96.47" y="54.78" width="4.38" height="2.99"/><polygon class="cls-10" points="109.56 54.78 105.19 54.78 100.85 54.78 100.85 57.77 105.19 57.77 109.56 57.77 109.56 54.78"/><polygon class="cls-10" points="109.56 54.78 109.56 57.77 113.9 57.77 118.26 57.77 118.26 54.78 113.9 54.78 109.56 54.78"/><polygon class="cls-10" points="105.19 63.53 100.85 63.53 96.47 63.53 96.47 66.53 105.19 66.53 105.19 63.53"/><polygon class="cls-10" points="109.56 63.53 105.19 63.53 105.19 66.53 113.9 66.53 113.9 63.53 109.56 63.53"/><rect class="cls-10" x="113.9" y="63.53" width="4.36" height="2.99"/><polygon class="cls-11" points="100.85 60.55 96.47 60.55 96.47 60.76 96.47 63.53 100.85 63.53 100.85 60.55"/><polygon class="cls-10" points="109.56 60.55 105.19 60.55 100.85 60.55 100.85 63.53 105.19 63.53 109.56 63.53 109.56 60.55"/><polygon class="cls-10" points="109.56 60.55 109.56 63.53 113.9 63.53 118.26 63.53 118.26 60.55 113.9 60.55 109.56 60.55"/></g><g id="Door"><rect class="cls-12" x="59.09" y="43.69" width="10.68" height="19.86"/><rect class="cls-13" x="59.14" y="43.75" width="10.68" height="4.25"/><rect class="cls-13" x="49.16" y="53.63" width="24.14" height="4.27" transform="translate(5.46 116.99) rotate(-90)"/></g><g id="stairs"><rect class="cls-14" x="65.58" y="63.56" width="4.26" height="6.64"/><rect class="cls-15" x="56.49" y="63.56" width="11.12" height="3.33"/><rect class="cls-14" x="54.46" y="66.89" width="11.12" height="3.31"/><rect class="cls-15" x="54.46" y="68.03" width="11.12" height="2.17"/></g><g id="window"><rect class="cls-12" x="38.37" y="45.62" width="8.54" height="12.17"/><rect class="cls-13" x="38.37" y="45.62" width="8.54" height="4.27"/></g><g id="window-2" data-name="window"><rect class="cls-12" x="80.84" y="45.63" width="8.61" height="12.2"/><rect class="cls-13" x="80.88" y="45.62" width="8.54" height="4.27"/></g><rect class="cls-15" x="96.47" y="63.56" width="30.12" height="6.64"/><polygon class="cls-16" points="28.98 38.35 96.47 38.35 62.72 18.89 28.98 38.35"/><rect class="cls-9" x="28.97" y="38.35" width="67.5" height="2.78"/><rect class="cls-15" x="96.47" y="38.35" width="30.12" height="2.78"/><g id="Garage"><polygon class="cls-15" points="147.36 34.96 125.57 34.96 125.52 44.55 130.87 44.55 147.31 44.55 163.95 44.55 163.97 44.54 147.36 34.96"/><rect id="Front_wall-2" data-name="Front wall" class="cls-8" x="109.07" y="44.55" width="33.11" height="25.65"/><g id="Side-2" data-name="Side"><rect class="cls-10" x="142.18" y="44.55" width="21.79" height="25.65"/></g><g id="brick_wall-2" data-name="brick wall"><polygon class="cls-10" points="150.89 46.45 150.89 44.55 142.18 44.55 142.18 46.45 146.56 46.45 150.89 46.45"/><polygon class="cls-10" points="155.27 46.45 159.61 46.45 159.61 44.55 150.89 44.55 150.89 46.45 155.27 46.45"/><rect class="cls-10" x="159.61" y="44.55" width="4.36" height="1.9"/><polygon class="cls-10" points="150.89 52.43 150.89 49.44 146.56 49.44 142.18 49.44 142.18 52.43 146.56 52.43 150.89 52.43"/><polygon class="cls-10" points="159.61 52.43 159.61 49.44 155.27 49.44 150.89 49.44 150.89 52.43 155.27 52.43 159.61 52.43"/><rect class="cls-11" x="159.61" y="49.44" width="4.36" height="2.99"/><rect class="cls-10" x="142.18" y="46.45" width="4.38" height="2.99"/><polygon class="cls-10" points="155.27 46.45 150.89 46.45 146.56 46.45 146.56 49.44 150.89 49.44 155.27 49.44 155.27 46.45"/><polygon class="cls-11" points="155.27 46.45 155.27 49.44 159.61 49.44 163.97 49.44 163.97 46.45 159.61 46.45 155.27 46.45"/><polygon class="cls-11" points="150.89 58.41 150.89 55.42 146.56 55.42 142.18 55.42 142.18 58.41 146.56 58.41 150.89 58.41"/><polygon class="cls-10" points="159.61 58.41 159.61 55.42 155.27 55.42 150.89 55.42 150.89 58.41 155.27 58.41 159.61 58.41"/><rect class="cls-10" x="159.61" y="55.42" width="4.36" height="2.99"/><rect class="cls-11" x="142.18" y="58.41" width="4.38" height="2.99"/><rect class="cls-10" x="137.69" y="58.43" width="4.49" height="2.99"/><polygon class="cls-10" points="155.27 52.43 150.89 52.43 146.56 52.43 146.56 55.42 150.89 55.42 155.27 55.42 155.27 52.43"/><polygon class="cls-10" points="155.27 52.43 155.27 55.42 159.61 55.42 163.97 55.42 163.97 52.43 159.61 52.43 155.27 52.43"/><polygon class="cls-10" points="150.89 64.18 150.89 61.4 146.56 61.4 142.18 61.4 142.18 64.18 146.56 64.18 150.89 64.18"/><polygon class="cls-10" points="159.61 64.18 159.61 61.4 155.27 61.4 150.89 61.4 150.89 64.18 155.27 64.18 159.61 64.18"/><rect class="cls-11" x="159.61" y="61.4" width="4.36" height="2.78"/><rect class="cls-11" x="142.18" y="58.41" width="4.38" height="2.99"/><polygon class="cls-10" points="155.27 58.41 150.89 58.41 146.56 58.41 146.56 61.4 150.89 61.4 155.27 61.4 155.27 58.41"/><polygon class="cls-10" points="155.27 58.41 155.27 61.4 159.61 61.4 163.97 61.4 163.97 58.41 159.61 58.41 155.27 58.41"/><polygon class="cls-10" points="150.89 67.17 146.56 67.17 142.18 67.17 142.18 70.2 150.89 70.2 150.89 67.17"/><polygon class="cls-10" points="155.27 67.17 150.89 67.17 150.89 70.2 159.61 70.2 159.61 67.17 155.27 67.17"/><rect class="cls-10" x="159.61" y="67.17" width="4.36" height="3.04"/><polygon class="cls-10" points="146.56 64.18 142.18 64.18 142.18 64.39 142.18 67.17 146.56 67.17 146.56 64.18"/><polygon class="cls-10" points="155.27 64.18 150.89 64.18 146.56 64.18 146.56 67.17 150.89 67.17 155.27 67.17 155.27 64.18"/><polygon class="cls-11" points="155.27 64.18 155.27 67.17 159.61 67.17 163.97 67.17 163.97 64.18 159.61 64.18 155.27 64.18"/></g><g id="garage_door" data-name="garage door"><rect class="cls-12" x="114.84" y="50.32" width="21.36" height="19.89"/><rect class="cls-13" x="114.84" y="50.32" width="21.36" height="4.27"/><rect class="cls-13" x="107.03" y="58.12" width="19.89" height="4.27" transform="translate(56.72 177.23) rotate(-90)"/></g><polygon class="cls-9" points="125.57 34.96 109.07 44.54 109.09 44.55 142.16 44.55 142.18 44.54 125.57 34.96"/><g id="garage_door_8_rows" data-name="garage door 8 rows"><rect class="cls-13" x="114.84" y="50.32" width="21.36" height="2.48"/><rect class="cls-12" x="114.84" y="52.8" width="21.36" height="2.48"/><rect class="cls-13" x="114.84" y="55.28" width="21.36" height="2.48"/><rect class="cls-12" x="114.84" y="57.77" width="21.36" height="2.48"/><rect class="cls-13" x="114.84" y="60.25" width="21.36" height="2.48"/><rect class="cls-12" x="114.84" y="62.73" width="21.36" height="2.48"/><rect class="cls-13" x="114.84" y="65.21" width="21.36" height="2.48"/><rect class="cls-12" x="114.84" y="67.7" width="21.36" height="2.5"/><rect class="cls-13" x="114.84" y="50.32" width="2.56" height="19.89"/></g></g><path id="bush-2" data-name="bush" class="cls-6" d="M163.32,63.56A4.7,4.7,0,0,0,158.79,67a4.69,4.69,0,0,0-6.66,3.17h22.72A4.48,4.48,0,0,0,170.59,67a4.68,4.68,0,0,0-2.59.78A4.7,4.7,0,0,0,163.32,63.56Z"/><polygon class="cls-17" points="83.87 70.2 79.81 70.2 81.84 66.12 83.87 70.2"/><polygon class="cls-17" points="87.93 70.2 83.87 70.2 85.9 66.12 87.93 70.2"/><polygon class="cls-17" points="91.98 70.2 87.93 70.2 89.96 66.12 91.98 70.2"/><polygon class="cls-17" points="26.63 70.2 22.57 70.2 24.6 66.23 26.63 70.2"/><polygon class="cls-17" points="33.46 70.2 29.4 70.2 31.43 66.23 33.46 70.2"/><polygon class="cls-17" points="37.52 70.2 33.46 70.2 35.49 66.23 37.52 70.2"/></svg>