<svg id="Layer_1" data-name="Layer 1" xmlns="http://www.w3.org/2000/svg" width="70" height="70" viewBox="0 0 70 70"><defs><style>.cls-1{fill:#cfd2da;}</style></defs><title>map-grid</title><rect class="cls-1" x="68.99" width="1.01" height="2.01"/><path class="cls-1" d="M70,64.1H69V60.22h1Zm0-7.76H69V52.46h1Zm0-7.76H69V44.7h1Zm0-7.76H69V36.94h1Zm0-7.76H69V29.18h1Zm0-7.76H69V21.42h1Zm0-7.76H69V13.66h1Zm0-7.76H69V5.9h1Z"/><rect class="cls-1" x="68.99" y="67.99" width="1.01" height="2.01"/><rect class="cls-1" y="68.99" width="2.02" height="1.01"/><path class="cls-1" d="M64.1,70H60.22V69H64.1Zm-7.76,0H52.46V69h3.88Zm-7.76,0H44.7V69h3.88Zm-7.76,0H36.94V69h3.88Zm-7.76,0H29.18V69h3.88ZM25.3,70H21.42V69H25.3Zm-7.76,0H13.66V69h3.88ZM9.78,70H5.9V69H9.78Z"/><rect class="cls-1" x="67.99" y="68.99" width="2.01" height="1.01"/></svg>