<svg id="Layer_1" data-name="Layer 1" xmlns="http://www.w3.org/2000/svg" width="100" height="100" viewBox="0 0 100 100"><defs><style>.cls-1{fill:#ecedf0;}.cls-2{fill:#85ba5d;}.cls-3{fill:none;stroke:#0e0c2b;stroke-miterlimit:10;stroke-width:1.11px;}.cls-4{fill:#f29f53;}.cls-5{fill:#465a8c;}.cls-6{fill:#312766;}.cls-7{fill:#ad5d31;}.cls-8{fill:#fff;}.cls-9{fill:#844526;}.cls-10{fill:#b3b3b3;}.cls-11{fill:#4e8e3b;}</style></defs><title>nav-2</title><circle class="cls-1" cx="50" cy="50" r="50"/><path class="cls-2" d="M87.63,70.72a2.26,2.26,0,0,0-1,.25,2.27,2.27,0,0,0-3.88-.68,2.27,2.27,0,0,0-2.82-1.76,2.27,2.27,0,0,0-4.5.37v0a2.27,2.27,0,0,0-3.6,1.15A2.27,2.27,0,0,0,68,71.37a2.27,2.27,0,0,0-3.28,2.41h25a2.27,2.27,0,0,0-2.12-3.06Z"/><path class="cls-2" d="M32.69,70.72a2.26,2.26,0,0,0-1,.25,2.27,2.27,0,0,0-3.88-.68,2.27,2.27,0,0,0-2.82-1.76,2.27,2.27,0,0,0-4.5.37v0a2.27,2.27,0,0,0-3.6,1.15A2.27,2.27,0,0,0,13,71.37a2.27,2.27,0,0,0-3.28,2.41h25a2.27,2.27,0,0,0-2.12-3.06Z"/><g id="aerial"><line class="cls-3" x1="29.33" y1="21.72" x2="29.33" y2="28.38"/><line class="cls-3" x1="69.84" y1="18.95" x2="69.84" y2="28.05"/><line class="cls-3" x1="67.51" y1="22.28" x2="72.28" y2="22.28"/><line class="cls-3" x1="67.51" y1="20.5" x2="72.28" y2="20.5"/><line class="cls-3" x1="25.78" y1="23.27" x2="25.78" y2="28.38"/></g><rect id="Front_wall" data-name="Front wall" class="cls-4" x="19.45" y="27.05" width="42.51" height="46.73"/><g id="Door"><rect class="cls-5" x="23.56" y="63.45" width="5.55" height="10.32"/><rect class="cls-6" x="23.56" y="63.45" width="5.55" height="2.22"/><rect class="cls-6" x="19.5" y="67.51" width="10.32" height="2.22" transform="translate(-43.95 93.28) rotate(-90)"/></g><g id="window"><rect class="cls-5" x="24.09" y="53.39" width="4.48" height="6.34"/><rect class="cls-6" x="24.11" y="53.38" width="4.44" height="2.22"/></g><g id="window-2" data-name="window"><rect class="cls-5" x="24.09" y="42.78" width="4.48" height="6.34"/><rect class="cls-6" x="24.11" y="42.77" width="4.44" height="2.22"/></g><g id="window-3" data-name="window"><rect class="cls-5" x="24.09" y="32.16" width="4.48" height="6.34"/><rect class="cls-6" x="24.11" y="32.15" width="4.44" height="2.22"/></g><g id="Door-2" data-name="Door"><rect class="cls-5" x="37.98" y="63.45" width="5.55" height="10.32"/><rect class="cls-6" x="37.98" y="63.45" width="5.55" height="2.22"/><rect class="cls-6" x="33.93" y="67.51" width="10.32" height="2.22" transform="translate(-29.52 107.71) rotate(-90)"/></g><g id="window-4" data-name="window"><rect class="cls-5" x="38.52" y="53.39" width="4.48" height="6.34"/><rect class="cls-6" x="38.54" y="53.38" width="4.44" height="2.22"/></g><g id="window-5" data-name="window"><rect class="cls-5" x="38.52" y="42.78" width="4.48" height="6.34"/><rect class="cls-6" x="38.54" y="42.77" width="4.44" height="2.22"/></g><g id="window-6" data-name="window"><rect class="cls-5" x="38.52" y="32.16" width="4.48" height="6.34"/><rect class="cls-6" x="38.54" y="32.15" width="4.44" height="2.22"/></g><g id="Door-3" data-name="Door"><rect class="cls-5" x="52.75" y="63.45" width="5.55" height="10.32"/><rect class="cls-6" x="52.75" y="63.45" width="5.55" height="2.22"/><rect class="cls-6" x="48.7" y="67.51" width="10.32" height="2.22" transform="translate(-14.76 122.47) rotate(-90)"/></g><g id="window-7" data-name="window"><rect class="cls-5" x="53.28" y="53.39" width="4.48" height="6.34"/><rect class="cls-6" x="53.31" y="53.38" width="4.44" height="2.22"/></g><g id="window-8" data-name="window"><rect class="cls-5" x="53.28" y="42.78" width="4.48" height="6.34"/><rect class="cls-6" x="53.31" y="42.77" width="4.44" height="2.22"/></g><g id="window-9" data-name="window"><rect class="cls-5" x="53.28" y="32.16" width="4.48" height="6.34"/><rect class="cls-6" x="53.31" y="32.15" width="4.44" height="2.22"/></g><rect class="cls-7" x="10.57" y="50" width="46.17" height="1.33" transform="translate(-17.01 84.33) rotate(-90)"/><rect class="cls-7" x="25" y="50" width="46.17" height="1.33" transform="translate(-2.58 98.76) rotate(-90)"/><g id="Shadow"><rect class="cls-7" x="19.45" y="27.05" width="42.51" height="2.66"/></g><rect class="cls-8" x="19.45" y="25.38" width="42.51" height="2.64"/><rect class="cls-7" x="61.96" y="27.05" width="15.65" height="46.73"/><polygon class="cls-7" points="75.48 73.76 70.97 73.76 66.47 73.76 61.96 73.76 61.96 73.78 77.61 73.78 77.61 73.76 75.48 73.76"/><polygon class="cls-9" points="66.47 61.44 66.47 59.89 61.96 59.9 61.96 61.44 64.23 61.44 66.47 61.44"/><polygon class="cls-7" points="70.97 61.44 70.97 59.89 68.73 59.89 66.47 59.89 66.47 61.44 68.73 61.44 70.97 61.44"/><polygon class="cls-7" points="70.97 61.44 73.24 61.44 75.48 61.44 75.48 59.89 73.24 59.89 70.97 59.89 70.97 61.44"/><rect class="cls-7" x="75.48" y="59.89" width="2.13" height="1.55"/><polygon class="cls-7" points="73.24 59.89 73.24 58.34 68.73 58.34 68.73 59.89 70.97 59.89 73.24 59.89"/><polygon class="cls-7" points="73.24 59.89 75.48 59.89 77.61 59.89 77.61 58.34 73.24 58.34 73.24 59.89"/><polygon class="cls-7" points="66.47 64.55 66.47 63 64.23 63 61.96 63 61.96 64.55 64.23 64.55 66.47 64.55"/><polygon class="cls-7" points="70.97 64.55 70.97 63 68.73 63 66.47 63 66.47 64.55 68.73 64.55 70.97 64.55"/><polygon class="cls-7" points="70.97 64.55 73.24 64.55 75.48 64.55 75.48 63 73.24 63 70.97 63 70.97 64.55"/><rect class="cls-9" x="75.48" y="63" width="2.13" height="1.55"/><rect class="cls-7" x="61.96" y="61.44" width="2.26" height="1.55"/><polygon class="cls-9" points="68.73 61.44 66.47 61.44 64.23 61.44 64.23 63 66.47 63 68.73 63 68.73 61.44"/><rect class="cls-7" x="61.96" y="58.34" width="2.26" height="1.55"/><polygon class="cls-7" points="68.73 58.34 66.47 58.34 64.23 58.34 64.23 59.89 66.47 59.89 68.73 59.89 68.73 58.34"/><polygon class="cls-7" points="68.73 61.44 68.73 63 70.97 63 73.24 63 73.24 61.44 70.97 61.44 68.73 61.44"/><polygon class="cls-7" points="73.24 61.44 73.24 63 75.48 63 77.61 63 77.61 61.44 75.48 61.44 73.24 61.44"/><polygon class="cls-7" points="66.47 67.66 66.47 66.11 64.23 66.11 61.96 66.11 61.96 67.66 64.23 67.66 66.47 67.66"/><polygon class="cls-7" points="70.97 67.66 70.97 66.11 68.73 66.11 66.47 66.11 66.47 67.66 68.73 67.66 70.97 67.66"/><polygon class="cls-7" points="70.97 67.66 73.24 67.66 75.48 67.66 75.48 66.11 73.24 66.11 70.97 66.11 70.97 67.66"/><rect class="cls-9" x="75.48" y="66.11" width="2.13" height="1.55"/><rect class="cls-7" x="61.96" y="64.55" width="2.26" height="1.55"/><polygon class="cls-7" points="68.73 64.55 66.47 64.55 64.23 64.55 64.23 66.11 66.47 66.11 68.73 66.11 68.73 64.55"/><polygon class="cls-7" points="68.73 64.55 68.73 66.11 70.97 66.11 73.24 66.11 73.24 64.55 70.97 64.55 68.73 64.55"/><polygon class="cls-9" points="73.24 64.55 73.24 66.11 75.48 66.11 77.61 66.11 77.61 64.55 75.48 64.55 73.24 64.55"/><polygon class="cls-7" points="66.47 70.66 66.47 69.21 64.23 69.21 61.96 69.21 61.96 70.66 64.23 70.66 66.47 70.66"/><polygon class="cls-7" points="70.97 70.66 70.97 69.21 68.73 69.21 66.47 69.21 66.47 70.66 68.73 70.66 70.97 70.66"/><polygon class="cls-7" points="70.97 70.66 73.24 70.66 75.48 70.66 75.48 69.21 73.24 69.21 70.97 69.21 70.97 70.66"/><rect class="cls-7" x="75.48" y="69.21" width="2.13" height="1.44"/><rect class="cls-7" x="61.96" y="67.66" width="2.26" height="1.55"/><polygon class="cls-7" points="68.73 67.66 66.47 67.66 64.23 67.66 64.23 69.21 66.47 69.21 68.73 69.21 68.73 67.66"/><polygon class="cls-7" points="68.73 67.66 68.73 69.21 70.97 69.21 73.24 69.21 73.24 67.66 70.97 67.66 68.73 67.66"/><polygon class="cls-7" points="73.24 67.66 73.24 69.21 75.48 69.21 77.61 69.21 77.61 67.66 75.48 67.66 73.24 67.66"/><polygon class="cls-9" points="66.47 72.21 64.23 72.21 61.96 72.21 61.96 73.76 66.47 73.76 66.47 72.21"/><polygon class="cls-7" points="68.73 72.21 66.47 72.21 66.47 73.76 70.97 73.76 70.97 72.21 68.73 72.21"/><polygon class="cls-7" points="73.24 72.21 70.97 72.21 70.97 73.76 75.48 73.76 75.48 72.21 73.24 72.21"/><rect class="cls-7" x="75.48" y="72.21" width="2.13" height="1.55"/><polygon class="cls-9" points="64.23 70.66 61.96 70.66 61.96 70.77 61.96 72.21 64.23 72.21 64.23 70.66"/><polygon class="cls-7" points="61.96 72.22 59.74 72.22 59.74 72.33 59.74 73.78 61.96 73.78 61.96 72.22"/><polygon class="cls-7" points="68.73 70.66 66.47 70.66 64.23 70.66 64.23 72.21 66.47 72.21 68.73 72.21 68.73 70.66"/><polygon class="cls-7" points="68.73 70.66 68.73 72.21 70.97 72.21 73.24 72.21 73.24 70.66 70.97 70.66 68.73 70.66"/><polygon class="cls-7" points="73.24 70.66 73.24 72.21 75.48 72.21 77.61 72.21 77.61 70.66 75.48 70.66 73.24 70.66"/><polygon class="cls-7" points="75.48 58.34 70.97 58.34 66.47 58.34 61.96 58.34 61.96 58.35 77.61 58.35 77.61 58.34 75.48 58.34"/><polygon class="cls-7" points="66.47 46.02 66.47 44.46 61.96 44.47 61.96 46.02 64.23 46.02 66.47 46.02"/><polygon class="cls-7" points="70.97 46.02 70.97 44.46 68.73 44.46 66.47 44.46 66.47 46.02 68.73 46.02 70.97 46.02"/><polygon class="cls-7" points="70.97 46.02 73.24 46.02 75.48 46.02 75.48 44.46 73.24 44.46 70.97 44.46 70.97 46.02"/><rect class="cls-7" x="75.48" y="44.46" width="2.13" height="1.55"/><polygon class="cls-7" points="73.24 44.46 73.24 42.91 68.73 42.91 68.73 44.46 70.97 44.46 73.24 44.46"/><polygon class="cls-7" points="73.24 44.46 75.48 44.46 77.61 44.46 77.61 42.91 73.24 42.91 73.24 44.46"/><polygon class="cls-7" points="66.47 49.12 66.47 47.57 64.23 47.57 61.96 47.57 61.96 49.12 64.23 49.12 66.47 49.12"/><polygon class="cls-7" points="70.97 49.12 70.97 47.57 68.73 47.57 66.47 47.57 66.47 49.12 68.73 49.12 70.97 49.12"/><polygon class="cls-7" points="70.97 49.12 73.24 49.12 75.48 49.12 75.48 47.57 73.24 47.57 70.97 47.57 70.97 49.12"/><rect class="cls-7" x="75.48" y="47.57" width="2.13" height="1.55"/><rect class="cls-7" x="61.96" y="46.02" width="2.26" height="1.55"/><polygon class="cls-7" points="68.73 46.02 66.47 46.02 64.23 46.02 64.23 47.57 66.47 47.57 68.73 47.57 68.73 46.02"/><rect class="cls-9" x="61.96" y="42.91" width="2.26" height="1.55"/><polygon class="cls-7" points="68.73 42.91 66.47 42.91 64.23 42.91 64.23 44.46 66.47 44.46 68.73 44.46 68.73 42.91"/><polygon class="cls-7" points="68.73 46.02 68.73 47.57 70.97 47.57 73.24 47.57 73.24 46.02 70.97 46.02 68.73 46.02"/><polygon class="cls-7" points="73.24 46.02 73.24 47.57 75.48 47.57 77.61 47.57 77.61 46.02 75.48 46.02 73.24 46.02"/><polygon class="cls-7" points="66.47 52.23 66.47 50.68 64.23 50.68 61.96 50.68 61.96 52.23 64.23 52.23 66.47 52.23"/><polygon class="cls-7" points="70.97 52.23 70.97 50.68 68.73 50.68 66.47 50.68 66.47 52.23 68.73 52.23 70.97 52.23"/><polygon class="cls-9" points="70.97 52.23 73.24 52.23 75.48 52.23 75.48 50.68 73.24 50.68 70.97 50.68 70.97 52.23"/><rect class="cls-7" x="75.48" y="50.68" width="2.13" height="1.55"/><rect class="cls-7" x="61.96" y="49.12" width="2.26" height="1.55"/><polygon class="cls-7" points="68.73 49.12 66.47 49.12 64.23 49.12 64.23 50.68 66.47 50.68 68.73 50.68 68.73 49.12"/><polygon class="cls-9" points="68.73 49.12 68.73 50.68 70.97 50.68 73.24 50.68 73.24 49.12 70.97 49.12 68.73 49.12"/><polygon class="cls-7" points="73.24 49.12 73.24 50.68 75.48 50.68 77.61 50.68 77.61 49.12 75.48 49.12 73.24 49.12"/><polygon class="cls-7" points="66.47 55.23 66.47 53.78 64.23 53.78 61.96 53.78 61.96 55.23 64.23 55.23 66.47 55.23"/><polygon class="cls-7" points="70.97 55.23 70.97 53.78 68.73 53.78 66.47 53.78 66.47 55.23 68.73 55.23 70.97 55.23"/><polygon class="cls-7" points="70.97 55.23 73.24 55.23 75.48 55.23 75.48 53.78 73.24 53.78 70.97 53.78 70.97 55.23"/><rect class="cls-7" x="75.48" y="53.79" width="2.13" height="1.44"/><rect class="cls-7" x="61.96" y="52.23" width="2.26" height="1.55"/><polygon class="cls-7" points="68.73 52.23 66.47 52.23 64.23 52.23 64.23 53.78 66.47 53.78 68.73 53.78 68.73 52.23"/><polygon class="cls-9" points="68.73 52.23 68.73 53.78 70.97 53.78 73.24 53.78 73.24 52.23 70.97 52.23 68.73 52.23"/><polygon class="cls-7" points="73.24 52.23 73.24 53.78 75.48 53.78 77.61 53.78 77.61 52.23 75.48 52.23 73.24 52.23"/><polygon class="cls-7" points="66.47 56.78 64.23 56.78 61.96 56.78 61.96 58.34 66.47 58.34 66.47 56.78"/><polygon class="cls-7" points="68.73 56.78 66.47 56.78 66.47 58.34 70.97 58.34 70.97 56.78 68.73 56.78"/><polygon class="cls-7" points="73.24 56.78 70.97 56.78 70.97 58.34 75.48 58.34 75.48 56.78 73.24 56.78"/><rect class="cls-7" x="75.48" y="56.78" width="2.13" height="1.55"/><polygon class="cls-7" points="64.23 55.23 61.96 55.23 61.96 55.34 61.96 56.78 64.23 56.78 64.23 55.23"/><polygon class="cls-7" points="68.73 55.23 66.47 55.23 64.23 55.23 64.23 56.78 66.47 56.78 68.73 56.78 68.73 55.23"/><polygon class="cls-7" points="68.73 55.23 68.73 56.78 70.97 56.78 73.24 56.78 73.24 55.23 70.97 55.23 68.73 55.23"/><polygon class="cls-7" points="73.24 55.23 73.24 56.78 75.48 56.78 77.61 56.78 77.61 55.23 75.48 55.23 73.24 55.23"/><rect class="cls-7" x="59.74" y="32.15" width="2.22" height="1.55"/><polygon class="cls-7" points="66.47 30.59 66.47 29.03 61.96 29.05 61.96 30.59 64.23 30.59 66.47 30.59"/><polygon class="cls-7" points="70.97 30.59 70.97 29.03 68.73 29.03 66.47 29.03 66.47 30.59 68.73 30.59 70.97 30.59"/><polygon class="cls-7" points="70.97 30.59 73.24 30.59 75.48 30.59 75.48 29.03 73.24 29.03 70.97 29.03 70.97 30.59"/><rect class="cls-7" x="75.48" y="29.03" width="2.13" height="1.55"/><polygon class="cls-7" points="73.24 29.03 73.24 27.48 68.73 27.48 68.73 29.03 70.97 29.03 73.24 29.03"/><polygon class="cls-7" points="73.24 29.03 75.48 29.03 77.61 29.03 77.61 27.48 73.24 27.48 73.24 29.03"/><polygon class="cls-7" points="66.47 33.7 66.47 32.14 64.23 32.14 61.96 32.14 61.96 33.7 64.23 33.7 66.47 33.7"/><polygon class="cls-7" points="70.97 33.7 70.97 32.14 68.73 32.14 66.47 32.14 66.47 33.7 68.73 33.7 70.97 33.7"/><polygon class="cls-7" points="70.97 33.7 73.24 33.7 75.48 33.7 75.48 32.14 73.24 32.14 70.97 32.14 70.97 33.7"/><rect class="cls-9" x="75.48" y="32.14" width="2.13" height="1.55"/><rect class="cls-9" x="61.96" y="30.59" width="2.26" height="1.55"/><polygon class="cls-7" points="68.73 30.59 66.47 30.59 64.23 30.59 64.23 32.14 66.47 32.14 68.73 32.14 68.73 30.59"/><rect class="cls-7" x="61.96" y="27.48" width="2.26" height="1.55"/><polygon class="cls-7" points="68.73 27.48 66.47 27.48 64.23 27.48 64.23 29.03 66.47 29.03 68.73 29.03 68.73 27.48"/><polygon class="cls-7" points="68.73 30.59 68.73 32.14 70.97 32.14 73.24 32.14 73.24 30.59 70.97 30.59 68.73 30.59"/><polygon class="cls-7" points="73.24 30.59 73.24 32.14 75.48 32.14 77.61 32.14 77.61 30.59 75.48 30.59 73.24 30.59"/><polygon class="cls-7" points="66.47 36.8 66.47 35.25 64.23 35.25 61.96 35.25 61.96 36.8 64.23 36.8 66.47 36.8"/><polygon class="cls-7" points="70.97 36.8 70.97 35.25 68.73 35.25 66.47 35.25 66.47 36.8 68.73 36.8 70.97 36.8"/><polygon class="cls-7" points="70.97 36.8 73.24 36.8 75.48 36.8 75.48 35.25 73.24 35.25 70.97 35.25 70.97 36.8"/><rect class="cls-9" x="75.48" y="35.25" width="2.13" height="1.55"/><rect class="cls-7" x="61.96" y="33.7" width="2.26" height="1.55"/><polygon class="cls-7" points="68.73 33.7 66.47 33.7 64.23 33.7 64.23 35.25 66.47 35.25 68.73 35.25 68.73 33.7"/><polygon class="cls-7" points="68.73 33.7 68.73 35.25 70.97 35.25 73.24 35.25 73.24 33.7 70.97 33.7 68.73 33.7"/><polygon class="cls-9" points="73.24 33.7 73.24 35.25 75.48 35.25 77.61 35.25 77.61 33.7 75.48 33.7 73.24 33.7"/><polygon class="cls-7" points="66.47 39.8 66.47 38.36 64.23 38.36 61.96 38.36 61.96 39.8 64.23 39.8 66.47 39.8"/><polygon class="cls-7" points="70.97 39.8 70.97 38.36 68.73 38.36 66.47 38.36 66.47 39.8 68.73 39.8 70.97 39.8"/><polygon class="cls-7" points="70.97 39.8 73.24 39.8 75.48 39.8 75.48 38.36 73.24 38.36 70.97 38.36 70.97 39.8"/><rect class="cls-7" x="75.48" y="38.36" width="2.13" height="1.44"/><rect class="cls-7" x="61.96" y="36.8" width="2.26" height="1.55"/><polygon class="cls-7" points="68.73 36.8 66.47 36.8 64.23 36.8 64.23 38.36 66.47 38.36 68.73 38.36 68.73 36.8"/><polygon class="cls-7" points="68.73 36.8 68.73 38.36 70.97 38.36 73.24 38.36 73.24 36.8 70.97 36.8 68.73 36.8"/><polygon class="cls-7" points="73.24 36.8 73.24 38.36 75.48 38.36 77.61 38.36 77.61 36.8 75.48 36.8 73.24 36.8"/><polygon class="cls-9" points="66.47 41.35 64.23 41.35 61.96 41.35 61.96 42.92 66.47 42.91 66.47 41.35"/><polygon class="cls-7" points="68.73 41.35 66.47 41.35 66.47 42.91 70.97 42.91 70.97 41.35 68.73 41.35"/><polygon class="cls-7" points="73.24 41.35 70.97 41.35 70.97 42.91 75.48 42.91 75.48 41.35 73.24 41.35"/><rect class="cls-7" x="75.48" y="41.35" width="2.13" height="1.55"/><polygon class="cls-9" points="64.23 39.8 61.96 39.8 61.96 39.91 61.96 41.35 64.23 41.35 64.23 39.8"/><polygon class="cls-7" points="68.73 39.8 66.47 39.8 64.23 39.8 64.23 41.35 66.47 41.35 68.73 41.35 68.73 39.8"/><polygon class="cls-7" points="68.73 39.8 68.73 41.35 70.97 41.35 73.24 41.35 73.24 39.8 70.97 39.8 68.73 39.8"/><polygon class="cls-7" points="73.24 39.8 73.24 41.35 75.48 41.35 77.61 41.35 77.61 39.8 75.48 39.8 73.24 39.8"/><rect class="cls-9" x="61.96" y="27.05" width="15.65" height="2.66"/><rect class="cls-10" x="61.96" y="25.38" width="15.65" height="2.64"/><path id="bush" class="cls-11" d="M83.26,71.43a2.34,2.34,0,0,0-1.72.76,2.11,2.11,0,0,0-2.72-1.06,2.93,2.93,0,0,0-5.74.44A2.93,2.93,0,0,0,69,73.78H85.6A2.35,2.35,0,0,0,83.26,71.43Z"/></svg>