<svg id="Layer_1" data-name="Layer 1" xmlns="http://www.w3.org/2000/svg" xmlns:xlink="http://www.w3.org/1999/xlink" width="100" height="100" viewBox="0 0 100 100"><defs><style>.cls-1,.cls-10,.cls-12,.cls-8,.cls-9{fill:none;}.cls-2{clip-path:url(#clip-path);}.cls-3{fill:#afcc69;}.cls-4{fill:#85ba5d;}.cls-5{fill:#f2f2f2;}.cls-6{fill:#ecedf0;}.cls-7{fill:#4e8e3b;}.cls-10,.cls-12,.cls-8,.cls-9{stroke:#312766;stroke-miterlimit:10;}.cls-8{stroke-width:0.8px;}.cls-10,.cls-9{stroke-width:1.61px;}.cls-10,.cls-12{stroke-linecap:round;}.cls-11{fill:#fff;}.cls-12{stroke-width:0.64px;}.cls-13{fill:#b3b3b3;}.cls-14{fill:#312766;}.cls-15{fill:#0e0c2b;}.cls-16{fill:#ccc;}.cls-17{fill:#465a8c;}.cls-18{fill:#e6e6e6;}.cls-19,.cls-20{fill:#666;}.cls-20{opacity:0.5;}.cls-21{fill:#ad5d31;}.cls-22{fill:#844526;}.cls-23{fill:#377722;}</style><clipPath id="clip-path"><rect class="cls-1" x="169.86" y="48.05" width="886.67" height="430.57"/></clipPath></defs><title>nav-5_1</title><g class="cls-2"><path class="cls-3" d="M962.09-132.9h-3.92A88.5,88.5,0,0,0,895.59-107h0A88.5,88.5,0,0,0,869.67-44.4V21.34A83.8,83.8,0,0,1,845.13,80.6h0a83.8,83.8,0,0,1-59.26,24.54H742.13a82.36,82.36,0,0,0-58.24,24.12h0a82.36,82.36,0,0,0-24.12,58.24v64.9a54.18,54.18,0,0,1-15.87,38.31h0a54.18,54.18,0,0,1-38.31,15.87H585.73a54.18,54.18,0,0,1-38.31-15.87l-44.9-44.9a116.17,116.17,0,0,0-82.14-34H380.77a116.17,116.17,0,0,0-82.14,34h0a57.21,57.21,0,0,1-40.46,16.76h-5.5a57.21,57.21,0,0,1-40.46-16.76L200,233.62a57.21,57.21,0,0,1-16.76-40.46h0A57.21,57.21,0,0,1,200,152.71h0A49.62,49.62,0,0,0,199,81.52L165.24,49.74A241.68,241.68,0,0,1,89.31-126.14h0A197.45,197.45,0,0,0,38.56-258.3h-290a89.59,89.59,0,0,1,21.84,58.61h0a89.59,89.59,0,0,1-26.24,63.35l-20.89,20.89A89.59,89.59,0,0,1-340.09-89.2h-25.73a91.21,91.21,0,0,1-64.49-26.71h0a91.21,91.21,0,0,0-64.49-26.71h-85.37a102.68,102.68,0,0,1-72.6-30.07l-4-4a102.68,102.68,0,0,0-72.6-30.07h0a102.68,102.68,0,0,1-72.6-30.07l-21.48-21.48h-426.86l64.13,64.13A68.58,68.58,0,0,1-1169-165.62q.73,2.4,1.29,4.86.37,1.64.66,3.3a68.56,68.56,0,0,1,.94,8.39q.08,1.7.08,3.4h0v45.58h10.26a114.68,114.68,0,0,1,81.09,33.59l10.05,10.05a114.68,114.68,0,0,1,33.59,81.09h0a114.68,114.68,0,0,0,33.59,81.09l11.64,11.64a114.68,114.68,0,0,1,33.59,81.09V256.3a64.17,64.17,0,0,1-18.8,45.38l-8.27,8.27a64.17,64.17,0,0,0-18.8,45.38h0a64.17,64.17,0,0,0,18.8,45.38L-974,406a64.17,64.17,0,0,1,18.8,45.38v77.27a74.88,74.88,0,0,0,21.93,53h0a74.88,74.88,0,0,1,21.93,53h0a242.18,242.18,0,0,1-70.93,171.25h0c-.29.29-.58.56-.88.84v2.73q0,.85,0,1.7,0,1.7.17,3.39a68.55,68.55,0,0,0,1.29,9q.35,1.68.79,3.34.24.9.5,1.79.18.63.38,1.26.6,1.9,1.3,3.76.47,1.24,1,2.47.34.8.7,1.59c.37.83.76,1.65,1.17,2.46.31.61.62,1.21.95,1.81q1.51,2.78,3.27,5.43,1.06,1.59,2.22,3.13.75,1,1.53,2,.94,1.17,1.94,2.3l.86,1q.93,1,1.9,2l.12.12L-934,887l4.86,4.86,17,17A68.57,68.57,0,0,1-895,937.31l.08.28q.4,1.34.75,2.69t.64,2.72c.06.3.13.59.19.89q.49,2.47.81,5,.1.84.19,1.68.17,1.68.25,3.38t.08,3.4h0v115.28h0a221.79,221.79,0,0,1-3.4,40.15h102.71l-.52-73.5a76.2,76.2,0,0,1,22.32-54.42h0A76.2,76.2,0,0,0-748.6,931V887a76.2,76.2,0,0,1,22.32-53.88l20.75-20.75a76.2,76.2,0,0,1,53.88-22.32h36.2a87.23,87.23,0,0,1,61.68,25.55h0a87.23,87.23,0,0,0,61.68,25.55h7a87.23,87.23,0,0,1,61.68,25.55l7.88,7.88a87.23,87.23,0,0,0,61.68,25.55h43.27a69.47,69.47,0,0,0,49.12-20.35l4.3-4.3a69.47,69.47,0,0,1,49.12-20.35h14.69a69.47,69.47,0,0,0,49.12-20.35h0a69.47,69.47,0,0,1,49.12-20.35h22.34a52.17,52.17,0,0,1,36.89,15.28L6.5,872.16a52.17,52.17,0,0,1,15.28,36.89v31A52.17,52.17,0,0,1,6.5,977h0a52.17,52.17,0,0,0-15.28,36.89h0a111.08,111.08,0,0,0,32.54,78.55l20.36,20.36H386.78l-70.67-74.84a212,212,0,0,1-21.82-263.85h0a125.92,125.92,0,0,1,89-36.88h0a125.92,125.92,0,0,1,89,36.88l19.13,19.13a81.47,81.47,0,0,0,57.61,23.86h0a81.47,81.47,0,0,0,81.47-81.47v-47.9a110.89,110.89,0,0,1,32.48-78.41h0a110.89,110.89,0,0,1,78.41-32.48h22.61a110.89,110.89,0,0,1,78.41,32.48l23.11,23.11a58.36,58.36,0,0,0,41.27,17.09h0a58.36,58.36,0,0,1,41.27,17.09l17.18,17.18a58.36,58.36,0,0,0,41.27,17.09h59.88V613.69h-8a122.3,122.3,0,0,1-86.48-35.82h0a122.3,122.3,0,0,0-86.48-35.82H835.55a79.47,79.47,0,0,1-56.19-23.28l-6.17-6.17q-2.38-2.38-4.52-4.93h-94l-.75,0-.37,0-.29,0a12.53,12.53,0,0,1-9.5-6.26h.14a12.93,12.93,0,0,1-1.77-6.51h97.71a79.46,79.46,0,0,1-9.9-38.4v-7.73a79.47,79.47,0,0,1,23.28-56.19h0a79.47,79.47,0,0,1,56.19-23.28H867.5a41.74,41.74,0,0,0,41.74-41.74h0A41.74,41.74,0,0,1,921.47,298l11.33-11.33a248.27,248.27,0,0,1,133.65-69.15V-65.19L1024.67-107A88.5,88.5,0,0,0,962.09-132.9Zm-1336,458.18h260.2a12.22,12.22,0,0,1-12.21,12.27H-361.59a12.27,12.27,0,0,1-12.27-12.27Zm-251.8-208.89h195.94a12.47,12.47,0,0,1-1.63,6.19h0a12.57,12.57,0,0,1-1.4,2l0,0a12.59,12.59,0,0,1-1.72,1.65l-.06.05a12.56,12.56,0,0,1-1.3.89l-.05,0-.61.34-.13.07-.66.31h0l-.72.28-.14,0-.58.18-.19.05-.69.17h-.05l-.75.13-.21,0-.58.06-.22,0-.78,0H-613.13l-.78,0-.22,0-.58-.06-.21,0-.75-.13h-.05l-.69-.17-.19-.05-.58-.18-.14,0-.72-.28h0l-.66-.31-.13-.07-.61-.34-.05,0a12.56,12.56,0,0,1-1.3-.89l-.06-.05a12.59,12.59,0,0,1-1.72-1.65l0,0a12.57,12.57,0,0,1-1.4-2h0a12.47,12.47,0,0,1-1.63-6.19Zm-2.28,199.16h0a12.13,12.13,0,0,1-12.11,12.27H-811.44a12.18,12.18,0,0,1-12.16-12.27h195.66ZM-902.43,76.87A12.27,12.27,0,0,1-914.7,64.6h206.52a12.27,12.27,0,0,1-12.27,12.27Zm792.48,617.19a85.35,85.35,0,0,1-25,60.35h0a85.35,85.35,0,0,1-60.35,25h-18a85.35,85.35,0,0,0-60.35,25l-8.45,8.45a85.59,85.59,0,0,1-60.52,25.07h0a85.59,85.59,0,0,1-60.52-25.07l-1.26-1.26A85.59,85.59,0,0,0-465,786.53H-508.5a75.05,75.05,0,0,1-53.07-22h0a75.05,75.05,0,0,0-53.07-22H-640.4a75.05,75.05,0,0,0-53.07,22l-5.35,5.35a67.37,67.37,0,0,1-47.64,19.73h-12.09a67.37,67.37,0,0,1-47.64-19.73l-28.43-28.43a67.37,67.37,0,0,1-19.73-47.64h0a67.37,67.37,0,0,1,19.73-47.64h0a101.94,101.94,0,0,0,29.86-72q0-.55,0-1.1a59.2,59.2,0,0,0-17.41-42l-.44-.44A57.55,57.55,0,0,1-839.46,490l.05-48.67a59.15,59.15,0,0,1,17.33-41.76h0A164.17,164.17,0,0,1-706,351.44h54.39a105.11,105.11,0,0,1,63.06,21l67.08,50.31a98.8,98.8,0,0,0,59.28,19.76h43.46a98.8,98.8,0,0,0,69.87-28.94h0A98.8,98.8,0,0,1-279,384.65h21.52A112.36,112.36,0,0,1-178,417.56h0A112.36,112.36,0,0,1-145.1,497v37.75a60,60,0,0,0,17.58,42.43h0a60,60,0,0,1,17.58,42.43ZM-6.93,266H-267.09a77.05,77.05,0,0,1-53.92-22l-27-26.42a77.05,77.05,0,0,1-23.13-55V98.55a77.05,77.05,0,0,1,22.57-54.49l35.69-35.69a77.05,77.05,0,0,1,54.49-22.57h21.65a77.05,77.05,0,0,0,54.49-22.57l37.17-37.17A77.05,77.05,0,0,1-90.58-96.5h0A77.05,77.05,0,0,1-13.52-19.45V-4.64A77.05,77.05,0,0,0,9,49.85L58.28,99.08a77.05,77.05,0,0,1,22.57,54.49v24.61a77.05,77.05,0,0,1-22.57,54.49L47.56,243.39A77.05,77.05,0,0,1-6.93,266ZM557.36,495.51a170,170,0,0,1-49.8,120.24l-11.78,11.78a129.83,129.83,0,0,1-91.8,38h0a122.27,122.27,0,0,1-86.46-35.81h0a122.27,122.27,0,0,0-86.46-35.81H183.6a122.27,122.27,0,0,1-86.46-35.81L55.22,516.19a50.28,50.28,0,0,1-14.73-35.56h0A50.29,50.29,0,0,1,63,438.72l48.61-32.23a90.92,90.92,0,0,1,97.63-1.82h0a90.92,90.92,0,0,0,93.08,1l93.12-54.14a97.26,97.26,0,0,1,51.34-13.15h0a97.26,97.26,0,0,1,83.06,50.91l15.78,29.14a97.26,97.26,0,0,1,11.74,46.32ZM876.05,227a12.42,12.42,0,0,1-12.42,12.42H691A12.42,12.42,0,0,1,678.56,227h197.5Z"/><path class="cls-4" d="M58.28,232.67a77.05,77.05,0,0,0,22.57-54.49V153.57A77.05,77.05,0,0,0,58.28,99.08L9,49.85A77.05,77.05,0,0,1-13.52-4.64V-19.45A77.05,77.05,0,0,0-90.57-96.5h0a77.05,77.05,0,0,0-54.49,22.57l-37.17,37.17a77.05,77.05,0,0,1-54.49,22.57h-21.65A77.05,77.05,0,0,0-312.86,8.37l-35.69,35.69a77.05,77.05,0,0,0-22.57,54.49v63.93a77.05,77.05,0,0,0,23.13,55l27,26.42a77.05,77.05,0,0,0,53.92,22H-6.93a77.05,77.05,0,0,0,54.49-22.57Z"/><path class="cls-4" d="M89.31-126.14h0A241.68,241.68,0,0,0,165.24,49.74L199,81.52A49.62,49.62,0,0,1,200,152.71h0a57.21,57.21,0,0,0-16.76,40.46h0A57.21,57.21,0,0,0,200,233.62l12.19,12.19a57.21,57.21,0,0,0,40.46,16.76h5.5a57.21,57.21,0,0,0,40.46-16.76h0a116.17,116.17,0,0,1,82.14-34h39.61a116.17,116.17,0,0,1,82.14,34l44.9,44.9a54.18,54.18,0,0,0,38.31,15.87h19.86a54.18,54.18,0,0,0,38.31-15.87h0a54.18,54.18,0,0,0,15.87-38.31V187.5a82.36,82.36,0,0,1,24.12-58.24h0a82.36,82.36,0,0,1,58.24-24.12h43.74A83.8,83.8,0,0,0,845.13,80.6h0a83.8,83.8,0,0,0,24.54-59.26V-44.4A88.5,88.5,0,0,1,895.59-107h0a88.5,88.5,0,0,1,62.58-25.92h3.92A88.5,88.5,0,0,1,1024.67-107l41.79,41.79V-258.8H38.11l.45.5A197.45,197.45,0,0,1,89.31-126.14Zm51.26,75.63-.78,0-.23,0-.56-.06-.24,0-.66-.11-.35-.08-.36-.09-.47-.13-.11,0a12.57,12.57,0,0,1-7.14-5.77h.16A12.76,12.76,0,0,1,128.25-63H328.46a12.7,12.7,0,0,1-1.59,6.19H327a12.57,12.57,0,0,1-7.08,5.75l-.21.07-.4.12-.44.11-.25.06-.71.12-.23,0-.56.06-.23,0-.78,0ZM458.92,181.74H277.37a12.51,12.51,0,0,1-12.55-12.27H471A12.08,12.08,0,0,1,458.92,181.74ZM712.19,11.62H524.29c-6.78,0-12.74-5.49-12.74-12.27h210.1C721.66,6.13,719,11.62,712.19,11.62Z"/><path class="cls-1" d="M22,78.33a83,83,0,0,0-27,18.07l-29.3,29.3a93.49,93.49,0,0,1-30.48,20.37,93.77,93.77,0,0,1-18.74,5.56l-1.86,52A183.29,183.29,0,0,0-31.78,333.19l13.23,13.23H69.86a5.31,5.31,0,0,1,3.79,0H294a66.69,66.69,0,0,0,47.47-19.66l23.05-23.05a77.21,77.21,0,0,1,55-22.76h30.22q-4.31-1.19-8.69-2.19a199.49,199.49,0,0,0-67.4-3.67L266.44,287.43a132.67,132.67,0,0,1-69.9-10.9A129.69,129.69,0,0,1,142.49,231,131.06,131.06,0,0,1,120,157.38,120.54,120.54,0,0,0,110.77,111a120.53,120.53,0,0,0-26-39H53.86A83,83,0,0,0,22,78.33Z"/><path class="cls-1" d="M-668.49-101A435.72,435.72,0,0,0-500.92-67.65h35a142.92,142.92,0,0,1,55,10.93,142.92,142.92,0,0,1,46.6,31.14A142.93,142.93,0,0,1-333.17,21a142.92,142.92,0,0,1,10.93,55v55.3q0,5.7-.45,11.35h221.87a83,83,0,0,0,31.9-6.35,83,83,0,0,0,27-18.07l29.3-29.3A93.95,93.95,0,0,1,53.86,61.4H74.19l-8.51-8.51A131.07,131.07,0,0,1,37.13,10.16a131.07,131.07,0,0,1-10-50.41v-91.2a120.54,120.54,0,0,0-9.22-46.36,120.53,120.53,0,0,0-26.26-39.3L-46.25-255l3.82-3.82h-831l62.89,62.89A435.71,435.71,0,0,0-668.49-101Z"/><path class="cls-1" d="M676.56-79.57a93.48,93.48,0,0,1-36,7.15H471.88a83.37,83.37,0,0,0-59,24.42L390.5-25.56A93.49,93.49,0,0,1,360-5.2a93.49,93.49,0,0,1-36,7.15H244.52a83.37,83.37,0,0,0-59,24.42L167.48,44.46A93.49,93.49,0,0,1,137,64.83,93.48,93.48,0,0,1,101,72H99.14a131,131,0,0,1,21.41,35,131.07,131.07,0,0,1,10,50.41,120.52,120.52,0,0,0,20.69,67.73,119.11,119.11,0,0,0,49.65,41.79,122.08,122.08,0,0,0,64.32,10l107.14-12.35a210.2,210.2,0,0,1,107.15,15.64,66.63,66.63,0,0,0,37.55-18.94l13.59-13.59a66.69,66.69,0,0,0,19.66-47.47V179.66a77.2,77.2,0,0,1,22.76-55l35.15-35.15a77.21,77.21,0,0,1,55-22.76h59.05a66.69,66.69,0,0,0,47.47-19.66l35.37-35.37A77.21,77.21,0,0,1,860-11h96.23a66.69,66.69,0,0,0,47.47-19.66l62.72-62.72V-258.8H865.91L707-99.93A93.48,93.48,0,0,1,676.56-79.57Z"/><path class="cls-1" d="M27.66-181.85a131.07,131.07,0,0,1,10,50.41v91.2A120.54,120.54,0,0,0,46.91,6.11a120.54,120.54,0,0,0,26.26,39.3l16,16H101a83,83,0,0,0,31.9-6.35A83,83,0,0,0,160,37l18.09-18.09A93.95,93.95,0,0,1,244.52-8.63h79.55A83,83,0,0,0,356-15,83,83,0,0,0,383-33l22.43-22.43A93.95,93.95,0,0,1,471.88-83H640.61a83,83,0,0,0,31.9-6.35,83,83,0,0,0,27-18.07L850.94-258.8h-886L-.89-224.59A131.07,131.07,0,0,1,27.66-181.85Z"/><path class="cls-5" d="M672.52-89.34A83,83,0,0,1,640.61-83H471.88a93.95,93.95,0,0,0-66.43,27.52L383-33A83,83,0,0,1,356-15a83,83,0,0,1-31.9,6.35H244.52a93.95,93.95,0,0,0-66.43,27.52L160,37a83,83,0,0,1-27,18.07A83,83,0,0,1,101,61.4H89.16L92,64.24Q95.74,68,99.14,72H101a93.48,93.48,0,0,0,36-7.15,93.49,93.49,0,0,0,30.48-20.37l18.09-18.09A83.37,83.37,0,0,1,244.52,2h79.55A93.49,93.49,0,0,0,360-5.2,93.49,93.49,0,0,0,390.5-25.56L412.93-48a83.37,83.37,0,0,1,59-24.42H640.61a93.48,93.48,0,0,0,36-7.15A93.48,93.48,0,0,0,707-99.93L865.91-258.8h-15L699.56-107.41A83,83,0,0,1,672.52-89.34Z"/><path class="cls-5" d="M-94.24,153l.22-6.07,10.57.38-.15,4.34a93.77,93.77,0,0,0,18.74-5.56,93.49,93.49,0,0,0,30.48-20.37l29.3-29.3A83.37,83.37,0,0,1,53.86,72h30.9l-.25-.26L74.19,61.4H53.86A93.95,93.95,0,0,0-12.57,88.92l-29.3,29.3a83,83,0,0,1-27,18.07,83,83,0,0,1-31.9,6.35H-322.69q-.42,5.32-1.23,10.58h223.1Q-97.51,153.21-94.24,153Z"/><path class="cls-5" d="M-8.38-217.11a120.53,120.53,0,0,1,26.26,39.3,120.54,120.54,0,0,1,9.22,46.36v91.2a131.07,131.07,0,0,0,10,50.41A131.07,131.07,0,0,0,65.68,52.89l8.51,8.51L84.51,71.72l.25.26a120.53,120.53,0,0,1,26,39A120.54,120.54,0,0,1,120,157.38,131.06,131.06,0,0,0,142.49,231a129.69,129.69,0,0,0,54.05,45.51,132.67,132.67,0,0,0,69.9,10.9l107.14-12.35a199.49,199.49,0,0,1,67.4,3.67q4.37,1,8.69,2.19H469.6a68.1,68.1,0,0,0,9.92-.72,210.2,210.2,0,0,0-107.15-15.64L265.23,276.92a122.08,122.08,0,0,1-64.32-10,119.11,119.11,0,0,1-49.65-41.79,120.52,120.52,0,0,1-20.69-67.73,131.07,131.07,0,0,0-10-50.41A131,131,0,0,0,99.14,72Q95.73,68,92,64.24L89.16,61.4l-16-16A120.54,120.54,0,0,1,46.91,6.11a120.54,120.54,0,0,1-9.22-46.36v-91.2a131.07,131.07,0,0,0-10-50.41A131.07,131.07,0,0,0-.89-224.59L-35.1-258.8h-7.33L-46.25-255Z"/><path class="cls-5" d="M956.26-11H860a77.21,77.21,0,0,0-55,22.76L769.71,47.12a66.69,66.69,0,0,1-47.47,19.66H663.19a77.21,77.21,0,0,0-55,22.76L573.08,124.7a77.2,77.2,0,0,0-22.76,55v20.56a66.69,66.69,0,0,1-19.66,47.47l-13.59,13.59a66.63,66.63,0,0,1-37.55,18.94,68.1,68.1,0,0,1-9.92.72H419.45a77.21,77.21,0,0,0-55,22.76l-23.05,23.05A66.69,66.69,0,0,1,294,346.41H73.65a5.26,5.26,0,0,1,1.85,1.2L84.88,357H200.95l-1.31-1.29a5.29,5.29,0,0,1,7.44-7.52L216,357h78a77.2,77.2,0,0,0,55-22.76L372,311.18a66.7,66.7,0,0,1,47.47-19.66H469.6a79.1,79.1,0,0,0,8.34-.44,77.12,77.12,0,0,0,46.61-22.32l13.59-13.59a77.2,77.2,0,0,0,22.76-55V179.66a66.69,66.69,0,0,1,19.66-47.47L615.72,97a66.7,66.7,0,0,1,47.47-19.66h59.05a77.2,77.2,0,0,0,55-22.76l35.37-35.37A66.7,66.7,0,0,1,860-.43h96.23a77.2,77.2,0,0,0,55-22.76l55.24-55.24v-15l-62.72,62.72A66.69,66.69,0,0,1,956.26-11Z"/></g><circle class="cls-6" cx="50" cy="50" r="50"/><g id="link-5"><path id="bush" class="cls-7" d="M94.84,62a1.63,1.63,0,0,0-.75.18,1.64,1.64,0,0,0-2.8-.49,1.64,1.64,0,0,0-2-1.27,1.64,1.64,0,0,0-3.25.27v0a1.64,1.64,0,0,0-2.6.83,1.64,1.64,0,0,0-2.74.92,1.64,1.64,0,0,0-2.37,1.74h18.2A1.95,1.95,0,0,0,94.84,62Z"/><path id="bush-2" data-name="bush" class="cls-7" d="M5.19,62.59l.29,0a1.7,1.7,0,0,1,3-.67,1.7,1.7,0,0,1,2.09-1s0-.05,0-.08a1.7,1.7,0,0,1,3.4-.12,1.7,1.7,0,0,1,3.16.89s0,.09,0,.13a1.7,1.7,0,0,1,2.32,2.38h-16A1.7,1.7,0,0,1,5.19,62.59Z"/><g id="tree"><line class="cls-8" x1="13.5" y1="53.86" x2="13.5" y2="64.05"/></g><path class="cls-7" d="M17.4,44.27a4.06,4.06,0,1,0-7.88,0,5.65,5.65,0,0,1-.57,4.28,5.26,5.26,0,1,0,9.06.06A5.77,5.77,0,0,1,17.4,44.27Z"/><path class="cls-8" d="M9.45,63.94V50.21a1.62,1.62,0,0,0-1.62-1.62h0a1.61,1.61,0,0,0-1.6,1.62V51"/><line class="cls-9" x1="9.51" y1="59.88" x2="9.51" y2="64.17"/><line class="cls-10" x1="9.51" y1="57.8" x2="9.51" y2="62.66"/><circle class="cls-11" cx="6.21" cy="52.07" r="1.1"/><line class="cls-12" x1="5.68" y1="50.97" x2="6.73" y2="50.97"/><rect class="cls-13" x="27.8" y="43.67" width="7.12" height="20.5"/><polygon class="cls-14" points="24.54 35.83 16.35 42.74 79.23 42.74 79.23 35.83 24.54 35.83"/><polygon class="cls-15" points="79.23 35.83 71.08 42.62 71.08 42.65 87.38 42.65 87.38 42.62 79.23 35.83"/><rect class="cls-16" x="16.36" y="42.65" width="71.02" height="1.02"/><polygon class="cls-16" points="27.88 63.15 16.36 63.15 16.36 42.68 22.12 37.87 27.88 42.68 27.88 63.15"/><polygon class="cls-11" points="27.88 64.17 16.36 64.17 16.36 43.69 22.12 38.89 27.88 43.69 27.88 64.17"/><g id="window"><rect class="cls-17" x="17.46" y="46.38" width="4.4" height="4.83"/><rect class="cls-14" x="17.46" y="46.38" width="4.4" height="1.69"/></g><g id="window-2" data-name="window"><rect class="cls-17" x="22.46" y="46.38" width="4.4" height="4.83"/><rect class="cls-14" x="22.46" y="46.38" width="4.4" height="1.69"/></g><g id="window-3" data-name="window"><rect class="cls-17" x="20.43" y="57.31" width="3.39" height="4.83"/><rect class="cls-14" x="20.43" y="57.31" width="3.39" height="1.69"/></g><g id="Door"><rect class="cls-18" x="30.68" y="56.29" width="4.24" height="7.88"/><rect class="cls-19" x="30.68" y="56.29" width="4.24" height="1.69"/><path class="cls-13" d="M34.07,59.76H31.52a1.27,1.27,0,1,1,2.54,0Z"/></g><rect class="cls-13" x="46.35" y="43.67" width="7.12" height="20.5"/><polygon class="cls-16" points="46.43 63.15 34.91 63.15 34.91 42.68 40.67 37.87 46.43 42.68 46.43 63.15"/><polygon class="cls-11" points="46.43 64.17 34.91 64.17 34.91 43.69 40.67 38.89 46.43 43.69 46.43 64.17"/><g id="window-4" data-name="window"><rect class="cls-17" x="35.93" y="46.38" width="4.4" height="4.83"/><rect class="cls-14" x="35.93" y="46.38" width="4.4" height="1.69"/></g><g id="window-5" data-name="window"><rect class="cls-17" x="40.93" y="46.38" width="4.4" height="4.83"/><rect class="cls-14" x="40.93" y="46.38" width="4.4" height="1.69"/></g><g id="window-6" data-name="window"><rect class="cls-17" x="38.98" y="57.31" width="3.39" height="4.83"/><rect class="cls-14" x="38.98" y="57.31" width="3.39" height="1.69"/></g><g id="Door-2" data-name="Door"><rect class="cls-18" x="49.14" y="56.29" width="4.24" height="7.88"/><rect class="cls-19" x="49.14" y="56.29" width="4.24" height="1.69"/><path class="cls-13" d="M52.55,59.76H50a1.27,1.27,0,1,1,2.54,0Z"/></g><rect class="cls-13" x="64.81" y="43.67" width="7.12" height="20.5"/><polygon class="cls-16" points="64.9 63.15 53.38 63.15 53.38 42.68 59.14 37.87 64.9 42.68 64.9 63.15"/><polygon class="cls-11" points="64.9 64.17 53.38 64.17 53.38 43.69 59.14 38.89 64.9 43.69 64.9 64.17"/><g id="window-7" data-name="window"><rect class="cls-17" x="54.4" y="46.38" width="4.4" height="4.83"/><rect class="cls-14" x="54.4" y="46.38" width="4.4" height="1.69"/></g><g id="window-8" data-name="window"><rect class="cls-17" x="59.39" y="46.38" width="4.4" height="4.83"/><rect class="cls-14" x="59.39" y="46.38" width="4.4" height="1.69"/></g><g id="window-9" data-name="window"><rect class="cls-17" x="57.44" y="57.31" width="3.39" height="4.83"/><rect class="cls-14" x="57.44" y="57.31" width="3.39" height="1.69"/></g><g id="Door-3" data-name="Door"><rect class="cls-18" x="67.69" y="56.29" width="4.24" height="7.88"/><rect class="cls-19" x="67.69" y="56.29" width="4.24" height="1.69"/><path class="cls-13" d="M71,59.76H68.5a1.27,1.27,0,1,1,2.54,0Z"/></g><polygon class="cls-20" points="64.87 43.67 64.9 43.69 64.9 64.17 66.42 64.17 66.42 44.94 71.93 44.94 71.93 43.67 64.87 43.67"/><polygon class="cls-20" points="53.38 43.69 53.41 43.67 46.4 43.67 46.43 43.69 46.43 64.17 47.96 64.17 47.96 44.94 53.38 44.94 53.38 43.69"/><polygon class="cls-20" points="34.91 43.69 34.91 43.67 27.85 43.67 27.88 43.69 27.88 64.17 29.41 64.17 29.41 44.94 34.91 44.94 34.91 43.69"/><rect class="cls-16" x="71.93" y="43.67" width="15.45" height="20.5"/><g id="window-10" data-name="window"><rect class="cls-17" x="77.03" y="46.38" width="5.25" height="4.83"/><rect class="cls-14" x="77.03" y="46.38" width="5.25" height="1.69"/></g><g id="window-11" data-name="window"><rect class="cls-17" x="77.03" y="57.31" width="5.25" height="4.83"/><rect class="cls-14" x="77.03" y="57.31" width="5.25" height="1.69"/></g><rect class="cls-21" x="15.18" y="49.94" width="13.47" height="5.08"/><rect class="cls-22" x="15.18" y="51.12" width="13.47" height="0.76"/><rect class="cls-22" x="15.18" y="54.86" width="13.47" height="0.76"/><rect class="cls-22" x="15.18" y="53.07" width="13.47" height="0.76"/><rect class="cls-21" x="33.64" y="49.94" width="13.47" height="5.08"/><rect class="cls-22" x="33.64" y="51.12" width="13.47" height="0.76"/><rect class="cls-22" x="33.64" y="54.86" width="13.47" height="0.76"/><rect class="cls-22" x="33.64" y="53.07" width="13.47" height="0.76"/><rect class="cls-21" x="52.11" y="49.94" width="13.47" height="5.08"/><rect class="cls-22" x="52.11" y="51.12" width="13.47" height="0.76"/><rect class="cls-22" x="52.11" y="54.86" width="13.47" height="0.76"/><rect class="cls-22" x="52.11" y="53.07" width="13.47" height="0.76"/><polygon class="cls-4" points="43.32 64.17 42.29 64.17 42.8 63.14 43.32 64.17"/><polygon class="cls-4" points="44.35 64.17 43.32 64.17 43.83 63.14 44.35 64.17"/><polygon class="cls-4" points="45.38 64.17 44.35 64.17 44.86 63.14 45.38 64.17"/><polygon class="cls-15" points="33.57 37.87 22.12 37.87 27.84 42.65 33.57 37.87"/><polygon class="cls-15" points="52.12 37.87 40.67 37.87 46.39 42.65 52.12 37.87"/><polygon class="cls-15" points="70.57 37.87 59.13 37.87 64.85 42.65 70.57 37.87"/><path id="bush-3" data-name="bush" class="cls-23" d="M91.34,62.47A1.69,1.69,0,0,0,90.1,63a1.52,1.52,0,0,0-2-.77,2.12,2.12,0,0,0-4.15.32,2.12,2.12,0,0,0-3,1.6H93A1.69,1.69,0,0,0,91.34,62.47Z"/></g></svg>