<svg id="Layer_1" data-name="Layer 1" xmlns="http://www.w3.org/2000/svg" width="100" height="100" viewBox="0 0 100 100"><defs><style>.cls-1{fill:#ecedf0;}.cls-2{fill:#85ba5d;}.cls-3{fill:#f29f53;}.cls-4{fill:#312766;}.cls-5{fill:#ad5d31;}.cls-6{fill:#465a8c;}.cls-7{fill:#0e0c2b;}.cls-8{fill:none;stroke:#312766;stroke-miterlimit:10;stroke-width:1.23px;}.cls-9{fill:#4e8e3b;}.cls-10{fill:#213c68;}.cls-11{fill:#161656;}</style></defs><title>nav-1</title><circle class="cls-1" cx="50" cy="50" r="50"/><path id="bush" class="cls-2" d="M6.1,61.25a3,3,0,0,1,.51,0,3,3,0,0,1,5.26-1.16,3,3,0,0,1,3.63-1.71s0-.09,0-.14a3,3,0,0,1,5.91-.21,3,3,0,0,1,5.49,1.55c0,.08,0,.15,0,.22a3,3,0,0,1,4,4.14H3.14A3,3,0,0,1,6.1,61.25Z"/><rect id="Front_wall" data-name="Front wall" class="cls-3" x="18.61" y="46.88" width="38.89" height="17.11"/><polygon id="Roof" class="cls-4" points="66.29 38.17 27.26 38.15 18.52 46.88 57.63 46.88 66.29 38.17"/><g id="Side"><polygon class="cls-5" points="66.29 38.17 57.54 46.88 74.9 46.88 66.29 38.17"/><rect class="cls-5" x="57.49" y="46.88" width="17.35" height="17.11"/></g><g id="Door"><rect class="cls-6" x="35.96" y="52.54" width="6.15" height="11.44"/><rect class="cls-4" x="35.98" y="52.58" width="6.15" height="2.45"/><rect class="cls-4" x="31.47" y="57.04" width="11.44" height="2.46" transform="translate(-21.08 95.45) rotate(-90)"/></g><g id="roof_peak" data-name="roof peak"><polygon class="cls-7" points="39.02 40.48 39.02 40.51 45.41 46.9 51.83 40.48 39.02 40.48"/><polygon class="cls-3" points="32.56 47.01 45.41 47.02 39 40.48 32.56 47.01"/></g><circle class="cls-4" cx="38.79" cy="46.02" r="1.23"/><g id="window"><rect class="cls-6" x="24.02" y="51.07" width="4.92" height="7.01"/><rect class="cls-4" x="24.02" y="51.07" width="4.92" height="2.46"/></g><g id="window-2" data-name="window"><rect class="cls-6" x="48.49" y="51.08" width="4.96" height="7.03"/><rect class="cls-4" x="48.51" y="51.07" width="4.92" height="2.46"/></g><path id="bush-2" data-name="bush" class="cls-2" d="M94.47,60.6a2.5,2.5,0,0,0-1.15.28,2.51,2.51,0,0,0-4.3-.76,2.51,2.51,0,0,0-3.13-1.95,2.51,2.51,0,0,0-5,.41s0,0,0,.05a2.51,2.51,0,0,0-4,1.27,2.51,2.51,0,0,0-4.21,1.42A2.51,2.51,0,0,0,69.06,64H96.82a2.51,2.51,0,0,0-2.35-3.39Z"/><g id="tree"><line class="cls-8" x1="11.49" y1="48.39" x2="11.49" y2="64"/><rect class="cls-9" x="6.3" y="32.36" width="10.46" height="21.17" rx="5.23" ry="5.23"/></g><g id="Garage"><rect id="Front_wall-2" data-name="Front wall" class="cls-3" x="60.08" y="49.22" width="19.07" height="14.77"/><polygon id="Roof-2" data-name="Roof" class="cls-4" points="85.48 42.96 66.37 42.95 60.1 49.22 79.22 49.22 85.48 42.96"/><g id="Side-2" data-name="Side"><polygon class="cls-5" points="85.48 42.96 79.21 49.22 91.7 49.22 85.48 42.96"/><rect class="cls-5" x="79.15" y="49.22" width="12.55" height="14.77"/></g><g id="window-3" data-name="window"><rect class="cls-10" x="82.97" y="51.07" width="4.92" height="7.01"/><rect class="cls-11" x="82.97" y="51.07" width="4.92" height="2.46"/></g><g id="garage_door" data-name="garage door"><rect class="cls-6" x="63.4" y="52.54" width="12.31" height="11.44"/><rect class="cls-4" x="63.43" y="52.58" width="12.28" height="2.45"/><rect class="cls-4" x="58.91" y="57.04" width="11.44" height="2.46" transform="translate(6.36 122.9) rotate(-90)"/></g><g id="garage_door_8_rows" data-name="garage door 8 rows"><rect class="cls-4" x="63.4" y="52.54" width="12.31" height="1.43"/><rect class="cls-6" x="63.4" y="53.97" width="12.31" height="1.43"/><rect class="cls-4" x="63.4" y="55.4" width="12.31" height="1.43"/><rect class="cls-6" x="63.4" y="56.84" width="12.31" height="1.43"/><rect class="cls-4" x="63.4" y="58.27" width="12.31" height="1.43"/><rect class="cls-6" x="63.4" y="59.7" width="12.31" height="1.43"/><rect class="cls-4" x="63.4" y="61.13" width="12.31" height="1.43"/><rect class="cls-6" x="63.4" y="62.56" width="12.31" height="1.43"/><rect class="cls-4" x="63.4" y="52.54" width="1.48" height="11.44"/></g></g><path id="bush-3" data-name="bush" class="cls-9" d="M27.33,61.39a2.59,2.59,0,0,0-1.91.84,2.34,2.34,0,0,0-3-1.18,3.25,3.25,0,0,0-6.36.49A3.25,3.25,0,0,0,11.51,64H29.93A2.6,2.6,0,0,0,27.33,61.39Z"/><path id="bush-4" data-name="bush" class="cls-9" d="M50.23,60.17a2.71,2.71,0,0,0-2.61,2A2.71,2.71,0,0,0,43.78,64H57a2.71,2.71,0,0,0-4.06-1.4A2.71,2.71,0,0,0,50.23,60.17Z"/></svg>