<svg id="Layer_1" data-name="Layer 1" xmlns="http://www.w3.org/2000/svg" xmlns:xlink="http://www.w3.org/1999/xlink" width="100" height="100" viewBox="0 0 100 100"><defs><style>.cls-1,.cls-7{fill:none;}.cls-2{clip-path:url(#clip-path);}.cls-3{fill:#afcc69;}.cls-19,.cls-4{fill:#85ba5d;}.cls-5{fill:#f2f2f2;}.cls-6{fill:#ecedf0;}.cls-7{stroke:#312766;stroke-width:1.24px;}.cls-19,.cls-7{stroke-miterlimit:10;}.cls-8{fill:#4e8e3b;}.cls-9{fill:#4d4d4d;}.cls-10{fill:#f29f53;}.cls-11{fill:#fff;}.cls-12{fill:#ad5d31;}.cls-13{fill:#844526;}.cls-14{fill:#465a8c;}.cls-15{fill:#312766;}.cls-16{fill:#b3b3b3;}.cls-17{fill:#ccc;}.cls-18{fill:#666;}.cls-19{stroke:#85ba5d;stroke-width:0.12px;}</style><clipPath id="clip-path"><rect class="cls-1" x="172.74" y="384.45" width="886.67" height="430.57"/></clipPath></defs><title>nav-3</title><g class="cls-2"><path class="cls-1" d="M-248.57,78.11h290l-.45-.5H-249Z"/><path class="cls-3" d="M965,203.51h-3.92a88.5,88.5,0,0,0-62.58,25.92h0A88.5,88.5,0,0,0,872.56,292v65.74A83.8,83.8,0,0,1,848,417h0a83.8,83.8,0,0,1-59.26,24.54H745a82.36,82.36,0,0,0-58.24,24.12h0a82.36,82.36,0,0,0-24.12,58.24v64.9a54.18,54.18,0,0,1-15.87,38.31h0A54.18,54.18,0,0,1,608.47,643H588.61a54.18,54.18,0,0,1-38.31-15.87l-44.9-44.9a116.17,116.17,0,0,0-82.14-34H383.65a116.17,116.17,0,0,0-82.14,34h0A57.21,57.21,0,0,1,261,599h-5.5a57.21,57.21,0,0,1-40.46-16.76L202.9,570a57.21,57.21,0,0,1-16.76-40.46h0a57.21,57.21,0,0,1,16.76-40.46h0a49.62,49.62,0,0,0-1.06-71.19l-33.72-31.78A241.68,241.68,0,0,1,92.2,210.26h0A197.45,197.45,0,0,0,41.45,78.11h-290a89.59,89.59,0,0,1,21.84,58.61h0A89.59,89.59,0,0,1-253,200.07L-273.86,221a89.59,89.59,0,0,1-63.35,26.24h-25.73a91.21,91.21,0,0,1-64.49-26.71h0a91.21,91.21,0,0,0-64.49-26.71h-85.37a102.68,102.68,0,0,1-72.6-30.07l-4-4a102.68,102.68,0,0,0-72.6-30.07h0a102.68,102.68,0,0,1-72.6-30.07l-21.48-21.48h-426.86l64.13,64.13a68.58,68.58,0,0,1,17.12,28.55q.73,2.4,1.29,4.86.37,1.64.66,3.3a68.56,68.56,0,0,1,.94,8.39q.08,1.7.08,3.4h0v45.58h10.26a114.68,114.68,0,0,1,81.09,33.59l10.05,10.05A114.68,114.68,0,0,1-1028.2,361h0a114.68,114.68,0,0,0,33.59,81.09L-983,453.77a114.68,114.68,0,0,1,33.59,81.09v57.84a64.17,64.17,0,0,1-18.8,45.38l-8.27,8.27a64.17,64.17,0,0,0-18.8,45.38h0a64.17,64.17,0,0,0,18.8,45.38l5.28,5.28a64.17,64.17,0,0,1,18.8,45.38V865a74.88,74.88,0,0,0,21.93,53h0a74.88,74.88,0,0,1,21.93,53h0a242.18,242.18,0,0,1-70.93,171.25h0c-.29.29-.58.56-.88.84v2.73q0,.85,0,1.7,0,1.7.17,3.39a68.55,68.55,0,0,0,1.29,9q.35,1.68.79,3.34.24.9.5,1.79.18.63.38,1.26.6,1.9,1.3,3.76.47,1.24,1,2.47.34.8.7,1.59c.37.83.76,1.65,1.17,2.46.31.61.62,1.21.95,1.81q1.51,2.78,3.27,5.43,1.06,1.59,2.22,3.13.75,1,1.53,2,.94,1.17,1.94,2.3l.86,1q.93,1,1.9,2l.12.12,29.14,29.14,4.86,4.86,17,17a68.57,68.57,0,0,1,17.1,28.47l.08.28q.4,1.34.75,2.69t.64,2.72c.06.3.13.59.19.89q.49,2.47.81,5,.1.84.19,1.68.17,1.68.25,3.38t.08,3.4h0V1409h0a221.79,221.79,0,0,1-3.4,40.15h102.71l-.52-73.5A76.2,76.2,0,0,1-768,1321.25h0a76.2,76.2,0,0,0,22.32-53.88v-43.94a76.2,76.2,0,0,1,22.32-53.88l20.75-20.75a76.2,76.2,0,0,1,53.88-22.32h36.2A87.23,87.23,0,0,1-550.89,1152h0a87.23,87.23,0,0,0,61.68,25.55h7a87.23,87.23,0,0,1,61.68,25.55l7.88,7.88A87.23,87.23,0,0,0-351,1236.57h43.27a69.47,69.47,0,0,0,49.12-20.35l4.3-4.3a69.47,69.47,0,0,1,49.12-20.35h14.69a69.47,69.47,0,0,0,49.12-20.35h0a69.47,69.47,0,0,1,49.12-20.35h22.34A52.17,52.17,0,0,1-33,1166.16l42.41,42.41a52.17,52.17,0,0,1,15.28,36.89v31a52.17,52.17,0,0,1-15.28,36.89h0a52.17,52.17,0,0,0-15.28,36.89h0a111.08,111.08,0,0,0,32.54,78.55L47,1449.17H389.66L319,1374.32a212,212,0,0,1-21.82-263.85h0a125.92,125.92,0,0,1,89-36.88h0a125.92,125.92,0,0,1,89,36.88l19.13,19.13A81.47,81.47,0,0,0,552,1153.46h0A81.47,81.47,0,0,0,633.45,1072v-47.9a110.89,110.89,0,0,1,32.48-78.41h0a110.89,110.89,0,0,1,78.41-32.48H767a110.89,110.89,0,0,1,78.41,32.48l23.11,23.11a58.36,58.36,0,0,0,41.27,17.09h0A58.36,58.36,0,0,1,951,1003l17.18,17.18a58.36,58.36,0,0,0,41.27,17.09h59.88V950.1h-8a122.3,122.3,0,0,1-86.48-35.82h0a122.3,122.3,0,0,0-86.48-35.82H838.43a79.47,79.47,0,0,1-56.19-23.28L776.07,849q-2.38-2.38-4.52-4.93h-94l-.75,0-.37,0-.29,0a12.53,12.53,0,0,1-9.5-6.26h.14a12.93,12.93,0,0,1-1.77-6.51H762.7a79.46,79.46,0,0,1-9.9-38.4v-7.73a79.47,79.47,0,0,1,23.28-56.19h0a79.47,79.47,0,0,1,56.19-23.28h38.12a41.74,41.74,0,0,0,41.74-41.74h0a41.74,41.74,0,0,1,12.23-29.52L935.68,623a248.27,248.27,0,0,1,133.65-69.15V271.22l-41.79-41.79A88.5,88.5,0,0,0,965,203.51ZM-371,661.69h260.2A12.22,12.22,0,0,1-123,674H-358.71A12.27,12.27,0,0,1-371,661.69Zm-251.8-208.89h195.94a12.47,12.47,0,0,1-1.63,6.19h0a12.57,12.57,0,0,1-1.4,2l0,0a12.59,12.59,0,0,1-1.72,1.65l-.06.05a12.56,12.56,0,0,1-1.3.89l-.05,0-.61.34-.13.07-.66.31h0l-.72.28-.14,0-.58.18-.19.05-.69.17h-.05l-.75.13-.21,0-.58.06-.22,0-.78,0H-610.25l-.78,0-.22,0-.58-.06-.21,0-.75-.13h-.05l-.69-.17-.19-.05-.58-.18-.14,0-.72-.28h0l-.66-.31-.13-.07-.61-.34-.05,0a12.56,12.56,0,0,1-1.3-.89l-.06-.05a12.59,12.59,0,0,1-1.72-1.65l0,0a12.57,12.57,0,0,1-1.4-2h0a12.47,12.47,0,0,1-1.63-6.19ZM-625.06,652h0a12.13,12.13,0,0,1-12.11,12.27H-808.56A12.18,12.18,0,0,1-820.72,652h195.66ZM-899.55,413.28A12.27,12.27,0,0,1-911.82,401H-705.3a12.27,12.27,0,0,1-12.27,12.27Zm792.48,617.19a85.35,85.35,0,0,1-25,60.35h0a85.35,85.35,0,0,1-60.35,25h-18a85.35,85.35,0,0,0-60.35,25l-8.45,8.45a85.59,85.59,0,0,1-60.52,25.07h0a85.59,85.59,0,0,1-60.52-25.07l-1.26-1.26a85.59,85.59,0,0,0-60.52-25.07h-43.53a75.05,75.05,0,0,1-53.07-22h0a75.05,75.05,0,0,0-53.07-22h-25.75a75.05,75.05,0,0,0-53.07,22l-5.35,5.35A67.37,67.37,0,0,1-743.58,1126h-12.09a67.37,67.37,0,0,1-47.64-19.73l-28.43-28.43a67.37,67.37,0,0,1-19.73-47.64h0a67.37,67.37,0,0,1,19.73-47.64h0a101.94,101.94,0,0,0,29.86-72q0-.55,0-1.1a59.2,59.2,0,0,0-17.41-42l-.44-.44a57.55,57.55,0,0,1-16.86-40.76l.05-48.67a59.15,59.15,0,0,1,17.33-41.76h0a164.17,164.17,0,0,1,116.09-48.08h54.39a105.11,105.11,0,0,1,63.06,21l67.08,50.31a98.8,98.8,0,0,0,59.28,19.76h43.46A98.8,98.8,0,0,0-346,750h0a98.8,98.8,0,0,1,69.87-28.94h21.52A112.36,112.36,0,0,1-175.13,754h0a112.36,112.36,0,0,1,32.91,79.45v37.75a60,60,0,0,0,17.58,42.43h0A60,60,0,0,1-107.07,956ZM-4,602.36H-264.21a77.05,77.05,0,0,1-53.92-22l-27-26.42a77.05,77.05,0,0,1-23.13-55V435a77.05,77.05,0,0,1,22.57-54.49L-310,344.78a77.05,77.05,0,0,1,54.49-22.57h21.65a77.05,77.05,0,0,0,54.49-22.57l37.17-37.17A77.05,77.05,0,0,1-87.69,239.9h0A77.05,77.05,0,0,1-10.64,317v14.81a77.05,77.05,0,0,0,22.57,54.49l49.23,49.23A77.05,77.05,0,0,1,83.73,490v24.61a77.05,77.05,0,0,1-22.57,54.49L50.44,579.8A77.05,77.05,0,0,1-4,602.36ZM560.24,831.92a170,170,0,0,1-49.8,120.24l-11.78,11.78a129.83,129.83,0,0,1-91.8,38h0a122.27,122.27,0,0,1-86.46-35.81h0a122.27,122.27,0,0,0-86.46-35.81H186.48A122.27,122.27,0,0,1,100,894.52L58.1,852.6A50.28,50.28,0,0,1,43.37,817h0a50.29,50.29,0,0,1,22.5-41.91l48.61-32.23a90.92,90.92,0,0,1,97.63-1.82h0a90.92,90.92,0,0,0,93.08,1l93.12-54.14a97.26,97.26,0,0,1,51.34-13.15h0a97.26,97.26,0,0,1,83.06,50.91l15.78,29.14a97.26,97.26,0,0,1,11.74,46.32ZM878.94,563.36a12.42,12.42,0,0,1-12.42,12.42H693.86a12.42,12.42,0,0,1-12.42-12.42h197.5Z"/><path class="cls-4" d="M92.2,210.26h0a241.68,241.68,0,0,0,75.93,175.89l33.72,31.78a49.62,49.62,0,0,1,1.06,71.19h0a57.21,57.21,0,0,0-16.76,40.46h0A57.21,57.21,0,0,0,202.9,570l12.19,12.19A57.21,57.21,0,0,0,255.55,599H261a57.21,57.21,0,0,0,40.46-16.76h0a116.17,116.17,0,0,1,82.14-34h39.61a116.17,116.17,0,0,1,82.14,34l44.9,44.9A54.18,54.18,0,0,0,588.61,643h19.86a54.18,54.18,0,0,0,38.31-15.87h0a54.18,54.18,0,0,0,15.87-38.31v-64.9a82.36,82.36,0,0,1,24.12-58.24h0A82.36,82.36,0,0,1,745,441.55h43.74A83.8,83.8,0,0,0,848,417h0a83.8,83.8,0,0,0,24.54-59.26V292a88.5,88.5,0,0,1,25.92-62.58h0a88.5,88.5,0,0,1,62.58-25.92H965a88.5,88.5,0,0,1,62.58,25.92l41.79,41.79V77.61H41l.45.5A197.45,197.45,0,0,1,92.2,210.26Zm51.26,75.63-.78,0-.23,0-.56-.06-.24,0-.66-.11-.35-.08-.36-.09-.47-.13-.11,0a12.57,12.57,0,0,1-7.14-5.77h.16a12.76,12.76,0,0,1-1.58-6.19H331.34a12.7,12.7,0,0,1-1.59,6.19h.13a12.57,12.57,0,0,1-7.08,5.75l-.21.07-.4.12-.44.11-.25.06-.71.12-.23,0-.56.06-.23,0-.78,0ZM461.8,518.15H280.26a12.51,12.51,0,0,1-12.55-12.27H473.85A12.08,12.08,0,0,1,461.8,518.15ZM715.07,348H527.17c-6.78,0-12.74-5.49-12.74-12.27h210.1C724.54,342.53,721.85,348,715.07,348Z"/><path class="cls-1" d="M-665.61,235.42A435.72,435.72,0,0,0-498,268.76h35a142.92,142.92,0,0,1,55,10.93,142.92,142.92,0,0,1,46.6,31.14,142.93,142.93,0,0,1,31.14,46.6,142.92,142.92,0,0,1,10.93,55v55.3q0,5.7-.45,11.35H-97.93A83,83,0,0,0-66,472.69a83,83,0,0,0,27-18.07l29.3-29.3a93.95,93.95,0,0,1,66.43-27.52H77.08l-8.51-8.51A131.72,131.72,0,0,1,30,296.16V205a120.54,120.54,0,0,0-9.22-46.36A120.53,120.53,0,0,0-5.49,119.3L-43.37,81.43l3.82-3.82h-831l62.89,62.89A435.71,435.71,0,0,0-665.61,235.42Z"/><path class="cls-1" d="M30.54,154.55a131.07,131.07,0,0,1,10,50.41v91.2A121.14,121.14,0,0,0,76,381.82l16,16h11.89a83.37,83.37,0,0,0,59-24.42L181,355.3a93.95,93.95,0,0,1,66.43-27.52h79.55a83.37,83.37,0,0,0,59-24.42l22.43-22.43a93.95,93.95,0,0,1,66.43-27.52H643.49a83.37,83.37,0,0,0,59-24.42L853.83,77.61h-886L2,111.82A131.07,131.07,0,0,1,30.54,154.55Z"/><path class="cls-5" d="M675.4,247.06a83,83,0,0,1-31.9,6.35H474.77a93.95,93.95,0,0,0-66.43,27.52L385.9,303.36a83.37,83.37,0,0,1-59,24.42H247.4A93.95,93.95,0,0,0,181,355.3l-18.09,18.09a83.37,83.37,0,0,1-59,24.42H92l2.84,2.84q3.74,3.74,7.14,7.74h1.91a94,94,0,0,0,66.43-27.52l18.09-18.09a83.37,83.37,0,0,1,59-24.42h79.55a93.95,93.95,0,0,0,66.43-27.52l22.43-22.43a83.37,83.37,0,0,1,59-24.42H643.49a94,94,0,0,0,66.43-27.52L868.79,77.61h-15L702.44,229A83,83,0,0,1,675.4,247.06Z"/><path class="cls-5" d="M-5.49,119.3a120.53,120.53,0,0,1,26.26,39.3A120.54,120.54,0,0,1,30,205v91.2A131.72,131.72,0,0,0,68.57,389.3l8.51,8.51L87.4,408.13l.25.26a120.53,120.53,0,0,1,26,39,120.54,120.54,0,0,1,9.22,46.36,131.06,131.06,0,0,0,22.5,73.65,129.69,129.69,0,0,0,54.05,45.51,132.67,132.67,0,0,0,69.9,10.9l107.14-12.35a199.49,199.49,0,0,1,67.4,3.67q4.37,1,8.69,2.19h19.93a68.1,68.1,0,0,0,9.92-.72A210.2,210.2,0,0,0,375.25,601L268.11,613.33a122.08,122.08,0,0,1-64.32-10,119.11,119.11,0,0,1-49.65-41.79,120.52,120.52,0,0,1-20.69-67.73A131.7,131.7,0,0,0,102,408.39q-3.41-4-7.14-7.74L92,397.81l-16-16a121.14,121.14,0,0,1-35.48-85.66V205a131.07,131.07,0,0,0-10-50.41A131.07,131.07,0,0,0,2,111.82L-32.22,77.61h-7.33l-3.82,3.82Z"/></g><circle class="cls-6" cx="50" cy="50" r="50"/><line class="cls-7" x1="9.5" y1="48.13" x2="9.5" y2="63.81"/><path class="cls-8" d="M14.47,41.68a5.63,5.63,0,0,0-1.8-7.27,3.61,3.61,0,1,0-6.28,0A5.63,5.63,0,0,0,4.53,41.7a7.28,7.28,0,1,0,9.94,0Z"/><path id="bush" class="cls-8" d="M5.47,61.32a2.46,2.46,0,0,1,1.81.8A2.22,2.22,0,0,1,10.15,61a3.09,3.09,0,0,1,6,.47,3.09,3.09,0,0,1,4.3,2.34H2.94A2.53,2.53,0,0,1,5.47,61.32Z"/><polygon class="cls-9" points="50.15 34.13 32.73 34.13 32.73 44.17 30.63 45.38 32.73 45.38 50.15 45.38 69.67 45.38 50.15 34.13"/><rect id="Front_wall" data-name="Front wall" class="cls-10" x="13.21" y="45.38" width="39.04" height="18.42"/><rect class="cls-11" x="13.21" y="59.96" width="39.04" height="3.84"/><g id="Side"><rect class="cls-12" x="52.25" y="45.38" width="17.42" height="18.42"/></g><g id="brick_wall" data-name="brick wall"><polygon class="cls-12" points="62.33 61.68 57.29 61.68 52.25 61.68 52.25 61.69 64.85 61.69 64.85 61.68 62.33 61.68"/><polygon class="cls-12" points="57.29 47.97 57.29 46.87 52.25 46.87 52.25 47.97 54.78 47.97 57.29 47.97"/><polygon class="cls-12" points="59.83 47.97 62.33 47.97 62.33 46.87 57.29 46.87 57.29 47.97 59.83 47.97"/><rect class="cls-12" x="62.33" y="46.87" width="2.52" height="1.1"/><polygon class="cls-12" points="57.29 51.42 57.29 49.7 54.78 49.7 52.25 49.7 52.25 51.42 54.78 51.42 57.29 51.42"/><polygon class="cls-12" points="62.33 51.42 62.33 49.7 59.83 49.7 57.29 49.7 57.29 51.42 59.83 51.42 62.33 51.42"/><rect class="cls-12" x="62.33" y="49.69" width="2.52" height="1.73"/><rect class="cls-13" x="52.25" y="47.97" width="2.53" height="1.73"/><polygon class="cls-12" points="59.83 47.97 57.29 47.97 54.78 47.97 54.78 49.7 57.29 49.7 59.83 49.7 59.83 47.97"/><polygon class="cls-12" points="59.83 47.97 59.83 49.7 62.33 49.7 64.85 49.7 64.85 47.97 62.33 47.97 59.83 47.97"/><polygon class="cls-12" points="57.29 54.88 57.29 53.15 54.78 53.15 52.25 53.15 52.25 54.88 54.78 54.88 57.29 54.88"/><polygon class="cls-12" points="62.33 54.88 62.33 53.15 59.83 53.15 57.29 53.15 57.29 54.88 59.83 54.88 62.33 54.88"/><rect class="cls-12" x="62.33" y="53.15" width="2.52" height="1.73"/><rect class="cls-12" x="52.25" y="54.88" width="2.53" height="1.73"/><rect class="cls-12" x="49.66" y="47.98" width="2.59" height="1.73"/><rect class="cls-12" x="49.66" y="58.23" width="2.59" height="1.73"/><polygon class="cls-12" points="59.83 51.42 57.29 51.42 54.78 51.42 54.78 53.15 57.29 53.15 59.83 53.15 59.83 51.42"/><polygon class="cls-12" points="59.83 51.42 59.83 53.15 62.33 53.15 64.85 53.15 64.85 51.42 62.33 51.42 59.83 51.42"/><polygon class="cls-13" points="57.29 58.22 57.29 56.61 54.78 56.61 52.25 56.61 52.25 58.22 54.78 58.22 57.29 58.22"/><polygon class="cls-12" points="62.33 58.22 62.33 56.61 59.83 56.61 57.29 56.61 57.29 58.22 59.83 58.22 62.33 58.22"/><rect class="cls-12" x="62.33" y="56.61" width="2.52" height="1.61"/><rect class="cls-13" x="52.25" y="54.88" width="2.53" height="1.73"/><polygon class="cls-12" points="59.83 54.88 57.29 54.88 54.78 54.88 54.78 56.61 57.29 56.61 59.83 56.61 59.83 54.88"/><polygon class="cls-12" points="59.83 54.88 59.83 56.61 62.33 56.61 64.85 56.61 64.85 54.88 62.33 54.88 59.83 54.88"/><polygon class="cls-12" points="57.29 59.95 54.78 59.95 52.25 59.95 52.25 61.68 57.29 61.68 57.29 59.95"/><polygon class="cls-12" points="59.83 59.95 57.29 59.95 57.29 61.68 62.33 61.68 62.33 59.95 59.83 59.95"/><rect class="cls-12" x="62.33" y="59.95" width="2.52" height="1.73"/><polygon class="cls-13" points="54.78 58.22 52.25 58.22 52.25 58.34 52.25 59.95 54.78 59.95 54.78 58.22"/><polygon class="cls-12" points="59.83 58.22 57.29 58.22 54.78 58.22 54.78 59.95 57.29 59.95 59.83 59.95 59.83 58.22"/><polygon class="cls-12" points="59.83 58.22 59.83 59.95 62.33 59.95 64.85 59.95 64.85 58.22 62.33 58.22 59.83 58.22"/></g><g id="Door"><rect class="cls-14" x="30.63" y="48.47" width="6.18" height="11.49"/><rect class="cls-15" x="30.66" y="48.51" width="6.17" height="2.46"/><rect class="cls-15" x="24.89" y="54.22" width="13.96" height="2.47" transform="translate(-23.59 87.32) rotate(-90)"/></g><g id="stairs"><rect class="cls-16" x="34.38" y="59.96" width="2.46" height="3.84"/><rect class="cls-17" x="29.13" y="59.96" width="6.43" height="1.93"/><rect class="cls-16" x="27.95" y="61.89" width="6.43" height="1.92"/><rect class="cls-17" x="27.95" y="62.55" width="6.43" height="1.25"/></g><g id="window"><rect class="cls-14" x="18.65" y="49.59" width="4.94" height="7.04"/><rect class="cls-15" x="18.65" y="49.59" width="4.94" height="2.47"/></g><g id="window-2" data-name="window"><rect class="cls-14" x="43.21" y="49.6" width="4.98" height="7.06"/><rect class="cls-15" x="43.23" y="49.59" width="4.94" height="2.47"/></g><rect class="cls-17" x="52.25" y="59.96" width="17.42" height="3.84"/><polygon class="cls-18" points="13.21 45.38 52.25 45.38 32.73 34.13 13.21 45.38"/><rect class="cls-11" x="13.21" y="45.38" width="39.04" height="1.61"/><rect class="cls-17" x="52.25" y="45.38" width="17.42" height="1.61"/><g id="Garage"><polygon class="cls-17" points="81.69 43.42 69.08 43.42 69.05 48.97 72.15 48.97 81.66 48.97 91.28 48.97 91.29 48.96 81.69 43.42"/><rect id="Front_wall-2" data-name="Front wall" class="cls-10" x="59.54" y="48.97" width="19.15" height="14.84"/><g id="Side-2" data-name="Side"><rect class="cls-12" x="78.69" y="48.97" width="12.6" height="14.84"/></g><g id="brick_wall-2" data-name="brick wall"><polygon class="cls-12" points="83.73 50.07 83.73 48.97 78.69 48.97 78.69 50.07 81.22 50.07 83.73 50.07"/><polygon class="cls-12" points="86.26 50.07 88.77 50.07 88.77 48.97 83.73 48.97 83.73 50.07 86.26 50.07"/><rect class="cls-12" x="88.77" y="48.97" width="2.52" height="1.1"/><polygon class="cls-12" points="83.73 53.52 83.73 51.8 81.22 51.8 78.69 51.8 78.69 53.52 81.22 53.52 83.73 53.52"/><polygon class="cls-12" points="88.77 53.52 88.77 51.8 86.26 51.8 83.73 51.8 83.73 53.52 86.26 53.52 88.77 53.52"/><rect class="cls-13" x="88.77" y="51.8" width="2.52" height="1.73"/><rect class="cls-12" x="78.69" y="50.07" width="2.53" height="1.73"/><polygon class="cls-12" points="86.26 50.07 83.73 50.07 81.22 50.07 81.22 51.8 83.73 51.8 86.26 51.8 86.26 50.07"/><polygon class="cls-13" points="86.26 50.07 86.26 51.8 88.77 51.8 91.29 51.8 91.29 50.07 88.77 50.07 86.26 50.07"/><polygon class="cls-13" points="83.73 56.98 83.73 55.25 81.22 55.25 78.69 55.25 78.69 56.98 81.22 56.98 83.73 56.98"/><polygon class="cls-12" points="88.77 56.98 88.77 55.25 86.26 55.25 83.73 55.25 83.73 56.98 86.26 56.98 88.77 56.98"/><rect class="cls-12" x="88.77" y="55.25" width="2.52" height="1.73"/><rect class="cls-13" x="78.69" y="56.98" width="2.53" height="1.73"/><rect class="cls-12" x="76.1" y="57" width="2.59" height="1.73"/><polygon class="cls-12" points="86.26 53.52 83.73 53.52 81.22 53.52 81.22 55.25 83.73 55.25 86.26 55.25 86.26 53.52"/><polygon class="cls-12" points="86.26 53.52 86.26 55.25 88.77 55.25 91.29 55.25 91.29 53.52 88.77 53.52 86.26 53.52"/><polygon class="cls-12" points="83.73 60.32 83.73 58.71 81.22 58.71 78.69 58.71 78.69 60.32 81.22 60.32 83.73 60.32"/><polygon class="cls-12" points="88.77 60.32 88.77 58.71 86.26 58.71 83.73 58.71 83.73 60.32 86.26 60.32 88.77 60.32"/><rect class="cls-13" x="88.77" y="58.71" width="2.52" height="1.61"/><rect class="cls-13" x="78.69" y="56.98" width="2.53" height="1.73"/><polygon class="cls-12" points="86.26 56.98 83.73 56.98 81.22 56.98 81.22 58.71 83.73 58.71 86.26 58.71 86.26 56.98"/><polygon class="cls-12" points="86.26 56.98 86.26 58.71 88.77 58.71 91.29 58.71 91.29 56.98 88.77 56.98 86.26 56.98"/><polygon class="cls-12" points="83.73 62.05 81.22 62.05 78.69 62.05 78.69 63.81 83.73 63.81 83.73 62.05"/><polygon class="cls-12" points="86.26 62.05 83.73 62.05 83.73 63.81 88.77 63.81 88.77 62.05 86.26 62.05"/><rect class="cls-12" x="88.77" y="62.05" width="2.52" height="1.76"/><polygon class="cls-12" points="81.22 60.32 78.69 60.32 78.69 60.44 78.69 62.05 81.22 62.05 81.22 60.32"/><polygon class="cls-12" points="86.26 60.32 83.73 60.32 81.22 60.32 81.22 62.05 83.73 62.05 86.26 62.05 86.26 60.32"/><polygon class="cls-13" points="86.26 60.32 86.26 62.05 88.77 62.05 91.29 62.05 91.29 60.32 88.77 60.32 86.26 60.32"/></g><g id="garage_door" data-name="garage door"><rect class="cls-14" x="62.88" y="52.3" width="12.35" height="11.5"/><rect class="cls-15" x="62.88" y="52.3" width="12.35" height="2.47"/><rect class="cls-15" x="58.36" y="56.82" width="11.5" height="2.47" transform="translate(6.06 122.17) rotate(-90)"/></g><polygon class="cls-11" points="69.08 43.42 59.54 48.96 59.55 48.97 78.68 48.97 78.69 48.96 69.08 43.42"/><g id="garage_door_8_rows" data-name="garage door 8 rows"><rect class="cls-15" x="62.88" y="52.3" width="12.35" height="1.44"/><rect class="cls-14" x="62.88" y="53.74" width="12.35" height="1.44"/><rect class="cls-15" x="62.88" y="55.18" width="12.35" height="1.44"/><rect class="cls-14" x="62.88" y="56.61" width="12.35" height="1.44"/><rect class="cls-15" x="62.88" y="58.05" width="12.35" height="1.44"/><rect class="cls-14" x="62.88" y="59.48" width="12.35" height="1.44"/><rect class="cls-15" x="62.88" y="60.92" width="12.35" height="1.44"/><rect class="cls-14" x="62.88" y="62.36" width="12.35" height="1.45"/><rect class="cls-15" x="62.88" y="52.3" width="1.48" height="11.5"/></g></g><path id="bush-2" data-name="bush" class="cls-8" d="M90.92,60a2.72,2.72,0,0,0-2.62,2,2.72,2.72,0,0,0-3.85,1.83H97.59a2.59,2.59,0,0,0-2.47-1.87,2.7,2.7,0,0,0-1.5.45A2.72,2.72,0,0,0,90.92,60Z"/><polygon class="cls-19" points="44.96 63.81 42.62 63.81 43.79 61.45 44.96 63.81"/><polygon class="cls-19" points="47.31 63.81 44.96 63.81 46.14 61.45 47.31 63.81"/><polygon class="cls-19" points="49.66 63.81 47.31 63.81 48.48 61.45 49.66 63.81"/><polygon class="cls-19" points="11.85 63.81 9.51 63.81 10.68 61.51 11.85 63.81"/><polygon class="cls-19" points="15.8 63.81 13.46 63.81 14.63 61.51 15.8 63.81"/><polygon class="cls-19" points="18.15 63.81 15.8 63.81 16.98 61.51 18.15 63.81"/></svg>