<svg id="Layer_1" data-name="Layer 1" xmlns="http://www.w3.org/2000/svg" xmlns:xlink="http://www.w3.org/1999/xlink" width="100" height="100" viewBox="0 0 100 100"><defs><style>.cls-1,.cls-12,.cls-13{fill:none;}.cls-2{clip-path:url(#clip-path);}.cls-3{fill:#afcc69;}.cls-4{fill:#85ba5d;}.cls-5{fill:#f2f2f2;}.cls-6{fill:#ecedf0;}.cls-7{fill:#4d4d4d;}.cls-8{fill:#666;}.cls-9{fill:#ccc;}.cls-10{fill:#fff;}.cls-11{fill:#b3b3b3;}.cls-12{stroke:#666;}.cls-12,.cls-13{stroke-miterlimit:10;stroke-width:1.32px;}.cls-13{stroke:#4d4d4d;}.cls-14{fill:#465a8c;}.cls-15{fill:#312766;}</style><clipPath id="clip-path"><rect class="cls-1" x="168.31" y="275.59" width="886.67" height="430.57"/></clipPath></defs><title>nav-4</title><g class="cls-2"><path class="cls-3" d="M960.55,94.64h-3.92A88.5,88.5,0,0,0,894,120.56h0a88.5,88.5,0,0,0-25.92,62.58v65.74a83.8,83.8,0,0,1-24.54,59.26h0a83.8,83.8,0,0,1-59.26,24.54H740.58a82.36,82.36,0,0,0-58.24,24.12h0A82.36,82.36,0,0,0,658.23,415v64.9a54.18,54.18,0,0,1-15.87,38.31h0A54.18,54.18,0,0,1,604,534.12H584.18a54.18,54.18,0,0,1-38.31-15.87L501,473.35a116.17,116.17,0,0,0-82.14-34H379.22a116.17,116.17,0,0,0-82.14,34h0a57.21,57.21,0,0,1-40.46,16.76h-5.5a57.21,57.21,0,0,1-40.46-16.76l-12.19-12.19a57.21,57.21,0,0,1-16.76-40.46h0a57.21,57.21,0,0,1,16.76-40.46h0a49.62,49.62,0,0,0-1.06-71.19L163.7,277.28A241.68,241.68,0,0,1,87.77,101.4h0A197.45,197.45,0,0,0,37-30.76H-253a89.59,89.59,0,0,1,21.84,58.61h0A89.59,89.59,0,0,1-257.4,91.21l-20.89,20.89a89.59,89.59,0,0,1-63.35,26.24h-25.73a91.21,91.21,0,0,1-64.49-26.71h0a91.21,91.21,0,0,0-64.49-26.71h-85.37a102.68,102.68,0,0,1-72.6-30.07l-4-4a102.68,102.68,0,0,0-72.6-30.07h0a102.68,102.68,0,0,1-72.6-30.07L-825-30.76h-426.86l64.13,64.13a68.58,68.58,0,0,1,17.12,28.55q.73,2.4,1.29,4.86.37,1.64.66,3.3a68.56,68.56,0,0,1,.94,8.39q.08,1.7.08,3.4h0v45.58h10.26A114.68,114.68,0,0,1-1076.27,161l10.05,10.05a114.68,114.68,0,0,1,33.59,81.09h0A114.68,114.68,0,0,0-999,333.27l11.64,11.64A114.68,114.68,0,0,1-953.8,426v57.84a64.17,64.17,0,0,1-18.8,45.38l-8.27,8.27a64.17,64.17,0,0,0-18.8,45.38h0a64.17,64.17,0,0,0,18.8,45.38l5.28,5.28a64.17,64.17,0,0,1,18.8,45.38v77.27a74.88,74.88,0,0,0,21.93,53h0a74.88,74.88,0,0,1,21.93,53h0a242.18,242.18,0,0,1-70.93,171.25h0c-.29.29-.58.56-.88.84v2.73q0,.85,0,1.7,0,1.7.17,3.39a68.55,68.55,0,0,0,1.29,9q.35,1.68.79,3.34.24.9.5,1.79.18.63.38,1.26.6,1.9,1.3,3.76.47,1.24,1,2.47.34.8.7,1.59c.37.83.76,1.65,1.17,2.46.31.61.62,1.21.95,1.81q1.51,2.78,3.27,5.43,1.06,1.59,2.22,3.13.75,1,1.53,2,.94,1.17,1.94,2.3l.86,1q.93,1,1.9,2l.12.12,29.14,29.14,4.86,4.86,17,17a68.57,68.57,0,0,1,17.1,28.47l.08.28q.4,1.34.75,2.69t.64,2.72c.06.3.13.59.19.89q.49,2.47.81,5,.1.84.19,1.68.17,1.68.25,3.38t.08,3.4h0v115.28h0a221.79,221.79,0,0,1-3.4,40.15h102.71l-.52-73.5a76.2,76.2,0,0,1,22.32-54.42h0a76.2,76.2,0,0,0,22.32-53.88v-43.94a76.2,76.2,0,0,1,22.32-53.88l20.75-20.75a76.2,76.2,0,0,1,53.88-22.32H-617a87.23,87.23,0,0,1,61.68,25.55h0a87.23,87.23,0,0,0,61.68,25.55h7A87.23,87.23,0,0,1-425,1094.27l7.88,7.88a87.23,87.23,0,0,0,61.68,25.55h43.27A69.47,69.47,0,0,0-263,1107.35l4.3-4.3a69.47,69.47,0,0,1,49.12-20.35h14.69a69.47,69.47,0,0,0,49.12-20.35h0A69.47,69.47,0,0,1-96.68,1042h22.34a52.17,52.17,0,0,1,36.89,15.28L5,1099.7a52.17,52.17,0,0,1,15.28,36.89v31A52.17,52.17,0,0,1,5,1204.5H5a52.17,52.17,0,0,0-15.28,36.89h0a111.08,111.08,0,0,0,32.54,78.55l20.36,20.36H385.23l-70.67-74.84a212,212,0,0,1-21.82-263.85h0a125.92,125.92,0,0,1,89-36.88h0a125.92,125.92,0,0,1,89,36.88L490,1020.73a81.47,81.47,0,0,0,57.61,23.86h0A81.47,81.47,0,0,0,629,963.13v-47.9a110.89,110.89,0,0,1,32.48-78.41h0a110.89,110.89,0,0,1,78.41-32.48h22.61a110.89,110.89,0,0,1,78.41,32.48L864,859.92A58.36,58.36,0,0,0,905.32,877h0a58.36,58.36,0,0,1,41.27,17.09l17.18,17.18A58.36,58.36,0,0,0,1005,928.38h59.88V841.23h-8a122.3,122.3,0,0,1-86.48-35.82h0a122.3,122.3,0,0,0-86.48-35.82H834a79.47,79.47,0,0,1-56.19-23.28l-6.17-6.17q-2.38-2.38-4.52-4.93h-94l-.75,0-.37,0-.29,0a12.53,12.53,0,0,1-9.5-6.26h.14a12.93,12.93,0,0,1-1.77-6.51h97.71a79.46,79.46,0,0,1-9.9-38.4v-7.73A79.47,79.47,0,0,1,771.64,620h0a79.47,79.47,0,0,1,56.19-23.28H866A41.74,41.74,0,0,0,907.7,555h0a41.74,41.74,0,0,1,12.23-29.52l11.33-11.33A248.27,248.27,0,0,1,1064.91,445V162.35l-41.79-41.79A88.5,88.5,0,0,0,960.55,94.64Zm-1336,458.18h260.2a12.22,12.22,0,0,1-12.21,12.27H-363.14a12.27,12.27,0,0,1-12.27-12.27Zm-251.8-208.89h195.94a12.47,12.47,0,0,1-1.63,6.19h0a12.57,12.57,0,0,1-1.4,2l0,0a12.59,12.59,0,0,1-1.72,1.65l-.06.05a12.56,12.56,0,0,1-1.3.89l-.05,0-.61.34-.13.07-.66.31h0l-.72.28-.14,0-.58.18-.19.05-.69.17h-.05l-.75.13-.21,0-.58.06-.22,0-.78,0H-614.67l-.78,0-.22,0-.58-.06-.21,0-.75-.13h-.05L-618,356l-.19-.05-.58-.18-.14,0-.72-.28h0l-.66-.31-.13-.07-.61-.34-.05,0a12.56,12.56,0,0,1-1.3-.89l-.06-.05a12.59,12.59,0,0,1-1.72-1.65l0,0a12.57,12.57,0,0,1-1.4-2h0a12.47,12.47,0,0,1-1.63-6.19Zm-2.28,199.16h0a12.13,12.13,0,0,1-12.11,12.27H-813a12.18,12.18,0,0,1-12.16-12.27h195.66ZM-904,304.41a12.27,12.27,0,0,1-12.27-12.27h206.52A12.27,12.27,0,0,1-722,304.41ZM-111.49,921.6a85.35,85.35,0,0,1-25,60.35h0a85.35,85.35,0,0,1-60.35,25h-18a85.35,85.35,0,0,0-60.35,25l-8.45,8.45a85.59,85.59,0,0,1-60.52,25.07h0a85.59,85.59,0,0,1-60.52-25.07l-1.26-1.26a85.59,85.59,0,0,0-60.52-25.07H-510a75.05,75.05,0,0,1-53.07-22h0a75.05,75.05,0,0,0-53.07-22h-25.75a75.05,75.05,0,0,0-53.07,22l-5.35,5.35A67.37,67.37,0,0,1-748,1017.17h-12.09a67.37,67.37,0,0,1-47.64-19.73L-836.16,969a67.37,67.37,0,0,1-19.73-47.64h0a67.37,67.37,0,0,1,19.73-47.64h0a101.94,101.94,0,0,0,29.86-72q0-.55,0-1.1a59.2,59.2,0,0,0-17.41-42l-.44-.44A57.55,57.55,0,0,1-841,717.5l.05-48.67a59.15,59.15,0,0,1,17.33-41.76h0A164.17,164.17,0,0,1-707.53,579h54.39a105.11,105.11,0,0,1,63.06,21L-523,650.31a98.8,98.8,0,0,0,59.28,19.76h43.46a98.8,98.8,0,0,0,69.87-28.94h0a98.8,98.8,0,0,1,69.87-28.94H-259a112.36,112.36,0,0,1,79.45,32.91h0a112.36,112.36,0,0,1,32.91,79.45V762.3a60,60,0,0,0,17.58,42.43h0a60,60,0,0,1,17.58,42.43Zm103-428.1H-268.64a77.05,77.05,0,0,1-53.92-22l-27-26.42a77.05,77.05,0,0,1-23.13-55V326.09a77.05,77.05,0,0,1,22.57-54.49l35.69-35.69a77.05,77.05,0,0,1,54.49-22.57h21.65a77.05,77.05,0,0,0,54.49-22.57l37.17-37.17A77.05,77.05,0,0,1-92.12,131h0a77.05,77.05,0,0,1,77.05,77.05V222.9A77.05,77.05,0,0,0,7.5,277.39l49.23,49.23a77.05,77.05,0,0,1,22.57,54.49v24.61A77.05,77.05,0,0,1,56.74,460.2L46,470.93A77.05,77.05,0,0,1-8.47,493.5ZM555.82,723.05A170,170,0,0,1,506,843.29l-11.78,11.78a129.83,129.83,0,0,1-91.8,38h0A122.27,122.27,0,0,1,316,857.28h0a122.27,122.27,0,0,0-86.46-35.81H182.06A122.27,122.27,0,0,1,95.6,785.66L53.67,743.73a50.28,50.28,0,0,1-14.73-35.56h0a50.29,50.29,0,0,1,22.5-41.91L110,634a90.92,90.92,0,0,1,97.63-1.82h0a90.92,90.92,0,0,0,93.08,1l93.12-54.14a97.26,97.26,0,0,1,51.34-13.15h0a97.26,97.26,0,0,1,83.06,50.91L544.08,646a97.26,97.26,0,0,1,11.74,46.32ZM874.51,454.49a12.42,12.42,0,0,1-12.42,12.42H689.44A12.42,12.42,0,0,1,677,454.49h197.5Z"/><path class="cls-4" d="M87.77,101.4h0A241.68,241.68,0,0,0,163.7,277.28l33.72,31.78a49.62,49.62,0,0,1,1.06,71.19h0a57.21,57.21,0,0,0-16.76,40.46h0a57.21,57.21,0,0,0,16.76,40.46l12.19,12.19a57.21,57.21,0,0,0,40.46,16.76h5.5a57.21,57.21,0,0,0,40.46-16.76h0a116.17,116.17,0,0,1,82.14-34h39.61a116.17,116.17,0,0,1,82.14,34l44.9,44.9a54.18,54.18,0,0,0,38.31,15.87H604a54.18,54.18,0,0,0,38.31-15.87h0a54.18,54.18,0,0,0,15.87-38.31V415a82.36,82.36,0,0,1,24.12-58.24h0a82.36,82.36,0,0,1,58.24-24.12h43.74a83.8,83.8,0,0,0,59.26-24.54h0a83.8,83.8,0,0,0,24.54-59.26V183.14A88.5,88.5,0,0,1,894,120.56h0a88.5,88.5,0,0,1,62.58-25.92h3.92a88.5,88.5,0,0,1,62.58,25.92l41.79,41.79V-31.26H36.57l.45.5A197.45,197.45,0,0,1,87.77,101.4ZM139,177l-.78,0-.23,0-.56-.06-.24,0-.66-.11-.35-.08-.36-.09-.47-.13-.11,0a12.57,12.57,0,0,1-7.14-5.77h.16a12.76,12.76,0,0,1-1.58-6.19H326.92a12.7,12.7,0,0,1-1.59,6.19h.13a12.57,12.57,0,0,1-7.08,5.75l-.21.07-.4.12-.44.11-.25.06-.71.12-.23,0-.56.06-.23,0-.78,0ZM457.38,409.28H275.83A12.51,12.51,0,0,1,263.28,397H469.43A12.08,12.08,0,0,1,457.38,409.28ZM710.64,239.16H522.74c-6.78,0-12.74-5.49-12.74-12.27h210.1C720.11,233.67,717.42,239.16,710.64,239.16Z"/><path class="cls-1" d="M-670,126.56a435.72,435.72,0,0,0,167.57,33.33h35a142.92,142.92,0,0,1,55,10.93A142.92,142.92,0,0,1-365.85,202a142.93,142.93,0,0,1,31.14,46.6,142.92,142.92,0,0,1,10.93,55v55.3q0,5.7-.45,11.35h221.87a83,83,0,0,0,31.9-6.35,83,83,0,0,0,27-18.07l29.3-29.3a93.95,93.95,0,0,1,66.43-27.52H72.65l-8.51-8.51a131.72,131.72,0,0,1-38.58-93.14V96.09a120.54,120.54,0,0,0-9.22-46.36A120.53,120.53,0,0,0-9.92,10.43L-47.79-27.44-44-31.26H-875l62.89,62.89A435.71,435.71,0,0,0-670,126.56Z"/><path class="cls-1" d="M675,148a93.48,93.48,0,0,1-36,7.15H470.34a83.37,83.37,0,0,0-59,24.42L389,202a93.95,93.95,0,0,1-66.43,27.52H243a83.37,83.37,0,0,0-59,24.42L165.93,272A94,94,0,0,1,99.5,299.52H97.59a131,131,0,0,1,21.41,35,131.07,131.07,0,0,1,10,50.41,120.52,120.52,0,0,0,20.69,67.73,119.11,119.11,0,0,0,49.65,41.79,122.08,122.08,0,0,0,64.32,10l107.14-12.35A210.2,210.2,0,0,1,478,507.75a66.63,66.63,0,0,0,37.55-18.94l13.59-13.59a66.69,66.69,0,0,0,19.66-47.47V407.2a77.2,77.2,0,0,1,22.76-55l35.15-35.15a77.21,77.21,0,0,1,55-22.76H720.7a66.69,66.69,0,0,0,47.47-19.66l35.37-35.37a77.21,77.21,0,0,1,55-22.76h96.23a66.69,66.69,0,0,0,47.47-19.66l62.72-62.72V-31.26H864.36L705.5,127.61A93.48,93.48,0,0,1,675,148Z"/><path class="cls-1" d="M26.11,45.69a131.07,131.07,0,0,1,10,50.41v91.2A121.14,121.14,0,0,0,71.62,273l16,16H99.5a83.37,83.37,0,0,0,59-24.42l18.09-18.09A93.95,93.95,0,0,1,243,218.91h79.55a83.37,83.37,0,0,0,59-24.42l22.43-22.43a93.95,93.95,0,0,1,66.43-27.52H639.07a83.37,83.37,0,0,0,59-24.42L849.4-31.26h-886L-2.44,3A131.07,131.07,0,0,1,26.11,45.69Z"/><path class="cls-5" d="M671,138.2a83,83,0,0,1-31.9,6.35H470.34a93.95,93.95,0,0,0-66.43,27.52L381.47,194.5a83.37,83.37,0,0,1-59,24.42H243a93.95,93.95,0,0,0-66.43,27.52l-18.09,18.09a83.37,83.37,0,0,1-59,24.42H87.61l2.84,2.84q3.74,3.74,7.14,7.74H99.5A94,94,0,0,0,165.93,272L184,253.91a83.37,83.37,0,0,1,59-24.42h79.55A93.95,93.95,0,0,0,389,202l22.43-22.43a83.37,83.37,0,0,1,59-24.42H639.07a94,94,0,0,0,66.43-27.52L864.36-31.26h-15L698,120.13A83,83,0,0,1,671,138.2Z"/><path class="cls-5" d="M-9.92,10.43a120.53,120.53,0,0,1,26.26,39.3,120.54,120.54,0,0,1,9.22,46.36v91.2a131.72,131.72,0,0,0,38.58,93.14l8.51,8.51L83,299.26l.25.26a120.53,120.53,0,0,1,26,39,120.54,120.54,0,0,1,9.22,46.36,131.06,131.06,0,0,0,22.5,73.65A129.69,129.69,0,0,0,195,504.08,132.67,132.67,0,0,0,264.9,515L372,502.62a199.49,199.49,0,0,1,67.4,3.67q4.37,1,8.69,2.19h19.93a68.1,68.1,0,0,0,9.92-.72,210.2,210.2,0,0,0-107.15-15.64L263.68,504.46a122.08,122.08,0,0,1-64.32-10,119.11,119.11,0,0,1-49.65-41.79A120.52,120.52,0,0,1,129,384.92a131.07,131.07,0,0,0-10-50.41,131,131,0,0,0-21.41-35q-3.41-4-7.14-7.74l-2.84-2.84-16-16a121.14,121.14,0,0,1-35.48-85.66V96.09a131.07,131.07,0,0,0-10-50.41A131.07,131.07,0,0,0-2.44,3L-36.65-31.26H-44l-3.82,3.82Z"/></g><circle class="cls-6" cx="50" cy="50" r="50"/><polygon class="cls-7" points="83.97 40.13 77.96 40.13 67.67 46.06 67.68 46.06 94.24 46.06 94.25 46.06 83.97 40.13"/><polygon class="cls-8" points="77.99 40.13 15.68 40.13 5.4 46.06 5.41 46.06 67.67 46.06 77.99 40.13"/><polygon class="cls-9" points="94.25 64.43 67.67 64.43 67.67 46.06 94.23 46.05 94.25 64.43"/><rect class="cls-10" x="5.38" y="46.06" width="31.14" height="18.37"/><rect class="cls-10" x="37.08" y="46.06" width="31.14" height="18.37"/><g id="_60_degree_roof" data-name="60 degree roof"><polygon class="cls-8" points="18.75 38.39 5.46 46.06 67.67 46.06 80.99 38.41 80.95 38.39 18.75 38.39"/></g><polygon class="cls-7" points="80.95 38.39 81.01 38.39 67.67 46.06 67.67 47.91 94.25 47.9 94.23 46.05 80.95 38.39"/><g id="_60_degree_roof-2" data-name="60 degree roof"><polygon class="cls-9" points="81.03 40.24 67.67 47.91 67.67 64.43 94.25 64.43 94.25 47.9 81.03 40.24"/></g><polygon class="cls-9" points="67.67 47.91 72.99 47.9 72.99 49.75 67.67 49.75 67.67 47.91"/><rect class="cls-9" x="72.99" y="47.9" width="5.32" height="1.85"/><rect class="cls-9" x="78.31" y="47.9" width="5.32" height="1.85"/><rect class="cls-11" x="83.62" y="47.9" width="5.32" height="1.85"/><rect class="cls-9" x="88.94" y="47.9" width="5.31" height="1.85"/><rect class="cls-11" x="75.66" y="46.05" width="5.32" height="1.85"/><rect class="cls-9" x="80.98" y="46.05" width="5.32" height="1.85"/><rect class="cls-9" x="67.68" y="51.6" width="5.32" height="1.85"/><rect class="cls-9" x="72.99" y="51.6" width="5.32" height="1.85"/><rect class="cls-9" x="78.31" y="51.6" width="5.32" height="1.85"/><rect class="cls-9" x="83.62" y="51.6" width="5.32" height="1.85"/><rect class="cls-9" x="88.94" y="51.6" width="5.32" height="1.85"/><rect class="cls-11" x="67.68" y="49.75" width="2.67" height="1.85"/><rect class="cls-9" x="70.35" y="49.75" width="5.32" height="1.85"/><rect class="cls-9" x="75.66" y="49.75" width="5.32" height="1.85"/><rect class="cls-11" x="80.98" y="49.75" width="5.32" height="1.85"/><rect class="cls-9" x="91.56" y="49.75" width="2.7" height="1.85"/><rect class="cls-11" x="86.29" y="49.75" width="5.32" height="1.85"/><rect class="cls-11" x="67.68" y="55.3" width="5.32" height="1.85"/><rect class="cls-9" x="72.99" y="55.3" width="5.32" height="1.85"/><rect class="cls-9" x="78.31" y="55.3" width="5.32" height="1.85"/><rect class="cls-9" x="83.62" y="55.3" width="5.32" height="1.85"/><rect class="cls-11" x="88.94" y="55.3" width="5.32" height="1.85"/><rect class="cls-9" x="67.68" y="53.45" width="2.67" height="1.85"/><rect class="cls-9" x="70.35" y="53.45" width="5.32" height="1.85"/><rect class="cls-9" x="75.66" y="53.45" width="5.32" height="1.85"/><rect class="cls-9" x="80.98" y="53.45" width="5.32" height="1.85"/><rect class="cls-9" x="91.56" y="53.45" width="2.7" height="1.85"/><rect class="cls-9" x="86.29" y="53.45" width="5.32" height="1.85"/><rect class="cls-11" x="67.68" y="59" width="5.32" height="1.85"/><rect class="cls-9" x="72.99" y="59" width="5.32" height="1.85"/><rect class="cls-9" x="78.31" y="59" width="5.32" height="1.85"/><rect class="cls-9" x="83.62" y="59" width="5.32" height="1.85"/><rect class="cls-9" x="88.94" y="59" width="5.32" height="1.85"/><rect class="cls-11" x="67.68" y="57.15" width="2.67" height="1.85"/><rect class="cls-9" x="65.03" y="57.15" width="2.67" height="1.85"/><rect class="cls-9" x="70.35" y="57.15" width="5.32" height="1.85"/><rect class="cls-9" x="75.66" y="57.15" width="5.32" height="1.85"/><rect class="cls-9" x="80.98" y="57.15" width="5.32" height="1.85"/><rect class="cls-9" x="91.56" y="57.15" width="2.7" height="1.85"/><rect class="cls-11" x="86.29" y="57.15" width="5.32" height="1.85"/><rect class="cls-9" x="67.68" y="62.57" width="5.32" height="1.86"/><rect class="cls-9" x="72.99" y="62.57" width="5.32" height="1.86"/><rect class="cls-11" x="78.31" y="62.57" width="5.32" height="1.86"/><rect class="cls-9" x="83.62" y="62.57" width="5.32" height="1.86"/><rect class="cls-9" x="88.94" y="62.57" width="5.32" height="1.86"/><rect class="cls-9" x="67.68" y="60.72" width="2.67" height="1.85"/><rect class="cls-9" x="70.35" y="60.72" width="5.32" height="1.85"/><rect class="cls-11" x="75.66" y="60.72" width="5.32" height="1.85"/><rect class="cls-9" x="80.98" y="60.72" width="5.32" height="1.85"/><rect class="cls-9" x="91.56" y="60.72" width="2.7" height="1.85"/><rect class="cls-9" x="86.29" y="60.72" width="5.32" height="1.85"/><rect class="cls-7" x="5.4" y="46.06" width="62.28" height="1.85"/><g id="aerial"><line class="cls-12" x1="74.68" y1="36.01" x2="74.68" y2="40.51"/><line class="cls-13" x1="80.9" y1="29.93" x2="80.9" y2="40.11"/><line class="cls-13" x1="78.12" y1="33.9" x2="83.81" y2="33.9"/><line class="cls-13" x1="78.12" y1="31.78" x2="83.81" y2="31.78"/></g><g id="Door"><rect class="cls-14" x="42.27" y="52.12" width="6.61" height="12.31"/><rect class="cls-15" x="42.27" y="52.12" width="6.61" height="2.64"/><rect class="cls-15" x="37.44" y="56.95" width="12.31" height="2.64" transform="translate(-14.68 101.87) rotate(-90)"/></g><g id="window"><rect class="cls-14" x="54.17" y="51.19" width="8.86" height="7.54"/><rect class="cls-15" x="54.17" y="51.19" width="8.86" height="2.64"/></g><g id="Door-2" data-name="Door"><rect class="cls-14" x="24.72" y="52.12" width="6.61" height="12.31"/><rect class="cls-15" x="24.72" y="52.12" width="6.61" height="2.64"/><rect class="cls-15" x="19.88" y="56.95" width="12.31" height="2.64" transform="translate(-32.23 84.32) rotate(-90)"/></g><g id="window-2" data-name="window"><rect class="cls-14" x="10.57" y="51.19" width="8.86" height="7.54"/><rect class="cls-15" x="10.57" y="51.19" width="8.86" height="2.64"/></g><polygon class="cls-3" points="12.94 64.43 10.42 64.43 11.68 61.93 12.94 64.43"/><polygon class="cls-3" points="15.45 64.43 12.94 64.43 14.19 61.93 15.45 64.43"/><polygon class="cls-3" points="19.15 64.43 16.64 64.43 17.89 61.99 19.15 64.43"/><polygon class="cls-3" points="59.21 64.43 56.7 64.43 57.96 61.93 59.21 64.43"/><polygon class="cls-3" points="61.73 64.43 59.21 64.43 60.47 61.93 61.73 64.43"/><polygon class="cls-3" points="66.62 64.43 64.11 64.43 65.36 61.99 66.62 64.43"/><polygon class="cls-4" points="85.13 64.43 82.62 64.43 83.87 61.93 85.13 64.43"/><polygon class="cls-4" points="87.64 64.43 85.13 64.43 86.39 61.93 87.64 64.43"/><polygon class="cls-4" points="90.15 64.43 87.64 64.43 88.9 61.93 90.15 64.43"/><rect class="cls-9" x="5.4" y="47.89" width="62.28" height="1.45"/><rect class="cls-11" x="27.47" y="55.17" width="16.55" height="1.98" transform="translate(-20.42 91.9) rotate(-90)"/><rect class="cls-9" x="29.26" y="55.37" width="16.55" height="1.59" transform="translate(-18.63 93.69) rotate(-90)"/></svg>