<svg xmlns="http://www.w3.org/2000/svg" xmlns:xlink="http://www.w3.org/1999/xlink" width="400" height="331" viewBox="0 0 400 331">
  <defs>
    <style>
      .cls-1, .cls-23, .cls-24, .cls-26, .cls-34 {
        fill: none;
      }

      .cls-2 {
        fill: #9ea5b5;
      }

      .cls-3 {
        fill: #12110b;
      }

      .cls-4 {
        fill: #fff;
      }

      .cls-5 {
        fill: #ecedf0;
      }

      .cls-6 {
        fill: #f1f6fc;
      }

      .cls-7 {
        fill: #2e2d33;
      }

      .cls-8 {
        fill: #cecfd9;
      }

      .cls-9 {
        fill: #13120d;
      }

      .cls-10 {
        fill: #464551;
      }

      .cls-11 {
        fill: #9ea1ab;
      }

      .cls-12 {
        fill: #eff1f6;
      }

      .cls-13 {
        fill: #cbcfda;
      }

      .cls-14, .cls-30 {
        opacity: 0.1;
      }

      .cls-15 {
        fill: #414b5b;
      }

      .cls-16 {
        fill: #ea5e65;
      }

      .cls-17 {
        fill: #f5d010;
      }

      .cls-18 {
        fill: #5bc4bf;
      }

      .cls-19 {
        fill: #b3962f;
      }

      .cls-20 {
        fill: #061b40;
      }

      .cls-21 {
        clip-path: url(#clip-path);
      }

      .cls-22 {
        fill: #f6de93;
      }

      .cls-23 {
        stroke: #e49a70;
      }

      .cls-23, .cls-34 {
        stroke-linecap: round;
      }

      .cls-23, .cls-24, .cls-34 {
        stroke-linejoin: round;
      }

      .cls-23, .cls-24 {
        stroke-width: 4.93px;
      }

      .cls-24 {
        stroke: #9e3433;
        stroke-linecap: square;
      }

      .cls-25 {
        clip-path: url(#clip-path-2);
      }

      .cls-26 {
        stroke: #4c1919;
        stroke-miterlimit: 10;
        stroke-width: 1.49px;
      }

      .cls-27 {
        fill: #e49a70;
      }

      .cls-28 {
        fill: #5faa97;
      }

      .cls-29 {
        fill: #3f220f;
      }

      .cls-31 {
        fill: #74c8bf;
      }

      .cls-32 {
        fill: #003361;
      }

      .cls-33 {
        fill: #008296;
      }

      .cls-34 {
        stroke: #bcbcbc;
        stroke-width: 0.46px;
      }
    </style>
    <clipPath id="clip-path">
      <circle id="Mask" class="cls-1" cx="316.87" cy="200.55" r="69.34"/>
    </clipPath>
    <clipPath id="clip-path-2">
      <path class="cls-1" d="M351.66,321.84c-.16,17.38,7.72,35.89,7.72,35.89H273.92A111.57,111.57,0,0,0,280.19,322c0-19.8-5.28-35.71-5.94-45.15-.46-6.63.38-26.57.38-26.57A27.19,27.19,0,0,1,301,229.77H332.8a27.19,27.19,0,0,1,26.35,20.51s1.31,19.93.86,26.56C360,276.84,351.79,307.64,351.66,321.84Z"/>
    </clipPath>
  </defs>
  <title>img-14</title>
  <g id="platform">
    <path class="cls-2" d="M400,296.23q-98.67-9.8-200-9.89T0,296.23V331H400Z"/>
    <g>
      <g>
        <g>
          <path class="cls-3" d="M276.72,273.17a8.23,8.23,0,0,1-8,8.46H41.55a8.24,8.24,0,0,1-8-8.46V117.86a8.24,8.24,0,0,1,8-8.47H268.74a8.23,8.23,0,0,1,8,8.47Z"/>
          <rect class="cls-4" x="43.31" y="119.13" width="224.45" height="141.45"/>
          <rect class="cls-5" x="43.31" y="185.55" width="224.45" height="75.04"/>
          <path class="cls-6" d="M33.56,267.13,8.08,289.81s-.56,4.22.15,5.85,1.56,2.73,5.07,3.11,286.41,0,286.41,0a22.79,22.79,0,0,0,3.83-2.57,5,5,0,0,0,1.63-4.05V290.2l-28.45-23.77Z"/>
          <path class="cls-7" d="M11,298.77s4.61,2.86,9,3.12H294.65s4.64-1.71,6.2-3.19C302.26,297.36,11,298.77,11,298.77Z"/>
          <path class="cls-8" d="M8.08,289.81s-.75,3.7.15,5.85a6.7,6.7,0,0,0,3,3.29l289.59-.25a12.44,12.44,0,0,0,3.11-2.57c1.67-1.67,1.21-5.93,1.21-5.93Z"/>
          <polygon class="cls-9" points="62.01 270.33 54.48 277.73 67.4 277.73 68.97 276.51 69.57 276.54 68.54 277.73 81.72 277.73 82.47 276.89 82.97 276.88 82.66 277.73 95.17 277.73 95.92 276.98 96.51 276.94 95.98 277.73 113.57 277.73 114.67 276.8 115.41 276.75 114.54 277.73 181.9 277.73 180.81 276.52 181.37 276.52 182.68 277.73 200.15 277.73 199.37 276.76 199.86 276.7 200.98 277.73 213.99 277.73 213.28 276.75 213.88 276.72 214.73 277.73 227.62 277.73 227.09 276.78 227.67 276.76 228.4 277.73 241.65 277.73 241.07 276.66 241.6 276.66 242.33 277.73 255.68 277.73 249.06 270.33 222.95 270.15 222.17 270.85 221.45 270.15 209.57 270.15 209.05 270.98 208.2 270.15 196.25 270.15 195.54 270.78 194.63 270.15 183.33 270.15 182.68 271.11 182.1 270.15 169.56 270.15 168.72 271.24 168.2 270.15 156.68 270.33 155.53 271.3 154.36 270.33 143.06 270.33 142.09 271.11 141.12 270.33 131.08 270.15 130.11 271.2 129.03 270.15 115.98 270.15 115.1 271.11 114.23 270.15 102.93 270.33 101.76 271.24 100.98 270.33 88.7 270.15 87.41 271.06 86.46 270.15 74.28 270.15 73.12 271.11 72.53 270.15 62.01 270.33"/>
          <path class="cls-10" d="M289.32,293.45a.91.91,0,0,1-.91.91h-8.05a.91.91,0,0,1-.91-.91h0a.91.91,0,0,1,.91-.91h8.05a.91.91,0,0,1,.91.91Z"/>
          <path class="cls-11" d="M175.8,290.2a1.3,1.3,0,0,1-1.3,1.3H136.83a1.3,1.3,0,0,1-1.3-1.3h0a1.3,1.3,0,0,1,1.3-1.3H174.5a1.3,1.3,0,0,1,1.3,1.3Z"/>
          <path class="cls-12" d="M174.5,292.48a1,1,0,0,1-1,1H139.1a1,1,0,0,1-1-1h0c0-.54-.1-1,.43-1h35.5c.54,0,.44.44.44,1Z"/>
          <path class="cls-13" d="M117.25,277.73s-4.84,7.54-4.06,8.84,3,1.16,3,1.16l77.35,0s2.91.22,3.79-1.56c1.08-2.16-3.89-8.4-3.89-8.4Z"/>
        </g>
        <g>
          <path class="cls-14" d="M72.15,113.73V239.32a8.35,8.35,0,0,0,8.36,8.35h156a8.35,8.35,0,0,0,8.35-8.35V113.73Z"/>
          <rect class="cls-4" x="63.55" y="57.56" width="173.11" height="177.13" rx="8.37"/>
          <path class="cls-15" d="M236.65,73V65.93a8.37,8.37,0,0,0-8.37-8.37H71.92a8.37,8.37,0,0,0-8.37,8.37V73Z"/>
          <path class="cls-16" d="M206.54,65.28a3.15,3.15,0,1,0,3.14-3.14A3.15,3.15,0,0,0,206.54,65.28Z"/>
          <path class="cls-17" d="M218.41,65.28a3.14,3.14,0,1,0,3.14-3.14A3.15,3.15,0,0,0,218.41,65.28Z"/>
          <path class="cls-18" d="M194.48,65.28a3.15,3.15,0,1,0,3.14-3.14A3.15,3.15,0,0,0,194.48,65.28Z"/>
          <path class="cls-4" d="M146.87,65.28a3.26,3.26,0,0,1-3.27,3.26H82.28A3.27,3.27,0,0,1,79,65.28h0A3.27,3.27,0,0,1,82.28,62H143.6a3.26,3.26,0,0,1,3.27,3.27Z"/>
        </g>
      </g>
      <g>
        <polygon class="cls-17" points="152.74 81.18 161.15 91.87 173.02 85.21 176.7 98.31 190.21 96.7 188.6 110.21 201.7 113.89 195.04 125.75 205.73 134.17 195.04 142.58 201.7 154.45 188.6 158.13 190.21 171.64 176.7 170.03 173.02 183.13 161.15 176.47 152.74 187.16 144.32 176.47 132.46 183.13 128.78 170.03 115.27 171.64 116.88 158.13 103.78 154.45 110.44 142.58 99.75 134.17 110.44 125.75 103.78 113.89 116.88 110.21 115.27 96.7 128.78 98.31 132.46 85.21 144.32 91.87 152.74 81.18"/>
        <path class="cls-19" d="M121.73,123.44v-4.77a3.57,3.57,0,0,1,3.58-3.58H136v-3.58a6,6,0,0,1,6-6h21.46a6,6,0,0,1,6,6v3.58h10.74a3.55,3.55,0,0,1,3.57,3.58v4.77a10.56,10.56,0,0,1-1.54,5.32,17.79,17.79,0,0,1-4.18,4.85,23.2,23.2,0,0,1-6.44,3.63,25.27,25.27,0,0,1-8,1.66,20.45,20.45,0,0,1-3.54,3.54,7,7,0,0,0-2,2.7,9.47,9.47,0,0,0-.54,3.34,5.15,5.15,0,0,0,1.14,3.39,4.42,4.42,0,0,0,3.63,1.38,7.87,7.87,0,0,1,5,1.69,5.19,5.19,0,0,1,2.18,4.27v2.38a1.17,1.17,0,0,1-.33.86,1.15,1.15,0,0,1-.86.34h-31a1.14,1.14,0,0,1-.86-.34,1.18,1.18,0,0,1-.34-.86v-2.38a5.22,5.22,0,0,1,2.18-4.27,7.92,7.92,0,0,1,5-1.69,4.44,4.44,0,0,0,3.63-1.38,5.15,5.15,0,0,0,1.14-3.39,9.47,9.47,0,0,0-.54-3.34,7,7,0,0,0-2-2.7,20.45,20.45,0,0,1-3.54-3.54,25.21,25.21,0,0,1-8-1.66,23.26,23.26,0,0,1-6.45-3.63,17.75,17.75,0,0,1-4.17-4.85A10.58,10.58,0,0,1,121.73,123.44Zm4.77,0q0,2.9,3.53,6a18.37,18.37,0,0,0,8.77,4.21A32.88,32.88,0,0,1,136,119.86H126.5Zm40.18,10.24a18.42,18.42,0,0,0,8.77-4.21q3.53-3.14,3.52-6v-3.58h-9.54A33,33,0,0,1,166.68,133.68Z"/>
      </g>
      <g>
        <circle class="cls-1" cx="316.87" cy="200.55" r="69.34"/>
        <g id="Outer_ring" data-name="Outer ring">
          <circle class="cls-4" cx="316.87" cy="200.55" r="74.3"/>
          <path class="cls-20" d="M316.87,131.21a69.35,69.35,0,1,1-69.34,69.34,69.34,69.34,0,0,1,69.34-69.34m0-9.91a79.26,79.26,0,1,0,79.25,79.25,79.34,79.34,0,0,0-79.25-79.25Z"/>
        </g>
        <g class="cls-21">
          <g>
            <path class="cls-22" d="M316.24,143.87h0A41.15,41.15,0,0,1,357.4,185V244.9a0,0,0,0,1,0,0H275.09a0,0,0,0,1,0,0V185A41.15,41.15,0,0,1,316.24,143.87Z"/>
            <path class="cls-23" d="M287.24,244.26s-21.49,19.07-27.77,64.46c-3.25,23.56,2.42,88.36,2.42,88.36"/>
            <path class="cls-24" d="M287.24,244.26s-21.49,19.07-27.77,64.46c-2.16,15.65-.38,49.51,1,70.47"/>
            <path class="cls-23" d="M346.51,244.26s21.48,19.07,27.76,64.46c3.26,23.56-2.41,88.36-2.41,88.36"/>
            <path class="cls-24" d="M346.51,244.26s21.48,19.07,27.76,64.46c2.17,15.65.39,49.51-1,70.47"/>
            <path class="cls-20" d="M351.66,321.84c-.16,17.38,7.72,35.89,7.72,35.89H273.92A111.57,111.57,0,0,0,280.19,322c0-19.8-5.28-35.71-5.94-45.15-.46-6.63.38-26.57.38-26.57A27.19,27.19,0,0,1,301,229.77H332.8a27.19,27.19,0,0,1,26.35,20.51s1.31,19.93.86,26.56C360,276.84,351.79,307.64,351.66,321.84Z"/>
            <g class="cls-25">
              <path id="neck" class="cls-26" d="M318.42,243.57h0a2.52,2.52,0,0,1-3.06,0h0a20.23,20.23,0,0,1-7.88-16V208h18.83v19.5A20.24,20.24,0,0,1,318.42,243.57Z"/>
            </g>
            <g id="neck-2" data-name="neck">
              <path id="neck-3" data-name="neck" class="cls-27" d="M318.61,243.52h0a2.73,2.73,0,0,1-3.32,0h0a22,22,0,0,1-8.58-17.41V204.92h20.47v21.19A22,22,0,0,1,318.61,243.52Z"/>
            </g>
            <g id="Head">
              <g id="Head-2" data-name="Head">
                <circle id="Head-3" data-name="Head" class="cls-27" cx="316.24" cy="184.96" r="41.09"/>
                <circle class="cls-27" cx="274.76" cy="185.62" r="6.67"/>
                <circle class="cls-27" cx="357.73" cy="185.62" r="6.67"/>
              </g>
              <g id="earrings">
                <circle class="cls-28" cx="273.56" cy="192.21" r="1.74"/>
                <circle class="cls-28" cx="358.92" cy="192.21" r="1.74"/>
              </g>
              <g id="Face">
                <g id="Mouth">
                  <path class="cls-29" d="M318.35,211.5c-.7,0-1.43,0-2.21-.1a1,1,0,0,1,.2-2.09c7.49.73,10.6-2.75,10.63-2.78a1,1,0,0,1,1.47-.11,1,1,0,0,1,.11,1.48C328.41,208.06,325.34,211.5,318.35,211.5Z"/>
                </g>
                <g id="Eyes_v2" data-name="Eyes v2">
                  <circle class="cls-29" cx="329.98" cy="189.28" r="3.01"/>
                  <circle class="cls-29" cx="302.5" cy="189.28" r="3.01"/>
                </g>
              </g>
            </g>
            <path id="Head-4" data-name="Head" class="cls-22" d="M357.34,185h-.17c-23.51.05-31.42-20.41-31.42-20.41h0c-2,4.29-6.41,8.05-11.34,11.13a62,62,0,0,1-33,9.3l-6.28,0c-.06-23.45,18.4-41.09,41.09-41.09A41,41,0,0,1,357.34,185Z"/>
            <path class="cls-28" d="M275.59,179.16s14.11-28.62,40.66-27.94,40.65,28,40.65,28-13.84-15-40.65-15.33C291.65,163.58,275.59,179.16,275.59,179.16Z"/>
          </g>
        </g>
      </g>
      <g>
        <g class="cls-30">
          <circle cx="203.14" cy="83.21" r="19.66"/>
          <circle cx="222.5" cy="63.24" r="20.21"/>
          <circle cx="287.91" cy="55.54" r="27.04"/>
          <circle cx="230.83" cy="100.64" r="30.25"/>
          <circle cx="265.03" cy="103.21" r="30.25"/>
          <circle cx="311.42" cy="85.48" r="42.43"/>
          <circle cx="253.06" cy="53.62" r="30.25"/>
        </g>
        <g>
          <circle class="cls-31" cx="195.39" cy="75.46" r="19.66"/>
          <circle class="cls-31" cx="214.75" cy="55.49" r="20.21"/>
          <circle class="cls-31" cx="241.14" cy="139.78" r="10.56"/>
          <circle class="cls-31" cx="265.45" cy="154.96" r="6.39"/>
          <circle class="cls-31" cx="281.74" cy="43.12" r="28.62"/>
          <circle class="cls-31" cx="223.08" cy="92.89" r="30.25"/>
          <circle class="cls-31" cx="257.28" cy="95.46" r="30.25"/>
          <circle class="cls-31" cx="303.22" cy="77.28" r="42.43"/>
          <circle class="cls-31" cx="245.31" cy="45.87" r="30.25"/>
        </g>
        <g>
          <path d="M246.54,50.37h-2.63V37.58h2.63Z"/>
          <path d="M254,50.37V42.73h-1.42V40.86H254v-.81a3.29,3.29,0,0,1,.91-2.48,3.56,3.56,0,0,1,2.57-.88,6.35,6.35,0,0,1,1.3.17l0,2a3.37,3.37,0,0,0-.77-.08q-1.44,0-1.44,1.35v.76h1.89v1.87h-1.89v7.64Z"/>
          <path d="M263.92,50.55a4.7,4.7,0,0,1-3.41-1.28,4.6,4.6,0,0,1-1.31-3.42V45.6a5.73,5.73,0,0,1,.55-2.56,4.08,4.08,0,0,1,1.57-1.74,4.39,4.39,0,0,1,2.32-.61,4,4,0,0,1,3.07,1.23,5,5,0,0,1,1.12,3.49v1h-6.06a2.4,2.4,0,0,0,.75,1.5,2.24,2.24,0,0,0,1.56.56,2.74,2.74,0,0,0,2.3-1.06l1.25,1.39a3.9,3.9,0,0,1-1.55,1.27A5.09,5.09,0,0,1,263.92,50.55Zm-.29-7.82a1.59,1.59,0,0,0-1.23.52,2.69,2.69,0,0,0-.6,1.46h3.53v-.2a1.88,1.88,0,0,0-.45-1.31A1.65,1.65,0,0,0,263.63,42.73Z"/>
          <path d="M273.65,50.55a4.7,4.7,0,0,1-3.41-1.28,4.6,4.6,0,0,1-1.31-3.42V45.6a5.73,5.73,0,0,1,.55-2.56,4.08,4.08,0,0,1,1.57-1.74,4.39,4.39,0,0,1,2.32-.61,4,4,0,0,1,3.07,1.23,5,5,0,0,1,1.12,3.49v1H271.5a2.35,2.35,0,0,0,.75,1.5,2.24,2.24,0,0,0,1.56.56,2.74,2.74,0,0,0,2.3-1.06l1.25,1.39a3.9,3.9,0,0,1-1.55,1.27A5.09,5.09,0,0,1,273.65,50.55Zm-.29-7.82a1.59,1.59,0,0,0-1.23.52,2.69,2.69,0,0,0-.6,1.46h3.53v-.2a1.88,1.88,0,0,0-.45-1.31A1.65,1.65,0,0,0,273.36,42.73Z"/>
          <path d="M281.68,50.37h-2.55V36.87h2.55Z"/>
          <path d="M219.67,72.65a1.69,1.69,0,0,0,1.15-.39,1.36,1.36,0,0,0,.45-1h2.39a3.36,3.36,0,0,1-.53,1.77,3.52,3.52,0,0,1-1.42,1.25,4.5,4.5,0,0,1-2,.44,4.15,4.15,0,0,1-3.22-1.29,5.18,5.18,0,0,1-1.18-3.59v-.16a5.06,5.06,0,0,1,1.17-3.51,4.1,4.1,0,0,1,3.21-1.31,4,4,0,0,1,2.86,1,3.6,3.6,0,0,1,1.1,2.7h-2.39a1.75,1.75,0,0,0-.45-1.21,1.7,1.7,0,0,0-2.5.19,3.67,3.67,0,0,0-.46,2.1v.26a3.78,3.78,0,0,0,.45,2.11A1.56,1.56,0,0,0,219.67,72.65Z"/>
          <path d="M230.62,74.52a3,3,0,0,1-.26-.86,3,3,0,0,1-2.4,1,3.36,3.36,0,0,1-2.31-.81,2.55,2.55,0,0,1-.92-2,2.7,2.7,0,0,1,1.12-2.33,5.57,5.57,0,0,1,3.24-.81h1.17v-.55a1.58,1.58,0,0,0-.34-1,1.32,1.32,0,0,0-1.07-.4,1.51,1.51,0,0,0-1,.31,1.06,1.06,0,0,0-.36.84h-2.54a2.56,2.56,0,0,1,.51-1.53,3.46,3.46,0,0,1,1.44-1.1,5.19,5.19,0,0,1,2.09-.4,4.2,4.2,0,0,1,2.79.88,3.1,3.1,0,0,1,1,2.49v4.12a4.6,4.6,0,0,0,.37,2.05v.15Zm-2.1-1.77a2.12,2.12,0,0,0,1-.25,1.71,1.71,0,0,0,.71-.67V70.19h-.95c-1.27,0-1.95.44-2,1.32v.15a1,1,0,0,0,.33.78A1.3,1.3,0,0,0,228.52,72.75Z"/>
          <path d="M240.1,67.39a6.43,6.43,0,0,0-.91-.07,1.86,1.86,0,0,0-1.89,1v6.23h-2.54V65h2.4l.07,1.13a2.35,2.35,0,0,1,2.11-1.31,2.58,2.58,0,0,1,.8.12Z"/>
          <path d="M245.53,74.69a4.63,4.63,0,0,1-3.4-1.28A4.57,4.57,0,0,1,240.81,70v-.25a5.76,5.76,0,0,1,.56-2.56,4.08,4.08,0,0,1,1.57-1.74,4.42,4.42,0,0,1,2.31-.61,3.93,3.93,0,0,1,3.07,1.23,5,5,0,0,1,1.12,3.49v1h-6.05a2.34,2.34,0,0,0,.74,1.49,2.23,2.23,0,0,0,1.57.57A2.73,2.73,0,0,0,248,71.58l1.25,1.4a3.8,3.8,0,0,1-1.55,1.26A5.09,5.09,0,0,1,245.53,74.69Zm-.29-7.81a1.58,1.58,0,0,0-1.22.51,2.62,2.62,0,0,0-.61,1.47H247v-.21a1.91,1.91,0,0,0-.46-1.31A1.63,1.63,0,0,0,245.24,66.88Z"/>
          <path d="M250.49,69.69a5.7,5.7,0,0,1,1-3.54,3.22,3.22,0,0,1,2.73-1.32,2.91,2.91,0,0,1,2.29,1V61h2.55v13.5h-2.3l-.12-1a3,3,0,0,1-2.44,1.18,3.24,3.24,0,0,1-2.7-1.32A6,6,0,0,1,250.49,69.69Zm2.54.19a3.66,3.66,0,0,0,.47,2.05,1.51,1.51,0,0,0,1.35.72,1.71,1.71,0,0,0,1.66-1V67.89a1.67,1.67,0,0,0-1.64-1C253.64,66.9,253,67.89,253,69.88Z"/>
          <path d="M271,74.52a2.73,2.73,0,0,1-.25-.86,3.07,3.07,0,0,1-2.4,1,3.36,3.36,0,0,1-2.32-.81,2.58,2.58,0,0,1-.92-2,2.72,2.72,0,0,1,1.12-2.33,5.57,5.57,0,0,1,3.24-.81h1.17v-.55a1.53,1.53,0,0,0-.34-1,1.3,1.3,0,0,0-1.07-.4,1.48,1.48,0,0,0-1,.31,1,1,0,0,0-.37.84h-2.54a2.56,2.56,0,0,1,.51-1.53,3.46,3.46,0,0,1,1.44-1.1,5.24,5.24,0,0,1,2.1-.4,4.2,4.2,0,0,1,2.79.88,3.13,3.13,0,0,1,1,2.49v4.12a4.45,4.45,0,0,0,.38,2.05v.15Zm-2.1-1.77a2.19,2.19,0,0,0,1-.25,1.68,1.68,0,0,0,.7-.67V70.19h-1c-1.27,0-1.95.44-2,1.32v.15a1,1,0,0,0,.34.78A1.26,1.26,0,0,0,268.92,72.75Z"/>
          <path d="M283.73,69.85a5.75,5.75,0,0,1-1,3.56A3.2,3.2,0,0,1,280,74.69a3,3,0,0,1-2.47-1.18l-.11,1h-2.29V61h2.54v4.84a2.89,2.89,0,0,1,2.31-1,3.27,3.27,0,0,1,2.73,1.28,5.75,5.75,0,0,1,1,3.6Zm-2.54-.18a3.73,3.73,0,0,0-.46-2.11,1.54,1.54,0,0,0-1.36-.66,1.67,1.67,0,0,0-1.67,1v3.75a1.7,1.7,0,0,0,1.69,1A1.56,1.56,0,0,0,281,71.43,5.9,5.9,0,0,0,281.19,69.67Z"/>
          <path d="M284.9,69.67a5.69,5.69,0,0,1,.54-2.52A4,4,0,0,1,287,65.44a4.53,4.53,0,0,1,2.38-.61A4.31,4.31,0,0,1,292.53,66a4.7,4.7,0,0,1,1.36,3.2l0,.65a5,5,0,0,1-1.22,3.51,4.75,4.75,0,0,1-6.57,0,5.06,5.06,0,0,1-1.22-3.58Zm2.54.18a3.57,3.57,0,0,0,.51,2.08,1.67,1.67,0,0,0,1.46.72,1.7,1.7,0,0,0,1.44-.71,4,4,0,0,0,.52-2.27,3.56,3.56,0,0,0-.52-2.06,1.68,1.68,0,0,0-1.46-.73,1.65,1.65,0,0,0-1.44.73A3.92,3.92,0,0,0,287.44,69.85Z"/>
          <path d="M301.17,73.55a3.2,3.2,0,0,1-2.6,1.14,3,3,0,0,1-2.34-.88,3.75,3.75,0,0,1-.82-2.57V65H298v6.15c0,1,.45,1.49,1.35,1.49a1.83,1.83,0,0,0,1.78-.9V65h2.55v9.51h-2.39Z"/>
          <path d="M308.58,62.67V65h1.63v1.86h-1.63v4.75a1.08,1.08,0,0,0,.21.75,1,1,0,0,0,.77.23,4.22,4.22,0,0,0,.75-.06v1.92a5,5,0,0,1-1.54.23A2.43,2.43,0,0,1,306,72V66.87h-1.38V65H306V62.67Z"/>
          <path d="M222.72,98.66a3,3,0,0,1-.25-.85,3.07,3.07,0,0,1-2.4,1,3.4,3.4,0,0,1-2.32-.81,2.6,2.6,0,0,1-.91-2A2.68,2.68,0,0,1,218,93.67a5.52,5.52,0,0,1,3.24-.82h1.16v-.54a1.62,1.62,0,0,0-.33-1.06,1.36,1.36,0,0,0-1.07-.39,1.49,1.49,0,0,0-1,.31,1,1,0,0,0-.36.84h-2.54a2.56,2.56,0,0,1,.51-1.53,3.31,3.31,0,0,1,1.44-1.1,5.19,5.19,0,0,1,2.09-.4,4.15,4.15,0,0,1,2.79.88,3.09,3.09,0,0,1,1,2.48v4.12a4.52,4.52,0,0,0,.38,2.05v.15Zm-2.1-1.76a2.17,2.17,0,0,0,1-.26,1.57,1.57,0,0,0,.7-.67V94.34h-.94c-1.28,0-1.95.44-2,1.32v.15a1,1,0,0,0,.33.78A1.32,1.32,0,0,0,220.62,96.9Z"/>
          <path d="M229.2,89.15l.08,1.1A3.31,3.31,0,0,1,232,89a2.76,2.76,0,0,1,2.25.88,4.11,4.11,0,0,1,.76,2.66v6.14h-2.54V92.58a1.65,1.65,0,0,0-.35-1.17A1.56,1.56,0,0,0,231,91a1.76,1.76,0,0,0-1.61.92v6.7h-2.54V89.15Z"/>
          <path d="M236.55,93.84a5.71,5.71,0,0,1,1-3.55A3.24,3.24,0,0,1,240.28,89a2.91,2.91,0,0,1,2.29,1V85.16h2.55v13.5h-2.29l-.13-1a3,3,0,0,1-2.44,1.19,3.21,3.21,0,0,1-2.69-1.32A5.92,5.92,0,0,1,236.55,93.84Zm2.54.19a3.77,3.77,0,0,0,.47,2,1.52,1.52,0,0,0,1.35.71,1.69,1.69,0,0,0,1.66-1V92a1.67,1.67,0,0,0-1.64-1C239.7,91,239.09,92,239.09,94Z"/>
          <path d="M255.13,95.56l1.77-6.41h2.65l-3.21,9.51h-2.42l-3.21-9.51h2.65Z"/>
          <path d="M266.05,98.66a2.66,2.66,0,0,1-.26-.85,3,3,0,0,1-2.4,1,3.36,3.36,0,0,1-2.31-.81,2.58,2.58,0,0,1-.92-2,2.68,2.68,0,0,1,1.12-2.32,5.55,5.55,0,0,1,3.24-.82h1.17v-.54a1.62,1.62,0,0,0-.34-1.06,1.35,1.35,0,0,0-1.07-.39,1.51,1.51,0,0,0-1,.31,1,1,0,0,0-.36.84h-2.54a2.56,2.56,0,0,1,.51-1.53,3.31,3.31,0,0,1,1.44-1.1,5.19,5.19,0,0,1,2.09-.4,4.15,4.15,0,0,1,2.79.88,3.09,3.09,0,0,1,1,2.48v4.12a4.66,4.66,0,0,0,.38,2.05v.15ZM264,96.9a2.13,2.13,0,0,0,1-.26,1.65,1.65,0,0,0,.71-.67V94.34h-.95c-1.28,0-1.95.44-2,1.32v.15a1,1,0,0,0,.33.78A1.33,1.33,0,0,0,264,96.9Z"/>
          <path d="M272.87,98.66h-2.55V85.16h2.55Z"/>
          <path d="M280.65,97.7a3.17,3.17,0,0,1-2.6,1.14,3,3,0,0,1-2.33-.88,3.75,3.75,0,0,1-.82-2.58V89.15h2.54V95.3c0,1,.45,1.49,1.35,1.49a1.85,1.85,0,0,0,1.78-.9V89.15h2.54v9.51h-2.39Z"/>
          <path d="M289.41,98.84A4.66,4.66,0,0,1,286,97.55a4.52,4.52,0,0,1-1.31-3.41v-.25a5.7,5.7,0,0,1,.55-2.56,4.08,4.08,0,0,1,1.57-1.74,4.39,4.39,0,0,1,2.32-.61,4,4,0,0,1,3.07,1.23,5,5,0,0,1,1.12,3.49v1h-6.06a2.35,2.35,0,0,0,.75,1.5,2.24,2.24,0,0,0,1.56.56,2.74,2.74,0,0,0,2.3-1.06l1.25,1.39a3.8,3.8,0,0,1-1.55,1.26A5,5,0,0,1,289.41,98.84ZM289.12,91a1.59,1.59,0,0,0-1.23.52,2.69,2.69,0,0,0-.6,1.46h3.53v-.2a1.88,1.88,0,0,0-.45-1.31A1.65,1.65,0,0,0,289.12,91Z"/>
          <path d="M294.36,93.84a5.78,5.78,0,0,1,1-3.55A3.27,3.27,0,0,1,298.09,89a2.89,2.89,0,0,1,2.29,1V85.16h2.55v13.5h-2.29l-.12-1a3,3,0,0,1-2.45,1.19,3.23,3.23,0,0,1-2.69-1.32A5.92,5.92,0,0,1,294.36,93.84Zm2.54.19a3.77,3.77,0,0,0,.47,2,1.52,1.52,0,0,0,1.35.71,1.69,1.69,0,0,0,1.66-1V92a1.66,1.66,0,0,0-1.64-1C297.52,91,296.9,92,296.9,94Z"/>
          <path d="M305,97.41a1.28,1.28,0,0,1,.41-1,1.49,1.49,0,0,1,1-.38,1.47,1.47,0,0,1,1,.38,1.28,1.28,0,0,1,.41,1,1.25,1.25,0,0,1-.41,1,1.59,1.59,0,0,1-2.06,0A1.25,1.25,0,0,1,305,97.41Z"/>
        </g>
      </g>
      <g>
        <g>
          <path class="cls-32" d="M91.61,212c-4.28,0-6.69-3-6.69-6,0-2.82,2.29-6,6.69-6s6.67,3.18,6.67,6C98.28,209,95.8,212,91.61,212Zm0-9.55A3.56,3.56,0,1,0,95.28,206,3.42,3.42,0,0,0,91.61,202.46Z"/>
          <path class="cls-32" d="M101.67,204.65a3.34,3.34,0,0,1,2.26-.84,3.8,3.8,0,0,1,3.66,4c0,2.53-1.54,4.19-3.89,4.19a4.17,4.17,0,0,1-2-.55v4.33H99.19V204h2.48Zm0,5.18a2.34,2.34,0,0,0,1.43.52c1.22,0,2-.93,2-2.4s-.68-2.38-1.86-2.38a2.3,2.3,0,0,0-1.54.64Z"/>
          <path class="cls-32" d="M116.72,211a5.67,5.67,0,0,1-3.52,1c-2.77,0-4.57-1.61-4.57-4.07a4.12,4.12,0,1,1,8.23.37H111.2a2.31,2.31,0,0,0,2.6,2.23,4.61,4.61,0,0,0,2.92-1.13Zm-2-4a1.69,1.69,0,0,0-1.71-1.73,1.68,1.68,0,0,0-1.71,1.73Z"/>
          <path class="cls-32" d="M120.42,205.09a3.2,3.2,0,0,1,2.57-1.28,2.76,2.76,0,0,1,2.87,3v5h-2.48v-4.8c0-1.12-.53-1.58-1.23-1.58s-1.08.33-1.73,1.3v5.08h-2.48V204h2.48Z"/>
          <path class="cls-32" d="M137.21,200.18a3.51,3.51,0,1,1,0,7h-2.31v4.68H132V200.18Zm-2.3,4.85h1.35c1.34,0,1.82-.48,1.82-1.36s-.57-1.35-2.14-1.35h-1Z"/>
          <path class="cls-32" d="M145.44,212c-2.59,0-4.47-1.63-4.47-4.11,0-2.69,2.14-4.09,4.47-4.09,1.93,0,4.43,1.08,4.43,4.11S147.18,212,145.44,212Zm0-6.73c-1.08,0-1.82.84-1.82,2.62,0,2,.88,2.64,1.82,2.64,1.16,0,1.78-1,1.78-2.69C147.22,206.31,146.69,205.28,145.44,205.28Z"/>
          <path class="cls-32" d="M153.53,211.85h-2.48V200.18h2.48Z"/>
          <path class="cls-32" d="M157.67,215.63H155l2.31-5.06-3.08-6.6h2.65l1.66,4.05,1.78-4.05H163Z"/>
          <path class="cls-32" d="M169.82,205.66H167v3.25a1.15,1.15,0,0,0,1.21,1.27,3.35,3.35,0,0,0,1.66-.47v1.8a5.59,5.59,0,0,1-2.29.5c-1.64,0-3.06-.76-3.06-3v-3.39h-1.13v-.48l3.3-3.7H167V204h2.87Z"/>
          <path class="cls-32" d="M178.62,211a5.69,5.69,0,0,1-3.53,1c-2.77,0-4.57-1.61-4.57-4.07a4.12,4.12,0,1,1,8.23.37h-5.66a2.31,2.31,0,0,0,2.6,2.23,4.65,4.65,0,0,0,2.93-1.13Zm-2.06-4a1.71,1.71,0,1,0-3.42,0Z"/>
          <path class="cls-32" d="M187.07,211.48a7.66,7.66,0,0,1-2.67.53c-2.77,0-4.57-1.61-4.57-4.07a4.15,4.15,0,0,1,4.47-4.13,8.4,8.4,0,0,1,2.65.51v1.85a4.58,4.58,0,0,0-2-.53,2.31,2.31,0,1,0-.08,4.61,6.15,6.15,0,0,0,2.22-.55Z"/>
          <path class="cls-32" d="M191.06,205.13h0a3,3,0,0,1,2.5-1.32,2.76,2.76,0,0,1,2.89,3v5H194v-4.5c0-1.18-.51-1.72-1.28-1.72-.59,0-1.08.35-1.66,1.19v5h-2.49V200.18h2.49Z"/>
          <path class="cls-32" d="M200.12,205.09a3.2,3.2,0,0,1,2.57-1.28,2.77,2.77,0,0,1,2.88,3v5h-2.49v-4.8c0-1.12-.53-1.58-1.23-1.58s-1.07.33-1.73,1.3v5.08h-2.48V204h2.48Z"/>
          <path class="cls-32" d="M209.4,201.4A1.37,1.37,0,1,1,208,200,1.38,1.38,0,0,1,209.4,201.4Zm-.12,10.45H206.8V204h2.48Z"/>
          <path class="cls-32" d="M217.41,211.48a7.7,7.7,0,0,1-2.67.53c-2.77,0-4.57-1.61-4.57-4.08a4.14,4.14,0,0,1,4.46-4.12,8.4,8.4,0,0,1,2.66.51v1.85a4.61,4.61,0,0,0-2-.53,2.31,2.31,0,1,0-.09,4.61,6.14,6.14,0,0,0,2.23-.55Z"/>
        </g>
        <path class="cls-33" d="M89.46,222.26l.08.08-1.05,0h0l-2.26-2.19v2.21h-.75v-4.68h.75v2l1.89-2H89l-2,2.22,2.46,2.38"/>
        <path class="cls-33" d="M94.38,220.56v-2.9h.75v2.75c0,.52.07.71.26.91h0a1.28,1.28,0,0,0,1,.38h0a1.41,1.41,0,0,0,1-.36h0a1.26,1.26,0,0,0,.28-1h0v-2.71h.75v2.83a1.83,1.83,0,0,1-2.08,1.91h0a1.8,1.8,0,0,1-2-1.84Z"/>
        <path class="cls-33" d="M122.76,222.34h-.7v-4h-1.59v-.68h3.93v.68h-1.59v4Z"/>
        <path class="cls-33" d="M130.22,222.34h-.71v-4.68h.75v4.68Z"/>
        <path class="cls-33" d="M140.06,222.34l-.6,0-3-3.44v3.46h-.71v-4.68h.61l3,3.46v-3.47h.71v4.68Z"/>
        <path class="cls-33" d="M146.32,222.34h-.71v-4.68h.75v4.68Z"/>
        <path class="cls-33" d="M159.38,222.34h-.7v-4h-1.59v-.68H161v.68h-1.59v4Z"/>
        <path class="cls-33" d="M166,220.56v-2.9h.75v2.75c0,.52.07.71.27.91h0a1.24,1.24,0,0,0,.95.38h0a1.41,1.41,0,0,0,1-.36h0a1.26,1.26,0,0,0,.28-1h0v-2.71h.75v2.83A1.83,1.83,0,0,1,168,222.4h0a1.8,1.8,0,0,1-2-1.84Z"/>
        <g>
          <path class="cls-33" d="M177,222.33h-.13m3.28,0H180"/>
          <path class="cls-33" d="M180.15,222.38H180l-1.48-3.68L177,222.38h-.18l-1.9-4.72h.76l1.23,3.08,1.24-3.08h.69l1.25,3.08,1.22-3.08h.75l-1.89,4.69v0Zm0,0h0"/>
        </g>
        <path class="cls-33" d="M191,222.34h-.7v-2h-2.48v2h-.75v-4.68h.75v2h2.48v-2H191v4.68Z"/>
        <path class="cls-33" d="M196.54,222.34v-4.68h2.7v.68h-2v1.3h1.88v.68h-1.88v1.33h2v.69Z"/>
        <path class="cls-33" d="M205.71,217.66c.94,0,1.54.51,1.55,1.33h0a1.18,1.18,0,0,1-.72,1.13h0a4.12,4.12,0,0,1,1,1.24h0a10.08,10.08,0,0,0,.62.9h0l.05.08h-.9l-.62-1c-.61-.94-.86-1-1.18-1h-.23v2h-.75v-4.68h1.21m-.08,2c.68,0,.85-.32.86-.68h0a0,0,0,0,1,0,0h0c0-.4-.23-.64-.86-.64h-.38v1.34Z"/>
        <path class="cls-33" d="M105,217.66c.94,0,1.55.51,1.55,1.33h0a1.19,1.19,0,0,1-.71,1.13h0a4.27,4.27,0,0,1,1,1.24h0c.2.31.31.47.62.9h0l.06.08h-.9l-.62-1c-.61-.94-.86-1-1.18-1h-.23v2h-.75v-4.68H105m-.07,2c.68,0,.85-.32.85-.68h0v0h0c0-.4-.22-.64-.85-.64h-.38v1.34Z"/>
        <path class="cls-33" d="M116.54,222.27l-2.07-4.64H114l-2,4.71h.77l.58-1.36h1.89l.61,1.36h.77Zm-3-2,.61-1.5.67,1.5Z"/>
        <path class="cls-33" d="M217.2,222.27l-2.06-4.64h-.53l-2,4.71h.77L214,221h1.89l.61,1.36h.77Zm-2.95-2,.62-1.5.67,1.5Z"/>
      </g>
      <line class="cls-34" x1="77.08" y1="190.38" x2="224.13" y2="190.38"/>
    </g>
  </g>
</svg>
