<svg xmlns="http://www.w3.org/2000/svg" xmlns:xlink="http://www.w3.org/1999/xlink" width="400" height="331" viewBox="0 0 400 331">
  <defs>
    <style>
      .cls-1, .cls-35, .cls-38, .cls-43, .cls-44, .cls-45, .cls-46, .cls-50, .cls-53, .cls-61, .cls-62, .cls-63, .cls-64, .cls-69, .cls-70, .cls-74, .cls-75, .cls-76, .cls-81, .cls-82, .cls-84, .cls-89, .cls-90 {
        fill: none;
      }

      .cls-2 {
        fill: #9ea5b5;
      }

      .cls-3 {
        fill: #f7b40d;
      }

      .cls-4 {
        fill: #ffff81;
      }

      .cls-5 {
        fill: #bc7902;
      }

      .cls-6 {
        fill: #0e1f38;
      }

      .cls-7 {
        fill: #67b6d6;
      }

      .cls-8 {
        fill: #ea5e65;
      }

      .cls-9 {
        fill: #598df7;
      }

      .cls-10 {
        fill: #f5f5f5;
      }

      .cls-11 {
        fill: #00b7bf;
      }

      .cls-12, .cls-25 {
        fill: #231f20;
      }

      .cls-12, .cls-24 {
        opacity: 0.1;
      }

      .cls-13 {
        fill: #3e4c60;
      }

      .cls-14 {
        fill: #6bac00;
      }

      .cls-15 {
        fill: #f2bd45;
      }

      .cls-16 {
        fill: #f0932b;
      }

      .cls-17 {
        fill: #ff7879;
      }

      .cls-18 {
        fill: #00b0e6;
      }

      .cls-19 {
        fill: #9e3433;
      }

      .cls-20 {
        fill: #004c72;
      }

      .cls-21 {
        fill: #5faa97;
      }

      .cls-22 {
        fill: #fff;
      }

      .cls-23 {
        fill: #e49a70;
      }

      .cls-26 {
        fill: #ddb28a;
      }

      .cls-27 {
        fill: #2b2b2b;
      }

      .cls-28 {
        fill: #ecedf0;
      }

      .cls-29 {
        fill: #f4ddc9;
      }

      .cls-30 {
        fill: url(#linear-gradient);
      }

      .cls-31 {
        clip-path: url(#clip-path);
      }

      .cls-32, .cls-92 {
        fill: #855041;
      }

      .cls-33 {
        fill: #964e1c;
      }

      .cls-34, .cls-68 {
        fill: #915c44;
        stroke: #83461d;
      }

      .cls-34, .cls-35, .cls-38, .cls-43, .cls-45, .cls-46, .cls-61, .cls-62, .cls-64, .cls-68, .cls-69, .cls-70, .cls-74, .cls-81, .cls-89 {
        stroke-linecap: round;
      }

      .cls-34, .cls-35, .cls-46, .cls-50, .cls-53, .cls-61, .cls-62, .cls-63, .cls-64, .cls-68, .cls-69, .cls-76, .cls-84, .cls-91, .cls-92, .cls-93, .cls-94 {
        stroke-miterlimit: 10;
      }

      .cls-34, .cls-35 {
        stroke-width: 0.6px;
      }

      .cls-35, .cls-69 {
        stroke: #965523;
      }

      .cls-36 {
        fill: #472d27;
      }

      .cls-37 {
        fill: #c27d4e;
      }

      .cls-38 {
        stroke: #67b6d6;
        stroke-width: 10.45px;
      }

      .cls-38, .cls-43, .cls-44, .cls-45, .cls-70, .cls-74, .cls-75, .cls-81, .cls-82, .cls-89, .cls-90 {
        stroke-linejoin: round;
      }

      .cls-39 {
        fill: #694037;
      }

      .cls-40 {
        fill: #030304;
      }

      .cls-41 {
        fill: url(#linear-gradient-2);
      }

      .cls-42 {
        clip-path: url(#clip-path-2);
      }

      .cls-43, .cls-74 {
        stroke: #f0bda5;
      }

      .cls-43 {
        stroke-width: 6.46px;
      }

      .cls-44, .cls-53 {
        stroke: #5faa97;
      }

      .cls-44 {
        stroke-width: 7.26px;
      }

      .cls-45 {
        stroke: #fcbaa4;
        stroke-width: 5.81px;
      }

      .cls-46, .cls-91, .cls-93, .cls-94 {
        stroke: #000;
      }

      .cls-46 {
        stroke-width: 0.65px;
      }

      .cls-47 {
        fill: #3b2416;
      }

      .cls-48 {
        fill: #f0bda5;
      }

      .cls-49 {
        fill: #19a57a;
      }

      .cls-50 {
        stroke: #19a57a;
        stroke-width: 0.81px;
      }

      .cls-51 {
        fill: #7c431c;
      }

      .cls-52 {
        fill: #bee4dc;
      }

      .cls-53 {
        stroke-width: 0.46px;
      }

      .cls-54 {
        fill: url(#linear-gradient-3);
      }

      .cls-55 {
        clip-path: url(#clip-path-3);
      }

      .cls-56 {
        fill: #f7a17f;
      }

      .cls-57 {
        fill: #30336c;
      }

      .cls-58 {
        fill: #f2f2f2;
      }

      .cls-59 {
        fill: #ea4c89;
      }

      .cls-60 {
        fill: #c52563;
      }

      .cls-61 {
        stroke: #f2f2f2;
        stroke-width: 0.52px;
      }

      .cls-62 {
        stroke: #f7a17f;
      }

      .cls-62, .cls-63 {
        stroke-width: 4.89px;
      }

      .cls-63, .cls-64 {
        stroke: #eb4d4c;
      }

      .cls-64 {
        stroke-width: 0.66px;
      }

      .cls-65 {
        fill: #eb4d4c;
      }

      .cls-66 {
        fill: url(#linear-gradient-4);
      }

      .cls-67 {
        clip-path: url(#clip-path-4);
      }

      .cls-68, .cls-69 {
        stroke-width: 0.61px;
      }

      .cls-70 {
        stroke: #0e1f38;
        stroke-width: 10.72px;
      }

      .cls-71 {
        fill: #845043;
      }

      .cls-72 {
        fill: url(#linear-gradient-5);
      }

      .cls-73 {
        clip-path: url(#clip-path-5);
      }

      .cls-74 {
        stroke-width: 6.22px;
      }

      .cls-75, .cls-90 {
        stroke: #f2bd45;
      }

      .cls-75 {
        stroke-width: 7px;
      }

      .cls-76 {
        stroke: #f0932b;
        stroke-width: 0.78px;
      }

      .cls-77 {
        fill: url(#linear-gradient-6);
      }

      .cls-78 {
        clip-path: url(#clip-path-6);
      }

      .cls-79 {
        fill: #f6de93;
      }

      .cls-80 {
        fill: #eb4d4b;
      }

      .cls-81 {
        stroke: #e49a70;
      }

      .cls-81, .cls-82 {
        stroke-width: 4.93px;
      }

      .cls-82 {
        stroke: #9e3433;
      }

      .cls-82, .cls-90 {
        stroke-linecap: square;
      }

      .cls-83 {
        clip-path: url(#clip-path-7);
      }

      .cls-84 {
        stroke: #4c1919;
        stroke-width: 1.49px;
      }

      .cls-85 {
        fill: #3f220f;
      }

      .cls-86 {
        fill: url(#linear-gradient-7);
      }

      .cls-87 {
        clip-path: url(#clip-path-8);
      }

      .cls-88 {
        fill: #b26b57;
      }

      .cls-89, .cls-92 {
        stroke: #855041;
      }

      .cls-89, .cls-90 {
        stroke-width: 4.94px;
      }

      .cls-91, .cls-92 {
        stroke-width: 0.15px;
      }

      .cls-93 {
        stroke-width: 0.14px;
      }

      .cls-94 {
        stroke-width: 0.16px;
      }

      .cls-95 {
        fill: #f2ce68;
      }
    </style>
    <linearGradient id="linear-gradient" x1="326.22" y1="167.82" x2="362.26" y2="167.82" gradientUnits="userSpaceOnUse">
      <stop offset="0" stop-color="#fff"/>
      <stop offset="1" stop-color="#fff"/>
    </linearGradient>
    <clipPath id="clip-path">
      <path class="cls-1" d="M362.26,168.2a35.74,35.74,0,1,1-35.74-35.74A35.74,35.74,0,0,1,362.26,168.2Z"/>
    </clipPath>
    <linearGradient id="linear-gradient-2" x1="197.81" y1="53.4" x2="233.85" y2="53.4" xlink:href="#linear-gradient"/>
    <clipPath id="clip-path-2">
      <path class="cls-1" d="M233.85,53.94A35.74,35.74,0,1,1,198.11,18.2,35.74,35.74,0,0,1,233.85,53.94Z"/>
    </clipPath>
    <linearGradient id="linear-gradient-3" x1="285.44" y1="85.55" x2="321.49" y2="85.55" xlink:href="#linear-gradient"/>
    <clipPath id="clip-path-3">
      <path class="cls-1" d="M321.49,86.36a35.75,35.75,0,1,1-35.74-35.74A35.74,35.74,0,0,1,321.49,86.36Z"/>
    </clipPath>
    <linearGradient id="linear-gradient-4" x1="109.12" y1="85.55" x2="145.17" y2="85.55" xlink:href="#linear-gradient"/>
    <clipPath id="clip-path-4">
      <path class="cls-1" d="M145.17,86.36a35.74,35.74,0,1,1-35.74-35.74A35.74,35.74,0,0,1,145.17,86.36Z"/>
    </clipPath>
    <linearGradient id="linear-gradient-5" x1="78.51" y1="259.15" x2="114.56" y2="259.15" xlink:href="#linear-gradient"/>
    <clipPath id="clip-path-5">
      <path class="cls-1" d="M114.56,260a35.74,35.74,0,1,1-35.74-35.74A35.74,35.74,0,0,1,114.56,260Z"/>
    </clipPath>
    <linearGradient id="linear-gradient-6" x1="316.27" y1="259.33" x2="352.32" y2="259.33" xlink:href="#linear-gradient"/>
    <clipPath id="clip-path-6">
      <path class="cls-1" d="M352.32,260.41a35.74,35.74,0,1,1-35.74-35.74A35.74,35.74,0,0,1,352.32,260.41Z"/>
    </clipPath>
    <clipPath id="clip-path-7">
      <path class="cls-1" d="M331.85,312.17c-.08,7.78,3.46,16.07,3.46,16.07H297a49.92,49.92,0,0,0,2.81-16c0-8.86-2.36-16-2.66-20.21-.2-3,.17-11.89.17-11.89a12.17,12.17,0,0,1,11.8-9.18H323.4a12.17,12.17,0,0,1,11.8,9.18s.59,8.92.39,11.89C335.59,292,331.91,305.82,331.85,312.17Z"/>
    </clipPath>
    <linearGradient id="linear-gradient-7" x1="62.22" y1="166.78" x2="98.27" y2="166.78" xlink:href="#linear-gradient"/>
    <clipPath id="clip-path-8">
      <path class="cls-1" d="M98.27,167.59a35.74,35.74,0,1,1-35.74-35.74A35.74,35.74,0,0,1,98.27,167.59Z"/>
    </clipPath>
  </defs>
  <title>img-7</title>
  <g id="platform">
    <path class="cls-2" d="M400,296.23q-98.67-9.8-200-9.89T0,296.23V331H400Z"/>
    <g>
      <g>
        <path class="cls-3" d="M323,17.82a3.71,3.71,0,0,0-3.71-3.71H299.92a3.72,3.72,0,0,0-3.71,3.71V28.44a3.73,3.73,0,0,0,.27,1.38v0l0,0a3.72,3.72,0,0,0,3.42,2.26h19.34a3.71,3.71,0,0,0,3.42-2.26l0,0,0,0a3.73,3.73,0,0,0,.27-1.38Z"/>
        <g>
          <path class="cls-4" d="M299.3,30.07c-.05.06,7.46-6.21,7.46-6.21l2.52,1.51a.68.68,0,0,0,.31.08.65.65,0,0,0,.31-.08l2.52-1.51s7.52,6.27,7.46,6.21l-6.2-7,8.19-7-12.28,6-12.28-6,8.19,7Z"/>
          <path class="cls-5" d="M299.09,29.86a.15.15,0,0,0,0,.2.14.14,0,0,0,.1.05.18.18,0,0,0,.1,0l7.46-7,2.52,1.51a.68.68,0,0,0,.31.08.65.65,0,0,0,.31-.08l2.52-1.51,7.46,7a.21.21,0,0,0,.1,0,.14.14,0,0,0,.1-.05.14.14,0,0,0,0-.2l-6.41-7.51,8.19-6.2-12.28,6.76-12.28-6.76,8.19,6.2Z"/>
        </g>
      </g>
      <g>
        <path class="cls-6" d="M22,227.85Z"/>
        <path class="cls-6" d="M28.61,227.46a1.49,1.49,0,0,1,.17-.54,19.13,19.13,0,0,0,2.46-3.35,7.22,7.22,0,1,0-13.67-3.22,7.13,7.13,0,0,0,.74,3.19h0v0a12.14,12.14,0,0,0,2,2.78,4.64,4.64,0,0,1,.47.57,1.34,1.34,0,0,1,.16.56,1.31,1.31,0,0,0-.27.8v.26h0a1.3,1.3,0,0,1,0,1.73v.29a1.3,1.3,0,0,0,1.3,1.27h.42l-.16.07a2.78,2.78,0,0,0,5.11,0l-.09,0h.35a1.3,1.3,0,0,0,1.3-1.29v-.25a.29.29,0,0,1,0,.09.43.43,0,0,0,0-.11h0v0a1.29,1.29,0,0,0-.33-.83,1.31,1.31,0,0,0,.33-.86v-.25a.29.29,0,0,1,0,.09.43.43,0,0,0,0-.11h0v0A1.28,1.28,0,0,0,28.61,227.46Zm-.56.82h0v.27a.45.45,0,0,1-.44.43H22a.44.44,0,0,1-.44-.41v-.28a.44.44,0,0,1,.41-.43h5.66a.43.43,0,0,1,.43.43Zm-4.76-5.86a8.08,8.08,0,0,0,1.41-1.28h.19a7.74,7.74,0,0,0,1.41,1.28L25.6,227H24Zm-3.64.43a5.72,5.72,0,1,1,10.86-2.5,5.87,5.87,0,0,1-.6,2.5,10.65,10.65,0,0,1-1.78,2.48,4.6,4.6,0,0,0-.65.83,2.46,2.46,0,0,0-.32.82h-.69l.65-4.16a1.66,1.66,0,0,0,.49.07,1.22,1.22,0,0,0,1-.51,1.77,1.77,0,0,0,.31-1,1.53,1.53,0,0,0-.89-1.48.87.87,0,0,0-.32-.06,1,1,0,0,0-.8.46,3.36,3.36,0,0,0-.45,1.09s0,.06,0,.08a7.46,7.46,0,0,1-1-.94.93.93,0,0,0-.7-.25,1.24,1.24,0,0,0-.33,0,.75.75,0,0,0-.37.21,7.47,7.47,0,0,1-1,.94c0-.13-.07-.28-.12-.44a2.87,2.87,0,0,0-.35-.73,1,1,0,0,0-.8-.46.87.87,0,0,0-.32.06,1.53,1.53,0,0,0-.89,1.48,1.76,1.76,0,0,0,.3,1,1.23,1.23,0,0,0,1,.51,1.71,1.71,0,0,0,.49-.07l.65,4.16h-.71a2.86,2.86,0,0,0-.32-.82C21.47,225.18,20.79,224.94,19.65,222.85Zm7.6-.9a.44.44,0,0,1,0-.1,3.57,3.57,0,0,1,.24-.84,1.42,1.42,0,0,1,.17-.28l.05,0h0a.71.71,0,0,1,.31.67.9.9,0,0,1-.14.5.37.37,0,0,1-.32.16A1,1,0,0,1,27.25,222Zm-4.91,0A.81.81,0,0,1,22,222a.38.38,0,0,1-.33-.16.9.9,0,0,1-.13-.5c0-.35.17-.64.31-.67h0a1.53,1.53,0,0,1,.36.74,3.92,3.92,0,0,1,.1.46A.11.11,0,0,1,22.34,222Zm2.45,10.76a1.9,1.9,0,0,1-1.61-.88H26.4A1.92,1.92,0,0,1,24.79,232.71Zm3.26-2.44h0v.27a.45.45,0,0,1-.44.43H22a.44.44,0,0,1-.44-.42v-.28a.44.44,0,0,1,.44-.43h5.63a.43.43,0,0,1,.43.43Z"/>
        <path class="cls-6" d="M24.8,212a.44.44,0,0,0,.43-.44v-2.42a.44.44,0,0,0-.87,0v2.42A.44.44,0,0,0,24.8,212Z"/>
        <path class="cls-6" d="M18.41,214.4a.42.42,0,0,0,.3.12.47.47,0,0,0,.31-.12.43.43,0,0,0,0-.61l-1.72-1.72a.43.43,0,0,0-.61.61Z"/>
        <path class="cls-6" d="M31.18,226a.45.45,0,0,0-.61,0,.44.44,0,0,0,0,.62l1.72,1.71a.42.42,0,0,0,.3.12.47.47,0,0,0,.31-.12.45.45,0,0,0,0-.61Z"/>
        <path class="cls-6" d="M16.19,219.74H13.77a.44.44,0,0,0-.43.44.43.43,0,0,0,.43.43h2.42a.43.43,0,0,0,.43-.43A.44.44,0,0,0,16.19,219.74Z"/>
        <path class="cls-6" d="M35.82,219.74H33.4a.44.44,0,0,0,0,.87h2.42a.44.44,0,0,0,0-.87Z"/>
        <path class="cls-6" d="M18.4,226l-1.71,1.72a.43.43,0,0,0,0,.61.47.47,0,0,0,.31.12.42.42,0,0,0,.3-.12L19,226.57a.44.44,0,1,0-.62-.62Z"/>
        <path class="cls-6" d="M30.88,214.52a.42.42,0,0,0,.3-.12l1.72-1.71a.46.46,0,0,0,0-.62.45.45,0,0,0-.61,0l-1.72,1.72a.43.43,0,0,0,0,.61A.47.47,0,0,0,30.88,214.52Z"/>
      </g>
      <g>
        <path class="cls-6" d="M43,102.93h0Z"/>
        <path class="cls-6" d="M49.6,102.54a1.32,1.32,0,0,1,.17-.54,19.13,19.13,0,0,0,2.46-3.35A7.38,7.38,0,0,0,53,95.43a7.23,7.23,0,1,0-14.45,0,7.13,7.13,0,0,0,.74,3.19v0h0a12.14,12.14,0,0,0,2,2.78,4.64,4.64,0,0,1,.47.57,1.34,1.34,0,0,1,.16.56,1.31,1.31,0,0,0-.27.8v.26h0a1.32,1.32,0,0,0,.33.87,1.31,1.31,0,0,0-.33.86v.29A1.3,1.3,0,0,0,43,106.91h.43l-.17.07a2.78,2.78,0,0,0,5.12,0l-.09,0h.35a1.3,1.3,0,0,0,1.3-1.29v-.24a.31.31,0,0,1,0,.08.36.36,0,0,0,0-.11h0v0a1.34,1.34,0,0,0-.33-.83,1.31,1.31,0,0,0,.33-.86v-.25a.29.29,0,0,1,0,.09.43.43,0,0,0,0-.11h0v0A1.31,1.31,0,0,0,49.6,102.54Zm-.56.82h0v.27a.43.43,0,0,1-.43.43H43a.45.45,0,0,1-.43-.42v-.28a.44.44,0,0,1,.41-.43H48.6a.43.43,0,0,1,.43.43ZM44.28,97.5a8.08,8.08,0,0,0,1.41-1.28h.19a7.74,7.74,0,0,0,1.41,1.28l-.7,4.56H45Zm-3.64.43a5.77,5.77,0,0,1-.57-2.5,5.72,5.72,0,0,1,11.43,0,5.87,5.87,0,0,1-.6,2.5,10.65,10.65,0,0,1-1.78,2.48,5.12,5.12,0,0,0-.66.83,2.65,2.65,0,0,0-.31.83h-.69l.64-4.16a2.26,2.26,0,0,0,.5.08,1.26,1.26,0,0,0,1-.52,1.76,1.76,0,0,0,.31-1A1.53,1.53,0,0,0,49,95a.87.87,0,0,0-.32-.06,1,1,0,0,0-.8.46,3.36,3.36,0,0,0-.45,1.09s0,.06,0,.09a8.39,8.39,0,0,1-1-1,.93.93,0,0,0-.7-.25,1.24,1.24,0,0,0-.33,0,.75.75,0,0,0-.37.21,8.41,8.41,0,0,1-1,1q0-.21-.12-.45a2.87,2.87,0,0,0-.35-.73,1,1,0,0,0-.8-.46.87.87,0,0,0-.32.06,1.53,1.53,0,0,0-.89,1.49,1.75,1.75,0,0,0,.3,1A1.26,1.26,0,0,0,43,98a2.18,2.18,0,0,0,.49-.08l.65,4.16h-.72a2.68,2.68,0,0,0-.31-.82C42.46,100.26,41.78,100,40.64,97.93Zm7.6-.9s0-.06,0-.1a4.18,4.18,0,0,1,.25-.84,1.42,1.42,0,0,1,.17-.28l0,0h0a.72.72,0,0,1,.31.68.89.89,0,0,1-.14.49.35.35,0,0,1-.32.16A.81.81,0,0,1,48.24,97Zm-4.91,0a.81.81,0,0,1-.36.08.36.36,0,0,1-.33-.16.89.89,0,0,1-.13-.49c0-.36.17-.65.31-.68h0a1.63,1.63,0,0,1,.36.74,3.65,3.65,0,0,1,.1.47A.06.06,0,0,1,43.33,97Zm2.45,10.76a1.9,1.9,0,0,1-1.61-.88h3.22A1.92,1.92,0,0,1,45.78,107.79ZM49,105.35h0v.27a.43.43,0,0,1-.43.43H43a.44.44,0,0,1-.43-.42h0v-.27a.44.44,0,0,1,.43-.43H48.6a.43.43,0,0,1,.43.43Z"/>
        <path class="cls-6" d="M45.78,87.09a.44.44,0,0,0,.44-.44V84.23a.44.44,0,0,0-.87,0v2.42A.44.44,0,0,0,45.78,87.09Z"/>
        <path class="cls-6" d="M39.4,89.48a.43.43,0,0,0,.3.13.48.48,0,0,0,.31-.13.43.43,0,0,0,0-.61l-1.72-1.72a.45.45,0,0,0-.61,0,.44.44,0,0,0,0,.62Z"/>
        <path class="cls-6" d="M52.17,101a.43.43,0,1,0-.61.61l1.72,1.71a.43.43,0,0,0,.3.13.48.48,0,0,0,.31-.13.45.45,0,0,0,0-.61Z"/>
        <path class="cls-6" d="M37.18,94.82H34.76a.44.44,0,0,0-.43.44.43.43,0,0,0,.43.43h2.42a.43.43,0,0,0,.43-.43A.44.44,0,0,0,37.18,94.82Z"/>
        <path class="cls-6" d="M56.81,94.83H54.39a.43.43,0,1,0,0,.86h2.42a.43.43,0,1,0,0-.86Z"/>
        <path class="cls-6" d="M39.39,101l-1.71,1.72a.43.43,0,0,0,0,.61.48.48,0,0,0,.31.13.43.43,0,0,0,.3-.13L40,101.65a.44.44,0,1,0-.62-.62Z"/>
        <path class="cls-6" d="M51.87,89.61a.43.43,0,0,0,.3-.13l1.72-1.71a.45.45,0,0,0,0-.61.43.43,0,0,0-.61,0l-1.72,1.71a.43.43,0,0,0,0,.61A.48.48,0,0,0,51.87,89.61Z"/>
      </g>
      <g>
        <path class="cls-6" d="M371.33,229.84h0Z"/>
        <path class="cls-6" d="M378,229.45a1.23,1.23,0,0,1,.16-.53,18.76,18.76,0,0,0,2.47-3.36,7.34,7.34,0,0,0,.78-3.21,7.23,7.23,0,1,0-13.72,3.19h0a12.26,12.26,0,0,0,2,2.79,3.22,3.22,0,0,1,.46.57,1.32,1.32,0,0,1,.17.56,1.28,1.28,0,0,0-.27.79v.27h0a1.3,1.3,0,0,1,0,1.73v.28a1.29,1.29,0,0,0,1.29,1.28h.42l-.16.07a2.79,2.79,0,0,0,5.12,0l-.1,0H377a1.31,1.31,0,0,0,1.3-1.3v-.24s0,.05,0,.09a.52.52,0,0,0,0-.11h0v0a1.28,1.28,0,0,0-.33-.84,1.3,1.3,0,0,0,.34-.86v-.24s0,0,0,.08a.36.36,0,0,0,0-.1h0v0A1.27,1.27,0,0,0,378,229.45Zm-.57.83h0v.26a.43.43,0,0,1-.43.43h-5.64a.44.44,0,0,1-.43-.42h0v-.27a.44.44,0,0,1,.41-.43H377a.43.43,0,0,1,.43.43Zm-4.76-5.86a7.78,7.78,0,0,0,1.41-1.28h.2a7.43,7.43,0,0,0,1.41,1.28l-.71,4.56h-1.6Zm-3.63.43a5.67,5.67,0,0,1-.58-2.5,5.72,5.72,0,0,1,11.44,0,6,6,0,0,1-.6,2.49,10.79,10.79,0,0,1-1.78,2.48,5,5,0,0,0-.66.83,2.93,2.93,0,0,0-.32.83h-.68l.64-4.17a1.73,1.73,0,0,0,.49.08,1.24,1.24,0,0,0,1-.52,1.73,1.73,0,0,0,.3-1,1.51,1.51,0,0,0-.88-1.48.91.91,0,0,0-.32-.06,1,1,0,0,0-.8.45,3.09,3.09,0,0,0-.45,1.1.24.24,0,0,0,0,.08,7.49,7.49,0,0,1-1-.94.91.91,0,0,0-.7-.25,1.24,1.24,0,0,0-.33,0,.65.65,0,0,0-.37.21,7.49,7.49,0,0,1-1,.94c0-.13-.07-.29-.12-.44a2.5,2.5,0,0,0-.35-.74,1,1,0,0,0-.8-.45.87.87,0,0,0-.32.06,1.51,1.51,0,0,0-.88,1.48,1.66,1.66,0,0,0,.3,1,1.24,1.24,0,0,0,1,.52,1.73,1.73,0,0,0,.49-.08l.64,4.17h-.71a2.65,2.65,0,0,0-.31-.83C370.82,227.18,370.13,226.93,369,224.85Zm7.59-.9s0-.07,0-.1a3.69,3.69,0,0,1,.25-.85.9.9,0,0,1,.17-.27l.05,0h0c.14,0,.32.31.32.67a.9.9,0,0,1-.14.5.38.38,0,0,1-.33.16A1,1,0,0,1,376.59,224Zm-4.9,0a1.07,1.07,0,0,1-.36.08.38.38,0,0,1-.33-.16.9.9,0,0,1-.14-.5c0-.36.18-.64.31-.67h0a1.43,1.43,0,0,1,.36.73c.05.18.09.35.11.47S371.69,223.93,371.69,224Zm2.44,10.76a1.93,1.93,0,0,1-1.61-.88h3.22A1.9,1.9,0,0,1,374.13,234.71Zm3.26-2.44h0v.26a.43.43,0,0,1-.43.43h-5.64a.44.44,0,0,1-.43-.42h0v-.26a.44.44,0,0,1,.43-.44H377a.43.43,0,0,1,.43.43Z"/>
        <path class="cls-6" d="M374.14,214a.43.43,0,0,0,.43-.43v-2.42a.43.43,0,1,0-.86,0v2.42A.43.43,0,0,0,374.14,214Z"/>
        <path class="cls-6" d="M367.75,216.39a.43.43,0,0,0,.31.13.39.39,0,0,0,.3-.13.43.43,0,0,0,0-.61l-1.71-1.71a.43.43,0,0,0-.61.61Z"/>
        <path class="cls-6" d="M380.53,228a.43.43,0,0,0-.61.61l1.71,1.71a.43.43,0,0,0,.31.13.39.39,0,0,0,.3-.13.43.43,0,0,0,0-.61Z"/>
        <path class="cls-6" d="M365.54,221.74h-2.43a.43.43,0,0,0,0,.86h2.43a.43.43,0,0,0,0-.86Z"/>
        <path class="cls-6" d="M385.17,221.74h-2.43a.43.43,0,0,0,0,.86h2.43a.43.43,0,0,0,0-.86Z"/>
        <path class="cls-6" d="M367.75,228,366,229.66a.43.43,0,0,0,0,.61.39.39,0,0,0,.3.13.43.43,0,0,0,.31-.13l1.71-1.71a.43.43,0,0,0-.61-.61Z"/>
        <path class="cls-6" d="M380.22,216.52a.43.43,0,0,0,.31-.13l1.71-1.71a.43.43,0,0,0-.61-.61l-1.71,1.71a.43.43,0,0,0,0,.61A.39.39,0,0,0,380.22,216.52Z"/>
      </g>
      <path class="cls-7" d="M379,106.09a5.77,5.77,0,0,0-5.76-5.71,5.68,5.68,0,0,0-2.39.54,9.13,9.13,0,0,0-15.93,3.88,5.76,5.76,0,0,0,.51,11.5h22.84a5.13,5.13,0,0,0,.73-10.21Z"/>
      <path class="cls-7" d="M67.77,37.6A5.77,5.77,0,0,0,62,31.89a5.68,5.68,0,0,0-2.39.54,9.13,9.13,0,0,0-15.93,3.88,5.76,5.76,0,0,0,.51,11.5H67a5.13,5.13,0,0,0,.73-10.21Z"/>
      <path class="cls-8" d="M10.35,131.13c-8.22-3.94-9.71-10.54-6.8-12.77s6.8,1.5,6.8,1.5,3.88-3.74,6.79-1.5S18.56,127.19,10.35,131.13Z"/>
      <path class="cls-8" d="M352.87,83.47c-8.21-3.94-9.71-10.54-6.79-12.77s6.79,1.5,6.79,1.5,3.88-3.74,6.8-1.5S361.09,79.53,352.87,83.47Z"/>
      <g>
        <g>
          <path class="cls-9" d="M149.85,30.41l-7.51-3.72a23.44,23.44,0,0,1-4.61.76c-6.55,0-11.88-4.26-11.88-9.5s5.33-9.5,11.88-9.5,11.89,4.26,11.89,9.5a8.18,8.18,0,0,1-1.86,5.11Z"/>
          <g>
            <g>
              <path class="cls-10" d="M134.36,17.68a1,1,0,1,1-1-1A1,1,0,0,1,134.36,17.68Z"/>
              <path class="cls-10" d="M143.1,17.68a1,1,0,1,1-1-1A1,1,0,0,1,143.1,17.68Z"/>
            </g>
            <path class="cls-10" d="M138.73,17.68a1,1,0,1,1-1-1A1,1,0,0,1,138.73,17.68Z"/>
          </g>
        </g>
        <path class="cls-11" d="M142.34,26.69a23.44,23.44,0,0,1-4.61.76c-6.55,0-11.88-4.26-11.88-9.5v0c-2.86,1.55-4.75,4.17-4.75,7.13a7.39,7.39,0,0,0,1.66,4.61l-1.58,5.85,6.5-2.54a21.07,21.07,0,0,0,4.16.69c5.23,0,9.58-3,10.54-7Z"/>
        <path class="cls-12" d="M125.14,18.35c.26,5.45,5.81,9.82,12.59,9.82a21.64,21.64,0,0,0,4.42-.7,6.65,6.65,0,0,0,.23-.76l0,0a23.44,23.44,0,0,1-4.61.76c-6.55,0-11.88-4.26-11.88-9.5v0C125.6,18.06,125.37,18.21,125.14,18.35Z"/>
      </g>
      <g>
        <polygon class="cls-13" points="264.21 30.44 262.15 36.65 250.07 18.48 264.21 30.44"/>
        <polygon class="cls-6" points="261.89 31.41 262.1 37.01 250.07 18.48 261.89 31.41"/>
        <polygon class="cls-6" points="252.75 35.05 250.07 18.48 261.89 31.41 252.75 35.05"/>
        <polygon class="cls-6" points="264.21 30.44 250.07 18.48 269.9 27.93 264.21 30.44"/>
        <polygon class="cls-6" points="250.07 18.48 261.62 31.52 252.75 35.05 261.62 31.84 262.1 37.01 264.41 30.69 269.9 27.93 264.43 30.35 250.07 18.48 264.21 30.44 262.15 36.65 261.89 31.41 250.07 18.48"/>
      </g>
      <g>
        <polygon class="cls-13" points="392.13 174.33 390.07 180.54 377.99 162.37 392.13 174.33"/>
        <polygon class="cls-6" points="389.81 175.3 390.02 180.89 377.99 162.37 389.81 175.3"/>
        <polygon class="cls-6" points="380.67 178.94 377.99 162.37 389.81 175.3 380.67 178.94"/>
        <polygon class="cls-6" points="392.13 174.33 377.99 162.37 397.82 171.82 392.13 174.33"/>
        <polygon class="cls-6" points="377.99 162.37 389.54 175.41 380.67 178.94 389.54 175.73 390.02 180.89 392.33 174.58 397.82 171.82 392.35 174.24 377.99 162.37 392.13 174.33 390.07 180.54 389.81 175.3 377.99 162.37"/>
      </g>
      <g>
        <g>
          <g>
            <g>
              <path class="cls-14" d="M193.67,247.6a15.15,15.15,0,0,0,0-1.65,61.88,61.88,0,0,1-37.55-13.75,19.22,19.22,0,0,1-3.92,3.72,67.16,67.16,0,0,0,41.8,15.4A10.1,10.1,0,0,1,193.67,247.6Z"/>
              <path class="cls-15" d="M134,195.53c-1.77.13-3.51.42-5.28.53h-.08a67.42,67.42,0,0,0,21.91,38.53,17.45,17.45,0,0,0,4-3.67A62.07,62.07,0,0,1,134,195.53Z"/>
              <path class="cls-16" d="M141.2,152.94c-1.36-1-3.44-1.47-4.91-2l-.11,0a67.49,67.49,0,0,0-7.84,43.15l.42,0c1.65-.11,3.29-.37,4.93-.51a62.85,62.85,0,0,1-.76-9.66A61.72,61.72,0,0,1,141.2,152.94Z"/>
              <path class="cls-17" d="M248.13,151.75a23.32,23.32,0,0,0,2.9-1.5l1.76-1.16A67.85,67.85,0,0,0,220,121.21a54.17,54.17,0,0,0-3.28,4.49A62.47,62.47,0,0,1,248.13,151.75Z"/>
              <path class="cls-18" d="M256.42,193.12a23,23,0,0,1,3.71,0,10.67,10.67,0,0,1,1.68.3,67.91,67.91,0,0,0,.67-9.51,67,67,0,0,0-8.68-33.06,28.71,28.71,0,0,1-2.9,1.76l-1.8.83a62,62,0,0,1,7.32,39.71Z"/>
              <path class="cls-19" d="M239.09,234.91a67.5,67.5,0,0,0,22.4-39.47,10.3,10.3,0,0,0-3.32-.39q-1.05.06-2.1.15a62.09,62.09,0,0,1-21.29,36.32Z"/>
              <path class="cls-20" d="M196.16,251.25l0,.07a67.13,67.13,0,0,0,41.32-15.1l-4.32-3.41A61.82,61.82,0,0,1,195.67,246a11.62,11.62,0,0,1,0,1.18C195.65,248.46,195.38,250.1,196.16,251.25Z"/>
              <path class="cls-21" d="M173.27,122.13a20.53,20.53,0,0,0,1.48,3.06,62.24,62.24,0,0,1,40.11-.16c.91-1.61,2.27-3,3.3-4.52a67.48,67.48,0,0,0-45.8-.17A18.78,18.78,0,0,1,173.27,122.13Z"/>
              <path class="cls-6" d="M142.25,151.19a62.52,62.52,0,0,1,30.58-25.3,30,30,0,0,1-1.3-2.75c-.32-.71-.7-1.4-1.09-2.08a67.89,67.89,0,0,0-33.23,28.08A19.92,19.92,0,0,1,142.25,151.19Z"/>
            </g>
            <g>
              <path class="cls-20" d="M199.86,248.22a4.84,4.84,0,0,1-4.84,4.84h0a4.85,4.85,0,0,1-4.84-4.84h0a4.85,4.85,0,0,1,4.84-4.85h0a4.84,4.84,0,0,1,4.84,4.85Zm-1.45,0a3.39,3.39,0,0,0-3.39-3.39h0a3.38,3.38,0,0,0-3.38,3.39h0A3.38,3.38,0,0,0,195,251.6h0a3.38,3.38,0,0,0,3.39-3.38Z"/>
              <path class="cls-22" d="M198.41,248.22a3.39,3.39,0,0,0-3.39-3.39h0a3.38,3.38,0,0,0-3.38,3.39h0A3.38,3.38,0,0,0,195,251.6h0a3.38,3.38,0,0,0,3.39-3.38Z"/>
            </g>
            <path class="cls-6" d="M177.42,120.92a4.84,4.84,0,0,1-2.9,6.2h0a4.83,4.83,0,0,1-6.2-2.89h0a4.85,4.85,0,0,1,2.89-6.21h0a4.86,4.86,0,0,1,6.21,2.9Zm-1.37.49a3.39,3.39,0,0,0-4.34-2h0a3.38,3.38,0,0,0-2,4.34h0a3.39,3.39,0,0,0,4.34,2h0a3.4,3.4,0,0,0,2-4.35Z"/>
            <path class="cls-22" d="M176.05,121.41a3.39,3.39,0,0,0-4.34-2h0a3.38,3.38,0,0,0-2,4.34h0a3.39,3.39,0,0,0,4.34,2h0a3.4,3.4,0,0,0,2-4.35Z"/>
            <g>
              <path class="cls-11" d="M240.37,230a4.85,4.85,0,0,1-.6,6.82h0a4.85,4.85,0,0,1-6.82-.6h0a4.85,4.85,0,0,1,.6-6.82h0a4.84,4.84,0,0,1,6.82.6Zm-1.11.93a3.4,3.4,0,0,0-4.78-.41h0a3.39,3.39,0,0,0-.41,4.77h0a3.4,3.4,0,0,0,4.77.42h0a3.42,3.42,0,0,0,.42-4.78Z"/>
              <path class="cls-22" d="M239.26,230.88a3.4,3.4,0,0,0-4.78-.41h0a3.39,3.39,0,0,0-.41,4.77h0a3.4,3.4,0,0,0,4.77.42h0a3.42,3.42,0,0,0,.42-4.78Z"/>
            </g>
            <path class="cls-16" d="M141.35,146.86a4.84,4.84,0,0,1,1.77,6.61h0a4.84,4.84,0,0,1-6.61,1.78h0a4.84,4.84,0,0,1-1.77-6.62h0a4.85,4.85,0,0,1,6.61-1.77Zm-.73,1.26a3.4,3.4,0,0,0-4.63,1.24h0a3.41,3.41,0,0,0,1.24,4.63h0a3.4,3.4,0,0,0,4.63-1.24h0a3.4,3.4,0,0,0-1.24-4.63Z"/>
            <path class="cls-22" d="M140.62,148.12a3.4,3.4,0,0,0-4.63,1.24h0a3.41,3.41,0,0,0,1.24,4.63h0a3.4,3.4,0,0,0,4.63-1.24h0a3.4,3.4,0,0,0-1.24-4.63Z"/>
            <g>
              <path class="cls-18" d="M259.65,189.92a4.86,4.86,0,0,1,3.93,5.61h0a4.84,4.84,0,0,1-5.61,3.92h0a4.83,4.83,0,0,1-3.92-5.6h0a4.84,4.84,0,0,1,5.6-3.93Zm-.25,1.43a3.39,3.39,0,0,0-3.92,2.75h0a3.39,3.39,0,0,0,2.75,3.92h0a3.39,3.39,0,0,0,3.92-2.74h0a3.4,3.4,0,0,0-2.75-3.93Z"/>
              <path class="cls-22" d="M259.4,191.35a3.39,3.39,0,0,0-3.92,2.75h0a3.39,3.39,0,0,0,2.75,3.92h0a3.39,3.39,0,0,0,3.92-2.74h0a3.4,3.4,0,0,0-2.75-3.93Z"/>
            </g>
            <path class="cls-15" d="M130.39,189.92a4.85,4.85,0,0,1,5.61,3.93h0a4.84,4.84,0,0,1-3.93,5.6h0a4.83,4.83,0,0,1-5.6-3.92h0a4.84,4.84,0,0,1,3.92-5.61Zm.25,1.43a3.4,3.4,0,0,0-2.74,3.93h0a3.38,3.38,0,0,0,3.92,2.74h0a3.39,3.39,0,0,0,2.75-3.92h0a3.4,3.4,0,0,0-3.93-2.75Z"/>
            <path class="cls-22" d="M130.64,191.35a3.4,3.4,0,0,0-2.74,3.93h0a3.38,3.38,0,0,0,3.92,2.74h0a3.39,3.39,0,0,0,2.75-3.92h0a3.4,3.4,0,0,0-3.93-2.75Z"/>
            <g>
              <path class="cls-17" d="M248.7,146.86a4.85,4.85,0,0,1,6.61,1.77h0a4.84,4.84,0,0,1-1.77,6.61h0a4.83,4.83,0,0,1-6.61-1.77h0a4.83,4.83,0,0,1,1.77-6.61Zm.73,1.26a3.39,3.39,0,0,0-1.24,4.63h0a3.39,3.39,0,0,0,4.62,1.24h0a3.4,3.4,0,0,0,1.24-4.63h0a3.38,3.38,0,0,0-4.62-1.24Z"/>
              <path class="cls-22" d="M249.43,148.12a3.39,3.39,0,0,0-1.24,4.63h0a3.39,3.39,0,0,0,4.62,1.24h0a3.4,3.4,0,0,0,1.24-4.63h0a3.38,3.38,0,0,0-4.62-1.24Z"/>
            </g>
            <g>
              <path class="cls-14" d="M149.68,230a4.84,4.84,0,0,1,6.82-.6h0a4.85,4.85,0,0,1,.6,6.82h0a4.84,4.84,0,0,1-6.82.6h0a4.84,4.84,0,0,1-.6-6.82Zm1.11.93a3.39,3.39,0,0,0,.42,4.77h0a3.38,3.38,0,0,0,4.77-.41h0a3.4,3.4,0,0,0-.42-4.78h0a3.4,3.4,0,0,0-4.77.42Z"/>
              <path class="cls-22" d="M150.79,230.88a3.39,3.39,0,0,0,.42,4.77h0a3.38,3.38,0,0,0,4.77-.41h0a3.4,3.4,0,0,0-.42-4.78h0a3.4,3.4,0,0,0-4.77.42Z"/>
            </g>
            <g>
              <path class="cls-21" d="M212.63,121.35a4.84,4.84,0,0,1,6.2-2.89h0a4.84,4.84,0,0,1,2.9,6.2h0a4.86,4.86,0,0,1-6.21,2.9h0a4.85,4.85,0,0,1-2.89-6.21Zm1.37.5a3.38,3.38,0,0,0,2,4.34h0a3.39,3.39,0,0,0,4.34-2h0a3.4,3.4,0,0,0-2-4.34h0a3.39,3.39,0,0,0-4.34,2Z"/>
              <path class="cls-22" d="M214,121.85a3.38,3.38,0,0,0,2,4.34h0a3.39,3.39,0,0,0,4.34-2h0a3.4,3.4,0,0,0-2-4.34h0a3.39,3.39,0,0,0-4.34,2Z"/>
            </g>
          </g>
          <g>
            <path class="cls-7" d="M232.89,164.68a42.16,42.16,0,0,1,4.6,19.2q0,2.16-.21,4.29l11.92,2.1a56.23,56.23,0,0,0,.37-6.39,54.24,54.24,0,0,0-6.21-25.25Z"/>
            <g>
              <path class="cls-17" d="M212,145a42.65,42.65,0,0,1,18.12,15.08l10.48-6a54.83,54.83,0,0,0-24.46-20.4Z"/>
              <g>
                <path class="cls-21" d="M183.2,143.09a42.5,42.5,0,0,1,23.8,0l4.14-11.37a54.62,54.62,0,0,0-32.09,0Z"/>
                <g>
                  <path class="cls-16" d="M157.16,164.68l-10.48-6.05a54.34,54.34,0,0,0-5.83,31.64l11.92-2.11c-.14-1.41-.22-2.84-.22-4.28A42.13,42.13,0,0,1,157.16,164.68Z"/>
                  <path class="cls-6" d="M159.89,160.06a42.75,42.75,0,0,1,18.25-15.15L174,133.54A54.9,54.9,0,0,0,149.41,154Z"/>
                </g>
              </g>
            </g>
          </g>
        </g>
        <g>
          <path class="cls-23" d="M178.65,278.87s-10.35-4.78-14.54-23.36A49.47,49.47,0,0,1,162.6,246h0c-.07-5.85,9.05-16,2.12-36.61a16.62,16.62,0,0,0-9.17-10.18,9,9,0,0,0-1.19-.38h0a5.67,5.67,0,0,0-.57-.1,5.21,5.21,0,0,0-2.2.16c-3,.84-5.19,4.09-4.5,6a52.12,52.12,0,0,1-2.49,29.7c-.4.92-.75,1.78-1,2.58a46,46,0,0,0-2.37,10.4,71.39,71.39,0,0,0-.74,8.19.81.81,0,0,0,0,.16h0c-.54,16.18,4.27,31.16,11.72,38.29V346.5h52s-1.8-30.91,2.24-47c15.16-3.32,24.54-22.11,28.22-28.27Z"/>
          <g class="cls-24">
            <path class="cls-25" d="M142.68,255.9h0a.81.81,0,0,1,0-.16,71.42,71.42,0,0,1,.75-8.19,46,46,0,0,1,2.37-10.4,26.41,26.41,0,0,1,1-2.58,52.19,52.19,0,0,0,2.5-29.7c-.69-1.93,1.45-5.18,4.49-6l.36-.09-.41-.07a5.21,5.21,0,0,0-2.2.16c-3,.84-5.19,4.09-4.5,6a52.12,52.12,0,0,1-2.49,29.7c-.4.92-.75,1.78-1,2.58a46,46,0,0,0-2.37,10.4,71.39,71.39,0,0,0-.74,8.19.81.81,0,0,0,0,.16h0c-.54,16.18,4.27,31.16,11.72,38.29V346.5h2.25V294.19C147,287.06,142.14,272.08,142.68,255.9Z"/>
          </g>
          <g>
            <path class="cls-26" d="M233.27,271.41l-54.62,7.46s-10.35-4.78-14.54-23.36c-1.41-6.22-1.67-9.09-1.43-11.22-.42.22.42-.23,0,0l-1.23,35a9.22,9.22,0,0,0,9.06,9.32h0l52.53-.1a90.63,90.63,0,0,0,10.22-15Z"/>
            <g>
              <path class="cls-27" d="M232.07,169.09a8.1,8.1,0,0,0-7.94-8.19l-53.7.11a8.1,8.1,0,0,0-7.93,8.2l0,35.76a17.49,17.49,0,0,1,2.19,4.39c6.93,20.61-2.19,30.76-2.12,36.61l0,.05,0,33.27a8.1,8.1,0,0,0,7.94,8.19l53.7-.1a8.1,8.1,0,0,0,7.93-8.21Z"/>
              <rect class="cls-28" x="168.45" y="174.17" width="57.74" height="98.04"/>
              <path class="cls-12" d="M226.19,243c-1.52.78-3.58,1.78-6.38,3.09-9.73,4.57-13,10.87-12.92,14.88a5.86,5.86,0,0,0,3.78,5.51,17.81,17.81,0,0,0,6,.78c.93,0,1.89,0,2.89-.11-.07.22-.14.45-.19.67a8,8,0,0,0-.08,4.45h6.95Z"/>
              <path class="cls-23" d="M239.71,253.18s6.71,3.83,4,10.72-26.51,17.38-23.15,4.15c2-7.95,13.54-13.6,16.5-14.87Z"/>
              <path class="cls-12" d="M243.31,256.87a10.78,10.78,0,0,0-3.6-3.69H237c-2.83,1.21-13.45,6.42-16.16,13.81C228.58,266.22,238.42,263.3,243.31,256.87Z"/>
              <g class="cls-24">
                <path class="cls-25" d="M218.53,239.07a5.82,5.82,0,0,0,5.31,2.84,11.05,11.05,0,0,0,2.35-.28V218a54.76,54.76,0,0,0-5.62,7.75C217.5,231,216.74,236,218.53,239.07Z"/>
              </g>
              <polygon class="cls-22" points="169.98 253.18 170.15 175.86 224.5 175.86 224.5 195.81 169.98 253.18"/>
            </g>
            <path class="cls-23" d="M232.11,185.53c6.21-10.11,15-10.8,18.15-7.43,5.12,5.53-6.72,23.29-18.07,29Z"/>
            <path class="cls-12" d="M233.21,183.88c-.38.52-.74,1.07-1.1,1.65l.08,21.6c.34-.17.69-.36,1-.55Z"/>
            <path class="cls-23" d="M236.72,234.42s12-1.07,9.42,14.81-29.27,18.38-34.92,16.15-4-12.12,9.21-18.32c11.71-5.49,10.66-5.7,11.7-6.2v-5.92Z"/>
            <path class="cls-12" d="M236.72,234.42l-4.6.52v4.24l.28-.18a44.74,44.74,0,0,0,5.79-4.14l.42-.35A9.09,9.09,0,0,0,236.72,234.42Z"/>
            <path class="cls-29" d="M213.61,265.38c-5.64-2.23-4-12.12,9.21-18.32,11.72-5.49,8.27-5.7,9.31-6.2-1,.5,0,.71-11.7,6.2-13.23,6.2-14.85,16.09-9.21,18.32a19.11,19.11,0,0,0,6.77.68A14.5,14.5,0,0,1,213.61,265.38Z"/>
          </g>
          <path class="cls-23" d="M232.08,208.08c5.44-.29,14.1.74,17,7.21s-13.35,22.79-22.62,25.16c-8,2.05-9.81-5.53-4.76-14.16a63.55,63.55,0,0,1,10.4-12.74Z"/>
          <path class="cls-12" d="M223.37,226.29a119.54,119.54,0,0,1,8.71-12.74,63.55,63.55,0,0,0-10.4,12.74c-4.69,8-3.48,15.12,3.15,14.45C219.71,240.11,219.11,233.57,223.37,226.29Z"/>
        </g>
      </g>
      <g>
        <g>
          <path class="cls-7" d="M370.55,167.82a44,44,0,1,1-44-44A44,44,0,0,1,370.55,167.82Z"/>
          <g>
            <path class="cls-22" d="M362.26,167.82a35.74,35.74,0,1,1-35.74-35.74A35.74,35.74,0,0,1,362.26,167.82Z"/>
            <path class="cls-30" d="M326.52,132.08h-.3a35.74,35.74,0,0,1,0,71.47h.3a35.74,35.74,0,1,0,0-71.48Z"/>
          </g>
        </g>
        <g class="cls-31">
          <g>
            <g id="leg">
              <path class="cls-32" d="M339.47,245.24c.66,6,.94,12,1.1,17.95,0,3,.15,6,.05,9s-.45,6-.69,9l-2.25,35.91a2.69,2.69,0,0,1-5.37,0l-2.26-35.91c-.23-3-.59-6-.68-9s0-6,.05-9c.15-6,.44-12,1.09-17.95a4.51,4.51,0,0,1,9,0Z"/>
            </g>
            <g id="leg-2" data-name="leg">
              <path class="cls-32" d="M321.43,245.24c.39,6,.56,12,.62,17.95,0,3,.06,6,0,9s-.31,6-.5,9l-2,35.91a2.59,2.59,0,0,1-5.18,0l-2-35.91c-.19-3-.41-6-.5-9s0-6,0-9c0-6,.23-12,.62-17.95a4.49,4.49,0,0,1,9,0Z"/>
            </g>
            <path d="M330.57,322.57h23v.07a3.61,3.61,0,0,0-2.75-3.5L342,316.31l-.05,0a5,5,0,0,1-1.72-5.59h0a1.44,1.44,0,0,0-1.37-1.92h-8.28Z"/>
            <path class="cls-33" d="M330.57,322.39h6.63a1.66,1.66,0,0,1,1.66,1.66v0a0,0,0,0,1,0,0h-8.29a0,0,0,0,1,0,0v-1.66A0,0,0,0,1,330.57,322.39Z" transform="translate(669.44 646.43) rotate(-180)"/>
            <path class="cls-33" d="M340.52,322.39h11.42a1.66,1.66,0,0,1,1.66,1.66v0a0,0,0,0,1,0,0H338.86a0,0,0,0,1,0,0v0A1.66,1.66,0,0,1,340.52,322.39Z" transform="translate(692.45 646.43) rotate(-180)"/>
            <line class="cls-34" x1="339.97" y1="311.71" x2="337.02" y2="311.71"/>
            <line class="cls-34" x1="340.04" y1="313.73" x2="337.76" y2="313.73"/>
            <line class="cls-34" x1="341.25" y1="315.76" x2="339.23" y2="315.76"/>
            <path d="M321.18,322.57h-23v.07a3.61,3.61,0,0,1,2.75-3.5l8.85-2.83.05,0a5,5,0,0,0,1.72-5.59h0a1.44,1.44,0,0,1,1.37-1.92h8.27Z"/>
            <path class="cls-33" d="M312.9,322.39h8.29a0,0,0,0,1,0,0v0a1.66,1.66,0,0,1-1.66,1.66H312.9a0,0,0,0,1,0,0v-1.66A0,0,0,0,1,312.9,322.39Z"/>
            <path class="cls-33" d="M298.17,322.39H312.9a0,0,0,0,1,0,0v0a1.66,1.66,0,0,1-1.66,1.66H299.83a1.66,1.66,0,0,1-1.66-1.66v0A0,0,0,0,1,298.17,322.39Z"/>
            <line class="cls-35" x1="311.79" y1="311.71" x2="314.74" y2="311.71"/>
            <line class="cls-35" x1="311.72" y1="313.73" x2="314" y2="313.73"/>
            <line class="cls-35" x1="310.51" y1="315.76" x2="312.53" y2="315.76"/>
            <g>
              <g id="leg-3" data-name="leg">
                <polygon class="cls-36" points="325.39 303.19 309.18 303.19 308.88 247.45 309.58 232.53 325.42 232.53 325.39 303.19"/>
              </g>
              <g id="leg-4" data-name="leg">
                <polygon class="cls-36" points="342.77 303.19 326.55 303.19 326.52 232.53 342.36 232.53 343.06 247.45 342.77 303.19"/>
              </g>
            </g>
            <polygon class="cls-36" points="342.91 248.55 309.03 248.55 309.58 232.53 342.36 232.53 342.91 248.55"/>
            <g>
              <path class="cls-37" d="M313,187.09c-2.28,5.14-4.52,10.43-6.53,15.66-1,2.62-1.91,5.26-2.62,7.82-.16.62-.37,1.28-.47,1.87l-.18.9-.15,1c-.21,1.32-.35,2.71-.49,4.09-.49,5.57-.69,11.29-.79,17s-.09,11.49,0,17.2v0a3,3,0,0,1-6,.31c-.47-5.84-.84-11.62-1-17.46s-.29-11.69,0-17.65c.1-1.5.18-3,.36-4.54,0-.38.07-.75.12-1.15l.2-1.23c.12-.84.31-1.57.48-2.36a82.49,82.49,0,0,1,2.6-8.71,173,173,0,0,1,6.7-16.38A4.27,4.27,0,0,1,313,187Z"/>
              <polygon class="cls-7" points="314.38 186.62 306.33 210.29 294.45 205.41 304.63 182.86 314.38 186.62"/>
              <path class="cls-38" d="M309.5,184.74s-1.5,3.4-3.48,8.06"/>
            </g>
            <g>
              <path class="cls-37" d="M347.25,183.5A170.5,170.5,0,0,1,354,199.88a84.91,84.91,0,0,1,2.59,8.71c.17.79.36,1.52.48,2.36l.2,1.23c0,.4.08.77.12,1.15.18,1.54.26,3,.36,4.54.29,6,.21,11.81,0,17.65s-.57,11.62-1,17.46a3,3,0,0,1-6-.3v0c.12-5.71.1-11.48,0-17.2s-.3-11.45-.79-17c-.14-1.38-.28-2.77-.49-4.09l-.14-1-.19-.9c-.1-.59-.31-1.25-.46-1.87-.72-2.56-1.65-5.2-2.63-7.82-2-5.23-4.25-10.52-6.53-15.66l0-.06a4.26,4.26,0,0,1,7.76-3.53Z"/>
              <polygon class="cls-7" points="347.88 182.86 358.06 205.41 346.19 210.29 338.13 186.62 347.88 182.86"/>
              <path class="cls-38" d="M343,184.74s1.5,3.4,3.48,8.06"/>
            </g>
            <path class="cls-7" d="M342.36,232.53H309.58s-.3-4.79-.3-10-1.72-12.47-3.75-20c-1.94-7.24-3.13-13.81-1.84-18,1.11-3.64,2.54-6.26,7.18-6.26h30.38c4.42,0,6,1.53,6.82,4.78a38.69,38.69,0,0,1-.56,18.78c-2.1,7.1-4.66,15.8-4.66,20.52S342.36,232.53,342.36,232.53Z"/>
            <g id="neck">
              <path id="neck-2" data-name="neck" class="cls-37" d="M326.55,183.48l-.58.44-.58-.44a7.71,7.71,0,0,1-3-6.11v-7.44h7.18v7.44A7.71,7.71,0,0,1,326.55,183.48Z"/>
            </g>
            <g id="Head">
              <rect id="SquareHead" class="cls-37" x="311.03" y="141.76" width="30.12" height="34.25" rx="15.06"/>
              <g id="ears">
                <circle id="ear_-_L" data-name="ear - L" class="cls-37" cx="310.99" cy="158.83" r="2.44"/>
                <circle id="ear_-_R" data-name="ear - R" class="cls-37" cx="341.27" cy="158.83" r="2.44"/>
              </g>
            </g>
            <path id="SquareHead-2" data-name="SquareHead" class="cls-39" d="M311.16,154.33s-2.79,23,15.07,23c17.2,0,15.35-22.62,15.35-22.62l-2.62.93-.84,8.29a3.19,3.19,0,0,1-3.39,2.85l-6.33-.44a31.57,31.57,0,0,0-4.35,0l-6.14.44a3.18,3.18,0,0,1-3.36-2.62L313,153.19Z"/>
            <g id="Face">
              <g id="Mouth">
                <path class="cls-40" d="M325.36,169.71a4.92,4.92,0,0,1-3.72-1.32.38.38,0,1,1,.57-.5c.05.06,1.18,1.28,3.88,1a.38.38,0,1,1,.08.76A7.83,7.83,0,0,1,325.36,169.71Z"/>
              </g>
              <g id="Eyes_v2" data-name="Eyes v2">
                <circle class="cls-40" cx="321.11" cy="161.6" r="1.1"/>
                <circle class="cls-40" cx="331.14" cy="161.6" r="1.1"/>
              </g>
            </g>
            <path id="Fringe" class="cls-40" d="M326,141.61a15.61,15.61,0,0,1,10.3,3.58,9.78,9.78,0,0,0,4.4,2.16c1.77.35,3.82,1.32,3.82,3.94,0,3.22-2.8,4.54-9.13,4.54-10.6,0-15.71-5.51-16.15-8.08h0a10.64,10.64,0,0,1-8.26,7A15.44,15.44,0,0,1,326,141.61Z"/>
          </g>
        </g>
      </g>
      <g>
        <g>
          <path class="cls-21" d="M242.14,53.4a44,44,0,1,1-44-44A44,44,0,0,1,242.14,53.4Z"/>
          <g>
            <path class="cls-22" d="M233.85,53.4a35.74,35.74,0,1,1-35.74-35.74A35.74,35.74,0,0,1,233.85,53.4Z"/>
            <path class="cls-41" d="M198.11,17.66h-.3a35.73,35.73,0,0,1,0,71.46h.3a35.74,35.74,0,0,0,0-71.48Z"/>
          </g>
        </g>
        <g class="cls-42">
          <g>
            <g>
              <g>
                <path class="cls-43" d="M211.15,72.91s11.25,20.92,12.23,30.59,1.86,38.35,1.86,38.35"/>
                <path class="cls-21" d="M216.34,70.12c1.2,2.66,2.27,5.22,3.34,7.85s2.07,5.27,3,8,1.84,5.4,2.62,8.21a43.86,43.86,0,0,1,1.69,9,3.66,3.66,0,0,1-7.24.94l0-.2a37.38,37.38,0,0,0-2.39-7c-1-2.4-2.18-4.8-3.42-7.18s-2.52-4.74-3.86-7.09-2.74-4.7-4.12-6.91h0a5.91,5.91,0,1,1,10-6.27A6.8,6.8,0,0,1,216.34,70.12Z"/>
                <path class="cls-44" d="M223.38,103.5c1,9.67,1.73,34.6,1.73,34.6"/>
              </g>
              <line id="leg-5" data-name="leg" class="cls-45" x1="188.32" y1="135.87" x2="188.32" y2="208.89"/>
              <path d="M192.86,212.24H184v-17a1,1,0,0,1,1-1h6.86a1,1,0,0,1,1,1Z"/>
              <path class="cls-33" d="M192.86,212.44H168.19v.07a3.86,3.86,0,0,1,2.95-3.75l9.48-3,.06,0a5.31,5.31,0,0,0,1.84-6h0a1.55,1.55,0,0,1,1.47-2.06h8.87Z"/>
              <path d="M184,212.24h8.88a0,0,0,0,1,0,0v0a1.78,1.78,0,0,1-1.78,1.78H184a0,0,0,0,1,0,0v-1.78A0,0,0,0,1,184,212.24Z"/>
              <path d="M168.19,212.24H184a0,0,0,0,1,0,0v0A1.78,1.78,0,0,1,182.2,214H170a1.78,1.78,0,0,1-1.78-1.78v0A0,0,0,0,1,168.19,212.24Z"/>
              <line class="cls-46" x1="182.79" y1="200.79" x2="185.95" y2="200.79"/>
              <line class="cls-46" x1="182.71" y1="202.97" x2="185.16" y2="202.97"/>
              <line class="cls-46" x1="181.41" y1="205.14" x2="183.58" y2="205.14"/>
              <polygon class="cls-47" points="192.76 200.99 181.12 200.99 178.65 135.87 195.23 135.87 192.76 200.99"/>
              <rect x="180.03" y="198.62" width="14.01" height="5.33" rx="1.5"/>
              <line id="leg-6" data-name="leg" class="cls-45" x1="207.27" y1="135.87" x2="207.27" y2="208.89"/>
              <path d="M202.92,212.24h8.88v-17a1,1,0,0,0-1-1h-6.85a1,1,0,0,0-1,1Z"/>
              <path class="cls-33" d="M202.92,212.44h24.67v.07a3.86,3.86,0,0,0-3-3.75l-9.48-3-.06,0a5.31,5.31,0,0,1-1.84-6h0a1.55,1.55,0,0,0-1.46-2.06h-8.88Z"/>
              <path d="M202.92,212.24H210A1.78,1.78,0,0,1,211.8,214v0a0,0,0,0,1,0,0h-8.88a0,0,0,0,1,0,0v-1.78A0,0,0,0,1,202.92,212.24Z" transform="translate(414.73 426.26) rotate(-180)"/>
              <path d="M213.58,212.24h12.24a1.78,1.78,0,0,1,1.78,1.78v0a0,0,0,0,1,0,0H211.8a0,0,0,0,1,0,0v0A1.78,1.78,0,0,1,213.58,212.24Z" transform="translate(439.4 426.26) rotate(-180)"/>
              <line class="cls-46" x1="212.99" y1="200.79" x2="209.83" y2="200.79"/>
              <line class="cls-46" x1="213.07" y1="202.97" x2="210.62" y2="202.97"/>
              <line class="cls-46" x1="214.37" y1="205.14" x2="212.2" y2="205.14"/>
              <polygon class="cls-47" points="203.02 200.3 214.67 200.3 217.13 135.87 200.56 135.87 203.02 200.3"/>
              <rect x="201.94" y="198.62" width="14.01" height="5.33" rx="1.5" transform="translate(417.89 402.58) rotate(-180)"/>
              <rect class="cls-47" x="178.65" y="118.3" width="38.48" height="17.56"/>
              <rect x="178.65" y="118.3" width="38.48" height="4.54"/>
              <rect class="cls-47" x="195.33" y="118.95" width="5.33" height="3.35" rx="0.78"/>
              <path class="cls-21" d="M217.13,118.3H178.65V101.53c0-7.6-.75-28.51-.75-28.51a8.84,8.84,0,0,1,8.84-9h22.63a8.85,8.85,0,0,1,8.85,9s-.69,20.42-.69,27.72C217.53,112,217.13,118.3,217.13,118.3Z"/>
              <path class="cls-48" d="M202.4,64s.51,5.27-4.34,5.27c-5.3,0-4.35-5.27-4.35-5.27Z"/>
              <rect class="cls-49" x="200.94" y="79.71" width="11.53" height="1.98" rx="0.99"/>
              <path class="cls-50" d="M202.66,64.53a4.32,4.32,0,0,1-4.7,4.93c-5.12,0-4.7-4.93-4.7-4.93h9.4Z"/>
              <g id="neck-3" data-name="neck">
                <path id="neck-4" data-name="neck" class="cls-48" d="M194.14,65.1V53.18h7.7V65.1C201.84,67.66,194.14,67.66,194.14,65.1Z"/>
              </g>
              <g>
                <path class="cls-43" d="M185,72.32s-11.25,20.92-12.23,30.59-1.86,38.35-1.86,38.35"/>
                <path class="cls-21" d="M190.17,75.11c-1.38,2.21-2.78,4.58-4.12,6.91s-2.63,4.71-3.86,7.09-2.39,4.78-3.43,7.18a37.8,37.8,0,0,0-2.38,7l0,.19a3.65,3.65,0,0,1-7.23-.93,42.55,42.55,0,0,1,1.69-9c.78-2.81,1.66-5.54,2.62-8.21s2-5.33,3-8,2.14-5.19,3.34-7.85a5.91,5.91,0,1,1,10.76,4.87,5.32,5.32,0,0,1-.35.67Z"/>
                <path class="cls-44" d="M172.75,102.91c-1,9.67-1.73,34.6-1.73,34.6"/>
              </g>
            </g>
            <g>
              <g id="Head-2" data-name="Head">
                <rect id="SquareHead-3" data-name="SquareHead" class="cls-48" x="181.3" y="24.27" width="33.4" height="37.99" rx="16.7"/>
                <g id="ears-2" data-name="ears">
                  <circle id="ear_-_L-2" data-name="ear - L" class="cls-48" cx="181.25" cy="43.2" r="2.7"/>
                  <circle id="ear_-_R-2" data-name="ear - R" class="cls-48" cx="214.84" cy="43.2" r="2.7"/>
                </g>
              </g>
              <path id="SquareHead-4" data-name="SquareHead" class="cls-51" d="M181.3,40.09s-3,23.61,16.85,23.59c19.08,0,16.55-23.59,16.55-23.59h-2.46l-.9,8.73A3.54,3.54,0,0,1,207.59,52l-7-.49a33.72,33.72,0,0,0-4.82,0l-6.81.49a3.52,3.52,0,0,1-3.72-2.91l-1.58-9Z"/>
              <g id="Face-2" data-name="Face">
                <g id="Mouth-2" data-name="Mouth">
                  <path class="cls-40" d="M197.19,55.26a5.47,5.47,0,0,1-4.13-1.46.43.43,0,0,1,.05-.6.42.42,0,0,1,.59,0c.06.06,1.31,1.41,4.3,1.12a.43.43,0,0,1,.47.39.42.42,0,0,1-.38.46C197.77,55.25,197.48,55.26,197.19,55.26Z"/>
                </g>
                <g id="Eyes_v2-2" data-name="Eyes v2">
                  <circle class="cls-40" cx="192.48" cy="46.27" r="1.22"/>
                  <circle class="cls-40" cx="203.61" cy="46.27" r="1.22"/>
                </g>
              </g>
              <path id="Hair" class="cls-15" d="M214.48,38.43a16.63,16.63,0,0,0-32.88.07,11.63,11.63,0,0,0,9-7.73c3.09,5,9.82,8.42,17.63,8.42A25,25,0,0,0,214.48,38.43Z"/>
              <g id="Benie">
                <circle class="cls-52" cx="197.97" cy="22.47" r="2.25"/>
                <path id="Head-3" data-name="Head" class="cls-21" d="M214,40H182a.7.7,0,0,1-.71-.73,16.72,16.72,0,0,1,33.42,0A.71.71,0,0,1,214,40Z"/>
                <g>
                  <rect class="cls-52" x="179.44" y="36.1" width="37.06" height="4.47" rx="2.23"/>
                  <g>
                    <line class="cls-53" x1="184.95" y1="36.1" x2="184.95" y2="40.57"/>
                    <line class="cls-53" x1="191.55" y1="36.1" x2="191.55" y2="40.57"/>
                    <line class="cls-53" x1="198.15" y1="36.1" x2="198.15" y2="40.57"/>
                    <line class="cls-53" x1="204.75" y1="36.1" x2="204.75" y2="40.57"/>
                    <line class="cls-53" x1="211.36" y1="36.1" x2="211.36" y2="40.57"/>
                  </g>
                </g>
              </g>
            </g>
          </g>
        </g>
      </g>
      <g>
        <g>
          <path class="cls-17" d="M329.77,85.55a44,44,0,1,1-44-44A44,44,0,0,1,329.77,85.55Z"/>
          <g>
            <path class="cls-22" d="M321.49,85.55a35.75,35.75,0,1,1-35.74-35.74A35.74,35.74,0,0,1,321.49,85.55Z"/>
            <path class="cls-54" d="M285.75,49.81h-.31a35.73,35.73,0,0,1,0,71.46h.31a35.74,35.74,0,1,0,0-71.48Z"/>
          </g>
        </g>
        <g class="cls-55">
          <g>
            <path class="cls-51" d="M304.81,90.75A7.23,7.23,0,0,1,303,83.18a6.63,6.63,0,0,0,.37-2.14,7.66,7.66,0,0,0-.25-1.92,19.12,19.12,0,0,0,.22-2.85,17.92,17.92,0,0,0-35.83,0,17.6,17.6,0,0,0,.17,2.43,7.31,7.31,0,0,0-.38,2.34,6,6,0,0,0,.48,2.31A7.48,7.48,0,0,1,266.45,91a7.31,7.31,0,0,0-1.79,4.87,6.83,6.83,0,0,0,6.87,6.7h28.2c4.07,0,7.36-2.72,7.36-6.78A7,7,0,0,0,304.81,90.75Z"/>
            <path class="cls-56" d="M281.71,85.32H289a0,0,0,0,1,0,0V98a3.62,3.62,0,0,1-3.62,3.62h0A3.62,3.62,0,0,1,281.71,98V85.32A0,0,0,0,1,281.71,85.32Z"/>
            <path class="cls-57" d="M281.92,157.28l-2.11,92.51-.05,2.36-1.87.14c-2,.15-3.89.37-5.82.62s-3.86.53-5.74,1a1.31,1.31,0,0,1-.62-2.54c1.87-.49,3.7-1.13,5.53-1.8s3.65-1.36,5.45-2.13l-1.92,2.5-5.89-92.34a6.53,6.53,0,1,1,13-.83C281.92,156.9,281.92,157.1,281.92,157.28Z"/>
            <g>
              <path class="cls-58" d="M273,240.16l.61,7.6q-1.23.56-2.49,1.08c-.9.37-1.81.74-2.72,1.07s-1.84.65-2.77.89a1.84,1.84,0,0,0,.87,3.58c.95-.21,1.91-.35,2.87-.48s1.94-.22,2.91-.3,2-.16,2.94-.21,2-.09,3-.1l2.57,0,.14-3.5.38-9.61Z"/>
              <path class="cls-59" d="M280.31,246.71c-1.28.76-3.31,1.52-6.37-.26-1.41-.82-2,1.65-8.66,3.31-2,.51-3.07,1-3.78,1.85a1.84,1.84,0,0,0,1.43,3l17,.22a1.73,1.73,0,0,0,1.74-1.63C282.07,246.57,281.86,245.78,280.31,246.71Z"/>
              <path class="cls-60" d="M261.09,252.56a1.86,1.86,0,0,0,1.84,2.06l17,.22a1.73,1.73,0,0,0,1.74-1.63c0-.22,0-.44,0-.65Z"/>
              <line class="cls-61" x1="269.4" y1="248.55" x2="270.66" y2="249.51"/>
              <line class="cls-61" x1="271.09" y1="247.54" x2="272.34" y2="248.5"/>
            </g>
            <path class="cls-57" d="M301.54,157.55l-5.88,92.34-1.93-2.5c1.81.77,3.63,1.46,5.45,2.13s3.67,1.31,5.54,1.8a1.31,1.31,0,0,1-.62,2.54c-1.89-.42-3.81-.7-5.74-1s-3.87-.47-5.82-.62l-1.87-.14-.06-2.36-2.11-92.51a6.53,6.53,0,1,1,13.05-.29A5.23,5.23,0,0,1,301.54,157.55Z"/>
            <g>
              <path class="cls-58" d="M297.48,240.16l-.62,7.6q1.25.56,2.49,1.08c.91.37,1.81.74,2.72,1.07s1.84.65,2.77.89a1.84,1.84,0,0,1-.87,3.58c-.94-.21-1.9-.35-2.87-.48s-1.94-.22-2.91-.3-1.95-.16-2.94-.21-2-.09-3-.1l-2.56,0-.14-3.5-.39-9.61Z"/>
              <path class="cls-59" d="M290.12,246.71c1.27.76,3.31,1.52,6.36-.26,1.41-.82,2,1.65,8.66,3.31,2,.51,3.08,1,3.79,1.85a1.85,1.85,0,0,1-1.44,3l-17,.22a1.74,1.74,0,0,1-1.75-1.63C288.36,246.57,288.57,245.78,290.12,246.71Z"/>
              <path class="cls-60" d="M309.33,252.56a1.86,1.86,0,0,1-1.84,2.06l-17,.22a1.74,1.74,0,0,1-1.75-1.63l0-.65Z"/>
              <line class="cls-61" x1="301.02" y1="248.55" x2="299.77" y2="249.51"/>
              <line class="cls-61" x1="299.34" y1="247.54" x2="298.08" y2="248.5"/>
            </g>
            <g>
              <g>
                <path class="cls-62" d="M296,102.62s19.49,12.42,15.48,66.32"/>
                <path class="cls-63" d="M296,102.62s16.86,10.74,16,55.6"/>
              </g>
              <g>
                <path class="cls-62" d="M274.63,102.62S255.14,115,259.15,168.94"/>
                <path class="cls-63" d="M274.63,102.62s-16.86,10.74-16,55.6"/>
              </g>
            </g>
            <path id="hips" class="cls-57" d="M290.25,176.57h-9.88a15.94,15.94,0,0,1-15.89-17.39,2.64,2.64,0,0,1,0-.29c.72-7.25,4-14.61,5-17.52h0l.12-.17h31.63l.18.58c.91,2.81,4.08,10.06,4.73,17.23l0,.27A16,16,0,0,1,290.25,176.57Z"/>
            <path class="cls-17" d="M265.17,154.8H305.5c-1.17-5.64-2.13-10.76-2.86-13l-.18-.58h0l-.18-.71c-1.4-5.38-.23-22.62-.35-25.77l-.32-8.09a9.34,9.34,0,0,0-9.33-9H278.47a9.34,9.34,0,0,0-9.33,9l-.32,8.09c-.12,3.15,1.05,20.39-.35,25.77l-.2.78h.05l-.07.1C267.45,143.73,266.39,149,265.17,154.8Z"/>
            <path class="cls-56" d="M290.46,97.66H280.21A5.24,5.24,0,0,0,290.46,97.66Z"/>
            <g>
              <g>
                <line class="cls-64" x1="279.8" y1="102.92" x2="279.8" y2="109.44"/>
                <path class="cls-65" d="M279.05,103a.75.75,0,1,1,.75.75A.74.74,0,0,1,279.05,103Z"/>
              </g>
              <g>
                <line class="cls-64" x1="290.87" y1="102.92" x2="290.87" y2="109.44"/>
                <path class="cls-65" d="M290.13,103a.75.75,0,1,1,1.49,0,.75.75,0,1,1-1.49,0Z"/>
              </g>
            </g>
            <path class="cls-65" d="M264.69,157.37h41.24a46,46,0,0,0-1.12-5.37h-39A46.46,46.46,0,0,0,264.69,157.37Z"/>
            <path class="cls-17" d="M297.93,147.57l-25,.09,2.91-6.15.44-4.67h18.19c.18,0-.3,2.31.39,4.6A27.8,27.8,0,0,0,297.93,147.57Z"/>
            <g id="Head-4" data-name="Head">
              <g id="Head-5" data-name="Head">
                <circle id="Head-6" data-name="Head" class="cls-56" cx="285.45" cy="76.27" r="17.91"/>
                <circle class="cls-56" cx="267.36" cy="76.56" r="2.91"/>
                <circle class="cls-56" cx="303.53" cy="76.56" r="2.91"/>
              </g>
              <g id="Face-3" data-name="Face">
                <g id="Mouth-3" data-name="Mouth">
                  <path class="cls-51" d="M286.37,87.84a8.19,8.19,0,0,1-1,0,.45.45,0,0,1-.41-.49.46.46,0,0,1,.5-.41c3.27.31,4.62-1.2,4.63-1.22a.46.46,0,0,1,.65,0,.45.45,0,0,1,0,.64A5.9,5.9,0,0,1,286.37,87.84Z"/>
                </g>
                <g id="Eyes_v2-3" data-name="Eyes v2">
                  <circle class="cls-51" cx="291.44" cy="78.15" r="1.31"/>
                  <circle class="cls-51" cx="279.46" cy="78.15" r="1.31"/>
                </g>
              </g>
            </g>
            <path id="Head-7" data-name="Head" class="cls-51" d="M303.36,76.27s-6.78-.18-11.84-2.72a17.35,17.35,0,0,1-6.07-5.89c-3.89,7.69-17.92,8.61-17.92,8.61a17.92,17.92,0,0,1,35.83,0Z"/>
            <circle class="cls-65" cx="267.22" cy="80.29" r="0.66"/>
            <circle class="cls-65" cx="303.67" cy="80.29" r="0.66"/>
          </g>
        </g>
      </g>
      <g>
        <g>
          <path class="cls-6" d="M153.46,85.55a44,44,0,1,1-44-44A44,44,0,0,1,153.46,85.55Z"/>
          <g>
            <path class="cls-22" d="M145.17,85.55a35.74,35.74,0,1,1-35.74-35.74A35.74,35.74,0,0,1,145.17,85.55Z"/>
            <path class="cls-66" d="M109.43,49.81h-.31a35.73,35.73,0,0,1,0,71.46h.31a35.74,35.74,0,0,0,0-71.48Z"/>
          </g>
        </g>
        <g class="cls-67">
          <g>
            <g id="leg-7" data-name="leg">
              <path class="cls-32" d="M124.34,176.37c.67,6.95,1,13.91,1.12,20.86,0,3.48.16,7,.05,10.43s-.47,7-.69,10.43C124.37,225,124,232,123.64,239l-1.14,20.86a2.76,2.76,0,0,1-5.51,0L115.84,239c-.39-6.95-.72-13.91-1.17-20.86-.22-3.48-.61-7-.7-10.43s0-6.95.06-10.43c.16-6.95.45-13.91,1.12-20.86a4.62,4.62,0,0,1,9.19,0Z"/>
            </g>
            <g id="leg-8" data-name="leg">
              <path class="cls-32" d="M103.37,176.37c.4,6.95.58,13.91.64,20.86,0,3.48.06,7,0,10.43s-.33,7-.51,10.43l-2,41.72a2.66,2.66,0,0,1-5.31,0l-2-41.72c-.19-3.48-.42-7-.52-10.43s0-6.95,0-10.43c.06-6.95.24-13.91.64-20.86a4.6,4.6,0,0,1,9.19,0Z"/>
            </g>
            <path d="M114.61,266.23h26.74v.08a4.19,4.19,0,0,0-3.2-4.07L127.87,259l-.06,0a5.76,5.76,0,0,1-2-6.49h0a1.69,1.69,0,0,0-1.59-2.24h-9.62Z"/>
            <path class="cls-33" d="M114.61,266h7.7a1.93,1.93,0,0,1,1.93,1.93v0a0,0,0,0,1,0,0h-9.63a0,0,0,0,1,0,0V266A0,0,0,0,1,114.61,266Z" transform="translate(238.85 533.96) rotate(-180)"/>
            <path class="cls-33" d="M126.16,266h13.26a1.93,1.93,0,0,1,1.93,1.93v0a0,0,0,0,1,0,0H124.24a0,0,0,0,1,0,0v0A1.93,1.93,0,0,1,126.16,266Z" transform="translate(265.59 533.96) rotate(180)"/>
            <line class="cls-68" x1="125.52" y1="253.61" x2="122.1" y2="253.61"/>
            <line class="cls-68" x1="125.61" y1="255.96" x2="122.95" y2="255.96"/>
            <line class="cls-68" x1="127.02" y1="258.31" x2="124.66" y2="258.31"/>
            <path d="M103.7,266.23H77v.08a4.2,4.2,0,0,1,3.2-4.07L90.43,259l.07,0a5.78,5.78,0,0,0,2-6.49h0a1.68,1.68,0,0,1,1.59-2.24h9.62Z"/>
            <path class="cls-33" d="M94.07,266h9.63a0,0,0,0,1,0,0v0a1.93,1.93,0,0,1-1.93,1.93h-7.7a0,0,0,0,1,0,0V266A0,0,0,0,1,94.07,266Z"/>
            <path class="cls-33" d="M77,266H94.07a0,0,0,0,1,0,0v0a1.93,1.93,0,0,1-1.93,1.93H78.88A1.93,1.93,0,0,1,77,266v0A0,0,0,0,1,77,266Z"/>
            <line class="cls-69" x1="92.79" y1="253.61" x2="96.21" y2="253.61"/>
            <line class="cls-69" x1="92.7" y1="255.96" x2="95.35" y2="255.96"/>
            <line class="cls-69" x1="91.29" y1="258.31" x2="93.64" y2="258.31"/>
            <g>
              <g id="leg-9" data-name="leg">
                <polygon class="cls-36" points="108.59 203.26 89.74 203.26 89.41 178.94 90.22 161.61 108.62 161.61 108.59 203.26"/>
              </g>
              <g id="leg-10" data-name="leg">
                <polygon class="cls-36" points="128.78 203.26 109.93 203.26 109.9 161.61 128.3 161.61 129.11 178.94 128.78 203.26"/>
              </g>
            </g>
            <polygon class="cls-36" points="128.94 180.22 89.58 180.22 90.22 161.61 128.3 161.61 128.94 180.22"/>
            <g>
              <path class="cls-32" d="M93.66,108.56c-2.67,6-5.27,12.14-7.6,18.25C84.92,129.87,83.84,133,83,136c-.18.73-.42,1.5-.54,2.2l-.22,1.08c-.07.37-.11.78-.17,1.17-.25,1.55-.4,3.17-.57,4.78-.57,6.5-.78,13.16-.85,19.82s-.05,13.36.12,20v0a3.06,3.06,0,0,1-6.12.31c-.52-6.77-.93-13.49-1.12-20.27s-.26-13.56.07-20.46c.11-1.73.21-3.47.41-5.24,0-.44.08-.87.14-1.33l.23-1.41c.14-1,.36-1.8.55-2.7a96.69,96.69,0,0,1,3-10.07,204.86,204.86,0,0,1,7.79-19,4.37,4.37,0,0,1,8,3.61Z"/>
              <polygon class="cls-6" points="95.12 108 85.62 135.43 73.44 130.43 85.12 104.15 95.12 108"/>
              <path class="cls-70" d="M90.12,106.08s-1.74,4-4,9.36"/>
            </g>
            <g>
              <path class="cls-32" d="M133.45,104.88a204.86,204.86,0,0,1,7.79,19,96.69,96.69,0,0,1,3,10.07c.19.9.41,1.74.55,2.7L145,138c.06.46.09.89.14,1.33.2,1.77.3,3.51.41,5.24.33,6.9.27,13.69.07,20.46s-.6,13.5-1.12,20.27a3.06,3.06,0,0,1-6.12-.3v0c.17-6.64.16-13.35.12-20s-.28-13.32-.85-19.82c-.17-1.61-.32-3.23-.57-4.78-.06-.39-.1-.8-.17-1.17l-.22-1.08c-.12-.7-.36-1.47-.54-2.2-.84-3-1.92-6.08-3.06-9.14-2.33-6.11-4.93-12.27-7.6-18.25l0-.06a4.37,4.37,0,0,1,7.95-3.62Z"/>
              <polygon class="cls-6" points="134.06 104.15 145.74 130.43 133.56 135.43 124.06 108 134.06 104.15"/>
              <path class="cls-70" d="M129.06,106.08s1.74,4,4,9.36"/>
            </g>
            <path class="cls-6" d="M128.3,161.61H90.22S89.86,156,89.86,150s-2-14.49-4.35-23.27c-2.25-8.4-3.64-16-2.14-21,1.29-4.22,2.95-7.28,8.35-7.28H127c5.13,0,7,1.78,7.91,5.57a44.78,44.78,0,0,1-.64,21.82c-2.45,8.24-5.42,18.36-5.42,23.83S128.3,161.61,128.3,161.61Z"/>
            <g id="neck-5" data-name="neck">
              <path id="neck-6" data-name="neck" class="cls-32" d="M109.94,104.6l-.68.53-.68-.53a8.94,8.94,0,0,1-3.49-7.09V88.86h8.34v8.65A8.94,8.94,0,0,1,109.94,104.6Z"/>
            </g>
            <g id="Head-8" data-name="Head">
              <rect id="SquareHead-5" data-name="SquareHead" class="cls-71" x="91.9" y="56.14" width="35" height="39.8" rx="17.5"/>
              <g id="ears-3" data-name="ears">
                <circle id="ear_-_L-3" data-name="ear - L" class="cls-71" cx="91.85" cy="75.97" r="2.83"/>
                <circle id="ear_-_R-3" data-name="ear - R" class="cls-71" cx="127.04" cy="75.97" r="2.83"/>
              </g>
            </g>
            <path id="SquareHead-6" data-name="SquareHead" class="cls-39" d="M91.9,72.71s-3.09,24.74,17.66,24.72c20,0,17.34-24.72,17.34-24.72h-2.59l-.94,9.15a3.7,3.7,0,0,1-3.93,3.31l-7.36-.52a37,37,0,0,0-5,0l-7.14.51a3.69,3.69,0,0,1-3.9-3l-1.65-9.42Z"/>
            <g id="Face-4" data-name="Face">
              <g id="Mouth-4" data-name="Mouth">
                <path class="cls-40" d="M108.55,88.61a5.76,5.76,0,0,1-4.33-1.53.45.45,0,0,1,.67-.59c.06.07,1.37,1.49,4.51,1.19a.44.44,0,0,1,.09.88C109.16,88.59,108.85,88.61,108.55,88.61Z"/>
              </g>
              <g id="Eyes_v2-4" data-name="Eyes v2">
                <circle class="cls-40" cx="103.61" cy="79.18" r="1.28"/>
                <circle class="cls-40" cx="115.27" cy="79.18" r="1.28"/>
              </g>
            </g>
            <g>
              <path d="M123.08,73c-3.4-.44-5.43-2.25-5.43-6.86a8.52,8.52,0,0,1,2.88-6.45,16.39,16.39,0,0,1,6.47,13A10.47,10.47,0,0,1,123.08,73Z"/>
              <path d="M91.78,73.4c3,1.49,8.47-2.48,12.38-1.77,9.77,1.76,16.38-4.75,16.52-11.8a17.49,17.49,0,0,0-11.28-4.1h0A17.69,17.69,0,0,0,91.78,73.4Z"/>
            </g>
          </g>
        </g>
      </g>
      <g>
        <g>
          <path class="cls-15" d="M122.85,259.15a44,44,0,1,1-44-44A44,44,0,0,1,122.85,259.15Z"/>
          <g>
            <path class="cls-22" d="M114.56,259.15a35.74,35.74,0,1,1-35.74-35.74A35.74,35.74,0,0,1,114.56,259.15Z"/>
            <path class="cls-72" d="M78.82,223.41h-.31a35.73,35.73,0,0,1,0,71.46h.31a35.74,35.74,0,1,0,0-71.48Z"/>
          </g>
        </g>
        <g class="cls-73">
          <g>
            <g>
              <g>
                <path class="cls-74" d="M65.48,281.41S53.59,303.5,52.55,313.72s-2,40.51-2,40.51"/>
                <path class="cls-15" d="M70.47,284.09c-1.45,2.36-2.91,4.87-4.31,7.35s-2.75,5-4,7.52-2.5,5.08-3.58,7.63a39.49,39.49,0,0,0-2.49,7.48l0,.17a3.52,3.52,0,0,1-7-.88,44.71,44.71,0,0,1,1.81-9.42q1.26-4.41,2.81-8.62c1-2.82,2.1-5.6,3.24-8.35s2.29-5.46,3.57-8.25a5.69,5.69,0,1,1,10.34,4.74c-.1.2-.2.4-.32.59Z"/>
                <path class="cls-75" d="M52.55,313.72c-1,10.21-1.82,36.55-1.82,36.55"/>
              </g>
              <g>
                <path class="cls-74" d="M93.11,282S105,304.13,106,314.34s2,40.51,2,40.51"/>
                <path class="cls-15" d="M98.11,279.34c1.28,2.79,2.43,5.48,3.57,8.25s2.21,5.54,3.24,8.35,2,5.68,2.81,8.63a45.92,45.92,0,0,1,1.81,9.41,3.52,3.52,0,0,1-7,.89l0-.17a38.5,38.5,0,0,0-2.48-7.48c-1.08-2.55-2.28-5.11-3.58-7.63s-2.64-5-4-7.53-2.86-5-4.32-7.34v0a5.69,5.69,0,0,1,9.68-6A5.15,5.15,0,0,1,98.11,279.34Z"/>
                <path class="cls-75" d="M106,314.34c1,10.22,1.82,36.55,1.82,36.55"/>
              </g>
              <rect class="cls-57" x="58.79" y="329.98" width="40.65" height="18.55"/>
              <rect x="58.79" y="329.98" width="40.65" height="4.79"/>
              <rect class="cls-47" x="76.4" y="330.66" width="5.63" height="3.54" rx="0.83"/>
              <path class="cls-15" d="M99.44,330H58.79V312.26c0-8-.8-30.11-.8-30.11a9.35,9.35,0,0,1,9.34-9.5H91.24a9.34,9.34,0,0,1,9.34,9.5s-.73,21.56-.73,29.27C99.85,323.31,99.44,330,99.44,330Z"/>
              <path class="cls-48" d="M83.87,272.65s.54,5.56-4.58,5.56c-5.6,0-4.59-5.56-4.59-5.56Z"/>
              <path class="cls-76" d="M84.15,273.17a4.57,4.57,0,0,1-5,5.21c-5.42,0-5-5.21-5-5.21h9.93Z"/>
              <g id="neck-7" data-name="neck">
                <path id="neck-8" data-name="neck" class="cls-48" d="M75.15,273.77V261.19h8.13v12.58C83.28,276.48,75.15,276.48,75.15,273.77Z"/>
              </g>
            </g>
            <g>
              <g id="Head-9" data-name="Head">
                <rect id="SquareHead-7" data-name="SquareHead" class="cls-48" x="61.59" y="230.65" width="35.28" height="40.12" rx="17.64"/>
                <g id="ears-4" data-name="ears">
                  <circle id="ear_-_L-4" data-name="ear - L" class="cls-48" cx="61.54" cy="250.64" r="2.85"/>
                  <circle id="ear_-_R-4" data-name="ear - R" class="cls-48" cx="97.01" cy="250.64" r="2.85"/>
                </g>
              </g>
              <g id="Face-5" data-name="Face">
                <g id="Mouth-5" data-name="Mouth">
                  <path class="cls-40" d="M78.38,263.39A5.86,5.86,0,0,1,74,261.85a.46.46,0,0,1,0-.64.45.45,0,0,1,.63.05c.06.06,1.38,1.5,4.54,1.19a.45.45,0,0,1,.09.89C79,263.37,78.67,263.39,78.38,263.39Z"/>
                </g>
                <g id="Eyes_v2-5" data-name="Eyes v2">
                  <circle class="cls-40" cx="73.4" cy="253.89" r="1.29"/>
                  <circle class="cls-40" cx="85.15" cy="253.89" r="1.29"/>
                </g>
              </g>
              <path id="Hair-2" data-name="Hair" class="cls-15" d="M96.64,245.61a17.57,17.57,0,0,0-34.74.08,12.28,12.28,0,0,0,9.55-8.17c3.27,5.25,10.38,8.89,18.62,8.89A26.87,26.87,0,0,0,96.64,245.61Z"/>
            </g>
            <path class="cls-16" d="M83.4,289.57h9.06a0,0,0,0,1,0,0v4.53a4.53,4.53,0,0,1-4.53,4.53h0a4.53,4.53,0,0,1-4.53-4.53v-4.53A0,0,0,0,1,83.4,289.57Z"/>
          </g>
        </g>
      </g>
      <g>
        <g>
          <circle class="cls-19" cx="316.58" cy="259.33" r="44.03" transform="translate(-3.49 4.31) rotate(-0.78)"/>
          <g>
            <path class="cls-22" d="M352.32,259.33a35.74,35.74,0,1,1-35.74-35.75A35.74,35.74,0,0,1,352.32,259.33Z"/>
            <path class="cls-77" d="M316.58,223.58h-.31a35.74,35.74,0,0,1,0,71.47h.31a35.75,35.75,0,0,0,0-71.49Z"/>
          </g>
        </g>
        <g class="cls-78">
          <g>
            <path class="cls-79" d="M316,232.5h0a18.42,18.42,0,0,1,18.42,18.42v26.81a0,0,0,0,1,0,0H297.57a0,0,0,0,1,0,0V250.92A18.42,18.42,0,0,1,316,232.5Z"/>
            <path class="cls-80" d="M313.8,358.94c.32-10.06,2.7-30.7,2.7-30.7H297c-2.7,10.59-.43,23.78.44,31.45s5.18,46.59,5.18,46.59h8.65S313.47,369,313.8,358.94Z"/>
            <path class="cls-80" d="M318.55,358.94c-.33-10.06-2.7-30.7-2.7-30.7H335.3c2.7,10.59.43,23.78-.43,31.45s-6.05,46.59-6.05,46.59H321S318.87,369,318.55,358.94Z"/>
            <rect class="cls-80" x="297.04" y="328.24" width="38.05" height="13.62"/>
            <path class="cls-81" d="M303,277.44s-9.62,8.54-12.43,28.86c-1.46,10.55,1.08,39.56,1.08,39.56"/>
            <path class="cls-82" d="M303,277.44s-9.62,8.54-12.43,28.86c-1,7-.17,22.16.47,31.55"/>
            <path class="cls-81" d="M329.54,277.44S339.16,286,342,306.3c1.46,10.55-1.08,39.56-1.08,39.56"/>
            <path class="cls-82" d="M329.54,277.44S339.16,286,342,306.3c1,7,.17,22.16-.47,31.55"/>
            <path class="cls-19" d="M331.85,312.17c-.08,7.78,3.46,16.07,3.46,16.07H297a49.92,49.92,0,0,0,2.81-16c0-8.86-2.36-16-2.66-20.21-.2-3,.17-11.89.17-11.89a12.17,12.17,0,0,1,11.8-9.18H323.4a12.17,12.17,0,0,1,11.8,9.18s.59,8.92.39,11.89C335.59,292,331.91,305.82,331.85,312.17Z"/>
            <g class="cls-83">
              <path id="neck-9" data-name="neck" class="cls-84" d="M317,277.13h0a1.13,1.13,0,0,1-1.37,0h0a9,9,0,0,1-3.53-7.17v-8.73h8.43V270A9.06,9.06,0,0,1,317,277.13Z"/>
            </g>
            <g id="neck-10" data-name="neck">
              <path id="neck-11" data-name="neck" class="cls-23" d="M317.05,277.11h0a1.2,1.2,0,0,1-1.48,0h0a9.83,9.83,0,0,1-3.84-7.79v-9.49h9.16v9.49A9.83,9.83,0,0,1,317.05,277.11Z"/>
            </g>
            <g id="Head-10" data-name="Head">
              <g id="Head-11" data-name="Head">
                <circle id="Head-12" data-name="Head" class="cls-23" cx="315.99" cy="250.9" r="18.4"/>
                <circle class="cls-23" cx="297.42" cy="251.19" r="2.99"/>
                <circle class="cls-23" cx="334.56" cy="251.19" r="2.99"/>
              </g>
              <g id="earrings">
                <circle class="cls-21" cx="296.89" cy="254.14" r="0.78"/>
                <circle class="cls-21" cx="335.1" cy="254.14" r="0.78"/>
              </g>
              <g id="Face-6" data-name="Face">
                <g id="Mouth-6" data-name="Mouth">
                  <path class="cls-85" d="M316.93,262.78c-.31,0-.64,0-1,0a.46.46,0,0,1-.42-.51.46.46,0,0,1,.51-.42c3.35.32,4.74-1.23,4.75-1.25a.47.47,0,1,1,.71.61A6,6,0,0,1,316.93,262.78Z"/>
                </g>
                <g id="Eyes_v2-6" data-name="Eyes v2">
                  <circle class="cls-85" cx="322.14" cy="252.83" r="1.35"/>
                  <circle class="cls-85" cx="309.84" cy="252.83" r="1.35"/>
                </g>
              </g>
            </g>
            <path id="Head-13" data-name="Head" class="cls-79" d="M334.39,250.9h-.07a15.22,15.22,0,0,1-14.07-9.14h0c-.89,1.92-2.87,3.61-5.08,5a27.75,27.75,0,0,1-14.76,4.16H297.6A18.16,18.16,0,0,1,316,232.5,18.35,18.35,0,0,1,334.39,250.9Z"/>
            <path class="cls-21" d="M297.79,248.3s6.32-12.81,18.21-12.51,18.19,12.52,18.19,12.52S328,241.57,316,241.44A27.65,27.65,0,0,0,297.79,248.3Z"/>
          </g>
        </g>
      </g>
      <g>
        <g>
          <path class="cls-16" d="M106.56,166.78a44,44,0,1,1-44-44A44,44,0,0,1,106.56,166.78Z"/>
          <g>
            <path class="cls-22" d="M98.27,166.78A35.74,35.74,0,1,1,62.53,131,35.74,35.74,0,0,1,98.27,166.78Z"/>
            <path class="cls-86" d="M62.53,131h-.31a35.74,35.74,0,0,1,0,71.47h.31a35.74,35.74,0,0,0,0-71.48Z"/>
          </g>
        </g>
        <g class="cls-87">
          <g>
            <g id="leg-11" data-name="leg">
              <path class="cls-88" d="M55.9,256l-.35,79.51a1.77,1.77,0,0,1-3.54.1l-5.08-79.34a4.49,4.49,0,1,1,9-.58C55.9,255.74,55.9,255.85,55.9,256Z"/>
            </g>
            <path class="cls-19" d="M59.68,273.9c.32-10,2.68-30.48,2.68-30.48H43c-2.68,10.52-.43,23.61.43,31.23s7.3,61,7.3,61l6.44.11S59.36,283.88,59.68,273.9Z"/>
            <g id="leg-12" data-name="leg">
              <path class="cls-88" d="M77.15,256.22l-5.08,79.34a1.77,1.77,0,0,1-3.54-.1L68.18,256a4.49,4.49,0,0,1,9,0C77.16,256,77.16,256.12,77.15,256.22Z"/>
            </g>
            <path class="cls-19" d="M64.4,273.9c-.32-10-2.68-30.48-2.68-30.48H81c2.68,10.52.43,23.61-.43,31.23s-7.19,60.75-7.19,60.75l-6.48.26S64.72,283.88,64.4,273.9Z"/>
            <rect class="cls-19" x="43.04" y="243.42" width="37.78" height="18.91"/>
            <path class="cls-89" d="M49,193s-9.56,8.48-12.35,28.66c-1.44,10.47,1.08,39.28,1.08,39.28"/>
            <path class="cls-90" d="M49,193s-9.56,8.48-12.35,28.66c-1,7-.17,22,.47,31.33"/>
            <path class="cls-89" d="M75.32,193s9.55,8.48,12.34,28.66c1.45,10.47-1.07,39.28-1.07,39.28"/>
            <path class="cls-90" d="M75.32,193s9.55,8.48,12.34,28.66c1,7,.17,22-.47,31.33"/>
            <path class="cls-16" d="M77.61,227.46c-.08,7.73,3.43,16,3.43,16H43a49.59,49.59,0,0,0,2.79-15.89c0-8.8-2.34-15.87-2.64-20.07-.2-2.94.17-11.81.17-11.81a12.1,12.1,0,0,1,11.72-9.12H69.22a12.1,12.1,0,0,1,11.72,9.12s.58,8.86.38,11.81C81.32,207.46,77.66,221.15,77.61,227.46Z"/>
            <path class="cls-1" d="M77.61,227.46c-.08,7.73,3.43,16,3.43,16H43a49.59,49.59,0,0,0,2.79-15.89c0-8.8-2.34-15.87-2.64-20.07-.2-2.94.17-11.81.17-11.81a12.1,12.1,0,0,1,11.72-9.12H69.22a12.1,12.1,0,0,1,11.72,9.12s.58,8.86.38,11.81C81.32,207.46,77.66,221.15,77.61,227.46Z"/>
            <circle class="cls-91" cx="47.23" cy="174.76" r="4.04"/>
            <circle class="cls-91" cx="51.52" cy="177.98" r="4.04"/>
            <circle class="cls-91" cx="55.6" cy="180.77" r="4.04"/>
            <circle class="cls-91" cx="44.22" cy="168.75" r="4.04"/>
            <circle class="cls-91" cx="42.51" cy="162.1" r="4.04"/>
            <circle class="cls-91" cx="42.08" cy="155.87" r="4.04"/>
            <circle class="cls-91" cx="43.8" cy="150.5" r="4.04"/>
            <circle class="cls-91" cx="47.66" cy="145.35" r="4.04"/>
            <circle class="cls-91" cx="53.67" cy="142.99" r="4.04"/>
            <circle class="cls-91" cx="60.75" cy="141.49" r="4.04"/>
            <circle class="cls-91" cx="78.14" cy="147.07" r="4.04"/>
            <circle class="cls-91" cx="80.72" cy="152.65" r="4.04"/>
            <circle class="cls-91" cx="81.15" cy="158.66" r="4.04"/>
            <circle class="cls-91" cx="80.07" cy="165.32" r="4.04"/>
            <circle class="cls-91" cx="78.36" cy="171.54" r="4.04"/>
            <circle class="cls-91" cx="74.49" cy="177.77" r="4.04"/>
            <circle class="cls-91" cx="69.34" cy="180.34" r="4.04"/>
            <circle class="cls-91" cx="65.05" cy="181.85" r="4.04"/>
            <circle class="cls-91" cx="59.25" cy="182.06" r="4.04"/>
            <path id="neck-12" data-name="neck" class="cls-92" d="M59.31,187.38v-9.51h6.14v9.51C65.45,189.42,59.31,189.42,59.31,187.38Z"/>
            <g>
              <circle id="Head-14" data-name="Head" class="cls-92" cx="61.67" cy="166.03" r="18.22"/>
              <circle class="cls-93" cx="46.33" cy="158.35" r="3.84"/>
              <circle class="cls-93" cx="50.82" cy="153.86" r="3.84"/>
              <circle class="cls-93" cx="56.13" cy="150.39" r="3.84"/>
              <circle class="cls-93" cx="61.64" cy="149.78" r="3.84"/>
              <circle class="cls-93" cx="67.36" cy="150.6" r="3.84"/>
              <circle class="cls-93" cx="72.66" cy="153.25" r="3.84"/>
              <circle class="cls-93" cx="77.97" cy="157.95" r="3.84"/>
              <circle class="cls-93" cx="47.55" cy="154.27" r="3.84"/>
              <circle class="cls-94" cx="51.83" cy="149.18" r="4.24"/>
              <circle class="cls-93" cx="57.96" cy="146.92" r="3.84"/>
              <circle class="cls-93" cx="67.76" cy="143.25" r="3.84"/>
              <circle class="cls-93" cx="72.66" cy="146.31" r="3.84"/>
              <circle class="cls-93" cx="64.7" cy="146.72" r="3.84"/>
              <circle class="cls-93" cx="71.23" cy="148.76" r="3.84"/>
              <circle class="cls-93" cx="76.54" cy="152.43" r="3.84"/>
            </g>
            <g id="Head-15" data-name="Head">
              <g id="Head-16" data-name="Head">
                <circle class="cls-92" cx="42.31" cy="166.39" r="3.11"/>
                <circle class="cls-92" cx="80.99" cy="166.39" r="3.11"/>
              </g>
              <g id="earrings-2" data-name="earrings">
                <circle class="cls-95" cx="41.75" cy="169.47" r="0.81"/>
                <circle class="cls-95" cx="81.55" cy="169.47" r="0.81"/>
              </g>
              <g id="Face-7" data-name="Face">
                <g id="Mouth-7" data-name="Mouth">
                  <path class="cls-40" d="M62.63,178.46a9.32,9.32,0,0,1-1-.05.48.48,0,0,1-.44-.53.5.5,0,0,1,.54-.44c3.49.34,4.93-1.28,5-1.3a.49.49,0,1,1,.74.64A6.32,6.32,0,0,1,62.63,178.46Z"/>
                </g>
                <g id="Eyes_v2-7" data-name="Eyes v2">
                  <circle class="cls-40" cx="68.06" cy="168.1" r="1.4"/>
                  <circle class="cls-40" cx="55.24" cy="168.1" r="1.4"/>
                </g>
              </g>
              <circle class="cls-40" cx="72.92" cy="145.31" r="5.89"/>
            </g>
          </g>
        </g>
      </g>
    </g>
  </g>
</svg>
