<svg xmlns="http://www.w3.org/2000/svg" xmlns:xlink="http://www.w3.org/1999/xlink" width="400" height="331" viewBox="0 0 400 331">
  <defs>
    <style>
      .cls-1 {
        mask: url(#mask);
        filter: url(#luminosity-noclip-10);
      }

      .cls-10, .cls-12, .cls-14, .cls-16, .cls-18, .cls-2, .cls-4, .cls-6, .cls-8 {
        mix-blend-mode: multiply;
      }

      .cls-2 {
        fill: url(#linear-gradient);
      }

      .cls-3 {
        mask: url(#mask-2);
        filter: url(#luminosity-noclip-15);
      }

      .cls-4 {
        fill: url(#linear-gradient-2);
      }

      .cls-5 {
        mask: url(#mask-3);
        filter: url(#luminosity-noclip-16);
      }

      .cls-6 {
        fill: url(#linear-gradient-3);
      }

      .cls-7 {
        mask: url(#mask-4);
        filter: url(#luminosity-noclip-17);
      }

      .cls-8 {
        fill: url(#linear-gradient-4);
      }

      .cls-9 {
        mask: url(#mask-5);
        filter: url(#luminosity-noclip-18);
      }

      .cls-10 {
        fill: url(#linear-gradient-5);
      }

      .cls-11 {
        mask: url(#mask-6);
        filter: url(#luminosity-noclip-11);
      }

      .cls-12 {
        fill: url(#linear-gradient-6);
      }

      .cls-13 {
        mask: url(#mask-7);
        filter: url(#luminosity-noclip-12);
      }

      .cls-14 {
        fill: url(#linear-gradient-7);
      }

      .cls-15 {
        mask: url(#mask-8);
        filter: url(#luminosity-noclip-13);
      }

      .cls-16 {
        fill: url(#linear-gradient-8);
      }

      .cls-17 {
        mask: url(#mask-9);
        filter: url(#luminosity-noclip-14);
      }

      .cls-18 {
        fill: url(#linear-gradient-9);
      }

      .cls-19 {
        fill: #9ea5b5;
      }

      .cls-20 {
        fill: #ceedec;
      }

      .cls-21, .cls-36 {
        fill: #1a1a1a;
      }

      .cls-21 {
        opacity: 0.49;
      }

      .cls-22 {
        fill: #939393;
      }

      .cls-23 {
        fill: #484c54;
      }

      .cls-24 {
        fill: #333;
      }

      .cls-25 {
        fill: #4d4d4d;
      }

      .cls-26 {
        fill: #e6e6e6;
      }

      .cls-27 {
        fill: #b3b3b3;
      }

      .cls-28 {
        fill: #8c6239;
      }

      .cls-29 {
        mask: url(#mask-10);
      }

      .cls-30, .cls-35 {
        fill: #fff;
      }

      .cls-30 {
        opacity: 0.3;
      }

      .cls-31 {
        fill: #181b23;
      }

      .cls-32 {
        mask: url(#mask-11);
      }

      .cls-33 {
        mask: url(#mask-12);
      }

      .cls-34 {
        fill: #212126;
      }

      .cls-36 {
        opacity: 0.13;
      }

      .cls-37 {
        mask: url(#mask-13);
      }

      .cls-38 {
        mask: url(#mask-14);
      }

      .cls-39 {
        mask: url(#mask-15);
      }

      .cls-40 {
        mask: url(#mask-16);
      }

      .cls-41 {
        mask: url(#mask-17);
      }

      .cls-42 {
        mask: url(#mask-18);
      }

      .cls-43 {
        fill: #003361;
      }

      .cls-44 {
        fill: #b5b5b5;
      }

      .cls-45 {
        fill: #008296;
      }

      .cls-46 {
        fill: #ffb600;
      }

      .cls-47 {
        fill: #ffe000;
        opacity: 0.5;
      }

      .cls-48 {
        fill: #30336c;
      }

      .cls-49 {
        fill: #7676c0;
      }

      .cls-50 {
        fill: #2a2653;
      }

      .cls-51 {
        fill: #4f4fae;
      }

      .cls-52 {
        fill: #3c3ca5;
      }

      .cls-53 {
        fill: #123a75;
        opacity: 0.6;
      }

      .cls-54 {
        fill: #120e40;
      }

      .cls-55 {
        fill: #f9cb23;
      }

      .cls-56 {
        fill: #22a6b3;
      }

      .cls-57 {
        fill: #ea5e65;
      }

      .cls-58 {
        fill: #2f2739;
      }

      .cls-59 {
        filter: url(#luminosity-noclip-9);
      }

      .cls-60 {
        filter: url(#luminosity-noclip-8);
      }

      .cls-61 {
        filter: url(#luminosity-noclip-7);
      }

      .cls-62 {
        filter: url(#luminosity-noclip-6);
      }

      .cls-63 {
        filter: url(#luminosity-noclip-5);
      }

      .cls-64 {
        filter: url(#luminosity-noclip-4);
      }

      .cls-65 {
        filter: url(#luminosity-noclip-3);
      }

      .cls-66 {
        filter: url(#luminosity-noclip-2);
      }

      .cls-67 {
        filter: url(#luminosity-noclip);
      }
    </style>
    <filter id="luminosity-noclip" x="242.87" y="-8277.5" width="15.26" height="32766" filterUnits="userSpaceOnUse" color-interpolation-filters="sRGB">
      <feFlood flood-color="#fff" result="bg"/>
      <feBlend in="SourceGraphic" in2="bg"/>
    </filter>
    <mask id="mask" x="242.87" y="-8277.5" width="15.26" height="32766" maskUnits="userSpaceOnUse">
      <g class="cls-67"/>
    </mask>
    <linearGradient id="linear-gradient" x1="-6847.5" y1="7208.69" x2="-6703.21" y2="7208.69" gradientTransform="matrix(0, 1, 1, 0, -6958.19, 6934.32)" gradientUnits="userSpaceOnUse">
      <stop offset="0" stop-color="#4d4d4d"/>
      <stop offset="1" stop-color="#1a1a1a"/>
    </linearGradient>
    <filter id="luminosity-noclip-2" x="177.61" y="-8277.5" width="15.26" height="32766" filterUnits="userSpaceOnUse" color-interpolation-filters="sRGB">
      <feFlood flood-color="#fff" result="bg"/>
      <feBlend in="SourceGraphic" in2="bg"/>
    </filter>
    <mask id="mask-2" x="177.61" y="-8277.5" width="15.26" height="32766" maskUnits="userSpaceOnUse">
      <g class="cls-66"/>
    </mask>
    <linearGradient id="linear-gradient-2" x1="-6847.5" y1="7143.43" x2="-6703.21" y2="7143.43" xlink:href="#linear-gradient"/>
    <filter id="luminosity-noclip-3" x="192.11" y="-8277.5" width="15.26" height="32766" filterUnits="userSpaceOnUse" color-interpolation-filters="sRGB">
      <feFlood flood-color="#fff" result="bg"/>
      <feBlend in="SourceGraphic" in2="bg"/>
    </filter>
    <mask id="mask-3" x="192.11" y="-8277.5" width="15.26" height="32766" maskUnits="userSpaceOnUse">
      <g class="cls-65"/>
    </mask>
    <linearGradient id="linear-gradient-3" x1="-6847.5" y1="7157.93" x2="-6703.21" y2="7157.93" xlink:href="#linear-gradient"/>
    <filter id="luminosity-noclip-4" x="215.69" y="-8277.5" width="15.26" height="32766" filterUnits="userSpaceOnUse" color-interpolation-filters="sRGB">
      <feFlood flood-color="#fff" result="bg"/>
      <feBlend in="SourceGraphic" in2="bg"/>
    </filter>
    <mask id="mask-4" x="215.69" y="-8277.5" width="15.26" height="32766" maskUnits="userSpaceOnUse">
      <g class="cls-64"/>
    </mask>
    <linearGradient id="linear-gradient-4" x1="-6847.5" y1="7181.51" x2="-6703.21" y2="7181.51" xlink:href="#linear-gradient"/>
    <filter id="luminosity-noclip-5" x="273.17" y="-8277.5" width="15.26" height="32766" filterUnits="userSpaceOnUse" color-interpolation-filters="sRGB">
      <feFlood flood-color="#fff" result="bg"/>
      <feBlend in="SourceGraphic" in2="bg"/>
    </filter>
    <mask id="mask-5" x="273.17" y="-8277.5" width="15.26" height="32766" maskUnits="userSpaceOnUse">
      <g class="cls-63"/>
    </mask>
    <linearGradient id="linear-gradient-5" x1="-6847.5" y1="7238.99" x2="-6703.21" y2="7238.99" xlink:href="#linear-gradient"/>
    <filter id="luminosity-noclip-6" x="68.28" y="-8277.5" width="15.26" height="32766" filterUnits="userSpaceOnUse" color-interpolation-filters="sRGB">
      <feFlood flood-color="#fff" result="bg"/>
      <feBlend in="SourceGraphic" in2="bg"/>
    </filter>
    <mask id="mask-6" x="68.28" y="-8277.5" width="15.26" height="32766" maskUnits="userSpaceOnUse">
      <g class="cls-62"/>
    </mask>
    <linearGradient id="linear-gradient-6" x1="-6847.5" y1="7034.1" x2="-6703.21" y2="7034.1" xlink:href="#linear-gradient"/>
    <filter id="luminosity-noclip-7" x="119.04" y="-8277.5" width="15.26" height="32766" filterUnits="userSpaceOnUse" color-interpolation-filters="sRGB">
      <feFlood flood-color="#fff" result="bg"/>
      <feBlend in="SourceGraphic" in2="bg"/>
    </filter>
    <mask id="mask-7" x="119.04" y="-8277.5" width="15.26" height="32766" maskUnits="userSpaceOnUse">
      <g class="cls-61"/>
    </mask>
    <linearGradient id="linear-gradient-7" x1="-6847.5" y1="7084.86" x2="-6703.21" y2="7084.86" xlink:href="#linear-gradient"/>
    <filter id="luminosity-noclip-8" x="91.86" y="-8277.5" width="15.26" height="32766" filterUnits="userSpaceOnUse" color-interpolation-filters="sRGB">
      <feFlood flood-color="#fff" result="bg"/>
      <feBlend in="SourceGraphic" in2="bg"/>
    </filter>
    <mask id="mask-8" x="91.86" y="-8277.5" width="15.26" height="32766" maskUnits="userSpaceOnUse">
      <g class="cls-60"/>
    </mask>
    <linearGradient id="linear-gradient-8" x1="-6847.5" y1="7057.68" x2="-6703.21" y2="7057.68" xlink:href="#linear-gradient"/>
    <filter id="luminosity-noclip-9" x="149.34" y="-8277.5" width="15.26" height="32766" filterUnits="userSpaceOnUse" color-interpolation-filters="sRGB">
      <feFlood flood-color="#fff" result="bg"/>
      <feBlend in="SourceGraphic" in2="bg"/>
    </filter>
    <mask id="mask-9" x="149.34" y="-8277.5" width="15.26" height="32766" maskUnits="userSpaceOnUse">
      <g class="cls-59"/>
    </mask>
    <linearGradient id="linear-gradient-9" x1="-6847.5" y1="7115.16" x2="-6703.21" y2="7115.16" xlink:href="#linear-gradient"/>
    <filter id="luminosity-noclip-10" x="242.87" y="86.79" width="15.26" height="144.69" filterUnits="userSpaceOnUse" color-interpolation-filters="sRGB">
      <feFlood flood-color="#fff" result="bg"/>
      <feBlend in="SourceGraphic" in2="bg"/>
    </filter>
    <mask id="mask-10" x="242.87" y="86.79" width="15.26" height="144.69" maskUnits="userSpaceOnUse">
      <g class="cls-1">
        <polygon class="cls-2" points="258.13 231.11 252.95 86.82 247.44 86.82 242.87 231.11 258.13 231.11"/>
      </g>
    </mask>
    <filter id="luminosity-noclip-11" x="68.28" y="86.79" width="15.26" height="144.69" filterUnits="userSpaceOnUse" color-interpolation-filters="sRGB">
      <feFlood flood-color="#fff" result="bg"/>
      <feBlend in="SourceGraphic" in2="bg"/>
    </filter>
    <mask id="mask-11" x="68.28" y="86.79" width="15.26" height="144.69" maskUnits="userSpaceOnUse">
      <g class="cls-11">
        <polygon class="cls-12" points="83.54 231.11 78.36 86.82 72.84 86.82 68.28 231.11 83.54 231.11"/>
      </g>
    </mask>
    <filter id="luminosity-noclip-12" x="119.04" y="86.79" width="15.26" height="144.69" filterUnits="userSpaceOnUse" color-interpolation-filters="sRGB">
      <feFlood flood-color="#fff" result="bg"/>
      <feBlend in="SourceGraphic" in2="bg"/>
    </filter>
    <mask id="mask-12" x="119.04" y="86.79" width="15.26" height="144.69" maskUnits="userSpaceOnUse">
      <g class="cls-13">
        <polygon class="cls-14" points="134.3 231.11 129.12 86.82 123.61 86.82 119.04 231.11 134.3 231.11"/>
      </g>
    </mask>
    <filter id="luminosity-noclip-13" x="91.86" y="86.79" width="15.26" height="144.69" filterUnits="userSpaceOnUse" color-interpolation-filters="sRGB">
      <feFlood flood-color="#fff" result="bg"/>
      <feBlend in="SourceGraphic" in2="bg"/>
    </filter>
    <mask id="mask-13" x="91.86" y="86.79" width="15.26" height="144.69" maskUnits="userSpaceOnUse">
      <g class="cls-15">
        <polygon class="cls-16" points="107.12 231.11 101.94 86.82 96.43 86.82 91.86 231.11 107.12 231.11"/>
      </g>
    </mask>
    <filter id="luminosity-noclip-14" x="149.34" y="86.79" width="15.26" height="144.69" filterUnits="userSpaceOnUse" color-interpolation-filters="sRGB">
      <feFlood flood-color="#fff" result="bg"/>
      <feBlend in="SourceGraphic" in2="bg"/>
    </filter>
    <mask id="mask-14" x="149.34" y="86.79" width="15.26" height="144.69" maskUnits="userSpaceOnUse">
      <g class="cls-17">
        <polygon class="cls-18" points="164.6 231.11 159.42 86.82 153.91 86.82 149.34 231.11 164.6 231.11"/>
      </g>
    </mask>
    <filter id="luminosity-noclip-15" x="177.61" y="86.79" width="15.26" height="144.69" filterUnits="userSpaceOnUse" color-interpolation-filters="sRGB">
      <feFlood flood-color="#fff" result="bg"/>
      <feBlend in="SourceGraphic" in2="bg"/>
    </filter>
    <mask id="mask-15" x="177.61" y="86.79" width="15.26" height="144.69" maskUnits="userSpaceOnUse">
      <g class="cls-3">
        <polygon class="cls-4" points="192.87 231.11 187.69 86.82 182.18 86.82 177.61 231.11 192.87 231.11"/>
      </g>
    </mask>
    <filter id="luminosity-noclip-16" x="192.11" y="86.79" width="15.26" height="144.69" filterUnits="userSpaceOnUse" color-interpolation-filters="sRGB">
      <feFlood flood-color="#fff" result="bg"/>
      <feBlend in="SourceGraphic" in2="bg"/>
    </filter>
    <mask id="mask-16" x="192.11" y="86.79" width="15.26" height="144.69" maskUnits="userSpaceOnUse">
      <g class="cls-5">
        <polygon class="cls-6" points="207.37 231.11 202.19 86.82 196.68 86.82 192.11 231.11 207.37 231.11"/>
      </g>
    </mask>
    <filter id="luminosity-noclip-17" x="215.69" y="86.79" width="15.26" height="144.69" filterUnits="userSpaceOnUse" color-interpolation-filters="sRGB">
      <feFlood flood-color="#fff" result="bg"/>
      <feBlend in="SourceGraphic" in2="bg"/>
    </filter>
    <mask id="mask-17" x="215.69" y="86.79" width="15.26" height="144.69" maskUnits="userSpaceOnUse">
      <g class="cls-7">
        <polygon class="cls-8" points="230.95 231.11 225.77 86.82 220.26 86.82 215.69 231.11 230.95 231.11"/>
      </g>
    </mask>
    <filter id="luminosity-noclip-18" x="273.17" y="86.79" width="15.26" height="144.69" filterUnits="userSpaceOnUse" color-interpolation-filters="sRGB">
      <feFlood flood-color="#fff" result="bg"/>
      <feBlend in="SourceGraphic" in2="bg"/>
    </filter>
    <mask id="mask-18" x="273.17" y="86.79" width="15.26" height="144.69" maskUnits="userSpaceOnUse">
      <g class="cls-9">
        <polygon class="cls-10" points="288.43 231.11 283.25 86.82 277.74 86.82 273.17 231.11 288.43 231.11"/>
      </g>
    </mask>
  </defs>
  <title>img-15</title>
  <g id="Layer_1" data-name="Layer 1">
    <g>
      <g>
        <rect class="cls-19" x="66.85" y="85.59" width="254.16" height="144.97"/>
        <rect class="cls-20" x="70.55" y="88.68" width="247.08" height="138.18"/>
        <rect class="cls-19" x="259.32" y="87.45" width="1.85" height="142.79"/>
        <rect class="cls-19" x="194.23" y="88.39" width="1.85" height="141.48"/>
        <rect class="cls-19" x="128.54" y="86.52" width="1.85" height="142.79"/>
        <rect class="cls-19" x="69.01" y="134.33" width="251.38" height="1.54"/>
        <rect class="cls-19" x="69.01" y="179.67" width="251.38" height="1.54"/>
        <path class="cls-21" d="M194.5,152.1a.42.42,0,0,1,.16-.45.48.48,0,0,1,.56,0,.56.56,0,0,1,.2.57c-.06-.17-.14-.37-.31-.41H195a.52.52,0,0,0-.31.14C194.6,152,194.57,152.07,194.5,152.1Z"/>
        <rect class="cls-22" x="-43.03" y="148.77" width="166.32" height="2.93" transform="translate(190.36 110.1) rotate(90)"/>
        <rect class="cls-22" x="-61.91" y="148.77" width="166.32" height="2.93" transform="translate(171.48 128.98) rotate(90)"/>
        <polygon class="cls-22" points="20.12 198.63 22.78 197.53 41.82 227.66 39.16 228.75 20.12 198.63"/>
        <polygon class="cls-22" points="20.12 227.66 22.78 228.75 41.82 198.63 39.16 197.53 20.12 227.66"/>
        <polygon class="cls-22" points="20.12 166.34 22.78 165.25 41.82 195.37 39.16 196.46 20.12 166.34"/>
        <polygon class="cls-22" points="20.12 195.37 22.78 196.46 41.82 166.34 39.16 165.25 20.12 195.37"/>
        <polygon class="cls-22" points="20.12 134.84 22.78 133.75 41.82 163.87 39.16 164.96 20.12 134.84"/>
        <polygon class="cls-22" points="20.12 163.87 22.78 164.96 41.82 134.84 39.16 133.75 20.12 163.87"/>
        <polygon class="cls-22" points="20.12 103.34 22.78 102.25 41.82 132.37 39.16 133.46 20.12 103.34"/>
        <polygon class="cls-22" points="20.12 132.37 22.78 133.46 41.82 103.34 39.16 102.25 20.12 132.37"/>
        <polygon class="cls-22" points="20.12 72.63 22.78 71.53 41.82 101.66 39.16 102.75 20.12 72.63"/>
        <polygon class="cls-22" points="20.12 101.66 22.78 102.75 41.82 72.63 39.16 71.53 20.12 101.66"/>
        <rect class="cls-22" x="291.78" y="148.3" width="165.39" height="2.93" transform="translate(524.24 -224.71) rotate(90)"/>
        <rect class="cls-22" x="272.91" y="148.3" width="165.39" height="2.93" transform="translate(505.37 -205.84) rotate(90)"/>
        <polygon class="cls-22" points="354.47 197.9 357.13 196.81 376.17 226.76 373.51 227.85 354.47 197.9"/>
        <polygon class="cls-22" points="354.47 226.76 357.13 227.85 376.17 197.9 373.51 196.81 354.47 226.76"/>
        <polygon class="cls-22" points="354.47 165.79 357.13 164.7 376.17 194.66 373.51 195.74 354.47 165.79"/>
        <polygon class="cls-22" points="354.47 194.66 357.13 195.74 376.17 165.79 373.51 164.7 354.47 194.66"/>
        <polygon class="cls-22" points="354.47 134.46 357.13 133.38 376.17 163.33 373.51 164.42 354.47 134.46"/>
        <polygon class="cls-22" points="354.47 163.33 357.13 164.42 376.17 134.46 373.51 133.38 354.47 163.33"/>
        <polygon class="cls-22" points="354.47 103.14 357.13 102.05 376.17 132 373.51 133.09 354.47 103.14"/>
        <polygon class="cls-22" points="354.47 132 357.13 133.09 376.17 103.14 373.51 102.05 354.47 132"/>
        <polygon class="cls-22" points="354.47 72.59 357.13 71.51 376.17 101.46 373.51 102.55 354.47 72.59"/>
        <polygon class="cls-22" points="354.47 101.46 357.13 102.55 376.17 72.59 373.51 71.51 354.47 101.46"/>
        <rect class="cls-22" x="190.59" y="61.06" width="165.39" height="2.93" transform="translate(0.24 -1.04) rotate(0.22)"/>
        <rect class="cls-22" x="190.51" y="79.93" width="165.39" height="2.93" transform="translate(0.31 -1.04) rotate(0.22)"/>
        <polygon class="cls-22" points="321.33 82.72 320.26 80.05 350.28 61.13 351.36 63.79 321.33 82.72"/>
        <polygon class="cls-22" points="350.2 82.83 351.3 80.17 321.42 61.02 320.32 63.67 350.2 82.83"/>
        <polygon class="cls-22" points="289.23 82.59 288.15 79.93 318.18 61 319.25 63.67 289.23 82.59"/>
        <polygon class="cls-22" points="318.09 82.7 319.19 80.05 289.31 60.89 288.21 63.55 318.09 82.7"/>
        <polygon class="cls-22" points="257.9 82.47 256.82 79.81 286.85 60.88 287.93 63.55 257.9 82.47"/>
        <polygon class="cls-22" points="286.77 82.58 287.87 79.92 257.98 60.77 256.89 63.43 286.77 82.58"/>
        <polygon class="cls-22" points="226.58 82.35 225.5 79.69 255.53 60.76 256.6 63.43 226.58 82.35"/>
        <polygon class="cls-22" points="255.44 82.46 256.54 79.81 226.66 60.65 225.56 63.31 255.44 82.46"/>
        <polygon class="cls-22" points="196.03 82.24 194.96 79.57 224.98 60.65 226.06 63.31 196.03 82.24"/>
        <polygon class="cls-22" points="224.9 82.35 226 79.69 196.12 60.54 195.02 63.2 224.9 82.35"/>
        <rect class="cls-22" x="41.9" y="60.21" width="165.39" height="2.93" transform="translate(0.24 -0.48) rotate(0.22)"/>
        <rect class="cls-22" x="41.83" y="79.08" width="165.39" height="2.93" transform="translate(0.31 -0.47) rotate(0.22)"/>
        <polygon class="cls-22" points="172.65 81.86 171.57 79.2 201.6 60.27 202.67 62.94 172.65 81.86"/>
        <polygon class="cls-22" points="201.51 81.97 202.61 79.32 172.73 60.16 171.63 62.82 201.51 81.97"/>
        <polygon class="cls-22" points="140.54 81.74 139.46 79.08 169.49 60.15 170.57 62.82 140.54 81.74"/>
        <polygon class="cls-22" points="169.41 81.85 170.5 79.19 140.62 60.04 139.52 62.7 169.41 81.85"/>
        <polygon class="cls-22" points="109.21 81.62 108.14 78.96 138.16 60.03 139.24 62.7 109.21 81.62"/>
        <polygon class="cls-22" points="138.08 81.73 139.18 79.08 109.3 59.92 108.2 62.58 138.08 81.73"/>
        <polygon class="cls-22" points="77.89 81.5 76.81 78.84 106.84 59.91 107.92 62.58 77.89 81.5"/>
        <polygon class="cls-22" points="106.76 81.61 107.85 78.96 77.97 59.8 76.87 62.46 106.76 81.61"/>
        <polygon class="cls-22" points="47.35 81.39 46.27 78.72 76.3 59.8 77.37 62.46 47.35 81.39"/>
        <polygon class="cls-22" points="76.21 81.5 77.31 78.84 47.43 59.69 46.33 62.34 76.21 81.5"/>
        <rect class="cls-23" x="16.39" y="237.35" width="364.49" height="64.77"/>
        <rect class="cls-19" x="9.03" y="230.67" width="377.53" height="13.67"/>
        <rect class="cls-24" x="315.93" y="169.36" width="27.21" height="61.69"/>
        <ellipse class="cls-25" cx="329.54" cy="214.21" rx="9.57" ry="9.54"/>
        <path class="cls-26" d="M329.54,224.24a10,10,0,1,1,10.06-10A10.06,10.06,0,0,1,329.54,224.24Zm0-19.08a9,9,0,1,0,9.07,9.05A9.06,9.06,0,0,0,329.54,205.16Z"/>
        <path class="cls-24" d="M336.12,214.21a6.59,6.59,0,1,0-6.58,6.56A6.58,6.58,0,0,0,336.12,214.21Z"/>
        <path class="cls-27" d="M332,214.13a2.53,2.53,0,1,0-2.53,2.51A2.52,2.52,0,0,0,332,214.13Z"/>
        <ellipse class="cls-25" cx="329.34" cy="193.15" rx="6.5" ry="6.48"/>
        <path class="cls-26" d="M329.34,200a6.82,6.82,0,1,1,6.84-6.81A6.82,6.82,0,0,1,329.34,200Zm0-13a6.14,6.14,0,1,0,6.16,6.14A6.16,6.16,0,0,0,329.34,187Z"/>
        <ellipse class="cls-24" cx="329.34" cy="193.15" rx="4.47" ry="4.46"/>
        <path class="cls-27" d="M331,193.09a1.72,1.72,0,1,0-1.71,1.71A1.72,1.72,0,0,0,331,193.09Z"/>
        <path class="cls-25" d="M334,178.12a4.45,4.45,0,1,0-4.44,4.43A4.44,4.44,0,0,0,334,178.12Z"/>
        <path class="cls-26" d="M329.54,182.78a4.67,4.67,0,1,1,4.68-4.66A4.67,4.67,0,0,1,329.54,182.78Zm0-8.87a4.21,4.21,0,1,0,4.21,4.21A4.22,4.22,0,0,0,329.54,173.91Z"/>
        <path class="cls-24" d="M332.6,178.12a3.07,3.07,0,1,0-3.06,3A3.06,3.06,0,0,0,332.6,178.12Z"/>
        <path class="cls-27" d="M330.67,178.08a1.18,1.18,0,1,0-1.17,1.17A1.17,1.17,0,0,0,330.67,178.08Z"/>
        <rect class="cls-28" x="315.86" y="168.54" width="27.33" height="1.4"/>
        <rect class="cls-24" x="315.93" y="107.06" width="27.21" height="61.69"/>
        <ellipse class="cls-25" cx="329.54" cy="151.9" rx="9.57" ry="9.54"/>
        <path class="cls-26" d="M329.54,161.94a10,10,0,1,1,10.06-10A10.07,10.07,0,0,1,329.54,161.94Zm0-19.08a9,9,0,1,0,9.07,9A9.06,9.06,0,0,0,329.54,142.86Z"/>
        <path class="cls-24" d="M336.12,151.9a6.59,6.59,0,1,0-6.58,6.57A6.57,6.57,0,0,0,336.12,151.9Z"/>
        <ellipse class="cls-27" cx="329.45" cy="151.82" rx="2.53" ry="2.52"/>
        <ellipse class="cls-25" cx="329.34" cy="130.84" rx="6.5" ry="6.48"/>
        <path class="cls-26" d="M329.34,137.66a6.82,6.82,0,1,1,6.84-6.82A6.83,6.83,0,0,1,329.34,137.66Zm0-13a6.14,6.14,0,1,0,6.16,6.14A6.16,6.16,0,0,0,329.34,124.7Z"/>
        <ellipse class="cls-24" cx="329.34" cy="130.84" rx="4.47" ry="4.46"/>
        <ellipse class="cls-27" cx="329.29" cy="130.79" rx="1.72" ry="1.71"/>
        <path class="cls-25" d="M334,115.81a4.45,4.45,0,1,0-4.44,4.44A4.43,4.43,0,0,0,334,115.81Z"/>
        <path class="cls-26" d="M329.54,120.48a4.67,4.67,0,1,1,4.68-4.67A4.68,4.68,0,0,1,329.54,120.48Zm0-8.87a4.21,4.21,0,1,0,4.21,4.2A4.21,4.21,0,0,0,329.54,111.61Z"/>
        <path class="cls-24" d="M332.6,115.81a3.07,3.07,0,1,0-3.06,3A3.05,3.05,0,0,0,332.6,115.81Z"/>
        <path class="cls-27" d="M330.67,115.77a1.18,1.18,0,1,0-1.17,1.17A1.17,1.17,0,0,0,330.67,115.77Z"/>
        <rect class="cls-28" x="315.86" y="106.23" width="27.33" height="1.4"/>
        <rect class="cls-24" x="43.55" y="107.06" width="27.21" height="61.69"/>
        <ellipse class="cls-25" cx="57.15" cy="151.9" rx="9.57" ry="9.54"/>
        <path class="cls-26" d="M57.15,161.94a10,10,0,1,1,10.07-10A10.06,10.06,0,0,1,57.15,161.94Zm0-19.08a9,9,0,1,0,9.07,9A9.07,9.07,0,0,0,57.15,142.86Z"/>
        <path class="cls-24" d="M63.74,151.9a6.59,6.59,0,1,0-6.59,6.57A6.58,6.58,0,0,0,63.74,151.9Z"/>
        <ellipse class="cls-27" cx="57.07" cy="151.82" rx="2.53" ry="2.52"/>
        <ellipse class="cls-25" cx="56.96" cy="130.84" rx="6.5" ry="6.48"/>
        <path class="cls-26" d="M57,137.66a6.82,6.82,0,1,1,6.83-6.82A6.83,6.83,0,0,1,57,137.66Zm0-13a6.14,6.14,0,1,0,6.16,6.14A6.16,6.16,0,0,0,57,124.7Z"/>
        <ellipse class="cls-24" cx="56.96" cy="130.84" rx="4.47" ry="4.46"/>
        <path class="cls-27" d="M58.62,130.79a1.72,1.72,0,1,0-1.72,1.71A1.71,1.71,0,0,0,58.62,130.79Z"/>
        <path class="cls-25" d="M61.6,115.81a4.45,4.45,0,1,0-4.45,4.44A4.44,4.44,0,0,0,61.6,115.81Z"/>
        <path class="cls-26" d="M57.15,120.48a4.67,4.67,0,1,1,4.68-4.67A4.68,4.68,0,0,1,57.15,120.48Zm0-8.87a4.21,4.21,0,1,0,4.22,4.2A4.22,4.22,0,0,0,57.15,111.61Z"/>
        <path class="cls-24" d="M60.21,115.81a3.06,3.06,0,1,0-3.06,3A3.05,3.05,0,0,0,60.21,115.81Z"/>
        <path class="cls-27" d="M58.29,115.77a1.18,1.18,0,0,0-2.35,0,1.18,1.18,0,0,0,2.35,0Z"/>
        <rect class="cls-28" x="43.48" y="106.23" width="27.33" height="1.4"/>
        <rect class="cls-24" x="43.47" y="169.57" width="27.21" height="61.69"/>
        <ellipse class="cls-25" cx="57.08" cy="214.41" rx="9.57" ry="9.54"/>
        <path class="cls-26" d="M57.08,224.45a10,10,0,1,1,10.06-10A10.07,10.07,0,0,1,57.08,224.45Zm0-19.08a9,9,0,1,0,9.07,9A9.07,9.07,0,0,0,57.08,205.37Z"/>
        <ellipse class="cls-24" cx="57.08" cy="214.41" rx="6.59" ry="6.57"/>
        <path class="cls-27" d="M59.52,214.33A2.53,2.53,0,1,0,57,216.85,2.52,2.52,0,0,0,59.52,214.33Z"/>
        <path class="cls-25" d="M63.38,193.35a6.5,6.5,0,1,0-6.5,6.48A6.49,6.49,0,0,0,63.38,193.35Z"/>
        <path class="cls-26" d="M56.88,200.17a6.82,6.82,0,1,1,6.84-6.82A6.84,6.84,0,0,1,56.88,200.17Zm0-13A6.14,6.14,0,1,0,63,193.35,6.16,6.16,0,0,0,56.88,187.21Z"/>
        <path class="cls-24" d="M61.36,193.35a4.48,4.48,0,1,0-4.48,4.46A4.47,4.47,0,0,0,61.36,193.35Z"/>
        <path class="cls-27" d="M58.54,193.3A1.72,1.72,0,1,0,56.83,195,1.71,1.71,0,0,0,58.54,193.3Z"/>
        <ellipse class="cls-25" cx="57.08" cy="178.32" rx="4.45" ry="4.44"/>
        <path class="cls-26" d="M57.08,183a4.67,4.67,0,1,1,4.68-4.67A4.68,4.68,0,0,1,57.08,183Zm0-8.87a4.21,4.21,0,1,0,4.21,4.2A4.21,4.21,0,0,0,57.08,174.12Z"/>
        <path class="cls-24" d="M60.14,178.32a3.07,3.07,0,1,0-3.06,3.06A3.06,3.06,0,0,0,60.14,178.32Z"/>
        <path class="cls-27" d="M58.21,178.28A1.18,1.18,0,1,0,57,179.46,1.17,1.17,0,0,0,58.21,178.28Z"/>
        <rect class="cls-28" x="43.41" y="168.74" width="27.33" height="1.4"/>
        <path class="cls-24" d="M134.28,228l-.9-1.55-4.22,2.93a1,1,0,0,0-.27,1.27.8.8,0,0,0,.7.44A.68.68,0,0,0,130,231Z"/>
        <g class="cls-29">
          <polygon class="cls-30" points="258.13 231.48 252.95 86.79 247.44 86.79 242.87 231.48 258.13 231.48"/>
        </g>
        <rect class="cls-31" x="191.55" y="81.45" width="123.7" height="2.85"/>
        <rect class="cls-31" x="198.94" y="67.75" width="1.77" height="15.2"/>
        <rect class="cls-31" x="222.27" y="67.75" width="1.77" height="15.2"/>
        <rect class="cls-31" x="249.55" y="67.75" width="1.77" height="15.2"/>
        <rect class="cls-31" x="279.53" y="67.75" width="1.77" height="15.2"/>
        <rect class="cls-31" x="307.75" y="67.75" width="1.77" height="15.2"/>
        <rect class="cls-31" x="196.13" y="83.63" width="7.08" height="4.21"/>
        <rect class="cls-31" x="219.35" y="83.63" width="7.08" height="4.21"/>
        <rect class="cls-31" x="246.89" y="83.63" width="7.08" height="4.21"/>
        <rect class="cls-31" x="277.09" y="83.63" width="7.08" height="4.21"/>
        <rect class="cls-31" x="304.89" y="83.63" width="7.08" height="4.21"/>
        <g class="cls-32">
          <polygon class="cls-30" points="83.54 231.48 78.36 86.79 72.84 86.79 68.28 231.48 83.54 231.48"/>
        </g>
        <g class="cls-33">
          <polygon class="cls-30" points="134.3 231.48 129.12 86.79 123.61 86.79 119.04 231.48 134.3 231.48"/>
        </g>
        <rect class="cls-31" x="67.72" y="81.45" width="123.7" height="2.85"/>
        <rect class="cls-31" x="75.11" y="67.75" width="1.77" height="15.2"/>
        <rect class="cls-31" x="98.43" y="67.75" width="1.77" height="15.2"/>
        <rect class="cls-31" x="125.72" y="67.75" width="1.77" height="15.2"/>
        <rect class="cls-31" x="155.7" y="67.75" width="1.77" height="15.2"/>
        <rect class="cls-31" x="183.92" y="67.75" width="1.77" height="15.2"/>
        <rect class="cls-31" x="72.3" y="83.63" width="7.08" height="4.21"/>
        <rect class="cls-31" x="95.52" y="83.63" width="7.08" height="4.21"/>
        <rect class="cls-31" x="123.06" y="83.63" width="7.08" height="4.21"/>
        <rect class="cls-31" x="153.26" y="83.63" width="7.08" height="4.21"/>
        <rect class="cls-31" x="181.06" y="83.63" width="7.08" height="4.21"/>
        <rect class="cls-34" x="12.96" y="34.42" width="369.19" height="33.31"/>
        <rect class="cls-35" x="62.53" y="9.72" width="260.33" height="48.12"/>
        <path class="cls-36" d="M177.81,225.11a.37.37,0,0,1,.43-.31.63.63,0,0,1,.46.35.3.3,0,0,0-.16.3.3.3,0,0,0,.22.25.36.36,0,0,1-.44-.1.36.36,0,0,1,0-.45.13.13,0,0,0,.05-.09s-.06-.05-.1-.05a1.57,1.57,0,0,0-.53.06"/>
        <g class="cls-37">
          <polygon class="cls-30" points="107.12 231.48 101.94 86.79 96.43 86.79 91.86 231.48 107.12 231.48"/>
        </g>
        <g class="cls-38">
          <polygon class="cls-30" points="164.6 231.48 159.42 86.79 153.91 86.79 149.34 231.48 164.6 231.48"/>
        </g>
        <g class="cls-39">
          <polygon class="cls-30" points="192.87 231.48 187.69 86.79 182.18 86.79 177.61 231.48 192.87 231.48"/>
        </g>
        <g class="cls-40">
          <polygon class="cls-30" points="207.37 231.48 202.19 86.79 196.68 86.79 192.11 231.48 207.37 231.48"/>
        </g>
        <g class="cls-41">
          <polygon class="cls-30" points="230.95 231.48 225.77 86.79 220.26 86.79 215.69 231.48 230.95 231.48"/>
        </g>
        <g class="cls-42">
          <polygon class="cls-30" points="288.43 231.48 283.25 86.79 277.74 86.79 273.17 231.48 288.43 231.48"/>
        </g>
        <g>
          <path class="cls-43" d="M107.1,35.9a7,7,0,0,1-2.33,5,8.22,8.22,0,0,1-5.55,1.81,7.38,7.38,0,0,1-5.93-2.53,10.42,10.42,0,0,1-2.16-7V32a11.62,11.62,0,0,1,1-5A7.38,7.38,0,0,1,95,23.72a8.91,8.91,0,0,1,9.76.66,7.43,7.43,0,0,1,2.4,5.1h-4a4.13,4.13,0,0,0-1-2.75,3.93,3.93,0,0,0-2.77-.85,3.44,3.44,0,0,0-3,1.44,8.13,8.13,0,0,0-1,4.49v1.48a8.71,8.71,0,0,0,1,4.64,3.39,3.39,0,0,0,3,1.47,4,4,0,0,0,2.79-.86,3.88,3.88,0,0,0,1.06-2.64Z"/>
          <path class="cls-43" d="M108.89,35a8.72,8.72,0,0,1,.83-3.86,6.06,6.06,0,0,1,2.41-2.62,7,7,0,0,1,3.63-.93,6.62,6.62,0,0,1,4.81,1.8,7.17,7.17,0,0,1,2.08,4.9l0,1a7.6,7.6,0,0,1-1.87,5.38,7.25,7.25,0,0,1-10,0,7.72,7.72,0,0,1-1.88-5.48Zm3.89.28a5.43,5.43,0,0,0,.78,3.17,2.8,2.8,0,0,0,4.44,0,6,6,0,0,0,.79-3.47,5.39,5.39,0,0,0-.79-3.15,2.58,2.58,0,0,0-2.24-1.12,2.53,2.53,0,0,0-2.2,1.11A6.07,6.07,0,0,0,112.78,35.29Z"/>
          <path class="cls-43" d="M128.65,27.87l.12,1.68A5.09,5.09,0,0,1,133,27.6,4.2,4.2,0,0,1,136.4,29,6.3,6.3,0,0,1,137.56,33v9.4h-3.89V33.11a2.5,2.5,0,0,0-.54-1.79,2.41,2.41,0,0,0-1.79-.56,2.68,2.68,0,0,0-2.46,1.4V42.42H125V27.87Z"/>
          <path class="cls-43" d="M139.94,35a8.56,8.56,0,0,1,1.59-5.4,5.19,5.19,0,0,1,4.3-2,4.52,4.52,0,0,1,3.73,1.64l.16-1.37h3.53V41.94a6.2,6.2,0,0,1-.87,3.32,5.61,5.61,0,0,1-2.44,2.15,8.5,8.5,0,0,1-3.69.74,7.88,7.88,0,0,1-3.12-.64,5.45,5.45,0,0,1-2.3-1.64l1.72-2.37a4.57,4.57,0,0,0,3.52,1.63,3.33,3.33,0,0,0,2.41-.83,3.09,3.09,0,0,0,.86-2.35v-.78a4.45,4.45,0,0,1-3.53,1.52,5.15,5.15,0,0,1-4.25-2,8.53,8.53,0,0,1-1.62-5.44Zm3.89.29a5.29,5.29,0,0,0,.79,3.1,2.54,2.54,0,0,0,2.18,1.13,2.7,2.7,0,0,0,2.54-1.34V32.09a2.69,2.69,0,0,0-2.51-1.33,2.53,2.53,0,0,0-2.2,1.14A6,6,0,0,0,143.83,35.33Z"/>
          <path class="cls-43" d="M164.41,31.51a10.85,10.85,0,0,0-1.4-.11,2.84,2.84,0,0,0-2.89,1.5v9.52h-3.89V27.87h3.67L160,29.6a3.61,3.61,0,0,1,3.24-2,4.26,4.26,0,0,1,1.21.17Z"/>
          <path class="cls-43" d="M174.31,42.42a4.25,4.25,0,0,1-.39-1.3,4.69,4.69,0,0,1-3.67,1.57,5.16,5.16,0,0,1-3.55-1.24,4,4,0,0,1-1.4-3.12A4.12,4.12,0,0,1,167,34.78a8.54,8.54,0,0,1,5-1.25h1.79V32.7a2.39,2.39,0,0,0-.52-1.62,2,2,0,0,0-1.63-.6,2.27,2.27,0,0,0-1.54.47,1.6,1.6,0,0,0-.56,1.29h-3.89a3.92,3.92,0,0,1,.78-2.34,5.17,5.17,0,0,1,2.21-1.69,8,8,0,0,1,3.2-.61A6.36,6.36,0,0,1,176.08,29a4.74,4.74,0,0,1,1.58,3.8v6.31a6.88,6.88,0,0,0,.58,3.13v.23Zm-3.21-2.7a3.27,3.27,0,0,0,1.58-.39,2.43,2.43,0,0,0,1.08-1V35.8h-1.45c-1.95,0-3,.68-3.11,2v.23a1.58,1.58,0,0,0,.51,1.2A2,2,0,0,0,171.1,39.72Z"/>
          <path class="cls-43" d="M185.3,24.29v3.58h2.49v2.85H185.3V38a1.77,1.77,0,0,0,.31,1.16,1.58,1.58,0,0,0,1.19.35,6.43,6.43,0,0,0,1.14-.09v2.94a8.12,8.12,0,0,1-2.36.35q-4.08,0-4.17-4.13V30.72h-2.12V27.87h2.12V24.29Z"/>
          <path class="cls-43" d="M198.67,40.94a4.85,4.85,0,0,1-4,1.75,4.62,4.62,0,0,1-3.57-1.34,5.77,5.77,0,0,1-1.26-4V27.87h3.89v9.41q0,2.28,2.07,2.28a2.8,2.8,0,0,0,2.72-1.38V27.87h3.9V42.42h-3.66Z"/>
          <path class="cls-43" d="M209.48,42.42h-3.9V21.76h3.9Z"/>
          <path class="cls-43" d="M221.11,42.42a4.25,4.25,0,0,1-.39-1.3,4.69,4.69,0,0,1-3.67,1.57,5.11,5.11,0,0,1-3.54-1.24,4,4,0,0,1-1.41-3.12,4.11,4.11,0,0,1,1.72-3.55,8.48,8.48,0,0,1,5-1.25h1.79V32.7a2.39,2.39,0,0,0-.52-1.62,2,2,0,0,0-1.63-.6,2.27,2.27,0,0,0-1.54.47,1.6,1.6,0,0,0-.56,1.29h-3.89a3.92,3.92,0,0,1,.78-2.34,5.17,5.17,0,0,1,2.21-1.69,8,8,0,0,1,3.2-.61A6.34,6.34,0,0,1,222.88,29a4.71,4.71,0,0,1,1.58,3.8v6.31a7,7,0,0,0,.58,3.13v.23Zm-3.21-2.7a3.34,3.34,0,0,0,1.59-.39,2.46,2.46,0,0,0,1.07-1V35.8h-1.45c-2,0-3,.68-3.11,2v.23a1.58,1.58,0,0,0,.51,1.2A2,2,0,0,0,217.9,39.72Z"/>
          <path class="cls-43" d="M232.1,24.29v3.58h2.49v2.85H232.1V38a1.77,1.77,0,0,0,.31,1.16,1.58,1.58,0,0,0,1.19.35,6.43,6.43,0,0,0,1.14-.09v2.94a8.11,8.11,0,0,1-2.35.35q-4.09,0-4.17-4.13V30.72h-2.13V27.87h2.13V24.29Z"/>
          <path class="cls-43" d="M236.73,24.1a1.93,1.93,0,0,1,.59-1.44,2.54,2.54,0,0,1,3.18,0,1.93,1.93,0,0,1,.59,1.44,1.89,1.89,0,0,1-.6,1.45,2.47,2.47,0,0,1-3.16,0A1.89,1.89,0,0,1,236.73,24.1Zm4.13,18.32H237V27.87h3.9Z"/>
          <path class="cls-43" d="M243.46,35a8.72,8.72,0,0,1,.83-3.86,6.1,6.1,0,0,1,2.4-2.62,7,7,0,0,1,3.64-.93,6.62,6.62,0,0,1,4.81,1.8,7.22,7.22,0,0,1,2.08,4.9l0,1a7.64,7.64,0,0,1-1.87,5.38,7.26,7.26,0,0,1-10,0,7.72,7.72,0,0,1-1.87-5.48Zm3.89.28a5.43,5.43,0,0,0,.78,3.17,2.8,2.8,0,0,0,4.44,0,6,6,0,0,0,.79-3.47,5.47,5.47,0,0,0-.79-3.15,2.58,2.58,0,0,0-2.24-1.12,2.53,2.53,0,0,0-2.2,1.11A6.07,6.07,0,0,0,247.35,35.29Z"/>
          <path class="cls-43" d="M263.22,27.87l.12,1.68a5.09,5.09,0,0,1,4.19-1.95A4.2,4.2,0,0,1,271,29,6.36,6.36,0,0,1,272.13,33v9.4h-3.89V33.11a2.5,2.5,0,0,0-.54-1.79,2.41,2.41,0,0,0-1.79-.56,2.68,2.68,0,0,0-2.46,1.4V42.42h-3.89V27.87Z"/>
          <path class="cls-43" d="M283,38.4a1.24,1.24,0,0,0-.71-1.12,8,8,0,0,0-2.27-.74q-5.19-1.08-5.19-4.41a4,4,0,0,1,1.61-3.23,6.45,6.45,0,0,1,4.2-1.3A7,7,0,0,1,285,28.9a4.11,4.11,0,0,1,1.67,3.39h-3.89a1.9,1.9,0,0,0-.54-1.38,2.29,2.29,0,0,0-1.68-.54,2.35,2.35,0,0,0-1.52.44,1.42,1.42,0,0,0-.54,1.13,1.21,1.21,0,0,0,.61,1.05,6.4,6.4,0,0,0,2.07.68,17,17,0,0,1,2.45.65c2,.76,3.08,2.06,3.08,3.92A3.79,3.79,0,0,1,285,41.46a7.37,7.37,0,0,1-4.41,1.23,7.76,7.76,0,0,1-3.25-.65,5.47,5.47,0,0,1-2.23-1.79,4.16,4.16,0,0,1-.81-2.46H278a2,2,0,0,0,.77,1.59,3,3,0,0,0,1.91.55,2.81,2.81,0,0,0,1.68-.42A1.32,1.32,0,0,0,283,38.4Z"/>
          <path class="cls-43" d="M291.58,38.53a2.21,2.21,0,0,1,1.58.58,2.11,2.11,0,0,1,0,3,2.21,2.21,0,0,1-1.58.58,2.19,2.19,0,0,1-1.57-.58,2.1,2.1,0,0,1,0-2.94A2.15,2.15,0,0,1,291.58,38.53Zm1.61-2.12H290l-.45-13.57h4.14Z"/>
        </g>
      </g>
      <g>
        <rect class="cls-34" x="329.51" y="195.3" width="23.76" height="117.75"/>
        <rect class="cls-44" x="285.42" y="136.16" width="111.94" height="64.42"/>
        <rect class="cls-35" x="288.72" y="138.98" width="105.43" height="58.96"/>
        <g>
          <g>
            <path class="cls-43" d="M300.71,169.76a4.19,4.19,0,1,1,4.65-4.17A4.33,4.33,0,0,1,300.71,169.76Zm0-6.65a2.48,2.48,0,1,0,2.56,2.48A2.39,2.39,0,0,0,300.71,163.11Z"/>
            <path class="cls-43" d="M307.72,164.63a2.34,2.34,0,0,1,1.57-.58,2.87,2.87,0,0,1-.16,5.71,2.86,2.86,0,0,1-1.41-.38v3H306v-8.23h1.73Zm0,3.62a1.6,1.6,0,0,0,1,.35c.84,0,1.37-.64,1.37-1.67s-.48-1.65-1.3-1.65a1.61,1.61,0,0,0-1.07.44Z"/>
            <path class="cls-43" d="M318.2,169a3.94,3.94,0,0,1-2.45.73c-1.93,0-3.18-1.12-3.18-2.84a2.87,2.87,0,1,1,5.73.26h-3.95a1.61,1.61,0,0,0,1.82,1.55,3.22,3.22,0,0,0,2-.78Zm-1.43-2.75a1.18,1.18,0,0,0-1.19-1.2,1.16,1.16,0,0,0-1.19,1.2Z"/>
            <path class="cls-43" d="M320.78,164.94a2.21,2.21,0,0,1,1.79-.89,1.93,1.93,0,0,1,2,2.11v3.49h-1.73V166.3c0-.77-.37-1.09-.86-1.09s-.75.22-1.2.9v3.54h-1.73v-5.49h1.73Z"/>
            <path class="cls-43" d="M332.47,161.52a2.45,2.45,0,1,1,0,4.87h-1.61v3.26h-2v-8.13Zm-1.6,3.38h.94c.93,0,1.27-.34,1.27-.94s-.4-1-1.49-1h-.72Z"/>
            <path class="cls-43" d="M338.2,169.76a2.86,2.86,0,1,1,3.09-2.85A2.85,2.85,0,0,1,338.2,169.76Zm0-4.68c-.75,0-1.26.58-1.26,1.82,0,1.42.61,1.83,1.26,1.83.81,0,1.24-.66,1.24-1.87S339.07,165.08,338.2,165.08Z"/>
            <path class="cls-43" d="M343.84,169.65h-1.73v-8.13h1.73Z"/>
            <path class="cls-43" d="M346.73,172.29h-1.84l1.61-3.53-2.14-4.6h1.84l1.16,2.82,1.24-2.82h1.81Z"/>
            <path class="cls-43" d="M355.19,165.34h-2v2.26a.79.79,0,0,0,.84.88,2.4,2.4,0,0,0,1.16-.32v1.25a3.93,3.93,0,0,1-1.6.35,1.9,1.9,0,0,1-2.13-2.06v-2.36h-.79V165l2.3-2.57h.22v1.73h2Z"/>
            <path class="cls-43" d="M361.31,169a3.94,3.94,0,0,1-2.45.73c-1.93,0-3.18-1.12-3.18-2.84a2.87,2.87,0,1,1,5.73.26h-3.94a1.6,1.6,0,0,0,1.81,1.55,3.22,3.22,0,0,0,2-.78Zm-1.43-2.75a1.18,1.18,0,0,0-1.19-1.2,1.16,1.16,0,0,0-1.19,1.2Z"/>
            <path class="cls-43" d="M367.2,169.39a5.34,5.34,0,0,1-1.86.37c-1.93,0-3.18-1.12-3.18-2.84a2.88,2.88,0,0,1,3.11-2.87,5.57,5.57,0,0,1,1.85.36v1.29a3.16,3.16,0,0,0-1.41-.37,1.6,1.6,0,1,0-.06,3.2,4.12,4.12,0,0,0,1.55-.38Z"/>
            <path class="cls-43" d="M370,165h0a2.13,2.13,0,0,1,1.74-.92,1.93,1.93,0,0,1,2,2.1v3.5H372v-3.13c0-.82-.36-1.21-.89-1.21s-.76.25-1.16.84v3.5h-1.73v-8.13H370Z"/>
            <path class="cls-43" d="M376.3,164.94a2.19,2.19,0,0,1,1.78-.89,1.93,1.93,0,0,1,2,2.11v3.49h-1.73V166.3c0-.77-.37-1.09-.86-1.09s-.75.22-1.2.9v3.54h-1.73v-5.49h1.73Z"/>
            <path class="cls-43" d="M382.75,162.37a.95.95,0,1,1-.95-1A.95.95,0,0,1,382.75,162.37Zm-.08,7.28h-1.73v-5.49h1.73Z"/>
            <path class="cls-43" d="M388.33,169.39a5.34,5.34,0,0,1-1.86.37c-1.93,0-3.18-1.12-3.18-2.84a2.88,2.88,0,0,1,3.11-2.87,5.57,5.57,0,0,1,1.85.36v1.29a3.16,3.16,0,0,0-1.41-.37,1.6,1.6,0,1,0-.06,3.2,4.12,4.12,0,0,0,1.55-.38Z"/>
          </g>
          <path class="cls-45" d="M299.21,176.9l.06,0h-.73L297,175.42V177h-.53V173.7H297v1.41l1.31-1.41h.64l-1.42,1.54,1.71,1.66"/>
          <path class="cls-45" d="M302.64,175.71v-2h.53v1.92c0,.36,0,.49.18.63h0a.9.9,0,0,0,.66.26h0a1,1,0,0,0,.73-.25h0a.91.91,0,0,0,.19-.67h0V173.7h.52v2A1.27,1.27,0,0,1,304,177h0a1.26,1.26,0,0,1-1.36-1.29Z"/>
          <path class="cls-45" d="M322.41,177h-.49v-2.78h-1.11v-.47h2.74v.47h-1.11V177Z"/>
          <path class="cls-45" d="M327.6,177h-.49V173.7h.52V177Z"/>
          <path class="cls-45" d="M334.46,177H334L332,174.55V177h-.49V173.7h.42l2.1,2.41V173.7h.5V177Z"/>
          <path class="cls-45" d="M338.82,177h-.5V173.7h.53V177Z"/>
          <path class="cls-45" d="M347.92,177h-.49v-2.78h-1.11v-.47h2.73v.47H348V177Z"/>
          <path class="cls-45" d="M352.55,175.71v-2h.52v1.92a.78.78,0,0,0,.18.63h0a.94.94,0,0,0,.67.26h0a1,1,0,0,0,.73-.25h0a.91.91,0,0,0,.19-.67h0V173.7h.52v2a1.28,1.28,0,0,1-1.45,1.33h0a1.26,1.26,0,0,1-1.36-1.29Z"/>
          <path class="cls-45" d="M362.38,177h-.11l-1-2.56-1,2.56h-.14l-1.31-3.28h.52l.86,2.14.87-2.14h.47l.87,2.14.85-2.14h.53L362.41,177v0Zm0,0h0"/>
          <path class="cls-45" d="M369.93,177h-.49v-1.39h-1.72V177h-.53V173.7h.53v1.39h1.72V173.7H370V177Z"/>
          <path class="cls-45" d="M373.8,177V173.7h1.88v.47h-1.36v.9h1.31v.48h-1.31v.93h1.4V177Z"/>
          <path class="cls-45" d="M380.18,173.7c.66,0,1.08.35,1.08.92h0a.82.82,0,0,1-.5.79h0a2.94,2.94,0,0,1,.68.86h0a6.55,6.55,0,0,0,.43.63h0l0,0h-.63l-.43-.67c-.43-.65-.6-.71-.82-.71h-.16V177h-.53V173.7h.84m-.05,1.39c.47,0,.59-.23.6-.47h0s0,0,0,0h0c0-.28-.16-.44-.6-.45h-.26v.94Z"/>
          <path class="cls-45" d="M310.06,173.7c.66,0,1.08.35,1.08.92h0a.82.82,0,0,1-.5.79h0a2.92,2.92,0,0,1,.67.86h0c.14.22.22.33.44.63h0l0,0h-.62l-.43-.67c-.43-.65-.6-.71-.82-.71h-.16V177h-.53V173.7h.84m-.05,1.39c.47,0,.59-.23.59-.47h0v0h0c0-.28-.15-.44-.59-.45h-.26v.94Z"/>
          <path class="cls-45" d="M318.07,176.91l-1.43-3.23h-.37l-1.4,3.27h.54l.4-.94h1.32l.43.94h.53ZM316,175.54l.43-1,.46,1Z"/>
          <path class="cls-45" d="M388.19,176.91l-1.44-3.23h-.36L385,177h.54l.4-.94h1.32l.42.94h.54Zm-2.06-1.37.43-1,.47,1Z"/>
        </g>
      </g>
      <g>
        <rect class="cls-34" x="46.73" y="195.3" width="23.76" height="117.75"/>
        <rect class="cls-44" x="2.63" y="136.16" width="111.94" height="64.42"/>
        <rect class="cls-35" x="5.93" y="138.98" width="105.43" height="58.96"/>
        <g>
          <g>
            <path class="cls-43" d="M17.92,169.76a4.2,4.2,0,1,1,0-8.34,4.19,4.19,0,1,1,0,8.34Zm0-6.65a2.48,2.48,0,1,0,0,5,2.48,2.48,0,1,0,0-5Z"/>
            <path class="cls-43" d="M24.93,164.63a2.35,2.35,0,0,1,1.57-.58,2.87,2.87,0,0,1-.15,5.71,2.87,2.87,0,0,1-1.42-.38v3H23.2v-8.23h1.73Zm0,3.62a1.6,1.6,0,0,0,1,.35c.85,0,1.37-.64,1.37-1.67s-.48-1.65-1.3-1.65a1.61,1.61,0,0,0-1.07.44Z"/>
            <path class="cls-43" d="M35.42,169a4,4,0,0,1-2.46.73c-1.93,0-3.18-1.12-3.18-2.84a2.87,2.87,0,1,1,5.73.26H31.57a1.6,1.6,0,0,0,1.81,1.55,3.24,3.24,0,0,0,2-.78ZM34,166.28a1.19,1.19,0,0,0-1.2-1.2,1.16,1.16,0,0,0-1.19,1.2Z"/>
            <path class="cls-43" d="M38,164.94a2.21,2.21,0,0,1,1.79-.89,1.92,1.92,0,0,1,2,2.11v3.49H40.05V166.3c0-.77-.37-1.09-.86-1.09s-.75.22-1.2.9v3.54H36.26v-5.49H38Z"/>
            <path class="cls-43" d="M49.68,161.52a2.45,2.45,0,1,1,0,4.87H48.08v3.26h-2v-8.13Zm-1.6,3.38h1c.93,0,1.26-.34,1.26-.94s-.39-1-1.49-1h-.72Z"/>
            <path class="cls-43" d="M55.41,169.76a2.86,2.86,0,1,1,3.09-2.85A2.86,2.86,0,0,1,55.41,169.76Zm0-4.68c-.75,0-1.26.58-1.26,1.82,0,1.42.61,1.83,1.26,1.83.82,0,1.24-.66,1.24-1.87S56.29,165.08,55.41,165.08Z"/>
            <path class="cls-43" d="M61.05,169.65H59.32v-8.13h1.73Z"/>
            <path class="cls-43" d="M63.94,172.29H62.1l1.61-3.53-2.14-4.6h1.84L64.57,167l1.24-2.82h1.81Z"/>
            <path class="cls-43" d="M72.4,165.34h-2v2.26a.79.79,0,0,0,.84.88,2.37,2.37,0,0,0,1.16-.32v1.25a3.93,3.93,0,0,1-1.6.35,1.9,1.9,0,0,1-2.13-2.06v-2.36h-.79V165l2.3-2.57h.22v1.73h2Z"/>
            <path class="cls-43" d="M78.53,169a4,4,0,0,1-2.46.73c-1.93,0-3.18-1.12-3.18-2.84a2.87,2.87,0,1,1,5.73.26H74.68a1.6,1.6,0,0,0,1.81,1.55,3.24,3.24,0,0,0,2-.78Zm-1.43-2.75a1.18,1.18,0,0,0-1.2-1.2,1.17,1.17,0,0,0-1.19,1.2Z"/>
            <path class="cls-43" d="M84.41,169.39a5.34,5.34,0,0,1-1.86.37c-1.93,0-3.18-1.12-3.18-2.84a2.88,2.88,0,0,1,3.11-2.87,5.57,5.57,0,0,1,1.85.36v1.29a3.16,3.16,0,0,0-1.41-.37,1.6,1.6,0,1,0-.06,3.2,4.12,4.12,0,0,0,1.55-.38Z"/>
            <path class="cls-43" d="M87.19,165h0a2.16,2.16,0,0,1,1.74-.92,1.93,1.93,0,0,1,2,2.1v3.5H89.24v-3.13c0-.82-.36-1.21-.89-1.21s-.75.25-1.16.84v3.5H85.46v-8.13h1.73Z"/>
            <path class="cls-43" d="M93.51,164.94a2.21,2.21,0,0,1,1.79-.89,1.93,1.93,0,0,1,2,2.11v3.49H95.57V166.3c0-.77-.37-1.09-.86-1.09s-.75.22-1.2.9v3.54H91.78v-5.49h1.73Z"/>
            <path class="cls-43" d="M100,162.37a1,1,0,1,1-1-1A1,1,0,0,1,100,162.37Zm-.09,7.28H98.16v-5.49h1.72Z"/>
            <path class="cls-43" d="M105.54,169.39a5.33,5.33,0,0,1-1.85.37c-1.94,0-3.19-1.12-3.19-2.84a2.88,2.88,0,0,1,3.11-2.87,5.57,5.57,0,0,1,1.85.36v1.29a3.16,3.16,0,0,0-1.41-.37,1.6,1.6,0,1,0,0,3.2,4.12,4.12,0,0,0,1.54-.38Z"/>
          </g>
          <path class="cls-45" d="M16.42,176.9l.06,0h-.73l-1.57-1.53V177h-.52V173.7h.52v1.41l1.31-1.41h.64l-1.42,1.54,1.71,1.66"/>
          <path class="cls-45" d="M19.85,175.71v-2h.53v1.92c0,.36,0,.49.18.63h0a.93.93,0,0,0,.66.26h0a1,1,0,0,0,.73-.25h0a.87.87,0,0,0,.19-.67h0V173.7h.53v2A1.28,1.28,0,0,1,21.22,177h0a1.27,1.27,0,0,1-1.37-1.29Z"/>
          <path class="cls-45" d="M39.62,177h-.49v-2.78H38v-.47h2.73v.47H39.65V177Z"/>
          <path class="cls-45" d="M44.81,177h-.49V173.7h.53V177Z"/>
          <path class="cls-45" d="M51.67,177h-.42l-2.08-2.39V177h-.49V173.7h.42l2.11,2.41V173.7h.49V177Z"/>
          <path class="cls-45" d="M56,177h-.49V173.7h.52V177Z"/>
          <path class="cls-45" d="M65.13,177h-.49v-2.78H63.53v-.47h2.74v.47H65.16V177Z"/>
          <path class="cls-45" d="M69.76,175.71v-2h.52v1.92c0,.36,0,.49.19.63h0a.9.9,0,0,0,.66.26h0a1,1,0,0,0,.73-.25h0a.91.91,0,0,0,.19-.67h0V173.7h.52v2A1.27,1.27,0,0,1,71.12,177h0a1.26,1.26,0,0,1-1.36-1.29Z"/>
          <path class="cls-45" d="M79.59,177h-.11l-1-2.56-1,2.56h-.13L76,173.7h.53l.85,2.14.87-2.14h.48l.86,2.14.85-2.14h.53L79.62,177v0Zm0,0h0"/>
          <path class="cls-45" d="M87.15,177h-.5v-1.39H84.93V177h-.52V173.7h.52v1.39h1.72V173.7h.53V177Z"/>
          <path class="cls-45" d="M91,177V173.7h1.88v.47H91.54v.9h1.3v.48h-1.3v.93h1.39V177Z"/>
          <path class="cls-45" d="M97.39,173.7c.66,0,1.08.35,1.08.92h0a.81.81,0,0,1-.5.79h0a2.78,2.78,0,0,1,.68.86h0a6.55,6.55,0,0,0,.43.63h0l0,0h-.63l-.43-.67c-.42-.65-.6-.71-.82-.71h-.16V177h-.52V173.7h.83m0,1.39c.48,0,.59-.23.6-.47h0v0h0c0-.28-.16-.44-.6-.45h-.26v.94Z"/>
          <path class="cls-45" d="M27.27,173.7c.66,0,1.08.35,1.08.92h0a.82.82,0,0,1-.5.79h0a2.94,2.94,0,0,1,.68.86h0a6.55,6.55,0,0,0,.43.63h0l0,0h-.63l-.43-.67c-.43-.65-.6-.71-.82-.71H27V177h-.53V173.7h.84m-.05,1.39c.47,0,.59-.23.6-.47h0s0,0,0,0h0c0-.28-.16-.44-.6-.45H27v.94Z"/>
          <path class="cls-45" d="M35.29,176.91l-1.44-3.23h-.37L32.08,177h.54L33,176h1.31l.43.94h.54Zm-2.06-1.37.43-1,.47,1Z"/>
          <path class="cls-45" d="M105.4,176.91,104,173.68h-.36L102.2,177h.54l.4-.94h1.32l.42.94h.54Zm-2.05-1.37.43-1,.46,1Z"/>
        </g>
      </g>
      <g>
        <g>
          <g>
            <path class="cls-46" d="M316.08,134.46a51.3,51.3,0,0,1-14.69,21.47l-.21,0a22.25,22.25,0,0,1,2.63,3h1.07c17.95-.21,24.49-11.68,24.49-11.68C327.52,136.6,316.08,134.46,316.08,134.46Z"/>
            <path class="cls-46" d="M289.07,163.63c-8.43.85-19-.37-29.18-3.73-19.91-6.58-41.6-21.15-66.65-43.21A2.61,2.61,0,0,1,193,113c1-1.07,2.59.33,3.66,1.28,58.9,51.89,90.39,48.86,103.92,42.44,1.29-.62,2.84-1.57,3.46-.28a2.6,2.6,0,0,1-1.23,3.46A41.69,41.69,0,0,1,289.07,163.63Z"/>
            <path class="cls-47" d="M324.76,143a18.12,18.12,0,0,0-7.56-5.88,53.16,53.16,0,0,1-12.11,17.62,21.82,21.82,0,0,0,8.61-2.43,31.44,31.44,0,0,0,5.5-3.51A26.68,26.68,0,0,0,324.76,143Z"/>
            <path class="cls-46" d="M307.54,157.77a4.47,4.47,0,1,1-4.21-4.67A4.45,4.45,0,0,1,307.54,157.77Z"/>
            <path class="cls-47" d="M304.47,155.21a2.94,2.94,0,0,0-.81-.41,3.13,3.13,0,0,0-.44-.1,2.86,2.86,0,0,0-2.89,4.26A4.76,4.76,0,0,0,304.47,155.21Z"/>
          </g>
          <g>
            <path class="cls-48" d="M230.67,130.26s-49.83-19.59-50-20.88,5.41-16.54,5.41-16.54a5.14,5.14,0,0,1,4.75-.69l102.11,36.19c1.16.41,3.09,1.37,3.21,3.13.16,2.57-2.46,4.21-3.54,4.92Z"/>
            <path class="cls-49" d="M189.13,96.68c1.32-1.62-.16-5.78-3.06-3.84L98.38,156.46c-1,.72-2.48,1.93-2.19,3.91.5,3.31,3.55,3.35,4.79,3.72l6.28,1.22c25.3-14.65,50.63-28.68,75.12-45.09C187.53,117,187.8,98.3,189.13,96.68Z"/>
            <path class="cls-50" d="M203.52,196.78,101,164.09a1.84,1.84,0,0,1-.52-3.23l86.87-63A4,4,0,0,1,191,97.3l101.16,35.85a1.83,1.83,0,0,1,.42,3.24Z"/>
            <ellipse class="cls-48" cx="196.47" cy="148.01" rx="55.02" ry="23.96" transform="translate(-19.15 29.63) rotate(-8.23)"/>
            <polygon class="cls-48" points="142.01 155.88 150.68 189.91 255.91 174.7 250.92 140.14 142.01 155.88"/>
            <path class="cls-51" d="M206.61,159c-8.92-5.35-16.22-22.32-17.26-34.13-28.23,4.92-47.72,17.42-45.91,30l4.61,34.91.13.5a12.59,12.59,0,0,0,1,1.32C153,167.86,188.19,162,206.61,159Z"/>
            <path class="cls-49" d="M145.21,152.14c-.6-4.14,2.16-9.18,5.91-12.26-6.43,5-9.89,10.59-9.1,16l5,34.56.36-.05a16.56,16.56,0,0,1,2.63-5.22Z"/>
            <path class="cls-52" d="M204.56,204c-14.58,2.11-28.47,1.59-39.1-1.47-9.63-2.76-15.57-7.28-16.31-12.38s3.69-11.11,12.14-16.49c9.33-5.94,22.5-10.38,37.08-12.48s28.46-1.59,39.09,1.47c9.63,2.77,15.58,7.28,16.31,12.38s-3.68,11.11-12.13,16.49C232.31,197.44,219.14,201.88,204.56,204Z"/>
            <path class="cls-53" d="M253.77,175c-.73-5.1-6.68-9.61-16.31-12.38A66.14,66.14,0,0,0,227,160.56a31.75,31.75,0,0,1-14.32,5.4c0,.12,0,.24.07.36,6.08,22,2.38,29.2-6.81,33.69-7.23,3.53-33.32,7.73-54-4.63,2.75,2.89,7.39,5.37,13.53,7.13,10.63,3.06,24.52,3.58,39.1,1.47s27.75-6.54,37.08-12.48C250.09,186.12,254.51,180.11,253.77,175Z"/>
            <path class="cls-54" d="M165.57,171.16a108,108,0,0,0,34.27.17,108,108,0,0,0,32.81-9.86c-9.85-2-21.81-2.12-34.28-.31S174.46,166.47,165.57,171.16Z"/>
            <path class="cls-49" d="M198,158.86c-30.07,4.34-52.91,18.48-51,31.58s27.81,20.19,57.88,15.85,52.92-18.49,51-31.59S228.11,154.51,198,158.86ZM240.43,191c-9.07,5.68-21.86,9.94-36,12s-27.62,1.58-37.93-1.3c-9.34-2.62-15.1-6.91-15.8-11.77s3.61-10.6,11.82-15.75c9.07-5.69,21.86-9.95,36-12s27.63-1.58,37.94,1.31c9.33,2.61,15.09,6.9,15.79,11.76S248.64,185.83,240.43,191Z"/>
          </g>
        </g>
        <path class="cls-55" d="M256.58,96.59a7.21,7.21,0,1,1,7.2-7.2A7.21,7.21,0,0,1,256.58,96.59Zm0-10.17a3,3,0,1,0,3,3A3,3,0,0,0,256.58,86.42Z"/>
        <path class="cls-56" d="M119.53,205.44a7.85,7.85,0,1,1,5.55-13.4h0a7.85,7.85,0,0,1-5.55,13.4Zm0-11.12a3.28,3.28,0,1,0,2.31,1h0A3.23,3.23,0,0,0,119.53,194.32Z"/>
        <path class="cls-57" d="M191.86,229.1a4,4,0,1,1-4-4A4,4,0,0,1,191.86,229.1Z"/>
        <circle class="cls-56" cx="155.94" cy="85.37" r="4.71" transform="translate(-21.75 90.84) rotate(-30.46)"/>
        <path class="cls-56" d="M166.73,71.93a2.9,2.9,0,1,1-2.36-3.35A2.89,2.89,0,0,1,166.73,71.93Z"/>
        <circle class="cls-55" cx="281.88" cy="101.47" r="2.9"/>
        <circle class="cls-55" cx="124.51" cy="46.42" r="2.9"/>
        <path class="cls-55" d="M95.63,135.62a3.77,3.77,0,1,1-3.77-3.77A3.76,3.76,0,0,1,95.63,135.62Z"/>
        <path class="cls-55" d="M237.34,210.85l.72,3.34a1.54,1.54,0,0,0,1.05,1.14l3.25,1a2.13,2.13,0,0,1,.46,3.88l-2.95,1.74a1.52,1.52,0,0,0-.76,1.34l.06,3.39a2.13,2.13,0,0,1-3.54,1.63L233.08,226a1.54,1.54,0,0,0-1.51-.3l-3.23,1.09a2.13,2.13,0,0,1-2.63-2.88l1.37-3.09a1.53,1.53,0,0,0-.18-1.53l-2.05-2.75a2.13,2.13,0,0,1,1.93-3.39l3.37.35a1.51,1.51,0,0,0,1.41-.64l1.95-2.8A2.13,2.13,0,0,1,237.34,210.85Z"/>
        <path class="cls-57" d="M133.27,111.56l-2.9.3a1.31,1.31,0,0,0-1.06.79l-1.12,2.66a1.82,1.82,0,0,1-3.33,0l-1.2-2.67a1.31,1.31,0,0,0-1.08-.76l-2.87-.25a1.82,1.82,0,0,1-1.06-3.15l2.15-2a1.32,1.32,0,0,0,.39-1.25l-.64-2.84a1.82,1.82,0,0,1,2.68-2l2.5,1.44a1.3,1.3,0,0,0,1.32,0l2.51-1.49a1.82,1.82,0,0,1,2.7,2l-.61,2.82a1.29,1.29,0,0,0,.42,1.25l2.2,1.91A1.82,1.82,0,0,1,133.27,111.56Z"/>
        <path class="cls-57" d="M133.33,232.71a7.92,7.92,0,0,1,5.86-2c2.67.11,2.35-1.71,2.63-3.65a6.63,6.63,0,0,1,2.76-4.67c3.47-2.66,9.32-2.48,9.32-2.48l.09,5.58a20.91,20.91,0,0,0-5.5.67c-1,.48-1.06,1.2-1.09,2.11a7.92,7.92,0,0,1-2.59,6.19c-2.46,2.22-4.88,1.93-6.43,1.95-1.92,0-2.26.94-2.49,2.59a12.49,12.49,0,0,1-1.16,4.22l-5.11-1.73a7.2,7.2,0,0,0,.55-2.27A9.51,9.51,0,0,1,133.33,232.71Z"/>
        <path class="cls-56" d="M281.68,187.43a7,7,0,0,1,3.74,4.74c.77,2.67,2.34,1.45,4.23.75a5.68,5.68,0,0,1,5.21.38c3.59,2.07,5.32,7.88,5.32,7.88l-5.12,2.87a20,20,0,0,0-2.41-5.05c-.78-.76-1.45-.43-2.3,0a7.13,7.13,0,0,1-6.56.54c-2.85-1.29-3.37-3.81-3.89-5.31-.65-1.87-1.61-1.74-3.2-1.14a12.1,12.1,0,0,1-4.29,1l-.06-5.86a6.93,6.93,0,0,0,2.28-.59A8.34,8.34,0,0,1,281.68,187.43Z"/>
        <path class="cls-57" d="M227,50.49a6.55,6.55,0,0,1-4.21-3.75c-1.14-2.34-2.39-1-4,0a5.27,5.27,0,0,1-4.86.5c-3.64-1.33-6.17-6.41-6.17-6.41L212,37.34a18.86,18.86,0,0,0,3,4.27c.84.57,1.41.16,2.12-.36a6.67,6.67,0,0,1,6-1.56c2.83.73,3.72,3,4.44,4.26.9,1.62,1.76,1.35,3.13.54a11.17,11.17,0,0,1,3.79-1.58l1,5.4a6.2,6.2,0,0,0-2,.91A7.85,7.85,0,0,1,227,50.49Z"/>
      </g>
      <path class="cls-58" d="M390.39,275.15V275c-.09-1.57-1.27-2.51-2.88-3.12a28.48,28.48,0,0,0-5.4-1.21l-.21,0h0l-.72-.79a22.29,22.29,0,0,0,3.48-1.63c-1.12-2-1.22-5.7-1.12-8.83a4.46,4.46,0,0,0,.08-1.82c.07-1.33.15-2.42.15-3,0-4.29-4-7.78-8.27-7.78h0c-4.32,0-8.28,3.49-8.28,7.78,0,2.09.45,12.38-.88,13.67a22.91,22.91,0,0,0,3.52,1.61l-.73.81h0l-.24.06a28.76,28.76,0,0,0-5.41,1.21,5.89,5.89,0,0,0-1.63.88c-.94-7.75-4.05-15.57-11-15.57h0c-6.41,0-9.45,6.45-10.6,13.46-1.2-1.67-4.22-2.41-6.88-2.88l-1.24-.8,0,.08-1.76-1.32a7.5,7.5,0,0,1-.38-1.94,6.18,6.18,0,0,1,0-.73,11,11,0,0,0,1.31-1.56,9.87,9.87,0,0,0,1-2.42l.15,0c1.8-.68,2.11-4.45,1.49-4.67a.84.84,0,0,0-.27,0,10.43,10.43,0,0,0,.2-1.78c0-.1,0-.22,0-.36s0-.22,0-.33c0-3.57-.6-5.8-2.62-6.94-1.57-.88-4.15-1.15-6.74-1.06-3.68.13-3.52,2.14-3.52,2.14-2.46-.19-2.63,3.4-2.63,5.77,0,.12,0,.23,0,.35s0,.49,0,.73a11.21,11.21,0,0,0,.21,1.48.63.63,0,0,0-.3,0c-.62.22-.31,4,1.49,4.67l.15,0a9.87,9.87,0,0,0,1,2.42,10.43,10.43,0,0,0,1.31,1.56c0,.24,0,.48,0,.74a8,8,0,0,1-.39,1.93L319.89,267l0-.07-1.42.91a19.31,19.31,0,0,0-4.89,1.38c-2.14-6.09-6-11.06-12.26-11.06-5.53,0-9.21,4.35-11.46,9.88a4.33,4.33,0,0,0-.41-.3h0s-.91-.89-6.41-1.68h0a2.34,2.34,0,0,1-.38-.09l-.11,0-.24-.1-.11-.06-.21-.13-.09-.06a2.75,2.75,0,0,1-.26-.22h0a1.55,1.55,0,0,1-.24-.27l-.06-.08a1.64,1.64,0,0,1-.14-.22.36.36,0,0,1-.07-.1l-.12-.23,0-.09c-.06-.12-.1-.23-.15-.35a7.74,7.74,0,0,1-.39-2,6.23,6.23,0,0,1,0-.74,10.5,10.5,0,0,0,1.31-1.55,9.5,9.5,0,0,0,1-2.42l.15,0c1.81-.68,2.12-4.46,1.5-4.67a.6.6,0,0,0-.29,0,11.45,11.45,0,0,0,.21-1.48,8.84,8.84,0,0,0,0-.89c0-.06,0-.13,0-.2a7.77,7.77,0,0,0-15.53,0c0,.15,0,.29,0,.44s0,.24,0,.34a10.54,10.54,0,0,0,.2,1.79.56.56,0,0,0-.28,0c-.62.21-.31,4,1.5,4.67l.14,0a9.51,9.51,0,0,0,1,2.42,10.43,10.43,0,0,0,1.31,1.56c0,.24,0,.48,0,.73a7.34,7.34,0,0,1-.4,2,3.45,3.45,0,0,1-.14.34,1,1,0,0,1,0,.1,1.71,1.71,0,0,1-.13.23l-.06.11-.14.21-.06.09a3,3,0,0,1-.24.26h0a2.75,2.75,0,0,1-.26.22l-.09.06-.21.13-.12.06-.23.1-.11,0a2.46,2.46,0,0,1-.39.09c-5.5.8-6.41,1.69-6.41,1.69h0a3.19,3.19,0,0,0-1.82,2.62c-.06,1.15-.08,3.19-.09,5.31a5.6,5.6,0,0,0-2.41,4.4v3.83l-.1,0a2.71,2.71,0,0,1-.41-.09l-.11,0-.25-.1-.12-.07-.21-.11-.12-.08-.18-.15-.1-.09-.17-.17-.08-.09a2,2,0,0,1-.17-.23.18.18,0,0,1-.05-.07,4,4,0,0,1-.37-.68,8.13,8.13,0,0,1-.57-2.5c0-.28,0-.55,0-.81a11.05,11.05,0,0,0,1.45-1.72,10.25,10.25,0,0,0,1.09-2.69l.16,0c2-.75,2.34-4.95,1.66-5.19a.91.91,0,0,0-.32,0c0-.13.05-.25.07-.38a22.08,22.08,0,0,0,.52-4.39c0-3.81-2.39-6-5.75-6.83a8,8,0,0,0-4.9-1.86l1.69,1.5c-1.67-.06-2.84-1.46-5.36-.79l1.92,1.23c-.53,0-3-.75-4.62.3l1.81.81a6.81,6.81,0,0,0-2.72,5.64c.09,1,.22,2.19.39,3.24a14,14,0,0,0,.2,1.53.85.85,0,0,0-.31,0c-.68.24-.35,4.44,1.66,5.19l.16,0A10.59,10.59,0,0,0,246,276.9a12.15,12.15,0,0,0,1.45,1.73,7.57,7.57,0,0,1,0,.81,8.06,8.06,0,0,1-.56,2.49,4.92,4.92,0,0,1-.37.68l0,.07c-.05.08-.11.15-.17.23l-.08.08a1.49,1.49,0,0,1-.17.18l-.1.09-.19.15-.11.08-.21.11-.12.07-.24.09v-3.67a5.59,5.59,0,0,0-2.39-4.39c0-.77,0-1.51,0-2.16s0-1-.05-1.38c-.16-2.87-4-3.62-7.37-4.17a16.78,16.78,0,0,1-2.37-1.37c2.25-.37,3.88-.91,4-1.23,2.22-4.92,1.13-21.34-9.12-21.34-11.05,0-11,15.94-9.13,21.34.12.34,1.77.85,4.06,1.21a18.1,18.1,0,0,1-2.41,1.39c-3.36.55-7.21,1.31-7.36,4.17,0,.39,0,.86-.05,1.38s0,.81,0,1.26c0,.12,0,.24,0,.36a5.91,5.91,0,0,0-3.17,4.93v4.27l-.45-.11c1.51-8.13,0-27.08-10.87-27.08-8.45,0-11,11.2-11.17,20.13a7,7,0,0,0-2.31-2.15,1,1,0,0,1,0-.17c-.08-1.57-1.27-2.51-2.87-3.12a28.76,28.76,0,0,0-5.41-1.21l-.2,0h0l-.73-.79a22.29,22.29,0,0,0,3.48-1.63c-1.12-2-1.22-5.7-1.12-8.83a4.46,4.46,0,0,0,.08-1.82c.08-1.33.16-2.42.16-3,0-4.29-4-7.78-8.28-7.78s-8.28,3.49-8.28,7.78c0,2.09.46,12.38-.88,13.67a22.77,22.77,0,0,0,3.53,1.61l-.74.81h0l-.24.06a28.76,28.76,0,0,0-5.41,1.21,6,6,0,0,0-1.63.88c-.93-7.75-4.05-15.57-11-15.57-6.4,0-9.44,6.45-10.6,13.46-1.2-1.67-4.22-2.41-6.87-2.88l-1.24-.8,0,.08-1.76-1.32a7.94,7.94,0,0,1-.38-1.94c0-.25,0-.5,0-.73a11,11,0,0,0,1.31-1.56,9.5,9.5,0,0,0,1-2.42l.15,0c1.8-.68,2.11-4.45,1.49-4.67a.84.84,0,0,0-.27,0,10.49,10.49,0,0,0,.21-1.78c0-.1,0-.22,0-.36s0-.22,0-.33c0-3.57-.61-5.8-2.63-6.94-1.56-.88-4.14-1.15-6.74-1.06-3.68.13-3.52,2.14-3.52,2.14-2.45-.19-2.63,3.4-2.63,5.77,0,.12,0,.23,0,.35a5.93,5.93,0,0,0,0,.73,9.72,9.72,0,0,0,.2,1.48.66.66,0,0,0-.3,0c-.62.22-.31,4,1.5,4.67l.14,0a9.51,9.51,0,0,0,1,2.42,10.43,10.43,0,0,0,1.31,1.56c0,.24,0,.48,0,.74a8,8,0,0,1-.39,1.93L114.32,267l0-.07-1.42.91a19.31,19.31,0,0,0-4.89,1.38c-2.14-6.09-6-11.06-12.26-11.06-5.53,0-9.21,4.35-11.46,9.88a4.33,4.33,0,0,0-.41-.3h0s-.91-.89-6.41-1.68h0a2.46,2.46,0,0,1-.39-.09l-.11,0-.24-.1-.11-.06-.21-.13-.09-.06a2.75,2.75,0,0,1-.26-.22h0a2.1,2.1,0,0,1-.24-.27l-.06-.08a1.64,1.64,0,0,1-.14-.22l-.06-.1a1.71,1.71,0,0,1-.13-.23l0-.09c0-.12-.1-.23-.14-.35a7.34,7.34,0,0,1-.4-2c0-.25,0-.5,0-.74a10.5,10.5,0,0,0,1.31-1.55,9.51,9.51,0,0,0,1-2.42l.14,0c1.81-.68,2.12-4.46,1.5-4.67a.59.59,0,0,0-.29,0,11.45,11.45,0,0,0,.21-1.48,8.81,8.81,0,0,0,0-.89V250a7.75,7.75,0,0,0-7.76-7.73h0A7.75,7.75,0,0,0,63.1,250c0,.15,0,.29,0,.44s0,.24,0,.34a9.66,9.66,0,0,0,.21,1.79.59.59,0,0,0-.29,0c-.62.21-.31,4,1.5,4.67l.15,0a9.5,9.5,0,0,0,1,2.42A10.43,10.43,0,0,0,67,261.32a6.06,6.06,0,0,1,0,.73,7.74,7.74,0,0,1-.39,2c0,.12-.09.23-.14.34l0,.1-.12.23-.07.11L66,265l-.06.09a2.85,2.85,0,0,1-.23.26h0a2.75,2.75,0,0,1-.26.22l-.09.06-.21.13-.11.06-.24.1-.11,0a2.34,2.34,0,0,1-.38.09c-5.51.8-6.42,1.69-6.42,1.69h0a3.15,3.15,0,0,0-1.82,2.62c-.06,1.15-.09,3.19-.1,5.31a5.6,5.6,0,0,0-2.41,4.4v3.83l-.1,0a2.59,2.59,0,0,1-.4-.09l-.12,0-.25-.1-.12-.07-.21-.11-.11-.08-.19-.15-.1-.09-.17-.17-.08-.09c-.06-.07-.11-.15-.17-.23l0-.07a4,4,0,0,1-.37-.68,8.12,8.12,0,0,1-.56-2.5,7.57,7.57,0,0,1,0-.81A11.67,11.67,0,0,0,52,276.9a10.59,10.59,0,0,0,1.08-2.69l.16,0c2-.75,2.34-4.95,1.66-5.19a.91.91,0,0,0-.32,0c0-.13.05-.25.07-.38a21.36,21.36,0,0,0,.52-4.39c0-3.81-2.38-6-5.75-6.83a8,8,0,0,0-4.9-1.86l1.69,1.5c-1.67-.06-2.84-1.46-5.36-.79l1.92,1.23c-.53,0-3.05-.75-4.62.3l1.82.81a6.75,6.75,0,0,0-2.72,5.64c.08,1,.22,2.19.38,3.24a11.94,11.94,0,0,0,.21,1.53.88.88,0,0,0-.32,0c-.68.24-.34,4.44,1.66,5.19l.16,0a10.59,10.59,0,0,0,1.08,2.69,12.42,12.42,0,0,0,1.46,1.73c0,.26,0,.53-.05.81a8.06,8.06,0,0,1-.56,2.49,4,4,0,0,1-.37.68.18.18,0,0,1,0,.07c0,.08-.11.15-.17.23l-.08.08a1,1,0,0,1-.17.18l-.1.09-.19.15-.11.08-.21.11-.12.07-.24.09v-3.67A5.59,5.59,0,0,0,37,275.7c0-.77,0-1.51,0-2.16s0-1,0-1.38c-.15-2.87-4-3.62-7.37-4.17a17.39,17.39,0,0,1-2.37-1.37c2.25-.37,3.89-.91,4-1.23,2.23-4.92,1.13-21.34-9.12-21.34-11,0-11,15.94-9.13,21.34.12.34,1.77.85,4.06,1.21A18.1,18.1,0,0,1,14.65,268c-3.36.55-7.2,1.31-7.35,4.17,0,.39,0,.86,0,1.38s0,.81,0,1.26v.36A5.88,5.88,0,0,0,4,280.09v16.84H393.59V280.09A5.9,5.9,0,0,0,390.39,275.15Z"/>
    </g>
  </g>
  <g id="platform">
    <path class="cls-19" d="M400,296.23q-98.67-9.8-200-9.89T0,296.23V331H400Z"/>
  </g>
</svg>
