<svg xmlns="http://www.w3.org/2000/svg" xmlns:xlink="http://www.w3.org/1999/xlink" width="400" height="331" viewBox="0 0 400 331">
  <defs>
    <style>
      .cls-1, .cls-25, .cls-26, .cls-28 {
        fill: none;
      }

      .cls-2 {
        isolation: isolate;
      }

      .cls-3 {
        fill: #9ea5b5;
      }

      .cls-4 {
        fill: #12110b;
      }

      .cls-5 {
        fill: #ecedf0;
      }

      .cls-6 {
        fill: #f1f6fc;
      }

      .cls-7 {
        fill: #2e2d33;
      }

      .cls-8 {
        fill: #cecfd9;
      }

      .cls-9 {
        fill: #13120d;
      }

      .cls-10 {
        fill: #464551;
      }

      .cls-11 {
        fill: #9ea1ab;
      }

      .cls-12 {
        fill: #eff1f6;
      }

      .cls-13 {
        fill: #cbcfda;
      }

      .cls-14, .cls-36 {
        fill: #fff;
      }

      .cls-15 {
        fill: #414b5b;
      }

      .cls-16 {
        fill: #f5d010;
      }

      .cls-17 {
        fill: #ea5e65;
      }

      .cls-18 {
        fill: #5bc4bf;
      }

      .cls-19 {
        fill: #edeae6;
      }

      .cls-20 {
        fill: #dddbd9;
      }

      .cls-21 {
        fill: #061b40;
      }

      .cls-22 {
        clip-path: url(#clip-path);
      }

      .cls-23 {
        fill: #f6de93;
      }

      .cls-24 {
        fill: #eb4d4b;
      }

      .cls-25 {
        stroke: #e49a70;
        stroke-linecap: round;
      }

      .cls-25, .cls-26 {
        stroke-linejoin: round;
        stroke-width: 4.93px;
      }

      .cls-26 {
        stroke: #9e3433;
        stroke-linecap: square;
      }

      .cls-27 {
        clip-path: url(#clip-path-2);
      }

      .cls-28 {
        stroke: #4c1919;
        stroke-miterlimit: 10;
        stroke-width: 1.49px;
      }

      .cls-29 {
        fill: #e49a70;
      }

      .cls-30 {
        fill: #5faa97;
      }

      .cls-31 {
        fill: #3f220f;
      }

      .cls-32, .cls-34 {
        opacity: 0.1;
      }

      .cls-33 {
        fill: #74c8bf;
      }

      .cls-35 {
        fill: #ee7e84;
      }

      .cls-36 {
        opacity: 0.2;
      }

      .cls-37 {
        mix-blend-mode: screen;
      }
    </style>
    <clipPath id="clip-path">
      <circle id="Mask" class="cls-1" cx="294.9" cy="158.26" r="71.91"/>
    </clipPath>
    <clipPath id="clip-path-2">
      <path class="cls-1" d="M331,284c-.16,18,8,37.22,8,37.22H250.35a115.6,115.6,0,0,0,6.51-37.05c0-20.53-5.48-37-6.16-46.82-.48-6.88.39-27.56.39-27.56a28.2,28.2,0,0,1,27.33-21.27h33a28.2,28.2,0,0,1,27.34,21.27s1.35,20.67.89,27.55C339.64,237.38,331.11,269.32,331,284Z"/>
    </clipPath>
  </defs>
  <title>img-9</title>
  <g class="cls-2">
    <g id="platform">
      <path class="cls-3" d="M400,296.23q-98.67-9.8-200-9.89T0,296.23V331H400Z"/>
      <g>
        <g>
          <path class="cls-4" d="M311.23,276a7.13,7.13,0,0,1-6.92,7.33H107.42A7.13,7.13,0,0,1,100.5,276V141.4a7.13,7.13,0,0,1,6.92-7.33H304.31a7.13,7.13,0,0,1,6.92,7.33Z"/>
          <rect class="cls-5" x="108.95" y="142.51" width="194.52" height="122.59"/>
          <rect class="cls-5" x="108.95" y="200.07" width="194.52" height="65.03"/>
          <path class="cls-6" d="M100.5,270.76,78.41,290.42s-.48,3.66.14,5.07,1.35,2.36,4.39,2.7,248.22,0,248.22,0a19.78,19.78,0,0,0,3.31-2.23,4.36,4.36,0,0,0,1.41-3.51v-1.69l-24.65-20.6Z"/>
          <path class="cls-7" d="M80.92,298.19a19.66,19.66,0,0,0,7.76,2.7H326.77s4-1.48,5.37-2.76S80.92,298.19,80.92,298.19Z"/>
          <path class="cls-8" d="M78.41,290.42s-.65,3.21.14,5.07a5.84,5.84,0,0,0,2.62,2.85l251-.21a10.53,10.53,0,0,0,2.7-2.23c1.44-1.45,1-5.14,1-5.14Z"/>
          <polygon class="cls-9" points="125.16 273.54 118.63 279.95 129.83 279.95 131.19 278.9 131.71 278.92 130.81 279.95 142.24 279.95 142.88 279.22 143.32 279.22 143.05 279.95 153.89 279.95 154.54 279.31 155.05 279.27 154.59 279.95 169.84 279.95 170.79 279.14 171.43 279.1 170.68 279.95 229.06 279.95 228.11 278.9 228.59 278.9 229.73 279.95 244.87 279.95 244.19 279.12 244.62 279.06 245.59 279.95 256.86 279.95 256.25 279.11 256.77 279.08 257.51 279.95 268.68 279.95 268.22 279.13 268.72 279.11 269.36 279.95 280.84 279.95 280.33 279.03 280.8 279.03 281.43 279.95 293 279.95 287.25 273.54 264.63 273.38 263.95 273.99 263.33 273.38 253.03 273.38 252.58 274.1 251.85 273.38 241.5 273.38 240.88 273.93 240.09 273.38 230.29 273.38 229.73 274.21 229.23 273.38 218.36 273.38 217.63 274.33 217.18 273.38 207.2 273.54 206.21 274.38 205.19 273.54 195.4 273.54 194.55 274.21 193.71 273.54 185.01 273.38 184.17 274.3 183.24 273.38 171.93 273.38 171.17 274.21 170.41 273.38 160.62 273.54 159.6 274.33 158.93 273.54 148.29 273.38 147.16 274.17 146.35 273.38 135.79 273.38 134.78 274.21 134.27 273.38 125.16 273.54"/>
          <path class="cls-10" d="M322.15,293.58a.78.78,0,0,1-.79.78h-7a.78.78,0,0,1-.78-.78h0a.78.78,0,0,1,.78-.79h7a.79.79,0,0,1,.79.79Z"/>
          <path class="cls-11" d="M223.77,290.76a1.14,1.14,0,0,1-1.13,1.13H190a1.13,1.13,0,0,1-1.13-1.13h0a1.12,1.12,0,0,1,1.13-1.12h32.64a1.13,1.13,0,0,1,1.13,1.12Z"/>
          <path class="cls-12" d="M222.64,292.73a.85.85,0,0,1-.84.85H192a.85.85,0,0,1-.85-.85h0c0-.46-.09-.84.38-.84h30.76c.47,0,.38.38.38.84Z"/>
          <path class="cls-13" d="M173,280s-4.2,6.53-3.52,7.66,2.59,1,2.59,1l67,0s2.53.18,3.29-1.36c.93-1.87-3.37-7.28-3.37-7.28Z"/>
        </g>
        <g>
          <path class="cls-14" d="M127.75,159.39H282.57A10.47,10.47,0,0,1,293,169.86v93.59a0,0,0,0,1,0,0H117.28a0,0,0,0,1,0,0V169.86A10.47,10.47,0,0,1,127.75,159.39Z"/>
          <path class="cls-15" d="M127.75,159.39H282.57A10.47,10.47,0,0,1,293,169.86v6.24a0,0,0,0,1,0,0H117.28a0,0,0,0,1,0,0v-6.24A10.47,10.47,0,0,1,127.75,159.39Z"/>
          <path class="cls-16" d="M280.66,168.59a3.18,3.18,0,1,1,3.17,3.17A3.17,3.17,0,0,1,280.66,168.59Z"/>
          <path class="cls-17" d="M271.14,168.59a3.18,3.18,0,1,1,3.18,3.17A3.17,3.17,0,0,1,271.14,168.59Z"/>
          <path class="cls-18" d="M261.63,168.59a3.17,3.17,0,1,1,3.17,3.17A3.17,3.17,0,0,1,261.63,168.59Z"/>
          <rect class="cls-19" x="123.31" y="182.27" width="163.7" height="9.16"/>
          <rect class="cls-19" x="123.31" y="197.14" width="50.44" height="66.3"/>
          <rect class="cls-19" x="183.27" y="197.14" width="103.74" height="3.81"/>
          <rect class="cls-19" x="183.27" y="209.64" width="103.74" height="3.81"/>
          <rect class="cls-19" x="183.27" y="222.13" width="103.74" height="3.81"/>
          <rect class="cls-19" x="183.27" y="234.63" width="103.74" height="3.81"/>
          <rect class="cls-19" x="183.27" y="247.12" width="103.74" height="3.81"/>
          <rect class="cls-19" x="183.27" y="259.62" width="103.74" height="3.81"/>
          <circle class="cls-20" cx="148.53" cy="220.94" r="10.95"/>
        </g>
        <g>
          <circle class="cls-1" cx="294.9" cy="158.26" r="71.91"/>
          <g id="Outer_ring" data-name="Outer ring">
            <circle class="cls-14" cx="294.9" cy="158.26" r="76.87" transform="matrix(0.29, -0.96, 0.96, 0.29, 57.97, 394.64)"/>
            <path class="cls-21" d="M294.9,86.35A71.91,71.91,0,1,1,223,158.26,71.9,71.9,0,0,1,294.9,86.35m0-9.91a81.82,81.82,0,1,0,81.82,81.82A81.91,81.91,0,0,0,294.9,76.44Z"/>
          </g>
          <g class="cls-22">
            <g>
              <path class="cls-23" d="M294.25,99.48h0a42.68,42.68,0,0,1,42.68,42.68v62.1a0,0,0,0,1,0,0H251.57a0,0,0,0,1,0,0v-62.1a42.68,42.68,0,0,1,42.68-42.68Z"/>
              <path class="cls-24" d="M289.16,392.37c.75-23.28,6.26-71.11,6.26-71.11H250.35c-6.26,24.54-1,55.09,1,72.87,2,17.48,12,107.91,12,107.91h20S288.41,415.66,289.16,392.37Z"/>
              <path class="cls-24" d="M300.17,392.37c-.76-23.28-6.25-71.11-6.25-71.11H339c6.26,24.54,1,55.09-1,72.87C336,411.61,324,502,324,502h-18S300.92,415.66,300.17,392.37Z"/>
              <rect class="cls-24" x="250.35" y="321.26" width="88.14" height="31.55"/>
              <path class="cls-25" d="M264.17,203.58s-22.29,19.78-28.8,66.86c-3.38,24.43,2.51,91.64,2.51,91.64"/>
              <path class="cls-26" d="M264.17,203.58s-22.29,19.78-28.8,66.86c-2.24,16.23-.4,51.34,1.09,73.08"/>
              <path class="cls-25" d="M325.63,203.58s22.29,19.78,28.8,66.86c3.38,24.43-2.51,91.64-2.51,91.64"/>
              <path class="cls-26" d="M325.63,203.58s22.29,19.78,28.8,66.86c2.24,16.23.4,51.34-1.09,73.08"/>
              <path class="cls-21" d="M331,284c-.16,18,8,37.22,8,37.22H250.35a115.6,115.6,0,0,0,6.51-37.05c0-20.53-5.48-37-6.16-46.82-.48-6.88.39-27.56.39-27.56a28.2,28.2,0,0,1,27.33-21.27h33a28.2,28.2,0,0,1,27.34,21.27s1.35,20.67.89,27.55C339.64,237.38,331.11,269.32,331,284Z"/>
              <g class="cls-27">
                <path id="neck" class="cls-28" d="M296.5,202.87h0a2.61,2.61,0,0,1-3.16,0h0a21,21,0,0,1-8.19-16.62V166h19.53v20.22A21,21,0,0,1,296.5,202.87Z"/>
              </g>
              <g id="neck-2" data-name="neck">
                <path id="neck-3" data-name="neck" class="cls-29" d="M296.7,202.82h0a2.82,2.82,0,0,1-3.44,0h0a22.77,22.77,0,0,1-8.9-18.06v-22h21.23v22A22.79,22.79,0,0,1,296.7,202.82Z"/>
              </g>
              <g id="Head">
                <g id="Head-2" data-name="Head">
                  <circle id="Head-3" data-name="Head" class="cls-29" cx="294.25" cy="142.09" r="42.62"/>
                  <circle class="cls-29" cx="251.22" cy="142.77" r="6.92"/>
                  <circle class="cls-29" cx="337.27" cy="142.77" r="6.92"/>
                </g>
                <g id="earrings">
                  <circle class="cls-30" cx="249.99" cy="149.61" r="1.81"/>
                  <circle class="cls-30" cx="338.51" cy="149.61" r="1.81"/>
                </g>
                <g id="Face">
                  <g id="Mouth">
                    <path class="cls-31" d="M296.43,169.62c-.72,0-1.49,0-2.29-.12a1.09,1.09,0,0,1-1-1.18,1.1,1.1,0,0,1,1.19-1c7.77.75,11-2.85,11-2.89a1.09,1.09,0,0,1,1.53-.11,1.1,1.1,0,0,1,.11,1.54C306.86,166,303.68,169.62,296.43,169.62Z"/>
                  </g>
                  <g id="Eyes_v2" data-name="Eyes v2">
                    <circle class="cls-31" cx="308.5" cy="146.57" r="3.12"/>
                    <circle class="cls-31" cx="279.99" cy="146.57" r="3.12"/>
                  </g>
                </g>
              </g>
              <path id="Head-4" data-name="Head" class="cls-23" d="M336.86,142.09h-.17c-24.38.05-32.58-21.17-32.58-21.17h0c-2.07,4.45-6.65,8.35-11.77,11.55a64.35,64.35,0,0,1-34.19,9.64l-6.52,0c-.06-24.32,19.08-42.61,42.62-42.61A42.5,42.5,0,0,1,336.86,142.09Z"/>
              <path class="cls-30" d="M252.08,136.07s14.64-29.68,42.17-29,42.16,29,42.16,29-14.35-15.6-42.16-15.9C268.74,119.92,252.08,136.07,252.08,136.07Z"/>
            </g>
          </g>
        </g>
        <g>
          <path class="cls-17" d="M341.91,225.86H270.65a6.06,6.06,0,0,0-6.06,6.06v31.23l5.77-5.76h71.55a6.06,6.06,0,0,0,6.06-6.06V231.92A6.06,6.06,0,0,0,341.91,225.86Z"/>
          <g>
            <path class="cls-14" d="M293.44,244.15v-4.87a7.16,7.16,0,0,0-14.31,0v4.87l-2.28,3.17h18.87Z"/>
            <path class="cls-14" d="M286.29,251.13a2.5,2.5,0,0,0,2.5-2.5h-5A2.5,2.5,0,0,0,286.29,251.13Z"/>
          </g>
          <g>
            <rect class="cls-14" x="303.07" y="232.13" width="33.97" height="3.15"/>
            <rect class="cls-14" x="303.07" y="239.72" width="33.97" height="3.15"/>
            <rect class="cls-14" x="303.07" y="247.32" width="22.31" height="3.15"/>
          </g>
        </g>
        <g>
          <g class="cls-32">
            <circle cx="66.61" cy="87.29" r="23.98"/>
            <circle cx="90.21" cy="62.93" r="24.64"/>
            <circle cx="169.98" cy="53.54" r="32.97"/>
            <circle cx="100.37" cy="108.54" r="36.89"/>
            <circle cx="142.07" cy="111.66" r="36.89"/>
            <circle cx="198.64" cy="90.05" r="51.74"/>
            <circle cx="127.48" cy="51.2" r="36.89"/>
          </g>
          <g>
            <circle class="cls-33" cx="57.16" cy="77.83" r="23.98"/>
            <circle class="cls-33" cx="80.76" cy="53.48" r="24.64"/>
            <circle class="cls-33" cx="196.16" cy="149.96" r="12.87"/>
            <circle class="cls-33" cx="223.09" cy="162.81" r="7.8"/>
            <circle class="cls-33" cx="162.45" cy="38.4" r="34.9"/>
            <circle class="cls-33" cx="90.92" cy="99.08" r="36.89"/>
            <circle class="cls-33" cx="132.62" cy="102.21" r="36.89"/>
            <circle class="cls-33" cx="188.64" cy="80.05" r="51.74"/>
            <circle class="cls-33" cx="118.03" cy="41.75" r="36.89"/>
          </g>
          <g>
            <path d="M88,50.87a7.79,7.79,0,0,1-.66,3.31,5,5,0,0,1-1.92,2.2,5.2,5.2,0,0,1-2.85.77,5.34,5.34,0,0,1-2.84-.76,5.13,5.13,0,0,1-1.93-2.18,7.41,7.41,0,0,1-.69-3.27v-.63A7.62,7.62,0,0,1,77.76,47a5.07,5.07,0,0,1,1.92-2.21,5.71,5.71,0,0,1,5.69,0A5.07,5.07,0,0,1,87.29,47,7.58,7.58,0,0,1,88,50.3Zm-2.67-.58a5.4,5.4,0,0,0-.72-3.06,2.55,2.55,0,0,0-4.1,0,5.29,5.29,0,0,0-.73,3v.62a5.44,5.44,0,0,0,.72,3A2.34,2.34,0,0,0,82.54,55a2.3,2.3,0,0,0,2-1,5.33,5.33,0,0,0,.72-3Z"/>
            <path d="M92.53,52.47V57H89.89V44.18h5a5.82,5.82,0,0,1,2.54.53,3.84,3.84,0,0,1,1.68,1.5,4.17,4.17,0,0,1,.59,2.21,3.66,3.66,0,0,1-1.29,3,5.32,5.32,0,0,1-3.56,1.09Zm0-2.14h2.35a2.32,2.32,0,0,0,1.6-.49,1.81,1.81,0,0,0,.55-1.4,2.09,2.09,0,0,0-.56-1.52,2.05,2.05,0,0,0-1.53-.6H92.53Z"/>
            <path d="M109.27,53.16l-.91.92V57h-2.54V43.48h2.54V51l.49-.63,2.43-2.86h3l-3.43,4L114.63,57h-2.92Z"/>
            <path d="M117.77,47.47l.08,1.1a3.32,3.32,0,0,1,2.73-1.28,2.76,2.76,0,0,1,2.25.89,4.14,4.14,0,0,1,.76,2.65V57h-2.54V50.9a1.7,1.7,0,0,0-.35-1.18,1.61,1.61,0,0,0-1.17-.36,1.74,1.74,0,0,0-1.61.91V57h-2.54V47.47Z"/>
            <path d="M125.12,52.14a5.7,5.7,0,0,1,.54-2.53,4.06,4.06,0,0,1,1.57-1.71,4.63,4.63,0,0,1,2.38-.61,4.35,4.35,0,0,1,3.14,1.18,4.77,4.77,0,0,1,1.36,3.2l0,.65a4.94,4.94,0,0,1-1.23,3.51,4.23,4.23,0,0,1-3.27,1.32,4.3,4.3,0,0,1-3.29-1.31,5.1,5.1,0,0,1-1.22-3.59Zm2.54.18a3.55,3.55,0,0,0,.51,2.07,1.67,1.67,0,0,0,1.46.72,1.7,1.7,0,0,0,1.44-.71,3.94,3.94,0,0,0,.52-2.27,3.58,3.58,0,0,0-.52-2.06,1.68,1.68,0,0,0-1.46-.73,1.65,1.65,0,0,0-1.44.73A3.94,3.94,0,0,0,127.66,52.32Z"/>
            <path d="M144,53.52l1.25-6.05h2.45L145.24,57h-2.13l-1.8-6-1.81,6h-2.11L135,47.47h2.45l1.24,6.05,1.74-6.05h1.84Z"/>
            <path d="M154.07,54.35a.81.81,0,0,0-.46-.73,5.19,5.19,0,0,0-1.48-.48q-3.4-.72-3.4-2.89a2.62,2.62,0,0,1,1.05-2.11,4.28,4.28,0,0,1,2.75-.85,4.57,4.57,0,0,1,2.9.86,2.67,2.67,0,0,1,1.08,2.21H154a1.25,1.25,0,0,0-.35-.9,1.47,1.47,0,0,0-1.1-.36,1.52,1.52,0,0,0-1,.29.91.91,0,0,0-.35.74.77.77,0,0,0,.4.68,3.72,3.72,0,0,0,1.35.45,11.63,11.63,0,0,1,1.6.43,2.62,2.62,0,0,1,2,2.56,2.48,2.48,0,0,1-1.12,2.1,4.77,4.77,0,0,1-2.88.8,5,5,0,0,1-2.12-.42A3.65,3.65,0,0,1,149,55.56a2.74,2.74,0,0,1-.53-1.6h2.41a1.33,1.33,0,0,0,.5,1,2,2,0,0,0,1.25.36,1.84,1.84,0,0,0,1.1-.27A.88.88,0,0,0,154.07,54.35Z"/>
            <path d="M167,57.15a4.63,4.63,0,0,1-3.4-1.28,4.53,4.53,0,0,1-1.32-3.42v-.24a5.78,5.78,0,0,1,.56-2.57,4.08,4.08,0,0,1,1.57-1.74,4.42,4.42,0,0,1,2.31-.61,3.93,3.93,0,0,1,3.07,1.23A5,5,0,0,1,170.94,52v1h-6.05a2.34,2.34,0,0,0,.74,1.49,2.23,2.23,0,0,0,1.57.57A2.73,2.73,0,0,0,169.49,54l1.25,1.4a3.8,3.8,0,0,1-1.55,1.26A5.09,5.09,0,0,1,167,57.15Zm-.29-7.81a1.58,1.58,0,0,0-1.22.51,2.62,2.62,0,0,0-.61,1.47h3.54v-.2A1.92,1.92,0,0,0,168,49.8,1.67,1.67,0,0,0,166.74,49.34Z"/>
            <path d="M175.83,53.88l1.77-6.41h2.65L177,57h-2.42l-3.21-9.51h2.65Z"/>
            <path d="M185.63,57.15a4.67,4.67,0,0,1-3.41-1.28,4.57,4.57,0,0,1-1.31-3.42v-.24a5.77,5.77,0,0,1,.55-2.57A4.15,4.15,0,0,1,183,47.9a4.49,4.49,0,0,1,2.32-.61,4,4,0,0,1,3.07,1.23A5,5,0,0,1,189.54,52v1h-6a2.29,2.29,0,0,0,.74,1.49,2.21,2.21,0,0,0,1.57.57A2.73,2.73,0,0,0,188.09,54l1.25,1.4a3.8,3.8,0,0,1-1.55,1.26A5.09,5.09,0,0,1,185.63,57.15Zm-.29-7.81a1.61,1.61,0,0,0-1.23.51,2.69,2.69,0,0,0-.6,1.47H187v-.2a1.91,1.91,0,0,0-.45-1.32A1.68,1.68,0,0,0,185.34,49.34Z"/>
            <path d="M196.33,49.85a6.46,6.46,0,0,0-.92-.07,1.87,1.87,0,0,0-1.89,1V57H191V47.47h2.4l.07,1.13a2.36,2.36,0,0,1,2.12-1.31,2.52,2.52,0,0,1,.79.12Z"/>
            <path d="M201.26,53.38,203,47.47h2.73l-3.82,11-.21.5a2.91,2.91,0,0,1-2.82,1.86,4,4,0,0,1-1.12-.17V58.73h.38a2.18,2.18,0,0,0,1.08-.22,1.48,1.48,0,0,0,.56-.73l.3-.79-3.33-9.53h2.73Z"/>
            <path d="M71.1,79.5a.81.81,0,0,0-.46-.73,5.19,5.19,0,0,0-1.48-.48c-2.26-.48-3.4-1.44-3.4-2.88a2.6,2.6,0,0,1,1.06-2.12,4.23,4.23,0,0,1,2.74-.85,4.57,4.57,0,0,1,2.9.86,2.67,2.67,0,0,1,1.08,2.21H71a1.21,1.21,0,0,0-.35-.9,1.47,1.47,0,0,0-1.1-.36,1.52,1.52,0,0,0-1,.29.94.94,0,0,0-.35.74.77.77,0,0,0,.4.68,3.72,3.72,0,0,0,1.35.45,11.63,11.63,0,0,1,1.6.43,2.62,2.62,0,0,1,2,2.56,2.48,2.48,0,0,1-1.12,2.1,4.77,4.77,0,0,1-2.88.8,5.08,5.08,0,0,1-2.12-.42A3.65,3.65,0,0,1,66,80.71a2.73,2.73,0,0,1-.52-1.6h2.4a1.31,1.31,0,0,0,.51,1,2,2,0,0,0,1.24.36,1.89,1.89,0,0,0,1.11-.27A.9.9,0,0,0,71.1,79.5Z"/>
            <path d="M78.25,70.28v2.34h1.62v1.86H78.25v4.75a1.09,1.09,0,0,0,.2.75,1,1,0,0,0,.77.23,4.22,4.22,0,0,0,.75-.06v1.93a5.31,5.31,0,0,1-1.54.22,2.41,2.41,0,0,1-2.72-2.69V74.48H74.32V72.62h1.39V70.28Z"/>
            <path d="M86.8,82.13a2.66,2.66,0,0,1-.26-.85,3.07,3.07,0,0,1-2.4,1,3.35,3.35,0,0,1-2.31-.8,2.58,2.58,0,0,1-.92-2A2.68,2.68,0,0,1,82,77.14a5.57,5.57,0,0,1,3.24-.82h1.17v-.55a1.58,1.58,0,0,0-.34-1,1.35,1.35,0,0,0-1.07-.4,1.56,1.56,0,0,0-1,.31,1.07,1.07,0,0,0-.36.85H81.12A2.54,2.54,0,0,1,81.63,74a3.4,3.4,0,0,1,1.44-1.11,5.37,5.37,0,0,1,2.09-.4,4.15,4.15,0,0,1,2.79.89,3.08,3.08,0,0,1,1,2.48v4.12a4.57,4.57,0,0,0,.37,2v.15Zm-2.1-1.77a2.12,2.12,0,0,0,1-.25,1.71,1.71,0,0,0,.71-.67V77.8h-1c-1.27,0-1.95.44-2,1.32v.15a1,1,0,0,0,.33.78A1.28,1.28,0,0,0,84.7,80.36Z"/>
            <path d="M90.57,77.3a5.52,5.52,0,0,1,1-3.52,3.37,3.37,0,0,1,2.81-1.34,3,3,0,0,1,2.43,1.08l.11-.9h2.3v9.19A4,4,0,0,1,98.69,84a3.63,3.63,0,0,1-1.59,1.41,5.66,5.66,0,0,1-2.41.48,5.35,5.35,0,0,1-2-.41,3.64,3.64,0,0,1-1.5-1.08l1.12-1.55a3,3,0,0,0,2.31,1.07,2.15,2.15,0,0,0,1.57-.55,2,2,0,0,0,.56-1.53v-.51a3,3,0,0,1-2.31,1A3.34,3.34,0,0,1,91.63,81a5.52,5.52,0,0,1-1.06-3.55Zm2.54.19a3.43,3.43,0,0,0,.52,2,1.64,1.64,0,0,0,1.42.74,1.76,1.76,0,0,0,1.66-.87v-4a1.76,1.76,0,0,0-1.64-.87,1.66,1.66,0,0,0-1.44.75A3.89,3.89,0,0,0,93.11,77.49Z"/>
            <path d="M105.59,82.3A4.66,4.66,0,0,1,102.18,81a4.57,4.57,0,0,1-1.31-3.42v-.24a5.77,5.77,0,0,1,.55-2.57A4.08,4.08,0,0,1,103,73.05a4.49,4.49,0,0,1,2.32-.61,4,4,0,0,1,3.07,1.23,5,5,0,0,1,1.12,3.49v1h-6.06a2.35,2.35,0,0,0,.75,1.49,2.21,2.21,0,0,0,1.56.57,2.75,2.75,0,0,0,2.3-1.07l1.25,1.4a3.8,3.8,0,0,1-1.55,1.26A5.09,5.09,0,0,1,105.59,82.3Zm-.29-7.81a1.58,1.58,0,0,0-1.23.51,2.69,2.69,0,0,0-.6,1.47H107v-.2a1.91,1.91,0,0,0-.45-1.32A1.68,1.68,0,0,0,105.3,74.49Z"/>
            <path d="M120.93,82.13a3,3,0,0,1-.25-.85,3.1,3.1,0,0,1-2.4,1,3.39,3.39,0,0,1-2.32-.8,2.61,2.61,0,0,1-.92-2,2.69,2.69,0,0,1,1.13-2.32,5.51,5.51,0,0,1,3.23-.82h1.17v-.55a1.53,1.53,0,0,0-.34-1,1.33,1.33,0,0,0-1.06-.4,1.54,1.54,0,0,0-1,.31,1.07,1.07,0,0,0-.36.85h-2.54a2.54,2.54,0,0,1,.51-1.53,3.4,3.4,0,0,1,1.44-1.11,5.37,5.37,0,0,1,2.09-.4,4.15,4.15,0,0,1,2.79.89,3.07,3.07,0,0,1,1,2.48v4.12a4.55,4.55,0,0,0,.38,2v.15Zm-2.1-1.77a2.16,2.16,0,0,0,1-.25,1.62,1.62,0,0,0,.7-.67V77.8h-.95c-1.27,0-1.94.44-2,1.32v.15a1,1,0,0,0,.34.78A1.27,1.27,0,0,0,118.83,80.36Z"/>
            <path d="M127.41,72.62l.08,1.1a3.32,3.32,0,0,1,2.73-1.28,2.76,2.76,0,0,1,2.25.89,4.1,4.1,0,0,1,.76,2.66v6.14h-2.54V76.05a1.7,1.7,0,0,0-.35-1.18,1.61,1.61,0,0,0-1.17-.36,1.74,1.74,0,0,0-1.61.91v6.71H125V72.62Z"/>
            <path d="M134.76,77.3a5.7,5.7,0,0,1,1-3.54,3.22,3.22,0,0,1,2.73-1.32,2.91,2.91,0,0,1,2.29,1V68.63h2.55v13.5H141l-.12-1a3,3,0,0,1-2.44,1.18,3.24,3.24,0,0,1-2.7-1.32A6,6,0,0,1,134.76,77.3Zm2.54.19a3.75,3.75,0,0,0,.46,2.05,1.54,1.54,0,0,0,1.36.72,1.69,1.69,0,0,0,1.66-1V75.5a1.67,1.67,0,0,0-1.64-1C137.91,74.51,137.3,75.5,137.3,77.49Z"/>
            <path d="M153.73,80.26a1.69,1.69,0,0,0,1.15-.39,1.36,1.36,0,0,0,.45-1h2.39a3.31,3.31,0,0,1-.53,1.77,3.52,3.52,0,0,1-1.42,1.25,4.4,4.4,0,0,1-2,.44A4.15,4.15,0,0,1,150.56,81a5.17,5.17,0,0,1-1.18-3.58v-.17a5.08,5.08,0,0,1,1.17-3.51,4.1,4.1,0,0,1,3.21-1.31,4,4,0,0,1,2.86,1,3.63,3.63,0,0,1,1.1,2.7h-2.39a1.72,1.72,0,0,0-.45-1.2,1.69,1.69,0,0,0-2.5.18,3.67,3.67,0,0,0-.46,2.1v.26a3.76,3.76,0,0,0,.45,2.11A1.55,1.55,0,0,0,153.73,80.26Z"/>
            <path d="M164.68,82.13a2.66,2.66,0,0,1-.26-.85,3.07,3.07,0,0,1-2.4,1,3.35,3.35,0,0,1-2.31-.8,2.58,2.58,0,0,1-.92-2,2.68,2.68,0,0,1,1.12-2.32,5.57,5.57,0,0,1,3.24-.82h1.17v-.55a1.58,1.58,0,0,0-.34-1,1.35,1.35,0,0,0-1.07-.4,1.56,1.56,0,0,0-1,.31,1.07,1.07,0,0,0-.36.85H159a2.54,2.54,0,0,1,.51-1.53A3.4,3.4,0,0,1,161,72.84a5.37,5.37,0,0,1,2.09-.4,4.15,4.15,0,0,1,2.79.89,3.08,3.08,0,0,1,1,2.48v4.12a4.57,4.57,0,0,0,.37,2v.15Zm-2.1-1.77a2.12,2.12,0,0,0,1-.25,1.71,1.71,0,0,0,.71-.67V77.8h-.95c-1.27,0-2,.44-2,1.32v.15a1,1,0,0,0,.33.78A1.28,1.28,0,0,0,162.58,80.36Z"/>
            <path d="M171.15,72.62l.08,1.1A3.33,3.33,0,0,1,174,72.44a2.79,2.79,0,0,1,2.25.89A4.15,4.15,0,0,1,177,76v6.14h-2.54V76.05a1.65,1.65,0,0,0-.35-1.18,1.58,1.58,0,0,0-1.17-.36,1.75,1.75,0,0,0-1.61.91v6.71h-2.54V72.62Z"/>
            <path d="M185.86,73.66a3.17,3.17,0,0,1,2.54-1.22q3.09,0,3.14,3.6v6.09H189v-6a1.73,1.73,0,0,0-.36-1.21,1.49,1.49,0,0,0-1.16-.39,1.73,1.73,0,0,0-1.62.86v6.76h-2.54V68.63h2.54Z"/>
            <path d="M197.83,82.3A4.66,4.66,0,0,1,194.42,81a4.57,4.57,0,0,1-1.31-3.42v-.24a5.77,5.77,0,0,1,.55-2.57,4.08,4.08,0,0,1,1.57-1.74,4.49,4.49,0,0,1,2.32-.61,4,4,0,0,1,3.07,1.23,5,5,0,0,1,1.12,3.49v1h-6.06a2.35,2.35,0,0,0,.75,1.49,2.21,2.21,0,0,0,1.57.57,2.75,2.75,0,0,0,2.29-1.07l1.25,1.4A3.8,3.8,0,0,1,200,81.85,5.09,5.09,0,0,1,197.83,82.3Zm-.29-7.81a1.61,1.61,0,0,0-1.23.51,2.69,2.69,0,0,0-.6,1.47h3.53v-.2a1.91,1.91,0,0,0-.45-1.32A1.68,1.68,0,0,0,197.54,74.49Z"/>
            <path d="M205.86,82.13h-2.55V68.63h2.55Z"/>
            <path d="M216.51,77.46a5.72,5.72,0,0,1-1,3.52,3.22,3.22,0,0,1-2.7,1.32,3,3,0,0,1-2.33-1v4.49H208V72.62h2.36l.09.93a3,3,0,0,1,2.41-1.11,3.23,3.23,0,0,1,2.73,1.3,5.89,5.89,0,0,1,1,3.59ZM214,77.28a3.68,3.68,0,0,0-.47-2,1.51,1.51,0,0,0-1.36-.72,1.67,1.67,0,0,0-1.65.91v3.9a1.71,1.71,0,0,0,1.67.94C213.37,80.26,214,79.26,214,77.28Z"/>
            <path d="M71.1,97.77l.07,1.06a3.38,3.38,0,0,1,2.74-1.24A2.55,2.55,0,0,1,76.43,99a3.28,3.28,0,0,1,2.86-1.45,2.83,2.83,0,0,1,2.3.9,4.2,4.2,0,0,1,.76,2.72v6.07H79.8v-6.07a1.83,1.83,0,0,0-.32-1.18,1.4,1.4,0,0,0-1.12-.37,1.59,1.59,0,0,0-1.58,1.09v6.53H74.25v-6.06a1.8,1.8,0,0,0-.32-1.19,1.41,1.41,0,0,0-1.11-.37,1.66,1.66,0,0,0-1.57.9v6.72H68.71V97.77Z"/>
            <path d="M88.67,107.46a4.64,4.64,0,0,1-3.4-1.29A4.53,4.53,0,0,1,84,102.75v-.24a5.7,5.7,0,0,1,.56-2.56,4,4,0,0,1,1.57-1.74,4.36,4.36,0,0,1,2.31-.62,3.93,3.93,0,0,1,3.07,1.23,5,5,0,0,1,1.12,3.49v1h-6a2.34,2.34,0,0,0,.74,1.49,2.23,2.23,0,0,0,1.57.57,2.73,2.73,0,0,0,2.29-1.07l1.25,1.4A3.76,3.76,0,0,1,90.84,107,5.14,5.14,0,0,1,88.67,107.46Zm-.29-7.82a1.58,1.58,0,0,0-1.22.51,2.58,2.58,0,0,0-.6,1.47h3.53v-.2a1.87,1.87,0,0,0-.46-1.31A1.64,1.64,0,0,0,88.38,99.64Z"/>
            <path d="M100.89,97.77l.08,1.06a3.35,3.35,0,0,1,2.73-1.24A2.55,2.55,0,0,1,106.23,99a3.27,3.27,0,0,1,2.85-1.45,2.83,2.83,0,0,1,2.3.9,4.14,4.14,0,0,1,.76,2.72v6.07h-2.55v-6.07a1.83,1.83,0,0,0-.31-1.18,1.42,1.42,0,0,0-1.12-.37,1.58,1.58,0,0,0-1.58,1.09v6.53h-2.54v-6.06a1.75,1.75,0,0,0-.33-1.19,1.41,1.41,0,0,0-1.11-.37,1.64,1.64,0,0,0-1.56.9v6.72H98.51V97.77Z"/>
            <path d="M113.7,102.44a5.7,5.7,0,0,1,.54-2.53,4,4,0,0,1,1.57-1.71,4.63,4.63,0,0,1,2.38-.61,4.35,4.35,0,0,1,3.14,1.18,4.77,4.77,0,0,1,1.36,3.2l0,.65a4.94,4.94,0,0,1-1.23,3.51,4.72,4.72,0,0,1-6.56,0,5.06,5.06,0,0,1-1.22-3.59Zm2.54.18a3.55,3.55,0,0,0,.51,2.07,1.67,1.67,0,0,0,1.46.72,1.7,1.7,0,0,0,1.44-.71,3.94,3.94,0,0,0,.52-2.27,3.58,3.58,0,0,0-.52-2.06,1.69,1.69,0,0,0-1.46-.73,1.65,1.65,0,0,0-1.44.73A3.94,3.94,0,0,0,116.24,102.62Z"/>
            <path d="M127.7,104.18l1.76-6.41h2.66l-3.21,9.51h-2.43l-3.2-9.51h2.65Z"/>
            <path d="M137.5,107.46a4.66,4.66,0,0,1-3.41-1.29,4.53,4.53,0,0,1-1.31-3.42v-.24a5.7,5.7,0,0,1,.55-2.56,4,4,0,0,1,1.57-1.74,4.4,4.4,0,0,1,2.32-.62,4,4,0,0,1,3.07,1.23,5,5,0,0,1,1.12,3.49v1h-6.06a2.31,2.31,0,0,0,.75,1.49,2.21,2.21,0,0,0,1.56.57,2.75,2.75,0,0,0,2.3-1.07l1.25,1.4a3.8,3.8,0,0,1-1.55,1.26A5.1,5.1,0,0,1,137.5,107.46Zm-.29-7.82a1.58,1.58,0,0,0-1.23.51,2.72,2.72,0,0,0-.6,1.47h3.53v-.2a1.87,1.87,0,0,0-.45-1.31A1.65,1.65,0,0,0,137.21,99.64Z"/>
            <path d="M148,107.28V99.63h-1.42V97.77H148V97a3.28,3.28,0,0,1,.91-2.48,3.58,3.58,0,0,1,2.58-.89,5.8,5.8,0,0,1,1.29.18l0,2a3.37,3.37,0,0,0-.77-.08c-1,0-1.43.45-1.43,1.34v.77h1.88v1.86h-1.88v7.65Z"/>
            <path d="M153.39,102.44a5.7,5.7,0,0,1,.54-2.53,4.06,4.06,0,0,1,1.57-1.71,4.63,4.63,0,0,1,2.38-.61A4.35,4.35,0,0,1,161,98.77a4.73,4.73,0,0,1,1.36,3.2l0,.65a4.94,4.94,0,0,1-1.23,3.51,4.23,4.23,0,0,1-3.27,1.33,4.29,4.29,0,0,1-3.29-1.32,5.1,5.1,0,0,1-1.22-3.59Zm2.54.18a3.55,3.55,0,0,0,.51,2.07,1.67,1.67,0,0,0,1.46.72,1.7,1.7,0,0,0,1.44-.71,3.94,3.94,0,0,0,.52-2.27,3.58,3.58,0,0,0-.52-2.06,1.68,1.68,0,0,0-1.46-.73,1.65,1.65,0,0,0-1.44.73A3.94,3.94,0,0,0,155.93,102.62Z"/>
            <path d="M169.3,100.15a6.33,6.33,0,0,0-.91-.07,1.87,1.87,0,0,0-1.89,1v6.22H164V97.77h2.4l.07,1.13a2.36,2.36,0,0,1,2.12-1.31,2.56,2.56,0,0,1,.79.12Z"/>
            <path d="M179,103.83l1.24-6.06h2.46l-2.43,9.51h-2.13l-1.8-6-1.8,6h-2.12L170,97.77h2.45l1.24,6,1.74-6h1.83Z"/>
            <path d="M189.41,107.28a3,3,0,0,1-.25-.85,3.11,3.11,0,0,1-2.4,1,3.4,3.4,0,0,1-2.32-.81,2.6,2.6,0,0,1-.91-2,2.68,2.68,0,0,1,1.12-2.32,5.51,5.51,0,0,1,3.23-.82h1.17v-.55a1.54,1.54,0,0,0-.34-1,1.33,1.33,0,0,0-1.06-.4,1.54,1.54,0,0,0-1,.31,1.07,1.07,0,0,0-.36.85h-2.54a2.56,2.56,0,0,1,.51-1.53A3.4,3.4,0,0,1,185.69,98a5.37,5.37,0,0,1,2.09-.4,4.15,4.15,0,0,1,2.79.89,3.07,3.07,0,0,1,1,2.48v4.12a4.55,4.55,0,0,0,.38,2v.15Zm-2.1-1.77a2.16,2.16,0,0,0,1-.25,1.57,1.57,0,0,0,.7-.67V103h-1c-1.27,0-1.94.43-2,1.31v.15a1,1,0,0,0,.33.79A1.31,1.31,0,0,0,187.31,105.51Z"/>
            <path d="M198.9,100.15a6.46,6.46,0,0,0-.92-.07,1.87,1.87,0,0,0-1.89,1v6.22h-2.54V97.77H196L196,98.9a2.36,2.36,0,0,1,2.12-1.31,2.52,2.52,0,0,1,.79.12Z"/>
            <path d="M199.56,102.45a5.76,5.76,0,0,1,1-3.54,3.25,3.25,0,0,1,2.73-1.32,2.94,2.94,0,0,1,2.3,1V93.78h2.55v13.5h-2.3l-.12-1a3,3,0,0,1-2.44,1.19,3.25,3.25,0,0,1-2.7-1.33A5.9,5.9,0,0,1,199.56,102.45Zm2.54.19a3.73,3.73,0,0,0,.46,2,1.51,1.51,0,0,0,1.36.72,1.7,1.7,0,0,0,1.66-1v-3.76a1.69,1.69,0,0,0-1.65-1C202.71,99.66,202.1,100.65,202.1,102.64Z"/>
            <path d="M210.23,106a1.27,1.27,0,0,1,.4-1,1.44,1.44,0,0,1,1-.38,1.41,1.41,0,0,1,1,.38,1.28,1.28,0,0,1,.41,1,1.25,1.25,0,0,1-.4,1,1.48,1.48,0,0,1-1,.38,1.45,1.45,0,0,1-1-.38A1.25,1.25,0,0,1,210.23,106Z"/>
          </g>
        </g>
        <g>
          <g>
            <rect class="cls-17" x="51.11" y="180.73" width="108.23" height="77.24"/>
            <path class="cls-34" d="M159.34,258H51.11l47.76-45.61a9,9,0,0,1,12.71,0Z"/>
            <path class="cls-35" d="M159.34,258H51.11l47.76-40.61a9.8,9.8,0,0,1,12.71,0Z"/>
            <path class="cls-34" d="M51.11,180.73H159.34l-47.76,45.6a9,9,0,0,1-12.71,0Z"/>
            <path class="cls-35" d="M51.11,180.73H159.34l-47.76,40.61a9.82,9.82,0,0,1-12.71,0Z"/>
            <path class="cls-36" d="M111.58,218.61a10.37,10.37,0,0,1-12.71,0L51.11,180.73l47.76,40.61a9.82,9.82,0,0,0,12.71,0l47.76-40.61Z"/>
            <path class="cls-34" d="M51.11,258H159.34a510,510,0,0,0-54.11-2.7A510,510,0,0,0,51.11,258Z"/>
            <g class="cls-37">
              <path class="cls-34" d="M159.34,180.73H51.11a510,510,0,0,0,54.12,2.7A510,510,0,0,0,159.34,180.73Z"/>
            </g>
          </g>
          <g>
            <path class="cls-14" d="M127.64,170.14a22.42,22.42,0,1,0-28.27,21.64l5.86,5.86,5.85-5.86A22.41,22.41,0,0,0,127.64,170.14Z"/>
            <polygon class="cls-18" points="104.38 159.56 96.36 165.11 99.45 169.59 104.38 166.18 104.38 180.73 109.83 180.73 109.83 159.56 104.38 159.56"/>
          </g>
        </g>
      </g>
    </g>
  </g>
</svg>
