<svg xmlns="http://www.w3.org/2000/svg" xmlns:xlink="http://www.w3.org/1999/xlink" width="400" height="331" viewBox="0 0 400 331">
  <defs>
    <style>
      .cls-1, .cls-19, .cls-20 {
        fill: none;
      }

      .cls-2 {
        fill: #9ea5b5;
      }

      .cls-3 {
        fill: #12110b;
      }

      .cls-4 {
        fill: #fff;
      }

      .cls-5 {
        fill: #061b40;
      }

      .cls-6 {
        fill: #ecedf0;
      }

      .cls-7 {
        fill: #f1f6fc;
      }

      .cls-8 {
        fill: #2e2d33;
      }

      .cls-9 {
        fill: #cecfd9;
      }

      .cls-10 {
        fill: #13120d;
      }

      .cls-11 {
        fill: #464551;
      }

      .cls-12 {
        fill: #9ea1ab;
      }

      .cls-13 {
        fill: #eff1f6;
      }

      .cls-14 {
        fill: #cbcfda;
      }

      .cls-15 {
        fill: #74c8bf;
      }

      .cls-16 {
        clip-path: url(#clip-path);
      }

      .cls-17 {
        fill: #c27d4e;
      }

      .cls-18 {
        fill: #30336c;
      }

      .cls-19 {
        stroke: #f7a17f;
        stroke-linecap: round;
      }

      .cls-19, .cls-20 {
        stroke-miterlimit: 10;
        stroke-width: 10.27px;
      }

      .cls-20 {
        stroke: #386bc0;
      }

      .cls-21 {
        fill: #598df7;
      }

      .cls-22 {
        fill: #386bc0;
      }

      .cls-23 {
        fill: #f2ce68;
      }

      .cls-24 {
        fill: #030304;
      }

      .cls-25 {
        opacity: 0.1;
      }

      .cls-26 {
        fill: #419794;
      }
    </style>
    <clipPath id="clip-path">
      <rect class="cls-1" x="89.36" y="164.51" width="256.78" height="85.84"/>
    </clipPath>
  </defs>
  <title>img-3</title>
  <g id="platform">
    <path class="cls-2" d="M400,296.23q-98.67-9.8-200-9.89T0,296.23V331H400Z"/>
    <g>
      <g>
        <path class="cls-3" d="M356.39,264.74a9.43,9.43,0,0,1-9.13,9.69H87.35a9.43,9.43,0,0,1-9.13-9.69V87.07a9.42,9.42,0,0,1,9.13-9.68H347.26a9.42,9.42,0,0,1,9.13,9.68Z"/>
        <rect class="cls-4" x="89.36" y="88.53" width="256.78" height="161.82"/>
        <rect class="cls-5" x="89.36" y="101.24" width="256.78" height="63.07"/>
        <rect class="cls-6" x="89.36" y="164.51" width="256.78" height="85.84"/>
        <path class="cls-7" d="M78.22,257.83l-29.16,26s-.64,4.83.18,6.68S51,293.59,55,294s327.65,0,327.65,0a26.43,26.43,0,0,0,4.38-2.94,5.74,5.74,0,0,0,1.86-4.64v-2.23L356.39,257Z"/>
        <path class="cls-8" d="M52.36,294s5.28,3.27,10.26,3.57H376.9s5.31-2,7.09-3.65C385.61,292.42,52.36,294,52.36,294Z"/>
        <path class="cls-9" d="M49.06,283.79s-.86,4.23.18,6.68a7.69,7.69,0,0,0,3.46,3.77L384,294s1-.4,3.56-2.95c1.91-1.9,1.38-6.78,1.38-6.78Z"/>
        <polygon class="cls-10" points="110.76 261.5 102.14 269.97 116.93 269.97 118.72 268.57 119.41 268.6 118.23 269.97 133.31 269.97 134.16 269 134.74 268.99 134.39 269.97 148.69 269.97 149.55 269.11 150.22 269.06 149.62 269.97 169.75 269.97 171.01 268.9 171.85 268.84 170.86 269.97 247.92 269.97 246.67 268.58 247.3 268.58 248.81 269.97 268.79 269.97 267.89 268.86 268.46 268.79 269.74 269.97 284.62 269.97 283.81 268.85 284.5 268.81 285.47 269.97 300.22 269.97 299.62 268.88 300.28 268.85 301.11 269.97 316.27 269.97 315.6 268.74 316.21 268.74 317.05 269.97 332.32 269.97 324.74 261.5 294.87 261.29 293.98 262.09 293.16 261.29 279.57 261.29 278.97 262.24 278.01 261.29 264.34 261.29 263.52 262.02 262.48 261.29 249.55 261.29 248.81 262.39 248.14 261.29 233.8 261.29 232.83 262.54 232.24 261.29 219.06 261.5 217.75 262.61 216.41 261.5 203.49 261.5 202.37 262.39 201.26 261.5 189.78 261.29 188.66 262.5 187.44 261.29 172.5 261.29 171.5 262.39 170.5 261.29 157.57 261.5 156.23 262.54 155.34 261.5 141.3 261.29 139.81 262.33 138.73 261.29 124.8 261.29 123.47 262.39 122.8 261.29 110.76 261.5"/>
        <path class="cls-11" d="M370.81,288a1,1,0,0,1-1,1h-9.22a1,1,0,0,1-1-1h0a1,1,0,0,1,1-1h9.22a1,1,0,0,1,1,1Z"/>
        <path class="cls-12" d="M240.93,284.23a1.49,1.49,0,0,1-1.48,1.49h-43.1a1.49,1.49,0,0,1-1.48-1.49h0a1.48,1.48,0,0,1,1.48-1.48h43.1a1.48,1.48,0,0,1,1.48,1.48Z"/>
        <path class="cls-13" d="M239.45,286.83a1.12,1.12,0,0,1-1.12,1.12H199a1.12,1.12,0,0,1-1.11-1.12h0c0-.61-.12-1.11.5-1.11H239c.61,0,.5.5.5,1.11Z"/>
        <path class="cls-14" d="M174,270s-5.53,8.62-4.64,10.1,3.42,1.34,3.42,1.34l88.48-.05s3.34.25,4.35-1.78c1.23-2.48-4.46-9.61-4.46-9.61Z"/>
      </g>
      <g>
        <path class="cls-4" d="M107.46,125.18c-3.6,0-5.63-2.54-5.63-5.05s1.93-5,5.63-5,5.62,2.68,5.62,5c0,2.53-2.09,5.05-5.62,5.05m0-8a3,3,0,1,0,3.1,3,2.88,2.88,0,0,0-3.1-3"/>
        <path class="cls-4" d="M115.94,119a2.8,2.8,0,0,1,1.9-.7,3.46,3.46,0,0,1-.19,6.9,3.58,3.58,0,0,1-1.71-.46v3.64h-2.09v-10h2.09Zm0,4.37a2,2,0,0,0,1.21.43c1,0,1.65-.78,1.65-2s-.57-2-1.57-2a1.93,1.93,0,0,0-1.29.53Z"/>
        <path class="cls-4" d="M128.62,124.3a4.82,4.82,0,0,1-3,.88c-2.34,0-3.85-1.36-3.85-3.43a3.47,3.47,0,1,1,6.93.32H124a1.94,1.94,0,0,0,2.19,1.87,3.94,3.94,0,0,0,2.47-1ZM126.89,121a1.44,1.44,0,0,0-1.44-1.46A1.41,1.41,0,0,0,124,121Z"/>
        <path class="cls-4" d="M131.73,119.36a2.65,2.65,0,0,1,2.16-1.08,2.32,2.32,0,0,1,2.42,2.55v4.22h-2.09v-4c0-.94-.45-1.33-1-1.33s-.9.28-1.45,1.1v4.28h-2.09v-6.64h2.09Z"/>
        <path class="cls-4" d="M145.86,115.22a3,3,0,1,1,0,5.88h-1.95v4h-2.45v-9.83Zm-1.93,4.08h1.14c1.13,0,1.53-.4,1.53-1.14s-.48-1.14-1.8-1.14h-.87Z"/>
        <path class="cls-4" d="M152.8,125.18a3.46,3.46,0,1,1,3.73-3.45,3.45,3.45,0,0,1-3.73,3.45m0-5.67c-.91,0-1.53.71-1.53,2.21,0,1.71.73,2.22,1.53,2.22,1,0,1.49-.81,1.49-2.26s-.44-2.17-1.49-2.17"/>
        <rect class="cls-4" x="157.52" y="115.22" width="2.09" height="9.83"/>
        <polygon class="cls-4" points="163.1 128.23 160.88 128.23 162.83 123.97 160.24 118.41 162.47 118.41 163.87 121.82 165.37 118.41 167.56 118.41 163.1 128.23"/>
        <path class="cls-4" d="M173.33,119.83h-2.42v2.74a1,1,0,0,0,1,1.07,2.86,2.86,0,0,0,1.39-.39v1.51a4.75,4.75,0,0,1-1.93.42,2.3,2.3,0,0,1-2.58-2.5v-2.85h-.95v-.4l2.78-3.11h.26v2.09h2.42Z"/>
        <path class="cls-4" d="M180.74,124.3a4.82,4.82,0,0,1-3,.88c-2.33,0-3.85-1.36-3.85-3.43a3.48,3.48,0,1,1,6.94.32h-4.77a1.94,1.94,0,0,0,2.19,1.87,3.94,3.94,0,0,0,2.46-1ZM179,121a1.44,1.44,0,1,0-2.88,0Z"/>
        <path class="cls-4" d="M187.86,124.73a6.56,6.56,0,0,1-2.25.45c-2.33,0-3.85-1.36-3.85-3.43a3.49,3.49,0,0,1,3.76-3.47,6.89,6.89,0,0,1,2.24.43v1.55a3.94,3.94,0,0,0-1.7-.44,1.94,1.94,0,1,0-.07,3.87,5,5,0,0,0,1.87-.46Z"/>
        <path class="cls-4" d="M191.22,119.38h0a2.56,2.56,0,0,1,2.1-1.1,2.32,2.32,0,0,1,2.43,2.53v4.24h-2.09v-3.79c0-1-.43-1.46-1.08-1.46-.49,0-.9.31-1.39,1v4.24h-2.09v-9.83h2.09Z"/>
        <path class="cls-4" d="M198.85,119.36a2.68,2.68,0,0,1,2.17-1.08,2.33,2.33,0,0,1,2.42,2.55v4.22h-2.09v-4c0-.94-.45-1.33-1-1.33s-.91.28-1.46,1.1v4.28h-2.09v-6.64h2.09Z"/>
        <path class="cls-4" d="M206.66,116.24a1.15,1.15,0,1,1-1.15-1.15,1.15,1.15,0,0,1,1.15,1.15m-.1,8.81h-2.09V118.4h2.09Z"/>
        <path class="cls-4" d="M213.41,124.73a6.56,6.56,0,0,1-2.25.45c-2.33,0-3.85-1.36-3.85-3.43a3.49,3.49,0,0,1,3.76-3.47,6.94,6.94,0,0,1,2.24.43v1.55a4,4,0,0,0-1.7-.44,1.94,1.94,0,1,0-.08,3.87,5,5,0,0,0,1.88-.46Z"/>
        <polygon class="cls-4" points="105.65 133.81 105.72 133.88 104.84 133.87 102.94 132.02 102.94 133.88 102.9 133.88 102.31 133.88 102.31 129.94 102.34 129.94 102.94 129.94 102.94 131.65 104.52 129.94 105.3 129.94 103.59 131.8 105.65 133.81"/>
        <path class="cls-4" d="M109.8,132.38v-2.44h.63v2.32c0,.43.06.6.22.76a1.08,1.08,0,0,0,.81.32,1.23,1.23,0,0,0,.88-.3,1.12,1.12,0,0,0,.23-.82v-2.28h.63v2.38a1.54,1.54,0,0,1-1.75,1.61,1.52,1.52,0,0,1-1.65-1.55"/>
        <polygon class="cls-4" points="133.7 133.88 133.11 133.88 133.11 130.51 131.77 130.51 131.77 130.47 131.77 129.94 135.08 129.94 135.08 129.98 135.08 130.47 135.08 130.51 133.74 130.51 133.74 133.88 133.7 133.88"/>
        <polygon class="cls-4" points="139.98 133.88 139.38 133.88 139.38 129.94 139.42 129.94 140.02 129.94 140.02 133.84 140.02 133.88 139.98 133.88"/>
        <polygon class="cls-4" points="148.27 133.88 147.76 133.86 145.25 130.97 145.25 133.88 145.21 133.88 144.65 133.88 144.65 129.94 144.69 129.94 145.16 129.95 147.71 132.86 147.71 129.94 147.75 129.94 148.31 129.94 148.31 133.84 148.31 133.88 148.27 133.88"/>
        <polygon class="cls-4" points="153.54 133.88 152.94 133.88 152.94 129.94 152.98 129.94 153.57 129.94 153.57 133.84 153.57 133.88 153.54 133.88"/>
        <polygon class="cls-4" points="164.54 133.88 163.95 133.88 163.95 130.51 162.61 130.51 162.61 130.47 162.61 129.94 165.92 129.94 165.92 129.98 165.92 130.47 165.92 130.51 164.58 130.51 164.58 133.88 164.54 133.88"/>
        <path class="cls-4" d="M170.14,132.38v-2.44h.63v2.32c0,.43.06.6.22.76a1.08,1.08,0,0,0,.81.32,1.21,1.21,0,0,0,.88-.3,1.13,1.13,0,0,0,.23-.82v-2.28h.63v2.38a1.54,1.54,0,0,1-1.75,1.61,1.52,1.52,0,0,1-1.65-1.55"/>
        <path class="cls-4" d="M182,133.91h-.14l-1.24-3.09-1.25,3.09h-.16l-1.59-4h.64l1,2.59,1.05-2.59H181l1.05,2.59,1-2.59h.63l-1.58,3.95,0,0Zm0,0h0"/>
        <polygon class="cls-4" points="191.16 133.88 190.57 133.88 190.57 132.19 188.48 132.19 188.48 133.88 188.44 133.88 187.85 133.88 187.85 129.94 187.89 129.94 188.48 129.94 188.48 131.62 190.57 131.62 190.57 129.94 190.61 129.94 191.2 129.94 191.2 133.84 191.2 133.88 191.16 133.88"/>
        <polygon class="cls-4" points="195.84 133.88 195.84 129.94 198.1 129.94 198.1 129.98 198.1 130.47 198.1 130.51 196.47 130.51 196.47 131.6 198.05 131.6 198.05 131.64 198.05 132.18 196.47 132.18 196.47 133.3 198.16 133.3 198.16 133.34 198.16 133.88 195.84 133.88"/>
        <path class="cls-4" d="M203.55,129.94c.8,0,1.31.43,1.31,1.12a1,1,0,0,1-.6.95,3.61,3.61,0,0,1,.81,1c.16.27.26.4.52.77l0,.06h-.76l-.52-.81c-.51-.8-.73-.87-1-.87h-.2v1.68h-.63v-3.94h1m-.06,1.69c.57,0,.72-.28.72-.58h0c0-.35-.19-.54-.72-.55h-.32v1.14Z"/>
        <path class="cls-4" d="M118.77,129.94a1.15,1.15,0,0,1,1.31,1.12,1,1,0,0,1-.61.95,3.47,3.47,0,0,1,.82,1,8.07,8.07,0,0,0,.52.77l0,.06h-.76l-.52-.81c-.51-.8-.72-.87-1-.87h-.19v1.68h-.63v-3.94h1m-.06,1.69c.57,0,.71-.28.72-.58,0,0,0,0,0,0,0-.35-.19-.54-.72-.55h-.32v1.14Z"/>
        <path class="cls-4" d="M128.46,133.82l-1.74-3.9h-.44l-1.69,4h.65l.49-1.14h1.59l.51,1.14h.65ZM126,132.16l.52-1.26.57,1.26Z"/>
        <path class="cls-4" d="M213.23,133.82l-1.73-3.9h-.44l-1.7,4H210l.49-1.14h1.59l.52,1.14h.65Zm-2.48-1.66.52-1.26.56,1.26Z"/>
      </g>
      <rect class="cls-5" x="292.78" y="92.33" width="21.02" height="4.85"/>
      <rect class="cls-5" x="318.63" y="92.33" width="21.02" height="4.85"/>
      <rect class="cls-15" x="318.63" y="116.5" width="21.02" height="4.85"/>
      <rect class="cls-15" x="318.63" y="146.42" width="21.02" height="3.01"/>
      <rect class="cls-15" x="290.19" y="146.42" width="21.02" height="3.01"/>
      <rect class="cls-15" x="261.75" y="146.42" width="21.02" height="3.01"/>
      <rect class="cls-15" x="233.31" y="146.42" width="21.02" height="3.01"/>
      <g>
        <rect class="cls-4" x="137.08" y="178.04" width="89.8" height="15.6"/>
        <rect class="cls-4" x="110.8" y="200.57" width="89.8" height="15.6"/>
        <rect class="cls-4" x="132.38" y="222.16" width="89.8" height="15.6"/>
      </g>
      <g>
        <rect class="cls-15" x="187.15" y="146.42" width="21.02" height="3.01"/>
        <rect class="cls-15" x="158.71" y="146.42" width="21.02" height="3.01"/>
        <rect class="cls-15" x="130.27" y="146.42" width="21.02" height="3.01"/>
        <rect class="cls-15" x="101.83" y="146.42" width="21.02" height="3.01"/>
      </g>
      <rect class="cls-15" x="292.31" y="116.5" width="21.02" height="4.85"/>
      <circle class="cls-5" cx="285.9" cy="94.76" r="3.06"/>
      <g class="cls-16">
        <g>
          <path class="cls-17" d="M284.14,211h10.81a0,0,0,0,1,0,0v19a5.4,5.4,0,0,1-5.4,5.4h0a5.4,5.4,0,0,1-5.4-5.4V211A0,0,0,0,1,284.14,211Z"/>
          <path class="cls-18" d="M288.4,318.36l-5.57,138.11-.21,5.21-3.83.05c-3,0-5.89.22-8.8.46-1.46.11-2.91.25-4.35.44s-2.87.41-4.28.73a2.75,2.75,0,0,1-1.3-5.34c1.39-.38,2.76-.85,4.13-1.34s2.72-1,4.06-1.61c2.7-1.12,5.38-2.3,8-3.64l-4,5.26L261,318.92a13.71,13.71,0,1,1,27.34-2.22A15.37,15.37,0,0,1,288.4,318.36Z"/>
          <path class="cls-18" d="M317.69,318.92,306.48,456.69l-4-5.26c2.64,1.34,5.33,2.52,8,3.64,1.35.57,2.7,1.12,4.06,1.61s2.74,1,4.14,1.34a2.75,2.75,0,0,1-1.31,5.34c-1.41-.32-2.84-.52-4.28-.73s-2.89-.33-4.35-.44c-2.91-.24-5.83-.43-8.79-.46l-3.83-.05-.22-5.21-5.57-138.11a13.72,13.72,0,1,1,27.41-1.1A15.28,15.28,0,0,1,317.69,318.92Z"/>
          <g>
            <g>
              <path class="cls-19" d="M305.52,236.86s29.09,18.54,23.1,99"/>
              <path class="cls-20" d="M305.52,236.86s25.16,16,23.86,83"/>
            </g>
            <g>
              <path class="cls-19" d="M273.56,236.86s-29.09,18.54-23.1,99"/>
              <path class="cls-20" d="M273.56,236.86s-25.16,16-23.86,83"/>
            </g>
          </g>
          <path id="hips" class="cls-18" d="M296.87,347.22H282.12a23.79,23.79,0,0,1-23.71-26c0-.14,0-.29,0-.43,1.07-10.82,5.93-21.8,7.4-26.14h0l.18-.25h47.2l.28.85c1.34,4.2,6.08,15,7.05,25.72,0,.14,0,.27,0,.4A23.79,23.79,0,0,1,296.87,347.22Z"/>
          <path class="cls-21" d="M259.45,314.74h60.18c-1.74-8.42-3.18-16.06-4.26-19.44l-.27-.85H315l-.27-1.07c-2.09-8-.34-33.76-.52-38.46l-.48-12.08a13.94,13.94,0,0,0-13.92-13.38H279.29a13.94,13.94,0,0,0-13.92,13.38l-.48,12.08c-.18,4.7,1.57,30.44-.52,38.46l-.3,1.17h.08l-.1.15C262.86,298.22,261.27,306.11,259.45,314.74Z"/>
          <path class="cls-17" d="M297.19,229.46h-15.3C283.66,237.71,295.42,237.71,297.19,229.46Z"/>
          <path class="cls-22" d="M258.73,318.57h61.54a68.43,68.43,0,0,0-1.66-8H260.43A68.91,68.91,0,0,0,258.73,318.57Z"/>
          <g id="Head">
            <g id="Head-2" data-name="Head">
              <circle id="Head-3" data-name="Head" class="cls-17" cx="289.69" cy="196.85" r="27.42"/>
              <circle class="cls-17" cx="262" cy="197.29" r="4.45"/>
              <circle class="cls-17" cx="317.37" cy="197.29" r="4.45"/>
            </g>
            <g id="earrings">
              <circle class="cls-23" cx="261.21" cy="201.69" r="1.16"/>
              <circle class="cls-23" cx="318.16" cy="201.69" r="1.16"/>
            </g>
            <g id="Face">
              <g id="Mouth">
                <path class="cls-24" d="M291.09,214.56c-.47,0-1,0-1.47-.07a.7.7,0,1,1,.13-1.39c5,.48,7.07-1.84,7.09-1.86a.7.7,0,1,1,1.06.92C297.8,212.26,295.75,214.56,291.09,214.56Z"/>
              </g>
              <g id="Eyes_v2" data-name="Eyes v2">
                <circle class="cls-24" cx="298.85" cy="199.73" r="2.01"/>
                <circle class="cls-24" cx="280.52" cy="199.73" r="2.01"/>
              </g>
            </g>
            <g>
              <path id="Hair" class="cls-24" d="M262.57,192.63a27.42,27.42,0,0,1,54.21.12c-7.24-1.46-13-6.4-14.9-12.75-5.1,8.2-16.2,13.88-29.07,13.88A42,42,0,0,1,262.57,192.63Z"/>
              <circle class="cls-24" cx="305.81" cy="167.11" r="8.43"/>
            </g>
          </g>
        </g>
      </g>
    </g>
    <g>
      <g class="cls-25">
        <path d="M18.56,206a54.13,54.13,0,0,1-3.72-53.88A53.6,53.6,0,0,1,33,131.21a52.74,52.74,0,0,1,26.44-9.06,52.62,52.62,0,0,1,27.43,5.34,53.56,53.56,0,0,1,20.89,18.18,54.19,54.19,0,0,1,3.72,53.88,53.6,53.6,0,0,1-18.18,20.88,52.66,52.66,0,0,1-26.44,9,52.55,52.55,0,0,1-27.44-5.33A53.6,53.6,0,0,1,18.56,206Z"/>
      </g>
      <path class="cls-4" d="M11.28,198.26a54.17,54.17,0,0,1-3.73-53.88A53.55,53.55,0,0,1,25.74,123.5a52.55,52.55,0,0,1,26.44-9.06,52.64,52.64,0,0,1,27.43,5.34A53.6,53.6,0,0,1,100.49,138a54.13,54.13,0,0,1,3.72,53.88A53.51,53.51,0,0,1,86,212.71a52.55,52.55,0,0,1-26.44,9.06,52.52,52.52,0,0,1-27.43-5.34A53.44,53.44,0,0,1,11.28,198.26Z"/>
      <path class="cls-26" d="M16.85,194.49a47.39,47.39,0,0,1-3.25-47.14,46.88,46.88,0,0,1,15.9-18.28,46.14,46.14,0,0,1,23.14-7.92,46,46,0,0,1,24,4.67,46.73,46.73,0,0,1,18.27,15.91,47.35,47.35,0,0,1,3.26,47.14,46.87,46.87,0,0,1-15.91,18.27,46.07,46.07,0,0,1-23.13,7.92,46,46,0,0,1-24-4.67A46.92,46.92,0,0,1,16.85,194.49Zm25.41,4a1.89,1.89,0,0,0,2.09,1.82l27.39-1.89a1.89,1.89,0,0,0,1.82-2.1l-.67-9.78a1.92,1.92,0,0,0-.65-1.37,1.9,1.9,0,0,0-1.44-.45l-5.87.41-2.17-31.31a1.92,1.92,0,0,0-.64-1.37,1.94,1.94,0,0,0-1.45-.45L41.11,153.4a1.91,1.91,0,0,0-1.37.65,2,2,0,0,0-.46,1.44l.68,9.79a1.9,1.9,0,0,0,2.09,1.82l5.87-.41,1.35,19.57-5.87.4a1.9,1.9,0,0,0-1.36.65,1.87,1.87,0,0,0-.46,1.44Zm4-55.33a1.92,1.92,0,0,0,.65,1.37,1.9,1.9,0,0,0,1.44.45l11.74-.81a1.92,1.92,0,0,0,1.37-.64,1.94,1.94,0,0,0,.45-1.45l-.67-9.78a1.89,1.89,0,0,0-2.1-1.82l-11.73.81a1.87,1.87,0,0,0-1.37.65,1.9,1.9,0,0,0-.46,1.44Z"/>
    </g>
  </g>
</svg>
