<svg xmlns="http://www.w3.org/2000/svg" xmlns:xlink="http://www.w3.org/1999/xlink" width="400" height="331" viewBox="0 0 400 331">
  <defs>
    <style>
      .cls-1, .cls-11, .cls-14, .cls-2, .cls-24, .cls-25, .cls-26, .cls-28, .cls-32, .cls-35, .cls-37, .cls-38, .cls-39, .cls-43, .cls-46, .cls-47, .cls-48, .cls-49, .cls-50, .cls-51, .cls-57, .cls-59, .cls-6, .cls-60, .cls-63, .cls-66, .cls-68, .cls-69, .cls-71, .cls-72, .cls-73, .cls-74, .cls-77, .cls-79, .cls-80, .cls-83, .cls-84, .cls-85 {
        fill: none;
      }

      .cls-2 {
        stroke: #12110b;
        stroke-width: 11.86px;
      }

      .cls-10, .cls-11, .cls-2, .cls-24, .cls-25, .cls-26, .cls-28, .cls-32, .cls-39, .cls-43, .cls-46, .cls-50, .cls-51, .cls-57, .cls-6, .cls-63, .cls-65, .cls-66, .cls-73, .cls-74, .cls-77, .cls-81, .cls-82, .cls-83, .cls-85, .cls-86, .cls-87 {
        stroke-miterlimit: 10;
      }

      .cls-3 {
        fill: #fff;
      }

      .cls-4 {
        fill: #003361;
      }

      .cls-5 {
        fill: #008296;
      }

      .cls-6 {
        stroke: #9ea5b5;
        stroke-width: 3.13px;
      }

      .cls-10, .cls-11, .cls-14, .cls-24, .cls-25, .cls-28, .cls-35, .cls-38, .cls-39, .cls-47, .cls-49, .cls-50, .cls-57, .cls-59, .cls-6, .cls-65, .cls-66, .cls-68, .cls-69, .cls-72, .cls-73, .cls-79, .cls-83, .cls-84, .cls-85 {
        stroke-linecap: round;
      }

      .cls-7 {
        fill: #9ea5b5;
      }

      .cls-8, .cls-82 {
        fill: #855041;
      }

      .cls-9 {
        fill: #964e1c;
      }

      .cls-10, .cls-65 {
        fill: #915c44;
        stroke: #83461d;
      }

      .cls-10, .cls-11 {
        stroke-width: 0.64px;
      }

      .cls-11, .cls-66 {
        stroke: #965523;
      }

      .cls-12 {
        fill: #472d27;
      }

      .cls-13 {
        fill: #0e1f38;
      }

      .cls-14 {
        stroke: #0e1f38;
        stroke-width: 11.19px;
      }

      .cls-14, .cls-35, .cls-37, .cls-38, .cls-47, .cls-48, .cls-49, .cls-59, .cls-60, .cls-68, .cls-69, .cls-71, .cls-72, .cls-79, .cls-80, .cls-84 {
        stroke-linejoin: round;
      }

      .cls-15 {
        fill: #845043;
      }

      .cls-16 {
        fill: #694037;
      }

      .cls-17 {
        fill: #030304;
      }

      .cls-18 {
        fill: #7c431c;
      }

      .cls-19 {
        fill: #f7a17f;
      }

      .cls-20 {
        fill: #30336c;
      }

      .cls-21 {
        fill: #f2f2f2;
      }

      .cls-22 {
        fill: #ea4c89;
      }

      .cls-23 {
        fill: #c52563;
      }

      .cls-24 {
        stroke: #f2f2f2;
        stroke-width: 0.54px;
      }

      .cls-25 {
        stroke: #f7a17f;
      }

      .cls-25, .cls-26, .cls-32 {
        stroke-width: 5.11px;
      }

      .cls-26, .cls-28 {
        stroke: #eb4d4c;
      }

      .cls-27 {
        fill: #ff7879;
      }

      .cls-28 {
        stroke-width: 0.69px;
      }

      .cls-29 {
        fill: #eb4d4c;
      }

      .cls-30 {
        fill: #c27d4e;
      }

      .cls-31 {
        fill: #386bc0;
      }

      .cls-32 {
        stroke: #386bc0;
      }

      .cls-33 {
        fill: #598df7;
      }

      .cls-34 {
        fill: #f2ce68;
      }

      .cls-35, .cls-47 {
        stroke: #f0bda5;
      }

      .cls-35 {
        stroke-width: 6.74px;
      }

      .cls-36 {
        fill: #5faa97;
      }

      .cls-37, .cls-46 {
        stroke: #5faa97;
      }

      .cls-37 {
        stroke-width: 7.58px;
      }

      .cls-38, .cls-49, .cls-72 {
        stroke: #fcbaa4;
      }

      .cls-38 {
        stroke-width: 6.07px;
      }

      .cls-39, .cls-50, .cls-73, .cls-81, .cls-86, .cls-87 {
        stroke: #000;
      }

      .cls-39 {
        stroke-width: 0.67px;
      }

      .cls-40 {
        fill: #3b2416;
      }

      .cls-41 {
        fill: #f0bda5;
      }

      .cls-42 {
        fill: #19a57a;
      }

      .cls-43 {
        stroke: #19a57a;
        stroke-width: 0.84px;
      }

      .cls-44 {
        fill: #f2bd45;
      }

      .cls-45 {
        fill: #bee4dc;
      }

      .cls-46 {
        stroke-width: 0.48px;
      }

      .cls-47 {
        stroke-width: 6.27px;
      }

      .cls-48, .cls-80 {
        stroke: #f2bd45;
      }

      .cls-48 {
        stroke-width: 7.06px;
      }

      .cls-49 {
        stroke-width: 5.64px;
      }

      .cls-50 {
        stroke-width: 0.63px;
      }

      .cls-51 {
        stroke: #f0932b;
        stroke-width: 0.78px;
      }

      .cls-52 {
        fill: #f0932b;
      }

      .cls-53 {
        fill: #f6de93;
      }

      .cls-54 {
        fill: #e49a70;
      }

      .cls-55 {
        fill: #eb4d4b;
      }

      .cls-56 {
        fill: #25b6d1;
      }

      .cls-57 {
        stroke: #3637a4;
        stroke-width: 0.62px;
      }

      .cls-58 {
        fill: #3637a4;
      }

      .cls-59, .cls-69 {
        stroke: #e49a70;
      }

      .cls-59, .cls-60 {
        stroke-width: 5.15px;
      }

      .cls-60 {
        stroke: #9e3433;
      }

      .cls-60, .cls-80 {
        stroke-linecap: square;
      }

      .cls-61 {
        fill: #9e3433;
      }

      .cls-62 {
        clip-path: url(#clip-path);
      }

      .cls-63 {
        stroke: #4c1919;
        stroke-width: 1.56px;
      }

      .cls-64 {
        fill: #3f220f;
      }

      .cls-65, .cls-66 {
        stroke-width: 0.62px;
      }

      .cls-67 {
        fill: #67b6d6;
      }

      .cls-68 {
        stroke: #67b6d6;
        stroke-width: 10.91px;
      }

      .cls-69 {
        stroke-width: 6.14px;
      }

      .cls-70 {
        fill: #b4a7db;
      }

      .cls-71 {
        stroke: #b4a7db;
        stroke-width: 6.9px;
      }

      .cls-72 {
        stroke-width: 5.52px;
      }

      .cls-73 {
        stroke-width: 0.61px;
      }

      .cls-74 {
        stroke: #705fb4;
        stroke-width: 0.77px;
      }

      .cls-75 {
        fill: #705fb4;
      }

      .cls-76 {
        clip-path: url(#clip-path-2);
      }

      .cls-77 {
        stroke: #fcf6f0;
        stroke-width: 0.64px;
      }

      .cls-78 {
        fill: #b26b57;
      }

      .cls-79, .cls-82 {
        stroke: #855041;
      }

      .cls-79, .cls-80 {
        stroke-width: 5.16px;
      }

      .cls-81, .cls-82 {
        stroke-width: 0.16px;
      }

      .cls-83 {
        stroke: #d8812a;
      }

      .cls-83, .cls-84, .cls-85 {
        stroke-width: 0.62px;
      }

      .cls-84, .cls-85 {
        stroke: #fff;
      }

      .cls-86 {
        stroke-width: 0.15px;
      }

      .cls-87 {
        stroke-width: 0.16px;
      }
    </style>
    <clipPath id="clip-path">
      <path class="cls-1" d="M134.26,208.84a33.9,33.9,0,0,0,2.49,11.6H109.13a36,36,0,0,0,2-11.55c0-6.4-1.71-11.54-1.92-14.59-.15-2.14.12-8.59.12-8.59a8.79,8.79,0,0,1,8.52-6.62h10.28a8.79,8.79,0,0,1,8.52,6.62s.42,6.45.28,8.59C137,194.3,134.3,204.25,134.26,208.84Z"/>
    </clipPath>
    <clipPath id="clip-path-2">
      <path class="cls-1" d="M150,150.3l-.7.85c-.07.1.56.31.84,0A.57.57,0,0,0,150,150.3Z"/>
    </clipPath>
  </defs>
  <title>img-1</title>
  <g id="Layer_1" data-name="Layer 1">
    <g>
      <g>
        <line class="cls-2" x1="374.28" y1="42.2" x2="374.28" y2="305.73"/>
        <line class="cls-2" x1="26.62" y1="305.73" x2="26.62" y2="42.2"/>
      </g>
      <path class="cls-3" d="M39.23,56.81v91.76H361.39V56.81Zm9.35,85.79a4.14,4.14,0,1,1,4.13-4.13A4.13,4.13,0,0,1,48.58,142.6Zm0-71.14a4.13,4.13,0,1,1,4.13-4.13A4.13,4.13,0,0,1,48.58,71.46ZM352.05,142.6a4.14,4.14,0,1,1,4.13-4.13A4.13,4.13,0,0,1,352.05,142.6Zm0-71.14a4.13,4.13,0,1,1,4.13-4.13A4.13,4.13,0,0,1,352.05,71.46Z"/>
      <g>
        <path class="cls-4" d="M121.18,82.51a10.58,10.58,0,0,1-.86,4.45,6.5,6.5,0,0,1-2.43,2.91,6.7,6.7,0,0,1-3.68,1,6.63,6.63,0,0,1-3.63-1A6.7,6.7,0,0,1,108.11,87a10.48,10.48,0,0,1-.9-4.33V81.41a10.6,10.6,0,0,1,.87-4.42,6.45,6.45,0,0,1,6.11-4,6.75,6.75,0,0,1,3.68,1A6.48,6.48,0,0,1,120.32,77a10.64,10.64,0,0,1,.86,4.45Zm-2.28-1.12a7.81,7.81,0,0,0-1.24-4.75A4.09,4.09,0,0,0,114.19,75a4,4,0,0,0-3.42,1.65,7.65,7.65,0,0,0-1.28,4.59v1.28a7.78,7.78,0,0,0,1.26,4.7,4.4,4.4,0,0,0,6.9.1,7.74,7.74,0,0,0,1.25-4.64Z"/>
        <path class="cls-4" d="M135.17,84.32a7.71,7.71,0,0,1-1.34,4.75,4.33,4.33,0,0,1-3.65,1.8,4.75,4.75,0,0,1-3.7-1.49v6.21h-2.21V77.72h2l.1,1.44a4.54,4.54,0,0,1,3.75-1.67,4.39,4.39,0,0,1,3.68,1.75,7.84,7.84,0,0,1,1.35,4.88Zm-2.2-.25a5.74,5.74,0,0,0-.93-3.45,3,3,0,0,0-2.56-1.26,3.24,3.24,0,0,0-3,1.78V87.3a3.25,3.25,0,0,0,3,1.77A3,3,0,0,0,132,87.81,6.2,6.2,0,0,0,133,84.07Z"/>
        <path class="cls-4" d="M143.33,90.87a5.64,5.64,0,0,1-4.27-1.72,6.43,6.43,0,0,1-1.64-4.61v-.41a7.75,7.75,0,0,1,.73-3.43,5.76,5.76,0,0,1,2-2.36,5.15,5.15,0,0,1,2.86-.85A4.84,4.84,0,0,1,147,79.14a7.2,7.2,0,0,1,1.4,4.75v.92h-8.75a4.63,4.63,0,0,0,1.12,3.08,3.49,3.49,0,0,0,2.71,1.18,3.82,3.82,0,0,0,2-.48,5,5,0,0,0,1.42-1.26l1.35,1A5.42,5.42,0,0,1,143.33,90.87Zm-.27-11.57a2.92,2.92,0,0,0-2.24,1A4.68,4.68,0,0,0,139.7,83h6.46v-.17a4.15,4.15,0,0,0-.91-2.61A2.78,2.78,0,0,0,143.06,79.3Z"/>
        <path class="cls-4" d="M153,77.72l.07,1.63a4.7,4.7,0,0,1,3.86-1.86c2.73,0,4.11,1.53,4.13,4.61v8.53h-2.2V82.09a3,3,0,0,0-.64-2.06,2.55,2.55,0,0,0-1.95-.67,3.2,3.2,0,0,0-1.89.57,3.85,3.85,0,0,0-1.26,1.5v9.2h-2.21V77.72Z"/>
        <path class="cls-4" d="M173.09,83.83v6.8h-2.3V73.26h6.41a6.45,6.45,0,0,1,4.47,1.46,4.91,4.91,0,0,1,1.61,3.85,4.85,4.85,0,0,1-1.58,3.9,6.71,6.71,0,0,1-4.52,1.36Zm0-1.87h4.11a4.12,4.12,0,0,0,2.82-.87,3.15,3.15,0,0,0,1-2.5,3.29,3.29,0,0,0-1-2.49,3.86,3.86,0,0,0-2.69-1h-4.24Z"/>
        <path class="cls-4" d="M185.12,84.06a7.56,7.56,0,0,1,.75-3.41,5.56,5.56,0,0,1,2.07-2.34,5.65,5.65,0,0,1,3-.82,5.41,5.41,0,0,1,4.26,1.82,7,7,0,0,1,1.63,4.86v.15a7.66,7.66,0,0,1-.72,3.38A5.52,5.52,0,0,1,194.09,90a5.81,5.81,0,0,1-3.09.83A5.42,5.42,0,0,1,186.75,89a6.94,6.94,0,0,1-1.63-4.83Zm2.22.26a5.5,5.5,0,0,0,1,3.45,3.37,3.37,0,0,0,5.33,0,6,6,0,0,0,1-3.69,5.51,5.51,0,0,0-1-3.44A3.22,3.22,0,0,0,191,79.3a3.17,3.17,0,0,0-2.64,1.3A6,6,0,0,0,187.34,84.32Z"/>
        <path class="cls-4" d="M202,90.63h-2.21V72.31H202Z"/>
        <path class="cls-4" d="M209.79,87.4l3-9.68h2.36L210,92.62q-1.2,3.22-3.83,3.22l-.42,0-.82-.16V93.86l.6,0a2.93,2.93,0,0,0,1.74-.45,3.35,3.35,0,0,0,1-1.66l.48-1.31-4.6-12.77h2.41Z"/>
        <path class="cls-4" d="M220.12,74.6v3.12h2.41v1.71h-2.41v8a1.82,1.82,0,0,0,.32,1.16,1.36,1.36,0,0,0,1.1.39,5.2,5.2,0,0,0,1.05-.15v1.78a6.32,6.32,0,0,1-1.69.24,2.76,2.76,0,0,1-2.23-.89,3.88,3.88,0,0,1-.76-2.55v-8h-2.35V77.72h2.35V74.6Z"/>
        <path class="cls-4" d="M230.46,90.87a5.64,5.64,0,0,1-4.27-1.72,6.43,6.43,0,0,1-1.64-4.61v-.41a7.75,7.75,0,0,1,.73-3.43,5.76,5.76,0,0,1,2.05-2.36,5.15,5.15,0,0,1,2.86-.85,4.84,4.84,0,0,1,3.91,1.65,7.2,7.2,0,0,1,1.4,4.75v.92h-8.75a4.63,4.63,0,0,0,1.12,3.08,3.49,3.49,0,0,0,2.71,1.18,3.82,3.82,0,0,0,2-.48A5,5,0,0,0,234,87.33l1.35,1A5.42,5.42,0,0,1,230.46,90.87Zm-.27-11.57a2.92,2.92,0,0,0-2.24,1A4.68,4.68,0,0,0,226.83,83h6.46v-.17a4.15,4.15,0,0,0-.91-2.61A2.78,2.78,0,0,0,230.19,79.3Z"/>
        <path class="cls-4" d="M243.23,89.07a3.15,3.15,0,0,0,2.06-.72,2.48,2.48,0,0,0,1-1.79h2.09a4,4,0,0,1-.77,2.12,5,5,0,0,1-1.88,1.59,5.37,5.37,0,0,1-2.48.6A5.31,5.31,0,0,1,239,89.11a7,7,0,0,1-1.56-4.81v-.37a7.74,7.74,0,0,1,.69-3.35,5.21,5.21,0,0,1,2-2.28,5.63,5.63,0,0,1,3.06-.81,5.14,5.14,0,0,1,3.6,1.3,4.65,4.65,0,0,1,1.54,3.37h-2.09a3,3,0,0,0-1-2.06,3,3,0,0,0-2.1-.8,3.08,3.08,0,0,0-2.61,1.21,5.66,5.66,0,0,0-.93,3.5v.42a5.56,5.56,0,0,0,.92,3.43A3.11,3.11,0,0,0,243.23,89.07Z"/>
        <path class="cls-4" d="M253.05,79.29a4.68,4.68,0,0,1,3.81-1.8c2.73,0,4.11,1.53,4.13,4.61v8.53h-2.21V82.09a3,3,0,0,0-.63-2.06,2.55,2.55,0,0,0-1.95-.67,3.2,3.2,0,0,0-1.89.57,3.85,3.85,0,0,0-1.26,1.5v9.2h-2.21V72.31h2.21Z"/>
        <path class="cls-4" d="M266.38,77.72l.07,1.63a4.72,4.72,0,0,1,3.87-1.86c2.73,0,4.1,1.53,4.13,4.61v8.53h-2.21V82.09A3,3,0,0,0,271.6,80a2.55,2.55,0,0,0-2-.67,3.19,3.19,0,0,0-1.88.57,3.87,3.87,0,0,0-1.27,1.5v9.2h-2.21V77.72Z"/>
        <path class="cls-4" d="M277.79,74.3a1.32,1.32,0,0,1,.33-.91,1.24,1.24,0,0,1,1-.37,1.29,1.29,0,0,1,1,.37,1.32,1.32,0,0,1,.33.91,1.28,1.28,0,0,1-.33.9,1.32,1.32,0,0,1-1,.35,1.26,1.26,0,0,1-1-.35A1.28,1.28,0,0,1,277.79,74.3Zm2.38,16.33H278V77.72h2.2Z"/>
        <path class="cls-4" d="M288.88,89.07a3.14,3.14,0,0,0,2.06-.72,2.48,2.48,0,0,0,1-1.79H294a4,4,0,0,1-.76,2.12,5,5,0,0,1-1.88,1.59,5.41,5.41,0,0,1-2.49.6,5.32,5.32,0,0,1-4.19-1.76,7,7,0,0,1-1.56-4.81v-.37a7.74,7.74,0,0,1,.69-3.35,5.28,5.28,0,0,1,2-2.28,5.63,5.63,0,0,1,3.06-.81,5.16,5.16,0,0,1,3.61,1.3A4.61,4.61,0,0,1,294,82.16h-2.09A3,3,0,0,0,291,80.1a3,3,0,0,0-2.1-.8,3.09,3.09,0,0,0-2.61,1.21,5.72,5.72,0,0,0-.92,3.5v.42a5.49,5.49,0,0,0,.92,3.43A3.08,3.08,0,0,0,288.88,89.07Z"/>
        <path class="cls-5" d="M79.52,124.22H90.38v4.11h-16V103.51h5.11Z"/>
        <path class="cls-5" d="M101.47,128.67a9,9,0,0,1-6.6-2.49,8.84,8.84,0,0,1-2.55-6.63v-.48a11.23,11.23,0,0,1,1.07-5,7.87,7.87,0,0,1,3-3.37,8.51,8.51,0,0,1,4.49-1.19,7.65,7.65,0,0,1,5.95,2.39,9.7,9.7,0,0,1,2.18,6.77v2H97.31a4.56,4.56,0,0,0,1.44,2.89,4.36,4.36,0,0,0,3,1.1,5.29,5.29,0,0,0,4.44-2.07l2.42,2.71a7.42,7.42,0,0,1-3,2.45A9.88,9.88,0,0,1,101.47,128.67Zm-.56-15.15a3.09,3.09,0,0,0-2.38,1,5.19,5.19,0,0,0-1.17,2.84h6.86V117a3.66,3.66,0,0,0-.89-2.54A3.18,3.18,0,0,0,100.91,113.52Z"/>
        <path class="cls-5" d="M122.54,128.33a5.42,5.42,0,0,1-.5-1.66,6,6,0,0,1-4.65,2,6.57,6.57,0,0,1-4.49-1.57,5,5,0,0,1-1.78-4,5.19,5.19,0,0,1,2.17-4.49,10.67,10.67,0,0,1,6.28-1.59h2.27V116a3,3,0,0,0-.66-2,2.59,2.59,0,0,0-2.07-.77,2.92,2.92,0,0,0-2,.6,2,2,0,0,0-.71,1.63h-4.92a5,5,0,0,1,1-3,6.54,6.54,0,0,1,2.8-2.14,10.14,10.14,0,0,1,4.06-.78,8.07,8.07,0,0,1,5.41,1.72,6,6,0,0,1,2,4.81v8a8.81,8.81,0,0,0,.73,4v.29Zm-4.08-3.43a4.15,4.15,0,0,0,2-.49,3.14,3.14,0,0,0,1.37-1.3v-3.17H120q-3.7,0-3.94,2.56l0,.29a2,2,0,0,0,.65,1.51A2.5,2.5,0,0,0,118.46,124.9Z"/>
        <path class="cls-5" d="M140.92,114.5a13.4,13.4,0,0,0-1.77-.13q-2.79,0-3.66,1.89v12.07h-4.93V109.89h4.65l.14,2.19a4.57,4.57,0,0,1,4.11-2.54,5.1,5.1,0,0,1,1.53.23Z"/>
        <path class="cls-5" d="M147.83,109.89,148,112a6.43,6.43,0,0,1,5.3-2.48,5.34,5.34,0,0,1,4.36,1.73,8,8,0,0,1,1.47,5.14v11.92h-4.93v-11.8a3.21,3.21,0,0,0-.68-2.27,3.05,3.05,0,0,0-2.27-.71,3.4,3.4,0,0,0-3.12,1.77v13h-4.92V109.89Z"/>
        <path class="cls-5" d="M171.33,128.67a9.06,9.06,0,0,1-6.61-2.49,8.84,8.84,0,0,1-2.55-6.63v-.48a11.1,11.1,0,0,1,1.08-5,7.84,7.84,0,0,1,3-3.37,8.53,8.53,0,0,1,4.49-1.19,7.67,7.67,0,0,1,6,2.39q2.17,2.38,2.17,6.77v2H167.17a4.56,4.56,0,0,0,1.44,2.89,4.33,4.33,0,0,0,3,1.1,5.31,5.31,0,0,0,4.45-2.07l2.42,2.71a7.42,7.42,0,0,1-3,2.45A9.92,9.92,0,0,1,171.33,128.67Zm-.57-15.15a3.06,3.06,0,0,0-2.37,1,5.12,5.12,0,0,0-1.17,2.84h6.85V117a3.62,3.62,0,0,0-.89-2.54A3.17,3.17,0,0,0,170.76,113.52Z"/>
        <path class="cls-5" d="M192.06,114.5a13.4,13.4,0,0,0-1.77-.13q-2.79,0-3.66,1.89v12.07H181.7V109.89h4.66l.13,2.19a4.57,4.57,0,0,1,4.11-2.54,5.05,5.05,0,0,1,1.53.23Z"/>
        <path class="cls-5" d="M213.45,103.51h5.11v17.18a8.28,8.28,0,0,1-1,4.18,7.16,7.16,0,0,1-3,2.81,9.22,9.22,0,0,1-4.31,1,8.77,8.77,0,0,1-6.14-2,7.27,7.27,0,0,1-2.19-5.66h5.14a4,4,0,0,0,.77,2.69,3.07,3.07,0,0,0,2.42.87,2.92,2.92,0,0,0,2.33-1,4.23,4.23,0,0,0,.87-2.86Z"/>
        <path class="cls-5" d="M221.85,118.94a11.06,11.06,0,0,1,1.06-4.9,7.7,7.7,0,0,1,3-3.32,8.93,8.93,0,0,1,4.61-1.18,8.4,8.4,0,0,1,6.09,2.29,9.13,9.13,0,0,1,2.64,6.2l0,1.26A9.64,9.64,0,0,1,237,126.1a9.17,9.17,0,0,1-12.72,0,9.82,9.82,0,0,1-2.38-7Zm4.93.35a6.84,6.84,0,0,0,1,4,3.54,3.54,0,0,0,5.62,0,7.52,7.52,0,0,0,1-4.39,6.85,6.85,0,0,0-1-4,3.27,3.27,0,0,0-2.83-1.41,3.23,3.23,0,0,0-2.79,1.4A7.69,7.69,0,0,0,226.78,119.29Z"/>
        <path class="cls-5" d="M253.4,126.45a6.18,6.18,0,0,1-5.05,2.22,5.81,5.81,0,0,1-4.52-1.71,7.24,7.24,0,0,1-1.59-5V109.89h4.92v11.92c0,1.92.88,2.89,2.63,2.89a3.56,3.56,0,0,0,3.44-1.74V109.89h4.94v18.44h-4.64Z"/>
        <path class="cls-5" d="M272.25,114.5a13.54,13.54,0,0,0-1.78-.13q-2.79,0-3.66,1.89v12.07h-4.93V109.89h4.66l.13,2.19a4.57,4.57,0,0,1,4.11-2.54,5,5,0,0,1,1.53.23Z"/>
        <path class="cls-5" d="M279.15,109.89l.15,2.13a6.45,6.45,0,0,1,5.3-2.48,5.34,5.34,0,0,1,4.36,1.73,8,8,0,0,1,1.47,5.14v11.92H285.5v-11.8a3.16,3.16,0,0,0-.68-2.27,3,3,0,0,0-2.26-.71,3.38,3.38,0,0,0-3.12,1.77v13h-4.93V109.89Z"/>
        <path class="cls-5" d="M302.65,128.67a9.06,9.06,0,0,1-6.61-2.49,8.88,8.88,0,0,1-2.54-6.63v-.48a11.1,11.1,0,0,1,1.07-5,7.91,7.91,0,0,1,3-3.37,8.53,8.53,0,0,1,4.49-1.19,7.67,7.67,0,0,1,6,2.39q2.18,2.38,2.17,6.77v2H298.49a4.56,4.56,0,0,0,1.44,2.89,4.33,4.33,0,0,0,3,1.1,5.31,5.31,0,0,0,4.45-2.07l2.42,2.71a7.42,7.42,0,0,1-3,2.45A9.92,9.92,0,0,1,302.65,128.67Zm-.57-15.15a3.08,3.08,0,0,0-2.37,1,5.12,5.12,0,0,0-1.17,2.84h6.85V117a3.62,3.62,0,0,0-.89-2.54A3.15,3.15,0,0,0,302.08,113.52Z"/>
        <path class="cls-5" d="M319.69,121.36l3.41-11.47h5.28L321,131.19l-.41,1a5.61,5.61,0,0,1-5.45,3.61,8,8,0,0,1-2.19-.32v-3.73h.75a4.09,4.09,0,0,0,2.09-.42,2.83,2.83,0,0,0,1.08-1.42l.58-1.51L311,109.89h5.3Z"/>
      </g>
      <g>
        <line class="cls-6" x1="19.42" y1="50.13" x2="47.24" y2="67.34"/>
        <line class="cls-6" x1="380.58" y1="50.13" x2="352.76" y2="67.34"/>
        <line class="cls-6" x1="19.42" y1="156.54" x2="47.24" y2="139.32"/>
        <line class="cls-6" x1="380.58" y1="156.54" x2="352.76" y2="139.32"/>
      </g>
    </g>
  </g>
  <g id="platform">
    <path class="cls-7" d="M400,296.23q-98.67-9.8-200-9.89T0,296.23V331H400Z"/>
    <g>
      <g id="leg">
        <path class="cls-8" d="M360.79,227.39c.69,5.2,1,10.39,1.17,15.59,0,2.6.16,5.19.05,7.79s-.48,5.19-.73,7.79c-.45,5.2-.81,10.39-1.22,15.59l-1.19,15.58a2.89,2.89,0,0,1-5.76,0l-1.19-15.58c-.41-5.2-.77-10.39-1.22-15.59-.25-2.6-.64-5.19-.73-7.79s0-5.19,0-7.79a154.27,154.27,0,0,1,1.18-15.59,4.84,4.84,0,0,1,9.59,0Z"/>
      </g>
      <g id="leg-2" data-name="leg">
        <path class="cls-8" d="M345.12,227.39c.42,5.2.61,10.39.67,15.59,0,2.6.06,5.19,0,7.79s-.36,5.19-.54,7.79l-2.12,31.17a2.78,2.78,0,0,1-5.54,0l-2.13-31.17c-.18-2.6-.45-5.19-.53-7.79s0-5.19,0-7.79c.06-5.2.24-10.39.66-15.59a4.81,4.81,0,0,1,9.59,0Z"/>
      </g>
      <path d="M352.15,294.52h20v.07a3.11,3.11,0,0,0-2.39-3l-7.68-2.46,0,0a4.29,4.29,0,0,1-1.49-4.84h0a1.26,1.26,0,0,0-1.19-1.67h-7.19Z"/>
      <path class="cls-9" d="M352.15,294.36h5.75a1.44,1.44,0,0,1,1.44,1.44v0a0,0,0,0,1,0,0h-7.19a0,0,0,0,1,0,0v-1.44A0,0,0,0,1,352.15,294.36Z" transform="translate(711.5 590.17) rotate(-180)"/>
      <path class="cls-9" d="M360.79,294.36h9.91a1.44,1.44,0,0,1,1.44,1.44v0a0,0,0,0,1,0,0H359.35a0,0,0,0,1,0,0v0A1.44,1.44,0,0,1,360.79,294.36Z" transform="translate(731.48 590.17) rotate(-180)"/>
      <line class="cls-10" x1="360.31" y1="285.09" x2="357.75" y2="285.09"/>
      <line class="cls-10" x1="360.37" y1="286.85" x2="358.39" y2="286.85"/>
      <line class="cls-10" x1="361.42" y1="288.61" x2="359.67" y2="288.61"/>
      <path d="M344,294.52H324v.07a3.12,3.12,0,0,1,2.39-3l7.68-2.46.05,0a4.29,4.29,0,0,0,1.49-4.84h0a1.26,1.26,0,0,1,1.19-1.67H344Z"/>
      <path class="cls-9" d="M336.81,294.36H344a0,0,0,0,1,0,0v0a1.44,1.44,0,0,1-1.44,1.44h-5.75a0,0,0,0,1,0,0v-1.44A0,0,0,0,1,336.81,294.36Z"/>
      <path class="cls-9" d="M324,294.36h12.79a0,0,0,0,1,0,0v0a1.44,1.44,0,0,1-1.44,1.44h-9.91a1.44,1.44,0,0,1-1.44-1.44v0A0,0,0,0,1,324,294.36Z"/>
      <line class="cls-11" x1="335.85" y1="285.09" x2="338.41" y2="285.09"/>
      <line class="cls-11" x1="335.78" y1="286.85" x2="337.77" y2="286.85"/>
      <line class="cls-11" x1="334.73" y1="288.61" x2="336.49" y2="288.61"/>
      <g>
        <g id="leg-3" data-name="leg">
          <polygon class="cls-12" points="347.66 247.48 333.58 247.48 333.33 229.31 333.93 216.37 347.68 216.37 347.66 247.48"/>
        </g>
        <g id="leg-4" data-name="leg">
          <polygon class="cls-12" points="362.74 247.48 348.66 247.48 348.64 216.37 362.38 216.37 362.99 229.31 362.74 247.48"/>
        </g>
      </g>
      <polygon class="cls-12" points="362.86 230.27 333.45 230.27 333.93 216.37 362.38 216.37 362.86 230.27"/>
      <g>
        <path class="cls-8" d="M337.68,177.28c-1.95,4.44-3.9,9-5.65,13.52-.85,2.26-1.66,4.53-2.28,6.7-.13.52-.31,1.09-.4,1.57l-.16.76-.13.84c-.19,1.13-.31,2.33-.44,3.51-.44,4.8-.65,9.75-.76,14.71s-.15,10-.08,14.9v0a3.2,3.2,0,0,1-6.38.33c-.45-5.08-.81-10.11-1-15.19s-.31-10.16-.08-15.38c.08-1.31.14-2.62.29-4l.11-1,.17-1.1c.11-.75.27-1.4.42-2.09a72,72,0,0,1,2.25-7.66c.84-2.46,1.75-4.86,2.73-7.23s2-4.69,3.11-7.06a4.56,4.56,0,0,1,8.3,3.79Z"/>
        <polygon class="cls-13" points="339.08 176.89 332.31 197.55 319.6 192.33 328.64 172.87 339.08 176.89"/>
        <path class="cls-14" d="M333.86,174.88s-1.3,3-3,7"/>
      </g>
      <g>
        <path class="cls-8" d="M367.41,173.44c1.12,2.37,2.14,4.67,3.11,7.06s1.89,4.77,2.73,7.23a72,72,0,0,1,2.25,7.66c.15.69.31,1.34.42,2.09l.17,1.1.11,1c.15,1.36.21,2.67.29,4,.23,5.22.14,10.31-.07,15.38s-.56,10.11-1,15.19a3.2,3.2,0,0,1-6.38-.31v-.05c.07-4.94,0-9.95-.08-14.9s-.32-9.91-.76-14.71c-.13-1.18-.25-2.38-.44-3.51l-.13-.84-.16-.76c-.08-.48-.26-1-.4-1.57-.62-2.17-1.43-4.44-2.28-6.7-1.75-4.49-3.7-9.08-5.65-13.52l0,0a4.56,4.56,0,0,1,8.3-3.8Z"/>
        <polygon class="cls-13" points="368.17 172.87 377.21 192.33 364.5 197.55 357.73 176.89 368.17 172.87"/>
        <path class="cls-14" d="M363,174.88s1.3,3,3,7"/>
      </g>
      <path class="cls-13" d="M362.38,216.37H333.93s-.26-4.17-.26-8.68-1.49-10.82-3.25-17.38c-1.69-6.28-2.72-12-1.6-15.66,1-3.15,2.2-5.43,6.23-5.43h26.37c3.84,0,5.21,1.33,5.92,4.15a33.53,33.53,0,0,1-.48,16.3c-1.83,6.16-4.05,13.72-4.05,17.81S362.38,216.37,362.38,216.37Z"/>
      <g id="neck">
        <path id="neck-2" data-name="neck" class="cls-8" d="M348.66,173.78l-.5.39-.51-.39a6.69,6.69,0,0,1-2.61-5.3V162h6.24v6.46A6.67,6.67,0,0,1,348.66,173.78Z"/>
      </g>
      <g id="Head">
        <rect id="SquareHead" class="cls-15" x="335.19" y="137.57" width="26.15" height="29.73" rx="13.07"/>
        <g id="ears">
          <circle id="ear_-_L" data-name="ear - L" class="cls-15" cx="335.15" cy="152.39" r="2.11"/>
          <circle id="ear_-_R" data-name="ear - R" class="cls-15" cx="361.44" cy="152.39" r="2.11"/>
        </g>
      </g>
      <path id="SquareHead-2" data-name="SquareHead" class="cls-16" d="M335.19,150s-2.31,18.47,13.19,18.46c14.93,0,12.95-18.46,12.95-18.46H359.4l-.7,6.83a2.76,2.76,0,0,1-2.94,2.47l-5.49-.38a26.49,26.49,0,0,0-3.78,0l-5.33.39a2.76,2.76,0,0,1-2.91-2.28L337,150Z"/>
      <g id="Face">
        <g id="Mouth">
          <path class="cls-17" d="M347.63,161.83a4.27,4.27,0,0,1-3.23-1.14.33.33,0,0,1,0-.47.34.34,0,0,1,.47,0,4,4,0,0,0,3.36.89.33.33,0,0,1,.37.29.34.34,0,0,1-.3.37Z"/>
        </g>
        <g id="Eyes_v2" data-name="Eyes v2">
          <circle class="cls-17" cx="343.94" cy="154.79" r="0.95"/>
          <circle class="cls-17" cx="352.65" cy="154.79" r="0.95"/>
        </g>
      </g>
      <g>
        <path d="M358.48,150.18c-2.54-.32-4.05-1.67-4.05-5.12a6.36,6.36,0,0,1,2.15-4.82,12.27,12.27,0,0,1,4.83,9.74A7.74,7.74,0,0,1,358.48,150.18Z"/>
        <path d="M335.1,150.47c2.21,1.11,6.33-1.85,9.25-1.32,7.29,1.32,12.23-3.55,12.34-8.82a13.08,13.08,0,0,0-8.43-3.06h0A13.21,13.21,0,0,0,335.1,150.47Z"/>
      </g>
    </g>
    <g>
      <path class="cls-18" d="M106.1,170.73a5.39,5.39,0,0,1-1.33-5.62,5,5,0,0,0,.28-1.59,5.53,5.53,0,0,0-.19-1.42A13.48,13.48,0,0,0,105,160a13.3,13.3,0,0,0-26.59,0,13.53,13.53,0,0,0,.12,1.81,5.5,5.5,0,0,0-.28,1.73,4.51,4.51,0,0,0,.35,1.71,5.55,5.55,0,0,1-1,5.7,5.37,5.37,0,0,0-1.32,3.61,5.07,5.07,0,0,0,5.09,5h20.93c3,0,5.46-2,5.46-5A5.16,5.16,0,0,0,106.1,170.73Z"/>
      <path class="cls-19" d="M89,166.7h5.37a0,0,0,0,1,0,0v9.43a2.69,2.69,0,0,1-2.69,2.69h0A2.69,2.69,0,0,1,89,176.13V166.7a0,0,0,0,1,0,0Z"/>
      <path class="cls-20" d="M91.08,220.06l-2.77,68.67-.1,2.59-1.91,0c-1.47,0-2.93.12-4.37.24a33.78,33.78,0,0,0-4.29.57A1.36,1.36,0,0,1,77,289.5,32.5,32.5,0,0,0,81.06,288c1.34-.55,2.68-1.14,4-1.8l-2,2.61-5.57-68.5a6.82,6.82,0,1,1,13.59-1.11A5.79,5.79,0,0,1,91.08,220.06Z"/>
      <g>
        <path class="cls-21" d="M82.45,281.6l.46,5.64c-.61.28-1.23.54-1.85.8s-1.34.55-2,.8-1.36.48-2.05.66a1.36,1.36,0,0,0,.65,2.65c.7-.15,1.41-.26,2.12-.35s1.44-.17,2.17-.23,1.44-.11,2.17-.15,1.46-.07,2.2-.08h1.91l.1-2.6.29-7.13Z"/>
        <path class="cls-22" d="M87.92,286.46c-1,.57-2.46,1.13-4.73-.19-1-.61-1.49,1.22-6.42,2.46A4.75,4.75,0,0,0,74,290.1,1.37,1.37,0,0,0,75,292.33l12.62.16a1.28,1.28,0,0,0,1.3-1.2C89.22,286.36,89.07,285.77,87.92,286.46Z"/>
        <path class="cls-23" d="M73.66,290.81A1.36,1.36,0,0,0,75,292.33l12.62.16a1.28,1.28,0,0,0,1.3-1.2c0-.17,0-.33,0-.48Z"/>
        <line class="cls-24" x1="79.82" y1="287.83" x2="80.76" y2="288.54"/>
        <line class="cls-24" x1="81.07" y1="287.08" x2="82.01" y2="287.79"/>
      </g>
      <path class="cls-20" d="M105.64,220.34l-5.57,68.5-2-2.61c1.32.66,2.65,1.25,4,1.8a32.5,32.5,0,0,0,4.07,1.47,1.36,1.36,0,0,1-.64,2.65,34.26,34.26,0,0,0-4.29-.57c-1.45-.12-2.91-.22-4.38-.24l-1.9,0-.11-2.59L92,220.06a6.82,6.82,0,1,1,13.63-.55A7.61,7.61,0,0,1,105.64,220.34Z"/>
      <g>
        <path class="cls-21" d="M100.66,281.6l-.46,5.64c.61.28,1.23.54,1.85.8s1.34.55,2,.8,1.36.48,2.05.66a1.36,1.36,0,0,1-.64,2.65c-.7-.15-1.42-.26-2.13-.35s-1.44-.17-2.16-.23-1.45-.11-2.18-.15-1.46-.07-2.2-.08h-1.9l-.11-2.6-.29-7.13Z"/>
        <path class="cls-22" d="M95.2,286.46c.94.57,2.45,1.13,4.72-.19,1-.61,1.49,1.22,6.43,2.46a4.75,4.75,0,0,1,2.8,1.37,1.37,1.37,0,0,1-1.06,2.23l-12.62.16a1.28,1.28,0,0,1-1.29-1.2C93.89,286.36,94.05,285.77,95.2,286.46Z"/>
        <path class="cls-23" d="M109.46,290.81a1.38,1.38,0,0,1-1.37,1.52l-12.62.16a1.28,1.28,0,0,1-1.29-1.2l0-.48Z"/>
        <line class="cls-24" x1="103.29" y1="287.83" x2="102.36" y2="288.54"/>
        <line class="cls-24" x1="102.04" y1="287.08" x2="101.11" y2="287.79"/>
      </g>
      <g>
        <g>
          <path class="cls-25" d="M99.59,179.53s14.47,9.22,11.49,49.22"/>
          <path class="cls-26" d="M99.59,179.53s12.51,8,11.87,41.27"/>
        </g>
        <g>
          <path class="cls-25" d="M83.7,179.53s-14.46,9.22-11.48,49.22"/>
          <path class="cls-26" d="M83.7,179.53s-12.51,8-11.86,41.27"/>
        </g>
      </g>
      <path id="hips" class="cls-20" d="M95.29,234.41H88a11.83,11.83,0,0,1-11.79-12.9c0-.08,0-.15,0-.22.53-5.38,3-10.84,3.68-13h0l.09-.12h23.47l.13.42c.67,2.09,3,7.47,3.51,12.79a1.36,1.36,0,0,1,0,.2A11.84,11.84,0,0,1,95.29,234.41Z"/>
      <path class="cls-27" d="M76.68,218.26h29.93c-.87-4.19-1.58-8-2.12-9.67l-.14-.42h0l-.14-.53c-1-4-.16-16.79-.26-19.13l-.23-6a6.93,6.93,0,0,0-6.92-6.65H86.55a6.92,6.92,0,0,0-6.92,6.65l-.24,6c-.09,2.34.78,15.14-.26,19.13l-.15.58h0l0,.07C78.38,210,77.59,214,76.68,218.26Z"/>
      <path class="cls-19" d="M95.45,175.86H87.84A3.89,3.89,0,0,0,95.45,175.86Z"/>
      <g>
        <g>
          <line class="cls-28" x1="87.54" y1="179.97" x2="87.54" y2="184.6"/>
          <path class="cls-29" d="M86.76,180a.78.78,0,1,1,.78.78A.78.78,0,0,1,86.76,180Z"/>
        </g>
        <g>
          <line class="cls-28" x1="95.76" y1="179.97" x2="95.76" y2="184.6"/>
          <path class="cls-29" d="M95,180a.78.78,0,1,1,.78.78A.78.78,0,0,1,95,180Z"/>
        </g>
      </g>
      <path class="cls-29" d="M76.33,220.16h30.6a33.79,33.79,0,0,0-.83-4H77.17A32.28,32.28,0,0,0,76.33,220.16Z"/>
      <path class="cls-27" d="M101,212.89,82.41,213l2.17-4.56.32-3.47H98.4a13.72,13.72,0,0,0,.29,3.41A20.37,20.37,0,0,0,101,212.89Z"/>
      <g id="Head-2" data-name="Head">
        <g id="Head-3" data-name="Head">
          <circle id="Head-4" data-name="Head" class="cls-19" cx="91.73" cy="159.98" r="13.29"/>
          <circle class="cls-19" cx="78.31" cy="160.19" r="2.16"/>
          <circle class="cls-19" cx="105.15" cy="160.19" r="2.16"/>
        </g>
        <g id="Face-2" data-name="Face">
          <g id="Mouth-2" data-name="Mouth">
            <path class="cls-18" d="M92.41,168.57a6,6,0,0,1-.71,0,.34.34,0,0,1,.06-.67c2.43.23,3.43-.89,3.44-.9a.35.35,0,0,1,.48,0,.34.34,0,0,1,0,.48A4.37,4.37,0,0,1,92.41,168.57Z"/>
          </g>
          <g id="Eyes_v2-2" data-name="Eyes v2">
            <circle class="cls-18" cx="96.18" cy="161.38" r="0.97"/>
            <circle class="cls-18" cx="87.29" cy="161.38" r="0.97"/>
          </g>
        </g>
      </g>
      <path id="Head-5" data-name="Head" class="cls-18" d="M105,160a24.18,24.18,0,0,1-8.79-2,12.92,12.92,0,0,1-4.51-4.37C88.84,159.3,78.44,160,78.44,160A13.3,13.3,0,0,1,105,160Z"/>
      <circle class="cls-29" cx="78.21" cy="162.96" r="0.49"/>
      <circle class="cls-29" cx="105.26" cy="162.96" r="0.49"/>
    </g>
    <g>
      <path class="cls-30" d="M307.85,167.25h5.37a0,0,0,0,1,0,0v9.43a2.69,2.69,0,0,1-2.69,2.69h0a2.69,2.69,0,0,1-2.69-2.69v-9.43A0,0,0,0,1,307.85,167.25Z"/>
      <path class="cls-20" d="M310,220.61l-2.77,68.67-.11,2.6-1.9,0c-1.48,0-2.93.11-4.38.23a33.79,33.79,0,0,0-4.29.58,1.37,1.37,0,0,1-.65-2.66,32,32,0,0,0,4.08-1.46c1.34-.56,2.67-1.14,4-1.81l-2,2.61-5.57-68.5A6.82,6.82,0,1,1,310,219.78,7.73,7.73,0,0,1,310,220.61Z"/>
      <g>
        <path class="cls-21" d="M301.34,282.16l.46,5.64c-.62.27-1.23.54-1.85.79s-1.34.56-2,.8a21.45,21.45,0,0,1-2.06.66,1.37,1.37,0,0,0,.65,2.66,21.51,21.51,0,0,1,2.13-.36c.72-.09,1.44-.16,2.16-.22s1.45-.12,2.18-.16,1.46-.07,2.2-.07l1.9,0,.11-2.59.28-7.13Z"/>
        <path class="cls-31" d="M306.8,287c-.94.57-2.45,1.14-4.72-.19-1.05-.61-1.49,1.23-6.43,2.46a4.88,4.88,0,0,0-2.81,1.37,1.37,1.37,0,0,0,1.07,2.23l12.62.17a1.29,1.29,0,0,0,1.29-1.21C308.11,286.91,308,286.32,306.8,287Z"/>
        <path class="cls-20" d="M292.54,291.36a1.38,1.38,0,0,0,1.37,1.52l12.62.17a1.29,1.29,0,0,0,1.29-1.21c0-.17,0-.32,0-.48Z"/>
        <line class="cls-24" x1="298.71" y1="288.38" x2="299.64" y2="289.1"/>
        <line class="cls-24" x1="299.96" y1="287.63" x2="300.89" y2="288.34"/>
      </g>
      <path class="cls-20" d="M324.53,220.89,319,289.39l-2-2.61c1.31.67,2.65,1.25,4,1.81a32.44,32.44,0,0,0,4.07,1.46,1.37,1.37,0,0,1-.65,2.66,33.79,33.79,0,0,0-4.29-.58c-1.45-.12-2.9-.22-4.37-.23l-1.91,0-.1-2.6-2.77-68.67a6.82,6.82,0,1,1,13.63-.55A7.61,7.61,0,0,1,324.53,220.89Z"/>
      <g>
        <path class="cls-21" d="M319.54,282.16l-.45,5.64c.61.27,1.23.54,1.85.79s1.34.56,2,.8,1.36.48,2.05.66a1.37,1.37,0,0,1-.65,2.66,21.51,21.51,0,0,0-2.13-.36c-.71-.09-1.43-.16-2.16-.22s-1.45-.12-2.18-.16-1.46-.07-2.19-.07l-1.91,0-.1-2.59-.29-7.13Z"/>
        <path class="cls-31" d="M314.08,287c.95.57,2.46,1.14,4.73-.19,1-.61,1.49,1.23,6.42,2.46a4.88,4.88,0,0,1,2.81,1.37,1.37,1.37,0,0,1-1.06,2.23l-12.62.17a1.29,1.29,0,0,1-1.3-1.21C312.78,286.91,312.93,286.32,314.08,287Z"/>
        <path class="cls-20" d="M328.34,291.36a1.37,1.37,0,0,1-1.36,1.52l-12.62.17a1.29,1.29,0,0,1-1.3-1.21c0-.17,0-.32,0-.48Z"/>
        <line class="cls-24" x1="322.17" y1="288.38" x2="321.24" y2="289.1"/>
        <line class="cls-24" x1="320.92" y1="287.63" x2="319.99" y2="288.34"/>
      </g>
      <g>
        <g>
          <path class="cls-25" d="M318.48,180.09s14.46,9.22,11.48,49.21"/>
          <path class="cls-32" d="M318.48,180.09s12.51,8,11.86,41.26"/>
        </g>
        <g>
          <path class="cls-25" d="M302.59,180.09s-14.47,9.22-11.49,49.21"/>
          <path class="cls-32" d="M302.59,180.09s-12.51,8-11.87,41.26"/>
        </g>
      </g>
      <path id="hips-2" data-name="hips" class="cls-20" d="M314.18,235h-7.33a11.83,11.83,0,0,1-11.8-12.9,1.5,1.5,0,0,0,0-.22c.54-5.38,2.95-10.83,3.68-13h0l.09-.13h23.47l.14.43c.67,2.09,3,7.46,3.51,12.79,0,.06,0,.13,0,.19A11.83,11.83,0,0,1,314.18,235Z"/>
      <path class="cls-33" d="M295.57,218.81H325.5c-.87-4.19-1.58-8-2.12-9.66l-.14-.43h0l-.13-.53c-1-4-.17-16.79-.26-19.12l-.24-6a6.93,6.93,0,0,0-6.92-6.65H305.44a6.92,6.92,0,0,0-6.92,6.65l-.24,6c-.09,2.33.78,15.13-.26,19.12l-.15.58h0l-.05.08C297.26,210.6,296.47,214.52,295.57,218.81Z"/>
      <path class="cls-30" d="M314.34,176.41h-7.61A3.89,3.89,0,0,0,314.34,176.41Z"/>
      <path class="cls-31" d="M295.21,220.72h30.61a35.47,35.47,0,0,0-.83-4H296.06A33.82,33.82,0,0,0,295.21,220.72Z"/>
      <g id="Head-6" data-name="Head">
        <g id="Head-7" data-name="Head">
          <circle id="Head-8" data-name="Head" class="cls-30" cx="310.61" cy="160.19" r="13.63"/>
          <circle class="cls-30" cx="296.84" cy="160.41" r="2.21"/>
          <circle class="cls-30" cx="324.37" cy="160.41" r="2.21"/>
        </g>
        <g id="earrings">
          <circle class="cls-34" cx="296.44" cy="162.6" r="0.58"/>
          <circle class="cls-34" cx="324.77" cy="162.6" r="0.58"/>
        </g>
        <g id="Face-3" data-name="Face">
          <g id="Mouth-3" data-name="Mouth">
            <path class="cls-17" d="M311.3,169a6.29,6.29,0,0,1-.73,0,.34.34,0,0,1-.31-.38.35.35,0,0,1,.38-.31c2.48.24,3.51-.91,3.52-.92a.35.35,0,0,1,.53.45A4.48,4.48,0,0,1,311.3,169Z"/>
          </g>
          <g id="Eyes_v2-3" data-name="Eyes v2">
            <circle class="cls-17" cx="315.16" cy="161.63" r="1"/>
            <circle class="cls-17" cx="306.05" cy="161.63" r="1"/>
          </g>
        </g>
        <g>
          <path id="Hair" class="cls-17" d="M297.12,158.09a13.64,13.64,0,0,1,27,.06,9.53,9.53,0,0,1-7.41-6.34c-2.54,4.08-8.05,6.91-14.45,6.91A20.53,20.53,0,0,1,297.12,158.09Z"/>
          <circle class="cls-17" cx="318.62" cy="145.4" r="4.19"/>
        </g>
      </g>
    </g>
    <g>
      <g>
        <g>
          <path class="cls-35" d="M68.11,176.35s9.61,17.86,10.45,26.11,1.59,32.75,1.59,32.75"/>
          <path class="cls-36" d="M73.53,173.43c1,2.32,1.89,4.52,2.78,6.8s1.72,4.55,2.51,6.86,1.52,4.67,2.16,7.11a38.52,38.52,0,0,1,1.38,7.88,3.82,3.82,0,0,1-7.54,1l0-.26a33.65,33.65,0,0,0-2.1-5.78c-.91-2-1.92-4-3-6s-2.21-4-3.38-6-2.39-4-3.59-5.81a6.17,6.17,0,1,1,10.81-5.87Z"/>
          <path class="cls-37" d="M78.56,202.46C79.4,210.72,80,232,80,232"/>
        </g>
        <line id="leg-5" data-name="leg" class="cls-38" x1="48.62" y1="230.1" x2="48.62" y2="292.45"/>
        <path d="M52.5,295.31H44.92V280.84a.85.85,0,0,1,.86-.86h5.86a.86.86,0,0,1,.86.86Z"/>
        <path class="cls-9" d="M52.5,295.48H31.44v.06a3.29,3.29,0,0,1,2.52-3.2l8.09-2.59.05,0a4.54,4.54,0,0,0,1.57-5.11h0a1.32,1.32,0,0,1,1.25-1.76H52.5Z"/>
        <path d="M44.92,295.31H52.5a0,0,0,0,1,0,0v0A1.52,1.52,0,0,1,51,296.83H44.92a0,0,0,0,1,0,0v-1.52A0,0,0,0,1,44.92,295.31Z"/>
        <path d="M31.44,295.31H44.92a0,0,0,0,1,0,0v0a1.52,1.52,0,0,1-1.52,1.52H33a1.52,1.52,0,0,1-1.52-1.52v0A0,0,0,0,1,31.44,295.31Z"/>
        <line class="cls-39" x1="43.91" y1="285.54" x2="46.6" y2="285.54"/>
        <line class="cls-39" x1="43.84" y1="287.39" x2="45.93" y2="287.39"/>
        <line class="cls-39" x1="42.73" y1="289.24" x2="44.58" y2="289.24"/>
        <polygon class="cls-40" points="52.42 285.7 42.47 285.7 40.37 230.1 54.52 230.1 52.42 285.7"/>
        <rect x="41.55" y="283.68" width="11.96" height="4.55" rx="1.28"/>
        <line id="leg-6" data-name="leg" class="cls-38" x1="64.8" y1="230.1" x2="64.8" y2="292.45"/>
        <path d="M61.09,295.31h7.59V280.84a.86.86,0,0,0-.87-.86H62a.86.86,0,0,0-.87.86Z"/>
        <path class="cls-9" d="M61.09,295.48H82.16v.06a3.29,3.29,0,0,0-2.52-3.2l-8.1-2.59-.05,0a4.54,4.54,0,0,1-1.57-5.11h0a1.32,1.32,0,0,0-1.25-1.76H61.09Z"/>
        <path d="M61.09,295.31h6.07a1.52,1.52,0,0,1,1.52,1.52v0a0,0,0,0,1,0,0H61.09a0,0,0,0,1,0,0v-1.52A0,0,0,0,1,61.09,295.31Z" transform="translate(129.77 592.14) rotate(-180)"/>
        <path d="M70.19,295.31H80.64a1.52,1.52,0,0,1,1.52,1.52v0a0,0,0,0,1,0,0H68.68a0,0,0,0,1,0,0v0A1.52,1.52,0,0,1,70.19,295.31Z" transform="translate(150.83 592.14) rotate(-180)"/>
        <line class="cls-39" x1="69.69" y1="285.54" x2="66.99" y2="285.54"/>
        <line class="cls-39" x1="69.76" y1="287.39" x2="67.67" y2="287.39"/>
        <line class="cls-39" x1="70.87" y1="289.24" x2="69.01" y2="289.24"/>
        <polygon class="cls-40" points="61.18 285.12 71.12 285.12 73.23 230.1 59.07 230.1 61.18 285.12"/>
        <rect x="60.25" y="283.68" width="11.96" height="4.55" rx="1.28" transform="translate(132.47 571.92) rotate(-180)"/>
        <rect class="cls-40" x="40.37" y="215.1" width="32.86" height="15"/>
        <rect x="40.37" y="215.1" width="32.86" height="3.88"/>
        <rect class="cls-40" x="54.61" y="215.66" width="4.55" height="2.86" rx="0.67"/>
        <path class="cls-36" d="M73.23,215.1H40.37V200.78c0-6.49-.65-24.34-.65-24.34a7.57,7.57,0,0,1,7.56-7.68H66.6a7.55,7.55,0,0,1,7.55,7.68s-.59,17.43-.59,23.67C73.56,209.71,73.23,215.1,73.23,215.1Z"/>
        <path class="cls-41" d="M60.64,168.76s.44,4.5-3.7,4.5c-4.52,0-3.71-4.5-3.71-4.5Z"/>
        <rect class="cls-42" x="59.4" y="182.15" width="9.84" height="1.69" rx="0.85"/>
        <path class="cls-43" d="M60.87,169.18a3.7,3.7,0,0,1-4,4.22,3.8,3.8,0,0,1-4-4.22h8Z"/>
        <g id="neck-3" data-name="neck">
          <path id="neck-4" data-name="neck" class="cls-41" d="M53.6,169.67V159.5h6.57v10.17C60.17,171.86,53.6,171.86,53.6,169.67Z"/>
        </g>
        <g>
          <path class="cls-35" d="M45.77,175.84S36.17,193.7,35.33,202s-1.59,32.74-1.59,32.74"/>
          <path class="cls-36" d="M51.19,178.75c-1.2,1.85-2.43,3.85-3.59,5.81s-2.3,4-3.38,6-2.09,4-3,6a31.78,31.78,0,0,0-2.1,5.78l-.06.25a3.81,3.81,0,0,1-7.53-1,38.66,38.66,0,0,1,1.37-7.88c.65-2.43,1.38-4.79,2.17-7.1s1.62-4.61,2.5-6.87,1.78-4.48,2.79-6.79h0a6.17,6.17,0,0,1,11.31,4.93A5.52,5.52,0,0,1,51.19,178.75Z"/>
          <path class="cls-37" d="M35.33,202c-.85,8.26-1.48,29.54-1.48,29.54"/>
        </g>
      </g>
      <g>
        <g id="Head-9" data-name="Head">
          <rect id="SquareHead-3" data-name="SquareHead" class="cls-41" x="42.63" y="134.81" width="28.52" height="32.43" rx="14.26"/>
          <g id="ears-2" data-name="ears">
            <circle id="ear_-_L-2" data-name="ear - L" class="cls-41" cx="42.59" cy="150.97" r="2.31"/>
            <circle id="ear_-_R-2" data-name="ear - R" class="cls-41" cx="71.27" cy="150.97" r="2.31"/>
          </g>
        </g>
        <path id="SquareHead-4" data-name="SquareHead" class="cls-18" d="M42.63,148.32S40.11,168.48,57,168.46c16.29,0,14.13-20.14,14.13-20.14h-2.1l-.77,7.46a3,3,0,0,1-3.2,2.69l-6-.42a29.82,29.82,0,0,0-4.12,0l-5.81.42A3,3,0,0,1,46,156l-1.35-7.68Z"/>
        <g id="Face-4" data-name="Face">
          <g id="Mouth-4" data-name="Mouth">
            <path class="cls-17" d="M56.2,161.27A4.72,4.72,0,0,1,52.67,160a.37.37,0,0,1,.55-.48c.05.06,1.12,1.21,3.67,1a.36.36,0,0,1,.4.32.37.37,0,0,1-.33.4Z"/>
          </g>
          <g id="Eyes_v2-4" data-name="Eyes v2">
            <circle class="cls-17" cx="52.18" cy="153.6" r="1.04"/>
            <circle class="cls-17" cx="61.68" cy="153.6" r="1.04"/>
          </g>
        </g>
        <path id="Hair-2" data-name="Hair" class="cls-44" d="M71,146.91a14.2,14.2,0,0,0-28.08.06,10,10,0,0,0,7.72-6.61c2.64,4.25,8.39,7.19,15.06,7.19A21.68,21.68,0,0,0,71,146.91Z"/>
        <g id="Benie">
          <circle class="cls-45" cx="56.86" cy="133.27" r="1.92"/>
          <path id="Head-10" data-name="Head" class="cls-36" d="M70.53,148.25H43.2a.59.59,0,0,1-.6-.62,14.27,14.27,0,0,1,28.53,0A.6.6,0,0,1,70.53,148.25Z"/>
          <g>
            <rect class="cls-45" x="41.04" y="144.91" width="31.64" height="3.82" rx="1.91"/>
            <g>
              <line class="cls-46" x1="45.75" y1="144.91" x2="45.75" y2="148.73"/>
              <line class="cls-46" x1="51.38" y1="144.91" x2="51.38" y2="148.73"/>
              <line class="cls-46" x1="57.02" y1="144.91" x2="57.02" y2="148.73"/>
              <line class="cls-46" x1="62.66" y1="144.91" x2="62.66" y2="148.73"/>
              <line class="cls-46" x1="68.29" y1="144.91" x2="68.29" y2="148.73"/>
            </g>
          </g>
        </g>
      </g>
    </g>
    <g>
      <g>
        <g>
          <path class="cls-47" d="M263.36,180.93s-8.94,16.62-9.72,24.3-1.48,30.47-1.48,30.47"/>
          <path class="cls-44" d="M268.4,183.64c-1.12,1.72-2.26,3.58-3.34,5.41s-2.14,3.69-3.15,5.55-1.94,3.74-2.79,5.61a29.32,29.32,0,0,0-1.95,5.38l-.06.24a3.55,3.55,0,0,1-7-1,36.5,36.5,0,0,1,1.28-7.33c.6-2.26,1.28-4.46,2-6.61s1.51-4.29,2.33-6.39,1.65-4.17,2.59-6.32h0a5.74,5.74,0,1,1,10.53,4.59A6.68,6.68,0,0,1,268.4,183.64Z"/>
          <path class="cls-48" d="M253.64,205.23c-.79,7.68-1.38,27.49-1.38,27.49"/>
        </g>
        <g>
          <path class="cls-47" d="M284.14,181.4s8.94,16.62,9.72,24.3,1.48,30.47,1.48,30.47"/>
          <path class="cls-44" d="M289.18,178.69c.94,2.15,1.77,4.2,2.59,6.32s1.6,4.23,2.33,6.39,1.42,4.35,2,6.61a36.5,36.5,0,0,1,1.28,7.33,3.56,3.56,0,0,1-7,1l-.05-.24a30.08,30.08,0,0,0-1.95-5.38q-1.28-2.81-2.79-5.61c-1-1.86-2-3.72-3.15-5.55s-2.22-3.69-3.34-5.41a5.74,5.74,0,1,1,10.07-5.46Z"/>
          <path class="cls-48" d="M293.86,205.7c.79,7.68,1.38,27.49,1.38,27.49"/>
        </g>
        <line id="leg-7" data-name="leg" class="cls-49" x1="266.01" y1="231.41" x2="266.01" y2="289.42"/>
        <path d="M269.61,292.09h-7.05V278.63a.8.8,0,0,1,.8-.81h5.45a.8.8,0,0,1,.8.81Z"/>
        <path class="cls-9" d="M269.61,292.25H250v.06a3.08,3.08,0,0,1,2.34-3l7.53-2.4.05,0a4.22,4.22,0,0,0,1.46-4.76h0a1.23,1.23,0,0,1,1.17-1.63h7Z"/>
        <path d="M262.56,292.09h7.06a0,0,0,0,1,0,0v0a1.41,1.41,0,0,1-1.41,1.41h-5.64a0,0,0,0,1,0,0v-1.41A0,0,0,0,1,262.56,292.09Z"/>
        <path d="M250,292.09h12.54a0,0,0,0,1,0,0v0a1.41,1.41,0,0,1-1.41,1.41h-9.72a1.41,1.41,0,0,1-1.41-1.41v0A0,0,0,0,1,250,292.09Z"/>
        <line class="cls-50" x1="261.62" y1="283" x2="264.13" y2="283"/>
        <line class="cls-50" x1="261.55" y1="284.72" x2="263.5" y2="284.72"/>
        <line class="cls-50" x1="260.52" y1="286.44" x2="262.25" y2="286.44"/>
        <polygon class="cls-20" points="269.54 283.15 260.29 283.15 258.33 231.41 271.5 231.41 269.54 283.15"/>
        <rect x="259.42" y="281.27" width="11.13" height="4.23" rx="1.19"/>
        <line id="leg-8" data-name="leg" class="cls-49" x1="281.06" y1="231.41" x2="281.06" y2="289.42"/>
        <path d="M277.61,292.09h7.06V278.63a.81.81,0,0,0-.81-.81h-5.45a.8.8,0,0,0-.8.81Z"/>
        <path class="cls-9" d="M277.61,292.25h19.6v.06a3.08,3.08,0,0,0-2.35-3l-7.53-2.4,0,0a4.22,4.22,0,0,1-1.46-4.76h0a1.23,1.23,0,0,0-1.17-1.63h-7.05Z"/>
        <path d="M277.61,292.09h5.64a1.41,1.41,0,0,1,1.41,1.41v0a0,0,0,0,1,0,0h-7.06a0,0,0,0,1,0,0v-1.41A0,0,0,0,1,277.61,292.09Z" transform="translate(562.28 585.59) rotate(-180)"/>
        <path d="M286.08,292.09h9.72a1.41,1.41,0,0,1,1.41,1.41v0a0,0,0,0,1,0,0H284.67a0,0,0,0,1,0,0v0A1.41,1.41,0,0,1,286.08,292.09Z" transform="translate(581.87 585.59) rotate(-180)"/>
        <line class="cls-50" x1="285.61" y1="283" x2="283.1" y2="283"/>
        <line class="cls-50" x1="285.67" y1="284.72" x2="283.73" y2="284.72"/>
        <line class="cls-50" x1="286.7" y1="286.44" x2="284.98" y2="286.44"/>
        <polygon class="cls-20" points="277.69 282.6 286.94 282.6 288.9 231.41 275.73 231.41 277.69 282.6"/>
        <rect x="276.83" y="281.27" width="11.13" height="4.23" rx="1.19" transform="translate(564.79 566.78) rotate(-180)"/>
        <rect class="cls-20" x="258.33" y="217.46" width="30.57" height="13.95"/>
        <rect x="258.33" y="217.46" width="30.57" height="3.61"/>
        <rect class="cls-40" x="271.57" y="217.98" width="4.23" height="2.67" rx="0.62"/>
        <path class="cls-44" d="M288.9,217.46H258.33V204.13c0-6-.6-22.64-.6-22.64a7,7,0,0,1,7-7.14h18a7,7,0,0,1,7,7.14s-.55,16.21-.55,22C289.21,212.44,288.9,217.46,288.9,217.46Z"/>
        <path class="cls-41" d="M277.19,174.35s.41,4.18-3.45,4.18c-4.2,0-3.45-4.18-3.45-4.18Z"/>
        <path class="cls-51" d="M277.4,174.74a3.44,3.44,0,0,1-3.73,3.92,3.52,3.52,0,0,1-3.73-3.92h7.46Z"/>
        <g id="neck-5" data-name="neck">
          <path id="neck-6" data-name="neck" class="cls-41" d="M270.63,175.19v-9.47h6.12v9.47C276.75,177.23,270.63,177.23,270.63,175.19Z"/>
        </g>
      </g>
      <g>
        <g id="Head-11" data-name="Head">
          <rect id="SquareHead-5" data-name="SquareHead" class="cls-41" x="260.43" y="142.76" width="26.54" height="30.18" rx="13.27"/>
          <g id="ears-3" data-name="ears">
            <circle id="ear_-_L-3" data-name="ear - L" class="cls-41" cx="260.39" cy="157.79" r="2.15"/>
            <circle id="ear_-_R-3" data-name="ear - R" class="cls-41" cx="287.08" cy="157.79" r="2.15"/>
          </g>
        </g>
        <g id="Face-5" data-name="Face">
          <g id="Mouth-5" data-name="Mouth">
            <path class="cls-17" d="M273.06,167.38a4.34,4.34,0,0,1-3.28-1.16.34.34,0,0,1,0-.48.33.33,0,0,1,.47,0,4.09,4.09,0,0,0,3.42.89.35.35,0,0,1,.37.31.33.33,0,0,1-.3.36A6,6,0,0,1,273.06,167.38Z"/>
          </g>
          <g id="Eyes_v2-5" data-name="Eyes v2">
            <circle class="cls-17" cx="269.32" cy="160.23" r="0.97"/>
            <circle class="cls-17" cx="278.15" cy="160.23" r="0.97"/>
          </g>
        </g>
        <path id="Hair-3" data-name="Hair" class="cls-44" d="M286.79,154a13.21,13.21,0,0,0-26.12.05,9.23,9.23,0,0,0,7.18-6.14c2.46,4,7.81,6.69,14,6.69A20.24,20.24,0,0,0,286.79,154Z"/>
      </g>
      <path class="cls-52" d="M276.84,187.07h6.81a0,0,0,0,1,0,0v3.41a3.41,3.41,0,0,1-3.41,3.41h0a3.41,3.41,0,0,1-3.41-3.41v-3.41A0,0,0,0,1,276.84,187.07Z"/>
    </g>
    <g>
      <path class="cls-53" d="M122.81,151.32h0a13.3,13.3,0,0,1,13.3,13.3V184a0,0,0,0,1,0,0h-26.6a0,0,0,0,1,0,0V164.62A13.3,13.3,0,0,1,122.81,151.32Z"/>
      <g id="leg-9" data-name="leg">
        <path class="cls-54" d="M119.9,229.51l-1.12,57.83a1.85,1.85,0,0,1-3.69.11l-4.55-57.66a4.68,4.68,0,0,1,9.34-.74A3.54,3.54,0,0,1,119.9,229.51Z"/>
      </g>
      <g id="leg-10" data-name="leg">
        <path class="cls-40" d="M113.19,275.39a.8.8,0,0,1,.8-.8h5.42"/>
      </g>
      <path class="cls-55" d="M121.23,242.6c.23-7.26,2-22.16,2-22.16H109.13c-1.95,7.65-.31,17.17.31,22.71s3.75,33.63,3.75,33.63h6.24S121,249.86,121.23,242.6Z"/>
      <g id="leg-11" data-name="leg">
        <path class="cls-54" d="M135.34,229.79l-4.55,57.66a1.85,1.85,0,0,1-3.69-.11L126,229.51a4.69,4.69,0,1,1,9.37-.18A3.54,3.54,0,0,1,135.34,229.79Z"/>
      </g>
      <path class="cls-55" d="M124.66,242.6c-.24-7.26-2-22.16-2-22.16h14c1.95,7.65.31,17.17-.31,22.71s-4.37,33.63-4.37,33.63h-5.62S124.89,249.86,124.66,242.6Z"/>
      <path class="cls-56" d="M119.77,291.69H104.14v.05a2.44,2.44,0,0,1,1.87-2.38l3.53-1.13a16.81,16.81,0,0,0,4.6-2.3h0a4.52,4.52,0,0,0,4.77,1.18l.86-.3Z"/>
      <path class="cls-57" d="M114.14,285.93h0a4.52,4.52,0,0,0,4.77,1.18l.86-.3"/>
      <path class="cls-58" d="M104.14,291.56h15.63a0,0,0,0,1,0,0v0a1.13,1.13,0,0,1-1.13,1.13H105.26a1.13,1.13,0,0,1-1.13-1.13v0A0,0,0,0,1,104.14,291.56Z"/>
      <path class="cls-56" d="M126,291.69h15.64v.05a2.44,2.44,0,0,0-1.87-2.38l-3.53-1.13a17,17,0,0,1-4.61-2.3h0a4.5,4.5,0,0,1-4.76,1.18l-.87-.3Z"/>
      <path class="cls-57" d="M131.67,285.93h0a4.5,4.5,0,0,1-4.76,1.18l-.87-.3"/>
      <path class="cls-58" d="M127.17,291.56h13.38a1.13,1.13,0,0,1,1.13,1.13v0a0,0,0,0,1,0,0H126a0,0,0,0,1,0,0v0A1.13,1.13,0,0,1,127.17,291.56Z" transform="translate(267.72 584.25) rotate(-180)"/>
      <rect class="cls-55" x="109.13" y="220.44" width="27.47" height="9.83"/>
      <path class="cls-59" d="M113.44,183.77s-7,6.16-9,20.83c-1,7.62.78,28.56.78,28.56"/>
      <path class="cls-60" d="M113.44,183.77s-7,6.16-9,20.83c-.7,5.06-.12,16,.34,22.78"/>
      <path class="cls-59" d="M132.59,183.77s6.95,6.16,9,20.83c1.05,7.62-.78,28.56-.78,28.56"/>
      <path class="cls-60" d="M132.59,183.77s6.95,6.16,9,20.83c.7,5.06.12,16-.34,22.78"/>
      <path class="cls-61" d="M134.26,208.84a33.9,33.9,0,0,0,2.49,11.6H109.13a36,36,0,0,0,2-11.55c0-6.4-1.71-11.54-1.92-14.59-.15-2.14.12-8.59.12-8.59a8.79,8.79,0,0,1,8.52-6.62h10.28a8.79,8.79,0,0,1,8.52,6.62s.42,6.45.28,8.59C137,194.3,134.3,204.25,134.26,208.84Z"/>
      <g class="cls-62">
        <path id="neck-7" data-name="neck" class="cls-63" d="M123.51,183.54h0a.78.78,0,0,1-1,0h0a6.51,6.51,0,0,1-2.55-5.17v-6.31h6.08v6.31A6.51,6.51,0,0,1,123.51,183.54Z"/>
      </g>
      <g id="neck-8" data-name="neck">
        <path id="neck-9" data-name="neck" class="cls-54" d="M123.58,183.53h0a.9.9,0,0,1-1.08,0h0a7.11,7.11,0,0,1-2.77-5.63v-6.85h6.62v6.85A7.11,7.11,0,0,1,123.58,183.53Z"/>
      </g>
      <g id="Head-12" data-name="Head">
        <g id="Head-13" data-name="Head">
          <circle id="Head-14" data-name="Head" class="cls-54" cx="122.81" cy="164.6" r="13.28"/>
          <circle class="cls-54" cx="109.4" cy="164.82" r="2.16"/>
          <circle class="cls-54" cx="136.22" cy="164.82" r="2.16"/>
        </g>
        <g id="earrings-2" data-name="earrings">
          <circle class="cls-36" cx="109.02" cy="166.95" r="0.56"/>
          <circle class="cls-36" cx="136.6" cy="166.95" r="0.56"/>
        </g>
        <g id="Face-6" data-name="Face">
          <g id="Mouth-6" data-name="Mouth">
            <path class="cls-64" d="M123.49,173.18l-.71,0a.34.34,0,0,1,.06-.68c2.43.24,3.43-.89,3.44-.9a.34.34,0,0,1,.51.45A4.42,4.42,0,0,1,123.49,173.18Z"/>
          </g>
          <g id="Eyes_v2-6" data-name="Eyes v2">
            <circle class="cls-64" cx="127.25" cy="166" r="0.97"/>
            <circle class="cls-64" cx="118.37" cy="166" r="0.97"/>
          </g>
        </g>
      </g>
      <path id="Head-15" data-name="Head" class="cls-53" d="M136.09,164.6H136a11,11,0,0,1-10.16-6.6h0a9.45,9.45,0,0,1-3.66,3.6,20,20,0,0,1-10.66,3c-1.11,0-2,0-2,0a13.28,13.28,0,1,1,26.56,0Z"/>
      <path class="cls-36" d="M109.67,162.73s4.56-9.25,13.14-9,13.14,9,13.14,9-4.47-4.86-13.14-4.95A19.94,19.94,0,0,0,109.67,162.73Z"/>
    </g>
    <g>
      <g id="leg-12" data-name="leg">
        <path class="cls-8" d="M209.24,224a149.26,149.26,0,0,1,1.14,15.19c0,2.54.16,5.07.05,7.6s-.47,5.07-.71,7.6c-.44,5.07-.79,10.14-1.19,15.2l-1.17,15.2a2.81,2.81,0,0,1-5.61,0l-1.16-15.2c-.4-5.06-.76-10.13-1.19-15.2-.24-2.53-.62-5.06-.72-7.6s0-5.06.06-7.6A149.26,149.26,0,0,1,199.88,224a4.72,4.72,0,0,1,9.36,0Z"/>
      </g>
      <g id="leg-13" data-name="leg">
        <path class="cls-8" d="M194,224c.41,5.06.59,10.13.65,15.19,0,2.54.06,5.07,0,7.6s-.35,5.07-.52,7.6L192,284.81a2.71,2.71,0,0,1-5.4,0l-2.07-30.4c-.18-2.53-.45-5.06-.52-7.6s0-5.06,0-7.6c.06-5.06.24-10.13.65-15.19a4.69,4.69,0,0,1,9.35,0Z"/>
      </g>
      <path d="M200.82,289.49H220.3v.06a3,3,0,0,0-2.33-3l-7.49-2.39,0,0a4.19,4.19,0,0,1-1.45-4.73h0a1.23,1.23,0,0,0-1.16-1.62h-7Z"/>
      <path class="cls-9" d="M200.82,289.33h5.61a1.4,1.4,0,0,1,1.4,1.4v0a0,0,0,0,1,0,0h-7a0,0,0,0,1,0,0v-1.4A0,0,0,0,1,200.82,289.33Z" transform="translate(408.65 580.07) rotate(-180)"/>
      <path class="cls-9" d="M209.24,289.33h9.66a1.4,1.4,0,0,1,1.4,1.4v0a0,0,0,0,1,0,0H207.83a0,0,0,0,1,0,0v0A1.4,1.4,0,0,1,209.24,289.33Z" transform="translate(428.14 580.07) rotate(-180)"/>
      <line class="cls-65" x1="208.77" y1="280.29" x2="206.27" y2="280.29"/>
      <line class="cls-65" x1="208.83" y1="282" x2="206.9" y2="282"/>
      <line class="cls-65" x1="209.86" y1="283.72" x2="208.14" y2="283.72"/>
      <path d="M192.87,289.49H173.38v.06a3.06,3.06,0,0,1,2.33-3l7.49-2.39.05,0a4.2,4.2,0,0,0,1.45-4.73h0a1.22,1.22,0,0,1,1.16-1.62h7Z"/>
      <path class="cls-9" d="M185.85,289.33h7a0,0,0,0,1,0,0v0a1.4,1.4,0,0,1-1.4,1.4h-5.61a0,0,0,0,1,0,0v-1.4A0,0,0,0,1,185.85,289.33Z"/>
      <path class="cls-9" d="M173.38,289.33h12.47a0,0,0,0,1,0,0v0a1.4,1.4,0,0,1-1.4,1.4h-9.66a1.4,1.4,0,0,1-1.4-1.4v0A0,0,0,0,1,173.38,289.33Z"/>
      <line class="cls-66" x1="184.92" y1="280.29" x2="187.41" y2="280.29"/>
      <line class="cls-66" x1="184.85" y1="282" x2="186.79" y2="282"/>
      <line class="cls-66" x1="183.83" y1="283.72" x2="185.54" y2="283.72"/>
      <g>
        <g id="leg-14" data-name="leg">
          <polygon class="cls-12" points="196.43 273.08 182.7 273.08 182.46 225.89 183.05 213.26 196.45 213.26 196.43 273.08"/>
        </g>
        <g id="leg-15" data-name="leg">
          <polygon class="cls-12" points="211.14 273.08 197.41 273.08 197.39 213.26 210.79 213.26 211.39 225.89 211.14 273.08"/>
        </g>
      </g>
      <polygon class="cls-12" points="211.26 226.82 182.58 226.82 183.05 213.26 210.79 213.26 211.26 226.82"/>
      <g>
        <path class="cls-30" d="M186.7,175.14c-1.9,4.33-3.8,8.8-5.51,13.19-.83,2.2-1.62,4.42-2.22,6.53-.13.51-.31,1.06-.39,1.53l-.16.74-.13.83c-.18,1.1-.3,2.26-.43,3.42-.43,4.68-.63,9.51-.74,14.34s-.14,9.72-.07,14.54v0a3.12,3.12,0,0,1-6.23.31c-.43-4.95-.78-9.85-1-14.81s-.3-9.91-.07-15c.08-1.28.14-2.56.29-3.88l.1-1,.17-1.08c.1-.73.26-1.36.4-2a71.52,71.52,0,0,1,2.2-7.47q1.23-3.59,2.66-7.05c.95-2.33,1.94-4.58,3-6.89a4.45,4.45,0,0,1,8.09,3.7Z"/>
        <polygon class="cls-67" points="188.07 174.76 181.46 194.91 169.06 189.82 177.89 170.84 188.07 174.76"/>
        <path class="cls-68" d="M183,172.8s-1.27,2.88-2.95,6.82"/>
      </g>
      <g>
        <path class="cls-30" d="M215.7,171.39c1.09,2.31,2.08,4.56,3,6.89s1.84,4.66,2.66,7.05a69.18,69.18,0,0,1,2.2,7.47c.14.68.3,1.31.41,2l.16,1.08.11,1c.14,1.32.21,2.6.28,3.88.23,5.09.13,10.05-.07,15s-.55,9.86-1,14.81a3.12,3.12,0,0,1-6.22-.3v0c.07-4.82,0-9.71-.08-14.54s-.31-9.66-.74-14.34c-.13-1.16-.25-2.32-.43-3.42l-.13-.83-.15-.74c-.09-.47-.26-1-.39-1.53-.61-2.11-1.4-4.33-2.23-6.53-1.7-4.39-3.61-8.86-5.51-13.19l0,0a4.46,4.46,0,0,1,8.1-3.71Z"/>
        <polygon class="cls-67" points="216.44 170.84 225.26 189.82 212.86 194.91 206.25 174.76 216.44 170.84"/>
        <path class="cls-68" d="M211.34,172.8s1.27,2.88,2.95,6.82"/>
      </g>
      <path class="cls-67" d="M210.79,213.26H183.05s-.26-4.06-.26-8.46-1.46-10.56-3.17-17c-1.65-6.12-2.65-11.69-1.56-15.27.93-3.08,2.14-5.3,6.08-5.3h25.72c3.74,0,5.08,1.29,5.77,4.05a32.88,32.88,0,0,1-.47,15.9c-1.79,6-3.95,13.37-3.95,17.36S210.79,213.26,210.79,213.26Z"/>
      <g id="neck-10" data-name="neck">
        <path id="neck-11" data-name="neck" class="cls-30" d="M197.41,171.73l-.49.38-.49-.38a6.53,6.53,0,0,1-2.55-5.17v-6.3H200v6.3A6.53,6.53,0,0,1,197.41,171.73Z"/>
      </g>
      <g id="Head-16" data-name="Head">
        <rect id="SquareHead-6" data-name="SquareHead" class="cls-30" x="184.27" y="136.41" width="25.5" height="29" rx="12.75"/>
        <g id="ears-4" data-name="ears">
          <circle id="ear_-_L-4" data-name="ear - L" class="cls-30" cx="184.23" cy="150.86" r="2.06"/>
          <circle id="ear_-_R-4" data-name="ear - R" class="cls-30" cx="209.87" cy="150.86" r="2.06"/>
        </g>
      </g>
      <path id="SquareHead-7" data-name="SquareHead" class="cls-16" d="M184.39,147.05S182,166.51,197.14,166.5c14.56,0,13-19.15,13-19.15l-2.21.79-.72,7a2.69,2.69,0,0,1-2.86,2.41l-5.36-.38a26.58,26.58,0,0,0-3.68,0l-5.2.37a2.7,2.7,0,0,1-2.85-2.22l-1.31-9.27Z"/>
      <g id="Face-7" data-name="Face">
        <g id="Mouth-7" data-name="Mouth">
          <path class="cls-17" d="M196.4,160.07a4.17,4.17,0,0,1-3.15-1.11.33.33,0,0,1,0-.46.34.34,0,0,1,.46,0,3.85,3.85,0,0,0,3.28.87.33.33,0,0,1,.36.29.34.34,0,0,1-.3.35Z"/>
        </g>
        <g id="Eyes_v2-7" data-name="Eyes v2">
          <circle class="cls-17" cx="192.81" cy="153.21" r="0.93"/>
          <circle class="cls-17" cx="201.3" cy="153.21" r="0.93"/>
        </g>
      </g>
      <path id="Fringe" class="cls-17" d="M197,136.28a13.15,13.15,0,0,1,8.72,3,8.21,8.21,0,0,0,3.73,1.82c1.5.3,3.23,1.12,3.23,3.34,0,2.73-2.37,3.84-7.73,3.84-9,0-13.3-4.66-13.67-6.84h0a9,9,0,0,1-7,6A13.07,13.07,0,0,1,197,136.28Z"/>
    </g>
    <g>
      <g>
        <g>
          <path class="cls-69" d="M169.94,183.25s8.75,16.27,9.51,23.78,1.45,29.82,1.45,29.82"/>
          <path class="cls-70" d="M174.87,180.6c.92,2.11,1.73,4.11,2.54,6.19s1.56,4.14,2.28,6.25,1.38,4.25,2,6.47a34.93,34.93,0,0,1,1.25,7.17,3.47,3.47,0,0,1-6.86.94l-.05-.23a30.14,30.14,0,0,0-1.91-5.27c-.83-1.83-1.75-3.67-2.74-5.49s-2-3.64-3.07-5.44-2.18-3.61-3.27-5.28a5.62,5.62,0,1,1,9.42-6.14,5.55,5.55,0,0,1,.43.79Z"/>
          <path class="cls-71" d="M179.45,207c.77,7.52,1.35,26.9,1.35,26.9"/>
        </g>
        <line id="leg-16" data-name="leg" class="cls-72" x1="152.2" y1="232.19" x2="152.2" y2="288.96"/>
        <path d="M155.73,291.56h-6.91V278.39a.79.79,0,0,1,.79-.79h5.33a.8.8,0,0,1,.79.79Z"/>
        <path class="cls-9" d="M155.73,291.72H136.55v.06a3,3,0,0,1,2.29-2.92l7.37-2.36,0,0a4.16,4.16,0,0,0,1.43-4.66h0a1.21,1.21,0,0,1,1.14-1.6h6.9Z"/>
        <path d="M148.82,291.56h6.9a0,0,0,0,1,0,0v0a1.38,1.38,0,0,1-1.38,1.38h-5.52a0,0,0,0,1,0,0v-1.38A0,0,0,0,1,148.82,291.56Z"/>
        <path d="M136.55,291.56h12.27a0,0,0,0,1,0,0v0a1.38,1.38,0,0,1-1.38,1.38h-9.51a1.38,1.38,0,0,1-1.38-1.38v0A0,0,0,0,1,136.55,291.56Z"/>
        <line class="cls-73" x1="147.9" y1="282.67" x2="150.36" y2="282.67"/>
        <line class="cls-73" x1="147.84" y1="284.35" x2="149.74" y2="284.35"/>
        <line class="cls-73" x1="146.83" y1="286.04" x2="148.51" y2="286.04"/>
        <polygon class="cls-40" points="155.65 282.82 146.6 282.82 144.68 232.19 157.57 232.19 155.65 282.82"/>
        <rect x="145.75" y="280.98" width="10.89" height="4.14" rx="1.17"/>
        <line id="leg-17" data-name="leg" class="cls-72" x1="166.92" y1="232.19" x2="166.92" y2="288.96"/>
        <path d="M163.55,291.56h6.9V278.39a.79.79,0,0,0-.78-.79h-5.33a.79.79,0,0,0-.79.79Z"/>
        <path class="cls-9" d="M163.55,291.72h19.18v.06a3,3,0,0,0-2.3-2.92l-7.37-2.36,0,0a4.13,4.13,0,0,1-1.43-4.66h0a1.21,1.21,0,0,0-1.14-1.6h-6.9Z"/>
        <path d="M163.55,291.56h5.52a1.38,1.38,0,0,1,1.38,1.38v0a0,0,0,0,1,0,0h-6.9a0,0,0,0,1,0,0v-1.38A0,0,0,0,1,163.55,291.56Z" transform="translate(334 584.51) rotate(-180)"/>
        <path d="M171.83,291.56h9.51a1.38,1.38,0,0,1,1.38,1.38v0a0,0,0,0,1,0,0H170.45a0,0,0,0,1,0,0v0A1.38,1.38,0,0,1,171.83,291.56Z" transform="translate(353.18 584.51) rotate(180)"/>
        <line class="cls-73" x1="171.37" y1="282.67" x2="168.92" y2="282.67"/>
        <line class="cls-73" x1="171.44" y1="284.35" x2="169.53" y2="284.35"/>
        <line class="cls-73" x1="172.45" y1="286.04" x2="170.76" y2="286.04"/>
        <polygon class="cls-40" points="163.63 282.28 172.68 282.28 174.6 232.19 161.71 232.19 163.63 282.28"/>
        <rect x="162.78" y="280.98" width="10.89" height="4.14" rx="1.17" transform="translate(336.46 566.1) rotate(-180)"/>
        <rect class="cls-70" x="144.68" y="218.54" width="29.92" height="13.65"/>
        <rect class="cls-40" x="144.68" y="226.75" width="29.92" height="6.43"/>
        <path class="cls-70" d="M174.6,218.54H144.68v-13c0-5.91-.59-22.16-.59-22.16a6.88,6.88,0,0,1,6.88-7h17.59a6.88,6.88,0,0,1,6.88,7s-.54,15.87-.54,21.54C174.9,213.63,174.6,218.54,174.6,218.54Z"/>
        <path class="cls-54" d="M163.14,176.35s.4,4.09-3.37,4.09c-4.12,0-3.38-4.09-3.38-4.09Z"/>
        <path class="cls-74" d="M163.34,176.73a3.36,3.36,0,0,1-3.65,3.84,3.45,3.45,0,0,1-3.65-3.84h7.3Z"/>
        <g id="neck-12" data-name="neck">
          <path id="neck-13" data-name="neck" class="cls-54" d="M156.72,177.18v-9.27h6v9.27C162.71,179.17,156.72,179.17,156.72,177.18Z"/>
        </g>
        <g>
          <path class="cls-69" d="M149.6,182.79s-8.74,16.27-9.51,23.78-1.44,29.82-1.44,29.82"/>
          <path class="cls-70" d="M154.53,185.45c-1.09,1.67-2.21,3.5-3.27,5.28s-2.09,3.62-3.07,5.44-1.91,3.66-2.73,5.49a28.6,28.6,0,0,0-1.91,5.27l-.06.23a3.47,3.47,0,0,1-6.86-.94,34.93,34.93,0,0,1,1.25-7.17c.59-2.22,1.25-4.37,2-6.47s1.48-4.2,2.28-6.26,1.61-4.07,2.53-6.18h0a5.62,5.62,0,1,1,10.3,4.5A5.85,5.85,0,0,1,154.53,185.45Z"/>
          <path class="cls-71" d="M140.09,206.57c-.77,7.52-1.34,26.9-1.34,26.9"/>
        </g>
      </g>
      <path class="cls-75" d="M162.94,188.53H170a0,0,0,0,1,0,0v3.53a3.53,3.53,0,0,1-3.53,3.53h0a3.53,3.53,0,0,1-3.53-3.53v-3.53A0,0,0,0,1,162.94,188.53Z"/>
      <g>
        <circle class="cls-75" cx="152.79" cy="151.12" r="0.33"/>
        <circle class="cls-75" cx="152.79" cy="149.37" r="0.33"/>
        <circle class="cls-75" cx="151.23" cy="150.05" r="0.33"/>
        <g class="cls-76">
          <path class="cls-75" d="M150,150.82a.32.32,0,0,1-.32.33.32.32,0,0,1-.33-.32.34.34,0,0,1,.33-.34A.32.32,0,0,1,150,150.82Z"/>
        </g>
        <g>
          <g id="Head-17" data-name="Head">
            <rect id="SquareHead-8" data-name="SquareHead" class="cls-54" x="146.61" y="145.85" width="26.57" height="30.22" rx="13.29"/>
            <g id="ears-5" data-name="ears">
              <circle id="ear_-_L-5" data-name="ear - L" class="cls-54" cx="146.57" cy="160.9" r="2.15"/>
              <circle id="ear_-_R-5" data-name="ear - R" class="cls-54" cx="173.29" cy="160.9" r="2.15"/>
            </g>
          </g>
          <g id="Face-8" data-name="Face">
            <g id="Mouth-8" data-name="Mouth">
              <path class="cls-17" d="M159.25,170.5a4.34,4.34,0,0,1-3.28-1.16.34.34,0,1,1,.51-.44s1,1.13,3.42.89a.35.35,0,0,1,.37.31.34.34,0,0,1-.31.37Z"/>
            </g>
            <g id="Eyes_v2-8" data-name="Eyes v2">
              <circle class="cls-17" cx="155.51" cy="163.35" r="0.97"/>
              <circle class="cls-17" cx="164.36" cy="163.35" r="0.97"/>
            </g>
          </g>
          <path id="Fringe-2" data-name="Fringe" class="cls-75" d="M159.79,145.85c11.36,0,11.92,8.06,15.92,4.56,0,0,1.75,8.06-7.77,7.8-9.2-.25-14-2.9-14-7C153.92,151.17,153.15,145.85,159.79,145.85Z"/>
          <circle class="cls-75" cx="149.68" cy="152.43" r="0.33"/>
          <circle class="cls-75" cx="151.23" cy="151.8" r="0.33"/>
          <circle class="cls-75" cx="152.8" cy="152.77" r="0.33"/>
          <circle class="cls-75" cx="149.65" cy="154.24" r="0.33"/>
          <circle class="cls-75" cx="149.65" cy="156.06" r="0.33"/>
          <circle class="cls-75" cx="148.2" cy="153.9" r="0.33"/>
          <circle class="cls-75" cx="148.18" cy="155.71" r="0.33"/>
          <circle class="cls-75" cx="148.18" cy="157.54" r="0.33"/>
          <circle class="cls-75" cx="151.23" cy="153.58" r="0.33"/>
          <circle class="cls-75" cx="151.23" cy="155.34" r="0.33"/>
          <circle class="cls-75" cx="152.84" cy="154.57" r="0.33"/>
          <circle class="cls-77" cx="155.48" cy="163.34" r="3.44"/>
          <circle class="cls-77" cx="164.45" cy="163.34" r="3.44"/>
          <line class="cls-77" x1="158.88" y1="163.31" x2="160.98" y2="163.31"/>
        </g>
      </g>
    </g>
    <g>
      <g id="leg-18" data-name="leg">
        <path class="cls-78" d="M232.42,230.57l-1.12,57.88a1.85,1.85,0,0,1-3.69.11l-4.55-57.71a4.69,4.69,0,1,1,9.35-.74A3.53,3.53,0,0,1,232.42,230.57Z"/>
      </g>
      <path class="cls-61" d="M233.75,243.67c.24-7.26,2-22.18,2-22.18H221.65c-2,7.65-.32,17.18.31,22.73s5.31,44.36,5.31,44.36l4.69.08S233.52,250.94,233.75,243.67Z"/>
      <g id="leg-19" data-name="leg">
        <path class="cls-78" d="M247.89,230.85l-4.56,57.71a1.85,1.85,0,0,1-3.69-.11l-1.12-57.88a4.69,4.69,0,1,1,9.38-.18C247.9,230.54,247.9,230.7,247.89,230.85Z"/>
      </g>
      <path class="cls-61" d="M237.19,243.67c-.24-7.26-1.95-22.18-1.95-22.18h14c2,7.65.32,17.18-.31,22.73s-5.23,44.21-5.23,44.21l-4.71.18S237.42,250.94,237.19,243.67Z"/>
      <rect class="cls-61" x="221.65" y="221.49" width="27.49" height="13.76"/>
      <path class="cls-79" d="M226,184.78s-7,6.17-9,20.85c-1.05,7.63.79,28.59.79,28.59"/>
      <path class="cls-80" d="M226,184.78s-7,6.17-9,20.85c-.7,5.07-.12,16,.34,22.8"/>
      <path class="cls-79" d="M245.13,184.78s7,6.17,9,20.85c1.06,7.63-.78,28.59-.78,28.59"/>
      <path class="cls-80" d="M245.13,184.78s7,6.17,9,20.85c.7,5.07.13,16-.34,22.8"/>
      <path class="cls-44" d="M246.8,209.88a33.88,33.88,0,0,0,2.5,11.61H221.65a36.1,36.1,0,0,0,2-11.56c0-6.4-1.71-11.55-1.92-14.61-.15-2.14.12-8.59.12-8.59a8.8,8.8,0,0,1,8.52-6.64h10.3a8.8,8.8,0,0,1,8.52,6.64s.43,6.45.28,8.59C249.5,195.32,246.84,205.29,246.8,209.88Z"/>
      <path class="cls-1" d="M246.8,209.88a33.88,33.88,0,0,0,2.5,11.61H221.65a36.1,36.1,0,0,0,2-11.56c0-6.4-1.71-11.55-1.92-14.61-.15-2.14.12-8.59.12-8.59a8.8,8.8,0,0,1,8.52-6.64h10.3a8.8,8.8,0,0,1,8.52,6.64s.43,6.45.28,8.59C249.5,195.32,246.84,205.29,246.8,209.88Z"/>
      <circle class="cls-81" cx="224.69" cy="171.53" r="2.94"/>
      <circle class="cls-81" cx="227.82" cy="173.87" r="2.94"/>
      <circle class="cls-81" cx="230.79" cy="175.9" r="2.94"/>
      <circle class="cls-81" cx="222.51" cy="167.15" r="2.94"/>
      <circle class="cls-81" cx="221.26" cy="162.31" r="2.94"/>
      <circle class="cls-81" cx="220.94" cy="157.78" r="2.94"/>
      <circle class="cls-81" cx="222.19" cy="153.87" r="2.94"/>
      <circle class="cls-81" cx="225.01" cy="150.13" r="2.94"/>
      <circle class="cls-81" cx="229.38" cy="148.41" r="2.94"/>
      <circle class="cls-81" cx="234.53" cy="147.31" r="2.94"/>
      <circle class="cls-81" cx="247.19" cy="151.38" r="2.94"/>
      <circle class="cls-81" cx="249.06" cy="155.44" r="2.94"/>
      <circle class="cls-81" cx="249.38" cy="159.81" r="2.94"/>
      <circle class="cls-81" cx="248.59" cy="164.65" r="2.94"/>
      <circle class="cls-81" cx="247.34" cy="169.18" r="2.94"/>
      <circle class="cls-81" cx="244.53" cy="173.71" r="2.94"/>
      <circle class="cls-81" cx="240.78" cy="175.59" r="2.94"/>
      <circle class="cls-81" cx="237.66" cy="176.68" r="2.94"/>
      <circle class="cls-81" cx="233.44" cy="176.84" r="2.94"/>
      <path id="neck-14" data-name="neck" class="cls-82" d="M233.49,180.71v-6.92H238v6.92C238,182.2,233.49,182.2,233.49,180.71Z"/>
      <path class="cls-44" d="M232.86,292.55H214.51v.06a2.87,2.87,0,0,1,2.2-2.79l4.14-1.33a20,20,0,0,0,5.41-2.69h0a5.28,5.28,0,0,0,5.58,1.38l1-.35Z"/>
      <path class="cls-83" d="M226.26,285.8h0a5.28,5.28,0,0,0,5.58,1.38l1-.35"/>
      <path class="cls-52" d="M214.51,292.4h18.35a0,0,0,0,1,0,0v0a1.32,1.32,0,0,1-1.32,1.32h-15.7a1.32,1.32,0,0,1-1.32-1.32v0A0,0,0,0,1,214.51,292.4Z"/>
      <line class="cls-84" x1="220.38" y1="289.47" x2="222.15" y2="291.23"/>
      <line class="cls-85" x1="222.46" y1="288.9" x2="224.81" y2="291.25"/>
      <line class="cls-85" x1="224.2" y1="288.15" x2="227.28" y2="291.23"/>
      <path class="cls-44" d="M238.18,292.55h18.35v.06a2.87,2.87,0,0,0-2.2-2.79l-4.14-1.33a19.77,19.77,0,0,1-5.4-2.69h0a5.3,5.3,0,0,1-5.59,1.38l-1-.35Z"/>
      <path class="cls-83" d="M244.79,285.8h0a5.3,5.3,0,0,1-5.59,1.38l-1-.35"/>
      <path class="cls-52" d="M239.5,292.4h15.7a1.32,1.32,0,0,1,1.32,1.32v0a0,0,0,0,1,0,0H238.18a0,0,0,0,1,0,0v0A1.32,1.32,0,0,1,239.5,292.4Z" transform="translate(494.71 586.13) rotate(180)"/>
      <line class="cls-84" x1="250.66" y1="289.47" x2="248.9" y2="291.23"/>
      <line class="cls-85" x1="248.58" y1="288.9" x2="246.24" y2="291.25"/>
      <line class="cls-85" x1="246.84" y1="288.15" x2="243.76" y2="291.23"/>
      <g>
        <circle id="Head-18" data-name="Head" class="cls-82" cx="235.2" cy="165.17" r="13.26"/>
        <circle class="cls-86" cx="224.04" cy="159.59" r="2.8"/>
        <circle class="cls-86" cx="227.31" cy="156.32" r="2.8"/>
        <circle class="cls-86" cx="231.17" cy="153.79" r="2.8"/>
        <circle class="cls-86" cx="235.18" cy="153.35" r="2.8"/>
        <circle class="cls-86" cx="239.34" cy="153.94" r="2.8"/>
        <circle class="cls-86" cx="243.2" cy="155.87" r="2.8"/>
        <circle class="cls-86" cx="247.06" cy="159.29" r="2.8"/>
        <circle class="cls-86" cx="224.93" cy="156.62" r="2.8"/>
        <circle class="cls-87" cx="228.04" cy="152.91" r="3.09"/>
        <circle class="cls-86" cx="232.5" cy="151.27" r="2.8"/>
        <circle class="cls-86" cx="239.64" cy="148.59" r="2.8"/>
        <circle class="cls-86" cx="243.2" cy="150.82" r="2.8"/>
        <circle class="cls-86" cx="237.41" cy="151.12" r="2.8"/>
        <circle class="cls-86" cx="242.16" cy="152.6" r="2.8"/>
        <circle class="cls-86" cx="246.02" cy="155.28" r="2.8"/>
      </g>
      <g id="Head-19" data-name="Head">
        <g id="Head-20" data-name="Head">
          <circle class="cls-82" cx="221.11" cy="165.44" r="2.26"/>
          <circle class="cls-82" cx="249.26" cy="165.44" r="2.26"/>
        </g>
        <g id="earrings-3" data-name="earrings">
          <circle class="cls-34" cx="220.71" cy="167.67" r="0.59"/>
          <circle class="cls-34" cx="249.66" cy="167.67" r="0.59"/>
        </g>
        <g id="Face-9" data-name="Face">
          <g id="Mouth-9" data-name="Mouth">
            <path class="cls-17" d="M235.9,174.22a6.51,6.51,0,0,1-.75,0,.35.35,0,1,1,.07-.7c2.54.24,3.59-.94,3.6-.95a.36.36,0,0,1,.54.47A4.63,4.63,0,0,1,235.9,174.22Z"/>
          </g>
          <g id="Eyes_v2-9" data-name="Eyes v2">
            <circle class="cls-17" cx="239.85" cy="166.68" r="1.02"/>
            <circle class="cls-17" cx="230.52" cy="166.68" r="1.02"/>
          </g>
        </g>
        <circle class="cls-17" cx="243.39" cy="150.09" r="4.28"/>
      </g>
    </g>
  </g>
</svg>
