<svg xmlns="http://www.w3.org/2000/svg" xmlns:xlink="http://www.w3.org/1999/xlink" width="400" height="331" viewBox="0 0 400 331">
  <defs>
    <style>
      .cls-1, .cls-19, .cls-24, .cls-25, .cls-27 {
        fill: none;
      }

      .cls-2 {
        fill: #9ea5b5;
      }

      .cls-3 {
        fill: #12110b;
      }

      .cls-4 {
        fill: #fff;
      }

      .cls-5 {
        fill: #ecedf0;
      }

      .cls-6 {
        fill: #f1f6fc;
      }

      .cls-7 {
        fill: #2e2d33;
      }

      .cls-8 {
        fill: #cecfd9;
      }

      .cls-9 {
        fill: #13120d;
      }

      .cls-10 {
        fill: #464551;
      }

      .cls-11 {
        fill: #9ea1ab;
      }

      .cls-12 {
        fill: #eff1f6;
      }

      .cls-13 {
        fill: #cbcfda;
      }

      .cls-14, .cls-32 {
        opacity: 0.1;
      }

      .cls-15 {
        fill: #414b5b;
      }

      .cls-16 {
        fill: #ea5e65;
      }

      .cls-17 {
        fill: #f5d010;
      }

      .cls-18 {
        fill: #5bc4bf;
      }

      .cls-19 {
        stroke: #bcbcbc;
        stroke-width: 0.46px;
      }

      .cls-19, .cls-24 {
        stroke-linecap: round;
      }

      .cls-19, .cls-24, .cls-25 {
        stroke-linejoin: round;
      }

      .cls-20 {
        fill: #bcbcbc;
      }

      .cls-21 {
        fill: #061b40;
      }

      .cls-22 {
        clip-path: url(#clip-path);
      }

      .cls-23 {
        fill: #f6de93;
      }

      .cls-24 {
        stroke: #e49a70;
      }

      .cls-24, .cls-25 {
        stroke-width: 4.93px;
      }

      .cls-25 {
        stroke: #9e3433;
        stroke-linecap: square;
      }

      .cls-26 {
        clip-path: url(#clip-path-2);
      }

      .cls-27 {
        stroke: #4c1919;
        stroke-miterlimit: 10;
        stroke-width: 1.49px;
      }

      .cls-28 {
        fill: #e49a70;
      }

      .cls-29 {
        fill: #5faa97;
      }

      .cls-30 {
        fill: #3f220f;
      }

      .cls-31 {
        fill: #74c8bf;
      }
    </style>
    <clipPath id="clip-path">
      <circle id="Mask" class="cls-1" cx="87.86" cy="207.12" r="73.21"/>
    </clipPath>
    <clipPath id="clip-path-2">
      <path class="cls-1" d="M124.59,335.17c-.17,18.36,8.16,37.9,8.16,37.9H42.51a117.7,117.7,0,0,0,6.63-37.73c0-20.9-5.58-37.7-6.28-47.66-.49-7,.41-28.06.41-28.06A28.69,28.69,0,0,1,71.09,238h33.59a28.71,28.71,0,0,1,27.82,21.65s1.38,21.05.91,28.05C133.41,287.67,124.73,320.19,124.59,335.17Z"/>
    </clipPath>
  </defs>
  <title>img-13</title>
  <g id="platform">
    <path class="cls-2" d="M400,296.23q-98.67-9.8-200-9.89T0,296.23V331H400Z"/>
    <g>
      <g>
        <g>
          <path class="cls-3" d="M360.62,274.2a7.94,7.94,0,0,1-7.7,8.16h-219a7.93,7.93,0,0,1-7.69-8.16V124.5a7.93,7.93,0,0,1,7.69-8.16h219a7.94,7.94,0,0,1,7.7,8.16Z"/>
          <rect class="cls-4" x="135.63" y="125.73" width="216.35" height="136.35"/>
          <rect class="cls-5" x="135.63" y="189.75" width="216.35" height="72.33"/>
          <path class="cls-6" d="M126.24,268.38l-24.57,21.87s-.54,4.07.15,5.63,1.5,2.63,4.88,3,276.08,0,276.08,0a22.74,22.74,0,0,0,3.69-2.48A4.88,4.88,0,0,0,388,292.5v-1.88l-27.42-22.91Z"/>
          <path class="cls-7" d="M104.45,298.89s4.45,2.75,8.64,3H377.9s4.48-1.65,6-3.07S104.45,298.89,104.45,298.89Z"/>
          <path class="cls-8" d="M101.67,290.25s-.73,3.57.15,5.63a6.42,6.42,0,0,0,2.91,3.17l279.15-.23a12,12,0,0,0,3-2.49c1.6-1.6,1.16-5.71,1.16-5.71Z"/>
          <polygon class="cls-9" points="153.66 271.47 146.39 278.6 158.85 278.6 160.36 277.43 160.95 277.45 159.95 278.6 172.66 278.6 173.38 277.79 173.86 277.78 173.56 278.6 185.62 278.6 186.34 277.88 186.91 277.84 186.4 278.6 203.35 278.6 204.42 277.7 205.13 277.66 204.29 278.6 269.22 278.6 268.17 277.44 268.7 277.43 269.97 278.6 286.81 278.6 286.05 277.67 286.54 277.61 287.61 278.6 300.15 278.6 299.46 277.66 300.04 277.63 300.87 278.6 313.29 278.6 312.78 277.68 313.34 277.67 314.04 278.6 326.81 278.6 326.25 277.57 326.77 277.57 327.47 278.6 340.34 278.6 333.95 271.47 308.79 271.3 308.03 271.97 307.35 271.3 295.89 271.3 295.39 272.09 294.57 271.3 283.06 271.3 282.37 271.91 281.49 271.3 270.6 271.3 269.97 272.22 269.41 271.3 257.33 271.3 256.51 272.34 256.01 271.3 244.91 271.47 243.8 272.41 242.68 271.47 231.78 271.47 230.84 272.22 229.91 271.47 220.23 271.3 219.29 272.31 218.26 271.3 205.68 271.3 204.83 272.22 203.99 271.3 193.1 271.47 191.97 272.34 191.22 271.47 179.39 271.3 178.13 272.17 177.23 271.3 165.49 271.3 164.36 272.22 163.8 271.3 153.66 271.47"/>
          <path class="cls-10" d="M372.77,293.75a.88.88,0,0,1-.88.88h-7.76a.87.87,0,0,1-.88-.88h0a.87.87,0,0,1,.88-.87h7.76a.88.88,0,0,1,.88.87Z"/>
          <path class="cls-11" d="M263.34,290.62a1.25,1.25,0,0,1-1.26,1.26H225.77a1.25,1.25,0,0,1-1.25-1.26h0a1.25,1.25,0,0,1,1.25-1.25h36.31a1.25,1.25,0,0,1,1.26,1.25Z"/>
          <path class="cls-12" d="M262.08,292.82a.94.94,0,0,1-.94.93H228a.94.94,0,0,1-.94-.93h0c0-.52-.1-.94.42-.94h34.21c.52,0,.42.42.42.94Z"/>
          <path class="cls-13" d="M206.9,278.6s-4.66,7.27-3.91,8.52,2.88,1.13,2.88,1.13l74.56,0s2.8.2,3.65-1.51c1-2.09-3.75-8.1-3.75-8.1Z"/>
        </g>
        <g>
          <path class="cls-14" d="M163.43,120.52V241.57a8.06,8.06,0,0,0,8.06,8.06H321.84a8.05,8.05,0,0,0,8.05-8.06v-121Z"/>
          <rect class="cls-5" x="155.14" y="66.37" width="166.86" height="170.74" rx="8.07"/>
          <path class="cls-15" d="M322,81.26V74.44a8.07,8.07,0,0,0-8.08-8.07H163.21a8.07,8.07,0,0,0-8.07,8.07v6.82Z"/>
          <path class="cls-16" d="M293,73.81a3,3,0,1,0,3-3A3,3,0,0,0,293,73.81Z"/>
          <path class="cls-17" d="M304.41,73.81a3,3,0,1,0,3-3A3,3,0,0,0,304.41,73.81Z"/>
          <path class="cls-18" d="M281.35,73.81a3,3,0,1,0,3-3A3,3,0,0,0,281.35,73.81Z"/>
          <path class="cls-4" d="M235.45,73.81A3.15,3.15,0,0,1,232.3,77H173.19a3.15,3.15,0,0,1-3.14-3.15h0a3.15,3.15,0,0,1,3.14-3.14H232.3a3.15,3.15,0,0,1,3.15,3.14Z"/>
          <line class="cls-19" x1="167.26" y1="139.73" x2="309.87" y2="139.73"/>
          <g>
            <path d="M179.42,115.56l1.9-10h2.9l-3.13,14.11h-2.93l-2.3-9.44-2.29,9.44h-2.93l-3.13-14.11h2.9l1.91,10,2.32-10h2.46Z"/>
            <path d="M190.13,119.82a5.17,5.17,0,0,1-3.76-1.41,5.06,5.06,0,0,1-1.45-3.77v-.27a6.3,6.3,0,0,1,.62-2.83,4.46,4.46,0,0,1,1.72-1.92,4.87,4.87,0,0,1,2.56-.67,4.38,4.38,0,0,1,3.39,1.35,5.55,5.55,0,0,1,1.23,3.85v1.15h-6.68a2.61,2.61,0,0,0,.82,1.64,2.47,2.47,0,0,0,1.73.62,3,3,0,0,0,2.53-1.17l1.38,1.54a4.13,4.13,0,0,1-1.71,1.39A5.46,5.46,0,0,1,190.13,119.82Zm-.32-8.61a1.72,1.72,0,0,0-1.35.56,3,3,0,0,0-.67,1.62h3.9v-.23a2.07,2.07,0,0,0-.5-1.44A1.83,1.83,0,0,0,189.81,111.21Z"/>
            <path d="M199,119.63h-2.81V104.74H199Z"/>
            <path d="M204.25,119.63h-2.81V104.74h2.81Z"/>
            <path d="M211.06,114.31a6.35,6.35,0,0,1,1.1-3.91,3.58,3.58,0,0,1,3-1.45,3.21,3.21,0,0,1,2.53,1.14v-5.35h2.81v14.89H218l-.13-1.12a3.29,3.29,0,0,1-2.7,1.31,3.55,3.55,0,0,1-3-1.46A6.54,6.54,0,0,1,211.06,114.31Zm2.8.21a4.17,4.17,0,0,0,.52,2.26,1.67,1.67,0,0,0,1.49.78,1.86,1.86,0,0,0,1.83-1.09v-4.15a1.84,1.84,0,0,0-1.81-1.09C214.54,111.23,213.86,112.32,213.86,114.52Z"/>
            <path d="M222.25,114.29a6.21,6.21,0,0,1,.6-2.78,4.35,4.35,0,0,1,1.73-1.89,5,5,0,0,1,2.62-.67,4.75,4.75,0,0,1,3.46,1.3,5.16,5.16,0,0,1,1.5,3.53l0,.71a5.46,5.46,0,0,1-1.35,3.87,4.64,4.64,0,0,1-3.61,1.46,4.7,4.7,0,0,1-3.62-1.45,5.59,5.59,0,0,1-1.35-4Zm2.8.2a3.93,3.93,0,0,0,.56,2.28,2,2,0,0,0,3.2,0,4.29,4.29,0,0,0,.57-2.5,3.91,3.91,0,0,0-.57-2.27,1.85,1.85,0,0,0-1.61-.8,1.8,1.8,0,0,0-1.59.8A4.39,4.39,0,0,0,225.05,114.49Z"/>
            <path d="M236.48,109.14l.09,1.21a3.68,3.68,0,0,1,3-1.4,3.07,3.07,0,0,1,2.49,1,4.54,4.54,0,0,1,.83,2.92v6.78h-2.8v-6.71a1.81,1.81,0,0,0-.39-1.29,1.73,1.73,0,0,0-1.29-.4,1.91,1.91,0,0,0-1.77,1v7.4h-2.8V109.14Z"/>
            <path d="M249.85,119.82a5.17,5.17,0,0,1-3.76-1.41,5.06,5.06,0,0,1-1.45-3.77v-.27a6.43,6.43,0,0,1,.61-2.83,4.55,4.55,0,0,1,1.73-1.92,4.87,4.87,0,0,1,2.56-.67,4.38,4.38,0,0,1,3.39,1.35,5.55,5.55,0,0,1,1.23,3.85v1.15h-6.68a2.61,2.61,0,0,0,.82,1.64,2.45,2.45,0,0,0,1.73.62,3,3,0,0,0,2.53-1.17l1.38,1.54a4.13,4.13,0,0,1-1.71,1.39A5.46,5.46,0,0,1,249.85,119.82Zm-.32-8.61a1.72,1.72,0,0,0-1.35.56,3,3,0,0,0-.67,1.62h3.9v-.23a2.07,2.07,0,0,0-.5-1.44A1.83,1.83,0,0,0,249.53,111.21Z"/>
            <path d="M257.44,116.83a1.61,1.61,0,0,1,1.14.41,1.46,1.46,0,0,1,.43,1.07,1.44,1.44,0,0,1-.43,1.06,1.61,1.61,0,0,1-1.14.41,1.58,1.58,0,0,1-1.13-.41,1.52,1.52,0,0,1,0-2.12A1.55,1.55,0,0,1,257.44,116.83Zm1.16-1.53h-2.33l-.33-9.78h3Z"/>
          </g>
        </g>
        <g>
          <g>
            <path d="M275.79,160.9A2,2,0,0,1,277.2,159v0a1.77,1.77,0,0,1-1.13-1.6,2,2,0,0,1,2.2-1.9,1.84,1.84,0,0,1,2.07,1.75,1.8,1.8,0,0,1-1.17,1.67v0a2,2,0,0,1,1.43,1.84,2.19,2.19,0,0,1-2.42,2.07C276.68,162.82,275.79,161.94,275.79,160.9Zm3.83-.05c0-.86-.6-1.28-1.57-1.55a1.55,1.55,0,0,0-1.28,1.47,1.32,1.32,0,0,0,1.43,1.35A1.28,1.28,0,0,0,279.62,160.85ZM277,157.29c0,.71.54,1.1,1.36,1.32a1.41,1.41,0,0,0,1.08-1.3,1.1,1.1,0,0,0-1.2-1.16A1.14,1.14,0,0,0,277,157.29Z"/>
            <path d="M282.06,162a3.67,3.67,0,0,0,.77,0,2.58,2.58,0,0,0,1.49-.69,3.16,3.16,0,0,0,.95-1.89h0a2.14,2.14,0,0,1-3.78-1.42,2.45,2.45,0,0,1,2.43-2.53c1.46,0,2.36,1.19,2.36,3a4.52,4.52,0,0,1-1.23,3.35,3.58,3.58,0,0,1-2.07.95,4.83,4.83,0,0,1-.88.05Zm.35-4.1a1.37,1.37,0,0,0,1.37,1.51,1.61,1.61,0,0,0,1.4-.74.7.7,0,0,0,.09-.36c0-1.21-.45-2.14-1.46-2.14C283,156.2,282.41,156.92,282.41,157.93Z"/>
            <path d="M286.62,163.14l3.05-7.94h.75l-3.07,7.94Z"/>
            <path d="M293,156.48h0l-1.24.67-.18-.73,1.55-.84h.82v7.13H293Z"/>
            <path d="M301.24,159.07c0,2.42-.9,3.75-2.48,3.75-1.39,0-2.33-1.3-2.35-3.65s1-3.71,2.47-3.71S301.24,156.8,301.24,159.07Zm-3.87.11c0,1.85.57,2.9,1.45,2.9s1.45-1.15,1.45-3-.45-2.9-1.44-2.9S297.37,157.24,297.37,159.18Z"/>
            <path d="M306.86,159.07c0,2.42-.9,3.75-2.48,3.75-1.39,0-2.33-1.3-2.35-3.65s1-3.71,2.47-3.71S306.86,156.8,306.86,159.07Zm-3.87.11c0,1.85.57,2.9,1.45,2.9s1.46-1.15,1.46-3-.45-2.9-1.45-2.9C303.61,156.21,303,157.24,303,159.18Z"/>
            <path d="M276.43,183.08a3.63,3.63,0,0,0,.78,0,2.74,2.74,0,0,0,1.49-.69,3.12,3.12,0,0,0,.94-1.9h0a2.09,2.09,0,0,1-1.68.77,2.06,2.06,0,0,1-2.1-2.18,2.44,2.44,0,0,1,2.43-2.53c1.46,0,2.36,1.18,2.36,3a4.48,4.48,0,0,1-1.23,3.34,3.56,3.56,0,0,1-2.07,1,4.94,4.94,0,0,1-.89.05Zm.35-4.09a1.37,1.37,0,0,0,1.37,1.51,1.58,1.58,0,0,0,1.4-.75.61.61,0,0,0,.09-.35c0-1.21-.45-2.15-1.46-2.15C277.36,177.25,276.78,178,276.78,179Z"/>
            <path d="M285.75,177.45H283l-.27,1.83a4,4,0,0,1,.58,0,3,3,0,0,1,1.53.38,2,2,0,0,1,1,1.83,2.47,2.47,0,0,1-2.65,2.43,3.61,3.61,0,0,1-1.78-.43l.25-.74a3.09,3.09,0,0,0,1.52.4,1.58,1.58,0,0,0,1.69-1.55c0-.92-.63-1.58-2.05-1.58a7.74,7.74,0,0,0-1,.08l.46-3.42h3.41Z"/>
            <path d="M286.62,184.2l3.05-7.94h.75l-3.07,7.94Z"/>
            <path d="M293,177.54h0l-1.24.67-.18-.74,1.55-.83h.82v7.12H293Z"/>
            <path d="M301.24,180.12c0,2.43-.9,3.76-2.48,3.76-1.39,0-2.33-1.3-2.35-3.66s1-3.7,2.47-3.7S301.24,177.86,301.24,180.12Zm-3.87.11c0,1.86.57,2.91,1.45,2.91s1.45-1.15,1.45-3-.45-2.9-1.44-2.9S297.37,178.29,297.37,180.23Z"/>
            <path d="M306.86,180.12c0,2.43-.9,3.76-2.48,3.76-1.39,0-2.33-1.3-2.35-3.66s1-3.7,2.47-3.7S306.86,177.86,306.86,180.12Zm-3.87.11c0,1.86.57,2.91,1.45,2.91s1.46-1.15,1.46-3-.45-2.9-1.45-2.9C303.61,177.27,303,178.29,303,180.23Z"/>
            <path d="M276.43,204.14a4.43,4.43,0,0,0,.78,0,2.74,2.74,0,0,0,1.49-.69,3.12,3.12,0,0,0,.94-1.9h0a2.12,2.12,0,0,1-1.68.77,2.06,2.06,0,0,1-2.1-2.18,2.44,2.44,0,0,1,2.43-2.53c1.46,0,2.36,1.18,2.36,3a4.5,4.5,0,0,1-1.23,3.34,3.56,3.56,0,0,1-2.07,1,4.94,4.94,0,0,1-.89.05Zm.35-4.1a1.37,1.37,0,0,0,1.37,1.51,1.57,1.57,0,0,0,1.4-.74.61.61,0,0,0,.09-.35c0-1.22-.45-2.15-1.46-2.15C277.36,198.31,276.78,199,276.78,200Z"/>
            <path d="M286.12,197.7v.63l-3.1,6.49h-1l3.09-6.3v0h-3.48v-.8Z"/>
            <path d="M286.62,205.26l3.05-7.95h.75l-3.07,7.95Z"/>
            <path d="M293,198.6h0l-1.24.67-.18-.74,1.55-.83h.82v7.12H293Z"/>
            <path d="M301.24,201.18c0,2.42-.9,3.76-2.48,3.76-1.39,0-2.33-1.3-2.35-3.66s1-3.7,2.47-3.7S301.24,198.91,301.24,201.18Zm-3.87.11c0,1.85.57,2.91,1.45,2.91s1.45-1.16,1.45-3-.45-2.91-1.44-2.91S297.37,199.35,297.37,201.29Z"/>
            <path d="M306.86,201.18c0,2.42-.9,3.76-2.48,3.76-1.39,0-2.33-1.3-2.35-3.66s1-3.7,2.47-3.7S306.86,198.91,306.86,201.18Zm-3.87.11c0,1.85.57,2.91,1.45,2.91s1.46-1.16,1.46-3-.45-2.91-1.45-2.91C303.61,198.32,303,199.35,303,201.29Z"/>
            <path d="M275.79,224.07a2,2,0,0,1,1.41-1.91v0a1.77,1.77,0,0,1-1.13-1.6,2,2,0,0,1,2.2-1.9,1.84,1.84,0,0,1,2.07,1.76,1.79,1.79,0,0,1-1.17,1.66v0a2,2,0,0,1,1.43,1.84,2.19,2.19,0,0,1-2.42,2.07C276.68,226,275.79,225.11,275.79,224.07Zm3.83,0c0-.87-.6-1.29-1.57-1.56a1.55,1.55,0,0,0-1.28,1.47,1.33,1.33,0,0,0,1.43,1.36A1.29,1.29,0,0,0,279.62,224ZM277,220.46c0,.72.54,1.1,1.36,1.32a1.41,1.41,0,0,0,1.08-1.29,1.1,1.1,0,0,0-1.2-1.16A1.13,1.13,0,0,0,277,220.46Z"/>
            <path d="M285.75,219.57H283l-.27,1.83a3.78,3.78,0,0,1,.58-.05,3,3,0,0,1,1.53.39,2,2,0,0,1,1,1.83,2.47,2.47,0,0,1-2.65,2.43,3.49,3.49,0,0,1-1.78-.44l.25-.73a3.21,3.21,0,0,0,1.52.39,1.57,1.57,0,0,0,1.69-1.54c0-.92-.63-1.58-2.05-1.58a8,8,0,0,0-1,.07l.46-3.41h3.41Z"/>
            <path d="M286.62,226.32l3.05-7.95h.75l-3.07,7.95Z"/>
            <path d="M293,219.65h0l-1.24.67-.18-.73,1.55-.83h.82v7.12H293Z"/>
            <path d="M301.24,222.24c0,2.42-.9,3.76-2.48,3.76-1.39,0-2.33-1.31-2.35-3.66s1-3.71,2.47-3.71S301.24,220,301.24,222.24Zm-3.87.11c0,1.85.57,2.9,1.45,2.9s1.45-1.15,1.45-3-.45-2.9-1.44-2.9S297.37,220.41,297.37,222.35Z"/>
            <path d="M306.86,222.24c0,2.42-.9,3.76-2.48,3.76-1.39,0-2.33-1.31-2.35-3.66s1-3.71,2.47-3.71S306.86,220,306.86,222.24Zm-3.87.11c0,1.85.57,2.9,1.45,2.9s1.46-1.15,1.46-3-.45-2.9-1.45-2.9C303.61,219.38,303,220.41,303,222.35Z"/>
          </g>
          <path class="cls-20" d="M261.08,160H169.51a1.41,1.41,0,0,1,0-2.78h91.57a1.41,1.41,0,0,1,0,2.78Z"/>
          <path class="cls-20" d="M249.81,180.38H169.37c-.57,0-1-.62-1-1.39s.46-1.39,1-1.39h80.44c.57,0,1,.62,1,1.39S250.38,180.38,249.81,180.38Z"/>
          <path class="cls-20" d="M261.08,202H169.51a1.41,1.41,0,0,1,0-2.78h91.57a1.41,1.41,0,0,1,0,2.78Z"/>
          <path class="cls-20" d="M249.81,223.05H169.37c-.57,0-1-.62-1-1.39s.46-1.39,1-1.39h80.44c.57,0,1,.62,1,1.39S250.38,223.05,249.81,223.05Z"/>
        </g>
        <path class="cls-18" d="M271.05,122.44a20.82,20.82,0,0,1,0-20.79,20.6,20.6,0,0,1,7.53-7.53,20.81,20.81,0,0,1,20.78,0,20.63,20.63,0,0,1,7.54,7.53,20.89,20.89,0,0,1,0,20.79,20.63,20.63,0,0,1-7.54,7.53,20.81,20.81,0,0,1-20.78,0A20.6,20.6,0,0,1,271.05,122.44Zm5.23-17.76a14.73,14.73,0,0,0,0,14.72,14.6,14.6,0,0,0,5.33,5.34,14.73,14.73,0,0,0,14.72,0,14.55,14.55,0,0,0,5.34-5.34,14.73,14.73,0,0,0,0-14.72,14.6,14.6,0,0,0-5.34-5.33,14.73,14.73,0,0,0-14.72,0A14.65,14.65,0,0,0,276.28,104.68ZM277.6,112a1.66,1.66,0,0,1,.51-1.21l2.75-2.75a1.69,1.69,0,0,1,2.42,0l4,4,7.41-7.41a1.69,1.69,0,0,1,2.42,0l2.75,2.75a1.68,1.68,0,0,1,0,2.43l-11.37,11.37a1.7,1.7,0,0,1-2.43,0l-7.92-7.92A1.67,1.67,0,0,1,277.6,112Z"/>
      </g>
      <g>
        <circle class="cls-1" cx="87.86" cy="207.12" r="73.21"/>
        <g id="Outer_ring" data-name="Outer ring">
          <circle class="cls-4" cx="87.86" cy="207.12" r="78.17"/>
          <path class="cls-21" d="M87.86,133.91a73.22,73.22,0,1,1-73.21,73.21,73.22,73.22,0,0,1,73.21-73.21m0-9.91A83.12,83.12,0,1,0,171,207.12,83.22,83.22,0,0,0,87.86,124Z"/>
        </g>
        <g class="cls-22">
          <g>
            <path class="cls-23" d="M87.2,147.28h0a43.45,43.45,0,0,1,43.45,43.45v63.22a0,0,0,0,1,0,0H43.75a0,0,0,0,1,0,0V190.73A43.45,43.45,0,0,1,87.2,147.28Z"/>
            <path class="cls-24" d="M56.58,253.27s-22.69,20.13-29.32,68c-3.44,24.88,2.55,93.3,2.55,93.3"/>
            <path class="cls-25" d="M56.58,253.27s-22.69,20.13-29.32,68c-2.28,16.53-.41,52.28,1.11,74.41"/>
            <path class="cls-24" d="M119.15,253.27s22.69,20.13,29.31,68c3.44,24.88-2.54,93.3-2.54,93.3"/>
            <path class="cls-25" d="M119.15,253.27s22.69,20.13,29.31,68c2.29,16.53.41,52.28-1.1,74.41"/>
            <path class="cls-21" d="M124.59,335.17c-.17,18.36,8.16,37.9,8.16,37.9H42.51a117.7,117.7,0,0,0,6.63-37.73c0-20.9-5.58-37.7-6.28-47.66-.49-7,.41-28.06.41-28.06A28.69,28.69,0,0,1,71.09,238h33.59a28.71,28.71,0,0,1,27.82,21.65s1.38,21.05.91,28.05C133.41,287.67,124.73,320.19,124.59,335.17Z"/>
            <g class="cls-26">
              <path id="neck" class="cls-27" d="M89.49,252.54h0a2.64,2.64,0,0,1-3.22,0h0a21.35,21.35,0,0,1-8.33-16.92V215H97.82v20.59A21.32,21.32,0,0,1,89.49,252.54Z"/>
            </g>
            <g id="neck-2" data-name="neck">
              <path id="neck-3" data-name="neck" class="cls-28" d="M89.69,252.49h0a2.88,2.88,0,0,1-3.5,0h0a23.2,23.2,0,0,1-9-18.39V211.73H98.75V234.1A23.21,23.21,0,0,1,89.69,252.49Z"/>
            </g>
            <g id="Head">
              <g id="Head-2" data-name="Head">
                <circle id="Head-3" data-name="Head" class="cls-28" cx="87.2" cy="190.66" r="43.39"/>
                <circle class="cls-28" cx="43.4" cy="191.36" r="7.05"/>
                <circle class="cls-28" cx="131" cy="191.36" r="7.05"/>
              </g>
              <g id="earrings">
                <circle class="cls-29" cx="42.14" cy="198.31" r="1.84"/>
                <circle class="cls-29" cx="132.26" cy="198.31" r="1.84"/>
              </g>
              <g id="Face">
                <g id="Mouth">
                  <path class="cls-30" d="M89.42,218.69c-.74,0-1.51,0-2.33-.12a1.11,1.11,0,0,1,.21-2.2c7.91.77,11.19-2.9,11.22-2.94a1.11,1.11,0,0,1,1.67,1.45C100.05,215.05,96.8,218.69,89.42,218.69Z"/>
                </g>
                <g id="Eyes_v2" data-name="Eyes v2">
                  <circle class="cls-30" cx="101.71" cy="195.22" r="3.18"/>
                  <circle class="cls-30" cx="72.69" cy="195.22" r="3.18"/>
                </g>
              </g>
            </g>
            <path id="Head-4" data-name="Head" class="cls-23" d="M130.58,190.66h-.17c-24.82.06-33.17-21.55-33.17-21.55h0c-2.11,4.53-6.77,8.5-12,11.75a65.29,65.29,0,0,1-34.81,9.82l-6.64,0c-.06-24.76,19.43-43.38,43.39-43.38A43.26,43.26,0,0,1,130.58,190.66Z"/>
            <path class="cls-29" d="M44.28,184.53S59.17,154.32,87.21,155s42.91,29.52,42.91,29.52-14.6-15.88-42.91-16.19C61.23,168.09,44.28,184.53,44.28,184.53Z"/>
          </g>
        </g>
      </g>
      <g>
        <circle class="cls-31" cx="34.44" cy="125.44" r="10.23"/>
        <circle class="cls-31" cx="45.97" cy="148.24" r="6.19"/>
        <g>
          <g class="cls-32">
            <circle cx="35.7" cy="73.16" r="19.87"/>
            <circle cx="55.26" cy="52.97" r="20.42"/>
            <circle cx="121.36" cy="45.19" r="27.33"/>
            <circle cx="63.68" cy="90.77" r="30.57"/>
            <circle cx="98.24" cy="93.36" r="30.57"/>
            <circle cx="145.12" cy="75.45" r="42.88"/>
            <circle cx="86.14" cy="43.25" r="30.57"/>
          </g>
          <circle class="cls-31" cx="27.87" cy="65.33" r="19.87"/>
          <circle class="cls-31" cx="47.43" cy="45.14" r="20.42"/>
          <circle class="cls-31" cx="115.13" cy="32.64" r="28.92"/>
          <circle class="cls-31" cx="55.85" cy="82.94" r="30.57"/>
          <circle class="cls-31" cx="90.41" cy="85.53" r="30.57"/>
          <circle class="cls-31" cx="136.83" cy="67.16" r="42.88"/>
          <circle class="cls-31" cx="78.31" cy="35.42" r="30.57"/>
        </g>
        <g>
          <path d="M85.27,39.43a4.56,4.56,0,0,1-2,1.32,8.53,8.53,0,0,1-2.88.47,5.68,5.68,0,0,1-2.92-.73,4.8,4.8,0,0,1-1.93-2.1,7.44,7.44,0,0,1-.7-3.24v-.87A7.86,7.86,0,0,1,75.48,31a4.79,4.79,0,0,1,1.86-2.15,5.4,5.4,0,0,1,2.85-.74,5.3,5.3,0,0,1,3.56,1.09,4.56,4.56,0,0,1,1.52,3.16H82.71a2.56,2.56,0,0,0-.78-1.61,2.48,2.48,0,0,0-1.66-.51,2.34,2.34,0,0,0-2,1,5.39,5.39,0,0,0-.71,3V35a5,5,0,0,0,.77,3,2.6,2.6,0,0,0,2.24,1,3,3,0,0,0,2.12-.63V36.26h-2.4V34.32h5Z"/>
          <path d="M92.59,33.92a6.61,6.61,0,0,0-.92-.08,1.87,1.87,0,0,0-1.89,1V41H87.24V31.53h2.4l.07,1.14a2.35,2.35,0,0,1,2.12-1.31,2.85,2.85,0,0,1,.79.11Z"/>
          <path d="M98,41.22a4.7,4.7,0,0,1-3.41-1.28,4.6,4.6,0,0,1-1.31-3.42v-.25a5.73,5.73,0,0,1,.55-2.56A4.08,4.08,0,0,1,95.42,32a4.39,4.39,0,0,1,2.32-.61,4,4,0,0,1,3.07,1.23,5,5,0,0,1,1.12,3.49v1H95.87a2.38,2.38,0,0,0,.75,1.5,2.24,2.24,0,0,0,1.56.56,2.74,2.74,0,0,0,2.3-1.06l1.25,1.39a3.9,3.9,0,0,1-1.55,1.27A5.09,5.09,0,0,1,98,41.22Zm-.29-7.81a1.58,1.58,0,0,0-1.23.51,2.69,2.69,0,0,0-.6,1.46h3.53v-.2A1.88,1.88,0,0,0,99,33.87,1.65,1.65,0,0,0,97.73,33.41Z"/>
          <path d="M108.88,41a2.67,2.67,0,0,1-.25-.85,3.07,3.07,0,0,1-2.4,1,3.36,3.36,0,0,1-2.32-.81,2.61,2.61,0,0,1-.92-2,2.7,2.7,0,0,1,1.12-2.32,5.57,5.57,0,0,1,3.24-.82h1.17v-.54a1.57,1.57,0,0,0-.34-1.06,1.33,1.33,0,0,0-1.07-.39,1.48,1.48,0,0,0-1,.31,1,1,0,0,0-.37.84H103.2a2.56,2.56,0,0,1,.51-1.53,3.31,3.31,0,0,1,1.44-1.1,5.24,5.24,0,0,1,2.1-.4,4.15,4.15,0,0,1,2.79.88,3.12,3.12,0,0,1,1,2.48v4.13a4.51,4.51,0,0,0,.38,2V41Zm-2.1-1.76a2.28,2.28,0,0,0,1-.25,1.7,1.7,0,0,0,.7-.68V36.72h-1c-1.27,0-1.95.44-2,1.32v.15a1,1,0,0,0,.34.78A1.3,1.3,0,0,0,106.78,39.28Z"/>
          <path d="M116.06,29.2v2.33h1.63V33.4h-1.63v4.74a1.17,1.17,0,0,0,.2.76,1.05,1.05,0,0,0,.78.23,4,4,0,0,0,.74-.06V41a5.25,5.25,0,0,1-1.53.23,2.43,2.43,0,0,1-2.73-2.7V33.4h-1.39V31.53h1.39V29.2Z"/>
          <path d="M120.63,38.5a1.42,1.42,0,0,1,1,.38,1.36,1.36,0,0,1,0,1.93,1.6,1.6,0,0,1-2,0,1.39,1.39,0,0,1,0-1.93A1.41,1.41,0,0,1,120.63,38.5Zm1.06-1.39h-2.11l-.3-8.86H122Z"/>
          <path d="M42.59,62.68H40V49.88h2.63Z"/>
          <path d="M53.31,60.8a1.64,1.64,0,0,0,1.14-.38,1.37,1.37,0,0,0,.46-1h2.38a3.28,3.28,0,0,1-.53,1.77,3.45,3.45,0,0,1-1.42,1.25,4.5,4.5,0,0,1-2,.44,4.15,4.15,0,0,1-3.22-1.29A5.17,5.17,0,0,1,49,58v-.16a5.06,5.06,0,0,1,1.17-3.51A4.07,4.07,0,0,1,53.33,53a4,4,0,0,1,2.87,1,3.59,3.59,0,0,1,1.09,2.7H54.91a1.76,1.76,0,0,0-.46-1.21,1.7,1.7,0,0,0-2.5.19,3.76,3.76,0,0,0-.45,2.1v.26A3.78,3.78,0,0,0,52,60.16,1.53,1.53,0,0,0,53.31,60.8Z"/>
          <path d="M64.25,62.68a2.73,2.73,0,0,1-.25-.86,3.07,3.07,0,0,1-2.4,1A3.36,3.36,0,0,1,59.28,62a2.6,2.6,0,0,1-.92-2,2.69,2.69,0,0,1,1.12-2.32,5.57,5.57,0,0,1,3.24-.81h1.17v-.55a1.53,1.53,0,0,0-.34-1,1.3,1.3,0,0,0-1.07-.4,1.48,1.48,0,0,0-1,.31,1,1,0,0,0-.37.84H58.57a2.56,2.56,0,0,1,.51-1.53,3.46,3.46,0,0,1,1.44-1.1,5.21,5.21,0,0,1,2.1-.4,4.2,4.2,0,0,1,2.79.88,3.13,3.13,0,0,1,1,2.49v4.12a4.45,4.45,0,0,0,.38,2.05v.15Zm-2.1-1.77a2.19,2.19,0,0,0,1-.25,1.68,1.68,0,0,0,.7-.67V58.35h-1c-1.27,0-1.95.44-2,1.32v.15a1,1,0,0,0,.34.78A1.26,1.26,0,0,0,62.15,60.91Z"/>
          <path d="M70.73,53.17l.08,1.1A3.32,3.32,0,0,1,73.54,53a2.76,2.76,0,0,1,2.25.89,4.2,4.2,0,0,1,.76,2.65v6.15H74V56.59a1.64,1.64,0,0,0-.36-1.17,1.56,1.56,0,0,0-1.16-.36,1.73,1.73,0,0,0-1.61.91v6.71H68.34V53.17Z"/>
          <path d="M88.1,60.05a.8.8,0,0,0-.46-.73,5.19,5.19,0,0,0-1.48-.48q-3.39-.72-3.39-2.89a2.62,2.62,0,0,1,1-2.11A4.2,4.2,0,0,1,86.57,53a4.6,4.6,0,0,1,2.89.85,2.71,2.71,0,0,1,1.09,2.22H88a1.25,1.25,0,0,0-.35-.9,1.5,1.5,0,0,0-1.1-.36,1.57,1.57,0,0,0-1,.29.94.94,0,0,0-.35.74.77.77,0,0,0,.4.68A4.34,4.34,0,0,0,87,57a11.25,11.25,0,0,1,1.6.43,2.62,2.62,0,0,1,2,2.55,2.49,2.49,0,0,1-1.11,2.11,4.89,4.89,0,0,1-2.89.8,5.11,5.11,0,0,1-2.12-.42A3.62,3.62,0,0,1,83,61.26a2.75,2.75,0,0,1-.53-1.61h2.41a1.32,1.32,0,0,0,.5,1,2,2,0,0,0,1.25.36,1.81,1.81,0,0,0,1.1-.28A.84.84,0,0,0,88.1,60.05Z"/>
          <path d="M96.58,62.85a4.67,4.67,0,0,1-3.4-1.28,4.56,4.56,0,0,1-1.31-3.42V57.9a5.76,5.76,0,0,1,.55-2.56A4.08,4.08,0,0,1,94,53.6,4.45,4.45,0,0,1,96.3,53a4,4,0,0,1,3.08,1.23,5,5,0,0,1,1.12,3.49v1H94.44a2.34,2.34,0,0,0,.74,1.49,2.24,2.24,0,0,0,1.57.56,2.74,2.74,0,0,0,2.3-1.06l1.24,1.4a3.76,3.76,0,0,1-1.54,1.26A5.11,5.11,0,0,1,96.58,62.85ZM96.29,55a1.58,1.58,0,0,0-1.22.51,2.55,2.55,0,0,0-.6,1.47H98v-.21a1.86,1.86,0,0,0-.46-1.31A1.63,1.63,0,0,0,96.29,55Z"/>
          <path d="M106.31,62.85a4.67,4.67,0,0,1-3.4-1.28,4.57,4.57,0,0,1-1.32-3.42V57.9a5.76,5.76,0,0,1,.56-2.56,4.08,4.08,0,0,1,1.57-1.74A4.45,4.45,0,0,1,106,53a4,4,0,0,1,3.08,1.23,5,5,0,0,1,1.12,3.49v1h-6.06a2.34,2.34,0,0,0,.74,1.49,2.24,2.24,0,0,0,1.57.56,2.76,2.76,0,0,0,2.3-1.06l1.24,1.4a3.76,3.76,0,0,1-1.54,1.26A5.11,5.11,0,0,1,106.31,62.85ZM106,55a1.58,1.58,0,0,0-1.22.51,2.55,2.55,0,0,0-.6,1.47h3.53v-.21a1.86,1.86,0,0,0-.46-1.31A1.63,1.63,0,0,0,106,55Z"/>
          <path d="M118.63,54.2A3.19,3.19,0,0,1,121.17,53q3.09,0,3.14,3.6v6.09h-2.54v-6a1.73,1.73,0,0,0-.36-1.21,1.49,1.49,0,0,0-1.16-.39,1.71,1.71,0,0,0-1.62.86v6.76h-2.54V49.18h2.54Z"/>
          <path d="M125.83,57.83a5.69,5.69,0,0,1,.54-2.52,3.94,3.94,0,0,1,1.57-1.71,4.53,4.53,0,0,1,2.38-.61,4.31,4.31,0,0,1,3.14,1.18,4.75,4.75,0,0,1,1.36,3.2V58a4.94,4.94,0,0,1-1.22,3.51,4.74,4.74,0,0,1-6.56,0A5,5,0,0,1,125.83,58Zm2.54.18a3.57,3.57,0,0,0,.51,2.08,1.66,1.66,0,0,0,1.45.71,1.7,1.7,0,0,0,1.45-.7,4,4,0,0,0,.51-2.27,3.56,3.56,0,0,0-.51-2.06,1.69,1.69,0,0,0-1.46-.73,1.65,1.65,0,0,0-1.44.73A3.92,3.92,0,0,0,128.37,58Z"/>
          <path d="M144.67,59.22l1.25-6h2.45l-2.43,9.51h-2.12l-1.8-6-1.81,6H138.1l-2.43-9.51h2.45l1.24,6,1.74-6h1.84Z"/>
          <path d="M157.08,62.68h-2.64V49.88h2.64Z"/>
          <path d="M39.23,84.31a2.94,2.94,0,0,1-.26-.85,3.08,3.08,0,0,1-2.4,1,3.36,3.36,0,0,1-2.31-.81,2.58,2.58,0,0,1-.92-2,2.68,2.68,0,0,1,1.12-2.32,5.57,5.57,0,0,1,3.24-.82h1.17V78a1.62,1.62,0,0,0-.34-1.06,1.35,1.35,0,0,0-1.07-.39,1.51,1.51,0,0,0-1,.3,1,1,0,0,0-.37.85H33.55a2.56,2.56,0,0,1,.51-1.53A3.31,3.31,0,0,1,35.5,75a5.19,5.19,0,0,1,2.09-.4,4.15,4.15,0,0,1,2.79.88,3.09,3.09,0,0,1,1,2.48v4.12a4.54,4.54,0,0,0,.37,2v.15Zm-2.1-1.77a2.12,2.12,0,0,0,1-.25,1.65,1.65,0,0,0,.71-.67V80h-.95c-1.27,0-2,.44-2,1.32v.15a1,1,0,0,0,.33.78A1.34,1.34,0,0,0,37.13,82.54Z"/>
          <path d="M45.75,74.8l.08,1.07a3.32,3.32,0,0,1,2.73-1.24,2.52,2.52,0,0,1,2.52,1.45,3.26,3.26,0,0,1,2.86-1.45,2.83,2.83,0,0,1,2.3.9A4.1,4.1,0,0,1,57,78.24v6.07H54.45V78.25a1.79,1.79,0,0,0-.32-1.18A1.39,1.39,0,0,0,53,76.69a1.58,1.58,0,0,0-1.58,1.09v6.53H48.9v-6a1.79,1.79,0,0,0-.32-1.2,1.41,1.41,0,0,0-1.11-.37,1.64,1.64,0,0,0-1.56.9v6.72H43.37V74.8Z"/>
          <path d="M72,79.64a5.77,5.77,0,0,1-1,3.53,3.22,3.22,0,0,1-2.7,1.32,3,3,0,0,1-2.33-1V88H63.43V74.8h2.36l.09.93a3,3,0,0,1,2.4-1.1A3.21,3.21,0,0,1,71,75.93a5.83,5.83,0,0,1,1,3.58Zm-2.54-.18a3.7,3.7,0,0,0-.47-2,1.53,1.53,0,0,0-1.36-.72,1.67,1.67,0,0,0-1.65.92V81.5a1.69,1.69,0,0,0,1.66.94C68.85,82.44,69.45,81.45,69.45,79.46Z"/>
          <path d="M78.91,77.18a8.38,8.38,0,0,0-.91-.07,1.87,1.87,0,0,0-1.89,1v6.22H73.57V74.8H76L76,75.94a2.33,2.33,0,0,1,2.11-1.31,2.58,2.58,0,0,1,.8.11Z"/>
          <path d="M79.42,79.47A5.66,5.66,0,0,1,80,77a4.09,4.09,0,0,1,1.57-1.72,4.65,4.65,0,0,1,2.38-.6,4.34,4.34,0,0,1,3.14,1.17A4.75,4.75,0,0,1,88.41,79l0,.65a5,5,0,0,1-1.22,3.52,4.74,4.74,0,0,1-6.56,0,5.06,5.06,0,0,1-1.23-3.59Zm2.54.18a3.55,3.55,0,0,0,.51,2.07,1.83,1.83,0,0,0,2.9,0,3.86,3.86,0,0,0,.52-2.27,3.51,3.51,0,0,0-.52-2.06,1.71,1.71,0,0,0-1.46-.73,1.67,1.67,0,0,0-1.44.73A3.94,3.94,0,0,0,82,79.65Z"/>
          <path d="M89.62,79.49a5.56,5.56,0,0,1,1-3.53,3.36,3.36,0,0,1,2.8-1.33,2.94,2.94,0,0,1,2.44,1.07l.1-.9h2.31V84a4.06,4.06,0,0,1-.57,2.17,3.65,3.65,0,0,1-1.6,1.4,5.58,5.58,0,0,1-2.4.49,5.17,5.17,0,0,1-2-.42,3.61,3.61,0,0,1-1.51-1.08L91.33,85a3,3,0,0,0,2.3,1.07,2.19,2.19,0,0,0,1.58-.54A2,2,0,0,0,95.77,84v-.51a2.93,2.93,0,0,1-2.31,1,3.38,3.38,0,0,1-2.78-1.34,5.63,5.63,0,0,1-1.06-3.56Zm2.54.19a3.49,3.49,0,0,0,.52,2,1.66,1.66,0,0,0,1.43.74,1.77,1.77,0,0,0,1.66-.87v-4a1.77,1.77,0,0,0-1.65-.87,1.65,1.65,0,0,0-1.43.75A3.9,3.9,0,0,0,92.16,79.68Z"/>
          <path d="M105.61,77.18a8.2,8.2,0,0,0-.91-.07,1.87,1.87,0,0,0-1.89,1v6.22h-2.54V74.8h2.4l.07,1.14a2.34,2.34,0,0,1,2.12-1.31,2.56,2.56,0,0,1,.79.11Z"/>
          <path d="M111,84.49a4.64,4.64,0,0,1-3.4-1.29,4.53,4.53,0,0,1-1.32-3.41v-.25a5.7,5.7,0,0,1,.56-2.56,4,4,0,0,1,1.57-1.74,4.33,4.33,0,0,1,2.31-.61,3.93,3.93,0,0,1,3.07,1.23A5,5,0,0,1,115,79.35v1h-6a2.39,2.39,0,0,0,.74,1.5,2.27,2.27,0,0,0,1.57.56,2.75,2.75,0,0,0,2.29-1.06l1.25,1.39A3.76,3.76,0,0,1,113.21,84,5,5,0,0,1,111,84.49Zm-.29-7.82a1.55,1.55,0,0,0-1.22.52,2.62,2.62,0,0,0-.61,1.46h3.54v-.2a1.89,1.89,0,0,0-.46-1.31A1.64,1.64,0,0,0,110.75,76.67Z"/>
          <path d="M121.55,81.68a.82.82,0,0,0-.47-.73,5.08,5.08,0,0,0-1.48-.48q-3.39-.7-3.39-2.88a2.62,2.62,0,0,1,1.05-2.12,4.28,4.28,0,0,1,2.75-.84,4.54,4.54,0,0,1,2.89.85A2.68,2.68,0,0,1,124,77.69h-2.54a1.25,1.25,0,0,0-.35-.9,1.53,1.53,0,0,0-1.1-.35,1.46,1.46,0,0,0-1,.29.9.9,0,0,0-.36.73.81.81,0,0,0,.4.69,4.13,4.13,0,0,0,1.35.44A10.89,10.89,0,0,1,122,79a2.64,2.64,0,0,1,2,2.56,2.47,2.47,0,0,1-1.12,2.1,4.79,4.79,0,0,1-2.88.81,5.13,5.13,0,0,1-2.13-.43,3.52,3.52,0,0,1-1.45-1.17,2.72,2.72,0,0,1-.53-1.6h2.41a1.34,1.34,0,0,0,.5,1,2,2,0,0,0,1.25.36,1.85,1.85,0,0,0,1.1-.28A.88.88,0,0,0,121.55,81.68Z"/>
          <path d="M130.8,81.68a.81.81,0,0,0-.46-.73,5.19,5.19,0,0,0-1.48-.48q-3.39-.7-3.39-2.88a2.62,2.62,0,0,1,1-2.12,4.25,4.25,0,0,1,2.74-.84,4.57,4.57,0,0,1,2.9.85,2.7,2.7,0,0,1,1.08,2.21H130.7a1.21,1.21,0,0,0-.35-.9,1.87,1.87,0,0,0-2.09-.06.92.92,0,0,0-.35.73.79.79,0,0,0,.4.69,4.13,4.13,0,0,0,1.35.44,11.63,11.63,0,0,1,1.6.43,2.63,2.63,0,0,1,2,2.56,2.45,2.45,0,0,1-1.12,2.1,4.77,4.77,0,0,1-2.88.81,5.08,5.08,0,0,1-2.12-.43,3.55,3.55,0,0,1-1.46-1.17,2.7,2.7,0,0,1-.52-1.6h2.41a1.34,1.34,0,0,0,.5,1,2,2,0,0,0,1.24.36,1.89,1.89,0,0,0,1.11-.28A.87.87,0,0,0,130.8,81.68Z"/>
          <path d="M134.89,72.34a1.27,1.27,0,0,1,.38-.94,1.65,1.65,0,0,1,2.08,0,1.24,1.24,0,0,1,.39.94,1.26,1.26,0,0,1-.4,1,1.62,1.62,0,0,1-2.06,0A1.25,1.25,0,0,1,134.89,72.34Zm2.7,12H135V74.8h2.55Z"/>
          <path d="M142,74.8l.07,1.1a3.33,3.33,0,0,1,2.74-1.27,2.76,2.76,0,0,1,2.25.88,4.17,4.17,0,0,1,.75,2.66v6.14h-2.54V78.23a1.61,1.61,0,0,0-.35-1.17,1.53,1.53,0,0,0-1.17-.37,1.74,1.74,0,0,0-1.6.92v6.7h-2.55V74.8Z"/>
          <path d="M149.39,79.49a5.61,5.61,0,0,1,1-3.53,3.37,3.37,0,0,1,2.81-1.33,2.94,2.94,0,0,1,2.43,1.07l.11-.9h2.3V84a4.15,4.15,0,0,1-.56,2.17,3.65,3.65,0,0,1-1.6,1.4,5.66,5.66,0,0,1-2.41.49,5.17,5.17,0,0,1-2-.42,3.64,3.64,0,0,1-1.5-1.08L151.09,85a3,3,0,0,0,2.31,1.07,2.17,2.17,0,0,0,1.57-.54,2,2,0,0,0,.56-1.54v-.51a2.9,2.9,0,0,1-2.31,1,3.37,3.37,0,0,1-2.77-1.34,5.57,5.57,0,0,1-1.06-3.56Zm2.54.19a3.41,3.41,0,0,0,.52,2,1.64,1.64,0,0,0,1.42.74,1.75,1.75,0,0,0,1.66-.87v-4a1.75,1.75,0,0,0-1.64-.87,1.66,1.66,0,0,0-1.44.75A3.9,3.9,0,0,0,151.93,79.68Z"/>
          <path d="M160.17,83.06a1.27,1.27,0,0,1,.4-1,1.49,1.49,0,0,1,1-.38,1.47,1.47,0,0,1,1,.38,1.28,1.28,0,0,1,.41,1,1.25,1.25,0,0,1-.41,1,1.44,1.44,0,0,1-1,.38,1.45,1.45,0,0,1-1-.38A1.24,1.24,0,0,1,160.17,83.06Z"/>
        </g>
      </g>
    </g>
  </g>
</svg>
