<svg xmlns="http://www.w3.org/2000/svg" xmlns:xlink="http://www.w3.org/1999/xlink" width="400" height="331" viewBox="0 0 400 331">
  <defs>
    <style>
      .cls-1, .cls-19, .cls-22, .cls-29, .cls-30, .cls-31, .cls-32 {
        fill: none;
      }

      .cls-2 {
        fill: #9ea5b5;
      }

      .cls-3 {
        fill: #12110b;
      }

      .cls-4 {
        fill: #fff;
      }

      .cls-5 {
        fill: #f1f6fc;
      }

      .cls-6 {
        fill: #2e2d33;
      }

      .cls-7 {
        fill: #cecfd9;
      }

      .cls-8 {
        fill: #13120d;
      }

      .cls-9 {
        fill: #464551;
      }

      .cls-10 {
        fill: #9ea1ab;
      }

      .cls-11 {
        fill: #eff1f6;
      }

      .cls-12 {
        fill: #cbcfda;
      }

      .cls-13 {
        fill: #007484;
      }

      .cls-14 {
        opacity: 0.1;
      }

      .cls-15 {
        fill: #414b5b;
      }

      .cls-16 {
        fill: #ea5e65;
      }

      .cls-17 {
        fill: #5bc4bf;
      }

      .cls-18 {
        fill: #f27553;
      }

      .cls-19, .cls-22 {
        stroke: #ecedf0;
      }

      .cls-19, .cls-30 {
        stroke-linecap: round;
      }

      .cls-19, .cls-22, .cls-29, .cls-30, .cls-31, .cls-32 {
        stroke-miterlimit: 10;
      }

      .cls-19 {
        stroke-width: 3.05px;
      }

      .cls-20 {
        fill: #ecedf0;
      }

      .cls-21 {
        fill: #25b6d1;
      }

      .cls-22 {
        stroke-width: 0.59px;
      }

      .cls-23 {
        fill: #74c8bf;
      }

      .cls-24 {
        clip-path: url(#clip-path);
      }

      .cls-25 {
        fill: #5faa97;
      }

      .cls-26 {
        fill: #855041;
      }

      .cls-27 {
        fill: #845043;
      }

      .cls-28 {
        fill: #030304;
      }

      .cls-29, .cls-30 {
        stroke: #000;
      }

      .cls-29 {
        stroke-width: 1.81px;
      }

      .cls-30 {
        stroke-width: 1.81px;
      }

      .cls-31, .cls-32 {
        stroke: #12110b;
      }

      .cls-31 {
        stroke-width: 3.31px;
      }

      .cls-32 {
        stroke-width: 2.21px;
      }

      .cls-33 {
        fill: #061b40;
      }
    </style>
    <clipPath id="clip-path">
      <circle id="Mask" class="cls-1" cx="95.66" cy="199.02" r="83.67"/>
    </clipPath>
  </defs>
  <title>img-8</title>
  <g id="platform">
    <path class="cls-2" d="M400,296.23q-98.67-9.8-200-9.89T0,296.23V331H400Z"/>
    <g>
      <g>
        <g>
          <path class="cls-3" d="M339.84,276.49a6.77,6.77,0,0,1-6.57,7H146.56a6.77,6.77,0,0,1-6.57-7V148.85a6.77,6.77,0,0,1,6.57-6.95H333.27a6.77,6.77,0,0,1,6.57,6.95Z"/>
          <rect class="cls-4" x="148" y="149.9" width="184.47" height="116.25"/>
          <path class="cls-5" d="M140,271.53l-20.94,18.65s-.46,3.47.13,4.8,1.28,2.24,4.16,2.56,235.39,0,235.39,0a19,19,0,0,0,3.15-2.11,4.13,4.13,0,0,0,1.33-3.33v-1.6L339.84,271Z"/>
          <path class="cls-6" d="M121.42,297.54a18.72,18.72,0,0,0,7.37,2.56H354.57s3.81-1.4,5.1-2.62S121.42,297.54,121.42,297.54Z"/>
          <path class="cls-7" d="M119.05,290.18s-.62,3,.13,4.8a5.49,5.49,0,0,0,2.48,2.7l238-.2a10,10,0,0,0,2.55-2.11c1.37-1.37,1-4.87,1-4.87Z"/>
          <polygon class="cls-8" points="163.37 274.16 157.18 280.25 167.8 280.25 169.09 279.25 169.59 279.27 168.74 280.25 179.57 280.25 180.19 279.55 180.6 279.55 180.35 280.25 190.62 280.25 191.24 279.63 191.72 279.6 191.29 280.25 205.75 280.25 206.65 279.48 207.26 279.44 206.55 280.25 261.91 280.25 261.01 279.25 261.47 279.25 262.55 280.25 276.9 280.25 276.26 279.45 276.67 279.4 277.59 280.25 288.27 280.25 287.69 279.44 288.19 279.42 288.89 280.25 299.48 280.25 299.05 279.46 299.52 279.45 300.12 280.25 311.01 280.25 310.53 279.37 310.97 279.37 311.57 280.25 322.54 280.25 317.1 274.16 295.64 274.02 295 274.59 294.41 274.02 284.64 274.02 284.22 274.7 283.52 274.02 273.7 274.02 273.12 274.54 272.37 274.02 263.08 274.02 262.55 274.8 262.07 274.02 251.76 274.02 251.07 274.91 250.64 274.02 241.18 274.16 240.24 274.96 239.27 274.16 229.99 274.16 229.19 274.8 228.39 274.16 220.14 274.02 219.34 274.88 218.46 274.02 207.73 274.02 207.01 274.8 206.29 274.02 197 274.16 196.04 274.91 195.4 274.16 185.31 274.02 184.24 274.76 183.47 274.02 173.46 274.02 172.5 274.8 172.02 274.02 163.37 274.16"/>
          <path class="cls-9" d="M350.19,293.16a.74.74,0,0,1-.75.75h-6.62a.74.74,0,0,1-.74-.75h0a.74.74,0,0,1,.74-.74h6.62a.74.74,0,0,1,.75.74Z"/>
          <path class="cls-10" d="M256.89,290.5a1.06,1.06,0,0,1-1.07,1.06h-31a1.05,1.05,0,0,1-1.06-1.06h0a1.06,1.06,0,0,1,1.06-1.07h31a1.07,1.07,0,0,1,1.07,1.07Z"/>
          <path class="cls-11" d="M255.82,292.36a.8.8,0,0,1-.8.8H226.73a.8.8,0,0,1-.8-.8h0c0-.44-.08-.8.36-.8h29.17c.44,0,.36.36.36.8Z"/>
          <path class="cls-12" d="M208.77,280.25s-4,6.19-3.34,7.26,2.46,1,2.46,1l63.57,0s2.39.18,3.12-1.28c.88-1.78-3.2-6.9-3.2-6.9Z"/>
        </g>
        <path class="cls-13" d="M270.29,180.29a6.9,6.9,0,0,1,6.93,6.93v41.61a6.9,6.9,0,0,1-6.93,6.94H210.18a6.9,6.9,0,0,1-6.93-6.94V187.22a6.9,6.9,0,0,1,6.93-6.93Zm0,6.93H210.18v5.93q5.06,4,19.51,15.31l1.3,1.16a36.35,36.35,0,0,0,4.62,3.47,6.65,6.65,0,0,0,9.25,0,35.65,35.65,0,0,0,4.62-3.47l1.3-1.16q14.45-11.11,19.51-15.31Zm-60.11,41.61h60.11V202l-16.76,13.29a41.29,41.29,0,0,1-5.93,4.34,14.54,14.54,0,0,1-7.36,2.31,15.33,15.33,0,0,1-7.52-2.31,56.78,56.78,0,0,1-5.92-4.34L210.18,202Z"/>
      </g>
      <circle id="Outer_ring" data-name="Outer ring" class="cls-14" cx="99.32" cy="207.68" r="94"/>
      <g>
        <g>
          <g>
            <g>
              <rect class="cls-15" x="271.79" y="200.38" width="145.36" height="82.85" rx="9.21" transform="translate(42.93 535.41) rotate(-79.3)"/>
              <rect class="cls-4" x="288.34" y="201.11" width="114.57" height="69.14" transform="translate(49.89 531.56) rotate(-79.3)"/>
            </g>
            <g>
              <circle class="cls-16" cx="326.79" cy="265.81" r="10.52" transform="translate(-4.9 6.14) rotate(-1.07)"/>
              <g>
                <rect class="cls-4" x="320.27" y="263.76" width="1.11" height="4.37" transform="translate(0.31 532.27) rotate(-79.38)"/>
                <rect class="cls-4" x="331.46" y="265.87" width="1.11" height="4.37" transform="translate(6.95 544.51) rotate(-79.3)"/>
                <path class="cls-4" d="M334.49,265.53a2.86,2.86,0,0,0-.84-1.24,9.72,9.72,0,0,0-3.79-2.11,24.4,24.4,0,0,0-2.42-.59,22.52,22.52,0,0,0-2.45-.33,9.67,9.67,0,0,0-4.3.58,2.84,2.84,0,0,0-1.24.86,2.63,2.63,0,0,0-.46,1.21c0,.1-.05.32-.05.32l4.29.81a1.4,1.4,0,0,1,.25-.53A3,3,0,0,1,324,264a2.74,2.74,0,0,1,1.83-.55,8.56,8.56,0,0,1,1.24.14,8.28,8.28,0,0,1,1.21.32,2.71,2.71,0,0,1,1.5,1.18,2.47,2.47,0,0,1,.29.69,1.56,1.56,0,0,1,.05.59l4.29.81s0-.21.07-.32A2.6,2.6,0,0,0,334.49,265.53Z"/>
              </g>
            </g>
            <g>
              <circle class="cls-17" cx="353.3" cy="270.79" r="10.52" transform="translate(-35.6 487.37) rotate(-66.58)"/>
              <g>
                <rect class="cls-4" x="355.63" y="273.82" width="1.11" height="4.37" transform="translate(-65.27 116.57) rotate(-17.05)"/>
                <rect class="cls-4" x="352.3" y="262.93" width="1.11" height="4.37" transform="translate(-62.01 114.52) rotate(-16.97)"/>
                <path class="cls-4" d="M349.48,264.1a2.89,2.89,0,0,0-.72,1.33,9.74,9.74,0,0,0-.1,4.33,22.92,22.92,0,0,0,.6,2.41,20.89,20.89,0,0,0,.85,2.33,9.55,9.55,0,0,0,2.51,3.54,3,3,0,0,0,1.33.7,2.59,2.59,0,0,0,1.29-.16l.31-.1-1.28-4.17a1.41,1.41,0,0,1-.59,0,2.29,2.29,0,0,1-.72-.21,2.77,2.77,0,0,1-1.34-1.36,9.13,9.13,0,0,1-.45-1.17c-.11-.4-.21-.81-.28-1.21a2.8,2.8,0,0,1,.35-1.88,2.7,2.7,0,0,1,.48-.58,1.5,1.5,0,0,1,.5-.31L351,263.42l-.32.09A2.63,2.63,0,0,0,349.48,264.1Z"/>
              </g>
            </g>
            <path class="cls-18" d="M358.84,175.4a1.8,1.8,0,0,1-2.1,1.43,1.79,1.79,0,1,1,2.1-1.43Z"/>
          </g>
          <line class="cls-19" x1="320.74" y1="300.03" x2="345.32" y2="304.68"/>
        </g>
        <g>
          <circle class="cls-20" cx="349.35" cy="217.31" r="20.38"/>
          <path class="cls-21" d="M336.42,222c.11-.59.23-1.15.38-1.7a15.5,15.5,0,0,1,.57-1.76,15.12,15.12,0,0,1,.77-1.71,8.49,8.49,0,0,1,1-1.48,5.91,5.91,0,0,1,1.27-1.15,4.49,4.49,0,0,1,1.58-.61,5.12,5.12,0,0,1,1.91,0,2,2,0,0,1,.63.49l1.08,1a7.79,7.79,0,0,0,1.63,1.13,7.17,7.17,0,0,0,4.42.83,8.21,8.21,0,0,0,1.93-.45l1.38-.57a2.22,2.22,0,0,1,.76-.22,5.05,5.05,0,0,1,1.79.68,4.29,4.29,0,0,1,1.24,1.15,5.49,5.49,0,0,1,.77,1.53,8.38,8.38,0,0,1,.41,1.75,13.8,13.8,0,0,1,.1,1.87,15.09,15.09,0,0,1-.11,1.85c-.06.56-.15,1.13-.26,1.72a4.18,4.18,0,0,1-1.8,2.9,4.5,4.5,0,0,1-3.42.55L340,227.11a4.56,4.56,0,0,1-3-1.75A4.19,4.19,0,0,1,336.42,222Zm9.08-8.93a6.47,6.47,0,1,1,4.14,2.7A6.21,6.21,0,0,1,345.5,213.07Z"/>
        </g>
        <line class="cls-22" x1="312.33" y1="242.74" x2="374.68" y2="254.52"/>
      </g>
      <g>
        <circle class="cls-1" cx="95.66" cy="199.02" r="83.67"/>
        <g id="Outer_ring-2" data-name="Outer ring">
          <circle class="cls-4" cx="95.66" cy="199.02" r="88.62" transform="translate(-116.11 261.57) rotate(-80.78)"/>
          <path class="cls-23" d="M95.66,115.35A83.67,83.67,0,1,1,12,199a83.67,83.67,0,0,1,83.67-83.67m0-9.91A93.58,93.58,0,1,0,189.24,199a93.69,93.69,0,0,0-93.58-93.58Z"/>
        </g>
        <g class="cls-24">
          <g>
            <path class="cls-23" d="M135.3,362.47H53.62s-.76-12-.76-24.91-4.29-31.07-9.33-49.89c-4.84-18-7.8-34.42-4.59-45,2.75-9,6.31-15.6,17.89-15.6h75.72c11,0,14.95,3.82,17,11.93,2.75,11,3.67,29.83-1.38,46.81-5.25,17.68-11.62,39.37-11.62,51.12S135.3,362.47,135.3,362.47Z"/>
            <path class="cls-25" d="M89.81,251.13l4.65-9.81-5.9-14.7H79.34S79.24,238.66,89.81,251.13Z"/>
            <path class="cls-25" d="M99.18,251.13l-4.65-9.81,5.9-14.7h9.22S109.75,238.66,99.18,251.13Z"/>
            <g id="neck">
              <path id="neck-2" data-name="neck" class="cls-26" d="M95.91,240.21l-1.45,1.11L93,240.21A19.21,19.21,0,0,1,85.51,225V206.45h17.9V225A19.21,19.21,0,0,1,95.91,240.21Z"/>
            </g>
            <g id="Head">
              <rect id="SquareHead" class="cls-27" x="57.22" y="136.25" width="75.07" height="85.37" rx="37.53"/>
              <g id="ears">
                <circle id="ear_-_L" data-name="ear - L" class="cls-27" cx="57.12" cy="178.78" r="6.07"/>
                <circle id="ear_-_R" data-name="ear - R" class="cls-27" cx="132.59" cy="178.78" r="6.07"/>
              </g>
            </g>
            <path id="SquareHead-2" data-name="SquareHead" d="M57.22,171.81s-6.62,53.05,37.88,53c42.87-.05,37.19-53,37.19-53h-5.54l-2,19.61a7.92,7.92,0,0,1-8.43,7.09l-15.79-1.09a76.76,76.76,0,0,0-10.83,0l-15.31,1.1A7.92,7.92,0,0,1,66,192l-3.54-20.19Z"/>
            <g id="Face">
              <g id="Mouth">
                <path class="cls-27" d="M92.94,205.9c-6.36,0-9.15-3.14-9.28-3.28a1,1,0,1,1,1.43-1.26c.13.14,2.94,3.19,9.67,2.54a1,1,0,0,1,.19,1.9C94.24,205.87,93.57,205.9,92.94,205.9Z"/>
              </g>
              <g id="Eyes_v2" data-name="Eyes v2">
                <circle class="cls-28" cx="82.35" cy="185.68" r="2.74"/>
                <circle class="cls-28" cx="107.35" cy="185.68" r="2.74"/>
              </g>
            </g>
            <g>
              <path d="M124.1,172.45c-7.29-.94-11.64-4.8-11.64-14.71a18.27,18.27,0,0,1,6.18-13.83c8.45,6.92,13.87,16.19,13.87,28A22.4,22.4,0,0,1,124.1,172.45Z"/>
              <path d="M57,173.27c6.34,3.2,18.16-5.3,26.55-3.79,21,3.79,35.13-10.18,35.44-25.3a37.55,37.55,0,0,0-24.2-8.8h0A38,38,0,0,0,57,173.27Z"/>
            </g>
          </g>
        </g>
        <g>
          <path class="cls-29" d="M120.13,183.38a11.66,11.66,0,1,1-23.31,0C96.82,177,120.13,177,120.13,183.38Z"/>
          <path class="cls-29" d="M93.41,183.38a11.66,11.66,0,1,1-23.31,0C70.1,177,93.41,177,93.41,183.38Z"/>
          <line class="cls-29" x1="93.31" y1="183.29" x2="96.72" y2="183.29"/>
          <line class="cls-30" x1="120.13" y1="183.38" x2="130.46" y2="177.12"/>
          <line class="cls-30" x1="69.91" y1="183.38" x2="57.82" y2="175.05"/>
        </g>
        <path class="cls-3" d="M130.74,169.22h0a13.13,13.13,0,0,1,13.13,13.13v.73a13.13,13.13,0,0,1-13.13,13.13h0a0,0,0,0,1,0,0v-27a0,0,0,0,1,0,0Z"/>
        <path class="cls-3" d="M44.75,169.22h0a13.13,13.13,0,0,1,13.13,13.13v.73a13.13,13.13,0,0,1-13.13,13.13h0a0,0,0,0,1,0,0v-27A0,0,0,0,1,44.75,169.22Z" transform="translate(102.62 365.42) rotate(180)"/>
        <path id="Head-2" data-name="Head" class="cls-31" d="M52.57,172.15a42.28,42.28,0,0,1,84.56,0"/>
        <path id="Head-3" data-name="Head" class="cls-32" d="M134.31,190.34c0,23-12.63,41.67-28.2,41.67"/>
        <rect class="cls-3" x="91.56" y="228.34" width="16.65" height="7.87" rx="3.93"/>
        <circle class="cls-25" cx="94.9" cy="259.28" r="3.32"/>
        <circle class="cls-25" cx="94.9" cy="273.63" r="3.32"/>
      </g>
      <g>
        <g>
          <rect class="cls-33" x="157.97" y="11.88" width="198.11" height="106.5" rx="18.69"/>
          <path class="cls-33" d="M173.34,102.84l.46,27.86a3.12,3.12,0,0,0,5,2.41L200.89,116Z"/>
        </g>
        <g>
          <path class="cls-4" d="M190.73,57.06h-3.31V50.17H181v6.89h-3.31V41H181V47.5h6.46V41h3.31Z"/>
          <path class="cls-4" d="M193.39,42a1.57,1.57,0,0,1,.48-1.18,2,2,0,0,1,2.61,0A1.58,1.58,0,0,1,197,42a1.6,1.6,0,0,1-.49,1.19,2.07,2.07,0,0,1-2.6,0A1.56,1.56,0,0,1,193.39,42Zm3.39,15h-3.2V45.12h3.2Z"/>
          <path class="cls-4" d="M213.58,52.84a1.71,1.71,0,0,0-.66-1.44,9.11,9.11,0,0,0-2.39-1.06,16.72,16.72,0,0,1-2.72-1.09q-2.75-1.48-2.74-4a3.86,3.86,0,0,1,.73-2.32,4.9,4.9,0,0,1,2.11-1.6,8,8,0,0,1,3.09-.57,7.27,7.27,0,0,1,3.06.62,5,5,0,0,1,2.1,1.76,4.67,4.67,0,0,1,.74,2.59h-3.31a2.15,2.15,0,0,0-.7-1.72,2.83,2.83,0,0,0-1.95-.61,3.08,3.08,0,0,0-1.89.51,1.61,1.61,0,0,0-.67,1.35,1.55,1.55,0,0,0,.79,1.32,9.15,9.15,0,0,0,2.32,1,10,10,0,0,1,4.12,2.11,4.19,4.19,0,0,1,1.29,3.13,3.87,3.87,0,0,1-1.58,3.28,6.91,6.91,0,0,1-4.25,1.18,8.06,8.06,0,0,1-3.37-.68,5.34,5.34,0,0,1-2.33-1.86,4.77,4.77,0,0,1-.8-2.73h3.32c0,1.77,1.06,2.66,3.18,2.66a3.11,3.11,0,0,0,1.85-.48A1.57,1.57,0,0,0,213.58,52.84Z"/>
          <path class="cls-4" d="M225.85,57.06a3.88,3.88,0,0,1-.32-1.07,3.85,3.85,0,0,1-3,1.29,4.28,4.28,0,0,1-2.91-1,3.26,3.26,0,0,1-1.15-2.56,3.38,3.38,0,0,1,1.41-2.92,6.83,6.83,0,0,1,4.06-1h1.47v-.69a2,2,0,0,0-.42-1.32,1.69,1.69,0,0,0-1.35-.5,1.9,1.9,0,0,0-1.26.39,1.32,1.32,0,0,0-.46,1.06h-3.19a3.26,3.26,0,0,1,.64-1.93,4.27,4.27,0,0,1,1.81-1.38,6.53,6.53,0,0,1,2.63-.5A5.19,5.19,0,0,1,227.3,46a3.86,3.86,0,0,1,1.3,3.11V54.3a5.69,5.69,0,0,0,.48,2.57v.19Zm-2.64-2.22a2.75,2.75,0,0,0,1.31-.31,2,2,0,0,0,.88-.85v-2h-1.19c-1.6,0-2.45.55-2.55,1.66v.18a1.29,1.29,0,0,0,.42,1A1.65,1.65,0,0,0,223.21,54.84Z"/>
          <path class="cls-4" d="M234,45.12l.1,1.33a4.22,4.22,0,0,1,3.44-1.55,3.17,3.17,0,0,1,3.16,1.82,4.1,4.1,0,0,1,3.59-1.82A3.53,3.53,0,0,1,247.22,46a5.15,5.15,0,0,1,.95,3.4v7.63H245V49.45a2.25,2.25,0,0,0-.4-1.49,1.76,1.76,0,0,0-1.4-.47,2,2,0,0,0-2,1.37v8.2H238v-7.6a2.22,2.22,0,0,0-.41-1.5,1.78,1.78,0,0,0-1.39-.47,2.08,2.08,0,0,0-2,1.13v8.44h-3.19V45.12Z"/>
          <path class="cls-4" d="M251.45,61.09l-1.67-.87.4-.72a5.71,5.71,0,0,0,.76-2.68V54.35h2.7l0,2.2A5.73,5.73,0,0,1,253,59,6.41,6.41,0,0,1,251.45,61.09Z"/>
          <path class="cls-4" d="M261.28,51a7.19,7.19,0,0,1,1.25-4.45A4.07,4.07,0,0,1,266,44.9a3.66,3.66,0,0,1,2.88,1.3V40.11H272v17h-2.88L269,55.79a3.73,3.73,0,0,1-3.07,1.49,4,4,0,0,1-3.38-1.66A7.44,7.44,0,0,1,261.28,51Zm3.18.24a4.67,4.67,0,0,0,.59,2.57,1.91,1.91,0,0,0,1.7.9,2.15,2.15,0,0,0,2.09-1.25V48.74a2.12,2.12,0,0,0-2.07-1.25Q264.46,47.49,264.46,51.24Z"/>
          <path class="cls-4" d="M274,51a7,7,0,0,1,.69-3.17,5,5,0,0,1,2-2.15,5.69,5.69,0,0,1,3-.76,5.44,5.44,0,0,1,4,1.48,5.87,5.87,0,0,1,1.7,4l0,.82a6.22,6.22,0,0,1-1.54,4.41,5.31,5.31,0,0,1-4.11,1.66,5.38,5.38,0,0,1-4.13-1.65A6.41,6.41,0,0,1,274,51.12Zm3.19.23a4.51,4.51,0,0,0,.64,2.6,2.31,2.31,0,0,0,3.65,0,4.91,4.91,0,0,0,.65-2.85,4.43,4.43,0,0,0-.65-2.58,2.14,2.14,0,0,0-1.84-.92,2.08,2.08,0,0,0-1.81.91A5,5,0,0,0,277.2,51.21Z"/>
          <path class="cls-4" d="M297.38,52.55l2.21-7.43H303l-4.8,13.8-.27.62a3.64,3.64,0,0,1-3.53,2.35,5,5,0,0,1-1.41-.21V59.26h.48a2.58,2.58,0,0,0,1.36-.28,1.85,1.85,0,0,0,.7-.91l.37-1-4.18-12h3.43Z"/>
          <path class="cls-4" d="M303.61,51a7,7,0,0,1,.68-3.17,5,5,0,0,1,2-2.15,5.73,5.73,0,0,1,3-.76,5.41,5.41,0,0,1,3.94,1.48,5.92,5.92,0,0,1,1.71,4l0,.82a6.26,6.26,0,0,1-1.53,4.41,6,6,0,0,1-8.24,0,6.36,6.36,0,0,1-1.54-4.51Zm3.19.23a4.44,4.44,0,0,0,.64,2.6,2.09,2.09,0,0,0,1.83.9,2.14,2.14,0,0,0,1.81-.89,4.91,4.91,0,0,0,.65-2.85,4.43,4.43,0,0,0-.65-2.58,2.13,2.13,0,0,0-1.83-.92,2.07,2.07,0,0,0-1.81.91A5,5,0,0,0,306.8,51.21Z"/>
          <path class="cls-4" d="M324,55.85a4,4,0,0,1-3.27,1.43,3.79,3.79,0,0,1-2.93-1.1,4.73,4.73,0,0,1-1-3.24V45.12H320v7.72c0,1.25.56,1.87,1.7,1.87a2.31,2.31,0,0,0,2.23-1.13V45.12h3.2V57.06h-3Z"/>
          <path class="cls-4" d="M180.38,75.43l.1,1.38a4.14,4.14,0,0,1,3.43-1.6,3.43,3.43,0,0,1,2.82,1.12,5.14,5.14,0,0,1,1,3.33v7.72h-3.19V79.74a2.06,2.06,0,0,0-.44-1.48,2,2,0,0,0-1.47-.46,2.22,2.22,0,0,0-2,1.15v8.43h-3.18V75.43Z"/>
          <path class="cls-4" d="M195.6,87.6A5.85,5.85,0,0,1,191.32,86a5.71,5.71,0,0,1-1.65-4.29v-.31a7.15,7.15,0,0,1,.7-3.22,5.09,5.09,0,0,1,2-2.18,5.55,5.55,0,0,1,2.91-.77,5,5,0,0,1,3.85,1.55,6.27,6.27,0,0,1,1.41,4.38v1.3H192.9a3,3,0,0,0,.94,1.88,2.81,2.81,0,0,0,2,.7,3.43,3.43,0,0,0,2.88-1.33l1.57,1.75A4.8,4.8,0,0,1,198.31,87,6.32,6.32,0,0,1,195.6,87.6Zm-.37-9.82a2,2,0,0,0-1.54.65,3.32,3.32,0,0,0-.75,1.84h4.44V80a2.4,2.4,0,0,0-.58-1.65A2.09,2.09,0,0,0,195.23,77.78Z"/>
          <path class="cls-4" d="M207.82,87.6A5.85,5.85,0,0,1,203.54,86a5.71,5.71,0,0,1-1.65-4.29v-.31a7.15,7.15,0,0,1,.7-3.22,5.09,5.09,0,0,1,2-2.18,5.54,5.54,0,0,1,2.9-.77,5,5,0,0,1,3.86,1.55,6.27,6.27,0,0,1,1.41,4.38v1.3h-7.61a3,3,0,0,0,.94,1.88,2.81,2.81,0,0,0,2,.7,3.43,3.43,0,0,0,2.88-1.33l1.57,1.75A4.8,4.8,0,0,1,210.53,87,6.32,6.32,0,0,1,207.82,87.6Zm-.37-9.82a2,2,0,0,0-1.54.65,3.32,3.32,0,0,0-.75,1.84h4.43V80a2.35,2.35,0,0,0-.57-1.65A2.09,2.09,0,0,0,207.45,77.78Z"/>
          <path class="cls-4" d="M214,81.31a7.14,7.14,0,0,1,1.26-4.44,4,4,0,0,1,3.42-1.66,3.66,3.66,0,0,1,2.88,1.3V70.42h3.2v17h-2.88l-.15-1.27a3.77,3.77,0,0,1-3.07,1.49,4,4,0,0,1-3.38-1.67A7.4,7.4,0,0,1,214,81.31Zm3.19.24a4.74,4.74,0,0,0,.59,2.58,1.89,1.89,0,0,0,1.7.89,2.12,2.12,0,0,0,2.08-1.25V79.05a2.1,2.1,0,0,0-2.06-1.25Q217.23,77.8,217.23,81.55Z"/>
          <path class="cls-4" d="M236,76.73a4,4,0,0,1,3.19-1.52q3.89,0,3.94,4.52v7.65H240V79.81a2.21,2.21,0,0,0-.44-1.51,1.9,1.9,0,0,0-1.47-.5,2.18,2.18,0,0,0-2,1.09v8.49h-3.19v-17H236Z"/>
          <path class="cls-4" d="M251.05,87.6A5.83,5.83,0,0,1,246.78,86a5.71,5.71,0,0,1-1.65-4.29v-.31a7.28,7.28,0,0,1,.69-3.22,5.15,5.15,0,0,1,2-2.18,5.55,5.55,0,0,1,2.91-.77,5,5,0,0,1,3.86,1.55A6.27,6.27,0,0,1,256,81.14v1.3h-7.61a3,3,0,0,0,.93,1.88,2.83,2.83,0,0,0,2,.7,3.43,3.43,0,0,0,2.88-1.33l1.57,1.75A4.77,4.77,0,0,1,253.77,87,6.37,6.37,0,0,1,251.05,87.6Zm-.36-9.82a2,2,0,0,0-1.54.65,3.32,3.32,0,0,0-.76,1.84h4.44V80a2.4,2.4,0,0,0-.57-1.65A2.09,2.09,0,0,0,250.69,77.78Z"/>
          <path class="cls-4" d="M261.14,87.38h-3.2v-17h3.2Z"/>
          <path class="cls-4" d="M274.52,81.51a7.18,7.18,0,0,1-1.25,4.42,4,4,0,0,1-3.39,1.67A3.71,3.71,0,0,1,267,86.34V92h-3.19V75.43h3l.11,1.17a3.73,3.73,0,0,1,3-1.39,4.05,4.05,0,0,1,3.43,1.63,7.36,7.36,0,0,1,1.23,4.51Zm-3.19-.23a4.72,4.72,0,0,0-.59-2.57A1.94,1.94,0,0,0,269,77.8,2.09,2.09,0,0,0,267,79v4.89A2.12,2.12,0,0,0,269.05,85C270.57,85,271.33,83.78,271.33,81.28Z"/>
          <path class="cls-4" d="M279.1,82.45a6.61,6.61,0,0,1,.38-2.46,5.1,5.1,0,0,1,1.37-1.81,6.63,6.63,0,0,0,1.33-1.45,2.25,2.25,0,0,0,.33-1.17c0-1.25-.57-1.87-1.72-1.87a1.78,1.78,0,0,0-1.31.5,2,2,0,0,0-.51,1.39h-3.2a4.23,4.23,0,0,1,1.36-3.3,6.26,6.26,0,0,1,7.29-.06,4,4,0,0,1,1.29,3.19,3.92,3.92,0,0,1-.42,1.78A7.38,7.38,0,0,1,283.83,79l-.9.85a3,3,0,0,0-1,1.89l0,.67Zm-.32,3.38a1.61,1.61,0,0,1,.5-1.21,2,2,0,0,1,2.58,0,1.71,1.71,0,0,1,0,2.41,2,2,0,0,1-2.6,0A1.6,1.6,0,0,1,278.78,85.83Z"/>
        </g>
      </g>
    </g>
  </g>
</svg>
