<svg xmlns="http://www.w3.org/2000/svg" width="400" height="331" viewBox="0 0 400 331">
  <defs>
    <style>
      .cls-1 {
        fill: #12110b;
      }

      .cls-2 {
        fill: #5bc4bf;
      }

      .cls-3 {
        fill: #f1f6fc;
      }

      .cls-4 {
        fill: #2e2d33;
      }

      .cls-5 {
        fill: #cecfd9;
      }

      .cls-6 {
        fill: #13120d;
      }

      .cls-7 {
        fill: #464551;
      }

      .cls-8 {
        fill: #9ea1ab;
      }

      .cls-9 {
        fill: #eff1f6;
      }

      .cls-10 {
        fill: #cbcfda;
      }

      .cls-11 {
        fill: #fff;
      }

      .cls-12 {
        fill: #414b5b;
      }

      .cls-13 {
        fill: #f5d010;
      }

      .cls-14 {
        fill: #ea5e65;
      }

      .cls-15 {
        fill: #edeae6;
      }

      .cls-16 {
        fill: #dddbd9;
      }

      .cls-17 {
        fill: #9ea5b5;
      }

      .cls-18 {
        fill: #7c431c;
      }

      .cls-19 {
        fill: #f7a17f;
      }

      .cls-20 {
        fill: #30336c;
      }

      .cls-21, .cls-22, .cls-24, .cls-30 {
        fill: none;
      }

      .cls-21 {
        stroke: #f7a17f;
      }

      .cls-21, .cls-24, .cls-30 {
        stroke-linecap: round;
      }

      .cls-21, .cls-22, .cls-24 {
        stroke-miterlimit: 10;
      }

      .cls-21, .cls-22 {
        stroke-width: 10.97px;
      }

      .cls-22, .cls-24 {
        stroke: #eb4d4c;
      }

      .cls-23 {
        fill: #ff7879;
      }

      .cls-24 {
        stroke-width: 1.49px;
      }

      .cls-25 {
        fill: #eb4d4c;
      }

      .cls-26 {
        fill: #855041;
      }

      .cls-27 {
        fill: #472d27;
      }

      .cls-28 {
        fill: #c27d4e;
      }

      .cls-29 {
        fill: #67b6d6;
      }

      .cls-30 {
        stroke: #67b6d6;
        stroke-linejoin: round;
        stroke-width: 22.28px;
      }

      .cls-31 {
        fill: #694037;
      }

      .cls-32 {
        fill: #030304;
      }
    </style>
  </defs>
  <title>img-10</title>
  <g id="Layer_1" data-name="Layer 1">
    <g>
      <rect class="cls-1" x="108.09" y="242.8" width="167.68" height="16.66"/>
      <g>
        <rect class="cls-1" x="132.96" y="254.77" width="14.6" height="51.05"/>
        <rect class="cls-1" x="236.3" y="254.77" width="14.6" height="51.05"/>
      </g>
      <g>
        <g>
          <path class="cls-1" d="M258.34,231.17a4.54,4.54,0,0,1-4.41,4.67H128.43a4.54,4.54,0,0,1-4.41-4.67v-85.8a4.54,4.54,0,0,1,4.41-4.67h125.5a4.54,4.54,0,0,1,4.41,4.67Z"/>
          <rect class="cls-2" x="129.4" y="146.08" width="123.99" height="78.14"/>
          <rect class="cls-2" x="129.4" y="182.77" width="123.99" height="41.45"/>
          <path class="cls-3" d="M124,227.83l-14.08,12.53a9,9,0,0,0,.09,3.23c.39.9.86,1.51,2.8,1.73s158.21,0,158.21,0a12.34,12.34,0,0,0,2.12-1.43,2.79,2.79,0,0,0,.9-2.23v-1.08l-15.72-13.13Z"/>
          <path class="cls-4" d="M111.53,245.32a12.76,12.76,0,0,0,5,1.72H268.25a14.18,14.18,0,0,0,3.42-1.77C272.45,244.53,111.53,245.32,111.53,245.32Z"/>
          <path class="cls-5" d="M109.94,240.36a6.84,6.84,0,0,0,.09,3.23,3.66,3.66,0,0,0,1.67,1.82l160-.14a6.69,6.69,0,0,0,1.72-1.42c.92-.92.67-3.27.67-3.27Z"/>
          <polygon class="cls-6" points="139.73 229.6 135.57 233.69 142.71 233.69 143.58 233.02 143.91 233.03 143.34 233.69 150.62 233.69 151.03 233.22 151.31 233.22 151.14 233.69 158.05 233.69 158.46 233.28 158.79 233.25 158.5 233.69 168.22 233.69 168.82 233.17 169.23 233.15 168.75 233.69 205.96 233.69 205.36 233.02 205.67 233.02 206.39 233.69 216.04 233.69 215.61 233.16 215.88 233.12 216.5 233.69 223.69 233.69 223.3 233.15 223.63 233.13 224.1 233.69 231.22 233.69 230.93 233.16 231.25 233.15 231.65 233.69 238.97 233.69 238.65 233.1 238.94 233.1 239.35 233.69 246.72 233.69 243.06 229.6 228.64 229.5 228.21 229.89 227.81 229.5 221.25 229.5 220.96 229.96 220.49 229.5 213.89 229.5 213.5 229.85 213 229.5 206.75 229.5 206.39 230.03 206.07 229.5 199.15 229.5 198.68 230.1 198.39 229.5 192.03 229.6 191.4 230.14 190.75 229.6 184.51 229.6 183.97 230.03 183.43 229.6 177.89 229.5 177.35 230.09 176.76 229.5 169.55 229.5 169.06 230.03 168.58 229.5 162.34 229.6 161.69 230.1 161.26 229.6 154.48 229.5 153.76 230 153.24 229.5 146.51 229.5 145.87 230.03 145.54 229.5 139.73 229.6"/>
          <path class="cls-7" d="M265.3,242.37a.5.5,0,0,1-.5.51h-4.45a.5.5,0,0,1-.5-.51h0a.5.5,0,0,1,.5-.5h4.45a.5.5,0,0,1,.5.5Z"/>
          <path class="cls-8" d="M202.59,240.58a.72.72,0,0,1-.72.72H181.06a.71.71,0,0,1-.71-.72h0a.71.71,0,0,1,.71-.72h20.81a.72.72,0,0,1,.72.72Z"/>
          <path class="cls-9" d="M201.87,241.84a.54.54,0,0,1-.54.53h-19a.54.54,0,0,1-.54-.53h0c0-.3-.06-.54.24-.54h19.61c.3,0,.24.24.24.54Z"/>
          <path class="cls-10" d="M170.25,233.69s-2.68,4.16-2.25,4.88,1.65.65,1.65.65l42.73,0s1.61.12,2.1-.86c.6-1.19-2.15-4.64-2.15-4.64Z"/>
        </g>
        <g>
          <path class="cls-11" d="M143.41,160.46h94.72a6.41,6.41,0,0,1,6.41,6.41v57.26a0,0,0,0,1,0,0H137a0,0,0,0,1,0,0V166.86A6.41,6.41,0,0,1,143.41,160.46Z"/>
          <path class="cls-12" d="M143.41,160.46h94.72a6.41,6.41,0,0,1,6.41,6.41v3.82a0,0,0,0,1,0,0H137a0,0,0,0,1,0,0v-3.82A6.41,6.41,0,0,1,143.41,160.46Z"/>
          <path class="cls-13" d="M237,166.09a1.95,1.95,0,1,1,1.94,1.94A1.94,1.94,0,0,1,237,166.09Z"/>
          <path class="cls-14" d="M231.15,166.09a1.94,1.94,0,1,1,1.94,1.94A1.94,1.94,0,0,1,231.15,166.09Z"/>
          <path class="cls-2" d="M225.33,166.09a1.94,1.94,0,1,1,1.94,1.94A1.94,1.94,0,0,1,225.33,166.09Z"/>
          <rect class="cls-15" x="140.7" y="174.46" width="100.16" height="5.61"/>
          <rect class="cls-15" x="140.7" y="183.56" width="30.86" height="40.57"/>
          <rect class="cls-15" x="177.38" y="183.56" width="63.47" height="2.33"/>
          <rect class="cls-15" x="177.38" y="191.2" width="63.47" height="2.33"/>
          <rect class="cls-15" x="177.38" y="198.85" width="63.47" height="2.33"/>
          <rect class="cls-15" x="177.38" y="206.49" width="63.47" height="2.33"/>
          <rect class="cls-15" x="177.38" y="214.14" width="63.47" height="2.33"/>
          <rect class="cls-15" x="177.38" y="221.78" width="63.47" height="2.33"/>
          <circle class="cls-16" cx="156.13" cy="198.12" r="6.7"/>
        </g>
      </g>
    </g>
  </g>
  <g id="platform">
    <path class="cls-17" d="M400,296.23q-98.67-9.8-200-9.89T0,296.23V331H400Z"/>
    <g>
      <path class="cls-18" d="M99.72,105.83a13.42,13.42,0,0,1-3.31-14,12.52,12.52,0,0,0,.68-4,14,14,0,0,0-.47-3.57A34.12,34.12,0,0,0,97,79a33.27,33.27,0,1,0-66.22,4.51,13.58,13.58,0,0,0-.71,4.35A11.29,11.29,0,0,0,31,92.09a13.86,13.86,0,0,1-2.5,14.25,13.52,13.52,0,0,0-3.32,9,12.7,12.7,0,0,0,12.75,12.44H90.3c7.54,0,13.66-5,13.66-12.6A13,13,0,0,0,99.72,105.83Z"/>
      <path class="cls-19" d="M56.84,95.76H70.28a0,0,0,0,1,0,0v23.6a6.72,6.72,0,0,1-6.72,6.72h0a6.72,6.72,0,0,1-6.72-6.72V95.76a0,0,0,0,1,0,0Z"/>
      <path class="cls-20" d="M59.75,229.32,54.28,401.11l-.17,5.45-4.14.17c-1.83.07-3.65.19-5.46.34s-3.62.34-5.42.52-3.6.38-5.39.65-3.56.55-5.31.95A2.94,2.94,0,0,1,27,403.48c1.73-.46,3.44-1,5.15-1.6s3.4-1.23,5.08-1.91,3.37-1.31,5.05-2,3.34-1.43,5-2.21L43,401.34,30.49,229.92a14.65,14.65,0,0,1,29.23-2.13C59.75,228.3,59.76,228.82,59.75,229.32Z"/>
      <path class="cls-20" d="M96.18,229.92,83.71,401.34l-4.32-5.62c1.66.78,3.33,1.51,5,2.21s3.37,1.37,5,2,3.38,1.32,5.08,1.91,3.42,1.14,5.15,1.6a2.94,2.94,0,0,1-1.39,5.71c-1.75-.4-3.53-.68-5.31-.95s-3.58-.47-5.39-.65-3.6-.39-5.42-.52-3.63-.27-5.46-.34l-4.14-.17-.17-5.45L66.92,229.32a14.65,14.65,0,0,1,29.29-.93A13,13,0,0,1,96.18,229.92Z"/>
      <g>
        <g>
          <path class="cls-21" d="M83.44,127.88S119.63,150.94,112.18,251"/>
          <path class="cls-22" d="M83.44,127.88s31.3,20,29.69,103.23"/>
        </g>
        <g>
          <path class="cls-21" d="M43.69,127.88S7.49,150.94,15,251"/>
          <path class="cls-22" d="M43.69,127.88S12.38,147.83,14,231.11"/>
        </g>
      </g>
      <path id="hips" class="cls-20" d="M72.68,265.17H54.34a29.6,29.6,0,0,1-29.51-32.28l.06-.54c1.33-13.46,7.37-27.12,9.2-32.52h0l.23-.31H93l.34,1.06c1.68,5.23,7.57,18.69,8.78,32,0,.17,0,.33,0,.5A29.59,29.59,0,0,1,72.68,265.17Z"/>
      <path class="cls-23" d="M26.12,224.76H101c-2.17-10.47-4-20-5.3-24.18l-.34-1.06h-.07L95,198.19c-2.59-10-.42-42-.65-47.85l-.59-15a17.33,17.33,0,0,0-17.32-16.64H50.81A17.32,17.32,0,0,0,33.5,135.31l-.6,15c-.23,5.85,2,37.87-.65,47.85l-.37,1.46H32l-.13.18C30.36,204.21,28.39,214,26.12,224.76Z"/>
      <path class="cls-19" d="M73.08,118.67h-19C56.25,128.93,70.88,128.93,73.08,118.67Z"/>
      <g>
        <g>
          <line class="cls-24" x1="53.28" y1="128.71" x2="53.28" y2="140.54"/>
          <path class="cls-25" d="M51.6,128.79a1.68,1.68,0,1,1,1.68,1.68A1.68,1.68,0,0,1,51.6,128.79Z"/>
        </g>
        <g>
          <line class="cls-24" x1="73.85" y1="128.71" x2="73.85" y2="140.54"/>
          <path class="cls-25" d="M72.17,128.79a1.68,1.68,0,1,1,1.68,1.68A1.68,1.68,0,0,1,72.17,128.79Z"/>
        </g>
      </g>
      <path class="cls-25" d="M25.23,229.53H101.8a85.24,85.24,0,0,0-2.07-10H27.34A84.11,84.11,0,0,0,25.23,229.53Z"/>
      <path class="cls-23" d="M87,211.34l-46.5.16,5.42-11.41.81-8.67H80.45c.34,0-.56,4.29.72,8.53C82.74,205.14,87,211.34,87,211.34Z"/>
      <g id="Head">
        <g id="Head-2" data-name="Head">
          <circle id="Head-3" data-name="Head" class="cls-19" cx="63.78" cy="78.96" r="33.26"/>
          <circle class="cls-19" cx="30.2" cy="79.49" r="5.4"/>
          <circle class="cls-19" cx="97.36" cy="79.49" r="5.4"/>
        </g>
        <g id="Face">
          <g id="Mouth">
            <path class="cls-18" d="M65.48,100.44c-.56,0-1.16,0-1.79-.09a.85.85,0,0,1,.17-1.69c6.06.59,8.57-2.22,8.6-2.25a.85.85,0,1,1,1.28,1.11C73.62,97.65,71.14,100.44,65.48,100.44Z"/>
          </g>
          <g id="Eyes_v2" data-name="Eyes v2">
            <circle class="cls-18" cx="74.9" cy="82.45" r="2.44"/>
            <circle class="cls-18" cx="52.65" cy="82.45" r="2.44"/>
          </g>
        </g>
      </g>
      <path id="Head-4" data-name="Head" class="cls-18" d="M97,79s-12.6-.35-22-5.07C68.21,70.45,63.78,63,63.78,63,56.55,77.24,30.51,79,30.51,79A33.27,33.27,0,1,1,97,79Z"/>
      <circle class="cls-25" cx="29.94" cy="86.41" r="1.23"/>
      <circle class="cls-25" cx="97.61" cy="86.41" r="1.23"/>
    </g>
    <g>
      <g id="leg">
        <path class="cls-26" d="M355.88,252c1.39,12,2,24.08,2.34,36.11.07,3,.14,6,.17,9s.07,6-.05,9c-.21,6-1,12-1.48,18.06-.88,12-1.61,24.08-2.42,36.12l-2.38,36.11a5.74,5.74,0,0,1-11.45,0l-2.38-36.11c-.81-12-1.54-24.08-2.43-36.12-.5-6-1.26-12-1.47-18.06-.12-3-.1-6-.05-9s.1-6,.17-9c.34-12,.94-24.07,2.34-36.11a9.61,9.61,0,0,1,19.09,0Z"/>
      </g>
      <g id="leg-2" data-name="leg">
        <path class="cls-26" d="M319.58,252c.86,12,1.19,24.08,1.33,36.11,0,6,.12,12-.07,18.06s-.7,12-1.06,18.06l-4.23,72.23a5.52,5.52,0,0,1-11,0l-4.24-72.23c-.35-6-.9-12-1.06-18.06s-.07-12-.06-18.06c.14-12,.46-24.07,1.33-36.11a9.57,9.57,0,0,1,19.09,0Z"/>
      </g>
      <g>
        <g id="leg-3" data-name="leg">
          <polygon class="cls-27" points="327.02 368.56 294.39 368.56 293.81 256.4 295.22 226.4 327.07 226.4 327.02 368.56"/>
        </g>
        <g id="leg-4" data-name="leg">
          <polygon class="cls-27" points="361.98 368.56 329.35 368.56 329.3 226.4 361.15 226.4 362.56 256.4 361.98 368.56"/>
        </g>
      </g>
      <polygon class="cls-27" points="362.26 258.63 294.1 258.63 295.22 226.4 361.15 226.4 362.26 258.63"/>
      <g>
        <path class="cls-28" d="M302.54,135.19c-2.26,5.11-4.54,10.44-6.76,15.67-1.1,2.63-2.18,5.27-3.24,7.9s-2.13,5.26-3.11,7.9c-2,5.26-3.85,10.56-5.29,15.66-.31,1.25-.73,2.57-.93,3.74l-.38,1.8c-.11.63-.19,1.33-.29,2-.43,2.65-.7,5.43-1,8.2-.49,5.6-.87,11.26-1.1,17s-.43,11.46-.52,17.22c-.17,11.5-.19,23.1,0,34.59v0a6.37,6.37,0,0,1-12.71.65c-1-11.75-1.72-23.39-2.14-35.14s-.62-23.52,0-35.54c.19-3,.35-6,.71-9.15.08-.78.14-1.53.24-2.34l.4-2.49c.24-1.71.63-3.19,1-4.77a168.25,168.25,0,0,1,5.23-17.58c1-2.84,2-5.63,3-8.42s2.17-5.53,3.29-8.27c2.25-5.51,4.59-10.86,7.17-16.31a9.09,9.09,0,0,1,16.53,7.55Z"/>
        <polygon class="cls-29" points="305.44 134.26 289.37 181.93 264.06 171.55 284.66 126.25 305.44 134.26"/>
        <path class="cls-30" d="M295.05,130.26s-3,6.84-7,16.2"/>
      </g>
      <g>
        <path class="cls-28" d="M371.45,127.54c2.58,5.45,4.92,10.8,7.17,16.31,1.12,2.74,2.23,5.49,3.29,8.27s2.07,5.58,3,8.42a165.87,165.87,0,0,1,5.23,17.58c.33,1.58.72,3.06,1,4.77l.4,2.49c.1.81.16,1.56.24,2.34.36,3.11.52,6.12.71,9.15.58,12,.4,23.79,0,35.54s-1.14,23.39-2.14,35.14a6.37,6.37,0,0,1-12.71-.62v-.08c.18-11.49.16-23.09,0-34.59-.09-5.76-.25-11.51-.52-17.22s-.61-11.38-1.1-17c-.3-2.77-.57-5.55-1-8.2-.1-.67-.18-1.37-.29-2l-.38-1.8c-.2-1.17-.62-2.49-.93-3.74-1.44-5.1-3.31-10.4-5.29-15.66-1-2.64-2-5.27-3.11-7.9s-2.14-5.27-3.24-7.9c-2.22-5.23-4.5-10.56-6.76-15.67l0-.09a9.08,9.08,0,0,1,16.52-7.56Z"/>
        <polygon class="cls-29" points="372.85 126.25 393.45 171.55 368.14 181.93 352.07 134.26 372.85 126.25"/>
        <path class="cls-30" d="M362.46,130.26s3,6.84,7,16.2"/>
      </g>
      <path class="cls-29" d="M361.15,226.4H295.22s-.62-9.65-.62-20.11-3.46-25.08-7.53-40.27c-3.91-14.56-6.3-27.78-3.71-36.3,2.23-7.31,5.1-12.6,14.45-12.6h61.12c8.89,0,12.07,3.09,13.7,9.63,2.23,8.89,3,24.08-1.11,37.79-4.24,14.27-9.38,31.78-9.38,41.26S361.15,226.4,361.15,226.4Z"/>
      <g id="neck">
        <path id="neck-2" data-name="neck" class="cls-28" d="M329.35,127.71l-1.17.9-1.17-.9a15.54,15.54,0,0,1-6.05-12.3v-15h14.45v15A15.52,15.52,0,0,1,329.35,127.71Z"/>
      </g>
      <g id="Head-5" data-name="Head">
        <rect id="SquareHead" class="cls-28" x="298.12" y="43.79" width="60.6" height="68.91" rx="30.3"/>
        <g id="ears">
          <circle id="ear_-_L" data-name="ear - L" class="cls-28" cx="298.04" cy="78.12" r="4.9"/>
          <circle id="ear_-_R" data-name="ear - R" class="cls-28" cx="358.96" cy="78.12" r="4.9"/>
        </g>
      </g>
      <path id="SquareHead-2" data-name="SquareHead" class="cls-31" d="M298.39,69.07s-5.62,46.24,30.31,46.21c34.6,0,30.88-45.51,30.88-45.51l-5.26,1.88-1.7,16.67a6.4,6.4,0,0,1-6.81,5.73l-12.74-.89a62.18,62.18,0,0,0-8.74,0L312,94.06a6.39,6.39,0,0,1-6.76-5.27l-3.13-22Z"/>
      <g id="Face-2" data-name="Face">
        <g id="Mouth-2" data-name="Mouth">
          <path class="cls-32" d="M327,100c-5.13,0-7.39-2.53-7.49-2.65a.77.77,0,0,1,1.16-1c.1.11,2.37,2.57,7.81,2.05a.77.77,0,0,1,.14,1.53C328,100,327.47,100,327,100Z"/>
        </g>
        <g id="Eyes_v2-2" data-name="Eyes v2">
          <circle class="cls-32" cx="318.41" cy="83.69" r="2.21"/>
          <circle class="cls-32" cx="338.59" cy="83.69" r="2.21"/>
        </g>
      </g>
      <path id="Fringe" class="cls-32" d="M328.26,43.47A31.4,31.4,0,0,1,349,50.68,19.79,19.79,0,0,0,357.83,55c3.56.7,7.69,2.66,7.69,7.92,0,6.49-5.63,9.13-18.38,9.13-21.32,0-31.6-11.07-32.47-16.24h-.07C312.44,62.89,306,68.39,298,70,300.19,55.26,312.9,43.47,328.26,43.47Z"/>
    </g>
  </g>
</svg>
