<svg xmlns="http://www.w3.org/2000/svg" width="400" height="331" viewBox="0 0 400 331">
  <defs>
    <style>
      .cls-1 {
        fill: #212126;
      }

      .cls-2 {
        fill: #49494e;
      }

      .cls-3 {
        fill: #25b6d1;
      }

      .cls-10, .cls-11, .cls-4 {
        fill: #fff;
      }

      .cls-5 {
        fill: #4469b0;
      }

      .cls-6 {
        fill: #29b3e6;
      }

      .cls-7 {
        fill: #fc0d1b;
      }

      .cls-8 {
        fill: #9ea5b5;
      }

      .cls-9 {
        fill: #12110b;
      }

      .cls-10 {
        opacity: 0.15;
      }

      .cls-11 {
        stroke: #12110b;
        stroke-linejoin: round;
        stroke-width: 7.36px;
      }

      .cls-12 {
        fill: #ea5e65;
      }

      .cls-13 {
        fill: #003263;
      }

      .cls-14 {
        fill: #008b9a;
      }
    </style>
  </defs>
  <title>img-2</title>
  <g id="Layer_1" data-name="Layer 1">
    <g>
      <g>
        <g>
          <polygon class="cls-1" points="55.75 44.86 35.7 44.86 40.03 38.82 51.42 38.82 55.75 44.86"/>
          <rect class="cls-1" x="43.96" y="42.42" width="3.53" height="12.34"/>
        </g>
        <g>
          <polygon class="cls-1" points="144.56 44.86 124.5 44.86 128.84 38.82 140.23 38.82 144.56 44.86"/>
          <rect class="cls-1" x="132.77" y="42.42" width="3.53" height="12.34"/>
        </g>
        <g>
          <polygon class="cls-1" points="233.36 44.86 213.31 44.86 217.64 38.82 229.03 38.82 233.36 44.86"/>
          <rect class="cls-1" x="221.57" y="42.42" width="3.53" height="12.34"/>
        </g>
      </g>
      <g>
        <rect class="cls-1" x="106.64" y="189.28" width="55.58" height="275.43"/>
        <rect class="cls-2" x="3.5" y="50.94" width="261.85" height="150.69"/>
        <rect class="cls-3" x="11.22" y="57.53" width="246.61" height="137.92"/>
        <g>
          <g>
            <path class="cls-4" d="M37.47,125.21c-7,0-10.9-4.91-10.9-9.76,0-4.6,3.74-9.76,10.9-9.76s10.87,5.19,10.87,9.76C48.34,120.33,44.3,125.21,37.47,125.21Zm0-15.56c-3.62,0-6,2.31-6,5.8s2.4,5.8,6,5.8,6-2.32,6-5.8S41.07,109.65,37.47,109.65Z"/>
            <path class="cls-4" d="M53.86,113.22a5.46,5.46,0,0,1,3.68-1.37c3.35,0,6,2.85,6,6.53,0,4.12-2.51,6.83-6.33,6.83a6.79,6.79,0,0,1-3.32-.9v7.06h-4V112.1h4Zm0,8.45a3.88,3.88,0,0,0,2.35.83c2,0,3.2-1.5,3.2-3.9s-1.11-3.88-3-3.88a3.78,3.78,0,0,0-2.51,1Z"/>
            <path class="cls-4" d="M78.4,123.51a9.33,9.33,0,0,1-5.75,1.7c-4.51,0-7.44-2.62-7.44-6.64A6.49,6.49,0,0,1,72,111.85c3.74,0,6.83,2.65,6.64,7.33H69.39c.14,2.29,1.7,3.63,4.24,3.63A7.59,7.59,0,0,0,78.4,121Zm-3.35-6.44a2.77,2.77,0,0,0-2.79-2.82c-1.59,0-2.62,1-2.78,2.82Z"/>
            <path class="cls-4" d="M84.42,113.94a5.18,5.18,0,0,1,4.18-2.09c2,0,4.68,1.15,4.68,4.94V125h-4v-7.84c0-1.81-.86-2.56-2-2.56s-1.75.53-2.81,2.12V125h-4V112.1h4Z"/>
            <path class="cls-4" d="M111.77,105.94c4.34,0,6.3,3,6.3,5.63s-1.9,5.75-6.28,5.75H108V125h-4.74v-19ZM108,113.83h2.2c2.18,0,3-.78,3-2.2,0-1.62-.92-2.2-3.49-2.2H108Z"/>
            <path class="cls-4" d="M125.18,125.21c-4.21,0-7.28-2.65-7.28-6.69,0-4.38,3.48-6.67,7.28-6.67,3.15,0,7.22,1.76,7.22,6.69C132.4,123.64,128,125.21,125.18,125.21Zm0-11c-1.76,0-3,1.37-3,4.27,0,3.31,1.42,4.29,3,4.29,1.89,0,2.89-1.56,2.89-4.38C128.07,115.92,127.21,114.25,125.18,114.25Z"/>
            <path class="cls-4" d="M138.36,125h-4v-19h4Z"/>
            <path class="cls-4" d="M145.11,131.12h-4.29l3.76-8.26-5-10.76h4.32l2.7,6.61,2.9-6.61h4.24Z"/>
            <path class="cls-4" d="M164.91,114.86h-4.69v5.3a1.87,1.87,0,0,0,2,2.06,5.6,5.6,0,0,0,2.71-.75v2.93a9.23,9.23,0,0,1-3.74.81c-2.68,0-5-1.23-5-4.83v-5.52h-1.84v-.78l5.38-6h.5v4h4.69Z"/>
            <path class="cls-4" d="M179.24,123.51a9.33,9.33,0,0,1-5.75,1.7c-4.51,0-7.44-2.62-7.44-6.64a6.48,6.48,0,0,1,6.77-6.72c3.74,0,6.83,2.65,6.64,7.33h-9.23c.14,2.29,1.7,3.63,4.24,3.63a7.59,7.59,0,0,0,4.77-1.84Zm-3.35-6.44a2.77,2.77,0,0,0-2.79-2.82c-1.59,0-2.62,1-2.79,2.82Z"/>
            <path class="cls-4" d="M193,124.34a12.49,12.49,0,0,1-4.35.87c-4.52,0-7.45-2.62-7.45-6.64s3-6.72,7.28-6.72a13.39,13.39,0,0,1,4.32.84v3a7.37,7.37,0,0,0-3.29-.86c-2.42,0-4,1.45-4,3.7a3.59,3.59,0,0,0,3.84,3.79,9.9,9.9,0,0,0,3.63-.89Z"/>
            <path class="cls-4" d="M199.5,114h.06a5,5,0,0,1,4.07-2.15c2.34,0,4.71,1.42,4.71,4.91V125h-4v-7.34c0-1.92-.84-2.81-2.09-2.81-1,0-1.76.58-2.71,2V125h-4v-19h4Z"/>
            <path class="cls-4" d="M214.28,113.94a5.18,5.18,0,0,1,4.18-2.09c2,0,4.68,1.15,4.68,4.94V125h-4v-7.84c0-1.81-.86-2.56-2-2.56-1,0-1.75.53-2.81,2.12V125h-4.05V112.1h4.05Z"/>
            <path class="cls-4" d="M229.39,107.92a2.24,2.24,0,1,1-2.23-2.23A2.24,2.24,0,0,1,229.39,107.92Zm-.2,17h-4V112.1h4Z"/>
            <path class="cls-4" d="M242.43,124.34a12.4,12.4,0,0,1-4.35.87c-4.51,0-7.44-2.62-7.44-6.64s3-6.72,7.28-6.72a13.39,13.39,0,0,1,4.32.84v3a7.4,7.4,0,0,0-3.29-.86c-2.43,0-4,1.45-4,3.7a3.6,3.6,0,0,0,3.85,3.79,9.86,9.86,0,0,0,3.62-.89Z"/>
          </g>
          <path class="cls-4" d="M34,141.91l.14.12-1.72,0h0l-3.67-3.56V142H27.5v-7.61h1.22v3.3l3.07-3.3h1.5L30,138l4,3.89"/>
          <path class="cls-4" d="M42,139.13v-4.71h1.23v4.48c0,.85.1,1.16.43,1.48h0a2.06,2.06,0,0,0,1.55.62h0a2.37,2.37,0,0,0,1.7-.58h0a2.12,2.12,0,0,0,.45-1.58h0v-4.42h1.22V139c0,1.87-1.14,3.11-3.39,3.11h0a2.93,2.93,0,0,1-3.19-3Z"/>
          <path class="cls-4" d="M88.23,142H87.09v-6.5H84.5v-1.11h6.39v1.11H88.31V142Z"/>
          <path class="cls-4" d="M100.38,142H99.23v-7.61h1.22V142Z"/>
          <path class="cls-4" d="M116.41,142l-1,0-4.87-5.6V142h-1.15v-7.61h.07l.91,0,4.93,5.63v-5.65h1.16V142Z"/>
          <path class="cls-4" d="M126.61,142h-1.15v-7.62h1.22V142Z"/>
          <path class="cls-4" d="M147.9,142h-1.15v-6.5h-2.58v-1.11h6.39v1.11H148V142Z"/>
          <path class="cls-4" d="M158.73,139.13v-4.72H160v4.49c0,.85.11,1.16.43,1.48h0a2.09,2.09,0,0,0,1.56.62h0a2.39,2.39,0,0,0,1.7-.58h0a2.12,2.12,0,0,0,.45-1.58h0v-4.43h1.22V139c0,1.86-1.14,3.1-3.39,3.1h0a2.93,2.93,0,0,1-3.19-3Z"/>
          <path class="cls-4" d="M181.73,142.1h-.26l-2.4-6-2.43,6h-.31l-3.08-7.68h1.23l2,5,2-5h1.12l2,5,2-5h1.22l-3.07,7.63,0,0Zm0-.08h0"/>
          <path class="cls-4" d="M199.4,142h-1.15v-3.25h-4V142H193v-7.61h1.22v3.25h4v-3.25h1.22V142Z"/>
          <path class="cls-4" d="M208.44,142v-7.61h4.39v1.11h-3.17v2.11h3.06v1.11h-3.06v2.17h3.27V142Z"/>
          <path class="cls-4" d="M223.37,134.42c1.53,0,2.52.83,2.53,2.16h0a2,2,0,0,1-1.17,1.85h0a6.6,6.6,0,0,1,1.57,2h0c.32.51.5.76,1,1.48h0l.08.11h-1.47l-1-1.56c-1-1.53-1.4-1.67-1.92-1.68h-.38V142h-1.22v-7.61h2m-.12,3.26c1.1,0,1.38-.53,1.39-1.11h0s0,0,0,0h0c0-.67-.37-1-1.39-1.06h-.62v2.2Z"/>
          <path class="cls-4" d="M59.35,134.42c1.53,0,2.52.83,2.52,2.16h0a1.93,1.93,0,0,1-1.17,1.85h0a6.47,6.47,0,0,1,1.58,2h0c.32.51.5.76,1,1.48h0l.09.11H61.91l-1-1.56c-1-1.53-1.4-1.67-1.92-1.68h-.37V142H57.39v-7.61h2m-.12,3.26c1.1,0,1.38-.53,1.39-1.11h0s0,0,0,0h0c0-.67-.37-1-1.39-1.06h-.62v2.2Z"/>
          <path class="cls-4" d="M78.09,141.93l-3.36-7.56h-.85L70.6,142h1.26l.94-2.2h3.08l1,2.2h1.26Zm-4.81-3.21,1-2.44,1.09,2.44Z"/>
          <path class="cls-4" d="M242.1,141.93l-3.36-7.56h-.86L234.61,142h1.26l.94-2.2h3.08l1,2.2h1.25Zm-4.81-3.21,1-2.44,1.08,2.44Z"/>
        </g>
      </g>
      <g>
        <path class="cls-5" d="M380.17,136.41a1.85,1.85,0,0,1-.77,1.21,1.76,1.76,0,0,1-1.44.32l-8.51-1.56,2.38-13,4.33.79,1.59-4.88-5-.91.59-3.21a2.79,2.79,0,0,1,.77-1.71,2.67,2.67,0,0,1,2.14-.3l2.69.49.83-4.55c-1-.29-2.31-.58-3.85-.86a6.16,6.16,0,0,0-7.71,5.45l-.68,3.73-4.33-.79-.92,5,4.33.79-2.38,13-16-2.93a1.76,1.76,0,0,1-1.24-.8,1.9,1.9,0,0,1-.29-1.4l5.45-29.7a1.81,1.81,0,0,1,2.2-1.52l29.7,5.44a1.9,1.9,0,0,1,1.21.77,1.76,1.76,0,0,1,.31,1.44Z"/>
        <path class="cls-6" d="M310.09,113.58a21.8,21.8,0,0,1-2.57,10.2,20.9,20.9,0,0,1-7.41,8.28,21.12,21.12,0,0,1-11.95,3.45,21.37,21.37,0,0,1-11.81-3.45c.54.05,1.15.08,1.83.08a15.26,15.26,0,0,0,9.61-3.3,7.19,7.19,0,0,1-4.51-1.51,7.7,7.7,0,0,1-2.68-3.77c.49,0,1,.07,1.4.07a9.53,9.53,0,0,0,2.05-.22,7.78,7.78,0,0,1-4.4-2.71,7.42,7.42,0,0,1-1.76-4.84v-.15a7.36,7.36,0,0,0,3.45,1,8.7,8.7,0,0,1-2.5-2.79,7.49,7.49,0,0,1,.15-7.56,21.45,21.45,0,0,0,15.84,8.07,10.37,10.37,0,0,1-.15-1.76,7.69,7.69,0,0,1,1-3.85A7.48,7.48,0,0,1,298.5,106a7.62,7.62,0,0,1,6.93-.37,8.77,8.77,0,0,1,2.53,1.76,15.54,15.54,0,0,0,4.91-1.83,7.62,7.62,0,0,1-3.37,4.25,16.19,16.19,0,0,0,4.4-1.25,17,17,0,0,1-3.89,4A4.13,4.13,0,0,1,310.09,113.58Z"/>
        <path class="cls-7" d="M344.15,58A27,27,0,0,1,346,62.69l.82,2.92.69,3a27.85,27.85,0,0,1,.67,5,4.28,4.28,0,0,1-.61,2A4.14,4.14,0,0,1,346,77.17a42.37,42.37,0,0,1-7,2.43L333.63,81l-5.37,1.31a43.56,43.56,0,0,1-7.33,1.26,4.29,4.29,0,0,1-3.61-2.09,27.75,27.75,0,0,1-1.84-4.73l-.81-2.93c-.23-.86-.46-1.85-.7-3a27.4,27.4,0,0,1-.65-5,4.22,4.22,0,0,1,2.14-3.62,43,43,0,0,1,7-2.44l5.34-1.43,5.37-1.32a43.29,43.29,0,0,1,7.33-1.25A4.22,4.22,0,0,1,344.15,58Zm-15.48,17.4,7.18-7-9.64-2.6Z"/>
      </g>
    </g>
  </g>
  <g id="platform">
    <path class="cls-8" d="M400,296.23q-98.67-9.8-200-9.89T0,296.23V331H400Z"/>
    <g>
      <rect class="cls-9" x="277.37" y="271.13" width="19.86" height="24.97" transform="translate(9.48 -9.29) rotate(1.88)"/>
      <rect class="cls-10" x="284.2" y="271.13" width="6.19" height="24.97" transform="translate(9.48 -9.29) rotate(1.88)"/>
      <rect class="cls-11" x="186.35" y="158.22" width="206.26" height="118.06" transform="translate(7.3 -9.4) rotate(1.88)"/>
      <circle class="cls-12" cx="383.08" cy="279.54" r="1.46"/>
      <g>
        <path class="cls-13" d="M235.53,216.19c-3.88-.12-6-2.92-5.88-5.62s2.25-5.35,6.23-5.22,6,3.08,5.87,5.62c-.09,2.71-2.43,5.35-6.22,5.22m.28-8.64a3.22,3.22,0,1,0,3.23,3.33,3.09,3.09,0,0,0-3.23-3.33"/>
        <path class="cls-13" d="M244.86,209.83a3,3,0,0,1,2.07-.69,3.43,3.43,0,0,1,3.19,3.73c-.07,2.3-1.52,3.75-3.64,3.68a3.88,3.88,0,0,1-1.83-.55l-.13,3.92-2.24-.08.35-10.7,2.25.07Zm-.16,4.69A2.12,2.12,0,0,0,246,215c1.1,0,1.81-.78,1.85-2.11s-.55-2.17-1.62-2.21a2.08,2.08,0,0,0-1.41.53Z"/>
        <path class="cls-13" d="M258.3,216a5.23,5.23,0,0,1-3.22.84c-2.51-.09-4.09-1.6-4-3.83a3.74,3.74,0,1,1,7.45.59l-5.13-.17a2.09,2.09,0,0,0,2.29,2.09,4.22,4.22,0,0,0,2.68-.93Zm-1.74-3.64a1.54,1.54,0,0,0-1.5-1.62,1.52,1.52,0,0,0-1.6,1.51Z"/>
        <path class="cls-13" d="M261.82,210.79a2.87,2.87,0,0,1,2.37-1.08,2.5,2.5,0,0,1,2.51,2.82l-.15,4.54L264.3,217l.15-4.35c0-1-.44-1.45-1.07-1.47s-1,.27-1.61,1.13l-.15,4.6-2.24-.07.23-7.15,2.25.08Z"/>
        <path class="cls-13" d="M277.17,206.84a3.18,3.18,0,1,1-.19,6.33l-2.09-.07-.14,4.24-2.64-.08.35-10.57ZM275,211.16l1.22,0c1.21,0,1.66-.38,1.69-1.17s-.47-1.24-1.9-1.29l-.93,0Z"/>
        <path class="cls-13" d="M284.27,217.8a3.72,3.72,0,0,1-3.92-3.86c.08-2.43,2.06-3.63,4.17-3.57,1.75.06,4,1.11,3.89,3.86s-2.56,3.62-4.14,3.57m.2-6.09c-1,0-1.67.7-1.72,2.31-.06,1.85.71,2.42,1.57,2.44,1.05,0,1.64-.81,1.69-2.38,0-1.39-.41-2.34-1.54-2.37"/>
        <rect class="cls-13" x="285.37" y="211.45" width="10.57" height="2.25" transform="translate(68.64 496.09) rotate(-88.12)"/>
        <polygon class="cls-13" points="295.25 221.44 292.86 221.37 295.1 216.85 292.51 210.78 294.91 210.86 296.29 214.58 298.03 210.96 300.38 211.04 295.25 221.44"/>
        <path class="cls-13" d="M306.54,212.77l-2.6-.08-.1,2.94a1.05,1.05,0,0,0,1.07,1.19,3.17,3.17,0,0,0,1.51-.37l-.05,1.62a5,5,0,0,1-2.09.38,2.47,2.47,0,0,1-2.69-2.77l.1-3.07-1,0,0-.43,3.1-3.25h.27l-.07,2.24,2.6.09Z"/>
        <path class="cls-13" d="M314.35,217.84a5.19,5.19,0,0,1-3.22.84c-2.51-.08-4.09-1.59-4-3.82a3.74,3.74,0,1,1,7.44.58l-5.13-.17a2.08,2.08,0,0,0,2.29,2.09,4.23,4.23,0,0,0,2.69-.93Zm-1.74-3.64a1.54,1.54,0,0,0-1.5-1.62,1.52,1.52,0,0,0-1.6,1.52Z"/>
        <path class="cls-13" d="M322,218.56a7.25,7.25,0,0,1-2.43.4c-2.51-.09-4.09-1.6-4-3.83a3.75,3.75,0,0,1,4.17-3.6,7.4,7.4,0,0,1,2.38.55l0,1.67a4.17,4.17,0,0,0-1.81-.54,2.09,2.09,0,1,0-.22,4.16,5.44,5.44,0,0,0,2-.43Z"/>
        <path class="cls-13" d="M325.79,212.93h0a2.77,2.77,0,0,1,2.3-1.12,2.51,2.51,0,0,1,2.53,2.81l-.15,4.56-2.25-.08.14-4.07c0-1.07-.42-1.58-1.11-1.6-.53,0-1,.29-1.54,1l-.15,4.56-2.25-.08.35-10.57,2.24.08Z"/>
        <path class="cls-13" d="M334,213.17a2.88,2.88,0,0,1,2.36-1.09,2.51,2.51,0,0,1,2.52,2.83l-.15,4.54-2.25-.08.14-4.35c0-1-.43-1.44-1.07-1.46s-1,.26-1.6,1.12l-.15,4.61-2.25-.08.24-7.14,2.24.07Z"/>
        <path class="cls-13" d="M342.51,210.09a1.23,1.23,0,0,1-1.28,1.2,1.24,1.24,0,1,1,1.28-1.2m-.42,9.47-2.25-.08.24-7.14,2.24.08Z"/>
        <path class="cls-13" d="M349.46,219.46a6.74,6.74,0,0,1-2.43.4c-2.51-.08-4.09-1.59-4-3.82a3.75,3.75,0,0,1,4.17-3.6,7.32,7.32,0,0,1,2.38.54l-.05,1.67a4.17,4.17,0,0,0-1.81-.54,2.09,2.09,0,1,0-.22,4.17,5.44,5.44,0,0,0,2-.43Z"/>
        <polygon class="cls-14" points="233.28 225.41 233.35 225.49 232.4 225.44 230.42 223.39 230.35 225.39 230.31 225.38 229.67 225.36 229.81 221.13 229.85 221.13 230.49 221.15 230.43 222.99 232.2 221.21 233.03 221.24 231.12 223.18 233.28 225.41"/>
        <path class="cls-14" d="M237.78,224l.09-2.63h0l.64,0-.08,2.49c0,.47,0,.64.21.83a1.14,1.14,0,0,0,.85.37,1.33,1.33,0,0,0,1-.29,1.18,1.18,0,0,0,.28-.87l.08-2.46h0l.64,0-.09,2.57a1.84,1.84,0,0,1-3.66-.06"/>
        <polygon class="cls-14" points="263.43 226.47 262.79 226.45 262.91 222.84 261.48 222.79 261.48 222.75 261.5 222.17 265.05 222.29 265.05 222.33 265.03 222.87 265.03 222.91 263.59 222.86 263.47 226.47 263.43 226.47"/>
        <polygon class="cls-14" points="270.18 226.7 269.54 226.68 269.68 222.44 269.73 222.44 270.36 222.46 270.22 226.66 270.22 226.7 270.18 226.7"/>
        <polygon class="cls-14" points="279.09 226.99 278.55 226.96 275.95 223.76 275.85 226.88 275.81 226.88 275.21 226.86 275.35 222.63 275.39 222.63 275.89 222.66 278.53 225.88 278.63 222.74 278.67 222.74 279.27 222.76 279.14 226.95 279.13 226.99 279.09 226.99"/>
        <polygon class="cls-14" points="284.76 227.18 284.12 227.16 284.26 222.92 284.3 222.92 284.94 222.94 284.8 227.13 284.8 227.18 284.76 227.18"/>
        <polygon class="cls-14" points="296.59 227.56 295.96 227.54 296.07 223.93 294.64 223.88 294.64 223.84 294.66 223.26 298.21 223.38 298.21 223.42 298.19 223.96 298.19 224 296.75 223.95 296.63 227.57 296.59 227.56"/>
        <path class="cls-14" d="M302.67,226.15l.08-2.62h.05l.63,0-.08,2.5c0,.46,0,.64.21.83a1.24,1.24,0,0,0,.86.37,1.3,1.3,0,0,0,.95-.3,1.14,1.14,0,0,0,.28-.87l.08-2.45h0l.64,0-.08,2.56a1.66,1.66,0,0,1-1.95,1.67,1.63,1.63,0,0,1-1.71-1.73"/>
        <path class="cls-14" d="M312.54,228.09h-.11m3,.1h-.12"/>
        <path class="cls-14" d="M315.4,228.22h-.15L314,224.84l-1.46,3.29h-.17l-1.58-4.33h.07l.62,0,1,2.82,1.22-2.75h0l.59,0,1,2.83L316.6,224h0l.65,0-1.84,4.19,0,0Zm0,0h0"/>
        <polygon class="cls-14" points="325.22 228.51 324.58 228.49 324.64 226.68 322.39 226.6 322.33 228.41 322.29 228.41 321.65 228.39 321.8 224.15 321.84 224.16 322.47 224.18 322.41 225.99 324.66 226.06 324.72 224.25 324.76 224.25 325.4 224.27 325.26 228.47 325.26 228.51 325.22 228.51"/>
        <polygon class="cls-14" points="330.24 228.67 330.38 224.44 332.82 224.52 332.82 224.56 332.8 225.09 332.8 225.14 331.04 225.08 331 226.25 332.7 226.31 332.7 226.35 332.68 226.92 330.98 226.87 330.94 228.07 332.76 228.13 332.76 228.18 332.74 228.75 330.24 228.67"/>
        <path class="cls-14" d="M338.68,224.71c.85,0,1.39.51,1.37,1.25a1.08,1.08,0,0,1-.69,1,3.81,3.81,0,0,1,.84,1.15c.17.29.26.43.54.84l0,.07h-.08l-.73,0-.54-.89c-.52-.87-.74-.95-1-1h-.21l-.06,1.8h0l-.64,0,.14-4.24,1.09,0m-.13,1.81c.62,0,.78-.27.8-.59a0,0,0,0,1,0,0c0-.37-.19-.58-.76-.61h-.34l0,1.22Z"/>
        <path class="cls-14" d="M247.52,221.71c.85,0,1.38.51,1.36,1.25a1.08,1.08,0,0,1-.68,1,3.79,3.79,0,0,1,.84,1.14,9.46,9.46,0,0,0,.53.84l.05.07h-.08l-.74,0-.53-.89c-.52-.87-.75-.95-1-1H247l-.06,1.8h-.05l-.63,0,.14-4.23,1.09,0m-.13,1.81c.61,0,.78-.27.79-.59v0c0-.37-.18-.58-.75-.61h-.34l0,1.22Z"/>
        <path class="cls-14" d="M257.8,226.23,256.07,222l-.48,0-2,4.2.7,0,.57-1.2,1.71.05.51,1.25.7,0Zm-2.62-1.87.61-1.34.56,1.38Z"/>
        <path class="cls-14" d="M349,229.23,347.22,225l-.47,0-2,4.2.7,0,.56-1.2,1.71.05.52,1.24.69,0Zm-2.61-1.87.6-1.34.56,1.37Z"/>
      </g>
      <rect class="cls-9" x="232.27" y="295.01" width="109.11" height="5.82" transform="translate(9.95 -9.27) rotate(1.88)"/>
    </g>
  </g>
</svg>
