<?xml version="1.0" encoding="utf-8"?>
<!-- Generator: Adobe Illustrator 23.0.1, SVG Export Plug-In . SVG Version: 6.00 Build 0)  -->
<svg version="1.1" id="Layer_1" xmlns="http://www.w3.org/2000/svg" xmlns:xlink="http://www.w3.org/1999/xlink" x="0px" y="0px"
	 viewBox="0 0 400 331" style="enable-background:new 0 0 400 331;" xml:space="preserve">
<style type="text/css">
	.st0{fill:#9EA5B5;}
	.st1{fill:#12110B;}
	.st2{fill:#FFFFFF;}
	.st3{fill:#ECEDF0;}
	.st4{fill:#F1F6FC;}
	.st5{fill:#2E2D33;}
	.st6{fill:#CECFD9;}
	.st7{fill:#13120D;}
	.st8{fill:#464551;}
	.st9{fill:#9EA1AB;}
	.st10{fill:#EFF1F6;}
	.st11{fill:#CBCFDA;}
	.st12{opacity:0.1;enable-background:new    ;}
	.st13{fill:#414B5B;}
	.st14{fill:#EA5E65;}
	.st15{fill:#F5D010;}
	.st16{fill:#5BC4BF;}
	.st17{fill:#938C86;}
	.st18{fill:#BCBCBC;}
	.st19{fill:none;stroke:#BCBCBC;stroke-width:0.46;stroke-linecap:round;stroke-linejoin:round;}
	.st20{opacity:0.5;fill:#FFFFFF;enable-background:new    ;}
	.st21{fill:#484C54;}
	.st22{fill:#061B40;}
</style>
<title>img-5</title>
<g id="platform">
	<path class="st0" d="M400,296.2c-65.8-6.5-132.4-9.8-200-9.9c-67.6-0.1-134.2,3.2-200,9.9V331h400V296.2z"/>
	<g>
		<g>
			<g>
				<path class="st1" d="M322.4,265.1c0.1,4.6-3.5,8.5-8.2,8.7H81.8c-4.6-0.1-8.3-4-8.2-8.7V106.2c-0.1-4.6,3.5-8.5,8.2-8.7h232.4
					c4.6,0.1,8.3,4,8.2,8.7V265.1z"/>
				<rect x="83.6" y="107.6" class="st2" width="229.6" height="144.7"/>
				<rect x="83.6" y="175.5" class="st3" width="229.6" height="76.8"/>
				<path class="st4" d="M73.7,258.9l-26.1,23.2c0,0-0.6,4.3,0.2,6s1.6,2.8,5.2,3.2s293,0,293,0c1.4-0.7,2.7-1.6,3.9-2.6
					c1.2-1.1,1.8-2.6,1.7-4.1v-2l-29.1-24.3L73.7,258.9z"/>
				<path class="st5" d="M50.5,291.3c0,0,4.7,2.9,9.2,3.2h281c0,0,4.8-1.8,6.4-3.3S50.5,291.3,50.5,291.3z"/>
				<path class="st6" d="M47.6,282.1c0,0-0.8,3.8,0.2,6c0.6,1.4,1.7,2.6,3.1,3.4l296.2-0.2c1.2-0.7,2.3-1.6,3.2-2.6
					c1.7-1.7,1.2-6.1,1.2-6.1L47.6,282.1z"/>
				<polygon class="st7" points="102.8,262.2 95.1,269.8 108.3,269.8 109.9,268.5 110.5,268.6 109.4,269.8 122.9,269.8 123.7,268.9 
					124.2,268.9 123.9,269.8 136.7,269.8 137.4,269 138.1,269 137.5,269.8 155.5,269.8 156.6,268.8 157.4,268.8 156.5,269.8 
					225.4,269.8 224.3,268.5 224.9,268.5 226.2,269.8 244.1,269.8 243.3,268.8 243.8,268.7 244.9,269.8 258.2,269.8 257.5,268.8 
					258.1,268.8 259,269.8 272.2,269.8 271.6,268.8 272.2,268.8 273,269.8 286.5,269.8 285.9,268.7 286.5,268.7 287.2,269.8 
					300.9,269.8 294.1,262.2 267.4,262 266.6,262.7 265.9,262 253.7,262 253.2,262.9 252.3,262 240.1,262 239.4,262.7 238.4,262 
					226.9,262 226.2,263 225.6,262 212.8,262 211.9,263.1 211.4,262 199.6,262.2 198.4,263.2 197.2,262.2 185.7,262.2 184.7,263 
					183.7,262.2 173.4,262 172.4,263.1 171.3,262 158,262 157.1,263 156.2,262 144.6,262.2 143.4,263.1 142.6,262.2 130.1,262 
					128.7,263 127.8,262 115.3,262 114.1,263 113.5,262 				"/>
				<path class="st8" d="M335.3,285.9c0,0.5-0.4,0.9-0.9,0.9h-8.2c-0.5,0-0.9-0.4-0.9-0.9l0,0c0-0.5,0.4-0.9,0.9-0.9h8.2
					C334.9,284.9,335.3,285.3,335.3,285.9z"/>
				<path class="st9" d="M219.2,282.5c0,0.7-0.6,1.3-1.3,1.3h-38.5c-0.7,0-1.3-0.6-1.3-1.3l0,0c0-0.7,0.6-1.3,1.3-1.3h38.5
					C218.6,281.2,219.2,281.8,219.2,282.5L219.2,282.5z"/>
				<path class="st10" d="M217.8,284.9c0,0.6-0.4,1-1,1h-35.2c-0.6,0-1-0.4-1-1l0,0c0-0.5-0.1-1,0.4-1h36.3
					C217.9,283.9,217.8,284.3,217.8,284.9L217.8,284.9z"/>
				<path class="st11" d="M159.3,269.8c0,0-4.9,7.7-4.1,9s3.1,1.2,3.1,1.2h79.1c0,0,3,0.2,3.9-1.6c1.1-2.2-4-8.6-4-8.6L159.3,269.8z
					"/>
			</g>
			<g>
				<path class="st12" d="M113.1,102v128.5c0,4.7,3.8,8.5,8.5,8.5c0,0,0,0,0,0h159.6c4.7,0,8.5-3.8,8.5-8.5c0,0,0,0,0,0V102H113.1z"
					/>
				<path class="st2" d="M112.9,44.6h159.9c4.7,0,8.6,3.8,8.6,8.6v164.1c0,4.7-3.8,8.6-8.6,8.6H112.9c-4.7,0-8.6-3.8-8.6-8.6V53.1
					C104.3,48.4,108.2,44.6,112.9,44.6z"/>
				<path class="st13" d="M281.4,60.3v-7.2c0-4.7-3.8-8.6-8.6-8.6c0,0,0,0,0,0H112.9c-4.7,0-8.6,3.8-8.6,8.6v7.2H281.4z"/>
				<path class="st14" d="M250.6,52.5c0,1.8,1.4,3.2,3.2,3.2c1.8,0,3.2-1.4,3.2-3.2c0-1.8-1.4-3.2-3.2-3.2c0,0,0,0,0,0
					C252,49.2,250.6,50.7,250.6,52.5z"/>
				<path class="st15" d="M262.8,52.5c0,1.8,1.4,3.2,3.2,3.2c1.8,0,3.2-1.4,3.2-3.2c0-1.8-1.4-3.2-3.2-3.2
					C264.2,49.2,262.8,50.6,262.8,52.5C262.8,52.4,262.8,52.4,262.8,52.5z"/>
				<path class="st16" d="M238.3,52.5c0,1.8,1.4,3.2,3.2,3.2c1.8,0,3.2-1.4,3.2-3.2c0-1.8-1.4-3.2-3.2-3.2c0,0,0,0,0,0
					C239.7,49.2,238.3,50.7,238.3,52.5z"/>
				<path class="st2" d="M189.6,52.5c0,1.8-1.5,3.3-3.3,3.3c0,0,0,0,0,0h-62.7c-1.8,0-3.3-1.5-3.3-3.3l0,0c0-1.8,1.5-3.3,3.3-3.3
					h62.7C188.1,49.1,189.6,50.6,189.6,52.5z"/>
				<g>
					<path class="st17" d="M187.4,132.3h-29.6c-0.8,0-1.5-0.7-1.5-1.5s0.7-1.5,1.5-1.5l0,0h29.6c0.8,0,1.5,0.7,1.5,1.5
						S188.2,132.3,187.4,132.3z"/>
					<path class="st18" d="M201.5,141.9h-43.7c-0.8,0-1.5-0.7-1.5-1.5s0.7-1.5,1.5-1.5l0,0h43.7c0.8,0,1.5,0.7,1.5,1.5
						S202.4,141.9,201.5,141.9z"/>
					<path class="st18" d="M233,141.9h-23.3c-0.8,0-1.5-0.7-1.5-1.5s0.7-1.5,1.5-1.5H233c0.8,0,1.5,0.7,1.5,1.5
						S233.8,141.9,233,141.9z"/>
					<path class="st18" d="M177,149.7h-19.2c-0.8,0-1.5-0.7-1.5-1.5s0.7-1.5,1.5-1.5l0,0H177c0.8,0,1.5,0.7,1.5,1.5
						S177.8,149.7,177,149.7z"/>
					<path class="st18" d="M191.6,149.7h-7.2c-0.8,0-1.5-0.7-1.5-1.5s0.7-1.5,1.5-1.5h7.2c0.8,0,1.5,0.7,1.5,1.5
						S192.4,149.7,191.6,149.7z"/>
					<path class="st18" d="M247.6,149.7h-7.2c-0.8,0-1.5-0.7-1.5-1.5s0.7-1.5,1.5-1.5h7.2c0.8,0,1.5,0.7,1.5,1.5
						S248.4,149.7,247.6,149.7z"/>
					<path class="st18" d="M263,141.9h-23.3c-0.8,0-1.5-0.7-1.5-1.5s0.7-1.5,1.5-1.5l0,0H263c0.8,0,1.5,0.7,1.5,1.5
						S263.8,141.9,263,141.9z"/>
					<path class="st18" d="M233,149.7h-34c-0.8,0-1.5-0.7-1.5-1.5s0.7-1.5,1.5-1.5l0,0h34c0.8,0,1.5,0.7,1.5,1.5
						S233.8,149.7,233,149.7z"/>
					<g>
						<path class="st14" d="M123.2,154.5v-27.9h27.9v27.9H123.2z M148.4,151.9v-22.5h-22.5v22.5L148.4,151.9z"/>
						<path class="st14" d="M150,153.4h-25.7v-25.7H150V153.4z M126.1,151.7h22.2v-22.2h-22.2L126.1,151.7z"/>
					</g>
					<g>
						<polygon class="st14" points="127.2,140 129.1,138 135.6,144.1 144.9,132.4 147.2,134.3 136,148.8 						"/>
						<polygon class="st14" points="135.9,147.1 128.8,140 130,138.7 135.8,144.5 144.3,133.5 145.6,134.5 						"/>
					</g>
				</g>
				<g>
					<path class="st17" d="M187.4,84.6h-29.6c-0.8,0-1.5-0.7-1.5-1.5s0.7-1.5,1.5-1.5l0,0h29.6c0.8,0,1.5,0.7,1.5,1.5
						S188.2,84.6,187.4,84.6z"/>
					<path class="st18" d="M201.5,94.1h-43.7c-0.8,0-1.5-0.7-1.5-1.5s0.7-1.5,1.5-1.5l0,0h43.7c0.8,0,1.5,0.7,1.5,1.5
						S202.4,94.1,201.5,94.1z"/>
					<path class="st18" d="M233,94.1h-23.3c-0.8,0-1.5-0.7-1.5-1.5s0.7-1.5,1.5-1.5H233c0.8,0,1.5,0.7,1.5,1.5S233.8,94.1,233,94.1z
						"/>
					<path class="st18" d="M177,102h-19.2c-0.8,0-1.5-0.7-1.5-1.5s0.7-1.5,1.5-1.5l0,0H177c0.8,0,1.5,0.7,1.5,1.5S177.8,102,177,102
						z"/>
					<path class="st18" d="M191.6,102h-7.2c-0.8,0-1.5-0.7-1.5-1.5s0.7-1.5,1.5-1.5h7.2c0.8,0,1.5,0.7,1.5,1.5S192.4,102,191.6,102z
						"/>
					<path class="st18" d="M247.6,102h-7.2c-0.8,0-1.5-0.7-1.5-1.5s0.7-1.5,1.5-1.5h7.2c0.8,0,1.5,0.7,1.5,1.5S248.4,102,247.6,102z
						"/>
					<path class="st18" d="M263,94.1h-23.3c-0.8,0-1.5-0.7-1.5-1.5s0.7-1.5,1.5-1.5l0,0H263c0.8,0,1.5,0.7,1.5,1.5
						S263.8,94.1,263,94.1z"/>
					<path class="st18" d="M233,102h-34c-0.8,0-1.5-0.7-1.5-1.5s0.7-1.5,1.5-1.5l0,0h34c0.8,0,1.5,0.7,1.5,1.5S233.8,102,233,102z"
						/>
					<g>
						<path class="st14" d="M123.2,106.8V78.9h27.9v27.8H123.2z M148.4,104.1V81.6h-22.5v22.5L148.4,104.1z"/>
						<path class="st14" d="M150,105.7h-25.7V80H150V105.7z M126.1,104h22.2V81.7h-22.2V104z"/>
					</g>
					<g>
						<polygon class="st14" points="127.2,92.2 129.1,90.3 135.6,96.4 144.9,84.6 147.2,86.6 136,101 						"/>
						<polygon class="st14" points="135.9,99.4 128.8,92.2 130,91 135.8,96.8 144.3,85.7 145.6,86.8 						"/>
					</g>
				</g>
				<line class="st19" x1="117.2" y1="164.9" x2="268.5" y2="164.9"/>
				<line class="st19" x1="117.2" y1="117.4" x2="268.5" y2="117.4"/>
			</g>
			<g>
				<path class="st16" d="M147.6,179.7h90.5c0.9,0,1.7,0.8,1.7,1.7v27.3c0,0.9-0.8,1.7-1.7,1.7h-90.5c-0.9,0-1.7-0.8-1.7-1.7v-27.3
					C145.9,180.5,146.7,179.7,147.6,179.7z"/>
				<g>
					<g>
						<path d="M170.3,195.3h-5v3.4h5.9v2.1h-8.6v-12.8h8.5v2.1h-5.9v3h5L170.3,195.3z"/>
						<path d="M174.9,191.4l0.1,1.1c0.6-0.8,1.7-1.3,2.7-1.3c0.8-0.1,1.7,0.3,2.2,0.9c0.5,0.8,0.8,1.7,0.8,2.6v6.1h-2.5v-6.1
							c0-0.4-0.1-0.8-0.4-1.2c-0.3-0.3-0.7-0.4-1.2-0.4c-0.7,0-1.3,0.3-1.6,0.9v6.7h-2.5v-9.5H174.9z"/>
						<path d="M187.9,193.7c-0.3,0-0.6-0.1-0.9-0.1c-0.8-0.1-1.5,0.3-1.9,1v6.2h-2.5v-9.5h2.4l0.1,1.1c0.4-0.8,1.2-1.3,2.1-1.3
							c0.3,0,0.5,0,0.8,0.1L187.9,193.7z"/>
						<path d="M188.4,196c0-0.9,0.2-1.7,0.5-2.5c0.3-0.7,0.9-1.3,1.6-1.7c0.7-0.4,1.5-0.6,2.4-0.6c1.2,0,2.3,0.4,3.1,1.2
							c0.8,0.9,1.3,2,1.4,3.2v0.6c0.1,1.3-0.4,2.5-1.2,3.5c-0.8,0.9-2,1.4-3.3,1.3c-1.2,0.1-2.4-0.4-3.3-1.3c-0.9-1-1.3-2.3-1.2-3.6
							L188.4,196z M190.9,196.2c0,0.7,0.1,1.4,0.5,2.1c0.6,0.8,1.8,1,2.6,0.3c0.1-0.1,0.2-0.2,0.3-0.3c0.4-0.7,0.6-1.5,0.5-2.3
							c0-0.7-0.1-1.4-0.5-2c-0.3-0.5-0.9-0.8-1.5-0.7c-0.6,0-1.1,0.2-1.4,0.7C191.1,194.7,190.9,195.4,190.9,196.2L190.9,196.2z"/>
						<path d="M201.6,200.8h-2.5v-13.5h2.5V200.8z"/>
					</g>
					<path class="st20" d="M207.6,195.2c0-0.3,0.1-0.6,0.3-0.8l1.6-1.6c0.2-0.2,0.5-0.3,0.8-0.3c0.3,0,0.6,0.1,0.8,0.3l3.4,3.4
						l7.6-7.7c0.2-0.2,0.5-0.3,0.8-0.3c0.3,0,0.6,0.1,0.8,0.3l1.6,1.6c0.2,0.2,0.3,0.5,0.3,0.8c0,0.3-0.1,0.6-0.3,0.8l-8.4,8.4
						l-1.6,1.6c-0.2,0.2-0.5,0.3-0.8,0.3c-0.3,0-0.6-0.1-0.8-0.3l-1.6-1.6L208,196C207.8,195.8,207.6,195.5,207.6,195.2z"/>
				</g>
			</g>
			<g>
				<g id="Outline_Icons">
					<path class="st2" d="M277.6,249.1c-0.4,0-0.7-0.1-1-0.4l-17.4-17.4l-8.9,8.9c-0.5,0.6-1.4,0.6-2,0c-0.2-0.2-0.3-0.3-0.3-0.5
						l-14.1-39.5c-0.3-0.7,0.1-1.5,0.8-1.8c0.3-0.1,0.6-0.1,1,0l39.5,14.1c0.5,0.2,0.8,0.5,0.9,1c0.1,0.5,0,1-0.4,1.3l-8.9,8.9
						l17.4,17.4c0.5,0.6,0.5,1.4,0,2l-5.6,5.6C278.3,249,278,249.1,277.6,249.1z"/>
				</g>
				<g id="Outline_Icons-2">
					<path class="st21" d="M279.2,251.4c-0.4,0-0.8-0.2-1.1-0.4l-18.9-19l-9.7,9.7c-0.6,0.6-1.6,0.6-2.2,0c-0.2-0.2-0.3-0.4-0.4-0.6
						L231.6,198c-0.2-0.6-0.1-1.2,0.4-1.6c0.4-0.4,1-0.6,1.6-0.4l43.1,15.4c0.5,0.2,0.9,0.6,1,1.1c0.1,0.5,0,1-0.4,1.4l-9.7,9.7
						l18.9,18.9c0.6,0.6,0.6,1.6,0,2.2c0,0,0,0,0,0l-6.2,6.2C280,251.3,279.6,251.4,279.2,251.4z M259.2,228.3
						c0.4,0,0.8,0.2,1.1,0.4l18.9,18.9l4-4l-18.9-18.9c-0.6-0.6-0.6-1.6,0-2.2c0,0,0,0,0,0l9-9l-37.7-13.5l13.5,37.7l9-9.1
						C258.4,228.5,258.8,228.3,259.2,228.3z"/>
				</g>
			</g>
		</g>
		<g>
			<path class="st12" d="M210.6,82.8H369c9.5,0,17.2,7.7,17.2,17.2v46c0,9.5-7.7,17.2-17.2,17.2H210.6c-9.5,0-17.2-7.7-17.2-17.2
				v-46C193.4,90.5,201.1,82.8,210.6,82.8z"/>
			<path class="st22" d="M216.8,76.7h158.4c9.5,0,17.2,7.7,17.2,17.2v46c0,9.5-7.7,17.2-17.2,17.2H216.8c-9.5,0-17.2-7.7-17.2-17.2
				v-46C199.6,84.3,207.3,76.7,216.8,76.7z"/>
			<path class="st22" d="M255.8,172.7v-22.4h28.7l-24.3,24.3c-1,1-2.7,1-3.7,0C256.1,174,255.8,173.4,255.8,172.7z"/>
			<g>
				<path class="st2" d="M222.8,105.2c0,1.2-0.6,2.4-1.5,3.2c-1,0.8-2.3,1.3-3.6,1.2c-1.5,0.1-2.9-0.5-3.9-1.7
					c-1-1.3-1.5-2.9-1.4-4.6v-0.8c0-1.1,0.2-2.2,0.6-3.2c0.4-0.9,1-1.6,1.9-2.2c2-1.1,4.5-1,6.4,0.4c0.9,0.9,1.5,2.1,1.6,3.3h-2.6
					c0-0.7-0.3-1.3-0.7-1.8c-0.5-0.4-1.2-0.6-1.8-0.6c-0.8,0-1.6,0.3-2,1c-0.5,0.9-0.7,1.9-0.7,2.9v1c-0.1,1,0.1,2.1,0.6,3
					c0.4,0.7,1.2,1.1,2,1c0.7,0.1,1.3-0.1,1.8-0.6c0.4-0.5,0.7-1.1,0.7-1.7L222.8,105.2z"/>
				<path class="st2" d="M224,104.6c0-0.9,0.2-1.7,0.6-2.5c0.3-0.7,0.9-1.3,1.6-1.7c0.7-0.4,1.5-0.6,2.4-0.6c1.2,0,2.3,0.4,3.1,1.2
					c0.8,0.9,1.3,2,1.4,3.2v0.7c0.1,1.3-0.4,2.5-1.2,3.5c-1.8,1.8-4.7,1.8-6.6,0c-0.9-1-1.3-2.3-1.2-3.6L224,104.6z M226.5,104.8
					c0,0.7,0.1,1.4,0.5,2.1c0.6,0.8,1.8,1,2.6,0.3c0.1-0.1,0.2-0.2,0.3-0.3c0.4-0.7,0.6-1.5,0.5-2.3c0-0.7-0.1-1.4-0.5-2.1
					c-0.6-0.8-1.7-1-2.5-0.4c-0.1,0.1-0.3,0.2-0.4,0.4C226.7,103.2,226.5,104,226.5,104.8L226.5,104.8z"/>
				<path class="st2" d="M236.9,99.9l0.1,1.1c0.7-0.8,1.7-1.3,2.7-1.3c0.8-0.1,1.7,0.3,2.2,0.9c0.5,0.8,0.8,1.7,0.8,2.7v6.1h-2.5
					v-6.1c0-0.4-0.1-0.8-0.4-1.2c-0.3-0.3-0.7-0.4-1.2-0.4c-0.7,0-1.3,0.3-1.6,0.9v6.7h-2.6v-9.5H236.9z"/>
				<path class="st2" d="M244.3,104.6c-0.1-1.3,0.3-2.5,1-3.5c0.7-0.9,1.7-1.4,2.8-1.3c0.9-0.1,1.8,0.3,2.4,1.1l0.1-0.9h2.4v9.2
					c0,0.8-0.2,1.5-0.6,2.2c-0.4,0.6-0.9,1.1-1.6,1.4c-0.8,0.3-1.6,0.5-2.4,0.5c-0.7,0-1.4-0.1-2-0.4c-0.6-0.2-1.1-0.6-1.5-1.1
					l1.1-1.5c0.6,0.7,1.4,1.1,2.3,1.1c0.6,0,1.1-0.2,1.6-0.5c0.4-0.4,0.6-1,0.6-1.5v-0.5c-0.6,0.7-1.4,1-2.3,1
					c-1.1,0-2.1-0.5-2.8-1.3c-0.8-1-1.1-2.3-1.1-3.6L244.3,104.6z M246.8,104.8c0,0.7,0.1,1.4,0.5,2c0.3,0.5,0.9,0.7,1.4,0.7
					c0.7,0.1,1.3-0.3,1.7-0.9v-4c-0.3-0.6-1-0.9-1.6-0.9c-0.6,0-1.1,0.3-1.4,0.8C246.9,103.2,246.8,104,246.8,104.8z"/>
				<path class="st2" d="M260.3,102.3c-0.3,0-0.6-0.1-0.9-0.1c-0.8-0.1-1.5,0.3-1.9,1v6.2h-2.5v-9.5h2.4l0.1,1.1
					c0.4-0.8,1.2-1.3,2.1-1.3c0.3,0,0.5,0,0.8,0.1L260.3,102.3z"/>
				<path class="st2" d="M266.7,109.4c-0.1-0.3-0.2-0.6-0.2-0.8c-0.6,0.7-1.5,1-2.4,1c-0.8,0-1.7-0.3-2.3-0.8
					c-0.6-0.5-0.9-1.2-0.9-2c0-0.9,0.4-1.8,1.1-2.3c1-0.6,2.1-0.9,3.2-0.8h1.2v-0.5c0-0.4-0.1-0.8-0.4-1.1c-0.3-0.3-0.7-0.4-1.1-0.4
					c-0.4,0-0.7,0.1-1,0.3c-0.2,0.2-0.4,0.5-0.4,0.8H261c0-0.6,0.2-1.1,0.5-1.5c0.4-0.5,0.9-0.9,1.4-1.1c0.7-0.3,1.4-0.4,2.1-0.4
					c1-0.1,2,0.3,2.8,0.9c0.7,0.6,1.1,1.5,1,2.5v4.1c0,0.7,0.1,1.4,0.4,2v0.2L266.7,109.4z M264.6,107.7c0.3,0,0.7-0.1,1-0.2
					c0.3-0.2,0.5-0.4,0.7-0.7v-1.6h-0.9c-1.3,0-2,0.4-2,1.3v0.2c0,0.3,0.1,0.6,0.3,0.8C264,107.6,264.3,107.7,264.6,107.7z"/>
				<path class="st2" d="M273.9,97.6v2.3h1.6v1.9h-1.6v4.7c0,0.3,0,0.5,0.2,0.8c0.2,0.2,0.5,0.3,0.8,0.2c0.3,0,0.5,0,0.8-0.1v1.9
					c-0.5,0.2-1,0.2-1.5,0.2c-1.3,0.2-2.5-0.8-2.7-2.1c0-0.2,0-0.4,0-0.6v-5.1H270v-1.9h1.4v-2.3H273.9z"/>
				<path class="st2" d="M282.6,108.5c-0.6,0.8-1.6,1.2-2.6,1.1c-0.9,0.1-1.7-0.3-2.3-0.9c-0.6-0.7-0.9-1.6-0.8-2.6v-6.2h2.5v6.2
					c0,1,0.5,1.5,1.4,1.5c0.7,0.1,1.4-0.3,1.8-0.9v-6.7h2.5v9.5h-2.4L282.6,108.5z"/>
				<path class="st2" d="M289.7,109.4h-2.5V95.9h2.5V109.4z"/>
				<path class="st2" d="M297.3,109.4c-0.1-0.3-0.2-0.6-0.2-0.8c-0.6,0.7-1.5,1-2.4,1c-0.8,0-1.7-0.3-2.3-0.8
					c-0.6-0.5-0.9-1.2-0.9-2c0-0.9,0.4-1.8,1.1-2.3c1-0.6,2.1-0.9,3.2-0.8h1.2v-0.5c0-0.4-0.1-0.8-0.3-1.1c-0.3-0.3-0.7-0.4-1.1-0.4
					c-0.4,0-0.7,0.1-1,0.3c-0.3,0.2-0.4,0.5-0.4,0.8h-2.5c0-0.6,0.2-1.1,0.5-1.5c0.4-0.5,0.9-0.9,1.5-1.1c0.7-0.3,1.4-0.4,2.1-0.4
					c1-0.1,2,0.3,2.8,0.9c0.7,0.6,1.1,1.5,1,2.5v4.1c0,0.7,0.1,1.4,0.4,2v0.2L297.3,109.4z M295.2,107.7c0.3,0,0.7-0.1,1-0.2
					c0.3-0.2,0.5-0.4,0.7-0.7v-1.6H296c-1.3,0-2,0.4-2,1.3v0.2c0,0.3,0.1,0.6,0.3,0.8C294.6,107.6,294.9,107.7,295.2,107.7
					L295.2,107.7z"/>
				<path class="st2" d="M304.5,97.6v2.3h1.6v1.9h-1.6v4.7c0,0.3,0,0.5,0.2,0.8c0.2,0.2,0.5,0.3,0.8,0.2c0.3,0,0.5,0,0.8-0.1v1.9
					c-0.5,0.2-1,0.2-1.5,0.2c-1.3,0.2-2.6-0.8-2.7-2.1c0-0.2,0-0.4,0-0.6v-5.1h-1.4v-1.9h1.4v-2.3H304.5z"/>
				<path class="st2" d="M307.5,97.4c0-0.4,0.1-0.7,0.4-0.9c0.3-0.2,0.6-0.4,1-0.4c0.4,0,0.7,0.1,1,0.4c0.3,0.2,0.4,0.6,0.4,0.9
					c0,0.4-0.1,0.7-0.4,1c-0.6,0.5-1.5,0.5-2.1,0C307.6,98.2,307.5,97.8,307.5,97.4z M310.2,109.4h-2.5v-9.5h2.5V109.4z"/>
				<path class="st2" d="M311.9,104.6c0-0.9,0.2-1.7,0.5-2.5c0.3-0.7,0.9-1.3,1.6-1.7c0.7-0.4,1.5-0.6,2.4-0.6
					c1.2,0,2.3,0.4,3.1,1.2c0.8,0.9,1.3,2,1.4,3.2v0.7c0.1,1.3-0.4,2.5-1.2,3.5c-1.8,1.8-4.7,1.8-6.6,0c-0.9-1-1.3-2.3-1.2-3.6
					L311.9,104.6z M314.4,104.8c0,0.7,0.1,1.4,0.5,2.1c0.6,0.8,1.8,1,2.6,0.3c0.1-0.1,0.2-0.2,0.3-0.3c0.4-0.7,0.6-1.5,0.5-2.3
					c0-0.7-0.1-1.4-0.5-2.1c-0.3-0.5-0.9-0.8-1.5-0.7c-0.6,0-1.1,0.2-1.4,0.7C314.6,103.2,314.4,104,314.4,104.8z"/>
				<path class="st2" d="M324.8,99.9l0.1,1.1c0.7-0.8,1.7-1.3,2.7-1.3c0.8-0.1,1.7,0.3,2.2,0.9c0.6,0.8,0.8,1.7,0.8,2.7v6.1h-2.5
					v-6.1c0-0.4-0.1-0.8-0.4-1.2c-0.3-0.3-0.7-0.4-1.2-0.4c-0.7,0-1.3,0.3-1.6,0.9v6.7h-2.5v-9.5H324.8z"/>
				<path class="st2" d="M337.7,106.8c0-0.3-0.2-0.6-0.5-0.7c-0.5-0.2-1-0.4-1.5-0.5c-2.3-0.5-3.4-1.4-3.4-2.9c0-0.8,0.4-1.6,1-2.1
					c0.8-0.6,1.8-0.9,2.8-0.8c1-0.1,2.1,0.2,2.9,0.8c0.7,0.5,1.1,1.3,1.1,2.2h-2.5c0-0.3-0.1-0.7-0.4-0.9c-0.3-0.3-0.7-0.4-1.1-0.3
					c-0.4,0-0.7,0.1-1,0.3c-0.2,0.2-0.4,0.4-0.4,0.7c0,0.3,0.2,0.5,0.4,0.7c0.4,0.2,0.9,0.4,1.4,0.4c0.5,0.1,1.1,0.2,1.6,0.4
					c1.2,0.3,2,1.3,2,2.6c0,0.8-0.4,1.6-1.1,2.1c-0.8,0.6-1.9,0.9-2.9,0.8c-0.7,0-1.5-0.1-2.1-0.4c-0.6-0.3-1.1-0.7-1.4-1.2
					c-0.3-0.5-0.5-1-0.5-1.6h2.4c0,0.4,0.2,0.8,0.5,1c0.4,0.3,0.8,0.4,1.2,0.4c0.4,0,0.8-0.1,1.1-0.3
					C337.6,107.3,337.7,107.1,337.7,106.8z"/>
				<path class="st2" d="M219.4,129.6c0-0.4-0.2-0.9-0.5-1.1c-0.6-0.4-1.2-0.7-1.9-0.8c-0.7-0.2-1.5-0.5-2.2-0.9
					c-1.3-0.5-2.1-1.8-2.2-3.2c0-0.7,0.2-1.3,0.6-1.8c0.4-0.6,1-1,1.7-1.3c0.8-0.3,1.6-0.5,2.5-0.5c0.8,0,1.7,0.2,2.4,0.5
					c0.7,0.3,1.3,0.8,1.7,1.4c0.4,0.6,0.6,1.3,0.6,2h-2.6c0-0.5-0.2-1-0.6-1.4c-0.4-0.4-1-0.5-1.6-0.5c-0.5,0-1.1,0.1-1.5,0.4
					c-0.3,0.2-0.6,0.7-0.5,1.1c0,0.4,0.3,0.8,0.6,1c0.6,0.4,1.2,0.6,1.9,0.8c1.2,0.3,2.3,0.9,3.3,1.7c0.7,0.7,1,1.6,1,2.5
					c0,1-0.4,2-1.3,2.6c-1,0.7-2.2,1-3.4,1c-0.9,0-1.8-0.2-2.7-0.5c-0.7-0.3-1.4-0.8-1.9-1.5c-0.4-0.6-0.7-1.4-0.6-2.2h2.6
					c0,1.4,0.8,2.1,2.5,2.1c0.5,0,1-0.1,1.5-0.4C219.2,130.4,219.4,130.1,219.4,129.6z"/>
				<path class="st2" d="M229.2,133c-0.1-0.3-0.2-0.6-0.3-0.9c-0.6,0.7-1.5,1-2.4,1c-0.8,0-1.7-0.3-2.3-0.8c-0.6-0.5-0.9-1.2-0.9-2
					c0-0.9,0.4-1.8,1.1-2.3c1-0.6,2.1-0.9,3.2-0.8h1.2v-0.5c0-0.4-0.1-0.8-0.3-1.1c-0.3-0.3-0.7-0.4-1.1-0.4c-0.4,0-0.7,0.1-1,0.3
					c-0.2,0.2-0.4,0.5-0.4,0.8h-2.6c0-0.6,0.2-1.1,0.5-1.5c0.4-0.5,0.9-0.9,1.4-1.1c0.7-0.3,1.4-0.4,2.1-0.4c1-0.1,2,0.3,2.8,0.9
					c0.7,0.6,1.1,1.5,1,2.5v4.1c0,0.7,0.1,1.4,0.4,2v0.2H229.2z M227.1,131.2c0.3,0,0.7-0.1,1-0.3c0.3-0.1,0.5-0.4,0.7-0.7v-1.6
					h-0.9c-1.3,0-2,0.4-2,1.3v0.1c0,0.3,0.1,0.6,0.3,0.8C226.4,131.1,226.7,131.3,227.1,131.2L227.1,131.2z"/>
				<path class="st2" d="M235.7,123.5l0.1,1.1c0.7-0.8,1.7-1.3,2.7-1.2c1.1-0.1,2.1,0.5,2.5,1.4c0.6-1,1.7-1.5,2.9-1.4
					c0.9-0.1,1.7,0.3,2.3,0.9c0.6,0.8,0.8,1.7,0.8,2.7v6.1h-2.6v-6.1c0-0.4-0.1-0.8-0.3-1.2c-0.3-0.3-0.7-0.4-1.1-0.4
					c-0.7,0-1.4,0.4-1.6,1.1v6.5h-2.5v-6c0-0.4-0.1-0.9-0.3-1.2c-0.3-0.3-0.7-0.4-1.1-0.4c-0.7,0-1.3,0.3-1.6,0.9v6.7h-2.5v-9.5
					H235.7z"/>
				<path class="st2" d="M249.6,136.2l-1.3-0.7l0.3-0.6c0.4-0.7,0.6-1.4,0.6-2.1v-2h2.1v1.8c0,0.7-0.2,1.4-0.5,2
					C250.5,135.2,250.1,135.8,249.6,136.2z"/>
				<path class="st2" d="M261.3,129.4l1.8-5.9h2.7l-3.8,11l-0.2,0.5c-0.4,1.2-1.6,1.9-2.8,1.9c-0.4,0-0.8-0.1-1.1-0.2v-1.9h0.4
					c0.4,0,0.7,0,1.1-0.2c0.3-0.2,0.5-0.4,0.6-0.7l0.3-0.8l-3.3-9.5h2.7L261.3,129.4z"/>
				<path class="st2" d="M266.3,128.2c0-0.9,0.2-1.7,0.5-2.5c0.3-0.7,0.9-1.3,1.6-1.7c0.7-0.4,1.5-0.6,2.4-0.6
					c1.2,0,2.3,0.4,3.1,1.2c0.8,0.9,1.3,2,1.4,3.2v0.6c0.1,1.3-0.4,2.5-1.2,3.5c-1.8,1.8-4.7,1.8-6.6,0c-0.9-1-1.3-2.3-1.2-3.6
					L266.3,128.2z M268.8,128.3c0,0.7,0.1,1.4,0.5,2.1c0.3,0.5,0.9,0.7,1.5,0.7c0.6,0,1.1-0.2,1.5-0.7c0.4-0.7,0.6-1.5,0.5-2.3
					c0-0.7-0.1-1.4-0.5-2.1c-0.3-0.5-0.9-0.7-1.5-0.7c-0.6,0-1.1,0.3-1.5,0.7C268.9,126.8,268.8,127.6,268.8,128.3L268.8,128.3z"/>
				<path class="st2" d="M282.5,132c-0.6,0.8-1.6,1.2-2.6,1.1c-0.9,0.1-1.7-0.3-2.3-0.9c-0.6-0.7-0.9-1.6-0.8-2.6v-6.2h2.5v6.2
					c0,1,0.5,1.5,1.4,1.5c0.7,0.1,1.4-0.3,1.8-0.9v-6.7h2.5v9.5h-2.4L282.5,132z"/>
				<path class="st2" d="M287.7,124.1l-1.2-0.7c0.5-0.7,0.8-1.6,0.8-2.4v-1.5h2v1.4c0,0.6-0.2,1.2-0.4,1.7
					C288.5,123.2,288.1,123.7,287.7,124.1z"/>
				<path class="st2" d="M296.4,125.9c-0.3,0-0.6-0.1-0.9-0.1c-0.8-0.1-1.5,0.3-1.9,1v6.2h-2.5v-9.5h2.4l0.1,1.1
					c0.4-0.8,1.2-1.3,2.1-1.3c0.3,0,0.5,0,0.8,0.1L296.4,125.9z"/>
				<path class="st2" d="M301.8,133.2c-1.3,0.1-2.5-0.4-3.4-1.3c-0.9-0.9-1.4-2.1-1.3-3.4v-0.2c0-0.9,0.2-1.8,0.5-2.6
					c0.3-0.7,0.9-1.3,1.6-1.7c0.7-0.4,1.5-0.6,2.3-0.6c1.2-0.1,2.3,0.4,3.1,1.2c0.8,1,1.2,2.2,1.1,3.5v1h-6.1
					c0.1,0.6,0.3,1.1,0.8,1.5c0.4,0.4,1,0.6,1.6,0.6c0.9,0,1.8-0.4,2.3-1.1l1.2,1.4c-0.4,0.6-0.9,1-1.5,1.3
					C303.3,133,302.6,133.2,301.8,133.2z M301.5,125.4c-0.5,0-0.9,0.2-1.2,0.5c-0.3,0.4-0.6,0.9-0.6,1.5h3.5v-0.2
					c0-0.5-0.1-1-0.5-1.3C302.5,125.5,302,125.3,301.5,125.4z"/>
				<path class="st2" d="M316,133.2c-1.3,0.1-2.5-0.4-3.4-1.3c-0.9-0.9-1.4-2.1-1.3-3.4v-0.2c0-0.9,0.2-1.8,0.5-2.6
					c0.3-0.7,0.9-1.3,1.6-1.7c0.7-0.4,1.5-0.6,2.3-0.6c1.2-0.1,2.3,0.4,3.1,1.2c0.8,1,1.2,2.2,1.2,3.4v1h-6.1
					c0.1,0.6,0.3,1.1,0.8,1.5c0.4,0.4,1,0.6,1.6,0.6c0.9,0,1.7-0.4,2.3-1.1l1.2,1.4c-0.4,0.6-0.9,1-1.5,1.3
					C317.5,133,316.8,133.2,316,133.2z M315.8,125.4c-0.5,0-0.9,0.2-1.2,0.5c-0.3,0.4-0.6,0.9-0.6,1.5h3.5v-0.2
					c0-0.5-0.1-0.9-0.5-1.3C316.7,125.5,316.2,125.3,315.8,125.4L315.8,125.4z"/>
				<path class="st2" d="M323.7,123.5l0.1,1.1c0.7-0.8,1.7-1.3,2.7-1.3c0.8-0.1,1.7,0.3,2.2,0.9c0.5,0.8,0.8,1.7,0.8,2.7v6.1H327
					v-6.1c0-0.4-0.1-0.8-0.4-1.2c-0.3-0.3-0.7-0.4-1.2-0.4c-0.7,0-1.3,0.3-1.6,0.9v6.7h-2.5v-9.5H323.7z"/>
				<path class="st2" d="M336.8,125.9c-0.3,0-0.6-0.1-0.9-0.1c-0.8-0.1-1.5,0.3-1.9,1v6.2h-2.5v-9.5h2.4l0.1,1.1
					c0.4-0.8,1.2-1.3,2.1-1.3c0.3,0,0.5,0,0.8,0.1L336.8,125.9z"/>
				<path class="st2" d="M337.3,128.2c0-0.9,0.2-1.7,0.5-2.5c0.3-0.7,0.9-1.3,1.6-1.7c0.7-0.4,1.5-0.6,2.4-0.6
					c1.2,0,2.3,0.4,3.1,1.2c0.8,0.9,1.3,2,1.4,3.2v0.6c0.1,1.3-0.4,2.5-1.2,3.5c-1.8,1.8-4.7,1.8-6.6,0c-0.9-1-1.3-2.3-1.2-3.6
					L337.3,128.2z M339.9,128.3c0,0.7,0.1,1.4,0.5,2.1c0.3,0.5,0.9,0.7,1.5,0.7c0.6,0,1.1-0.2,1.5-0.7c0.4-0.7,0.6-1.5,0.5-2.3
					c0-0.7-0.1-1.4-0.5-2.1c-0.3-0.5-0.9-0.7-1.5-0.7c-0.6,0-1.1,0.3-1.4,0.7C340,126.8,339.8,127.6,339.9,128.3z"/>
				<path class="st2" d="M350.6,133H348v-13.5h2.5L350.6,133z"/>
				<path class="st2" d="M355.4,133h-2.5v-13.5h2.5V133z"/>
				<path class="st2" d="M361.8,133.2c-1.3,0.1-2.5-0.4-3.4-1.3c-0.9-0.9-1.4-2.1-1.3-3.4v-0.2c0-0.9,0.2-1.8,0.6-2.6
					c0.3-0.7,0.9-1.3,1.6-1.7c0.7-0.4,1.5-0.6,2.3-0.6c1.2-0.1,2.3,0.4,3.1,1.2c0.8,1,1.2,2.2,1.1,3.5v1h-6c0.1,0.6,0.3,1.1,0.7,1.5
					c0.4,0.4,1,0.6,1.6,0.6c0.9,0,1.7-0.4,2.3-1.1l1.2,1.4c-0.4,0.6-0.9,1-1.5,1.3C363.3,133,362.6,133.2,361.8,133.2z M361.5,125.4
					c-0.5,0-0.9,0.2-1.2,0.5c-0.3,0.4-0.6,0.9-0.6,1.5h3.5v-0.2c0-0.5-0.2-0.9-0.5-1.3C362.5,125.5,362,125.3,361.5,125.4
					L361.5,125.4z"/>
				<path class="st2" d="M366.8,128.2c-0.1-1.3,0.3-2.5,1-3.6c0.6-0.9,1.7-1.3,2.7-1.3c0.9,0,1.7,0.3,2.3,1v-4.8h2.5V133h-2.3
					l-0.1-1c-0.6,0.8-1.5,1.2-2.4,1.2c-1.1,0-2.1-0.5-2.7-1.3C367.1,130.8,366.7,129.5,366.8,128.2z M369.3,128.4
					c0,0.7,0.1,1.4,0.5,2c0.3,0.5,0.8,0.7,1.4,0.7c0.7,0,1.4-0.4,1.7-1v-3.8c-0.3-0.6-0.9-1-1.6-1
					C369.9,125.4,369.3,126.4,369.3,128.4L369.3,128.4z"/>
				<path class="st2" d="M378.9,130.5c0.4,0,0.7,0.1,1,0.4c0.3,0.3,0.4,0.6,0.4,1c0,0.4-0.1,0.7-0.4,0.9c-0.3,0.3-0.6,0.4-1,0.4
					c-0.4,0-0.7-0.1-1-0.4c-0.3-0.2-0.4-0.6-0.4-0.9c0-0.4,0.1-0.7,0.4-1C378.1,130.6,378.5,130.5,378.9,130.5z M379.9,129.1h-2.1
					l-0.3-8.9h2.7L379.9,129.1z"/>
			</g>
		</g>
	</g>
</g>
</svg>
