<svg xmlns="http://www.w3.org/2000/svg" xmlns:xlink="http://www.w3.org/1999/xlink" width="400" height="331" viewBox="0 0 400 331">
  <defs>
    <style>
      .cls-1, .cls-19, .cls-25, .cls-26, .cls-28 {
        fill: none;
      }

      .cls-2 {
        fill: #9ea5b5;
      }

      .cls-3 {
        fill: #12110b;
      }

      .cls-4 {
        fill: #fff;
      }

      .cls-5 {
        fill: #ecedf0;
      }

      .cls-6 {
        fill: #f1f6fc;
      }

      .cls-7 {
        fill: #2e2d33;
      }

      .cls-8 {
        fill: #cecfd9;
      }

      .cls-9 {
        fill: #13120d;
      }

      .cls-10 {
        fill: #464551;
      }

      .cls-11 {
        fill: #9ea1ab;
      }

      .cls-12 {
        fill: #eff1f6;
      }

      .cls-13 {
        fill: #cbcfda;
      }

      .cls-14, .cls-32 {
        opacity: 0.1;
      }

      .cls-15 {
        fill: #414b5b;
      }

      .cls-16 {
        fill: #ea5e65;
      }

      .cls-17 {
        fill: #f5d010;
      }

      .cls-18 {
        fill: #5bc4bf;
      }

      .cls-19 {
        stroke: #bcbcbc;
        stroke-width: 0.46px;
      }

      .cls-19, .cls-25 {
        stroke-linecap: round;
      }

      .cls-19, .cls-25, .cls-26 {
        stroke-linejoin: round;
      }

      .cls-20 {
        fill: #e3f4f2;
      }

      .cls-21 {
        fill: #bcbcbc;
      }

      .cls-22 {
        fill: #061b40;
      }

      .cls-23 {
        clip-path: url(#clip-path);
      }

      .cls-24 {
        fill: #f6de93;
      }

      .cls-25 {
        stroke: #e49a70;
      }

      .cls-25, .cls-26 {
        stroke-width: 4.93px;
      }

      .cls-26 {
        stroke: #9e3433;
        stroke-linecap: square;
      }

      .cls-27 {
        clip-path: url(#clip-path-2);
      }

      .cls-28 {
        stroke: #4c1919;
        stroke-miterlimit: 10;
        stroke-width: 1.49px;
      }

      .cls-29 {
        fill: #e49a70;
      }

      .cls-30 {
        fill: #5faa97;
      }

      .cls-31 {
        fill: #3f220f;
      }

      .cls-33 {
        fill: #74c8bf;
      }
    </style>
    <clipPath id="clip-path">
      <circle id="Mask" class="cls-1" cx="318.87" cy="200.55" r="69.34"/>
    </clipPath>
    <clipPath id="clip-path-2">
      <path class="cls-1" d="M353.66,321.84c-.16,17.38,7.72,35.89,7.72,35.89H275.92A111.57,111.57,0,0,0,282.19,322c0-19.8-5.28-35.71-5.94-45.15-.46-6.63.38-26.57.38-26.57A27.19,27.19,0,0,1,303,229.77H334.8a27.19,27.19,0,0,1,26.35,20.51s1.31,19.93.86,26.56C362,276.84,353.79,307.64,353.66,321.84Z"/>
    </clipPath>
  </defs>
  <title>img-12</title>
  <g id="platform">
    <path class="cls-2" d="M400,296.23q-98.67-9.8-200-9.89T0,296.23V331H400Z"/>
    <g>
      <g>
        <g>
          <path class="cls-3" d="M278.72,273.17a8.23,8.23,0,0,1-8,8.46H43.55a8.24,8.24,0,0,1-8-8.46V117.86a8.24,8.24,0,0,1,8-8.47H270.74a8.23,8.23,0,0,1,8,8.47Z"/>
          <rect class="cls-4" x="45.31" y="119.13" width="224.45" height="141.45"/>
          <rect class="cls-5" x="45.31" y="185.55" width="224.45" height="75.04"/>
          <path class="cls-6" d="M35.56,267.13,10.08,289.81s-.56,4.22.15,5.85,1.56,2.73,5.07,3.11,286.41,0,286.41,0a22.79,22.79,0,0,0,3.83-2.57,5,5,0,0,0,1.63-4.05V290.2l-28.45-23.77Z"/>
          <path class="cls-7" d="M13,298.77s4.61,2.86,9,3.12H296.65s4.64-1.71,6.2-3.19C304.26,297.36,13,298.77,13,298.77Z"/>
          <path class="cls-8" d="M10.08,289.81s-.75,3.7.15,5.85a6.7,6.7,0,0,0,3,3.29l289.59-.25a12.44,12.44,0,0,0,3.11-2.57c1.67-1.67,1.21-5.93,1.21-5.93Z"/>
          <polygon class="cls-9" points="64.01 270.33 56.48 277.73 69.4 277.73 70.97 276.51 71.57 276.54 70.54 277.73 83.72 277.73 84.47 276.89 84.97 276.88 84.66 277.73 97.17 277.73 97.92 276.98 98.51 276.94 97.98 277.73 115.57 277.73 116.67 276.8 117.41 276.75 116.54 277.73 183.9 277.73 182.81 276.52 183.37 276.52 184.68 277.73 202.15 277.73 201.37 276.76 201.86 276.7 202.98 277.73 215.99 277.73 215.28 276.75 215.88 276.72 216.73 277.73 229.62 277.73 229.09 276.78 229.67 276.76 230.4 277.73 243.65 277.73 243.07 276.66 243.6 276.66 244.33 277.73 257.68 277.73 251.06 270.33 224.95 270.15 224.17 270.85 223.45 270.15 211.57 270.15 211.05 270.98 210.2 270.15 198.25 270.15 197.54 270.78 196.63 270.15 185.33 270.15 184.68 271.11 184.1 270.15 171.56 270.15 170.72 271.24 170.2 270.15 158.68 270.33 157.53 271.3 156.36 270.33 145.06 270.33 144.09 271.11 143.12 270.33 133.08 270.15 132.11 271.2 131.03 270.15 117.98 270.15 117.1 271.11 116.23 270.15 104.93 270.33 103.76 271.24 102.98 270.33 90.7 270.15 89.41 271.06 88.46 270.15 76.28 270.15 75.12 271.11 74.53 270.15 64.01 270.33"/>
          <path class="cls-10" d="M291.32,293.45a.91.91,0,0,1-.91.91h-8.05a.91.91,0,0,1-.91-.91h0a.91.91,0,0,1,.91-.91h8.05a.91.91,0,0,1,.91.91Z"/>
          <path class="cls-11" d="M177.8,290.2a1.3,1.3,0,0,1-1.3,1.3H138.83a1.3,1.3,0,0,1-1.3-1.3h0a1.3,1.3,0,0,1,1.3-1.3H176.5a1.3,1.3,0,0,1,1.3,1.3Z"/>
          <path class="cls-12" d="M176.5,292.48a1,1,0,0,1-1,1H141.1a1,1,0,0,1-1-1h0c0-.54-.1-1,.43-1h35.5c.54,0,.44.44.44,1Z"/>
          <path class="cls-13" d="M119.25,277.73s-4.84,7.54-4.06,8.84,3,1.16,3,1.16l77.35,0s2.91.22,3.79-1.56c1.08-2.16-3.89-8.4-3.89-8.4Z"/>
        </g>
        <g>
          <path class="cls-14" d="M74.15,113.73V239.32a8.35,8.35,0,0,0,8.36,8.35h156a8.35,8.35,0,0,0,8.35-8.35V113.73Z"/>
          <rect class="cls-4" x="65.55" y="57.56" width="173.11" height="177.13" rx="8.37"/>
          <path class="cls-15" d="M238.65,73V65.93a8.37,8.37,0,0,0-8.37-8.37H73.92a8.37,8.37,0,0,0-8.37,8.37V73Z"/>
          <path class="cls-16" d="M208.54,65.28a3.15,3.15,0,1,0,3.14-3.14A3.15,3.15,0,0,0,208.54,65.28Z"/>
          <path class="cls-17" d="M220.41,65.28a3.14,3.14,0,1,0,3.14-3.14A3.15,3.15,0,0,0,220.41,65.28Z"/>
          <path class="cls-18" d="M196.48,65.28a3.15,3.15,0,1,0,3.14-3.14A3.15,3.15,0,0,0,196.48,65.28Z"/>
          <path class="cls-4" d="M148.87,65.28a3.26,3.26,0,0,1-3.27,3.26H84.28A3.27,3.27,0,0,1,81,65.28h0A3.27,3.27,0,0,1,84.28,62H145.6a3.26,3.26,0,0,1,3.27,3.27Z"/>
          <line class="cls-19" x1="78.13" y1="179.54" x2="226.07" y2="179.54"/>
          <line class="cls-19" x1="78.13" y1="117.13" x2="226.07" y2="117.13"/>
          <g>
            <path d="M91.61,97.3a9.72,9.72,0,0,1-.74,3.94,6.76,6.76,0,0,1-2,2.69L91.53,106l-2.12,1.88L86,105.15a6.93,6.93,0,0,1-1.22.1,6.66,6.66,0,0,1-3.59-1,6.35,6.35,0,0,1-2.45-2.76,9.5,9.5,0,0,1-.88-4.13v-.8a9.8,9.8,0,0,1,.86-4.21,6.47,6.47,0,0,1,2.44-2.79,7.15,7.15,0,0,1,7.19,0,6.47,6.47,0,0,1,2.44,2.79,9.75,9.75,0,0,1,.86,4.2Zm-3.38-.73a6.87,6.87,0,0,0-.91-3.87,3.24,3.24,0,0,0-5.2,0,6.82,6.82,0,0,0-.92,3.83v.79a6.87,6.87,0,0,0,.91,3.85,3.2,3.2,0,0,0,5.21,0,6.89,6.89,0,0,0,.91-3.84Z"/>
            <path d="M101.51,105H98.3V92.64l-3.84,1.19V91.22l6.71-2.4h.34Z"/>
            <path d="M107.92,106.42h-2.39l6-17.58h2.4Z"/>
            <path d="M123.08,105h-3.21V92.64L116,93.83V91.22l6.7-2.4h.35Z"/>
            <path d="M128.82,97.07l.93-8.23h9.07v2.68h-6.44L132,95a5.1,5.1,0,0,1,2.44-.61A4.67,4.67,0,0,1,138,95.82a5.73,5.73,0,0,1,1.31,4,5.85,5.85,0,0,1-.66,2.8,4.69,4.69,0,0,1-1.89,1.93,6,6,0,0,1-2.92.68,6.39,6.39,0,0,1-2.72-.59,4.8,4.8,0,0,1-2-1.68,4.51,4.51,0,0,1-.78-2.45h3.18a2.38,2.38,0,0,0,.71,1.57,2.24,2.24,0,0,0,1.58.56,2,2,0,0,0,1.68-.78,3.6,3.6,0,0,0,.59-2.22,3,3,0,0,0-.68-2.11,2.48,2.48,0,0,0-1.92-.74,2.81,2.81,0,0,0-1.86.6l-.31.29Z"/>
          </g>
          <rect class="cls-20" x="78.96" y="123.28" width="146.69" height="13.8"/>
          <rect class="cls-20" x="78.96" y="141.44" width="146.69" height="13.8"/>
          <rect class="cls-20" x="78.96" y="159.59" width="146.69" height="13.8"/>
          <g>
            <path class="cls-21" d="M188.55,131.79H99.24a1.48,1.48,0,0,1,0-2.89h89.31a1.48,1.48,0,0,1,0,2.89Z"/>
            <path class="cls-21" d="M175.56,149.94H99.24a1.48,1.48,0,0,1,0-2.88h76.32a1.48,1.48,0,0,1,0,2.88Z"/>
            <path class="cls-21" d="M197.21,168.1h-98a1.48,1.48,0,0,1,0-2.89h98a1.48,1.48,0,0,1,0,2.89Z"/>
          </g>
          <path d="M87.55,133.31a1.67,1.67,0,0,1-.17-.57,2,2,0,0,1-1.6.69,2.27,2.27,0,0,1-1.55-.54,1.77,1.77,0,0,1-.61-1.36,1.8,1.8,0,0,1,.75-1.55,3.66,3.66,0,0,1,2.16-.54h.78v-.37a1,1,0,0,0-.23-.7.86.86,0,0,0-.71-.26,1,1,0,0,0-.67.2.7.7,0,0,0-.24.56h-1.7a1.78,1.78,0,0,1,.34-1,2.32,2.32,0,0,1,1-.73,3.5,3.5,0,0,1,1.4-.27,2.78,2.78,0,0,1,1.86.59A2.05,2.05,0,0,1,89,129.1v2.74a3,3,0,0,0,.25,1.37v.1Zm-1.4-1.18a1.36,1.36,0,0,0,.69-.17,1.12,1.12,0,0,0,.47-.44v-1.09h-.63c-.85,0-1.3.29-1.36.87v.1a.68.68,0,0,0,.22.53A.9.9,0,0,0,86.15,132.13Z"/>
          <path d="M89.43,149.22a3.84,3.84,0,0,1-.65,2.37,2.17,2.17,0,0,1-1.82.86,2,2,0,0,1-1.65-.79l-.07.67H83.71v-9h1.7v3.23a1.92,1.92,0,0,1,1.54-.69,2.2,2.2,0,0,1,1.82.85,3.85,3.85,0,0,1,.66,2.4Zm-1.7-.13a2.55,2.55,0,0,0-.3-1.4,1.05,1.05,0,0,0-.91-.44,1.11,1.11,0,0,0-1.11.66v2.5a1.12,1.12,0,0,0,1.12.67,1,1,0,0,0,1.08-.81A4.29,4.29,0,0,0,87.73,149.09Z"/>
          <path d="M86.6,168.37a1.11,1.11,0,0,0,.76-.26.89.89,0,0,0,.31-.68h1.58a2.15,2.15,0,0,1-.35,1.18,2.37,2.37,0,0,1-.94.83,3,3,0,0,1-1.33.29,2.75,2.75,0,0,1-2.15-.86,3.44,3.44,0,0,1-.78-2.39v-.11a3.39,3.39,0,0,1,.78-2.34,2.72,2.72,0,0,1,2.14-.87,2.66,2.66,0,0,1,1.9.68,2.36,2.36,0,0,1,.73,1.8H87.67a1.18,1.18,0,0,0-.31-.81,1.15,1.15,0,0,0-1.67.13,2.49,2.49,0,0,0-.3,1.4v.17a2.5,2.5,0,0,0,.3,1.41A1,1,0,0,0,86.6,168.37Z"/>
        </g>
        <g>
          <rect class="cls-18" x="79.66" y="189.66" width="146.03" height="30.01" rx="1.68"/>
          <g>
            <path d="M130.78,207.29a1.31,1.31,0,0,0-.5-1.1,7,7,0,0,0-1.82-.81,13.15,13.15,0,0,1-2.07-.83,3.38,3.38,0,0,1-2.08-3,2.92,2.92,0,0,1,.56-1.77,3.64,3.64,0,0,1,1.6-1.21,6.06,6.06,0,0,1,2.34-.44,5.47,5.47,0,0,1,2.34.48,3.68,3.68,0,0,1,1.59,1.34,3.46,3.46,0,0,1,.56,2h-2.51a1.64,1.64,0,0,0-.53-1.3,2.13,2.13,0,0,0-1.49-.47,2.32,2.32,0,0,0-1.43.39,1.23,1.23,0,0,0-.51,1,1.19,1.19,0,0,0,.6,1,6.82,6.82,0,0,0,1.76.75,7.58,7.58,0,0,1,3.13,1.61,3.15,3.15,0,0,1,1,2.38,2.93,2.93,0,0,1-1.19,2.49,5.3,5.3,0,0,1-3.24.9,6.18,6.18,0,0,1-2.57-.52,4,4,0,0,1-1.76-1.41,3.59,3.59,0,0,1-.61-2.08h2.53c0,1.35.8,2,2.41,2a2.41,2.41,0,0,0,1.41-.36A1.22,1.22,0,0,0,130.78,207.29Z"/>
            <path d="M140.29,209.57a3,3,0,0,1-2.49,1.09,2.85,2.85,0,0,1-2.22-.84,3.54,3.54,0,0,1-.79-2.46v-6h2.43v5.87c0,.95.43,1.42,1.29,1.42a1.76,1.76,0,0,0,1.7-.85v-6.44h2.43v9.08h-2.28Z"/>
            <path d="M152.65,206a5.52,5.52,0,0,1-.93,3.4,3.1,3.1,0,0,1-2.6,1.22,2.85,2.85,0,0,1-2.36-1.13l-.11,1h-2.18V197.6h2.42v4.62a2.78,2.78,0,0,1,2.21-1,3.13,3.13,0,0,1,2.61,1.22,5.52,5.52,0,0,1,.94,3.44Zm-2.42-.18a3.61,3.61,0,0,0-.44-2,1.48,1.48,0,0,0-1.3-.64,1.62,1.62,0,0,0-1.6.95v3.59a1.63,1.63,0,0,0,1.62.95,1.49,1.49,0,0,0,1.54-1.15A5.91,5.91,0,0,0,150.23,205.86Z"/>
            <path d="M156.42,201.41l.08,1a3.18,3.18,0,0,1,2.61-1.19,2.42,2.42,0,0,1,2.41,1.39,3.09,3.09,0,0,1,2.72-1.39,2.71,2.71,0,0,1,2.2.86,4,4,0,0,1,.73,2.59v5.8h-2.44V204.7a1.75,1.75,0,0,0-.3-1.13,1.34,1.34,0,0,0-1.07-.36,1.51,1.51,0,0,0-1.51,1v6.23h-2.43v-5.78a1.67,1.67,0,0,0-.31-1.14,1.32,1.32,0,0,0-1.05-.36,1.59,1.59,0,0,0-1.5.86v6.42h-2.42v-9.08Z"/>
            <path d="M169,199.06a1.19,1.19,0,0,1,.37-.9,1.58,1.58,0,0,1,2,0,1.29,1.29,0,0,1,0,1.81,1.58,1.58,0,0,1-2,0A1.24,1.24,0,0,1,169,199.06Zm2.58,11.43h-2.44v-9.08h2.44Z"/>
            <path d="M176.49,199.18v2.23H178v1.78h-1.55v4.53a1.05,1.05,0,0,0,.19.72,1,1,0,0,0,.74.22,3.88,3.88,0,0,0,.72-.06v1.84a4.9,4.9,0,0,1-1.47.22,2.33,2.33,0,0,1-2.61-2.58v-4.89h-1.32v-1.78h1.32v-2.23Z"/>
          </g>
        </g>
      </g>
      <g>
        <circle class="cls-1" cx="318.87" cy="200.55" r="69.34"/>
        <g id="Outer_ring" data-name="Outer ring">
          <circle class="cls-4" cx="318.87" cy="200.55" r="74.3"/>
          <path class="cls-22" d="M318.87,131.21a69.35,69.35,0,1,1-69.34,69.34,69.34,69.34,0,0,1,69.34-69.34m0-9.91a79.26,79.26,0,1,0,79.25,79.25,79.34,79.34,0,0,0-79.25-79.25Z"/>
        </g>
        <g class="cls-23">
          <g>
            <path class="cls-24" d="M318.24,143.87h0A41.15,41.15,0,0,1,359.4,185V244.9a0,0,0,0,1,0,0H277.09a0,0,0,0,1,0,0V185A41.15,41.15,0,0,1,318.24,143.87Z"/>
            <path class="cls-25" d="M289.24,244.26s-21.49,19.07-27.77,64.46c-3.25,23.56,2.42,88.36,2.42,88.36"/>
            <path class="cls-26" d="M289.24,244.26s-21.49,19.07-27.77,64.46c-2.16,15.65-.38,49.51,1,70.47"/>
            <path class="cls-25" d="M348.51,244.26s21.48,19.07,27.76,64.46c3.26,23.56-2.41,88.36-2.41,88.36"/>
            <path class="cls-26" d="M348.51,244.26s21.48,19.07,27.76,64.46c2.17,15.65.39,49.51-1,70.47"/>
            <path class="cls-22" d="M353.66,321.84c-.16,17.38,7.72,35.89,7.72,35.89H275.92A111.57,111.57,0,0,0,282.19,322c0-19.8-5.28-35.71-5.94-45.15-.46-6.63.38-26.57.38-26.57A27.19,27.19,0,0,1,303,229.77H334.8a27.19,27.19,0,0,1,26.35,20.51s1.31,19.93.86,26.56C362,276.84,353.79,307.64,353.66,321.84Z"/>
            <g class="cls-27">
              <path id="neck" class="cls-28" d="M320.42,243.57h0a2.52,2.52,0,0,1-3.06,0h0a20.23,20.23,0,0,1-7.88-16V208h18.83v19.5A20.24,20.24,0,0,1,320.42,243.57Z"/>
            </g>
            <g id="neck-2" data-name="neck">
              <path id="neck-3" data-name="neck" class="cls-29" d="M320.61,243.52h0a2.73,2.73,0,0,1-3.32,0h0a22,22,0,0,1-8.58-17.41V204.92h20.47v21.19A22,22,0,0,1,320.61,243.52Z"/>
            </g>
            <g id="Head">
              <g id="Head-2" data-name="Head">
                <circle id="Head-3" data-name="Head" class="cls-29" cx="318.24" cy="184.96" r="41.09"/>
                <circle class="cls-29" cx="276.76" cy="185.62" r="6.67"/>
                <circle class="cls-29" cx="359.73" cy="185.62" r="6.67"/>
              </g>
              <g id="earrings">
                <circle class="cls-30" cx="275.56" cy="192.21" r="1.74"/>
                <circle class="cls-30" cx="360.92" cy="192.21" r="1.74"/>
              </g>
              <g id="Face">
                <g id="Mouth">
                  <path class="cls-31" d="M320.35,211.5c-.7,0-1.43,0-2.21-.1a1,1,0,0,1,.2-2.09c7.49.73,10.6-2.75,10.63-2.78a1,1,0,0,1,1.47-.11,1,1,0,0,1,.11,1.48C330.41,208.06,327.34,211.5,320.35,211.5Z"/>
                </g>
                <g id="Eyes_v2" data-name="Eyes v2">
                  <circle class="cls-31" cx="331.98" cy="189.28" r="3.01"/>
                  <circle class="cls-31" cx="304.5" cy="189.28" r="3.01"/>
                </g>
              </g>
            </g>
            <path id="Head-4" data-name="Head" class="cls-24" d="M359.34,185h-.17c-23.51.05-31.42-20.41-31.42-20.41h0c-2,4.29-6.41,8.05-11.34,11.13a62,62,0,0,1-33,9.3l-6.28,0c-.06-23.45,18.4-41.09,41.09-41.09A41,41,0,0,1,359.34,185Z"/>
            <path class="cls-30" d="M277.59,179.16s14.11-28.62,40.66-27.94,40.65,28,40.65,28-13.84-15-40.65-15.33C293.65,163.58,277.59,179.16,277.59,179.16Z"/>
          </g>
        </g>
      </g>
      <g>
        <g class="cls-32">
          <circle cx="193.26" cy="82.59" r="23.12"/>
          <circle cx="216.01" cy="59.1" r="23.76"/>
          <circle cx="292.92" cy="50.05" r="31.8"/>
          <circle cx="225.81" cy="103.08" r="35.57"/>
          <circle cx="266.02" cy="106.09" r="35.57"/>
          <circle cx="320.57" cy="85.25" r="49.89"/>
          <circle cx="251.95" cy="47.79" r="35.57"/>
        </g>
        <g>
          <circle class="cls-33" cx="184.15" cy="73.47" r="23.12"/>
          <circle class="cls-33" cx="206.9" cy="49.99" r="23.76"/>
          <circle class="cls-33" cx="237.57" cy="148.47" r="12.41"/>
          <circle class="cls-33" cx="260.63" cy="168.12" r="7.52"/>
          <circle class="cls-33" cx="285.67" cy="35.45" r="33.65"/>
          <circle class="cls-33" cx="216.7" cy="93.96" r="35.57"/>
          <circle class="cls-33" cx="256.91" cy="96.98" r="35.57"/>
          <circle class="cls-33" cx="310.92" cy="75.61" r="49.89"/>
          <circle class="cls-33" cx="242.83" cy="38.68" r="35.57"/>
        </g>
        <g>
          <path d="M232.9,49.51H230V35.59h2.87Z"/>
          <path d="M243.56,36.62v2.54h1.77v2h-1.77v5.16a1.29,1.29,0,0,0,.22.83,1.14,1.14,0,0,0,.84.25,4.92,4.92,0,0,0,.82-.07v2.09a5.6,5.6,0,0,1-1.68.25,2.64,2.64,0,0,1-3-2.93V41.19h-1.51v-2h1.51V36.62Z"/>
          <path d="M249.57,40.29A3.44,3.44,0,0,1,252.33,39c2.24,0,3.38,1.31,3.41,3.91v6.63H253V43a1.93,1.93,0,0,0-.38-1.31,1.62,1.62,0,0,0-1.27-.43,1.87,1.87,0,0,0-1.76.94v7.35H246.8V34.82h2.77Z"/>
          <path d="M257.81,36.49a1.39,1.39,0,0,1,.41-1,1.81,1.81,0,0,1,2.27,0,1.46,1.46,0,0,1,0,2.06,1.55,1.55,0,0,1-1.12.4,1.58,1.58,0,0,1-1.13-.4A1.36,1.36,0,0,1,257.81,36.49Zm2.93,13H258V39.16h2.77Z"/>
          <path d="M265.56,39.16l.09,1.2a3.62,3.62,0,0,1,3-1.39,3,3,0,0,1,2.45,1,4.47,4.47,0,0,1,.82,2.89v6.68h-2.76V42.89a1.8,1.8,0,0,0-.38-1.27,1.71,1.71,0,0,0-1.28-.4,1.9,1.9,0,0,0-1.75,1v7.29H263V39.16Z"/>
          <path d="M277.74,45.36l-1,1v3.16H274V34.82h2.76V43l.54-.69,2.64-3.11h3.32l-3.74,4.32,4.07,6H280.4Z"/>
          <path d="M292.55,49.51h-2.86V35.59h2.86Z"/>
          <path d="M198.83,74.72A3.45,3.45,0,0,1,196,76a3.26,3.26,0,0,1-2.54-1,4.07,4.07,0,0,1-.89-2.8V65.42h2.76v6.69q0,1.62,1.47,1.62a2,2,0,0,0,1.93-1V65.42h2.78V75.77h-2.6Z"/>
          <path d="M206.13,65.42l.09,1.2a3.6,3.6,0,0,1,3-1.39,3,3,0,0,1,2.44,1,4.43,4.43,0,0,1,.82,2.88v6.69H209.7V69.15a1.78,1.78,0,0,0-.38-1.27,1.7,1.7,0,0,0-1.27-.4,1.9,1.9,0,0,0-1.75,1v7.3h-2.76V65.42Z"/>
          <path d="M214.13,70.52a6.24,6.24,0,0,1,1.08-3.85,3.53,3.53,0,0,1,3-1.44,3.19,3.19,0,0,1,2.5,1.13V61.08h2.77V75.77H221l-.14-1.1A3.25,3.25,0,0,1,218.16,76a3.52,3.52,0,0,1-2.93-1.44A6.47,6.47,0,0,1,214.13,70.52Zm2.76.21A4.09,4.09,0,0,0,217.4,73a1.66,1.66,0,0,0,1.47.77,1.86,1.86,0,0,0,1.81-1.08V68.56a1.83,1.83,0,0,0-1.79-1.08C217.56,67.48,216.89,68.56,216.89,70.73Z"/>
          <path d="M230.35,76a5.08,5.08,0,0,1-3.7-1.4,5,5,0,0,1-1.43-3.72v-.26a6.28,6.28,0,0,1,.6-2.79,4.36,4.36,0,0,1,1.71-1.89,4.73,4.73,0,0,1,2.52-.67,4.3,4.3,0,0,1,3.34,1.34,5.46,5.46,0,0,1,1.22,3.8v1.12H228a2.58,2.58,0,0,0,.81,1.63,2.44,2.44,0,0,0,1.71.61A3,3,0,0,0,233,72.57l1.36,1.53a4.29,4.29,0,0,1-1.68,1.37A5.54,5.54,0,0,1,230.35,76Zm-.31-8.5a1.71,1.71,0,0,0-1.33.56,2.84,2.84,0,0,0-.66,1.59h3.84v-.22A2.09,2.09,0,0,0,231.4,68,1.82,1.82,0,0,0,230,67.46Z"/>
          <path d="M242,68a7.63,7.63,0,0,0-1-.07A2,2,0,0,0,238.94,69v6.77h-2.76V65.42h2.61l.07,1.24a2.58,2.58,0,0,1,2.31-1.43,2.71,2.71,0,0,1,.86.13Z"/>
          <path d="M248.92,72.91a.9.9,0,0,0-.5-.8,5.68,5.68,0,0,0-1.61-.52c-2.46-.52-3.69-1.56-3.69-3.14a2.86,2.86,0,0,1,1.14-2.3,4.64,4.64,0,0,1,3-.92,5,5,0,0,1,3.15.93,2.92,2.92,0,0,1,1.18,2.41h-2.76a1.32,1.32,0,0,0-.39-1,1.59,1.59,0,0,0-1.19-.39,1.64,1.64,0,0,0-1.08.32,1,1,0,0,0-.38.8.84.84,0,0,0,.43.74,4.49,4.49,0,0,0,1.47.49,12.59,12.59,0,0,1,1.74.46,2.87,2.87,0,0,1,2.19,2.78,2.69,2.69,0,0,1-1.22,2.29,5.18,5.18,0,0,1-3.13.88A5.6,5.6,0,0,1,245,75.5a3.88,3.88,0,0,1-1.58-1.28,2.89,2.89,0,0,1-.58-1.74h2.62a1.46,1.46,0,0,0,.55,1.13,2.18,2.18,0,0,0,1.36.39,2,2,0,0,0,1.2-.3A.94.94,0,0,0,248.92,72.91Z"/>
          <path d="M256.7,62.88v2.54h1.76v2H256.7v5.16a1.23,1.23,0,0,0,.22.83,1.11,1.11,0,0,0,.84.24,5,5,0,0,0,.81-.06v2.09a5.54,5.54,0,0,1-1.67.25,2.64,2.64,0,0,1-3-2.94V67.45h-1.51v-2h1.51V62.88Z"/>
          <path d="M266,75.77a3.1,3.1,0,0,1-.28-.93A3.33,3.33,0,0,1,263.11,76a3.67,3.67,0,0,1-2.52-.88,2.86,2.86,0,0,1-1-2.22,2.92,2.92,0,0,1,1.22-2.52,5.94,5.94,0,0,1,3.52-.89h1.28v-.6a1.72,1.72,0,0,0-.37-1.14,1.44,1.44,0,0,0-1.16-.43,1.68,1.68,0,0,0-1.1.33,1.17,1.17,0,0,0-.4.92h-2.76a2.77,2.77,0,0,1,.56-1.66,3.68,3.68,0,0,1,1.56-1.2,5.76,5.76,0,0,1,2.28-.44,4.54,4.54,0,0,1,3,1,3.38,3.38,0,0,1,1.12,2.7v4.49a4.87,4.87,0,0,0,.41,2.23v.16Zm-2.29-1.92a2.28,2.28,0,0,0,1.13-.28,1.76,1.76,0,0,0,.77-.73V71.06h-1c-1.38,0-2.12.48-2.2,1.44v.16a1.11,1.11,0,0,0,.36.85A1.41,1.41,0,0,0,263.71,73.85Z"/>
          <path d="M273,65.42l.09,1.2a3.6,3.6,0,0,1,3-1.39,3,3,0,0,1,2.45,1,4.43,4.43,0,0,1,.82,2.88v6.69h-2.76V69.15a1.78,1.78,0,0,0-.38-1.27,1.7,1.7,0,0,0-1.27-.4,1.9,1.9,0,0,0-1.75,1v7.3h-2.77V65.42Z"/>
          <path d="M281,70.52a6.24,6.24,0,0,1,1.08-3.85,3.53,3.53,0,0,1,3-1.44,3.19,3.19,0,0,1,2.5,1.13V61.08h2.77V75.77h-2.5l-.13-1.1A3.25,3.25,0,0,1,285.07,76a3.52,3.52,0,0,1-2.93-1.44A6.47,6.47,0,0,1,281,70.52Zm2.76.21a4.09,4.09,0,0,0,.51,2.23,1.66,1.66,0,0,0,1.47.77,1.86,1.86,0,0,0,1.81-1.08V68.56a1.83,1.83,0,0,0-1.79-1.08C284.47,67.48,283.8,68.56,283.8,70.73Z"/>
          <path d="M300.69,62.88v2.54h1.77v2h-1.77v5.16a1.23,1.23,0,0,0,.22.83,1.11,1.11,0,0,0,.84.24,5,5,0,0,0,.81-.06v2.09a5.54,5.54,0,0,1-1.67.25,2.64,2.64,0,0,1-3-2.94V67.45h-1.51v-2h1.51V62.88Z"/>
          <path d="M306.69,66.55a3.44,3.44,0,0,1,2.76-1.32c2.25,0,3.38,1.31,3.42,3.91v6.63H310.1V69.22a1.93,1.93,0,0,0-.38-1.32,1.65,1.65,0,0,0-1.27-.42,1.87,1.87,0,0,0-1.76.94v7.35h-2.76V61.08h2.76Z"/>
          <path d="M321,75.77a3.1,3.1,0,0,1-.28-.93A3.33,3.33,0,0,1,318.06,76a3.65,3.65,0,0,1-2.52-.88,2.83,2.83,0,0,1-1-2.22,2.92,2.92,0,0,1,1.22-2.52,5.94,5.94,0,0,1,3.52-.89h1.27v-.6a1.71,1.71,0,0,0-.36-1.14,1.46,1.46,0,0,0-1.17-.43,1.65,1.65,0,0,0-1.09.33,1.13,1.13,0,0,0-.4.92h-2.76a2.76,2.76,0,0,1,.55-1.66,3.71,3.71,0,0,1,1.57-1.2,5.76,5.76,0,0,1,2.28-.44,4.51,4.51,0,0,1,3,1,3.36,3.36,0,0,1,1.13,2.7v4.49a4.87,4.87,0,0,0,.41,2.23v.16Zm-2.29-1.92a2.28,2.28,0,0,0,1.13-.28,1.73,1.73,0,0,0,.76-.73V71.06h-1c-1.38,0-2.12.48-2.21,1.44v.16a1.09,1.09,0,0,0,.37.85A1.41,1.41,0,0,0,318.66,73.85Z"/>
          <path d="M328.76,62.88v2.54h1.77v2h-1.77v5.16a1.23,1.23,0,0,0,.22.83,1.11,1.11,0,0,0,.84.24,4.87,4.87,0,0,0,.81-.06v2.09A5.54,5.54,0,0,1,329,76,2.64,2.64,0,0,1,326,73V67.45h-1.51v-2H326V62.88Z"/>
          <path d="M219.25,91.68l.09,1.19a3.62,3.62,0,0,1,3-1.38,3,3,0,0,1,2.45,1,4.48,4.48,0,0,1,.82,2.89V102h-2.76V95.41a1.83,1.83,0,0,0-.38-1.28,1.74,1.74,0,0,0-1.27-.4,1.9,1.9,0,0,0-1.75,1V102h-2.77V91.68Z"/>
          <path d="M227.25,96.76a6.11,6.11,0,0,1,.59-2.75,4.28,4.28,0,0,1,1.71-1.86,5,5,0,0,1,2.58-.66,4.72,4.72,0,0,1,3.42,1.28A5.13,5.13,0,0,1,237,96.25l0,.71a5.45,5.45,0,0,1-1.33,3.82,5.15,5.15,0,0,1-7.14,0,5.48,5.48,0,0,1-1.33-3.9ZM230,97a4,4,0,0,0,.55,2.26,2,2,0,0,0,3.16,0,4.23,4.23,0,0,0,.56-2.47,3.81,3.81,0,0,0-.56-2.24,1.84,1.84,0,0,0-1.59-.79,1.81,1.81,0,0,0-1.57.79A4.36,4.36,0,0,0,230,97Z"/>
          <path d="M247.75,98.27l1.35-6.59h2.67L249.13,102h-2.31l-2-6.51-2,6.51h-2.31L238,91.68h2.66L242,98.26l1.89-6.58h2Z"/>
          <path d="M252.1,100.67a1.37,1.37,0,0,1,.44-1.07,1.7,1.7,0,0,1,2.24,0,1.4,1.4,0,0,1,.44,1.07,1.34,1.34,0,0,1-.44,1,1.6,1.6,0,0,1-1.13.41,1.57,1.57,0,0,1-1.11-.41A1.34,1.34,0,0,1,252.1,100.67Z"/>
          <path d="M273.63,97.39a4.92,4.92,0,0,1-1.66,3.53,5.78,5.78,0,0,1-3.94,1.3,5.24,5.24,0,0,1-4.22-1.81,7.39,7.39,0,0,1-1.53-4.94v-.86a8.21,8.21,0,0,1,.71-3.53,5.25,5.25,0,0,1,2-2.35,5.59,5.59,0,0,1,3.05-.82A5.71,5.71,0,0,1,272,89.2a5.33,5.33,0,0,1,1.7,3.63h-2.87a2.93,2.93,0,0,0-.75-2,2.82,2.82,0,0,0-2-.61,2.44,2.44,0,0,0-2.14,1,5.71,5.71,0,0,0-.73,3.19v1a6.11,6.11,0,0,0,.68,3.3,2.37,2.37,0,0,0,2.16,1,2.86,2.86,0,0,0,2-.6,2.72,2.72,0,0,0,.75-1.88Z"/>
          <path d="M274.9,96.76a6.24,6.24,0,0,1,.59-2.75,4.4,4.4,0,0,1,1.71-1.86,5,5,0,0,1,2.59-.66,4.71,4.71,0,0,1,3.41,1.28,5.09,5.09,0,0,1,1.48,3.48l0,.71a5.4,5.4,0,0,1-1.33,3.82,5.15,5.15,0,0,1-7.14,0,5.48,5.48,0,0,1-1.33-3.9Zm2.76.19a3.86,3.86,0,0,0,.56,2.26,2,2,0,0,0,3.15,0,4.22,4.22,0,0,0,.57-2.47,3.8,3.8,0,0,0-.57-2.24,2,2,0,0,0-3.15,0A4.27,4.27,0,0,0,277.66,97Z"/>
          <path d="M286,96.76a6.24,6.24,0,0,1,.59-2.75,4.4,4.4,0,0,1,1.71-1.86,5,5,0,0,1,2.59-.66,4.75,4.75,0,0,1,3.42,1.28,5.12,5.12,0,0,1,1.47,3.48l0,.71a5.4,5.4,0,0,1-1.33,3.82,5.15,5.15,0,0,1-7.14,0,5.52,5.52,0,0,1-1.33-3.9Zm2.76.19a3.86,3.86,0,0,0,.56,2.26,2,2,0,0,0,3.15,0,4.22,4.22,0,0,0,.57-2.47,3.8,3.8,0,0,0-.57-2.24,2,2,0,0,0-3.15,0A4.27,4.27,0,0,0,288.73,97Z"/>
          <path d="M300.39,102h-2.77V87.34h2.77Z"/>
          <path d="M304.33,99.26a1.56,1.56,0,0,1,1.12.41,1.5,1.5,0,0,1,0,2.1,1.56,1.56,0,0,1-1.12.41,1.58,1.58,0,0,1-1.12-.41,1.42,1.42,0,0,1-.42-1,1.39,1.39,0,0,1,.42-1A1.54,1.54,0,0,1,304.33,99.26Zm1.15-1.51h-2.3l-.32-9.65h2.94Z"/>
        </g>
      </g>
    </g>
  </g>
</svg>
