<svg xmlns="http://www.w3.org/2000/svg" xmlns:xlink="http://www.w3.org/1999/xlink" width="400" height="331" viewBox="0 0 400 331">
  <defs>
    <style>
      .cls-1, .cls-21, .cls-24, .cls-28, .cls-29, .cls-31 {
        fill: none;
      }

      .cls-2 {
        fill: #9ea5b5;
      }

      .cls-3 {
        fill: #12110b;
      }

      .cls-22, .cls-4 {
        fill: #fff;
      }

      .cls-5 {
        fill: #ecedf0;
      }

      .cls-6 {
        fill: #f1f6fc;
      }

      .cls-7 {
        fill: #2e2d33;
      }

      .cls-8 {
        fill: #cecfd9;
      }

      .cls-9 {
        fill: #13120d;
      }

      .cls-10 {
        fill: #464551;
      }

      .cls-11 {
        fill: #9ea1ab;
      }

      .cls-12 {
        fill: #eff1f6;
      }

      .cls-13 {
        fill: #cbcfda;
      }

      .cls-14, .cls-35 {
        opacity: 0.1;
      }

      .cls-15 {
        fill: #414b5b;
      }

      .cls-16 {
        fill: #ea5e65;
      }

      .cls-17 {
        fill: #f5d010;
      }

      .cls-18 {
        fill: #5bc4bf;
      }

      .cls-19 {
        fill: #bcbcbc;
      }

      .cls-20 {
        fill: #938c86;
      }

      .cls-21 {
        stroke: #bcbcbc;
        stroke-width: 0.46px;
      }

      .cls-21, .cls-28 {
        stroke-linecap: round;
      }

      .cls-21, .cls-28, .cls-29 {
        stroke-linejoin: round;
      }

      .cls-22 {
        opacity: 0.5;
      }

      .cls-23 {
        fill: #484c54;
      }

      .cls-24 {
        stroke: #fff;
      }

      .cls-24, .cls-31 {
        stroke-miterlimit: 10;
      }

      .cls-25 {
        fill: #061b40;
      }

      .cls-26 {
        clip-path: url(#clip-path);
      }

      .cls-27 {
        fill: #f6de93;
      }

      .cls-28 {
        stroke: #e49a70;
      }

      .cls-28, .cls-29 {
        stroke-width: 4.93px;
      }

      .cls-29 {
        stroke: #9e3433;
        stroke-linecap: square;
      }

      .cls-30 {
        clip-path: url(#clip-path-2);
      }

      .cls-31 {
        stroke: #4c1919;
        stroke-width: 1.49px;
      }

      .cls-32 {
        fill: #e49a70;
      }

      .cls-33 {
        fill: #5faa97;
      }

      .cls-34 {
        fill: #3f220f;
      }

      .cls-36 {
        fill: #74c8bf;
      }
    </style>
    <clipPath id="clip-path">
      <circle id="Mask" class="cls-1" cx="99.85" cy="197.17" r="86.31"/>
    </clipPath>
    <clipPath id="clip-path-2">
      <path class="cls-1" d="M143.15,348.13c-.2,21.64,9.62,44.68,9.62,44.68H46.39a138.81,138.81,0,0,0,7.81-44.47c0-24.65-6.57-44.45-7.4-56.2-.57-8.25.48-33.07.48-33.07a33.84,33.84,0,0,1,32.8-25.53h39.6a33.84,33.84,0,0,1,32.8,25.53s1.63,24.81,1.07,33.06C153.55,292.13,143.31,330.46,143.15,348.13Z"/>
    </clipPath>
  </defs>
  <title>img-6</title>
  <g id="platform">
    <path class="cls-2" d="M400,296.23q-98.67-9.8-200-9.89T0,296.23V331H400Z"/>
    <g>
      <g>
        <g>
          <path class="cls-3" d="M364,278.28a6.48,6.48,0,0,1-6.29,6.66H178.91a6.48,6.48,0,0,1-6.29-6.66V156a6.48,6.48,0,0,1,6.29-6.66H357.73A6.48,6.48,0,0,1,364,156Z"/>
          <rect class="cls-4" x="180.29" y="157.04" width="176.68" height="111.34"/>
          <rect class="cls-5" x="180.29" y="209.32" width="176.68" height="59.06"/>
          <path class="cls-6" d="M172.62,273.53l-20.06,17.85s-.44,3.33.12,4.6,1.23,2.15,4,2.46,225.45,0,225.45,0a17.93,17.93,0,0,0,3-2,4,4,0,0,0,1.28-3.19v-1.53L364,273Z"/>
          <path class="cls-7" d="M154.83,298.44a17.93,17.93,0,0,0,7.06,2.45H378.13s3.65-1.34,4.88-2.51S154.83,298.44,154.83,298.44Z"/>
          <path class="cls-8" d="M152.56,291.38s-.59,2.92.12,4.6a5.29,5.29,0,0,0,2.38,2.59l228-.19a9.43,9.43,0,0,0,2.45-2c1.31-1.31,1-4.66,1-4.66Z"/>
          <polygon class="cls-9" points="195.01 276.05 189.08 281.88 199.25 281.88 200.49 280.91 200.97 280.94 200.15 281.88 210.53 281.88 211.12 281.21 211.51 281.2 211.27 281.88 221.11 281.88 221.7 281.29 222.17 281.25 221.75 281.88 235.6 281.88 236.47 281.14 237.04 281.1 236.36 281.88 289.38 281.88 288.52 280.92 288.96 280.92 290 281.88 303.75 281.88 303.13 281.11 303.52 281.07 304.4 281.88 314.64 281.88 314.08 281.11 314.55 281.08 315.23 281.88 325.37 281.88 324.95 281.12 325.41 281.11 325.99 281.88 336.41 281.88 335.95 281.03 336.38 281.03 336.95 281.88 347.46 281.88 342.24 276.05 321.69 275.91 321.08 276.46 320.52 275.91 311.16 275.91 310.75 276.56 310.09 275.91 300.68 275.91 300.12 276.4 299.4 275.91 290.51 275.91 290 276.66 289.54 275.91 279.67 275.91 279 276.76 278.6 275.91 269.53 276.05 268.63 276.81 267.71 276.05 258.81 276.05 258.05 276.66 257.28 276.05 249.38 275.91 248.61 276.74 247.77 275.91 237.49 275.91 236.8 276.66 236.11 275.91 227.22 276.05 226.3 276.76 225.69 276.05 216.02 275.91 215 276.62 214.26 275.91 204.67 275.91 203.75 276.66 203.29 275.91 195.01 276.05"/>
          <path class="cls-10" d="M373.94,294.25a.71.71,0,0,1-.72.71h-6.34a.71.71,0,0,1-.71-.71h0a.71.71,0,0,1,.71-.72h6.34a.72.72,0,0,1,.72.72Z"/>
          <path class="cls-11" d="M284.58,291.69a1,1,0,0,1-1,1H253.9a1,1,0,0,1-1-1h0a1,1,0,0,1,1-1h29.65a1,1,0,0,1,1,1Z"/>
          <path class="cls-12" d="M283.55,293.48a.77.77,0,0,1-.76.77h-27.1a.77.77,0,0,1-.76-.77h0c0-.42-.08-.77.34-.77h27.94c.42,0,.34.35.34.77Z"/>
          <path class="cls-13" d="M238.49,281.88s-3.81,5.93-3.19,6.95,2.35.92,2.35.92l60.88,0s2.3.16,3-1.23c.85-1.71-3.06-6.61-3.06-6.61Z"/>
        </g>
        <g>
          <path class="cls-14" d="M203,152.78v98.86a6.58,6.58,0,0,0,6.58,6.57H332.35a6.58,6.58,0,0,0,6.58-6.57V152.78Z"/>
          <rect class="cls-4" x="196.22" y="83.74" width="136.26" height="164.25" rx="6.59"/>
          <path class="cls-15" d="M332.48,95.9V90.33a6.59,6.59,0,0,0-6.59-6.59H202.81a6.59,6.59,0,0,0-6.59,6.59V95.9Z"/>
          <path class="cls-16" d="M308.78,89.82a2.47,2.47,0,1,0,2.47-2.47A2.48,2.48,0,0,0,308.78,89.82Z"/>
          <path class="cls-17" d="M318.12,89.82a2.47,2.47,0,1,0,2.47-2.47A2.48,2.48,0,0,0,318.12,89.82Z"/>
          <path class="cls-18" d="M299.29,89.82a2.47,2.47,0,1,0,2.47-2.47A2.48,2.48,0,0,0,299.29,89.82Z"/>
          <path class="cls-4" d="M261.81,89.82a2.57,2.57,0,0,1-2.57,2.57H211a2.57,2.57,0,0,1-2.57-2.57h0A2.57,2.57,0,0,1,211,87.25h48.27a2.57,2.57,0,0,1,2.57,2.57Z"/>
          <g>
            <path class="cls-19" d="M254.58,180.75H207.65a1.59,1.59,0,0,1,0-3.17h46.93a1.59,1.59,0,1,1,0,3.17Z"/>
            <path class="cls-19" d="M288.42,180.75H263.3a1.59,1.59,0,0,1,0-3.17h25.12a1.59,1.59,0,0,1,0,3.17Z"/>
            <path class="cls-19" d="M228.24,189.2H207.65a1.59,1.59,0,0,1,0-3.17h20.59a1.59,1.59,0,1,1,0,3.17Z"/>
            <path class="cls-19" d="M243.9,189.2h-7.75a1.59,1.59,0,1,1,0-3.17h7.75a1.59,1.59,0,0,1,0,3.17Z"/>
            <path class="cls-19" d="M304,189.2h-7.75a1.59,1.59,0,1,1,0-3.17H304a1.59,1.59,0,0,1,0,3.17Z"/>
            <path class="cls-19" d="M320.54,180.75h-25a1.59,1.59,0,0,1,0-3.17h25a1.59,1.59,0,0,1,0,3.17Z"/>
            <path class="cls-19" d="M288.42,189.2h-36.5a1.59,1.59,0,1,1,0-3.17h36.5a1.59,1.59,0,0,1,0,3.17Z"/>
            <path class="cls-20" d="M239.39,151.49H207.65a1.59,1.59,0,0,1,0-3.17h31.74a1.59,1.59,0,0,1,0,3.17Z"/>
            <path class="cls-19" d="M254.58,161.73H207.65a1.59,1.59,0,0,1,0-3.17h46.93a1.59,1.59,0,1,1,0,3.17Z"/>
            <path class="cls-19" d="M288.42,161.73H263.3a1.59,1.59,0,0,1,0-3.17h25.12a1.59,1.59,0,0,1,0,3.17Z"/>
            <path class="cls-19" d="M228.24,170.18H207.65a1.59,1.59,0,0,1,0-3.17h20.59a1.59,1.59,0,1,1,0,3.17Z"/>
            <path class="cls-19" d="M243.9,170.18h-7.75a1.59,1.59,0,1,1,0-3.17h7.75a1.59,1.59,0,0,1,0,3.17Z"/>
            <path class="cls-19" d="M304,170.18h-7.75a1.59,1.59,0,1,1,0-3.17H304a1.59,1.59,0,0,1,0,3.17Z"/>
            <path class="cls-19" d="M320.54,161.73h-25a1.59,1.59,0,0,1,0-3.17h25a1.59,1.59,0,0,1,0,3.17Z"/>
            <path class="cls-19" d="M288.42,170.18h-36.5a1.59,1.59,0,1,1,0-3.17h36.5a1.59,1.59,0,0,1,0,3.17Z"/>
          </g>
          <line class="cls-21" x1="206.12" y1="198.48" x2="322.58" y2="198.48"/>
          <g>
            <rect class="cls-18" x="215.11" y="205.2" width="95.88" height="23.62" rx="1.52"/>
            <path class="cls-22" d="M297,208.82h3.65a.58.58,0,0,1,.42.18.6.6,0,0,1,.18.43v4.25h2.74a.58.58,0,0,1,.42.18.6.6,0,0,1,0,.86l-5.16,5.16a.58.58,0,0,1-.43.18.58.58,0,0,1-.42-.18l-5.17-5.16a.6.6,0,0,1,0-.86.58.58,0,0,1,.43-.18h2.73v-4.25a.61.61,0,0,1,.61-.61Zm-5,8.5h.25l.22,0a.39.39,0,0,1,.19.1.27.27,0,0,1,.06.19v3a1.52,1.52,0,0,0,1.52,1.52h9.25a1.54,1.54,0,0,0,1.52-1.52v-3a.54.54,0,0,1,0-.11.14.14,0,0,1,0-.11l.05-.08a.16.16,0,0,1,.08-.06.27.27,0,0,1,.13,0h.44l.23,0a.32.32,0,0,1,.18.1.27.27,0,0,1,.06.19v3a2.73,2.73,0,0,1-2.73,2.73h-9.25a2.73,2.73,0,0,1-2.74-2.73v-3a.29.29,0,0,1,.09-.21.29.29,0,0,1,.22-.09Z"/>
            <g>
              <path d="M221.75,221.25V210.76H225a4.89,4.89,0,0,1,2.48.62,4.46,4.46,0,0,1,1.7,1.77,5.46,5.46,0,0,1,.61,2.61v.49a5.51,5.51,0,0,1-.6,2.6,4.24,4.24,0,0,1-1.7,1.76,5,5,0,0,1-2.47.64Zm2.17-8.74v7h1a2.34,2.34,0,0,0,1.94-.83,3.78,3.78,0,0,0,.68-2.37v-.55a3.83,3.83,0,0,0-.66-2.43,2.34,2.34,0,0,0-1.94-.82Z"/>
              <path d="M230.88,217.28a4.6,4.6,0,0,1,.45-2.07,3.32,3.32,0,0,1,1.29-1.41,3.73,3.73,0,0,1,1.94-.49,3.55,3.55,0,0,1,2.58,1,3.84,3.84,0,0,1,1.11,2.63l0,.53a4.14,4.14,0,0,1-1,2.88,3.89,3.89,0,0,1-5.38,0,4.15,4.15,0,0,1-1-2.94Zm2.08.15a2.87,2.87,0,0,0,.42,1.69,1.5,1.5,0,0,0,2.38,0,3.18,3.18,0,0,0,.43-1.86,2.93,2.93,0,0,0-.43-1.69,1.39,1.39,0,0,0-1.2-.59,1.36,1.36,0,0,0-1.18.59A3.24,3.24,0,0,0,233,217.43Z"/>
              <path d="M246.33,218.42l1-5h2l-2,7.8h-1.75l-1.47-4.91-1.48,4.91h-1.74l-2-7.8h2l1,5,1.43-5h1.5Z"/>
              <path d="M252.31,213.45l.07.9a2.72,2.72,0,0,1,2.24-1,2.24,2.24,0,0,1,1.84.73,3.34,3.34,0,0,1,.62,2.17v5H255v-5a1.36,1.36,0,0,0-.29-1,1.28,1.28,0,0,0-1-.3,1.45,1.45,0,0,0-1.32.75v5.5h-2.08v-7.8Z"/>
              <path d="M260.86,221.25h-2.09V210.18h2.09Z"/>
              <path d="M262.25,217.28a4.73,4.73,0,0,1,.44-2.07A3.32,3.32,0,0,1,264,213.8a3.77,3.77,0,0,1,1.95-.49,3.58,3.58,0,0,1,2.58,1,3.93,3.93,0,0,1,1.11,2.63v.53a4.09,4.09,0,0,1-1,2.88,3.89,3.89,0,0,1-5.38,0,4.14,4.14,0,0,1-1-2.94Zm2.08.15a2.87,2.87,0,0,0,.42,1.69,1.36,1.36,0,0,0,1.19.59,1.39,1.39,0,0,0,1.19-.58,3.19,3.19,0,0,0,.42-1.86,2.93,2.93,0,0,0-.42-1.69,1.42,1.42,0,0,0-1.2-.59,1.35,1.35,0,0,0-1.18.59A3.24,3.24,0,0,0,264.33,217.43Z"/>
              <path d="M275.43,221.25a2.43,2.43,0,0,1-.2-.7,2.53,2.53,0,0,1-2,.84,2.78,2.78,0,0,1-1.9-.66,2.13,2.13,0,0,1-.75-1.67,2.18,2.18,0,0,1,.92-1.9,4.41,4.41,0,0,1,2.65-.67h1V216a1.28,1.28,0,0,0-.28-.87,1.1,1.1,0,0,0-.87-.32,1.25,1.25,0,0,0-.83.25.86.86,0,0,0-.3.69h-2.08a2.07,2.07,0,0,1,.42-1.25,2.72,2.72,0,0,1,1.18-.9,4.27,4.27,0,0,1,1.71-.33,3.4,3.4,0,0,1,2.29.72,2.52,2.52,0,0,1,.85,2v3.38a3.69,3.69,0,0,0,.31,1.68v.12Zm-1.72-1.45a1.76,1.76,0,0,0,.85-.21,1.34,1.34,0,0,0,.58-.55V217.7h-.78c-1,0-1.6.36-1.66,1.08v.13a.84.84,0,0,0,.27.64A1.08,1.08,0,0,0,273.71,219.8Z"/>
              <path d="M278.5,217.29a4.73,4.73,0,0,1,.82-2.9,2.66,2.66,0,0,1,2.24-1.08,2.37,2.37,0,0,1,1.88.85v-4h2.09v11.07h-1.88l-.1-.83a2.45,2.45,0,0,1-2,1,2.64,2.64,0,0,1-2.2-1.08A4.84,4.84,0,0,1,278.5,217.29Zm2.09.16a3,3,0,0,0,.38,1.68,1.23,1.23,0,0,0,1.11.58,1.39,1.39,0,0,0,1.36-.81v-3.08a1.37,1.37,0,0,0-1.35-.82C281.09,215,280.59,215.82,280.59,217.45Z"/>
            </g>
          </g>
          <g>
            <g id="Outline_Icons" data-name="Outline Icons">
              <path class="cls-4" d="M339.11,262.72a1.11,1.11,0,0,1-.77-.32L325,249l-6.84,6.84a1.1,1.1,0,0,1-1,.29,1.08,1.08,0,0,1-.78-.7L305.5,225.05a1.08,1.08,0,0,1,1.38-1.38l30.42,10.86a1.08,1.08,0,0,1,.7.78,1.1,1.1,0,0,1-.29,1l-6.84,6.84,13.36,13.35a1.1,1.1,0,0,1,0,1.54l-4.35,4.35A1.09,1.09,0,0,1,339.11,262.72Z"/>
            </g>
            <g id="Outline_Icons-2" data-name="Outline Icons">
              <path class="cls-23" d="M340.38,264.47a1.2,1.2,0,0,1-.84-.35L325,249.57,317.54,257a1.23,1.23,0,0,1-1.1.32,1.19,1.19,0,0,1-.85-.76l-11.84-33.15a1.17,1.17,0,0,1,.28-1.23,1.15,1.15,0,0,1,1.23-.28l33.15,11.84a1.19,1.19,0,0,1,.76.85,1.23,1.23,0,0,1-.32,1.1l-7.45,7.45L346,257.71a1.2,1.2,0,0,1,0,1.68l-4.73,4.73A1.22,1.22,0,0,1,340.38,264.47ZM325,246.71a1.22,1.22,0,0,1,.84.35l14.55,14.55,3.06-3.06L328.89,244a1.18,1.18,0,0,1,0-1.68l7-7-29-10.37,10.37,29,7-7A1.2,1.2,0,0,1,325,246.71Z"/>
            </g>
          </g>
          <g>
            <rect class="cls-5" x="206.09" y="106.58" width="115.81" height="34.45"/>
            <line class="cls-24" x1="205.86" y1="140.8" x2="322.13" y2="106.69"/>
            <line class="cls-24" x1="322.13" y1="140.8" x2="205.86" y2="106.69"/>
          </g>
        </g>
      </g>
      <g>
        <circle class="cls-1" cx="99.85" cy="197.17" r="86.31"/>
        <g id="Outer_ring" data-name="Outer ring">
          <circle class="cls-4" cx="99.85" cy="197.17" r="91.27"/>
          <path class="cls-25" d="M99.85,110.86a86.32,86.32,0,1,1-86.31,86.31,86.32,86.32,0,0,1,86.31-86.31m0-9.9a96.22,96.22,0,1,0,96.22,96.21A96.32,96.32,0,0,0,99.85,101Z"/>
        </g>
        <g class="cls-26">
          <g>
            <path class="cls-27" d="M99.07,126.62h0a51.22,51.22,0,0,1,51.22,51.22v74.53a0,0,0,0,1,0,0H47.85a0,0,0,0,1,0,0V177.84A51.22,51.22,0,0,1,99.07,126.62Z"/>
            <path class="cls-28" d="M63,251.57s-26.75,23.74-34.56,80.24c-4.05,29.32,3,110,3,110"/>
            <path class="cls-29" d="M63,251.57s-26.75,23.74-34.56,80.24c-2.69,19.48-.48,61.62,1.31,87.71"/>
            <path class="cls-28" d="M136.74,251.57s26.75,23.74,34.56,80.24c4,29.32-3,110-3,110"/>
            <path class="cls-29" d="M136.74,251.57s26.75,23.74,34.56,80.24c2.69,19.48.48,61.62-1.31,87.71"/>
            <path class="cls-25" d="M143.15,348.13c-.2,21.64,9.62,44.68,9.62,44.68H46.39a138.81,138.81,0,0,0,7.81-44.47c0-24.65-6.57-44.45-7.4-56.2-.57-8.25.48-33.07.48-33.07a33.84,33.84,0,0,1,32.8-25.53h39.6a33.84,33.84,0,0,1,32.8,25.53s1.63,24.81,1.07,33.06C153.55,292.13,143.31,330.46,143.15,348.13Z"/>
            <g class="cls-30">
              <path id="neck" class="cls-31" d="M101.78,250.71h0a3.12,3.12,0,0,1-3.8,0h0a25.16,25.16,0,0,1-9.82-19.94V206.49H111.6v24.28A25.16,25.16,0,0,1,101.78,250.71Z"/>
            </g>
            <g id="neck-2" data-name="neck">
              <path id="neck-3" data-name="neck" class="cls-32" d="M102,250.65h0a3.38,3.38,0,0,1-4.13,0h0A27.32,27.32,0,0,1,87.21,229V202.6h25.47V229A27.32,27.32,0,0,1,102,250.65Z"/>
            </g>
            <g id="Head">
              <g id="Head-2" data-name="Head">
                <circle id="Head-3" data-name="Head" class="cls-32" cx="99.07" cy="177.77" r="51.15"/>
                <circle class="cls-32" cx="47.43" cy="178.58" r="8.31"/>
                <circle class="cls-32" cx="150.71" cy="178.58" r="8.31"/>
              </g>
              <g id="earrings">
                <circle class="cls-33" cx="45.95" cy="186.79" r="2.17"/>
                <circle class="cls-33" cx="152.19" cy="186.79" r="2.17"/>
              </g>
              <g id="Face">
                <g id="Mouth">
                  <path class="cls-34" d="M101.69,210.8c-.87,0-1.78,0-2.75-.13a1.31,1.31,0,0,1,.26-2.6c9.32.91,13.18-3.42,13.22-3.46a1.3,1.3,0,0,1,2,1.71C114.22,206.52,110.39,210.8,101.69,210.8Z"/>
                </g>
                <g id="Eyes_v2" data-name="Eyes v2">
                  <circle class="cls-34" cx="116.17" cy="183.15" r="3.75"/>
                  <circle class="cls-34" cx="81.97" cy="183.15" r="3.75"/>
                </g>
              </g>
            </g>
            <path id="Head-4" data-name="Head" class="cls-27" d="M150.22,177.77H150c-29.27.06-39.11-25.41-39.11-25.41h0c-2.49,5.34-8,10-14.13,13.86a77.07,77.07,0,0,1-41,11.57l-7.82,0c-.07-29.2,22.9-51.15,51.15-51.15A51,51,0,0,1,150.22,177.77Z"/>
            <path class="cls-33" d="M48.47,170.54S66,134.93,99.08,135.77s50.59,34.8,50.59,34.8-17.21-18.72-50.59-19.08C68.46,151.16,48.47,170.54,48.47,170.54Z"/>
          </g>
        </g>
      </g>
      <g>
        <g class="cls-35">
          <circle cx="122.45" cy="81.43" r="22.67"/>
          <circle cx="144.76" cy="58.4" r="23.3"/>
          <circle cx="220.17" cy="49.52" r="31.18"/>
          <circle cx="154.36" cy="101.52" r="34.87"/>
          <circle cx="193.79" cy="104.47" r="34.87"/>
          <circle cx="243.57" cy="86.73" r="46.22"/>
          <circle cx="179.99" cy="47.31" r="34.87"/>
        </g>
        <g>
          <circle class="cls-36" cx="113.51" cy="72.49" r="22.67"/>
          <circle class="cls-36" cx="135.82" cy="49.46" r="23.3"/>
          <circle class="cls-36" cx="189.7" cy="147.82" r="12.17"/>
          <circle class="cls-36" cx="162.13" cy="157.86" r="7.37"/>
          <circle class="cls-36" cx="211.23" cy="40.59" r="31.18"/>
          <circle class="cls-36" cx="145.43" cy="92.58" r="34.87"/>
          <circle class="cls-36" cx="184.85" cy="95.54" r="34.87"/>
          <circle class="cls-36" cx="234.64" cy="77.8" r="46.22"/>
          <circle class="cls-36" cx="171.05" cy="38.37" r="34.87"/>
        </g>
        <g>
          <path d="M132.21,68.65h-2.64V55.85h2.64Z"/>
          <path d="M135.21,59.78,134,59.09a4.78,4.78,0,0,0,.78-2.46V55.15h2v1.36a3.88,3.88,0,0,1-.44,1.71A4.58,4.58,0,0,1,135.21,59.78Z"/>
          <path d="M140.82,59.14l.08,1.06A3.36,3.36,0,0,1,143.63,59a2.55,2.55,0,0,1,2.53,1.45A3.27,3.27,0,0,1,149,59a2.86,2.86,0,0,1,2.31.9,4.18,4.18,0,0,1,.75,2.72v6.07h-2.55V62.58a1.81,1.81,0,0,0-.31-1.18,1.41,1.41,0,0,0-1.12-.37,1.58,1.58,0,0,0-1.58,1.09v6.53H144V62.59a1.75,1.75,0,0,0-.33-1.19,1.4,1.4,0,0,0-1.11-.37,1.65,1.65,0,0,0-1.56.89v6.73h-2.54V59.14Z"/>
          <path d="M158.14,63.82a5.52,5.52,0,0,1,1-3.52A3.37,3.37,0,0,1,162,59,3,3,0,0,1,164.42,60l.11-.9h2.3v9.19a4,4,0,0,1-.57,2.17,3.63,3.63,0,0,1-1.59,1.41,5.66,5.66,0,0,1-2.41.48,5.35,5.35,0,0,1-2-.41,3.64,3.64,0,0,1-1.5-1.08l1.12-1.55a3,3,0,0,0,2.3,1.07,2.2,2.2,0,0,0,1.58-.55,2,2,0,0,0,.56-1.53v-.51a3,3,0,0,1-2.31,1,3.34,3.34,0,0,1-2.77-1.34,5.52,5.52,0,0,1-1.06-3.55Zm2.54.19a3.5,3.5,0,0,0,.51,2,1.66,1.66,0,0,0,1.43.74,1.75,1.75,0,0,0,1.66-.88v-4a1.76,1.76,0,0,0-1.64-.87,1.66,1.66,0,0,0-1.44.75A3.89,3.89,0,0,0,160.68,64Z"/>
          <path d="M171.46,68.65h-2.55V55.15h2.55Z"/>
          <path d="M179.06,68.65a3,3,0,0,1-.25-.85,3.1,3.1,0,0,1-2.4,1,3.42,3.42,0,0,1-2.32-.8,2.61,2.61,0,0,1-.92-2,2.7,2.7,0,0,1,1.12-2.32,5.49,5.49,0,0,1,3.24-.82h1.17v-.55a1.53,1.53,0,0,0-.34-1,1.33,1.33,0,0,0-1.06-.4,1.54,1.54,0,0,0-1,.31,1.07,1.07,0,0,0-.37.85h-2.54a2.51,2.51,0,0,1,.51-1.53,3.37,3.37,0,0,1,1.45-1.11,5.33,5.33,0,0,1,2.09-.4,4.15,4.15,0,0,1,2.79.89,3.07,3.07,0,0,1,1,2.48v4.12a4.55,4.55,0,0,0,.38,2v.15ZM177,66.88a2.16,2.16,0,0,0,1-.25,1.62,1.62,0,0,0,.7-.67V64.32h-.95c-1.27,0-1.95.44-2,1.32v.15a1,1,0,0,0,.34.78A1.27,1.27,0,0,0,177,66.88Z"/>
          <path d="M182.81,63.82a5.76,5.76,0,0,1,1-3.54A3.25,3.25,0,0,1,186.53,59a2.94,2.94,0,0,1,2.3,1V55.15h2.55v13.5h-2.3l-.12-1a3,3,0,0,1-2.44,1.18,3.24,3.24,0,0,1-2.7-1.32A5.9,5.9,0,0,1,182.81,63.82Zm2.54.19a3.75,3.75,0,0,0,.46,2,1.51,1.51,0,0,0,1.36.72,1.72,1.72,0,0,0,1.66-1V62a1.69,1.69,0,0,0-1.65-1C186,61,185.35,62,185.35,64Z"/>
          <path d="M200.8,68.65h-2.64V55.85h2.64Z"/>
          <path d="M211.51,66.78a1.64,1.64,0,0,0,1.14-.39,1.33,1.33,0,0,0,.46-1h2.38a3.22,3.22,0,0,1-.52,1.77,3.52,3.52,0,0,1-1.42,1.25,4.4,4.4,0,0,1-2,.44,4.14,4.14,0,0,1-3.22-1.29A5.12,5.12,0,0,1,207.16,64v-.17a5.08,5.08,0,0,1,1.17-3.51A4.1,4.1,0,0,1,211.54,59a4,4,0,0,1,2.86,1,3.57,3.57,0,0,1,1.09,2.7h-2.38a1.73,1.73,0,0,0-.46-1.21,1.7,1.7,0,0,0-2.5.19,3.76,3.76,0,0,0-.45,2.1V64a3.76,3.76,0,0,0,.45,2.11A1.55,1.55,0,0,0,211.51,66.78Z"/>
          <path d="M222.45,68.65a3,3,0,0,1-.25-.85,3.1,3.1,0,0,1-2.4,1,3.44,3.44,0,0,1-2.32-.8,2.6,2.6,0,0,1-.91-2,2.68,2.68,0,0,1,1.12-2.32,5.44,5.44,0,0,1,3.23-.82h1.17v-.55a1.53,1.53,0,0,0-.34-1,1.33,1.33,0,0,0-1.06-.4,1.54,1.54,0,0,0-1,.31,1.07,1.07,0,0,0-.36.85h-2.54a2.51,2.51,0,0,1,.51-1.53,3.4,3.4,0,0,1,1.44-1.11,5.37,5.37,0,0,1,2.09-.4,4.15,4.15,0,0,1,2.79.89,3.07,3.07,0,0,1,1,2.48v4.12a4.55,4.55,0,0,0,.38,2v.15Zm-2.1-1.77a2.16,2.16,0,0,0,1-.25,1.62,1.62,0,0,0,.7-.67V64.32h-1c-1.27,0-1.94.44-2,1.32v.15a1,1,0,0,0,.33.78A1.27,1.27,0,0,0,220.35,66.88Z"/>
          <path d="M228.93,59.14l.08,1.1A3.32,3.32,0,0,1,231.74,59a2.76,2.76,0,0,1,2.25.89,4.08,4.08,0,0,1,.76,2.65v6.15h-2.54V62.57a1.7,1.7,0,0,0-.35-1.18,1.61,1.61,0,0,0-1.17-.36,1.74,1.74,0,0,0-1.61.91v6.71h-2.54V59.14Z"/>
          <path d="M241.85,68.65V61h-1.41V59.14h1.41v-.81a3.28,3.28,0,0,1,.92-2.48,3.55,3.55,0,0,1,2.57-.89,5.8,5.8,0,0,1,1.29.18l0,2a3.4,3.4,0,0,0-.78-.08c-1,0-1.43.45-1.43,1.34v.77h1.89V61H244.4v7.65Z"/>
          <path d="M247.59,56.68a1.26,1.26,0,0,1,.38-.94,1.44,1.44,0,0,1,1-.37,1.42,1.42,0,0,1,1,.37,1.23,1.23,0,0,1,.39.94,1.27,1.27,0,0,1-.39,1,1.63,1.63,0,0,1-2.07,0A1.27,1.27,0,0,1,247.59,56.68Zm2.7,12h-2.55V59.14h2.55Z"/>
          <path d="M255.42,56.8v2.34h1.63V61h-1.63v4.75a1.14,1.14,0,0,0,.2.75,1,1,0,0,0,.78.23,4,4,0,0,0,.74-.06V68.6a5.24,5.24,0,0,1-1.53.22,2.43,2.43,0,0,1-2.73-2.69V61h-1.39V59.14h1.39V56.8Z"/>
          <path d="M126.72,80.58v2.34h1.63v1.86h-1.63v4.75a1.08,1.08,0,0,0,.21.75,1,1,0,0,0,.77.23,4.22,4.22,0,0,0,.75-.06v1.92a5,5,0,0,1-1.54.23,2.43,2.43,0,0,1-2.73-2.7V84.78h-1.39V82.92h1.39V80.58Z"/>
          <path d="M132.24,84a3.2,3.2,0,0,1,2.54-1.21c2.07,0,3.11,1.2,3.14,3.6v6.09h-2.54v-6A1.78,1.78,0,0,0,135,85.2a1.51,1.51,0,0,0-1.17-.39,1.73,1.73,0,0,0-1.62.86v6.76H129.7V78.93h2.54Z"/>
          <path d="M139.82,80.46a1.26,1.26,0,0,1,.38-.94,1.65,1.65,0,0,1,2.08,0,1.23,1.23,0,0,1,.39.94,1.27,1.27,0,0,1-.39,1,1.5,1.5,0,0,1-1,.36,1.47,1.47,0,0,1-1-.36A1.27,1.27,0,0,1,139.82,80.46Zm2.7,12H140V82.92h2.55Z"/>
          <path d="M149.76,89.8a.8.8,0,0,0-.46-.73,5.19,5.19,0,0,0-1.48-.48c-2.26-.48-3.4-1.44-3.4-2.89a2.59,2.59,0,0,1,1.06-2.11,4.18,4.18,0,0,1,2.74-.85,4.63,4.63,0,0,1,2.9.85,2.7,2.7,0,0,1,1.08,2.22h-2.54a1.21,1.21,0,0,0-.35-.9,1.47,1.47,0,0,0-1.1-.36,1.54,1.54,0,0,0-1,.29.94.94,0,0,0-.35.74.77.77,0,0,0,.4.68,4.16,4.16,0,0,0,1.35.45,11.63,11.63,0,0,1,1.6.43,2.62,2.62,0,0,1,2,2.55,2.48,2.48,0,0,1-1.12,2.11,4.83,4.83,0,0,1-2.88.8,5.08,5.08,0,0,1-2.12-.42A3.65,3.65,0,0,1,144.65,91a2.73,2.73,0,0,1-.52-1.61h2.4a1.33,1.33,0,0,0,.51,1,2,2,0,0,0,1.24.36,1.82,1.82,0,0,0,1.11-.28A.86.86,0,0,0,149.76,89.8Z"/>
          <path d="M163.86,92.43a3,3,0,0,1-.26-.86,3,3,0,0,1-2.4,1,3.36,3.36,0,0,1-2.31-.81,2.57,2.57,0,0,1-.92-2,2.69,2.69,0,0,1,1.12-2.32,5.57,5.57,0,0,1,3.24-.81h1.17v-.55a1.58,1.58,0,0,0-.34-1,1.32,1.32,0,0,0-1.07-.4,1.51,1.51,0,0,0-1,.31,1,1,0,0,0-.36.84h-2.54a2.56,2.56,0,0,1,.51-1.53,3.46,3.46,0,0,1,1.44-1.1,5.19,5.19,0,0,1,2.09-.4,4.2,4.2,0,0,1,2.79.88,3.1,3.1,0,0,1,1,2.49v4.12a4.6,4.6,0,0,0,.37,2v.15Zm-2.1-1.77a2.12,2.12,0,0,0,1-.25,1.71,1.71,0,0,0,.71-.67V88.1h-.95c-1.27,0-2,.44-2,1.32v.15a1,1,0,0,0,.33.78A1.3,1.3,0,0,0,161.76,90.66Z"/>
          <path d="M173.34,85.3a6.33,6.33,0,0,0-.91-.07,1.86,1.86,0,0,0-1.89,1v6.23H168V82.92h2.4l.07,1.13a2.35,2.35,0,0,1,2.11-1.31,2.58,2.58,0,0,1,.8.12Z"/>
          <path d="M173.85,87.58a5.56,5.56,0,0,1,.55-2.52A3.92,3.92,0,0,1,176,83.35a4.56,4.56,0,0,1,2.38-.61,4.31,4.31,0,0,1,3.14,1.18,4.7,4.7,0,0,1,1.36,3.2l0,.65a5,5,0,0,1-1.22,3.51,4.74,4.74,0,0,1-6.56,0,5,5,0,0,1-1.23-3.58Zm2.54.18a3.57,3.57,0,0,0,.51,2.08,1.84,1.84,0,0,0,2.9,0,3.88,3.88,0,0,0,.52-2.27,3.49,3.49,0,0,0-.52-2.06,1.67,1.67,0,0,0-1.46-.73,1.65,1.65,0,0,0-1.44.73A3.92,3.92,0,0,0,176.39,87.76Z"/>
          <path d="M190.12,91.46a3.2,3.2,0,0,1-2.6,1.14,3,3,0,0,1-2.34-.88,3.75,3.75,0,0,1-.82-2.57V82.92h2.54v6.15c0,1,.45,1.48,1.36,1.48a1.82,1.82,0,0,0,1.77-.89V82.92h2.55v9.51h-2.39Z"/>
          <path d="M196.83,82.92l.08,1.1a3.33,3.33,0,0,1,2.74-1.28,2.79,2.79,0,0,1,2.25.89,4.14,4.14,0,0,1,.75,2.65v6.15h-2.54V86.34a1.62,1.62,0,0,0-.35-1.17,1.58,1.58,0,0,0-1.17-.36,1.75,1.75,0,0,0-1.61.91v6.71h-2.54V82.92Z"/>
          <path d="M204.18,87.6a5.7,5.7,0,0,1,1-3.54,3.22,3.22,0,0,1,2.73-1.32,2.91,2.91,0,0,1,2.29,1V78.93h2.55v13.5h-2.29l-.13-1a3,3,0,0,1-2.44,1.18,3.21,3.21,0,0,1-2.69-1.32A5.9,5.9,0,0,1,204.18,87.6Zm2.54.19a3.74,3.74,0,0,0,.47,2,1.5,1.5,0,0,0,1.35.71,1.69,1.69,0,0,0,1.66-1V85.8a1.66,1.66,0,0,0-1.64-1C207.33,84.81,206.72,85.8,206.72,87.79Z"/>
          <path d="M227.47,89l1.25-6h2.45l-2.42,9.51h-2.13l-1.8-6-1.8,6H220.9l-2.43-9.51h2.45l1.24,6,1.74-6h1.84Z"/>
          <path d="M232,87.58a5.69,5.69,0,0,1,.55-2.52,3.89,3.89,0,0,1,1.57-1.71,4.51,4.51,0,0,1,2.38-.61,4.31,4.31,0,0,1,3.14,1.18,4.75,4.75,0,0,1,1.36,3.2v.65a4.94,4.94,0,0,1-1.22,3.51,4.74,4.74,0,0,1-6.56,0A5,5,0,0,1,232,87.7Zm2.54.18a3.57,3.57,0,0,0,.51,2.08,1.84,1.84,0,0,0,2.9,0,3.88,3.88,0,0,0,.52-2.27,3.49,3.49,0,0,0-.52-2.06,1.81,1.81,0,0,0-2.9,0A3.92,3.92,0,0,0,234.57,87.76Z"/>
          <path d="M248,85.3a6.33,6.33,0,0,0-.91-.07,1.86,1.86,0,0,0-1.89,1v6.23h-2.54V82.92H245l.07,1.13a2.35,2.35,0,0,1,2.12-1.31,2.56,2.56,0,0,1,.79.12Z"/>
          <path d="M252.63,88.61l-.92.92v2.9h-2.54V78.93h2.54v7.48l.5-.64,2.43-2.85h3.05l-3.44,4L258,92.43h-2.92Z"/>
          <path d="M258.92,91.18a1.3,1.3,0,0,1,.41-1,1.6,1.6,0,0,1,2.05,0,1.27,1.27,0,0,1,.41,1,1.25,1.25,0,0,1-.4,1,1.63,1.63,0,0,1-2.07,0A1.25,1.25,0,0,1,258.92,91.18Z"/>
        </g>
      </g>
    </g>
  </g>
</svg>
