<svg xmlns="http://www.w3.org/2000/svg" xmlns:xlink="http://www.w3.org/1999/xlink" width="400" height="331" viewBox="0 0 400 331">
  <defs>
    <style>
      .cls-1, .cls-19, .cls-22, .cls-29, .cls-30, .cls-31, .cls-32 {
        fill: none;
      }

      .cls-2 {
        fill: #9ea5b5;
      }

      .cls-3 {
        fill: #12110b;
      }

      .cls-4 {
        fill: #fff;
      }

      .cls-5 {
        fill: #f1f6fc;
      }

      .cls-6 {
        fill: #2e2d33;
      }

      .cls-7 {
        fill: #cecfd9;
      }

      .cls-8 {
        fill: #13120d;
      }

      .cls-9 {
        fill: #464551;
      }

      .cls-10 {
        fill: #9ea1ab;
      }

      .cls-11 {
        fill: #eff1f6;
      }

      .cls-12 {
        fill: #cbcfda;
      }

      .cls-13 {
        fill: #007484;
      }

      .cls-14 {
        opacity: 0.1;
      }

      .cls-15 {
        fill: #414b5b;
      }

      .cls-16 {
        fill: #ea5e65;
      }

      .cls-17 {
        fill: #5bc4bf;
      }

      .cls-18 {
        fill: #f27553;
      }

      .cls-19, .cls-22 {
        stroke: #ecedf0;
      }

      .cls-19, .cls-30 {
        stroke-linecap: round;
      }

      .cls-19, .cls-22, .cls-29, .cls-30, .cls-31, .cls-32 {
        stroke-miterlimit: 10;
      }

      .cls-19 {
        stroke-width: 3.05px;
      }

      .cls-20 {
        fill: #ecedf0;
      }

      .cls-21 {
        fill: #25b6d1;
      }

      .cls-22 {
        stroke-width: 0.59px;
      }

      .cls-23 {
        fill: #74c8bf;
      }

      .cls-24 {
        clip-path: url(#clip-path);
      }

      .cls-25 {
        fill: #5faa97;
      }

      .cls-26 {
        fill: #855041;
      }

      .cls-27 {
        fill: #845043;
      }

      .cls-28 {
        fill: #030304;
      }

      .cls-29, .cls-30 {
        stroke: #000;
      }

      .cls-29 {
        stroke-width: 1.81px;
      }

      .cls-30 {
        stroke-width: 1.81px;
      }

      .cls-31, .cls-32 {
        stroke: #12110b;
      }

      .cls-31 {
        stroke-width: 3.31px;
      }

      .cls-32 {
        stroke-width: 2.21px;
      }

      .cls-33 {
        fill: #061b40;
      }
    </style>
    <clipPath id="clip-path">
      <circle id="Mask" class="cls-1" cx="95.66" cy="199.02" r="83.67"/>
    </clipPath>
  </defs>
  <title>img-4</title>
  <g id="platform">
    <path class="cls-2" d="M400,296.23q-98.67-9.8-200-9.89T0,296.23V331H400Z"/>
    <g>
      <g>
        <g>
          <path class="cls-3" d="M339.84,276.49a6.77,6.77,0,0,1-6.57,7H146.56a6.77,6.77,0,0,1-6.57-7V148.85a6.77,6.77,0,0,1,6.57-6.95H333.27a6.77,6.77,0,0,1,6.57,6.95Z"/>
          <rect class="cls-4" x="148" y="149.9" width="184.47" height="116.25"/>
          <path class="cls-5" d="M140,271.53l-20.94,18.65s-.46,3.47.13,4.8,1.28,2.24,4.16,2.56,235.39,0,235.39,0a19,19,0,0,0,3.15-2.11,4.13,4.13,0,0,0,1.33-3.33v-1.6L339.84,271Z"/>
          <path class="cls-6" d="M121.42,297.54a18.72,18.72,0,0,0,7.37,2.56H354.57s3.81-1.4,5.1-2.62S121.42,297.54,121.42,297.54Z"/>
          <path class="cls-7" d="M119.05,290.18s-.62,3,.13,4.8a5.49,5.49,0,0,0,2.48,2.7l238-.2a10,10,0,0,0,2.55-2.11c1.37-1.37,1-4.87,1-4.87Z"/>
          <polygon class="cls-8" points="163.37 274.16 157.18 280.25 167.8 280.25 169.09 279.25 169.59 279.27 168.74 280.25 179.57 280.25 180.19 279.55 180.6 279.55 180.35 280.25 190.62 280.25 191.24 279.63 191.72 279.6 191.29 280.25 205.75 280.25 206.65 279.48 207.26 279.44 206.55 280.25 261.91 280.25 261.01 279.25 261.47 279.25 262.55 280.25 276.9 280.25 276.26 279.45 276.67 279.4 277.59 280.25 288.27 280.25 287.69 279.44 288.19 279.42 288.89 280.25 299.48 280.25 299.05 279.46 299.52 279.45 300.12 280.25 311.01 280.25 310.53 279.37 310.97 279.37 311.57 280.25 322.54 280.25 317.1 274.16 295.64 274.02 295 274.59 294.41 274.02 284.64 274.02 284.22 274.7 283.52 274.02 273.7 274.02 273.12 274.54 272.37 274.02 263.08 274.02 262.55 274.8 262.07 274.02 251.76 274.02 251.07 274.91 250.64 274.02 241.18 274.16 240.24 274.96 239.27 274.16 229.99 274.16 229.19 274.8 228.39 274.16 220.14 274.02 219.34 274.88 218.46 274.02 207.73 274.02 207.01 274.8 206.29 274.02 197 274.16 196.04 274.91 195.4 274.16 185.31 274.02 184.24 274.76 183.47 274.02 173.46 274.02 172.5 274.8 172.02 274.02 163.37 274.16"/>
          <path class="cls-9" d="M350.19,293.16a.74.74,0,0,1-.75.75h-6.62a.74.74,0,0,1-.74-.75h0a.74.74,0,0,1,.74-.74h6.62a.74.74,0,0,1,.75.74Z"/>
          <path class="cls-10" d="M256.89,290.5a1.06,1.06,0,0,1-1.07,1.06h-31a1.05,1.05,0,0,1-1.06-1.06h0a1.06,1.06,0,0,1,1.06-1.07h31a1.07,1.07,0,0,1,1.07,1.07Z"/>
          <path class="cls-11" d="M255.82,292.36a.8.8,0,0,1-.8.8H226.73a.8.8,0,0,1-.8-.8h0c0-.44-.08-.8.36-.8h29.17c.44,0,.36.36.36.8Z"/>
          <path class="cls-12" d="M208.77,280.25s-4,6.19-3.34,7.26,2.46,1,2.46,1l63.57,0s2.39.18,3.12-1.28c.88-1.78-3.2-6.9-3.2-6.9Z"/>
        </g>
        <path class="cls-13" d="M270.29,180.29a6.9,6.9,0,0,1,6.93,6.93v41.61a6.9,6.9,0,0,1-6.93,6.94H210.18a6.9,6.9,0,0,1-6.93-6.94V187.22a6.9,6.9,0,0,1,6.93-6.93Zm0,6.93H210.18v5.93q5.06,4,19.51,15.31l1.3,1.16a36.35,36.35,0,0,0,4.62,3.47,6.65,6.65,0,0,0,9.25,0,35.65,35.65,0,0,0,4.62-3.47l1.3-1.16q14.45-11.11,19.51-15.31Zm-60.11,41.61h60.11V202l-16.76,13.29a41.29,41.29,0,0,1-5.93,4.34,14.54,14.54,0,0,1-7.36,2.31,15.33,15.33,0,0,1-7.52-2.31,56.78,56.78,0,0,1-5.92-4.34L210.18,202Z"/>
      </g>
      <circle id="Outer_ring" data-name="Outer ring" class="cls-14" cx="99.32" cy="207.68" r="94"/>
      <g>
        <g>
          <g>
            <g>
              <rect class="cls-15" x="271.79" y="200.38" width="145.36" height="82.85" rx="9.21" transform="translate(42.93 535.41) rotate(-79.3)"/>
              <rect class="cls-4" x="288.34" y="201.11" width="114.57" height="69.14" transform="translate(49.89 531.56) rotate(-79.3)"/>
            </g>
            <g>
              <circle class="cls-16" cx="326.79" cy="265.81" r="10.52" transform="translate(-4.9 6.14) rotate(-1.07)"/>
              <g>
                <rect class="cls-4" x="320.27" y="263.76" width="1.11" height="4.37" transform="translate(0.31 532.27) rotate(-79.38)"/>
                <rect class="cls-4" x="331.46" y="265.87" width="1.11" height="4.37" transform="translate(6.95 544.51) rotate(-79.3)"/>
                <path class="cls-4" d="M334.49,265.53a2.86,2.86,0,0,0-.84-1.24,9.72,9.72,0,0,0-3.79-2.11,24.4,24.4,0,0,0-2.42-.59,22.52,22.52,0,0,0-2.45-.33,9.67,9.67,0,0,0-4.3.58,2.84,2.84,0,0,0-1.24.86,2.63,2.63,0,0,0-.46,1.21c0,.1-.05.32-.05.32l4.29.81a1.4,1.4,0,0,1,.25-.53A3,3,0,0,1,324,264a2.74,2.74,0,0,1,1.83-.55,8.56,8.56,0,0,1,1.24.14,8.28,8.28,0,0,1,1.21.32,2.71,2.71,0,0,1,1.5,1.18,2.47,2.47,0,0,1,.29.69,1.56,1.56,0,0,1,.05.59l4.29.81s0-.21.07-.32A2.6,2.6,0,0,0,334.49,265.53Z"/>
              </g>
            </g>
            <g>
              <circle class="cls-17" cx="353.3" cy="270.79" r="10.52" transform="translate(-35.6 487.37) rotate(-66.58)"/>
              <g>
                <rect class="cls-4" x="355.63" y="273.82" width="1.11" height="4.37" transform="translate(-65.27 116.57) rotate(-17.05)"/>
                <rect class="cls-4" x="352.3" y="262.93" width="1.11" height="4.37" transform="translate(-62.01 114.52) rotate(-16.97)"/>
                <path class="cls-4" d="M349.48,264.1a2.89,2.89,0,0,0-.72,1.33,9.74,9.74,0,0,0-.1,4.33,22.92,22.92,0,0,0,.6,2.41,20.89,20.89,0,0,0,.85,2.33,9.55,9.55,0,0,0,2.51,3.54,3,3,0,0,0,1.33.7,2.59,2.59,0,0,0,1.29-.16l.31-.1-1.28-4.17a1.41,1.41,0,0,1-.59,0,2.29,2.29,0,0,1-.72-.21,2.77,2.77,0,0,1-1.34-1.36,9.13,9.13,0,0,1-.45-1.17c-.11-.4-.21-.81-.28-1.21a2.8,2.8,0,0,1,.35-1.88,2.7,2.7,0,0,1,.48-.58,1.5,1.5,0,0,1,.5-.31L351,263.42l-.32.09A2.63,2.63,0,0,0,349.48,264.1Z"/>
              </g>
            </g>
            <path class="cls-18" d="M358.84,175.4a1.8,1.8,0,0,1-2.1,1.43,1.79,1.79,0,1,1,2.1-1.43Z"/>
          </g>
          <line class="cls-19" x1="320.74" y1="300.03" x2="345.32" y2="304.68"/>
        </g>
        <g>
          <circle class="cls-20" cx="349.35" cy="217.31" r="20.38"/>
          <path class="cls-21" d="M336.42,222c.11-.59.23-1.15.38-1.7a15.5,15.5,0,0,1,.57-1.76,15.12,15.12,0,0,1,.77-1.71,8.49,8.49,0,0,1,1-1.48,5.91,5.91,0,0,1,1.27-1.15,4.49,4.49,0,0,1,1.58-.61,5.12,5.12,0,0,1,1.91,0,2,2,0,0,1,.63.49l1.08,1a7.79,7.79,0,0,0,1.63,1.13,7.17,7.17,0,0,0,4.42.83,8.21,8.21,0,0,0,1.93-.45l1.38-.57a2.22,2.22,0,0,1,.76-.22,5.05,5.05,0,0,1,1.79.68,4.29,4.29,0,0,1,1.24,1.15,5.49,5.49,0,0,1,.77,1.53,8.38,8.38,0,0,1,.41,1.75,13.8,13.8,0,0,1,.1,1.87,15.09,15.09,0,0,1-.11,1.85c-.06.56-.15,1.13-.26,1.72a4.18,4.18,0,0,1-1.8,2.9,4.5,4.5,0,0,1-3.42.55L340,227.11a4.56,4.56,0,0,1-3-1.75A4.19,4.19,0,0,1,336.42,222Zm9.08-8.93a6.47,6.47,0,1,1,4.14,2.7A6.21,6.21,0,0,1,345.5,213.07Z"/>
        </g>
        <line class="cls-22" x1="312.33" y1="242.74" x2="374.68" y2="254.52"/>
      </g>
      <g>
        <circle class="cls-1" cx="95.66" cy="199.02" r="83.67"/>
        <g id="Outer_ring-2" data-name="Outer ring">
          <circle class="cls-4" cx="95.66" cy="199.02" r="88.62" transform="translate(-116.11 261.57) rotate(-80.78)"/>
          <path class="cls-23" d="M95.66,115.35A83.67,83.67,0,1,1,12,199a83.67,83.67,0,0,1,83.67-83.67m0-9.91A93.58,93.58,0,1,0,189.24,199a93.69,93.69,0,0,0-93.58-93.58Z"/>
        </g>
        <g class="cls-24">
          <g>
            <path class="cls-23" d="M135.3,362.47H53.62s-.76-12-.76-24.91-4.29-31.07-9.33-49.89c-4.84-18-7.8-34.42-4.59-45,2.75-9,6.31-15.6,17.89-15.6h75.72c11,0,14.95,3.82,17,11.93,2.75,11,3.67,29.83-1.38,46.81-5.25,17.68-11.62,39.37-11.62,51.12S135.3,362.47,135.3,362.47Z"/>
            <path class="cls-25" d="M89.81,251.13l4.65-9.81-5.9-14.7H79.34S79.24,238.66,89.81,251.13Z"/>
            <path class="cls-25" d="M99.18,251.13l-4.65-9.81,5.9-14.7h9.22S109.75,238.66,99.18,251.13Z"/>
            <g id="neck">
              <path id="neck-2" data-name="neck" class="cls-26" d="M95.91,240.21l-1.45,1.11L93,240.21A19.21,19.21,0,0,1,85.51,225V206.45h17.9V225A19.21,19.21,0,0,1,95.91,240.21Z"/>
            </g>
            <g id="Head">
              <rect id="SquareHead" class="cls-27" x="57.22" y="136.25" width="75.07" height="85.37" rx="37.53"/>
              <g id="ears">
                <circle id="ear_-_L" data-name="ear - L" class="cls-27" cx="57.12" cy="178.78" r="6.07"/>
                <circle id="ear_-_R" data-name="ear - R" class="cls-27" cx="132.59" cy="178.78" r="6.07"/>
              </g>
            </g>
            <path id="SquareHead-2" data-name="SquareHead" d="M57.22,171.81s-6.62,53.05,37.88,53c42.87-.05,37.19-53,37.19-53h-5.54l-2,19.61a7.92,7.92,0,0,1-8.43,7.09l-15.79-1.09a76.76,76.76,0,0,0-10.83,0l-15.31,1.1A7.92,7.92,0,0,1,66,192l-3.54-20.19Z"/>
            <g id="Face">
              <g id="Mouth">
                <path class="cls-27" d="M92.94,205.9c-6.36,0-9.15-3.14-9.28-3.28a1,1,0,1,1,1.43-1.26c.13.14,2.94,3.19,9.67,2.54a1,1,0,0,1,.19,1.9C94.24,205.87,93.57,205.9,92.94,205.9Z"/>
              </g>
              <g id="Eyes_v2" data-name="Eyes v2">
                <circle class="cls-28" cx="82.35" cy="185.68" r="2.74"/>
                <circle class="cls-28" cx="107.35" cy="185.68" r="2.74"/>
              </g>
            </g>
            <g>
              <path d="M124.1,172.45c-7.29-.94-11.64-4.8-11.64-14.71a18.27,18.27,0,0,1,6.18-13.83c8.45,6.92,13.87,16.19,13.87,28A22.4,22.4,0,0,1,124.1,172.45Z"/>
              <path d="M57,173.27c6.34,3.2,18.16-5.3,26.55-3.79,21,3.79,35.13-10.18,35.44-25.3a37.55,37.55,0,0,0-24.2-8.8h0A38,38,0,0,0,57,173.27Z"/>
            </g>
          </g>
        </g>
        <g>
          <path class="cls-29" d="M120.13,183.38a11.66,11.66,0,1,1-23.31,0C96.82,177,120.13,177,120.13,183.38Z"/>
          <path class="cls-29" d="M93.41,183.38a11.66,11.66,0,1,1-23.31,0C70.1,177,93.41,177,93.41,183.38Z"/>
          <line class="cls-29" x1="93.31" y1="183.29" x2="96.72" y2="183.29"/>
          <line class="cls-30" x1="120.13" y1="183.38" x2="130.46" y2="177.12"/>
          <line class="cls-30" x1="69.91" y1="183.38" x2="57.82" y2="175.05"/>
        </g>
        <path class="cls-3" d="M130.74,169.22h0a13.13,13.13,0,0,1,13.13,13.13v.73a13.13,13.13,0,0,1-13.13,13.13h0a0,0,0,0,1,0,0v-27a0,0,0,0,1,0,0Z"/>
        <path class="cls-3" d="M44.75,169.22h0a13.13,13.13,0,0,1,13.13,13.13v.73a13.13,13.13,0,0,1-13.13,13.13h0a0,0,0,0,1,0,0v-27A0,0,0,0,1,44.75,169.22Z" transform="translate(102.62 365.42) rotate(-180)"/>
        <path id="Head-2" data-name="Head" class="cls-31" d="M52.57,172.15a42.28,42.28,0,0,1,84.56,0"/>
        <path id="Head-3" data-name="Head" class="cls-32" d="M134.31,190.34c0,23-12.63,41.67-28.2,41.67"/>
        <rect class="cls-3" x="91.56" y="228.34" width="16.65" height="7.87" rx="3.93"/>
        <circle class="cls-25" cx="94.9" cy="259.28" r="3.32"/>
        <circle class="cls-25" cx="94.9" cy="273.63" r="3.32"/>
      </g>
      <g>
        <g>
          <rect class="cls-33" x="157.97" y="11.88" width="198.11" height="106.5" rx="18.69"/>
          <path class="cls-33" d="M173.34,102.84l.46,27.86a3.12,3.12,0,0,0,5,2.41L200.89,116Z"/>
        </g>
        <g>
          <path class="cls-4" d="M187.77,48.61h-2.63V43.12H180v5.49h-2.63V35.81H180V41h5.15V35.81h2.63Z"/>
          <path class="cls-4" d="M189.89,36.64a1.26,1.26,0,0,1,.38-.94,1.44,1.44,0,0,1,1-.37,1.42,1.42,0,0,1,1,.37,1.23,1.23,0,0,1,.39.94,1.27,1.27,0,0,1-.39,1,1.67,1.67,0,0,1-2.07,0A1.27,1.27,0,0,1,189.89,36.64Zm2.7,12H190V39.1h2.55Z"/>
          <path class="cls-4" d="M206,45.25a1.37,1.37,0,0,0-.53-1.15,6.86,6.86,0,0,0-1.9-.84,13.54,13.54,0,0,1-2.17-.88,3.54,3.54,0,0,1-2.18-3.17,3.08,3.08,0,0,1,.58-1.85,3.87,3.87,0,0,1,1.68-1.27,6.42,6.42,0,0,1,2.46-.46,5.75,5.75,0,0,1,2.44.5,3.91,3.91,0,0,1,1.67,1.4,3.73,3.73,0,0,1,.59,2.06H206a1.73,1.73,0,0,0-.55-1.37,2.3,2.3,0,0,0-1.55-.49,2.46,2.46,0,0,0-1.51.41,1.31,1.31,0,0,0-.53,1.08,1.25,1.25,0,0,0,.63,1.05,7.12,7.12,0,0,0,1.84.79,7.93,7.93,0,0,1,3.28,1.68,3.31,3.31,0,0,1,1,2.49,3.1,3.1,0,0,1-1.25,2.61,5.52,5.52,0,0,1-3.39.94,6.56,6.56,0,0,1-2.69-.54,4.25,4.25,0,0,1-1.85-1.48,3.83,3.83,0,0,1-.64-2.18h2.65c0,1.41.84,2.12,2.53,2.12a2.5,2.5,0,0,0,1.47-.38A1.26,1.26,0,0,0,206,45.25Z"/>
          <path class="cls-4" d="M215.74,48.61a3,3,0,0,1-.26-.86,3,3,0,0,1-2.39,1,3.36,3.36,0,0,1-2.32-.81,2.58,2.58,0,0,1-.92-2A2.7,2.7,0,0,1,211,43.61a5.57,5.57,0,0,1,3.24-.81h1.17v-.55a1.53,1.53,0,0,0-.34-1,1.3,1.3,0,0,0-1.07-.4,1.46,1.46,0,0,0-1,.31,1,1,0,0,0-.37.84h-2.54a2.56,2.56,0,0,1,.51-1.53,3.46,3.46,0,0,1,1.44-1.1,5.21,5.21,0,0,1,2.1-.4,4.2,4.2,0,0,1,2.79.88,3.13,3.13,0,0,1,1,2.49v4.12a4.45,4.45,0,0,0,.38,2.05v.15Zm-2.1-1.77a2.19,2.19,0,0,0,1-.25,1.68,1.68,0,0,0,.7-.67V44.28h-.95c-1.27,0-2,.44-2,1.32v.15a1,1,0,0,0,.33.78A1.3,1.3,0,0,0,213.64,46.84Z"/>
          <path class="cls-4" d="M222.26,39.1l.08,1.06a3.33,3.33,0,0,1,2.73-1.24,2.54,2.54,0,0,1,2.53,1.45,3.24,3.24,0,0,1,2.85-1.45,2.86,2.86,0,0,1,2.31.9,4.17,4.17,0,0,1,.75,2.71v6.08H231V42.54a1.81,1.81,0,0,0-.31-1.18,1.41,1.41,0,0,0-1.12-.37A1.58,1.58,0,0,0,228,42.08v6.53h-2.54V42.55a1.75,1.75,0,0,0-.33-1.19A1.39,1.39,0,0,0,224,41a1.65,1.65,0,0,0-1.56.89v6.73h-2.54V39.1Z"/>
          <path class="cls-4" d="M236.12,51.81l-1.33-.69.32-.57a4.61,4.61,0,0,0,.61-2.14v-2h2.14V48.2a4.51,4.51,0,0,1-.49,2A5,5,0,0,1,236.12,51.81Z"/>
          <path class="cls-4" d="M247.38,36.76V39.1H249V41h-1.63v4.75a1.14,1.14,0,0,0,.2.75,1,1,0,0,0,.78.23,4,4,0,0,0,.74-.06v1.92a5,5,0,0,1-1.54.23,2.43,2.43,0,0,1-2.72-2.7V41h-1.39V39.1h1.39V36.76Z"/>
          <path class="cls-4" d="M254.8,48.78a4.7,4.7,0,0,1-3.41-1.28,4.6,4.6,0,0,1-1.31-3.42v-.25a5.76,5.76,0,0,1,.55-2.56,4.08,4.08,0,0,1,1.57-1.74,4.39,4.39,0,0,1,2.32-.61,4,4,0,0,1,3.07,1.23,5,5,0,0,1,1.12,3.49v1h-6.06a2.35,2.35,0,0,0,.75,1.49,2.2,2.2,0,0,0,1.56.56,2.74,2.74,0,0,0,2.3-1.06l1.25,1.4A3.8,3.8,0,0,1,257,48.33,5.09,5.09,0,0,1,254.8,48.78ZM254.51,41a1.6,1.6,0,0,0-1.23.51,2.69,2.69,0,0,0-.6,1.47h3.53v-.21a1.9,1.9,0,0,0-.45-1.31A1.65,1.65,0,0,0,254.51,41Z"/>
          <path class="cls-4" d="M262.83,48.61h-2.55V35.11h2.55Z"/>
          <path class="cls-4" d="M267.6,48.61h-2.55V35.11h2.55Z"/>
          <path class="cls-4" d="M276.56,39.1l.08,1.06a3.32,3.32,0,0,1,2.73-1.24,2.52,2.52,0,0,1,2.52,1.45,3.27,3.27,0,0,1,2.86-1.45,2.83,2.83,0,0,1,2.3.9,4.11,4.11,0,0,1,.76,2.71v6.08h-2.55V42.54a1.81,1.81,0,0,0-.31-1.18,1.42,1.42,0,0,0-1.12-.37,1.58,1.58,0,0,0-1.58,1.09v6.53h-2.55V42.55a1.75,1.75,0,0,0-.32-1.19,1.41,1.41,0,0,0-1.11-.37,1.65,1.65,0,0,0-1.56.89v6.73h-2.54V39.1Z"/>
          <path class="cls-4" d="M294.14,48.78a4.7,4.7,0,0,1-3.41-1.28,4.6,4.6,0,0,1-1.31-3.42v-.25a5.76,5.76,0,0,1,.55-2.56,4.08,4.08,0,0,1,1.57-1.74,4.39,4.39,0,0,1,2.32-.61,4,4,0,0,1,3.07,1.23,5,5,0,0,1,1.12,3.49v1H292a2.35,2.35,0,0,0,.75,1.49,2.2,2.2,0,0,0,1.56.56,2.74,2.74,0,0,0,2.3-1.06l1.25,1.4a3.8,3.8,0,0,1-1.55,1.26A5.09,5.09,0,0,1,294.14,48.78ZM293.85,41a1.6,1.6,0,0,0-1.23.51A2.69,2.69,0,0,0,292,43h3.53v-.21a1.9,1.9,0,0,0-.45-1.31A1.65,1.65,0,0,0,293.85,41Z"/>
          <path class="cls-4" d="M179.57,62.15l.08,1.06A3.34,3.34,0,0,1,182.38,62a2.55,2.55,0,0,1,2.53,1.45A3.28,3.28,0,0,1,187.76,62a2.86,2.86,0,0,1,2.31.9,4.17,4.17,0,0,1,.75,2.71v6.08h-2.55V65.59a1.81,1.81,0,0,0-.31-1.18,1.4,1.4,0,0,0-1.12-.37,1.58,1.58,0,0,0-1.58,1.09v6.53h-2.54V65.6a1.75,1.75,0,0,0-.33-1.19,1.39,1.39,0,0,0-1.11-.37,1.65,1.65,0,0,0-1.56.89v6.73h-2.54V62.15Z"/>
          <path class="cls-4" d="M192.38,66.81a5.69,5.69,0,0,1,.54-2.52,4,4,0,0,1,1.57-1.71,4.53,4.53,0,0,1,2.38-.61A4.31,4.31,0,0,1,200,63.15a4.7,4.7,0,0,1,1.36,3.2l0,.65a5,5,0,0,1-1.22,3.51,4.75,4.75,0,0,1-6.57,0,5.06,5.06,0,0,1-1.22-3.58Zm2.54.18a3.57,3.57,0,0,0,.51,2.08,1.67,1.67,0,0,0,1.46.72,1.7,1.7,0,0,0,1.44-.71,4,4,0,0,0,.52-2.27,3.56,3.56,0,0,0-.52-2.06,1.68,1.68,0,0,0-1.46-.73,1.65,1.65,0,0,0-1.44.73A3.92,3.92,0,0,0,194.92,67Z"/>
          <path class="cls-4" d="M208.29,64.53a6.33,6.33,0,0,0-.91-.07,1.86,1.86,0,0,0-1.89,1v6.23H203V62.15h2.4l.07,1.13A2.36,2.36,0,0,1,207.54,62a2.56,2.56,0,0,1,.79.12Z"/>
          <path class="cls-4" d="M213.73,71.83a4.66,4.66,0,0,1-3.41-1.28A4.6,4.6,0,0,1,209,67.13v-.25a5.76,5.76,0,0,1,.55-2.56,4.08,4.08,0,0,1,1.57-1.74,4.49,4.49,0,0,1,2.32-.61,4,4,0,0,1,3.07,1.23,5,5,0,0,1,1.12,3.49v1h-6.06a2.31,2.31,0,0,0,.75,1.49,2.21,2.21,0,0,0,1.56.57,2.75,2.75,0,0,0,2.3-1.07l1.25,1.4a3.86,3.86,0,0,1-1.55,1.26A5.09,5.09,0,0,1,213.73,71.83ZM213.44,64a1.58,1.58,0,0,0-1.23.51,2.69,2.69,0,0,0-.6,1.47h3.53v-.21a1.9,1.9,0,0,0-.45-1.31A1.65,1.65,0,0,0,213.44,64Z"/>
          <path class="cls-4" d="M229.07,71.66a3,3,0,0,1-.25-.86,3.07,3.07,0,0,1-2.4,1A3.38,3.38,0,0,1,224.1,71a2.58,2.58,0,0,1-.92-2,2.69,2.69,0,0,1,1.12-2.32,5.49,5.49,0,0,1,3.24-.82h1.17V65.3a1.53,1.53,0,0,0-.34-1,1.3,1.3,0,0,0-1.06-.4,1.54,1.54,0,0,0-1,.31,1.06,1.06,0,0,0-.36.84h-2.55a2.56,2.56,0,0,1,.51-1.53,3.43,3.43,0,0,1,1.45-1.1,5.16,5.16,0,0,1,2.09-.4,4.2,4.2,0,0,1,2.79.88,3.1,3.1,0,0,1,1,2.49v4.12a4.58,4.58,0,0,0,.38,2.05v.15ZM227,69.89a2.16,2.16,0,0,0,1-.25,1.62,1.62,0,0,0,.7-.67V67.33h-1c-1.27,0-1.95.44-2,1.32v.15a1,1,0,0,0,.34.78A1.27,1.27,0,0,0,227,69.89Z"/>
          <path class="cls-4" d="M241.78,67a5.75,5.75,0,0,1-1,3.56,3.22,3.22,0,0,1-2.73,1.28,3,3,0,0,1-2.47-1.18l-.11,1h-2.29V58.16h2.54V63a2.89,2.89,0,0,1,2.31-1,3.27,3.27,0,0,1,2.73,1.28,5.75,5.75,0,0,1,1,3.6Zm-2.54-.18a3.82,3.82,0,0,0-.45-2.11,1.56,1.56,0,0,0-1.37-.66,1.68,1.68,0,0,0-1.67,1v3.75a1.7,1.7,0,0,0,1.69,1,1.58,1.58,0,0,0,1.62-1.22A6.33,6.33,0,0,0,239.24,66.81Z"/>
          <path class="cls-4" d="M243,66.81a5.56,5.56,0,0,1,.55-2.52,3.92,3.92,0,0,1,1.56-1.71,4.56,4.56,0,0,1,2.38-.61,4.31,4.31,0,0,1,3.14,1.18,4.66,4.66,0,0,1,1.36,3.2l0,.65a5,5,0,0,1-1.22,3.51,4.74,4.74,0,0,1-6.56,0A5,5,0,0,1,243,66.93Zm2.54.18a3.57,3.57,0,0,0,.51,2.08,1.83,1.83,0,0,0,2.9,0,3.88,3.88,0,0,0,.52-2.27,3.49,3.49,0,0,0-.52-2.06,1.68,1.68,0,0,0-1.46-.73,1.65,1.65,0,0,0-1.44.73A3.92,3.92,0,0,0,245.49,67Z"/>
          <path class="cls-4" d="M259.22,70.69a3.2,3.2,0,0,1-2.6,1.14,3,3,0,0,1-2.34-.88,3.75,3.75,0,0,1-.82-2.57V62.15H256V68.3c0,1,.45,1.49,1.36,1.49a1.82,1.82,0,0,0,1.77-.9V62.15h2.55v9.51h-2.39Z"/>
          <path class="cls-4" d="M266.64,59.81v2.34h1.62V64h-1.62v4.75a1.14,1.14,0,0,0,.2.75,1,1,0,0,0,.77.23,4.22,4.22,0,0,0,.75-.06V71.6a5,5,0,0,1-1.54.23,2.42,2.42,0,0,1-2.72-2.7V64h-1.39V62.15h1.39V59.81Z"/>
          <path class="cls-4" d="M277.71,68.06l1.76-5.91h2.72l-3.82,11-.21.5a2.9,2.9,0,0,1-2.81,1.87,4.08,4.08,0,0,1-1.13-.17V73.41h.39a2.18,2.18,0,0,0,1.08-.22,1.46,1.46,0,0,0,.55-.73l.3-.79-3.33-9.53H276Z"/>
          <path class="cls-4" d="M282.67,66.81a5.69,5.69,0,0,1,.54-2.52,4,4,0,0,1,1.57-1.71,4.53,4.53,0,0,1,2.38-.61,4.31,4.31,0,0,1,3.14,1.18,4.7,4.7,0,0,1,1.36,3.2l0,.65a5,5,0,0,1-1.22,3.51,4.75,4.75,0,0,1-6.57,0,5.06,5.06,0,0,1-1.22-3.58Zm2.54.18a3.57,3.57,0,0,0,.51,2.08,1.67,1.67,0,0,0,1.46.72,1.7,1.7,0,0,0,1.44-.71,4,4,0,0,0,.52-2.27,3.56,3.56,0,0,0-.52-2.06,1.68,1.68,0,0,0-1.46-.73,1.65,1.65,0,0,0-1.44.73A3.92,3.92,0,0,0,285.21,67Z"/>
          <path class="cls-4" d="M298.94,70.69a3.2,3.2,0,0,1-2.6,1.14A3,3,0,0,1,294,71a3.75,3.75,0,0,1-.82-2.57V62.15h2.54V68.3c0,1,.45,1.49,1.35,1.49a1.83,1.83,0,0,0,1.78-.9V62.15h2.55v9.51H299Z"/>
          <path class="cls-4" d="M313.31,71.66a3,3,0,0,1-.26-.86,3,3,0,0,1-2.4,1,3.36,3.36,0,0,1-2.31-.81,2.55,2.55,0,0,1-.92-2,2.67,2.67,0,0,1,1.12-2.32,5.49,5.49,0,0,1,3.24-.82H313V65.3a1.58,1.58,0,0,0-.34-1,1.32,1.32,0,0,0-1.07-.4,1.56,1.56,0,0,0-1,.31,1.06,1.06,0,0,0-.36.84h-2.54a2.56,2.56,0,0,1,.51-1.53,3.46,3.46,0,0,1,1.44-1.1,5.19,5.19,0,0,1,2.09-.4,4.2,4.2,0,0,1,2.79.88,3.1,3.1,0,0,1,1,2.49v4.12a4.6,4.6,0,0,0,.37,2.05v.15Zm-2.1-1.77a2.12,2.12,0,0,0,1-.25A1.71,1.71,0,0,0,313,69V67.33H312c-1.27,0-1.95.44-2,1.32v.15a1,1,0,0,0,.33.78A1.3,1.3,0,0,0,311.21,69.89Z"/>
          <path class="cls-4" d="M319.79,62.15l.07,1.1A3.34,3.34,0,0,1,322.6,62a2.76,2.76,0,0,1,2.25.89,4.14,4.14,0,0,1,.75,2.65v6.15h-2.54V65.58a1.65,1.65,0,0,0-.35-1.18,1.58,1.58,0,0,0-1.17-.36,1.75,1.75,0,0,0-1.61.91v6.71h-2.54V62.15Z"/>
          <path class="cls-4" d="M327.13,66.83a5.7,5.7,0,0,1,1-3.54A3.24,3.24,0,0,1,330.86,62a2.9,2.9,0,0,1,2.29,1V58.16h2.55v13.5h-2.29l-.12-1a3,3,0,0,1-2.45,1.18,3.21,3.21,0,0,1-2.69-1.32A5.9,5.9,0,0,1,327.13,66.83Zm2.54.19a3.74,3.74,0,0,0,.47,2,1.51,1.51,0,0,0,1.35.72,1.7,1.7,0,0,0,1.66-1V65a1.66,1.66,0,0,0-1.64-1C330.29,64,329.67,65,329.67,67Z"/>
          <path class="cls-4" d="M180.74,91.11l1.76-5.91h2.72l-3.82,11-.21.5a2.9,2.9,0,0,1-2.81,1.87,4.08,4.08,0,0,1-1.13-.17V96.46h.39a2.19,2.19,0,0,0,1.08-.21,1.46,1.46,0,0,0,.55-.73l.3-.79-3.33-9.53H179Z"/>
          <path class="cls-4" d="M185.7,89.86a5.69,5.69,0,0,1,.54-2.52,4,4,0,0,1,1.57-1.71,4.56,4.56,0,0,1,2.38-.61,4.31,4.31,0,0,1,3.14,1.18,4.7,4.7,0,0,1,1.36,3.2l0,.65a5,5,0,0,1-1.22,3.51,4.75,4.75,0,0,1-6.57,0A5.06,5.06,0,0,1,185.7,90Zm2.54.18a3.57,3.57,0,0,0,.51,2.08,1.67,1.67,0,0,0,1.46.71,1.69,1.69,0,0,0,1.44-.7,4,4,0,0,0,.52-2.27,3.56,3.56,0,0,0-.52-2.06,1.68,1.68,0,0,0-1.46-.73,1.65,1.65,0,0,0-1.44.73A3.92,3.92,0,0,0,188.24,90Z"/>
          <path class="cls-4" d="M202,93.74a3.2,3.2,0,0,1-2.6,1.14A3,3,0,0,1,197,94a3.75,3.75,0,0,1-.82-2.57V85.2h2.54v6.15c0,1,.45,1.48,1.35,1.48a1.83,1.83,0,0,0,1.78-.89V85.2h2.55v9.51H202Z"/>
          <path class="cls-4" d="M211.69,87.58a6.46,6.46,0,0,0-.92-.07,1.86,1.86,0,0,0-1.89,1v6.23h-2.54V85.2h2.4l.07,1.13A2.36,2.36,0,0,1,210.93,85a2.52,2.52,0,0,1,.79.12Z"/>
          <path class="cls-4" d="M222.54,92.08a.8.8,0,0,0-.46-.73,5.19,5.19,0,0,0-1.48-.48q-3.39-.72-3.39-2.89a2.62,2.62,0,0,1,1-2.11A4.19,4.19,0,0,1,221,85a4.61,4.61,0,0,1,2.9.85A2.71,2.71,0,0,1,225,88.09h-2.54a1.22,1.22,0,0,0-.36-.9,1.46,1.46,0,0,0-1.09-.36,1.57,1.57,0,0,0-1,.29.94.94,0,0,0-.35.74.77.77,0,0,0,.4.68,4.34,4.34,0,0,0,1.35.45,11.25,11.25,0,0,1,1.6.43A2.62,2.62,0,0,1,225,92a2.49,2.49,0,0,1-1.11,2.11,4.82,4.82,0,0,1-2.89.8,5.11,5.11,0,0,1-2.12-.42,3.62,3.62,0,0,1-1.45-1.17,2.68,2.68,0,0,1-.53-1.61h2.41a1.32,1.32,0,0,0,.5,1,2,2,0,0,0,1.25.36,1.81,1.81,0,0,0,1.1-.28A.84.84,0,0,0,222.54,92.08Z"/>
          <path class="cls-4" d="M229.69,82.86V85.2h1.62v1.86h-1.62v4.75a1.14,1.14,0,0,0,.2.75,1,1,0,0,0,.77.23,4.14,4.14,0,0,0,.75-.06v1.92a5,5,0,0,1-1.54.23,2.42,2.42,0,0,1-2.72-2.7V87.06h-1.39V85.2h1.39V82.86Z"/>
          <path class="cls-4" d="M238.42,93.74a3.17,3.17,0,0,1-2.6,1.14,3,3,0,0,1-2.33-.88,3.7,3.7,0,0,1-.82-2.57V85.2h2.54v6.15c0,1,.45,1.48,1.35,1.48a1.84,1.84,0,0,0,1.78-.89V85.2h2.54v9.51h-2.39Z"/>
          <path class="cls-4" d="M242.41,89.88a5.76,5.76,0,0,1,1-3.54A3.25,3.25,0,0,1,246.13,85a2.94,2.94,0,0,1,2.3,1V81.21H251v13.5h-2.29l-.12-1a3,3,0,0,1-2.44,1.18,3.24,3.24,0,0,1-2.7-1.32A5.9,5.9,0,0,1,242.41,89.88Zm2.54.19a3.75,3.75,0,0,0,.46,2.05,1.51,1.51,0,0,0,1.36.71,1.71,1.71,0,0,0,1.66-1V88.08a1.69,1.69,0,0,0-1.65-1C245.56,87.09,245,88.08,245,90.07Z"/>
          <path class="cls-4" d="M256.49,91.11l1.76-5.91H261l-3.83,11-.21.5a2.88,2.88,0,0,1-2.81,1.87,4,4,0,0,1-1.12-.17V96.46h.38a2.19,2.19,0,0,0,1.08-.21,1.48,1.48,0,0,0,.56-.73l.3-.79L252,85.2h2.74Z"/>
          <path class="cls-4" d="M275,90a5.68,5.68,0,0,1-1,3.52,3.19,3.19,0,0,1-2.69,1.32,3,3,0,0,1-2.33-1v4.48h-2.54V85.2h2.36l.08.93A3,3,0,0,1,271.31,85a3.25,3.25,0,0,1,2.74,1.3,5.87,5.87,0,0,1,1,3.59Zm-2.54-.18a3.68,3.68,0,0,0-.47-2,1.53,1.53,0,0,0-1.37-.72A1.66,1.66,0,0,0,269,88v3.89a1.69,1.69,0,0,0,1.66.94C271.88,92.83,272.48,91.84,272.48,89.86Z"/>
          <path class="cls-4" d="M279.28,94.71h-2.55V81.21h2.55Z"/>
          <path class="cls-4" d="M286.88,94.71a3,3,0,0,1-.26-.86,3,3,0,0,1-2.4,1,3.36,3.36,0,0,1-2.31-.81,2.58,2.58,0,0,1-.92-2,2.7,2.7,0,0,1,1.12-2.33,5.57,5.57,0,0,1,3.24-.81h1.17v-.55a1.53,1.53,0,0,0-.34-1,1.32,1.32,0,0,0-1.07-.4,1.46,1.46,0,0,0-1,.31,1,1,0,0,0-.37.84H281.2a2.56,2.56,0,0,1,.51-1.53,3.46,3.46,0,0,1,1.44-1.1,5.37,5.37,0,0,1,2.09-.4,4.12,4.12,0,0,1,2.79.89,3.07,3.07,0,0,1,1,2.48v4.12a4.45,4.45,0,0,0,.38,2v.15Zm-2.1-1.77a2.12,2.12,0,0,0,1-.25,1.65,1.65,0,0,0,.71-.67V90.38h-.95c-1.27,0-1.95.44-2,1.32v.15a1,1,0,0,0,.33.78A1.3,1.3,0,0,0,284.78,92.94Z"/>
          <path class="cls-4" d="M293.36,85.2l.08,1.1A3.32,3.32,0,0,1,296.17,85a2.76,2.76,0,0,1,2.25.89,4.14,4.14,0,0,1,.75,2.65v6.15h-2.54V88.62a1.64,1.64,0,0,0-.35-1.17,1.58,1.58,0,0,0-1.17-.36,1.73,1.73,0,0,0-1.6.91v6.71H291V85.2Z"/>
          <path class="cls-4" d="M306.25,92.08a.8.8,0,0,0-.46-.73,5.19,5.19,0,0,0-1.48-.48q-3.4-.72-3.4-2.89a2.62,2.62,0,0,1,1-2.11,4.24,4.24,0,0,1,2.75-.85,4.63,4.63,0,0,1,2.9.85,2.7,2.7,0,0,1,1.08,2.22h-2.54a1.21,1.21,0,0,0-.35-.9,1.47,1.47,0,0,0-1.1-.36,1.54,1.54,0,0,0-1,.29.91.91,0,0,0-.35.74.77.77,0,0,0,.4.68,4.16,4.16,0,0,0,1.35.45,11.63,11.63,0,0,1,1.6.43,2.62,2.62,0,0,1,2,2.55,2.48,2.48,0,0,1-1.12,2.11,4.77,4.77,0,0,1-2.88.8,5.08,5.08,0,0,1-2.12-.42,3.65,3.65,0,0,1-1.46-1.17,2.73,2.73,0,0,1-.52-1.61H303a1.33,1.33,0,0,0,.51,1,2,2,0,0,0,1.24.36,1.82,1.82,0,0,0,1.11-.28A.86.86,0,0,0,306.25,92.08Z"/>
          <path class="cls-4" d="M310.49,93.46a1.3,1.3,0,0,1,.4-1,1.48,1.48,0,0,1,1-.37,1.46,1.46,0,0,1,1,.37,1.3,1.3,0,0,1,.41,1,1.29,1.29,0,0,1-.4,1,1.47,1.47,0,0,1-1,.37,1.45,1.45,0,0,1-1-.37A1.25,1.25,0,0,1,310.49,93.46Z"/>
        </g>
      </g>
    </g>
  </g>
</svg>
