<?xml version="1.0" encoding="utf-8"?>
<!-- Generator: Adobe Illustrator 19.0.0, SVG Export Plug-In . SVG Version: 6.00 Build 0)  -->
<svg version="1.1" id="Layer_1" xmlns="http://www.w3.org/2000/svg" xmlns:xlink="http://www.w3.org/1999/xlink" x="0px" y="0px"
	 width="70px" height="70px" viewBox="-64 66 70 70" style="enable-background:new -64 66 70 70;" xml:space="preserve">
<style type="text/css">
	.st0{fill:#27524E;}
	.st1{fill:#3D635F;enable-background:new    ;}
	.st2{fill:#20423E;enable-background:new    ;}
	.st3{fill:#FFD365;stroke:#0F7A82;stroke-width:2.9794;stroke-miterlimit:10;}
	.st4{fill:#FEE4A7;enable-background:new    ;}
	.st5{fill:#D3B867;}
</style>
<circle id="XMLID_15008_" class="st0" cx="-29" cy="101" r="35"/>
<path id="XMLID_15005_" class="st0" d="M-29,69c-17.7,0-32,14.3-32,32s14.3,32,32,32s32-14.3,32-32S-11.3,69-29,69z M-9.1,113
	c-4,6.8-11.4,11.3-19.9,11.3s-15.9-4.5-20-11.3c-2.1-3.5-3.3-7.6-3.3-12c0-12.9,10.4-23.3,23.3-23.3S-5.7,88.1-5.7,101
	C-5.7,105.4-6.9,109.5-9.1,113z"/>
<path id="XMLID_15004_" class="st1" d="M-29,70.7C-15.6,70.7-3.9,76,2.6,86C-3,74.2-15,66-29,66s-26,8.2-31.6,20
	C-54.1,76-42.4,70.7-29,70.7z"/>
<path id="XMLID_15002_" class="st2" d="M-38.9,134.6L-38.9,134.6c3.1,0.9,6.5,1.4,9.9,1.4s6.8-0.5,9.9-1.4l0,0
	c10.4-3.1,18.8-10.9,22.7-21C-4,123.9-15.8,130.5-29,130.5s-25-6.6-32.6-16.9C-57.7,123.6-49.4,131.5-38.9,134.6z"/>
<path id="XMLID_15001_" class="st3" d="M-29,76c-13.8,0-25.1,11.2-25.1,25c0,4.7,1.3,9.2,3.6,12.9c4.4,7.3,12.3,12.1,21.5,12.1
	c9.1,0,17.1-4.9,21.5-12.1c2.3-3.8,3.6-8.2,3.6-12.9C-3.9,87.2-15.2,76-29,76z"/>
<path id="XMLID_14997_" class="st4" d="M-37.7,115.9c-2.3-4.3-3.6-9.4-3.6-14.8c0-8.5,3.3-16.1,8.4-21.4
	c-10.1,2.9-17.5,11.4-17.5,21.5c0,4.2,1.3,8.2,3.6,11.6c3.1,4.6,8,8.1,13.9,9.8C-34.8,120.6-36.4,118.4-37.7,115.9z"/>
<g id="XMLID_14017_">
	<g id="XMLID_14810_">
		<path id="XMLID_14996_" class="st5" d="M-45.3,100.7c0,0.6-0.5,1.1-1.1,1.1h-5c-0.6,0-1.1-0.5-1.1-1.1c0-0.6,0.5-1.1,1.1-1.1h5
			C-45.8,99.6-45.3,100.1-45.3,100.7z"/>
	</g>
	<g id="XMLID_14018_">
		<path id="XMLID_14019_" class="st5" d="M-6.4,100.7c0,0.6-0.5,1.1-1.1,1.1h-5c-0.6,0-1.1-0.5-1.1-1.1c0-0.6,0.5-1.1,1.1-1.1h5
			C-6.9,99.6-6.4,100.1-6.4,100.7z"/>
	</g>
</g>
<g id="XMLID_7377_">
	<g id="XMLID_14008_">
		<g id="XMLID_14014_">
			<path id="XMLID_14016_" class="st5" d="M-13.5,91.5c-0.2-0.3-0.1-0.8,0.3-1l2.8-1.6c0.3-0.2,0.8-0.1,1,0.3c0.2,0.3,0.1,0.8-0.3,1
				l-2.8,1.6C-12.8,92-13.3,91.9-13.5,91.5z"/>
		</g>
		<g id="XMLID_14009_">
			<path id="XMLID_14013_" class="st5" d="M-49.4,112.3c-0.2-0.3-0.1-0.8,0.3-1l2.8-1.6c0.3-0.2,0.8-0.1,1,0.3
				c0.2,0.3,0.1,0.8-0.3,1l-2.8,1.6C-48.8,112.7-49.2,112.6-49.4,112.3z"/>
		</g>
	</g>
	<g id="XMLID_7378_">
		<g id="XMLID_14005_">
			<path id="XMLID_14007_" class="st5" d="M-38.6,84.8c-0.3,0.2-0.8,0.1-1-0.3l-1.6-2.8c-0.2-0.3-0.1-0.8,0.3-1
				c0.3-0.2,0.8-0.1,1,0.3l1.6,2.8C-38.2,84.2-38.3,84.6-38.6,84.8z"/>
		</g>
		<g id="XMLID_7379_">
			<path id="XMLID_7380_" class="st5" d="M-17.9,120.7c-0.3,0.2-0.8,0.1-1-0.3l-1.6-2.8c-0.2-0.3-0.1-0.8,0.3-1
				c0.3-0.2,0.8-0.1,1,0.3l1.6,2.8C-17.4,120.1-17.6,120.5-17.9,120.7z"/>
		</g>
	</g>
</g>
<g id="XMLID_325_">
	<g id="XMLID_7372_">
		<g id="XMLID_7375_">
			<path id="XMLID_7376_" class="st5" d="M-20.2,84.8c-0.3-0.2-0.5-0.6-0.3-1l1.6-2.8c0.2-0.3,0.6-0.5,1-0.3c0.3,0.2,0.5,0.6,0.3,1
				l-1.6,2.8C-19.4,84.9-19.9,85-20.2,84.8z"/>
		</g>
		<g id="XMLID_7373_">
			<path id="XMLID_7374_" class="st5" d="M-41,120.7c-0.3-0.2-0.5-0.6-0.3-1l1.6-2.8c0.2-0.3,0.6-0.5,1-0.3c0.3,0.2,0.5,0.6,0.3,1
				l-1.6,2.8C-40.2,120.8-40.6,120.9-41,120.7z"/>
		</g>
	</g>
	<g id="XMLID_326_">
		<g id="XMLID_952_">
			<path id="XMLID_954_" class="st5" d="M-45.4,91.5c-0.2,0.3-0.6,0.5-1,0.3l-2.8-1.6c-0.3-0.2-0.5-0.6-0.3-1c0.2-0.3,0.6-0.5,1-0.3
				l2.8,1.6C-45.3,90.8-45.2,91.2-45.4,91.5z"/>
		</g>
		<g id="XMLID_329_">
			<path id="XMLID_330_" class="st5" d="M-9.5,112.3c-0.2,0.3-0.6,0.5-1,0.3l-2.8-1.6c-0.3-0.2-0.5-0.6-0.3-1c0.2-0.3,0.6-0.5,1-0.3
				l2.8,1.6C-9.4,111.5-9.3,111.9-9.5,112.3z"/>
		</g>
	</g>
</g>
<g id="XMLID_320_">
	<path id="XMLID_321_" class="st5" d="M-29.4,84.9c-0.6,0-1.1-0.5-1.1-1.1v-5c0-0.6,0.5-1.1,1.1-1.1s1.1,0.5,1.1,1.1v5
		C-28.3,84.4-28.8,84.9-29.4,84.9z"/>
</g>
<g id="XMLID_317_">
	<path id="XMLID_319_" class="st5" d="M-29.4,123.8c-0.6,0-1.1-0.5-1.1-1.1v-5c0-0.6,0.5-1.1,1.1-1.1s1.1,0.5,1.1,1.1v5
		C-28.3,123.3-28.8,123.8-29.4,123.8z"/>
</g>
</svg>
