<?xml version="1.0" encoding="utf-8"?>
<!-- Generator: Adobe Illustrator 19.0.0, SVG Export Plug-In . SVG Version: 6.00 Build 0)  -->
<svg version="1.1" id="Layer_1" xmlns="http://www.w3.org/2000/svg" xmlns:xlink="http://www.w3.org/1999/xlink" x="0px" y="0px"
	 viewBox="0 0 48.2 48.6" style="enable-background:new 0 0 48.2 48.6;" xml:space="preserve">
<style type="text/css">
	.st0{fill:#70BBC0;}
	.st1{fill-rule:evenodd;clip-rule:evenodd;fill:#0F7A82;}
	.st2{fill:#27524E;}
	.st3{fill:#FFD365;}
	.st4{opacity:0.4;}
	.st5{fill-rule:evenodd;clip-rule:evenodd;fill:#FFFFFF;}
</style>
<g id="XMLID_7997_">
	<g id="cog1">
		<g id="XMLID_1527_">
			<g id="XMLID_1532_">
				<path id="XMLID_1542_" class="st0" d="M44.9,22.4l3.4-1.6l-0.9-3.9l-3.7,0L42,13.6l2.4-2.9l-2.5-3.1l-3.3,1.7l-2.9-2.3l0.9-3.6
					l-3.6-1.7l-2.3,2.9l-3.6-0.8L26.1,0h-4l-0.8,3.6l-3.6,0.8l-2.3-2.9l-3.6,1.7l0.9,3.6L9.7,9.2L6.4,7.6l-2.5,3.1l2.4,2.9L4.6,17
					l-3.7,0L0,20.8l3.4,1.6v3.7L0,27.7l0.9,3.9l3.7,0L6.2,35l-2.4,2.9L6.4,41l3.3-1.7l2.9,2.3l-0.9,3.6l3.6,1.7l2.3-2.9l3.6,0.8
					l0.8,3.6h4l0.8-3.6l3.6-0.8l2.3,2.9l3.6-1.7l-0.9-3.6l2.9-2.3l3.3,1.7l2.5-3.1L42,35l1.6-3.4l3.7,0l0.9-3.9l-3.4-1.6V22.4z
					 M24.1,43.2c-10.4,0-18.9-8.5-18.9-18.9S13.7,5.4,24.1,5.4S43,13.8,43,24.3S34.6,43.2,24.1,43.2z"/>
				<path id="XMLID_1539_" class="st1" d="M24.1,5.4c-10.4,0-18.9,8.5-18.9,18.9s8.5,18.9,18.9,18.9S43,34.7,43,24.3
					S34.6,5.4,24.1,5.4z M24.1,41.3c-9.4,0-17-7.6-17-17s7.6-17,17-17s17,7.6,17,17S33.5,41.3,24.1,41.3z"/>
				<path id="XMLID_1536_" class="st2" d="M24.1,7.2c-9.4,0-17,7.6-17,17s7.6,17,17,17s17-7.6,17-17S33.5,7.2,24.1,7.2z M24.1,37.5
					c-7.3,0-13.2-5.9-13.2-13.2s5.9-13.2,13.2-13.2S37.3,17,37.3,24.3S31.4,37.5,24.1,37.5z"/>
				<path id="XMLID_1533_" class="st3" d="M24.1,11.1c-7.3,0-13.2,5.9-13.2,13.2s5.9,13.2,13.2,13.2s13.2-5.9,13.2-13.2
					S31.4,11.1,24.1,11.1z M32.7,25.5l-0.3,1.4l-1.3,0l-0.6,1.2l0.8,1l-0.9,1.1l-1.2-0.6l-1,0.8l0.3,1.3l-1.3,0.6l-0.8-1l-1.3,0.3
					L24.8,33h-1.4l-0.3-1.3l-1.3-0.3l-0.8,1l-1.3-0.6l0.3-1.3l-1-0.8l-1.2,0.6l-0.9-1.1l0.8-1l-0.6-1.2l-1.3,0l-0.3-1.4l1.2-0.6
					v-1.3L15.5,23l0.3-1.4l1.3,0l0.6-1.2l-0.8-1l0.9-1.1l1.2,0.6l1-0.8l-0.3-1.3l1.3-0.6l0.8,1l1.3-0.3l0.3-1.3h1.4l0.3,1.3l1.3,0.3
					l0.8-1l1.3,0.6l-0.3,1.3l1,0.8l1.2-0.6l0.9,1.1l-0.8,1l0.6,1.2l1.3,0l0.3,1.4l-1.2,0.6v1.3L32.7,25.5z"/>
			</g>
			<g id="XMLID_1528_" class="st4">
				<polygon id="XMLID_1531_" class="st5" points="14.8,3.2 17.2,6.1 21.1,5.3 22,1.7 26.3,1.7 27.1,5.3 31,6.1 33.4,3.2 36.2,4.4 
					36.5,3.3 32.8,1.5 30.5,4.5 26.9,3.6 26.1,0 22.1,0 21.3,3.6 17.7,4.5 15.4,1.5 11.8,3.3 12.1,4.4 				"/>
				<polygon id="XMLID_1530_" class="st5" points="5.2,9.2 8.7,10.9 11.8,8.6 11.6,7.7 9.7,9.2 6.4,7.6 3.9,10.7 3.9,10.7 				"/>
				<polygon id="XMLID_1529_" class="st5" points="36.4,8.6 39.5,10.9 43.1,9.2 44.3,10.7 44.4,10.7 41.8,7.6 38.5,9.2 36.6,7.7 
									"/>
			</g>
		</g>
	</g>
</g>
</svg>
