<?xml version="1.0" encoding="utf-8"?>
<!-- Generator: Adobe Illustrator 19.0.0, SVG Export Plug-In . SVG Version: 6.00 Build 0)  -->
<svg version="1.1" id="Layer_1" xmlns="http://www.w3.org/2000/svg" xmlns:xlink="http://www.w3.org/1999/xlink" x="0px" y="0px"
	 viewBox="0 0 561.6 48.6" style="enable-background:new 0 0 561.6 48.6;" xml:space="preserve">
<style type="text/css">
	.st0{fill:#70BBC0;}
	.st1{fill-rule:evenodd;clip-rule:evenodd;fill:#0F7A82;}
	.st2{fill:#27524E;}
	.st3{fill:#FFD365;}
	.st4{opacity:0.4;}
	.st5{fill-rule:evenodd;clip-rule:evenodd;fill:#FFFFFF;}
</style>
<g id="XMLID_7997_">
	<g id="cog11">
		<g id="XMLID_1473_">
			<g id="XMLID_1479_">
				<path id="XMLID_1495_" class="st0" d="M44.9,22.4l3.4-1.6l-0.9-3.9l-3.7,0L42,13.6l2.4-2.9l-2.5-3.1l-3.3,1.7l-2.9-2.3l0.9-3.6
					l-3.6-1.7l-2.3,2.9l-3.6-0.8L26.1,0h-4l-0.8,3.6l-3.6,0.8l-2.3-2.9l-3.6,1.7l0.9,3.6L9.7,9.2L6.4,7.6l-2.5,3.1l2.4,2.9L4.6,17
					l-3.7,0L0,20.8l3.4,1.6v3.7L0,27.7l0.9,3.9l3.7,0L6.2,35l-2.4,2.9L6.4,41l3.3-1.7l2.9,2.3l-0.9,3.6l3.6,1.7l2.3-2.9l3.6,0.8
					l0.8,3.6h4l0.8-3.6l3.6-0.8l2.3,2.9l3.6-1.7l-0.9-3.6l2.9-2.3l3.3,1.7l2.5-3.1L42,35l1.6-3.4l3.7,0l0.9-3.9l-3.4-1.6V22.4z
					 M24.1,43.2c-10.4,0-18.9-8.5-18.9-18.9S13.7,5.4,24.1,5.4S43,13.8,43,24.3S34.6,43.2,24.1,43.2z"/>
				<path id="XMLID_1490_" class="st1" d="M24.1,5.4c-10.4,0-18.9,8.5-18.9,18.9s8.5,18.9,18.9,18.9S43,34.7,43,24.3
					S34.6,5.4,24.1,5.4z M24.1,41.3c-9.4,0-17-7.6-17-17s7.6-17,17-17s17,7.6,17,17S33.5,41.3,24.1,41.3z"/>
				<path id="XMLID_1483_" class="st2" d="M24.1,7.2c-9.4,0-17,7.6-17,17s7.6,17,17,17s17-7.6,17-17S33.5,7.2,24.1,7.2z M24.1,37.5
					c-7.3,0-13.2-5.9-13.2-13.2s5.9-13.2,13.2-13.2S37.3,17,37.3,24.3S31.4,37.5,24.1,37.5z"/>
				<path id="XMLID_1480_" class="st3" d="M24.1,11.1c-7.3,0-13.2,5.9-13.2,13.2s5.9,13.2,13.2,13.2s13.2-5.9,13.2-13.2
					S31.4,11.1,24.1,11.1z M32.7,25.5l-0.3,1.4l-1.3,0l-0.6,1.2l0.8,1l-0.9,1.1l-1.2-0.6l-1,0.8l0.3,1.3l-1.3,0.6l-0.8-1l-1.3,0.3
					L24.8,33h-1.4l-0.3-1.3l-1.3-0.3l-0.8,1l-1.3-0.6l0.3-1.3l-1-0.8l-1.2,0.6l-0.9-1.1l0.8-1l-0.6-1.2l-1.3,0l-0.3-1.4l1.2-0.6
					v-1.3L15.5,23l0.3-1.4l1.3,0l0.6-1.2l-0.8-1l0.9-1.1l1.2,0.6l1-0.8l-0.3-1.3l1.3-0.6l0.8,1l1.3-0.3l0.3-1.3h1.4l0.3,1.3l1.3,0.3
					l0.8-1l1.3,0.6l-0.3,1.3l1,0.8l1.2-0.6l0.9,1.1l-0.8,1l0.6,1.2l1.3,0l0.3,1.4l-1.2,0.6v1.3L32.7,25.5z"/>
			</g>
			<g id="XMLID_1475_" class="st4">
				<polygon id="XMLID_1478_" class="st5" points="14.8,3.2 17.2,6.1 21.1,5.3 22,1.7 26.3,1.7 27.1,5.3 31,6.1 33.4,3.2 36.2,4.4 
					36.5,3.3 32.8,1.5 30.5,4.5 26.9,3.6 26.1,0 22.1,0 21.3,3.6 17.7,4.5 15.4,1.5 11.8,3.3 12.1,4.4 				"/>
				<polygon id="XMLID_1477_" class="st5" points="5.2,9.2 8.7,10.9 11.8,8.6 11.6,7.7 9.7,9.2 6.4,7.6 3.9,10.7 3.9,10.7 				"/>
				<polygon id="XMLID_1476_" class="st5" points="36.4,8.6 39.5,10.9 43.1,9.2 44.3,10.7 44.4,10.7 41.8,7.6 38.5,9.2 36.6,7.7 
									"/>
			</g>
		</g>
	</g>
	<g id="cog10">
		<g id="XMLID_541_">
			<g id="XMLID_546_">
				<path id="XMLID_554_" class="st0" d="M96.2,22.4l3.4-1.6l-0.9-3.9l-3.7,0l-1.6-3.4l2.4-2.9l-2.5-3.1l-3.3,1.7l-2.9-2.3l0.9-3.6
					l-3.6-1.7l-2.3,2.9l-3.6-0.8L77.5,0h-4l-0.8,3.6L69,4.5l-2.3-2.9l-3.6,1.7L64,6.9l-2.9,2.3l-3.3-1.7l-2.5,3.1l2.4,2.9L56,17
					l-3.7,0l-0.9,3.9l3.4,1.6v3.7l-3.4,1.6l0.9,3.9l3.7,0l1.6,3.4l-2.4,2.9l2.5,3.1l3.3-1.7l2.9,2.3l-0.9,3.6l3.6,1.7l2.3-2.9
					l3.6,0.8l0.8,3.6h4l0.8-3.6l3.6-0.8l2.3,2.9l3.6-1.7l-0.9-3.6l2.9-2.3l3.3,1.7l2.5-3.1L93.3,35l1.6-3.4l3.7,0l0.9-3.9l-3.4-1.6
					V22.4z M75.5,43.2c-10.4,0-18.9-8.5-18.9-18.9S65,5.4,75.5,5.4s18.9,8.5,18.9,18.9S85.9,43.2,75.5,43.2z"/>
				<path id="XMLID_553_" class="st1" d="M75.5,5.4c-10.4,0-18.9,8.5-18.9,18.9S65,43.2,75.5,43.2s18.9-8.5,18.9-18.9
					S85.9,5.4,75.5,5.4z M75.5,41.3c-9.4,0-17-7.6-17-17s7.6-17,17-17s17,7.6,17,17S84.9,41.3,75.5,41.3z"/>
				<path id="XMLID_550_" class="st2" d="M75.5,7.2c-9.4,0-17,7.6-17,17s7.6,17,17,17s17-7.6,17-17S84.9,7.2,75.5,7.2z M75.5,37.5
					c-7.3,0-13.2-5.9-13.2-13.2s5.9-13.2,13.2-13.2S88.7,17,88.7,24.3S82.8,37.5,75.5,37.5z"/>
				<path id="XMLID_547_" class="st3" d="M75.5,11.1c-7.3,0-13.2,5.9-13.2,13.2s5.9,13.2,13.2,13.2s13.2-5.9,13.2-13.2
					S82.8,11.1,75.5,11.1z M84.1,25.5l-0.3,1.4l-1.3,0l-0.6,1.2l0.8,1l-0.9,1.1l-1.2-0.6l-1,0.8l0.3,1.3l-1.3,0.6l-0.8-1l-1.3,0.3
					L76.2,33h-1.4l-0.3-1.3l-1.3-0.3l-0.8,1L71,31.8l0.3-1.3l-1-0.8l-1.2,0.6l-0.9-1.1l0.8-1l-0.6-1.2l-1.3,0l-0.3-1.4l1.2-0.6v-1.3
					L66.8,23l0.3-1.4l1.3,0l0.6-1.2l-0.8-1l0.9-1.1l1.2,0.6l1-0.8L71,16.8l1.3-0.6l0.8,1l1.3-0.3l0.3-1.3h1.4l0.3,1.3l1.3,0.3l0.8-1
					l1.3,0.6l-0.3,1.3l1,0.8l1.2-0.6l0.9,1.1l-0.8,1l0.6,1.2l1.3,0l0.3,1.4l-1.2,0.6v1.3L84.1,25.5z"/>
			</g>
			<g id="XMLID_542_" class="st4">
				<polygon id="XMLID_545_" class="st5" points="66.1,3.2 68.6,6.1 72.5,5.3 73.3,1.7 77.6,1.7 78.4,5.3 82.3,6.1 84.8,3.2 
					87.5,4.4 87.8,3.3 84.2,1.5 81.9,4.5 78.3,3.6 77.5,0 73.4,0 72.7,3.6 69,4.5 66.7,1.5 63.1,3.3 63.4,4.4 				"/>
				<polygon id="XMLID_544_" class="st5" points="56.5,9.2 60.1,10.9 63.2,8.6 63,7.7 61.1,9.2 57.7,7.6 55.2,10.7 55.2,10.7 				
					"/>
				<polygon id="XMLID_543_" class="st5" points="87.7,8.6 90.8,10.9 94.4,9.2 95.7,10.7 95.7,10.7 93.2,7.6 89.8,9.2 87.9,7.7 				
					"/>
			</g>
		</g>
	</g>
	<g id="cog9">
		<g id="XMLID_522_">
			<g id="XMLID_527_">
				<path id="XMLID_537_" class="st0" d="M147.5,22.4l3.4-1.6l-0.9-3.9l-3.7,0l-1.6-3.4l2.4-2.9l-2.5-3.1l-3.3,1.7l-2.9-2.3l0.9-3.6
					l-3.6-1.7l-2.3,2.9l-3.6-0.8L128.8,0h-4L124,3.6l-3.6,0.8l-2.3-2.9l-3.6,1.7l0.9,3.6l-2.9,2.3l-3.3-1.7l-2.5,3.1l2.4,2.9
					l-1.6,3.4l-3.7,0l-0.9,3.9l3.4,1.6v3.7l-3.4,1.6l0.9,3.9l3.7,0l1.6,3.4l-2.4,2.9l2.5,3.1l3.3-1.7l2.9,2.3l-0.9,3.6l3.6,1.7
					l2.3-2.9l3.6,0.8l0.8,3.6h4l0.8-3.6l3.6-0.8l2.3,2.9l3.6-1.7l-0.9-3.6l2.9-2.3l3.3,1.7l2.5-3.1l-2.4-2.9l1.6-3.4l3.7,0l0.9-3.9
					l-3.4-1.6V22.4z M126.8,43.2c-10.4,0-18.9-8.5-18.9-18.9s8.5-18.9,18.9-18.9s18.9,8.5,18.9,18.9S137.2,43.2,126.8,43.2z"/>
				<path id="XMLID_534_" class="st1" d="M126.8,5.4c-10.4,0-18.9,8.5-18.9,18.9s8.5,18.9,18.9,18.9s18.9-8.5,18.9-18.9
					S137.2,5.4,126.8,5.4z M126.8,41.3c-9.4,0-17-7.6-17-17s7.6-17,17-17s17,7.6,17,17S136.2,41.3,126.8,41.3z"/>
				<path id="XMLID_531_" class="st2" d="M126.8,7.2c-9.4,0-17,7.6-17,17s7.6,17,17,17s17-7.6,17-17S136.2,7.2,126.8,7.2z
					 M126.8,37.5c-7.3,0-13.2-5.9-13.2-13.2s5.9-13.2,13.2-13.2c7.3,0,13.2,5.9,13.2,13.2S134.1,37.5,126.8,37.5z"/>
				<path id="XMLID_528_" class="st3" d="M126.8,11.1c-7.3,0-13.2,5.9-13.2,13.2s5.9,13.2,13.2,13.2c7.3,0,13.2-5.9,13.2-13.2
					S134.1,11.1,126.8,11.1z M135.4,25.5l-0.3,1.4l-1.3,0l-0.6,1.2l0.8,1l-0.9,1.1l-1.2-0.6l-1,0.8l0.3,1.3l-1.3,0.6l-0.8-1
					l-1.3,0.3l-0.3,1.3h-1.4l-0.3-1.3l-1.3-0.3l-0.8,1l-1.3-0.6l0.3-1.3l-1-0.8l-1.2,0.6l-0.9-1.1l0.8-1l-0.6-1.2l-1.3,0l-0.3-1.4
					l1.2-0.6v-1.3l-1.2-0.6l0.3-1.4l1.3,0l0.6-1.2l-0.8-1l0.9-1.1l1.2,0.6l1-0.8l-0.3-1.3l1.3-0.6l0.8,1l1.3-0.3l0.3-1.3h1.4
					l0.3,1.3l1.3,0.3l0.8-1l1.3,0.6l-0.3,1.3l1,0.8l1.2-0.6l0.9,1.1l-0.8,1l0.6,1.2l1.3,0l0.3,1.4l-1.2,0.6v1.3L135.4,25.5z"/>
			</g>
			<g id="XMLID_523_" class="st4">
				<polygon id="XMLID_526_" class="st5" points="117.5,3.2 119.9,6.1 123.8,5.3 124.6,1.7 128.9,1.7 129.8,5.3 133.7,6.1 
					136.1,3.2 138.9,4.4 139.1,3.3 135.5,1.5 133.2,4.5 129.6,3.6 128.8,0 124.8,0 124,3.6 120.4,4.5 118.1,1.5 114.4,3.3 
					114.7,4.4 				"/>
				<polygon id="XMLID_525_" class="st5" points="107.8,9.2 111.4,10.9 114.5,8.6 114.3,7.7 112.4,9.2 109.1,7.6 106.6,10.7 
					106.6,10.7 				"/>
				<polygon id="XMLID_524_" class="st5" points="139.1,8.6 142.2,10.9 145.7,9.2 147,10.7 147,10.7 144.5,7.6 141.2,9.2 139.3,7.7 
									"/>
			</g>
		</g>
	</g>
	<g id="cog8">
		<g id="XMLID_503_">
			<g id="XMLID_508_">
				<path id="XMLID_518_" class="st0" d="M198.9,22.4l3.4-1.6l-0.9-3.9l-3.7,0l-1.6-3.4l2.4-2.9l-2.5-3.1l-3.3,1.7l-2.9-2.3l0.9-3.6
					l-3.6-1.7l-2.3,2.9l-3.6-0.8L180.1,0h-4l-0.8,3.6l-3.6,0.8l-2.3-2.9l-3.6,1.7l0.9,3.6l-2.9,2.3l-3.3-1.7l-2.5,3.1l2.4,2.9
					l-1.6,3.4l-3.7,0l-0.9,3.9l3.4,1.6v3.7l-3.4,1.6l0.9,3.9l3.7,0l1.6,3.4l-2.4,2.9l2.5,3.1l3.3-1.7l2.9,2.3l-0.9,3.6l3.6,1.7
					l2.3-2.9l3.6,0.8l0.8,3.6h4l0.8-3.6l3.6-0.8l2.3,2.9l3.6-1.7l-0.9-3.6l2.9-2.3l3.3,1.7l2.5-3.1L196,35l1.6-3.4l3.7,0l0.9-3.9
					l-3.4-1.6V22.4z M178.1,43.2c-10.4,0-18.9-8.5-18.9-18.9s8.5-18.9,18.9-18.9c10.4,0,18.9,8.5,18.9,18.9S188.6,43.2,178.1,43.2z"
					/>
				<path id="XMLID_515_" class="st1" d="M178.1,5.4c-10.4,0-18.9,8.5-18.9,18.9s8.5,18.9,18.9,18.9c10.4,0,18.9-8.5,18.9-18.9
					S188.6,5.4,178.1,5.4z M178.1,41.3c-9.4,0-17-7.6-17-17s7.6-17,17-17c9.4,0,17,7.6,17,17S187.5,41.3,178.1,41.3z"/>
				<path id="XMLID_512_" class="st2" d="M178.1,7.2c-9.4,0-17,7.6-17,17s7.6,17,17,17c9.4,0,17-7.6,17-17S187.5,7.2,178.1,7.2z
					 M178.1,37.5c-7.3,0-13.2-5.9-13.2-13.2s5.9-13.2,13.2-13.2s13.2,5.9,13.2,13.2S185.4,37.5,178.1,37.5z"/>
				<path id="XMLID_509_" class="st3" d="M178.1,11.1c-7.3,0-13.2,5.9-13.2,13.2s5.9,13.2,13.2,13.2s13.2-5.9,13.2-13.2
					S185.4,11.1,178.1,11.1z M186.7,25.5l-0.3,1.4l-1.3,0l-0.6,1.2l0.8,1l-0.9,1.1l-1.2-0.6l-1,0.8l0.3,1.3l-1.3,0.6l-0.8-1
					l-1.3,0.3l-0.3,1.3h-1.4l-0.3-1.3l-1.3-0.3l-0.8,1l-1.3-0.6l0.3-1.3l-1-0.8l-1.2,0.6l-0.9-1.1l0.8-1l-0.6-1.2l-1.3,0l-0.3-1.4
					l1.2-0.6v-1.3l-1.2-0.6l0.3-1.4l1.3,0l0.6-1.2l-0.8-1l0.9-1.1l1.2,0.6l1-0.8l-0.3-1.3l1.3-0.6l0.8,1l1.3-0.3l0.3-1.3h1.4
					l0.3,1.3l1.3,0.3l0.8-1l1.3,0.6l-0.3,1.3l1,0.8l1.2-0.6l0.9,1.1l-0.8,1l0.6,1.2l1.3,0l0.3,1.4l-1.2,0.6v1.3L186.7,25.5z"/>
			</g>
			<g id="XMLID_504_" class="st4">
				<polygon id="XMLID_507_" class="st5" points="168.8,3.2 171.2,6.1 175.1,5.3 176,1.7 180.3,1.7 181.1,5.3 185,6.1 187.5,3.2 
					190.2,4.4 190.5,3.3 186.8,1.5 184.6,4.5 180.9,3.6 180.1,0 176.1,0 175.3,3.6 171.7,4.5 169.4,1.5 165.8,3.3 166.1,4.4 				"/>
				<polygon id="XMLID_506_" class="st5" points="159.2,9.2 162.7,10.9 165.9,8.6 165.6,7.7 163.7,9.2 160.4,7.6 157.9,10.7 
					157.9,10.7 				"/>
				<polygon id="XMLID_505_" class="st5" points="190.4,8.6 193.5,10.9 197.1,9.2 198.4,10.7 198.4,10.7 195.9,7.6 192.5,9.2 
					190.6,7.7 				"/>
			</g>
		</g>
	</g>
	<g id="cog7">
		<g id="XMLID_484_">
			<g id="XMLID_489_">
				<path id="XMLID_499_" class="st0" d="M250.2,22.4l3.4-1.6l-0.9-3.9l-3.7,0l-1.6-3.4l2.4-2.9l-2.5-3.1l-3.3,1.7l-2.9-2.3l0.9-3.6
					l-3.6-1.7l-2.3,2.9l-3.6-0.8L231.5,0h-4l-0.8,3.6L223,4.5l-2.3-2.9l-3.6,1.7l0.9,3.6l-2.9,2.3l-3.3-1.7l-2.5,3.1l2.4,2.9L210,17
					l-3.7,0l-0.9,3.9l3.4,1.6v3.7l-3.4,1.6l0.9,3.9l3.7,0l1.6,3.4l-2.4,2.9l2.5,3.1l3.3-1.7l2.9,2.3l-0.9,3.6l3.6,1.7l2.3-2.9
					l3.6,0.8l0.8,3.6h4l0.8-3.6l3.6-0.8l2.3,2.9l3.6-1.7l-0.9-3.6l2.9-2.3l3.3,1.7l2.5-3.1l-2.4-2.9l1.6-3.4l3.7,0l0.9-3.9l-3.4-1.6
					V22.4z M229.5,43.2c-10.4,0-18.9-8.5-18.9-18.9S219,5.4,229.5,5.4s18.9,8.5,18.9,18.9S239.9,43.2,229.5,43.2z"/>
				<path id="XMLID_496_" class="st1" d="M229.5,5.4c-10.4,0-18.9,8.5-18.9,18.9s8.5,18.9,18.9,18.9s18.9-8.5,18.9-18.9
					S239.9,5.4,229.5,5.4z M229.5,41.3c-9.4,0-17-7.6-17-17s7.6-17,17-17c9.4,0,17,7.6,17,17S238.9,41.3,229.5,41.3z"/>
				<path id="XMLID_493_" class="st2" d="M229.5,7.2c-9.4,0-17,7.6-17,17s7.6,17,17,17c9.4,0,17-7.6,17-17S238.9,7.2,229.5,7.2z
					 M229.5,37.5c-7.3,0-13.2-5.9-13.2-13.2s5.9-13.2,13.2-13.2s13.2,5.9,13.2,13.2S236.8,37.5,229.5,37.5z"/>
				<path id="XMLID_490_" class="st3" d="M229.5,11.1c-7.3,0-13.2,5.9-13.2,13.2s5.9,13.2,13.2,13.2s13.2-5.9,13.2-13.2
					S236.8,11.1,229.5,11.1z M238.1,25.5l-0.3,1.4l-1.3,0l-0.6,1.2l0.8,1l-0.9,1.1l-1.2-0.6l-1,0.8l0.3,1.3l-1.3,0.6l-0.8-1
					l-1.3,0.3l-0.3,1.3h-1.4l-0.3-1.3l-1.3-0.3l-0.8,1l-1.3-0.6l0.3-1.3l-1-0.8l-1.2,0.6l-0.9-1.1l0.8-1l-0.6-1.2l-1.3,0l-0.3-1.4
					l1.2-0.6v-1.3l-1.2-0.6l0.3-1.4l1.3,0l0.6-1.2l-0.8-1l0.9-1.1l1.2,0.6l1-0.8l-0.3-1.3l1.3-0.6l0.8,1l1.3-0.3l0.3-1.3h1.4
					l0.3,1.3l1.3,0.3l0.8-1l1.3,0.6l-0.3,1.3l1,0.8l1.2-0.6l0.9,1.1l-0.8,1l0.6,1.2l1.3,0l0.3,1.4l-1.2,0.6v1.3L238.1,25.5z"/>
			</g>
			<g id="XMLID_485_" class="st4">
				<polygon id="XMLID_488_" class="st5" points="220.1,3.2 222.6,6.1 226.5,5.3 227.3,1.7 231.6,1.7 232.5,5.3 236.3,6.1 
					238.8,3.2 241.5,4.4 241.8,3.3 238.2,1.5 235.9,4.5 232.3,3.6 231.5,0 227.5,0 226.7,3.6 223,4.5 220.7,1.5 217.1,3.3 
					217.4,4.4 				"/>
				<polygon id="XMLID_487_" class="st5" points="210.5,9.2 214.1,10.9 217.2,8.6 217,7.7 215.1,9.2 211.7,7.6 209.2,10.7 
					209.2,10.7 				"/>
				<polygon id="XMLID_486_" class="st5" points="241.7,8.6 244.8,10.9 248.4,9.2 249.7,10.7 249.7,10.7 247.2,7.6 243.9,9.2 
					242,7.7 				"/>
			</g>
		</g>
	</g>
	<g id="cog6">
		<g id="XMLID_470_">
			<g id="XMLID_475_">
				<path id="XMLID_1499_" class="st0" d="M301.5,22.4l3.4-1.6l-0.9-3.9l-3.7,0l-1.6-3.4l2.4-2.9l-2.5-3.1l-3.3,1.7l-2.9-2.3
					l0.9-3.6l-3.6-1.7l-2.3,2.9l-3.6-0.8L282.8,0h-4L278,3.6l-3.6,0.8l-2.3-2.9l-3.6,1.7l0.9,3.6l-2.9,2.3l-3.3-1.7l-2.5,3.1
					l2.4,2.9l-1.6,3.4l-3.7,0l-0.9,3.9l3.4,1.6v3.7l-3.4,1.6l0.9,3.9l3.7,0l1.6,3.4l-2.4,2.9l2.5,3.1l3.3-1.7l2.9,2.3l-0.9,3.6
					l3.6,1.7l2.3-2.9l3.6,0.8l0.8,3.6h4l0.8-3.6l3.6-0.8l2.3,2.9l3.6-1.7l-0.9-3.6l2.9-2.3l3.3,1.7l2.5-3.1l-2.4-2.9l1.6-3.4l3.7,0
					l0.9-3.9l-3.4-1.6V22.4z M280.8,43.2c-10.4,0-18.9-8.5-18.9-18.9s8.5-18.9,18.9-18.9s18.9,8.5,18.9,18.9S291.2,43.2,280.8,43.2z
					"/>
				<path id="XMLID_480_" class="st1" d="M280.8,5.4c-10.4,0-18.9,8.5-18.9,18.9s8.5,18.9,18.9,18.9s18.9-8.5,18.9-18.9
					S291.2,5.4,280.8,5.4z M280.8,41.3c-9.4,0-17-7.6-17-17s7.6-17,17-17s17,7.6,17,17S290.2,41.3,280.8,41.3z"/>
				<path id="XMLID_477_" class="st2" d="M280.8,7.2c-9.4,0-17,7.6-17,17s7.6,17,17,17s17-7.6,17-17S290.2,7.2,280.8,7.2z
					 M280.8,37.5c-7.3,0-13.2-5.9-13.2-13.2s5.9-13.2,13.2-13.2S294,17,294,24.3S288.1,37.5,280.8,37.5z"/>
				<path id="XMLID_476_" class="st3" d="M280.8,11.1c-7.3,0-13.2,5.9-13.2,13.2s5.9,13.2,13.2,13.2S294,31.6,294,24.3
					S288.1,11.1,280.8,11.1z M289.4,25.5l-0.3,1.4l-1.3,0l-0.6,1.2l0.8,1l-0.9,1.1l-1.2-0.6l-1,0.8l0.3,1.3l-1.3,0.6l-0.8-1
					l-1.3,0.3l-0.3,1.3h-1.4l-0.3-1.3l-1.3-0.3l-0.8,1l-1.3-0.6l0.3-1.3l-1-0.8l-1.2,0.6l-0.9-1.1l0.8-1l-0.6-1.2l-1.3,0l-0.3-1.4
					l1.2-0.6v-1.3l-1.2-0.6l0.3-1.4l1.3,0l0.6-1.2l-0.8-1l0.9-1.1l1.2,0.6l1-0.8l-0.3-1.3l1.3-0.6l0.8,1l1.3-0.3l0.3-1.3h1.4
					l0.3,1.3l1.3,0.3l0.8-1l1.3,0.6l-0.3,1.3l1,0.8l1.2-0.6l0.9,1.1l-0.8,1l0.6,1.2l1.3,0l0.3,1.4l-1.2,0.6v1.3L289.4,25.5z"/>
			</g>
			<g id="XMLID_471_" class="st4">
				<polygon id="XMLID_474_" class="st5" points="271.5,3.2 273.9,6.1 277.8,5.3 278.6,1.7 282.9,1.7 283.8,5.3 287.7,6.1 
					290.1,3.2 292.9,4.4 293.1,3.3 289.5,1.5 287.2,4.5 283.6,3.6 282.8,0 278.8,0 278,3.6 274.4,4.5 272.1,1.5 268.5,3.3 
					268.7,4.4 				"/>
				<polygon id="XMLID_473_" class="st5" points="261.8,9.2 265.4,10.9 268.5,8.6 268.3,7.7 266.4,9.2 263.1,7.6 260.6,10.7 
					260.6,10.7 				"/>
				<polygon id="XMLID_472_" class="st5" points="293.1,8.6 296.2,10.9 299.8,9.2 301,10.7 301,10.7 298.5,7.6 295.2,9.2 293.3,7.7 
									"/>
			</g>
		</g>
	</g>
	<g id="cog5">
		<g id="XMLID_457_">
			<g id="XMLID_462_">
				<path id="XMLID_1505_" class="st0" d="M352.9,22.4l3.4-1.6l-0.9-3.9l-3.7,0l-1.6-3.4l2.4-2.9l-2.5-3.1l-3.3,1.7l-2.9-2.3
					l0.9-3.6l-3.6-1.7l-2.3,2.9l-3.6-0.8L334.1,0h-4l-0.8,3.6l-3.6,0.8l-2.3-2.9l-3.6,1.7l0.9,3.6l-2.9,2.3l-3.3-1.7l-2.5,3.1
					l2.4,2.9l-1.6,3.4l-3.7,0l-0.9,3.9l3.4,1.6v3.7l-3.4,1.6l0.9,3.9l3.7,0l1.6,3.4l-2.4,2.9l2.5,3.1l3.3-1.7l2.9,2.3l-0.9,3.6
					l3.6,1.7l2.3-2.9l3.6,0.8l0.8,3.6h4l0.8-3.6l3.6-0.8l2.3,2.9l3.6-1.7l-0.9-3.6l2.9-2.3l3.3,1.7l2.5-3.1L350,35l1.6-3.4l3.7,0
					l0.9-3.9l-3.4-1.6V22.4z M332.1,43.2c-10.4,0-18.9-8.5-18.9-18.9s8.5-18.9,18.9-18.9c10.4,0,18.9,8.5,18.9,18.9
					S342.6,43.2,332.1,43.2z"/>
				<path id="XMLID_1502_" class="st1" d="M332.1,5.4c-10.4,0-18.9,8.5-18.9,18.9s8.5,18.9,18.9,18.9c10.4,0,18.9-8.5,18.9-18.9
					S342.6,5.4,332.1,5.4z M332.1,41.3c-9.4,0-17-7.6-17-17s7.6-17,17-17c9.4,0,17,7.6,17,17S341.5,41.3,332.1,41.3z"/>
				<path id="XMLID_466_" class="st2" d="M332.1,7.2c-9.4,0-17,7.6-17,17s7.6,17,17,17c9.4,0,17-7.6,17-17S341.5,7.2,332.1,7.2z
					 M332.1,37.5c-7.3,0-13.2-5.9-13.2-13.2s5.9-13.2,13.2-13.2s13.2,5.9,13.2,13.2S339.4,37.5,332.1,37.5z"/>
				<path id="XMLID_463_" class="st3" d="M332.1,11.1c-7.3,0-13.2,5.9-13.2,13.2s5.9,13.2,13.2,13.2s13.2-5.9,13.2-13.2
					S339.4,11.1,332.1,11.1z M340.8,25.5l-0.3,1.4l-1.3,0l-0.6,1.2l0.8,1l-0.9,1.1l-1.2-0.6l-1,0.8l0.3,1.3l-1.3,0.6l-0.8-1
					l-1.3,0.3l-0.3,1.3h-1.4l-0.3-1.3l-1.3-0.3l-0.8,1l-1.3-0.6l0.3-1.3l-1-0.8l-1.2,0.6l-0.9-1.1l0.8-1l-0.6-1.2l-1.3,0l-0.3-1.4
					l1.2-0.6v-1.3l-1.2-0.6l0.3-1.4l1.3,0l0.6-1.2l-0.8-1l0.9-1.1l1.2,0.6l1-0.8l-0.3-1.3l1.3-0.6l0.8,1l1.3-0.3l0.3-1.3h1.4
					l0.3,1.3l1.3,0.3l0.8-1l1.3,0.6l-0.3,1.3l1,0.8l1.2-0.6l0.9,1.1l-0.8,1l0.6,1.2l1.3,0l0.3,1.4l-1.2,0.6v1.3L340.8,25.5z"/>
			</g>
			<g id="XMLID_458_" class="st4">
				<polygon id="XMLID_461_" class="st5" points="322.8,3.2 325.3,6.1 329.1,5.3 330,1.7 334.3,1.7 335.1,5.3 339,6.1 341.5,3.2 
					344.2,4.4 344.5,3.3 340.9,1.5 338.6,4.5 334.9,3.6 334.1,0 330.1,0 329.3,3.6 325.7,4.5 323.4,1.5 319.8,3.3 320.1,4.4 				"/>
				<polygon id="XMLID_460_" class="st5" points="313.2,9.2 316.8,10.9 319.9,8.6 319.6,7.7 317.7,9.2 314.4,7.6 311.9,10.7 
					311.9,10.7 				"/>
				<polygon id="XMLID_459_" class="st5" points="344.4,8.6 347.5,10.9 351.1,9.2 352.4,10.7 352.4,10.7 349.9,7.6 346.5,9.2 
					344.6,7.7 				"/>
			</g>
		</g>
	</g>
	<g id="cog4">
		<g id="XMLID_444_">
			<g id="XMLID_449_">
				<path id="XMLID_1511_" class="st0" d="M404.2,22.4l3.4-1.6l-0.9-3.9l-3.7,0l-1.6-3.4l2.4-2.9l-2.5-3.1l-3.3,1.7l-2.9-2.3
					l0.9-3.6l-3.6-1.7l-2.3,2.9l-3.6-0.8L385.5,0h-4l-0.8,3.6L377,4.5l-2.3-2.9l-3.6,1.7l0.9,3.6l-2.9,2.3l-3.3-1.7l-2.5,3.1
					l2.4,2.9L364,17l-3.7,0l-0.9,3.9l3.4,1.6v3.7l-3.4,1.6l0.9,3.9l3.7,0l1.6,3.4l-2.4,2.9l2.5,3.1l3.3-1.7l2.9,2.3l-0.9,3.6
					l3.6,1.7l2.3-2.9l3.6,0.8l0.8,3.6h4l0.8-3.6l3.6-0.8l2.3,2.9l3.6-1.7l-0.9-3.6l2.9-2.3l3.3,1.7l2.5-3.1l-2.4-2.9l1.6-3.4l3.7,0
					l0.9-3.9l-3.4-1.6V22.4z M383.5,43.2c-10.4,0-18.9-8.5-18.9-18.9S373,5.4,383.5,5.4c10.4,0,18.9,8.5,18.9,18.9
					S393.9,43.2,383.5,43.2z"/>
				<path id="XMLID_1508_" class="st1" d="M383.5,5.4c-10.4,0-18.9,8.5-18.9,18.9s8.5,18.9,18.9,18.9c10.4,0,18.9-8.5,18.9-18.9
					S393.9,5.4,383.5,5.4z M383.5,41.3c-9.4,0-17-7.6-17-17s7.6-17,17-17c9.4,0,17,7.6,17,17S392.9,41.3,383.5,41.3z"/>
				<path id="XMLID_453_" class="st2" d="M383.5,7.2c-9.4,0-17,7.6-17,17s7.6,17,17,17c9.4,0,17-7.6,17-17S392.9,7.2,383.5,7.2z
					 M383.5,37.5c-7.3,0-13.2-5.9-13.2-13.2s5.9-13.2,13.2-13.2s13.2,5.9,13.2,13.2S390.8,37.5,383.5,37.5z"/>
				<path id="XMLID_450_" class="st3" d="M383.5,11.1c-7.3,0-13.2,5.9-13.2,13.2s5.9,13.2,13.2,13.2s13.2-5.9,13.2-13.2
					S390.8,11.1,383.5,11.1z M392.1,25.5l-0.3,1.4l-1.3,0l-0.6,1.2l0.8,1l-0.9,1.1l-1.2-0.6l-1,0.8l0.3,1.3l-1.3,0.6l-0.8-1
					l-1.3,0.3l-0.3,1.3h-1.4l-0.3-1.3l-1.3-0.3l-0.8,1l-1.3-0.6l0.3-1.3l-1-0.8l-1.2,0.6l-0.9-1.1l0.8-1l-0.6-1.2l-1.3,0l-0.3-1.4
					l1.2-0.6v-1.3l-1.2-0.6l0.3-1.4l1.3,0l0.6-1.2l-0.8-1l0.9-1.1l1.2,0.6l1-0.8l-0.3-1.3l1.3-0.6l0.8,1l1.3-0.3l0.3-1.3h1.4
					l0.3,1.3l1.3,0.3l0.8-1l1.3,0.6l-0.3,1.3l1,0.8l1.2-0.6l0.9,1.1l-0.8,1l0.6,1.2l1.3,0l0.3,1.4l-1.2,0.6v1.3L392.1,25.5z"/>
			</g>
			<g id="XMLID_445_" class="st4">
				<polygon id="XMLID_448_" class="st5" points="374.1,3.2 376.6,6.1 380.5,5.3 381.3,1.7 385.6,1.7 386.5,5.3 390.3,6.1 
					392.8,3.2 395.5,4.4 395.8,3.3 392.2,1.5 389.9,4.5 386.3,3.6 385.5,0 381.5,0 380.7,3.6 377,4.5 374.7,1.5 371.1,3.3 
					371.4,4.4 				"/>
				<polygon id="XMLID_447_" class="st5" points="364.5,9.2 368.1,10.9 371.2,8.6 371,7.7 369.1,9.2 365.7,7.6 363.2,10.7 
					363.2,10.7 				"/>
				<polygon id="XMLID_446_" class="st5" points="395.7,8.6 398.9,10.9 402.4,9.2 403.7,10.7 403.7,10.7 401.2,7.6 397.9,9.2 
					396,7.7 				"/>
			</g>
		</g>
	</g>
	<g id="cog3">
		<g id="XMLID_431_">
			<g id="XMLID_436_">
				<path id="XMLID_1517_" class="st0" d="M455.5,22.4l3.4-1.6l-0.9-3.9l-3.7,0l-1.6-3.4l2.4-2.9l-2.5-3.1l-3.3,1.7l-2.9-2.3
					l0.9-3.6l-3.6-1.7l-2.3,2.9l-3.6-0.8L436.8,0h-4L432,3.6l-3.6,0.8l-2.3-2.9l-3.6,1.7l0.9,3.6l-2.9,2.3l-3.3-1.7l-2.5,3.1
					l2.4,2.9l-1.6,3.4l-3.7,0l-0.9,3.9l3.4,1.6v3.7l-3.4,1.6l0.9,3.9l3.7,0l1.6,3.4l-2.4,2.9l2.5,3.1l3.3-1.7l2.9,2.3l-0.9,3.6
					l3.6,1.7l2.3-2.9l3.6,0.8l0.8,3.6h4l0.8-3.6l3.6-0.8l2.3,2.9l3.6-1.7l-0.9-3.6l2.9-2.3l3.3,1.7l2.5-3.1l-2.4-2.9l1.6-3.4l3.7,0
					l0.9-3.9l-3.4-1.6V22.4z M434.8,43.2c-10.4,0-18.9-8.5-18.9-18.9s8.5-18.9,18.9-18.9s18.9,8.5,18.9,18.9S445.3,43.2,434.8,43.2z
					"/>
				<path id="XMLID_1514_" class="st1" d="M434.8,5.4c-10.4,0-18.9,8.5-18.9,18.9s8.5,18.9,18.9,18.9s18.9-8.5,18.9-18.9
					S445.3,5.4,434.8,5.4z M434.8,41.3c-9.4,0-17-7.6-17-17s7.6-17,17-17s17,7.6,17,17S444.2,41.3,434.8,41.3z"/>
				<path id="XMLID_440_" class="st2" d="M434.8,7.2c-9.4,0-17,7.6-17,17s7.6,17,17,17s17-7.6,17-17S444.2,7.2,434.8,7.2z
					 M434.8,37.5c-7.3,0-13.2-5.9-13.2-13.2s5.9-13.2,13.2-13.2S448,17,448,24.3S442.1,37.5,434.8,37.5z"/>
				<path id="XMLID_437_" class="st3" d="M434.8,11.1c-7.3,0-13.2,5.9-13.2,13.2s5.9,13.2,13.2,13.2S448,31.6,448,24.3
					S442.1,11.1,434.8,11.1z M443.4,25.5l-0.3,1.4l-1.3,0l-0.6,1.2l0.8,1l-0.9,1.1l-1.2-0.6l-1,0.8l0.3,1.3l-1.3,0.6l-0.8-1
					l-1.3,0.3l-0.3,1.3h-1.4l-0.3-1.3l-1.3-0.3l-0.8,1l-1.3-0.6l0.3-1.3l-1-0.8l-1.2,0.6l-0.9-1.1l0.8-1l-0.6-1.2l-1.3,0l-0.3-1.4
					l1.2-0.6v-1.3l-1.2-0.6l0.3-1.4l1.3,0l0.6-1.2l-0.8-1l0.9-1.1l1.2,0.6l1-0.8l-0.3-1.3l1.3-0.6l0.8,1l1.3-0.3l0.3-1.3h1.4
					l0.3,1.3l1.3,0.3l0.8-1l1.3,0.6l-0.3,1.3l1,0.8l1.2-0.6l0.9,1.1l-0.8,1l0.6,1.2l1.3,0l0.3,1.4l-1.2,0.6v1.3L443.4,25.5z"/>
			</g>
			<g id="XMLID_432_" class="st4">
				<polygon id="XMLID_435_" class="st5" points="425.5,3.2 427.9,6.1 431.8,5.3 432.7,1.7 437,1.7 437.8,5.3 441.7,6.1 444.1,3.2 
					446.9,4.4 447.2,3.3 443.5,1.5 441.2,4.5 437.6,3.6 436.8,0 432.8,0 432,3.6 428.4,4.5 426.1,1.5 422.5,3.3 422.7,4.4 				"/>
				<polygon id="XMLID_434_" class="st5" points="415.9,9.2 419.4,10.9 422.5,8.6 422.3,7.7 420.4,9.2 417.1,7.6 414.6,10.7 
					414.6,10.7 				"/>
				<polygon id="XMLID_433_" class="st5" points="447.1,8.6 450.2,10.9 453.8,9.2 455,10.7 455,10.7 452.5,7.6 449.2,9.2 447.3,7.7 
									"/>
			</g>
		</g>
	</g>
	<g id="cog2">
		<g id="XMLID_393_">
			<g id="XMLID_399_">
				<path id="XMLID_1523_" class="st0" d="M506.9,22.4l3.4-1.6l-0.9-3.9l-3.7,0l-1.6-3.4l2.4-2.9l-2.5-3.1l-3.3,1.7l-2.9-2.3
					l0.9-3.6l-3.6-1.7l-2.3,2.9l-3.6-0.8L488.2,0h-4l-0.8,3.6l-3.6,0.8l-2.3-2.9l-3.6,1.7l0.9,3.6l-2.9,2.3l-3.3-1.7l-2.5,3.1
					l2.4,2.9l-1.6,3.4l-3.7,0l-0.9,3.9l3.4,1.6v3.7l-3.4,1.6l0.9,3.9l3.7,0l1.6,3.4l-2.4,2.9l2.5,3.1l3.3-1.7l2.9,2.3l-0.9,3.6
					l3.6,1.7l2.3-2.9l3.6,0.8l0.8,3.6h4l0.8-3.6l3.6-0.8l2.3,2.9l3.6-1.7l-0.9-3.6l2.9-2.3l3.3,1.7l2.5-3.1L504,35l1.6-3.4l3.7,0
					l0.9-3.9l-3.4-1.6V22.4z M486.1,43.2c-10.4,0-18.9-8.5-18.9-18.9s8.5-18.9,18.9-18.9c10.4,0,18.9,8.5,18.9,18.9
					S496.6,43.2,486.1,43.2z"/>
				<path id="XMLID_1520_" class="st1" d="M486.1,5.4c-10.4,0-18.9,8.5-18.9,18.9s8.5,18.9,18.9,18.9c10.4,0,18.9-8.5,18.9-18.9
					S496.6,5.4,486.1,5.4z M486.1,41.3c-9.4,0-17-7.6-17-17s7.6-17,17-17c9.4,0,17,7.6,17,17S495.6,41.3,486.1,41.3z"/>
				<path id="XMLID_427_" class="st2" d="M486.1,7.2c-9.4,0-17,7.6-17,17s7.6,17,17,17c9.4,0,17-7.6,17-17S495.6,7.2,486.1,7.2z
					 M486.1,37.5c-7.3,0-13.2-5.9-13.2-13.2s5.9-13.2,13.2-13.2s13.2,5.9,13.2,13.2S493.4,37.5,486.1,37.5z"/>
				<path id="XMLID_401_" class="st3" d="M486.1,11.1c-7.3,0-13.2,5.9-13.2,13.2s5.9,13.2,13.2,13.2s13.2-5.9,13.2-13.2
					S493.4,11.1,486.1,11.1z M494.8,25.5l-0.3,1.4l-1.3,0l-0.6,1.2l0.8,1l-0.9,1.1l-1.2-0.6l-1,0.8l0.3,1.3l-1.3,0.6l-0.8-1
					l-1.3,0.3l-0.3,1.3h-1.4l-0.3-1.3l-1.3-0.3l-0.8,1l-1.3-0.6l0.3-1.3l-1-0.8l-1.2,0.6l-0.9-1.1l0.8-1l-0.6-1.2l-1.3,0l-0.3-1.4
					l1.2-0.6v-1.3l-1.2-0.6l0.3-1.4l1.3,0l0.6-1.2l-0.8-1l0.9-1.1l1.2,0.6l1-0.8l-0.3-1.3l1.3-0.6l0.8,1l1.3-0.3l0.3-1.3h1.4
					l0.3,1.3l1.3,0.3l0.8-1l1.3,0.6l-0.3,1.3l1,0.8l1.2-0.6l0.9,1.1l-0.8,1l0.6,1.2l1.3,0l0.3,1.4l-1.2,0.6v1.3L494.8,25.5z"/>
			</g>
			<g id="XMLID_395_" class="st4">
				<polygon id="XMLID_398_" class="st5" points="476.8,3.2 479.3,6.1 483.1,5.3 484,1.7 488.3,1.7 489.1,5.3 493,6.1 495.5,3.2 
					498.2,4.4 498.5,3.3 494.9,1.5 492.6,4.5 488.9,3.6 488.2,0 484.1,0 483.3,3.6 479.7,4.5 477.4,1.5 473.8,3.3 474.1,4.4 				"/>
				<polygon id="XMLID_397_" class="st5" points="467.2,9.2 470.8,10.9 473.9,8.6 473.7,7.7 471.8,9.2 468.4,7.6 465.9,10.7 
					465.9,10.7 				"/>
				<polygon id="XMLID_396_" class="st5" points="498.4,8.6 501.5,10.9 505.1,9.2 506.4,10.7 506.4,10.7 503.9,7.6 500.5,9.2 
					498.6,7.7 				"/>
			</g>
		</g>
	</g>
	<g id="cog1">
		<g id="XMLID_1527_">
			<g id="XMLID_1532_">
				<path id="XMLID_1542_" class="st0" d="M558.2,22.4l3.4-1.6l-0.9-3.9l-3.7,0l-1.6-3.4l2.4-2.9l-2.5-3.1l-3.3,1.7L549,6.9l0.9-3.6
					l-3.6-1.7l-2.3,2.9l-3.6-0.8L539.5,0h-4l-0.8,3.6L531,4.5l-2.3-2.9l-3.6,1.7l0.9,3.6l-2.9,2.3l-3.3-1.7l-2.5,3.1l2.4,2.9L518,17
					l-3.7,0l-0.9,3.9l3.4,1.6v3.7l-3.4,1.6l0.9,3.9l3.7,0l1.6,3.4l-2.4,2.9l2.5,3.1l3.3-1.7l2.9,2.3l-0.9,3.6l3.6,1.7l2.3-2.9
					l3.6,0.8l0.8,3.6h4l0.8-3.6l3.6-0.8l2.3,2.9l3.6-1.7l-0.9-3.6l2.9-2.3l3.3,1.7l2.5-3.1l-2.4-2.9l1.6-3.4l3.7,0l0.9-3.9l-3.4-1.6
					V22.4z M537.5,43.2c-10.4,0-18.9-8.5-18.9-18.9S527,5.4,537.5,5.4s18.9,8.5,18.9,18.9S547.9,43.2,537.5,43.2z"/>
				<path id="XMLID_1539_" class="st1" d="M537.5,5.4c-10.4,0-18.9,8.5-18.9,18.9s8.5,18.9,18.9,18.9s18.9-8.5,18.9-18.9
					S547.9,5.4,537.5,5.4z M537.5,41.3c-9.4,0-17-7.6-17-17s7.6-17,17-17s17,7.6,17,17S546.9,41.3,537.5,41.3z"/>
				<path id="XMLID_1536_" class="st2" d="M537.5,7.2c-9.4,0-17,7.6-17,17s7.6,17,17,17s17-7.6,17-17S546.9,7.2,537.5,7.2z
					 M537.5,37.5c-7.3,0-13.2-5.9-13.2-13.2s5.9-13.2,13.2-13.2s13.2,5.9,13.2,13.2S544.8,37.5,537.5,37.5z"/>
				<path id="XMLID_1533_" class="st3" d="M537.5,11.1c-7.3,0-13.2,5.9-13.2,13.2s5.9,13.2,13.2,13.2s13.2-5.9,13.2-13.2
					S544.8,11.1,537.5,11.1z M546.1,25.5l-0.3,1.4l-1.3,0l-0.6,1.2l0.8,1l-0.9,1.1l-1.2-0.6l-1,0.8l0.3,1.3l-1.3,0.6l-0.8-1
					l-1.3,0.3l-0.3,1.3h-1.4l-0.3-1.3l-1.3-0.3l-0.8,1l-1.3-0.6l0.3-1.3l-1-0.8l-1.2,0.6l-0.9-1.1l0.8-1l-0.6-1.2l-1.3,0l-0.3-1.4
					l1.2-0.6v-1.3l-1.2-0.6l0.3-1.4l1.3,0l0.6-1.2l-0.8-1l0.9-1.1l1.2,0.6l1-0.8l-0.3-1.3l1.3-0.6l0.8,1l1.3-0.3l0.3-1.3h1.4
					l0.3,1.3l1.3,0.3l0.8-1l1.3,0.6l-0.3,1.3l1,0.8l1.2-0.6l0.9,1.1l-0.8,1l0.6,1.2l1.3,0l0.3,1.4l-1.2,0.6v1.3L546.1,25.5z"/>
			</g>
			<g id="XMLID_1528_" class="st4">
				<polygon id="XMLID_1531_" class="st5" points="528.2,3.2 530.6,6.1 534.5,5.3 535.3,1.7 539.6,1.7 540.5,5.3 544.4,6.1 
					546.8,3.2 549.5,4.4 549.8,3.3 546.2,1.5 543.9,4.5 540.3,3.6 539.5,0 535.5,0 534.7,3.6 531,4.5 528.8,1.5 525.1,3.3 
					525.4,4.4 				"/>
				<polygon id="XMLID_1530_" class="st5" points="518.5,9.2 522.1,10.9 525.2,8.6 525,7.7 523.1,9.2 519.8,7.6 517.2,10.7 
					517.3,10.7 				"/>
				<polygon id="XMLID_1529_" class="st5" points="549.8,8.6 552.9,10.9 556.4,9.2 557.7,10.7 557.7,10.7 555.2,7.6 551.9,9.2 
					550,7.7 				"/>
			</g>
		</g>
	</g>
</g>
</svg>
