<?xml version="1.0" encoding="utf-8"?>
<!-- Generator: Adobe Illustrator 19.0.0, SVG Export Plug-In . SVG Version: 6.00 Build 0)  -->
<svg version="1.1" id="Layer_1" xmlns="http://www.w3.org/2000/svg" xmlns:xlink="http://www.w3.org/1999/xlink" x="0px" y="0px"
	 viewBox="0 0 571.7 77" style="enable-background:new 0 0 571.7 77;" xml:space="preserve">
<style type="text/css">
	.st0{fill:#0F7A82;}
	.st1{opacity:0.2;fill:#3C3D3C;}
	.st2{fill:#70BBC0;}
	.st3{opacity:0.2;}
	.st4{fill:#50514F;}
	.st5{fill:#27524E;}
	.st6{opacity:0.3;fill:#FFFFFF;}
	.st7{opacity:0.15;}
	.st8{fill:#3C3D3C;}
	.st9{opacity:0.61;}
</style>
<g id="XMLID_391_">
	<polygon id="XMLID_401_" class="st0" points="571.5,46.8 571.7,46.7 547.4,71 550,73.7 571.5,52 	"/>
	<polygon id="XMLID_398_" class="st1" points="571.5,46.8 571.7,46.7 547.4,71 550,73.7 571.5,52 	"/>
	<polygon id="XMLID_397_" class="st0" points="571.5,68.4 550,46.7 547.4,49.4 571.6,73.7 571.5,73.7 	"/>
	<rect id="XMLID_396_" x="545.5" y="70" class="st2" width="26" height="7"/>
	<rect id="XMLID_399_" x="545.5" y="44" class="st2" width="26" height="6"/>
	<g id="XMLID_1681_" class="st3">
		<circle id="XMLID_1686_" class="st4" cx="569.4" cy="71.9" r="0.8"/>
		<circle id="XMLID_1685_" class="st4" cx="563.8" cy="71.9" r="0.8"/>
		<circle id="XMLID_1684_" class="st4" cx="558.2" cy="71.9" r="0.8"/>
		<circle id="XMLID_1683_" class="st4" cx="552.6" cy="71.9" r="0.8"/>
		<circle id="XMLID_1682_" class="st4" cx="546.9" cy="71.9" r="0.8"/>
	</g>
	<g id="XMLID_1674_" class="st3">
		<circle id="XMLID_1679_" class="st4" cx="569.4" cy="48.6" r="0.8"/>
		<circle id="XMLID_1678_" class="st4" cx="563.8" cy="48.6" r="0.8"/>
		<circle id="XMLID_1677_" class="st4" cx="558.2" cy="48.6" r="0.8"/>
		<circle id="XMLID_1676_" class="st4" cx="552.6" cy="48.6" r="0.8"/>
		<circle id="XMLID_1675_" class="st4" cx="546.9" cy="48.6" r="0.8"/>
	</g>
	<rect id="XMLID_1673_" x="544.4" y="70.1" class="st5" width="1" height="6.5"/>
	<rect id="XMLID_1671_" x="544.4" y="43.8" class="st5" width="1" height="6.5"/>
	<rect id="XMLID_1668_" x="544.4" y="50.3" class="st0" width="2.2" height="19.8"/>
	<path id="XMLID_1665_" class="st6" d="M545.7,60.7c0-6,0.4-11.7,1-16.9h-1.2h-1v6.5v19.8v6.5h1h1.1C546,71.7,545.7,66.3,545.7,60.7
		z"/>
	<g id="XMLID_1696_">
		<g id="XMLID_1699_">
			<g id="XMLID_1702_">
				<g id="XMLID_1725_">
					
						<rect id="XMLID_1728_" x="528.4" y="43" transform="matrix(-0.7071 -0.7071 0.7071 -0.7071 862.7861 477.8046)" class="st0" width="3.8" height="34.4"/>
					
						<rect id="XMLID_1727_" x="528.4" y="43" transform="matrix(-0.7071 -0.7071 0.7071 -0.7071 862.7861 477.8046)" class="st1" width="3.8" height="34.4"/>
					
						<rect id="XMLID_1726_" x="528.4" y="43" transform="matrix(0.7071 -0.7071 0.7071 0.7071 112.7624 392.65)" class="st0" width="3.8" height="34.4"/>
				</g>
				<g id="XMLID_1721_">
					<rect id="XMLID_1724_" x="514.7" y="70.1" class="st2" width="31.3" height="6.5"/>
					<g id="XMLID_1722_">
						<rect id="XMLID_1723_" x="514.7" y="43.8" class="st2" width="31.3" height="6.5"/>
					</g>
				</g>
				<g id="XMLID_1714_" class="st3">
					<circle id="XMLID_1720_" class="st4" cx="544.3" cy="71.9" r="0.8"/>
					<circle id="XMLID_1719_" class="st4" cx="538.7" cy="71.9" r="0.8"/>
					<circle id="XMLID_1718_" class="st4" cx="533.1" cy="71.9" r="0.8"/>
					<circle id="XMLID_1717_" class="st4" cx="527.5" cy="71.9" r="0.8"/>
					<circle id="XMLID_1716_" class="st4" cx="521.8" cy="71.9" r="0.8"/>
					<circle id="XMLID_1715_" class="st4" cx="516.2" cy="71.9" r="0.8"/>
				</g>
				<g id="XMLID_1707_" class="st3">
					<circle id="XMLID_1713_" class="st4" cx="544.3" cy="48.6" r="0.8"/>
					<circle id="XMLID_1712_" class="st4" cx="538.7" cy="48.6" r="0.8"/>
					<circle id="XMLID_1711_" class="st4" cx="533.1" cy="48.6" r="0.8"/>
					<circle id="XMLID_1710_" class="st4" cx="527.5" cy="48.6" r="0.8"/>
					<circle id="XMLID_1709_" class="st4" cx="521.8" cy="48.6" r="0.8"/>
					<circle id="XMLID_1708_" class="st4" cx="516.2" cy="48.6" r="0.8"/>
				</g>
				<rect id="XMLID_1706_" x="513.7" y="70.1" class="st5" width="1" height="6.5"/>
				<rect id="XMLID_1705_" x="546" y="70.1" class="st5" width="1" height="6.5"/>
				<rect id="XMLID_1704_" x="513.7" y="43.8" class="st5" width="1" height="6.5"/>
				<rect id="XMLID_1703_" x="546" y="43.8" class="st5" width="1" height="6.5"/>
			</g>
			<rect id="XMLID_1701_" x="513.7" y="50.3" class="st0" width="2.2" height="19.8"/>
			<rect id="XMLID_1700_" x="544.9" y="50.3" class="st0" width="2.2" height="19.8"/>
		</g>
		<path id="XMLID_1698_" class="st6" d="M515,60.7c0-6,0.4-11.7,1-16.9h-1.2h-1v6.5v19.8v6.5h1h1.1C515.3,71.7,515,66.3,515,60.7z"
			/>
		<path id="XMLID_1697_" class="st7" d="M540.7,52.6l2.2-2.2h1.9v19.8H543l-2.2-2.2c-0.1,3-0.4,5.9-0.7,8.7h5.9h1v-6.5h0.1V50.3H547
			v-6.5h-1h-6C540.3,46.6,540.5,49.5,540.7,52.6z"/>
	</g>
	<g id="XMLID_1729_">
		<g id="XMLID_1732_">
			<g id="XMLID_1735_">
				<g id="XMLID_1767_">
					
						<rect id="XMLID_1770_" x="497.7" y="43" transform="matrix(-0.7071 -0.7071 0.7071 -0.7071 810.3669 456.0912)" class="st0" width="3.8" height="34.4"/>
					
						<rect id="XMLID_1769_" x="497.7" y="43" transform="matrix(-0.7071 -0.7071 0.7071 -0.7071 810.3669 456.0912)" class="st1" width="3.8" height="34.4"/>
					
						<rect id="XMLID_1768_" x="497.7" y="43" transform="matrix(0.7071 -0.7071 0.7071 0.7071 103.7686 370.9371)" class="st0" width="3.8" height="34.4"/>
				</g>
				<g id="XMLID_1763_">
					<rect id="XMLID_1766_" x="484" y="70.1" class="st2" width="31.3" height="6.5"/>
					<g id="XMLID_1764_">
						<rect id="XMLID_1765_" x="484" y="43.8" class="st2" width="31.3" height="6.5"/>
					</g>
				</g>
				<g id="XMLID_1747_" class="st3">
					<circle id="XMLID_1758_" class="st4" cx="513.6" cy="71.9" r="0.8"/>
					<circle id="XMLID_1752_" class="st4" cx="508" cy="71.9" r="0.8"/>
					<circle id="XMLID_1751_" class="st4" cx="502.4" cy="71.9" r="0.8"/>
					<circle id="XMLID_1750_" class="st4" cx="496.8" cy="71.9" r="0.8"/>
					<circle id="XMLID_1749_" class="st4" cx="491.1" cy="71.9" r="0.8"/>
					<circle id="XMLID_1748_" class="st4" cx="485.5" cy="71.9" r="0.8"/>
				</g>
				<g id="XMLID_1740_" class="st3">
					<circle id="XMLID_1746_" class="st4" cx="513.6" cy="48.6" r="0.8"/>
					<circle id="XMLID_1745_" class="st4" cx="508" cy="48.6" r="0.8"/>
					<circle id="XMLID_1744_" class="st4" cx="502.4" cy="48.6" r="0.8"/>
					<circle id="XMLID_1743_" class="st4" cx="496.8" cy="48.6" r="0.8"/>
					<circle id="XMLID_1742_" class="st4" cx="491.1" cy="48.6" r="0.8"/>
					<circle id="XMLID_1741_" class="st4" cx="485.5" cy="48.6" r="0.8"/>
				</g>
				<rect id="XMLID_1739_" x="483" y="70.1" class="st5" width="1" height="6.5"/>
				<rect id="XMLID_1738_" x="515.3" y="70.1" class="st5" width="1" height="6.5"/>
				<rect id="XMLID_1737_" x="483" y="43.8" class="st5" width="1" height="6.5"/>
				<rect id="XMLID_1736_" x="515.3" y="43.8" class="st5" width="1" height="6.5"/>
			</g>
			<rect id="XMLID_1734_" x="483" y="50.3" class="st0" width="2.2" height="19.8"/>
			<rect id="XMLID_1733_" x="514.2" y="50.3" class="st0" width="2.2" height="19.8"/>
		</g>
		<path id="XMLID_1731_" class="st6" d="M484.2,60.7c0-6,0.4-11.7,1-16.9H484h-1v6.5v19.8v6.5h1h1.1
			C484.6,71.7,484.2,66.3,484.2,60.7z"/>
		<path id="XMLID_1730_" class="st7" d="M510,52.6l2.2-2.2h1.9v19.8h-1.9l-2.2-2.2c-0.1,3-0.4,5.9-0.7,8.7h5.9h1v-6.5h0.1V50.3h-0.1
			v-6.5h-1h-6C509.6,46.6,509.8,49.5,510,52.6z"/>
	</g>
	<g id="XMLID_1771_">
		<g id="XMLID_1774_">
			<g id="XMLID_1777_">
				<g id="XMLID_1800_">
					
						<rect id="XMLID_1803_" x="467" y="43" transform="matrix(-0.7071 -0.7071 0.7071 -0.7071 757.9476 434.3779)" class="st0" width="3.8" height="34.4"/>
					
						<rect id="XMLID_1802_" x="467" y="43" transform="matrix(-0.7071 -0.7071 0.7071 -0.7071 757.9476 434.3779)" class="st1" width="3.8" height="34.4"/>
					
						<rect id="XMLID_1801_" x="467" y="43" transform="matrix(0.7071 -0.7071 0.7071 0.7071 94.7748 349.2242)" class="st0" width="3.8" height="34.4"/>
				</g>
				<g id="XMLID_1796_">
					<rect id="XMLID_1799_" x="453.3" y="70.1" class="st2" width="31.3" height="6.5"/>
					<g id="XMLID_1797_">
						<rect id="XMLID_1798_" x="453.3" y="43.8" class="st2" width="31.3" height="6.5"/>
					</g>
				</g>
				<g id="XMLID_1789_" class="st3">
					<circle id="XMLID_1795_" class="st4" cx="482.9" cy="71.9" r="0.8"/>
					<circle id="XMLID_1794_" class="st4" cx="477.3" cy="71.9" r="0.8"/>
					<circle id="XMLID_1793_" class="st4" cx="471.7" cy="71.9" r="0.8"/>
					<circle id="XMLID_1792_" class="st4" cx="466.1" cy="71.9" r="0.8"/>
					<circle id="XMLID_1791_" class="st4" cx="460.4" cy="71.9" r="0.8"/>
					<circle id="XMLID_1790_" class="st4" cx="454.8" cy="71.9" r="0.8"/>
				</g>
				<g id="XMLID_1782_" class="st3">
					<circle id="XMLID_1788_" class="st4" cx="482.9" cy="48.6" r="0.8"/>
					<circle id="XMLID_1787_" class="st4" cx="477.3" cy="48.6" r="0.8"/>
					<circle id="XMLID_1786_" class="st4" cx="471.7" cy="48.6" r="0.8"/>
					<circle id="XMLID_1785_" class="st4" cx="466.1" cy="48.6" r="0.8"/>
					<circle id="XMLID_1784_" class="st4" cx="460.4" cy="48.6" r="0.8"/>
					<circle id="XMLID_1783_" class="st4" cx="454.8" cy="48.6" r="0.8"/>
				</g>
				<rect id="XMLID_1781_" x="452.3" y="70.1" class="st5" width="1" height="6.5"/>
				<rect id="XMLID_1780_" x="484.6" y="70.1" class="st5" width="1" height="6.5"/>
				<rect id="XMLID_1779_" x="452.3" y="43.8" class="st5" width="1" height="6.5"/>
				<rect id="XMLID_1778_" x="484.6" y="43.8" class="st5" width="1" height="6.5"/>
			</g>
			<rect id="XMLID_1776_" x="452.3" y="50.3" class="st0" width="2.2" height="19.8"/>
			<rect id="XMLID_1775_" x="483.5" y="50.3" class="st0" width="2.2" height="19.8"/>
		</g>
		<path id="XMLID_1773_" class="st6" d="M453.5,60.7c0-6,0.4-11.7,1-16.9h-1.2h-1v6.5v19.8v6.5h1h1.1
			C453.8,71.7,453.5,66.3,453.5,60.7z"/>
		<path id="XMLID_1772_" class="st7" d="M479.3,52.6l2.2-2.2h1.9v19.8h-1.9l-2.2-2.2c-0.1,3-0.4,5.9-0.7,8.7h5.9h1v-6.5h0.1V50.3
			h-0.1v-6.5h-1h-6C478.9,46.6,479.1,49.5,479.3,52.6z"/>
	</g>
	<g id="XMLID_1804_">
		<g id="XMLID_1807_">
			<g id="XMLID_1810_">
				<g id="XMLID_1833_">
					
						<rect id="XMLID_1836_" x="436.3" y="43" transform="matrix(-0.7071 -0.7071 0.7071 -0.7071 705.5284 412.6646)" class="st0" width="3.8" height="34.4"/>
					
						<rect id="XMLID_1835_" x="436.3" y="43" transform="matrix(-0.7071 -0.7071 0.7071 -0.7071 705.5284 412.6646)" class="st1" width="3.8" height="34.4"/>
					
						<rect id="XMLID_1834_" x="436.3" y="43" transform="matrix(0.7071 -0.7071 0.7071 0.7071 85.7811 327.5113)" class="st0" width="3.8" height="34.4"/>
				</g>
				<g id="XMLID_1829_">
					<rect id="XMLID_1832_" x="422.6" y="70.1" class="st2" width="31.3" height="6.5"/>
					<g id="XMLID_1830_">
						<rect id="XMLID_1831_" x="422.6" y="43.8" class="st2" width="31.3" height="6.5"/>
					</g>
				</g>
				<g id="XMLID_1822_" class="st3">
					<circle id="XMLID_1828_" class="st4" cx="452.2" cy="71.9" r="0.8"/>
					<circle id="XMLID_1827_" class="st4" cx="446.6" cy="71.9" r="0.8"/>
					<circle id="XMLID_1826_" class="st4" cx="441" cy="71.9" r="0.8"/>
					<circle id="XMLID_1825_" class="st4" cx="435.3" cy="71.9" r="0.8"/>
					<circle id="XMLID_1824_" class="st4" cx="429.7" cy="71.9" r="0.8"/>
					<circle id="XMLID_1823_" class="st4" cx="424.1" cy="71.9" r="0.8"/>
				</g>
				<g id="XMLID_1815_" class="st3">
					<circle id="XMLID_1821_" class="st4" cx="452.2" cy="48.6" r="0.8"/>
					<circle id="XMLID_1820_" class="st4" cx="446.6" cy="48.6" r="0.8"/>
					<circle id="XMLID_1819_" class="st4" cx="441" cy="48.6" r="0.8"/>
					<circle id="XMLID_1818_" class="st4" cx="435.3" cy="48.6" r="0.8"/>
					<circle id="XMLID_1817_" class="st4" cx="429.7" cy="48.6" r="0.8"/>
					<circle id="XMLID_1816_" class="st4" cx="424.1" cy="48.6" r="0.8"/>
				</g>
				<rect id="XMLID_1814_" x="421.6" y="70.1" class="st5" width="1" height="6.5"/>
				<rect id="XMLID_1813_" x="453.9" y="70.1" class="st5" width="1" height="6.5"/>
				<rect id="XMLID_1812_" x="421.6" y="43.8" class="st5" width="1" height="6.5"/>
				<rect id="XMLID_1811_" x="453.9" y="43.8" class="st5" width="1" height="6.5"/>
			</g>
			<rect id="XMLID_1809_" x="421.6" y="50.3" class="st0" width="2.2" height="19.8"/>
			<rect id="XMLID_1808_" x="452.8" y="50.3" class="st0" width="2.2" height="19.8"/>
		</g>
		<path id="XMLID_1806_" class="st6" d="M422.8,60.7c0-6,0.4-11.7,1-16.9h-1.2h-1v6.5v19.8v6.5h1h1.1
			C423.1,71.7,422.8,66.3,422.8,60.7z"/>
		<path id="XMLID_1805_" class="st7" d="M448.6,52.6l2.2-2.2h1.9v19.8h-1.9l-2.2-2.2c-0.1,3-0.4,5.9-0.7,8.7h5.9h1v-6.5h0.1V50.3
			h-0.1v-6.5h-1h-6C448.2,46.6,448.4,49.5,448.6,52.6z"/>
	</g>
	<g id="XMLID_1837_">
		<g id="XMLID_1840_">
			<g id="XMLID_1843_">
				<g id="XMLID_1866_">
					
						<rect id="XMLID_1869_" x="405.6" y="43" transform="matrix(-0.7071 -0.7071 0.7071 -0.7071 653.1092 390.9512)" class="st0" width="3.8" height="34.4"/>
					
						<rect id="XMLID_1868_" x="405.6" y="43" transform="matrix(-0.7071 -0.7071 0.7071 -0.7071 653.1092 390.9512)" class="st1" width="3.8" height="34.4"/>
					
						<rect id="XMLID_1867_" x="405.6" y="43" transform="matrix(0.7071 -0.7071 0.7071 0.7071 76.7873 305.7984)" class="st0" width="3.8" height="34.4"/>
				</g>
				<g id="XMLID_1862_">
					<rect id="XMLID_1865_" x="391.9" y="70.1" class="st2" width="31.3" height="6.5"/>
					<g id="XMLID_1863_">
						<rect id="XMLID_1864_" x="391.9" y="43.8" class="st2" width="31.3" height="6.5"/>
					</g>
				</g>
				<g id="XMLID_1855_" class="st3">
					<circle id="XMLID_1861_" class="st4" cx="421.5" cy="71.9" r="0.8"/>
					<circle id="XMLID_1860_" class="st4" cx="415.9" cy="71.9" r="0.8"/>
					<circle id="XMLID_1859_" class="st4" cx="410.3" cy="71.9" r="0.8"/>
					<circle id="XMLID_1858_" class="st4" cx="404.6" cy="71.9" r="0.8"/>
					<circle id="XMLID_1857_" class="st4" cx="399" cy="71.9" r="0.8"/>
					<circle id="XMLID_1856_" class="st4" cx="393.4" cy="71.9" r="0.8"/>
				</g>
				<g id="XMLID_1848_" class="st3">
					<circle id="XMLID_1854_" class="st4" cx="421.5" cy="48.6" r="0.8"/>
					<circle id="XMLID_1853_" class="st4" cx="415.9" cy="48.6" r="0.8"/>
					<circle id="XMLID_1852_" class="st4" cx="410.3" cy="48.6" r="0.8"/>
					<circle id="XMLID_1851_" class="st4" cx="404.6" cy="48.6" r="0.8"/>
					<circle id="XMLID_1850_" class="st4" cx="399" cy="48.6" r="0.8"/>
					<circle id="XMLID_1849_" class="st4" cx="393.4" cy="48.6" r="0.8"/>
				</g>
				<rect id="XMLID_1847_" x="390.9" y="70.1" class="st5" width="1" height="6.5"/>
				<rect id="XMLID_1846_" x="423.2" y="70.1" class="st5" width="1" height="6.5"/>
				<rect id="XMLID_1845_" x="390.9" y="43.8" class="st5" width="1" height="6.5"/>
				<rect id="XMLID_1844_" x="423.2" y="43.8" class="st5" width="1" height="6.5"/>
			</g>
			<rect id="XMLID_1842_" x="390.9" y="50.3" class="st0" width="2.2" height="19.8"/>
			<rect id="XMLID_1841_" x="422.1" y="50.3" class="st0" width="2.2" height="19.8"/>
		</g>
		<path id="XMLID_1839_" class="st6" d="M392.1,60.7c0-6,0.4-11.7,1-16.9h-1.2h-1v6.5v19.8v6.5h1h1.1
			C392.4,71.7,392.1,66.3,392.1,60.7z"/>
		<path id="XMLID_1838_" class="st7" d="M417.9,52.6l2.2-2.2h1.9v19.8h-1.9l-2.2-2.2c-0.1,3-0.4,5.9-0.7,8.7h5.9h1v-6.5h0.1V50.3
			h-0.1v-6.5h-1h-6C417.4,46.6,417.7,49.5,417.9,52.6z"/>
	</g>
	<g id="XMLID_1870_">
		<g id="XMLID_1873_">
			<g id="XMLID_1876_">
				<g id="XMLID_1899_">
					
						<rect id="XMLID_1902_" x="374.9" y="43" transform="matrix(-0.7071 -0.7071 0.7071 -0.7071 600.69 369.2379)" class="st0" width="3.8" height="34.4"/>
					
						<rect id="XMLID_1901_" x="374.9" y="43" transform="matrix(-0.7071 -0.7071 0.7071 -0.7071 600.69 369.2379)" class="st1" width="3.8" height="34.4"/>
					
						<rect id="XMLID_1900_" x="374.9" y="43" transform="matrix(0.7071 -0.7071 0.7071 0.7071 67.7935 284.0854)" class="st0" width="3.8" height="34.4"/>
				</g>
				<g id="XMLID_1895_">
					<rect id="XMLID_1898_" x="361.2" y="70.1" class="st2" width="31.3" height="6.5"/>
					<g id="XMLID_1896_">
						<rect id="XMLID_1897_" x="361.2" y="43.8" class="st2" width="31.3" height="6.5"/>
					</g>
				</g>
				<g id="XMLID_1888_" class="st3">
					<circle id="XMLID_1894_" class="st4" cx="390.8" cy="71.9" r="0.8"/>
					<circle id="XMLID_1893_" class="st4" cx="385.2" cy="71.9" r="0.8"/>
					<circle id="XMLID_1892_" class="st4" cx="379.6" cy="71.9" r="0.8"/>
					<circle id="XMLID_1891_" class="st4" cx="373.9" cy="71.9" r="0.8"/>
					<circle id="XMLID_1890_" class="st4" cx="368.3" cy="71.9" r="0.8"/>
					<circle id="XMLID_1889_" class="st4" cx="362.7" cy="71.9" r="0.8"/>
				</g>
				<g id="XMLID_1881_" class="st3">
					<circle id="XMLID_1887_" class="st4" cx="390.8" cy="48.6" r="0.8"/>
					<circle id="XMLID_1886_" class="st4" cx="385.2" cy="48.6" r="0.8"/>
					<circle id="XMLID_1885_" class="st4" cx="379.6" cy="48.6" r="0.8"/>
					<circle id="XMLID_1884_" class="st4" cx="373.9" cy="48.6" r="0.8"/>
					<circle id="XMLID_1883_" class="st4" cx="368.3" cy="48.6" r="0.8"/>
					<circle id="XMLID_1882_" class="st4" cx="362.7" cy="48.6" r="0.8"/>
				</g>
				<rect id="XMLID_1880_" x="360.2" y="70.1" class="st5" width="1" height="6.5"/>
				<rect id="XMLID_1879_" x="392.4" y="70.1" class="st5" width="1" height="6.5"/>
				<rect id="XMLID_1878_" x="360.2" y="43.8" class="st5" width="1" height="6.5"/>
				<rect id="XMLID_1877_" x="392.4" y="43.8" class="st5" width="1" height="6.5"/>
			</g>
			<rect id="XMLID_1875_" x="360.2" y="50.3" class="st0" width="2.2" height="19.8"/>
			<rect id="XMLID_1874_" x="391.4" y="50.3" class="st0" width="2.2" height="19.8"/>
		</g>
		<path id="XMLID_1872_" class="st6" d="M361.4,60.7c0-6,0.4-11.7,1-16.9h-1.2h-1v6.5v19.8v6.5h1h1.1
			C361.7,71.7,361.4,66.3,361.4,60.7z"/>
		<path id="XMLID_1871_" class="st7" d="M387.2,52.6l2.2-2.2h1.9v19.8h-1.9l-2.2-2.2c-0.1,3-0.4,5.9-0.7,8.7h5.9h1v-6.5h0.1V50.3
			h-0.1v-6.5h-1h-6C386.7,46.6,387,49.5,387.2,52.6z"/>
	</g>
	<g id="XMLID_1903_">
		<g id="XMLID_1906_">
			<g id="XMLID_1909_">
				<g id="XMLID_1932_">
					
						<rect id="XMLID_1935_" x="344.2" y="43" transform="matrix(-0.7071 -0.7071 0.7071 -0.7071 548.2708 347.5245)" class="st0" width="3.8" height="34.4"/>
					
						<rect id="XMLID_1934_" x="344.2" y="43" transform="matrix(-0.7071 -0.7071 0.7071 -0.7071 548.2708 347.5245)" class="st1" width="3.8" height="34.4"/>
					
						<rect id="XMLID_1933_" x="344.2" y="43" transform="matrix(0.7071 -0.7071 0.7071 0.7071 58.7998 262.3726)" class="st0" width="3.8" height="34.4"/>
				</g>
				<g id="XMLID_1928_">
					<rect id="XMLID_1931_" x="330.5" y="70.1" class="st2" width="31.3" height="6.5"/>
					<g id="XMLID_1929_">
						<rect id="XMLID_1930_" x="330.5" y="43.8" class="st2" width="31.3" height="6.5"/>
					</g>
				</g>
				<g id="XMLID_1921_" class="st3">
					<circle id="XMLID_1927_" class="st4" cx="360.1" cy="71.9" r="0.8"/>
					<circle id="XMLID_1926_" class="st4" cx="354.5" cy="71.9" r="0.8"/>
					<circle id="XMLID_1925_" class="st4" cx="348.9" cy="71.9" r="0.8"/>
					<circle id="XMLID_1924_" class="st4" cx="343.2" cy="71.9" r="0.8"/>
					<circle id="XMLID_1923_" class="st4" cx="337.6" cy="71.9" r="0.8"/>
					<circle id="XMLID_1922_" class="st4" cx="332" cy="71.9" r="0.8"/>
				</g>
				<g id="XMLID_1914_" class="st3">
					<circle id="XMLID_1920_" class="st4" cx="360.1" cy="48.6" r="0.8"/>
					<circle id="XMLID_1919_" class="st4" cx="354.5" cy="48.6" r="0.8"/>
					<circle id="XMLID_1918_" class="st4" cx="348.9" cy="48.6" r="0.8"/>
					<circle id="XMLID_1917_" class="st4" cx="343.2" cy="48.6" r="0.8"/>
					<circle id="XMLID_1916_" class="st4" cx="337.6" cy="48.6" r="0.8"/>
					<circle id="XMLID_1915_" class="st4" cx="332" cy="48.6" r="0.8"/>
				</g>
				<rect id="XMLID_1913_" x="329.5" y="70.1" class="st5" width="1" height="6.5"/>
				<rect id="XMLID_1912_" x="361.7" y="70.1" class="st5" width="1" height="6.5"/>
				<rect id="XMLID_1911_" x="329.5" y="43.8" class="st5" width="1" height="6.5"/>
				<rect id="XMLID_1910_" x="361.7" y="43.8" class="st5" width="1" height="6.5"/>
			</g>
			<rect id="XMLID_1908_" x="329.5" y="50.3" class="st0" width="2.2" height="19.8"/>
			<rect id="XMLID_1907_" x="360.7" y="50.3" class="st0" width="2.2" height="19.8"/>
		</g>
		<path id="XMLID_1905_" class="st6" d="M330.7,60.7c0-6,0.4-11.7,1-16.9h-1.2h-1v6.5v19.8v6.5h1h1.1
			C331,71.7,330.7,66.3,330.7,60.7z"/>
		<path id="XMLID_1904_" class="st7" d="M356.5,52.6l2.2-2.2h1.9v19.8h-1.9l-2.2-2.2c-0.1,3-0.4,5.9-0.7,8.7h5.9h1v-6.5h0.1V50.3
			h-0.1v-6.5h-1h-6C356,46.6,356.3,49.5,356.5,52.6z"/>
	</g>
	<g id="XMLID_1936_">
		<g id="XMLID_1939_">
			<g id="XMLID_1942_">
				<g id="XMLID_1965_">
					
						<rect id="XMLID_1968_" x="313.5" y="43" transform="matrix(-0.7071 -0.7071 0.7071 -0.7071 495.8516 325.8112)" class="st0" width="3.8" height="34.4"/>
					
						<rect id="XMLID_1967_" x="313.5" y="43" transform="matrix(-0.7071 -0.7071 0.7071 -0.7071 495.8516 325.8112)" class="st1" width="3.8" height="34.4"/>
					
						<rect id="XMLID_1966_" x="313.5" y="43" transform="matrix(0.7071 -0.7071 0.7071 0.7071 49.806 240.6597)" class="st0" width="3.8" height="34.4"/>
				</g>
				<g id="XMLID_1961_">
					<rect id="XMLID_1964_" x="299.8" y="70.1" class="st2" width="31.3" height="6.5"/>
					<g id="XMLID_1962_">
						<rect id="XMLID_1963_" x="299.8" y="43.8" class="st2" width="31.3" height="6.5"/>
					</g>
				</g>
				<g id="XMLID_1954_" class="st3">
					<circle id="XMLID_1960_" class="st4" cx="329.4" cy="71.9" r="0.8"/>
					<circle id="XMLID_1959_" class="st4" cx="323.8" cy="71.9" r="0.8"/>
					<circle id="XMLID_1958_" class="st4" cx="318.1" cy="71.9" r="0.8"/>
					<circle id="XMLID_1957_" class="st4" cx="312.5" cy="71.9" r="0.8"/>
					<circle id="XMLID_1956_" class="st4" cx="306.9" cy="71.9" r="0.8"/>
					<circle id="XMLID_1955_" class="st4" cx="301.3" cy="71.9" r="0.8"/>
				</g>
				<g id="XMLID_1947_" class="st3">
					<circle id="XMLID_1953_" class="st4" cx="329.4" cy="48.6" r="0.8"/>
					<circle id="XMLID_1952_" class="st4" cx="323.8" cy="48.6" r="0.8"/>
					<circle id="XMLID_1951_" class="st4" cx="318.1" cy="48.6" r="0.8"/>
					<circle id="XMLID_1950_" class="st4" cx="312.5" cy="48.6" r="0.8"/>
					<circle id="XMLID_1949_" class="st4" cx="306.9" cy="48.6" r="0.8"/>
					<circle id="XMLID_1948_" class="st4" cx="301.3" cy="48.6" r="0.8"/>
				</g>
				<rect id="XMLID_1946_" x="298.8" y="70.1" class="st5" width="1" height="6.5"/>
				<rect id="XMLID_1945_" x="331" y="70.1" class="st5" width="1" height="6.5"/>
				<rect id="XMLID_1944_" x="298.8" y="43.8" class="st5" width="1" height="6.5"/>
				<rect id="XMLID_1943_" x="331" y="43.8" class="st5" width="1" height="6.5"/>
			</g>
			<rect id="XMLID_1941_" x="298.8" y="50.3" class="st0" width="2.2" height="19.8"/>
			<rect id="XMLID_1940_" x="329.9" y="50.3" class="st0" width="2.2" height="19.8"/>
		</g>
		<path id="XMLID_1938_" class="st6" d="M300,60.7c0-6,0.4-11.7,1-16.9h-1.2h-1v6.5v19.8v6.5h1h1.1C300.3,71.7,300,66.3,300,60.7z"
			/>
		<path id="XMLID_1937_" class="st7" d="M325.8,52.6l2.2-2.2h1.9v19.8H328l-2.2-2.2c-0.1,3-0.4,5.9-0.7,8.7h5.9h1v-6.5h0.1V50.3H332
			v-6.5h-1h-6C325.3,46.6,325.6,49.5,325.8,52.6z"/>
	</g>
	<g id="XMLID_1969_">
		<g id="XMLID_1972_">
			<g id="XMLID_1975_">
				<g id="XMLID_1998_">
					
						<rect id="XMLID_2001_" x="282.8" y="43" transform="matrix(-0.7071 -0.7071 0.7071 -0.7071 443.4323 304.0978)" class="st0" width="3.8" height="34.4"/>
					
						<rect id="XMLID_2000_" x="282.8" y="43" transform="matrix(-0.7071 -0.7071 0.7071 -0.7071 443.4323 304.0978)" class="st1" width="3.8" height="34.4"/>
					
						<rect id="XMLID_1999_" x="282.8" y="43" transform="matrix(0.7071 -0.7071 0.7071 0.7071 40.8122 218.9467)" class="st0" width="3.8" height="34.4"/>
				</g>
				<g id="XMLID_1994_">
					<rect id="XMLID_1997_" x="269.1" y="70.1" class="st2" width="31.3" height="6.5"/>
					<g id="XMLID_1995_">
						<rect id="XMLID_1996_" x="269.1" y="43.8" class="st2" width="31.3" height="6.5"/>
					</g>
				</g>
				<g id="XMLID_1987_" class="st3">
					<circle id="XMLID_1993_" class="st4" cx="298.7" cy="71.9" r="0.8"/>
					<circle id="XMLID_1992_" class="st4" cx="293.1" cy="71.9" r="0.8"/>
					<circle id="XMLID_1991_" class="st4" cx="287.4" cy="71.9" r="0.8"/>
					<circle id="XMLID_1990_" class="st4" cx="281.8" cy="71.9" r="0.8"/>
					<circle id="XMLID_1989_" class="st4" cx="276.2" cy="71.9" r="0.8"/>
					<circle id="XMLID_1988_" class="st4" cx="270.6" cy="71.9" r="0.8"/>
				</g>
				<g id="XMLID_1980_" class="st3">
					<circle id="XMLID_1986_" class="st4" cx="298.7" cy="48.6" r="0.8"/>
					<circle id="XMLID_1985_" class="st4" cx="293.1" cy="48.6" r="0.8"/>
					<circle id="XMLID_1984_" class="st4" cx="287.4" cy="48.6" r="0.8"/>
					<circle id="XMLID_1983_" class="st4" cx="281.8" cy="48.6" r="0.8"/>
					<circle id="XMLID_1982_" class="st4" cx="276.2" cy="48.6" r="0.8"/>
					<circle id="XMLID_1981_" class="st4" cx="270.6" cy="48.6" r="0.8"/>
				</g>
				<rect id="XMLID_1979_" x="268.1" y="70.1" class="st5" width="1" height="6.5"/>
				<rect id="XMLID_1978_" x="300.3" y="70.1" class="st5" width="1" height="6.5"/>
				<rect id="XMLID_1977_" x="268.1" y="43.8" class="st5" width="1" height="6.5"/>
				<rect id="XMLID_1976_" x="300.3" y="43.8" class="st5" width="1" height="6.5"/>
			</g>
			<rect id="XMLID_1974_" x="268.1" y="50.3" class="st0" width="2.2" height="19.8"/>
			<rect id="XMLID_1973_" x="299.2" y="50.3" class="st0" width="2.2" height="19.8"/>
		</g>
		<path id="XMLID_1971_" class="st6" d="M269.3,60.7c0-6,0.4-11.7,1-16.9h-1.2h-1v6.5v19.8v6.5h1h1.1
			C269.6,71.7,269.3,66.3,269.3,60.7z"/>
		<path id="XMLID_1970_" class="st7" d="M295.1,52.6l2.2-2.2h1.9v19.8h-1.9l-2.2-2.2c-0.1,3-0.4,5.9-0.7,8.7h5.9h1v-6.5h0.1V50.3
			h-0.1v-6.5h-1h-6C294.6,46.6,294.9,49.5,295.1,52.6z"/>
	</g>
	<g id="XMLID_2002_">
		<g id="XMLID_2005_">
			<g id="XMLID_2008_">
				<g id="XMLID_2038_">
					
						<rect id="XMLID_2041_" x="252.1" y="43" transform="matrix(-0.7071 -0.7071 0.7071 -0.7071 391.0131 282.3845)" class="st0" width="3.8" height="34.4"/>
					
						<rect id="XMLID_2040_" x="252.1" y="43" transform="matrix(-0.7071 -0.7071 0.7071 -0.7071 391.0131 282.3845)" class="st1" width="3.8" height="34.4"/>
					
						<rect id="XMLID_2039_" x="252.1" y="43" transform="matrix(0.7071 -0.7071 0.7071 0.7071 31.8185 197.2338)" class="st0" width="3.8" height="34.4"/>
				</g>
				<g id="XMLID_2034_">
					<rect id="XMLID_2037_" x="238.4" y="70.1" class="st2" width="31.3" height="6.5"/>
					<g id="XMLID_2035_">
						<rect id="XMLID_2036_" x="238.4" y="43.8" class="st2" width="31.3" height="6.5"/>
					</g>
				</g>
				<g id="XMLID_2027_" class="st3">
					<circle id="XMLID_2033_" class="st4" cx="268" cy="71.9" r="0.8"/>
					<circle id="XMLID_2032_" class="st4" cx="262.4" cy="71.9" r="0.8"/>
					<circle id="XMLID_2031_" class="st4" cx="256.7" cy="71.9" r="0.8"/>
					<circle id="XMLID_2030_" class="st4" cx="251.1" cy="71.9" r="0.8"/>
					<circle id="XMLID_2029_" class="st4" cx="245.5" cy="71.9" r="0.8"/>
					<circle id="XMLID_2028_" class="st4" cx="239.9" cy="71.9" r="0.8"/>
				</g>
				<g id="XMLID_2020_" class="st3">
					<circle id="XMLID_2026_" class="st4" cx="268" cy="48.6" r="0.8"/>
					<circle id="XMLID_2025_" class="st4" cx="262.4" cy="48.6" r="0.8"/>
					<circle id="XMLID_2024_" class="st4" cx="256.7" cy="48.6" r="0.8"/>
					<circle id="XMLID_2023_" class="st4" cx="251.1" cy="48.6" r="0.8"/>
					<circle id="XMLID_2022_" class="st4" cx="245.5" cy="48.6" r="0.8"/>
					<circle id="XMLID_2021_" class="st4" cx="239.9" cy="48.6" r="0.8"/>
				</g>
				<rect id="XMLID_2019_" x="237.4" y="70.1" class="st5" width="1" height="6.5"/>
				<rect id="XMLID_2018_" x="269.6" y="70.1" class="st5" width="1" height="6.5"/>
				<rect id="XMLID_2017_" x="237.4" y="43.8" class="st5" width="1" height="6.5"/>
				<rect id="XMLID_2016_" x="269.6" y="43.8" class="st5" width="1" height="6.5"/>
			</g>
			<rect id="XMLID_2007_" x="237.4" y="50.3" class="st0" width="2.2" height="19.8"/>
			<rect id="XMLID_2006_" x="268.5" y="50.3" class="st0" width="2.2" height="19.8"/>
		</g>
		<path id="XMLID_2004_" class="st6" d="M238.6,60.7c0-6,0.4-11.7,1-16.9h-1.2h-1v6.5v19.8v6.5h1h1.1
			C238.9,71.7,238.6,66.3,238.6,60.7z"/>
		<path id="XMLID_2003_" class="st7" d="M264.3,52.6l2.2-2.2h1.9v19.8h-1.9l-2.2-2.2c-0.1,3-0.4,5.9-0.7,8.7h5.9h1v-6.5h0.1V50.3
			h-0.1v-6.5h-1h-6C263.9,46.6,264.2,49.5,264.3,52.6z"/>
	</g>
	<g id="XMLID_2042_">
		<g id="XMLID_2045_">
			<g id="XMLID_2048_">
				<g id="XMLID_2071_">
					
						<rect id="XMLID_2074_" x="221.4" y="43" transform="matrix(-0.7071 -0.7071 0.7071 -0.7071 338.5939 260.6711)" class="st0" width="3.8" height="34.4"/>
					
						<rect id="XMLID_2073_" x="221.4" y="43" transform="matrix(-0.7071 -0.7071 0.7071 -0.7071 338.5939 260.6711)" class="st1" width="3.8" height="34.4"/>
					
						<rect id="XMLID_2072_" x="221.4" y="43" transform="matrix(0.7071 -0.7071 0.7071 0.7071 22.8247 175.5209)" class="st0" width="3.8" height="34.4"/>
				</g>
				<g id="XMLID_2067_">
					<rect id="XMLID_2070_" x="207.7" y="70.1" class="st2" width="31.3" height="6.5"/>
					<g id="XMLID_2068_">
						<rect id="XMLID_2069_" x="207.7" y="43.8" class="st2" width="31.3" height="6.5"/>
					</g>
				</g>
				<g id="XMLID_2060_" class="st3">
					<circle id="XMLID_2066_" class="st4" cx="237.3" cy="71.9" r="0.8"/>
					<circle id="XMLID_2065_" class="st4" cx="231.7" cy="71.9" r="0.8"/>
					<circle id="XMLID_2064_" class="st4" cx="226" cy="71.9" r="0.8"/>
					<circle id="XMLID_2063_" class="st4" cx="220.4" cy="71.9" r="0.8"/>
					<circle id="XMLID_2062_" class="st4" cx="214.8" cy="71.9" r="0.8"/>
					<circle id="XMLID_2061_" class="st4" cx="209.2" cy="71.9" r="0.8"/>
				</g>
				<g id="XMLID_2053_" class="st3">
					<circle id="XMLID_2059_" class="st4" cx="237.3" cy="48.6" r="0.8"/>
					<circle id="XMLID_2058_" class="st4" cx="231.7" cy="48.6" r="0.8"/>
					<circle id="XMLID_2057_" class="st4" cx="226" cy="48.6" r="0.8"/>
					<circle id="XMLID_2056_" class="st4" cx="220.4" cy="48.6" r="0.8"/>
					<circle id="XMLID_2055_" class="st4" cx="214.8" cy="48.6" r="0.8"/>
					<circle id="XMLID_2054_" class="st4" cx="209.2" cy="48.6" r="0.8"/>
				</g>
				<rect id="XMLID_2052_" x="206.7" y="70.1" class="st5" width="1" height="6.5"/>
				<rect id="XMLID_2051_" x="238.9" y="70.1" class="st5" width="1" height="6.5"/>
				<rect id="XMLID_2050_" x="206.7" y="43.8" class="st5" width="1" height="6.5"/>
				<rect id="XMLID_2049_" x="238.9" y="43.8" class="st5" width="1" height="6.5"/>
			</g>
			<rect id="XMLID_2047_" x="206.7" y="50.3" class="st0" width="2.2" height="19.8"/>
			<rect id="XMLID_2046_" x="237.8" y="50.3" class="st0" width="2.2" height="19.8"/>
		</g>
		<path id="XMLID_2044_" class="st6" d="M207.9,60.7c0-6,0.4-11.7,1-16.9h-1.2h-1v6.5v19.8v6.5h1h1.1
			C208.2,71.7,207.9,66.3,207.9,60.7z"/>
		<path id="XMLID_2043_" class="st7" d="M233.6,52.6l2.2-2.2h1.9v19.8h-1.9l-2.2-2.2c-0.1,3-0.4,5.9-0.7,8.7h5.9h1v-6.5h0.1V50.3
			h-0.1v-6.5h-1h-6C233.2,46.6,233.5,49.5,233.6,52.6z"/>
	</g>
	<g id="XMLID_2075_">
		<g id="XMLID_2078_">
			<g id="XMLID_2081_">
				<g id="XMLID_2104_">
					
						<rect id="XMLID_2107_" x="190.7" y="43" transform="matrix(-0.7071 -0.7071 0.7071 -0.7071 286.1747 238.9577)" class="st0" width="3.8" height="34.4"/>
					
						<rect id="XMLID_2106_" x="190.7" y="43" transform="matrix(-0.7071 -0.7071 0.7071 -0.7071 286.1747 238.9577)" class="st1" width="3.8" height="34.4"/>
					
						<rect id="XMLID_2105_" x="190.7" y="43" transform="matrix(0.7071 -0.7071 0.7071 0.7071 13.8309 153.808)" class="st0" width="3.8" height="34.4"/>
				</g>
				<g id="XMLID_2100_">
					<rect id="XMLID_2103_" x="177" y="70.1" class="st2" width="31.3" height="6.5"/>
					<g id="XMLID_2101_">
						<rect id="XMLID_2102_" x="177" y="43.8" class="st2" width="31.3" height="6.5"/>
					</g>
				</g>
				<g id="XMLID_2093_" class="st3">
					<circle id="XMLID_2099_" class="st4" cx="206.6" cy="71.9" r="0.8"/>
					<circle id="XMLID_2098_" class="st4" cx="200.9" cy="71.9" r="0.8"/>
					<circle id="XMLID_2097_" class="st4" cx="195.3" cy="71.9" r="0.8"/>
					<circle id="XMLID_2096_" class="st4" cx="189.7" cy="71.9" r="0.8"/>
					<circle id="XMLID_2095_" class="st4" cx="184.1" cy="71.9" r="0.8"/>
					<circle id="XMLID_2094_" class="st4" cx="178.4" cy="71.9" r="0.8"/>
				</g>
				<g id="XMLID_2086_" class="st3">
					<circle id="XMLID_2092_" class="st4" cx="206.6" cy="48.6" r="0.8"/>
					<circle id="XMLID_2091_" class="st4" cx="200.9" cy="48.6" r="0.8"/>
					<circle id="XMLID_2090_" class="st4" cx="195.3" cy="48.6" r="0.8"/>
					<circle id="XMLID_2089_" class="st4" cx="189.7" cy="48.6" r="0.8"/>
					<circle id="XMLID_2088_" class="st4" cx="184.1" cy="48.6" r="0.8"/>
					<circle id="XMLID_2087_" class="st4" cx="178.4" cy="48.6" r="0.8"/>
				</g>
				<rect id="XMLID_2085_" x="176" y="70.1" class="st5" width="1" height="6.5"/>
				<rect id="XMLID_2084_" x="208.2" y="70.1" class="st5" width="1" height="6.5"/>
				<rect id="XMLID_2083_" x="176" y="43.8" class="st5" width="1" height="6.5"/>
				<rect id="XMLID_2082_" x="208.2" y="43.8" class="st5" width="1" height="6.5"/>
			</g>
			<rect id="XMLID_2080_" x="176" y="50.3" class="st0" width="2.2" height="19.8"/>
			<rect id="XMLID_2079_" x="207.1" y="50.3" class="st0" width="2.2" height="19.8"/>
		</g>
		<path id="XMLID_2077_" class="st6" d="M177.2,60.7c0-6,0.4-11.7,1-16.9H177h-1v6.5v19.8v6.5h1h1.1
			C177.5,71.7,177.2,66.3,177.2,60.7z"/>
		<path id="XMLID_2076_" class="st7" d="M202.9,52.6l2.2-2.2h1.9v19.8h-1.9l-2.2-2.2c-0.1,3-0.4,5.9-0.7,8.7h5.9h1v-6.5h0.1V50.3
			h-0.1v-6.5h-1h-6C202.5,46.6,202.8,49.5,202.9,52.6z"/>
	</g>
	<g id="XMLID_2108_">
		<g id="XMLID_2111_">
			<g id="XMLID_2114_">
				<g id="XMLID_2137_">
					
						<rect id="XMLID_2140_" x="160" y="43" transform="matrix(-0.7071 -0.7071 0.7071 -0.7071 233.7555 217.2444)" class="st0" width="3.8" height="34.4"/>
					
						<rect id="XMLID_2139_" x="160" y="43" transform="matrix(-0.7071 -0.7071 0.7071 -0.7071 233.7555 217.2444)" class="st1" width="3.8" height="34.4"/>
					
						<rect id="XMLID_2138_" x="160" y="43" transform="matrix(0.7071 -0.7071 0.7071 0.7071 4.8372 132.0951)" class="st0" width="3.8" height="34.4"/>
				</g>
				<g id="XMLID_2133_">
					<rect id="XMLID_2136_" x="146.2" y="70.1" class="st2" width="31.3" height="6.5"/>
					<g id="XMLID_2134_">
						<rect id="XMLID_2135_" x="146.2" y="43.8" class="st2" width="31.3" height="6.5"/>
					</g>
				</g>
				<g id="XMLID_2126_" class="st3">
					<circle id="XMLID_2132_" class="st4" cx="175.9" cy="71.9" r="0.8"/>
					<circle id="XMLID_2131_" class="st4" cx="170.2" cy="71.9" r="0.8"/>
					<circle id="XMLID_2130_" class="st4" cx="164.6" cy="71.9" r="0.8"/>
					<circle id="XMLID_2129_" class="st4" cx="159" cy="71.9" r="0.8"/>
					<circle id="XMLID_2128_" class="st4" cx="153.4" cy="71.9" r="0.8"/>
					<circle id="XMLID_2127_" class="st4" cx="147.7" cy="71.9" r="0.8"/>
				</g>
				<g id="XMLID_2119_" class="st3">
					<circle id="XMLID_2125_" class="st4" cx="175.9" cy="48.6" r="0.8"/>
					<circle id="XMLID_2124_" class="st4" cx="170.2" cy="48.6" r="0.8"/>
					<circle id="XMLID_2123_" class="st4" cx="164.6" cy="48.6" r="0.8"/>
					<circle id="XMLID_2122_" class="st4" cx="159" cy="48.6" r="0.8"/>
					<circle id="XMLID_2121_" class="st4" cx="153.4" cy="48.6" r="0.8"/>
					<circle id="XMLID_2120_" class="st4" cx="147.7" cy="48.6" r="0.8"/>
				</g>
				<rect id="XMLID_2118_" x="145.3" y="70.1" class="st5" width="1" height="6.5"/>
				<rect id="XMLID_2117_" x="177.5" y="70.1" class="st5" width="1" height="6.5"/>
				<rect id="XMLID_2116_" x="145.3" y="43.8" class="st5" width="1" height="6.5"/>
				<rect id="XMLID_2115_" x="177.5" y="43.8" class="st5" width="1" height="6.5"/>
			</g>
			<rect id="XMLID_2113_" x="145.3" y="50.3" class="st0" width="2.2" height="19.8"/>
			<rect id="XMLID_2112_" x="176.4" y="50.3" class="st0" width="2.2" height="19.8"/>
		</g>
		<path id="XMLID_2110_" class="st6" d="M146.5,60.7c0-6,0.4-11.7,1-16.9h-1.2h-1v6.5v19.8v6.5h1h1.1
			C146.8,71.7,146.5,66.3,146.5,60.7z"/>
		<path id="XMLID_2109_" class="st7" d="M172.2,52.6l2.2-2.2h1.9v19.8h-1.9l-2.2-2.2c-0.1,3-0.4,5.9-0.7,8.7h5.9h1v-6.5h0.1V50.3
			h-0.1v-6.5h-1h-6C171.8,46.6,172.1,49.5,172.2,52.6z"/>
	</g>
	<g id="XMLID_2141_">
		<g id="XMLID_2144_">
			<g id="XMLID_2147_">
				<g id="XMLID_2170_">
					
						<rect id="XMLID_2173_" x="129.2" y="43" transform="matrix(-0.7071 -0.7071 0.7071 -0.7071 181.3363 195.5311)" class="st0" width="3.8" height="34.4"/>
					
						<rect id="XMLID_2172_" x="129.2" y="43" transform="matrix(-0.7071 -0.7071 0.7071 -0.7071 181.3363 195.5311)" class="st1" width="3.8" height="34.4"/>
					
						<rect id="XMLID_2171_" x="129.2" y="43" transform="matrix(0.7071 -0.7071 0.7071 0.7071 -4.1566 110.3822)" class="st0" width="3.8" height="34.4"/>
				</g>
				<g id="XMLID_2166_">
					<rect id="XMLID_2169_" x="115.5" y="70.1" class="st2" width="31.3" height="6.5"/>
					<g id="XMLID_2167_">
						<rect id="XMLID_2168_" x="115.5" y="43.8" class="st2" width="31.3" height="6.5"/>
					</g>
				</g>
				<g id="XMLID_2159_" class="st3">
					<circle id="XMLID_2165_" class="st4" cx="145.2" cy="71.9" r="0.8"/>
					<circle id="XMLID_2164_" class="st4" cx="139.5" cy="71.9" r="0.8"/>
					<circle id="XMLID_2163_" class="st4" cx="133.9" cy="71.9" r="0.8"/>
					<circle id="XMLID_2162_" class="st4" cx="128.3" cy="71.9" r="0.8"/>
					<circle id="XMLID_2161_" class="st4" cx="122.7" cy="71.9" r="0.8"/>
					<circle id="XMLID_2160_" class="st4" cx="117" cy="71.9" r="0.8"/>
				</g>
				<g id="XMLID_2152_" class="st3">
					<circle id="XMLID_2158_" class="st4" cx="145.2" cy="48.6" r="0.8"/>
					<circle id="XMLID_2157_" class="st4" cx="139.5" cy="48.6" r="0.8"/>
					<circle id="XMLID_2156_" class="st4" cx="133.9" cy="48.6" r="0.8"/>
					<circle id="XMLID_2155_" class="st4" cx="128.3" cy="48.6" r="0.8"/>
					<circle id="XMLID_2154_" class="st4" cx="122.7" cy="48.6" r="0.8"/>
					<circle id="XMLID_2153_" class="st4" cx="117" cy="48.6" r="0.8"/>
				</g>
				<rect id="XMLID_2151_" x="114.6" y="70.1" class="st5" width="1" height="6.5"/>
				<rect id="XMLID_2150_" x="146.8" y="70.1" class="st5" width="1" height="6.5"/>
				<rect id="XMLID_2149_" x="114.6" y="43.8" class="st5" width="1" height="6.5"/>
				<rect id="XMLID_2148_" x="146.8" y="43.8" class="st5" width="1" height="6.5"/>
			</g>
			<rect id="XMLID_2146_" x="114.6" y="50.3" class="st0" width="2.2" height="19.8"/>
			<rect id="XMLID_2145_" x="145.7" y="50.3" class="st0" width="2.2" height="19.8"/>
		</g>
		<path id="XMLID_2143_" class="st6" d="M115.8,60.7c0-6,0.4-11.7,1-16.9h-1.2h-1v6.5v19.8v6.5h1h1.1
			C116.1,71.7,115.8,66.3,115.8,60.7z"/>
		<path id="XMLID_2142_" class="st7" d="M141.5,52.6l2.2-2.2h1.9v19.8h-1.9l-2.2-2.2c-0.1,3-0.4,5.9-0.7,8.7h5.9h1v-6.5h0.1V50.3
			h-0.1v-6.5h-1h-6C141.1,46.6,141.3,49.5,141.5,52.6z"/>
	</g>
	<g id="XMLID_2174_">
		<g id="XMLID_2177_">
			<g id="XMLID_2180_">
				<g id="XMLID_2203_">
					
						<rect id="XMLID_2206_" x="98.5" y="43" transform="matrix(-0.7071 -0.7071 0.7071 -0.7071 128.917 173.8177)" class="st0" width="3.8" height="34.4"/>
					
						<rect id="XMLID_2205_" x="98.5" y="43" transform="matrix(-0.7071 -0.7071 0.7071 -0.7071 128.917 173.8177)" class="st1" width="3.8" height="34.4"/>
					
						<rect id="XMLID_2204_" x="98.5" y="43" transform="matrix(0.7071 -0.7071 0.7071 0.7071 -13.1504 88.6693)" class="st0" width="3.8" height="34.4"/>
				</g>
				<g id="XMLID_2199_">
					<rect id="XMLID_2202_" x="84.8" y="70.1" class="st2" width="31.3" height="6.5"/>
					<g id="XMLID_2200_">
						<rect id="XMLID_2201_" x="84.8" y="43.8" class="st2" width="31.3" height="6.5"/>
					</g>
				</g>
				<g id="XMLID_2192_" class="st3">
					<circle id="XMLID_2198_" class="st4" cx="114.5" cy="71.9" r="0.8"/>
					<circle id="XMLID_2197_" class="st4" cx="108.8" cy="71.9" r="0.8"/>
					<circle id="XMLID_2196_" class="st4" cx="103.2" cy="71.9" r="0.8"/>
					<circle id="XMLID_2195_" class="st4" cx="97.6" cy="71.9" r="0.8"/>
					<circle id="XMLID_2194_" class="st4" cx="92" cy="71.9" r="0.8"/>
					<circle id="XMLID_2193_" class="st4" cx="86.3" cy="71.9" r="0.8"/>
				</g>
				<g id="XMLID_2185_" class="st3">
					<circle id="XMLID_2191_" class="st4" cx="114.5" cy="48.6" r="0.8"/>
					<circle id="XMLID_2190_" class="st4" cx="108.8" cy="48.6" r="0.8"/>
					<circle id="XMLID_2189_" class="st4" cx="103.2" cy="48.6" r="0.8"/>
					<circle id="XMLID_2188_" class="st4" cx="97.6" cy="48.6" r="0.8"/>
					<circle id="XMLID_2187_" class="st4" cx="92" cy="48.6" r="0.8"/>
					<circle id="XMLID_2186_" class="st4" cx="86.3" cy="48.6" r="0.8"/>
				</g>
				<rect id="XMLID_2184_" x="83.8" y="70.1" class="st5" width="1" height="6.5"/>
				<rect id="XMLID_2183_" x="116.1" y="70.1" class="st5" width="1" height="6.5"/>
				<rect id="XMLID_2182_" x="83.8" y="43.8" class="st5" width="1" height="6.5"/>
				<rect id="XMLID_2181_" x="116.1" y="43.8" class="st5" width="1" height="6.5"/>
			</g>
			<rect id="XMLID_2179_" x="83.8" y="50.3" class="st0" width="2.2" height="19.8"/>
			<rect id="XMLID_2178_" x="115" y="50.3" class="st0" width="2.2" height="19.8"/>
		</g>
		<path id="XMLID_2176_" class="st6" d="M85.1,60.7c0-6,0.4-11.7,1-16.9h-1.2h-1v6.5v19.8v6.5h1h1.1C85.4,71.7,85.1,66.3,85.1,60.7z
			"/>
		<path id="XMLID_2175_" class="st7" d="M110.8,52.6l2.2-2.2h1.9v19.8h-1.9l-2.2-2.2c-0.1,3-0.4,5.9-0.7,8.7h5.9h1v-6.5h0.1V50.3
			h-0.1v-6.5h-1h-6C110.4,46.6,110.6,49.5,110.8,52.6z"/>
	</g>
	<g id="XMLID_2207_">
		<g id="XMLID_2210_">
			<g id="XMLID_2213_">
				<g id="XMLID_2236_">
					
						<rect id="XMLID_2239_" x="67.8" y="43" transform="matrix(-0.7071 -0.7071 0.7071 -0.7071 76.4978 152.1044)" class="st0" width="3.8" height="34.4"/>
					
						<rect id="XMLID_2238_" x="67.8" y="43" transform="matrix(-0.7071 -0.7071 0.7071 -0.7071 76.4978 152.1044)" class="st1" width="3.8" height="34.4"/>
					
						<rect id="XMLID_2237_" x="67.8" y="43" transform="matrix(0.7071 -0.7071 0.7071 0.7071 -22.1441 66.9564)" class="st0" width="3.8" height="34.4"/>
				</g>
				<g id="XMLID_2232_">
					<rect id="XMLID_2235_" x="54.1" y="70.1" class="st2" width="31.3" height="6.5"/>
					<g id="XMLID_2233_">
						<rect id="XMLID_2234_" x="54.1" y="43.8" class="st2" width="31.3" height="6.5"/>
					</g>
				</g>
				<g id="XMLID_2225_" class="st3">
					<circle id="XMLID_2231_" class="st4" cx="83.7" cy="71.9" r="0.8"/>
					<circle id="XMLID_2230_" class="st4" cx="78.1" cy="71.9" r="0.8"/>
					<circle id="XMLID_2229_" class="st4" cx="72.5" cy="71.9" r="0.8"/>
					<circle id="XMLID_2228_" class="st4" cx="66.9" cy="71.9" r="0.8"/>
					<circle id="XMLID_2227_" class="st4" cx="61.2" cy="71.9" r="0.8"/>
					<circle id="XMLID_2226_" class="st4" cx="55.6" cy="71.9" r="0.8"/>
				</g>
				<g id="XMLID_2218_" class="st3">
					<circle id="XMLID_2224_" class="st4" cx="83.7" cy="48.6" r="0.8"/>
					<circle id="XMLID_2223_" class="st4" cx="78.1" cy="48.6" r="0.8"/>
					<circle id="XMLID_2222_" class="st4" cx="72.5" cy="48.6" r="0.8"/>
					<circle id="XMLID_2221_" class="st4" cx="66.9" cy="48.6" r="0.8"/>
					<circle id="XMLID_2220_" class="st4" cx="61.2" cy="48.6" r="0.8"/>
					<circle id="XMLID_2219_" class="st4" cx="55.6" cy="48.6" r="0.8"/>
				</g>
				<rect id="XMLID_2217_" x="53.1" y="70.1" class="st5" width="1" height="6.5"/>
				<rect id="XMLID_2216_" x="85.4" y="70.1" class="st5" width="1" height="6.5"/>
				<rect id="XMLID_2215_" x="53.1" y="43.8" class="st5" width="1" height="6.5"/>
				<rect id="XMLID_2214_" x="85.4" y="43.8" class="st5" width="1" height="6.5"/>
			</g>
			<rect id="XMLID_2212_" x="53.1" y="50.3" class="st0" width="2.2" height="19.8"/>
			<rect id="XMLID_2211_" x="84.3" y="50.3" class="st0" width="2.2" height="19.8"/>
		</g>
		<path id="XMLID_2209_" class="st6" d="M54.4,60.7c0-6,0.4-11.7,1-16.9h-1.2h-1v6.5v19.8v6.5h1h1.1C54.7,71.7,54.4,66.3,54.4,60.7z
			"/>
		<path id="XMLID_2208_" class="st7" d="M80.1,52.6l2.2-2.2h1.9v19.8h-1.9l-2.2-2.2c-0.1,3-0.4,5.9-0.7,8.7h5.9h1v-6.5h0.1V50.3
			h-0.1v-6.5h-1h-6C79.7,46.6,79.9,49.5,80.1,52.6z"/>
	</g>
	<g id="XMLID_2240_">
		<g id="XMLID_2243_">
			<g id="XMLID_2246_">
				<g id="XMLID_2269_">
					
						<rect id="XMLID_2272_" x="37.1" y="43" transform="matrix(-0.7071 -0.7071 0.7071 -0.7071 24.0786 130.391)" class="st0" width="3.8" height="34.4"/>
					
						<rect id="XMLID_2271_" x="37.1" y="43" transform="matrix(-0.7071 -0.7071 0.7071 -0.7071 24.0786 130.391)" class="st1" width="3.8" height="34.4"/>
					
						<rect id="XMLID_2270_" x="37.1" y="43" transform="matrix(0.7071 -0.7071 0.7071 0.7071 -31.1379 45.2435)" class="st0" width="3.8" height="34.4"/>
				</g>
				<g id="XMLID_2265_">
					<rect id="XMLID_2268_" x="23.4" y="70.1" class="st2" width="31.3" height="6.5"/>
					<g id="XMLID_2266_">
						<rect id="XMLID_2267_" x="23.4" y="43.8" class="st2" width="31.3" height="6.5"/>
					</g>
				</g>
				<g id="XMLID_2258_" class="st3">
					<circle id="XMLID_2264_" class="st4" cx="53" cy="71.9" r="0.8"/>
					<circle id="XMLID_2263_" class="st4" cx="47.4" cy="71.9" r="0.8"/>
					<circle id="XMLID_2262_" class="st4" cx="41.8" cy="71.9" r="0.8"/>
					<circle id="XMLID_2261_" class="st4" cx="36.2" cy="71.9" r="0.8"/>
					<circle id="XMLID_2260_" class="st4" cx="30.5" cy="71.9" r="0.8"/>
					<circle id="XMLID_2259_" class="st4" cx="24.9" cy="71.9" r="0.8"/>
				</g>
				<g id="XMLID_2251_" class="st3">
					<circle id="XMLID_2257_" class="st4" cx="53" cy="48.6" r="0.8"/>
					<circle id="XMLID_2256_" class="st4" cx="47.4" cy="48.6" r="0.8"/>
					<circle id="XMLID_2255_" class="st4" cx="41.8" cy="48.6" r="0.8"/>
					<circle id="XMLID_2254_" class="st4" cx="36.2" cy="48.6" r="0.8"/>
					<circle id="XMLID_2253_" class="st4" cx="30.5" cy="48.6" r="0.8"/>
					<circle id="XMLID_2252_" class="st4" cx="24.9" cy="48.6" r="0.8"/>
				</g>
				<rect id="XMLID_2250_" x="22.4" y="70.1" class="st5" width="1" height="6.5"/>
				<rect id="XMLID_2249_" x="54.7" y="70.1" class="st5" width="1" height="6.5"/>
				<rect id="XMLID_2248_" x="22.4" y="43.8" class="st5" width="1" height="6.5"/>
				<rect id="XMLID_2247_" x="54.7" y="43.8" class="st5" width="1" height="6.5"/>
			</g>
			<rect id="XMLID_2245_" x="22.4" y="50.3" class="st0" width="2.2" height="19.8"/>
			<rect id="XMLID_2244_" x="53.6" y="50.3" class="st0" width="2.2" height="19.8"/>
		</g>
		<path id="XMLID_2242_" class="st6" d="M23.6,60.7c0-6,0.4-11.7,1-16.9h-1.2h-1v6.5v19.8v6.5h1h1.1C24,71.7,23.6,66.3,23.6,60.7z"
			/>
		<path id="XMLID_2241_" class="st7" d="M49.4,52.6l2.2-2.2h1.9v19.8h-1.9l-2.2-2.2c-0.1,3-0.4,5.9-0.7,8.7h5.9h1v-6.5h0.1V50.3
			h-0.1v-6.5h-1h-6C49,46.6,49.2,49.5,49.4,52.6z"/>
	</g>
	<g id="XMLID_395_">
		<path id="XMLID_583_" class="st8" d="M571.5,0H30.7C13.8,0,0,13.6,0,30.5C0,47.4,13.8,61,30.7,61h540.9V0z"/>
	</g>
	<g id="XMLID_393_" class="st9">
		<path id="XMLID_581_" class="st2" d="M571.5,6H30.7C16.9,6,5.5,17,5.5,30.8v0.1C5.5,44.7,16.9,56,30.7,56h540.9V6z"/>
	</g>
</g>
</svg>
