<?xml version="1.0" encoding="utf-8"?>
<!-- Generator: Adobe Illustrator 19.0.0, SVG Export Plug-In . SVG Version: 6.00 Build 0)  -->
<svg version="1.1" id="Layer_1" xmlns="http://www.w3.org/2000/svg" xmlns:xlink="http://www.w3.org/1999/xlink" x="0px" y="0px"
	 width="80.4px" height="130px" viewBox="-384.7 186 80.4 130" style="enable-background:new -384.7 186 80.4 130;"
	 xml:space="preserve">
<style type="text/css">
	.st0{fill:#27524E;}
	.st1{fill:#0F7A82;}
	.st2{opacity:0.1;enable-background:new    ;}
	.st3{fill:#E49C5A;}
	.st4{fill:#70BBC0;}
	.st5{opacity:0.2;fill:url(#XMLID_2_);enable-background:new    ;}
	.st6{fill:#EA5E65;}
	.st7{fill:#F1B382;}
	.st8{opacity:0.2;fill:url(#XMLID_3_);enable-background:new    ;}
	.st9{fill:#532E14;}
	.st10{opacity:0.7;fill:#FFFFFF;enable-background:new    ;}
	.st11{opacity:0.2;fill:url(#XMLID_4_);enable-background:new    ;}
	.st12{fill:#FBCEA4;}
	.st13{fill:#ED9C68;}
	.st14{fill:#FFFBEC;}
	.st15{opacity:0.1;fill:url(#XMLID_5_);enable-background:new    ;}
	.st16{opacity:0.2;fill:#FFFFFF;enable-background:new    ;}
	.st17{opacity:0.2;fill:url(#XMLID_6_);enable-background:new    ;}
	.st18{opacity:0.5;fill:#FFFFFF;enable-background:new    ;}
	.st19{opacity:0.2;fill:url(#XMLID_7_);enable-background:new    ;}
	.st20{fill:#89301E;}
	.st21{fill:#AA442B;}
	.st22{opacity:0.6;fill:#89301E;enable-background:new    ;}
	.st23{fill:#F4B552;}
	.st24{fill:#FBC980;}
</style>
<g id="XMLID_829_">
	<path id="XMLID_936_" class="st0" d="M-361.6,265.7c0.6-2.1-1-7.1-4.1-7.8c-3.1-0.7-9.2-0.2-9.2-0.2s-1.4,4.9-1.5,7.8
		c-0.1,2.9,0.1,2.6,0.1,4.1c0,1.5-0.1,1.5,1.7,1.9s4.6,1,6.2,1.1s2.2,0.1,2.2,0.1S-362.3,267.9-361.6,265.7z"/>
	<path id="XMLID_930_" class="st0" d="M-328.6,264.9c-0.7-2.1,0.7-7.1,3.8-8s9.2-0.6,9.2-0.6s1.6,4.8,1.9,7.8
		c0.3,2.9,0.1,2.6,0.1,4.1c0,1.5,0.1,1.5-1.7,2s-4.5,1.1-6.1,1.3c-1.6,0.2-2.2,0.1-2.2,0.1S-327.9,267-328.6,264.9z"/>
	<polygon id="XMLID_943_" class="st1" points="-367.2,210.6 -346.3,188.4 -326.6,209 	"/>
	<path id="XMLID_942_" class="st2" d="M-304.3,307.9c-0.1-4.2-18.1-7.4-40.3-7.2c-22.2,0.3-40.1,3.8-40.1,8.1
		c0.1,4.2,18.1,7.4,40.3,7.2C-322.2,315.7-304.2,312.1-304.3,307.9z"/>
	<path id="XMLID_941_" class="st1" d="M-365,287.3c0,0,7.3,9.6,5,14.6c-1.3,2.8-3.4,3.9-11,2.4c-3.2-0.6-7.3,1.2-7.3,3.6
		c0.1,3.5,5,4.8,13.3,3.4c10.1-1.7,16.6-2.6,19.1-4.1c0.7-0.4,1-1.9,1-3.9c-0.2-8.8-0.3-14.1-0.3-14.1L-365,287.3z"/>
	<path id="XMLID_940_" class="st1" d="M-325.1,286.4c0,0-6.8,9.9-4.4,14.8c1.4,2.7,3.5,3.8,11.1,2c3.1-0.8,7.4,0.8,7.4,3.4
		c0.1,3.5-4.8,5-13.2,4c-10.1-1.3-16.8-1.8-19.4-3.3c-0.7-0.3-1-1.9-1.3-3.8c-0.2-8.8-0.3-14.1-0.3-14.1L-325.1,286.4z"/>
	<path id="XMLID_939_" class="st2" d="M-325.1,286.4c0,0-6.8,9.9-4.4,14.8c1.4,2.7,3.5,3.8,11.1,2c3.1-0.8,7.4,0.8,7.4,3.4
		c0.1,3.5-4.8,5-13.2,4c-10.1-1.3-16.8-1.8-19.4-3.3c-0.7-0.3-1-1.9-1.3-3.8c-0.2-8.8-0.3-14.1-0.3-14.1L-325.1,286.4z"/>
	<path id="XMLID_938_" class="st3" d="M-361.8,273.3c2-2.5,1.7-5.4,0.8-7.9c-0.9-2.4-6.7-1.5-9.2-2s-4.5,1.7-4.5,1.7s-2.8,2-2.8,3.8
		c0.1,1.9,0.3,4.1,2.8,5.4c2.5,1.3,3.5,1.7,4.9,1.8c1.4,0.1,3.2,0.1,3.2,0.1S-363.9,275.9-361.8,273.3z"/>
	<path id="XMLID_935_" class="st2" d="M-365.7,258c3.1,0.7,4.8,5.7,4.1,7.8c-0.1,0.5-0.5,1.1-0.9,1.8c-2.9-4-8-6.4-13.1-7.1
		c0.3-1.5,0.7-2.7,0.7-2.7S-368.8,257.3-365.7,258z"/>
	<path id="XMLID_934_" class="st4" d="M-360.5,246c0,0-6.3-0.7-11.2,1.9c-3.9,2-4.5,6.4-4.6,7.6c-0.1,1.7,0.1,2,1.9,2.7
		c1.7,0.6,3.2,1.4,5.9,1.9c2.8,0.6,3.3,0.4,3.3,0.4s2,0.6,3.8-2.2c1.9-2.7,4.4-3.9,4.1-8C-357.6,246.3-360.5,246-360.5,246z"/>
	<path id="XMLID_933_" class="st4" d="M-330.7,245.3c0,0,6.2-1,11.3,1.4c4,1.9,4.8,6.1,4.9,7.4c0.1,1.7-0.1,2-1.8,2.7
		c-1.7,0.6-3.1,1.5-5.9,2.2c-2.7,0.7-3.2,0.6-3.2,0.6s-1.9,0.6-3.8-2c-2-2.7-4.5-3.7-4.4-7.8C-333.5,245.8-330.7,245.3-330.7,245.3z
		"/>
	<path id="XMLID_932_" class="st1" d="M-360.5,248c0,0-6.3-0.6-11.2,1.7c-3.9,1.8-4.5,5.5-4.6,6.6c-0.1,1.5,0.1,1.7,1.9,2.2
		c1.7,0.5,3.1,1.2,5.9,1.7s3.3,0.3,3.3,0.3s1.9,0.5,3.8-1.9c1.9-2.4,4.4-3.4,4.1-6.9C-357.6,248.2-360.5,248-360.5,248z"/>
	<path id="XMLID_931_" class="st3" d="M-327.9,272.8c-2.2-2.4-2-5.3-1.2-7.8c0.8-2.5,6.6-1.7,9.2-2.3c2.5-0.6,4.5,1.5,4.5,1.5
		s2.9,1.8,2.9,3.7c0.1,1.9-0.1,4.1-2.5,5.5c-2.4,1.3-3.4,1.9-4.8,2c-1.4,0.2-3.2,0.2-3.2,0.2S-325.7,275.3-327.9,272.8z"/>
	<path id="XMLID_908_" class="st2" d="M-324.8,257c3.1-0.8,9.2-0.6,9.2-0.6s0.5,1.5,1,3.4c-5,0.9-9.9,3.4-12.5,7.5
		c-0.6-0.9-1.2-1.7-1.4-2.4C-329.3,262.8-327.9,257.8-324.8,257z"/>
	<path id="XMLID_895_" class="st1" d="M-330.6,247.3c0,0,6.2-0.8,11.3,1.2c4,1.6,4.8,5.3,4.9,6.4c0.1,1.5-0.1,1.7-1.8,2.4
		c-1.7,0.6-3.1,1.3-5.9,1.9c-2.7,0.6-3.2,0.5-3.2,0.5s-1.9,0.6-3.8-1.7c-2-2.3-4.5-3.2-4.4-6.7
		C-333.5,247.7-330.6,247.3-330.6,247.3z"/>
	<path id="XMLID_894_" class="st4" d="M-331.6,245.5c0,0,4.4,8.7,5.7,14.1c1.5,6.1,1.4,11,1.4,11v5.1c0,0,1.9,1.6,2,3.1
		c0.1,1.5,0,3.3,0,3.3s-6.9,4.5-22.2,4.8c-15.3,0.3-22.4-3.8-22.4-3.8s-0.2-1.8-0.1-3.3s1.9-3.1,1.9-3.1l-0.2-5.1
		c0,0-0.3-4.8,0.9-11c1.1-5.5,4.3-13.8,4.3-13.8L-331.6,245.5z"/>
	
		<rect id="XMLID_893_" x="-351.9" y="250.6" transform="matrix(-0.9998 2.182112e-02 -2.182112e-02 -0.9998 -683.6499 546.4268)" class="st1" width="14.2" height="37.7"/>
	
		<linearGradient id="XMLID_2_" gradientUnits="userSpaceOnUse" x1="-2682.3347" y1="-990.412" x2="-2653.0825" y2="-990.412" gradientTransform="matrix(-0.9808 0.1951 -0.1951 -0.9808 -3154.8506 -203.2897)">
		<stop  offset="0" style="stop-color:#FFFFFF"/>
		<stop  offset="2.232726e-03" style="stop-color:#FCFCFC"/>
		<stop  offset="3.712601e-02" style="stop-color:#D6CECC"/>
		<stop  offset="7.428180e-02" style="stop-color:#B4A6A2"/>
		<stop  offset="0.1143" style="stop-color:#96827D"/>
		<stop  offset="0.157" style="stop-color:#7C645D"/>
		<stop  offset="0.2032" style="stop-color:#684B44"/>
		<stop  offset="0.2544" style="stop-color:#583830"/>
		<stop  offset="0.3132" style="stop-color:#4C2B22"/>
		<stop  offset="0.3862" style="stop-color:#46231A"/>
		<stop  offset="0.5171" style="stop-color:#442118"/>
		<stop  offset="0.5625" style="stop-color:#4A281F"/>
		<stop  offset="0.6288" style="stop-color:#593A32"/>
		<stop  offset="0.7078" style="stop-color:#735952"/>
		<stop  offset="0.7965" style="stop-color:#97847F"/>
		<stop  offset="0.8935" style="stop-color:#C5BBB8"/>
		<stop  offset="0.9959" style="stop-color:#FDFCFC"/>
		<stop  offset="1" style="stop-color:#FFFFFF"/>
	</linearGradient>
	<path id="XMLID_892_" class="st5" d="M-330.9,244.6c0,0-0.8,0.8-0.8,2c0,1.1,0,1.7-1.3,2.7c-1.5,1.2-6.6,3.4-12.8,3.5
		c-6.1,0.1-11.6-1.9-12.6-2.9c-1.2-1-1.7-1.6-1.8-2.7c0-1.1-0.1-2-0.1-2L-330.9,244.6z"/>
	<path id="XMLID_891_" class="st6" d="M-330.9,243.9c0,0,0,0.8,0.1,2c0,1.1-0.3,2.9-1.8,3.4c-1.5,0.5-6.5,2.2-12.7,2.4
		c-6.1,0.1-11.3-1.4-12.8-1.8c-1.5-0.5-2-2.2-2-3.3c0-1.1-0.1-2-0.1-2L-330.9,243.9z"/>
	<path id="XMLID_890_" class="st2" d="M-331.6,241c0,0-0.8,0.8-0.8,2c0,1.1,2.9,1.6,1.7,2.6c-1.5,1.2-9.6,3.5-15.7,3.6
		c-6.1,0.1-13.1-2-14.2-3c-1.2-1-0.3-1.5-0.3-2.6c0-1.1-0.1-2-0.1-2L-331.6,241z"/>
	<path id="XMLID_889_" class="st0" d="M-321.7,281.7c0,0-12,4.3-23,4.5c-11,0.2-23.2-3.5-23.2-3.5s-0.9,0.8-0.9,2.4
		c0,1.6,1,2.7,1,2.7s9.5,3.8,23.2,3.5s23-4.5,23-4.5s1-1,0.9-2.7C-320.7,282.4-321.7,281.7-321.7,281.7z"/>
	<path id="XMLID_888_" class="st2" d="M-321.7,281.7c0,0-12,4.3-23,4.5c-11,0.2-23.2-3.5-23.2-3.5s-0.9,0.8-0.9,2.4
		c0,1.6,1,2.7,1,2.7s9.5,3.8,23.2,3.5s23-4.5,23-4.5s1-1,0.9-2.7C-320.7,282.4-321.7,281.7-321.7,281.7z"/>
	<path id="XMLID_887_" class="st6" d="M-324.3,270.5c0,0-9.6,3.4-20.6,3.6c-11,0.2-20.8-2.7-20.8-2.7s-0.9,0.8-0.9,2.4
		c0,1.6,1,2.7,1,2.7s9.8,2.9,20.8,2.7c11-0.2,20.6-3.6,20.6-3.6s1-1,0.9-2.7C-323.4,271.3-324.3,270.5-324.3,270.5z"/>
	<path id="XMLID_886_" class="st2" d="M-324.2,273.3c0,0-9.6,3.4-20.6,3.6c-11,0.2-20.8-2.7-20.8-2.7s-0.6-0.6-0.8-1.5
		c-0.1,0.3-0.1,0.7-0.1,1.1c0,1.6,1,2.7,1,2.7s9.8,2.9,20.8,2.7s20.6-3.6,20.6-3.6s1-1,0.9-2.7c0-0.3-0.1-0.7-0.1-1
		C-323.7,272.7-324.2,273.3-324.2,273.3z"/>
	<path id="XMLID_885_" class="st6" d="M-346.6,201.8c-18.2,0.4-26.8,10.4-25.6,13.1c1.3,2.7,4.2,12.4,4.2,12.4l21.9-5.1l22.1,4.2
		c0,0,2.5-9.9,3.6-12.6C-319.3,211-328.4,201.4-346.6,201.8z"/>
	<path id="XMLID_884_" class="st2" d="M-346.5,206.1c-14.5,0.3-24.7,9.1-23.6,11.6c1.1,2.5,3.8,9.7,3.8,9.7l20.2-4.8l20.3,3.8
		c0,0,2.4-7.3,3.4-9.9C-321.4,214-332.1,205.8-346.5,206.1z"/>
	<path id="XMLID_874_" class="st3" d="M-375.5,227.3c-0.8-2.6,1.1-5.2,4.7-5.3s6.2,1.5,6.2,4.1c0.1,2.7-0.8,4.7-4.4,4.8
		C-372.5,231-374.8,229.6-375.5,227.3z"/>
	<path id="XMLID_871_" class="st3" d="M-316.2,226c0.6-2.7-1.3-5.2-4.9-5.1s-6.1,1.7-6.1,4.4c0.1,2.7,1,4.7,4.6,4.6
		S-316.8,228.3-316.2,226z"/>
	<path id="XMLID_870_" class="st7" d="M-375.5,226.1c-0.8-2.6,1.1-5.2,4.7-5.3s6.2,1.5,6.2,4.1c0.1,2.7-0.8,4.7-4.4,4.8
		C-372.5,229.8-374.8,228.4-375.5,226.1z"/>
	<path id="XMLID_868_" class="st7" d="M-316.3,224.9c0.6-2.7-1.3-5.2-4.9-5.1c-3.6,0.1-6.1,1.7-6.1,4.4c0.1,2.7,1,4.7,4.6,4.6
		S-316.8,227.1-316.3,224.9z"/>
	<path id="XMLID_867_" class="st3" d="M-320.6,233.5c-0.2-11-11.7-19.9-25.6-19.6c-13.9,0.3-25,9.7-24.8,20.7
		c0.2,11,11.6,13.6,25.5,13.3C-331.6,247.5-320.3,244.4-320.6,233.5z"/>
	<path id="XMLID_866_" class="st7" d="M-321.8,231.1c-0.2-11-10.6-18.4-24.5-18.1s-23.9,8.2-23.6,19.1c0.2,11,10.4,14.7,24.4,14.5
		C-331.6,246.3-321.6,242.1-321.8,231.1z"/>
	
		<linearGradient id="XMLID_3_" gradientUnits="userSpaceOnUse" x1="-2665.7024" y1="-962.828" x2="-2658.0889" y2="-962.828" gradientTransform="matrix(-0.9808 0.1951 -0.1951 -0.9808 -3154.8506 -203.2897)">
		<stop  offset="0" style="stop-color:#FFFFFF"/>
		<stop  offset="2.232726e-03" style="stop-color:#FCFCFC"/>
		<stop  offset="3.712601e-02" style="stop-color:#D6CECC"/>
		<stop  offset="7.428180e-02" style="stop-color:#B4A6A2"/>
		<stop  offset="0.1143" style="stop-color:#96827D"/>
		<stop  offset="0.157" style="stop-color:#7C645D"/>
		<stop  offset="0.2032" style="stop-color:#684B44"/>
		<stop  offset="0.2544" style="stop-color:#583830"/>
		<stop  offset="0.3132" style="stop-color:#4C2B22"/>
		<stop  offset="0.3862" style="stop-color:#46231A"/>
		<stop  offset="0.5171" style="stop-color:#442118"/>
		<stop  offset="0.5625" style="stop-color:#4A281F"/>
		<stop  offset="0.6288" style="stop-color:#593A32"/>
		<stop  offset="0.7078" style="stop-color:#735952"/>
		<stop  offset="0.7965" style="stop-color:#97847F"/>
		<stop  offset="0.8935" style="stop-color:#C5BBB8"/>
		<stop  offset="0.9959" style="stop-color:#FDFCFC"/>
		<stop  offset="1" style="stop-color:#FFFFFF"/>
	</linearGradient>
	<path id="XMLID_865_" class="st8" d="M-359.7,221.3c0.6-1.8,2.7-3.1,4.7-2.9c2,0.2,3,1.9,2.4,3.7s-2.7,3.1-4.7,2.9
		C-359.3,224.8-360.4,223.1-359.7,221.3z"/>
	<path id="XMLID_864_" class="st9" d="M-359.7,221.9c0.6-1.5,2.3-2.6,3.9-2.4c1.6,0.2,2.5,1.5,2,3.1c-0.6,1.5-2.3,2.6-3.9,2.4
		C-359.5,224.8-360.3,223.5-359.7,221.9z"/>
	<circle id="XMLID_863_" class="st10" cx="-356.4" cy="221.6" r="1.2"/>
	
		<linearGradient id="XMLID_4_" gradientUnits="userSpaceOnUse" x1="-2686.4141" y1="-966.2053" x2="-2679.3074" y2="-966.2053" gradientTransform="matrix(-0.9808 0.1951 -0.1951 -0.9808 -3154.8506 -203.2897)">
		<stop  offset="0" style="stop-color:#FFFFFF"/>
		<stop  offset="2.232726e-03" style="stop-color:#FCFCFC"/>
		<stop  offset="3.712601e-02" style="stop-color:#D6CECC"/>
		<stop  offset="7.428180e-02" style="stop-color:#B4A6A2"/>
		<stop  offset="0.1143" style="stop-color:#96827D"/>
		<stop  offset="0.157" style="stop-color:#7C645D"/>
		<stop  offset="0.2032" style="stop-color:#684B44"/>
		<stop  offset="0.2544" style="stop-color:#583830"/>
		<stop  offset="0.3132" style="stop-color:#4C2B22"/>
		<stop  offset="0.3862" style="stop-color:#46231A"/>
		<stop  offset="0.5171" style="stop-color:#442118"/>
		<stop  offset="0.5625" style="stop-color:#4A281F"/>
		<stop  offset="0.6288" style="stop-color:#593A32"/>
		<stop  offset="0.7078" style="stop-color:#735952"/>
		<stop  offset="0.7965" style="stop-color:#97847F"/>
		<stop  offset="0.8935" style="stop-color:#C5BBB8"/>
		<stop  offset="0.9959" style="stop-color:#FDFCFC"/>
		<stop  offset="1" style="stop-color:#FFFFFF"/>
	</linearGradient>
	<path id="XMLID_862_" class="st11" d="M-331.6,220.4c-0.7-1.7-2.9-2.9-4.8-2.6c-1.9,0.3-2.9,2-2.2,3.7c0.7,1.7,2.9,2.9,4.8,2.6
		C-331.9,223.8-330.9,222.1-331.6,220.4z"/>
	<path id="XMLID_861_" class="st9" d="M-331.5,220.9c-0.6-1.5-2.4-2.4-4-2.2c-1.6,0.3-2.4,1.7-1.8,3.1c0.6,1.5,2.4,2.4,4,2.2
		C-331.7,223.8-330.9,222.4-331.5,220.9z"/>
	<circle id="XMLID_860_" class="st10" cx="-335.4" cy="220.5" r="1.2"/>
	<g id="XMLID_858_">
		<path id="XMLID_859_" class="st12" d="M-343.1,225c0-0.6-1.3-1-2.8-1c-1.5,0-2.8,0.5-2.8,1.1c0,0.6,1.3,1,2.8,1
			C-344.3,226-343,225.6-343.1,225z"/>
	</g>
	<path id="XMLID_857_" class="st13" d="M-327.5,229.1c-0.1-2-1.7-3.7-3.8-3.6c-2,0.1-3.7,1.7-3.6,3.8c0.1,2,1.7,3.7,3.8,3.6
		C-329.1,232.9-327.5,231.2-327.5,229.1z"/>
	<path id="XMLID_856_" class="st13" d="M-356.9,230.2c-0.1-2-1.7-3.7-3.8-3.6c-2,0.1-3.7,1.7-3.6,3.8c0.1,2,1.7,3.7,3.8,3.6
		C-358.5,233.9-356.9,232.2-356.9,230.2z"/>
	<path id="XMLID_855_" class="st14" d="M-335.3,232.1c-0.6,1.1-5.5,3.9-10.3,4.1c-4.9,0.3-9.3-2.3-10.8-4.1c0.6,3,3.4,8.3,11.1,8.2
		C-340.2,240.3-335.5,235.2-335.3,232.1z"/>
	
		<linearGradient id="XMLID_5_" gradientUnits="userSpaceOnUse" x1="-2685.6445" y1="-957.8307" x2="-2663.5195" y2="-957.8307" gradientTransform="matrix(-0.9808 0.1951 -0.1951 -0.9808 -3154.8506 -203.2897)">
		<stop  offset="0" style="stop-color:#FFFFFF"/>
		<stop  offset="2.232726e-03" style="stop-color:#FCFCFC"/>
		<stop  offset="3.712601e-02" style="stop-color:#D6CECC"/>
		<stop  offset="7.428180e-02" style="stop-color:#B4A6A2"/>
		<stop  offset="0.1143" style="stop-color:#96827D"/>
		<stop  offset="0.157" style="stop-color:#7C645D"/>
		<stop  offset="0.2032" style="stop-color:#684B44"/>
		<stop  offset="0.2544" style="stop-color:#583830"/>
		<stop  offset="0.3132" style="stop-color:#4C2B22"/>
		<stop  offset="0.3862" style="stop-color:#46231A"/>
		<stop  offset="0.5171" style="stop-color:#442118"/>
		<stop  offset="0.5625" style="stop-color:#4A281F"/>
		<stop  offset="0.6288" style="stop-color:#593A32"/>
		<stop  offset="0.7078" style="stop-color:#735952"/>
		<stop  offset="0.7965" style="stop-color:#97847F"/>
		<stop  offset="0.8935" style="stop-color:#C5BBB8"/>
		<stop  offset="0.9959" style="stop-color:#FDFCFC"/>
		<stop  offset="1" style="stop-color:#FFFFFF"/>
	</linearGradient>
	<path id="XMLID_854_" class="st15" d="M-348.5,209.4c9.2-2.9,15.4,7,15.4,7s-3.4,0.5-8.3,0.4c-4.7-0.1-7.1-1.8-7.1-1.8
		s1.6,1,3.3,1.7c1.7,0.7,4.8,2,4.8,2s-8.9,4.8-15.4-3.4C-356.3,214.7-355.6,211.7-348.5,209.4z"/>
	<path id="XMLID_853_" class="st9" d="M-348.5,208.9c9.2-2.9,14.9,6.6,14.9,6.6s-3.2,0.4-8.2,0.3c-4.7-0.1-6.8-1.2-6.8-1.2
		s1.6,1,3.3,1.7c1.7,0.7,4.8,1.4,4.8,1.4s-8.9,4.5-15.4-2.8C-356.3,214.2-355.5,211.1-348.5,208.9z"/>
	<path id="XMLID_852_" class="st16" d="M-353.6,212.5c0,0,5.2-3.7,9.1-3.1c4,0.6,8.7,4.5,8.7,4.5s-5.2-2.2-8.8-2.5
		C-348.3,211.2-353.6,212.5-353.6,212.5z"/>
	<path id="XMLID_851_" class="st16" d="M-352.7,213c0,0,2.9-0.5,5.7-0.2c2.7,0.2,6.8,0.8,6.8,0.8s-4.5,0.7-6.9,0.6
		C-349.5,213.9-352.7,213-352.7,213z"/>
	
		<linearGradient id="XMLID_6_" gradientUnits="userSpaceOnUse" x1="-2669.3276" y1="-1001.4191" x2="-2661.7898" y2="-1001.4191" gradientTransform="matrix(-0.9808 0.1951 -0.1951 -0.9808 -3154.8506 -203.2897)">
		<stop  offset="0" style="stop-color:#FFFFFF"/>
		<stop  offset="2.232726e-03" style="stop-color:#FCFCFC"/>
		<stop  offset="3.712601e-02" style="stop-color:#D6CECC"/>
		<stop  offset="7.428180e-02" style="stop-color:#B4A6A2"/>
		<stop  offset="0.1143" style="stop-color:#96827D"/>
		<stop  offset="0.157" style="stop-color:#7C645D"/>
		<stop  offset="0.2032" style="stop-color:#684B44"/>
		<stop  offset="0.2544" style="stop-color:#583830"/>
		<stop  offset="0.3132" style="stop-color:#4C2B22"/>
		<stop  offset="0.3862" style="stop-color:#46231A"/>
		<stop  offset="0.5171" style="stop-color:#442118"/>
		<stop  offset="0.5625" style="stop-color:#4A281F"/>
		<stop  offset="0.6288" style="stop-color:#593A32"/>
		<stop  offset="0.7078" style="stop-color:#735952"/>
		<stop  offset="0.7965" style="stop-color:#97847F"/>
		<stop  offset="0.8935" style="stop-color:#C5BBB8"/>
		<stop  offset="0.9959" style="stop-color:#FDFCFC"/>
		<stop  offset="1" style="stop-color:#FFFFFF"/>
	</linearGradient>
	<path id="XMLID_850_" class="st17" d="M-341.4,258.8c-0.1-1.8-1.7-3.2-3.8-3.1c-2.1,0.1-3.8,1.5-3.7,3.4c0.1,1.8,1.7,3.2,3.8,3.1
		C-343,262-341.3,260.6-341.4,258.8z"/>
	<g id="XMLID_847_">
		<path id="XMLID_849_" class="st6" d="M-341.4,258.1c-0.1-1.8-1.7-3.2-3.8-3.1c-2.1,0.1-3.8,1.5-3.7,3.4c0.1,1.8,1.7,3.2,3.8,3.1
			C-343.1,261.4-341.4,259.9-341.4,258.1z"/>
		
			<ellipse id="XMLID_848_" transform="matrix(-2.183980e-02 -0.9998 0.9998 -2.183980e-02 -609.7546 -83.1201)" class="st18" cx="-345.5" cy="256.7" rx="1.2" ry="1.4"/>
	</g>
	<g id="XMLID_844_">
		<path id="XMLID_846_" class="st6" d="M-342.2,189.1c-0.1-1.8-1.7-3.2-3.8-3.1c-2.1,0.1-3.8,1.5-3.7,3.4c0.1,1.8,1.7,3.2,3.8,3.1
			C-343.9,192.4-342.2,191-342.2,189.1z"/>
		
			<ellipse id="XMLID_845_" transform="matrix(-2.183980e-02 -0.9998 0.9998 -2.183980e-02 -541.5759 -154.3751)" class="st18" cx="-346.3" cy="187.7" rx="1.2" ry="1.4"/>
	</g>
	
		<linearGradient id="XMLID_7_" gradientUnits="userSpaceOnUse" x1="-2667.5933" y1="-1011.6984" x2="-2660.0554" y2="-1011.6984" gradientTransform="matrix(-0.9808 0.1951 -0.1951 -0.9808 -3154.8506 -203.2897)">
		<stop  offset="0" style="stop-color:#FFFFFF"/>
		<stop  offset="2.232726e-03" style="stop-color:#FCFCFC"/>
		<stop  offset="3.712601e-02" style="stop-color:#D6CECC"/>
		<stop  offset="7.428180e-02" style="stop-color:#B4A6A2"/>
		<stop  offset="0.1143" style="stop-color:#96827D"/>
		<stop  offset="0.157" style="stop-color:#7C645D"/>
		<stop  offset="0.2032" style="stop-color:#684B44"/>
		<stop  offset="0.2544" style="stop-color:#583830"/>
		<stop  offset="0.3132" style="stop-color:#4C2B22"/>
		<stop  offset="0.3862" style="stop-color:#46231A"/>
		<stop  offset="0.5171" style="stop-color:#442118"/>
		<stop  offset="0.5625" style="stop-color:#4A281F"/>
		<stop  offset="0.6288" style="stop-color:#593A32"/>
		<stop  offset="0.7078" style="stop-color:#735952"/>
		<stop  offset="0.7965" style="stop-color:#97847F"/>
		<stop  offset="0.8935" style="stop-color:#C5BBB8"/>
		<stop  offset="0.9959" style="stop-color:#FDFCFC"/>
		<stop  offset="1" style="stop-color:#FFFFFF"/>
	</linearGradient>
	<path id="XMLID_843_" class="st19" d="M-341,269.2c-0.1-1.8-1.7-3.2-3.8-3.1c-2.1,0.1-3.8,1.5-3.7,3.4c0.1,1.8,1.7,3.2,3.8,3.1
		S-341,270.9-341,269.2z"/>
	<path id="XMLID_842_" class="st6" d="M-341.2,268.3c-0.1-1.8-1.7-3.2-3.8-3.1c-2.1,0.1-3.8,1.5-3.7,3.4c0.1,1.8,1.7,3.2,3.8,3.1
		C-342.8,271.6-341.1,270.1-341.2,268.3z"/>
	
		<ellipse id="XMLID_841_" transform="matrix(-2.185240e-02 -0.9998 0.9998 -2.185240e-02 -619.888 -72.62)" class="st18" cx="-345.5" cy="266.9" rx="1.2" ry="1.4"/>
	<g id="XMLID_830_">
		<path id="XMLID_840_" class="st20" d="M-315.1,270.4c0,0-2.4,15.4-10.9,22.2c-15.8,12.6-31.9,4.7-34.3,2.9c-1-0.7-2.3-1.6-2.8-3.4
			c-1.4-3.6-2.9-22.4-2.9-22.4l24.8,0.6l7.1-3.8l16.1,3.1L-315.1,270.4z"/>
		<path id="XMLID_839_" class="st21" d="M-327.5,289.6c-14.3,11.1-34.9,4.2-35.6,2.4c-2.9-6.8-2.9-22.4-2.9-22.4l23.3,0.6l7.1-3.8
			l17.6,3.2C-318,269.7-320,283.8-327.5,289.6z"/>
		<path id="XMLID_838_" class="st20" d="M-375.3,270.4c0,0,2.4,15.4,10.9,22.2c15.8,12.6,31.9,4.7,34.3,2.9c1-0.7,2.3-1.6,2.8-3.4
			c1.4-3.6,2.9-22.4,2.9-22.4l-24.8,0.6l-7.1-2l-16,1.3L-375.3,270.4z"/>
		<path id="XMLID_837_" class="st21" d="M-362.8,289.6c14.3,11.1,31.2,5.5,37.7-2.2c4.4-5.2,0.7-17.8,0.7-17.8l-23.3,0.6l-7.2-2.7
			l-17.4,2C-372.4,269.7-370.3,283.8-362.8,289.6z"/>
		<path id="XMLID_836_" class="st22" d="M-320,275c0,0-12.6,0.6-21.7,1c-9,0.3-23.1-0.9-23.1-0.9s11.9,2,23.3,1.5
			C-333,276.2-320,275-320,275z"/>
		<path id="XMLID_835_" class="st22" d="M-321.9,281.3c0,0-11.9,0.6-20.4,1s-21.7-0.8-21.7-0.8s11.2,2,21.9,1.4
			C-334.2,282.4-321.9,281.3-321.9,281.3z"/>
		<path id="XMLID_834_" class="st22" d="M-327,289c0,0-10.3,0.3-17.6,0.6c-7.3,0.2-18.7-1.3-18.7-1.3s9.6,2.2,18.8,1.9
			C-337.6,289.9-327,289-327,289z"/>
		<path id="XMLID_833_" class="st20" d="M-338.4,265.4l1.3,0.3l0.3-0.1l18.4,3.9l3.4,0.9c0,0-0.3,2.6-1.4,6.2
			c-3.8-4.1-19.5-7.5-21-7.2c-1.7,0.3-7.6,3.3-9.6,3.4c-1.8,0.1-18.7,0-25.3,2.2c-0.3-4-0.3-6.9-0.3-6.9l26.4,1.3L-338.4,265.4z"/>
		<path id="XMLID_832_" class="st23" d="M-314.9,265.3c-0.4,0-24.8-1-25.6-1.1c-0.8-0.1-6.6,2.9-7.4,2.9c-0.8-0.1-26.3-1.1-26.9-1.2
			c-0.6,0-0.6,0.3-0.8,0.7c-0.1,0.3-0.1,5,0.4,4.9c0.5-0.1,26,0,26.9-0.2s6.9-3.4,8-3.4c1,0,24.2,2.9,24.6,2.9s1.3-4.1,1.3-4.5
			C-314.3,265.7-314.4,265.3-314.9,265.3z"/>
		<path id="XMLID_831_" class="st24" d="M-347.9,267.8c-0.8-0.1-27.7-1.2-27.7-1.2c0.1-0.3,0.2-0.7,0.8-0.7c0.6,0,26,1.1,26.9,1.2
			c0.8,0.1,6.6-2.9,7.4-2.9c0.8,0.1,25.2,1.1,25.6,1.1c0.4,0,0.6,0.4,0.6,0.8c0,0-24.9-1-25.8-1.1C-341,265-347.1,267.8-347.9,267.8
			z"/>
	</g>
</g>
</svg>
