<?xml version="1.0" encoding="utf-8"?>
<!-- Generator: Adobe Illustrator 19.0.0, SVG Export Plug-In . SVG Version: 6.00 Build 0)  -->
<svg version="1.1" id="Layer_1" xmlns="http://www.w3.org/2000/svg" xmlns:xlink="http://www.w3.org/1999/xlink" x="0px" y="0px"
	 viewBox="0 0 783.2 108.7" style="enable-background:new 0 0 783.2 108.7;" xml:space="preserve">
<style type="text/css">
	.st0{fill:#0F7A82;}
	.st1{fill:#70BBC0;}
	.st2{fill:#27524E;}
	.st3{opacity:0.15;}
	.st4{fill:#F15C6B;}
	.st5{opacity:0.2;fill:#3C3D3C;}
	.st6{opacity:0.3;fill:#FFFFFF;}
</style>
<g id="XMLID_1_">
	<g id="XMLID_12440_">
		<polygon id="XMLID_12445_" class="st0" points="741.5,95.5 41.6,95.5 148.8,37.4 600.3,37.4 		"/>
		<rect id="XMLID_12444_" x="0" y="88.2" class="st1" width="783.2" height="20.1"/>
		<rect id="XMLID_12443_" x="0" y="100.5" class="st2" width="783.2" height="7.7"/>
		<path id="XMLID_12442_" class="st3" d="M666.1,64.7c-131.4,15.8-416.2,11-556.3-5.9L54,88.7H0L0,101l0,7.7h783.2V101V88.7h-59.6
			L666.1,64.7z"/>
	</g>
	<g id="XMLID_12349_">
		<g id="XMLID_12424_">
			<g id="XMLID_12427_">
				<g id="XMLID_12433_">
					<rect id="XMLID_12441_" x="140.4" y="10.8" class="st4" width="469" height="17.7"/>
					<rect id="XMLID_12438_" x="140.4" y="21.8" class="st1" width="469" height="17.5"/>
					<rect id="XMLID_12437_" x="140.4" y="21.8" class="st2" width="469" height="6.7"/>
					<g id="XMLID_12434_">
						<rect id="XMLID_12436_" x="140.4" y="0.1" class="st1" width="469" height="17.5"/>
						<rect id="XMLID_12435_" x="140.4" y="10.8" class="st2" width="469" height="6.7"/>
					</g>
				</g>
				<g id="XMLID_12428_">
				</g>
			</g>
			<path id="XMLID_12426_" class="st5" d="M534.1,0L502,0c5.2,12.9-1.5,39.3-1.5,39.3l108.9,0V28.6v-6.7v-4.3v-6.7V0.1L534.1,0
				L534.1,0z"/>
			<polygon id="XMLID_12425_" class="st6" points="224.5,33.4 184.2,33.4 184.2,33.4 158.6,33.4 158.6,5.9 234,5.9 234,0 216,0 
				216,0.1 140.7,0.1 140.7,39.3 224.5,39.3 			"/>
		</g>
	</g>
</g>
</svg>
