<?xml version="1.0" encoding="utf-8"?>
<!-- Generator: Adobe Illustrator 19.0.0, SVG Export Plug-In . SVG Version: 6.00 Build 0)  -->
<svg version="1.1" id="Layer_1" xmlns="http://www.w3.org/2000/svg" xmlns:xlink="http://www.w3.org/1999/xlink" x="0px" y="0px"
	 width="320.8px" height="129.4px" viewBox="125 -29.4 320.8 129.4" style="enable-background:new 125 -29.4 320.8 129.4;"
	 xml:space="preserve">
<style type="text/css">
	.st0{fill:none;stroke:#302C1F;stroke-width:3;stroke-miterlimit:10;}
	.st1{fill:#E8CDA4;}
	.st2{fill:#FFFFF5;}
	.st3{fill:#FFFFFF;}
	.st4{fill:#B7000E;}
	.st5{fill:#DD0015;}
	.st6{fill:#FF7581;}
</style>
<g id="XMLID_14145_">
	<path id="XMLID_14144_" class="st0" d="M126.3-28.7c0,0,41.2,104.4,159.9,104.4S444.4-25.1,444.4-25.1"/>
	<g id="XMLID_14138_">
		<path id="XMLID_14143_" class="st1" d="M164.6,38.2c4.6-2.3,10.3-0.4,12.6,4.2s0.4,10.3-4.2,12.6c-4.6,2.3-10.3,0.4-12.6-4.2
			C158.1,46.1,160,40.5,164.6,38.2L164.6,38.2z"/>
		<path id="XMLID_14142_" class="st2" d="M162.6,53.6c-0.9-0.8-1.6-1.7-2.1-2.8c-2.2-4.4-0.7-9.7,3.4-12.2
			c8.4-3.2,12.8,3.5,11.7,9.4C174.6,53.1,169.3,57.6,162.6,53.6L162.6,53.6z"/>
		<path id="XMLID_14141_" class="st3" d="M160.6,44.6c0.8-4,5.6-7.6,10.2-5.6c3,1.3,0.7,1.1-0.6,1c-3.3-0.3-5.9,1.7-6.5,5.7
			c-0.6,3.4,1,6.9,4.6,7.5c1.1,0.2,1.8,0.6-0.1,0.8C163.3,54.8,159.5,49.7,160.6,44.6L160.6,44.6z"/>
		<path id="XMLID_14140_" class="st3" d="M162.9,43.1c0.9-0.4,1.9-0.1,2.4,0.8c0.4,0.9,0.1,1.9-0.8,2.4c-0.9,0.4-1.9,0.1-2.4-0.8
			C161.7,44.6,162.1,43.5,162.9,43.1L162.9,43.1z"/>
		<path id="XMLID_14139_" class="st3" d="M163.2,47.9c0.5-0.2,1.1,0,1.3,0.4c0.2,0.5,0,1.1-0.4,1.3c-0.5,0.2-1.1,0-1.3-0.4
			C162.5,48.8,162.7,48.2,163.2,47.9L163.2,47.9z"/>
	</g>
	<g id="XMLID_14152_">
		<path id="XMLID_14157_" class="st1" d="M232.1,72.4c4.6-2.3,10.3-0.4,12.6,4.2s0.4,10.3-4.2,12.6c-4.6,2.3-10.3,0.4-12.6-4.2
			C225.5,80.4,227.4,74.7,232.1,72.4L232.1,72.4z"/>
		<path id="XMLID_14156_" class="st2" d="M230,87.8c-0.9-0.8-1.6-1.7-2.1-2.8c-2.2-4.4-0.7-9.7,3.4-12.2c8.4-3.2,12.8,3.5,11.7,9.4
			C242,87.4,236.8,91.8,230,87.8L230,87.8z"/>
		<path id="XMLID_14155_" class="st3" d="M228,78.9c0.8-4,5.6-7.6,10.2-5.6c3,1.3,0.7,1.1-0.6,1c-3.3-0.3-5.9,1.7-6.5,5.7
			c-0.6,3.4,1,6.9,4.6,7.5c1.1,0.2,1.8,0.6-0.1,0.8C230.7,89,227,83.9,228,78.9L228,78.9z"/>
		<path id="XMLID_14154_" class="st3" d="M230.4,77.3c0.9-0.4,1.9-0.1,2.4,0.8c0.4,0.9,0.1,1.9-0.8,2.4c-0.9,0.4-1.9,0.1-2.4-0.8
			S229.5,77.8,230.4,77.3L230.4,77.3z"/>
		<path id="XMLID_14153_" class="st3" d="M230.6,82.2c0.5-0.2,1.1,0,1.3,0.4c0.2,0.5,0,1.1-0.4,1.3c-0.5,0.2-1.1,0-1.3-0.4
			C229.9,83,230.1,82.4,230.6,82.2L230.6,82.2z"/>
	</g>
	<g id="XMLID_14164_">
		<path id="XMLID_14169_" class="st1" d="M310.2,79.1c4.6-2.3,10.3-0.4,12.6,4.2c2.3,4.6,0.4,10.3-4.2,12.6
			c-4.6,2.3-10.3,0.4-12.6-4.2S305.6,81.4,310.2,79.1L310.2,79.1z"/>
		<path id="XMLID_14168_" class="st2" d="M308.2,94.5c-0.9-0.8-1.6-1.7-2.1-2.8c-2.2-4.4-0.7-9.7,3.4-12.2
			c8.4-3.2,12.8,3.5,11.7,9.4C320.2,94.1,314.9,98.5,308.2,94.5L308.2,94.5z"/>
		<path id="XMLID_14167_" class="st3" d="M306.2,85.6c0.8-4,5.6-7.6,10.2-5.6c3,1.3,0.7,1.1-0.6,1c-3.3-0.3-5.9,1.7-6.5,5.7
			c-0.6,3.4,1,6.9,4.6,7.5c1.1,0.2,1.8,0.6-0.1,0.8C308.8,95.7,305.1,90.6,306.2,85.6L306.2,85.6z"/>
		<path id="XMLID_14166_" class="st3" d="M308.5,84c0.9-0.4,1.9-0.1,2.4,0.8c0.4,0.9,0.1,1.9-0.8,2.4c-0.9,0.4-1.9,0.1-2.4-0.8
			C307.3,85.5,307.7,84.5,308.5,84L308.5,84z"/>
		<path id="XMLID_14165_" class="st3" d="M308.7,88.9c0.5-0.2,1.1,0,1.3,0.4c0.2,0.5,0,1.1-0.4,1.3c-0.5,0.2-1.1,0-1.3-0.4
			C308.1,89.7,308.3,89.1,308.7,88.9L308.7,88.9z"/>
	</g>
	<g id="XMLID_14176_">
		<path id="XMLID_14181_" class="st1" d="M380.1,52.6c4.6-2.3,10.3-0.4,12.6,4.2c2.3,4.6,0.4,10.3-4.2,12.6
			c-4.6,2.3-10.3,0.4-12.6-4.2C373.5,60.6,375.4,54.9,380.1,52.6L380.1,52.6z"/>
		<path id="XMLID_14180_" class="st2" d="M378,68.1c-0.9-0.8-1.6-1.7-2.1-2.8c-2.2-4.4-0.7-9.7,3.4-12.2c8.4-3.2,12.8,3.5,11.7,9.4
			C390,67.6,384.7,72.1,378,68.1L378,68.1z"/>
		<path id="XMLID_14179_" class="st3" d="M376,59.1c0.8-4,5.6-7.6,10.2-5.6c3,1.3,0.7,1.1-0.6,1c-3.3-0.3-5.9,1.7-6.5,5.7
			c-0.6,3.4,1,6.9,4.6,7.5c1.1,0.2,1.8,0.6-0.1,0.8C378.7,69.2,374.9,64.2,376,59.1L376,59.1z"/>
		<path id="XMLID_14178_" class="st3" d="M378.3,57.6c0.9-0.4,1.9-0.1,2.4,0.8c0.4,0.9,0.1,1.9-0.8,2.4c-0.9,0.4-1.9,0.1-2.4-0.8
			C377.1,59.1,377.5,58,378.3,57.6L378.3,57.6z"/>
		<path id="XMLID_14177_" class="st3" d="M378.6,62.4c0.5-0.2,1.1,0,1.3,0.4c0.2,0.5,0,1.1-0.4,1.3c-0.5,0.2-1.1,0-1.3-0.4
			C377.9,63.2,378.1,62.6,378.6,62.4L378.6,62.4z"/>
	</g>
	<g id="XMLID_14104_">
		<path id="XMLID_14137_" class="st4" d="M139.6,12.3c4.8-2.5,10.7-0.7,13.3,4.1c2.5,4.8,0.7,10.7-4.1,13.3
			c-4.8,2.5-10.7,0.7-13.3-4.1C133,20.8,134.8,14.9,139.6,12.3L139.6,12.3z"/>
		<path id="XMLID_14136_" class="st5" d="M137.9,28.5c-0.9-0.8-1.7-1.7-2.3-2.9c-2.5-4.5-1-10,3.2-12.8c8.7-3.6,13.5,3.3,12.5,9.5
			C150.4,27.7,145,32.5,137.9,28.5L137.9,28.5z"/>
		<path id="XMLID_14135_" class="st6" d="M135.6,19.2c0.8-4.2,5.6-8,10.5-6.1c3.2,1.3,0.8,1.2-0.6,1.1c-3.5-0.2-6.1,1.9-6.7,6.1
			c-0.5,3.6,1.2,7.1,4.9,7.7c1.1,0.2,1.9,0.5-0.1,0.9C138.6,29.7,134.6,24.5,135.6,19.2L135.6,19.2z"/>
		<path id="XMLID_14134_" class="st3" d="M138,17.5c0.9-0.5,2-0.1,2.5,0.8c0.5,0.9,0.1,2-0.8,2.5c-0.9,0.5-2,0.1-2.5-0.8
			C136.7,19.1,137.1,18,138,17.5L138,17.5z"/>
		<path id="XMLID_14133_" class="st3" d="M138.3,22.6c0.5-0.3,1.1-0.1,1.4,0.4s0.1,1.1-0.4,1.4c-0.5,0.3-1.1,0.1-1.4-0.4
			C137.6,23.5,137.8,22.9,138.3,22.6L138.3,22.6z"/>
	</g>
	<g id="XMLID_14146_">
		<path id="XMLID_14151_" class="st4" d="M195.7,59c4.8-2.5,10.7-0.7,13.3,4.1c2.5,4.8,0.7,10.7-4.1,13.3
			c-4.8,2.5-10.7,0.7-13.3-4.1C189.1,67.5,190.9,61.5,195.7,59L195.7,59z"/>
		<path id="XMLID_14150_" class="st5" d="M193.9,75.1c-0.9-0.8-1.7-1.7-2.3-2.9c-2.4-4.5-0.9-10.1,3.3-12.8
			c8.7-3.6,13.5,3.3,12.5,9.5C206.5,74.3,201.1,79.1,193.9,75.1L193.9,75.1z"/>
		<path id="XMLID_14149_" class="st6" d="M191.7,65.8c0.8-4.2,5.6-8,10.5-6.1c3.2,1.3,0.8,1.2-0.6,1.1c-3.5-0.2-6.1,1.9-6.7,6.1
			c-0.5,3.6,1.2,7.1,4.9,7.7c1.1,0.2,1.9,0.5-0.1,0.9C194.7,76.3,190.7,71.1,191.7,65.8L191.7,65.8z"/>
		<path id="XMLID_14148_" class="st3" d="M194,64.2c0.9-0.5,2-0.1,2.5,0.8s0.1,2-0.8,2.5s-2,0.1-2.5-0.8
			C192.8,65.8,193.1,64.6,194,64.2L194,64.2z"/>
		<path id="XMLID_14147_" class="st3" d="M194.4,69.2c0.5-0.3,1.1-0.1,1.4,0.4s0.1,1.1-0.4,1.4s-1.1,0.1-1.4-0.4
			S193.9,69.5,194.4,69.2L194.4,69.2z"/>
	</g>
	<g id="XMLID_14158_">
		<path id="XMLID_14163_" class="st4" d="M270.5,81.7c4.8-2.5,10.7-0.7,13.3,4.1c2.5,4.8,0.7,10.7-4.1,13.3
			c-4.8,2.5-10.7,0.7-13.3-4.1C263.9,90.2,265.7,84.2,270.5,81.7L270.5,81.7z"/>
		<path id="XMLID_14162_" class="st5" d="M268.7,97.8c-0.9-0.8-1.7-1.7-2.3-2.9c-2.4-4.5-0.9-10.1,3.3-12.8
			c8.7-3.6,13.5,3.3,12.5,9.5C281.3,97,275.9,101.8,268.7,97.8L268.7,97.8z"/>
		<path id="XMLID_14161_" class="st6" d="M266.4,88.5c0.8-4.2,5.6-8,10.5-6.1c3.2,1.3,0.8,1.2-0.6,1.1c-3.5-0.2-6.1,1.9-6.7,6.1
			c-0.5,3.6,1.2,7.1,4.9,7.7c1.1,0.2,1.9,0.5-0.1,0.9C269.5,99.1,265.5,93.9,266.4,88.5L266.4,88.5z"/>
		<path id="XMLID_14160_" class="st3" d="M268.8,86.9c0.9-0.5,2-0.1,2.5,0.8s0.1,2-0.8,2.5c-0.9,0.5-2,0.1-2.5-0.8
			C267.6,88.5,267.9,87.4,268.8,86.9L268.8,86.9z"/>
		<path id="XMLID_14159_" class="st3" d="M269.2,91.9c0.5-0.3,1.1-0.1,1.4,0.4c0.3,0.5,0.1,1.1-0.4,1.4s-1.1,0.1-1.4-0.4
			C268.5,92.8,268.7,92.2,269.2,91.9L269.2,91.9z"/>
	</g>
	<g id="XMLID_14170_">
		<path id="XMLID_14175_" class="st4" d="M343.9,68.5c4.8-2.5,10.7-0.7,13.3,4.1c2.5,4.8,0.7,10.7-4.1,13.3
			c-4.8,2.5-10.7,0.7-13.3-4.1C337.3,77,339.1,71,343.9,68.5L343.9,68.5z"/>
		<path id="XMLID_14174_" class="st5" d="M342.1,84.6c-0.9-0.8-1.7-1.7-2.3-2.9c-2.4-4.5-0.9-10.1,3.3-12.8
			c8.7-3.6,13.5,3.3,12.5,9.5C354.7,83.8,349.3,88.6,342.1,84.6L342.1,84.6z"/>
		<path id="XMLID_14173_" class="st6" d="M339.8,75.3c0.8-4.2,5.6-8,10.5-6.1c3.2,1.3,0.8,1.2-0.6,1.1c-3.5-0.2-6.1,1.9-6.7,6.1
			c-0.5,3.6,1.2,7.1,4.9,7.7c1.1,0.2,1.9,0.5-0.1,0.9C342.8,85.9,338.8,80.7,339.8,75.3L339.8,75.3z"/>
		<path id="XMLID_14172_" class="st3" d="M342.2,73.7c0.9-0.5,2-0.1,2.5,0.8s0.1,2-0.8,2.5s-2,0.1-2.5-0.8
			C341,75.3,341.3,74.2,342.2,73.7L342.2,73.7z"/>
		<path id="XMLID_14171_" class="st3" d="M342.6,78.7c0.5-0.3,1.1-0.1,1.4,0.4s0.1,1.1-0.4,1.4s-1.1,0.1-1.4-0.4
			C341.9,79.6,342.1,79,342.6,78.7L342.6,78.7z"/>
	</g>
</g>
</svg>
