<?xml version="1.0" encoding="utf-8"?>
<!-- Generator: Adobe Illustrator 19.0.0, SVG Export Plug-In . SVG Version: 6.00 Build 0)  -->
<svg version="1.1" id="Layer_1" xmlns="http://www.w3.org/2000/svg" xmlns:xlink="http://www.w3.org/1999/xlink" x="0px" y="0px"
	 width="320.8px" height="129.4px" viewBox="125 -29.4 320.8 129.4" style="enable-background:new 125 -29.4 320.8 129.4;"
	 xml:space="preserve">
<style type="text/css">
	.st0{fill:none;stroke:#302C1F;stroke-width:3;stroke-miterlimit:10;}
	.st1{fill:#E8CDA4;}
	.st2{fill:#FFFFF5;}
	.st3{fill:#FFFFFF;}
	.st4{fill:#B7000E;}
	.st5{fill:#DD0015;}
	.st6{fill:#FF7581;}
</style>
<g id="XMLID_14183_">
	<path id="XMLID_14232_" class="st0" d="M444.4-28.8c0,0-41.2,104.4-159.9,104.4S126.4-25.3,126.4-25.3"/>
	<g id="XMLID_14226_">
		<path id="XMLID_14231_" class="st1" d="M406.1,38c-4.6-2.3-10.3-0.4-12.6,4.2c-2.3,4.6-0.4,10.3,4.2,12.6
			c4.6,2.3,10.3,0.4,12.6-4.2C412.7,46,410.8,40.3,406.1,38L406.1,38z"/>
		<path id="XMLID_14230_" class="st2" d="M408.2,53.4c0.9-0.8,1.6-1.7,2.1-2.8c2.2-4.4,0.7-9.7-3.4-12.2c-8.4-3.2-12.8,3.5-11.7,9.4
			C396.2,53,401.4,57.4,408.2,53.4L408.2,53.4z"/>
		<path id="XMLID_14229_" class="st3" d="M410.2,44.5c-0.8-4-5.6-7.6-10.2-5.6c-3,1.3-0.7,1.1,0.6,1c3.3-0.3,5.9,1.7,6.5,5.7
			c0.6,3.4-1,6.9-4.6,7.5c-1.1,0.2-1.8,0.6,0.1,0.8C407.5,54.6,411.2,49.5,410.2,44.5L410.2,44.5z"/>
		<path id="XMLID_14228_" class="st3" d="M407.8,42.9c-0.9-0.4-1.9-0.1-2.4,0.8c-0.4,0.9-0.1,1.9,0.8,2.4c0.9,0.4,1.9,0.1,2.4-0.8
			C409.1,44.4,408.7,43.4,407.8,42.9L407.8,42.9z"/>
		<path id="XMLID_14227_" class="st3" d="M407.6,47.8c-0.5-0.2-1.1,0-1.3,0.4c-0.2,0.5,0,1.1,0.4,1.3c0.5,0.2,1.1,0,1.3-0.4
			C408.3,48.6,408.1,48,407.6,47.8L407.6,47.8z"/>
	</g>
	<g id="XMLID_14220_">
		<path id="XMLID_14225_" class="st1" d="M338.7,72.2c-4.6-2.3-10.3-0.4-12.6,4.2c-2.3,4.6-0.4,10.3,4.2,12.6
			c4.6,2.3,10.3,0.4,12.6-4.2S343.4,74.5,338.7,72.2L338.7,72.2z"/>
		<path id="XMLID_14224_" class="st2" d="M340.8,87.7c0.9-0.8,1.6-1.7,2.1-2.8c2.2-4.4,0.7-9.7-3.4-12.2c-8.4-3.2-12.8,3.5-11.7,9.4
			C328.7,87.2,334,91.7,340.8,87.7L340.8,87.7z"/>
		<path id="XMLID_14223_" class="st3" d="M342.7,78.7c-0.8-4-5.6-7.6-10.2-5.6c-3,1.3-0.7,1.1,0.6,1c3.3-0.3,5.9,1.7,6.5,5.7
			c0.6,3.4-1,6.9-4.6,7.5c-1.1,0.2-1.8,0.6,0.1,0.8C340.1,88.8,343.8,83.8,342.7,78.7L342.7,78.7z"/>
		<path id="XMLID_14222_" class="st3" d="M340.4,77.2c-0.9-0.4-1.9-0.1-2.4,0.8c-0.4,0.9-0.1,1.9,0.8,2.4c0.9,0.4,1.9,0.1,2.4-0.8
			C341.6,78.7,341.3,77.6,340.4,77.2L340.4,77.2z"/>
		<path id="XMLID_14221_" class="st3" d="M340.2,82c-0.5-0.2-1.1,0-1.3,0.4c-0.2,0.5,0,1.1,0.4,1.3c0.5,0.2,1.1,0,1.3-0.4
			C340.9,82.8,340.7,82.2,340.2,82L340.2,82z"/>
	</g>
	<g id="XMLID_14214_">
		<path id="XMLID_14219_" class="st1" d="M260.5,78.9c-4.6-2.3-10.3-0.4-12.6,4.2c-2.3,4.6-0.4,10.3,4.2,12.6
			c4.6,2.3,10.3,0.4,12.6-4.2C267.1,86.9,265.2,81.3,260.5,78.9L260.5,78.9z"/>
		<path id="XMLID_14218_" class="st2" d="M262.6,94.4c0.9-0.8,1.6-1.7,2.1-2.8c2.2-4.4,0.7-9.7-3.4-12.2c-8.4-3.2-12.8,3.5-11.7,9.4
			C250.6,93.9,255.8,98.4,262.6,94.4L262.6,94.4z"/>
		<path id="XMLID_14217_" class="st3" d="M264.6,85.4c-0.8-4-5.6-7.6-10.2-5.6c-3,1.3-0.7,1.1,0.6,1c3.3-0.3,5.9,1.7,6.5,5.7
			c0.6,3.4-1,6.9-4.6,7.5c-1.1,0.2-1.8,0.6,0.1,0.8C261.9,95.6,265.6,90.5,264.6,85.4L264.6,85.4z"/>
		<path id="XMLID_14216_" class="st3" d="M262.2,83.9c-0.9-0.4-1.9-0.1-2.4,0.8c-0.4,0.9-0.1,1.9,0.8,2.4c0.9,0.4,1.9,0.1,2.4-0.8
			S263.1,84.3,262.2,83.9L262.2,83.9z"/>
		<path id="XMLID_14215_" class="st3" d="M262,88.7c-0.5-0.2-1.1,0-1.3,0.4c-0.2,0.5,0,1.1,0.4,1.3c0.5,0.2,1.1,0,1.3-0.4
			C262.7,89.5,262.5,89,262,88.7L262,88.7z"/>
	</g>
	<g id="XMLID_14208_">
		<path id="XMLID_14213_" class="st1" d="M190.7,52.4c-4.6-2.3-10.3-0.4-12.6,4.2c-2.3,4.6-0.4,10.3,4.2,12.6
			c4.6,2.3,10.3,0.4,12.6-4.2C197.3,60.4,195.4,54.8,190.7,52.4L190.7,52.4z"/>
		<path id="XMLID_14212_" class="st2" d="M192.8,67.9c0.9-0.8,1.6-1.7,2.1-2.8c2.2-4.4,0.7-9.7-3.4-12.2c-8.4-3.2-12.8,3.5-11.7,9.4
			C180.8,67.4,186,71.9,192.8,67.9L192.8,67.9z"/>
		<path id="XMLID_14211_" class="st3" d="M194.8,58.9c-0.8-4-5.6-7.6-10.2-5.6c-3,1.3-0.7,1.1,0.6,1c3.3-0.3,5.9,1.7,6.5,5.7
			c0.6,3.4-1,6.9-4.6,7.5c-1.1,0.2-1.8,0.6,0.1,0.8C192.1,69.1,195.8,64,194.8,58.9L194.8,58.9z"/>
		<path id="XMLID_14210_" class="st3" d="M192.4,57.4c-0.9-0.4-1.9-0.1-2.4,0.8c-0.4,0.9-0.1,1.9,0.8,2.4c0.9,0.4,1.9,0.1,2.4-0.8
			C193.7,58.9,193.3,57.8,192.4,57.4L192.4,57.4z"/>
		<path id="XMLID_14209_" class="st3" d="M192.2,62.2c-0.5-0.2-1.1,0-1.3,0.4c-0.2,0.5,0,1.1,0.4,1.3c0.5,0.2,1.1,0,1.3-0.4
			C192.9,63.1,192.7,62.5,192.2,62.2L192.2,62.2z"/>
	</g>
	<g id="XMLID_14202_">
		<path id="XMLID_14207_" class="st4" d="M431.2,12.2c-4.8-2.5-10.7-0.7-13.3,4.1c-2.5,4.8-0.7,10.7,4.1,13.3
			c4.8,2.5,10.7,0.7,13.3-4.1C437.8,20.7,436,14.7,431.2,12.2L431.2,12.2z"/>
		<path id="XMLID_14206_" class="st5" d="M432.9,28.3c0.9-0.8,1.7-1.7,2.3-2.9c2.4-4.5,0.9-10.1-3.3-12.8
			c-8.7-3.6-13.5,3.3-12.5,9.5C420.4,27.5,425.8,32.3,432.9,28.3L432.9,28.3z"/>
		<path id="XMLID_14205_" class="st6" d="M435.2,19c-0.8-4.2-5.6-8-10.5-6.1c-3.2,1.3-0.8,1.2,0.6,1.1c3.5-0.2,6.1,1.9,6.7,6.1
			c0.5,3.6-1.2,7.1-4.9,7.7c-1.1,0.2-1.9,0.5,0.1,0.9C432.2,29.6,436.2,24.4,435.2,19L435.2,19z"/>
		<path id="XMLID_14204_" class="st3" d="M432.8,17.4c-0.9-0.5-2-0.1-2.5,0.8c-0.5,0.9-0.1,2,0.8,2.5s2,0.1,2.5-0.8
			C434.1,19,433.7,17.9,432.8,17.4L432.8,17.4z"/>
		<path id="XMLID_14203_" class="st3" d="M432.5,22.4c-0.5-0.3-1.1-0.1-1.4,0.4s-0.1,1.1,0.4,1.4c0.5,0.3,1.1,0.1,1.4-0.4
			C433.2,23.3,433,22.7,432.5,22.4L432.5,22.4z"/>
	</g>
	<g id="XMLID_14196_">
		<path id="XMLID_14201_" class="st4" d="M375.1,58.8c-4.8-2.5-10.7-0.7-13.3,4.1c-2.5,4.8-0.7,10.7,4.1,13.3
			c4.8,2.5,10.7,0.7,13.3-4.1C381.7,67.3,379.9,61.3,375.1,58.8L375.1,58.8z"/>
		<path id="XMLID_14200_" class="st5" d="M376.8,74.9c0.9-0.8,1.7-1.7,2.3-2.9c2.4-4.5,0.9-10.1-3.3-12.8
			c-8.7-3.6-13.5,3.3-12.5,9.5C364.3,74.2,369.7,78.9,376.8,74.9L376.8,74.9z"/>
		<path id="XMLID_14199_" class="st6" d="M379.1,65.6c-0.8-4.2-5.6-8-10.5-6.1c-3.2,1.3-0.8,1.2,0.6,1.1c3.5-0.2,6.1,1.9,6.7,6.1
			c0.5,3.6-1.2,7.1-4.9,7.7c-1.1,0.2-1.9,0.5,0.1,0.9C376.1,76.2,380.1,71,379.1,65.6L379.1,65.6z"/>
		<path id="XMLID_14198_" class="st3" d="M376.7,64c-0.9-0.5-2-0.1-2.5,0.8s-0.1,2,0.8,2.5c0.9,0.5,2,0.1,2.5-0.8
			S377.6,64.5,376.7,64L376.7,64z"/>
		<path id="XMLID_14197_" class="st3" d="M376.4,69c-0.5-0.3-1.1-0.1-1.4,0.4s-0.1,1.1,0.4,1.4s1.1,0.1,1.4-0.4
			C377.1,69.9,376.9,69.3,376.4,69L376.4,69z"/>
	</g>
	<g id="XMLID_14190_">
		<path id="XMLID_14195_" class="st4" d="M300.3,81.5c-4.8-2.5-10.7-0.7-13.3,4.1c-2.5,4.8-0.7,10.7,4.1,13.3
			c4.8,2.5,10.7,0.7,13.3-4.1C306.9,90,305.1,84.1,300.3,81.5L300.3,81.5z"/>
		<path id="XMLID_14194_" class="st5" d="M302,97.7c0.9-0.8,1.7-1.7,2.3-2.9c2.4-4.5,0.9-10.1-3.3-12.8c-8.7-3.6-13.5,3.3-12.5,9.5
			C289.5,96.9,294.9,101.7,302,97.7L302,97.7z"/>
		<path id="XMLID_14193_" class="st6" d="M304.3,88.4c-0.8-4.2-5.6-8-10.5-6.1c-3.2,1.3-0.8,1.2,0.6,1.1c3.5-0.2,6.1,1.9,6.7,6.1
			c0.5,3.6-1.2,7.1-4.9,7.7c-1.1,0.2-1.9,0.5,0.1,0.9C301.3,98.9,305.3,93.7,304.3,88.4L304.3,88.4z"/>
		<path id="XMLID_14192_" class="st3" d="M301.9,86.7c-0.9-0.5-2-0.1-2.5,0.8s-0.1,2,0.8,2.5c0.9,0.5,2,0.1,2.5-0.8
			S302.8,87.2,301.9,86.7L301.9,86.7z"/>
		<path id="XMLID_14191_" class="st3" d="M301.6,91.8c-0.5-0.3-1.1-0.1-1.4,0.4s-0.1,1.1,0.4,1.4s1.1,0.1,1.4-0.4
			C302.3,92.6,302.1,92,301.6,91.8L301.6,91.8z"/>
	</g>
	<g id="XMLID_14184_">
		<path id="XMLID_14189_" class="st4" d="M226.9,68.3c-4.8-2.5-10.7-0.7-13.3,4.1c-2.5,4.8-0.7,10.7,4.1,13.3
			c4.8,2.5,10.7,0.7,13.3-4.1C233.5,76.8,231.7,70.9,226.9,68.3L226.9,68.3z"/>
		<path id="XMLID_14188_" class="st5" d="M228.7,84.5c0.9-0.8,1.7-1.7,2.3-2.9c2.4-4.5,0.9-10.1-3.3-12.8
			c-8.7-3.6-13.5,3.3-12.5,9.5C216.1,83.7,221.5,88.5,228.7,84.5L228.7,84.5z"/>
		<path id="XMLID_14187_" class="st6" d="M230.9,75.2c-0.8-4.2-5.6-8-10.5-6.1c-3.2,1.3-0.8,1.2,0.6,1.1c3.5-0.2,6.1,1.9,6.7,6.1
			c0.5,3.6-1.2,7.1-4.9,7.7c-1.1,0.2-1.9,0.5,0.1,0.9C227.9,85.7,231.9,80.5,230.9,75.2L230.9,75.2z"/>
		<path id="XMLID_14186_" class="st3" d="M228.5,73.5c-0.9-0.5-2-0.1-2.5,0.8s-0.1,2,0.8,2.5s2,0.1,2.5-0.8S229.4,74,228.5,73.5
			L228.5,73.5z"/>
		<path id="XMLID_14185_" class="st3" d="M228.2,78.6c-0.5-0.3-1.1-0.1-1.4,0.4c-0.3,0.5-0.1,1.1,0.4,1.4s1.1,0.1,1.4-0.4
			C228.9,79.5,228.7,78.8,228.2,78.6L228.2,78.6z"/>
	</g>
</g>
</svg>
