<?xml version="1.0" encoding="utf-8"?>
<!-- Generator: Adobe Illustrator 19.0.0, SVG Export Plug-In . SVG Version: 6.00 Build 0)  -->
<svg version="1.1" id="Layer_1" xmlns="http://www.w3.org/2000/svg" xmlns:xlink="http://www.w3.org/1999/xlink" x="0px" y="0px"
	 width="50.2px" height="56.5px" viewBox="-434 97.5 50.2 56.5" style="enable-background:new -434 97.5 50.2 56.5;"
	 xml:space="preserve">
<style type="text/css">
	.st0{fill:#C9626D;}
	.st1{fill:url(#XMLID_2_);}
	.st2{fill:#B55966;}
	.st3{fill:#0D566B;}
	.st4{fill:#257784;}
	.st5{fill:#2D90AF;}
</style>
<g id="XMLID_12509_">
	<path id="XMLID_12604_" class="st0" d="M-404.7,109.5c2.4,0.5,17.2,5.5,19.5,7.5c0.1,0.1,0.1,0.1,0.2,0.2c-4.6,2.2-21.4,5-24.3,4.9
		c-2.7-0.1-18.2-4.4-23.6-8c0,0,0-0.1,0.1-0.1C-431.5,112.2-409.3,108.5-404.7,109.5z"/>
	<g id="XMLID_12522_">
		
			<linearGradient id="XMLID_2_" gradientUnits="userSpaceOnUse" x1="-414.235" y1="117.4" x2="-383.7962" y2="117.4" gradientTransform="matrix(1 0 0 -1 0 253)">
			<stop  offset="0" style="stop-color:#AD434F"/>
			<stop  offset="0.3747" style="stop-color:#B64753"/>
			<stop  offset="1" style="stop-color:#C14B58"/>
		</linearGradient>
		<path id="XMLID_12603_" class="st1" d="M-410.1,122c0.3,0.1,0.6,0.1,0.8,0.1c2.9,0.2,19.7-2.7,24.3-4.9c2.6,3.7,0.5,28.2-1.7,29.8
			c-2,1.5-22.8,6.8-27.2,7C-415.1,146.6-412.9,128.9-410.1,122z"/>
		<path id="XMLID_12523_" class="st2" d="M-433,114.1c5,3.3,18.7,7.2,22.8,7.9c-2.8,6.9-5,24.6-3.8,32c-0.3,0-0.5,0-0.6,0
			c-3.1-0.6-17.3-6.7-18.6-9.9C-434.3,140.9-434.3,116.9-433,114.1z"/>
	</g>
	<path id="XMLID_12521_" class="st3" d="M-393.6,119.7c-3.9,0.8-4.1,0.8-7.1,1.2c0.8,7.1,1.2,14.1,1,21.5c-0.1,4.4-1.3,7-1.6,9.8
		c3.5-0.8,3.7-0.8,6.9-1.8c0.6-4.7,1.4-8.1,1.6-12.5C-392.5,132.9-393.1,124-393.6,119.7z"/>
	<path id="XMLID_12520_" class="st4" d="M-427.8,116.6c3.9,0.8,3.8,1.6,6.5,2.6c-0.9,7.8-1.5,11-1.5,18.6c0,4.8,0.2,10.9,0.6,13.3
		c-3.5-0.8-3.9-1.7-6.2-3c-0.3-4.1-0.5-8.4-0.5-13.2C-428.8,130.3-428.2,120.8-427.8,116.6z"/>
	<path id="XMLID_12519_" class="st5" d="M-397,111.6c0,0-18.7,1.6-30.8,4.9c0,0,5.9,2.5,6.7,2.7c0,0,19-4.9,28.4-5.8L-397,111.6z"/>
	<path id="XMLID_12518_" class="st5" d="M-393.9,119.9l-22.9-9.7c0,0-3.8,0.5-4.4,0.8c0,0,15.9,7.9,20.5,10.2
		C-400.7,121.1-396.8,120.4-393.9,119.9z"/>
	<g id="XMLID_12510_">
		<g id="XMLID_12515_">
			<path id="XMLID_12517_" class="st4" d="M-408.9,112.2c9.9-1.6,9.4-6.3,9.4-6.3s1.7-3.5,4.1-2.1c2.4,1.4,4.5,6.7-1.3,9.6
				C-402.5,116.4-404.6,114.8-408.9,112.2z"/>
			<path id="XMLID_12516_" class="st5" d="M-408.9,112.2c0,0-1.3-6.7,6.6-12c7.9-5.3,12.3-1.7,12.9,1c0.6,2.7,1.2,7.5-7.6,12.4
				c0,0,5.3-5.9,1.2-7.7C-400.4,103.8-408.9,112.2-408.9,112.2z"/>
		</g>
		<g id="XMLID_12512_">
			<path id="XMLID_12514_" class="st4" d="M-411.1,113c-9.8-2-9.2-6.7-9.2-6.7s-1.6-3.6-4-2.3c-2.5,1.3-4.8,6.5,0.8,9.7
				C-417.7,116.9-415.5,115.3-411.1,113z"/>
			<path id="XMLID_12513_" class="st5" d="M-411.1,113c0,0,1.6-6.6-6.1-12.3c-7.7-5.7-12.3-2.2-13,0.4c-0.7,2.6-1.5,7.4,7.1,12.7
				c0,0-5.1-6.1-0.9-7.8C-419.3,104.2-411.1,113-411.1,113z"/>
		</g>
		<circle id="XMLID_12511_" class="st3" cx="-410.5" cy="112" r="3"/>
	</g>
</g>
</svg>
