<?xml version="1.0" encoding="utf-8"?>
<!-- Generator: Adobe Illustrator 19.0.0, SVG Export Plug-In . SVG Version: 6.00 Build 0)  -->
<svg version="1.1" id="Layer_1" xmlns="http://www.w3.org/2000/svg" xmlns:xlink="http://www.w3.org/1999/xlink" x="0px" y="0px"
	 width="50.1px" height="56.8px" viewBox="-434 97.2 50.1 56.8" style="enable-background:new -434 97.2 50.1 56.8;"
	 xml:space="preserve">
<style type="text/css">
	.st0{fill:url(#XMLID_2_);}
	.st1{fill:#DE9124;}
	.st2{fill:#EBAC52;}
	.st3{fill:url(#XMLID_3_);}
	.st4{fill:#B55966;}
	.st5{fill:#C9626D;}
	.st6{fill:url(#XMLID_4_);}
</style>
<g id="XMLID_12623_">
	
		<linearGradient id="XMLID_2_" gradientUnits="userSpaceOnUse" x1="-433.0941" y1="136.983" x2="-385.1268" y2="136.983" gradientTransform="matrix(1 0 0 -1 0 252.4)">
		<stop  offset="0" style="stop-color:#FFD365"/>
		<stop  offset="1" style="stop-color:#E6AD5B"/>
	</linearGradient>
	<path id="XMLID_12643_" class="st0" d="M-404.8,109.2c2.4,0.5,17.2,5.5,19.5,7.5c0.1,0.1,0.1,0.1,0.2,0.2c-4.6,2.2-21.4,5-24.3,4.9
		c-2.7-0.1-18.2-4.4-23.6-8c0,0,0-0.1,0.1-0.1C-431.6,111.9-409.5,108.2-404.8,109.2z"/>
	<g id="XMLID_12640_">
		<path id="XMLID_12642_" class="st1" d="M-410.3,121.7c0.3,0.1,0.6,0.1,0.8,0.1c2.9,0.2,19.7-2.7,24.3-4.9
			c2.6,3.7,0.7,28.5-1.4,30.1c-2,1.5-22.8,6.8-27.2,7C-415,146.6-413,128.6-410.3,121.7z"/>
		<path id="XMLID_12641_" class="st2" d="M-433.1,113.8c5,3.3,18.7,7.2,22.8,7.9c-2.7,6.9-4.7,24.9-3.5,32.3c-0.3,0-0.5,0-0.6,0
			c-3.1-0.6-17.4-6.7-18.6-9.9C-434.2,140.9-434.4,116.6-433.1,113.8z"/>
	</g>
	
		<linearGradient id="XMLID_3_" gradientUnits="userSpaceOnUse" x1="-401.1316" y1="116.6" x2="-392.7884" y2="116.6" gradientTransform="matrix(1 0 0 -1 0 252.4)">
		<stop  offset="0" style="stop-color:#AD434F"/>
		<stop  offset="0.3747" style="stop-color:#B64753"/>
		<stop  offset="1" style="stop-color:#C14B58"/>
	</linearGradient>
	<path id="XMLID_12639_" class="st3" d="M-393.7,119.4c-3.9,0.8-4.1,0.8-7.1,1.2c0.8,7.1,1.3,8.9,1.2,16.3
		c-0.1,4.4-1.2,12.5-1.4,15.3c3.5-0.8,3.7-0.8,6.9-1.8c0.6-4.7,1.2-8.5,1.4-12.8C-392.6,132.6-393.3,123.7-393.7,119.4z"/>
	<path id="XMLID_12638_" class="st4" d="M-427.9,116.3c3.9,0.8,3.8,1.6,6.5,2.6c-0.9,7.8-1.5,11-1.5,18.6c0,4.8,0.5,11.3,0.8,13.6
		c-3.5-0.8-3.9-1.7-6.2-3c-0.2-4.2-0.7-8.8-0.6-13.6C-428.9,130-428.4,120.5-427.9,116.3z"/>
	<path id="XMLID_12637_" class="st5" d="M-397.1,111.3c0,0-18.7,1.6-30.8,4.9c0,0,5.9,2.5,6.7,2.7c0,0,19-4.9,28.4-5.8L-397.1,111.3
		z"/>
	<path id="XMLID_12636_" class="st5" d="M-394.1,119.6l-22.9-9.7c0,0-3.8,0.5-4.4,0.8c0,0,15.9,7.9,20.5,10.2
		C-400.9,120.8-397,120.1-394.1,119.6z"/>
	<g id="XMLID_12628_">
		<g id="XMLID_12633_">
			<path id="XMLID_12635_" class="st4" d="M-409,111.9c9.9-1.6,9.4-6.3,9.4-6.3s1.7-3.5,4.1-2.1c2.5,1.5,4.5,6.8-1.2,9.7
				C-402.6,116.1-404.7,114.5-409,111.9z"/>
			<path id="XMLID_12634_" class="st5" d="M-409,111.9c0,0-1.3-6.7,6.6-12c7.9-5.3,12.3-1.7,12.9,1c0.6,2.7,1.2,7.5-7.6,12.4
				c0,0,5.3-5.9,1.2-7.7C-400.5,103.5-409,111.9-409,111.9z"/>
		</g>
		<g id="XMLID_12630_">
			<path id="XMLID_12632_" class="st4" d="M-411.2,112.7c-9.8-2-9.2-6.7-9.2-6.7s-1.6-3.6-4-2.3c-2.5,1.3-4.8,6.5,0.8,9.7
				C-417.8,116.6-415.7,115-411.2,112.7z"/>
			<path id="XMLID_12631_" class="st5" d="M-411.2,112.7c0,0,1.6-6.6-6.1-12.3c-7.7-5.7-12.3-2.2-13,0.4c-0.7,2.7-1.5,7.5,7.1,12.8
				c0,0-5.1-6.1-0.9-7.8C-419.4,103.9-411.2,112.7-411.2,112.7z"/>
		</g>
		
			<linearGradient id="XMLID_4_" gradientUnits="userSpaceOnUse" x1="-413.6476" y1="140.7" x2="-407.549" y2="140.7" gradientTransform="matrix(1 0 0 -1 0 252.4)">
			<stop  offset="0" style="stop-color:#AD434F"/>
			<stop  offset="0.3747" style="stop-color:#B64753"/>
			<stop  offset="1" style="stop-color:#C14B58"/>
		</linearGradient>
		<circle id="XMLID_12629_" class="st6" cx="-410.6" cy="111.7" r="3"/>
	</g>
</g>
</svg>
