<?xml version="1.0" encoding="utf-8"?>
<!-- Generator: Adobe Illustrator 19.0.0, SVG Export Plug-In . SVG Version: 6.00 Build 0)  -->
<svg version="1.1" id="Layer_1" xmlns="http://www.w3.org/2000/svg" xmlns:xlink="http://www.w3.org/1999/xlink" x="0px" y="0px"
	 width="50.2px" height="57.2px" viewBox="-434 97.8 50.2 57.2" style="enable-background:new -434 97.8 50.2 57.2;"
	 xml:space="preserve">
<style type="text/css">
	.st0{fill:#699A9A;}
	.st1{fill:#3C7B7B;}
	.st2{fill:#548C8C;}
	.st3{fill:#DE9124;}
	.st4{fill:#EBAC52;}
	.st5{fill:url(#XMLID_2_);}
	.st6{fill:url(#XMLID_3_);}
	.st7{fill:url(#XMLID_4_);}
	.st8{fill:url(#XMLID_5_);}
</style>
<g id="XMLID_12644_">
	<path id="XMLID_12660_" class="st0" d="M-404.7,109.8c2.4,0.5,17.2,5.5,19.5,7.5c0.1,0.1,0.1,0.1,0.2,0.2c-4.6,2.2-21.4,5-24.3,4.9
		c-2.7-0.1-18.2-4.4-23.6-8c0,0,0-0.1,0.1-0.1C-431.5,112.5-409.4,108.8-404.7,109.8z"/>
	<g id="XMLID_12657_">
		<path id="XMLID_12659_" class="st1" d="M-410.2,122.3c0.3,0.1,0.6,0.1,0.8,0.1c2.9,0.2,19.7-2.7,24.3-4.9
			c2.6,3.7,0.5,28.9-1.6,30.4c-2,1.5-22.8,6.8-27.2,7C-415.1,147.5-412.9,129.2-410.2,122.3z"/>
		<path id="XMLID_12658_" class="st2" d="M-433,114.4c5,3.3,18.7,7.2,22.8,7.9c-2.8,6.9-4.9,25.2-3.7,32.7c-0.3,0-0.5,0-0.6,0
			c-3.1-0.6-17.3-6.7-18.6-9.9C-434.3,141.8-434.3,117.2-433,114.4z"/>
	</g>
	<path id="XMLID_12656_" class="st3" d="M-393.6,120c-3.9,0.8-4.1,0.8-7.1,1.2c0.8,7.1,1.2,14.1,1,21.5c-0.1,4.4-1.2,7.7-1.5,10.5
		c3.5-0.8,3.7-0.8,6.9-1.8c0.6-4.7,1.4-8.8,1.6-13.2C-392.5,133.2-393.2,124.3-393.6,120z"/>
	<path id="XMLID_12655_" class="st4" d="M-427.8,116.9c3.9,0.8,3.8,1.6,6.5,2.6c-0.9,7.8-1.5,11-1.5,18.6c0,4.8,0.3,11.6,0.6,14
		c-3.5-0.8-3.9-1.7-6.2-3c-0.3-4.1-0.6-9.1-0.5-13.8S-428.3,121.1-427.8,116.9z"/>
	
		<linearGradient id="XMLID_2_" gradientUnits="userSpaceOnUse" x1="-427.8" y1="139.9" x2="-392.7" y2="139.9" gradientTransform="matrix(1 0 0 -1 0 255.6)">
		<stop  offset="0" style="stop-color:#FFD365"/>
		<stop  offset="1" style="stop-color:#E6AD5B"/>
	</linearGradient>
	<path id="XMLID_12654_" class="st5" d="M-397,111.9c0,0-18.7,1.6-30.8,4.9c0,0,5.9,2.5,6.7,2.7c0,0,19-4.9,28.4-5.8L-397,111.9z"/>
	
		<linearGradient id="XMLID_3_" gradientUnits="userSpaceOnUse" x1="-421.2385" y1="139.6" x2="-393.9385" y2="139.6" gradientTransform="matrix(1 0 0 -1 0 255.6)">
		<stop  offset="0" style="stop-color:#FFD365"/>
		<stop  offset="1" style="stop-color:#E6AD5B"/>
	</linearGradient>
	<path id="XMLID_12653_" class="st6" d="M-394,120.2l-22.9-9.7c0,0-3.8,0.5-4.4,0.8c0,0,15.9,7.9,20.5,10.2
		C-400.8,121.4-396.9,120.7-394,120.2z"/>
	<g id="XMLID_12645_">
		<g id="XMLID_12650_">
			<path id="XMLID_12652_" class="st4" d="M-408.9,112.5c9.9-1.6,9.4-6.3,9.4-6.3s1.7-3.5,4.1-2.1c2.4,1.4,4.5,6.7-1.3,9.6
				C-402.5,116.7-404.6,115.1-408.9,112.5z"/>
			
				<linearGradient id="XMLID_4_" gradientUnits="userSpaceOnUse" x1="-409.0218" y1="149.7623" x2="-389.0649" y2="149.7623" gradientTransform="matrix(1 0 0 -1 0 255.6)">
				<stop  offset="0" style="stop-color:#FFD365"/>
				<stop  offset="1" style="stop-color:#E6AD5B"/>
			</linearGradient>
			<path id="XMLID_12651_" class="st7" d="M-408.9,112.5c0,0-1.3-6.7,6.6-12c7.9-5.3,12.3-1.7,12.9,1c0.6,2.7,1.2,7.5-7.6,12.4
				c0,0,5.3-5.9,1.2-7.7C-400.4,104.1-408.9,112.5-408.9,112.5z"/>
		</g>
		<g id="XMLID_12647_">
			<path id="XMLID_12649_" class="st4" d="M-411.1,113.3c-9.8-2-9.2-6.7-9.2-6.7s-1.6-3.6-4-2.3c-2.5,1.3-4.8,6.5,0.8,9.7
				C-417.7,117.2-415.6,115.6-411.1,113.3z"/>
			
				<linearGradient id="XMLID_5_" gradientUnits="userSpaceOnUse" x1="-430.6372" y1="149.5853" x2="-410.9963" y2="149.5853" gradientTransform="matrix(1 0 0 -1 0 255.6)">
				<stop  offset="0" style="stop-color:#FFD365"/>
				<stop  offset="1" style="stop-color:#E6AD5B"/>
			</linearGradient>
			<path id="XMLID_12648_" class="st8" d="M-411.1,113.3c0,0,1.6-6.6-6.1-12.3c-7.7-5.7-12.3-2.2-13,0.4c-0.7,2.6-1.5,7.4,7.1,12.7
				c0,0-5.1-6.1-0.9-7.8C-419.3,104.5-411.1,113.3-411.1,113.3z"/>
		</g>
		<circle id="XMLID_12646_" class="st3" cx="-410.5" cy="112.3" r="3"/>
	</g>
</g>
</svg>
