<?xml version="1.0" encoding="utf-8"?>
<!-- Generator: Adobe Illustrator 19.0.0, SVG Export Plug-In . SVG Version: 6.00 Build 0)  -->
<svg version="1.1" id="Layer_1" xmlns="http://www.w3.org/2000/svg" xmlns:xlink="http://www.w3.org/1999/xlink" x="0px" y="0px"
	 width="73.6px" height="63.1px" viewBox="247.8 4.5 73.6 63.1" style="enable-background:new 247.8 4.5 73.6 63.1;"
	 xml:space="preserve">
<style type="text/css">
	.st0{opacity:0.51;fill:url(#XMLID_2_);}
	.st1{opacity:0.59;}
	.st2{fill:#FFFFFF;}
	.st3{fill:#5BC4BF;}
	.st4{fill:#419794;}
	.st5{opacity:0.23;fill:url(#XMLID_3_);}
	.st6{opacity:0.17;}
	.st7{fill:#AF4553;}
	.st8{fill:#EA5E65;}
</style>
<g id="XMLID_16830_">
	
		<radialGradient id="XMLID_2_" cx="-7309.2603" cy="-1929.9688" r="53.459" gradientTransform="matrix(2.422222e-11 0.4268 -1 3.551951e-11 -1731.6498 4910.3257)" gradientUnits="userSpaceOnUse">
		<stop  offset="0.3039" style="stop-color:#FFFFFF"/>
		<stop  offset="0.729" style="stop-color:#FFFFFF;stop-opacity:0"/>
	</radialGradient>
	<path id="XMLID_16829_" class="st0" d="M649.6,2255.9L649.6,2255.9c0-16.4,13.3-29.7,29.7-29.7h0c16.4,0,29.7,13.3,29.7,29.7l0,0
		c0,16.4-13.3,29.7-29.7,29.7h0C662.9,2285.6,649.6,2272.3,649.6,2255.9z"/>
	<g id="XMLID_16816_" class="st1">
		<g id="XMLID_16794_">
			<circle id="XMLID_16815_" class="st2" cx="643.8" cy="2271.8" r="1.9"/>
			<circle id="XMLID_16814_" class="st2" cx="672.4" cy="2267.6" r="1.9"/>
			<circle id="XMLID_16813_" class="st2" cx="659.3" cy="2255" r="1.2"/>
			<circle id="XMLID_16812_" class="st2" cx="663" cy="2271.3" r="1.2"/>
			<circle id="XMLID_16811_" class="st2" cx="653.5" cy="2264.7" r="1.2"/>
			<circle id="XMLID_16810_" class="st2" cx="650.2" cy="2252.5" r="1.2"/>
			<circle id="XMLID_16809_" class="st2" cx="644.7" cy="2246" r="0.7"/>
			<circle id="XMLID_16808_" class="st2" cx="662.1" cy="2261" r="0.7"/>
			<circle id="XMLID_16807_" class="st2" cx="669.2" cy="2236.5" r="0.7"/>
			<circle id="XMLID_16806_" class="st2" cx="669" cy="2277.9" r="0.7"/>
			<circle id="XMLID_16795_" class="st2" cx="661.2" cy="2223.1" r="0.7"/>
		</g>
		<g id="XMLID_16817_">
			<circle id="XMLID_16828_" class="st2" cx="713.6" cy="2233.1" r="1.9"/>
			<circle id="XMLID_16827_" class="st2" cx="685" cy="2237.3" r="1.9"/>
			<circle id="XMLID_16826_" class="st2" cx="698" cy="2249.9" r="1.2"/>
			<circle id="XMLID_16825_" class="st2" cx="694.4" cy="2233.6" r="1.2"/>
			<circle id="XMLID_16824_" class="st2" cx="703.8" cy="2240.3" r="1.2"/>
			<circle id="XMLID_16823_" class="st2" cx="707.1" cy="2252.4" r="1.2"/>
			<circle id="XMLID_16822_" class="st2" cx="712.6" cy="2258.9" r="0.7"/>
			<circle id="XMLID_16821_" class="st2" cx="695.2" cy="2244" r="0.7"/>
			<circle id="XMLID_16820_" class="st2" cx="688.1" cy="2268.5" r="0.7"/>
			<circle id="XMLID_16819_" class="st2" cx="688.3" cy="2227.1" r="0.7"/>
			<circle id="XMLID_16818_" class="st2" cx="696.1" cy="2281.8" r="0.7"/>
		</g>
	</g>
	<g id="XMLID_16793_">
		<path id="XMLID_16796_" class="st3" d="M660.1,2255.9h-4v4.3H654v-4.3h-4v-1.9h4v-4.3h2.1v4.3h4V2255.9z"/>
		<path id="XMLID_16798_" class="st3" d="M671.9,2260.1v1.9h-8.3v-1.9h3.1v-8.8c0-0.3,0-0.7,0-1.1l-2.2,1.8
			c-0.1,0.1-0.2,0.2-0.4,0.2s-0.2,0-0.3,0s-0.2-0.1-0.3-0.1s-0.1-0.1-0.2-0.2l-0.8-1.1l4.6-3.9h2.1v13.2H671.9z"/>
		<path id="XMLID_16800_" class="st4" d="M691.9,2268.3c-7.6,0-13.7-6.1-13.7-13.7s6.1-13.7,13.7-13.7s13.7,6.1,13.7,13.7
			S699.5,2268.3,691.9,2268.3z M691.9,2243.1c-6.3,0-11.4,5.1-11.4,11.4s5.1,11.4,11.4,11.4s11.4-5.1,11.4-11.4
			S698.2,2243.1,691.9,2243.1z M687.4,2252.3c-1.3,0-2.3-1-2.3-2.3s1-2.3,2.3-2.3s2.3,1,2.3,2.3S688.6,2252.3,687.4,2252.3z
			 M691.9,2262.6c-3,0-5.6-1.9-6.5-4.8c-0.2-0.6,0.1-1.2,0.8-1.4c0.6-0.2,1.2,0.1,1.4,0.8c0.6,1.9,2.4,3.2,4.4,3.2s3.8-1.3,4.4-3.2
			c0.2-0.6,0.8-0.9,1.4-0.8c0.6,0.2,0.9,0.8,0.7,1.4C697.6,2260.6,694.9,2262.6,691.9,2262.6z M696.5,2252.3c-1.3,0-2.3-1-2.3-2.3
			s1-2.3,2.3-2.3s2.3,1,2.3,2.3S697.8,2252.3,696.5,2252.3z"/>
	</g>
</g>
<radialGradient id="XMLID_3_" cx="-11419.7812" cy="-2018.5573" r="39.3795" gradientTransform="matrix(-1 0 0 -0.1951 -11132.874 -357.7388)" gradientUnits="userSpaceOnUse">
	<stop  offset="0.1757" style="stop-color:#EA5E65"/>
	<stop  offset="0.9185" style="stop-color:#EA5E65;stop-opacity:0"/>
</radialGradient>
<path id="XMLID_16916_" class="st5" d="M255.3,36L255.3,36c0-11.4,6-21.4,15.1-26.9c4.8-2.9,10.4-4.6,16.5-4.6h0
	c6,0,11.7,1.7,16.5,4.6c9.1,5.5,15.1,15.5,15.1,26.9v0c0,17.4-14.1,31.6-31.6,31.6h0C269.5,67.6,255.3,53.5,255.3,36z"/>
<g id="XMLID_16891_" class="st6">
	<g id="XMLID_16904_">
		<circle id="XMLID_16915_" class="st7" cx="249.6" cy="51.2" r="1.9"/>
		<circle id="XMLID_16914_" class="st7" cx="278.2" cy="47" r="1.9"/>
		<circle id="XMLID_16913_" class="st7" cx="265.1" cy="34.4" r="1.2"/>
		<circle id="XMLID_16912_" class="st7" cx="268.8" cy="50.7" r="1.2"/>
		<circle id="XMLID_16911_" class="st7" cx="259.3" cy="44.1" r="1.2"/>
		<circle id="XMLID_16910_" class="st7" cx="256.1" cy="31.9" r="1.2"/>
		<circle id="XMLID_16909_" class="st7" cx="250.6" cy="25.4" r="0.7"/>
		<circle id="XMLID_16908_" class="st7" cx="267.9" cy="40.3" r="0.7"/>
		<circle id="XMLID_16907_" class="st7" cx="275.1" cy="15.9" r="0.7"/>
		<circle id="XMLID_16906_" class="st7" cx="274.9" cy="57.3" r="0.7"/>
		<circle id="XMLID_16905_" class="st7" cx="267" cy="2.5" r="0.7"/>
	</g>
	<g id="XMLID_16892_">
		<circle id="XMLID_16903_" class="st7" cx="319.4" cy="12.5" r="1.9"/>
		<circle id="XMLID_16902_" class="st7" cx="290.8" cy="16.7" r="1.9"/>
		<circle id="XMLID_16901_" class="st7" cx="303.9" cy="29.3" r="1.2"/>
		<circle id="XMLID_16900_" class="st7" cx="300.2" cy="13" r="1.2"/>
		<circle id="XMLID_16899_" class="st7" cx="309.7" cy="19.6" r="1.2"/>
		<circle id="XMLID_16898_" class="st7" cx="312.9" cy="31.8" r="1.2"/>
		<circle id="XMLID_16897_" class="st7" cx="318.4" cy="38.3" r="0.7"/>
		<circle id="XMLID_16896_" class="st7" cx="301.1" cy="23.4" r="0.7"/>
		<circle id="XMLID_16895_" class="st7" cx="293.9" cy="47.8" r="0.7"/>
		<circle id="XMLID_16894_" class="st7" cx="294.1" cy="6.4" r="0.7"/>
		<circle id="XMLID_16893_" class="st7" cx="302" cy="61.2" r="0.7"/>
	</g>
</g>
<g id="XMLID_16832_">
	<path id="XMLID_16835_" class="st8" d="M256.2,33.5h5.4v2.1h-5.4V33.5z"/>
	<path id="XMLID_16837_" class="st8" d="M273.6,40v1.9h-8.3V40h3.1v-8.8c0-0.3,0-0.7,0-1.1l-2.2,1.8c-0.1,0.1-0.2,0.2-0.4,0.2
		s-0.2,0-0.3,0s-0.2-0.1-0.3-0.1c-0.1-0.1-0.1-0.1-0.2-0.2l-0.8-1.1l4.6-3.9h2.1V40H273.6z"/>
	<path id="XMLID_16839_" class="st7" d="M293.7,48.2c-7.6,0-13.7-6.1-13.7-13.7s6.1-13.7,13.7-13.7s13.7,6.1,13.7,13.7
		S301.3,48.2,293.7,48.2z M293.7,23c-6.3,0-11.4,5.1-11.4,11.4s5.1,11.4,11.4,11.4s11.4-5.1,11.4-11.4S300,23,293.7,23z M289.2,32.2
		c-1.3,0-2.3-1-2.3-2.3s1-2.3,2.3-2.3s2.3,1,2.3,2.3S290.4,32.2,289.2,32.2z M299.5,41.8c-0.6,0.2-1.2-0.1-1.4-0.8
		c-0.6-1.9-2.4-3.2-4.4-3.2s-3.8,1.3-4.4,3.2c-0.2,0.6-0.8,0.9-1.4,0.8c-0.6-0.2-0.9-0.8-0.7-1.4c0.9-2.9,3.5-4.8,6.5-4.8
		s5.6,1.9,6.5,4.8C300.5,41,300.1,41.6,299.5,41.8z M298.3,32.2c-1.3,0-2.3-1-2.3-2.3s1-2.3,2.3-2.3s2.3,1,2.3,2.3
		S299.6,32.2,298.3,32.2z"/>
</g>
</svg>
