<?xml version="1.0" encoding="utf-8"?>
<!-- Generator: Adobe Illustrator 19.0.0, SVG Export Plug-In . SVG Version: 6.00 Build 0)  -->
<svg version="1.1" id="Layer_1" xmlns="http://www.w3.org/2000/svg" xmlns:xlink="http://www.w3.org/1999/xlink" x="0px" y="0px"
	 width="73.6px" height="63.1px" viewBox="248.4 3.5 73.6 63.1" style="enable-background:new 248.4 3.5 73.6 63.1;"
	 xml:space="preserve">
<style type="text/css">
	.st0{opacity:0.51;fill:url(#XMLID_2_);}
	.st1{opacity:0.59;}
	.st2{fill:#FFFFFF;}
	.st3{fill:#5BC4BF;}
	.st4{fill:#419794;}
</style>
<radialGradient id="XMLID_2_" cx="-11417.5293" cy="-2017.5161" r="53.459" gradientTransform="matrix(2.422222e-11 0.4268 -1 3.551951e-11 -1731.6498 4910.3257)" gradientUnits="userSpaceOnUse">
	<stop  offset="0.3039" style="stop-color:#FFFFFF"/>
	<stop  offset="0.729" style="stop-color:#FFFFFF;stop-opacity:0"/>
</radialGradient>
<path id="XMLID_16869_" class="st0" d="M256.2,37L256.2,37c0-16.4,13.3-29.7,29.7-29.7h0c16.4,0,29.7,13.3,29.7,29.7v0
	c0,16.4-13.3,29.7-29.7,29.7h0C269.5,66.7,256.2,53.4,256.2,37z"/>
<g id="XMLID_16844_" class="st1">
	<g id="XMLID_16857_">
		<circle id="XMLID_16868_" class="st2" cx="250.3" cy="52.9" r="1.9"/>
		<circle id="XMLID_16867_" class="st2" cx="278.9" cy="48.7" r="1.9"/>
		<circle id="XMLID_16866_" class="st2" cx="265.8" cy="36.1" r="1.2"/>
		<circle id="XMLID_16865_" class="st2" cx="269.5" cy="52.4" r="1.2"/>
		<circle id="XMLID_16864_" class="st2" cx="260" cy="45.8" r="1.2"/>
		<circle id="XMLID_16863_" class="st2" cx="256.8" cy="33.6" r="1.2"/>
		<circle id="XMLID_16862_" class="st2" cx="251.3" cy="27.1" r="0.7"/>
		<circle id="XMLID_16861_" class="st2" cx="268.6" cy="42" r="0.7"/>
		<circle id="XMLID_16860_" class="st2" cx="275.8" cy="17.6" r="0.7"/>
		<circle id="XMLID_16859_" class="st2" cx="275.6" cy="59" r="0.7"/>
		<circle id="XMLID_16858_" class="st2" cx="267.8" cy="4.2" r="0.7"/>
	</g>
	<g id="XMLID_16845_">
		<circle id="XMLID_16856_" class="st2" cx="320.1" cy="14.2" r="1.9"/>
		<circle id="XMLID_16855_" class="st2" cx="291.5" cy="18.4" r="1.9"/>
		<circle id="XMLID_16854_" class="st2" cx="304.6" cy="31" r="1.2"/>
		<circle id="XMLID_16853_" class="st2" cx="300.9" cy="14.7" r="1.2"/>
		<circle id="XMLID_16852_" class="st2" cx="310.4" cy="21.3" r="1.2"/>
		<circle id="XMLID_16851_" class="st2" cx="313.6" cy="33.5" r="1.2"/>
		<circle id="XMLID_16850_" class="st2" cx="319.1" cy="40" r="0.7"/>
		<circle id="XMLID_16849_" class="st2" cx="301.8" cy="25.1" r="0.7"/>
		<circle id="XMLID_16848_" class="st2" cx="294.6" cy="49.5" r="0.7"/>
		<circle id="XMLID_16847_" class="st2" cx="294.9" cy="8.1" r="0.7"/>
		<circle id="XMLID_16846_" class="st2" cx="302.7" cy="62.9" r="0.7"/>
	</g>
</g>
<g id="XMLID_16831_">
	<path id="XMLID_16871_" class="st3" d="M266.7,37.4h-4v4.3h-2.1v-4.3h-4v-1.9h4v-4.3h2.1v4.3h4V37.4z"/>
	<path id="XMLID_16873_" class="st3" d="M271.9,33.9c0.3-0.1,0.7-0.1,1-0.2c0.3,0,0.6,0,0.9,0c0.8,0,1.5,0.1,2.1,0.4
		c0.6,0.2,1.1,0.6,1.5,1s0.7,0.9,0.9,1.5s0.3,1.2,0.3,1.8c0,0.8-0.1,1.5-0.4,2.2c-0.3,0.7-0.7,1.2-1.2,1.7c-0.5,0.5-1.1,0.8-1.8,1.1
		s-1.4,0.4-2.2,0.4c-0.5,0-0.9,0-1.3-0.1c-0.4-0.1-0.8-0.2-1.2-0.4c-0.4-0.2-0.7-0.4-1-0.6c-0.3-0.2-0.6-0.4-0.8-0.7l0.8-1.1
		c0.2-0.2,0.4-0.4,0.7-0.4c0.2,0,0.4,0.1,0.5,0.2s0.4,0.2,0.6,0.4c0.2,0.1,0.5,0.3,0.8,0.4c0.3,0.1,0.7,0.2,1.1,0.2
		c0.5,0,0.9-0.1,1.3-0.2c0.4-0.2,0.7-0.4,0.9-0.6s0.4-0.6,0.5-1s0.2-0.8,0.2-1.2c0-0.8-0.2-1.5-0.7-1.9c-0.5-0.5-1.2-0.7-2.1-0.7
		c-0.7,0-1.4,0.1-2.2,0.4l-1.6-0.5l1.3-7.3h7.4v1.1c0,0.4-0.1,0.7-0.3,0.9c-0.2,0.2-0.6,0.3-1.2,0.3h-4.1L271.9,33.9z"/>
	<path id="XMLID_16875_" class="st4" d="M298.6,49.7c-7.6,0-13.7-6.1-13.7-13.7s6.1-13.7,13.7-13.7c7.6,0,13.7,6.1,13.7,13.7
		S306.1,49.7,298.6,49.7z M298.6,24.6c-6.3,0-11.4,5.1-11.4,11.4s5.1,11.4,11.4,11.4c6.3,0,11.4-5.1,11.4-11.4
		S304.9,24.6,298.6,24.6z M294,33.7c-1.3,0-2.3-1-2.3-2.3s1-2.3,2.3-2.3s2.3,1,2.3,2.3S295.3,33.7,294,33.7z M298.6,44
		c-3,0-5.6-1.9-6.5-4.8c-0.2-0.6,0.1-1.2,0.8-1.4c0.6-0.2,1.2,0.1,1.4,0.8c0.6,1.9,2.4,3.2,4.4,3.2s3.8-1.3,4.4-3.2
		c0.2-0.6,0.8-0.9,1.4-0.8c0.6,0.2,0.9,0.8,0.7,1.4C304.2,42.1,301.6,44,298.6,44z M303.1,33.7c-1.3,0-2.3-1-2.3-2.3s1-2.3,2.3-2.3
		s2.3,1,2.3,2.3S304.4,33.7,303.1,33.7z"/>
</g>
</svg>
