<?xml version="1.0" encoding="utf-8"?>
<!-- Generator: Adobe Illustrator 19.0.0, SVG Export Plug-In . SVG Version: 6.00 Build 0)  -->
<svg version="1.1" id="Layer_1" xmlns="http://www.w3.org/2000/svg" xmlns:xlink="http://www.w3.org/1999/xlink" x="0px" y="0px"
	 width="124.2px" height="178.5px" viewBox="-397 36.5 124.2 178.5" style="enable-background:new -397 36.5 124.2 178.5;"
	 xml:space="preserve">
<style type="text/css">
	.st0{fill:#EA5E65;}
	.st1{fill:#DB5A67;}
	.st2{fill:#27524E;}
	.st3{opacity:0.2;fill:#FFFFFF;enable-background:new    ;}
	.st4{opacity:0.5;fill:#FFFFFF;enable-background:new    ;}
</style>
<g id="XMLID_191_">
	<path id="XMLID_219_" class="st0" d="M-360.2,68.6l-13.7,8.3l31.6,52.4c1.1,1.8,14.8-6.4,13.7-8.3L-360.2,68.6z"/>
	<path id="XMLID_8529_" class="st1" d="M-364.3,71.1l32.3,53.7c2.2-1.6,3.8-3.1,3.4-3.8l-31.6-52.4L-364.3,71.1z"/>
	<circle id="XMLID_218_" class="st2" cx="-376.7" cy="56.8" r="20.3"/>
	<path id="XMLID_217_" class="st3" d="M-390.3,46.9c3.7-5,8.5-8.6,13.5-10.4c-6.2,0-12.4,2.9-16.3,8.3c-4,5.5-4.8,12.2-2.9,18.2
		C-395.9,57.6-394,51.9-390.3,46.9z"/>
	<path id="XMLID_216_" class="st4" d="M-385.3,62.3c2.7,4,5.8,6.5,3.2,8.2c-2.6,1.8-6.9,0-9.6-4c-2.7-4-2.7-8.6-0.1-10.3
		C-389,54.4-387.9,58.3-385.3,62.3z"/>
	<g id="XMLID_193_">
		<path id="XMLID_215_" class="st0" d="M-309.6,182.9l13.7-8.3l-31.6-52.4c-1.1-1.8-14.8,6.4-13.7,8.3L-309.6,182.9z"/>
		<path id="XMLID_214_" class="st1" d="M-305.4,180.4l-32.4-53.7c-2.2,1.6-3.8,3.1-3.4,3.8l31.6,52.4L-305.4,180.4z"/>
		<circle id="XMLID_213_" class="st2" cx="-293.1" cy="194.7" r="20.3"/>
		<path id="XMLID_212_" class="st3" d="M-279.4,204.6c-3.7,5-8.5,8.6-13.5,10.4c6.2,0,12.4-2.9,16.3-8.3c3.9-5.4,4.8-12.2,2.9-18.1
			C-273.9,193.9-275.8,199.6-279.4,204.6z"/>
		<path id="XMLID_211_" class="st4" d="M-284.5,189.2c-2.7-4-5.8-6.5-3.2-8.2c2.6-1.8,6.9,0,9.6,4c2.7,4,2.7,8.6,0.1,10.3
			C-280.7,197.1-281.8,193.2-284.5,189.2z"/>
	</g>
</g>
</svg>
