<?xml version="1.0" encoding="utf-8"?>
<!-- Generator: Adobe Illustrator 19.0.0, SVG Export Plug-In . SVG Version: 6.00 Build 0)  -->
<svg version="1.1" id="Layer_1" xmlns="http://www.w3.org/2000/svg" xmlns:xlink="http://www.w3.org/1999/xlink" x="0px" y="0px"
	 width="64px" height="64px" viewBox="0 0 64 64" style="enable-background:new 0 0 64 64;" xml:space="preserve">
<style type="text/css">
	.st0{fill:#EA5E65;}
</style>
<path id="XMLID_59_" class="st0" d="M62,30h-8.5l7.8-7.8c0.8-0.8,0.8-2,0-2.8c-0.8-0.8-2-0.8-2.8,0L47.8,30h-11l17.8-17.8
	c0.8-0.8,0.8-2,0-2.8c-0.8-0.8-2-0.8-2.8,0L34,27.2v-11L44.5,5.6c0.8-0.8,0.8-2,0-2.8c-0.8-0.8-2-0.8-2.8,0L34,10.5V2
	c0-1.1-0.9-2-2-2c-1.1,0-2,0.9-2,2v8.5l-7.7-7.7c-0.8-0.8-2-0.8-2.8,0c-0.8,0.8-0.8,2,0,2.8L30,16.2v11L12.2,9.4
	c-0.8-0.8-2-0.8-2.8,0c-0.8,0.8-0.8,2,0,2.8L27.2,30h-11L5.7,19.5c-0.8-0.8-2-0.8-2.8,0c-0.8,0.8-0.8,2,0,2.8l7.7,7.7H2
	c-1.1,0-2,0.9-2,2s0.9,2,2,2h8.5l-7.7,7.7c-0.8,0.8-0.8,2,0,2.8c0.4,0.4,0.9,0.6,1.4,0.6s1-0.2,1.4-0.6L16.2,34h11L9.3,51.8
	c-0.8,0.8-0.8,2,0,2.8c0.4,0.4,0.9,0.6,1.4,0.6s1-0.2,1.4-0.6l4.2-4.2c0,0,0,0,0,0L30,36.8v11L19.4,58.4c-0.8,0.8-0.8,2,0,2.8
	c0.4,0.4,0.9,0.6,1.4,0.6s1-0.2,1.4-0.6l7.8-7.8V62c0,1.1,0.9,2,2,2c1.1,0,2-0.9,2-2v-8.5l7.8,7.8c0.8,0.8,2,0.8,2.8,0
	c0.8-0.8,0.8-2,0-2.8L34,47.8v-11l17.8,17.8c0.8,0.8,2,0.8,2.8,0c0.8-0.8,0.8-2,0-2.8L36.8,34h11l10.6,10.6c0.4,0.4,0.9,0.6,1.4,0.6
	s1-0.2,1.4-0.6c0.8-0.8,0.8-2,0-2.8L53.5,34H62c1.1,0,2-0.9,2-2S63.1,30,62,30z"/>
</svg>
