<?xml version="1.0" encoding="utf-8"?>
<!-- Generator: Adobe Illustrator 19.0.0, SVG Export Plug-In . SVG Version: 6.00 Build 0)  -->
<svg version="1.1" id="Layer_1" xmlns="http://www.w3.org/2000/svg" xmlns:xlink="http://www.w3.org/1999/xlink" x="0px" y="0px"
	 viewBox="0 0 836.6 76.8" style="enable-background:new 0 0 836.6 76.8;" xml:space="preserve">
<style type="text/css">
	.st0{fill:#8D6D4B;}
	.st1{opacity:0.2;}
	.st2{fill:#272419;}
	.st3{fill:#AF9064;}
	.st4{opacity:0.5;fill:#272419;}
</style>
<rect id="XMLID_5323_" x="0" y="24.1" class="st0" width="836.6" height="45.9"/>
<g id="XMLID_7364_" class="st1">
	<rect id="XMLID_7900_" x="48.7" y="24.5" class="st2" width="11.4" height="44.8"/>
	<rect id="XMLID_7899_" x="131.9" y="24.5" class="st2" width="11.4" height="44.8"/>
	<rect id="XMLID_7898_" x="215" y="24.5" class="st2" width="11.4" height="44.8"/>
	<rect id="XMLID_7897_" x="298.1" y="24.5" class="st2" width="11.4" height="44.8"/>
	<rect id="XMLID_7896_" x="381.3" y="24.5" class="st2" width="11.4" height="44.8"/>
	<rect id="XMLID_7895_" x="464.4" y="24.5" class="st2" width="11.4" height="44.8"/>
	<rect id="XMLID_7894_" x="547.5" y="24.5" class="st2" width="11.4" height="44.8"/>
	<rect id="XMLID_7893_" x="630.7" y="24.5" class="st2" width="11.4" height="44.8"/>
	<rect id="XMLID_7892_" x="713.8" y="24.5" class="st2" width="11.4" height="44.8"/>
	<rect id="XMLID_7891_" x="796.9" y="24.5" class="st2" width="11.4" height="44.8"/>
</g>
<g id="XMLID_5324_">
	<rect id="XMLID_3657_" x="45.3" y="24.5" class="st3" width="11.4" height="44.8"/>
	<rect id="XMLID_5325_" x="128.5" y="24.5" class="st3" width="11.4" height="44.8"/>
	<rect id="XMLID_5326_" x="211.6" y="24.5" class="st3" width="11.4" height="44.8"/>
	<rect id="XMLID_5327_" x="294.7" y="24.5" class="st3" width="11.4" height="44.8"/>
	<rect id="XMLID_5332_" x="377.9" y="24.5" class="st3" width="11.4" height="44.8"/>
	<rect id="XMLID_5333_" x="461" y="24.5" class="st3" width="11.4" height="44.8"/>
	<rect id="XMLID_5334_" x="544.1" y="24.5" class="st3" width="11.4" height="44.8"/>
	<rect id="XMLID_5335_" x="627.3" y="24.5" class="st3" width="11.4" height="44.8"/>
	<rect id="XMLID_5336_" x="710.4" y="24.5" class="st3" width="11.4" height="44.8"/>
	<rect id="XMLID_5337_" x="793.5" y="24.5" class="st3" width="11.4" height="44.8"/>
</g>
<rect id="XMLID_7890_" x="0" y="5.1" class="st4" width="836.6" height="25.3"/>
<rect id="XMLID_2634_" x="0" y="0" class="st2" width="836.6" height="25.3"/>
<rect id="XMLID_5320_" x="0" y="51.5" class="st2" width="836.6" height="25.3"/>
</svg>
