<?xml version="1.0" encoding="utf-8"?>
<!-- Generator: Adobe Illustrator 19.0.0, SVG Export Plug-In . SVG Version: 6.00 Build 0)  -->
<svg version="1.1" id="Layer_1" xmlns="http://www.w3.org/2000/svg" xmlns:xlink="http://www.w3.org/1999/xlink" x="0px" y="0px"
	 width="836.6px" height="247.6px" viewBox="-41 2.4 836.6 247.6" style="enable-background:new -41 2.4 836.6 247.6;"
	 xml:space="preserve">
<style type="text/css">
	.st0{fill:#50514F;}
	.st1{fill:#70BBC0;}
	.st2{fill:#27524E;}
	.st3{fill:#EA5E65;}
	.st4{fill:#0F7A82;}
	.st5{opacity:0.1;enable-background:new    ;}
	.st6{opacity:0.1;}
	.st7{opacity:0.3;}
	.st8{fill:#FFFFFF;}
</style>
<g id="XMLID_316_">
	<rect id="XMLID_2514_" x="-41" y="189.5" class="st0" width="836.6" height="60.5"/>
	<path id="XMLID_263_" class="st1" d="M438.5,55.8c0,5.2-0.7,10.2-2.1,14.9H333.7c-1.4-4.7-2.1-9.7-2.1-14.9c0-1.5,0.1-3,0.2-4.4
		c0.2-2.9,0.7-5.7,1.4-8.4c5.7-23.3,26.7-40.6,51.9-40.6c25.1,0,46.2,17.3,51.9,40.6c0.7,2.7,1.1,5.6,1.4,8.4
		C438.5,52.9,438.5,54.4,438.5,55.8z"/>
	<path id="XMLID_262_" class="st2" d="M420.3,55.8c0,5.4-1.2,10.4-3.3,14.9h-63.8c-2.1-4.5-3.3-9.6-3.3-14.9c0-1.5,0.1-3,0.3-4.4
		c0.4-2.9,1.1-5.8,2.2-8.4c5.1-13.1,17.9-22.3,32.8-22.3S412.8,30,417.9,43c1.1,2.7,1.8,5.5,2.2,8.4
		C420.2,52.9,420.3,54.4,420.3,55.8z"/>
	<path id="XMLID_261_" class="st3" d="M408.9,55.8c0,5.6-2,10.8-5.2,14.9h-37.4c-3.3-4.1-5.2-9.3-5.2-14.9c0-1.5,0.1-3,0.4-4.4
		c0.5-3.1,1.7-5.9,3.4-8.4c4.2-6.6,11.6-11,20.1-11c8.4,0,15.9,4.4,20.1,11c1.7,2.5,2.8,5.4,3.4,8.4
		C408.8,52.9,408.9,54.3,408.9,55.8z"/>
	<rect id="XMLID_260_" x="323.5" y="43" class="st4" width="123" height="12.9"/>
	<rect id="XMLID_259_" x="313.8" y="51.4" class="st2" width="142.6" height="19.3"/>
	<path id="XMLID_255_" class="st5" d="M446.5,43H437v-0.1c-14.1,8.3-32.2,13.3-51.9,13.3c-19.7,0-37.7-5-51.9-13.3V43h-9.6v8.4h-9.8
		v19.3h20h19.4h13.2h37.4H417h19.5h19.9V51.4h-9.8V43H446.5z"/>
	<g id="XMLID_191_">
		<g id="XMLID_217_">
			<path id="XMLID_252_" class="st1" d="M444.3,69.7H319.2c-24.6,0-44.5,19.9-44.5,44.5v89.1h214.2v-89.1
				C488.9,89.6,468.9,69.7,444.3,69.7z"/>
			<path id="XMLID_251_" class="st4" d="M498.9,125.9h-38.4c-2.3-5-6.4-9-11.4-11.4V61h-20v53.5c-5,2.3-9,6.4-11.4,11.4h-71.8
				c-2.3-5-6.4-9-11.4-11.4V61h-20v53.5c-5,2.3-9,6.4-11.4,11.4h-38.4v20h38.4c2.3,5,6.4,9,11.4,11.4v54.6h20v-54.6
				c5-2.3,9-6.4,11.4-11.4h71.8c2.3,5,6.4,9,11.4,11.4v54.6h20v-54.6c5-2.3,9-6.4,11.4-11.4h38.4V125.9z"/>
			<g id="XMLID_246_">
				<circle id="XMLID_250_" class="st3" cx="324.5" cy="135.9" r="14.6"/>
				<circle id="XMLID_249_" class="st2" cx="324.5" cy="135.9" r="8.4"/>
				<circle id="XMLID_248_" class="st3" cx="439.1" cy="135.9" r="14.6"/>
				<circle id="XMLID_247_" class="st2" cx="439.1" cy="135.9" r="8.4"/>
			</g>
			<rect id="XMLID_245_" x="246.1" y="201.9" class="st2" width="271.4" height="20"/>
			<rect id="XMLID_244_" x="264.7" y="133.4" class="st3" width="47.3" height="5"/>
			<rect id="XMLID_243_" x="451.6" y="133.4" class="st3" width="47.3" height="5"/>
			<rect id="XMLID_242_" x="337.5" y="133.4" class="st3" width="89.7" height="5"/>
			<g id="XMLID_235_" class="st6">
				<path id="XMLID_241_" d="M457.7,194v-31.1c3-2.1,5.5-4.7,7.6-7.6h14.9V194H457.7L457.7,194z"/>
				<path id="XMLID_240_" d="M465.3,118c-2.1-3-4.7-5.5-7.6-7.6V81.6c13.3,5.3,22.5,18.3,22.5,33.4v3.1L465.3,118L465.3,118z"/>
				<path id="XMLID_239_" d="M343.1,194v-31.1c3-2.1,5.5-4.7,7.6-7.6h62c2.1,3,4.7,5.5,7.6,7.6V194H343.1z"/>
				<path id="XMLID_238_" d="M283.3,194v-38.7h14.9c2.1,3,4.7,5.5,7.6,7.6V194H283.3L283.3,194z"/>
				<path id="XMLID_237_" d="M283.3,118v-3.1c0-15,9.2-28,22.5-33.4v28.9c-3,2.1-5.5,4.7-7.6,7.6H283.3z"/>
				<path id="XMLID_236_" d="M350.8,118c-2.1-3-4.7-5.5-7.6-7.6V79h77.3v31.4c-3,2.1-5.5,4.7-7.6,7.6H350.8z"/>
			</g>
			<g id="XMLID_230_">
				<rect id="XMLID_234_" x="259.6" y="196.4" class="st0" width="9.8" height="5.5"/>
				<rect id="XMLID_233_" x="337.8" y="196.4" class="st2" width="9.8" height="5.5"/>
				<rect id="XMLID_232_" x="416" y="196.4" class="st2" width="9.8" height="5.5"/>
				<rect id="XMLID_231_" x="494.2" y="196.4" class="st0" width="9.8" height="5.5"/>
			</g>
			<g id="XMLID_227_">
				<rect id="XMLID_229_" x="290.4" y="120.5" class="st2" width="7.6" height="5.5"/>
				<rect id="XMLID_228_" x="351.3" y="120.5" class="st2" width="7.6" height="5.5"/>
			</g>
			<g id="XMLID_224_">
				<rect id="XMLID_226_" x="290.4" y="145.9" class="st2" width="7.6" height="5.5"/>
				<rect id="XMLID_225_" x="351.3" y="145.9" class="st2" width="7.6" height="5.5"/>
			</g>
			<g id="XMLID_221_">
				<rect id="XMLID_223_" x="404.8" y="120.5" class="st2" width="7.6" height="5.5"/>
				<rect id="XMLID_222_" x="465.7" y="120.5" class="st2" width="7.6" height="5.5"/>
			</g>
			<g id="XMLID_218_">
				<rect id="XMLID_220_" x="404.8" y="145.9" class="st2" width="7.6" height="5.5"/>
				<rect id="XMLID_219_" x="465.7" y="145.9" class="st2" width="7.6" height="5.5"/>
			</g>
		</g>
		<g id="XMLID_215_" class="st7">
			<path id="XMLID_216_" class="st8" d="M307.9,74.2c0.7-0.1,23.4-0.5,23.4-0.5h101l21.4,0.3c0.5,0,0.9,0.1,1.4,0.2
				c6.2,0.8,12.1,2.7,17.3,5.6c-6.5-5.3-14.5-8.8-23.3-9.7v-8.9h-20v8.6h-94.6v-8.6h-20v8.9c-8.8,0.9-16.8,4.5-23.3,9.8
				C296.3,76.9,301.9,75,307.9,74.2z"/>
		</g>
		<path id="XMLID_214_" class="st5" d="M504,196.1h-9.8v5.5h-5.3v-33.1c-31.7,10.9-68.2,17.2-107.1,17.2
			c-38.8,0-75.3-6.2-107.1-17.2v33.1h-5.3v-5.5h-9.8v5.5h-13.5v20h271.4v-20H504V196.1z"/>
		<g id="XMLID_193_">
			<path id="XMLID_213_" class="st3" d="M392.3,105.4h-21.1c-1.5,0-2.7-1.2-2.7-2.7v-8.4c0-1.5,1.2-2.7,2.7-2.7h21.1
				c1.5,0,2.7,1.2,2.7,2.7v8.4C395.1,104.2,393.8,105.4,392.3,105.4z"/>
			<circle id="XMLID_212_" class="st0" cx="371.5" cy="98.4" r="1.4"/>
			<circle id="XMLID_211_" class="st0" cx="392.2" cy="98.4" r="1.4"/>
		</g>
	</g>
</g>
</svg>
