<?xml version="1.0" encoding="utf-8"?>
<!-- Generator: Adobe Illustrator 19.0.0, SVG Export Plug-In . SVG Version: 6.00 Build 0)  -->
<svg version="1.1" id="Layer_1" xmlns="http://www.w3.org/2000/svg" xmlns:xlink="http://www.w3.org/1999/xlink" x="0px" y="0px"
	 width="157.7px" height="62.8px" viewBox="-20 69.2 157.7 62.8" style="enable-background:new -20 69.2 157.7 62.8;"
	 xml:space="preserve">
<style type="text/css">
	.st0{fill:#27524E;}
	.st1{fill:#20423E;enable-background:new    ;}
	.st2{fill:#FFB743;}
	.st3{fill:#537571;enable-background:new    ;}
	.st4{fill:#FFD365;stroke:#0F7A82;stroke-width:3.2186;stroke-miterlimit:10;}
	.st5{fill:#FEE4A7;enable-background:new    ;}
	.st6{fill:#FFD365;}
</style>
<g id="XMLID_15446_">
	<path id="XMLID_15445_" class="st0" d="M132.8,131.8H-15.1c-2.7,0-4.9-2.2-4.9-4.9V74.1c0-2.7,2.2-4.9,4.9-4.9h147.8
		c2.7,0,4.9,2.2,4.9,4.9v52.8C137.7,129.6,135.5,131.8,132.8,131.8z"/>
	<path id="XMLID_15440_" class="st1" d="M-20,99.2v27.9c0,2.7,2.2,4.9,4.9,4.9h147.8c2.7,0,4.9-2.2,4.9-4.9V99.2
		C137,122.2-20.6,120.6-20,99.2z"/>
	<circle id="XMLID_15442_" class="st2" cx="-14" cy="125.9" r="2.7"/>
	<circle id="XMLID_15441_" class="st2" cx="131.7" cy="125.9" r="2.7"/>
	<path id="XMLID_15439_" class="st3" d="M31.5,71.3c18.2,0,90.2,1.1,106.2,3.1v-0.3c0-2.7-2.2-4.9-4.9-4.9H-15.1
		c-2.7,0-4.9,2.2-4.9,4.9v0.3C-4,72.4,13.4,71.3,31.5,71.3z"/>
	<path id="XMLID_15438_" class="st4" d="M120.5,120.1H-4.8c-2.1,0-3.8-1.7-3.8-3.8v-32c0-2.1,1.7-3.8,3.8-3.8h125.3
		c2.1,0,3.8,1.7,3.8,3.8v32C124.4,118.4,122.7,120.1,120.5,120.1z"/>
	<path id="XMLID_15429_" class="st5" d="M18.1,84.7C5.4,88.9-4,96.4-5.2,108.9c-0.1,1.2,1,2.3,2.3,2.3h6.3
		C5.1,99.2,10.5,91.5,18.1,84.7z"/>
	<circle id="XMLID_15444_" class="st6" cx="-14" cy="75" r="2.7"/>
	<circle id="XMLID_15443_" class="st6" cx="131.7" cy="75" r="2.7"/>
</g>
</svg>
