<?xml version="1.0" encoding="utf-8"?>
<!-- Generator: Adobe Illustrator 19.0.0, SVG Export Plug-In . SVG Version: 6.00 Build 0)  -->
<svg version="1.1" id="Layer_1" xmlns="http://www.w3.org/2000/svg" xmlns:xlink="http://www.w3.org/1999/xlink" x="0px" y="0px"
	 width="50px" height="58.9px" viewBox="17 -28.9 50 58.9" style="enable-background:new 17 -28.9 50 58.9;" xml:space="preserve">
<style type="text/css">
	.st0{fill:#FFD365;}
	.st1{fill:#B3962F;}
	.st2{fill:#F1C768;enable-background:new    ;}
	.st3{fill:#FFFFFF;}
</style>
<g id="XMLID_15022_">
	<g id="XMLID_15012_">
		
			<image style="overflow:visible;enable-background:new    ;" width="82" height="82" id="XMLID_134_" xlink:href="5880583DFE73B66F.png"  transform="matrix(0.5229 0 0 0.5229 20.5613 -12.8772)">
		</image>
		<g id="XMLID_123_">
			<path id="XMLID_133_" class="st0" d="M46.4,19.5c-0.2,0-0.5-0.1-0.6-0.2l-5.3-3.6h-0.1l-6,2.3c-0.2,0.1-0.3,0.1-0.4,0.1
				c-0.4,0-0.8-0.2-1-0.5c-0.2-0.3-0.3-0.7-0.2-1.1l1.8-6.2c0-0.1,0-0.1,0-0.1l-4-4.9c-0.3-0.4-0.4-0.9-0.2-1.2
				c0.2-0.4,0.6-0.7,1.1-0.7l6.4-0.2c0.1,0,0.1,0,0.1-0.1l3.5-5.4c0.2-0.3,0.6-0.5,1-0.5c0.5,0,1,0.3,1.1,0.8l2.1,6
				c0,0.1,0.1,0.1,0.1,0.1L52,5.8c0.4,0.1,0.8,0.5,0.9,0.9c0.1,0.4-0.1,0.9-0.4,1.2l-5.1,4c-0.1,0-0.1,0.1-0.1,0.1l0.4,6.4
				c0,0.3-0.1,0.6-0.3,0.9C47.1,19.4,46.8,19.5,46.4,19.5z"/>
			<path id="XMLID_130_" class="st1" d="M42.4-2.2c0.3,0,0.5,0.2,0.6,0.4l2.1,6c0.1,0.2,0.3,0.4,0.4,0.4l6.2,1.6
				c0.5,0.2,0.6,0.8,0.2,1.1l-5,3.9c-0.2,0.1-0.3,0.3-0.3,0.5l0.4,6.4c0,0.4-0.3,0.7-0.6,0.7c-0.1,0-0.3-0.1-0.4-0.1l-5.3-3.6
				c-0.1-0.1-0.2-0.1-0.4-0.1c-0.1,0-0.2,0-0.2,0.1l-5.9,2.3c-0.1,0.1-0.2,0.1-0.2,0.1c-0.4,0-0.8-0.4-0.6-0.9l1.8-6.2
				c0.1-0.2,0-0.4-0.1-0.6L31,5C30.6,4.6,30.9,4,31.4,4l6.4-0.2c0.2,0,0.4-0.1,0.5-0.3l3.5-5.4C42-2,42.2-2.2,42.4-2.2 M42.4-3.2
				L42.4-3.2c-0.6,0-1.1,0.3-1.4,0.8l-3.3,5.2L31.5,3c-0.6,0-1.2,0.4-1.5,1s-0.2,1.3,0.2,1.8l3.9,4.8l-1.8,5.9
				c-0.2,0.5-0.1,1.1,0.3,1.5s0.9,0.7,1.4,0.7c0.2,0,0.4-0.1,0.6-0.1l5.7-2.3l5.1,3.5c0.3,0.2,0.6,0.3,1,0.3c0.5,0,0.9-0.2,1.3-0.5
				c0.3-0.3,0.5-0.8,0.5-1.3l-0.4-6.2l4.9-3.8c0.5-0.4,0.8-1.1,0.6-1.7c-0.1-0.6-0.6-1.2-1.2-1.3l-5.9-1.6L44-2.1
				C43.8-2.8,43.1-3.2,42.4-3.2L42.4-3.2z"/>
		</g>
	</g>
	<path id="XMLID_15028_" class="st2" d="M51.9,6.3l-4.2-1.1c-2,2.7-5.4,5.3-9.5,7c-1.3,0.5-2.6,1-3.8,1.2l-1,3.3
		c-0.2,0.5,0.4,1,0.9,0.8l5.7-2.2c0.4-0.2,0.8-0.1,1.1,0.1l5.1,3.4c0.4,0.3,1-0.1,1-0.6l-0.4-6.1c0-0.4,0.2-0.8,0.5-1l4.8-3.8
		C52.5,7.1,52.4,6.5,51.9,6.3z"/>
	<circle id="XMLID_15020_" class="st3" cx="35.2" cy="-2.4" r="1"/>
	<circle id="XMLID_15115_" class="st3" cx="50.5" cy="-4.7" r="1"/>
	<circle id="XMLID_15027_" class="st3" cx="43.6" cy="-11.4" r="0.6"/>
	<circle id="XMLID_15112_" class="st3" cx="45.5" cy="-2.7" r="0.6"/>
	<circle id="XMLID_15116_" class="st3" cx="40.4" cy="-6.3" r="0.6"/>
	<circle id="XMLID_15029_" class="st3" cx="38.7" cy="-12.8" r="0.6"/>
	<circle id="XMLID_15108_" class="st3" cx="35.7" cy="-16.3" r="0.4"/>
	<circle id="XMLID_15113_" class="st3" cx="45.1" cy="-8.3" r="0.4"/>
	<circle id="XMLID_15109_" class="st3" cx="48.9" cy="-21.4" r="0.4"/>
	<circle id="XMLID_15110_" class="st3" cx="48.8" cy="0.8" r="0.4"/>
	<circle id="XMLID_15111_" class="st3" cx="44.6" cy="-28.5" r="0.4"/>
</g>
</svg>
