<?xml version="1.0" encoding="utf-8"?>
<!-- Generator: Adobe Illustrator 19.0.0, SVG Export Plug-In . SVG Version: 6.00 Build 0)  -->
<svg version="1.1" id="Layer_1" xmlns="http://www.w3.org/2000/svg" xmlns:xlink="http://www.w3.org/1999/xlink" x="0px" y="0px"
	 viewBox="0 0 73.5 22.8" style="enable-background:new 0 0 73.5 22.8;" xml:space="preserve">
<style type="text/css">
	.st0{fill-rule:evenodd;clip-rule:evenodd;fill:#F7F2E8;}
	.st1{fill-rule:evenodd;clip-rule:evenodd;fill:#DECAA6;}
	.st2{fill-rule:evenodd;clip-rule:evenodd;fill:#DECCAD;}
	.st3{fill-rule:evenodd;clip-rule:evenodd;fill:#CC0000;}
	.st4{fill-rule:evenodd;clip-rule:evenodd;fill:#B30000;}
	.st5{fill:#CC0000;}
	.st6{fill:#B30000;}
	.st7{fill-rule:evenodd;clip-rule:evenodd;fill:#FFFFFF;}
	.st8{fill-rule:evenodd;clip-rule:evenodd;fill:#E60000;}
	.st9{fill:#E60000;}
</style>
<g id="XMLID_13948_">
	<g id="XMLID_13963_">
		<g id="XMLID_13999_">
			<path id="XMLID_14002_" class="st0" d="M52.1,3.3c0.2-4.7,3.8-3.3,7.5-2.6c6.7,2.1,15.3,4.6,13.8,13.7c-0.5,2.8-2.6,4.9-5,6.5
				c-6.1,4-18.2,0.5-25.4,0c-8.9-0.8-17.8-1.6-26.7-2.4c-4-0.4-10.7-0.1-13.6-1.3c-3-1.3-3-2.7-2.1-5.6c0.6-1.9,3.9-1.5,5.4-1.2
				c12.8,2.7,25.4,3.7,38.3,5.2c4.3,0.5,8.7,1.1,13,1.6c2.8,0.1,10.7,0.6,11.3-3.7c0.9-6.1-8-6.8-12.4-7C54.1,6.4,51.9,6.3,52.1,3.3
				L52.1,3.3z"/>
			<path id="XMLID_14001_" class="st1" d="M73.5,13.7c0,0.2-0.1,0.5-0.1,0.7c-0.5,2.8-2.6,4.9-5,6.5c-6.1,4-18.2,0.5-25.4,0
				c-8.9-0.8-17.8-1.6-26.7-2.4c-4-0.4-10.7-0.1-13.6-1.3c-2.4-1-2.9-2.1-2.6-3.9c1,2.9,3.2,2.4,6.4,3c9.6,1.7,19.3,1.9,29,2.7
				c7.8,0.8,19.9,3.2,27.3,2.3C68.8,20.6,71.9,18.4,73.5,13.7L73.5,13.7z"/>
			<path id="XMLID_14000_" class="st2" d="M67.9,15.2c0.4-0.4,0.6-1,0.7-1.6c0.9-6.1-8-6.8-12.4-7c-2-0.1-4-0.2-4.2-2.7
				c1.1,2,2.8,1.9,6.5,1.9c2.8,0,6.3,0.4,8.8,1.9C70.3,9.4,70.3,13.6,67.9,15.2L67.9,15.2z"/>
		</g>
		<g id="XMLID_13996_">
			<path id="XMLID_13998_" class="st3" d="M0,14.3c0-0.7,0.2-1.5,0.5-2.5c0.7-0.4,1.4-0.8,2.2-1.3c0.2-0.1,0.4-0.2,0.5-0.3
				c1,0,2,0.1,2.8,0.3c0.1,0,0.2,0.1,0.4,0.1c-0.8,0.6-1.7,1.2-2.6,1.7C2.5,13,1.2,13.7,0,14.3L0,14.3z"/>
			<path id="XMLID_13997_" class="st4" d="M0,14.3c0-0.3,0-0.7,0.1-1c0.1,0.3,0.2,0.6,0.4,0.8C0.3,14.2,0.1,14.2,0,14.3L0,14.3z"/>
		</g>
		<g id="XMLID_13993_">
			<path id="XMLID_13995_" class="st3" d="M6.4,18c-1.4-0.1-2.6-0.4-3.5-0.7c1.7-0.6,3.7-1.6,5.6-2.9c1.3-0.8,2.6-1.8,3.7-2.7
				c0.9,0.2,1.8,0.3,2.6,0.4c-1.5,1.4-3.3,2.8-5.2,4C8.5,16.8,7.4,17.4,6.4,18L6.4,18z"/>
			<path id="XMLID_13994_" class="st4" d="M6.4,18c-1.4-0.1-2.6-0.4-3.5-0.7c0.8-0.3,1.7-0.7,2.6-1.2c0.3,0,0.6,0.1,1,0.2
				c0.7,0.1,1.5,0.3,2.2,0.4C8,17.1,7.2,17.6,6.4,18L6.4,18z"/>
		</g>
		<g id="XMLID_13990_">
			<path id="XMLID_13992_" class="st3" d="M17.2,18.6l-1-0.1c-0.9-0.1-2-0.1-3.1-0.2c1.6-0.6,3.4-1.7,5.2-2.8
				c1.2-0.8,2.3-1.6,3.4-2.4c0.9,0.1,1.9,0.2,2.8,0.4c-1.5,1.3-3.3,2.6-5.1,3.8C18.7,17.7,18,18.2,17.2,18.6L17.2,18.6z"/>
			<path id="XMLID_13991_" class="st4" d="M17.2,18.6l-1-0.1c-0.9-0.1-2-0.1-3.1-0.2c0.6-0.3,1.3-0.6,2-0.9c1.2,0.1,2.4,0.2,3.5,0.3
				C18.2,18.1,17.7,18.4,17.2,18.6L17.2,18.6z"/>
		</g>
		<g id="XMLID_13987_">
			<path id="XMLID_13989_" class="st3" d="M27,19.5l-3.8-0.3c1.4-0.6,3-1.5,4.5-2.5c1.1-0.8,2.2-1.6,3.3-2.5
				c0.9,0.1,1.8,0.2,2.8,0.3c-1.5,1.3-3.2,2.7-4.9,3.9C28.2,18.8,27.6,19.1,27,19.5L27,19.5z"/>
			<path id="XMLID_13988_" class="st4" d="M27,19.5l-3.8-0.3c0.6-0.2,1.2-0.6,1.9-0.9c1.2,0.1,2.4,0.2,3.6,0.2
				C28,18.9,27.5,19.2,27,19.5L27,19.5z"/>
		</g>
		<g id="XMLID_13984_">
			<path id="XMLID_13986_" class="st3" d="M36.8,20.4l-3.5-0.3c1.1-0.6,2.4-1.3,3.6-2.2c1.2-0.8,2.3-1.8,3.4-2.7
				c0.9,0.1,1.8,0.2,2.7,0.3c-1.5,1.4-3.2,2.8-4.9,4.1C37.6,19.8,37.2,20.1,36.8,20.4L36.8,20.4z"/>
			<path id="XMLID_13985_" class="st4" d="M36.8,20.4l-3.5-0.3c0.6-0.3,1.3-0.7,1.9-1.1l0.3,0c0.9,0.1,1.8,0.2,2.8,0.3
				c-0.1,0.1-0.2,0.1-0.3,0.2C37.6,19.8,37.2,20.1,36.8,20.4L36.8,20.4z"/>
		</g>
		<g id="XMLID_13981_">
			<path id="XMLID_13983_" class="st3" d="M45.8,21.2c-1-0.1-2-0.2-2.9-0.3l-0.7-0.1c1.1-0.5,2.2-1.2,3.2-1.9
				c1.2-0.8,2.4-1.8,3.5-2.7l2.7,0.3c-1.5,1.4-3.3,2.9-5.1,4.1C46.4,20.8,46.1,21,45.8,21.2L45.8,21.2z"/>
			<path id="XMLID_13982_" class="st3" d="M45.8,21.2c-1-0.1-2-0.2-2.9-0.3l-0.7-0.1c0.5-0.2,1-0.5,1.5-0.8c1,0.1,2.1,0.3,3.1,0.4
				c-0.1,0.1-0.2,0.1-0.2,0.2C46.4,20.8,46.1,21,45.8,21.2L45.8,21.2z"/>
		</g>
		<g id="XMLID_13978_">
			<path id="XMLID_13980_" class="st3" d="M54.5,22.4c-1.1-0.1-2.1-0.3-3.2-0.4c0.8-0.4,1.6-1,2.4-1.5c1.4-1,2.8-2.1,4-3.2
				c0.8,0,1.8,0.1,2.9,0.1c-1.7,1.6-3.7,3.4-5.8,4.9C54.7,22.2,54.6,22.3,54.5,22.4L54.5,22.4z"/>
			<path id="XMLID_13979_" class="st4" d="M54.5,22.4c-1.1-0.1-2.1-0.3-3.2-0.4c0.5-0.3,0.9-0.5,1.4-0.9c1.1,0.1,2.2,0.2,3.2,0.3
				c-0.4,0.3-0.7,0.5-1.1,0.8C54.7,22.2,54.6,22.3,54.5,22.4L54.5,22.4z"/>
		</g>
		<g id="XMLID_13975_">
			<path id="XMLID_13977_" class="st3" d="M63.8,22.5c-1.2,0.2-2.5,0.3-3.8,0.3c2.2-1.4,4-3.1,4.7-5.9c0.9-0.2,1.6-0.5,2.3-0.9
				C66.6,18.9,65.4,20.9,63.8,22.5L63.8,22.5z"/>
			<path id="XMLID_13976_" class="st4" d="M63.8,22.5c-1.2,0.2-2.5,0.3-3.8,0.3c0.7-0.4,1.3-0.9,1.9-1.4c0.3,0,0.6-0.1,0.9-0.1
				c0.8-0.1,1.6-0.2,2.3-0.4C64.7,21.5,64.2,22,63.8,22.5L63.8,22.5z"/>
		</g>
		<g id="XMLID_13971_">
			<path id="XMLID_13974_" class="st3" d="M72.6,16.6c-0.5,0.9-1.2,1.8-2,2.5c0-0.1,0-0.1,0-0.2c0-2.1-0.5-3.9-2.2-4.9
				c0.1-0.2,0.1-0.4,0.1-0.6c0.1-0.7,0.1-1.3,0-1.8C71.1,12.5,72.2,14.3,72.6,16.6L72.6,16.6z"/>
			<path id="XMLID_13973_" class="st4" d="M72.6,16.6c-0.5,0.9-1.2,1.8-2,2.5c0-0.1,0-0.1,0-0.2c0-0.2,0-0.4,0-0.6
				c0.7-0.7,1.4-1.5,1.9-2.4C72.5,16.2,72.6,16.4,72.6,16.6L72.6,16.6z"/>
			<path id="XMLID_13972_" class="st3" d="M68.5,14.2c0.1-0.2,0.1-0.4,0.1-0.6c0.1-0.7,0.1-1.3,0-1.8c0.4,0.1,0.7,0.3,1.1,0.4
				c-0.1,0.8-0.4,1.6-0.8,2.2C68.7,14.3,68.6,14.2,68.5,14.2L68.5,14.2z"/>
		</g>
		<g id="XMLID_13968_">
			<path id="XMLID_13970_" class="st3" d="M71.6,6.8c0.6,0.8,1.2,1.6,1.5,2.6c-1.2-0.5-2.3-0.8-3.5-0.8c-0.9,0-1.8,0.1-2.8,0.4
				c-0.7-0.5-1.5-0.9-2.4-1.3c1.8-0.8,3.5-1.2,5.2-1.2C70.3,6.6,70.9,6.7,71.6,6.8L71.6,6.8z"/>
			<path id="XMLID_13969_" class="st4" d="M66.8,9.1c-0.7-0.5-1.5-0.9-2.4-1.3c0.7-0.3,1.3-0.5,1.9-0.7c0.3,0.2,0.7,0.3,1,0.5
				c0.5,0.3,0.9,0.7,1.3,1.1C68,8.8,67.4,8.9,66.8,9.1L66.8,9.1z"/>
		</g>
		<path id="XMLID_13967_" class="st3" d="M52.1,3.3c0.1-1.2,0.3-2,0.8-2.5c0.6-0.3,1.2-0.5,1.9-0.8c1.3-0.1,2.8,0.3,4.4,0.7
			c-0.3,0.1-0.6,0.2-0.9,0.3c-2.2,0.7-4.3,1.5-6.2,2.5C52.1,3.4,52.1,3.4,52.1,3.3L52.1,3.3z"/>
		<g id="XMLID_13964_">
			<path id="XMLID_13966_" class="st5" d="M54.1,6.2c2.3-1.4,5-2.5,7.9-3.4c0.7-0.2,1.3-0.4,2-0.6C65,2.6,66.1,3,67.1,3.5
				c-1.6,0.4-3.1,0.8-4.6,1.2c-1.7,0.5-3.3,1.2-4.9,1.9c-0.5,0-1-0.1-1.5-0.1C55.5,6.5,54.8,6.5,54.1,6.2L54.1,6.2L54.1,6.2z"/>
			<path id="XMLID_13965_" class="st6" d="M54.1,6.2C54.4,6,54.7,5.9,55,5.7c0.9,0.1,2.1,0.1,3.5,0.1c0.3,0,0.7,0,1.1,0
				c-0.7,0.3-1.3,0.5-1.9,0.8c-0.5,0-1-0.1-1.5-0.1C55.5,6.5,54.8,6.5,54.1,6.2L54.1,6.2L54.1,6.2z"/>
		</g>
	</g>
	<g id="XMLID_13949_">
		<path id="XMLID_13962_" class="st7" d="M57.3,1.5c2.6,0.4,4.5,0.7,7.2,1.7C66.7,4,69,5,70.4,6.3c2.2,2.1,3.4,5,1.8,8.5
			c-1.7,3.8-5.5,5.3-11.2,5.5c-9.4,0.4-16.8-1.6-27.1-2.6c-8.2-1.1-24.1-0.9-30.5-3.5c-2-0.8-1.3-2.2,0.7-2.6
			c0.6-0.1,12.9,1.7,13,1.7c5.7,1,13.1,1.1,19.7,2.1c11.6,1.8,22.5,3.5,27.6,2.1c3-0.8,6.1-1.8,6.3-4.8c0.3-4.1-2.4-7-8-7.7
			c-3.3-0.4-7.3-0.9-7.6-0.9c-2.1-0.4-1.7-2.2-0.6-2.6C55.3,1.3,56.2,1.4,57.3,1.5L57.3,1.5z"/>
		<path id="XMLID_13961_" class="st8" d="M4.8,11.6c-0.4,0.2-0.7,0.5-1.1,0.7c-0.5,0.3-1,0.6-1.5,0.9c-0.1-0.7,0.6-1.3,1.9-1.6
			C4.2,11.5,4.5,11.6,4.8,11.6L4.8,11.6z"/>
		<path id="XMLID_13960_" class="st8" d="M7.1,15.2C7.6,15,8,14.7,8.5,14.4c0.9-0.6,1.9-1.3,2.7-2c1,0.1,1.9,0.3,2.8,0.4
			c-1.2,1-2.5,2-3.8,2.9C9.1,15.6,8,15.4,7.1,15.2L7.1,15.2z"/>
		<path id="XMLID_13959_" class="st8" d="M16.9,16.4c0.5-0.3,1-0.6,1.5-0.9c0.8-0.5,1.7-1.1,2.5-1.7c1,0.1,1.9,0.2,2.9,0.3
			c-1.1,0.9-2.2,1.8-3.4,2.6C19.2,16.6,18,16.5,16.9,16.4L16.9,16.4z"/>
		<path id="XMLID_13958_" class="st8" d="M26.9,17.1c0.2-0.1,0.5-0.3,0.7-0.5c0.9-0.6,1.8-1.3,2.7-2c1,0.1,1.9,0.2,2.9,0.3
			c-0.9,0.8-1.9,1.6-2.9,2.4C29.2,17.3,28.1,17.2,26.9,17.1L26.9,17.1z"/>
		<path id="XMLID_13957_" class="st8" d="M36.7,18c0.1,0,0.1-0.1,0.2-0.1c0.9-0.6,1.8-1.3,2.6-2.1c0.9,0.1,1.8,0.3,2.7,0.4
			c-0.8,0.7-1.7,1.5-2.5,2.2C38.6,18.3,37.6,18.1,36.7,18L36.7,18z"/>
		<path id="XMLID_13956_" class="st8" d="M45.2,19.2c0.1-0.1,0.2-0.2,0.4-0.2c0.9-0.6,1.7-1.2,2.5-1.9c0.9,0.1,1.9,0.2,2.8,0.4
			c-0.8,0.7-1.7,1.5-2.7,2.2C47.1,19.5,46.2,19.3,45.2,19.2L45.2,19.2z"/>
		<path id="XMLID_13955_" class="st8" d="M54,20.2c1-0.7,1.9-1.5,2.9-2.2c1.1,0.1,2.1,0.1,3,0.1c-0.8,0.8-1.7,1.6-2.7,2.3
			C56.1,20.3,55,20.3,54,20.2L54,20.2z"/>
		<path id="XMLID_13954_" class="st8" d="M63,20.2c0.6-0.8,1.1-1.6,1.5-2.7c0.8-0.2,1.6-0.4,2.3-0.7c-0.2,1.1-0.6,2-1,2.9
			C65,19.9,64.1,20.1,63,20.2L63,20.2z"/>
		<path id="XMLID_13953_" class="st8" d="M70.5,17.3c-0.1-0.8-0.4-1.5-0.8-2.1c0.6-0.6,1-1.3,1.1-2.3c0.6,0.6,1.1,1.2,1.4,2
			C71.7,15.9,71.2,16.6,70.5,17.3L70.5,17.3z"/>
		<path id="XMLID_13952_" class="st8" d="M72.4,9.2c-0.9-0.3-1.7-0.5-2.6-0.5c-0.5-0.7-1.1-1.4-1.9-1.9c0.6-0.1,1.1-0.1,1.7-0.1
			c0.4,0,0.8,0,1.1,0.1C71.5,7.5,72,8.3,72.4,9.2L72.4,9.2z"/>
		<path id="XMLID_13951_" class="st8" d="M56.8,1.5c-1.1,0.4-2.1,0.8-3,1.2c0-0.5,0.4-0.9,0.9-1.1C55.2,1.3,55.9,1.4,56.8,1.5
			L56.8,1.5z"/>
		<path id="XMLID_13950_" class="st9" d="M57.5,4.5c1.4-0.6,2.9-1.2,4.5-1.7c0.2-0.1,0.5-0.1,0.7-0.2c0.6,0.2,1.2,0.4,1.9,0.6
			c0.5,0.2,1,0.4,1.5,0.6c-1.2,0.3-2.4,0.6-3.5,1c-0.2,0.1-0.5,0.2-0.7,0.2C60.3,4.8,58.7,4.6,57.5,4.5L57.5,4.5z"/>
	</g>
</g>
</svg>
