<?xml version="1.0" encoding="utf-8"?>
<!-- Generator: Adobe Illustrator 19.0.0, SVG Export Plug-In . SVG Version: 6.00 Build 0)  -->
<svg version="1.1" id="Layer_1" xmlns="http://www.w3.org/2000/svg" xmlns:xlink="http://www.w3.org/1999/xlink" x="0px" y="0px"
	 viewBox="0 0 64.3 55.1" style="enable-background:new 0 0 64.3 55.1;" xml:space="preserve">
<style type="text/css">
	.st0{fill:#DE9124;}
	.st1{fill:url(#XMLID_54_);}
	.st2{fill:url(#XMLID_55_);}
	.st3{fill:url(#XMLID_56_);}
	.st4{fill:url(#XMLID_57_);}
	.st5{fill:url(#XMLID_58_);}
	.st6{fill:url(#XMLID_59_);}
	.st7{fill:#B3751D;}
	.st8{fill:#917E56;}
</style>
<g id="XMLID_13722_">
	<path id="XMLID_13720_" class="st0" d="M25.1,32.4C18.8,31.9,13.4,46,24.3,48C35.1,50,36.1,33.2,25.1,32.4z"/>
	<linearGradient id="XMLID_54_" gradientUnits="userSpaceOnUse" x1="13.0864" y1="39.829" x2="25.1131" y2="39.829">
		<stop  offset="0" style="stop-color:#FFD365"/>
		<stop  offset="1" style="stop-color:#E6AD5B"/>
	</linearGradient>
	<path id="XMLID_13719_" class="st1" d="M24.3,48c-10.9-2-5.4-16.1,0.9-15.6c0,0-2.4-1.3-6.6-0.3c-4.1,1-7.5,7.8-4,12.1
		C17.3,47.7,24.3,48,24.3,48z"/>
	<g id="XMLID_13730_">
		<linearGradient id="XMLID_55_" gradientUnits="userSpaceOnUse" x1="4.0433" y1="2.681" x2="20.2974" y2="2.681">
			<stop  offset="0" style="stop-color:#E5D3B2"/>
			<stop  offset="1" style="stop-color:#D9C39A"/>
		</linearGradient>
		<path id="XMLID_13718_" class="st2" d="M10.2,5.4c2.5-2.7,6-5,10.1-5.2c0,0-7.3-1-12.2,1.5C6.6,2.5,5.2,3.6,4,4.9
			C6.2,4.7,8.8,4.7,10.2,5.4z"/>
		<linearGradient id="XMLID_56_" gradientUnits="userSpaceOnUse" x1="10.4617" y1="33.8823" x2="40.3308" y2="33.8823">
			<stop  offset="0" style="stop-color:#E5D3B2"/>
			<stop  offset="1" style="stop-color:#D9C39A"/>
		</linearGradient>
		<path id="XMLID_13717_" class="st3" d="M17.4,23c-0.7-1.8-2.5-3.1-4.4-4.1c-0.4,0.3-1.4,0.3-2.5,0.3c1.3,1,2.2,2.4,2.4,4.4
			c0.7,7.4,3.4,27,27.5,25.1C15.4,48.5,19.3,28.1,17.4,23z"/>
		<linearGradient id="XMLID_57_" gradientUnits="userSpaceOnUse" x1="2.371073e-04" y1="12.0187" x2="12.9161" y2="12.0187">
			<stop  offset="0" style="stop-color:#FFD365"/>
			<stop  offset="1" style="stop-color:#E6AD5B"/>
		</linearGradient>
		<path id="XMLID_13716_" class="st4" d="M12.9,19c-3.5-1.7-7.6-2.6-7.7-4.2C5,13.3,6.8,9,10.2,5.4C8.8,4.7,6.2,4.7,4,4.9
			c-2.9,3.1-4.5,7-3.9,9.2c0.6,2.3,6.8,2.3,10.3,5.1C11.5,19.3,12.5,19.2,12.9,19z"/>
	</g>
	<g id="XMLID_13727_">
		<path id="XMLID_13715_" class="st0" d="M13.2,18.7c0.6-1.4-0.6-11.3-2.5-13c-0.1-0.1-0.3-0.2-0.5-0.3c-3.4,3.6-5.1,8-5,9.4
			c0.2,1.6,4.3,2.5,7.7,4.2C13,18.9,13.1,18.8,13.2,18.7z"/>
		<linearGradient id="XMLID_58_" gradientUnits="userSpaceOnUse" x1="10.1549" y1="24.4274" x2="64.3306" y2="24.4274">
			<stop  offset="0" style="stop-color:#DCBC82"/>
			<stop  offset="1" style="stop-color:#C2A872"/>
		</linearGradient>
		<path id="XMLID_13714_" class="st5" d="M64.1,22.9c-1-2.7-20.7-1.5-25.6-9.8C35.4,7.9,30-0.2,20.3,0.2c-4.2,0.2-7.6,2.4-10.1,5.2
			c0.2,0.1,0.3,0.2,0.5,0.3c2,1.7,3.1,11.6,2.5,13c0,0.1-0.1,0.2-0.2,0.3c2,1,3.7,2.2,4.4,4.1c2,5-2,25.5,23,25.6
			C62.9,48.8,65.1,25.6,64.1,22.9z"/>
	</g>
	<path id="XMLID_13713_" class="st0" d="M44.2,39.4c-6.3-0.5-11.7,13.6-0.9,15.6C54.2,57,55.2,40.2,44.2,39.4z"/>
	<linearGradient id="XMLID_59_" gradientUnits="userSpaceOnUse" x1="32.1383" y1="46.8281" x2="44.1648" y2="46.8281">
		<stop  offset="0" style="stop-color:#FFD365"/>
		<stop  offset="1" style="stop-color:#E6AD5B"/>
	</linearGradient>
	<path id="XMLID_13712_" class="st6" d="M43.3,55c-10.9-2-5.4-16.1,0.9-15.6c0,0-2.4-1.3-6.6-0.3c-4.1,1-7.5,7.8-4,12.1
		C36.3,54.7,43.3,55,43.3,55z"/>
	<path id="XMLID_12701_" class="st7" d="M45.2,44.7c2.3,0,2.4,5.1-0.1,4.9C42.4,49.2,43,44.7,45.2,44.7z"/>
	<ellipse id="XMLID_12699_" class="st8" cx="24.4" cy="8" rx="1.3" ry="1.4"/>
</g>
</svg>
