<?xml version="1.0" encoding="utf-8"?>
<!-- Generator: Adobe Illustrator 19.0.0, SVG Export Plug-In . SVG Version: 6.00 Build 0)  -->
<svg version="1.1" id="Layer_1" xmlns="http://www.w3.org/2000/svg" xmlns:xlink="http://www.w3.org/1999/xlink" x="0px" y="0px"
	 viewBox="0 0 81.9 62.6" style="enable-background:new 0 0 81.9 62.6;" xml:space="preserve">
<style type="text/css">
	.st0{fill-rule:evenodd;clip-rule:evenodd;fill:#964810;}
	.st1{fill-rule:evenodd;clip-rule:evenodd;fill:#C57033;}
	.st2{fill:#CC7B40;}
	.st3{fill:#BB6426;}
	.st4{fill-rule:evenodd;clip-rule:evenodd;fill:#BB6426;}
	.st5{fill-rule:evenodd;clip-rule:evenodd;fill:#AC591D;}
	.st6{fill-rule:evenodd;clip-rule:evenodd;fill:#E99F5A;}
	.st7{fill-rule:evenodd;clip-rule:evenodd;fill:#E59E5C;}
	.st8{fill-rule:evenodd;clip-rule:evenodd;fill:#FFE5B9;}
	.st9{fill-rule:evenodd;clip-rule:evenodd;fill:#EAC58E;}
	.st10{fill:#FFE5B9;}
	.st11{fill:#EAC58E;}
</style>
<g id="XMLID_532_">
	<path id="XMLID_1378_" class="st0" d="M10.4,14.5c4.8-1.8,10.8-1,14.7,2.8c2.7,2.6,2-0.5,1.1-3.1c-1.1-3.3-4.7-9.4,2.4-13.1
		c7.8-4,10.6,3.5,13,9.1c1.7,4.1,4.4,5.1,7.9,5c6.1-0.1,11.1-2.7,15.8-6.2c2.4-1.8,0.3-0.4,0.8-3.1c1-6,7.8-4.7,10.9,0
		c4.7,7.2,6.8,8.4,2.2,13.5c-2.6,2.9-8,5.1-11.7,7.5c-5.1,3.2-5.1,5.2-0.5,9.1c3.4,2.8,8.2,5.8,10.3,9c3.8,5.7,1.5,6.6-4.2,13
		c-3.9,4.4-10.2,5.5-9.8-1.6c0.1-2.2,0.1-1.7-1.6-3.3c-4.1-4-8.7-7.2-14.5-8.2c-3.4-0.6-6.2,0-8.5,3.8c-3.2,5.2-6.8,12.2-14.1,7.2
		c-5.5-3.8-0.1-11.1,1.4-14.2c1.2-2.5,1-4.8-2.7-2.4c-4.5,3-10.3,3.1-14.7,0.8C-1.6,34.5-1.1,18.9,10.4,14.5L10.4,14.5z"/>
	<path id="XMLID_1377_" class="st1" d="M9.1,15.5c4.8-1.8,10.7-0.9,14.7,2.8c3.2,3,3.9,0.7,3-2c-1.1-3.3-5.3-11.3,0.7-14.3
		c7.9-3.9,10.5,3.6,12.9,9.2c1.7,4.1,4.4,5.1,7.9,5c6.1-0.1,11.1-2.7,15.8-6.2c2.4-1.8,1.5-1.1,1.9-3.7c1-6,6.7-4,9.8,0.7
		c4.7,7.2,6.8,8.4,2.2,13.5c-2.6,2.9-8,5.1-11.7,7.5c-5.1,3.2-5.1,5.2-0.5,9.1c3.4,2.8,8.2,5.8,10.3,9c3.8,5.7,1.5,6.6-4.2,13
		c-3.9,4.4-10.2,5.5-9.8-1.6c0.1-2.2,0.1-1.7-1.6-3.3c-4.1-4-8.7-7.2-14.5-8.2c-3.4-0.6-6.2,0-8.5,3.8c-3.2,5.2-6.8,12.2-14.1,7.2
		c-5.5-3.8-0.1-11.1,1.4-14.2c1.2-2.5,1-4.8-2.7-2.4c-4.5,3-10.3,3.1-14.7,0.8C-3,35.5-2.5,20,9.1,15.5L9.1,15.5z"/>
	<path id="XMLID_1376_" class="st2" d="M10.5,19.3c-8.1,3.1-8.7,13.8-1.1,17.9c7.3,3.9,10.2-1.6,14.9-1.9c5.3-0.2,6.1,5.3,4.1,9.2
		c-1,1.9-4.8,7.7-2.7,9.1c3.7,2.6,6.2-2.5,7.8-5.1c1.6-2.7,3.3-5.4,6.4-6.6c5-1.9,11.7,1,16.1,3.6c3.5,2.1,9.7,5.9,9.7,10.4
		c0,1.8,0.3,3.7,3.2,0.5c2.2-2.5,5.6-4.4,3.4-7.7c-1.7-2.6-6.5-6.3-9.2-8.5c-6.7-5.6-6.6-10.8,0.9-15.5c3-1.9,8.6-4.8,10.5-7.1
		c2.8-3.1-2.7-10.3-4.6-10.2c-1.9,0.1-1.6,4.5-3,5.5c-3,2.1-7.1,4.6-8.9,5.3c-4.7,2-12,3.8-16.7,1.2c-2.9-1.7-4.1-4.6-5.3-7.4
		c-1.2-2.9-2.9-8.2-7-6.2c-2.3,1.1,0.7,7.3,1.4,9.4c1.4,4.2-0.2,9.6-5.4,8.5C20.5,22.8,18.3,16.3,10.5,19.3L10.5,19.3z"/>
	<path id="XMLID_1375_" class="st3" d="M26,8.9c-0.4,0.8,0.4,1.1,0.9,1.4c0.6,0.3,1.2,0.6,1.7,0.6c1.1,0.1,1.9-0.5,2.1-2.5
		c0.1-0.8,0.5-1,1.1-0.3c1.5,1.7,3,1.1,3.6-1c0.2-0.6,0.3-1.1,0.9-1c1.1,0.1,1.2-1.5,0.1-1.6c-1.8-0.1-2.2,0.7-2.4,1.9
		c-0.3,1.2-0.7,1.1-1.4,0.4c-0.3-0.3-0.6-0.5-0.9-0.6c-0.4-0.2-0.9-0.2-1.3-0.1c-0.8,0.2-1.2,1-1.3,1.8c-0.1,1.5-0.5,1.6-1.5,1
		C27.2,8.6,26.4,8.1,26,8.9L26,8.9z"/>
	<path id="XMLID_1374_" class="st3" d="M73.6,19.5c0.1,0.9-0.7,0.9-1.3,1c-0.7,0.1-1.3,0.1-1.8,0c-1.1-0.3-1.6-1.1-1.1-3.1
		c0.2-0.8-0.1-1.1-0.9-0.7c-2,1-3.2,0-3-2.2c0.1-0.7,0.1-1.1-0.5-1.3c-1-0.3-0.5-1.9,0.5-1.5c1.7,0.5,1.8,1.4,1.6,2.6
		c-0.2,1.2,0.2,1.3,1.1,0.9c0.4-0.1,0.7-0.2,1-0.2c0.4,0,0.9,0.1,1.2,0.4c0.7,0.5,0.8,1.4,0.6,2.1c-0.4,1.4-0.1,1.7,1,1.5
		C72.6,18.8,73.5,18.6,73.6,19.5L73.6,19.5z"/>
	<path id="XMLID_1373_" class="st3" d="M63.1,52.7c-0.9,0.1-0.9-0.8-0.9-1.4c0-0.7,0-1.3,0.1-1.8c0.4-1.1,1.2-1.5,3.2-0.9
		c0.8,0.3,1.1,0,0.7-0.9c-0.9-2.1,0.2-3.2,2.4-2.8c0.7,0.1,1.1,0.2,1.3-0.4c0.4-1,1.9-0.4,1.5,0.6c-0.6,1.7-1.5,1.7-2.7,1.4
		c-1.2-0.3-1.3,0.2-1,1.1c0.1,0.4,0.2,0.7,0.1,1.1c0,0.4-0.2,0.9-0.4,1.2c-0.6,0.7-1.4,0.7-2.2,0.5c-1.4-0.5-1.7-0.2-1.6,0.9
		C63.9,51.8,64,52.7,63.1,52.7L63.1,52.7z"/>
	<path id="XMLID_1372_" class="st3" d="M23.3,47.6c-0.3-0.8,0.5-1.1,1.1-1.3c0.7-0.2,1.3-0.4,1.8-0.4c1.1,0.1,1.8,0.7,1.7,2.8
		c0,0.8,0.3,1,1.1,0.4c1.8-1.4,3.1-0.7,3.4,1.5c0.1,0.7,0.1,1.1,0.8,1.2c1.1,0.1,0.9,1.7-0.1,1.6c-1.8-0.1-2-1-2.1-2.2
		c-0.1-1.3-0.5-1.2-1.3-0.6c-0.3,0.2-0.7,0.4-1,0.4c-0.4,0.1-0.9,0.1-1.3-0.1c-0.8-0.3-1.1-1.1-1-1.9c0.1-1.5-0.3-1.7-1.3-1.2
		C24.4,48.1,23.6,48.4,23.3,47.6L23.3,47.6z"/>
	<path id="XMLID_1371_" class="st3" d="M17.7,32.9c3.1-2.7,3.7-7.4,0.4-10.3c-1.2-1.1-0.5-2.7,1.2-1.4c3.8,2.8,3.7,8.5,1,12
		C18.3,35.7,16.4,34.1,17.7,32.9L17.7,32.9z"/>
	<path id="XMLID_1370_" class="st4" d="M13.6,20.9c1,0.4,1.8,1.7,1.1,3c-0.6,1-1.6,1.1-2.4,0.8C9.8,23.6,11.4,20,13.6,20.9
		L13.6,20.9z"/>
	<path id="XMLID_1368_" class="st4" d="M12.5,30c1.1,0.2,2.1,1.4,1.7,2.6c-0.7,1.7-2.3,1.7-3.2,0.9C9.6,32.4,10.7,29.6,12.5,30
		L12.5,30z"/>
	<path id="XMLID_1367_" class="st3" d="M7.7,30.3c-0.4,0.8-0.6,1.6-0.5,2.4c0.1,0.8,0.4,1.5,1.1,2.3c0.3,0.4,0.6,0.5,0.9,0.4
		c0.1,0,0.2-0.1,0.3-0.1c0.1-0.1,0.2-0.2,0.2-0.3c0.1-0.3,0.1-0.6-0.1-0.9c-0.4-0.5-0.7-1-0.7-1.6c-0.1-0.6,0.1-1.3,0.4-2.2
		c0.1-0.2,0.1-0.4,0-0.6c-0.1-0.1-0.2-0.2-0.3-0.2c-0.1,0-0.2,0-0.3,0C8.3,29.5,7.9,29.8,7.7,30.3L7.7,30.3z"/>
	<path id="XMLID_1365_" class="st3" d="M8.1,24c-0.6-1.9-0.1-3.2,1.3-4.6c1-0.9,1.9,0.4,1.1,1.1c-1.2,1.1-1.2,2.2-0.9,3.7
		C9.9,25.1,8.6,25.4,8.1,24L8.1,24z"/>
	<path id="XMLID_1364_" class="st5" d="M9.1,15.5c4.8-1.8,10.7-0.9,14.7,2.8c3.2,3,3.9,0.7,3-2c-0.6-1.9-2.2-5.3-2.4-8.4
		c1,3.8,2.6,4.8,3.9,8.2c0.9,2.5,1.3,5.1,0,5.9c-0.6,0.4-2.2,1.1-3.7-0.4c-5.2-5.5-14.4-7.5-21.8-1.4C4.2,18.3,6.3,16.6,9.1,15.5
		L9.1,15.5z"/>
	<path id="XMLID_1362_" class="st5" d="M52.9,48.3C48.6,46.3,47,46.1,46,46c-3.4-0.6-6.2,0-8.5,3.8c-2.2,3.6-4.6,8-8.3,8.8
		C34.4,54.8,34,47,40.3,44.7C43.5,43.5,52.7,45.8,52.9,48.3L52.9,48.3z"/>
	<path id="XMLID_1360_" class="st5" d="M62.9,34c0.5,0.9,1.5,1.9,2.9,3.1c3.4,2.8,8.2,5.8,10.3,9c3.8,5.7,1.5,6.6-4.2,13
		c-3.5,3.9-8.9,5.2-9.7,0.4c3.5,3.2,8.1-2.5,10.1-4.7c5-5.4-1.1-9.4-5.9-14.3c-5.7-5.8-9.4-9.2-0.3-14.1c2-1.1,4.5-2.2,6.8-3.5
		c3.1-1.7,6.2-5.6,4.2-9.6c-1-2-3.4-6.3-6.4-7.9c-1.8-0.9-2.8-0.6-3,1.7c0.1,2.5-1.6,3.2-3.5,4.6c-4.8,4-15.6,9.8-21.8,6.1
		c-1.3-0.8-2.1-2.2-3.2-4.9C37.9,10.4,37,8,35.8,5.4c-1.2-2.6-3.2-4.4-7.1-3.8c7-2.6,9.4,4.4,11.7,9.7c1.7,4.1,4.4,5.1,7.9,5
		c6.1-0.1,11.1-2.7,15.9-6.2c2-1.5,1.5-1,1.8-3.3c0.8-6.5,6.7-4.5,9.9,0.3c4.7,7.2,6.8,8.4,2.2,13.5c-2.6,2.9-8,5.1-11.7,7.5
		c-1.8,1.1-2.9,2.1-3.5,3C62.2,32.1,62.3,33.1,62.9,34L62.9,34z"/>
	<path id="XMLID_1359_" class="st6" d="M66.1,62.6c-2.4,0.3-4.2-1.1-4-5.1c0.1-2.2,0.1-1.7-1.6-3.3c-4.1-4-9.1-7.2-14.5-8.2
		c-1.7-0.3-3.3-0.3-4.7,0.3c5.1-3.7,13.3,0.6,20.4,6.8c1.4,1.2,2,1.8,1.8,3.7C63.2,59.5,63,62,66.1,62.6L66.1,62.6z"/>
	<path id="XMLID_1357_" class="st7" d="M2.3,20.9c-3.4,7.7-0.5,14.3,4.4,17.8c4.8,3.4,10.5,2.3,15.2,0c2.7-1.3,4.4-0.4,4.8,0.8
		c0.4,1.3-0.5,3.8-1.6,5.8c-1.5,2.7-2.9,5.5-2.4,8.1c0.7,3.1,5.9,5.7,8.6,4.2c-2.1,1.4-4.7,1.6-7.9-0.7c-5.5-3.8-0.1-11.1,1.4-14.2
		c1.2-2.5,1-4.8-2.7-2.4c-4.5,3-10.3,3.1-14.7,0.8C-0.3,37-2,27.4,2.3,20.9L2.3,20.9z"/>
	<path id="XMLID_1356_" class="st8" d="M11.9,30.7c1.1,0.2,2.1,1.4,1.7,2.6c-0.7,1.7-2.3,1.7-3.2,0.9C9,33.1,10,30.4,11.9,30.7
		L11.9,30.7z"/>
	<path id="XMLID_1354_" class="st9" d="M11.9,30.7c1.1,0.2,2.1,1.4,1.7,2.6c-0.2,0.6-0.6,1-1.1,1.3c0.5-0.6,0.6-1.3,0.5-1.9
		c-0.2-1.4-2.1-2-3-1.1C10.4,31,11.1,30.6,11.9,30.7L11.9,30.7z"/>
	<path id="XMLID_1352_" class="st8" d="M12.8,21.4c1,0.4,1.8,1.7,1.1,3c-0.6,1-1.6,1.1-2.4,0.8C9.1,24.1,10.7,20.6,12.8,21.4
		L12.8,21.4z"/>
	<path id="XMLID_1350_" class="st9" d="M12.8,21.4c1,0.4,1.8,1.7,1.1,3c-0.2,0.4-0.5,0.6-0.8,0.8c1.4-2-0.3-4.2-2.4-3
		C11.1,21.5,11.9,21.1,12.8,21.4L12.8,21.4z"/>
	<path id="XMLID_1348_" class="st10" d="M16.8,33.4c3.1-2.7,3.9-7.5,0.7-10.5c-1.2-1.1-0.5-2.7,1.2-1.4c3.8,2.8,3.4,8.7,0.8,12.1
		C17.3,36.2,15.5,34.5,16.8,33.4L16.8,33.4z"/>
	<path id="XMLID_1347_" class="st11" d="M17.1,22.5c-0.7-1,0.1-2.1,1.5-1c3.8,2.8,3.4,8.7,0.8,12.1c-0.7,0.9-1.3,1.3-1.8,1.4
		c2.8-2.1,4.2-6.6,2.9-9.9c-0.4-1.2-0.9-2-1.8-2.7C18,21.7,16.8,21.6,17.1,22.5L17.1,22.5z"/>
	<path id="XMLID_1345_" class="st10" d="M7.5,24.4c-0.6-1.9-0.1-3.2,1.3-4.6c1-0.9,1.9,0.4,1.1,1.1c-1.2,1.1-1.2,2.2-0.9,3.7
		C9.2,25.5,7.9,25.8,7.5,24.4L7.5,24.4z"/>
	<path id="XMLID_1343_" class="st11" d="M8.6,20c0,0,0.1-0.1,0.1-0.1c1-0.9,1.9,0.4,1.1,1.1c-1.2,1.1-1.2,2.2-0.9,3.7
		c0,0.1,0,0.1,0,0.2c-0.6-1.4-0.6-2.3,0.2-3.7C9.7,20.2,9.3,19.7,8.6,20L8.6,20z"/>
	<path id="XMLID_1341_" class="st10" d="M7,30.9c-0.4,0.8-0.6,1.6-0.5,2.4c0.1,0.8,0.5,1.5,1.1,2.3C7.8,35.9,8.1,36,8.4,36
		c0.1,0,0.2-0.1,0.3-0.1c0.1-0.1,0.2-0.2,0.2-0.3C9,35.3,9,34.9,8.8,34.6c-0.4-0.5-0.7-1-0.7-1.6c-0.1-0.6,0.1-1.3,0.4-2.2
		c0.1-0.2,0.1-0.4,0-0.6c-0.1-0.1-0.2-0.2-0.3-0.2c-0.1,0-0.2,0-0.3,0C7.6,30.1,7.2,30.4,7,30.9L7,30.9z"/>
	<path id="XMLID_1339_" class="st11" d="M8.8,35.7c0,0,0.1-0.1,0.1-0.1c0.1-0.3,0.1-0.6-0.1-0.9c-0.4-0.5-0.7-1-0.7-1.6
		c-0.1-0.6,0.1-1.3,0.4-2.2c0.1-0.2,0.1-0.4,0-0.6c-0.1-0.1-0.2-0.2-0.3-0.2c-0.1,0-0.2,0-0.3,0c-0.2,0-0.4,0.2-0.6,0.4
		C7.6,30.3,8,30.4,8,30.7c0.1,1.1-0.7,1.6,0,3.1C8.3,34.6,9,35,8.8,35.7L8.8,35.7L8.8,35.7z"/>
	<path id="XMLID_1338_" class="st10" d="M25.6,9.9c-0.4,0.8,0.4,1.1,0.9,1.4c0.6,0.3,1.2,0.6,1.7,0.6c1.1,0.1,1.9-0.5,2.1-2.5
		c0.1-0.8,0.5-1,1.1-0.3c1.5,1.7,3,1.1,3.6-1c0.2-0.6,0.3-1.1,0.9-1c1.1,0.1,1.2-1.5,0.1-1.6c-1.8-0.1-2.2,0.7-2.4,1.9
		c-0.3,1.2-0.7,1.1-1.4,0.4c-0.3-0.3-0.6-0.5-0.9-0.6C31,7.1,30.5,7,30.1,7.1c-0.8,0.2-1.2,1-1.3,1.8c-0.1,1.5-0.5,1.6-1.5,1
		C26.8,9.6,26,9.1,25.6,9.9L25.6,9.9z"/>
	<path id="XMLID_1336_" class="st11" d="M29.2,11.8c0.5-0.3,0.9-1,1-2.3c0-0.2,0-0.4,0.1-0.5c0.1-0.3,0.3-0.3,0.6-0.1
		c-1-0.7-1,0.9-1.1,1.5C29.7,10.8,29.6,11.3,29.2,11.8L29.2,11.8z"/>
	<path id="XMLID_1324_" class="st11" d="M25.6,9.9c0,0,0,0.1-0.1,0.1c0.4-0.4,0.9-0.2,1.3,0.1c0.4,0.3,1.1,0.4,1.4,0.1
		c-0.2,0.1-0.5,0-1-0.3C26.8,9.6,26,9.1,25.6,9.9L25.6,9.9z M36,7.1c1,0,1-1.5,0-1.6c-1.4-0.1-1.9,0.4-2.2,1.1
		c0.5-0.6,1.2-0.7,1.7-0.6C36,6.2,36.3,6.5,36,7.1L36,7.1z M33.4,8.1c-0.3,0.4-0.6,0.2-1.1-0.3c-0.3-0.3-0.6-0.5-0.9-0.6
		C31,7.1,30.5,7,30.1,7.1c-0.8,0.2-1.2,0.9-1.3,1.7c0.5-1.7,1.8-1.5,3-0.7C32.2,8.5,32.9,8.9,33.4,8.1L33.4,8.1z"/>
	<path id="XMLID_1321_" class="st10" d="M73.2,20.5c0.1,0.9-0.7,0.9-1.3,1c-0.7,0.1-1.3,0.1-1.8,0c-1.1-0.3-1.6-1.1-1.1-3.1
		c0.2-0.8-0.1-1.1-0.9-0.7c-2,1-3.2,0-3-2.2c0.1-0.7,0.1-1.1-0.5-1.3c-1-0.3-0.5-1.9,0.5-1.5c1.7,0.5,1.8,1.4,1.6,2.6
		c-0.2,1.2,0.2,1.3,1.1,0.9c0.4-0.1,0.7-0.2,1-0.2c0.4,0,0.9,0.1,1.2,0.4c0.7,0.5,0.8,1.4,0.6,2.1c-0.4,1.4-0.1,1.7,1,1.5
		C72.2,19.7,73.1,19.6,73.2,20.5L73.2,20.5z"/>
	<path id="XMLID_1318_" class="st11" d="M73.2,20.5c0.1,0.5-0.2,0.7-0.6,0.9c0.2-0.4,0.1-0.8-0.2-1c-0.2-0.1-0.8-0.1-1.3-0.2
		c-0.8,0-0.9-0.3-1-0.9c0-0.7,0.1-1.6-0.2-2.2c-0.3-0.6-1.1-0.8-1.9-0.7c-1.7,0.2-2,0.1-1.9-1.5c0.1-1.3-1.4-2.5-2.2-1.6
		c0-0.5,0.4-1,1-0.8c1.7,0.5,1.8,1.4,1.6,2.6c-0.2,1.2,0.2,1.3,1.1,0.9c0.4-0.1,0.7-0.2,1-0.2c0.4,0,0.9,0.1,1.2,0.4
		c0.7,0.5,0.8,1.4,0.6,2.1c-0.4,1.4-0.1,1.7,1,1.5C72.2,19.7,73.1,19.6,73.2,20.5L73.2,20.5z"/>
	<path id="XMLID_1315_" class="st10" d="M62.6,53.5c-0.9,0.1-0.9-0.8-0.9-1.4c0-0.7,0-1.3,0.1-1.8c0.4-1.1,1.2-1.5,3.2-0.9
		c0.8,0.3,1.1,0,0.7-0.9c-0.9-2.1,0.2-3.2,2.4-2.8c0.7,0.1,1.1,0.2,1.3-0.4c0.4-1,1.9-0.4,1.5,0.6c-0.6,1.7-1.5,1.7-2.7,1.4
		c-1.2-0.3-1.3,0.2-1,1.1c0.1,0.4,0.2,0.7,0.1,1.1c0,0.4-0.2,0.9-0.4,1.2c-0.6,0.7-1.4,0.7-2.2,0.5c-1.4-0.5-1.7-0.2-1.6,0.9
		C63.4,52.6,63.5,53.5,62.6,53.5L62.6,53.5z"/>
	<path id="XMLID_1305_" class="st11" d="M62.1,49.7c0.5-0.7,1.3-0.8,2.9-0.3c0.3,0.1,1,0.3,0.8-0.6c0.4,1-0.3,1.1-1.1,0.9
		C63.8,49.6,62.9,49,62.1,49.7L62.1,49.7z M70.9,46.1c-0.6,1.4-1.5,1.5-2.6,1.2c-0.3-0.1-0.6-0.1-0.8-0.1c1-0.3,1.2,0.1,2.1-0.2
		c0.5-0.2,1-1,0.7-1.5c-0.2-0.3-0.6-0.4-0.7-0.2c-0.2,0.4-0.5,0.5-0.9,0.6c-1.1,0.3-2.5-0.6-3.3,1.1c0.1-1.1,1.1-1.6,2.7-1.3
		c0.7,0.1,1.1,0.2,1.3-0.4c0.2-0.6,0.9-0.6,1.3-0.3c0.2,0.2,0.3,0.4,0.3,0.6C71,45.7,71,45.9,70.9,46.1L70.9,46.1z M67.2,47.3
		c-0.2,0.2,0,0.7,0.1,1c0.1,0.4,0.2,0.7,0.1,1.1c0,0.4-0.2,0.9-0.4,1.2c-0.5,0.6-1.2,0.7-1.9,0.5C68.2,51,66.4,48,67.2,47.3
		L67.2,47.3z M64,50.8c-0.7-0.1-0.8,0.3-0.7,1.1c0.1,0.6,0.2,1.5-0.7,1.6C63.5,53.1,62.2,50.3,64,50.8L64,50.8z"/>
	<path id="XMLID_1302_" class="st10" d="M22.7,48.5c-0.3-0.8,0.5-1.1,1.1-1.3c0.7-0.2,1.3-0.4,1.8-0.4c1.1,0.1,1.8,0.7,1.7,2.8
		c0,0.8,0.3,1,1.1,0.4c1.8-1.4,3.1-0.7,3.4,1.5c0.1,0.7,0.1,1.1,0.8,1.2c1.1,0.1,0.9,1.7-0.1,1.6c-1.8-0.1-2-1-2.1-2.2
		C30.2,51,29.8,51,29,51.6c-0.3,0.2-0.7,0.4-1,0.4c-0.4,0.1-0.9,0.1-1.3-0.1c-0.8-0.3-1.1-1.1-1-1.9c0.1-1.5-0.3-1.7-1.3-1.2
		C23.8,49,23,49.3,22.7,48.5L22.7,48.5z"/>
	<path id="XMLID_1299_" class="st11" d="M22.6,48.1c0.1-0.5,0.7-0.7,1.1-0.8c0.7-0.2,1.3-0.4,1.8-0.4c1.1,0.1,1.8,0.7,1.7,2.8
		c0,0.8,0.3,1,1.1,0.4c1.8-1.4,3.1-0.7,3.4,1.5c0.1,0.7,0.1,1.1,0.8,1.2c0.9,0.1,1,1.3,0.3,1.6c0.3-0.4,0.3-1.2-0.5-1.3
		c-1-0.1-1-1.9-1.5-2.6c-0.4-0.6-1.3-0.8-2-0.4c-1,0.7-1.4,0.7-1.8,0.5c-0.4-0.3-0.3-0.7-0.3-1.3c0-0.9-0.4-1.7-1.4-1.8
		C24.7,47.3,23.3,47.4,22.6,48.1L22.6,48.1z"/>
	<path id="XMLID_1296_" class="st4" d="M36.9,27.1c1.1,0.2,2.1,1.4,1.7,2.6c-0.7,1.7-2.3,1.7-3.2,0.9C34,29.4,35,26.7,36.9,27.1
		L36.9,27.1z"/>
	<path id="XMLID_1214_" class="st8" d="M36.2,27.9c1.1,0.2,2.1,1.4,1.7,2.6c-0.7,1.7-2.3,1.7-3.2,0.9C33.3,30.2,34.3,27.5,36.2,27.9
		L36.2,27.9z"/>
	<path id="XMLID_1213_" class="st9" d="M36.2,27.9c1.1,0.2,2.1,1.4,1.7,2.6c-0.2,0.6-0.6,1-1.1,1.3c0.5-0.6,0.6-1.3,0.5-1.9
		c-0.2-1.4-2.1-2-3-1.1C34.7,28.1,35.4,27.7,36.2,27.9L36.2,27.9z"/>
	<path id="XMLID_1212_" class="st4" d="M45.8,28.4c1,0.4,1.8,1.7,1.1,3c-0.6,1-1.6,1.1-2.4,0.8C42.1,31.1,43.7,27.6,45.8,28.4
		L45.8,28.4z"/>
	<path id="XMLID_1211_" class="st8" d="M45,29c1,0.4,1.8,1.7,1.1,3c-0.6,1-1.6,1.1-2.4,0.8C41.3,31.7,42.9,28.2,45,29L45,29z"/>
	<path id="XMLID_1210_" class="st9" d="M45,29c1,0.4,1.8,1.7,1.1,3c-0.2,0.4-0.5,0.6-0.8,0.8c1.4-2-0.3-4.2-2.4-3
		C43.3,29.1,44.1,28.7,45,29L45,29z"/>
	<path id="XMLID_1209_" class="st9" d="M33.7,10c0.4-0.4,0.6-0.7,0.9-1.6c0.2-0.7,0.4-1.6,1.4-1.3c-0.7,0-0.8,0.5-0.9,1
		C34.7,9.2,34.3,9.8,33.7,10L33.7,10z"/>
	<path id="XMLID_1208_" class="st1" d="M6.2,26.7c-0.2-0.8,1-0.9,1,0.1c0,0.4-0.2,0.9-0.5,0.9C6.1,27.7,6.3,27.1,6.2,26.7L6.2,26.7z
		"/>
	<path id="XMLID_1207_" class="st1" d="M16,32.3c-0.2-0.2-0.3-0.4-0.2-0.6c0.1-0.2,0.2-0.3,0.3-0.6c0.2-0.5,0.6-0.2,0.7,0.5
		C16.8,32.1,16.6,32.8,16,32.3L16,32.3z"/>
	<path id="XMLID_1206_" class="st1" d="M14.4,25.8c0.3-0.1,0.5-0.1,0.7,0.1c0.1,0.2,0,0.5-0.5,0.4C13.8,26.4,13.8,26.1,14.4,25.8
		L14.4,25.8z"/>
	<path id="XMLID_1205_" class="st1" d="M23.8,27.3c-0.3,0.1-0.4,0.2-0.7,0c-0.2-0.2-0.2-0.5-0.1-0.8c0.1-0.2,0.5-0.1,0.8,0
		C24.3,26.8,24.5,27.1,23.8,27.3L23.8,27.3z"/>
	<path id="XMLID_1204_" class="st1" d="M52.7,42.6c-0.5-0.3-0.7-0.7-0.5-1c0.2-0.3,0.3-0.6,0.5-1.2c0.2-0.9,1.1-0.5,1.3,0.7
		C54.1,42,53.8,43.2,52.7,42.6L52.7,42.6z"/>
	<path id="XMLID_1203_" class="st1" d="M30.7,46.2c-0.2-0.5,0.7-0.6,1-0.5C32.7,46.1,31.1,47.4,30.7,46.2L30.7,46.2z"/>
	<path id="XMLID_1196_" class="st1" d="M34.9,37.2c-0.8-1.1,1.6-1.4,0.9,0.2C35.5,38,35.4,37.9,34.9,37.2L34.9,37.2z"/>
	<path id="XMLID_1193_" class="st1" d="M36,40.8c-0.3-0.2-0.5-0.5,0.1-0.6c0.2,0,1,0.2,0.6,0.5C36.3,40.9,36.2,40.9,36,40.8L36,40.8
		z"/>
	<path id="XMLID_1192_" class="st1" d="M39.9,23.6c-0.3,0.2-0.4,0.4-0.3,0.6c0.1,0.2,0.2,0.4,0.3,0.8c0.1,0.6,0.7,0.3,0.9-0.5
		C40.9,24,40.7,23.2,39.9,23.6L39.9,23.6z"/>
	<path id="XMLID_1154_" class="st1" d="M46.5,27.2c-0.2,1.3,2,0.6,0.7-0.5C46.8,26.2,46.6,26.4,46.5,27.2L46.5,27.2z"/>
	<path id="XMLID_757_" class="st1" d="M32.3,11.9c0.2-0.5,0.9,0.1,1.1,0.4C33.7,13.4,31.7,13,32.3,11.9L32.3,11.9z"/>
	<path id="XMLID_756_" class="st1" d="M28.5,32.6c0.8,0.4,0.7-1.2-0.2-0.5C28,32.3,28,32.4,28.5,32.6L28.5,32.6z"/>
	<path id="XMLID_755_" class="st1" d="M36.2,19.5c-0.2,0.2-0.4,0.3-0.7,0.2c-0.2-0.1-0.2-0.4,0.3-0.6C36.4,18.8,36.6,19.1,36.2,19.5
		L36.2,19.5z"/>
	<path id="XMLID_754_" class="st1" d="M35,22.1c-0.3,0.2-1.7,1.2-1.7-0.3c0-0.9,1-1,1.7-0.4C35.3,21.8,35.3,21.9,35,22.1L35,22.1z"
		/>
	<path id="XMLID_753_" class="st1" d="M54.1,27.5c-0.2-0.9,1.2-1,1.2,0.2c0,0.5-0.2,1.1-0.6,1.1C54.1,28.8,54.3,28.1,54.1,27.5
		L54.1,27.5z"/>
	<path id="XMLID_752_" class="st1" d="M48.4,23.1c0.3-0.2,0.7-0.3,0.5,0.3c-0.1,0.2-0.5,0.9-0.6,0.4C48.1,23.4,48.1,23.3,48.4,23.1
		L48.4,23.1z"/>
	<path id="XMLID_751_" class="st1" d="M58.2,21.8c-0.2,0.1-0.3,0.1-0.4,0c-0.2-0.1-0.2-0.4,0-0.5c0.1-0.1,0.3-0.1,0.5,0
		C58.5,21.5,58.6,21.7,58.2,21.8L58.2,21.8z"/>
	<path id="XMLID_750_" class="st1" d="M65,22.6c-0.5-0.1-0.8-0.4-0.8-0.7c0-0.3,0.1-0.7,0-1.3c-0.1-0.9,0.9-0.8,1.5,0.2
		C66.1,21.5,66.3,22.8,65,22.6L65,22.6z"/>
	<path id="XMLID_749_" class="st1" d="M61.6,44c-0.2,0.3-0.9,1.8-1.6,0.6c-0.4-0.8,0.4-1.4,1.3-1.1C61.7,43.5,61.7,43.6,61.6,44
		L61.6,44z"/>
	<path id="XMLID_748_" class="st1" d="M69.2,53.7c1.2-0.7-0.9-1.9-0.9-0.2C68.3,54.1,68.5,54.2,69.2,53.7L69.2,53.7z"/>
	<path id="XMLID_742_" class="st1" d="M51.7,35.2c0.4-0.7,1.4,0.2,1.6,0.7C53.8,37.4,50.9,36.8,51.7,35.2L51.7,35.2z"/>
	<path id="XMLID_741_" class="st1" d="M55.9,38.8c0.3-0.4,0.7-0.6,0.8,0.1c0,0.3-0.2,1.2-0.6,0.8C55.7,39.3,55.7,39.1,55.9,38.8
		L55.9,38.8z"/>
	<path id="XMLID_714_" class="st1" d="M62,17.4c0.1-0.3,0.5-0.1,0.5,0.4C62.5,18.3,61.4,19,62,17.4L62,17.4z"/>
	<path id="XMLID_581_" class="st1" d="M69.9,13.5c-0.7-0.7,0.3-0.8,0.6-0.4c0.1,0.2,0.1,0.6-0.1,0.7C70.2,13.9,70.1,13.6,69.9,13.5
		L69.9,13.5z"/>
	<path id="XMLID_536_" class="st1" d="M43.1,34.6c0.2-0.5,0.9,0.1,1.1,0.4C44.5,36.1,42.6,35.7,43.1,34.6L43.1,34.6z"/>
	<path id="XMLID_535_" class="st1" d="M38.1,38.3c-0.3-0.9,1.4-1,1.4,0.2c0,0.5-0.2,1.1-0.7,1.1C38.1,39.5,38.3,38.8,38.1,38.3
		L38.1,38.3z"/>
	<path id="XMLID_534_" class="st1" d="M15.6,36.4c-0.2,0.2-0.4,0.3-0.7,0.2c-0.2-0.1-0.2-0.4,0.3-0.6C15.8,35.7,16,36,15.6,36.4
		L15.6,36.4z"/>
	<path id="XMLID_533_" class="st1" d="M32,25c0.5-0.1,0.5,0.8,0.3,1.1C31.8,27.1,30.8,25.2,32,25L32,25z"/>
</g>
</svg>
