<?xml version="1.0" encoding="utf-8"?>
<!-- Generator: Adobe Illustrator 19.0.0, SVG Export Plug-In . SVG Version: 6.00 Build 0)  -->
<svg version="1.1" id="Layer_1" xmlns="http://www.w3.org/2000/svg" xmlns:xlink="http://www.w3.org/1999/xlink" x="0px" y="0px"
	 viewBox="0 0 82.7 66.2" style="enable-background:new 0 0 82.7 66.2;" xml:space="preserve">
<style type="text/css">
	.st0{fill:url(#XMLID_106_);}
	.st1{fill:#DE9124;}
	.st2{fill:#EBAC52;}
	.st3{fill:#C48833;}
	.st4{fill:url(#XMLID_107_);}
	.st5{fill:#2D90AF;}
	.st6{fill:url(#XMLID_108_);}
	.st7{fill:url(#XMLID_109_);}
	.st8{fill:#C9626D;}
	.st9{fill:url(#XMLID_110_);}
	.st10{fill:url(#XMLID_111_);}
	.st11{fill:#917E56;}
	.st12{fill:url(#XMLID_112_);}
	.st13{fill:url(#XMLID_113_);}
	.st14{fill:url(#XMLID_114_);}
	.st15{fill:url(#XMLID_115_);}
	.st16{fill:url(#XMLID_116_);}
</style>
<g id="XMLID_5330_">
	
		<linearGradient id="XMLID_106_" gradientUnits="userSpaceOnUse" x1="-713.4312" y1="-1608.5804" x2="-671.2552" y2="-1608.5804" gradientTransform="matrix(0.9504 0.3109 -0.3109 0.9504 220.9209 1763.0026)">
		<stop  offset="0" style="stop-color:#FFD365"/>
		<stop  offset="1" style="stop-color:#E6AD5B"/>
	</linearGradient>
	<path id="XMLID_12622_" class="st0" d="M68.2,14.9c1.9,1.1,12.9,9.3,14.3,11.6c0,0.1,0.1,0.1,0.1,0.2c-4.4,0.5-19.3-1.7-21.7-2.6
		c-2.3-0.9-14-8.6-17.6-13.1c0,0,0.1-0.1,0.1-0.1C45.1,9.7,64.6,12.8,68.2,14.9z"/>
	<g id="XMLID_12555_">
		<path id="XMLID_12558_" class="st1" d="M60.3,23.8c0.3,0.1,0.5,0.2,0.6,0.3c2.4,0.9,17.2,3.1,21.7,2.6c1.2,3.8-8.7,28.4-10.9,29
			c-2.1,0.7-20.9-0.5-24.7-1.6C48,47.6,56.1,28.8,60.3,23.8z"/>
		<path id="XMLID_12556_" class="st2" d="M43.4,11c3.3,4.2,13.6,11.1,16.9,12.8C56.1,28.8,48,47.6,47,54.2c-0.2-0.1-0.4-0.1-0.5-0.2
			c-2.4-1.4-12.7-10.3-12.8-13.4C33.5,37.6,41.5,13,43.4,11z"/>
	</g>
	<path id="XMLID_12554_" class="st3" d="M69.3,38.8c-0.7,0.4-7.1-0.9-10.5-1.7c0.5-3.4,1.8-7.8,2.8-8.1c1-0.3,6.5,0.3,10.5,1.4
		C72,32.6,70.2,38.3,69.3,38.8z"/>
	<g id="XMLID_12545_">
		
			<linearGradient id="XMLID_107_" gradientUnits="userSpaceOnUse" x1="-715.2782" y1="-1594.7302" x2="-712.3877" y2="-1570.45" gradientTransform="matrix(0.9504 0.3109 -0.3109 0.9504 220.9209 1763.0026)">
			<stop  offset="0" style="stop-color:#0F80A4"/>
			<stop  offset="0.8516" style="stop-color:#0D566B"/>
		</linearGradient>
		<path id="XMLID_12547_" class="st4" d="M27.8,33.2c1.2-5.3,0-11.3-2.9-13.8c5.1,0.7,18,4,21.3,6.2c5.3,3.5,5.2,21.9-5.3,23.4
			c-10.4,1.4-21.3-3.1-23-4.1c-0.1-0.1-0.3-0.2-0.4-0.3C22.7,44.8,26.3,39.7,27.8,33.2z"/>
		<path id="XMLID_12546_" class="st5" d="M23,19.3c0.3-0.1,1,0,1.9,0.1c2.8,2.6,4,8.5,2.9,13.8c-1.4,6.5-5.1,11.6-10.2,11.4
			c-3.1-2.1-5-5.5-3.2-13.5C16.3,22.7,20.8,19.7,23,19.3z"/>
	</g>
	
		<linearGradient id="XMLID_108_" gradientUnits="userSpaceOnUse" x1="849.2145" y1="-1616.2439" x2="860.8217" y2="-1616.2439" gradientTransform="matrix(-0.9504 -0.3109 -0.3109 0.9504 348.5639 1804.7531)">
		<stop  offset="0" style="stop-color:#F7EACF"/>
		<stop  offset="0.1237" style="stop-color:#F4E6CA"/>
		<stop  offset="0.629" style="stop-color:#E9D8B8"/>
		<stop  offset="1" style="stop-color:#E5D3B2"/>
	</linearGradient>
	<path id="XMLID_12544_" class="st6" d="M43.6,5.4c-0.7,1.9-11.7-2.2-10.8-4.4C34-1.9,45,1.7,43.6,5.4z"/>
	<g id="XMLID_12541_">
		
			<linearGradient id="XMLID_109_" gradientUnits="userSpaceOnUse" x1="-736.0095" y1="-1567.9364" x2="-723.9756" y2="-1567.9364" gradientTransform="matrix(0.9504 0.3109 -0.3109 0.9504 220.9209 1763.0026)">
			<stop  offset="0" style="stop-color:#AD434F"/>
			<stop  offset="0.3747" style="stop-color:#B64753"/>
			<stop  offset="1" style="stop-color:#C14B58"/>
		</linearGradient>
		<path id="XMLID_12543_" class="st7" d="M21.2,40.8c0.2,0.4,0.3,0.9,0.3,1.2c0.1,1.4-1.8,9.4-4.2,10.6c-1.4,0.7-6.3-0.4-10.5-2.5
			C11.4,47.2,18.4,42.2,21.2,40.8z"/>
		<path id="XMLID_12542_" class="st8" d="M14,33.8c1.7,0.1,6,4.1,7.2,7c-4.9,3.4-8.4,6.7-14.4,9.3c-3.1-1.6-6-3.8-6.7-6.3
			C-1,40.2,9.9,33.6,14,33.8z"/>
	</g>
	
		<linearGradient id="XMLID_110_" gradientUnits="userSpaceOnUse" x1="804.7679" y1="-1571.9827" x2="819.5089" y2="-1571.9827" gradientTransform="matrix(-0.9504 -0.3109 -0.3109 0.9504 348.5639 1804.7531)">
		<stop  offset="0" style="stop-color:#DCBC82"/>
		<stop  offset="1" style="stop-color:#C2A872"/>
	</linearGradient>
	<path id="XMLID_12536_" class="st9" d="M67.5,50.7c-5.8-2.4-15.2,9.2-5.6,14.4S77.6,54.9,67.5,50.7z"/>
	
		<linearGradient id="XMLID_111_" gradientUnits="userSpaceOnUse" x1="812.497" y1="-1572.3899" x2="824.4341" y2="-1572.3899" gradientTransform="matrix(-0.9504 -0.3109 -0.3109 0.9504 348.5639 1804.7531)">
		<stop  offset="0" style="stop-color:#E5D3B2"/>
		<stop  offset="1" style="stop-color:#D9C39A"/>
	</linearGradient>
	<path id="XMLID_12535_" class="st10" d="M61.8,65.1c-9.6-5.2-0.2-16.8,5.6-14.4c0,0-1.9-2-6.1-2.3c-4.2-0.3-9.4,5-7.5,10.2
		C55.3,62.7,61.8,65.1,61.8,65.1z"/>
	<path id="XMLID_12534_" class="st11" d="M66.8,56c2.2,0.7,0.7,5.6-1.6,4.5C62.8,59.4,64.7,55.3,66.8,56z"/>
	
		<linearGradient id="XMLID_112_" gradientUnits="userSpaceOnUse" x1="835.6555" y1="-1567.7494" x2="850.3961" y2="-1567.7494" gradientTransform="matrix(-0.9504 -0.3109 -0.3109 0.9504 348.5639 1804.7531)">
		<stop  offset="0" style="stop-color:#DCBC82"/>
		<stop  offset="1" style="stop-color:#C2A872"/>
	</linearGradient>
	<path id="XMLID_12533_" class="st12" d="M36.8,45.1c-5.8-2.4-15.2,9.2-5.6,14.4C40.8,64.7,46.9,49.3,36.8,45.1z"/>
	
		<linearGradient id="XMLID_113_" gradientUnits="userSpaceOnUse" x1="843.384" y1="-1568.1561" x2="855.3215" y2="-1568.1561" gradientTransform="matrix(-0.9504 -0.3109 -0.3109 0.9504 348.5639 1804.7531)">
		<stop  offset="0" style="stop-color:#E5D3B2"/>
		<stop  offset="1" style="stop-color:#D9C39A"/>
	</linearGradient>
	<path id="XMLID_12531_" class="st13" d="M31.2,59.5c-9.6-5.2-0.2-16.8,5.6-14.4c0,0-1.9-2-6.1-2.3c-4.2-0.3-9.4,5-7.5,10.2
		C24.6,57.1,31.2,59.5,31.2,59.5z"/>
	<path id="XMLID_12529_" class="st11" d="M36.1,50.4c2.2,0.7,0.7,5.6-1.6,4.5C32.1,53.8,34.1,49.7,36.1,50.4z"/>
	<g id="XMLID_12526_">
		<path id="XMLID_12528_" class="st2" d="M69.3,38.8c0.8-0.4,2.7-6.1,2.8-8.4c2.1,0.6,3.9,1.2,4.3,1.9c0.9,1.7-1.5,9.7-3.1,10.5
			c0,0-0.1,0-0.1,0.1c-0.8-1.2-2.2-3-4.2-4.1C69.2,38.8,69.3,38.8,69.3,38.8z"/>
		
			<linearGradient id="XMLID_114_" gradientUnits="userSpaceOnUse" x1="809.4955" y1="-1588.657" x2="824.8691" y2="-1588.657" gradientTransform="matrix(-0.9504 -0.3109 -0.3109 0.9504 348.5639 1804.7531)">
			<stop  offset="0" style="stop-color:#FFD365"/>
			<stop  offset="1" style="stop-color:#E6AD5B"/>
		</linearGradient>
		<path id="XMLID_12527_" class="st14" d="M69,38.8c2,1.1,3.4,2.9,4.2,4.1c-2,0.7-13.8,0.1-14.4-2c-0.2-0.7-0.1-2.2,0.1-3.8
			C61.9,37.7,67.4,38.9,69,38.8z"/>
	</g>
	<g id="XMLID_5331_">
		
			<linearGradient id="XMLID_115_" gradientUnits="userSpaceOnUse" x1="-719.4637" y1="-1605.3088" x2="-716.7658" y2="-1605.3088" gradientTransform="matrix(0.9504 0.3109 -0.3109 0.9504 220.9209 1763.0026)">
			<stop  offset="0" style="stop-color:#A89263"/>
			<stop  offset="1" style="stop-color:#C2A872"/>
		</linearGradient>
		<path id="XMLID_12525_" class="st15" d="M38.8,5.2c2.3,0.8,4.5,1,4.8,0.2c0,0-7.2,16.6-8.6,17.3c-0.7,0.4-2.2,0.3-3.5-0.1
			C36,19.2,38.7,9.5,38.8,5.2z"/>
		
			<linearGradient id="XMLID_116_" gradientUnits="userSpaceOnUse" x1="852.9227" y1="-1605.6974" x2="860.8217" y2="-1605.6974" gradientTransform="matrix(-0.9504 -0.3109 -0.3109 0.9504 348.5639 1804.7531)">
			<stop  offset="0" style="stop-color:#DCBC82"/>
			<stop  offset="1" style="stop-color:#C2A872"/>
		</linearGradient>
		<path id="XMLID_12524_" class="st16" d="M38.8,5.2c-0.1,4.3-2.7,14-7.3,17.4c-1.2-0.3-2.4-0.9-2.8-1.6c-1-1.5,4.2-19.9,4.2-19.9
			C32.3,2.3,35.7,4.2,38.8,5.2z"/>
	</g>
</g>
</svg>
