<?xml version="1.0" encoding="utf-8"?>
<!-- Generator: Adobe Illustrator 19.0.0, SVG Export Plug-In . SVG Version: 6.00 Build 0)  -->
<svg version="1.1" id="Layer_1" xmlns="http://www.w3.org/2000/svg" xmlns:xlink="http://www.w3.org/1999/xlink" x="0px" y="0px"
	 viewBox="0 0 61.4 57.4" style="enable-background:new 0 0 61.4 57.4;" xml:space="preserve">
<style type="text/css">
	.st0{fill:#B35025;}
	.st1{fill:#C65A2B;}
	.st2{fill:#EFB466;}
	.st3{fill:#E2AA5C;}
	.st4{fill:#D46836;}
	.st5{fill:#F3C272;}
	.st6{opacity:0.1;fill:url(#XMLID_132_);}
	.st7{fill:#492915;}
	.st8{opacity:0.3;fill:#F1ECE0;}
	.st9{opacity:0.2;fill:url(#XMLID_133_);}
	.st10{fill:#6C2C1D;}
	.st11{fill:#7E3A1D;}
</style>
<g id="XMLID_14043_">
	<path id="XMLID_14089_" class="st0" d="M35.6,24.3c3.4,1.4,11.8,19.9,9.5,26c-2,5.2-6.8,5.5-14.5,5.5c-9.9,0-13.2-1.7-14.4-6.2
		c-1.7-6.2,3.8-20.8,6.3-23.9C24.8,22.6,34.5,23.8,35.6,24.3z"/>
	<g id="XMLID_14084_">
		<path id="XMLID_14088_" class="st1" d="M44.4,44.9c1.6-0.3,4,0.8,7.4-0.2c5-1.5,7.3-2.6,8.6-0.3c2.4,4.4,0.7,12-4.6,12.9
			c-2.7,0.5-12.8-3.7-15.1-4.8C38.3,51.4,42.5,45.2,44.4,44.9z"/>
		<path id="XMLID_14087_" class="st0" d="M44.4,52.3c1.6-0.3,6-0.1,7.5-3.3c2.2-4.5,7.1-6.9,8.4-4.5c2.4,4.4,0.7,12-4.6,12.9
			c-2.7,0.5-13.5-2.5-15.9-3.6C37.6,52.6,42.6,52.6,44.4,52.3z"/>
		<path id="XMLID_14086_" class="st2" d="M53.5,49.2c-1,2.5-0.8,6,0.9,6.7c1.6,0.6,3.9-0.1,5.2-3.5c1.4-3.7,0.1-6.5-1-6.9
			C56.6,44.9,54.5,46.6,53.5,49.2z"/>
		<path id="XMLID_14085_" class="st3" d="M54.3,55.8c1.6,0.6,3.9-0.1,5.2-3.5c1.4-3.7,0.1-6.5-1-6.9C59.4,48.9,57.5,54.7,54.3,55.8z
			"/>
	</g>
	<g id="XMLID_14079_">
		<path id="XMLID_14083_" class="st1" d="M17,44.8c-1.6-0.3-4,0.8-7.4-0.2c-5-1.5-7.3-2.6-8.6-0.3c-2.4,4.3-0.7,12,4.5,12.9
			c2.7,0.5,12.8-3.6,15.1-4.7C23.1,51.4,18.9,45.2,17,44.8z"/>
		<path id="XMLID_14082_" class="st0" d="M17.2,52.2c-1.6-0.3-6-0.2-7.5-3.3c-2.2-4.5-7.1-6.9-8.4-4.5c-2.4,4.3-0.7,12,4.5,12.9
			c2.7,0.5,13.5-2.5,15.9-3.6C24,52.5,19,52.6,17.2,52.2z"/>
		<path id="XMLID_14081_" class="st2" d="M8.1,49.1c1,2.5,0.8,6-0.9,6.7c-1.6,0.6-3.9-0.1-5.2-3.5c-1.4-3.7-0.1-6.5,1-6.9
			C5,44.9,7.1,46.6,8.1,49.1z"/>
		<path id="XMLID_14080_" class="st3" d="M7.2,55.8c-1.6,0.6-3.9-0.1-5.2-3.5c-1.4-3.7-0.1-6.5,1-6.9C2.2,48.9,4,54.7,7.2,55.8z"/>
	</g>
	<path id="XMLID_14078_" class="st1" d="M37.4,23.7c3.4,1.4,12.4,20.1,8.4,25.3c-3.5,4.4-9.9,5-14.9,5c-4.7,0-14.5-1.4-15.8-6
		c-1.7-6.2,3-20,5.5-23C23,22.1,36.3,23.3,37.4,23.7z"/>
	<g id="XMLID_14073_">
		<path id="XMLID_14077_" class="st1" d="M37.8,27.9C39,27,48.2,25,52,21.1c1.5-1.5,2.7-0.4,4.6,1.7c2,2.2,3.6,7.2,0,10.5
			c-2.6,2.4-9.8,2.1-14.5,1.9C37.4,35,36.6,28.8,37.8,27.9z"/>
		<path id="XMLID_14076_" class="st4" d="M41.6,26.5c3.3-1.2,8-2.9,10.4-5.4c1.5-1.5,2.7-0.4,4.6,1.7c2,2.2,3.6,7.2,0,10.5
			c-1,1-3.2,0.3-4.8-1c-1.3-1.1-2.1-4.4-1.4-7.1c0.2-0.7-2.2,0.2-3.3,0.5C43.2,26.7,41.9,26.5,41.6,26.5z"/>
		<path id="XMLID_14075_" class="st2" d="M53.2,22.4c-0.5,0.3-1.6,5.3-1,7.2c0.6,1.9,2.3,3.4,3.7,2.6c1.2-0.7,2.2-4.1,1.4-6
			C56.4,24.5,54.8,21.6,53.2,22.4z"/>
		<path id="XMLID_14074_" class="st5" d="M53.2,22.4c-0.5,0.3-1.6,5.3-1,7.2c0.6-2.7,0.6-3.2,2-4c1.2-0.7,1.8-0.3,3.1,0.6
			C56.4,24.5,54.8,21.6,53.2,22.4z"/>
	</g>
	<g id="XMLID_14068_">
		<path id="XMLID_14072_" class="st1" d="M23.8,27.9c-1.2-0.9-10.4-3-14.2-6.8c-1.5-1.5-2.7-0.4-4.6,1.7C3,25,1.4,29.9,5,33.3
			c2.6,2.5,9.8,2.2,14.5,1.9C24.2,35,25.1,28.8,23.8,27.9z"/>
		<path id="XMLID_14071_" class="st4" d="M20.1,26.5c-3.3-1.2-8-2.9-10.4-5.4c-1.5-1.5-2.7-0.4-4.6,1.7C3,25,1.4,29.9,5,33.3
			c1,1,3.2,0.3,4.8-0.9c1.4-1.1,2.1-4.4,1.4-7.1c-0.2-0.7,2.2,0.2,3.3,0.5C18.5,26.7,19.8,26.4,20.1,26.5z"/>
		<path id="XMLID_14070_" class="st2" d="M8.5,22.4c0.5,0.3,1.6,5.3,1,7.2c-0.6,1.9-2.3,3.4-3.7,2.6c-1.2-0.7-2.2-4.1-1.4-6
			C5.3,24.4,6.8,21.5,8.5,22.4z"/>
		<path id="XMLID_14069_" class="st5" d="M8.5,22.4c0.5,0.3,1.6,5.3,1,7.2c-0.6-2.7-0.6-3.2-1.9-4c-1.2-0.7-1.8-0.3-3.1,0.6
			C5.3,24.4,6.8,21.5,8.5,22.4z"/>
	</g>
	<path id="XMLID_14067_" class="st4" d="M36.1,4.4C37.5,2.3,39-1,43.1,0.3c3.2,1,5.8,5.8,3.3,8.3c-1.3,1.3-2.5,2.8-3.8,2.2
		C41.2,10.2,36.1,4.4,36.1,4.4z"/>
	<path id="XMLID_14066_" class="st1" d="M37.5,5.4c0.6-2.1,2.9-4.7,5.3-4c3.3,0.9,6.1,4.7,3.5,7.2c-1.3,1.3-2.5,2.8-3.8,2.2
		C41.2,10.2,37.5,5.4,37.5,5.4z"/>
	<path id="XMLID_14065_" class="st2" d="M44.1,7.4c1-0.6,1-2.4,0.2-3.6c-0.8-1.2-2.6-1.4-3.6-0.8c-1,0.6-1.9,3.4-1.2,4.6
		C40.3,8.8,43.1,8,44.1,7.4z"/>
	<path id="XMLID_14064_" class="st4" d="M26.4,4.4c-1.4-2.1-2.9-5.4-6.9-4.1c-3.2,1-5.9,5.7-3.3,8.3c1.3,1.3,2.5,2.8,3.8,2.2
		C21.4,10.2,26.4,4.4,26.4,4.4z"/>
	<path id="XMLID_14063_" class="st1" d="M25.1,5.4c-0.6-2.1-2.9-4.7-5.3-4c-3.3,0.9-6.1,4.7-3.5,7.2c1.3,1.3,2.5,2.8,3.8,2.2
		C21.4,10.2,25.1,5.4,25.1,5.4z"/>
	<path id="XMLID_14062_" class="st2" d="M18.5,7.4c-1-0.6-1-2.4-0.2-3.6C19,2.6,20.8,2.4,21.8,3c1,0.6,1.9,3.4,1.2,4.6
		C22.2,8.8,19.5,8,18.5,7.4z"/>
	<path id="XMLID_14061_" class="st4" d="M31.5,29.2c-7.3,0.6-13.8-2.3-15.7-6.7c-2-4.7,2.4-14.3,6.4-16.6C27.9,2.7,33,1.8,39.2,5.2
		c4.6,2.6,8.2,11.9,7.4,15.3C46,23.3,42.1,28.3,31.5,29.2z"/>
	<path id="XMLID_14060_" class="st1" d="M31.5,29.2c-7.3,0.6-13.8-2.3-15.7-6.7c-1.1-2.6,0-7.3,2.1-9.8c2-2.5,5.3-4.3,7.1-3.3
		c0.6-2.4,3-4.4,5.5-4.5c2.8-0.2,5.8,1.7,6.2,4.7c2.8-0.7,4-0.4,6.1,1.5c1.9,1.7,4.2,7.5,3.7,9.5C46,23.3,42.1,28.3,31.5,29.2z"/>
	
		<linearGradient id="XMLID_132_" gradientUnits="userSpaceOnUse" x1="-1563.3879" y1="13.4271" x2="-1545.6667" y2="13.4271" gradientTransform="matrix(-1 -8.950557e-04 -8.950557e-04 1 -1523.1296 3.3215)">
		<stop  offset="0" style="stop-color:#FFFFFF"/>
		<stop  offset="2.232726e-03" style="stop-color:#FCFCFC"/>
		<stop  offset="3.712601e-02" style="stop-color:#D6CECC"/>
		<stop  offset="7.428180e-02" style="stop-color:#B4A6A2"/>
		<stop  offset="0.1143" style="stop-color:#96827D"/>
		<stop  offset="0.157" style="stop-color:#7C645D"/>
		<stop  offset="0.2032" style="stop-color:#684B44"/>
		<stop  offset="0.2544" style="stop-color:#583830"/>
		<stop  offset="0.3132" style="stop-color:#4C2B22"/>
		<stop  offset="0.3862" style="stop-color:#46231A"/>
		<stop  offset="0.5171" style="stop-color:#442118"/>
		<stop  offset="0.5625" style="stop-color:#4A281F"/>
		<stop  offset="0.6288" style="stop-color:#593A32"/>
		<stop  offset="0.7078" style="stop-color:#735952"/>
		<stop  offset="0.7965" style="stop-color:#97847F"/>
		<stop  offset="0.8935" style="stop-color:#C5BBB8"/>
		<stop  offset="0.9959" style="stop-color:#FDFCFC"/>
		<stop  offset="1" style="stop-color:#FFFFFF"/>
	</linearGradient>
	<path id="XMLID_14059_" class="st6" d="M22.6,19.3c0.5,3,3,7,8.9,6.6c5.9-0.3,8.7-5,8.8-7.2c0.2-3.7-4.7-8.4-9-8.4
		C27.1,10.3,22,16.3,22.6,19.3z"/>
	<path id="XMLID_14058_" class="st2" d="M22.6,19.3c0.5,3,3.2,5.5,9.1,5.2c5.9-0.3,8.5-3.5,8.6-5.8c0.2-3.7-4.7-8.4-9-8.4
		C27.1,10.3,22,16.3,22.6,19.3z"/>
	<path id="XMLID_14057_" class="st5" d="M24.7,14.5c-1,1.8,2.9,5,7,4.8c4.1-0.2,7.3-3,6.8-4.4c-0.4-1.2-3.2-4.7-7.5-4.5
		C27.8,10.5,25.4,13.4,24.7,14.5z"/>
	<path id="XMLID_14056_" class="st0" d="M31.1,8.6c0.2-0.8-0.2-1.6-0.9-1.8c-0.7-0.2-1.5,0.3-1.7,1.1c-0.2,0.8,0.2,1.6,0.9,1.8
		C30.1,9.9,30.9,9.4,31.1,8.6z"/>
	<path id="XMLID_14055_" class="st7" d="M30.6,8.8c0.2-0.6-0.1-1.2-0.7-1.4c-0.6-0.1-1.2,0.2-1.3,0.9c-0.2,0.6,0.1,1.2,0.7,1.4
		C29.9,9.8,30.5,9.5,30.6,8.8z"/>
	<path id="XMLID_14054_" class="st8" d="M30,8.4c0.1-0.3-0.1-0.6-0.3-0.6c-0.3-0.1-0.5,0.1-0.6,0.4c-0.1,0.3,0.1,0.6,0.3,0.6
		C29.6,8.8,29.9,8.7,30,8.4z"/>
	<path id="XMLID_14053_" class="st0" d="M33,7.4c-0.5-0.6-1.3-0.8-1.8-0.3c-0.5,0.4-0.6,1.3-0.1,1.9c0.5,0.6,1.3,0.8,1.8,0.3
		C33.4,8.9,33.5,8,33,7.4z"/>
	<path id="XMLID_14052_" class="st7" d="M32.9,8c-0.3-0.4-0.9-0.5-1.2-0.2c-0.4,0.3-0.4,0.9-0.1,1.3c0.3,0.4,0.9,0.5,1.2,0.2
		C33.2,9,33.2,8.4,32.9,8z"/>
	<path id="XMLID_14051_" class="st8" d="M32.4,8c-0.2-0.2-0.5-0.3-0.6-0.1c-0.2,0.2-0.2,0.5,0,0.7c0.2,0.2,0.4,0.3,0.6,0.1
		C32.5,8.5,32.6,8.2,32.4,8z"/>
	
		<linearGradient id="XMLID_133_" gradientUnits="userSpaceOnUse" x1="-1557.585" y1="9.9023" x2="-1551.5825" y2="9.9023" gradientTransform="matrix(-1 -8.950557e-04 -8.950557e-04 1 -1523.1296 3.3215)">
		<stop  offset="0" style="stop-color:#FFFFFF"/>
		<stop  offset="2.232726e-03" style="stop-color:#FCFCFC"/>
		<stop  offset="3.712601e-02" style="stop-color:#D6CECC"/>
		<stop  offset="7.428180e-02" style="stop-color:#B4A6A2"/>
		<stop  offset="0.1143" style="stop-color:#96827D"/>
		<stop  offset="0.157" style="stop-color:#7C645D"/>
		<stop  offset="0.2032" style="stop-color:#684B44"/>
		<stop  offset="0.2544" style="stop-color:#583830"/>
		<stop  offset="0.3132" style="stop-color:#4C2B22"/>
		<stop  offset="0.3862" style="stop-color:#46231A"/>
		<stop  offset="0.5171" style="stop-color:#442118"/>
		<stop  offset="0.5625" style="stop-color:#4A281F"/>
		<stop  offset="0.6288" style="stop-color:#593A32"/>
		<stop  offset="0.7078" style="stop-color:#735952"/>
		<stop  offset="0.7965" style="stop-color:#97847F"/>
		<stop  offset="0.8935" style="stop-color:#C5BBB8"/>
		<stop  offset="0.9959" style="stop-color:#FDFCFC"/>
		<stop  offset="1" style="stop-color:#FFFFFF"/>
	</linearGradient>
	<path id="XMLID_14050_" class="st9" d="M28.4,13.7c0,1,1.7,3.6,2.9,3.6c1.2,0,3.1-2.6,3.1-3.6c0-1-1.3-1.8-3-1.8
		C29.8,11.9,28.4,12.7,28.4,13.7z"/>
	<path id="XMLID_14049_" class="st10" d="M28.4,13.7c0,1,1.8,2.8,3,2.8c1.2,0,3-1.8,3-2.8c0-1-1.3-1.8-3-1.8
		C29.8,11.9,28.4,12.7,28.4,13.7z"/>
	<path id="XMLID_14048_" class="st11" d="M28.4,13.7c0,0.6,1.8-0.3,3-0.3s3,0.9,3,0.3c0-1-1.3-1.8-3-1.8
		C29.8,11.9,28.4,12.7,28.4,13.7z"/>
	<path id="XMLID_14047_" class="st10" d="M36.6,19.4c0,0-3,2-6.2,1.5C26,20.2,25,17,25,17s0.3,4,5.5,4.9
		C34.3,22.5,36.6,19.4,36.6,19.4z"/>
	<path id="XMLID_14046_" class="st2" d="M30.9,31.1c-3.4,0.3-9.1,6.8-9.2,14.8c0,3.8,4.5,5.2,9.7,5c5.8-0.3,8.1-2.2,8.5-6.5
		C40.2,40,35.6,30.7,30.9,31.1z"/>
	<path id="XMLID_14045_" class="st5" d="M30.9,31.1c-3.4,0.3-9.1,6.8-9.2,14.8c1.7-6.5,4.3-10.4,9.5-10.5c5.1-0.1,7.2,4.6,8.6,9
		C40.2,40,35.6,30.7,30.9,31.1z"/>
	<path id="XMLID_14044_" class="st8" d="M31.8,13.4c-0.1,0-0.3,0-0.4,0c-0.6,0-1.5,0.3-2.1,0.4c0.1-0.6,0.6-1,1.3-1
		C31.2,12.7,31.6,13,31.8,13.4z"/>
</g>
</svg>
