<?xml version="1.0" encoding="utf-8"?>
<!-- Generator: Adobe Illustrator 19.0.0, SVG Export Plug-In . SVG Version: 6.00 Build 0)  -->
<svg version="1.1" id="Layer_1" xmlns="http://www.w3.org/2000/svg" xmlns:xlink="http://www.w3.org/1999/xlink" x="0px" y="0px"
	 viewBox="0 0 60.4 56" style="enable-background:new 0 0 60.4 56;" xml:space="preserve">
<style type="text/css">
	.st0{fill:#294B9A;}
	.st1{fill:#233E7E;}
	.st2{fill:#D8D8D6;}
	.st3{opacity:0.2;fill:url(#XMLID_158_);}
	.st4{fill:#FBF9F8;}
	.st5{opacity:0.2;fill:url(#XMLID_159_);}
	.st6{fill:#20386F;}
	.st7{fill:#BEBFBD;}
</style>
<g id="XMLID_14105_">
	<g id="XMLID_14108_">
		<g id="XMLID_14116_">
			<path id="XMLID_14103_" class="st0" d="M41.2,56L19,52c-0.6-0.1-1.4-0.4-2.1-0.8c-0.7-0.4-1.3-0.9-1.7-1.4L0.7,32.6
				c-1.3-1.6-0.6-2.9,0.2-4.4l15-26c0.9-1.5,3-2.5,4.8-2.2l20.4,3.3c0.4,0.1,1.9,0.3,2.9,0.8C45,4.7,46,5.9,46.2,6.3l13.1,16
				c1.2,1.5,1.4,3.7,0.5,5.3l-15,26C44,55,43.2,56.3,41.2,56z"/>
			<path id="XMLID_14102_" class="st1" d="M42.3,4.1C42.1,4,41.9,4,41.7,3.9L20.4,0.5c-1.2-0.2-3.3,0.7-3.9,1.6l-15,25.9
				c-0.3,0.5-0.2,1,0.3,1.3c0.2,0.1,0.4,0.2,0.6,0.2l21.7,3.6c1.2,0.2,2.6-0.4,3.1-1.3L42.5,5.4C42.9,4.9,42.8,4.4,42.3,4.1z"/>
			<path id="XMLID_14101_" class="st2" d="M39.5,6.5c-0.1-0.1-0.3-0.1-0.5-0.2l-18.5-3c-1-0.2-2.2,0.4-2.6,1.2L4.9,27
				c-0.3,0.5-0.2,0.9,0.2,1.1c0.1,0.1,0.3,0.1,0.5,0.2l18.5,3c1,0.2,2.2-0.4,2.6-1.2l13-22.5C40,7.1,39.9,6.7,39.5,6.5z"/>
			
				<linearGradient id="XMLID_158_" gradientUnits="userSpaceOnUse" x1="56.2954" y1="5351.5762" x2="69.1445" y2="5344.1577" gradientTransform="matrix(0.866 0.5 0.5 -0.866 -2702.8513 4622.5137)">
				<stop  offset="5.775190e-03" style="stop-color:#FDF7FA"/>
				<stop  offset="0.1103" style="stop-color:#F2ECEE"/>
				<stop  offset="0.2976" style="stop-color:#D4CFCF"/>
				<stop  offset="0.546" style="stop-color:#A5A09D"/>
				<stop  offset="0.8428" style="stop-color:#635F58"/>
				<stop  offset="1" style="stop-color:#3E3A31"/>
			</linearGradient>
			<path id="XMLID_14100_" class="st3" d="M24.1,31.3l-18.5-3c-0.2,0-0.4-0.1-0.5-0.2c-0.4-0.2-0.5-0.6-0.2-1.1L5,26.7l18.3,3
				c1,0.2,2.2-0.4,2.6-1.2L38.8,6.3l0.2,0c0.2,0,0.4,0.1,0.5,0.2c0.4,0.2,0.5,0.6,0.2,1.1l-13,22.5C26.3,30.9,25.1,31.4,24.1,31.3z"
				/>
			<path id="XMLID_14099_" class="st4" d="M44.4,9.3c0.1,0.1,0.3,0.2,0.4,0.4l11.9,14.5c0.6,0.8,0.8,2.1,0.3,2.9L44,49.5
				c-0.3,0.5-0.7,0.6-1.1,0.4c-0.1-0.1-0.3-0.2-0.4-0.4L30.6,35c-0.6-0.8-0.8-2.1-0.3-2.9l13-22.5C43.6,9.2,44,9.1,44.4,9.3z"/>
			
				<linearGradient id="XMLID_159_" gradientUnits="userSpaceOnUse" x1="80.5832" y1="5352.6499" x2="94.8996" y2="5335.5884" gradientTransform="matrix(0.866 0.5 0.5 -0.866 -2702.8513 4622.5137)">
				<stop  offset="5.775190e-03" style="stop-color:#FDF7FA"/>
				<stop  offset="0.1103" style="stop-color:#F2ECEE"/>
				<stop  offset="0.2976" style="stop-color:#D4CFCF"/>
				<stop  offset="0.546" style="stop-color:#A5A09D"/>
				<stop  offset="0.8428" style="stop-color:#635F58"/>
				<stop  offset="1" style="stop-color:#3E3A31"/>
			</linearGradient>
			<path id="XMLID_14098_" class="st5" d="M42.9,49.9c-0.1-0.1-0.3-0.2-0.4-0.4L30.6,35c-0.5-0.6-0.7-1.6-0.5-2.4
				c0.1,0.3,0.2,0.6,0.4,0.8l11.9,14.5c0.1,0.2,0.3,0.3,0.4,0.4c0.4,0.2,0.8,0.1,1.1-0.4l13-22.5c0.1-0.1,0.1-0.3,0.2-0.5
				c0.2,0.7,0.2,1.5-0.1,2.1L44,49.5C43.7,50,43.3,50.1,42.9,49.9z"/>
			<path id="XMLID_14097_" class="st6" d="M41.5,55.5c1.2,0.1,2.2-0.9,1.4-2.1L28.4,35.6C27.7,34.8,26,34,25,33.8L2.2,29.9
				C0.5,29.7,0.3,31.2,1,32l14.8,17.6c0.7,0.8,2.1,1.6,3.2,1.8L41.5,55.5z"/>
			<path id="XMLID_14096_" class="st7" d="M38.9,52.5c0.9,0.1,1.1-0.3,0.6-1L27.1,36.6c-0.6-0.7-1.7-1.3-2.6-1.5L5.4,31.9
				c-0.9-0.1-1.1,0.3-0.6,1l12.4,14.9c0.6,0.7,1.7,1.3,2.6,1.5L38.9,52.5z"/>
		</g>
		<path id="XMLID_14112_" class="st0" d="M36.6,35.7c-0.4-0.7-0.7-1.3-1-2c-0.4-1.1-0.5-2.3-0.4-3.5c0.1-1.2,0.5-2.3,1.1-3.4
			c1.3-2.2,2.9-2.7,4.9-1.5c-0.7-2.3-0.6-4.3,0.5-6.1c0.3-0.5,0.6-1,1-1.3c0.4-0.3,0.8-0.6,1.2-0.7c0.4-0.1,0.9-0.1,1.3,0
			c0.5,0.1,1,0.4,1.5,0.8c0.5,0.4,1,1,1.6,1.7l3.9,4.7c0.5,0.6,0.8,1.3,0.8,1.9c0,0.6-0.2,1.3-0.6,2.1l-7.8,13.6
			c-0.4,0.8-0.9,1.2-1.3,1.3c-0.4,0.1-0.9-0.2-1.4-0.8l-3.7-4.5C37.5,37.1,37,36.3,36.6,35.7z M47.7,23.4c-0.9-1.1-1.6-1.7-2.2-2
			c-0.6-0.2-1.2,0.1-1.7,1c-0.2,0.4-0.4,0.9-0.5,1.4c-0.1,0.7,0,1.3,0.2,1.9c0.2,0.6,0.7,1.2,1.3,2l2.2,2.7l2.7-4.7L47.7,23.4z
			 M40.7,28.3c-0.7-0.1-1.3,0.3-1.8,1.2c-1,1.8-0.7,3.7,0.9,5.7l2.6,3.2l3-5.3L43,30C42.1,29,41.4,28.5,40.7,28.3z"/>
		<path id="XMLID_14109_" class="st1" d="M22.3,23.9l0.5-2.4l-7.1-1.2l-2.2,2.2c-0.8,0.8-1.5,1.4-1.9,1.7c-0.4,0.3-0.9,0.4-1.4,0.3
			c-0.4-0.1-0.7-0.3-0.9-0.7c-0.1-0.4-0.1-0.8,0.1-1.2c0.1-0.2,0.3-0.5,0.6-0.7c0.2-0.2,0.6-0.6,1-1l11.2-11
			c0.3-0.3,0.7-0.7,1.2-1.1c0.5-0.4,0.9-0.8,1.3-1.1c0.4-0.3,0.8-0.5,1.2-0.6c0.4-0.1,0.9-0.2,1.4-0.1c0.5,0.1,0.9,0.2,1.1,0.5
			c0.2,0.2,0.3,0.5,0.4,0.9c0,0.3,0,0.7,0,1.1c-0.1,0.4-0.2,0.9-0.3,1.5l-2.1,12.4c-0.2,0.9-0.3,1.6-0.6,2c-0.2,0.4-0.6,0.8-1.2,1.1
			c-0.5,0.3-1,0.4-1.5,0.3c-0.3,0-0.5-0.1-0.6-0.3c-0.1-0.1-0.2-0.3-0.3-0.5c0-0.2,0-0.5,0-0.9C22.2,24.6,22.3,24.2,22.3,23.9z
			 M18.2,17.8l5.2,0.9l1.6-7.9L18.2,17.8z"/>
	</g>
	<path id="XMLID_14106_" class="st6" d="M17.4,44.9c0.1-0.3,0.3-0.4,0.6-0.5c0.4-0.1,0.7-0.1,1,0.1c0.3,0.2,0.7,0.4,1,0.7
		c0.8,0.6,1.6,1,2.3,1.3c0.8,0.2,1.6,0.2,2.3,0c0.7-0.2,1.2-0.5,1.5-1c0.3-0.5,0.3-1,0.1-1.8c-0.2-0.7-0.6-1.6-1.4-2.5
		c-1.1-1.4-2.2-2.5-3.4-3.1c-1.2-0.6-2.4-0.8-3.4-0.5c-0.7,0.2-1.1,0.5-1.4,0.9c-0.2,0.4-0.3,1-0.2,1.7c0.1,0.4,0.1,0.7,0,0.9
		c-0.1,0.2-0.3,0.3-0.6,0.4c-0.3,0.1-0.6,0-1-0.1c-0.4-0.2-0.7-0.4-0.9-0.7c-0.4-0.5-0.6-1.1-0.6-1.8c0-0.7,0.3-1.4,0.8-2
		c0.5-0.6,1.3-1.1,2.4-1.3c0.9-0.2,1.8-0.3,2.8-0.2c1,0.1,2,0.3,2.9,0.8c1,0.4,1.9,1,2.8,1.7c0.9,0.7,1.7,1.6,2.4,2.6
		c0.5,0.6,0.8,1.2,1.1,1.8c0.3,0.6,0.5,1.1,0.6,1.7c0.1,0.5,0.1,1.1,0.1,1.5c-0.1,0.5-0.2,1-0.5,1.4c-0.3,0.4-0.6,0.7-1.1,1
		c-0.5,0.3-1,0.5-1.7,0.7c-0.9,0.2-1.8,0.3-2.7,0.2c-0.9-0.1-1.7-0.3-2.5-0.6c-0.8-0.3-1.4-0.7-2-1.1c-0.5-0.4-1-0.8-1.3-1.2
		C17.4,45.5,17.3,45.2,17.4,44.9z"/>
</g>
</svg>
