<?xml version="1.0" encoding="utf-8"?>
<!-- Generator: Adobe Illustrator 19.0.0, SVG Export Plug-In . SVG Version: 6.00 Build 0)  -->
<svg version="1.1" id="Layer_1" xmlns="http://www.w3.org/2000/svg" xmlns:xlink="http://www.w3.org/1999/xlink" x="0px" y="0px"
	 viewBox="0 0 82.8 42.8" style="enable-background:new 0 0 82.8 42.8;" xml:space="preserve">
<style type="text/css">
	.st0{fill:#4F549F;}
	.st1{fill:#4D8BC9;}
	.st2{fill:#5698D2;}
	.st3{fill:#5D99D2;}
	.st4{fill:#F9E0E8;}
	.st5{fill:#FBF2F2;}
	.st6{fill:#E4365C;}
	.st7{fill:#E85E6F;}
</style>
<g id="XMLID_14107_">
	<path id="XMLID_14126_" class="st0" d="M17.6,10.8c3.3,0.5,1,2.3,1.6,2.3c-2.8,2.5-6.5,2.8-8.7,6c-1,1.4-1.5,2.9-2.3,4.3
		c-1.5-0.8-5-2.8-7-5.6C-1.1,14.4,0,11.7,4,10.3C7.6,9.1,11.8,10,17.6,10.8z"/>
	<path id="XMLID_14125_" class="st1" d="M72,2.7c-1.8-1.3-3.9-1.9-6.7-1.7c-2.8,0.1-4,2.6-1.5,4.8c2.4,2.2,2.8,1.5,4.9,2.8
		C70.7,9.7,73.8,4,72,2.7z"/>
	<path id="XMLID_14124_" class="st2" d="M14.4,14.6c0,0,1.4-8.4,9.2-11.6C30,0.4,35.7,1.8,42.5,3.9c6.1,1.9,10.1,3.2,19.3,6.8
		c0,0,6.3-7.2,8.5-9.2c2.4-2.2,6.1-1.9,7,1c0.8,2.9-1.4,11.6-3.8,16.6c-2.4,5-4.4,8.6-11.6,10.9c-5.1,1.6-20.9,6.1-29,6.4
		c-8.1,0.3-16.8-0.6-22.7-3.1c-5.9-2.5-5-9.2-2.4-12.3C10.3,17.7,14.4,14.6,14.4,14.6z"/>
	<path id="XMLID_14123_" class="st0" d="M18.3,24.6c0,0,7.8-2.5,9.9-5.3c2.1-2.8,5.5-8.5,2.5-13.8c1.9-0.4,11.5,2,16.6,3.3
		c4,1,16.8,4.6,16.8,4.6s4.8-7.9,6.7-10.2c2-2.4,5.5-2.9,6.3,0c0.8,2.9,0.4,13.5-2,18.5c-2.4,5-6.1,5.9-13.3,8.2
		c-5.1,1.6-20.9,6.1-29,6.4c-8.1,0.3-16.8-0.6-22.7-3.1C4.2,30.7,6,24.5,8.6,21.4C11.2,18.3,18.3,24.6,18.3,24.6z"/>
	<path id="XMLID_14122_" class="st2" d="M76.5,4.2c2.2,0.6,3.8,2.2,5.2,3.9c2,2.4,1.2,4.9-2,4.5c-3.2-0.4-4-0.8-6.3-1.6
		c-2.9-1-2.1-3.2-1.6-4.7C72.2,4.8,74.3,3.7,76.5,4.2z"/>
	<path id="XMLID_14121_" class="st2" d="M39.5,20.4c6-0.8,14.5,2.1,18.6,5.6c4.2,3.5,8.3,5.8,12.2,11.1c2.5,3.4-1.2,6.1-6.5,5.8
		c-3.4-0.2-12.7-1.7-20.7-3.4c-8-1.7-10.2-4.7-10.6-6.1C31.4,29.1,33.5,21.2,39.5,20.4z"/>
	<path id="XMLID_14120_" class="st3" d="M39.1,25.2c1.8,2.1,2.3,3.6,10.9,7.6c7.9,3.7,13,4.9,17.5,6.1c2.2,0.6,2.9,2.3-0.5,3
		c-3.9,0.8-14.3-1.3-22.3-3c-8-1.7-10.4-4.5-10.8-5.9C32.8,28.7,37.1,22.8,39.1,25.2z"/>
	<circle id="XMLID_14119_" class="st4" cx="38" cy="14.3" r="3.4"/>
	<circle id="XMLID_14118_" class="st4" cx="48.6" cy="15.9" r="3"/>
	<circle id="XMLID_14117_" class="st4" cx="58.2" cy="16.6" r="2.7"/>
	<path id="XMLID_14115_" class="st5" d="M20,7.1c2.2-2.2,5.4-2.8,8.1-0.5c3.8,3.2,1,10.3-0.2,11.7c-1.3,1.5-3.3,1-4.4-0.2
		c-2.3-2.7-6-3.3-7.6-3.6C14.5,14.3,17.9,9.2,20,7.1z"/>
	<g id="XMLID_14113_">
		<path id="XMLID_14114_" class="st6" d="M21,28.1c0.3-6-5-12.5-10.4-10.3c-0.5,0.2-7.1,6.6-7.9,7.8c-1.6,2.4,2,5.9,5.8,7.6
			c2.1,1,5.2,1.7,7.8,1.8C17.7,35.2,20.9,31.9,21,28.1z"/>
	</g>
	<g id="XMLID_14110_">
		<path id="XMLID_14111_" class="st7" d="M2.7,25.7c0.8-1.3,7.4-7.6,7.9-7.8c3.9-1.6,7.8,1.4,9.5,5.5c-5.5,3-14.6,5.2-17,3.9
			C2.7,27,2.3,26.2,2.7,25.7z"/>
	</g>
</g>
</svg>
