<?xml version="1.0" encoding="utf-8"?>
<!-- Generator: Adobe Illustrator 19.0.0, SVG Export Plug-In . SVG Version: 6.00 Build 0)  -->
<svg version="1.1" id="Layer_1" xmlns="http://www.w3.org/2000/svg" xmlns:xlink="http://www.w3.org/1999/xlink" x="0px" y="0px"
	 width="176.8px" height="234px" viewBox="0 0 176.8 234" style="enable-background:new 0 0 176.8 234;" xml:space="preserve">
<style type="text/css">
	.st0{fill:#EC8558;}
	.st1{opacity:0.2;}
	.st2{fill:#F9F1DD;}
	.st3{fill:#212126;}
</style>
<g id="XMLID_5094_">
	<path id="XMLID_5134_" class="st0" d="M171.9,32.2L40.6,5.8L0,207.4l131.4,26.4c2.8,0.6,5.5-1.2,6.1-4L176,38.3
		C176.5,35.5,174.7,32.7,171.9,32.2z"/>
	<path id="XMLID_5133_" class="st1" d="M171.9,32.2L40.6,5.8L0,207.4l131.4,26.4c2.8,0.6,5.5-1.2,6.1-4L176,38.3
		C176.5,35.5,174.7,32.7,171.9,32.2z"/>
	<path id="XMLID_5132_" class="st2" d="M170.8,37.9L47.1,13.1L8.4,205.1L132.1,230c2.8,0.6,5.5-1.2,6.1-4l38.5-191.6
		C177.3,31.6,173.6,38.5,170.8,37.9z"/>
	<path id="XMLID_5131_" class="st1" d="M172.3,30.3L48.6,5.4L10,197.5l123.7,24.9c2.8,0.6,5.5-1.2,6.1-4l36.6-182
		C176.9,33.5,175.1,30.8,172.3,30.3z"/>
	<path id="XMLID_5130_" class="st0" d="M173.1,26.4L41.7,0L3.1,192.1l131.4,26.4c2.8,0.6,5.5-1.2,6.1-4l36.6-182
		C177.7,29.7,175.9,27,173.1,26.4z"/>
	
		<rect id="XMLID_5129_" x="21" y="77.4" transform="matrix(0.9804 0.1973 -0.1973 0.9804 23.4285 -15.7201)" class="st2" width="139.2" height="64.6"/>
	
		<rect id="XMLID_5128_" x="34.6" y="0.7" transform="matrix(0.9804 0.1973 -0.1973 0.9804 20.1568 -5.0479)" class="st1" width="1.7" height="195.9"/>
	<g id="XMLID_15_">
		<path id="XMLID_16_" class="st3" d="M71.8,95.2c1.2,0.3,2.3,0.6,3.1,1c0.8,0.4,1.5,0.9,2,1.5c0.5,0.6,0.8,1.2,0.9,1.9
			s0.1,1.4,0,2.2c-0.1,0.5-0.3,0.9-0.5,1.3c-0.2,0.4-0.5,0.7-0.9,1.1c-0.4,0.3-0.8,0.6-1.3,0.8s-1.1,0.3-1.7,0.4
			c2.6,1.1,3.7,2.9,3.2,5.2c-0.2,0.8-0.5,1.5-0.9,2.2c-0.4,0.6-1,1.1-1.7,1.5c-0.7,0.4-1.5,0.6-2.4,0.7c-0.9,0.1-1.9,0-3-0.2
			l-7.1-1.4l3.9-19.3L71.8,95.2z M69,112.2c0.7,0.1,1.3,0.2,1.8,0.1c0.5-0.1,1-0.2,1.3-0.4c0.4-0.2,0.7-0.5,0.9-0.9
			c0.2-0.4,0.4-0.8,0.5-1.2c0.2-0.9,0-1.7-0.5-2.3c-0.5-0.6-1.4-1.1-2.8-1.4l-3.9-0.8l-1.2,6.1L69,112.2z M68,97l-1.2,6l3.1,0.6
			c1.3,0.3,2.4,0.2,3.2-0.2c0.8-0.4,1.2-1.1,1.4-2c0.2-1.1,0.1-1.9-0.5-2.5c-0.5-0.6-1.4-1-2.8-1.3L68,97z"/>
		<path id="XMLID_21_" class="st3" d="M86.9,104c1,0.2,1.9,0.6,2.6,1.1c0.8,0.5,1.4,1.1,1.8,1.8c0.5,0.7,0.7,1.6,0.9,2.5
			c0.1,0.9,0.1,1.9-0.1,3s-0.6,2-1.1,2.8c-0.5,0.8-1.1,1.5-1.8,1.9c-0.7,0.5-1.5,0.8-2.4,1c-0.9,0.2-1.8,0.1-2.8-0.1
			c-1-0.2-1.9-0.6-2.7-1.1c-0.7-0.5-1.4-1.1-1.8-1.8c-0.5-0.7-0.8-1.6-0.9-2.5c-0.1-0.9-0.1-1.9,0.1-3s0.6-2,1.1-2.8
			c0.5-0.8,1.1-1.4,1.8-1.9c0.7-0.5,1.5-0.8,2.4-1C85,103.7,85.9,103.8,86.9,104z M84.5,115.8c1.2,0.3,2.2,0,3-0.7
			c0.8-0.7,1.3-1.8,1.6-3.4c0.3-1.5,0.3-2.8-0.2-3.7s-1.3-1.6-2.5-1.8c-1.2-0.3-2.3,0-3,0.7c-0.8,0.7-1.3,1.8-1.6,3.4
			c-0.3,1.5-0.2,2.8,0.2,3.7C82.4,114.9,83.3,115.5,84.5,115.8z"/>
		<path id="XMLID_24_" class="st3" d="M102.2,107.1c1,0.2,1.9,0.6,2.6,1.1c0.7,0.5,1.4,1.1,1.8,1.8c0.5,0.7,0.7,1.6,0.9,2.5
			c0.1,0.9,0.1,1.9-0.1,3s-0.6,2-1.1,2.8c-0.5,0.8-1.1,1.5-1.8,1.9c-0.7,0.5-1.5,0.8-2.4,1c-0.9,0.2-1.8,0.1-2.8-0.1
			c-1-0.2-1.9-0.6-2.7-1.1c-0.7-0.5-1.4-1.1-1.8-1.8c-0.5-0.7-0.8-1.6-0.9-2.5c-0.1-0.9-0.1-1.9,0.1-3s0.6-2,1.1-2.8
			c0.5-0.8,1.1-1.4,1.8-1.9c0.7-0.5,1.5-0.8,2.4-1C100.3,106.8,101.2,106.9,102.2,107.1z M99.8,118.9c1.2,0.2,2.2,0,3-0.7
			c0.8-0.7,1.3-1.8,1.6-3.4c0.3-1.5,0.3-2.8-0.2-3.7c-0.4-1-1.3-1.6-2.5-1.8c-1.2-0.3-2.3,0-3,0.7s-1.3,1.8-1.6,3.4
			c-0.3,1.5-0.2,2.8,0.2,3.7C97.7,118,98.6,118.6,99.8,118.9z"/>
		<path id="XMLID_78_" class="st3" d="M115.7,103.6l-2.3,11.5l0.6,0.1c0.2,0,0.4,0,0.5,0c0.1,0,0.3-0.1,0.5-0.3l4.7-3.6
			c0.2-0.2,0.3-0.3,0.5-0.3c0.2-0.1,0.4-0.1,0.6,0l2.6,0.5l-5.7,4.3c-0.3,0.3-0.7,0.5-1.1,0.7c0.2,0.2,0.3,0.3,0.4,0.5
			c0.1,0.2,0.2,0.4,0.3,0.6l3.6,7.7l-2.6-0.5c-0.2,0-0.4-0.1-0.6-0.2c-0.1-0.1-0.3-0.3-0.3-0.5l-2.9-6.2c-0.1-0.2-0.2-0.4-0.3-0.5
			c-0.1-0.1-0.3-0.2-0.6-0.2l-0.7-0.1l-1.3,6.4l-2.9-0.6l4-19.8L115.7,103.6z"/>
		<path id="XMLID_80_" class="st3" d="M133.2,116.2c-0.1,0.1-0.2,0.2-0.3,0.2c-0.1,0-0.2,0-0.4,0c-0.2,0-0.3-0.1-0.5-0.2
			c-0.2-0.1-0.3-0.3-0.6-0.4c-0.2-0.2-0.5-0.3-0.8-0.5c-0.3-0.2-0.7-0.3-1.1-0.4c-0.4-0.1-0.7-0.1-1-0.1c-0.3,0-0.6,0.1-0.8,0.2
			c-0.2,0.1-0.4,0.3-0.6,0.5c-0.1,0.2-0.2,0.4-0.3,0.6c-0.1,0.3,0,0.6,0.1,0.9c0.2,0.3,0.4,0.5,0.7,0.7c0.3,0.2,0.6,0.4,1,0.6
			c0.4,0.2,0.8,0.4,1.2,0.7c0.4,0.2,0.8,0.5,1.2,0.8s0.7,0.6,1,0.9c0.3,0.3,0.5,0.7,0.6,1.1c0.1,0.4,0.1,0.9,0,1.5
			c-0.1,0.6-0.4,1.2-0.7,1.7c-0.3,0.5-0.8,0.9-1.3,1.2c-0.5,0.3-1.1,0.5-1.9,0.6c-0.7,0.1-1.5,0-2.4-0.1c-0.5-0.1-0.9-0.2-1.3-0.4
			c-0.4-0.2-0.8-0.4-1.2-0.6c-0.4-0.2-0.7-0.5-1-0.8c-0.3-0.3-0.6-0.6-0.8-0.9l0.9-1c0.1-0.1,0.2-0.2,0.4-0.3c0.1-0.1,0.3-0.1,0.5,0
			c0.2,0,0.4,0.1,0.5,0.3c0.2,0.2,0.3,0.3,0.6,0.5c0.2,0.2,0.5,0.4,0.8,0.6c0.3,0.2,0.7,0.3,1.3,0.4c0.4,0.1,0.8,0.1,1.1,0.1
			c0.3,0,0.6-0.1,0.9-0.3c0.2-0.1,0.4-0.3,0.6-0.5c0.1-0.2,0.2-0.4,0.3-0.7c0.1-0.3,0-0.7-0.1-0.9c-0.2-0.3-0.4-0.5-0.7-0.7
			s-0.6-0.4-1-0.7c-0.4-0.2-0.8-0.4-1.2-0.7c-0.4-0.2-0.8-0.5-1.2-0.8c-0.4-0.3-0.7-0.6-1-0.9c-0.3-0.4-0.5-0.8-0.6-1.2
			s-0.1-1,0-1.6c0.1-0.5,0.3-1,0.6-1.5c0.3-0.4,0.7-0.8,1.2-1.1c0.5-0.3,1.1-0.5,1.7-0.6c0.7-0.1,1.4-0.1,2.2,0.1
			c0.9,0.2,1.7,0.5,2.4,1c0.7,0.4,1.2,1,1.6,1.6L133.2,116.2z"/>
	</g>
	
		<rect id="XMLID_5098_" x="59.9" y="167.4" transform="matrix(0.9804 0.1973 -0.1973 0.9804 35.1665 -13.6264)" class="st2" width="52.1" height="4.7"/>
	
		<rect id="XMLID_5096_" x="64.2" y="178.1" transform="matrix(0.9804 0.1973 -0.1973 0.9804 37.2427 -12.9891)" class="st2" width="39.2" height="4.7"/>
	
		<rect id="XMLID_5095_" x="90.4" y="47.8" transform="matrix(0.9804 0.1973 -0.1973 0.9804 12.0584 -20.7199)" class="st2" width="39.2" height="4.7"/>
</g>
</svg>
