<?xml version="1.0" encoding="utf-8"?>
<!-- Generator: Adobe Illustrator 19.0.0, SVG Export Plug-In . SVG Version: 6.00 Build 0)  -->
<svg version="1.1" id="Layer_1" xmlns="http://www.w3.org/2000/svg" xmlns:xlink="http://www.w3.org/1999/xlink" x="0px" y="0px"
	 width="280.5px" height="344px" viewBox="0 0 280.5 344" style="enable-background:new 0 0 280.5 344;" xml:space="preserve">
<style type="text/css">
	.st0{fill:#3A8FB6;}
	.st1{fill:#FFFFFF;}
	.st2{fill:#B5BDCD;}
	.st3{fill:#25B6D1;}
	.st4{fill:#FDC00F;}
	.st5{fill:#FFFFFF;stroke:#FFFFFF;stroke-width:0.9443;stroke-linecap:round;stroke-linejoin:round;stroke-miterlimit:10;}
</style>
<g id="XMLID_5135_">
	<path id="XMLID_5148_" class="st0" d="M192.7,8.3L2.5,65l83.2,279l190.2-56.7c3.5-1,5.4-4.7,4.4-8.1L200.8,12.7
		C199.8,9.3,196.2,7.3,192.7,8.3z"/>
	<path id="XMLID_5147_" class="st1" d="M194.8,15.5L14.2,69.3l79.6,267.1l180.7-53.9c3.5-1,5.4-4.7,4.4-8.1L199.4,8
		C198.4,4.5,198.3,14.4,194.8,15.5z"/>
	<path id="XMLID_5146_" class="st2" d="M192,6L11.3,59.8l71,238.3L263,244.3c3.5-1,5.4-4.7,4.4-8.1L200.1,10.4
		C199.1,6.9,195.4,4.9,192,6z"/>
	<path id="XMLID_5145_" class="st3" d="M190.6,1.2L0.4,57.9l71,238.3l190.2-56.7c3.5-1,5.4-4.7,4.4-8.1L198.7,5.6
		C197.7,2.1,194,0.2,190.6,1.2z"/>
	<polygon id="XMLID_5144_" class="st1" points="168.1,206.8 174,215 183.7,212.3 177.7,220.4 183.3,228.8 173.7,225.7 167.4,233.5 
		167.5,223.5 158.1,219.9 167.6,216.9 	"/>
	<polygon id="XMLID_5143_" class="st4" points="157,331.3 142.2,329.8 130.6,339.1 115.4,288.3 141.8,280.4 	"/>
	
		<rect id="XMLID_5142_" x="35.2" y="47.9" transform="matrix(0.9583 -0.2857 0.2857 0.9583 -47.0338 22.0466)" class="st0" width="33.7" height="248.7"/>
	<g id="XMLID_5136_">
		<g id="XMLID_154_">
			<path id="XMLID_155_" class="st1" d="M116.9,181.3c0.4,1.3,0.5,2.6,0.4,3.9c-0.1,1.2-0.4,2.4-1,3.4c-0.6,1-1.3,1.9-2.3,2.7
				c-1,0.8-2.2,1.4-3.5,1.8l-6.9,2l-5.4-18.2l6.9-2c1.4-0.4,2.7-0.5,3.9-0.4c1.2,0.1,2.4,0.5,3.4,1c1,0.6,1.9,1.3,2.7,2.3
				C115.9,178.8,116.5,179.9,116.9,181.3z M113.9,182.2c-0.3-1-0.7-1.9-1.3-2.7s-1.1-1.3-1.8-1.7c-0.7-0.4-1.5-0.7-2.3-0.8
				c-0.8-0.1-1.7,0-2.7,0.3l-3.9,1.2l4,13.4l3.9-1.2c0.9-0.3,1.7-0.7,2.4-1.2c0.7-0.5,1.2-1.2,1.5-1.9c0.4-0.7,0.6-1.6,0.6-2.5
				C114.3,184.2,114.2,183.2,113.9,182.2z"/>
			<path id="XMLID_158_" class="st1" d="M120.4,171.9c0.1,0.2,0.1,0.5,0.1,0.7c0,0.2-0.1,0.5-0.2,0.7c-0.1,0.2-0.3,0.4-0.5,0.6
				c-0.2,0.2-0.4,0.3-0.7,0.4c-0.2,0.1-0.5,0.1-0.7,0.1s-0.5-0.1-0.7-0.2c-0.2-0.1-0.4-0.3-0.6-0.5c-0.2-0.2-0.3-0.4-0.3-0.7
				c-0.1-0.3-0.1-0.5-0.1-0.8c0-0.2,0.1-0.5,0.2-0.7c0.1-0.2,0.3-0.4,0.4-0.6c0.2-0.2,0.4-0.3,0.6-0.3c0.3-0.1,0.5-0.1,0.8-0.1
				c0.3,0,0.5,0.1,0.7,0.2c0.2,0.1,0.4,0.3,0.6,0.5C120.2,171.4,120.4,171.7,120.4,171.9z M121.1,175.9l3.8,12.9l-2.7,0.8l-3.8-12.9
				L121.1,175.9z"/>
			<path id="XMLID_161_" class="st1" d="M134.4,174.7c-0.1,0.1-0.1,0.2-0.2,0.3s-0.2,0.1-0.3,0.2c-0.1,0-0.3,0-0.5,0
				c-0.2-0.1-0.4-0.1-0.7-0.2c-0.3-0.1-0.5-0.1-0.9-0.1c-0.3,0-0.7,0-1.2,0.2c-0.6,0.2-1.1,0.4-1.5,0.8c-0.4,0.3-0.7,0.8-0.8,1.2
				c-0.2,0.5-0.3,1-0.2,1.6c0,0.6,0.1,1.3,0.3,2c0.2,0.7,0.5,1.3,0.8,1.9c0.3,0.5,0.7,0.9,1.1,1.2c0.4,0.3,0.9,0.5,1.3,0.6
				c0.5,0.1,1,0,1.5-0.1c0.5-0.2,0.9-0.3,1.2-0.6c0.3-0.2,0.5-0.4,0.7-0.7c0.2-0.2,0.3-0.4,0.4-0.6c0.1-0.2,0.3-0.3,0.4-0.3
				c0.2-0.1,0.4,0,0.6,0.1l1.1,0.8c-0.2,0.5-0.4,0.9-0.8,1.3c-0.3,0.4-0.6,0.7-1,1s-0.8,0.5-1.2,0.7c-0.4,0.2-0.9,0.4-1.3,0.5
				c-0.8,0.2-1.6,0.3-2.4,0.2c-0.8-0.1-1.5-0.3-2.2-0.8c-0.7-0.4-1.3-1-1.8-1.7c-0.5-0.7-1-1.6-1.3-2.7c-0.3-1-0.4-1.9-0.4-2.8
				c0-0.9,0.2-1.7,0.6-2.4c0.3-0.7,0.8-1.4,1.5-2c0.7-0.6,1.5-1,2.5-1.3c0.9-0.3,1.8-0.4,2.6-0.3c0.8,0.1,1.6,0.3,2.3,0.7
				L134.4,174.7z"/>
			<path id="XMLID_163_" class="st1" d="M152.9,180.5l-2.7,0.8l-3.2-10.7l-6.3,1.9l2.2,7.3c0.1,0.5,0.4,0.8,0.7,1
				c0.3,0.2,0.6,0.2,1,0.1c0.2-0.1,0.4-0.1,0.5-0.2c0.1-0.1,0.2-0.2,0.3-0.3s0.2-0.2,0.2-0.3c0.1-0.1,0.1-0.1,0.2-0.2
				c0.2,0,0.3,0,0.4,0.1l1.2,1.1c-0.3,0.5-0.7,0.9-1.2,1.3s-1.1,0.6-1.7,0.8c-1.1,0.3-2,0.3-2.7-0.2c-0.8-0.4-1.3-1.2-1.6-2.3
				l-2.2-7.5l-1.4,0.4c-0.2,0-0.3,0-0.4,0c-0.1-0.1-0.2-0.2-0.3-0.4l-0.3-1.1l2-0.9l-0.5-3.9c0-0.2,0-0.3,0.1-0.4
				c0.1-0.1,0.2-0.2,0.4-0.3l1.4-0.4l1.2,4.2l9-2.7L152.9,180.5z M148.5,163.5c0.1,0.2,0.1,0.5,0.1,0.7c0,0.2-0.1,0.5-0.2,0.7
				c-0.1,0.2-0.3,0.4-0.5,0.6c-0.2,0.2-0.4,0.3-0.7,0.4c-0.2,0.1-0.5,0.1-0.7,0.1c-0.2,0-0.5-0.1-0.7-0.2c-0.2-0.1-0.4-0.3-0.6-0.5
				c-0.2-0.2-0.3-0.4-0.3-0.6c-0.1-0.3-0.1-0.5-0.1-0.8c0-0.3,0.1-0.5,0.2-0.7c0.1-0.2,0.3-0.4,0.5-0.6c0.2-0.2,0.4-0.3,0.6-0.3
				s0.5-0.1,0.7-0.1c0.3,0,0.5,0.1,0.7,0.2c0.2,0.1,0.4,0.3,0.6,0.5C148.3,163.1,148.5,163.3,148.5,163.5z"/>
			<path id="XMLID_166_" class="st1" d="M158.1,164.8c1-0.3,1.9-0.4,2.7-0.3c0.9,0.1,1.6,0.3,2.4,0.7c0.7,0.4,1.3,1,1.9,1.7
				c0.5,0.7,1,1.6,1.3,2.6s0.4,2,0.4,2.9c-0.1,0.9-0.3,1.7-0.6,2.5c-0.4,0.7-0.9,1.4-1.6,1.9c-0.7,0.5-1.5,0.9-2.4,1.2
				c-1,0.3-1.9,0.4-2.7,0.3c-0.9-0.1-1.7-0.3-2.4-0.7c-0.7-0.4-1.3-1-1.9-1.7c-0.5-0.7-1-1.6-1.3-2.6s-0.4-2-0.4-2.9
				c0.1-0.9,0.3-1.7,0.6-2.5c0.4-0.7,0.9-1.4,1.6-1.9C156.3,165.5,157.1,165.1,158.1,164.8z M161.3,175.9c1.2-0.3,1.9-1,2.2-1.9
				c0.3-0.9,0.3-2.1-0.1-3.6c-0.4-1.4-1-2.5-1.8-3.1c-0.8-0.6-1.8-0.8-2.9-0.4c-1.2,0.3-1.9,1-2.3,2c-0.3,1-0.3,2.2,0.1,3.6
				c0.4,1.4,1,2.5,1.8,3.1C159.2,176.1,160.2,176.3,161.3,175.9z"/>
			<path id="XMLID_169_" class="st1" d="M170,163.3c0.2-0.4,0.4-0.7,0.6-1c0.2-0.3,0.5-0.6,0.8-0.9c0.3-0.3,0.6-0.5,1-0.7
				c0.4-0.2,0.7-0.4,1.2-0.5c0.7-0.2,1.4-0.3,2-0.2c0.6,0.1,1.2,0.3,1.6,0.6c0.5,0.3,0.9,0.8,1.3,1.3c0.4,0.5,0.7,1.2,0.9,1.9
				l2.4,8.2l-2.7,0.8l-2.4-8.2c-0.3-0.9-0.7-1.5-1.2-1.8c-0.5-0.4-1.2-0.4-2-0.2c-0.6,0.2-1.1,0.5-1.6,0.9c-0.4,0.4-0.8,1-1.1,1.6
				l2.8,9.4l-2.7,0.8l-3.8-12.9l1.6-0.5c0.4-0.1,0.7,0,0.9,0.3L170,163.3z"/>
			<path id="XMLID_171_" class="st1" d="M181.3,160.1c1.1-1.8,2.6-3,4.6-3.6c0.7-0.2,1.4-0.3,2.1-0.2c0.6,0.1,1.2,0.3,1.8,0.6
				c0.5,0.3,1,0.8,1.4,1.3c0.4,0.5,0.7,1.2,0.9,1.9l2.4,8.2l-1.2,0.4c-0.3,0.1-0.5,0.1-0.6,0.1c-0.2,0-0.3-0.2-0.5-0.4l-0.6-1
				c-0.2,0.4-0.5,0.8-0.7,1.1c-0.3,0.3-0.5,0.6-0.8,0.9c-0.3,0.3-0.6,0.5-1,0.7c-0.4,0.2-0.8,0.4-1.3,0.5c-0.5,0.2-1,0.2-1.5,0.2
				c-0.5,0-0.9-0.1-1.4-0.3c-0.4-0.2-0.8-0.5-1.1-0.8c-0.3-0.4-0.6-0.8-0.7-1.4c-0.1-0.5-0.2-1,0-1.6c0.1-0.6,0.4-1.1,0.9-1.7
				c0.5-0.6,1.2-1.1,2.1-1.6c0.9-0.5,2.1-1,3.6-1.5l-0.3-0.9c-0.3-0.9-0.7-1.6-1.2-1.9c-0.5-0.3-1.2-0.4-1.9-0.2
				c-0.5,0.2-0.9,0.3-1.3,0.6c-0.3,0.2-0.6,0.5-0.8,0.7c-0.2,0.2-0.4,0.4-0.6,0.6c-0.2,0.2-0.4,0.3-0.6,0.4c-0.2,0.1-0.4,0.1-0.5,0
				c-0.2-0.1-0.3-0.1-0.4-0.3L181.3,160.1z M190.1,163.4c-1,0.3-1.8,0.6-2.4,1c-0.6,0.3-1.1,0.6-1.5,0.9c-0.4,0.3-0.6,0.6-0.7,0.9
				c-0.1,0.3-0.1,0.6,0,0.9c0.1,0.3,0.2,0.5,0.4,0.7c0.2,0.2,0.3,0.3,0.6,0.4c0.2,0.1,0.4,0.1,0.7,0.1c0.2,0,0.5,0,0.8-0.1
				c0.7-0.2,1.3-0.5,1.7-0.9c0.4-0.4,0.8-0.9,1.1-1.6L190.1,163.4z"/>
			<path id="XMLID_174_" class="st1" d="M197,156.1c0.2-0.9,0.5-1.7,0.9-2.4c0.4-0.6,1-1.1,1.8-1.3c0.3-0.1,0.5-0.1,0.8-0.1
				c0.3,0,0.5,0,0.7,0.1l0.4,2.1c0,0.2,0,0.3-0.1,0.3c-0.1,0.1-0.1,0.1-0.3,0.2c-0.1,0-0.3,0.1-0.6,0.1c-0.2,0-0.5,0.1-0.8,0.2
				c-0.4,0.1-0.7,0.3-1,0.5c-0.3,0.2-0.5,0.4-0.6,0.7c-0.2,0.3-0.3,0.6-0.4,1s-0.1,0.7-0.2,1.2l2.4,8l-2.7,0.8l-3.8-12.9l1.6-0.5
				c0.3-0.1,0.5-0.1,0.6,0c0.1,0.1,0.3,0.2,0.4,0.5L197,156.1z"/>
			<path id="XMLID_176_" class="st1" d="M214.5,148.3l-2.2,18.6c0,0.2-0.1,0.4-0.2,0.6c-0.1,0.1-0.3,0.3-0.6,0.3l-2,0.6l0.8-5.8
				l-8.8-10.4l2.4-0.7c0.2-0.1,0.4-0.1,0.6,0c0.2,0.1,0.3,0.2,0.4,0.3l5.2,6.4c0.1,0.2,0.3,0.4,0.4,0.6c0.1,0.2,0.2,0.4,0.4,0.6
				c0-0.2,0-0.5,0-0.7c0-0.2,0-0.5,0-0.7l0.8-8.2c0-0.2,0.1-0.3,0.2-0.5c0.1-0.1,0.2-0.2,0.4-0.3L214.5,148.3z"/>
		</g>
		<g id="XMLID_146_">
			<path id="XMLID_147_" class="st1" d="M130.9,127.8l-0.6,0.2c-0.2,0.1-0.4,0-0.5-0.2l-11.9-14.6l-26.3,7.8l-2,18.7
				c0,0.3-0.1,0.4-0.4,0.5l-0.6,0.2l6.1-56l0.7-0.2L130.9,127.8z M117.3,112.5l-21-25.9c-0.2-0.2-0.4-0.4-0.5-0.7
				c-0.2-0.2-0.3-0.4-0.5-0.7c0,0.3,0,0.6,0,0.8c0,0.3,0,0.5-0.1,0.8l-3.6,33.1L117.3,112.5z"/>
			<path id="XMLID_150_" class="st1" d="M131.4,104.5l15.7-4.6l0.2,0.7l-15.7,4.6L131.4,104.5z"/>
			<path id="XMLID_152_" class="st1" d="M182.2,58.6c0.1,0.2,0,0.5-0.1,0.8l-20.4,58.5l34.9-10.3l0.2,0.8L160.7,119l0-0.1
				c0-0.1-0.1-0.3,0-0.4c0-0.1,0-0.2,0.1-0.4l20.5-58.6l-34.4,10.2l-0.2-0.8l35.6-10.5L182.2,58.6z"/>
		</g>
		<line id="XMLID_5137_" class="st5" x1="86.7" y1="165.1" x2="212.6" y2="127.8"/>
	</g>
</g>
</svg>
