<?xml version="1.0" encoding="utf-8"?>
<!-- Generator: Adobe Illustrator 19.0.0, SVG Export Plug-In . SVG Version: 6.00 Build 0)  -->
<svg version="1.1" id="Layer_1" xmlns="http://www.w3.org/2000/svg" xmlns:xlink="http://www.w3.org/1999/xlink" x="0px" y="0px"
	 width="171px" height="205.9px" viewBox="0 0 171 205.9" style="enable-background:new 0 0 171 205.9;" xml:space="preserve">
<style type="text/css">
	.st0{fill:#353D4C;}
	.st1{fill:#474E5D;}
	.st2{fill:#ECEDF0;}
	.st3{fill:#B5BDCD;}
	.st4{opacity:0.3;fill:#FFFFFF;}
	.st5{fill:#212126;}
	.st6{fill:none;stroke:#212126;stroke-miterlimit:10;}
</style>
<g id="XMLID_4404_">
	<path id="XMLID_4427_" class="st0" d="M170.8,170.8c1,4.8-2.1,9.5-6.9,10.5L44.1,205.8c-4.8,1-9.5-2.1-10.5-6.9L1.1,39.5
		C0.1,34.7,3.2,30,8,29.1L127.8,4.6c4.8-1,9.5,2.1,10.5,6.9L170.8,170.8z"/>
	<path id="XMLID_4426_" class="st1" d="M170,166.9c1,4.8-2.1,9.5-6.9,10.5L43.3,201.8c-4.8,1-9.5-2.1-10.5-6.9L0.2,35.6
		c-1-4.8,2.1-9.5,6.9-10.5L127,0.6c4.8-1,9.5,2.1,10.5,6.9L170,166.9z"/>
	
		<rect id="XMLID_4425_" x="28.8" y="26.1" transform="matrix(0.9798 -0.2002 0.2002 0.9798 -18.2442 19.0002)" class="st2" width="112.1" height="147.1"/>
	<g id="XMLID_4422_">
		<path id="XMLID_4424_" class="st3" d="M76.1,18.4c0.2,1.2-0.5,2.3-1.7,2.5l-17.8,3.6c-1.2,0.2-2.3-0.5-2.6-1.7l0,0
			c-0.2-1.2,0.5-2.3,1.7-2.6l17.8-3.6C74.7,16.5,75.9,17.2,76.1,18.4L76.1,18.4z"/>
		<path id="XMLID_4423_" class="st3" d="M83,17c0.2,1.2-0.5,2.3-1.7,2.5c-1.2,0.2-2.3-0.5-2.5-1.7c-0.2-1.2,0.5-2.3,1.7-2.6
			C81.6,15.1,82.8,15.8,83,17z"/>
	</g>
	
		<rect id="XMLID_4421_" x="95.4" y="174.6" transform="matrix(0.9798 -0.2002 0.2002 0.9798 -34.1001 23.9461)" class="st0" width="11.9" height="11.9"/>
	
		<rect id="XMLID_4420_" x="97.8" y="177" transform="matrix(0.2002 0.9798 -0.9798 0.2002 257.9471 45.1222)" class="st3" width="7.1" height="7.1"/>
	<polygon id="XMLID_4419_" class="st4" points="44.6,183 15.2,38.9 125,16.4 	"/>
	<g id="XMLID_6_">
		<path id="XMLID_7_" class="st5" d="M48.9,58.3l0.4,1.9l-9,1.8l-2.9-14.5l9-1.8l0.4,1.9L40.1,49l0.9,4.4l5.3-1.1l0.4,1.8l-5.3,1.1
			l0.9,4.5L48.9,58.3z"/>
		<path id="XMLID_9_" class="st5" d="M49.9,52.9l5.1-1l0.4,1.8l-5.1,1L49.9,52.9z"/>
		<path id="XMLID_11_" class="st5" d="M61.2,42.8c0.9-0.2,1.7-0.3,2.4-0.2c0.7,0,1.3,0.2,1.8,0.4c0.5,0.2,0.9,0.6,1.2,1
			c0.3,0.4,0.5,0.9,0.6,1.5c0.1,0.3,0.1,0.7,0,1c0,0.3-0.1,0.7-0.3,1c-0.2,0.3-0.4,0.6-0.7,0.9c-0.3,0.3-0.6,0.6-1.1,0.8
			c2.1,0,3.4,0.9,3.7,2.6c0.1,0.6,0.1,1.2,0,1.8c-0.1,0.6-0.4,1.1-0.7,1.5c-0.4,0.5-0.8,0.9-1.4,1.2c-0.6,0.3-1.3,0.6-2.1,0.8
			l-5.3,1.1l-2.9-14.5L61.2,42.8z M59.1,45.1l0.9,4.5l2.4-0.5c1-0.2,1.7-0.5,2.1-1c0.4-0.5,0.6-1.1,0.4-1.8c-0.2-0.8-0.5-1.3-1-1.6
			c-0.5-0.3-1.3-0.3-2.3-0.1L59.1,45.1z M64.2,55.3c0.5-0.1,1-0.3,1.3-0.5c0.3-0.2,0.6-0.4,0.8-0.7c0.2-0.3,0.3-0.5,0.4-0.9
			c0-0.3,0-0.6,0-1c-0.1-0.7-0.5-1.2-1-1.5c-0.5-0.3-1.3-0.3-2.3-0.1l-2.9,0.6l0.9,4.6L64.2,55.3z"/>
		<path id="XMLID_15_" class="st5" d="M74.2,44.4c0.8-0.2,1.5-0.2,2.1,0c0.7,0.1,1.3,0.4,1.8,0.7c0.5,0.4,1,0.9,1.3,1.5
			c0.4,0.6,0.6,1.3,0.8,2.1c0.2,0.8,0.2,1.6,0.1,2.3c-0.1,0.7-0.3,1.3-0.7,1.9c-0.3,0.5-0.8,1-1.4,1.4c-0.6,0.4-1.2,0.6-2,0.8
			c-0.8,0.2-1.5,0.2-2.1,0c-0.7-0.1-1.3-0.4-1.8-0.7c-0.5-0.4-1-0.9-1.3-1.5c-0.4-0.6-0.6-1.3-0.8-2.1c-0.2-0.8-0.2-1.6-0.1-2.3
			c0.1-0.7,0.3-1.3,0.7-1.9c0.3-0.5,0.8-1,1.4-1.4C72.8,44.8,73.5,44.5,74.2,44.4z M76,53.3c0.9-0.2,1.6-0.6,1.9-1.3
			c0.3-0.7,0.4-1.6,0.1-2.8c-0.2-1.2-0.6-2-1.2-2.5c-0.6-0.5-1.3-0.7-2.3-0.5c-0.9,0.2-1.6,0.6-1.9,1.4c-0.3,0.7-0.4,1.7-0.1,2.8
			c0.2,1.2,0.6,2,1.2,2.5C74.3,53.3,75.1,53.4,76,53.3z"/>
		<path id="XMLID_18_" class="st5" d="M85.7,42.1c0.8-0.2,1.5-0.2,2.1,0c0.7,0.1,1.3,0.4,1.8,0.7c0.5,0.4,1,0.9,1.3,1.5
			c0.4,0.6,0.6,1.3,0.8,2.1c0.2,0.8,0.2,1.6,0.1,2.3c-0.1,0.7-0.3,1.3-0.7,1.9c-0.3,0.5-0.8,1-1.4,1.4c-0.6,0.4-1.2,0.6-2,0.8
			c-0.8,0.2-1.5,0.2-2.1,0c-0.7-0.1-1.3-0.4-1.8-0.7c-0.5-0.4-1-0.9-1.3-1.5c-0.4-0.6-0.6-1.3-0.8-2.1c-0.2-0.8-0.2-1.6-0.1-2.3
			c0.1-0.7,0.3-1.3,0.7-1.9c0.3-0.5,0.8-1,1.4-1.4C84.3,42.5,84.9,42.2,85.7,42.1z M87.5,50.9c0.9-0.2,1.6-0.6,1.9-1.3
			c0.3-0.7,0.4-1.6,0.1-2.8c-0.2-1.2-0.6-2-1.2-2.5c-0.6-0.5-1.3-0.7-2.3-0.5c-0.9,0.2-1.6,0.6-1.9,1.4c-0.3,0.7-0.4,1.7-0.1,2.8
			c0.2,1.2,0.6,2,1.2,2.5C85.8,51,86.6,51.1,87.5,50.9z"/>
		<path id="XMLID_21_" class="st5" d="M94,35.7l1.7,8.6l0.5-0.1c0.1,0,0.3-0.1,0.3-0.1c0.1-0.1,0.2-0.2,0.2-0.3L99,40
			c0.1-0.2,0.2-0.3,0.3-0.4c0.1-0.1,0.3-0.2,0.4-0.2l2-0.4L99,43.6c-0.1,0.3-0.3,0.6-0.5,0.8c0.2,0.1,0.3,0.1,0.4,0.2
			c0.1,0.1,0.2,0.2,0.4,0.3l4.7,4.3l-1.9,0.4c-0.2,0-0.3,0-0.5,0c-0.1,0-0.3-0.1-0.4-0.3l-3.8-3.4c-0.1-0.1-0.3-0.2-0.4-0.2
			c-0.1,0-0.3,0-0.5,0L96,45.8l1,4.8l-2.2,0.4l-3-14.9L94,35.7z"/>
		<path id="XMLID_23_" class="st5" d="M109.8,39.3c0,0.1-0.1,0.2-0.1,0.2c-0.1,0.1-0.1,0.1-0.2,0.1c-0.1,0-0.2,0-0.4,0
			c-0.1,0-0.3-0.1-0.5-0.1c-0.2-0.1-0.4-0.1-0.7-0.1c-0.3,0-0.6,0-0.9,0.1c-0.3,0.1-0.5,0.1-0.7,0.2c-0.2,0.1-0.4,0.2-0.5,0.4
			c-0.1,0.1-0.2,0.3-0.3,0.5c0,0.2-0.1,0.4,0,0.5c0,0.2,0.2,0.4,0.3,0.6c0.2,0.1,0.4,0.2,0.7,0.3c0.3,0.1,0.6,0.1,0.9,0.2
			c0.3,0,0.7,0.1,1,0.1c0.3,0,0.7,0.1,1,0.2s0.6,0.2,0.9,0.4c0.3,0.2,0.5,0.4,0.7,0.6s0.4,0.6,0.4,1c0.1,0.5,0.1,0.9,0,1.4
			c-0.1,0.4-0.3,0.9-0.5,1.2c-0.3,0.4-0.6,0.7-1.1,1c-0.5,0.3-1,0.5-1.7,0.6c-0.4,0.1-0.7,0.1-1,0.1c-0.3,0-0.7,0-1-0.1
			c-0.3,0-0.6-0.1-0.9-0.2c-0.3-0.1-0.6-0.2-0.8-0.4l0.3-0.9c0-0.1,0.1-0.2,0.2-0.3c0.1-0.1,0.2-0.1,0.3-0.2c0.1,0,0.3,0,0.4,0.1
			c0.2,0.1,0.3,0.1,0.5,0.2c0.2,0.1,0.4,0.1,0.7,0.2s0.6,0,1-0.1c0.3-0.1,0.6-0.2,0.8-0.3s0.4-0.3,0.5-0.4c0.1-0.2,0.2-0.3,0.2-0.5
			c0-0.2,0-0.4,0-0.6c-0.1-0.3-0.2-0.5-0.4-0.6c-0.2-0.1-0.4-0.2-0.7-0.3c-0.3-0.1-0.6-0.1-0.9-0.2c-0.3,0-0.7-0.1-1-0.1
			c-0.3,0-0.7-0.1-1-0.2c-0.3-0.1-0.7-0.2-0.9-0.4c-0.3-0.2-0.5-0.4-0.7-0.7c-0.2-0.3-0.4-0.6-0.5-1.1c-0.1-0.4-0.1-0.8,0-1.2
			c0.1-0.4,0.3-0.8,0.5-1.1c0.3-0.3,0.6-0.6,1-0.9c0.4-0.3,1-0.4,1.6-0.6c0.7-0.1,1.3-0.2,1.9,0c0.6,0.1,1.1,0.3,1.6,0.6L109.8,39.3
			z"/>
	</g>
	<g id="XMLID_2_">
		<path id="XMLID_3_" d="M36.6,92.2l1.3-0.3l1.8-11.4l-1.5,0.3l-0.1-0.6l4.5-0.9l0.1,0.6l-1.5,0.3l6.1,9.8l1.3-0.3l0.1,0.6l-3.7,0.7
			L45,90.5l1.6-0.3l-2.2-3.5l-5.1,1l-0.6,4.1l1.6-0.3l0.1,0.6l-3.7,0.7L36.6,92.2z M44,86.1l-3.6-5.8l-1,6.7L44,86.1z"/>
	</g>
	<g id="XMLID_4405_">
		<line id="XMLID_4414_" class="st6" x1="49.3" y1="78.3" x2="120.8" y2="63.6"/>
		<line id="XMLID_4413_" class="st6" x1="51.5" y1="89" x2="123" y2="74.4"/>
		<line id="XMLID_4412_" class="st6" x1="38" y1="103" x2="125.2" y2="85.2"/>
		<line id="XMLID_4411_" class="st6" x1="40.2" y1="113.8" x2="127.4" y2="96"/>
		<line id="XMLID_4410_" class="st6" x1="42.2" y1="123.6" x2="129.4" y2="105.8"/>
		<line id="XMLID_4409_" class="st6" x1="44.4" y1="134.4" x2="131.6" y2="116.5"/>
		<line id="XMLID_4408_" class="st6" x1="46.6" y1="145.1" x2="133.8" y2="127.3"/>
		<line id="XMLID_4407_" class="st6" x1="48.8" y1="155.9" x2="136" y2="138.1"/>
		<line id="XMLID_4406_" class="st6" x1="50.8" y1="165.7" x2="138" y2="147.9"/>
	</g>
</g>
</svg>
