<?xml version="1.0" encoding="utf-8"?>
<!-- Generator: Adobe Illustrator 19.0.0, SVG Export Plug-In . SVG Version: 6.00 Build 0)  -->
<svg version="1.1" id="Layer_1" xmlns="http://www.w3.org/2000/svg" xmlns:xlink="http://www.w3.org/1999/xlink" x="0px" y="0px"
	 width="294.9px" height="346.7px" viewBox="0 0 294.9 346.7" style="enable-background:new 0 0 294.9 346.7;" xml:space="preserve"
	>
<style type="text/css">
	.st0{fill:#EA5E65;}
	.st1{fill:#E7E2DA;}
	.st2{fill:#A69E9D;}
	.st3{fill:#AF4553;}
	.st4{fill:#FFFFFF;}
	.st5{fill:none;stroke:#AF4553;stroke-width:1.5712;stroke-linecap:round;stroke-linejoin:round;stroke-miterlimit:10;}
	.st6{fill:none;stroke:#AF4553;stroke-width:1.5712;stroke-linejoin:round;stroke-miterlimit:10;}
</style>
<g id="XMLID_5030_">
	
		<rect id="XMLID_5093_" x="50.4" y="27.7" transform="matrix(0.9437 0.3307 -0.3307 0.9437 58.7814 -42.7966)" class="st0" width="209.5" height="247.4"/>
	
		<rect id="XMLID_5092_" x="63.5" y="-4.2" transform="matrix(0.9437 0.3307 -0.3307 0.9437 42.5092 -14.7221)" class="st1" width="2.1" height="243.5"/>
	
		<rect id="XMLID_5091_" x="1.8" y="266.8" transform="matrix(0.9437 0.3307 -0.3307 0.9437 101.9231 -18.9176)" class="st1" width="209.5" height="46.6"/>
	
		<rect id="XMLID_5090_" x="8.7" y="267.9" transform="matrix(0.9437 0.3307 -0.3307 0.9437 95.8585 -22.2743)" class="st2" width="209.5" height="5.3"/>
	
		<rect id="XMLID_5089_" x="8.2" y="232.9" transform="matrix(0.9437 0.3307 -0.3307 0.9437 84.6833 10.9043)" class="st3" width="4.1" height="42.8"/>
	
		<rect id="XMLID_5088_" x="-5.3" y="308.4" transform="matrix(0.9437 0.3307 -0.3307 0.9437 108.2053 -15.4403)" class="st3" width="209.5" height="3.8"/>
	
		<rect id="XMLID_5087_" x="10.2" y="264.4" transform="matrix(0.9437 0.3307 -0.3307 0.9437 94.5185 -23.016)" class="st3" width="209.5" height="3.8"/>
	<g id="XMLID_1_">
		<path id="XMLID_2_" class="st4" d="M89.8,179.7l-0.8,2.1l-10.2-3.6l5.7-16.3l10.2,3.6l-0.8,2.1l-7.5-2.6l-1.7,4.9l6,2.1l-0.7,2.1
			l-6-2.1l-1.8,5L89.8,179.7z"/>
		<path id="XMLID_4_" class="st4" d="M97,173.4c0.3-0.2,0.7-0.3,1-0.4s0.7-0.2,1-0.2c0.4,0,0.7,0,1.1,0c0.4,0,0.8,0.1,1.2,0.3
			c0.6,0.2,1.2,0.5,1.6,0.9c0.4,0.4,0.7,0.8,0.9,1.3c0.2,0.5,0.3,1,0.3,1.6s-0.2,1.2-0.4,1.9l-2.6,7.3l-2.4-0.9l2.6-7.3
			c0.3-0.8,0.3-1.4,0.1-2c-0.2-0.6-0.7-1-1.4-1.2c-0.5-0.2-1.1-0.2-1.6-0.2c-0.6,0.1-1.1,0.3-1.7,0.6l-3,8.4l-2.4-0.9l4.1-11.5
			l1.5,0.5c0.3,0.1,0.5,0.3,0.5,0.7L97,173.4z"/>
		<path id="XMLID_6_" class="st4" d="M115.3,180.7c-0.1,0.1-0.2,0.1-0.3,0.2c-0.1,0-0.2,0-0.3,0s-0.2-0.1-0.4-0.3s-0.2-0.3-0.4-0.5
			c-0.2-0.2-0.3-0.4-0.6-0.5c-0.2-0.2-0.6-0.4-1-0.5c-0.5-0.2-1-0.3-1.5-0.2s-0.9,0.2-1.3,0.5s-0.7,0.6-1.1,1.1
			c-0.3,0.5-0.6,1-0.8,1.6c-0.2,0.6-0.4,1.2-0.4,1.8c0,0.6,0,1.1,0.2,1.5c0.1,0.4,0.4,0.8,0.7,1.1c0.3,0.3,0.7,0.6,1.2,0.7
			c0.5,0.2,0.9,0.2,1.2,0.2c0.3,0,0.6,0,0.9-0.1s0.5-0.1,0.6-0.2c0.2-0.1,0.3-0.1,0.5,0c0.2,0.1,0.3,0.2,0.4,0.4l0.4,1.1
			c-0.4,0.2-0.8,0.4-1.2,0.5c-0.4,0.1-0.8,0.2-1.3,0.2c-0.4,0-0.9,0-1.3-0.1c-0.4-0.1-0.9-0.2-1.3-0.3c-0.7-0.3-1.3-0.6-1.9-1.1
			c-0.5-0.5-0.9-1.1-1.2-1.7c-0.3-0.7-0.4-1.4-0.4-2.3c0-0.8,0.2-1.7,0.5-2.7c0.3-0.9,0.7-1.6,1.2-2.2c0.5-0.6,1.1-1.1,1.7-1.5
			c0.6-0.4,1.4-0.6,2.2-0.6c0.8-0.1,1.6,0.1,2.5,0.4c0.8,0.3,1.5,0.7,2.1,1.2c0.5,0.5,1,1.1,1.3,1.8L115.3,180.7z"/>
		<path id="XMLID_8_" class="st4" d="M129,183l-11.6,12.6c-0.1,0.1-0.3,0.2-0.4,0.3c-0.2,0.1-0.3,0-0.6,0l-1.8-0.6l3.8-3.9
			l-0.9-12.4l2.1,0.7c0.2,0.1,0.3,0.2,0.4,0.3c0.1,0.1,0.1,0.3,0.1,0.4l0.4,7.5c0,0.2,0,0.4,0,0.6c0,0.2,0,0.4,0,0.6
			c0.1-0.2,0.3-0.3,0.4-0.5c0.1-0.2,0.3-0.3,0.4-0.5l4.9-5.6c0.1-0.1,0.2-0.2,0.4-0.2s0.3,0,0.5,0L129,183z"/>
		<path id="XMLID_10_" class="st4" d="M137.6,188.5c-0.1,0.1-0.2,0.1-0.3,0.2c-0.1,0-0.2,0-0.3,0s-0.2-0.1-0.4-0.3
			c-0.1-0.1-0.2-0.3-0.4-0.5c-0.2-0.2-0.3-0.4-0.6-0.5c-0.2-0.2-0.6-0.4-1-0.5c-0.5-0.2-1-0.3-1.5-0.2c-0.5,0-0.9,0.2-1.3,0.5
			c-0.4,0.3-0.7,0.6-1.1,1.1c-0.3,0.5-0.6,1-0.8,1.6c-0.2,0.6-0.4,1.2-0.4,1.8c0,0.6,0,1.1,0.2,1.5c0.1,0.4,0.4,0.8,0.7,1.1
			c0.3,0.3,0.7,0.6,1.2,0.7c0.5,0.2,0.9,0.2,1.2,0.2c0.3,0,0.6,0,0.9-0.1c0.2-0.1,0.5-0.1,0.6-0.2c0.2-0.1,0.3-0.1,0.5,0
			c0.2,0.1,0.3,0.2,0.4,0.4l0.4,1.1c-0.4,0.2-0.8,0.4-1.2,0.5s-0.8,0.2-1.3,0.2c-0.4,0-0.9,0-1.3-0.1c-0.4-0.1-0.9-0.2-1.3-0.3
			c-0.7-0.3-1.3-0.6-1.9-1.1c-0.5-0.5-0.9-1.1-1.2-1.7c-0.3-0.7-0.4-1.4-0.4-2.3c0-0.8,0.2-1.7,0.5-2.7c0.3-0.9,0.7-1.6,1.2-2.2
			c0.5-0.6,1.1-1.1,1.7-1.5c0.6-0.4,1.4-0.6,2.2-0.6s1.6,0.1,2.5,0.4c0.8,0.3,1.5,0.7,2.1,1.2s1,1.1,1.3,1.8L137.6,188.5z"/>
		<path id="XMLID_12_" class="st4" d="M145.4,182.9l-5.9,16.7l-2.4-0.9l5.9-16.7L145.4,182.9z"/>
		<path id="XMLID_14_" class="st4" d="M151.6,190.8c0.9,0.3,1.6,0.7,2.2,1.2c0.6,0.5,1,1.1,1.3,1.8c0.3,0.7,0.5,1.4,0.5,2.3
			s-0.2,1.7-0.5,2.6c-0.3,0.9-0.7,1.7-1.3,2.3c-0.5,0.6-1.1,1.1-1.8,1.5c-0.7,0.3-1.4,0.5-2.2,0.6s-1.6-0.1-2.5-0.4
			c-0.9-0.3-1.6-0.7-2.2-1.2c-0.6-0.5-1-1.1-1.3-1.8s-0.5-1.4-0.5-2.3s0.2-1.7,0.5-2.6c0.3-0.9,0.7-1.7,1.3-2.3s1.1-1.1,1.8-1.5
			c0.7-0.3,1.4-0.5,2.2-0.6C150,190.3,150.8,190.4,151.6,190.8z M148.1,200.7c1,0.4,1.9,0.3,2.7-0.2c0.8-0.5,1.4-1.4,1.8-2.7
			c0.5-1.3,0.6-2.4,0.3-3.3c-0.3-0.9-0.9-1.5-2-1.9c-1.1-0.4-2-0.3-2.7,0.2c-0.8,0.5-1.4,1.4-1.8,2.7c-0.5,1.3-0.6,2.4-0.3,3.3
			S147.1,200.4,148.1,200.7z"/>
		<path id="XMLID_17_" class="st4" d="M161.2,196.2c0.7-0.4,1.4-0.7,2.1-0.8s1.5-0.1,2.3,0.2c0.6,0.2,1.2,0.6,1.6,1
			c0.4,0.4,0.8,1,1,1.6c0.2,0.6,0.3,1.3,0.2,2.2c-0.1,0.8-0.2,1.7-0.6,2.6c-0.3,0.9-0.7,1.6-1.2,2.3c-0.5,0.7-1,1.2-1.7,1.6
			c-0.6,0.4-1.3,0.6-2,0.7c-0.7,0.1-1.5,0-2.2-0.3c-0.7-0.2-1.2-0.6-1.6-0.9c-0.4-0.4-0.7-0.8-1-1.4l-1.7,4.9l-2.4-0.9l5.4-15.4
			l1.5,0.5c0.3,0.1,0.5,0.3,0.5,0.7L161.2,196.2z M158.9,203.2c0.2,0.6,0.4,1,0.8,1.3s0.8,0.6,1.2,0.7c0.9,0.3,1.8,0.2,2.6-0.3
			c0.8-0.5,1.4-1.4,1.9-2.8c0.2-0.7,0.4-1.3,0.5-1.9c0.1-0.5,0-1-0.1-1.4c-0.1-0.4-0.3-0.7-0.6-1c-0.3-0.3-0.6-0.5-1-0.6
			c-0.6-0.2-1.2-0.3-1.7-0.2c-0.5,0.1-1.1,0.3-1.7,0.7L158.9,203.2z"/>
		<path id="XMLID_20_" class="st4" d="M171.9,204.8c-0.2,0.7-0.3,1.3-0.3,1.8c0,0.5,0.1,1,0.3,1.4s0.4,0.8,0.8,1.1
			c0.3,0.3,0.8,0.5,1.3,0.7c0.5,0.2,0.9,0.3,1.3,0.3c0.4,0,0.7,0,1,0c0.3,0,0.6-0.1,0.8-0.1c0.2,0,0.4,0,0.6,0
			c0.2,0.1,0.3,0.2,0.4,0.4l0.4,1.1c-0.4,0.2-0.8,0.4-1.3,0.5c-0.4,0.1-0.9,0.2-1.4,0.2c-0.5,0-0.9,0-1.4-0.1
			c-0.5-0.1-0.9-0.2-1.3-0.3c-0.8-0.3-1.5-0.7-2.1-1.2s-1-1.1-1.4-1.8c-0.3-0.7-0.5-1.5-0.5-2.3c0-0.9,0.2-1.8,0.5-2.8
			c0.3-0.8,0.7-1.5,1.2-2.1c0.5-0.6,1.1-1.1,1.7-1.4c0.7-0.3,1.4-0.5,2.1-0.6s1.6,0.1,2.4,0.4c0.7,0.2,1.3,0.6,1.8,1
			c0.5,0.4,0.9,1,1.2,1.6c0.3,0.6,0.4,1.3,0.4,2c0,0.7-0.1,1.5-0.4,2.3c-0.1,0.4-0.3,0.6-0.4,0.7c-0.1,0.1-0.3,0.1-0.5,0
			L171.9,204.8z M178.2,205.4c0.1-0.4,0.2-0.8,0.2-1.2c0-0.4-0.1-0.8-0.2-1.1c-0.1-0.3-0.3-0.6-0.6-0.9c-0.3-0.3-0.6-0.5-1.1-0.6
			c-0.9-0.3-1.7-0.3-2.3,0c-0.7,0.3-1.3,0.9-1.7,1.8L178.2,205.4z"/>
		<path id="XMLID_23_" class="st4" d="M195.9,200.7l-5.9,16.7l-1.5-0.5c-0.3-0.1-0.5-0.3-0.5-0.7l0.2-1.3c-0.7,0.4-1.4,0.7-2.1,0.8
			c-0.7,0.1-1.5,0.1-2.3-0.2c-0.6-0.2-1.2-0.6-1.6-1c-0.4-0.4-0.8-1-1-1.6s-0.3-1.3-0.2-2.2s0.2-1.7,0.6-2.6
			c0.3-0.9,0.7-1.6,1.2-2.3c0.5-0.6,1-1.2,1.7-1.6c0.6-0.4,1.3-0.6,2-0.7c0.7-0.1,1.5,0,2.2,0.3c0.7,0.2,1.2,0.6,1.6,0.9
			c0.4,0.4,0.7,0.8,1,1.3l2.2-6.2L195.9,200.7z M190.6,207.9c-0.2-0.6-0.5-1-0.8-1.3c-0.3-0.3-0.8-0.6-1.2-0.7
			c-0.9-0.3-1.8-0.2-2.6,0.3c-0.8,0.5-1.4,1.4-1.9,2.8c-0.2,0.7-0.4,1.3-0.5,1.9c-0.1,0.5,0,1,0.1,1.4c0.1,0.4,0.3,0.7,0.6,1
			c0.3,0.3,0.6,0.5,1,0.6c0.6,0.2,1.2,0.3,1.7,0.2c0.5-0.1,1.1-0.3,1.7-0.7L190.6,207.9z"/>
		<path id="XMLID_26_" class="st4" d="M199.6,207.9l-4.1,11.5l-2.4-0.9l4.1-11.5L199.6,207.9z M201.2,204.5
			c-0.1,0.2-0.2,0.4-0.4,0.6s-0.3,0.3-0.5,0.4c-0.2,0.1-0.4,0.1-0.6,0.2c-0.2,0-0.5,0-0.7-0.1c-0.2-0.1-0.4-0.2-0.6-0.3
			s-0.3-0.3-0.4-0.5c-0.1-0.2-0.1-0.4-0.2-0.6c0-0.2,0-0.4,0.1-0.7c0.1-0.2,0.2-0.4,0.4-0.6c0.2-0.2,0.3-0.3,0.5-0.4
			c0.2-0.1,0.4-0.2,0.6-0.2c0.2,0,0.4,0,0.7,0.1c0.2,0.1,0.4,0.2,0.6,0.4s0.3,0.3,0.4,0.5c0.1,0.2,0.2,0.4,0.2,0.6
			S201.3,204.3,201.2,204.5z"/>
		<path id="XMLID_29_" class="st4" d="M201.8,210.5c1.7-0.8,3.5-0.8,5.3-0.2c0.7,0.2,1.2,0.5,1.7,0.9c0.4,0.4,0.8,0.9,1,1.4
			c0.2,0.5,0.3,1.1,0.3,1.7c0,0.6-0.1,1.2-0.4,1.9l-2.6,7.3l-1.1-0.4c-0.2-0.1-0.4-0.2-0.5-0.3c-0.1-0.1-0.1-0.3-0.2-0.5l0.1-1
			c-0.4,0.2-0.8,0.3-1.1,0.4c-0.4,0.1-0.7,0.2-1.1,0.2c-0.4,0-0.7,0-1.1,0c-0.4-0.1-0.8-0.2-1.2-0.3c-0.5-0.2-0.9-0.4-1.2-0.7
			c-0.4-0.3-0.6-0.6-0.8-1c-0.2-0.4-0.3-0.8-0.4-1.2s0-0.9,0.2-1.4c0.2-0.4,0.4-0.8,0.8-1.2c0.4-0.3,0.9-0.6,1.6-0.7
			c0.7-0.1,1.5-0.2,2.5-0.1c1,0.1,2.1,0.4,3.4,0.8l0.3-0.8c0.3-0.8,0.3-1.5,0.1-2c-0.2-0.5-0.7-0.9-1.3-1.2
			c-0.5-0.2-0.9-0.2-1.2-0.2c-0.4,0-0.7,0-1,0.1c-0.3,0.1-0.5,0.1-0.8,0.2c-0.2,0.1-0.4,0-0.6,0c-0.2-0.1-0.3-0.2-0.4-0.3
			c-0.1-0.1-0.1-0.3-0.2-0.4L201.8,210.5z M206.5,217.6c-0.9-0.3-1.6-0.5-2.3-0.6c-0.6-0.1-1.2-0.1-1.6-0.1c-0.4,0-0.8,0.1-1,0.3
			c-0.2,0.2-0.4,0.4-0.5,0.7c-0.1,0.3-0.1,0.5-0.1,0.7c0,0.2,0.1,0.4,0.2,0.6c0.1,0.2,0.3,0.3,0.4,0.5c0.2,0.1,0.4,0.2,0.7,0.3
			c0.6,0.2,1.2,0.3,1.8,0.2c0.5-0.1,1.1-0.3,1.7-0.6L206.5,217.6z"/>
	</g>
	<g id="XMLID_5032_">
		<line id="XMLID_5083_" class="st5" x1="115.5" y1="142.6" x2="202.4" y2="173"/>
		<line id="XMLID_5082_" class="st5" x1="115.5" y1="142.6" x2="202.4" y2="173"/>
		<line id="XMLID_5081_" class="st5" x1="115.5" y1="142.6" x2="202.4" y2="173"/>
		<line id="XMLID_5079_" class="st5" x1="115.5" y1="142.6" x2="202.4" y2="173"/>
		<line id="XMLID_5065_" class="st5" x1="159" y1="157.8" x2="165.9" y2="138"/>
		<g id="XMLID_5033_">
			<path id="XMLID_5042_" class="st6" d="M214.1,114.7c-6.9,19.7-28.5,30.2-48.3,23.2s-29.7-29.1-22.8-48.9
				c6.7-19.2,27-28.8,46.3-22.9c0.5,0.2,1,0.3,1.6,0.5C210.6,73.7,221,95,214.1,114.7z"/>
			<path id="XMLID_5039_" class="st6" d="M189.3,66.3c-25.6,13.6-34.8,39.9-24.9,71.2"/>
			<path id="XMLID_5037_" class="st6" d="M192.4,67.4c11.5,26.6,2.3,52.9-24.9,71.2"/>
			<line id="XMLID_5036_" class="st6" x1="141.2" y1="107.1" x2="204.7" y2="129.4"/>
			<line id="XMLID_5035_" class="st6" x1="155.6" y1="72.2" x2="215" y2="93"/>
			<line id="XMLID_5034_" class="st6" x1="142.8" y1="89.9" x2="214" y2="114.9"/>
		</g>
	</g>
	<line id="XMLID_5031_" class="st5" x1="88.8" y1="218.7" x2="175.7" y2="249.1"/>
</g>
</svg>
