<?xml version="1.0" encoding="utf-8"?>
<!-- Generator: Adobe Illustrator 19.0.0, SVG Export Plug-In . SVG Version: 6.00 Build 0)  -->
<svg version="1.1" id="Layer_1" xmlns="http://www.w3.org/2000/svg" xmlns:xlink="http://www.w3.org/1999/xlink" x="0px" y="0px"
	 width="306.9px" height="363.8px" viewBox="0 0 306.9 363.8" style="enable-background:new 0 0 306.9 363.8;" xml:space="preserve"
	>
<style type="text/css">
	.st0{fill:#E7E2DA;}
	.st1{fill:#A69E9D;}
	.st2{fill:#025960;}
	.st3{fill:#007484;}
	.st4{fill:none;stroke:#5BC4BF;stroke-width:2.4522;stroke-linecap:round;stroke-linejoin:round;stroke-miterlimit:10;}
	.st5{fill:#FFFFFF;}
	.st6{fill:none;stroke:#FFFFFF;stroke-width:1.4288;stroke-linecap:round;stroke-linejoin:round;stroke-miterlimit:10;}
</style>
<g id="XMLID_4428_">
	
		<rect id="XMLID_4465_" x="1" y="304.6" transform="matrix(0.9735 0.2286 -0.2286 0.9735 75.986 -19.3276)" class="st0" width="240.7" height="27.4"/>
	
		<rect id="XMLID_4464_" x="2.6" y="308.4" transform="matrix(0.9735 0.2286 -0.2286 0.9735 74.5369 -19.85)" class="st1" width="240.7" height="6.7"/>
	<g id="XMLID_4461_">
		<g id="XMLID_4462_">
			
				<rect id="XMLID_4463_" x="36.9" y="21.8" transform="matrix(0.9735 0.2286 -0.2286 0.9735 41.5856 -29.7057)" class="st2" width="224.2" height="285.6"/>
		</g>
	</g>
	<g id="XMLID_4458_">
		<g id="XMLID_4459_">
			
				<rect id="XMLID_4460_" x="53" y="25.6" transform="matrix(0.9735 0.2286 -0.2286 0.9735 42.8767 -33.2871)" class="st3" width="224.2" height="285.6"/>
		</g>
	</g>
	
		<rect id="XMLID_4457_" x="3.3" y="280.3" transform="matrix(0.9735 0.2286 -0.2286 0.9735 67.6086 6.4593)" class="st2" width="5.2" height="29.5"/>
	
		<rect id="XMLID_4456_" x="-2.6" y="331.5" transform="matrix(0.9735 0.2286 -0.2286 0.9735 79.4733 -18.0703)" class="st2" width="240.7" height="4.8"/>
	
		<rect id="XMLID_4455_" x="3.9" y="303.8" transform="matrix(0.9735 0.2286 -0.2286 0.9735 73.2914 -20.299)" class="st2" width="240.7" height="4.8"/>
	<g id="XMLID_4447_">
		<circle id="XMLID_4454_" class="st4" cx="170.3" cy="145.8" r="61.1"/>
		<g id="XMLID_4448_">
			<line id="XMLID_4453_" class="st4" x1="208.5" y1="120.8" x2="131.3" y2="169"/>
			<path id="XMLID_4452_" class="st4" d="M141.5,162.5c-4.7-7.5,6-24.7,24.7-36.3c9.6-6,19.4-9.6,25.2-11l-4.4,19.1"/>
			<line id="XMLID_4451_" class="st4" x1="165.9" y1="147.4" x2="190.7" y2="153.2"/>
			<path id="XMLID_4450_" class="st4" d="M153.1,155.4l27.4,6.4c-17.5,9.8-35,7.3-39.1,0.8"/>
			<path id="XMLID_4449_" class="st4" d="M208.6,120.7c3.6,5.8,0.4,14.9-8,23.9l-22.1-5.1"/>
		</g>
	</g>
	<g id="XMLID_223_">
		<path id="XMLID_224_" class="st5" d="M61.4,241.9c-0.3,1.2-0.7,2.2-1.2,3.1s-1.1,1.6-1.9,2.1c-0.7,0.5-1.6,0.9-2.5,1
			c-0.9,0.2-2,0.1-3.1-0.2c-0.5-0.1-1-0.3-1.5-0.5c-0.5-0.2-1-0.4-1.5-0.7l0.7-2c0.1-0.2,0.2-0.3,0.3-0.4c0.2-0.1,0.3-0.1,0.6,0
			c0.2,0,0.4,0.1,0.7,0.3c0.3,0.1,0.6,0.3,1.1,0.4c0.6,0.1,1.2,0.2,1.7,0.1c0.5-0.1,1-0.3,1.4-0.6c0.4-0.3,0.8-0.7,1.1-1.3
			c0.3-0.6,0.6-1.3,0.8-2.1l3.3-13.9l3.4,0.8L61.4,241.9z"/>
		<path id="XMLID_226_" class="st5" d="M73.5,236.5c1.1,0.3,2.1,0.7,2.9,1.3c0.8,0.6,1.5,1.3,1.9,2.1c0.5,0.8,0.8,1.8,0.9,2.8
			c0.1,1,0,2.2-0.2,3.3c-0.3,1.2-0.7,2.2-1.3,3.1c-0.6,0.9-1.3,1.6-2.1,2.1c-0.8,0.5-1.7,0.9-2.7,1c-1,0.2-2,0.1-3.2-0.2
			c-1.1-0.3-2.1-0.7-2.9-1.3c-0.8-0.6-1.5-1.3-1.9-2.1c-0.5-0.8-0.8-1.8-0.9-2.8c-0.1-1,0-2.2,0.2-3.3c0.3-1.2,0.7-2.2,1.3-3.1
			c0.6-0.9,1.3-1.6,2.1-2.1c0.8-0.5,1.7-0.9,2.7-1S72.4,236.2,73.5,236.5z M70.4,249.6c1.4,0.3,2.5,0.1,3.4-0.6
			c0.9-0.8,1.5-2,1.9-3.7c0.4-1.7,0.4-3.1-0.1-4.2c-0.4-1.1-1.3-1.8-2.7-2.1c-1.4-0.3-2.5-0.1-3.4,0.7c-0.9,0.8-1.5,2-1.9,3.7
			s-0.4,3.1,0.1,4.1C68.1,248.5,69.1,249.2,70.4,249.6z"/>
		<path id="XMLID_229_" class="st5" d="M96.5,242.2L93,257.3l-1.9-0.5c-0.4-0.1-0.6-0.4-0.7-0.8l0.1-1.5c-0.4,0.3-0.8,0.5-1.2,0.7
			c-0.4,0.2-0.8,0.3-1.3,0.4c-0.4,0.1-0.9,0.2-1.4,0.2c-0.5,0-1-0.1-1.5-0.2c-0.8-0.2-1.5-0.5-2.1-0.9c-0.6-0.4-1-0.9-1.3-1.5
			c-0.3-0.6-0.5-1.3-0.5-2s0-1.6,0.2-2.4l2.3-9.6l3.2,0.8l-2.3,9.6c-0.2,1-0.2,1.9,0.1,2.5c0.3,0.7,1,1.1,1.9,1.3
			c0.7,0.2,1.4,0.2,2.1,0c0.7-0.2,1.4-0.5,2-0.9l2.6-11L96.5,242.2z"/>
		<path id="XMLID_231_" class="st5" d="M102.8,246.6c0.7-0.8,1.4-1.5,2.2-1.8c0.8-0.4,1.7-0.5,2.6-0.2c0.3,0.1,0.6,0.2,0.9,0.3
			c0.3,0.1,0.5,0.3,0.7,0.5l-0.8,2.3c-0.1,0.2-0.2,0.3-0.3,0.3c-0.1,0-0.2,0.1-0.4,0c-0.1,0-0.4-0.1-0.6-0.2
			c-0.3-0.1-0.5-0.2-0.9-0.3c-0.4-0.1-0.9-0.1-1.2-0.1c-0.4,0-0.7,0.2-1,0.3c-0.3,0.2-0.6,0.4-0.9,0.7c-0.3,0.3-0.6,0.7-0.9,1.1
			L100,259l-3.2-0.8l3.6-15.1l1.8,0.4c0.3,0.1,0.6,0.2,0.7,0.3c0.1,0.2,0.1,0.4,0.1,0.7L102.8,246.6z"/>
		<path id="XMLID_233_" class="st5" d="M113.8,248.4c0.4-0.3,0.8-0.5,1.2-0.7c0.4-0.2,0.8-0.3,1.3-0.4c0.4-0.1,0.9-0.2,1.4-0.2
			c0.5,0,1,0.1,1.5,0.2c0.8,0.2,1.5,0.5,2.1,0.9c0.6,0.4,1,0.9,1.3,1.5c0.3,0.6,0.5,1.3,0.5,2c0,0.8,0,1.6-0.2,2.4l-2.3,9.6
			l-3.2-0.8l2.3-9.6c0.2-1,0.2-1.9-0.1-2.5c-0.3-0.7-1-1.1-1.9-1.3c-0.7-0.2-1.4-0.2-2.1,0s-1.4,0.5-2,0.9l-2.6,11l-3.2-0.8
			l3.6-15.1l1.9,0.5c0.4,0.1,0.7,0.4,0.7,0.8L113.8,248.4z"/>
		<path id="XMLID_235_" class="st5" d="M127,251.7c2.1-1.2,4.3-1.5,6.7-0.9c0.9,0.2,1.6,0.5,2.2,1s1.1,1,1.4,1.6
			c0.3,0.6,0.5,1.3,0.6,2.1c0.1,0.8,0,1.6-0.2,2.4l-2.3,9.6l-1.4-0.3c-0.3-0.1-0.5-0.2-0.7-0.3c-0.1-0.1-0.2-0.4-0.3-0.7l0-1.3
			c-0.5,0.3-0.9,0.5-1.4,0.7c-0.4,0.2-0.9,0.3-1.3,0.4c-0.4,0.1-0.9,0.1-1.4,0.1c-0.5,0-1-0.1-1.5-0.2c-0.6-0.1-1.2-0.4-1.6-0.7
			c-0.5-0.3-0.9-0.7-1.2-1.1c-0.3-0.4-0.5-0.9-0.6-1.5c-0.1-0.6-0.1-1.2,0.1-1.9c0.1-0.6,0.4-1.1,0.9-1.6c0.4-0.5,1.1-0.9,1.9-1.1
			c0.8-0.3,1.8-0.4,3.1-0.4c1.2,0,2.7,0.2,4.4,0.5l0.2-1c0.3-1.1,0.2-1.9-0.1-2.6c-0.3-0.6-1-1.1-1.8-1.3c-0.6-0.1-1.1-0.2-1.6-0.1
			c-0.4,0.1-0.8,0.1-1.2,0.2c-0.3,0.1-0.7,0.2-0.9,0.3s-0.5,0.1-0.8,0.1c-0.2-0.1-0.4-0.2-0.5-0.3c-0.1-0.1-0.2-0.3-0.3-0.5
			L127,251.7z M133.9,260c-1.1-0.2-2.1-0.4-2.9-0.4c-0.8,0-1.5,0-2,0.1c-0.5,0.1-0.9,0.3-1.2,0.5c-0.3,0.3-0.5,0.6-0.6,0.9
			c-0.1,0.4-0.1,0.7,0,0.9c0.1,0.3,0.2,0.5,0.3,0.7c0.2,0.2,0.4,0.4,0.6,0.5c0.3,0.1,0.5,0.2,0.9,0.3c0.8,0.2,1.6,0.2,2.2,0
			c0.7-0.2,1.4-0.5,2.1-0.9L133.9,260z"/>
		<path id="XMLID_238_" class="st5" d="M147.6,247.1l-5.2,21.9l-3.2-0.8l5.2-21.9L147.6,247.1z"/>
		<path id="XMLID_240_" class="st5" d="M158.3,259.8c-0.1,0.1-0.2,0.2-0.3,0.2s-0.2,0-0.4,0c-0.2,0-0.3-0.1-0.5-0.3
			c-0.2-0.1-0.4-0.3-0.6-0.5c-0.2-0.2-0.5-0.4-0.9-0.6c-0.3-0.2-0.7-0.3-1.2-0.5c-0.4-0.1-0.8-0.1-1.1-0.1c-0.3,0-0.6,0.1-0.9,0.2
			c-0.3,0.1-0.5,0.3-0.7,0.5c-0.2,0.2-0.3,0.4-0.4,0.7c-0.1,0.4,0,0.7,0.1,1c0.2,0.3,0.4,0.6,0.7,0.8c0.3,0.3,0.7,0.5,1.1,0.8
			c0.4,0.2,0.8,0.5,1.3,0.8s0.9,0.6,1.3,0.9s0.7,0.7,1,1c0.3,0.4,0.5,0.8,0.6,1.3c0.1,0.5,0.1,1,0,1.6c-0.2,0.7-0.5,1.3-0.8,1.9
			c-0.4,0.5-0.9,1-1.5,1.3c-0.6,0.3-1.3,0.5-2.1,0.6s-1.7,0-2.6-0.2c-0.5-0.1-1-0.3-1.5-0.5c-0.5-0.2-0.9-0.4-1.3-0.7
			c-0.4-0.3-0.8-0.6-1.1-0.9c-0.3-0.3-0.6-0.6-0.8-1l1-1c0.1-0.1,0.3-0.2,0.4-0.3c0.2-0.1,0.3-0.1,0.5,0c0.2,0,0.4,0.2,0.6,0.3
			c0.2,0.2,0.4,0.4,0.6,0.6c0.2,0.2,0.5,0.4,0.9,0.7c0.4,0.2,0.8,0.4,1.4,0.5c0.5,0.1,0.9,0.2,1.3,0.1c0.4,0,0.7-0.1,1-0.3
			c0.3-0.1,0.5-0.3,0.7-0.6c0.2-0.2,0.3-0.5,0.4-0.8c0.1-0.4,0.1-0.7-0.1-1c-0.2-0.3-0.4-0.6-0.7-0.8c-0.3-0.3-0.7-0.5-1.1-0.8
			c-0.4-0.2-0.9-0.5-1.3-0.8c-0.4-0.3-0.9-0.6-1.3-0.9c-0.4-0.3-0.8-0.7-1-1.1c-0.3-0.4-0.5-0.9-0.6-1.4c-0.1-0.5-0.1-1.1,0.1-1.8
			c0.1-0.6,0.4-1.1,0.8-1.6c0.4-0.5,0.8-0.9,1.4-1.2c0.6-0.3,1.2-0.5,2-0.6c0.7-0.1,1.6,0,2.5,0.2c1,0.2,1.9,0.6,2.6,1.1
			c0.8,0.5,1.3,1.1,1.8,1.8L158.3,259.8z"/>
	</g>
	<line id="XMLID_4444_" class="st6" x1="45.3" y1="263.7" x2="229.9" y2="307.1"/>
	<line id="XMLID_4443_" class="st6" x1="57" y1="213.8" x2="241.6" y2="257.1"/>
	<line id="XMLID_4442_" class="st6" x1="99.1" y1="34.4" x2="283.8" y2="77.7"/>
	<g id="XMLID_4432_">
		<g id="XMLID_4439_">
			<g id="XMLID_4440_">
				
					<rect id="XMLID_4441_" x="196.2" y="267.7" transform="matrix(0.9735 0.2286 -0.2286 0.9735 67.5024 -42.4871)" class="st2" width="41.8" height="4.7"/>
			</g>
		</g>
		<g id="XMLID_4436_">
			<g id="XMLID_4437_">
				
					<rect id="XMLID_4438_" x="194.6" y="274.4" transform="matrix(0.9735 0.2286 -0.2286 0.9735 68.9861 -41.9522)" class="st2" width="41.8" height="4.7"/>
			</g>
		</g>
		<g id="XMLID_4433_">
			<g id="XMLID_4434_">
				
					<rect id="XMLID_4435_" x="193.1" y="281.1" transform="matrix(0.9735 0.2286 -0.2286 0.9735 70.4702 -41.4172)" class="st2" width="41.8" height="4.7"/>
			</g>
		</g>
	</g>
	<g id="XMLID_4429_">
		<g id="XMLID_4430_">
			
				<rect id="XMLID_4431_" x="239" y="85.5" transform="matrix(0.9735 0.2286 -0.2286 0.9735 26.9817 -57.0951)" class="st2" width="41.8" height="4.7"/>
		</g>
	</g>
</g>
</svg>
