<?xml version="1.0" encoding="utf-8"?>
<!-- Generator: Adobe Illustrator 19.0.0, SVG Export Plug-In . SVG Version: 6.00 Build 0)  -->
<svg version="1.1" id="Layer_1" xmlns="http://www.w3.org/2000/svg" xmlns:xlink="http://www.w3.org/1999/xlink" x="0px" y="0px"
	 width="314.1px" height="357.6px" viewBox="0 0 314.1 357.6" style="enable-background:new 0 0 314.1 357.6;" xml:space="preserve"
	>
<style type="text/css">
	.st0{fill:#3A9EAC;}
	.st1{fill:#72D2D1;}
	.st2{fill:#505050;}
	.st3{fill:#F7B23F;}
	.st4{fill:#FFFFFF;}
	.st5{fill:#707070;}
	.st6{fill:#E7E2DA;}
</style>
<g id="XMLID_4466_">
	<g id="XMLID_4910_">
		<g id="XMLID_5027_">
			<g id="XMLID_5028_">
				
					<rect id="XMLID_5029_" x="31.3" y="27" transform="matrix(0.9723 -0.2338 0.2338 0.9723 -36.7569 39.262)" class="st0" width="231.9" height="295.3"/>
			</g>
		</g>
		<g id="XMLID_5024_">
			<g id="XMLID_5025_">
				
					<rect id="XMLID_5026_" x="47.9" y="23" transform="matrix(0.9723 -0.2338 0.2338 0.9723 -35.361 43.0396)" class="st1" width="231.9" height="295.3"/>
			</g>
		</g>
		<g id="XMLID_5021_">
			<g id="XMLID_5022_">
				<circle id="XMLID_5023_" class="st2" cx="209" cy="62" r="40.9"/>
			</g>
		</g>
		<g id="XMLID_5018_">
			<g id="XMLID_5019_">
				
					<rect id="XMLID_5020_" x="56.7" y="97.7" transform="matrix(0.9723 -0.2338 0.2338 0.9723 -21.7073 37.9948)" class="st3" width="185.3" height="25.7"/>
			</g>
		</g>
		<g id="XMLID_5015_">
			<g id="XMLID_5016_">
				<path id="XMLID_5017_" class="st3" d="M273.3,296.3c1-3,1.2-6.3,0.4-9.6l-4.3-17.7c-2.3-9.7-12.2-15.7-21.9-13.4l-119.6,28.8
					c-9.7,2.3-15.7,12.2-13.4,21.9l4.3,17.7c0.8,3.3,2.5,6.1,4.7,8.4L273.3,296.3z"/>
			</g>
		</g>
		<g id="XMLID_5002_">
			<g id="XMLID_5012_">
				<g id="XMLID_5013_">
					<path id="XMLID_5014_" class="st2" d="M248.3,232.8l-131.4,31.6l2-81c0,0,88.8-49.5,97.5-23.4
						C225,186.1,248.3,232.8,248.3,232.8z"/>
				</g>
			</g>
			<g id="XMLID_5009_">
				<g id="XMLID_5010_">
					
						<ellipse id="XMLID_5011_" transform="matrix(0.9723 -0.2338 0.2338 0.9723 -40.8553 44.9)" class="st4" cx="169" cy="194.8" rx="37.2" ry="59"/>
				</g>
			</g>
			<g id="XMLID_5006_">
				<g id="XMLID_5007_">
					<path id="XMLID_5008_" class="st2" d="M218.1,166.8c0.8,3.4,1.4,6.7,1.8,10L186,158.2l-39,39l-2.4-13.1l-27.7,80.3
						c0,0-2.3-58.6-5.6-71.9c-8.9-37.1,7.8-72.8,37.2-79.9C178,105.5,209.1,129.8,218.1,166.8z"/>
				</g>
			</g>
			<g id="XMLID_5003_">
				<g id="XMLID_5004_">
					<path id="XMLID_5005_" class="st4" d="M188.7,279.5L188.7,279.5c-5.9,1.4-11.8-2.2-13.3-8.1l-11.4-47.4
						c-1.4-5.9,2.2-11.8,8.1-13.3l0,0c5.9-1.4,11.8,2.2,13.3,8.1l11.4,47.4C198.3,272.1,194.6,278.1,188.7,279.5z"/>
				</g>
			</g>
		</g>
		<g id="XMLID_4999_">
			<g id="XMLID_5000_">
				
					<rect id="XMLID_5001_" x="91.8" y="294.9" transform="matrix(0.9723 -0.2338 0.2338 0.9723 -67.8336 40.3763)" class="st5" width="89.1" height="22.9"/>
			</g>
		</g>
		<g id="XMLID_4996_">
			<g id="XMLID_4997_">
				
					<rect id="XMLID_4998_" x="219.3" y="134.9" transform="matrix(0.9723 -0.2338 0.2338 0.9723 -26.0335 60.3325)" class="st5" width="44.3" height="10.2"/>
			</g>
		</g>
		<g id="XMLID_4993_">
			<g id="XMLID_4994_">
				
					<rect id="XMLID_4995_" x="216.5" y="216.7" transform="matrix(0.9723 -0.2338 0.2338 0.9723 -44.9377 64.5381)" class="st5" width="66.5" height="10.2"/>
			</g>
		</g>
		<g id="XMLID_4990_">
			<g id="XMLID_4991_">
				
					<rect id="XMLID_4992_" x="222.2" y="149.2" transform="matrix(0.9723 -0.2338 0.2338 0.9723 -28.7112 61.3219)" class="st4" width="44.3" height="5.1"/>
			</g>
		</g>
		<g id="XMLID_4987_">
			<g id="XMLID_4988_">
				
					<rect id="XMLID_4989_" x="224.7" y="160.8" transform="matrix(0.9723 -0.2338 0.2338 0.9723 -31.5843 60.2804)" class="st4" width="27.5" height="5.1"/>
			</g>
		</g>
		<g id="XMLID_4984_">
			<g id="XMLID_4985_">
				
					<rect id="XMLID_4986_" x="58.5" y="167.7" transform="matrix(0.9723 -0.2338 0.2338 0.9723 -37.513 24.0471)" class="st3" width="48.3" height="5.2"/>
			</g>
		</g>
		<g id="XMLID_4981_">
			<g id="XMLID_4982_">
				
					<rect id="XMLID_4983_" x="71.3" y="215.4" transform="matrix(0.9723 -0.2338 0.2338 0.9723 -49.467 29.011)" class="st3" width="52.6" height="15.5"/>
			</g>
		</g>
		<g id="XMLID_4978_">
			<g id="XMLID_4979_">
				
					<ellipse id="XMLID_4980_" transform="matrix(0.9723 -0.2338 0.2338 0.9723 -36.245 64.7947)" class="st3" cx="255.2" cy="185.3" rx="24.9" ry="9.2"/>
			</g>
		</g>
		<g id="XMLID_4975_">
			<g id="XMLID_4976_">
				
					<rect id="XMLID_4977_" x="60.5" y="176.3" transform="matrix(0.9723 -0.2338 0.2338 0.9723 -39.5126 24.1549)" class="st4" width="43.3" height="4.9"/>
			</g>
		</g>
		<g id="XMLID_4972_">
			<g id="XMLID_4973_">
				
					<rect id="XMLID_4974_" x="62.2" y="183.2" transform="matrix(0.9723 -0.2338 0.2338 0.9723 -41.0778 24.7332)" class="st4" width="43.3" height="4.9"/>
			</g>
		</g>
		<g id="XMLID_4969_">
			<g id="XMLID_4970_">
				
					<rect id="XMLID_4971_" x="63.8" y="190.1" transform="matrix(0.9723 -0.2338 0.2338 0.9723 -42.6432 25.3116)" class="st4" width="43.3" height="4.9"/>
			</g>
		</g>
		<g id="XMLID_4965_">
			<g id="XMLID_4966_">
				
					<rect id="XMLID_4968_" x="241.5" y="227.5" transform="matrix(0.9723 -0.2338 0.2338 0.9723 -46.4714 67.8844)" class="st4" width="43.3" height="4.9"/>
			</g>
		</g>
		<g id="XMLID_4961_">
			<g id="XMLID_4962_">
				
					<rect id="XMLID_4963_" x="243.1" y="234.4" transform="matrix(0.9723 -0.2338 0.2338 0.9723 -48.0364 68.4627)" class="st4" width="43.3" height="4.9"/>
			</g>
		</g>
		<g id="XMLID_4958_">
			<g id="XMLID_4959_">
				
					<rect id="XMLID_4960_" x="244.8" y="241.3" transform="matrix(0.9723 -0.2338 0.2338 0.9723 -49.6018 69.0411)" class="st4" width="43.3" height="4.9"/>
			</g>
		</g>
		<g id="XMLID_4955_">
			<g id="XMLID_4956_">
				<circle id="XMLID_4957_" class="st4" cx="106.8" cy="261.4" r="22.8"/>
			</g>
		</g>
		<g id="XMLID_4914_">
			<g id="XMLID_4949_">
				<g id="XMLID_4950_">
					<path id="XMLID_4951_" class="st4" d="M62.7,101.2c0,0.4,0,0.8-0.2,1.2c-0.1,0.3-0.4,0.6-0.6,0.8c-0.3,0.2-0.6,0.4-0.9,0.6
						c-0.3,0.1-0.7,0.3-1,0.3c-0.4,0.1-0.7,0.1-1.1,0.1c-0.4,0-0.7,0-1-0.1c-0.3-0.1-0.6-0.2-0.8-0.5c-0.2-0.2-0.4-0.4-0.4-0.8
						c-0.1-0.6-0.2-1.1-0.3-1.7c-0.1-0.5-0.1-1-0.1-1.6c0-1.8-0.1-3.4-0.1-5c0-1.5,0-3,0.1-4.3c0.1-1.4,0.1-2.7-0.1-3.9
						c-0.2-1.3-0.3-2.5-0.5-3.8c-0.2-1.3-0.4-2.5-0.7-3.9c-0.3-1.3-0.7-2.7-1.1-4.2c0-0.1-0.1-0.3-0.1-0.5c0-0.2-0.1-0.4-0.2-0.6
						c-0.1-0.2-0.2-0.3-0.3-0.4C53.2,73,53,73,52.8,73c-0.3,0.1-0.7,0.3-1.1,0.6c-0.4,0.4-0.8,0.8-1.3,1.3c-0.4,0.5-0.8,1.1-1.2,1.8
						c-0.4,0.7-0.7,1.4-1,2.1c0,0.2-0.1,0.4-0.3,0.6c-0.2,0.1-0.3,0.2-0.6,0.3c-0.1,0-0.2,0-0.3-0.1c-0.1-0.1-0.2-0.2-0.3-0.4
						c-0.1-0.2-0.2-0.3-0.3-0.5c-0.1-0.2-0.1-0.4-0.2-0.5c0-0.1,0-0.2,0-0.2c0.1-1.8,0.4-3.4,0.7-4.7c0.4-1.3,0.8-2.4,1.4-3.2
						c0.6-0.9,1.2-1.5,1.9-2c0.7-0.5,1.4-0.8,2.1-1c0.9-0.2,1.7-0.2,2.4,0c0.7,0.2,1.3,0.6,1.7,1.1c0.5,0.5,0.9,1.2,1.3,2
						c0.3,0.8,0.6,1.8,0.9,2.8c0.2,0.8,0.3,1.8,0.4,2.9c0.1,1.1,0.2,2.3,0.3,3.6c0.1,1.2,0.2,2.5,0.2,3.7c0,1.2,0,2.4,0,3.5
						c0-2,0.1-4,0.3-5.9c0.2-1.9,0.5-3.7,0.9-5.5c0.4-1.7,0.8-3.3,1.4-4.7c0.5-1.5,1.2-2.7,1.8-3.8c0.7-1.1,1.4-2,2.2-2.7
						c0.8-0.7,1.7-1.2,2.6-1.4c0.7-0.2,1.3-0.2,1.9,0c0.6,0.2,1.2,0.5,1.8,1c0.5,0.5,1,1.2,1.5,2.1c0.4,0.9,0.8,1.9,1.1,3.2
						c0,0.1,0.1,0.3,0.1,0.5c0,0.2,0.1,0.5,0.1,0.9c0,0.3,0.1,0.7,0.1,1.1c0,0.4,0.1,0.8,0.1,1.1c0.1,0.9,0.2,1.9,0.3,2.9l0.4-0.1
						c0-2.3,0.3-4.4,0.7-6.3c0.4-1.9,1-3.6,1.7-5c0.7-1.4,1.6-2.6,2.6-3.5c1-0.9,2.2-1.5,3.4-1.8c0.9-0.2,1.7-0.1,2.5,0.2
						c0.8,0.4,1.5,0.9,2.2,1.7c0.7,0.8,1.3,1.7,1.8,2.9c0.5,1.1,1,2.4,1.3,3.7c0.3,1.2,0.5,2.6,0.6,4c0.1,1.4,0.2,2.8,0.2,4.2
						c0.1,1.4,0.2,2.8,0.2,4.1c0.1,1.4,0.2,2.6,0.2,3.8c0.1,1.2,0.1,2.3,0.2,3.3c0.1,1,0.2,1.8,0.3,2.3c0.2,0.6,0.4,1,0.8,1.3
						c0.4,0.2,0.9,0.2,1.4,0.1c0.3-0.1,0.7-0.3,1-0.5c0.3-0.3,0.6-0.6,0.9-1c0.3-0.4,0.6-0.8,0.8-1.3c0.3-0.5,0.5-0.9,0.8-1.4
						c0.5-1.1,1-2.3,1.5-3.7c0,0,0.1,0.2,0.3,0.4c0.2,0.2,0.4,0.6,0.8,1.1c0.4,0.5,0.9,1.3,1.6,2.3c-0.4,1.4-0.9,2.7-1.5,3.8
						c-0.6,1.1-1.2,2-1.8,2.7c-0.7,0.7-1.4,1.3-2.1,1.8c-0.8,0.4-1.5,0.8-2.3,1c-0.8,0.2-1.6,0.2-2.4,0.1c-0.8-0.1-1.6-0.3-2.3-0.7
						c-0.7-0.4-1.3-1-1.9-1.7c-0.5-0.7-0.9-1.6-1.2-2.6c0-0.1-0.1-0.2-0.1-0.4c0-0.1,0-0.3-0.1-0.4c-0.2-1-0.3-2-0.4-3.2
						c-0.1-1.2-0.1-2.3-0.2-3.6c-0.1-1.2-0.1-2.5-0.2-3.8c-0.1-1.3-0.2-2.5-0.2-3.8c-0.1-1.3-0.1-2.5-0.2-3.7
						c-0.1-1.2-0.2-2.3-0.4-3.1c-0.2-0.6-0.3-1.2-0.5-1.7c-0.2-0.5-0.4-0.9-0.6-1.3c-0.2-0.3-0.5-0.6-0.8-0.7
						c-0.3-0.1-0.6-0.2-1.1-0.1c-0.8,0.2-1.5,0.6-2.1,1.4c-0.6,0.7-1.1,1.6-1.5,2.7c-0.4,1.1-0.8,2.3-1,3.8
						c-0.3,1.4-0.5,2.9-0.6,4.5c-0.1,1.6-0.2,3.3-0.2,5c0,1.7,0.1,3.5,0.1,5.3c0,1.8,0.1,3.6,0.2,5.2c0.2,1.6,0.3,3.2,0.3,4.7
						c0,0.4-0.1,0.8-0.2,1.1c-0.1,0.3-0.3,0.6-0.6,0.9c-0.2,0.2-0.5,0.4-0.8,0.6c-0.3,0.2-0.6,0.3-0.9,0.3c-0.3,0.1-0.6,0.1-0.9,0
						c-0.3,0-0.6-0.2-0.9-0.4c-0.3-0.2-0.5-0.5-0.8-0.8c-0.2-0.4-0.4-0.8-0.5-1.4c-0.4-0.3-0.6-0.9-0.6-1.9c0-1-0.1-2.1-0.2-3.4
						c-0.1-1.3-0.1-2.8-0.2-4.4c0-1.6-0.1-3.3-0.2-4.9c-0.1-1.6-0.2-3.2-0.2-4.8c-0.1-1.6-0.3-3.1-0.6-4.4c-0.2-0.9-0.4-1.7-0.6-2.4
						c-0.2-0.7-0.5-1.3-0.7-1.7c-0.3-0.5-0.6-0.8-1-1c-0.4-0.2-0.8-0.2-1.3-0.1c-0.4,0.1-0.8,0.5-1.2,1.2c-0.4,0.7-0.8,1.6-1.2,2.7
						c-0.4,1.1-0.8,2.4-1.1,3.9c-0.3,1.5-0.7,3-0.9,4.7c-0.3,1.7-0.5,3.4-0.7,5.2c-0.2,1.8-0.3,3.6-0.3,5.4c0,1.8,0,3.5,0,5.2
						C62.8,98.3,62.7,99.8,62.7,101.2z"/>
				</g>
			</g>
			<g id="XMLID_4944_">
				<g id="XMLID_4945_">
					<path id="XMLID_4946_" class="st4" d="M124.5,83c-0.2,0.5-0.5,1.2-0.9,2c-0.4,0.8-0.9,1.5-1.4,2.2c-0.6,0.7-1.2,1.4-1.9,2
						c-0.7,0.6-1.4,1-2.2,1.2c-1,0.2-1.8,0.1-2.6-0.3c-0.8-0.5-1.6-1.2-2.3-2.2c-0.3,0.5-0.6,1-1,1.5c-0.4,0.5-0.9,1-1.4,1.5
						c-0.5,0.5-1.1,0.9-1.7,1.3c-0.6,0.4-1.2,0.6-1.9,0.8c-0.7,0.2-1.4,0.2-2.1,0.1c-0.7-0.1-1.4-0.4-2-0.8c-0.6-0.4-1.2-1-1.7-1.6
						c-0.5-0.7-0.8-1.5-1.1-2.5c-0.3-1.1-0.4-2.2-0.3-3.4c0-1.2,0.2-2.5,0.5-4c0.3-1.5,0.7-2.8,1.2-3.9c0.5-1.1,1.1-2.2,1.8-3.1
						c0.7-0.9,1.5-1.7,2.3-2.4c0.9-0.7,1.8-1.1,2.8-1.3c0.3-0.1,0.6-0.1,0.8,0c0.2,0.1,0.4,0.2,0.6,0.3c0.2,0.1,0.3,0.3,0.5,0.4
						c0.2,0.1,0.3,0.2,0.5,0.2c0.2,0,0.4,0,0.6,0c0.2,0,0.4-0.1,0.6-0.1c0.2,0,0.3-0.1,0.5-0.1c0.2,0,0.3-0.1,0.5-0.1
						c0.2-0.1,0.4-0.1,0.6-0.1c0.2,0,0.4,0.1,0.6,0.2c0.2,0.1,0.3,0.3,0.5,0.5c0.1,0.2,0.3,0.6,0.4,1c0.2,0.7,0.3,1.5,0.3,2.3
						c0.1,0.9,0.1,1.8,0.1,2.7c0,0.9,0.1,2,0.1,3.2c0,1.2,0.1,2.2,0.3,2.9c0.2,0.7,0.3,1.2,0.6,1.5c0.2,0.3,0.5,0.5,0.9,0.4
						c0.3-0.1,0.6-0.2,0.9-0.5c0.3-0.2,0.6-0.5,0.9-0.8c0.3-0.3,0.6-0.7,0.8-1.1c0.3-0.4,0.5-0.8,0.7-1.2c0.5-0.9,1-2,1.5-3.1
						L124.5,83z M105.6,85.7c0.1,0.4,0.2,0.7,0.3,1.1c0.1,0.3,0.3,0.6,0.5,0.9c0.2,0.2,0.4,0.4,0.7,0.5c0.3,0.1,0.6,0.1,0.9,0.1
						c0.5-0.1,1-0.5,1.3-1c0.3-0.6,0.6-1.2,0.7-1.9c0.2-0.7,0.3-1.5,0.3-2.2c0-0.7,0-1.4,0-1.8l-0.1-7.4c-0.6,0.1-1.1,0.4-1.6,0.9
						c-0.5,0.4-0.9,1-1.3,1.6c-0.4,0.6-0.7,1.3-1,2c-0.3,0.7-0.5,1.6-0.7,2.7c-0.2,1-0.3,1.9-0.3,2.7
						C105.3,84.4,105.4,85.1,105.6,85.7z"/>
				</g>
			</g>
			<g id="XMLID_4938_">
				<g id="XMLID_4939_">
					<path id="XMLID_4940_" class="st4" d="M131.3,108c-0.7,0-1.3-0.1-1.9-0.3c-0.6-0.2-1.1-0.6-1.6-1.1c-0.5-0.5-0.8-1.2-1.1-2
						c-0.5-1.5-0.4-3.2,0.1-5.1c0.3-1.1,0.5-1.8,0.7-2.3c0.1-0.4,0.3-1,0.6-1.8c0.3-0.8,0.6-1.5,1-2.2c0.7-1.4,1.4-2.5,1.8-3.3
						c0.5-0.8,1.1-1.8,1.8-2.8l-0.2-2.7c-1.2,1.9-2.6,3.1-4.2,3.4c-1.1,0.3-2.2,0.2-3.3-0.3c-1.1-0.5-2-1.1-2.7-2
						c-1.3-1.6-1.8-3.7-1.6-6.3c0.2-2.4,0.5-4.5,0.9-6.1c0.4-1.6,1.1-3.2,2-4.5c1.4-2,2.9-3.2,4.6-3.6c0.7-0.2,1.3-0.1,1.8,0.2
						c0.1,0,0.1,0.1,0.3,0.2c0.1,0.1,0.2,0.2,0.2,0.2c0,0,0.1,0.1,0.2,0.1c0.1,0.1,0.2,0.1,0.3,0.1c0.1,0,0.2,0,0.3,0
						c0.1,0,0.3,0,0.4,0c0.2,0,0.3-0.1,0.5-0.1l0.9-0.3c0.6-0.2,1.1-0.1,1.5,0.3c0.1,0.1,0.3,0.3,0.4,0.6c0.3,0.4,0.7,1.9,1.1,4.4
						c0.1,0.8,0.2,1.8,0.1,3c0,1.2,0,2.6,0.3,4c0.2,1.4,0.5,3.3,0.8,5.6c0.4-0.3,0.7-0.8,1.1-1.2c1.4-1.7,2.7-4.5,4.1-8.5l2.6,4.5
						c-0.2,0.9-0.7,2-1.5,3.3c-0.8,1.3-1.5,2.3-2.1,3c-0.1,0.1-0.2,0.2-0.3,0.3c-1.2,1.2-2,2.1-2.5,2.7c-0.3,0.4-0.5,0.9-0.5,1.6
						c0,0.7,0.2,2,0.4,3.9c0.1,0.6,0.1,1,0.1,1.3c0.1,0.7,0.1,1.3,0.2,2c0.1,0.7,0.1,1.4,0.1,2.3c0,0.9-0.1,1.6-0.2,2.4
						c-0.1,0.7-0.3,1.5-0.6,2.3c-0.3,0.8-0.6,1.5-1.1,2.1c-0.4,0.6-1,1.1-1.7,1.6c-0.7,0.5-1.5,0.8-2.4,1
						C132.7,107.9,132,108,131.3,108z M131.9,96.4c-0.6,1.8-1,3.6-1.2,5.4c-0.1,1.5,0.3,2.1,1.2,1.9c0.3-0.1,0.6-0.2,0.9-0.4
						c0.2-0.2,0.5-0.4,0.6-0.6c0.2-0.3,0.3-0.6,0.4-0.9c0.1-0.3,0.2-0.7,0.3-1.3c0.1-0.5,0.1-1.1,0.2-1.6c0-0.5,0.1-1.2,0.1-2
						c0-0.4,0-0.9,0-1.4c-0.1-0.5-0.1-1.1-0.2-1.9c-0.1-0.8-0.1-1.2-0.2-1.4C133.2,93.2,132.5,94.6,131.9,96.4z M127.2,82.7
						c0.5,0.5,1,0.7,1.6,0.6c1-0.2,1.6-1.2,1.9-2.9c0.2-1.4,0.2-2.7-0.1-3.9l-0.1-7.6c-1.7,0.4-2.9,1.9-3.6,4.4
						c-0.8,2.7-1.2,4.5-1.1,5.4C126,80.5,126.4,81.9,127.2,82.7z"/>
				</g>
			</g>
			<g id="XMLID_4933_">
				<g id="XMLID_4934_">
					<path id="XMLID_4935_" class="st4" d="M166.5,72.9c-0.2,0.5-0.5,1.2-0.9,2c-0.4,0.8-0.9,1.5-1.4,2.2c-0.6,0.7-1.2,1.4-1.9,2
						c-0.7,0.6-1.4,1-2.2,1.2c-1,0.2-1.8,0.1-2.6-0.3c-0.8-0.5-1.6-1.2-2.3-2.2c-0.3,0.5-0.6,1-1,1.5c-0.4,0.5-0.9,1-1.4,1.5
						c-0.5,0.5-1.1,0.9-1.7,1.3c-0.6,0.4-1.2,0.6-1.9,0.8c-0.7,0.2-1.4,0.2-2.1,0.1c-0.7-0.1-1.4-0.4-2-0.8c-0.6-0.4-1.2-1-1.7-1.6
						c-0.5-0.7-0.8-1.5-1.1-2.5c-0.3-1.1-0.4-2.2-0.3-3.4c0-1.2,0.2-2.6,0.5-4c0.3-1.5,0.7-2.8,1.2-3.9c0.5-1.1,1.1-2.2,1.8-3.1
						c0.7-0.9,1.5-1.7,2.3-2.4c0.9-0.7,1.8-1.1,2.8-1.3c0.3-0.1,0.6-0.1,0.8,0c0.2,0.1,0.4,0.2,0.6,0.3c0.2,0.1,0.3,0.3,0.5,0.4
						c0.2,0.1,0.3,0.2,0.5,0.2c0.2,0,0.4,0,0.6,0c0.2,0,0.4-0.1,0.6-0.1c0.2,0,0.3-0.1,0.5-0.1c0.2,0,0.3-0.1,0.5-0.1
						c0.2-0.1,0.4-0.1,0.6-0.1c0.2,0,0.4,0.1,0.6,0.2c0.2,0.1,0.3,0.3,0.5,0.5c0.1,0.2,0.3,0.6,0.4,1c0.2,0.7,0.3,1.5,0.3,2.3
						c0.1,0.9,0.1,1.8,0.1,2.7c0,0.9,0.1,2,0.1,3.2c0,1.2,0.1,2.2,0.3,2.9c0.2,0.7,0.3,1.2,0.6,1.5c0.2,0.3,0.5,0.5,0.9,0.4
						c0.3-0.1,0.6-0.2,0.9-0.5c0.3-0.2,0.6-0.5,0.9-0.8c0.3-0.3,0.6-0.7,0.8-1.1c0.3-0.4,0.5-0.8,0.7-1.2c0.5-0.9,1-2,1.5-3.1
						L166.5,72.9z M147.5,75.6c0.1,0.4,0.2,0.7,0.3,1.1c0.1,0.3,0.3,0.6,0.5,0.9c0.2,0.2,0.4,0.4,0.7,0.5c0.3,0.1,0.6,0.1,0.9,0.1
						c0.5-0.1,1-0.5,1.3-1c0.3-0.6,0.6-1.2,0.7-1.9c0.2-0.7,0.3-1.5,0.3-2.2c0-0.7,0-1.4,0-1.8l-0.1-7.4c-0.6,0.1-1.1,0.4-1.6,0.9
						c-0.5,0.4-0.9,1-1.3,1.6c-0.4,0.6-0.7,1.3-1,2c-0.3,0.7-0.5,1.6-0.7,2.7c-0.2,1-0.3,1.9-0.3,2.7
						C147.3,74.3,147.4,75,147.5,75.6z"/>
				</g>
			</g>
			<g id="XMLID_4929_">
				<g id="XMLID_4930_">
					<path id="XMLID_4931_" class="st4" d="M162.9,75.3c-0.1-0.3-0.1-0.6,0-0.8c0.1-0.2,0.2-0.5,0.3-0.7c0.1-0.2,0.3-0.5,0.5-0.7
						c0.2-0.3,0.4-0.6,0.6-0.9l4.6-11.3c-0.3-0.1-0.5-0.1-0.8-0.2c-0.2-0.1-0.4-0.1-0.6-0.2c-0.2,0-0.3-0.1-0.5-0.1
						c-0.2,0-0.4,0-0.5,0.1c-0.5,0.1-0.8,0.2-1.1,0.3c-0.3,0.1-0.5,0.2-0.7,0.3c-0.2,0.1-0.3,0.3-0.5,0.5c-0.1,0.2-0.3,0.5-0.4,0.8
						c-0.3,0.8-0.5,1.4-0.8,1.8c-0.2,0.4-0.5,0.6-0.7,0.7c-0.2,0.1-0.4,0-0.6-0.2c-0.1-0.2-0.3-0.5-0.3-0.8c0-0.1-0.1-0.3-0.1-0.5
						c0-0.2,0-0.3-0.1-0.5c-0.1-1.3,0-2.4,0.2-3.3c0.2-0.9,0.5-1.6,0.9-2.1c0.4-0.5,0.8-1,1.3-1.2c0.5-0.3,1-0.5,1.4-0.6
						c0.3-0.1,0.7-0.1,1.1,0c0.4,0.1,0.8,0.2,1.2,0.3c0.4,0.1,0.8,0.2,1.2,0.3c0.4,0.1,0.8,0.1,1.2,0c0.3-0.1,0.6-0.1,0.8-0.2
						c0.2-0.1,0.5-0.1,0.7-0.2c0.6-0.1,1-0.3,1.4-0.4c0.3-0.1,0.6-0.2,0.8-0.3c0.2-0.1,0.3-0.1,0.4-0.2c0.1,0,0.1-0.1,0.2-0.1
						c0.5-0.1,0.9,0,1.2,0.3c0.3,0.3,0.5,0.8,0.7,1.4c0.1,0.5,0.2,0.9,0.2,1.3c0,0.1-0.1,0.3-0.3,0.6c-0.2,0.2-0.6,0.5-1.2,0.8
						c-0.1,0.4-0.3,0.9-0.5,1.6c-0.3,0.7-0.6,1.4-0.9,2.3c-0.4,0.8-0.7,1.8-1.2,2.9c-0.4,1.1-0.8,2-1.2,2.8
						c-0.3,0.8-0.7,1.5-0.9,2.1c-0.3,0.6-0.4,1-0.5,1.2l0,0.5c0,0,0.2,0,0.4,0.1c0.3,0,0.6,0.1,0.9,0.1c0.4,0,0.7,0.1,1.1,0.1
						c0.4,0,0.7,0,1-0.1c0.6-0.1,1.1-0.4,1.6-0.7c0.5-0.3,0.9-0.6,1.2-1c0.4-0.4,0.7-0.8,1-1.2c0.3-0.4,0.6-0.8,0.8-1.1
						s0.6-0.7,0.8-0.9c0.3-0.3,0.6-0.4,1-0.5c0.3-0.1,0.5-0.1,0.8,0c0.3,0.1,0.5,0.2,0.7,0.4c0.2,0.2,0.4,0.4,0.5,0.6
						c0.1,0.2,0.2,0.5,0.3,0.7c0.1,0.4,0,0.9-0.2,1.4c-0.2,0.5-0.5,1.1-1,1.6c-0.4,0.6-1,1.1-1.6,1.6c-0.6,0.5-1.3,1.1-2,1.5
						c-0.7,0.5-1.4,0.9-2.2,1.3c-0.8,0.4-1.5,0.6-2.2,0.8c-0.1,0-0.2,0-0.5,0c-0.3,0-0.6,0-1,0c-0.4,0-0.9-0.1-1.5-0.2
						c-0.6-0.1-1.2-0.2-1.9-0.4c-0.5,0.3-1,0.5-1.4,0.6c-0.4,0.1-0.8,0.1-1.2,0.1c-0.4-0.1-0.7-0.2-0.9-0.4
						c-0.3-0.2-0.5-0.4-0.7-0.7C163.1,76,163,75.7,162.9,75.3z"/>
				</g>
			</g>
			<g id="XMLID_4924_">
				<g id="XMLID_4925_">
					<path id="XMLID_4926_" class="st4" d="M192,67.5c-0.4,0.6-0.9,1.3-1.6,2c-0.6,0.7-1.4,1.4-2.1,2.1c-0.8,0.7-1.6,1.3-2.5,1.8
						c-0.9,0.5-1.7,0.9-2.5,1.1c-0.7,0.2-1.4,0.2-2,0.1c-0.6-0.1-1-0.3-1.5-0.6c-0.4-0.3-0.7-0.7-1-1.2c-0.3-0.5-0.5-1.1-0.6-1.7
						c-0.2-0.9-0.4-2-0.5-3.3c-0.2-2.6-0.3-4.1-0.2-4.4c0.1-0.7,0.1-2.1,0.2-4.4c0.1-1.9,0.2-3.1,0.2-3.6c0-0.4,0.1-0.8,0.4-1.1
						c0.2-0.3,0.5-0.6,0.9-0.9c0.3-0.3,0.7-0.5,1.1-0.7c0.4-0.2,0.7-0.3,1.1-0.4c0.6-0.1,1-0.1,1.3,0c0.3,0.2,0.4,0.4,0.5,0.8
						c0.1,0.3,0.1,0.8,0.1,1.4c0,0.6,0,1.3,0,2.1c0,0.8-0.1,1.8-0.2,3.1c-0.1,1.3-0.1,2.3,0,3.2c0.1,0.9,0.1,1.7,0.1,2.6
						c0,0.9,0.1,1.6,0.2,2.3c0.2,0.6,0.4,1.1,0.6,1.5c0.2,0.3,0.6,0.5,1,0.4c0.5-0.1,1.1-0.4,1.6-1c0.6-0.5,1.1-1.1,1.6-1.8
						c0.5-0.7,1-1.3,1.5-2c0.5-0.7,0.9-1.3,1.3-1.8L192,67.5z M176.9,47.1c-0.1-0.3-0.1-0.7-0.1-1.2c0-0.5,0.2-0.9,0.4-1.4
						c0.2-0.4,0.6-0.9,1.1-1.3c0.5-0.4,1.1-0.7,1.9-0.9c0.5-0.1,1-0.2,1.5-0.2c0.5,0,0.9,0.1,1.3,0.3c0.4,0.2,0.7,0.4,1,0.8
						c0.3,0.3,0.5,0.8,0.6,1.3c0.1,0.5,0.2,1,0.1,1.5c0,0.5-0.2,1-0.5,1.4c-0.3,0.4-0.6,0.8-1.1,1.2c-0.5,0.4-1.1,0.6-1.8,0.8
						c-1.3,0.3-2.3,0.2-3-0.2C177.7,48.9,177.2,48.2,176.9,47.1z"/>
				</g>
			</g>
			<g id="XMLID_4920_">
				<g id="XMLID_4921_">
					<path id="XMLID_4922_" class="st4" d="M190.6,68c-0.2-1-0.4-2.1-0.6-3.3c-0.2-1.3-0.4-2.7-0.6-4.2c-0.2-1.5-0.3-2.9-0.4-4.2
						c-0.1-1.2-0.1-2.3-0.1-3.2c0-0.7,0.2-1.3,0.5-1.9c0.3-0.6,0.9-0.9,1.7-1.1c0.8-0.2,1.4-0.1,1.8,0.3c0.4,0.4,0.7,1,0.9,1.8
						c0.1,0.2,0.1,0.5,0.1,0.9c0,0.4,0.1,0.8,0.1,1.3c0,0.5,0.1,0.9,0.1,1.4c0,0.5,0.1,1,0.2,1.6c0.1,0.6,0.1,1.1,0.2,1.4
						c0,0.3,0.1,0.5,0.1,0.6l0.4-0.1c0-0.2,0.1-0.5,0.2-0.9c0.1-0.4,0.2-1,0.3-1.7c0.1-0.7,0.2-1.4,0.4-2c0.2-0.6,0.3-1.1,0.4-1.7
						c0.1-0.5,0.3-1,0.4-1.4c0.1-0.4,0.2-0.7,0.3-0.9c0.3-0.9,0.7-1.5,1.2-2c0.5-0.4,1.1-0.7,1.9-0.9c0.7-0.2,1.4,0,1.9,0.5
						c0.6,0.5,1,1.3,1.2,2.4c0,0.2,0.1,0.4,0.1,0.8c0,0.4,0,0.9,0.1,1.4c0,0.5,0.1,1.2,0.1,2.1c0.1,0.9,0.1,1.6,0.2,2.3
						c0.1,0.7,0.1,1.3,0.2,2c0.1,0.6,0.2,1.2,0.3,1.8c0.2,0.9,0.5,1.6,0.9,2.1c0.4,0.5,0.8,0.7,1.3,0.6c0.2,0,0.4-0.2,0.7-0.4
						c0.4-0.3,0.7-0.5,0.8-0.7c0.5-0.6,0.8-1,0.8-1c0,0,0.5-0.4,1.2-1.2c1-1,2.1-2.2,3.5-3.7l1.1,4.8l-0.9,1.1
						c-0.1,0.1-0.7,0.6-1.8,1.6c-1.6,1.4-2.6,2.3-3,2.6c-1,0.8-1.6,1.2-1.9,1.4c-0.7,0.4-1.4,0.7-2.2,0.9c-0.8,0.2-1.6-0.2-2.4-1.2
						c-0.8-1-1.5-2.6-2-4.8c-0.2-0.9-0.4-1.8-0.5-2.8c-0.1-1-0.2-2.1-0.3-3.3l-0.3,0.1l-3,12.6c-0.2,0.7-0.4,1.2-0.7,1.4
						c-0.3,0.3-0.7,0.5-1.2,0.6c-0.6,0.1-1.1,0.1-1.5,0c-0.4-0.2-0.8-0.4-1.1-0.8c-0.3-0.4-0.5-0.8-0.7-1.4
						C190.9,69.1,190.7,68.5,190.6,68z"/>
				</g>
			</g>
			<g id="XMLID_4915_">
				<g id="XMLID_4916_">
					<path id="XMLID_4917_" class="st4" d="M219.9,65.7c-1.3,0.3-2.6,0.4-3.7,0.1c-1.1-0.3-2.1-0.7-3-1.4c-0.9-0.7-1.6-1.5-2.2-2.6
						c-0.6-1-1.1-2.2-1.3-3.4c-0.2-0.8-0.3-1.8-0.2-3c0-1.2,0.1-2.2,0.2-3.2c0.1-0.9,0.3-1.8,0.6-2.7c0.3-0.9,0.7-1.7,1.2-2.5
						c0.5-0.7,1.1-1.4,1.9-1.9c0.7-0.5,1.6-0.9,2.6-1.2c0.8-0.2,1.6-0.2,2.3-0.2c0.8,0.1,1.4,0.3,2.1,0.7c0.6,0.3,1.2,0.8,1.6,1.4
						c0.5,0.6,0.8,1.3,1,2.1c0.2,0.9,0.2,1.9-0.2,3.2c-0.3,1.2-0.8,2.3-1.4,3.3c-0.6,1-1.4,1.9-2.3,2.7c-0.9,0.9-2,1.6-3.2,2.3
						c0.3,0.3,0.6,0.6,0.9,0.8c0.3,0.2,0.5,0.4,0.8,0.4c0.3,0.1,0.5,0.1,0.8,0.1c0.3,0,0.5,0,0.8-0.1c0.9-0.2,1.7-0.6,2.6-1.2
						c0.9-0.6,1.7-1.2,2.5-1.9c0.8-0.7,1.5-1.5,2.2-2.3c0.7-0.8,1.2-1.5,1.6-2.2l3.5,2.2c-0.9,1.7-2,3.2-3.2,4.6
						c-0.5,0.6-1.1,1.2-1.7,1.8c-0.6,0.6-1.3,1.2-2,1.7c-0.7,0.5-1.5,1-2.3,1.4C221.6,65.2,220.7,65.5,219.9,65.7z M214.5,56.1
						c0.5-0.1,1.1-0.4,1.6-0.8c0.6-0.4,1-0.9,1.5-1.4c0.4-0.5,0.8-1.2,1.2-2c0.3-0.8,0.5-1.4,0.3-1.9c-0.2-0.6-0.4-1.1-0.7-1.5
						c-0.3-0.4-0.7-0.5-1-0.4c-0.6,0.1-1.1,0.4-1.5,0.7c-0.4,0.3-0.7,0.7-0.9,1.1c-0.2,0.4-0.4,0.9-0.4,1.4
						c-0.1,0.5-0.1,1.1-0.2,1.9c-0.1,0.7-0.1,1.3,0,1.8C214.4,55.4,214.4,55.8,214.5,56.1z"/>
				</g>
			</g>
		</g>
		<g id="XMLID_4911_">
			<g id="XMLID_4912_">
				
					<rect id="XMLID_4913_" x="198.5" y="291.2" transform="matrix(0.9723 -0.2338 0.2338 0.9723 -61.6543 66.2892)" class="st2" width="100.7" height="4.1"/>
			</g>
		</g>
	</g>
	
		<rect id="XMLID_4909_" x="67" y="315.5" transform="matrix(0.9723 -0.2338 0.2338 0.9723 -69.9924 53.6894)" class="st6" width="249" height="13.2"/>
</g>
</svg>
