<?xml version="1.0" encoding="utf-8"?>
<!-- Generator: Adobe Illustrator 19.0.0, SVG Export Plug-In . SVG Version: 6.00 Build 0)  -->
<svg version="1.1" id="Layer_1" xmlns="http://www.w3.org/2000/svg" xmlns:xlink="http://www.w3.org/1999/xlink" x="0px" y="0px"
	 width="393.6px" height="332.9px" viewBox="0 0 393.6 332.9" style="enable-background:new 0 0 393.6 332.9;" xml:space="preserve"
	>
<style type="text/css">
	.st0{fill:#BFBFBF;}
	.st1{fill:#E5E5E5;}
	.st2{fill:#A5A5A5;}
	.st3{fill:#919191;}
	.st4{fill:#212126;}
</style>
<g id="XMLID_5149_">
	<polygon id="XMLID_5411_" class="st0" points="387.4,300.9 22.7,332.9 0,30.5 353.9,0 	"/>
	<polygon id="XMLID_5410_" class="st1" points="375.3,24.5 370.9,28.4 366.1,24.9 361.6,28.8 356.8,25.3 352.3,29.3 347.5,25.8 
		343.1,29.7 338.2,26.2 333.8,30.1 329,26.6 324.5,30.6 319.7,27.1 315.2,31 310.4,27.5 306,31.5 301.2,27.9 296.7,31.9 291.9,28.4 
		287.4,32.3 282.6,28.8 278.1,32.8 273.3,29.2 268.9,33.2 264.1,29.7 259.6,33.6 254.8,30.1 250.3,34.1 245.5,30.6 241,34.5 
		236.2,31 231.8,34.9 227,31.4 222.5,35.4 217.7,31.9 213.2,35.8 208.4,32.3 204,36.2 199.1,32.7 194.7,36.7 189.9,33.2 185.4,37.1 
		180.6,33.6 176.1,37.5 171.3,34 166.9,38 162,34.5 157.6,38.4 152.8,34.9 148.3,38.8 143.5,35.3 139,39.3 134.2,35.8 129.8,39.7 
		125,36.2 120.5,40.1 115.7,36.6 111.2,40.6 106.4,37.1 101.9,41 97.1,37.5 92.7,41.5 87.9,37.9 83.4,41.9 78.6,38.4 74.1,42.3 
		69.3,38.8 64.8,42.8 60,39.2 55.6,43.2 50.8,39.7 46.3,43.6 41.5,40.1 37,44.1 32.2,40.6 27.8,44.5 22.9,41 18.5,44.9 13.7,41.4 
		9.2,45.4 22.7,332.9 393.6,315.5 380.2,28 	"/>
	<g id="XMLID_5405_">
		
			<rect id="XMLID_5409_" x="21.6" y="58.1" transform="matrix(0.9989 -4.682058e-02 4.682058e-02 0.9989 -2.751 2.9882)" class="st0" width="81.5" height="4.3"/>
		
			<rect id="XMLID_5408_" x="22.1" y="67.8" transform="matrix(0.9989 -4.682058e-02 4.682058e-02 0.9989 -3.2064 3.0202)" class="st0" width="81.5" height="4.3"/>
		
			<rect id="XMLID_5407_" x="287.8" y="45.6" transform="matrix(0.9989 -4.682058e-02 4.682058e-02 0.9989 -1.875 15.4362)" class="st0" width="81.5" height="4.3"/>
		
			<rect id="XMLID_5406_" x="288.3" y="55.3" transform="matrix(0.9989 -4.682058e-02 4.682058e-02 0.9989 -2.3304 15.4682)" class="st0" width="81.5" height="4.3"/>
	</g>
	<g id="XMLID_5402_">
		
			<rect id="XMLID_5404_" x="22.3" y="73.3" transform="matrix(0.9989 -4.682058e-02 4.682058e-02 0.9989 -3.3162 9.2792)" class="st0" width="348.2" height="4.3"/>
		
			<rect id="XMLID_5403_" x="22.9" y="85" transform="matrix(0.9989 -4.682058e-02 4.682058e-02 0.9989 -3.8638 9.3177)" class="st0" width="348.2" height="4.3"/>
	</g>
	<g id="XMLID_5379_">
		
			<rect id="XMLID_5401_" x="25.6" y="143.6" transform="matrix(0.9989 -4.682058e-02 4.682058e-02 0.9989 -6.6081 9.5108)" class="st0" width="348.2" height="4.3"/>
		
			<rect id="XMLID_5387_" x="26.2" y="155.4" transform="matrix(0.9989 -4.682058e-02 4.682058e-02 0.9989 -7.1558 9.5493)" class="st0" width="348.2" height="4.3"/>
	</g>
	<g id="XMLID_5348_">
		
			<rect id="XMLID_5357_" x="23.9" y="105.8" transform="matrix(0.9989 -4.682058e-02 4.682058e-02 0.9989 -5.1745 3.4104)" class="st2" width="92.6" height="12.7"/>
		
			<rect id="XMLID_5356_" x="25" y="128.5" transform="matrix(0.9989 -4.682058e-02 4.682058e-02 0.9989 -6.2531 2.7424)" class="st2" width="60.9" height="12.7"/>
		
			<rect id="XMLID_5355_" x="99.1" y="122.9" transform="matrix(0.9989 -4.682058e-02 4.682058e-02 0.9989 -5.8614 8.3087)" class="st2" width="150.6" height="12.7"/>
		
			<rect id="XMLID_5353_" x="262.4" y="116.2" transform="matrix(0.9989 -4.682058e-02 4.682058e-02 0.9989 -5.3901 15.0055)" class="st2" width="110.4" height="12.7"/>
		
			<rect id="XMLID_5352_" x="130.6" y="102.4" transform="matrix(0.9989 -4.682058e-02 4.682058e-02 0.9989 -4.9337 6.8323)" class="st2" width="25.5" height="12.7"/>
		
			<rect id="XMLID_5351_" x="164.1" y="100.3" transform="matrix(0.9989 -4.682058e-02 4.682058e-02 0.9989 -4.7883 8.8979)" class="st2" width="46.8" height="12.7"/>
		
			<rect id="XMLID_5350_" x="222.8" y="96.4" transform="matrix(0.9989 -4.682058e-02 4.682058e-02 0.9989 -4.5137 12.7996)" class="st2" width="96.4" height="12.7"/>
		
			<rect id="XMLID_5349_" x="329.7" y="92.7" transform="matrix(0.9989 -4.682058e-02 4.682058e-02 0.9989 -4.2513 16.5296)" class="st2" width="42.1" height="12.7"/>
	</g>
	<g id="XMLID_5345_">
		<polygon id="XMLID_5347_" class="st3" points="122.8,52.2 125.3,58.5 132.1,58.3 126.9,62.6 129.1,69 123.4,65.4 118,69.5 
			119.7,63 114.1,59.1 120.8,58.7 		"/>
		<polygon id="XMLID_5346_" class="st3" points="267.7,45.4 270.3,51.7 277,51.5 271.8,55.8 274.1,62.2 268.4,58.6 263,62.7 
			264.6,56.2 259,52.3 265.8,51.9 		"/>
	</g>
	<g id="XMLID_5336_">
		<path id="XMLID_5343_" class="st4" d="M160.6,65.4l-2.9,0.1l-7.9-11.3l0.5,11.7l-2.6,0.1l-0.7-15.8l2.9-0.1l7.8,11.3l-0.5-11.7
			l2.7-0.1L160.6,65.4z"/>
		<path id="XMLID_5341_" class="st4" d="M185.7,50.7l-8.7,0.4l0.2,4.2l8-0.4l0.1,2.2l-8,0.4l0.2,4.7l8.8-0.4l0.1,2.4l-11.5,0.5
			l-0.7-15.8l11.4-0.5L185.7,50.7z"/>
		<path id="XMLID_5339_" class="st4" d="M200.7,47.6l3.5,11.9l2.7-12.2l2.8-0.1l3.7,11.9l2.4-12.2l2.8-0.1l-3.6,16l-2.8,0.1l-3.8-12
			l-2.7,12.3l-2.9,0.1l-4.9-15.6L200.7,47.6z"/>
		<path id="XMLID_5337_" class="st4" d="M240.4,50.4c-0.3-2-1.6-2.7-3.6-2.6c-1.9,0.1-3,1-2.9,2.3c0.1,1.5,1.1,1.6,4.1,2.2
			c2.7,0.6,5.8,1.1,5.9,4.5c0.2,3.6-2.9,5.1-6.1,5.3c-3.8,0.2-6.8-1.5-6.9-5.3l2.7-0.1c0.1,2.4,2,3.3,4.2,3.2
			c2.1-0.1,3.4-1.1,3.3-2.7c-0.1-1.6-1.4-1.9-3.8-2.4c-3.4-0.7-6-1.1-6.2-4.4c-0.1-2.8,2.1-4.7,5.6-4.9c3.2-0.2,5.8,1.2,6.1,4.7
			L240.4,50.4z"/>
	</g>
	<g id="XMLID_5333_">
		
			<rect id="XMLID_5335_" x="30.3" y="174.6" transform="matrix(0.9989 -4.682058e-02 4.682058e-02 0.9989 -11.2841 5.1823)" class="st2" width="149.4" height="137.8"/>
		
			<rect id="XMLID_5334_" x="39.8" y="172.5" transform="matrix(4.682058e-02 0.9989 -0.9989 4.682058e-02 343.2673 127.1994)" class="st0" width="130.3" height="142"/>
	</g>
	
		<rect id="XMLID_5332_" x="190.1" y="169.5" transform="matrix(0.9989 -4.682058e-02 4.682058e-02 0.9989 -8.0504 10.1087)" class="st2" width="43.3" height="14.8"/>
	
		<rect id="XMLID_5331_" x="245.8" y="167.3" transform="matrix(0.9989 -4.682058e-02 4.682058e-02 0.9989 -7.8972 12.2856)" class="st2" width="25.1" height="14.8"/>
	
		<rect id="XMLID_5330_" x="282.6" y="164" transform="matrix(0.9989 -4.682058e-02 4.682058e-02 0.9989 -7.665 15.5848)" class="st2" width="92.6" height="14.8"/>
	<g id="XMLID_5320_">
		
			<rect id="XMLID_5329_" x="193.6" y="248.6" transform="matrix(0.9989 -4.682058e-02 4.682058e-02 0.9989 -11.4503 11.3642)" class="st0" width="86.6" height="3"/>
		
			<rect id="XMLID_5328_" x="193.9" y="255.1" transform="matrix(0.9989 -4.682058e-02 4.682058e-02 0.9989 -11.754 11.3856)" class="st0" width="86.6" height="3"/>
		
			<rect id="XMLID_5327_" x="194.2" y="261.6" transform="matrix(0.9989 -4.682058e-02 4.682058e-02 0.9989 -12.0576 11.407)" class="st0" width="86.6" height="3"/>
		
			<rect id="XMLID_5326_" x="194.5" y="268.1" transform="matrix(0.9989 -4.682058e-02 4.682058e-02 0.9989 -12.3612 11.4283)" class="st0" width="86.6" height="3"/>
		
			<rect id="XMLID_5325_" x="194.8" y="274.6" transform="matrix(0.9989 -4.682058e-02 4.682058e-02 0.9989 -12.6648 11.4497)" class="st0" width="86.6" height="3"/>
		
			<rect id="XMLID_5324_" x="195.1" y="281" transform="matrix(0.9989 -4.682058e-02 4.682058e-02 0.9989 -12.9684 11.4711)" class="st0" width="86.6" height="3"/>
		
			<rect id="XMLID_5323_" x="195.4" y="287.5" transform="matrix(0.9989 -4.682058e-02 4.682058e-02 0.9989 -13.2721 11.4924)" class="st0" width="86.6" height="3"/>
		
			<rect id="XMLID_5322_" x="195.7" y="294" transform="matrix(0.9989 -4.682058e-02 4.682058e-02 0.9989 -13.5757 11.5138)" class="st0" width="86.6" height="3"/>
		
			<rect id="XMLID_5321_" x="196" y="301.9" transform="matrix(0.9989 -4.682058e-02 4.682058e-02 0.9989 -13.9727 10.2069)" class="st0" width="29.7" height="3"/>
	</g>
	<g id="XMLID_5307_">
		
			<rect id="XMLID_5319_" x="289.1" y="244" transform="matrix(0.9989 -4.682058e-02 4.682058e-02 0.9989 -11.1311 15.9003)" class="st0" width="89.5" height="3"/>
		
			<rect id="XMLID_5318_" x="289.4" y="250.5" transform="matrix(0.9989 -4.682058e-02 4.682058e-02 0.9989 -11.4348 15.9217)" class="st0" width="89.5" height="3"/>
		
			<rect id="XMLID_5315_" x="289.7" y="257" transform="matrix(0.9989 -4.682058e-02 4.682058e-02 0.9989 -11.7384 15.9431)" class="st0" width="89.5" height="3"/>
		
			<rect id="XMLID_5313_" x="290" y="263.5" transform="matrix(0.9989 -4.682058e-02 4.682058e-02 0.9989 -12.042 15.9644)" class="st0" width="89.5" height="3"/>
		
			<rect id="XMLID_5312_" x="290.3" y="270" transform="matrix(0.9989 -4.682058e-02 4.682058e-02 0.9989 -12.3456 15.9858)" class="st0" width="89.5" height="3"/>
		
			<rect id="XMLID_5311_" x="290.6" y="276.5" transform="matrix(0.9989 -4.682058e-02 4.682058e-02 0.9989 -12.6492 16.0072)" class="st0" width="89.5" height="3"/>
		
			<rect id="XMLID_5310_" x="290.9" y="283" transform="matrix(0.9989 -4.682058e-02 4.682058e-02 0.9989 -12.9529 16.0285)" class="st0" width="89.5" height="3"/>
		
			<rect id="XMLID_5309_" x="291.2" y="289.5" transform="matrix(0.9989 -4.682058e-02 4.682058e-02 0.9989 -13.2565 16.0499)" class="st0" width="89.5" height="3"/>
		
			<rect id="XMLID_5308_" x="291.5" y="296.6" transform="matrix(0.9989 -4.682058e-02 4.682058e-02 0.9989 -13.6049 15.4333)" class="st0" width="62.2" height="3"/>
	</g>
	<g id="XMLID_5298_">
		
			<rect id="XMLID_5306_" x="190.7" y="187.3" transform="matrix(0.9989 -4.682058e-02 4.682058e-02 0.9989 -8.5278 13.4724)" class="st0" width="185.1" height="3"/>
		
			<rect id="XMLID_5305_" x="191.1" y="194.3" transform="matrix(0.9989 -4.682058e-02 4.682058e-02 0.9989 -8.8559 13.4955)" class="st0" width="185.1" height="3"/>
		
			<rect id="XMLID_5304_" x="191.4" y="201.3" transform="matrix(0.9989 -4.682058e-02 4.682058e-02 0.9989 -9.1841 13.5186)" class="st0" width="185.1" height="3"/>
		
			<rect id="XMLID_5303_" x="191.7" y="208.3" transform="matrix(0.9989 -4.682058e-02 4.682058e-02 0.9989 -9.5123 13.5417)" class="st0" width="185.1" height="3"/>
		
			<rect id="XMLID_5302_" x="192.1" y="215.3" transform="matrix(0.9989 -4.682058e-02 4.682058e-02 0.9989 -9.8405 13.5648)" class="st0" width="185.1" height="3"/>
		
			<rect id="XMLID_5301_" x="192.4" y="222.3" transform="matrix(0.9989 -4.682058e-02 4.682058e-02 0.9989 -10.1686 13.5878)" class="st0" width="185.1" height="3"/>
		
			<rect id="XMLID_5300_" x="192.7" y="229.4" transform="matrix(0.9989 -4.682058e-02 4.682058e-02 0.9989 -10.4969 13.6109)" class="st0" width="185.1" height="3"/>
		
			<rect id="XMLID_5299_" x="193.1" y="237.4" transform="matrix(0.9989 -4.682058e-02 4.682058e-02 0.9989 -10.8974 12.6057)" class="st0" width="141.1" height="3"/>
	</g>
</g>
</svg>
