<!-- Generator: Adobe Illustrator 18.0.0, SVG Export Plug-In  -->
<svg version="1.1"
	 xmlns="http://www.w3.org/2000/svg" xmlns:xlink="http://www.w3.org/1999/xlink" xmlns:a="http://ns.adobe.com/AdobeSVGViewerExtensions/3.0/"
	 x="0px" y="0px" width="39.9px" height="9.9px" viewBox="0 0 39.9 9.9" enable-background="new 0 0 39.9 9.9" xml:space="preserve"
	>
<defs>
</defs>
<g>
	<path fill="#323232" d="M1.1,0.7c-0.2,0-0.3,0-0.3,0.1l0,0.6c0,0.1,0,0.3,0,0.4c0,0.2,0,0.3,0,0.4c0,0.1,0,0.2,0,0.2
		c0,0.4-0.1,0.9-0.1,1.4c0,0.2,0.1,0.3,0.3,0.3c0.1,0,0.2,0,0.4,0c0.2,0,0.3,0.1,0.3,0.3c0,0.2-0.1,0.3-0.3,0.3s-0.3,0-0.4,0
		C0.7,4.7,0.6,4.9,0.6,5c0,0.2,0,0.4,0,0.8c0.1,2.1,0.1,3.3,0.1,3.4c0,0.2-0.1,0.3-0.3,0.3S0.1,9.4,0.1,9.2c0-0.2,0-1.3-0.1-3.4
		c0-1.4,0-2.5,0.1-3.5c0,0,0-0.1,0-0.2c0-0.1,0-0.2,0-0.4c0-0.2,0-0.3,0-0.4c0-0.3,0-0.5,0-0.6c0-0.1,0-0.2,0-0.2c0,0,0,0,0-0.1
		c0,0,0.1-0.2,0.1-0.2l0,0l0.1-0.1h0.1c0,0,0.1,0,0.1,0h0.3C1.4,0,2.9,0,3.3,0c0.2,0,0.3,0.1,0.3,0.3c0,0.2-0.1,0.3-0.3,0.3
		c-0.4,0-1.9,0-2.4,0.1H1.1z"/>
	<path fill="#323232" d="M5.2,0.3c0,1.2,0,3-0.1,5.1c0,0.5,0,1.2,0,2c0,1.1,0.1,1.7,0.1,2.1c0,0.2-0.1,0.3-0.3,0.3S4.7,9.7,4.7,9.5
		c0-0.3,0-1-0.1-2c0-0.9,0-1.5,0-2.1c0.1-2.2,0.1-3.9,0.1-5.1C4.6,0.2,4.7,0,4.9,0S5.2,0.2,5.2,0.3z"/>
	<path fill="#323232" d="M8.6,7c0-0.4,0-1.1,0-2.1c-0.1-2,0-3.3,0.1-4.7C8.7,0.1,8.8,0,9,0c0.2,0,0.3,0.2,0.3,0.4
		C9.1,1.7,9.1,3,9.2,5c0,1,0,1.7,0,2.1v1.2c0,0.3,0,0.5,0,0.7c0,0.1,0,0.2,0,0.2c0,0.1-0.1,0.2-0.2,0.3c-0.1,0.1-0.3,0-0.4,0
		c0,0,0,0,0-0.1c0,0,0-0.1-0.1-0.1c0,0,0-0.1-0.1-0.2L8.2,8.5L7.8,7.2C7.6,6.6,7.4,5.7,7.1,4.7C7,4.1,6.9,3.7,6.8,3.3
		C6.7,3,6.5,2.4,6.5,2.4c0,0.4,0,0.8,0,1c0,0.4,0,1.1,0,2c0,0.9-0.1,1.6-0.1,2c0,0.5,0,1.1,0.1,1.9c0,0.2-0.1,0.3-0.3,0.4
		C6,9.7,5.9,9.6,5.9,9.4C5.8,8.9,5.8,8.3,5.8,7.6s0-1.5,0.1-2.3c0-0.8,0-1.5,0-1.8c0-0.2,0-0.6,0-1.1c0-0.4,0-0.8,0-1V0.7
		c0,0,0,0,0,0c0,0,0,0,0-0.1c0-0.2,0-0.3,0.2-0.4c0.1,0,0.2,0,0.3,0c0.2,0,0.3,0.2,0.3,0.4c0,0,0,0.1,0,0.1c0,0,0,0,0,0
		s0,0.1,0.1,0.2c0,0.1,0.1,0.3,0.2,0.5C7,1.5,7.1,1.8,7.1,1.9C7.1,2.1,8,5.8,8.4,7L8.3,6.6c0.1,0.3,0.3,0.8,0.3,0.7V7z"/>
	<path fill="#323232" d="M10.4,0.1c0.7,0,1.1,0.4,1.6,1c0.9,1.1,1.2,2.6,0.9,4.3c-0.3,1.5-1,2.9-2,4c0,0-0.1,0.1-0.2,0.1
		c-0.1,0-0.4,0-0.4,0c-0.1,0-0.2-0.1-0.3-0.2c0,0,0,0,0-0.1C10,8.1,10,6.6,10,4.8c0-0.6,0.1-3.3,0.1-4.4v0
		C10.1,0.2,10.2,0.1,10.4,0.1L10.4,0.1z M11.1,8.2c1.4-2.1,2-4.9,0.5-6.7C11.3,1.3,11.2,1.1,11,1c-0.2-0.2-0.4,0-0.4,0.2
		c0,1.1-0.1,3-0.1,3.7c0,1.2,0,2.3,0,3.2C10.6,8.4,10.9,8.5,11.1,8.2z"/>
	<path fill="#323232" d="M21,2.4c0.3-1.2-0.2-1.7-0.9-1.7c-0.7,0-1.4,0.6-1.5,1.5c-0.1,0.9,0.3,1.4,1.3,2.3c0.6,0.5,0.7,0.7,1.2,1.2
		c0.5,0.6,0.7,1.1,0.7,1.8C22,9,21.2,10,20.1,9.8C19,9.7,18.1,8.7,18.1,7c0-0.2,0.1-0.3,0.3-0.3s0.3,0.1,0.3,0.3
		c0,1.4,0.7,2.1,1.4,2.2c0.7,0.1,1.2-0.5,1.1-1.7C21.2,7,21,6.5,20.6,6c-0.4-0.5-0.5-0.6-1.1-1.1c-0.6-0.5-0.7-0.7-1.1-1.2
		C18.1,3.2,17.9,2.7,18,2c0.2-1.2,1.2-2,2.2-2c1.1,0,1.8,1,1.5,2.4c0,0.2-0.2,0.3-0.4,0.2C21.1,2.7,21,2.5,21,2.4z"/>
	<path fill="#323232" d="M25.3,2.3c0.3,2.4,0.5,4.8,0.5,7.2c0,0.2-0.1,0.3-0.3,0.3s-0.3-0.1-0.3-0.3c0-1.5-0.1-2.9-0.2-4.4
		c0-0.2-0.1-0.3-0.3-0.3c-0.4,0-0.8,0-1.1-0.1c-0.2,0-0.3,0.1-0.3,0.3c0,0.6-0.1,1.4-0.2,2.5c-0.1,1.1-0.1,1.8-0.2,2
		c0,0.2-0.2,0.3-0.4,0.3c-0.2,0-0.3-0.2-0.3-0.4c0-0.1,0.1-0.8,0.2-1.9c0.2-2.6,0.4-4.4,0.6-5.7c0.2-0.8,0.4-1.4,0.7-1.6
		c0.7-0.4,1.1,0.1,1.3,0.7c0.1,0.3,0.1,0.7,0.2,1.1L25.3,2.3z M23.6,4.1c0.3,0,0.6,0,0.9,0c0.2,0,0.3-0.1,0.3-0.3
		c-0.1-0.5-0.1-1-0.2-1.5c0-0.1,0-0.6-0.1-0.9c0-0.2-0.1-0.5-0.2-0.7c-0.1-0.1-0.2-0.2-0.3-0.2c-0.1,0-0.2,0.2-0.2,0.4
		c-0.1,0.2-0.2,0.5-0.2,0.9c-0.1,0.5-0.2,1.1-0.3,1.9C23.3,4,23.4,4.1,23.6,4.1z"/>
	<path fill="#323232" d="M29.1,7c0-0.4,0-1.1,0-2.1c-0.1-2,0-3.3,0.1-4.7c0-0.2,0.2-0.3,0.4-0.3c0.2,0,0.3,0.2,0.3,0.4
		C29.6,1.7,29.6,3,29.6,5c0,1,0,1.7,0,2.1v1.2c0,0.3,0,0.5,0,0.7c0,0.1,0,0.2,0,0.2c0,0.1-0.1,0.2-0.2,0.3c-0.1,0.1-0.3,0-0.4,0
		c0,0,0,0,0-0.1c0,0,0-0.1-0.1-0.1c0,0,0-0.1-0.1-0.2l-0.2-0.6l-0.4-1.2c-0.2-0.7-0.5-1.5-0.7-2.6c-0.1-0.5-0.2-1-0.3-1.4
		C27.2,3,27,2.4,27,2.4c0,0.4,0,0.8,0,1c0,0.4,0,1.1,0,2c0,0.9-0.1,1.6-0.1,2c0,0.5,0,1.1,0.1,1.9c0,0.2-0.1,0.3-0.3,0.4
		c-0.2,0-0.3-0.1-0.4-0.3c-0.1-0.5-0.1-1.1-0.1-1.8s0-1.5,0.1-2.3c0-0.8,0-1.5,0-1.8c0-0.2,0-0.6,0-1.1c0-0.4,0-0.8,0-1V0.7
		c0,0,0,0,0,0c0,0,0,0,0-0.1c0-0.2,0-0.3,0.2-0.4c0.1,0,0.2,0,0.3,0c0.2,0,0.3,0.2,0.3,0.4c0,0,0,0.1,0,0.1c0,0,0,0,0,0
		s0,0.1,0.1,0.2c0,0.1,0.1,0.3,0.2,0.5c0.1,0.3,0.2,0.5,0.2,0.7c0,0.2,0.9,3.8,1.3,5.1l-0.1-0.4c0.1,0.3,0.3,0.8,0.3,0.7V7z"/>
	<path fill="#323232" d="M34,0.5c0,0.2-0.1,0.3-0.3,0.3c-0.3,0-0.7,0-1.3,0c-0.2,0-0.3,0.1-0.3,0.3c0,0.3,0,0.7,0,1.1
		c0,0.3,0,0.5,0,0.6c0,0.4,0,1.1,0,2C32,6.6,32,8,32.2,9.1c0,0.2-0.1,0.3-0.3,0.4c-0.2,0-0.3-0.1-0.4-0.3c-0.2-1.1-0.2-2.6-0.1-4.4
		c0-0.9,0-1.5,0-1.9c0-0.1,0-0.4,0-0.7c0-0.3,0-0.5,0-0.7c0,0.4-0.1-0.3-0.1-0.5c0-0.2-0.1-0.3-0.3-0.3c-0.3,0-0.6,0-0.8,0
		c-0.2,0-0.3-0.1-0.3-0.3c0-0.2,0.1-0.3,0.3-0.3c0.4,0,1,0,1.7,0c0.8,0,1.3,0,1.7,0C33.8,0.2,34,0.3,34,0.5z"/>
	<path fill="#323232" d="M37.4,2.3c0.3,2.4,0.5,4.8,0.5,7.2c0,0.2-0.1,0.3-0.3,0.3s-0.3-0.1-0.3-0.3c0-1.5-0.1-2.9-0.2-4.4
		c0-0.2-0.1-0.3-0.3-0.3c-0.4,0-0.8,0-1.1-0.1c-0.2,0-0.3,0.1-0.3,0.3c0,0.6-0.1,1.4-0.2,2.5c-0.1,1.1-0.1,1.8-0.2,2
		c0,0.2-0.2,0.3-0.4,0.3c-0.2,0-0.3-0.2-0.3-0.4c0-0.1,0.1-0.8,0.2-1.9c0.2-2.6,0.4-4.4,0.6-5.7c0.2-0.8,0.4-1.4,0.7-1.6
		c0.7-0.4,1.1,0.1,1.3,0.7c0.1,0.3,0.1,0.7,0.2,1.1L37.4,2.3z M35.7,4.1c0.3,0,0.6,0,0.9,0c0.2,0,0.3-0.1,0.3-0.3
		c-0.1-0.5-0.1-1-0.2-1.5c0-0.1,0-0.6-0.1-0.9c0-0.2-0.1-0.5-0.2-0.7c-0.1-0.1-0.2-0.2-0.3-0.2c-0.1,0-0.2,0.2-0.2,0.4
		c-0.1,0.2-0.2,0.5-0.2,0.9c-0.1,0.5-0.2,1.1-0.3,1.9C35.4,4,35.5,4.1,35.7,4.1z"/>
	<path fill="#323232" d="M39.9,9.2c0,0.1-0.1,0.2-0.2,0.2c-0.3,0.1-0.5,0.1-0.6,0.1c-0.1,0-0.2-0.1-0.2-0.3c0-0.2,0-0.4,0.2-0.5
		c0.1-0.1,0.3-0.2,0.5-0.2c0.2,0,0.3,0.1,0.3,0.3c0,0,0,0.1,0,0.1C39.9,9,39.9,9.1,39.9,9.2z M39.8,7.1c0,0.2-0.1,0.3-0.3,0.3
		c-0.2,0-0.3-0.1-0.3-0.3V0.8c0-0.2,0.1-0.3,0.3-0.3c0.2,0,0.3,0.1,0.3,0.3V7.1z"/>
</g>
</svg>
