<!-- Generator: Adobe Illustrator 18.0.0, SVG Export Plug-In  -->
<svg version="1.1"
	 xmlns="http://www.w3.org/2000/svg" xmlns:xlink="http://www.w3.org/1999/xlink" xmlns:a="http://ns.adobe.com/AdobeSVGViewerExtensions/3.0/"
	 x="0px" y="0px" width="51.9px" height="57.2px" viewBox="0 0 51.9 57.2" enable-background="new 0 0 51.9 57.2"
	 xml:space="preserve">
<defs>
</defs>
<g>
	<path fill="#323232" d="M17.9,2.5c0,5.7-0.1,14.5-0.2,26c-0.2,11.6-0.3,20.4-0.3,26.2c0,1-0.8,1.8-1.8,1.8s-1.8-0.8-1.8-1.8
		c0-5.5,0.1-13.8,0.3-25.3c0-1.1-0.6-1.9-1.9-1.8c-1.1,0.1-2.3,0.2-3.6,0.3c-1.4,0.1-2.6,0.1-3.4,0.2c-1.1,0-1.7,0.7-1.7,1.9
		c0.1,11.5,0.1,20,0.1,25.6c0,1-0.8,1.8-1.8,1.8s-1.8-0.8-1.8-1.8c0-5.8,0-14.6-0.1-26.3C0,17.4,0,8.6,0,2.7C0,1.8,0.8,1,1.8,1
		s1.8,0.8,1.8,1.8c0,5.2,0,11.9,0.1,20c0,1.1,0.6,1.8,1.8,1.8c1.9-0.1,4.9-0.3,7.1-0.4c1.1-0.1,1.7-0.8,1.7-1.9
		c0.1-8.1,0.2-14.7,0.2-19.8c0-1,0.8-1.8,1.8-1.8S17.9,1.5,17.9,2.5z"/>
	<path fill="#323232" d="M39.8,18.6C40.4,34.1,40,42.3,38.3,48c-1,4-2.6,6.5-4.6,7.8c-2.8,1.8-5.5,1.1-7.5-1.2
		c-1.4-1.7-2.6-4.4-3.7-8.1c-2.2-8-6-29.1-0.1-40.7c1.3-2.6,4.1-5,7-5.6c4.6-1,7.6,1.9,9.1,6.2C39.5,9.1,39.9,12.5,39.8,18.6z
		 M36.3,14.4c-0.1-2.7-0.5-5-1.1-6.9c-1.1-2.9-2.6-4.4-5-3.8c-1.7,0.3-3.7,2-4.5,3.7c-5.3,10.2-1.9,30.5,0.3,38.2
		c1,3.3,1.9,5.5,3,6.8c1.1,1.1,1.8,1.2,2.9,0.5c2.6-1.7,4.1-7.7,4.6-16.4C36.7,32.2,36.4,15.2,36.3,14.4z"/>
	<path fill="#323232" d="M51.6,54c-0.1,0.4-0.4,0.9-0.9,1.1C49.2,56,48,56,47.2,55.6c-0.7-0.3-1.1-0.8-1.3-1.5c-0.2-1,0.2-2,1.3-2.9
		c0.8-0.5,1.7-0.9,2.6-1c1-0.1,1.9,0.6,1.9,1.6c0.1,0.2,0,0.4,0,0.5C51.7,52.8,51.9,53.1,51.6,54z M50.8,42.1c0,1-0.8,1.8-1.8,1.8
		s-1.8-0.8-1.8-1.8V5.4c0-1,0.8-1.8,1.8-1.8s1.8,0.8,1.8,1.8V42.1z"/>
</g>
</svg>
