<!-- Generator: Adobe Illustrator 18.0.0, SVG Export Plug-In  -->
<svg version="1.1"
	 xmlns="http://www.w3.org/2000/svg" xmlns:xlink="http://www.w3.org/1999/xlink" xmlns:a="http://ns.adobe.com/AdobeSVGViewerExtensions/3.0/"
	 x="0px" y="0px" width="171.3px" height="196.6px" viewBox="0 0 171.3 196.6" enable-background="new 0 0 171.3 196.6"
	 xml:space="preserve">
<defs>
</defs>
<g>
	<g>
		<g>
			<path fill="#003361" d="M32.9,187.6c-3.7,0-5.8-2.6-5.8-5.2c0-2.4,2-5.2,5.8-5.2c3.8,0,5.8,2.8,5.8,5.2
				C38.7,185,36.5,187.6,32.9,187.6z M32.9,179.3c-1.9,0-3.2,1.2-3.2,3.1s1.3,3.1,3.2,3.1c1.9,0,3.2-1.2,3.2-3.1
				S34.8,179.3,32.9,179.3z"/>
			<path fill="#003361" d="M41.6,181.2c0.6-0.5,1.2-0.7,2-0.7c1.8,0,3.2,1.5,3.2,3.5c0,2.2-1.3,3.6-3.4,3.6c-0.6,0-1.3-0.2-1.8-0.5
				v3.7h-2.1v-10.2h2.1V181.2z M41.6,185.7c0.4,0.3,0.8,0.4,1.2,0.4c1.1,0,1.7-0.8,1.7-2.1c0-1.3-0.6-2.1-1.6-2.1
				c-0.5,0-0.8,0.1-1.3,0.5V185.7z"/>
			<path fill="#003361" d="M54.7,186.7c-1.2,0.9-2.5,0.9-3.1,0.9c-2.4,0-4-1.4-4-3.5c0-2.1,1.5-3.6,3.6-3.6c2,0,3.6,1.4,3.5,3.9
				h-4.9c0.1,1.2,0.9,1.9,2.3,1.9c0.9,0,1.5-0.3,2.5-1V186.7z M52.9,183.3c-0.1-0.9-0.7-1.5-1.5-1.5c-0.8,0-1.4,0.5-1.5,1.5H52.9z"
				/>
			<path fill="#003361" d="M57.9,181.6c0.7-0.8,1.3-1.1,2.2-1.1c1.1,0,2.5,0.6,2.5,2.6v4.3h-2.1v-4.2c0-1-0.5-1.4-1.1-1.4
				c-0.5,0-0.9,0.3-1.5,1.1v4.4h-2.1v-6.8h2.1V181.6z"/>
			<path fill="#003361" d="M72.4,177.3c2.3,0,3.3,1.6,3.3,3c0,1.4-1,3.1-3.3,3.1h-2v4.1h-2.5v-10.1H72.4z M70.4,181.5h1.2
				c1.2,0,1.6-0.4,1.6-1.2c0-0.9-0.5-1.2-1.9-1.2h-0.9V181.5z"/>
			<path fill="#003361" d="M79.5,187.6c-2.2,0-3.9-1.4-3.9-3.6c0-2.3,1.9-3.5,3.9-3.5c1.7,0,3.8,0.9,3.8,3.6
				C83.4,186.8,81,187.6,79.5,187.6z M79.5,181.8c-0.9,0-1.6,0.7-1.6,2.3c0,1.8,0.8,2.3,1.6,2.3c1,0,1.5-0.8,1.5-2.3
				C81.1,182.6,80.6,181.8,79.5,181.8z"/>
			<path fill="#003361" d="M86.5,187.4h-2.1v-10.1h2.1V187.4z"/>
			<path fill="#003361" d="M90.1,190.7h-2.3l2-4.4l-2.7-5.7h2.3l1.4,3.5l1.5-3.5h2.3L90.1,190.7z"/>
			<path fill="#003361" d="M100.7,182.1h-2.5v2.8c0,0.7,0.4,1.1,1.1,1.1c0.4,0,0.9-0.1,1.4-0.4v1.6c-0.8,0.3-1.3,0.4-2,0.4
				c-1.4,0-2.7-0.7-2.7-2.6v-2.9h-1v-0.4l2.9-3.2h0.3v2.1h2.5V182.1z"/>
			<path fill="#003361" d="M108.3,186.7c-1.2,0.9-2.5,0.9-3.1,0.9c-2.4,0-4-1.4-4-3.5c0-2.1,1.5-3.6,3.6-3.6c2,0,3.6,1.4,3.5,3.9
				h-4.9c0.1,1.2,0.9,1.9,2.3,1.9c0.9,0,1.5-0.3,2.5-1V186.7z M106.5,183.3c-0.1-0.9-0.7-1.5-1.5-1.5c-0.8,0-1.4,0.5-1.5,1.5H106.5z
				"/>
			<path fill="#003361" d="M115.6,187.1c-0.9,0.3-1.6,0.5-2.3,0.5c-2.4,0-4-1.4-4-3.5c0-2.1,1.6-3.6,3.9-3.6c0.7,0,1.6,0.2,2.3,0.4
				v1.6c-0.6-0.3-1.2-0.5-1.7-0.5c-1.3,0-2.1,0.8-2.1,2c0,1.2,0.8,2,2,2c0.5,0,1-0.1,1.9-0.5V187.1z"/>
			<path fill="#003361" d="M119,181.6L119,181.6c0.7-0.8,1.3-1.1,2.2-1.1c1.2,0,2.5,0.8,2.5,2.6v4.4h-2.1v-3.9c0-1-0.4-1.5-1.1-1.5
				c-0.5,0-0.9,0.3-1.4,1v4.4h-2.1v-10.1h2.1V181.6z"/>
			<path fill="#003361" d="M126.9,181.6c0.7-0.8,1.3-1.1,2.2-1.1c1.1,0,2.5,0.6,2.5,2.6v4.3h-2.1v-4.2c0-1-0.5-1.4-1.1-1.4
				c-0.5,0-0.9,0.3-1.5,1.1v4.4h-2.1v-6.8h2.1V181.6z"/>
			<path fill="#003361" d="M134.9,178.4c0,0.7-0.5,1.2-1.2,1.2s-1.2-0.5-1.2-1.2c0-0.7,0.5-1.2,1.2-1.2S134.9,177.7,134.9,178.4z
				 M134.8,187.4h-2.1v-6.8h2.1V187.4z"/>
			<path fill="#003361" d="M141.9,187.1c-0.9,0.3-1.6,0.5-2.3,0.5c-2.4,0-4-1.4-4-3.5c0-2.1,1.6-3.6,3.9-3.6c0.7,0,1.6,0.2,2.3,0.4
				v1.6c-0.6-0.3-1.2-0.5-1.7-0.5c-1.3,0-2.1,0.8-2.1,2c0,1.2,0.8,2,2,2c0.5,0,1-0.1,1.9-0.5V187.1z"/>
		</g>
		<g>
			<path fill="#008296" d="M31,196.5L31,196.5l-0.8,0.1l0,0l-2-1.9v1.9h0h-0.6v-4.1h0h0.6v1.8l1.6-1.8h0.8l-1.8,1.9L31,196.5"/>
		</g>
		<g>
			<path fill="#008296" d="M35.3,195v-2.5h0H36v2.4c0,0.4,0.1,0.6,0.2,0.8l0,0c0.2,0.2,0.5,0.3,0.8,0.3l0,0c0.4,0,0.7-0.1,0.9-0.3
				l0,0c0.2-0.2,0.2-0.5,0.2-0.8l0,0v-2.4h0h0.6v2.5c0,1-0.6,1.7-1.8,1.7l0,0C36.2,196.6,35.3,196.1,35.3,195L35.3,195z"/>
		</g>
		<g>
			<path fill="#008296" d="M59.9,196.5h-0.6v-3.5h-1.4v0v-0.6h3.4v0v0.5v0h-1.4L59.9,196.5L59.9,196.5L59.9,196.5z"/>
		</g>
		<g>
			<path fill="#008296" d="M66.4,196.5h-0.6v-4.1h0h0.6L66.4,196.5L66.4,196.5L66.4,196.5L66.4,196.5z"/>
		</g>
		<g>
			<path fill="#008296" d="M74.9,196.5l-0.5,0l-2.6-3v3h0h-0.6v-4.1h0l0.5,0l2.6,3v-3h0h0.6L74.9,196.5L74.9,196.5L74.9,196.5
				L74.9,196.5z"/>
		</g>
		<g>
			<path fill="#008296" d="M80.3,196.5h-0.6v-4.1h0h0.6L80.3,196.5L80.3,196.5L80.3,196.5L80.3,196.5z"/>
		</g>
		<g>
			<path fill="#008296" d="M91.6,196.5H91l0-3.5h-1.4v0v-0.6H93v0v0.5v0h-1.4L91.6,196.5L91.6,196.5L91.6,196.5z"/>
		</g>
		<g>
			<path fill="#008296" d="M97.4,195v-2.5h0H98v2.4c0,0.4,0.1,0.6,0.2,0.8l0,0c0.2,0.2,0.5,0.3,0.8,0.3l0,0c0.4,0,0.7-0.1,0.9-0.3
				l0,0c0.2-0.2,0.2-0.5,0.2-0.8l0,0v-2.4h0h0.6v2.5c0,1-0.6,1.7-1.8,1.7l0,0C98.2,196.6,97.4,196.1,97.4,195L97.4,195z"/>
		</g>
		<g>
			<path fill="#008296" d="M106.9,196.5h-0.1 M109.6,196.5h-0.1"/>
			<path fill="#008296" d="M109.6,196.6h-0.1l-1.3-3.2l-1.3,3.2h0h-0.1l-1.6-4.1h0.1h0.6l1.1,2.7l1.1-2.7h0h0.6l1.1,2.7l1.1-2.7h0
				h0.6L109.6,196.6L109.6,196.6L109.6,196.6L109.6,196.6z M109.6,196.5L109.6,196.5"/>
		</g>
		<g>
			<path fill="#008296" d="M119,196.5h-0.6l0-1.7h-2.1v1.7h0h-0.6v-4.1h0h0.6v1.7h2.1v-1.7h0h0.6L119,196.5L119,196.5L119,196.5
				L119,196.5z"/>
		</g>
		<g>
			<path fill="#008296" d="M123.8,196.5v-4.1h2.3v0v0.5v0h-1.7v1.1h1.6v0v0.6h-1.6v1.2h1.7v0v0.6H123.8L123.8,196.5z"/>
		</g>
		<g>
			<path fill="#008296" d="M131.7,192.5c0.8,0,1.3,0.4,1.3,1.2l0,0c0,0.4-0.2,0.8-0.6,1l0,0c0.3,0.2,0.6,0.6,0.8,1.1l0,0
				c0.2,0.3,0.3,0.4,0.5,0.8l0,0l0,0.1h-0.1l0,0h-0.7l-0.5-0.8c-0.5-0.8-0.7-0.9-1-0.9l0,0h-0.2v1.7h0h-0.6v-4.1H131.7 M131.7,194.2
				c0.6,0,0.7-0.3,0.7-0.6l0,0c0,0,0,0,0,0l0,0c0-0.4-0.2-0.6-0.7-0.6l0,0h-0.3v1.2H131.7L131.7,194.2z"/>
		</g>
		<g>
			<path fill="#008296" d="M44.5,192.5c0.8,0,1.3,0.4,1.3,1.2l0,0c0,0.4-0.2,0.8-0.6,1l0,0c0.3,0.2,0.6,0.6,0.8,1.1l0,0
				c0.2,0.3,0.3,0.4,0.5,0.8l0,0l0,0.1h-0.1l0,0h-0.7l-0.5-0.8c-0.5-0.8-0.7-0.9-1-0.9l0,0h-0.2v1.7h0h-0.6v-4.1H44.5 M44.5,194.2
				c0.6,0,0.7-0.3,0.7-0.6l0,0c0,0,0,0,0,0l0,0c0-0.4-0.2-0.6-0.7-0.6l0,0h-0.3v1.2H44.5L44.5,194.2z"/>
		</g>
		<path fill="#008296" d="M54.5,196.5l-1.8-4h-0.5l-1.7,4.1h0.7l0.5-1.2h1.6l0.5,1.2L54.5,196.5L54.5,196.5z M51.9,194.8l0.5-1.3
			l0.6,1.3H51.9z"/>
		<path fill="#008296" d="M141.7,196.5l-1.8-4h-0.5l-1.7,4.1h0.7l0.5-1.2h1.6l0.5,1.2L141.7,196.5L141.7,196.5z M139.1,194.8
			l0.5-1.3l0.6,1.3H139.1z"/>
	</g>
	<g>
		<path fill="#323232" d="M76.8,34.3c7.4,0,10.6-6.1,11.5-9.2c1.1-2.8,1.9-6.2,2.3-7.9h0.6H95c-2.4,4.4-4,8-4.5,11.3
			c-0.8,4.5,1.8,5.8,4.2,5.8c4.2,0,6.9-4.1,8.4-7.4c0.1-0.1,0.1-0.2,0.2-0.3c1.4-3,2.5-7.4,2.9-9.4h0.6h3.9c-2.4,4.4-4,8-4.5,11.3
			c-0.8,4.5,1.8,5.8,4.2,5.8c2.2,0,3.9-1.1,5.3-2.6c0.6,1.7,1.9,2.7,3.9,2.7c2.2,0,4-1.5,5.6-3.5l-1.1,6.5c-3.9,3-7.3,5.6-8.2,10.7
			c-0.6,3.3,1,5.9,3.9,5.9c2.6,0,5.6-1.9,6.6-7.2l1.6-8.8c3.2-2.4,6.7-5.4,9.4-11.3c0-0.1,0.1-0.2,0.1-0.3
			c3.1-6.5,3.6-13.5,1.1-18.7c-1.1-2.4-3.3-4.3-6.2-5.3c-4-1.4-8.7-0.9-13.1,1.3c-1.2,0.6-2.4,1.1-3.7,1.5c-1,0.2-1.9,0.4-2.9,0.5
			c-2.1,0.2-4.1,0-5.4-0.5c-0.6-0.3-1.1-0.6-1.3-0.9c-0.2-0.3-0.3-0.5-0.3-0.8c-0.1-0.5,0-0.9,0-0.9c0.1-1.3-0.9-2.4-2.2-2.4
			c-1.3-0.1-2.4,1-2.4,2.2c0,0,0,0.2,0,0.6c0,0.4,0.1,1,0.4,1.8c0.3,0.8,0.8,1.7,1.7,2.5c0.8,0.8,1.9,1.3,3,1.6
			c2.3,0.6,4.7,0.4,7.1-0.1c1-0.2,2-0.5,3-0.9c1.5-0.5,3-1,4.3-1.7c3.6-1.9,7.6-2.3,10.8-1.2c2.1,0.7,3.7,2.1,4.5,3.8
			c2,4.3,1.6,10.4-1,16c-0.1,0.2-0.3,0.5-0.4,0.8c-0.3,0.5-0.5,1.1-0.8,1.6c-0.1,0.2-0.2,0.3-0.3,0.5c0,0,0,0.1,0,0.1
			c-1.4,2.4-3.1,4.3-4.8,5.9l3.7-20.8c0.2-1.2-0.7-2.2-2.4-2.2c-0.7,0-1.4,0.4-1.5,0.9c-0.1,0.4,0.1,0.7-0.1,1.6l-2,11.1
			c-1.2,3.6-3.4,6.9-5.4,6.9c-1.5,0-2.1-1.5-1.6-4.2c0.8-4.3,1.7-6.5,3.3-10.3c0.3-0.8,2.2-2.8-0.3-2.8c-2.7,0-2.5,1-3,1.9
			c0,0-2.9,6.1-3.9,11.5c0,0.1,0,0.2,0,0.2c-0.9,1.9-2.1,3.7-3.9,3.7c-1.4,0-1.8-1.3-1.6-2.8c0.9-5.1,4.2-11.1,4.4-11.7
			c0.4-1.2-1.3-2.8-1.9-2.8h-2.6c-0.5,0-1,0-2.7-0.2c-0.2-2.1-1.5-2.7-2.7-2.7c-1.3,0-2.7,0.9-3,2.3c-0.3,1.5,0.5,2.5,1.6,3.3
			c-0.5,2.6-1.5,6.8-2.4,8.9c0,0,0,0,0,0c0,0.1-0.1,0.1-0.1,0.2c-0.9,2.2-2.3,5.5-4.6,5.5c-1.4,0-1.8-1.3-1.6-2.8
			c0.9-5.1,4.3-11.1,4.4-11.7c0.4-1.2-1.3-2.8-1.9-2.8h-2.6c-0.5,0-1,0-2.7-0.2c-0.2-2.1-1.5-2.7-2.7-2.7c-1.3,0-2.7,0.9-3,2.3
			c-0.3,1.5,0.5,2.5,1.6,3.3c-0.5,2.3-1.3,5.9-2.1,8.1c0,0,0,0.1,0,0.1c-1.2,3.1-3.4,6.4-7.4,6.4c-2.6,0-3.8-1.4-4.2-3.2
			c5.2-1.5,8.6-6,9.3-9.7c0.5-3-0.8-5.1-3.7-5.1c-3.9,0-8.6,4.8-9.8,11.3C68.4,30.6,72.2,34.3,76.8,34.3z M122.4,46.6
			c-0.2,1-0.5,4-2.1,4c-0.8,0-1.1-1.2-0.8-2.8c0.5-3.1,2-5,3.9-6.7L122.4,46.6z M73.8,24c0.3-2.1,2-7.7,4.5-7.7c0.7,0,1,0.7,0.8,1.8
			c-0.5,3.1-2.6,5.7-5.4,6.9C73.7,24.7,73.7,24.4,73.8,24z"/>
		<path fill="#323232" d="M20.7,82.8c-0.1,0.1-3.8,3.5-8.8,3.5c-6.8,0-8-7-6.7-14.3c1.7-9.6,9.7-21.5,17.5-21.5c2.7,0,3.3,1.9,3,3.3
			c-0.9,5-8.1,9.9-12.4,9.9c-1.7,0-1.7-0.6-2.1-0.6c-0.4,0-0.8,1.1-1,1.9c-0.3,2,0.7,2.8,2.1,2.8c6.5,0,16.8-6.6,18.1-13.9
			c0.9-5.1-1.9-7.8-6.1-7.8C12.6,46.3,2.6,60.5,0.5,72c-2,11.4,1.8,18.7,10.2,18.7c7.1,0,12.3-4.7,12.5-4.9
			C24.9,84.4,22.7,80.2,20.7,82.8z"/>
		<path fill="#323232" d="M65.7,58.2c-0.3,1.4,0.7,2.6,2.1,2.6c1.5,0,2.8-1.2,3.1-2.6c0.3-1.5-0.7-2.6-2.2-2.6
			C67.4,55.6,66,56.7,65.7,58.2z"/>
		<path fill="#323232" d="M18.9,29.9c1.3,5.2,5,8.7,10,9.7c1.8,0.4,3.4,0.5,4.9,0.5c2.7,0,5-0.6,6.8-1.9c1.4-1,2.5-2.3,3.4-4.2
			c1.2-1.6,2.1-3.4,2.4-5.2l3.6-20.2c0.7-4.1,2.6-4.1,3.3-4.1c0.8,0,2.6,0,1.8,4.1l-5.1,29.1c-0.2,1,0.5,1.9,1.5,2.1
			c1,0.3,2.2-0.4,2.7-1.7c0.5-1.3,5.1-29,5.1-29c0.8-4.7,2.6-4.7,3.4-4.7c0.7,0,2.6,0,1.8,4.1c0,0-1.7,9.4-2.6,14.9
			c-0.4,2.2-0.5,4.9-0.2,7.2c0.2,7.1,4.5,12,12.3,14c-6.9,4.4-16.2,9.6-23,9.6c-0.5,0-1,0-1.4-0.1l-0.3,0l-0.5-0.1
			c-1.4-0.3-2.6-1-3.1-1.7c-0.6-0.8-0.6-1.6-0.4-2.3c0.2-0.7,0.8-1.3,1.4-1.6c0.6-0.4,1.3-0.6,1.9-0.7c0.6-0.1,1.1-0.1,1.4-0.1
			c0.3,0,0.5,0,0.5,0h0.1c0.1,0,0.1,0,0.2,0c1.3-0.1,2.3-1.2,2.2-2.5C53,44,51.9,43,50.6,43.1c0,0-0.3,0-0.8,0.1
			c-0.5,0-1.2,0.1-2.2,0.4c-0.9,0.3-2.1,0.7-3.2,1.5c-1.1,0.8-2.4,2.2-2.8,4c-0.2,0.9-0.3,2,0,3c0.2,1,0.8,2,1.5,2.7
			c1.4,1.5,3.4,2.2,5.2,2.5l0.7,0.1l0.4,0c0.6,0.1,1.1,0.1,1.7,0.1c8.6,0,19.9-6.9,27.4-11.9c9.1,1.4,15.8,0.9,18.8-1.7
			c1.2-1,1.7-2.3,1.7-3.7c-0.1-1.6-0.9-2.9-2.4-3.7c-3.7-1.9-10,0-14.1,2.7c-0.7,0.5-1.6,1-2.5,1.7c-0.7,0.4-1.4,0.9-2.2,1.5
			c-0.5-0.1-1-0.2-1.5-0.3c-8.7-1.7-12.4-6.6-11.1-14.8c0.1-0.4,0.1-0.8,0.2-1.2c1-4.7,3.4-16.9,3.4-16.9c1.1-6.4-2-8.7-5.4-8.7
			c-1,0-3.1,0.2-4.8,2.2c-1.3-2-3.7-2.2-4.6-2.2c-3.3,0-7.2,2.3-8.3,8.7l-3.4,18.9c-0.3,1.4-0.7,4-1.8,5.9c-0.5,0.7-1,1.3-1.7,1.7
			c-2,1.4-5,1.7-9.2,0.8c-3.8-0.8-6.6-3.5-7.6-7.5c-0.2-0.6-0.3-1.2-0.3-1.9c0-0.9,0.1-1.9,0.3-2.7c0.2-0.7,0.4-1.3,0.6-1.8
			c0.2-0.5,0.5-1,0.8-1.5c0.6-0.8,1.1-1.4,1.5-1.7c0.2-0.2,0.4-0.3,0.5-0.4c0.1-0.1,0.2-0.1,0.2-0.1l0.1,0c0.1-0.1,0.3-0.2,0.4-0.4
			c1-1.1,1-2.8-0.1-3.9c-1.1-1-2.8-1-3.9,0.1c0,0-0.1,0.1-0.3,0.3c-0.2,0.2-0.4,0.5-0.7,0.8c-0.6,0.7-1.3,1.8-1.9,3.3
			c-0.3,0.7-0.5,1.5-0.7,2.3c-0.2,0.8-0.3,1.7-0.3,2.6c0,1.1,0,2.1,0.2,3.2C18.6,28.2,18.7,29.1,18.9,29.9z M84.3,41.8
			c4.1-2.7,9-3.5,10.9-2.5c0.5,0.2,0.7,0.5,0.7,1.1c0,0.3,0,0.7-0.6,1.2c-1.5,1.3-5.6,2.2-12.9,1.4C83.1,42.6,83.7,42.2,84.3,41.8z"
			/>
		<path fill="#323232" d="M170.1,80.5c0,0-0.1-0.1-0.2-0.1c-0.1-0.1-0.3-0.1-0.5-0.2c-0.4-0.2-1.1-0.4-1.8-0.6
			c-1.2-0.3-2.7-0.6-4.2-0.6c-2.5-0.5-5.6-0.5-8.9,0.9c-0.2,0.1-0.5,0.2-0.7,0.3c0.4-0.5,0.6-0.9,0.7-1.3c0.3-0.6,0.5-1.2,0.6-1.8
			c0.8-4.8-1.9-6.7-3.6-10.9c0.1-0.3,1.6-2,1.8-3.5c0.3-1.4-0.2-2.3-1.4-2.3c-1.4,0-4.7,2.3-5,4c-0.2,0.9,0,1.6,0.4,2.4
			c-1.4,2.7-3,5.6-3.9,7.8c-0.1,0.2-0.2,0.4-0.3,0.6c-0.2,0.5-0.4,1.1-0.7,1.7c-0.1,0-0.1,0-0.2,0c-0.8,0-2,1.4-1.8,3.1
			c-0.5,0.5-1.1,0.8-1.7,0.8c-1.2,0-1.5-1.2-1.3-2.3l1.5-8.4c0.2-1.2-0.7-2.2-2.4-2.2c-0.7,0-1.4,0.4-1.5,0.9
			c-0.1,0.4,0.1,0.7-0.1,1.6l-1.4,7.8c-0.8,1.4-1.9,2.6-3.3,2.6c-1.8,0-2.6-1.5-2.2-4.2c1.3-7.3,7.3-11.2,11.2-11.2
			c0.5,0,1,0.1,1.5,0.1c0.5,0,0.7-0.3,0.9-1.2c0.2-1.3-0.6-2.1-2-2.1c-6.2,0-14,5.8-15.5,14.3c-0.1,0.4-0.1,0.8-0.1,1.1
			c-0.9,1.7-2,3.2-3.4,3.2c-1.3,0-1-1.9-0.9-2.3l1.9-10.5c0.4-2.3,0.1-5.1-3.2-5.1c-2.3,0-4.4,2.1-6.2,4.8c0.3-2.3-0.1-4.8-3.2-4.8
			c-2.3,0-4.4,2.1-6.3,4.9l0.4-2.1c0.2-1.2-0.7-2.2-2.4-2.2c-0.7,0-1.4,0.4-1.5,0.9c-0.1,0.4,0.1,0.7-0.1,1.6L98,74.1
			c-0.2,0.2-0.4,0.6-0.6,1c-0.9,2.2-2.3,5.5-4.4,5.5c-1.1,0-1.6-0.7-1.3-2.3l2.9-16.1l0.6-3.3l0.2-0.9c2.7,1.1,5.7,2,9,2
			c4.3,0,7.7-3,8.5-7.8c0.7-4-0.6-8.8-4.6-10.2c-4-1.5-6.9,0.7-8,3.3c-0.3,0.7-0.5,1.6-0.5,2.4c0,0.1,0,0.1,0,0.2c0,0.3,0,0.5,0,0.8
			c0,0.3,0,0.5,0.1,0.8c0.1,0.5,0.3,1,0.5,1.5c0.1,0.2,0.2,0.4,0.3,0.6c0.1,0.2,0.3,0.4,0.4,0.5c0.1,0.2,0.3,0.3,0.4,0.4
			c0.1,0.1,0.3,0.2,0.4,0.3c0.5,0.4,0.7,0.5,0.7,0.5c0.2,0.1,0.4,0.2,0.6,0.3c1.2,0.4,2.6-0.3,3-1.5c0.4-1.2-0.3-2.6-1.5-3l-0.1,0
			c0,0-0.1,0-0.3,0c0,0-0.1,0-0.2,0c0,0-0.1,0-0.1-0.1c-0.1,0-0.1,0-0.2-0.1c-0.1,0-0.1-0.1-0.2-0.1c-0.1-0.1-0.2-0.2-0.4-0.4
			c-0.1-0.1-0.1-0.2-0.2-0.3c-0.1-0.1-0.1-0.2-0.1-0.3c0-0.1,0-0.1,0-0.2c0-0.4,0.1-0.8,0.2-1.1c0.5-1.3,1.9-2.4,4.1-1.6
			c2.3,0.8,3,4.1,2.6,6.7c-0.2,1.2-1.2,5.2-5.4,5.2c-3,0-5.8-0.9-8.4-2.1l0.9-4.8c0.2-1.2-0.7-2.2-2.4-2.2c-0.7,0-1.7,0.2-1.7,0.6
			c-0.1,0.4,0.4,0.5,0.2,1.9l-0.5,2.9c-2.8-1.3-5.4-2.6-7.9-2.6c-3.9,0-6.2,2.2-7.5,3.8c-0.1,0.1-0.2,0.2-0.3,0.3
			c-0.4,0.4-0.6,0.7-0.8,0.9c-0.1,0.1-0.2,0.2-0.2,0.3C75.5,56,75.5,56,75.5,56c-0.4,1,0,2.1,1,2.6c1,0.4,2.1,0,2.6-1
			c0,0,0-0.1,0-0.1c0,0,0-0.1,0-0.2c0-0.2,0.1-0.5,0.2-0.8c0-0.1,0.1-0.2,0.1-0.3c0.8-1.1,2.4-2.5,4.9-2.5c1.9,0,4.3,1.1,7,2.5
			c0.1,0.1,0.3,0.1,0.4,0.2l-0.4,2.5l-0.6,3.4l-2.2,12.4c-0.1,0.2-0.2,0.4-0.4,0.6c-0.8,1.6-2.3,3.2-4.8,3.7
			c0.3-0.6,0.5-1.2,0.6-1.8c0.9-4.8-1.9-6.7-3.6-10.9c0.1-0.3,1.6-2,1.8-3.5c0.2-1.4-0.2-2.3-1.4-2.3c-1.4,0-4.7,2.3-5,4
			c-0.2,0.9,0,1.6,0.4,2.4c-1.4,2.7-3,5.6-3.9,7.8v0c-0.1,0.2-0.2,0.3-0.3,0.6c-0.2,0.5-0.4,1.1-0.7,1.7c-0.1,0-0.1,0-0.2,0
			c-0.8,0-2,1.4-1.8,3.1c-0.5,0.5-1.1,0.8-1.7,0.8c-1.3,0-1-1.9-0.9-2.3l2.3-12.9c0.2-1.2-0.7-2.2-2.3-2.2c-0.7,0-1.4,0.4-1.5,0.9
			c-0.1,0.4,0.1,0.7-0.1,1.6l-1.6,8.8c-0.1,0.2-0.2,0.4-0.3,0.7c-0.9,2.2-2.3,5.5-4.6,5.5c-1.4,0-1.8-1.3-1.6-2.7
			c0.9-5.1,4.3-11.1,4.4-11.7c0.4-1.2-1.3-2.9-1.9-2.9h-2.6c-0.5,0-1,0-2.7-0.2c-0.2-2.1-1.5-2.7-2.7-2.7c-1.3,0-2.7,0.9-3,2.3
			c-0.3,1.5,0.5,2.5,1.6,3.3c-0.5,2.6-1.5,6.8-2.4,8.9c0,0,0,0,0,0.1c0,0.1-0.1,0.1-0.1,0.2c-0.9,2.2-2.3,5.5-4.4,5.5
			c-1.3,0-1-1.9-0.9-2.3L44,67.8c0.4-2.3,0.1-5.1-3.3-5.1c-2.5,0-4.7,2.2-6.6,5l2.9-16.7c0.2-1.2-0.7-2.2-2.4-2.2
			c-0.7,0-1.7,0.2-1.7,0.6c-0.1,0.4,0.4,0.5,0.2,1.9l-5.4,30.6c-0.3,1.9,1,2.2,2,2.2c1.5,0,1.6-1.2,1.8-2.2l1.3-7.4
			c1.1-4,5-8.4,6.5-8.4c1,0,0.8,1.3,0.6,2.9l-1.8,10.3c-0.5,2.6,0.7,4.8,3.4,4.8c4.2,0,6.9-4.1,8.4-7.4c0.1-0.1,0.1-0.2,0.1-0.3
			c1.4-3,2.5-7.4,2.9-9.4h0.6h3.9c-2.4,4.4-4,8-4.5,11.3c-0.8,4.5,1.8,5.8,4.2,5.8c2.2,0,4-1.1,5.4-2.7C63,82.9,64.1,84,66,84
			c1.7,0,3.2-0.7,4.5-1.8c1,0.9,3,1.8,4.9,1.8c2.1,0,3.9-0.8,5.3-1.8c3-0.2,5.2-1.1,6.9-2.2c0,2.9,1.5,4.1,3.8,4.1
			c2,0,3.7-1,5.1-2.4c-1.2,3.5-3.8,6.7-7.1,9.3c-7.5-2.5-13.5-4.3-17.3-4.3c-2.7,0-5,0.7-6.7,2c-1.6,1.2-2.4,3-2.4,4.8
			c0,3.6,3.3,7.4,9.3,7.4c5.6,0,12.3-2.4,17.8-6.4c1.3,0.4,2.6,0.9,3.9,1.3c3.6,1.2,7.4,2.5,11.3,3.7c0.2,0.1,0.4,0.1,0.6,0.2
			c-2.1,1.1-4.2,2.1-6.3,3c-2.1,0.9-4.2,1.7-6.2,2.5c-8.9,2.9-19.9,5-34.7,5c-13.7,0-23.8-3.6-28.4-7.4c-0.2-0.2-0.4-0.3-0.5-0.5
			c-0.3-0.3-0.5-0.5-0.7-0.8c-0.1-0.1-0.2-0.3-0.3-0.4c-0.1-0.2-0.2-0.3-0.3-0.5c-0.3-0.5-0.6-1.1-0.7-1.7c-0.3-1.2-0.3-2.3,0.1-3.3
			c0.3-0.9,1-1.6,1.7-2.1c1.5-1,3.2-1.3,4.4-1.4c0.6,0,1.1,0,1.4,0c0.3,0,0.5,0,0.5,0l0.1,0c0.1,0,0.2,0,0.3,0
			c1.5-0.1,2.6-1.4,2.5-2.9c-0.1-1.5-1.4-2.6-2.9-2.5c0,0-0.2,0-0.7,0c-0.4,0-1.1,0.1-1.9,0.2c-0.8,0.1-1.9,0.4-3,0.8
			c-1.2,0.4-2.5,1.1-3.7,2.2c-1.2,1.1-2.3,2.6-2.8,4.5c-0.5,1.8-0.3,3.9,0.4,5.6c0.4,0.9,0.8,1.7,1.4,2.5c0.1,0.2,0.3,0.3,0.4,0.5
			c0.2,0.2,0.3,0.4,0.5,0.6c0.3,0.3,0.7,0.7,1,0.9c0.2,0.1,0.3,0.3,0.5,0.4c5.1,4.4,15.9,8.4,30.6,8.4c15.2,0,26.6-2.2,35.8-5.2
			c2.1-0.6,4.3-1.4,6.5-2.2c3.4-1.3,6.8-2.8,10.2-4.4c0.4,0.1,0.9,0.3,1.3,0.4c4.7,1.5,9.8,2.9,15.2,3.9c2.7,0.5,5.5,0.9,8.4,1
			c2.8,0.2,5.9,0,9-0.8c1.5-0.5,3.1-1.1,4.6-2.2c1.4-1.1,2.8-2.7,3.2-4.9c0.2-1.1,0.1-2.2-0.1-3.2c-0.3-1-0.8-1.9-1.3-2.7
			c-1.2-1.5-2.6-2.6-4.1-3.4c-3.1-1.5-6.3-1.9-9.4-1.9c-3,0-6.1,0.5-9,1.2c-2.9,0.8-5.6,1.9-8.2,3.1c-2.6,1.2-5,2.5-7.4,3.8
			c-1.1,0.6-2.2,1.2-3.3,1.8c-1.2-0.3-2.4-0.7-3.6-1c-3.9-1.2-7.7-2.5-11.3-3.7c-0.7-0.2-1.4-0.5-2.1-0.7c3.3-3,5.8-6.7,6.8-10.7
			c0.3-0.3,0.4-0.8,0.5-1.2l1.3-5.9c1-4,4.7-8.4,6.1-8.4c0.9,0,0.7,1.3,0.5,2.9l-2.3,12.9c-0.3,1.9,1,2.2,2.1,2.2
			c1.5,0,1.6-1.2,1.8-2.2l1.3-7.4c1-4,4.7-8.4,6.1-8.4c0.9,0,0.7,1.3,0.5,2.9l-1.8,10.3c-0.5,2.6,0.7,4.8,3.4,4.8
			c2.2,0,4-1.1,5.4-2.7c0.7,1.6,2.2,2.7,4.4,2.7c1.9,0,3.5-0.9,4.7-2.1c0.5,1.2,1.8,2.1,3.6,2.1c1.7,0,3.2-0.7,4.5-1.8
			c1,0.9,3,1.8,4.9,1.8c0.5,0,1.1,0,1.6-0.1c2,0.3,4.5,0.1,7.5-1.2c2.5-1.1,4.9-1.1,6.9-0.7c0.1,0,0.2,0.1,0.3,0.1
			c0.4,0.1,0.7,0.3,1,0.5c0.3,0.2,0.6,0.4,0.9,0.6c0.3,0.2,0.5,0.4,0.8,0.5c0.5,0.4,0.8,0.7,1,0.9c0.1,0.1,0.2,0.2,0.2,0.2
			c0.1,0.1,0,0,0,0.1c1.2,0.9,2.9,0.6,3.8-0.6C171.6,83.1,171.3,81.4,170.1,80.5z M80.4,76.6c-0.2,1.3-1,2.4-1.7,3.1
			c-1.4,0-3.4-0.9-5-1.8c0.4-0.6,0.7-1.3,0.9-1.9c0,0,0,0,0-0.1c0.1-0.1,0.2-0.2,0.2-0.4c1.1-2.5,1.9-4.2,3.1-6.2
			C79.5,71.3,81,73.4,80.4,76.6z M72.5,97.7c-4,0-6.2-2.2-6.2-4.3c0-0.9,0.4-1.8,1.2-2.4c1.1-0.8,2.7-1.3,4.7-1.3
			c3,0,8,1.4,14.1,3.4C81.9,96,76.8,97.7,72.5,97.7z M130.1,93.4c2.6-0.7,5.2-1,7.9-1c2.6,0,5.2,0.4,7.3,1.5c1,0.5,1.9,1.2,2.5,2
			c0.6,0.8,0.8,1.5,0.6,2.2c-0.1,0.7-0.6,1.4-1.4,2.1c-0.8,0.6-1.9,1.1-3.1,1.5c-1.2,0.4-2.4,0.6-3.7,0.7c-0.6,0.1-1.3,0.1-1.9,0.1
			l-0.5,0l-0.2,0l-0.3,0l-1,0c-2.6,0-5.2-0.3-7.8-0.7c-4.3-0.7-8.5-1.6-12.5-2.6C120.5,96.9,125.2,94.6,130.1,93.4z M151.6,76.6
			c-0.2,1.3-1,2.4-1.7,3.1c-1.4,0-3.4-0.9-5-1.8c0.4-0.7,0.7-1.3,0.9-1.9c0,0,0,0,0-0.1c0.1-0.1,0.2-0.2,0.2-0.4
			c1.1-2.5,1.9-4.2,3.1-6.2C150.7,71.3,152.2,73.4,151.6,76.6z"/>
		<path fill="#323232" d="M135.2,40.2c-2.3,1.5-3.1,4.9-1.9,8.2c0.7,1.8,2,3.5,3.9,4.8c-6.5,4.3-18.1,3.6-18.2,3.6
			c-0.8-0.1-1.6,0.6-1.7,1.5c-0.1,0.9,0.6,1.6,1.5,1.7c0.6,0,14.5,0.8,21.7-5.3c2.1,0.6,4.6,0.7,7.6,0.2c5.5-0.9,9.4-0.3,11.1,1.7
			c0,0.1,0.1,0.1,0.1,0.1c0.1,0.1,0.1,0.2,0.2,0.3c0.1,0.2,0.1,0.4,0.2,0.6c0.1,0.2,0.1,0.4,0.1,0.6c0.1,0.2,0,0.4,0,0.6
			c0,0.2,0,0.4,0,0.6c0,0.3-0.1,0.7-0.2,1c-0.1,0.3-0.2,0.5-0.2,0.7c-0.2,0.4-0.3,0.6-0.3,0.6l0,0.1c-0.1,0.2-0.1,0.3-0.2,0.5
			c-0.2,1.3,0.6,2.5,1.9,2.7c1.3,0.2,2.5-0.6,2.7-1.9c0,0,0.1-0.4,0.2-1.1c0-0.4,0.1-0.8,0.1-1.3c0-0.5,0-1-0.1-1.6
			c0-0.3-0.1-0.6-0.2-0.9c-0.1-0.3-0.2-0.7-0.3-1c-0.2-0.3-0.3-0.7-0.5-1c-0.2-0.3-0.4-0.6-0.6-0.9c-0.1-0.1-0.2-0.2-0.3-0.3
			c-0.1-0.1-0.2-0.3-0.3-0.4c-2.5-3-7.2-3.9-14-2.8c-1.9,0.3-3.4,0.3-4.8,0.2c4-6,1.3-9.6,0.3-10.6
			C141.1,39.1,137.7,38.6,135.2,40.2z M140.9,43.5c1.5,1.5,1.1,4.2-0.9,7.1c-0.1,0.1-0.2,0.3-0.3,0.4c-2.3-1.1-3.2-2.9-3.4-3.7
			c-0.8-2-0.3-3.9,0.6-4.5c0.5-0.3,1-0.4,1.6-0.4C139.4,42.4,140.3,42.8,140.9,43.5z"/>
	</g>
	<g>
		<g>
			<path fill="#CD5C43" d="M151.7,126.7c0,0.7-0.5,1.2-1.2,1.2c-0.7,0-1.2-0.5-1.2-1.2c0-0.7,0.5-1.2,1.2-1.2
				C151.2,125.4,151.7,126,151.7,126.7z"/>
			<path fill="#CD5C43" d="M19.9,126.7c0,0.7-0.5,1.2-1.2,1.2c-0.7,0-1.2-0.5-1.2-1.2c0-0.7,0.5-1.2,1.2-1.2
				C19.4,125.4,19.9,126,19.9,126.7z"/>
		</g>
		<g>
			<path fill="#CD5C43" d="M33.7,130.7c-0.7,0-1.2,0-1.9,0c-0.1,0-0.1,0-0.1-0.1l-0.1-3.4c0,0-1.3,1.3-1.8,1.8c0,0-0.1,0.1-0.1,0.1
				s0,0-0.1-0.1c-0.5-0.5-1.8-1.8-1.8-1.8l-0.1,3.3c0,0.2,0,0.2-0.1,0.2c-0.7,0-1.1,0-1.7,0c-0.1,0-0.1,0-0.1-0.1
				c0-2.5,0.1-5.5,0.2-7.8c0-0.1,0-0.1,0.1-0.1c0,0,0.1,0,0.1,0c1,1,3,3,3.5,3.6c0.5-0.6,2.4-2.6,3.5-3.7c0,0,0.1,0,0.1,0
				c0,0,0,0,0,0.1c0.2,3,0.2,5,0.3,7.8C33.8,130.6,33.9,130.7,33.7,130.7z"/>
			<path fill="#CD5C43" d="M42.5,130.7h-5.3c-0.1,0-0.1,0-0.1-0.2c0-2,0-5.4,0-7.6c0-0.1,0-0.1,0.1-0.1h5.2c0.1,0,0.1,0,0.1,0.2
				c0,0.6,0,0.9,0,1.4c0,0.1,0,0.2-0.1,0.2l-3.3,0v1.3h3.2c0.1,0,0.1,0,0.1,0.2c0,0.6,0,0.9,0,1.4c0,0.1,0,0.2-0.1,0.2h-3.2v1.3
				l3.4,0c0.1,0,0.1,0,0.1,0.2c0,0.6,0,1,0,1.5C42.6,130.7,42.6,130.7,42.5,130.7z"/>
			<path fill="#CD5C43" d="M52.4,130.7h-2c-0.1,0-0.1,0-0.2-0.2c-0.4-0.8-1.2-2.1-1.2-2.1l-1.3,0c0,0,0,1.3,0,2.2
				c0,0.1,0,0.1-0.1,0.1c-0.7,0-1.2,0-1.9,0c-0.1,0-0.1,0-0.1-0.1c0-3,0-4.9,0-7.6c0-0.1,0.1-0.1,0.1-0.1h3.6c1.8,0,2.7,1.2,2.7,2.7
				c0,1.1-0.4,1.8-1.1,2.2c0.3,0.5,1,1.6,1.6,2.7C52.6,130.6,52.5,130.7,52.4,130.7z M48.7,124.6h-1.1v2.3l1.2,0c0.6,0,1-0.5,1-1.2
				C49.7,125,49.4,124.6,48.7,124.6z"/>
			<path fill="#CD5C43" d="M57.1,130.7c-0.8,0-1.2,0-1.9,0c-0.1,0-0.1,0-0.1-0.1c0-3,0-4.9,0-7.6c0-0.1,0-0.1,0.1-0.1
				c0.7,0,1.2,0,1.9,0c0.1,0,0.1,0,0.1,0.1c0,1.8,0,5.8,0,7.6C57.3,130.7,57.2,130.7,57.1,130.7z"/>
			<path fill="#CD5C43" d="M71.4,130.7h-2.1c-0.1,0-0.1,0-0.2-0.1c-0.4-0.7-1.4-2.7-1.4-2.7l-1,1.3c0,0,0,0.5,0,1.4
				c0,0.1,0,0.1-0.1,0.1c-0.7,0-1.2,0-1.9,0c-0.1,0-0.1,0-0.1-0.1c0-3,0-4.9,0-7.6c0-0.1,0-0.1,0.1-0.1c0.7,0,1.1,0,1.9,0
				c0.1,0,0.1,0,0.1,0.1c0,0.9,0,3.5,0,3.5s1.6-2.5,2.2-3.5c0-0.1,0.1-0.1,0.1-0.1h2.1c0.1,0,0.1,0,0.1,0.1
				c-0.8,1.1-2.3,3.2-2.3,3.2s1.7,3.1,2.5,4.4C71.6,130.7,71.5,130.7,71.4,130.7z"/>
			<path fill="#CD5C43" d="M76.2,130.7c-0.8,0-1.2,0-1.9,0c-0.1,0-0.1,0-0.1-0.1c0-3,0-4.9,0-7.6c0-0.1,0-0.1,0.1-0.1
				c0.7,0,1.2,0,1.9,0c0.1,0,0.1,0,0.1,0.1c0,1.8,0,5.8,0,7.6C76.3,130.7,76.3,130.7,76.2,130.7z"/>
			<path fill="#CD5C43" d="M86.6,130.7h-2c-0.1,0-0.1,0-0.2-0.2c-0.4-0.8-1.2-2.1-1.2-2.1l-1.3,0c0,0,0,1.3,0,2.2
				c0,0.1,0,0.1-0.1,0.1c-0.7,0-1.2,0-1.9,0c-0.1,0-0.1,0-0.1-0.1c0-3,0-4.9,0-7.6c0-0.1,0.1-0.1,0.1-0.1h3.6c1.8,0,2.7,1.2,2.7,2.7
				c0,1.1-0.4,1.8-1.1,2.2c0.3,0.5,1,1.6,1.6,2.7C86.8,130.6,86.7,130.7,86.6,130.7z M82.9,124.6h-1.1v2.3l1.2,0c0.6,0,1-0.5,1-1.2
				C83.9,125,83.5,124.6,82.9,124.6z"/>
			<path fill="#CD5C43" d="M91.3,130.7c-0.8,0-1.2,0-1.9,0c-0.1,0-0.1,0-0.1-0.1c0-3,0-4.9,0-7.6c0-0.1,0-0.1,0.1-0.1
				c0.7,0,1.2,0,1.9,0c0.1,0,0.1,0,0.1,0.1c0,1.8,0,5.8,0,7.6C91.4,130.7,91.4,130.7,91.3,130.7z"/>
			<path fill="#CD5C43" d="M101.5,130.7c-0.7,0-1.1,0-1.9,0c-0.1,0-0.1,0-0.1-0.1c0-0.9,0-3.1,0-3.1h-2.6c0,0,0,2.2,0,3.1
				c0,0.1,0,0.1-0.1,0.1c-0.7,0-1.2,0-1.9,0c-0.1,0-0.1,0-0.1-0.1c0-3,0-4.9,0-7.6c0-0.1,0-0.1,0.1-0.1c0.7,0,1.2,0,1.9,0
				c0.1,0,0.1,0,0.1,0.1c0,0.9,0,2.7,0,2.7h2.6c0,0,0-1.8,0-2.7c0-0.1,0-0.1,0.1-0.1c0.7,0,1.2,0,1.9,0c0.1,0,0.1,0,0.1,0.1
				c0,2.7,0,4.5,0,7.6C101.6,130.7,101.6,130.7,101.5,130.7z"/>
			<path fill="#CD5C43" d="M107,130.7c-0.8,0-1.2,0-1.9,0c-0.1,0-0.1,0-0.1-0.1c0-3,0-4.9,0-7.6c0-0.1,0-0.1,0.1-0.1
				c0.7,0,1.2,0,1.9,0c0.1,0,0.1,0,0.1,0.1c0,1.8,0,5.8,0,7.6C107.1,130.7,107.1,130.7,107,130.7z"/>
			<path fill="#CD5C43" d="M118.2,130.7c-0.7,0-1.2,0-1.9,0c-0.1,0-0.1,0-0.1-0.1l-0.1-3.4c0,0-1.3,1.3-1.8,1.8c0,0-0.1,0.1-0.1,0.1
				s0,0-0.1-0.1c-0.5-0.5-1.8-1.8-1.8-1.8l-0.1,3.3c0,0.2,0,0.2-0.1,0.2c-0.7,0-1.1,0-1.7,0c-0.1,0-0.1,0-0.1-0.1
				c0-2.5,0.1-5.5,0.2-7.8c0-0.1,0-0.1,0.1-0.1c0,0,0.1,0,0.1,0c1,1,3,3,3.5,3.6c0.5-0.6,2.4-2.6,3.5-3.7c0,0,0.1,0,0.1,0
				c0,0,0,0,0,0.1c0.2,3,0.2,5,0.3,7.8C118.3,130.6,118.3,130.7,118.2,130.7z"/>
			<path fill="#CD5C43" d="M126.9,130.7h-5.3c-0.1,0-0.1,0-0.1-0.2c0-2,0-5.4,0-7.6c0-0.1,0-0.1,0.1-0.1h5.2c0.1,0,0.1,0,0.1,0.2
				c0,0.6,0,0.9,0,1.4c0,0.1,0,0.2-0.1,0.2l-3.3,0v1.3h3.2c0.1,0,0.1,0,0.1,0.2c0,0.6,0,0.9,0,1.4c0,0.1,0,0.2-0.1,0.2h-3.2v1.3
				l3.4,0c0.1,0,0.1,0,0.1,0.2c0,0.6,0,1,0,1.5C127.1,130.7,127.1,130.7,126.9,130.7z"/>
			<path fill="#CD5C43" d="M135.4,124.5l-2,0c0,0,0,5.2,0,6.1c0,0.1,0,0.1-0.1,0.1c-0.8,0-1.2,0-1.9,0c-0.1,0-0.1,0-0.1-0.1
				c0-1.4,0-6.1,0-6.1l-2,0c-0.1,0-0.1,0-0.1-0.1c0-0.6,0-0.7,0-1.5c0-0.1,0-0.1,0.1-0.1h6.1c0.1,0,0.1,0,0.1,0.1
				C135.5,123.7,135.5,123.8,135.4,124.5C135.5,124.5,135.5,124.5,135.4,124.5z"/>
			<path fill="#CD5C43" d="M143.6,130.7h-5.3c-0.1,0-0.1,0-0.1-0.2c0-2,0-5.4,0-7.6c0-0.1,0-0.1,0.1-0.1h5.2c0.1,0,0.1,0,0.1,0.2
				c0,0.6,0,0.9,0,1.4c0,0.1,0,0.2-0.1,0.2l-3.3,0v1.3h3.2c0.1,0,0.1,0,0.1,0.2c0,0.6,0,0.9,0,1.4c0,0.1,0,0.2-0.1,0.2h-3.2v1.3
				l3.4,0c0.1,0,0.1,0,0.1,0.2c0,0.6,0,1,0,1.5C143.8,130.7,143.7,130.7,143.6,130.7z"/>
		</g>
	</g>
	<g>
		<path fill="#323232" d="M48.5,158.1C48.5,158.2,48.5,158.2,48.5,158.1c-0.2-0.1-0.3-0.1-0.4-0.1c-0.2,0-0.3,0.1-0.3,0.3
			c0,0,0,0.2,0,0.3s0,0,0,0c0.2,0,0.5,0,0.6,0c0.1,0,0.1,0,0.1,0.1v0.8c0,0.1,0,0.1-0.1,0.1c-0.2,0-0.4,0-0.5,0v2.9
			c0,0.1,0,0.1-0.1,0.1c-0.4,0-0.8,0-1.2,0c0,0-0.1-0.1-0.1-0.1v-2.9c-0.1,0-0.2,0-0.3,0c0,0-0.1,0-0.1-0.1v-0.8c0,0,0-0.1,0.1-0.1
			c0,0,0.2,0,0.3,0c0-0.1,0-0.3,0-0.4c0-0.7,0.3-1.2,1.1-1.2c0.6,0,0.9,0.2,1.1,0.5c0.1,0.1,0.1,0.1,0,0.2
			C48.8,157.8,48.6,158,48.5,158.1z"/>
		<path fill="#323232" d="M52.7,160.3c0,0-0.1,0-0.2,0c0-0.4-0.2-0.6-0.4-0.6c-0.2,0-0.4,0.2-0.5,0.3v2.5c0,0.1,0,0.1-0.1,0.1
			c-0.4,0-0.8,0-1.2,0c-0.1,0-0.1,0-0.1-0.1c0-1.5,0-2.4,0-3.8c0-0.1,0-0.1,0.1-0.1c0.5,0,0.7,0,1.2,0c0.1,0,0.1,0,0.1,0.1v0.4
			c0.2-0.4,0.6-0.6,1-0.6c0.6,0,1,0.3,1,1C53.4,159.7,52.8,160.3,52.7,160.3z"/>
		<path fill="#323232" d="M57.1,162.8c-1.2,0-2.1-0.9-2.1-2.1c0-1.2,0.9-2.2,2.1-2.2c1.2,0,2.1,0.9,2.1,2.2S58.3,162.8,57.1,162.8z
			 M57.1,159.8c-0.4,0-0.8,0.4-0.8,0.9c0,0.5,0.4,0.9,0.8,0.9c0.4,0,0.8-0.4,0.8-0.9C57.9,160.2,57.5,159.8,57.1,159.8z"/>
		<path fill="#323232" d="M67.2,162.7c-0.4,0-0.8,0-1.2,0c0,0-0.1,0-0.1-0.1v-2.3c0-0.4-0.2-0.6-0.5-0.6c-0.3,0-0.5,0.2-0.5,0.4v2.5
			c0,0.1,0,0.1-0.1,0.1c-0.4,0-0.8,0-1.2,0c0,0-0.1,0-0.1-0.1v-2.3c0-0.4-0.2-0.6-0.5-0.6c-0.3,0-0.5,0.2-0.5,0.4v2.6
			c0,0.1,0,0.1-0.1,0.1c-0.4,0-0.8,0-1.2,0c-0.1,0-0.1,0-0.1-0.1c0-1.5,0-2.4,0-3.8c0-0.1,0-0.1,0.1-0.1c0.4,0,0.8,0,1.2,0
			c0.1,0,0.1,0,0.1,0.1v0.6c0.2-0.5,0.6-0.8,1.2-0.8c0.6,0,1,0.2,1.2,0.8c0.1-0.5,0.6-0.8,1.2-0.8c0.6,0,1.3,0.2,1.3,1.3v2.8
			C67.2,162.7,67.2,162.7,67.2,162.7z"/>
		<path fill="#323232" d="M76.1,162.7c-0.2,0-1,0-1.1,0c-0.1,0-0.1,0-0.1-0.1v-0.5c-0.1,0.4-0.6,0.6-1.1,0.6c-1.1,0-1.9-0.8-1.9-2.1
			c0-1.2,0.8-2.1,1.9-2.1c0.5,0,1,0.3,1.1,0.6v-0.5c0-0.1,0-0.1,0.1-0.1c0.5,0,0.8,0,1.2,0c0,0,0.1,0,0.1,0.1c0,1.5,0,2.4,0,3.9
			C76.2,162.7,76.2,162.7,76.1,162.7z M74.1,159.8c-0.5,0-0.8,0.4-0.8,0.9c0,0.5,0.4,0.8,0.8,0.8c0.4,0,0.8-0.3,0.8-0.8
			C74.9,160.2,74.5,159.8,74.1,159.8z"/>
		<path fill="#323232" d="M79.6,162.7c-0.4,0-0.8,0-1.2,0c-0.1,0-0.1,0-0.1-0.1c0-1.5,0-3.8,0-5.3c0-0.1,0-0.1,0.1-0.1
			c0.5,0,0.8,0,1.2,0c0.1,0,0.1,0,0.1,0.1L79.6,162.7C79.6,162.7,79.6,162.7,79.6,162.7z"/>
		<path fill="#323232" d="M83,162.7c-0.4,0-0.8,0-1.2,0c-0.1,0-0.1,0-0.1-0.1c0-1.5,0-3.8,0-5.3c0-0.1,0-0.1,0.1-0.1
			c0.5,0,0.8,0,1.2,0c0.1,0,0.1,0,0.1,0.1L83,162.7C83.1,162.7,83.1,162.7,83,162.7z"/>
		<path fill="#323232" d="M89.9,162.8c-1.2,0-2.1-0.9-2.1-2.1c0-1.2,0.9-2.2,2.1-2.2c1.2,0,2.1,0.9,2.1,2.2S91.1,162.8,89.9,162.8z
			 M89.9,159.8c-0.4,0-0.8,0.4-0.8,0.9c0,0.5,0.4,0.9,0.8,0.9c0.4,0,0.8-0.4,0.8-0.9C90.7,160.2,90.3,159.8,89.9,159.8z"/>
		<path fill="#323232" d="M95.9,158.1C95.9,158.2,95.8,158.2,95.9,158.1c-0.2-0.1-0.3-0.1-0.4-0.1c-0.2,0-0.3,0.1-0.3,0.3
			c0,0,0,0.2,0,0.3s0,0,0,0c0.2,0,0.5,0,0.6,0c0.1,0,0.1,0,0.1,0.1v0.8c0,0.1,0,0.1-0.1,0.1c-0.2,0-0.4,0-0.5,0v2.9
			c0,0.1,0,0.1-0.1,0.1c-0.4,0-0.8,0-1.2,0c0,0-0.1-0.1-0.1-0.1v-2.9c-0.1,0-0.2,0-0.3,0c0,0-0.1,0-0.1-0.1v-0.8c0,0,0-0.1,0.1-0.1
			c0,0,0.2,0,0.3,0c0-0.1,0-0.3,0-0.4c0-0.7,0.3-1.2,1.1-1.2c0.6,0,0.9,0.2,1.1,0.5c0.1,0.1,0.1,0.1,0,0.2
			C96.1,157.8,96,158,95.9,158.1z"/>
		<path fill="#323232" d="M104.1,162.7c-0.4,0-0.7,0-1.2,0c-0.1,0-0.1,0-0.1-0.1v-0.4c-0.2,0.5-0.6,0.6-1.2,0.6
			c-0.8,0-1.2-0.5-1.2-1.3l0-2.7c0-0.1,0-0.1,0.1-0.1c0.4,0,0.8,0,1.2,0c0.1,0,0.1,0,0.1,0.1l0,2.4c0,0.4,0.2,0.5,0.5,0.5
			c0.3,0,0.5-0.2,0.6-0.4v-2.6c0-0.1,0-0.1,0.1-0.1c0.4,0,0.8,0,1.2,0c0.1,0,0.1,0,0.1,0.1C104.2,160.2,104.2,161.1,104.1,162.7
			C104.2,162.7,104.2,162.7,104.1,162.7z"/>
		<path fill="#323232" d="M107.8,162.8c-1,0-1.5-0.4-1.8-0.9c0-0.1,0-0.1,0-0.1l0.9-0.3c0,0,0.1,0,0.1,0c0.1,0.2,0.4,0.4,0.6,0.4
			c0.4,0,0.5-0.1,0.5-0.3c0-0.2-0.2-0.3-0.8-0.5c-0.8-0.2-1.3-0.5-1.3-1.3c0-0.8,0.7-1.3,1.8-1.3c0.9,0,1.4,0.3,1.6,0.9
			c0,0,0,0.1,0,0.1l-0.9,0.3c0,0-0.1,0-0.1,0c-0.1-0.2-0.3-0.4-0.6-0.4c-0.3,0-0.4,0.1-0.4,0.3c0,0.2,0.2,0.2,0.9,0.4
			c0.8,0.2,1.4,0.5,1.4,1.3C109.7,162.2,109,162.8,107.8,162.8z"/>
		<path fill="#323232" d="M118.3,162.7c-0.2,0-1,0-1.1,0c-0.1,0-0.1,0-0.1-0.1v-0.5c-0.1,0.4-0.6,0.6-1.1,0.6
			c-1.1,0-1.9-0.8-1.9-2.1c0-1.2,0.8-2.1,1.9-2.1c0.5,0,1,0.3,1.1,0.6v-0.5c0-0.1,0-0.1,0.1-0.1c0.5,0,0.8,0,1.2,0
			c0,0,0.1,0,0.1,0.1c0,1.5,0,2.4,0,3.9C118.4,162.7,118.3,162.7,118.3,162.7z M116.2,159.8c-0.5,0-0.8,0.4-0.8,0.9
			c0,0.5,0.4,0.8,0.8,0.8c0.4,0,0.8-0.3,0.8-0.8C117,160.2,116.7,159.8,116.2,159.8z"/>
		<path fill="#323232" d="M122.8,162.6c-0.2,0.1-0.5,0.2-0.8,0.2c-1.4,0-1.4-0.9-1.4-1.7v-1.4c-0.1,0-0.2,0-0.3,0
			c-0.1,0-0.1,0-0.1-0.1v-0.8c0,0,0-0.1,0.1-0.1c0.1,0,0.2,0,0.4,0l0-1c0-0.1,0-0.1,0.1-0.1c0.4,0,0.7,0,1.1,0
			c0.1,0,0.2,0.1,0.2,0.1l0,1c0.1,0,0.4,0,0.7,0c0.1,0,0.1,0,0.1,0.1v0.9c0,0.1,0,0.1-0.1,0.1c-0.2,0-0.5,0-0.7,0v1.5
			c0,0.4,0.2,0.5,0.7,0.4c0.1,0,0.1,0,0.2,0.1c0,0.1,0.1,0.6,0.1,0.8C122.9,162.5,122.8,162.5,122.8,162.6z"/>
	</g>
	<line fill="none" stroke="#323232" stroke-miterlimit="10" x1="73.5" y1="144.4" x2="95.5" y2="144.4"/>
</g>
</svg>
