<!-- Generator: Adobe Illustrator 18.0.0, SVG Export Plug-In  -->
<svg version="1.1"
	 xmlns="http://www.w3.org/2000/svg" xmlns:xlink="http://www.w3.org/1999/xlink" xmlns:a="http://ns.adobe.com/AdobeSVGViewerExtensions/3.0/"
	 x="0px" y="0px" width="433.3px" height="440.8px" viewBox="0 0 433.3 440.8" enable-background="new 0 0 433.3 440.8"
	 xml:space="preserve">
<defs>
</defs>
<g>
	<g>
		<path fill="#323232" d="M194.3,86.7c18.8,0,26.7-15.3,29.1-23.3c2.8-7.1,4.9-15.7,5.8-19.9h1.4h9.8c-6.1,11.1-10,20.2-11.5,28.5
			c-2,11.3,4.6,14.7,10.7,14.7c10.5,0,17.4-10.5,21.4-18.8c0.1-0.2,0.3-0.4,0.4-0.7c3.7-7.5,6.4-18.7,7.4-23.7h1.4h9.8
			c-6.1,11.1-10,20.2-11.5,28.5c-2,11.3,4.6,14.7,10.7,14.7c5.4,0,9.9-2.8,13.5-6.7c1.6,4.3,4.9,6.8,9.9,6.8
			c5.5,0,10.2-3.7,14.2-8.9l-2.9,16.4c-9.8,7.5-18.5,14.1-20.8,27.1c-1.4,8.2,2.5,14.8,9.8,14.8c6.6,0,14.2-4.8,16.6-18.3l3.9-22.3
			c8-6.1,16.8-13.7,23.9-28.6c0.1-0.3,0.2-0.6,0.3-0.8c7.9-16.5,9.1-34.1,2.9-47.3C347.6,12.8,342,8,334.8,5.5
			c-10.1-3.4-22.1-2.2-33,3.4c-3,1.5-6.2,2.8-9.3,3.8c-2.4,0.6-4.9,1-7.2,1.3c-5.3,0.6-10.4,0.1-13.6-1.3c-1.6-0.6-2.7-1.5-3.3-2.2
			c-0.6-0.7-0.8-1.4-0.9-2c-0.2-1.2,0-2.3,0-2.3c0.1-3.3-2.4-6-5.7-6.2c-3.3-0.1-6,2.4-6.2,5.7c0,0,0,0.5,0.1,1.6
			c0.1,1,0.3,2.6,1,4.6c0.7,2,2,4.4,4.2,6.3c2.1,1.9,4.9,3.3,7.7,4.1c5.7,1.5,11.9,1.1,18-0.2c2.6-0.6,5.1-1.4,7.7-2.3
			c3.8-1.2,7.5-2.6,10.9-4.3c9.2-4.7,19.2-5.8,27.4-3c5.4,1.8,9.4,5.2,11.5,9.6c5.1,11,4,26.3-2.6,40.5c-0.3,0.5-0.7,1.1-1.1,1.9
			c-0.6,1.4-1.3,2.7-2,3.9c-0.2,0.4-0.5,0.9-0.7,1.3c0,0.1-0.1,0.1-0.1,0.2c-3.6,6.2-7.7,11-12.1,15l9.3-52.5c0.6-3.1-1.7-5.7-6-5.7
			c-1.8,0-3.5,0.9-3.7,2.2c-0.2,0.9,0.2,1.7-0.2,4.1l-5,28.1c-3.2,9-8.5,17.4-13.6,17.4c-3.7,0-5.3-3.7-4-10.7
			c1.9-10.8,4.3-16.5,8.3-26c0.9-1.9,5.5-7.1-0.8-7.1c-6.8,0-6.4,2.6-7.7,4.8c0,0-7.3,15.3-9.8,29c0,0.2,0,0.4-0.1,0.6
			c-2.2,4.7-5.4,9.3-9.8,9.3c-3.5,0-4.6-3.3-3.9-7c2.3-12.9,10.7-28.1,11-29.6c1-3-3.4-7.2-4.9-7.2h-6.7c-1.3,0-2.6,0-6.7-0.5
			c-0.5-5.3-3.8-6.8-6.9-6.8c-3.4,0-6.9,2.3-7.5,5.9c-0.7,3.7,1.2,6.4,4.1,8.2c-1.3,6.6-3.7,17.3-6,22.4c0,0,0,0,0,0
			c-0.1,0.2-0.2,0.4-0.3,0.6c-2.2,5.7-5.8,13.9-11.7,13.9c-3.5,0-4.6-3.3-3.9-7c2.3-12.9,10.8-28.1,11-29.6c1-3-3.4-7.2-4.9-7.2
			h-6.7c-1.3,0-2.6,0-6.7-0.5c-0.5-5.3-3.8-6.8-6.9-6.8c-3.3,0-6.8,2.3-7.5,5.9c-0.7,3.7,1.2,6.4,4.1,8.2
			c-1.1,5.8-3.2,14.9-5.2,20.5c0,0.1-0.1,0.2-0.1,0.3c-2.9,7.9-8.5,16.2-18.6,16.2c-6.7,0-9.5-3.6-10.6-8
			c13.2-3.7,21.7-15.1,23.4-24.6c1.4-7.7-2.1-13-9.3-13c-9.9,0-21.9,12.2-24.8,28.6C173.1,77.3,182.5,86.7,194.3,86.7z M309.7,117.9
			c-0.4,2.5-1.3,10.2-5.4,10.2c-2.1,0-2.8-3.1-2.1-7.1c1.3-7.7,5-12.6,9.9-16.9L309.7,117.9z M186.6,60.8
			c0.7-5.4,5.1-19.6,11.5-19.6c1.7,0,2.4,1.7,1.9,4.5c-1.4,7.7-6.7,14.4-13.6,17.4C186.5,62.4,186.5,61.6,186.6,60.8z"/>
		<path fill="#323232" d="M52.5,209.4c-0.3,0.1-9.6,8.9-22.3,8.9c-17.2,0-20.2-17.6-16.9-36.1c4.3-24.3,24.6-54.3,44.3-54.3
			c6.9,0,8.2,4.9,7.6,8.4c-2.2,12.7-20.4,25.1-31.4,25.1c-4.3,0-4.4-1.5-5.4-1.5c-1.1,0-2.1,2.7-2.5,4.8c-0.9,4.9,1.7,7.2,5.3,7.2
			c16.6,0,42.5-16.7,45.7-35.1c2.3-13-4.7-19.7-15.5-19.7c-29.7,0-55,36.1-60.1,65.2c-5.1,28.8,4.5,47.3,25.8,47.3
			c18,0,31-11.9,31.6-12.4C62.9,213.5,57.5,203,52.5,209.4z"/>
		<path fill="#323232" d="M166.3,147.2c-0.6,3.6,1.8,6.6,5.4,6.6c3.8,0,7.2-3,7.8-6.6c0.7-3.8-1.7-6.6-5.5-6.6
			C170.4,140.6,167,143.4,166.3,147.2z"/>
		<path fill="#323232" d="M47.9,75.7c3.3,13.1,12.6,22.1,25.4,24.7c4.5,0.9,8.6,1.4,12.4,1.4c6.9,0,12.6-1.6,17.1-4.7
			c3.6-2.5,6.4-5.9,8.7-10.5c2.9-4.1,5.2-8.7,6-13.2l9.2-51.2c1.8-10.5,6.7-10.5,8.5-10.5c2.1,0,6.5,0,4.6,10.5l-12.9,73.7
			c-0.5,2.6,1.2,4.7,3.8,5.3c2.6,0.7,5.5-0.9,6.7-4.3c1.2-3.4,12.9-73.4,12.9-73.4c2.1-11.9,6.6-11.9,8.7-11.9c1.8,0,6.5,0,4.6,10.5
			c0,0-4.4,23.8-6.7,37.8c-0.9,5.6-1.2,12.4-0.5,18.1c0.6,18.1,11.3,30.4,31.2,35.5c-17.5,11.2-41,24.3-58.2,24.3
			c-1.3,0-2.5-0.1-3.6-0.2l-0.7-0.1l-1.3-0.3c-3.5-0.8-6.5-2.4-7.9-4.4c-1.5-2-1.6-4-1-5.7c0.6-1.8,2.1-3.2,3.7-4.1
			c1.6-1,3.3-1.4,4.7-1.7c1.5-0.2,2.7-0.3,3.5-0.3c0.8,0,1.3,0,1.3,0h0.3c0.2,0,0.3,0,0.5,0c3.3-0.2,5.7-3.1,5.5-6.3
			c-0.2-3.3-3.1-5.7-6.3-5.5c0,0-0.7,0-1.9,0.1c-1.3,0.1-3.1,0.4-5.5,0.9c-2.3,0.7-5.3,1.7-8.2,3.9c-2.9,2.1-6,5.4-7.2,10.2
			c-0.6,2.3-0.7,5-0.1,7.6c0.6,2.6,2,5,3.8,6.9c3.6,3.9,8.6,5.7,13.3,6.4l1.8,0.2l1,0.1c1.4,0.1,2.8,0.2,4.3,0.2
			c21.8,0,50.2-17.3,69.3-30.1c22.9,3.7,40,2.2,47.6-4.3c2.9-2.5,4.4-5.8,4.2-9.4c-0.2-4.1-2.3-7.5-6.1-9.4
			c-9.2-4.7-25.2-0.1-35.6,6.7c-1.8,1.2-3.9,2.6-6.4,4.3c-1.7,1.1-3.5,2.4-5.5,3.7c-1.3-0.2-2.6-0.5-3.9-0.7
			c-22.1-4.3-31.3-16.6-28.1-37.4c0.2-1,0.4-2,0.6-2.9c2.5-12,8.7-42.8,8.7-42.8C177,7.3,169,1.5,160.5,1.5c-2.6,0-7.8,0.5-12.2,5.6
			c-3.4-5.1-9.3-5.6-11.7-5.6c-8.3,0-18.1,5.8-21,21.9l-8.6,47.8c-0.6,3.6-1.8,10.2-4.6,15c-1.2,1.8-2.6,3.2-4.2,4.3
			c-5.1,3.5-12.7,4.2-23.4,2.1c-9.7-1.9-16.7-8.8-19.3-18.9c-0.4-1.6-0.7-3.1-0.8-4.7c0-2.4,0.3-4.7,0.8-6.9c0.4-1.7,1-3.2,1.5-4.6
			c0.6-1.4,1.3-2.6,2-3.7c1.4-2.1,2.9-3.5,3.9-4.4c0.5-0.5,1-0.7,1.2-0.9c0.3-0.2,0.4-0.3,0.4-0.3l0.2-0.1c0.4-0.3,0.7-0.6,1.1-0.9
			c2.6-2.8,2.5-7.2-0.3-9.9c-2.8-2.6-7.2-2.5-9.8,0.3c0,0-0.2,0.3-0.7,0.7c-0.4,0.5-1.1,1.2-1.8,2.1c-1.5,1.8-3.3,4.7-4.7,8.2
			c-0.7,1.8-1.3,3.7-1.7,5.8c-0.4,2.1-0.7,4.3-0.8,6.5c-0.1,2.7,0.1,5.4,0.6,8.1C47.1,71.3,47.4,73.5,47.9,75.7z M213.2,105.9
			c10.3-6.8,22.9-8.7,27.7-6.3c1.2,0.6,1.7,1.4,1.8,2.7c0,0.8-0.1,1.9-1.5,3.1c-3.7,3.2-14.3,5.6-32.6,3.7
			C210.3,107.8,211.8,106.7,213.2,105.9z"/>
		<path fill="#323232" d="M430.4,203.6c0,0-0.3-0.2-0.6-0.3c-0.3-0.2-0.8-0.4-1.3-0.6c-1.1-0.4-2.7-1-4.5-1.5
			c-2.9-0.8-6.7-1.5-10.7-1.6c-6.3-1.3-14.1-1.3-22.4,2.2c-0.6,0.3-1.2,0.5-1.8,0.7c0.9-1.3,1.5-2.4,1.8-3.2
			c0.6-1.4,1.2-3.1,1.5-4.6c2.1-12.2-4.9-16.9-9.1-27.6c0.3-0.8,4-5,4.6-8.8c0.6-3.5-0.5-5.8-3.6-5.8c-3.5,0-12,5.8-12.7,10.2
			c-0.4,2.2,0.1,4.1,1,6.1c-3.5,6.8-7.5,14.1-9.8,19.8c-0.3,0.4-0.5,0.9-0.7,1.5c-0.5,1.3-1.1,2.8-1.7,4.2c-0.1,0-0.3-0.1-0.4-0.1
			c-2,0-5,3.5-4.6,7.7c-1.3,1.3-2.8,2-4.4,2c-3.1,0-3.8-3.1-3.3-5.9l3.8-21.3c0.5-3.1-1.7-5.7-6-5.7c-1.8,0-3.5,0.9-3.7,2.2
			c-0.2,0.9,0.2,1.7-0.2,4.1l-3.5,19.9c-2,3.6-4.9,6.7-8.4,6.7c-4.5,0-6.7-3.9-5.5-10.6c3.3-18.6,18.6-28.4,28.4-28.4
			c1.3,0,2.5,0.2,3.7,0.2c1.3,0,1.8-0.8,2.2-3c0.6-3.4-1.5-5.4-5-5.4c-15.7,0-35.4,14.6-39.2,36.1c-0.2,1-0.3,1.9-0.4,2.8
			c-2.2,4.3-5,8.1-8.6,8.1c-3.3,0-2.5-4.8-2.3-5.9l4.7-26.7c1.1-5.9,0.4-13-8-13c-5.8,0-11.2,5.3-15.7,12.1c0.8-5.8-0.3-12.1-8-12.1
			c-5.8,0-11.2,5.4-15.8,12.4l1-5.4c0.5-3.1-1.7-5.7-6-5.7c-1.8,0-3.5,0.9-3.7,2.2c-0.2,0.9,0.2,1.7-0.2,4.1l-3.3,21.5
			c-0.5,0.6-1,1.5-1.5,2.6c-2.2,5.7-5.9,13.9-11.1,13.9c-2.7,0-4.1-1.8-3.3-5.9l7.2-40.8l1.5-8.4l0.4-2.3c6.8,2.9,14.4,5.2,22.7,5.2
			c11,0,19.4-7.7,21.5-19.6c1.8-10.1-1.6-22.2-11.5-25.8c-10.1-3.7-17.6,1.8-20.3,8.5c-0.8,1.9-1.2,3.9-1.2,6c0,0.2,0,0.3-0.1,0.5
			c-0.1,0.7-0.1,1.4-0.1,2.1c0.1,0.7,0,1.4,0.2,2c0.3,1.3,0.6,2.6,1.3,3.7c0.3,0.5,0.6,1.1,0.9,1.6c0.4,0.5,0.7,0.9,1,1.3
			c0.4,0.4,0.7,0.7,1,1.1c0.3,0.3,0.7,0.5,0.9,0.8c1.2,0.9,1.9,1.4,1.9,1.4c0.4,0.3,0.9,0.5,1.4,0.7c3.1,1.1,6.5-0.7,7.6-3.8
			c1-3.1-0.7-6.5-3.8-7.6l-0.3-0.1c0,0-0.2-0.1-0.7-0.1c-0.1,0-0.2,0-0.4,0c-0.1,0-0.2-0.1-0.3-0.2c-0.1,0-0.3-0.1-0.5-0.2
			c-0.1-0.1-0.3-0.2-0.4-0.3c-0.4-0.2-0.6-0.6-0.9-0.9c-0.2-0.2-0.2-0.5-0.4-0.7c-0.1-0.3-0.3-0.6-0.3-0.9c0-0.1-0.1-0.3-0.1-0.4
			c0-1,0.2-2,0.6-2.9c1.3-3.3,4.8-6.1,10.3-4.1c5.8,2.1,7.7,10.4,6.5,17c-0.5,3.1-3.2,13.1-13.8,13.1c-7.6,0-14.7-2.4-21.3-5.3
			l2.2-12.2c0.5-3.1-1.7-5.7-6-5.7c-1.8,0-4.2,0.5-4.4,1.4c-0.2,0.9,1.1,1.2,0.4,4.9l-1.3,7.3c-7-3.4-13.7-6.5-20-6.5
			c-9.8,0-15.8,5.5-18.9,9.6c-0.3,0.2-0.5,0.5-0.8,0.7c-0.9,0.9-1.6,1.7-2.1,2.4c-0.2,0.3-0.4,0.6-0.6,0.8c-0.2,0.2-0.2,0.2-0.2,0.3
			c-1.1,2.5,0.1,5.4,2.6,6.5c2.5,1.1,5.4-0.1,6.5-2.6c0,0,0-0.1,0-0.2c0-0.1,0-0.2,0.1-0.5c0.1-0.5,0.3-1.2,0.6-2
			c0.1-0.3,0.2-0.6,0.4-0.9c2.1-2.8,6.1-6.3,12.5-6.3c4.9,0,10.8,2.9,17.6,6.2c0.3,0.2,0.7,0.3,1,0.5l-1.1,6.4l-1.5,8.5l-5.5,31.3
			c-0.3,0.4-0.6,1-0.9,1.5c-2.1,4.1-5.9,8-12.2,9.3c0.6-1.4,1.2-3.1,1.5-4.6c2.2-12.2-4.9-16.9-9-27.6c0.3-0.8,4-5,4.6-8.8
			c0.6-3.5-0.5-5.8-3.6-5.8c-3.5,0-12,5.8-12.7,10.2c-0.4,2.2,0,4.1,1,6.1c-3.5,6.8-7.5,14.2-9.8,19.8v0c-0.2,0.4-0.4,0.9-0.6,1.4
			c-0.5,1.3-1.1,2.8-1.7,4.2c-0.1,0-0.3-0.1-0.4-0.1c-2,0-5,3.5-4.6,7.8c-1.3,1.3-2.8,2-4.4,2c-3.4,0-2.5-4.8-2.3-5.9l5.8-32.7
			c0.5-3.1-1.7-5.7-5.9-5.7c-1.8,0-3.5,0.9-3.7,2.2c-0.2,0.9,0.2,1.7-0.2,4.1l-3.9,22.3c-0.3,0.5-0.6,1.1-0.9,1.8
			c-2.2,5.7-5.8,13.9-11.7,13.9c-3.5,0-4.6-3.3-3.9-7c2.3-12.9,10.8-28.1,11-29.6c1-3-3.4-7.2-4.9-7.2h-6.7c-1.3,0-2.6,0-6.8-0.5
			c-0.5-5.3-3.8-6.8-6.9-6.8c-3.3,0-6.8,2.3-7.5,5.9c-0.7,3.7,1.2,6.4,4.1,8.2c-1.3,6.6-3.7,17.3-6,22.4c0,0,0,0.1-0.1,0.1
			c-0.1,0.2-0.1,0.3-0.2,0.5c-2.2,5.7-5.9,13.9-11.1,13.9c-3.4,0-2.5-4.8-2.3-5.9l4.7-26.7c1-5.9,0.2-13-8.4-13
			c-6.3,0-11.9,5.5-16.7,12.8l7.4-42.3c0.6-3.1-1.7-5.7-6-5.7c-1.8,0-4.2,0.5-4.4,1.4c-0.2,0.9,1.1,1.2,0.4,4.9l-13.6,77.3
			c-0.8,4.8,2.6,5.7,5.2,5.7c3.7,0,4.2-3.1,4.6-5.5l3.3-18.8C86,178,96,166.9,99.7,166.9c2.4,0,2.1,3.3,1.4,7.4l-4.6,26.2
			c-1.2,6.6,1.9,12.1,8.7,12.1c10.5,0,17.4-10.5,21.4-18.8c0.1-0.2,0.3-0.4,0.4-0.6c3.6-7.5,6.4-18.7,7.4-23.7h1.4h9.8
			c-6.1,11.1-10,20.2-11.5,28.5c-2,11.3,4.6,14.7,10.7,14.7c5.5,0,10-2.9,13.7-6.8c0.9,4,3.8,6.8,8.6,6.8c4.4,0,8.2-1.8,11.4-4.6
			c2.6,2.2,7.6,4.6,12.4,4.6c5.3,0,9.9-1.9,13.4-4.6c7.6-0.5,13.1-2.7,17.6-5.7c-0.1,7.3,3.8,10.3,9.7,10.3c5.1,0,9.4-2.5,12.9-6
			c-2.9,8.7-9.6,16.9-17.9,23.6c-19-6.4-34.2-10.9-43.7-10.9c-6.9,0-12.7,1.7-16.8,5c-4,3.1-6.1,7.5-6.1,12.3
			c0,9.1,8.2,18.7,23.5,18.7c14.3,0,31.2-6.1,44.9-16.1c3.2,1.1,6.5,2.2,9.9,3.3c9,3.1,18.6,6.3,28.5,9.4c0.5,0.2,1,0.3,1.4,0.5
			c-5.4,2.7-10.6,5.3-15.9,7.6c-5.3,2.3-10.6,4.4-15.8,6.3c-22.5,7.3-50.5,12.7-87.8,12.7c-34.8,0-60.2-9.1-71.8-18.8
			c-0.4-0.4-0.9-0.9-1.4-1.3c-0.6-0.7-1.2-1.4-1.8-2c-0.2-0.3-0.6-0.8-0.7-1c-0.3-0.4-0.6-0.9-0.8-1.3c-0.7-1.2-1.5-2.9-1.8-4.3
			c-0.8-3-0.6-5.9,0.3-8.2c0.9-2.3,2.5-4.1,4.3-5.4c3.7-2.6,8.2-3.2,11.2-3.4c1.5-0.1,2.8-0.1,3.7-0.1c0.9,0,1.3,0.1,1.3,0.1l0.2,0
			c0.2,0,0.5,0,0.7,0c3.8-0.3,6.7-3.6,6.4-7.4c-0.3-3.8-3.6-6.7-7.4-6.4c0,0-0.6,0-1.7,0.1c-1.1,0.1-2.8,0.2-4.9,0.6
			c-2.1,0.3-4.7,0.9-7.7,2c-2.9,1.1-6.2,2.8-9.3,5.5c-3.1,2.7-5.8,6.7-7,11.4c-1.2,4.7-0.8,9.8,1,14.3c0.9,2.3,2,4.3,3.6,6.4
			c0.4,0.5,0.7,0.8,1,1.2c0.5,0.6,0.8,0.9,1.3,1.4c0.8,0.9,1.7,1.7,2.6,2.4c0.4,0.3,0.8,0.6,1.2,1c13,11.1,40.2,21.1,77.5,21.1
			c38.5,0,67.3-5.6,90.5-13.2c5.4-1.6,10.9-3.4,16.4-5.6c8.5-3.2,17.2-7.1,25.9-11.2c1.1,0.3,2.2,0.7,3.3,1.1
			c12,3.7,24.8,7.4,38.5,9.8c6.8,1.2,14,2.2,21.3,2.5c7.2,0.4,15,0.1,22.8-2.1c3.9-1.1,7.8-2.8,11.5-5.5c3.6-2.7,7.1-6.9,8.1-12.3
			c0.5-2.7,0.4-5.5-0.3-8c-0.7-2.6-1.9-4.8-3.4-6.8c-2.9-3.9-6.7-6.6-10.5-8.5c-7.8-3.8-15.9-4.9-23.7-4.8c-7.7,0-15.4,1.2-22.7,3.1
			c-7.3,1.9-14.2,4.7-20.7,7.8c-6.5,3.1-12.7,6.4-18.7,9.6c-2.8,1.5-5.6,3-8.4,4.5c-3.1-0.9-6.2-1.7-9.2-2.6
			c-9.9-3.1-19.5-6.4-28.5-9.5c-1.8-0.6-3.5-1.2-5.2-1.8c8.4-7.7,14.7-16.9,17.3-27c0.6-0.9,1-1.9,1.2-3l3.2-15
			c2.6-10.2,11.9-21.3,15.4-21.3c2.2,0,1.8,3.3,1.1,7.4l-5.7,32.6c-0.8,4.8,2.6,5.7,5.2,5.7c3.7,0,4.1-3.1,4.6-5.5l3.3-18.8
			c2.6-10.2,11.9-21.3,15.4-21.3c2.2,0,1.9,3.3,1.2,7.4l-4.6,26.2c-1.2,6.6,1.8,12.1,8.7,12.1c5.5,0,10-2.9,13.6-6.8
			c1.8,4.2,5.5,6.8,11,6.8c4.9,0,8.9-2.3,12-5.3c1.4,3.1,4.5,5.3,9,5.3c4.4,0,8.2-1.8,11.4-4.6c2.6,2.2,7.6,4.6,12.4,4.6
			c1.4,0,2.7-0.1,4-0.3c5,0.7,11.3,0.2,19-3c6.4-2.7,12.5-2.7,17.4-1.8c0.3,0.1,0.6,0.2,0.8,0.4c0.9,0.4,1.8,0.9,2.6,1.3
			c0.8,0.5,1.6,0.9,2.3,1.4c0.7,0.5,1.4,0.9,1.9,1.4c1.2,0.9,2,1.7,2.6,2.2c0.3,0.3,0.5,0.5,0.6,0.6c0.1,0.2,0,0.1,0.1,0.1
			c3.1,2.2,7.4,1.6,9.7-1.5C434.2,210.2,433.5,205.9,430.4,203.6z M203.5,193.8c-0.6,3.2-2.5,6.2-4.2,7.9c-3.7,0-8.6-2.4-12.6-4.5
			c0.9-1.6,1.7-3.3,2.4-4.8c0-0.1,0-0.1,0-0.2c0.2-0.3,0.4-0.6,0.6-1c2.8-6.2,4.8-10.6,7.8-15.6
			C201.1,180.3,204.9,185.7,203.5,193.8z M183.3,247.3c-10.1,0-15.6-5.6-15.6-10.8c0-2.4,1.1-4.4,3.1-6.1c2.7-2.1,6.8-3.2,12-3.2
			c7.5,0,20.3,3.6,35.7,8.6C207.2,242.9,194.2,247.3,183.3,247.3z M329,236.2c6.5-1.7,13.1-2.5,19.9-2.5c6.6,0,13.1,1.1,18.4,3.8
			c2.6,1.3,4.9,3,6.3,5c1.4,1.9,1.9,3.9,1.6,5.6c-0.3,1.8-1.6,3.6-3.6,5.2c-2.1,1.6-4.8,2.9-7.7,3.8c-2.9,0.9-6.1,1.5-9.3,1.8
			c-1.6,0.2-3.2,0.3-4.9,0.3l-1.2,0l-0.5,0l-0.6,0l-2.6,0c-6.7-0.1-13.3-0.8-19.8-1.8c-10.9-1.7-21.5-4-31.6-6.5
			C304.8,245.1,316.7,239.4,329,236.2z M383.6,193.8c-0.6,3.2-2.5,6.2-4.2,7.9c-3.6,0-8.6-2.4-12.6-4.5c0.9-1.7,1.7-3.3,2.4-4.8
			c0-0.1,0-0.1,0.1-0.2c0.2-0.3,0.4-0.6,0.6-1c2.8-6.2,4.8-10.6,7.8-15.6C381.3,180.3,385.1,185.7,383.6,193.8z"/>
		<path fill="#323232" d="M342.1,101.7c-5.9,3.7-8,12.5-4.8,20.8c1.7,4.5,4.9,8.9,9.9,12.1c-16.4,10.8-45.7,9.2-46.1,9.2
			c-2.1-0.2-4.1,1.5-4.2,3.7c-0.1,2.2,1.5,4.1,3.7,4.2c1.6,0.1,36.8,2.1,54.8-13.4c5.3,1.5,11.7,1.8,19.3,0.6
			c14-2.3,23.8-0.7,28.2,4.4c0.1,0.1,0.2,0.2,0.3,0.4c0.1,0.2,0.3,0.5,0.4,0.7c0.2,0.5,0.4,1,0.5,1.5c0.2,0.5,0.2,1,0.3,1.5
			c0.1,0.5,0,1,0.1,1.5c0.1,0.5,0,0.9-0.1,1.4c0,0.9-0.3,1.7-0.4,2.4c-0.2,0.7-0.4,1.4-0.6,1.9c-0.4,1-0.7,1.6-0.7,1.6l-0.1,0.2
			c-0.2,0.4-0.3,0.9-0.4,1.4c-0.6,3.3,1.6,6.4,4.9,6.9c3.3,0.6,6.4-1.6,6.9-4.9c0,0,0.2-1,0.5-2.8c0.1-0.9,0.2-1.9,0.2-3.2
			c0-1.2,0-2.6-0.3-4.2c-0.1-0.8-0.2-1.5-0.5-2.4c-0.3-0.8-0.4-1.7-0.8-2.5c-0.4-0.8-0.7-1.7-1.2-2.5c-0.5-0.8-1.1-1.6-1.6-2.4
			c-0.2-0.2-0.5-0.5-0.7-0.7c-0.3-0.3-0.5-0.7-0.8-1c-6.4-7.5-18.3-9.8-35.5-7.1c-4.7,0.8-8.7,0.8-12.1,0.4
			c10-15.2,3.2-24.4,0.8-26.9C357.1,99,348.4,97.8,342.1,101.7z M356.5,109.9c3.7,3.9,2.8,10.6-2.3,18c-0.3,0.4-0.5,0.7-0.8,1.1
			c-5.7-2.9-8-7.3-8.7-9.3c-1.9-5.1-0.7-9.9,1.6-11.3c1.2-0.8,2.6-1.1,4.1-1.1C352.6,107.3,354.9,108.2,356.5,109.9z"/>
	</g>
	<g>
		<g>
			<path fill="#CD5C43" d="M56.1,330.7v-20.3h4v8.1h9.4v-8.1h4v20.3l-4,0v-8.4h-9.4v8.4H56.1z"/>
			<path fill="#CD5C43" d="M80.9,330.7l8.1-20.3h4l8.1,20.2l-4.3,0l-1.2-3.1h-9.2l-1.2,3.1H80.9z M91.1,315.8l-3.1,7.7h6.1
				L91.1,315.8z"/>
			<path fill="#CD5C43" d="M108,330.7v-20.3h8.8c4.7,0,7.1,1.9,7.1,5.8c0,4-2.4,6-7.1,6H112v8.4H108z M112,318.5h5.7
				c1.6,0,2.5-0.8,2.5-2.2c-0.1-1.3-0.9-2-2.5-2.1H112V318.5z"/>
			<path fill="#CD5C43" d="M130.8,330.7v-20.3h8.8c4.7,0,7.1,1.9,7.1,5.8c0,4-2.4,6-7.1,6h-4.8v8.4H130.8z M134.8,318.5h5.7
				c1.6,0,2.5-0.8,2.5-2.2c0-1.3-0.9-2-2.5-2.1h-5.7V318.5z"/>
			<path fill="#CD5C43" d="M152.4,310.4h4.8l4.7,6.6l4.8-6.6h4.6l-7.4,10.1v10.1h-4.1v-10.1L152.4,310.4z"/>
			<path fill="#CD5C43" d="M191.5,330.7v-20.3h1.3l12.7,12.7v-12.7h4.1v20.3h-1.5l-12.5-12.6v12.6H191.5z"/>
			<path fill="#CD5C43" d="M217.6,330.7v-20.2l14.9,0v3.8h-10.8v4.3h8.1v3.8h-8.1v4.6h10.8v3.8H217.6z"/>
			<path fill="#CD5C43" d="M252.7,315.8l-4.1,14.9h-4.1l-5.4-20.3h4.3l3.5,13.8l3.7-13.8h4.2l3.5,13.8l3.5-13.8h4.3l-5.4,20.3h-4.1
				L252.7,315.8z"/>
			<path fill="#CD5C43" d="M285.2,310.4h4.8l4.7,6.6l4.8-6.6h4.6l-7.4,10.1v10.1h-4.1v-10.1L285.2,310.4z"/>
			<path fill="#CD5C43" d="M311,330.7v-20.2l14.9,0v3.8H315v4.3h8.1v3.8H315v4.6h10.8v3.8H311z"/>
			<path fill="#CD5C43" d="M332.7,330.7l8.1-20.3h4l8.1,20.2l-4.3,0l-1.2-3.1h-9.2l-1.2,3.1H332.7z M343,315.8l-3.1,7.7h6.1
				L343,315.8z"/>
			<path fill="#CD5C43" d="M372.1,321.8l5,8.8h-4.6l-4.9-8.4h-3.7v8.4h-4v-20.3h8.8c4.7,0,7.1,1.9,7.1,5.8
				C375.8,319.2,374.5,321,372.1,321.8z M363.9,318.5h5.7c1.6,0,2.5-0.8,2.5-2.2c0-1.3-0.9-2-2.5-2.1h-5.7V318.5z"/>
		</g>
		<g>
			<path fill="#CD5C43" d="M398,319.7c0,1.7-1.4,3.1-3.1,3.1c-1.7,0-3.1-1.4-3.1-3.1c0-1.7,1.4-3.1,3.1-3.1
				C396.6,316.7,398,318,398,319.7z"/>
			<path fill="#CD5C43" d="M41.4,319.7c0,1.7-1.4,3.1-3.1,3.1c-1.7,0-3.1-1.4-3.1-3.1c0-1.7,1.4-3.1,3.1-3.1
				C40,316.7,41.4,318,41.4,319.7z"/>
		</g>
	</g>
</g>
<g>
	<g>
		<path fill="#003361" d="M86.1,418c-9.4,0-14.7-6.6-14.7-13.1c0-6.2,5-13.1,14.7-13.1c9.6,0,14.6,7,14.6,13.1
			C100.7,411.4,95.3,418,86.1,418z M86.1,397.1c-4.9,0-8.1,3.1-8.1,7.8s3.2,7.8,8.1,7.8c4.8,0,8.1-3.1,8.1-7.8S91,397.1,86.1,397.1z
			"/>
		<path fill="#003361" d="M108.2,401.9c1.5-1.3,3.1-1.8,4.9-1.8c4.5,0,8,3.8,8,8.8c0,5.5-3.4,9.2-8.5,9.2c-1.5,0-3.2-0.4-4.5-1.2
			v9.5h-5.4v-25.9h5.4V401.9z M108.2,413.2c1.1,0.8,2.1,1.1,3.1,1.1c2.7,0,4.3-2,4.3-5.2c0-3.3-1.5-5.2-4.1-5.2
			c-1.2,0-2,0.3-3.4,1.4V413.2z"/>
		<path fill="#003361" d="M141.2,415.7c-3.1,2.3-6.4,2.3-7.7,2.3c-6.1,0-10-3.5-10-8.9c0-5.3,3.8-9,9.1-9c5,0,9.2,3.6,8.9,9.9h-12.4
			c0.2,3.1,2.3,4.9,5.7,4.9c2.2,0,3.9-0.6,6.4-2.5V415.7z M136.7,407c-0.2-2.4-1.6-3.8-3.7-3.8c-2.1,0-3.5,1.4-3.8,3.8H136.7z"/>
		<path fill="#003361" d="M149.3,402.8c1.7-2,3.4-2.8,5.6-2.8c2.7,0,6.3,1.5,6.3,6.6v11h-5.4v-10.5c0-2.4-1.2-3.4-2.7-3.4
			c-1.3,0-2.4,0.7-3.8,2.8v11.1h-5.4v-17.3h5.4V402.8z"/>
		<path fill="#003361" d="M186,392.1c5.8,0,8.5,4.1,8.5,7.6c0,3.6-2.6,7.7-8.4,7.7H181v10.3h-6.4v-25.6H186z M181,402.7h3
			c2.9,0,4-1.1,4-3c0-2.2-1.2-3-4.7-3H181V402.7z"/>
		<path fill="#003361" d="M204.1,418c-5.7,0-9.8-3.6-9.8-9c0-5.9,4.7-9,9.8-9c4.2,0,9.7,2.4,9.7,9C213.8,415.9,207.9,418,204.1,418z
			 M204.1,403.3c-2.4,0-4,1.8-4,5.7c0,4.5,1.9,5.8,4,5.8c2.6,0,3.9-2.1,3.9-5.9C208,405.5,206.8,403.3,204.1,403.3z"/>
		<path fill="#003361" d="M221.8,417.7h-5.4v-25.6h5.4V417.7z"/>
		<path fill="#003361" d="M230.9,425.9h-5.8l5.1-11.1l-6.7-14.5h5.8l3.6,8.9l3.9-8.9h5.7L230.9,425.9z"/>
		<path fill="#003361" d="M257.5,404.1h-6.3v7.1c0,1.7,1,2.8,2.7,2.8c1.1,0,2.2-0.3,3.6-1v3.9c-1.9,0.8-3.3,1.1-5,1.1
			c-3.6,0-6.7-1.6-6.7-6.5v-7.4h-2.5V403l7.2-8.1h0.7v5.4h6.3V404.1z"/>
		<path fill="#003361" d="M276.8,415.7c-3.1,2.3-6.4,2.3-7.7,2.3c-6.1,0-10-3.5-10-8.9c0-5.3,3.8-9,9.1-9c5,0,9.2,3.6,8.9,9.9h-12.4
			c0.2,3.1,2.3,4.9,5.7,4.9c2.2,0,3.9-0.6,6.4-2.5V415.7z M272.3,407c-0.2-2.4-1.7-3.8-3.8-3.8c-2.1,0-3.5,1.4-3.7,3.8H272.3z"/>
		<path fill="#003361" d="M295.3,416.8c-2.2,0.8-4,1.2-5.8,1.2c-6.1,0-10-3.5-10-8.9c0-5.3,4.1-9,9.8-9c1.8,0,4,0.5,5.8,1.1v4
			c-1.4-0.7-3.1-1.2-4.4-1.2c-3.3,0-5.4,1.9-5.4,5c0,3.1,2.1,5.1,5.2,5.1c1.3,0,2.5-0.3,4.9-1.2V416.8z"/>
		<path fill="#003361" d="M304.1,402.9L304.1,402.9c1.7-2,3.4-2.9,5.6-2.9c3.1,0,6.3,1.9,6.3,6.6v11h-5.4v-9.9
			c0-2.6-1.1-3.8-2.8-3.8c-1.3,0-2.4,0.8-3.6,2.6v11h-5.4v-25.6h5.4V402.9z"/>
		<path fill="#003361" d="M323.9,402.8c1.7-2,3.4-2.8,5.6-2.8c2.7,0,6.3,1.5,6.3,6.6v11h-5.4v-10.5c0-2.4-1.2-3.4-2.7-3.4
			c-1.3,0-2.4,0.7-3.8,2.8v11.1h-5.4v-17.3h5.4V402.8z"/>
		<path fill="#003361" d="M344.2,394.7c0,1.6-1.3,3-3,3s-3-1.3-3-3s1.3-3,3-3S344.2,393.1,344.2,394.7z M344,417.7h-5.4v-17.3h5.4
			V417.7z"/>
		<path fill="#003361" d="M361.8,416.8c-2.2,0.8-4,1.2-5.8,1.2c-6.1,0-10-3.5-10-8.9c0-5.3,4.1-9,9.8-9c1.8,0,4,0.5,5.8,1.1v4
			c-1.4-0.7-3.1-1.2-4.4-1.2c-3.3,0-5.4,1.9-5.4,5c0,3.1,2.1,5.1,5.2,5.1c1.3,0,2.5-0.3,4.9-1.2V416.8z"/>
	</g>
	<g>
		<path fill="#008296" d="M81.4,440.5l0.2,0.2l-2.3,0l0,0l-4.9-4.8v4.8h-0.1h-1.5v-10.2h0.1h1.5v4.4l4.1-4.4h2l-4.5,4.9L81.4,440.5"
			/>
	</g>
	<g>
		<path fill="#008296" d="M92.2,436.7v-6.3h0.1h1.5v6c0,1.1,0.1,1.6,0.6,2l0,0c0.6,0.6,1.2,0.8,2.1,0.8l0,0c1.1,0,1.9-0.3,2.3-0.8
			l0,0c0.5-0.5,0.6-1.2,0.6-2.1l0,0v-5.9h0.1h1.5v6.2c0,2.5-1.5,4.2-4.6,4.2l0,0C94.3,440.8,92.2,439.5,92.2,436.7L92.2,436.7z"/>
	</g>
	<g>
		<path fill="#008296" d="M154.4,440.6h-1.5v-8.8h-3.5v-0.1v-1.4h8.6v0.1v1.3v0.1h-3.5v8.8H154.4L154.4,440.6z"/>
	</g>
	<g>
		<path fill="#008296" d="M170.7,440.6h-1.5v-10.2h0.1h1.5L170.7,440.6L170.7,440.6L170.7,440.6L170.7,440.6z"/>
	</g>
	<g>
		<path fill="#008296" d="M192.3,440.6l-1.3,0l-6.5-7.5v7.6h-0.1h-1.5v-10.2h0.1l1.2,0l6.6,7.6v-7.6h0.1h1.5L192.3,440.6
			L192.3,440.6L192.3,440.6L192.3,440.6z"/>
	</g>
	<g>
		<path fill="#008296" d="M206,440.6h-1.5v-10.2h0.1h1.5v10.1L206,440.6L206,440.6L206,440.6z"/>
	</g>
	<g>
		<path fill="#008296" d="M234.6,440.6h-1.5l0-8.8h-3.5v-0.1v-1.4h8.6v0.1v1.3v0.1h-3.5L234.6,440.6L234.6,440.6L234.6,440.6z"/>
	</g>
	<g>
		<path fill="#008296" d="M249.2,436.7v-6.3h0.1h1.5v6c0,1.1,0.1,1.6,0.6,2l0,0c0.6,0.6,1.2,0.8,2.1,0.8l0,0c1.1,0,1.9-0.3,2.3-0.8
			l0,0c0.5-0.5,0.6-1.2,0.6-2.1l0,0v-6h0.1h1.5v6.2c0,2.5-1.5,4.2-4.6,4.2l0,0C251.3,440.8,249.2,439.5,249.2,436.7L249.2,436.7z"/>
	</g>
	<g>
		<path fill="#008296" d="M273.2,440.6H273 M280.1,440.6h-0.3"/>
		<path fill="#008296" d="M280.1,440.7h-0.4l-3.2-8.1l-3.3,8.1h-0.1h-0.4l-4.1-10.3h0.2h1.5l2.7,6.8l2.7-6.8h0.1h1.4l2.7,6.8
			l2.7-6.8h0.1h1.6L280.1,440.7L280.1,440.7L280.1,440.7L280.1,440.7z M280.1,440.6L280.1,440.6"/>
	</g>
	<g>
		<path fill="#008296" d="M303.9,440.6h-1.5l0-4.4h-5.4v4.4h-0.1h-1.5v-10.2h0.1h1.5v4.4h5.4v-4.4h0.1h1.5v10.1L303.9,440.6
			L303.9,440.6L303.9,440.6z"/>
	</g>
	<g>
		<path fill="#008296" d="M316.1,440.6v-10.2h5.9v0.1v1.3v0.1h-4.3v2.8h4.1v0.1v1.4h-4.1v2.9h4.4v0.1v1.4H316.1L316.1,440.6z"/>
	</g>
	<g>
		<path fill="#008296" d="M336.2,430.4c2.1,0,3.4,1.1,3.4,2.9l0,0c0,1.1-0.6,2-1.6,2.5l0,0c0.9,0.6,1.4,1.5,2.1,2.7l0,0
			c0.4,0.7,0.7,1,1.4,2l0,0l0.1,0.2h-0.2l0,0h-1.8l-1.4-2.1c-1.3-2.1-1.9-2.2-2.6-2.3l0,0h-0.5v4.4h-0.1h-1.5v-10.2H336.2
			 M336,434.8c1.5,0,1.9-0.7,1.9-1.5l0,0c0,0,0,0,0,0l0,0c0-0.9-0.5-1.4-1.9-1.4l0,0h-0.8v3H336L336,434.8z"/>
	</g>
	<g>
		<path fill="#008296" d="M115.5,430.4c2.1,0,3.4,1.1,3.4,2.9l0,0c0,1.1-0.6,2-1.6,2.5l0,0c0.9,0.6,1.4,1.5,2.1,2.7l0,0
			c0.4,0.7,0.7,1,1.4,2l0,0l0.1,0.2h-0.2l0,0H119l-1.4-2.1c-1.3-2.1-1.9-2.2-2.6-2.3l0,0h-0.5v4.4h-0.1h-1.5v-10.2H115.5
			 M115.4,434.8c1.5,0,1.9-0.7,1.9-1.5l0,0c0,0,0,0,0,0l0,0c0-0.9-0.5-1.4-1.9-1.4l0,0h-0.8v3H115.4L115.4,434.8z"/>
	</g>
	<path fill="#008296" d="M140.8,440.5l-4.5-10.2h-1.1l-4.4,10.3h1.7l1.3-3h4.1l1.3,3h1.7L140.8,440.5z M134.3,436.2l1.4-3.3l1.5,3.3
		H134.3z"/>
	<path fill="#008296" d="M361.3,440.5l-4.5-10.2h-1.1l-4.4,10.3h1.7l1.3-3h4.1l1.3,3h1.7L361.3,440.5z M354.9,436.2l1.4-3.3l1.5,3.3
		H354.9z"/>
</g>
</svg>
