<!-- Generator: Adobe Illustrator 18.0.0, SVG Export Plug-In  -->
<svg version="1.1"
	 xmlns="http://www.w3.org/2000/svg" xmlns:xlink="http://www.w3.org/1999/xlink" xmlns:a="http://ns.adobe.com/AdobeSVGViewerExtensions/3.0/"
	 x="0px" y="0px" width="221.8px" height="43.5px" viewBox="0 0 221.8 43.5" enable-background="new 0 0 221.8 43.5"
	 xml:space="preserve">
<defs>
</defs>
<g>
	<path fill="#323232" d="M0.4,21.2c0.3-6,0.5-6.7,0.3-12.3C0.6,5.8,0.6,3.8,0.6,2.8c0-0.1,0-0.3,0.1-0.4C0.7,2,0.8,1.7,1.2,1.3
		C1.5,1,1.8,0.8,2.3,0.9C3.5,1,5.3,1.1,7.7,1c2.6,0,4.5,0.1,5.8,0.2c0.7,0.1,1.3,0.7,1.2,1.5c-0.1,0.7-0.7,1.3-1.5,1.2
		c-1.2-0.1-3-0.2-5.4-0.2c-1.3,0.1-2.3,0-3.2,0C3.7,3.6,3.2,4,3.2,5c0.1,0.9,0.1,2.2,0.1,3.8c0.1,2.6,0.1,4.7,0.1,6.2
		c-0.1,0.5-0.1,1.1-0.1,1.6c-0.1,0.9,0.9,1.4,1.3,1.3c0.1,0,0.1,0,0.1,0c0.7-0.1,1.3-0.1,1.8-0.1C7.3,17.7,8,18.3,8,19
		s-0.5,1.4-1.3,1.4c-0.5,0-1.5,0.1-2.4,0.1c-0.8,0.1-1.2,0.5-1.3,1.4c-0.5,8.5-0.5,15-0.1,19.2c0.1,0.7-0.5,1.4-1.2,1.5
		c-0.7,0.1-1.4-0.5-1.5-1.2C0,37.2-0.1,31.6,0.1,28.2L0.4,21.2z"/>
	<path fill="#323232" d="M21.6,2.3c0.2,5.4,0.1,12.8-0.3,22.2c-0.1,2.2-0.1,5,0.1,8.7c0.2,4.6,0.3,7.5,0.3,8.9
		c0,0.7-0.6,1.3-1.3,1.3s-1.3-0.6-1.3-1.3c0-1.3-0.1-4.2-0.3-8.8c-0.2-3.7-0.2-6.7-0.1-8.9c0.3-9.6,0.5-16.9,0.3-21.9
		c0-0.7,0.5-1.4,1.3-1.4C20.9,1.1,21.6,1.6,21.6,2.3z"/>
	<path fill="#323232" d="M36.1,31.3c0-1.7-0.1-4.6-0.2-8.9C35.6,13.9,35.7,8,36.5,2.2C36.5,1.5,37.2,1,38,1.1
		c0.7,0.1,1.2,0.7,1.1,1.5c-0.8,5.6-0.9,11.3-0.6,19.7c0.1,4.2,0.2,7.2,0.2,9.1v5.2c-0.1,1.2-0.1,2.1-0.1,2.8
		c-0.1,0.4-0.1,0.7-0.2,0.9c-0.1,0.6-0.3,1-0.9,1.3c-0.5,0.3-1.1,0.1-1.5-0.2c-0.1-0.1-0.1-0.2-0.2-0.3c-0.1-0.1-0.2-0.3-0.3-0.5
		c-0.1-0.2-0.1-0.5-0.3-0.8l-0.8-2.4l-1.7-5.3c-1-2.8-2-6.5-3-11.1c-0.5-2.3-1-4.3-1.4-5.9c-0.3-1.1-1.3-3.8-1.3-3.8
		c-0.1,1.9-0.1,3.4-0.1,4.4c0,1.8-0.1,4.6-0.2,8.5c-0.2,4-0.3,6.9-0.3,8.9c0,2,0.1,4.7,0.5,8.1c0.1,0.8-0.4,1.5-1.1,1.5
		c-0.8,0.1-1.5-0.4-1.5-1.1c-0.3-2.2-0.5-4.9-0.5-7.9s0.1-6.4,0.3-10.1c0.1-3.6,0.2-6.3,0.2-7.9c0-1,0.1-2.5,0.2-4.6
		c0.1-1.9,0.1-3.4,0.1-4.4v-3c0-0.1,0-0.1,0-0.1c0,0-0.1-0.2-0.1-0.5c-0.1-0.7-0.1-1.4,0.7-1.9c0.3-0.2,0.7-0.2,1.1-0.1
		c0.7,0.2,1.1,0.7,1.3,1.6c0.1,0.1,0.1,0.3,0.1,0.5c0,0.1,0.1,0.1,0.1,0.1c0,0.1,0.1,0.3,0.3,0.9c0.1,0.5,0.4,1.1,0.7,2
		c0.5,1.2,0.7,2.2,0.9,2.9c0.2,0.8,3.8,16.5,5.6,22.1l-0.6-1.9c0.4,1.3,1.4,3.3,1.4,3V31.3z"/>
	<path fill="#323232" d="M43.8,1.4c3,0.2,4.8,1.6,6.9,4.2c4.1,4.9,5.4,11.2,3.8,18.8c-1.3,6.3-4.5,12.6-8.5,17.3
		c-0.2,0.2-0.4,0.4-0.7,0.5c-0.5,0.1-1.5,0.1-1.5,0.1c-0.6-0.1-1-0.4-1.2-0.9c0-0.1-0.1-0.2-0.1-0.3c-0.5-5.2-0.7-11.6-0.6-19.2
		c0.1-2.7,0.3-14.2,0.3-19V2.6C42.4,1.9,43,1.4,43.8,1.4L43.8,1.4z M46.8,36.3c6-9.1,8.5-21.2,2-29c-0.8-0.9-1.5-1.7-2.2-2.1
		c-0.8-0.7-1.5-0.1-1.5,0.9c-0.1,4.8-0.3,13-0.3,15.8c-0.1,5.3,0,10,0.2,14C45,37.1,46.1,37.4,46.8,36.3z"/>
	<path fill="#323232" d="M85.3,2.8c0,0.7-0.5,1.4-1.3,1.4c-1.3,0.1-3.1,0.1-5.5,0c-0.9-0.1-1.3,0.5-1.3,1.3c0.1,1.5,0.2,3,0.1,5
		c-0.1,1.4-0.1,2.2-0.1,2.6c0,1.8-0.1,4.6-0.2,8.5c-0.3,7.7-0.3,13.6,0.4,18.4c0.1,0.7-0.4,1.5-1.1,1.5c-0.7,0.1-1.5-0.4-1.5-1.1
		c-0.7-5-0.7-11-0.4-19c0.1-3.9,0.2-6.7,0.2-8.3c0-0.6,0-1.5,0.1-2.9c0-1.2,0.1-2,0.1-2.8c0,1.8-0.4-1.3-0.4-2
		c0-0.9-0.5-1.3-1.3-1.3c-1.3,0-2.5,0-3.5,0.1c-0.8,0.1-1.4-0.5-1.5-1.3c-0.1-0.7,0.5-1.3,1.2-1.4c1.8-0.1,4.2-0.1,7.4-0.1
		c3.4,0.1,5.8,0.1,7.1,0.1C84.6,1.6,85.3,2.1,85.3,2.8z"/>
	<path fill="#323232" d="M93.1,21.2c-0.9,0-1.3,0.5-1.3,1.3c0.1,1.4,0.1,3,0.1,5c0.2,5.5,0.3,9.9,0.3,13.8c0,0.7-0.6,1.3-1.3,1.3
		s-1.3-0.6-1.3-1.3c0-2.8-0.1-6.8-0.3-12c-0.3-10.4-0.5-10.6-0.2-18.1c0.1-3.6,0.1-6.2,0.1-7.9c0-0.8,0.5-1.4,1.3-1.4
		c0.7,0,1.3,0.5,1.3,1.3c0.1,1.9,0.1,4.6-0.1,8.1c-0.1,2.5-0.1,4.5-0.1,5.9c0,0.9,0.5,1.3,1.3,1.3h6.2c0.9,0,1.3-0.5,1.4-1.3
		c0-2,0.1-3.5,0.1-4.6c0-0.6,0-1.4,0.1-2.4s0.1-1.9,0.1-2.4c0-1.2-0.1-3-0.6-4.1c-0.3-0.7,0.2-1.5,0.9-1.7c0.7-0.3,1.4,0.2,1.7,0.8
		c0.5,1.5,0.7,3.7,0.7,5c0,0.7,0,1.6-0.1,2.6c-0.1,1.1-0.1,1.8-0.1,2.2c0,1.3-0.1,3.6-0.1,7c-0.1,3.4-0.2,6-0.3,7.6
		c-0.1,6.5,0.2,11,0.8,13.6c0.2,0.7-0.2,1.4-0.9,1.6c-0.7,0.2-1.4-0.2-1.6-0.9c-0.7-2.8-1-7.5-0.9-14.3c0.1-1.3,0.1-2.8,0.1-4.6
		c0.1-0.9-0.4-1.4-1.3-1.4H93.1z"/>
	<path fill="#323232" d="M111,2.6c-0.7,0-1.1,0-1.1,0.1c-0.1,0.3-0.2,0.7-0.3,1.2c-0.2,2-0.1,4.6,0.3,8.1c0.1,1.7,0.2,2.7,0.2,3
		c0,0.4,0,1.1,0,2.2c-0.1,0.9,0.4,1.4,1.3,1.4c0.7,0,1.2,0,1.7-0.1c0.7,0,1.4,0.5,1.4,1.3s-0.5,1.4-1.3,1.4c-0.5,0.1-1.3,0.1-2,0.1
		c-0.9,0-1.3,0.5-1.4,1.3c-0.2,6.1-0.3,11.2-0.1,14.8c0.1,1.1,0.1,2,0.3,2.6c0,0.1,0.1,0.2,0.1,0.3c0,0.1,0.3,0.3,1.1,0.5
		c1.4,0.2,3,0,5-0.1c1-0.1,1.7-0.1,2.2-0.1c0.7,0,1.3,0.6,1.3,1.3c0,0.7-0.6,1.3-1.3,1.3c-0.4,0-1.1,0.1-2,0.1
		c-1.2,0.1-2.1,0.1-2.5,0.1c-2.2,0.1-3.8-0.1-5-0.6c-0.9-0.3-1.2-1.2-1.4-2.2c-0.2-0.7-0.3-1.7-0.4-3c-0.3-4-0.1-9.8,0.1-14.2
		c0.1-2.2,0.1-4,0.2-5.5c0.1-1.5,0.1-2.4,0.1-3c0-0.3-0.1-1.2-0.2-2.8c-0.3-3.6-0.5-6.5-0.3-8.7c0.2-1.4,0.5-2.7,1.5-3.3
		c0.3-0.2,0.7-0.3,1.2-0.3h4.3c3.2,0.1,4.9,0.2,5.2,0.1c0.8-0.1,1.4,0.5,1.5,1.2c0.1,0.4-0.1,0.7-0.3,1c-0.3,0.3-0.6,0.4-0.9,0.5
		c-0.3,0.1-2.2,0-5.5-0.1H111L111,2.6z"/>
	<path fill="#323232" d="M138,2.3c0.2,5.4,0.1,12.8-0.3,22.2c-0.1,2.2-0.1,5,0.1,8.7c0.2,4.6,0.3,7.5,0.3,8.9c0,0.7-0.6,1.3-1.3,1.3
		s-1.3-0.6-1.3-1.3c0-1.3-0.1-4.2-0.3-8.8c-0.2-3.7-0.2-6.7-0.1-8.9c0.3-9.6,0.5-16.9,0.3-21.9c0-0.7,0.5-1.4,1.3-1.4
		C137.4,1.1,138,1.6,138,2.3z"/>
	<path fill="#323232" d="M140.7,2c1.1-0.1,5.7-0.1,13.7-0.1c0.7,0,1.3,0.6,1.3,1.3s-0.6,1.3-1.3,1.3c-0.8,0-1.9,0-3.4-0.1
		c-0.5,0-0.9,0-1.3,0c-0.8,0-1.3,0.5-1.3,1.3c-0.2,6.8-0.2,13.6-0.1,23.5c0.1,5.4,0.1,9.1,0.1,11.1c0,0.7-0.6,1.3-1.3,1.3
		s-1.3-0.6-1.3-1.3c0-2.1,0-5.8-0.1-11.1c-0.1-10-0.1-16.7,0.1-23.5c0.1-0.9-0.4-1.3-1.3-1.3c-1.3,0-2.5,0-3.6,0.1
		c-0.7,0-1.4-0.5-1.4-1.3S140,2,140.7,2z"/>
	<path fill="#323232" d="M163,2.6c-0.7,0-1.1,0-1.1,0.1c-0.1,0.3-0.2,0.7-0.3,1.2c-0.2,2-0.1,4.6,0.3,8.1c0.1,1.7,0.2,2.7,0.2,3
		c0,0.4,0,1.1,0,2.2c-0.1,0.9,0.4,1.4,1.3,1.4c0.7,0,1.2,0,1.7-0.1c0.7,0,1.4,0.5,1.4,1.3s-0.5,1.4-1.3,1.4c-0.5,0.1-1.3,0.1-2,0.1
		c-0.9,0-1.3,0.5-1.4,1.3c-0.2,6.1-0.3,11.2-0.1,14.8c0.1,1.1,0.1,2,0.3,2.6c0,0.1,0.1,0.2,0.1,0.3c0,0.1,0.3,0.3,1.1,0.5
		c1.4,0.2,3,0,5-0.1c1-0.1,1.7-0.1,2.2-0.1c0.7,0,1.3,0.6,1.3,1.3c0,0.7-0.6,1.3-1.3,1.3c-0.4,0-1.1,0.1-2,0.1
		c-1.2,0.1-2.1,0.1-2.5,0.1c-2.2,0.1-3.8-0.1-5-0.6c-0.9-0.3-1.2-1.2-1.4-2.2c-0.2-0.7-0.3-1.7-0.4-3c-0.3-4-0.1-9.8,0.1-14.2
		c0.1-2.2,0.1-4,0.2-5.5c0.1-1.5,0.1-2.4,0.1-3c0-0.3-0.1-1.2-0.2-2.8c-0.3-3.6-0.5-6.5-0.3-8.7c0.2-1.4,0.5-2.7,1.5-3.3
		c0.3-0.2,0.7-0.3,1.2-0.3h4.3c3.2,0.1,4.9,0.2,5.2,0.1c0.8-0.1,1.4,0.5,1.5,1.2c0.1,0.4-0.1,0.7-0.3,1c-0.3,0.3-0.6,0.4-0.9,0.5
		c-0.3,0.1-2.2,0-5.5-0.1H163L163,2.6z"/>
	<path fill="#323232" d="M174.9,3.4c0-0.3,0.1-0.5,0.1-0.7c0.1-0.3,0.3-0.6,0.7-0.8c0.8-0.3,1.5-0.2,2.2,0.5
		c0.1,0.1,0.1,0.1,0.2,0.3c0,0,0.1-0.1,0-0.3c0.3,0.5,0.5,0.9,0.8,1.4c1.3,1.7,2.4,3.7,3.8,6.5l1.6,3.1c0.2,0.3,0.4,0.7,0.5,1.2
		c0.3,0.6,0.9,0,1.3-1.1l0.3-0.8c1.5-4.9,2.6-8.1,3.5-9.7l0.1-0.1c0-0.1,0.1-0.2,0.1-0.3c0-0.1,0.3-0.8,0.4-0.9
		c0.1-0.1,0.1-0.1,0.1-0.1c0.9-1,2.1-0.5,2.6,0.3c0.1,0.2,0.1,0.4,0.2,0.6c0.1,0.3,0.1,0.7,0.2,1.2c0.2,1.7,0.3,5.4,0.3,8.9v10
		c0,1.9,0.1,7.1,0.1,9.7c0.1,2.6,0.3,6.5,0.6,9.7c0.1,0.7-0.5,1.4-1.2,1.5c-0.7,0.1-1.4-0.5-1.5-1.2c-0.3-3.2-0.5-7.1-0.6-9.7
		c-0.1-2.6-0.1-8.1-0.1-9.9v-10c0-0.9-0.1-1.8-0.1-2.7c0-3.2-1.1,0.2-1.5,1.5c-0.2,0.7-0.4,1.4-0.7,2.1l-1.5,4.6
		c-0.2,0.7-0.3,1.1-0.5,1.5c0,0.1-0.1,0.1-0.1,0.3c0,0.1-0.1,0.3-0.2,0.5c-0.1,0.1-0.1,0.1-0.1,0.1c0,0-0.1,0.3-0.7,0.5
		c-0.4,0.1-0.9,0.1-1.3-0.3c-0.1-0.1-0.1-0.1-0.2-0.3l-0.1-0.1l-0.1-0.3c-0.1-0.1-0.1-0.3-0.2-0.5l-0.5-1.5
		c-0.6-1.6-1.1-2.7-1.5-3.4c-0.1-0.2-0.7-1.4-1.8-3.5c-0.5-0.9-0.9-1.7-1.3-2.3c-0.3-0.5-1.2-2-1.2-1.9c0,0.7,0.1,1.9,0.1,3.2
		c0.1,1.4,0.1,2.3,0.1,2.8c0.1,3.1,0.1,7.9,0,14.4c-0.1,6.3-0.1,11,0.1,14.2c0,0.7-0.5,1.4-1.3,1.4s-1.4-0.5-1.4-1.3
		c-0.2-3.2-0.2-8.1-0.1-14.4c0.1-6.4,0.1-11.2,0-14.2c0-0.5-0.1-1.4-0.1-2.8c-0.2-2.8-0.3-4.7-0.3-6V3.4z"/>
	<path fill="#323232" d="M209.4,11.1c1.1-5-0.9-7.4-3.8-7.4c-3.1-0.1-6.1,2.4-6.7,6.3c-0.5,3.8,1.2,6,5.6,10.1
		c2.4,2.3,3.1,2.9,5.1,5.3c2,2.4,2.9,4.9,3.2,7.9c0.7,6.5-2.9,10.6-7.7,10.2c-4.7-0.5-8.4-5-8.4-12.1c0-0.7,0.6-1.3,1.3-1.3
		s1.3,0.6,1.3,1.3c0,5.9,2.9,9.2,6,9.5c2.9,0.3,5.3-2.2,4.8-7.3c-0.3-2.4-1.1-4.5-2.7-6.5s-2.4-2.8-4.8-5c-2.4-2.1-3.2-2.9-4.7-5.1
		c-1.6-2.2-2.1-4.6-1.8-7.3c0.7-5.2,5-8.7,9.3-8.6c4.8,0.1,7.8,4.2,6.4,10.6c-0.2,0.7-0.9,1.1-1.6,1
		C209.7,12.5,209.3,11.8,209.4,11.1z"/>
	<path fill="#323232" d="M221.7,40.7c-0.1,0.3-0.3,0.7-0.7,0.9c-1.2,0.6-2.1,0.6-2.6,0.3c-0.5-0.2-0.9-0.6-1-1.1
		c-0.1-0.7,0.1-1.5,1-2.2c0.6-0.4,1.3-0.7,2-0.7c0.7-0.1,1.4,0.5,1.5,1.2c0.1,0.1,0,0.3,0,0.4C221.7,39.7,221.9,40,221.7,40.7z
		 M221.1,31.7c0,0.7-0.6,1.3-1.3,1.3s-1.3-0.6-1.3-1.3V4.2c0-0.7,0.6-1.3,1.3-1.3s1.3,0.6,1.3,1.3V31.7z"/>
</g>
</svg>
