<!-- Generator: Adobe Illustrator 18.0.0, SVG Export Plug-In  -->
<svg version="1.1"
	 xmlns="http://www.w3.org/2000/svg" xmlns:xlink="http://www.w3.org/1999/xlink" xmlns:a="http://ns.adobe.com/AdobeSVGViewerExtensions/3.0/"
	 x="0px" y="0px" width="207.5px" height="207.6px" viewBox="0 0 207.5 207.6" enable-background="new 0 0 207.5 207.6"
	 xml:space="preserve">
<defs>
</defs>
<g>
	<g>
		<g>
			<g>
				<path fill="#695173" d="M59.5,19.6c0,0.5,0,1,0.2,1.5c0.2,0.3,0.1,0.7,0.1,1.1c-0.1,0-0.3-0.1-0.4-0.1c-0.3,0.3-0.2,0.7-0.3,1.1
					c-0.1,0.1-0.1,0.2-0.1,0.3c0,0.4,0.2,0.9-0.1,1.2c0.1,0.1,0.2,0.1,0.4,0.2c0,0.1,0,0.2,0,0.3c0,0.1,0,0.3,0,0.5
					c-0.1-0.3-0.2-0.4-0.2-0.6c-0.3,0.2-0.1,0.4-0.3,0.6c-0.1,0.1-0.1,0.4-0.3,0.6c0.4,0.5,0,1,0.1,1.5c0,0.1,0.1,0.1,0.2,0.1
					c0.1,0.2,0.1,0.4,0.2,0.6c-0.5,0.7-0.5,1.6-0.7,2.4c-0.2,0.8,0,1.7-0.1,2.6c-0.2,0.4-0.4,0.8-0.6,1.3c0,0.5,0.1,1.1,0,1.7
					c-0.1,0.1,0,0.3,0.1,0.5c-0.1,0.2-0.2,0.5,0,0.7c0.1,0,0.1,0,0.2,0c0.3-0.3,0-0.7,0.2-1c0.2-0.2,0.3-0.6,0.4-0.9
					c0.1,0.1,0.2,0.2,0.2,0.4c0,0.1-0.1,0.4,0,0.6c0,0.3,0,0.5,0,0.7c0,0.2,0,0.4,0,0.7c-0.1,0.1-0.3,0.2-0.4,0.3
					c0.2,0.3,0.2,0.4,0.3,0.6C58.8,39,59,39,59,38.9c0.1,0.1,0.2,0.2,0.2,0.3c-0.1,0.4-0.6,0.4-0.8,0.7c-0.2,0.3-0.4,0.6-0.7,0.9
					c-0.1,0.4-0.1,0.7,0.1,0.9c0,0.5-0.2,0.9-0.2,1.5c-0.2,0.2-0.5,0.5-0.8,0.7c-0.1,0.1-0.1,0.4-0.2,0.6c-0.2,0.3-0.6,0-0.8,0.1
					c-0.3,0.1-0.5-0.1-0.7-0.1c-0.1,0.1-0.3,0.2-0.5,0.4c-0.2-0.1-0.5-0.3-0.8-0.4c-0.1,0-0.3,0-0.5,0.1c-0.1,0-0.4,0.1-0.6,0.2
					c-0.2-0.1-0.5-0.1-0.8-0.2c-0.3-0.3-0.6-0.8-0.9-1.1c-0.3-0.7-0.6-1.4-0.2-2.2c-0.1-0.2-0.2-0.4-0.3-0.6c0.1-0.5,0-1,0.3-1.5
					c0-0.7-0.1-1.2-0.1-1.9c0.1,0,0.2,0,0.4,0c0-0.4,0-0.7,0.1-1c0.1-0.4,0.1-0.7,0.1-1c0-0.7-0.1-1.3-0.1-2c0-0.3,0-0.6-0.2-0.9
					c-0.2-0.2-0.1-0.4-0.1-0.7c-0.1-0.2,0-0.5-0.1-0.6c-0.3-0.6-0.2-1.1,0-1.5c0-0.4,0-0.7-0.1-1c0-0.3,0-0.5,0-0.8
					c0-0.3,0.2-0.5,0-0.8c0.1-0.1,0.2-0.2,0.4-0.2c0-0.2,0-0.4,0-0.7c-0.1,0-0.1,0-0.2,0c-0.6,0.4-1.3,0.8-1.8,1.2
					c-0.5,0.3-1,0.4-1.4,0.5c-1,0-1.8,0.2-2.7,0.5c-0.4,0.1-0.9,0.1-1.4,0.2c-0.2,0.2-0.2,0.6-0.2,0.9c0,0.2,0,0.4,0,0.7
					c0.1,0.2,0,0.4,0,0.7l0,0.1c0,0.4,0.3,0.7,0.2,1.1c-0.1,0.3,0,0.7,0,1c0,0.3,0.1,0.5,0.1,0.8c0,0.3-0.1,0.6-0.1,0.8
					c-0.1,0.3-0.1,0.5-0.2,0.8c0.1,0.1,0.1,0.2,0.2,0.3c0,0.4-0.1,0.8-0.1,1.2c0,0.4-0.1,0.7,0,1.1c0.2,0.3,0.2,0.7,0.1,1
					c-0.1,0.4,0.2,0.6,0,1c-0.1,0-0.1,0-0.3,0c0-0.2-0.1-0.5-0.2-0.8c-0.1,0.1-0.1,0.2-0.1,0.2c0.1,0.4,0,0.7-0.2,1
					c-0.1-0.1-0.1-0.1-0.2-0.1c0-0.4-0.1-0.9-0.1-1.5c0.1-0.2,0.3-0.3,0.4-0.4c0-0.1,0-0.1,0-0.1l0,0.1c0.1-0.1,0.1-0.2,0.2-0.3
					c-0.2-0.2-0.3-0.4-0.5-0.6c0-0.4-0.1-0.8,0.1-1.2c-0.2-0.3-0.5-0.3-0.6-0.7c-0.1-0.3-0.1-0.6-0.3-0.8c0.1-0.4,0.3-0.7,0.4-1
					c-0.2-0.3-0.3-0.5-0.5-0.7c0.4-0.1,0.4-0.5,0.6-0.7c-0.1-0.1-0.2-0.4-0.2-0.5c0.1-0.1-1.8,2.2-1.7,2.6c0,0,0,0,0,0
					c0,0.5-0.5,0.9-0.2,1.4c0.1,0,0.3-0.1,0.4-0.1c0.1,0.1,0.1,0.1,0.2,0.3c-0.1,0.1-0.3,0.2-0.4,0.2c-0.1,0.1-0.1,0.4-0.1,0.4
					c0,0.6,0.1,1,0.2,1.5c0.1,0.1,0.2,0.1,0.4,0.3c0,0.3,0.1,0.6,0.1,0.9l0.1,0c0-0.4,0.2-0.8,0.2-1.2c0.1-0.4,0-0.8,0.1-1.2
					c0.1,0,0.1,0,0.3,0c0,0.3,0.1,0.5,0,0.7c0,0.2,0,0.4-0.1,0.7c0.1,0.3,0.2,0.5,0.2,0.8c0.1,0.2,0.1,0.4,0.2,0.8
					c0,0.1-0.1,0.4-0.1,0.5c-0.1,0.2-0.2,0.4-0.3,0.6c0.1,0.1,0.2,0.1,0.2,0.2c-0.1,0.2-0.1,0.3-0.3,0.5c0,0.5,0.1,1,0.2,1.5
					c-0.1,0.5,0.1,1.1,0.2,1.6c0,0.5,0.1,1.1,0.1,1.5c0.1,0.1,0.2,0.1,0.3,0.1c0.1-0.3,0-0.6,0.2-0.9c0.1,0.3,0.1,0.6,0.1,0.9
					c-0.1,0.3-0.3,0.7-0.6,1.1c-0.1,0.3,0,0.7,0.2,1.1c-0.1,0.2-0.3,0.5-0.5,0.5c-0.6,0.2-1,0.6-1.4,1c-0.7,0-1.3,0.1-2,0.1
					c-0.2-0.1-0.5-0.3-0.8-0.4c0-0.1,0-0.2,0-0.3c0-0.2-0.2-0.3-0.3-0.5c0-0.5-0.3-0.9-0.5-1.5c0.1-0.2,0.2-0.3,0.3-0.5
					c0-0.1,0-0.3,0-0.4c-0.1-0.4-0.2-0.8-0.3-1.2c0-0.4-0.2-0.8-0.1-1.2c-0.5-0.8-0.3-1.7-0.7-2.5c-0.1-0.1-0.1-0.3-0.1-0.4
					c0-0.7-0.1-1.2-0.3-1.9c-0.1-0.2-0.1-0.4-0.1-0.6c0-0.5-0.1-0.9-0.2-1.4C35,37.4,35,37.1,35,36.9c-0.1-0.8-0.1-1.6-0.4-2.4
					c0-0.2-0.1-0.4,0-0.6c0.1-0.4-0.1-0.9-0.1-1.4c-0.1-0.4-0.2-0.9-0.2-1.3c-0.1-0.7-0.2-1.5-0.2-2.2c-0.1-0.5-0.1-1-0.2-1.5
					c0-0.3-0.1-0.6-0.1-0.9c0-0.2-0.1-0.4-0.1-0.6c-0.1-1.4-0.2-2.8-0.3-4.2c0-0.4,0-0.9-0.2-1.3c-0.1-0.2,0-0.5,0-0.7
					c0.1-0.3,0-0.4,0-0.7C33,19.3,33,19.1,33,19c0.1-0.6-0.1-1.2-0.1-1.7c0-0.5-0.1-1.1-0.1-1.7c-0.1-0.6-0.1-1.2-0.2-1.7
					c0-0.2,0.1-0.4,0-0.6c0-0.1-0.1-0.3-0.2-0.5c0.1-0.3,0.2-0.7,0.1-1c-0.2-0.1-0.2-0.2-0.4-0.3c0-0.1-0.1-0.1-0.1-0.2
					c0.1-0.3,0-0.7,0.1-0.9c0.1-0.3-0.2-0.5-0.1-0.7C32,9.4,32.1,9,32.1,8.6C32,7.9,32,7.2,32,6.4c0-0.2,0-0.4,0-0.7
					c-0.1-0.1-0.2-0.1-0.2-0.1c0.1-0.3,0-0.5,0.1-0.8c-0.2-0.4-0.5-0.7-0.7-1c0.1-0.1,0.1-0.2,0.2-0.3c0.2,0.1,0.1,0.4,0.2,0.5
					c0.2,0,0.4,0,0.8,0c0-0.1,0.1-0.1,0.1-0.2C32.7,3.8,32.9,3.9,33,4c0.1-0.3,0.1-0.4,0.2-0.7c0.1,0.1,0.2,0.1,0.3,0.1
					c0.1-0.2,0.2-0.3,0.3-0.5C34,2.9,34,3.2,34.1,3.2c0.1,0.1,0.4,0.1,0.5,0.2c0.1-0.1,0.1-0.2,0.3-0.4c0.5,0,1,0.2,1.5,0.4
					c0.5,0.2,1,0.3,1.6,0.5c0.5,0.2,1,0.2,1.5,0.5c0.1,0.3,0.1,0.6,0.3,0.8c0.1,0.3,0.3,0.5,0.6,0.7c0.3,0.3,0.4,0.6,0.6,1
					c0.4,0.2,0.8,0.5,1,1C41.9,8,41.9,8.3,42,8.5c0.1,0,0.3-0.1,0.5-0.1c0.1,0.1,0.2,0.2,0.4,0.3c-0.1,0.4-0.2,0.7-0.2,0.9
					c-0.2,0.2-0.3,0.5-0.5,0.8c0,0.4,0.1,0.7,0.1,1.2c-0.1,0.4,0,0.8,0,1.2c0,0.4,0,0.8,0,1.2c0,0.4,0,0.8,0.1,1.2
					c0.1,0.4-0.2,0.6,0,0.9c0.3,0.6,0,1.1,0,1.6c0.1,0.6,0.1,1.1,0.1,1.6c0,0.4-0.2,1-0.4,1.4c-0.1,0.2-0.2,0.5-0.2,0.8
					c0,0.5-0.1,1-0.3,1.5c0.4,0.2,0.7,0.1,1,0c0.4-0.2,0.8-0.3,1.2-0.5c1.4-0.4,2.6-0.9,4-1.3c0.3-0.1,0.6-0.2,0.8-0.5
					c0.4,0.1,0.6-0.2,1.1-0.2c0.1-0.1,0.1-0.2,0.3-0.3c0,0.1,0,0.3,0.2,0.4c0.1-0.1,0.1-0.2,0.3-0.3c-0.1-0.1-0.1-0.3-0.2-0.3
					c0.1-0.1,0.1-0.2,0.1-0.4c-0.1-0.1-0.2-0.2-0.4-0.3c0-0.1,0-0.1,0-0.2c-0.1-0.9-0.1-1.9,0-2.8c0.1-1-0.1-1.9-0.2-2.8
					c-0.2-0.3-0.4-0.2-0.7,0c-0.4-0.2-0.4-0.6-0.6-0.8c0.1-1.7,0.2-3.2,0.7-4.8C49,7.5,49,7.3,48.9,7.1c0.1-0.1,0.2-0.2,0.3-0.3
					c-0.1-0.2-0.2-0.4-0.2-0.5c0-0.4,0.2-0.8,0.4-1.1c0.2-0.3,0.4-0.5,0.5-1C49.8,4.2,49.7,4,49.5,4c0.1-0.3,0.3-0.5,0.4-0.8
					c-0.1-0.2-0.2-0.3-0.2-0.5c0.1-0.3,0.2-0.6,0.2-0.9c0.1-0.4,0-0.7,0-1.1C50,0.9,50.1,1,50.1,1.1c0.1-0.2,0.1-0.4,0-0.6
					c0-0.1-0.1-0.3-0.2-0.5c0.3,0.1,0.3,0.3,0.5,0.4c0.2,0.1,0.4,0.2,0.5,0.3c0.1-0.1,0.1-0.3,0.2-0.4c0.3,0.3,0.7,0.5,1.1,1
					c0.1,0,0.3,0,0.4,0c0.9,0.5,1.7,1.2,2.3,2c0.9,1,1.4,2,1.7,3.3c0.1,0,0.2,0.1,0.2,0.1c0,0.1,0,0.1,0,0.2c-0.2,0.5-0.2,1,0.2,1.4
					c0.1,0.2-0.3,0.5-0.1,0.7c0.2-0.2,0.4-0.2,0.5-0.4c0.2,0.4-0.1,0.5-0.2,0.7c-0.1,0.2-0.1,0.4-0.2,0.7c0.1,0.1,0.2,0,0.3-0.2
					c0.1-0.2,0-0.4,0.2-0.5c0,0.1,0,0.1,0,0.2c0.2,0.1,0.3,0.3,0.5,0.6c0,0.4-0.1,1-0.1,1.4c0.2,0.4-0.1,1,0.2,1.6
					c0-0.1,0.1,0.1,0.2,0.3c0,0.3,0,0.6,0.1,0.9c0,0.4,0,0.8,0.1,1.2c0.2,0.4,0.2,0.9,0.2,1.5c0.1,0.1,0.2,0.3,0.4,0.6
					c0.6-0.2,1.1-0.4,1.7-0.6c0,0.4-0.3,0.7-0.3,1C60.3,18.6,59.9,19.1,59.5,19.6z M32.5,17.1c0,0.1,0,0.1,0,0.3
					C32.5,17.3,32.5,17.2,32.5,17.1z M32.9,23.3L32.9,23.3L32.9,23.3z M34.7,38.3c0,0.1,0.1,0.1,0.1,0.2l-0.1,0.1
					C34.7,38.5,34.6,38.4,34.7,38.3C34.7,38.3,34.7,38.3,34.7,38.3z M40.1,38.9L40.1,38.9L40.1,38.9L40.1,38.9z M40.4,37.8
					c0-0.1,0-0.1,0-0.2c0.1,0,0.1,0,0.1,0C40.6,37.6,40.5,37.7,40.4,37.8L40.4,37.8z M40.9,40.4c0.1-0.2,0.1-0.4,0-0.5
					C40.7,40.1,40.7,40.3,40.9,40.4z M40.6,23.4c-0.1-0.1-0.2-0.2-0.3-0.3C40.3,23.4,40.3,23.4,40.6,23.4z M41.3,36.8
					c0-0.4,0-0.8-0.1-1.2C41.4,36,41.4,36.4,41.3,36.8z M40.8,21.2c0-0.2,0-0.4,0-0.6C40.3,20.9,40.3,20.9,40.8,21.2L40.8,21.2z
					 M41.4,32.9c0,0.1,0,0.1,0,0.1S41.3,33,41.4,32.9C41.3,33,41.3,33,41.4,32.9z M42.1,45.2L42.1,45.2L42.1,45.2L42.1,45.2z
					 M41.4,33C41.4,33,41.4,33,41.4,33L41.4,33z M42,37.4L42,37.4L42,37.4L42,37.4z M42.3,41.4L42.3,41.4L42.3,41.4z M42.6,40.4
					c0.1,0.1,0.2,0.1,0.2,0.2c-0.1,0.2-0.2,0.3-0.3,0.5C42.3,40.8,42.5,40.6,42.6,40.4z M42.3,35.6c-0.1,0-0.1,0-0.1,0s0,0,0,0.1
					C42.1,35.7,42.1,35.7,42.3,35.6C42.2,35.7,42.2,35.7,42.3,35.6z M42.6,38.2c0,0.1,0,0.1,0.1,0.1C42.6,38.3,42.6,38.3,42.6,38.2
					C42.5,38.3,42.6,38.3,42.6,38.2z M43.2,42.3c0-0.1,0-0.3,0-0.4c0.1,0,0.1,0,0.1,0C43.3,42,43.2,42.1,43.2,42.3L43.2,42.3z
					 M43.2,40.6c0,0.1,0,0.3,0,0.5C43.1,40.8,43,40.7,43.2,40.6z M43.3,43.2L43.3,43.2L43.3,43.2z M43.3,40.6
					C43.3,40.6,43.3,40.6,43.3,40.6C43.2,40.6,43.2,40.6,43.3,40.6z M43.4,40.4c0.1,0.1,0,0.1-0.1,0.1
					C43.3,40.5,43.3,40.4,43.4,40.4z M43.8,41L43.8,41L43.8,41L43.8,41z M43.9,41.7l0,0.1L43.9,41.7L43.9,41.7z M43.9,42.3
					L43.9,42.3L43.9,42.3z M43.7,36L43.7,36L43.7,36z M48.7,29.1L48.7,29.1L48.7,29.1L48.7,29.1z M48.1,16.8L48.1,16.8L48.1,16.8
					L48.1,16.8z M48.5,20.5c-0.1,0-0.1,0-0.1,0C48.5,20.4,48.5,20.5,48.5,20.5z M48.3,18.9L48.3,18.9L48.3,18.9z M48.6,20.5
					C48.5,20.5,48.5,20.5,48.6,20.5C48.5,20.5,48.5,20.5,48.6,20.5C48.5,20.5,48.5,20.5,48.6,20.5z M49.5,36.5
					c0-0.1,0.1-0.2,0.1-0.2C49.6,36.3,49.6,36.5,49.5,36.5L49.5,36.5z M49.9,38C50,38,50.1,38,50.2,38c-0.1,0.2-0.1,0.4-0.2,0.8
					C49.8,38.5,49.9,38.3,49.9,38z M50,39.4c0.1,0.1,0.2,0.2-0.1,0.3C49.9,39.5,49.9,39.4,50,39.4z M49.7,30.8
					c0.2,0.2,0.1,0.4,0,0.6C49.6,31.2,49.6,31.1,49.7,30.8z M49.6,28.9L49.6,28.9l0-0.1L49.6,28.9L49.6,28.9z M49.7,30.4L49.7,30.4
					L49.7,30.4L49.7,30.4z M49.5,28.2L49.5,28.2L49.5,28.2L49.5,28.2z M49.2,18.6c-0.1-0.1-0.2-0.3,0-0.4
					C49.3,18.3,49.2,18.4,49.2,18.6z M49.9,32.2L49.9,32.2L49.9,32.2L49.9,32.2z M50,33.8c0.1-0.1,0.1-0.1,0.2-0.2
					c0.2,0.4,0.1,0.7-0.1,1.1C50.1,34.4,50.1,34.1,50,33.8z M49.3,17L49.3,17C49.3,17.1,49.3,17.1,49.3,17L49.3,17z M50.4,35.5
					c0-0.1,0.1-0.1,0.1-0.2l0.1,0.1C50.5,35.5,50.5,35.5,50.4,35.5C50.4,35.6,50.4,35.5,50.4,35.5z M50.1,9.3c0-0.1-0.1-0.2-0.1-0.3
					c-0.1,0.1-0.2,0.2-0.3,0.2c-0.2,0.8-0.2,1.8-0.6,2.6c0,0,0.1,0,0.1,0.1c0.1,0,0.1,0.1,0.3,0.1c-0.1,0.2-0.3,0.3-0.5,0.5
					c0.1,0.1,0.1,0.1,0.2,0.2c0.1,0.1,0.1,0.1,0.3,0.1c0.3-0.7,0.5-1.3,0.5-2C49.9,10.4,49.9,9.9,50.1,9.3z M49.4,13.9
					c-0.1,0-0.2,0-0.3,0c0-0.1,0-0.1,0-0.1C49.2,13.8,49.2,13.8,49.4,13.9C49.4,13.8,49.4,13.8,49.4,13.9z M49.2,14.7
					c0,0.1,0,0.2,0,0.3C49.2,14.9,49.2,14.8,49.2,14.7z M50.6,37c0,0.1,0,0.3,0,0.4c0-0.1-0.1-0.1-0.1-0.1c0-0.2,0-0.5,0-0.8
					c0.1-0.2,0.2-0.2,0.4,0.1C50.8,36.7,50.7,36.8,50.6,37z M50.7,37.4C50.7,37.4,50.7,37.5,50.7,37.4
					C50.6,37.4,50.6,37.4,50.7,37.4C50.7,37.4,50.7,37.4,50.7,37.4z M49.8,20c0-0.1,0.1-0.2,0.2-0.2C50.1,19.9,50,19.9,49.8,20z
					 M51.1,38.8L51.1,38.8L51.1,38.8L51.1,38.8z M50.1,19.8C50.1,19.8,50.1,19.8,50.1,19.8S50.1,19.8,50.1,19.8L50.1,19.8z
					 M49.1,3.8L49.1,3.8L49.1,3.8L49.1,3.8z M49.3,4.6L49.3,4.6C49.2,4.7,49.2,4.7,49.3,4.6L49.3,4.6z M49.3,4.6
					C49.3,4.6,49.3,4.6,49.3,4.6C49.3,4.6,49.3,4.6,49.3,4.6z M49.3,4.6c0.1-0.1,0.1-0.2,0.1-0.2C49.5,4.5,49.4,4.5,49.3,4.6z
					 M50.9,28.1L50.9,28.1L50.9,28.1L50.9,28.1z M49.9,8.8L49.9,8.8L49.9,8.8L49.9,8.8z M51,27.7c0.1,0,0.1,0.1,0.2,0.1
					c0-0.1,0-0.1,0-0.1C51.1,27.6,51.1,27.6,51,27.7z M51.4,29.3c-0.1,0.1-0.1,0.2-0.2,0.2c0.1,0.2,0.2,0.4,0.4,0.4
					C51.5,29.8,51.6,29.5,51.4,29.3z M51.7,30.1c0-0.1-0.1-0.1-0.2-0.1c-0.1,0.2-0.2,0.2-0.3,0.4c0.2,0.1,0.2,0.1,0.4,0.3
					c-0.1,0.2-0.1,0.4-0.1,0.6c-0.1,0.2,0.1,0.4,0,0.7c0.1,0,0.2,0,0.4-0.1C51.9,31.3,51.8,30.7,51.7,30.1z M52,26.8
					c0-0.4,0-0.7-0.1-1.1c-0.1,0-0.2,0-0.4,0c-0.1,0.2-0.1,0.3-0.3,0.5c0.1,0.1,0.2,0.1,0.2,0.1c0,0.4,0.1,0.9,0.1,1.3
					c-0.1,0-0.3,0.1-0.4,0.1c0,0.1-0.1,0.3,0.1,0.4c0.2,0.1,0.4-0.1,0.5-0.2C51.8,27.6,52,27.2,52,26.8z M51.2,27.5
					c0.2-0.2,0.2-0.2,0.1-0.6C51.2,27.1,51.2,27.3,51.2,27.5z M50.8,20.1c0.3,0,0.6,0.1,0.8-0.2c0-0.4-0.4-0.4-0.6-0.6
					C50.7,19.6,50.6,19.8,50.8,20.1z M51.2,26.3C51.2,26.4,51.3,26.4,51.2,26.3c0.1,0.1,0.1,0,0.1-0.1
					C51.3,26.3,51.2,26.3,51.2,26.3z M51.8,32.2c-0.1,0-0.1,0.1-0.2,0.1c0.1,0.1,0.2,0.2,0.2,0.4C51.9,32.5,51.9,32.5,51.8,32.2z
					 M51.7,32.8c0,0,0.1-0.1,0.1-0.2C51.6,32.7,51.6,32.8,51.7,32.8L51.7,32.8z M51.8,28.8c0.1-0.1,0.1-0.2,0.1-0.2
					c0-0.1-0.1-0.1-0.2-0.1c0,0.1,0,0.1-0.1,0.2C51.7,28.7,51.8,28.7,51.8,28.8L51.8,28.8z M52.3,25.6c-0.1-0.1-0.3-0.1-0.3,0.1
					C52.1,25.6,52.2,25.7,52.3,25.6z M52.4,26.4c0.1,0.1,0.1,0.1,0.2,0c0,0,0,0,0-0.1c0-0.2-0.1-0.2-0.4-0.1
					C52.4,26.4,52.4,26.4,52.4,26.4z M52.7,27.6L52.7,27.6c0-0.1-0.1-0.1-0.1-0.1C52.6,27.6,52.6,27.6,52.7,27.6z M52.8,27.3
					c-0.1,0.1-0.1,0.1-0.1,0.1C52.9,27.4,52.9,27.4,52.8,27.3z M58.1,42.6c0,0.1,0,0.1-0.1,0.1C58,42.6,58,42.6,58.1,42.6z
					 M58.2,42.6L58.2,42.6C58.2,42.6,58.2,42.6,58.2,42.6S58.2,42.6,58.2,42.6L58.2,42.6z M58.2,42c0.2-0.2,0.5-0.5,0.8-0.8
					c0,0.4-0.1,0.7-0.4,0.9c-0.1,0.1-0.3,0.2-0.4,0.4C58.2,42.4,58.2,42.2,58.2,42z M58.9,40.5c0.3-0.2,0.3-0.6,0.6-0.8
					c0,0.1,0,0.4,0,0.7c-0.2,0.2-0.3,0.6-0.6,0.8C58.9,40.9,58.9,40.8,58.9,40.5z M59,41.2C59,41.2,59,41.2,59,41.2L59,41.2z
					 M59,38.9c0-0.1,0-0.1,0-0.1c0-0.4,0.4-0.5,0.4-0.8c0-0.4,0.2-0.6,0.5-0.8c0.3-0.3,0.2-0.7,0.5-1c0.1-0.1,0.3,0,0.3,0.1
					c0,0.2,0,0.5,0,0.7c-0.3,0.3-0.6,0.7-0.6,1.2c0.1,0.1,0,0.2-0.1,0.3c-0.1,0.2-0.1,0.2-0.2,0.3C59.6,38.9,59.3,38.9,59,38.9z
					 M57.7,9.4L57.7,9.4C57.7,9.5,57.7,9.5,57.7,9.4C57.7,9.5,57.7,9.5,57.7,9.4L57.7,9.4z M58.9,27.9
					C58.9,27.9,58.9,27.9,58.9,27.9C58.8,28,58.8,27.9,58.9,27.9L58.9,27.9z M59.5,39.6L59.5,39.6C59.5,39.6,59.5,39.6,59.5,39.6
					L59.5,39.6z M59.6,39.6L59.6,39.6L59.6,39.6z M57.8,9.3L57.8,9.3C57.7,9.3,57.7,9.3,57.8,9.3C57.8,9.3,57.8,9.3,57.8,9.3z
					 M58.9,27.9c0-0.1,0-0.2,0-0.4c0.1,0,0.2,0,0.3,0C59.2,27.8,59,27.8,58.9,27.9z M59.6,39.4c0.2,0.1,0.1,0.1,0,0.1
					C59.6,39.5,59.6,39.5,59.6,39.4z M59.1,26.3C59.1,26.3,59.1,26.3,59.1,26.3c-0.1-0.1-0.1-0.1-0.1-0.3c0,0,0,0,0.1,0
					C59.1,26.2,59.1,26.2,59.1,26.3z M59.1,26.9C59.1,26.9,59.1,26.9,59.1,26.9c0.1,0.1,0.1,0.2,0.1,0.3c-0.1,0-0.1,0-0.1,0
					C59.1,27.1,59.1,27,59.1,26.9z M59.2,23.2C59.2,23.2,59.2,23.2,59.2,23.2C59.2,23.2,59.2,23.2,59.2,23.2z M59.4,23.4
					c-0.1-0.1-0.1-0.1-0.2-0.1c0.1,0,0.1,0,0.1,0C59.4,23.3,59.4,23.3,59.4,23.4z M59.4,24.2c0-0.1-0.1-0.1-0.1-0.2
					c0.1-0.1,0.1-0.1,0.1-0.1C59.4,24.1,59.4,24.2,59.4,24.2L59.4,24.2z M59.4,23.2C59.5,23.2,59.5,23.2,59.4,23.2
					C59.5,23.2,59.5,23.2,59.4,23.2z M59.5,23.2c0-0.1,0-0.3,0-0.4C59.7,23,59.6,23.1,59.5,23.2z M60.5,34.9
					C60.5,34.9,60.5,34.9,60.5,34.9c0.1,0.3,0.1,0.4,0.1,0.7c-0.1,0.1-0.1,0.2-0.3,0.4C60.4,35.5,60.4,35.2,60.5,34.9z M60.5,38.6
					C60.5,38.7,60.6,38.7,60.5,38.6c0.1,0.1,0.1,0.2,0.1,0.3c-0.1,0-0.1,0-0.1,0C60.4,38.9,60.5,38.8,60.5,38.6z"/>
				<path fill="#695173" d="M162.6,18.8c-0.2,0.4-0.4,0.8-0.6,1.2c-0.1,0.5-0.1,1.1-0.4,1.6c-0.1,1-0.4,1.9-0.7,2.9
					c-0.2,0.6-0.2,1.2-0.4,1.9c-0.2,0.5-0.4,1-0.6,1.5c-0.1,0.1-0.1,0.4-0.1,0.5c0,0.4-0.1,0.9-0.4,1.2c-0.3,0.5-0.4,0.9-0.5,1.4
					c0,0.4,0,0.7-0.2,0.9c-0.1,0.3,0.1,0.6-0.1,0.9c-0.1,0.2,0,0.6-0.1,0.9c0,0.1,0,0.2-0.1,0.3c-0.2,0.6-0.4,1.1-0.4,1.6
					c0,0.1,0,0.3-0.1,0.4c-0.1,0.6-0.2,1.2-0.5,1.8c-0.4,0.8-0.5,1.6-0.8,2.3c-0.1,0.3-0.2,0.5-0.3,0.8c-0.2,0.6-0.4,1.1-0.5,1.7
					c0,0.3,0,0.6,0.1,0.8c-0.1,0.4-0.2,0.6-0.2,0.9c0,0,0,0,0.1,0.1c0,0,0,0,0,0.1c-0.1,0.3,0.1,0.7,0,1c-0.2,0.3-0.2,0.8-0.2,1.2
					c0.1,0.2,0.2,0.6,0.3,0.9c0,0.6,0,1.2-0.3,1.7c0,0.4,0.1,0.8,0.2,1.3c0.2-0.6,0.3-1,0.5-1.4c0.1,0,0.2,0.2,0.3,0.3
					c0.1,0.2,0.1,0.3,0.2,0.6c0,0.2-0.1,0.6-0.1,0.9c0,0.1,0.1,0.2,0.1,0.2c0,0.1,0.1,0.2,0.1,0.2c0,0.2-0.1,0.5-0.1,0.7
					c0,0.3,0.1,0.5,0.1,0.7c0,0.2,0,0.4,0,0.6c0,0.5-0.2,0.9,0,1.4c0,0.3-0.1,0.7-0.1,1.1c-0.2,0.2-0.3,0.4-0.5,0.6
					c-0.1,0-0.1,0-0.2,0c-0.2,0.1-0.1,0.4-0.2,0.6c-0.4,0.1-0.8,0.3-0.9,0.8c-0.8-0.1-1.4,0.2-1.9,0.6c-0.4,0.1-0.7,0.1-1,0.1
					c-0.3,0.1-0.7,0-1,0.1c-0.1,0.1-0.2,0.1-0.3,0.3c-0.2,0-0.4-0.1-0.7-0.1c-0.4-0.1-0.6-0.3-0.9-0.7c0.2-0.3,0.5-0.3,0.7-0.4
					c-0.1-0.2-0.2-0.3-0.4-0.3c-0.2-0.1-0.5,0-0.6-0.4c0.1,0,0.2-0.1,0.2-0.1c-0.2-0.5-0.5-0.8-0.5-1.4c0.2-0.1,0.2-0.1,0.3-0.1
					c0-0.3-0.1-0.6-0.1-0.9c-0.1,0-0.1-0.1-0.2-0.2c-0.1-0.2-0.1-0.2,0.1-0.3c0.1,0.2,0.3,0.4,0.5,0.6c0.2-0.1,0.2-0.3,0.1-0.4
					c-0.1-0.2-0.2-0.5-0.3-0.7c0-0.2,0.1-0.5,0.1-0.8c0,0-0.1-0.1-0.2-0.2c0.1-0.1,0.2-0.1,0.3-0.2c0-0.2,0.1-0.5,0.1-0.9
					c0.1,0.2,0.2,0.2,0.3,0.3c0.2-0.4,0.1-0.6,0.2-1c-0.1-0.2-0.1-0.2-0.2-0.4l-0.1-0.1c-0.1-0.5-0.1-1,0.3-1.4
					c-0.1-0.1-0.1-0.2-0.1-0.2c0.1-0.2,0.1-0.5,0.2-0.7c0-0.4-0.1-0.8,0.2-1.2c-0.1-0.2,0-0.4-0.1-0.8c0.1-0.1,0.2-0.4,0.2-0.6
					c-0.1-0.2,0-0.4-0.1-0.5c0.1,0,0.3,0,0.4,0.1c0.1-0.1,0.1-0.2,0.1-0.3c-0.1-0.1-0.3-0.2-0.4-0.3c0-0.1,0.1-0.2,0.1-0.4
					c0-0.1-0.1-0.2-0.1-0.3c0.2-0.1,0.2-0.2,0.3-0.4c-0.1-0.4,0.2-0.7,0.2-1.1c-0.1-0.2-0.1-0.2-0.1-0.4c0.1-0.2,0.2-0.5,0.2-0.8
					c0-0.3,0.1-0.6,0.3-0.9c-0.1-0.2-0.1-0.2-0.2-0.5c0.2-0.8,0-1.8,0.4-2.5c-0.2-0.2-0.4,0-0.5-0.1c-0.1-0.3,0.2-0.3,0.3-0.6
					c0-0.4,0-0.8,0-1.2c-0.2-0.1-0.2,0.1-0.4,0.2c-0.2,0.1-0.3,0.2-0.5,0.2c-0.2,0.1-0.3,0.1-0.5,0.2c-0.2,0.2-0.5,0.5-0.7,0.7
					c-0.2-0.1-0.4-0.2-0.6-0.3c-0.2,0.1-0.3,0.1-0.5,0.2c-0.2,0.1-0.3,0.3-0.4,0.5c-0.3,0-0.3-0.2-0.4-0.3c-0.7,0.2-1.5,0-2.2,0
					c0-0.1,0-0.1-0.1-0.2c-0.1,0.1-0.1,0.1-0.1,0.2c-0.4-0.1-0.9-0.2-1.3-0.2c-0.2,0.1-0.4,0-0.6-0.1c-0.2-0.1-0.4-0.1-0.6-0.2
					c-0.3-0.4-0.7-0.8-0.9-1.2c0.1-0.2,0.2-0.4,0.4-0.7c-0.1,0-0.2,0-0.4,0c0.1-0.7-0.3-1.2-0.2-1.9c-0.1-0.2,0-0.3-0.2-0.6
					c0.3-0.6,0-1.2-0.1-2c0,0,0.1-0.1,0.1-0.3c0-0.5-0.1-1,0-1.5c0-0.2-0.2-0.5,0-0.7c0.2-0.2,0-0.4,0.1-0.7
					c0.2-0.3,0.1-0.6,0.1-0.9c0-0.3,0.1-0.6-0.1-0.9c0.1-0.2,0.2-0.4,0.3-0.6c0-0.2,0-0.6,0.1-0.9c0.3-0.3-0.1-0.7,0.2-1
					c0.2-0.3,0.3-0.6,0.2-1c-0.1-0.2-0.2-0.5-0.2-0.7c0.1-0.4,0.2-0.7,0.3-1.2c-0.1-0.2-0.1-0.6,0.1-0.9c0.1-0.2,0-0.4,0.1-0.7
					c0-0.3-0.1-0.7,0.1-1c0.1-0.1-0.2-0.4,0-0.6c-0.2-0.3-0.1-0.7,0-1c0.3-0.5,0.2-1.1,0.3-1.6c-0.2-0.2-0.3-0.2-0.6-0.4
					c0.2-0.1,0.2-0.2,0.2-0.3c0.4,0.2,0.9,0.3,1.3,0.5c0.2,0,0.2-0.3,0.3-0.3c0.2-0.1,0.5-0.2,0.6-0.2c0.5,0.1,0.9,0.4,1.3,0.4
					c0.6,0.3,1.1,0.5,1.5,0.8c0.1,0,0.1,0,0.2-0.1c0.4,0.4,0.7,0.7,1.2,1.1c0,0.2,0,0.5,0,0.7c0.7,0.9,0.6,1.1,0.8,2.4
					c0.3,0.4,0.5,0.8,0.8,1.3c0,0.5,0,1-0.1,1.5c0,0.5,0.1,1,0.2,1.5c0.1,0.2,0.2,0.4,0.2,0.5c-0.1,0.5-0.2,0.9-0.3,1.4
					c0,0.2-0.1,0.4-0.2,0.5c-0.1,0.8-0.2,1.5-0.4,2.3c-0.1,0.4-0.3,0.8-0.2,1.2c0,0.1,0.1,0.2,0.1,0.3c0.5-0.3,0.5-0.2,0.7-0.5
					c0.6-1,1.2-2,1.6-3.1c0.1-0.1,0.1-0.2,0.1-0.3c0.6-0.8,0.9-1.7,1.3-2.5c0.3-0.5,0.3-1,0.5-1.5c0.2-0.6,0.2-1.1,0.3-1.6
					c0-0.2,0-0.4,0.1-0.7c0.3-0.6,0.2-1.2,0.3-1.8c0-0.4,0.1-0.9,0.4-1.4c0.5-0.2,0.9-0.7,1.2-1.2c0.7-0.6,1.2-1.4,2-1.7
					c0.3,0.1,0.6,0.3,0.9,0.4c0.1-0.1,0.2-0.1,0.3-0.1c0.4,0.2,0.8,0.3,1.4,0.5c1,0.7,1.8,1.7,2.5,2.8
					C162.8,17.1,162.6,18,162.6,18.8z M141.5,33.5L141.5,33.5L141.5,33.5L141.5,33.5z M144.4,36.9C144.4,36.9,144.4,36.9,144.4,36.9
					L144.4,36.9z M144.4,36.9c0.1,0,0.1,0,0.1,0c0,0.1-0.1,0.1-0.1,0.1C144.5,37,144.4,37,144.4,36.9z M144.6,36.9
					C144.5,36.9,144.5,36.9,144.6,36.9C144.6,36.9,144.6,36.9,144.6,36.9z M147.7,55.3L147.7,55.3L147.7,55.3z M147.7,55.6
					L147.7,55.6L147.7,55.6L147.7,55.6z M148.2,56.5L148.2,56.5c0.1,0,0.1,0,0.3,0.2C148.3,56.6,148.2,56.5,148.2,56.5L148.2,56.5z
					 M148.4,54.2C148.4,54.2,148.4,54.2,148.4,54.2C148.4,54.1,148.4,54.1,148.4,54.2C148.4,54.1,148.4,54.2,148.4,54.2z
					 M148.5,54.1C148.6,54.2,148.5,54.2,148.5,54.1L148.5,54.1z M149.9,43.2L149.9,43.2L149.9,43.2z M149.4,50.4c0,0.1,0,0.1,0,0.1
					C149.5,50.6,149.5,50.6,149.4,50.4z M150.4,44.3C150.4,44.3,150.4,44.2,150.4,44.3c-0.1,0-0.1,0.1-0.2,0.4
					C150.4,44.4,150.4,44.4,150.4,44.3z M150.9,43.2c-0.1,0.1-0.2,0.1-0.3,0.2c0,0.3,0.1,0.6,0.2,1C151,43.8,151,43.8,150.9,43.2z
					 M151.4,39c0.1,0,0.1,0,0.1,0.1c0-0.1,0-0.1,0-0.1C151.5,39,151.5,39,151.4,39z M152.2,38.5c-0.1-0.2-0.1-0.3-0.2-0.5
					c-0.1,0.1-0.2,0.1-0.2,0.2c0,0.3,0,0.5-0.1,0.7c0.1,0.1,0.1,0.1,0.1,0.1c-0.1,0.1-0.1,0.1-0.2,0.1c0.1,0.2,0.1,0.2,0.1,0.3
					c0,0.4-0.1,0.6-0.2,0.9c0,0,0.1,0.1,0.1,0.2c0.1,0,0.1,0,0.2,0c0-0.4,0.1-0.6,0.2-1C151.9,39.1,152.1,38.8,152.2,38.5z
					 M151.4,41.4c0,0.4-0.2,0.7-0.1,1.2c0.1-0.1,0.2-0.2,0.2-0.3C151.4,42,151.6,41.7,151.4,41.4z M150.9,47.3L150.9,47.3
					L150.9,47.3L150.9,47.3z M150.9,48.7L150.9,48.7L150.9,48.7L150.9,48.7z M151.9,37.6c0.1,0,0.1,0,0.1,0S152,37.6,151.9,37.6
					C151.9,37.6,151.9,37.6,151.9,37.6z M152.1,41.4L152.1,41.4L152.1,41.4L152.1,41.4z M153.8,35.1c0-0.1,0-0.3-0.1-0.4
					c-0.1,0.2-0.1,0.4-0.2,0.6c-0.2,0.2,0.1,0.4-0.1,0.6c-0.1,0.1-0.2,0.2-0.2,0.3c0.1,0.4,0.2,0.7,0,1.1c-0.2,0.1-0.4,0.1-0.5,0.1
					c-0.2,0.4,0.1,0.7-0.1,1.1c0,0,0.1,0,0.1,0.1c0.1-0.1,0.2-0.1,0.2-0.1c-0.1-0.2,0-0.4-0.1-0.7c0.1,0,0.2,0,0.3,0.1
					c0,0.4,0,0.9,0,1.5c0.2-0.4,0.3-0.5,0.3-0.6c0.1-0.1,0.1-0.4,0.1-0.5C153.5,37.2,153.6,36.1,153.8,35.1z M152.4,39.7
					c-0.2,0.4-0.2,0.4,0,0.6C152.5,40.1,152.6,39.9,152.4,39.7z M152.5,42.6c-0.2,0.1-0.3,0.2-0.3,0.4c0.1,0,0.1,0.1,0.2,0.1
					C152.6,42.9,152.8,42.7,152.5,42.6z M152.8,37.1L152.8,37.1L152.8,37.1L152.8,37.1z M152.7,39.3L152.7,39.3L152.7,39.3
					L152.7,39.3z M152.4,44.2C152.4,44.2,152.4,44.2,152.4,44.2c0.1-0.2,0.1-0.4,0.1-0.6c-0.1,0-0.1,0-0.3-0.1
					c0.1,0.2,0,0.3,0.1,0.4C152.4,43.9,152.4,44.1,152.4,44.2z M152.7,41.3c-0.2,0.3-0.2,0.6-0.1,0.9
					C152.8,41.9,152.8,41.6,152.7,41.3z M152.7,41c0.1-0.1,0.2-0.2,0-0.3C152.7,40.8,152.7,40.9,152.7,41z M152.3,45L152.3,45
					L152.3,45L152.3,45z M153.7,34L153.7,34C153.7,34.2,153.7,34.2,153.7,34L153.7,34z M153.7,44.9L153.7,44.9l-0.1,0
					C153.5,44.9,153.6,44.9,153.7,44.9L153.7,44.9z M153.6,44.5L153.6,44.5L153.6,44.5L153.6,44.5z M154.2,47.8L154.2,47.8
					L154.2,47.8z M154.7,47c-0.1,0-0.2,0-0.3,0c0.7,0-0.4,0.6,0.2,0.5C154.7,47.4,154.8,47.1,154.7,47z M155.5,44.4L155.5,44.4
					C155.5,44.5,155.5,44.5,155.5,44.4L155.5,44.4z M155.7,47.4c0.1-0.3,0.1-0.4,0.1-0.4c0,0,0.1,0.1,0.1,0.1
					C155.9,47.1,155.9,47.2,155.7,47.4z M156.2,48.1c0.1,0.3,0.2,0.5,0.2,0.8c0,0-0.1,0-0.1,0.1C156.1,48.7,156,48.4,156.2,48.1z
					 M156.5,45.7L156.5,45.7L156.5,45.7L156.5,45.7z M156.3,46.4L156.3,46.4L156.3,46.4L156.3,46.4z M156.3,46.8L156.3,46.8
					L156.3,46.8L156.3,46.8z M156.7,51.2c0-0.4,0-0.8,0.2-1.2c0.2-0.1,0.1-0.3,0.2-0.6c0.1,0.5,0,0.9-0.2,1.2
					C156.8,50.8,157,51.1,156.7,51.2z M157,48.1C157,48.1,157,48.1,157,48.1c0-0.1,0-0.1,0.1-0.4C157.1,47.9,157,48,157,48.1z
					 M157.2,53.6L157.2,53.6L157.2,53.6L157.2,53.6z M160.4,28.2c0,0.1,0,0.2-0.1,0.4C160.2,28.4,160.2,28.3,160.4,28.2z
					 M160.5,27.9c0.1,0.2,0,0.3-0.1,0.3C160.4,28.1,160.5,28,160.5,27.9z M160.4,28.2C160.4,28.2,160.4,28.2,160.4,28.2
					C160.4,28.2,160.4,28.2,160.4,28.2z"/>
				<path fill="#695173" d="M88.8,37.5c-0.5,1-0.9,0.7-1.3,1.6c-0.1,0.4-0.2,0.8-0.3,1.1c-0.4,0.4-0.9,0.5-1.1,1
					c-0.1,0.2-0.2,0.4-0.3,0.5c-0.4,0.4-0.6,0.9-1.1,1.5c-0.3,0.2-0.6,0.6-1,0.9c-0.6,0.4-1.2,0.5-2,0.6c-0.5,0-0.9,0-1.5,0.1
					c-1.1,0.1-1.8-0.5-2.4-1.3c-0.4-0.7-0.6-1.4-0.8-2.2c-0.1-0.4-0.1-0.9-0.2-1.2c-0.1-0.6-0.3-1.2-0.3-1.8c-0.1-0.6,0-1.2-0.3-1.7
					c-0.2-0.4-0.1-0.9-0.2-1.4c0-0.1,0-0.4-0.1-0.5c-0.1-0.3-0.2-0.6-0.4-0.9c-0.1,0.3-0.3,0.5-0.5,0.8c-0.3,0.4-0.4,1-0.9,1.3
					c-0.1,0.5-0.6,0.7-0.8,1.2c-0.3,0.4-0.6,0.7-0.8,1.1c-0.2,0.3-0.3,0.6-0.6,0.9c-0.1,0.2-0.3,0.2-0.4,0.3c-0.4,0.1-0.7,0.2-1,0.2
					c-0.4,0.2-0.7,0.2-0.9,0.1c-0.6,0.1-0.9,0.2-1.4,0.2c-1.4-0.2-2.8-0.2-4.3-0.9c-0.2-0.3-0.5-0.6-0.8-0.9
					c-0.3-1.2-0.6-2.3-0.8-3.5c0.1-0.1,0.2-0.2,0.4-0.4c-0.1-0.2-0.1-0.4-0.2-0.6c0.1-0.2,0.3-0.3,0.4-0.4c0.3-1.1,0.4-2.3,0.6-3.4
					c0.1-0.4,0.1-0.7,0.3-1.1c0.4-1,0.7-2.1,1.2-3c0.1-0.4,0.1-0.7,0.4-1c0.3-0.2,0.3-0.7,0.5-1c0.2-0.3,0.3-0.7,0.5-1
					c0.1-0.3,0.3-0.7,0.5-1c0.3-0.7,0.7-1.4,1.1-2.1c0.3-0.7,0.9-1.3,1.4-1.9c0.5-0.5,1-1,1.3-1.6c0.4-0.7,1.1-1.2,1.6-1.8
					c0.1-0.2,0.4-0.4,0.5-0.6c0.2-0.2,0.4-0.3,0.6-0.5c0.9-0.1,1.8-0.1,2.8-0.2c0.9-0.1,1.8,0.1,2.8,0c0.4,0.1,0.8,0.3,1.3,0.5
					c0,0,0.1,0.1,0.1,0.1c-0.1,0.4-0.6,0.4-0.7,0.7c-0.6-0.1-1.1,0-1.7,0c-0.4,0-1-0.3-1.5,0c-0.3,0.2-0.6,0.6-1,0.9
					c-0.4,0.6-0.8,1.2-1.2,1.9c-0.3,0.4-0.6,0.9-0.8,1.3c-0.4,0.8-0.8,1.7-1.2,2.5c-0.1,0.2-0.2,0.5-0.3,0.7
					c-0.1,0.2-0.1,0.4-0.3,0.6c-0.1,0.2-0.3,0.4-0.4,0.6c-0.7,1.9-1.4,3.8-2,5.7c-0.2,0.7-0.5,1.4-0.7,2.1c-0.2,0.7-0.4,1.3-0.2,2
					c-0.1,0.1-0.3,0-0.1,0.2c0.1-0.1,0.1-0.1,0.1-0.2c0.1-0.1,2.3,0.3,2.3,0.2c0.2-0.3,2.3-0.8,2.4-1.1c0.5-1.3,0.8-2.3,1.5-3.5
					c0.4-0.7-0.2-1.3,0-2c0.5-0.5-0.2-1.5,0.2-2.1c0.4-0.4-0.7-1-0.4-1.4c0.1-0.2,0-0.7,0-1c0.1-0.5-0.3-1.1,0.1-1.5
					c0-0.2,0-0.4,0-0.7c0.3-0.2-0.1-0.5,0.1-0.7c0.2-0.2,0.3-0.6,0.6-0.8c0.3-0.1,0.6-0.2,1.1-0.4c1,0.3,3.1-0.1,4.3,0
					c0.4,0.1,0.8,0.2,1.2,0.5c0.2,0.4,0.2,0.9,0,1.5c0,0.1,0,0.3,0,0.4c0.1,0.9,0.1,1.9,0,2.8c-0.1,0.7-0.1,1.5,0,2.3
					c0,0.4,0,0.9,0.1,1.3c0,0.5,0,0.9,0,1.4c-0.1,0.4,0,0.9,0.3,1.4c-0.1,0.4-0.2,0.7-0.1,1.2c0.1,0.9,0.3,1.9,0.1,2.8
					c-0.1,0.4,0,0.9,0.1,1.3c0.2,0.6,0.2,1,0.1,1.5c0,0.6,0.3,1,0.3,1.5c0,0.4,0,0.9,0.1,1.4c0.2,0.4-0.1,1,0,1.5
					c0.1-0.1,0.2-0.1,0.3-0.2c0,0,1.8-2.2,2.1-3c0.3-0.7,1.8-2.7,2.3-3.3c0.4-0.5,1.2-1.7,1.6-2.1c0.4-0.3,2.4-2.9,2.5-3
					c0.1-0.2,1.7,0.2,1.1,2c-0.6,1.8-1.1,2.3-1.4,2.6C91,33.9,89.4,36.5,88.8,37.5z"/>
				<path fill="#695173" d="M109.7,23.6c-0.3,0.5-0.1,1.2-0.5,1.6c0,0.1,0.1,0.2,0.1,0.4c-0.5,0.8-0.6,2-1.3,2.8
					c0.1,0.1,0.1,0.2,0.2,0.4c-0.4,0.5-0.8,1.1-1.2,1.5c-0.3,0.4-0.8,0.7-1,1.1c-0.3,0.3-0.7,0.4-0.9,0.8c-0.7,0.4-1.1,1.1-2,1.3
					c-0.2,0-0.4,0.2-0.5,0.4c-0.2,0.2-0.5,0.3-0.8,0.3c-0.1-0.1-0.1,0-0.3,0.1c-0.7,0.4-1.5,0.7-2.4,0.6c-0.1,0.2-0.3,0.2-0.4,0.3
					c-0.5,0.1-1,0.2-1.6,0.3C97,35.9,97,36,97,36.2c0,0.8-0.1,1.5-0.1,2.3c0,0.3,0,0.5-0.1,0.8c-0.1,0.6-0.2,1.2,0.1,1.7
					c-0.1,0.2-0.1,0.4-0.2,0.7c0.2,0.6,0.2,1.3,0,2c-0.1,0.4-0.1,0.7,0,1.1c0.4,0.9,0.4,2,0.7,3c-0.2,0.6,0.1,1.1,0.2,1.7
					c0.1,0.7,0.4,1.3,0.7,1.9c0,0.1-0.1,0.1-0.1,0.4c0.1,0.3,0.2,0.7,0.3,1.2c-0.1,0.2-0.3,0.4-0.4,0.5c0,0.1,0,0.2,0,0.4
					c-0.1,0.1-0.3,0.2-0.5,0.4c-0.1,0.2-0.1,0.5-0.1,0.8c-0.1,0-0.1,0.1-0.2,0c-0.3-0.1-0.5-0.2-0.8-0.1c0.1,0.1,0.1,0.3,0.2,0.4
					c-0.2,0.2-0.4,0.3-0.6,0.5c-0.2-0.1-0.4-0.2-0.6-0.4c-0.4,0.2-0.8,0.2-1,0.6c0.1,0.3,0.2,0.6,0.3,0.9c-0.3,0-0.5,0-0.9,0
					c-0.1,0.1-0.2,0.2-0.3,0.4c-0.1-0.1-0.4-0.1-0.6-0.2c-0.1,0.1-0.3,0.1-0.5,0.2c-0.9-0.3-0.6-0.1-1.5-0.2c-0.1,0-0.4,0.1-0.6,0.1
					c-0.3-0.1-0.7-0.1-1-0.2c-0.1-0.1-0.2-0.2-0.2-0.3c0.1-0.1,0.1-0.4,0.2-0.6c-0.1-0.1-0.2-0.4-0.2-0.6c-0.1-0.2-0.2-0.4-0.2-0.6
					c-0.1-0.1-0.2-0.1-0.2-0.2c0-0.1,0.1-0.2,0.1-0.3c0.1-0.3-0.2-0.2-0.3-0.4c0-0.1-0.1-0.4-0.2-0.6c0.3-0.5,0.2-1,0-1.6
					c0.1-0.1,0.2-0.2,0.3-0.4c-0.1-0.2-0.2-0.4-0.3-0.6c0.1,0,0.1-0.1,0.1-0.1c0-0.1-0.1-0.1-0.2-0.1c0-0.1,0.1-0.3,0-0.4
					c-0.2-0.8-0.2-0.8,0.1-1.5c-0.1-0.1-0.2-0.2-0.4-0.3c0.1-0.2,0.3-0.4,0.3-0.5c0.2-0.3,0-0.6-0.1-0.9c-0.1-0.3,0.3-0.6,0-0.8
					c0-0.3,0-0.5,0.1-0.8c0.1,0,0.1-0.1,0.1-0.2c0.1,0,0.2,0.1,0.3,0.1c0,0.5,0.1,1.1-0.1,1.6c-0.1,0.3,0.1,0.7-0.1,1
					c-0.1,0.2,0,0.5,0.1,0.8c0.2,0.5,0.1,0.9-0.1,1.4c0.1,0.1,0.2,0.2,0.2,0.4c0.1-0.1,0.2-0.2,0.2-0.2c0.1-0.2,0.1-0.3,0.1-0.3
					c0.1-0.4-0.2-0.6,0-0.9c-0.2-0.4,0.1-0.6,0.1-1c0-0.8,0.1-1.6-0.1-2.4c0-0.4,0.2-0.7,0-1c0.2-0.3,0.1-0.7,0.1-1
					c0-0.7-0.1-1.2,0.3-1.8c-0.1-0.2-0.1-0.4-0.2-0.6c0.3-1,0.3-2-0.1-2.9c0-0.4,0-0.8,0-1.1c0-0.1,0.1-0.1,0.1-0.1
					c0.1-0.4,0-0.8,0-1.2c-0.1,0-0.1-0.1-0.2-0.1c-0.2-0.2-0.2-0.4,0-0.6c0.1-0.3,0.1-0.5,0-0.8c0.1-0.1,0.2-0.2,0.3-0.4
					c-0.1-0.2-0.2-0.4-0.2-0.6c0.1-0.1,0.1-0.2,0.1-0.4c0-0.1,0-0.4-0.1-0.6c0.2-0.7,0.3-2.1,0.2-3.9c-0.1-0.1-0.2-0.1-0.3-0.1
					c-0.2-0.6-0.1-1.4-0.1-2c0.2-0.3,0-0.7,0.2-1c0.1-0.2,0.2-0.5,0.4-0.9c0-0.3,0.1-0.7-0.1-1.2c-0.2-0.2,0-0.4,0-0.7
					c0.2-0.2,0.2-0.2,0-0.4c0-0.3,0.2-0.6,0-0.9c0-0.1,0.1-0.2,0.1-0.3c-0.1-0.1-0.2-0.1-0.2-0.2c0.2-0.9,0.1-1.8,0.2-2.6
					c-0.1-0.2-0.2-0.4-0.2-0.6c-0.1-0.2-0.1-0.4-0.1-0.7c0.1-0.3,0.1-0.7,0.2-1c0.1-0.4,0-0.9,0.2-1.3c0.1-0.2,0.1-0.3-0.1-0.8
					c0-0.4,0-0.9,0.2-1.4c0.1-0.6,0.2-1.2-0.1-1.9c0-0.1-0.1-0.1,0-0.2c0.1-0.4-0.2-0.9-0.2-1.3c0.1,0,0.3,0,0.4-0.2
					c0-0.1-0.1-0.1-0.1-0.2l0.1,0c0.4,0.1,0.8,0.3,1.3,0.5C91,9.2,90.9,9,91,8.8c0.1,0-1-0.1-0.8-0.2c0.1,0.1,0.2,0.1,0.4,0.1
					c0.4-0.1,0.9-0.2,1.4-0.4c0.6,0.6,0.6,0.6,0.6,0.8c0.1,0.1,0.3,0.1,0.6,0.3c0.2,0.2,0.5,0.5,0.5,0.6c0.7,0.4,1.1,0.6,1.6,0.9
					c0.2,0.4,0.4,0.9,0.6,1.2c0.2,0.4,0.3,0.8,0.6,1.1c0.2,0.4,0.1,0.9,0.6,1.1c0.4-0.4,0.8-0.8,1.3-1.3c1-0.6,2.2-0.9,3.4-1.3
					c0.5-0.2,1.1-0.2,1.6-0.3c0.7,0,1.3-0.1,2,0.1c0.5,0.1,1.1,0.1,1.6,0.4c0.1,0.1,0.3,0.1,0.4,0.2c1,0.2,1.6,0.8,2.1,1.6
					c0.5,0.8,0.9,1.6,1,2.6c0.1,0.9,0.2,2,0.1,3C110.5,20.8,110,23.1,109.7,23.6z M88.2,50.9c0,0,0,0.1,0,0.1
					c-0.1,0-0.1-0.1-0.1-0.1C88.1,50.9,88.1,50.9,88.2,50.9z M88.2,50.9C88.2,50.8,88.2,50.8,88.2,50.9
					C88.2,50.8,88.2,50.8,88.2,50.9z M88.1,40.4c-0.2-0.3-0.1-0.4,0.1-0.4C88.2,40.1,88.1,40.2,88.1,40.4z M88.7,43.3
					c0,0.3,0.1,0.5,0.1,0.7c-0.1,0.4-0.1,0.8-0.1,1.2c-0.1,0-0.2-0.1-0.3-0.1C88.1,44.4,88.6,43.9,88.7,43.3z M88.2,40L88.2,40
					C88.1,39.9,88.1,39.9,88.2,40L88.2,40z M88.7,50.9L88.7,50.9c-0.1,0.1-0.1,0.1-0.1,0.3c0,0,0,0,0.1,0
					C88.8,51.1,88.7,51,88.7,50.9z M88.2,39.9c0,0,0-0.1,0-0.1C88.3,39.9,88.3,39.9,88.2,39.9z M88.5,40.8c-0.1-0.1,0-0.1,0.1-0.1
					C88.5,40.7,88.5,40.7,88.5,40.8z M88.6,43c0.1-0.4,0-0.7,0-0.9C88.8,42.4,88.8,42.4,88.6,43z M88.3,36.3L88.3,36.3L88.3,36.3z
					 M88.6,40.6L88.6,40.6C88.5,40.6,88.5,40.6,88.6,40.6C88.6,40.6,88.6,40.6,88.6,40.6C88.6,40.6,88.6,40.6,88.6,40.6z M88.7,40.5
					C88.8,40.5,88.7,40.6,88.7,40.5L88.7,40.5z M88.7,40.1c0-0.3,0-0.3,0.3-0.3C89,40,88.8,40.1,88.7,40.1z M88.9,39.3
					C88.9,39.2,88.8,39.2,88.9,39.3C88.9,39.1,89,39.1,88.9,39.3C89,39.2,88.9,39.2,88.9,39.3z M89,37.3c0,0-0.1-0.1-0.1-0.1
					c0-0.2,0-0.5,0-0.7c0.1-0.1,0.1-0.1,0.1-0.2C89.1,36.7,89.1,37,89,37.3z M89,37.3L89,37.3L89,37.3C89,37.4,89,37.4,89,37.3
					L89,37.3z M89.4,34.9c-0.2,0.4-0.1,0.8-0.1,1.2c0,0,0.1,0,0.1-0.1C89.6,35.7,89.5,35.4,89.4,34.9z M89.4,28.6
					c0.2-0.3,0-0.6,0-0.9c0-0.1,0-0.1-0.1-0.1c-0.1,0.1-0.2,0.2-0.3,0.2c0.1,0.3,0.2,0.5,0.2,0.7C89.3,28.6,89.3,28.6,89.4,28.6
					L89.4,28.6z M89.5,26.2c0-0.2,0-0.4,0-0.7C89.3,26,89.3,26,89.5,26.2z M89.4,22.8C89.4,22.8,89.3,22.8,89.4,22.8L89.4,22.8z
					 M89.4,22.4C89.4,22.4,89.4,22.4,89.4,22.4L89.4,22.4z M89.2,9.1C89.2,9.2,89.2,9.2,89.2,9.1L89.2,9.1z M95.2,36.8L95.2,36.8
					c-0.1-0.1-0.3-0.1-0.4,0c0,0.5-0.1,1,0,1.5C95,37.7,94.9,37.2,95.2,36.8z M96.4,54.9C96.4,54.8,96.4,54.7,96.4,54.9L96.4,54.9z
					 M96.5,42.4L96.5,42.4L96.5,42.4L96.5,42.4z M97.2,29.5c-0.1,0.7,0,2.2,0,2.8c0,0.6,0.2,0.5,0.3,0.5c0.1,0,0.7-0.2,0.7-0.1
					c0.9-0.2,1.6-0.5,2.3-0.9c0.1-0.1,0.3-0.2,0.4-0.2c1.4-0.5,2.3-1.6,3.2-2.6c0.8-1,1.3-2.3,2.1-3.1c0.3-0.3,1-1.8,1.1-2.4
					c0.1-0.6,0.6-2.1,0.6-2.3c0-0.2-0.2-0.2-0.4-0.3c0.2-0.2,0.3-0.5,0.6-0.7c-0.2-0.1-0.2-0.2-0.4-0.3c0.1-1.1,0-2.1-0.3-3.1
					c-0.2-0.6-0.6-1.1-1-1.7c-0.3-0.4-0.7-0.6-1.2-0.7c-1.4-0.4-2.8-0.4-4.1,0.3c-0.1,0.1-0.2,0.2-0.3,0.2c-0.9,0.3-1.6,0.7-2.1,1.4
					c-0.1,0.2-0.3,0.2-0.4,0.2c-0.2,0.5-0.3,0.9-0.6,1.4c0,1.3,0,2.8,0,4.3c0,0.5,0,1-0.2,1.5c-0.1,0.4-0.1,0.9-0.1,1.3
					c0.1,0.5-0.2,0.9-0.2,1.3c0,0.5,0,1,0,1.5c0,0.1,0.1,0.2,0.2,0.3c0.1,0,0.1,0,0.1,0C97.4,28.2,97.3,28.8,97.2,29.5z M106.4,25.4
					C106.3,25.4,106.3,25.5,106.4,25.4C106.3,25.5,106.4,25.5,106.4,25.4z"/>
				<path fill="#695173" d="M97.2,34.3c0,0,5.9-1.6,8.8-3.9c2.9-2.4,3.3-2.4,4.1-2.9c0.7-0.4,1.5-1.1,1.9-1.9c0.4-0.7,1-1.5,1.8-2.4
					c0.8-0.9,1.2-1.5,1.2-1.5s0.3,1.9,0.1,2.4c-0.1,0.4-1.2,2.9-2.2,3.9c-1,1-1.1,1.1-3.3,2.8c-2.2,1.6-2.8,2-4.4,2.9
					c-2.7,1.6-3.2,1.8-5.1,2.7c-2,0.9-4.1,1-4.1,1L97.2,34.3z"/>
				<path fill="#695173" d="M134.8,26.6c-0.4,0.5-0.2,1.2-0.7,1.6c0,0.1,0.1,0.2,0.1,0.4c-0.5,0.8-0.7,1.9-1.5,2.7
					c0.1,0.1,0.1,0.2,0.1,0.4c-0.5,0.4-0.9,1-1.4,1.4c-0.4,0.3-0.8,0.6-1.1,1c-0.3,0.3-0.7,0.3-1,0.8c-0.7,0.3-1.2,1-2.1,1.1
					c-0.2,0-0.4,0.2-0.5,0.3c-0.2,0.1-0.5,0.3-0.8,0.2c-0.1-0.1-0.1,0-0.3,0.1c-0.7,0.3-1.6,0.6-2.4,0.4c-0.2,0.1-0.3,0.2-0.5,0.3
					c-0.5,0-1,0.1-1.6,0.1c-0.1,0.3-0.1,0.4-0.1,0.7c-0.1,0.8-0.2,1.5-0.3,2.2c0,0.3-0.1,0.5-0.2,0.8c-0.2,0.6-0.3,1.2-0.1,1.7
					c-0.1,0.2-0.2,0.4-0.2,0.6c0.1,0.7,0.1,1.3-0.2,2c-0.2,0.4-0.2,0.7-0.1,1.1c0.3,1,0.2,2.1,0.4,3.1c-0.2,0.6-0.1,1.1,0,1.7
					c0,0.7,0.2,1.3,0.5,2c0,0.1-0.1,0.1-0.1,0.4c0.1,0.3,0.1,0.7,0.2,1.2c-0.2,0.1-0.3,0.3-0.5,0.5c0,0.1,0,0.2,0,0.4
					c-0.1,0.1-0.3,0.2-0.5,0.3c-0.1,0.2-0.2,0.5-0.2,0.8c-0.1,0-0.1,0.1-0.2,0c-0.3-0.1-0.5-0.2-0.8-0.2c0.1,0.1,0.1,0.3,0.1,0.4
					c-0.2,0.1-0.4,0.3-0.6,0.5c-0.1-0.2-0.4-0.2-0.6-0.5c-0.4,0.1-0.8,0.1-1,0.5c0.1,0.3,0.2,0.6,0.2,0.9c-0.3,0-0.5,0-0.9,0
					c-0.1,0.1-0.2,0.2-0.4,0.3c-0.1-0.1-0.4-0.2-0.6-0.2c-0.1,0.1-0.3,0.1-0.5,0.1c-0.9-0.4-0.6-0.2-1.5-0.4c-0.1,0-0.4,0.1-0.6,0
					c-0.3-0.1-0.6-0.2-0.9-0.3c-0.1-0.1-0.1-0.2-0.2-0.3c0.1-0.1,0.2-0.4,0.2-0.6c-0.1-0.1-0.1-0.4-0.2-0.6
					c-0.1-0.2-0.1-0.4-0.2-0.6c-0.1-0.1-0.1-0.2-0.2-0.2c0-0.1,0.1-0.2,0.1-0.3c0.1-0.3-0.2-0.2-0.3-0.5c0-0.1-0.1-0.4-0.1-0.6
					c0.3-0.5,0.3-1,0.1-1.6c0.1-0.1,0.2-0.2,0.3-0.4c-0.1-0.2-0.1-0.4-0.3-0.6c0.1,0,0.1-0.1,0.1-0.1c0-0.1-0.1-0.1-0.1-0.2
					c0-0.1,0.1-0.3,0-0.4c-0.1-0.8-0.1-0.8,0.2-1.5c-0.1-0.1-0.2-0.2-0.4-0.3c0.2-0.1,0.3-0.4,0.4-0.5c0.2-0.3,0.1-0.6,0-0.9
					c-0.1-0.3,0.3-0.6,0.1-0.8c0-0.3,0.1-0.5,0.2-0.8c0.1,0,0.1-0.1,0.2-0.1c0.1,0,0.2,0.1,0.3,0.1c0,0.5,0,1.1-0.2,1.6
					c-0.1,0.3,0,0.7-0.2,1c-0.1,0.2,0,0.5,0,0.8c0.1,0.5,0,0.9-0.2,1.4c0.1,0.1,0.1,0.2,0.2,0.4c0.1-0.1,0.2-0.1,0.2-0.1
					c0.1-0.2,0.1-0.3,0.2-0.3c0.2-0.4-0.2-0.7,0-0.9c-0.1-0.4,0.2-0.6,0.2-0.9c0-0.8,0.2-1.6,0.1-2.4c0-0.4,0.2-0.6,0.1-1
					c0.2-0.3,0.2-0.6,0.2-0.9c0.1-0.7,0.1-1.2,0.5-1.8c-0.1-0.2-0.1-0.4-0.1-0.7c0.4-0.9,0.5-1.9,0.1-2.9c0-0.4,0-0.8,0.1-1.1
					c0-0.1,0.1-0.1,0.1-0.1c0.1-0.4,0.1-0.8,0.1-1.2c-0.1,0-0.1-0.1-0.2-0.1c-0.2-0.2-0.1-0.4,0-0.6c0.2-0.3,0.2-0.5,0-0.8
					c0.1-0.1,0.2-0.2,0.3-0.3c-0.1-0.2-0.1-0.4-0.2-0.7c0.1-0.1,0.1-0.2,0.2-0.4c0-0.1,0-0.4,0-0.6c0.2-0.6,0.5-2,0.6-3.9
					c-0.1-0.1-0.2-0.1-0.3-0.1c-0.1-0.7,0.1-1.4,0.1-2c0.2-0.3,0.1-0.7,0.3-0.9c0.2-0.2,0.2-0.5,0.5-0.9c0-0.3,0.2-0.7,0.1-1.2
					c-0.1-0.2,0-0.4,0-0.7c0.2-0.1,0.2-0.2,0-0.4c0-0.3,0.2-0.6,0.1-0.9c0-0.1,0.1-0.2,0.2-0.3c-0.1-0.1-0.1-0.2-0.2-0.2
					c0.3-0.9,0.3-1.7,0.4-2.6c-0.1-0.2-0.1-0.4-0.2-0.6c-0.1-0.2-0.1-0.4,0-0.7c0.1-0.3,0.2-0.6,0.3-0.9c0.1-0.4,0-0.9,0.3-1.3
					c0.2-0.1,0.1-0.3,0-0.8c0-0.4,0.1-0.9,0.3-1.4c0.2-0.6,0.3-1.2,0.1-1.9c0-0.1-0.1-0.1,0-0.2c0.1-0.4-0.1-0.9-0.1-1.3
					c0.1,0,0.3,0,0.4-0.1c0-0.1-0.1-0.1-0.1-0.2l0.1,0c0.4,0.2,0.8,0.4,1.2,0.6c0.2-0.1,0.2-0.3,0.2-0.5c0.1,0-1-0.2-0.8-0.3
					c0.1,0.1,0.2,0.1,0.4,0.2c0.4-0.1,1-0.1,1.5-0.2c0.6,0.6,0.6,0.6,0.5,0.9c0.1,0.1,0.3,0.2,0.6,0.3c0.2,0.2,0.4,0.5,0.5,0.7
					c0.6,0.5,1.1,0.7,1.5,1c0.2,0.4,0.3,0.9,0.5,1.3c0.1,0.4,0.3,0.8,0.5,1.2c0.2,0.4,0,0.9,0.5,1.2c0.5-0.3,0.9-0.8,1.4-1.2
					c1-0.5,2.3-0.7,3.5-0.9c0.5-0.1,1.1-0.1,1.6-0.1c0.7,0,1.3,0.1,2,0.2c0.5,0.2,1.1,0.2,1.5,0.6c0.1,0.1,0.3,0.2,0.4,0.2
					c0.9,0.3,1.5,0.9,2,1.8c0.5,0.8,0.7,1.7,0.7,2.7c0,0.9,0,2-0.1,3C135.8,23.8,135.1,26.1,134.8,26.6z M110.8,51.7
					c0,0,0,0.1,0,0.1c-0.1,0-0.1-0.1-0.1-0.1C110.7,51.7,110.7,51.7,110.8,51.7z M110.8,51.7C110.8,51.6,110.8,51.6,110.8,51.7
					C110.8,51.6,110.8,51.6,110.8,51.7z M111.7,41.3c-0.1-0.3-0.1-0.4,0.1-0.4C111.8,41,111.7,41.1,111.7,41.3z M112,44.1
					c0,0.3,0,0.5,0,0.7c-0.1,0.4-0.2,0.8-0.2,1.2c-0.1,0-0.2-0.1-0.3-0.1C111.3,45.3,111.9,44.8,112,44.1z M111.8,40.9L111.8,40.9
					C111.8,40.8,111.8,40.8,111.8,40.9L111.8,40.9z M111.3,51.8L111.3,51.8c-0.1,0.1-0.1,0.1-0.1,0.3c0,0,0,0,0.1,0
					C111.3,51.9,111.3,51.9,111.3,51.8z M111.9,40.8c0,0,0-0.1,0-0.1C111.9,40.8,111.9,40.8,111.9,40.8z M112,41.7
					c-0.1-0.1,0-0.1,0.1-0.1C112.1,41.6,112,41.6,112,41.7z M111.9,43.9c0.1-0.4,0.1-0.7,0.1-0.9C112.2,43.3,112.2,43.3,111.9,43.9z
					 M112.3,37.2L112.3,37.2L112.3,37.2z M112.2,41.5L112.2,41.5C112.1,41.5,112.1,41.5,112.2,41.5
					C112.2,41.5,112.2,41.5,112.2,41.5C112.2,41.5,112.2,41.5,112.2,41.5z M112.3,41.4C112.3,41.5,112.3,41.5,112.3,41.4L112.3,41.4
					z M112.3,41c0-0.3,0-0.3,0.3-0.3C112.6,41,112.4,41,112.3,41z M112.6,40.2C112.6,40.2,112.5,40.2,112.6,40.2
					C112.6,40,112.7,40,112.6,40.2C112.7,40.2,112.6,40.2,112.6,40.2z M112.9,38.3c0,0-0.1-0.1-0.1-0.1c0-0.2,0-0.5,0-0.7
					c0.1-0.1,0.1-0.1,0.2-0.2C113,37.6,113,38,112.9,38.3z M112.9,38.3L112.9,38.3L112.9,38.3C112.9,38.4,112.9,38.4,112.9,38.3
					L112.9,38.3z M113.5,35.9c-0.2,0.4-0.2,0.8-0.2,1.2c0,0,0.1,0,0.1-0.1C113.6,36.7,113.6,36.4,113.5,35.9z M114.1,29.7
					c0.2-0.3,0.1-0.6,0.1-0.9c0-0.1,0-0.1-0.1-0.1c-0.1,0.1-0.2,0.1-0.3,0.2c0.1,0.3,0.1,0.5,0.1,0.7C114,29.6,114,29.6,114.1,29.7
					L114.1,29.7z M114.4,27.3c0-0.2,0-0.4,0-0.7C114.3,27,114.3,27,114.4,27.3z M114.6,23.8C114.6,23.8,114.6,23.8,114.6,23.8
					L114.6,23.8z M114.7,23.4C114.7,23.4,114.7,23.4,114.7,23.4L114.7,23.4z M115.7,10.2C115.7,10.3,115.7,10.3,115.7,10.2
					L115.7,10.2z M119.1,38.3L119.1,38.3c-0.1-0.1-0.3-0.1-0.4,0c-0.1,0.5-0.2,0.9-0.1,1.5C118.8,39.2,118.8,38.7,119.1,38.3z
					 M118.5,56.4C118.5,56.4,118.5,56.3,118.5,56.4L118.5,56.4z M119.9,44L119.9,44L119.9,44L119.9,44z M121.8,31.2
					c-0.2,0.7-0.3,2.2-0.3,2.8c0,0.6,0.2,0.5,0.3,0.5c0.1,0,0.7-0.2,0.7,0c0.9-0.1,1.6-0.4,2.4-0.7c0.1-0.1,0.3-0.2,0.4-0.2
					c1.5-0.4,2.5-1.3,3.5-2.3c0.9-0.9,1.5-2.1,2.4-2.9c0.3-0.3,1.2-1.7,1.3-2.2c0.1-0.5,0.8-2,0.8-2.3c0-0.2-0.2-0.2-0.3-0.3
					c0.2-0.2,0.4-0.4,0.6-0.6c-0.1-0.2-0.2-0.2-0.4-0.3c0.2-1.1,0.2-2.1,0-3.1c-0.2-0.7-0.5-1.2-0.8-1.8c-0.3-0.4-0.6-0.7-1.1-0.8
					c-1.4-0.5-2.7-0.6-4.2-0.1c-0.1,0.1-0.2,0.1-0.3,0.1c-0.9,0.2-1.6,0.6-2.2,1.2c-0.2,0.1-0.3,0.2-0.4,0.2
					c-0.2,0.5-0.4,0.9-0.7,1.4c-0.1,1.3-0.3,2.8-0.4,4.3c-0.1,0.5-0.1,0.9-0.4,1.4c-0.1,0.4-0.2,0.9-0.2,1.3c0,0.5-0.3,0.9-0.4,1.3
					c0,0.5,0,1-0.1,1.5c0,0.1,0.1,0.2,0.1,0.3c0.1,0,0.1,0,0.1,0C122.1,30,122,30.6,121.8,31.2z M131.3,28.1
					C131.3,28.1,131.3,28.2,131.3,28.1C131.3,28.2,131.3,28.2,131.3,28.1z"/>
				<path fill="#695173" d="M121.4,36.1c0,0,6.2-1,9.5-3c3.3-2.1,3.7-2.1,4.5-2.4c0.8-0.4,1.6-1,2.2-1.7c0.5-0.7,1.2-1.4,2.1-2.2
					c0.9-0.8,1.4-1.4,1.4-1.4s0.1,1.9-0.1,2.4c-0.2,0.4-1.6,2.8-2.7,3.7c-1.1,0.9-1.2,1-3.7,2.4c-2.5,1.4-3.1,1.7-4.8,2.5
					c-3,1.3-3.5,1.5-5.6,2.1c-2.2,0.7-4.4,0.6-4.4,0.6L121.4,36.1z"/>
			</g>
		</g>
		<g>
			<g>
				<path fill="#695173" d="M31.4,85.4c0,0.6,0,1.2,0.2,1.7c0.3,0.3,0.1,0.8,0.1,1.2c-0.2,0-0.3-0.1-0.4-0.1
					c-0.4,0.3-0.3,0.8-0.4,1.2c-0.1,0.1-0.2,0.2-0.2,0.3c-0.1,0.5,0.2,1-0.2,1.3c0.2,0.1,0.3,0.2,0.4,0.2c0,0.1,0,0.2,0,0.3
					c0,0.2,0,0.3-0.1,0.6c-0.1-0.3-0.2-0.5-0.2-0.7c-0.3,0.2-0.1,0.5-0.3,0.7c-0.1,0.2-0.2,0.4-0.3,0.7c0.4,0.6,0,1.2,0.1,1.7
					c0,0.1,0.1,0.2,0.2,0.2c0.1,0.2,0.1,0.4,0.2,0.7c-0.6,0.8-0.6,1.7-0.8,2.7c-0.3,0.9,0,1.9-0.2,2.9c-0.2,0.4-0.5,0.9-0.7,1.4
					c-0.1,0.6,0.1,1.2-0.1,1.9c-0.1,0.1,0,0.3,0.1,0.6c-0.1,0.2-0.2,0.5-0.1,0.8c0.1,0,0.2,0,0.2,0c0.3-0.3,0.1-0.8,0.3-1.2
					c0.2-0.3,0.3-0.7,0.5-1c0.1,0.2,0.2,0.2,0.3,0.5c0,0.2-0.1,0.4-0.1,0.7c0,0.3,0,0.6-0.1,0.8c0,0.2,0,0.5,0,0.8
					c-0.2,0.1-0.3,0.2-0.5,0.3c0.2,0.3,0.3,0.5,0.4,0.7c0.2-0.1,0.3-0.1,0.4-0.2c0.1,0.1,0.2,0.2,0.2,0.3c-0.2,0.4-0.6,0.4-1,0.8
					c-0.2,0.3-0.5,0.7-0.8,1c-0.2,0.4-0.1,0.7,0.1,1.1c-0.1,0.6-0.3,1-0.3,1.7c-0.2,0.3-0.6,0.5-1,0.8c-0.1,0.2-0.2,0.4-0.2,0.7
					c-0.2,0.3-0.7-0.1-0.9,0.1c-0.3,0.1-0.6-0.1-0.8-0.1c-0.2,0.1-0.3,0.3-0.6,0.4c-0.3-0.2-0.6-0.3-0.9-0.5c-0.2,0-0.3,0-0.6,0.1
					c-0.2,0-0.4,0.1-0.7,0.2c-0.2-0.1-0.6-0.1-0.9-0.2c-0.3-0.4-0.7-0.9-1-1.3c-0.4-0.8-0.6-1.6-0.2-2.5c-0.1-0.2-0.2-0.5-0.3-0.7
					c0.1-0.6,0-1.2,0.4-1.7c0-0.7,0-1.4-0.1-2.1c0.1,0,0.2,0,0.4,0c0-0.4,0-0.8,0.1-1.1c0.2-0.4,0.1-0.7,0.1-1.2
					c0-0.7,0-1.5-0.1-2.2c0-0.3,0-0.7-0.2-1c-0.2-0.2-0.1-0.5-0.1-0.7c-0.1-0.2,0-0.6-0.1-0.7c-0.4-0.6-0.2-1.2,0-1.6
					c0-0.5,0-0.8,0-1.2c0-0.3,0-0.6,0-0.9c0-0.3,0.2-0.6,0.1-0.9c0.2-0.1,0.2-0.2,0.4-0.3c0-0.2,0-0.5,0-0.7c-0.1,0-0.2,0-0.2,0
					c-0.7,0.4-1.5,0.9-2.1,1.3c-0.6,0.3-1.1,0.4-1.6,0.5c-1.1,0-2.1,0.2-3,0.5c-0.5,0.1-1.1,0.1-1.6,0.2c-0.2,0.3-0.2,0.7-0.2,1
					c0,0.2-0.1,0.5,0,0.7c0.1,0.2,0,0.5-0.1,0.7l0,0.1c0,0.4,0.3,0.8,0.2,1.2c-0.1,0.3-0.1,0.7,0,1.1c0,0.3,0.1,0.6,0.1,0.9
					c0,0.3-0.1,0.7-0.1,0.9c-0.1,0.3-0.1,0.6-0.2,0.9c0.1,0.2,0.1,0.2,0.2,0.3c-0.1,0.5-0.1,0.9-0.2,1.3c0,0.4-0.1,0.8,0,1.2
					c0.2,0.3,0.2,0.8,0.1,1.1c-0.2,0.4,0.2,0.7,0,1.2c-0.1,0-0.2,0-0.3,0c0-0.2-0.1-0.6-0.2-0.9c-0.1,0.1-0.2,0.2-0.2,0.2
					c0.1,0.4,0,0.7-0.2,1.1c-0.1-0.1-0.1-0.1-0.3-0.2c0-0.5,0-1.1-0.1-1.6c0.2-0.2,0.3-0.3,0.5-0.4c0-0.1,0-0.1,0-0.1l0,0.1
					c0.1-0.1,0.2-0.2,0.2-0.3c-0.2-0.2-0.3-0.5-0.5-0.7c0-0.4-0.1-0.9,0.1-1.3c-0.2-0.3-0.6-0.4-0.7-0.8c-0.1-0.3-0.1-0.7-0.3-0.9
					c0.2-0.4,0.3-0.8,0.5-1.2c-0.2-0.3-0.3-0.6-0.5-0.8c0.4-0.1-1.1-2.2-1.2-2c-0.2-0.2-0.8-0.3-0.9,0.1c0,0.3,0.1,0.7-0.1,1.1
					c0.1,0.2,0.3,0.5,0.4,0.8c0,0.2-0.1,0.3-0.1,0.5c0,0.3,0.2,0.7,0,0.9c0.2,0.1,0.3,0.2,0.3,0.2c-0.1,0.6-0.5,1-0.3,1.6
					c0.2,0,0.3-0.1,0.5-0.1c0.1,0.1,0.1,0.2,0.2,0.3c-0.2,0.1-0.3,0.2-0.4,0.3c-0.1,0.2-0.2,0.4-0.1,0.5c0,0.7,0.1,1.1,0.2,1.7
					c0.1,0.1,0.3,0.2,0.4,0.3c0,0.3,0.1,0.7,0.1,1.1l0.1,0c0.1-0.5,0.2-0.9,0.3-1.3c0.1-0.4,0.1-0.9,0.1-1.3c0.1,0,0.2,0,0.3,0
					c0,0.3,0.1,0.6,0,0.8c0,0.2-0.1,0.5-0.1,0.7c0.1,0.3,0.2,0.6,0.2,0.9c0.1,0.2,0.1,0.5,0.2,0.9c0,0.2-0.1,0.4-0.1,0.6
					c-0.1,0.2-0.2,0.4-0.3,0.7c0.1,0.1,0.2,0.2,0.3,0.2c-0.1,0.2-0.2,0.3-0.3,0.5c-0.1,0.6,0,1.2,0.2,1.7c-0.1,0.6,0.1,1.2,0.1,1.8
					c0,0.6,0,1.2,0.1,1.7c0.2,0.1,0.2,0.1,0.3,0.2c0.1-0.3,0-0.7,0.3-1c0.1,0.3,0.1,0.7,0.1,1c-0.2,0.3-0.4,0.8-0.7,1.3
					c-0.1,0.3-0.1,0.8,0.2,1.2c-0.2,0.2-0.3,0.5-0.6,0.5c-0.7,0.2-1.1,0.7-1.6,1.1c-0.7,0-1.5,0-2.3,0.1c-0.3-0.2-0.6-0.3-0.8-0.5
					c0-0.1,0-0.2,0-0.3c0-0.2-0.3-0.3-0.3-0.6c0-0.6-0.4-1.1-0.6-1.7c0.1-0.2,0.2-0.3,0.4-0.6c0-0.1,0-0.3,0-0.5
					c-0.1-0.5-0.2-0.9-0.3-1.4c0-0.4-0.2-0.9-0.1-1.3c-0.5-0.9-0.3-2-0.7-2.9c-0.1-0.2-0.1-0.3-0.1-0.5c0-0.7,0-1.4-0.2-2.1
					c-0.1-0.2-0.1-0.5-0.1-0.7c0-0.6,0-1.1-0.2-1.6c-0.1-0.2-0.1-0.5-0.1-0.7c-0.1-0.9-0.1-1.8-0.3-2.7c0-0.2-0.1-0.4,0-0.7
					c0.1-0.5,0-1-0.1-1.6c-0.1-0.5-0.2-1-0.2-1.5c-0.1-0.8-0.1-1.6-0.2-2.5c-0.1-0.6,0-1.2-0.1-1.6c0-0.3-0.1-0.7-0.1-1
					c0-0.2-0.1-0.4-0.1-0.7C2,90.5,2,88.8,1.8,87.2c0-0.5,0.1-1-0.2-1.5c-0.1-0.2,0-0.6,0.1-0.7c0.1-0.3,0.1-0.5,0-0.7
					c-0.1-0.1-0.1-0.2-0.1-0.4c0.1-0.7-0.1-1.3-0.1-2c0-0.6,0-1.2-0.1-1.9c-0.1-0.7,0-1.3-0.1-2c0-0.2,0.1-0.4,0-0.7
					c0-0.2-0.1-0.3-0.2-0.6c0.2-0.3,0.2-0.7,0.1-1.1C1,75.6,1,75.5,0.8,75.4c0-0.1-0.1-0.2-0.1-0.2c0.1-0.3,0-0.7,0.1-1
					c0.2-0.3-0.2-0.6-0.1-0.8c0.1-0.4,0.1-0.8,0.1-1.2c0-0.8-0.1-1.6,0-2.6c0-0.2,0.1-0.5,0.1-0.7c-0.1-0.1-0.2-0.2-0.3-0.2
					c0.1-0.3,0.1-0.6,0.1-0.9C0.5,67.4,0.3,67,0,66.6c0.1-0.2,0.2-0.3,0.2-0.3c0.3,0.2,0.1,0.4,0.3,0.6c0.2,0,0.5,0,0.9,0
					c0-0.1,0.1-0.2,0.2-0.3c0.2,0.1,0.3,0.2,0.5,0.4c0.1-0.3,0.1-0.5,0.2-0.7c0.1,0.1,0.2,0.1,0.3,0.1c0.1-0.2,0.2-0.3,0.3-0.5
					c0.3-0.1,0.3,0.2,0.3,0.2c0.2,0.1,0.4,0.2,0.6,0.2C3.9,66.2,4,66,4.2,65.9c0.6,0.1,1.1,0.3,1.7,0.5C6.4,66.6,7,66.7,7.6,67
					c0.5,0.2,1.2,0.2,1.7,0.6c0.1,0.3,0.1,0.7,0.3,0.9c0.1,0.3,0.3,0.6,0.6,0.8c0.3,0.3,0.4,0.7,0.6,1.1c0.4,0.2,0.8,0.6,1.1,1.1
					c0.1,0.2,0.1,0.6,0.2,0.8c0.2,0,0.3-0.1,0.6-0.1c0.1,0.1,0.3,0.2,0.4,0.3c-0.1,0.4-0.2,0.7-0.3,1c-0.2,0.3-0.4,0.5-0.6,0.8
					c0,0.4,0.1,0.8,0,1.3c-0.1,0.4-0.1,0.9,0,1.4c0,0.4-0.1,0.9,0,1.3c0,0.5-0.1,0.9,0,1.3c0.1,0.4-0.2,0.7,0,1c0.3,0.6,0,1.2,0,1.8
					c0.1,0.7,0.1,1.2,0.1,1.8c-0.1,0.5-0.2,1.1-0.4,1.6c-0.2,0.3-0.2,0.6-0.2,0.9c-0.1,0.6-0.1,1.2-0.4,1.7c0.4,0.2,0.8,0.1,1.2,0
					c0.5-0.2,0.9-0.4,1.4-0.5c1.5-0.5,3-0.9,4.6-1.4c0.3-0.1,0.7-0.2,0.9-0.5c0.4,0.1,0.7-0.2,1.2-0.2c0.1-0.1,0.2-0.2,0.3-0.3
					c0,0.2,0,0.3,0.2,0.4c0.1-0.1,0.2-0.3,0.3-0.3c-0.1-0.2-0.1-0.3-0.3-0.3c0.1-0.2,0.1-0.2,0.2-0.4c-0.1-0.2-0.3-0.2-0.4-0.4
					c0-0.1,0-0.2,0-0.2c0-1.1-0.1-2.1,0.1-3.2c0.1-1.1-0.1-2.1-0.1-3.1c-0.3-0.3-0.5-0.2-0.7-0.1c-0.4-0.2-0.4-0.6-0.6-0.9
					c0.2-1.9,0.3-3.6,1-5.4C20,71.4,20,71.2,19.9,71c0.2-0.1,0.2-0.2,0.4-0.3c-0.1-0.2-0.2-0.4-0.3-0.6c0-0.5,0.2-0.9,0.5-1.3
					c0.2-0.3,0.5-0.6,0.5-1.1c-0.1-0.1-0.3-0.2-0.4-0.3c0.2-0.3,0.3-0.6,0.5-0.8c-0.1-0.2-0.2-0.3-0.3-0.6c0.1-0.3,0.2-0.7,0.2-1
					c0.1-0.4,0.1-0.7,0-1.2c0.2,0.2,0.3,0.3,0.3,0.4c0.2-0.3,0.1-0.4,0-0.7c0-0.2-0.1-0.3-0.2-0.6c0.3,0.1,0.3,0.4,0.6,0.5
					c0.2,0.1,0.4,0.2,0.6,0.4c0.1-0.2,0.2-0.3,0.2-0.5c0.3,0.3,0.8,0.6,1.2,1.1c0.1,0,0.3,0,0.5,0c1,0.6,1.9,1.4,2.5,2.3
					c0.9,1.1,1.6,2.3,1.9,3.8c0.1,0,0.2,0.1,0.3,0.2c0,0.1,0,0.2,0,0.2c-0.2,0.6-0.2,1.1,0.1,1.6c0.1,0.2-0.3,0.5-0.1,0.8
					c0.2-0.2,0.4-0.3,0.6-0.4c0.2,0.4-0.1,0.6-0.2,0.8c-0.2,0.3-0.1,0.5-0.2,0.8c0.2,0.1,0.2,0,0.3-0.2c0.1-0.2,0-0.4,0.2-0.5
					c0,0.1,0,0.2,0,0.2c0.2,0.2,0.3,0.4,0.6,0.6c-0.1,0.5-0.1,1.1-0.2,1.6c0.3,0.5-0.1,1.1,0.1,1.8c0-0.1,0.1,0.2,0.2,0.3
					c0,0.3,0,0.7,0,1c0,0.5,0,0.9,0.1,1.4c0.2,0.5,0.2,1.1,0.2,1.7c0.1,0.2,0.3,0.3,0.4,0.6c0.7-0.2,1.3-0.4,2-0.6
					c0,0.5-0.4,0.8-0.4,1.2C32.3,84.3,31.9,84.9,31.4,85.4z M1.1,81.8c0,0.1,0,0.2,0,0.3C1.1,81.9,1.1,81.8,1.1,81.8z M1.3,88.7
					L1.3,88.7L1.3,88.7z M2.8,105.6c0,0.1,0.1,0.2,0.1,0.2L2.9,106C2.9,105.9,2.8,105.8,2.8,105.6C2.9,105.7,2.9,105.7,2.8,105.6z
					 M8.5,96.8c-0.2,0-0.2,0.1-0.5,0.1C8.3,97.1,8.4,97,8.5,96.8z M8.6,95.7c0-0.1,0.1-0.1,0.1-0.2C8.6,95.6,8.6,95.7,8.6,95.7
					C8.5,95.7,8.6,95.7,8.6,95.7z M9,106.6L9,106.6L9,106.6L9,106.6z M8.9,95.4c-0.1,0-0.2,0.1-0.2,0.1C8.9,95.5,8.9,95.5,8.9,95.4
					L8.9,95.4z M9,99.3L9,99.3l0-0.2L9,99.3L9,99.3z M9.3,105.3c0-0.1,0-0.2,0-0.2c0.1,0,0.2,0,0.2,0C9.5,105.1,9.4,105.3,9.3,105.3
					L9.3,105.3z M9.8,108.3c0.2-0.2,0.2-0.4,0-0.6C9.6,107.9,9.6,108.1,9.8,108.3z M10,89c-0.1-0.1-0.2-0.2-0.3-0.3
					C9.6,89.1,9.6,89.1,10,89z M10.4,104.2c0-0.5,0-0.9,0-1.3C10.5,103.3,10.4,103.8,10.4,104.2z M10.3,86.6c0-0.2,0-0.4,0-0.7
					C9.8,86.2,9.8,86.2,10.3,86.6L10.3,86.6z M10.6,99.8c0,0.1,0,0.2,0,0.2S10.5,100,10.6,99.8C10.5,99.9,10.5,99.9,10.6,99.8z
					 M11,113.8L11,113.8L11,113.8L11,113.8z M10.6,100C10.6,100,10.6,100,10.6,100L10.6,100z M11.1,105L11.1,105L11.1,105L11.1,105z
					 M11.7,108.3c0.1,0.1,0.2,0.2,0.3,0.2c-0.2,0.2-0.2,0.3-0.4,0.5C11.3,108.7,11.6,108.6,11.7,108.3z M11.5,102.9
					c-0.1,0-0.2,0-0.2,0s0,0,0,0.1C11.3,103,11.3,103,11.5,102.9C11.4,103,11.4,103,11.5,102.9z M11.7,105.8c0,0.1,0,0.1,0.1,0.2
					C11.7,106,11.7,105.9,11.7,105.8C11.7,105.9,11.7,105.9,11.7,105.8z M12.3,110.4c0-0.2,0-0.3,0-0.5c0.1,0,0.1,0,0.2,0
					C12.5,110.1,12.4,110.3,12.3,110.4L12.3,110.4z M12.4,108.5c0,0.2,0,0.3,0,0.6C12.3,108.8,12.2,108.6,12.4,108.5z M12.4,108.5
					C12.4,108.5,12.4,108.5,12.4,108.5C12.5,108.5,12.5,108.5,12.4,108.5L12.4,108.5z M12.6,108.4c0.1,0.2,0,0.2-0.1,0.2
					C12.5,108.5,12.5,108.4,12.6,108.4z M13.1,109L13.1,109L13.1,109L13.1,109z M13.1,109.8l0,0.2L13.1,109.8L13.1,109.8z M19,95.8
					L19,95.8L19,95.8L19,95.8z M18.7,81.9L18.7,81.9L18.7,81.9L18.7,81.9z M18.8,86c0.2-0.1,0.2,0,0.2,0C18.9,86,18.9,86,18.8,86
					L18.8,86z M18.8,84.2L18.8,84.2L18.8,84.2z M19.1,86.1C19,86.1,19,86.1,19.1,86.1C19,86.1,19,86.1,19.1,86.1
					C19,86,19,86.1,19.1,86.1z M19.7,104.1c0-0.1,0.1-0.2,0.1-0.2C19.7,103.9,19.8,104.1,19.7,104.1L19.7,104.1z M20.1,105.8
					c0.1,0.1,0.2,0.1,0.2,0.1c-0.1,0.2-0.1,0.5-0.2,0.9C19.9,106.4,20,106.2,20.1,105.8z M20.1,107.4c0.1,0.1,0.2,0.2-0.1,0.3
					C20,107.6,20,107.5,20.1,107.4z M20,97.8c0.2,0.2,0.1,0.4,0,0.7C19.9,98.2,20,98,20,97.8z M20,95.6L20,95.6l0-0.2L20,95.6
					L20,95.6z M20,97.3L20,97.3L20,97.3L20,97.3z M19.9,94.8L19.9,94.8L19.9,94.8L19.9,94.8z M19.8,83.9c-0.1-0.2-0.3-0.3,0-0.5
					C20,83.6,19.9,83.8,19.8,83.9z M20.3,99.3L20.3,99.3L20.3,99.3L20.3,99.3z M20.3,101.1c0.1-0.1,0.2-0.1,0.2-0.2
					c0.2,0.4,0.1,0.8-0.1,1.2C20.3,101.8,20.3,101.5,20.3,101.1z M20,82.1L20,82.1C20,82.3,20,82.3,20,82.1L20,82.1z M20.6,103.1
					c0-0.1,0.1-0.2,0.1-0.2l0.1,0.1C20.8,103,20.8,103.1,20.6,103.1C20.7,103.2,20.7,103.1,20.6,103.1z M21.1,73.5
					c0-0.1-0.1-0.2-0.1-0.3c-0.1,0.1-0.2,0.2-0.3,0.3c-0.2,0.9-0.3,2-0.7,2.9c0,0,0.1,0,0.1,0.1c0.1,0,0.2,0.1,0.3,0.2
					c-0.2,0.2-0.4,0.3-0.6,0.5c0.1,0.1,0.1,0.2,0.2,0.2c0.1,0.1,0.2,0.1,0.3,0.2c0.4-0.8,0.6-1.4,0.6-2.2
					C20.9,74.7,20.9,74.1,21.1,73.5z M20.2,78.7c-0.2,0-0.2,0-0.3,0c0-0.1,0-0.1,0-0.1C20,78.6,20.1,78.6,20.2,78.7
					C20.2,78.6,20.2,78.6,20.2,78.7z M19.9,79.6c0,0.1,0,0.2,0,0.3C19.9,79.8,19.9,79.7,19.9,79.6z M20.8,104.7c0,0.1,0,0.3,0,0.5
					c0-0.1-0.1-0.1-0.1-0.2c0-0.2,0-0.6,0-0.9c0.2-0.2,0.2-0.2,0.4,0.2C21.1,104.4,21,104.5,20.8,104.7z M20.9,105.2
					C20.9,105.2,20.9,105.3,20.9,105.2C20.9,105.2,20.9,105.2,20.9,105.2C20.9,105.2,20.9,105.2,20.9,105.2z M20.5,85.6
					c0-0.2,0.1-0.2,0.2-0.3C20.8,85.5,20.7,85.5,20.5,85.6z M21.3,106.9L21.3,106.9L21.3,106.9L21.3,106.9z M20.8,85.3
					C20.8,85.3,20.8,85.3,20.8,85.3S20.8,85.3,20.8,85.3L20.8,85.3z M20.3,67.2L20.3,67.2L20.3,67.2L20.3,67.2z M20.4,68.2
					L20.4,68.2C20.3,68.3,20.3,68.3,20.4,68.2L20.4,68.2z M20.5,68.1C20.5,68.1,20.5,68.1,20.5,68.1C20.4,68.1,20.5,68.1,20.5,68.1z
					 M20.5,68.1c0.1-0.1,0.1-0.2,0.1-0.2C20.6,68,20.5,68,20.5,68.1z M21.4,94.7L21.4,94.7L21.4,94.7L21.4,94.7z M20.9,72.9
					L20.9,72.9L20.9,72.9L20.9,72.9z M21.6,94.2c0.1,0,0.1,0.1,0.2,0.1c0-0.1,0-0.2,0-0.2C21.7,94.2,21.7,94.2,21.6,94.2z M22,96.1
					c-0.1,0.1-0.2,0.2-0.2,0.3c0.1,0.2,0.2,0.4,0.4,0.5C22.1,96.6,22.2,96.4,22,96.1z M22.3,97c0-0.1-0.1-0.1-0.2-0.2
					c-0.2,0.2-0.2,0.3-0.4,0.4c0.2,0.1,0.3,0.2,0.4,0.3C22.1,97.8,22,98,22,98.3c-0.1,0.2,0.1,0.5,0,0.8c0.2,0,0.2,0,0.4-0.1
					C22.5,98.3,22.4,97.7,22.3,97z M22.8,93.3c0-0.4,0-0.8,0-1.2c-0.2,0-0.2,0-0.4,0c-0.1,0.2-0.2,0.3-0.3,0.5
					c0.1,0.1,0.3,0.2,0.3,0.2c0,0.5,0,1,0,1.5c-0.2,0-0.3,0.1-0.5,0.1c0,0.2-0.1,0.3,0.1,0.5c0.2,0.1,0.4-0.1,0.6-0.3
					C22.6,94.1,22.7,93.7,22.8,93.3z M21.8,94.1c0.2-0.2,0.2-0.3,0.1-0.7C21.8,93.6,21.8,93.8,21.8,94.1z M21.6,85.7
					c0.3,0,0.7,0.1,0.9-0.2c0-0.4-0.4-0.5-0.7-0.7C21.5,85.1,21.4,85.4,21.6,85.7z M21.8,92.7C21.8,92.8,21.9,92.8,21.8,92.7
					c0.1,0.1,0.1,0,0.2-0.1C21.9,92.7,21.8,92.7,21.8,92.7z M22.3,99.4c-0.1,0-0.2,0.1-0.2,0.1c0.1,0.2,0.2,0.2,0.2,0.4
					C22.5,99.7,22.5,99.7,22.3,99.4z M22.2,100.1c0,0,0.1-0.1,0.1-0.2C22.2,99.9,22.1,100,22.2,100.1L22.2,100.1z M22.6,95.4
					c0-0.1-0.1-0.1-0.2-0.2c0,0.1,0,0.1-0.1,0.2c0,0.1,0.1,0.1,0.1,0.2C22.5,95.5,22.6,95.4,22.6,95.4z M23.1,91.9
					c-0.2-0.1-0.3-0.1-0.3,0.1C22.9,92,23.1,92.1,23.1,91.9z M23.2,92.9c0.1,0.1,0.2,0.1,0.2,0c0,0,0,0,0-0.1c0-0.2-0.1-0.2-0.4-0.2
					C23.2,92.8,23.2,92.9,23.2,92.9z M23.5,94.2L23.5,94.2c0-0.1-0.1-0.1-0.2-0.1C23.5,94.2,23.5,94.2,23.5,94.2z M23.7,93.9
					c-0.1,0.1-0.1,0.1-0.1,0.2C23.7,94,23.8,94,23.7,93.9z M29.1,111.3c0,0.1,0,0.2-0.1,0.2C29,111.3,29,111.3,29.1,111.3z
					 M29.2,111.3L29.2,111.3C29.2,111.3,29.2,111.3,29.2,111.3S29.2,111.3,29.2,111.3L29.2,111.3z M29.3,110.6
					c0.2-0.3,0.6-0.5,0.9-0.9c0,0.4-0.1,0.7-0.5,1c-0.2,0.1-0.3,0.3-0.5,0.4C29.2,111,29.3,110.9,29.3,110.6z M30.1,108.9
					c0.3-0.3,0.4-0.7,0.7-0.9c0,0.2,0,0.4,0,0.7c-0.2,0.3-0.3,0.7-0.7,0.9C30.1,109.4,30.1,109.3,30.1,108.9z M30.1,109.8
					C30.1,109.8,30.1,109.8,30.1,109.8L30.1,109.8z M30.3,107.2c0-0.1,0-0.1,0-0.2c0-0.4,0.5-0.5,0.5-0.9c0-0.4,0.2-0.7,0.5-0.8
					c0.3-0.3,0.2-0.8,0.5-1.1c0.2-0.1,0.3,0,0.3,0.2c0,0.2,0,0.6,0,0.8c-0.3,0.3-0.7,0.8-0.7,1.3c0.1,0.1,0,0.2-0.1,0.3
					c-0.1,0.2-0.2,0.3-0.2,0.3C30.9,107.2,30.6,107.2,30.3,107.2z M29.8,73.8L29.8,73.8C29.7,73.9,29.7,73.9,29.8,73.8
					C29.7,73.9,29.7,73.9,29.8,73.8L29.8,73.8z M30.5,94.8C30.5,94.8,30.5,94.8,30.5,94.8C30.4,94.9,30.4,94.8,30.5,94.8L30.5,94.8z
					 M30.8,107.9L30.8,107.9C30.8,107.9,30.8,108,30.8,107.9L30.8,107.9z M30.9,107.9L30.9,107.9L30.9,107.9z M29.9,73.7L29.9,73.7
					C29.8,73.7,29.8,73.7,29.9,73.7C29.9,73.7,29.9,73.7,29.9,73.7z M30.5,94.8c0-0.2,0-0.2,0-0.4c0.2,0,0.2,0,0.3,0
					C30.8,94.6,30.6,94.7,30.5,94.8z M30.9,107.8c0.2,0.2,0.1,0.2,0,0.2C30.9,107.9,30.9,107.9,30.9,107.8z M30.8,93
					C30.7,93,30.7,93,30.8,93c-0.1-0.1-0.1-0.2-0.1-0.3c0,0,0,0,0.1,0C30.8,92.8,30.8,92.9,30.8,93z M30.8,93.6
					C30.8,93.6,30.8,93.6,30.8,93.6c0.1,0.1,0.1,0.2,0.1,0.3c-0.1,0-0.1,0-0.1,0C30.8,93.9,30.8,93.7,30.8,93.6z M31,89.5
					C31,89.5,31,89.5,31,89.5C31,89.5,31,89.5,31,89.5z M31.2,89.7c-0.1-0.1-0.1-0.1-0.2-0.2c0.1,0,0.2,0,0.2,0
					C31.2,89.6,31.2,89.6,31.2,89.7z M31.2,90.6c0-0.1-0.1-0.2-0.1-0.2c0.1-0.1,0.1-0.1,0.1-0.1C31.2,90.5,31.2,90.6,31.2,90.6
					L31.2,90.6z M31.2,89.5C31.3,89.5,31.3,89.5,31.2,89.5C31.3,89.5,31.3,89.5,31.2,89.5z M31.3,89.5c0-0.2,0-0.3,0.1-0.5
					C31.5,89.2,31.4,89.4,31.3,89.5z M32.1,102.7C32.1,102.7,32.1,102.7,32.1,102.7c0.1,0.3,0.1,0.5,0.1,0.8
					c-0.1,0.1-0.2,0.2-0.4,0.4C31.9,103.4,32,103,32.1,102.7z M31.9,106.9C31.9,107,32,107,31.9,106.9c0.1,0.2,0.1,0.2,0.1,0.3
					c-0.1,0-0.2,0-0.2,0C31.9,107.2,31.9,107.1,31.9,106.9z"/>
				<path fill="#695173" d="M40.2,85.9c-0.1-0.2,0.3-1.6,0.5-1.8c0.4-0.4,0.8-0.8,1.3-1.2c0.6-0.1,1,0.1,1.5,0.2
					c0.5,0.1,1,0.3,1.5,0.4c0.5,0.2,0.9,0.5,1.3,0.8c0,0.2,0,0.3,0.1,0.6c-0.1,0.4-0.2,0.9-0.3,1.4c0,0,0,0.1,0,0.2
					c-0.1,0.2-0.3,0.2-0.2,0.5c0.1,0.1,0.3,0.1,0.4,0.2c0.1,0.2,0.1,0.6,0.3,1c-0.1,0.1-0.2,0.3-0.4,0.4c0.1,0.1,0.1,0.2,0.1,0.5
					c0,0.1,0,0.2,0,0.4c-0.1,0.3-0.2,0.4-0.2,0.7c-0.1,0.2,0,0.3,0,0.5c-0.1,0.5-0.3,1.1-0.2,1.6c0,0.4-0.2,0.8-0.3,1.1
					c-0.3,1.2-0.3,1.4-0.2,2.6C45.1,96.4,45,97,45,97.5c0,0.2,0.1,0.3,0.1,0.5c0,0.4-0.2,0.8-0.3,1.3c0.1,1,0.4,1.9,0.8,2.8
					c0.2,0.3,0.2,0.6,0.4,1c0.8,1.1,1.5,2.5,3,3.1c0.1,0,0.2,0,0.3-0.1c1.9-1.1,2.9-2.8,3.4-4.9c0.2-0.9,0.5-1.7,0.7-2.6
					c0.2-0.8,0.6-1.5,0.6-2.3c0.3-1.3,0.4-2.6,0.6-3.9c0.2-0.7,0.3-1.4,0.4-2c0-1-0.1-2-0.3-3c-0.1,0-0.2-0.1-0.3-0.1
					c-1.1,0-2,0.2-3.1,0.1c-0.2-0.1-0.7-0.2-0.9-0.2c-0.9-0.1-1.1-0.7-1.7-1.1c-0.4-0.3-0.4-0.8-0.6-1.3c-0.2-0.6-0.6-1.2-0.5-1.9
					c0.1-0.6,0.2-1.2,0.4-1.9c1.1-0.5,2.2-1.1,3.6-1.2c0.5,0.1,1.1,0.2,1.6,0.5c0.4,0.3,0.7,0.8,1.3,0.9c0.1,0.5,0.4,1,1,1.3
					c0.3,0.2,0.4,0.5,0.5,0.8c0.3,0.5,0.6,1.1,1.2,1.4c0.9,0,2.1,0,2.9-0.3c1-0.5,1.8-1,2.9-1.3c0.2-0.1,0.4-0.3,0.6-0.5
					c0.3,0.1,0.4-0.3,0.7-0.2c0.3,0.2,0.2,0.6,0.3,0.9c-0.1,0.2-0.3,0.9-0.4,1.1c-0.9,0.6-1.4,1.5-2.4,1.7c-0.3,0,0,0-0.5,0.2
					c-1,0.5-2.3,0.6-3.5,0.7l-0.1,0c-0.2,0.3-0.1,0.3,0,0.5c0.2,0.4,0.3,0.8,0.2,1.2c0,0.7-0.1,1.5,0.1,2.2c0.1,0.6,0.1,1.1,0.1,1.7
					c0,0.5,0.2,1.1,0.1,1.6c0.1,0.4,0,0.7,0,1.1c0,0.3,0,0.7,0,1c0,0.1-0.1,0.3,0,0.3c0.3,0.8,0.1,1.6,0,2.5
					c-0.1,0.7-0.1,1.3,0.1,1.9c-0.3,1.3-0.9,2.3-1.4,3.5c-0.1,0.3-0.3,0.5-0.5,0.8c-0.5,0.6-0.9,1.3-1.3,2c-0.1,0.2-0.3,0.4-0.4,0.5
					c-0.3,0.3-0.6,0.6-0.8,0.8c-1.1,1-2.2,1.9-3.6,2.3c-0.2,0-0.5,0.1-0.7,0.2c-0.1,0-0.2,0-0.3-0.1c-1.2,0.5-2.3,0.6-3.6,0.7
					c-0.1,0-0.2,0-0.3,0c-0.8-0.2-1.6-0.4-2.4-0.6c-0.4-0.1-0.9-0.3-1.1-0.7c-0.1-0.2-0.4-0.3-0.5-0.5c0.1,0,0.1-0.1,0.1-0.2
					c-0.1-0.3-0.5-0.4-0.6-0.6c-0.3-0.2-0.5-0.4-0.8-0.6c-0.2-0.2-0.4-0.5-0.5-0.7c-0.2-0.1-0.4,0-0.4-0.3c-0.2,0-0.2,0-0.3,0
					c0-0.4,0-0.8-0.3-1.1c-0.3-0.3-0.5-0.7-0.6-1.1c-0.1-0.4-0.3-0.7-0.4-1.1c0-0.4-0.3-0.9-0.5-1.3c-0.1-0.1-0.2-0.1-0.4-0.2
					c-0.1-0.5-0.1-0.5,0-1c-0.2-1.1-0.4-2.4-0.8-3.5c0-0.4,0.1-1-0.1-1.5c0-0.2-0.1-0.4-0.1-0.6c0.3-0.9,0-1.7-0.1-2.6
					c0-0.1,0-0.1,0.1-0.2c0.1,0,0.2,0,0.3,0c0.1-0.1,0.2-0.2,0.3-0.4c0.1,0.1,0.2,0.1,0.3,0.1c0.4-0.5,0-1.1,0.1-1.8
					c0.1-0.1,0.2-0.3,0.4-0.5c0.2,0.1,0.2,0.1,0.3,0.1c0.2-0.2,0.7-1.3,0.6-1.8c0.4-0.5,0.7-1.1,1-1.6
					C39.4,87.3,39.8,86.6,40.2,85.9z M39.4,108c-0.1,0.1-0.1,0.1-0.1,0.2C39.5,108.1,39.5,108.1,39.4,108z M41.5,110.5
					C41.5,110.4,41.5,110.4,41.5,110.5L41.5,110.5z M41.5,110.4L41.5,110.4C41.6,110.5,41.6,110.5,41.5,110.4L41.5,110.4z
					 M54.9,85.3c-0.4-0.8-0.6-1.5-1.1-2.1c-0.5-0.7-1-1.4-1.8-1.6c-0.5,0-0.9,0-1.3,0.3c-0.1,0.3-0.2,0.8-0.3,1.3
					c0,0.3,0.2,0.6,0.2,1.1c0.5,0.2,0.7,0.8,1.1,1.2c0.6,0,1.2,0.1,1.8,0.1C54,85.6,54.5,85.5,54.9,85.3z"/>
				<path fill="#695173" d="M83.4,90.5c-0.3,1.4-0.6,2.5-1.1,3.8c-0.2,0.4-0.1,0.9-0.2,1.4c-0.3,0.9-0.4,1.9-0.7,2.8
					c-0.1,0.4-0.2,0.9-0.3,1.4c0,0.6-0.3,1.1-0.5,1.6c-0.4,1.4-0.8,2.7-1.2,3.9c-0.3,0.5-0.5,1.1-0.7,1.7c0,0.2-0.3,0.4-0.4,0.6
					c-0.1,0.5-0.6,0.7-0.7,1.2c-0.2,0.4-0.4,0.7-0.7,1.1c-0.9,1.3-1.9,2.5-3.4,3.2c-1.1,0.5-2.2,0.7-3.3,0.4
					c-0.8-0.2-1.7-0.4-2.3-0.9c-0.3-0.1-0.6-0.3-1-0.5c-0.6-0.5-1.2-1.2-1.8-1.8c-0.1-0.5-0.1-0.8,0-1.2c0.1-0.4,0.1-0.8-0.1-1.2
					c-0.2-0.4-0.1-0.9-0.2-1.3c-0.2-0.4-0.2-0.8-0.3-1.3c-0.1-0.2-0.2-0.5-0.3-0.7c0.1-0.4,0.1-0.8-0.1-1.2
					c-0.3-0.8-0.2-0.8-0.1-1.7c-0.1-0.5-0.2-1-0.3-1.5c0-1.1-0.2-2.1-0.5-3.2c-0.1-0.3-0.2-0.7-0.2-1.1c0.1-0.1,0.1-0.3,0.3-0.5
					c0-0.6-0.1-1.2-0.1-1.9c0-0.6-0.2-1.2,0-1.8c0-0.1,0-0.2,0-0.3c-0.1-1.1,0.2-2.3,0.1-3.4c0.2-0.6,0.1-1.3,0.1-1.8
					c-0.1-0.5,0.1-1,0.1-1.6c0-0.5,0-1.1,0.1-1.6c0.1-0.2,0-0.3,0-0.6c0-0.4-0.1-0.9-0.1-1.3c0-0.5,0.1-0.9,0-1.3
					c0-0.4,0.1-0.8,0.1-1.2c0.2-0.7,0.3-1.4,0.3-2.1c-0.1-0.6,0-1.2,0.1-1.8c0.1-0.7,0.2-1.3,0.3-2c0.1-0.5,0.2-1.1,0.3-1.6
					c0.1-0.5,0-1-0.3-1.5c0.4-0.9,0.3-1.9,0.5-2.7c0.2-1.1,0.4-2.2,0.8-3.2c0.3-0.9,0.4-2,0.5-3c-0.1-0.2-0.1-0.2-0.2-0.4
					c0-0.2,0-0.3,0.1-0.5c-0.1-1.3,0.5-2.5,1.1-3.6c0.1-0.2,0.2-0.3,0.3-0.4c0.3-0.4,0.5-1.1,0.8-1.6c0.2-0.8,0.7-1.5,1.1-2.3
					c0.1-0.3,0.3-0.6,0.5-1.1c0.5-0.3,1.2-0.6,1.7-1c0.6-0.4,1.4-0.4,1.8-1c0.7-0.1,1.2-0.2,1.9-0.4c0.2,0.2,0.5,0.4,0.6,0.5
					c0.2,0.6,0.4,1,0.7,1.6c0,0.1,0,0.2,0.1,0.5c0.3,0.5,0.5,0.9,0.6,1.6c0.1,0.5,0.3,1,0.3,1.5c0,0.6,0.1,1.1,0,1.7
					c-0.1,0.7,0,1.3,0,2c0,0.2,0.1,0.3,0.1,0.5c0,0.4-0.1,0.8-0.2,1.2c0.1,0.1,0.1,0.2,0.1,0.3c-0.1,0.3-0.2,0.8-0.3,1.2
					c0,0.3,0.2,0.6,0.2,1c-0.1,0.7-0.3,1.4-0.3,2c0,0.4-0.1,0.8-0.2,1.1c-0.4,0.6-0.4,1.3-0.5,2c0,0.3-0.1,0.6-0.2,0.9
					c-0.3,0.7-0.5,1.3-0.7,1.9c-0.2,0.4-0.3,0.7-0.5,1.1c-0.1,0.2-0.2,0.4-0.3,0.5c-0.3,1.3-1.3,2.3-2,3.4c-0.1,0.2-0.3,0.3-0.4,0.5
					c-0.3,0.4-0.6,0.8-1.1,1.1c-0.1,0.3-0.2,0.7-0.1,1c0,1.7,0.1,3.2,0.2,4.9c0,0.4,0.1,0.9-0.1,1.3c-0.1,0.2,0,0.4,0,0.7
					c0.2,2.1,0.3,4,0.4,6.1c0,0.2,0,0.6,0.2,0.9c0.1,0.2,0.1,0.3,0.1,0.6c0,0.2,0,0.4,0.1,0.7c0,0.2,0,0.5,0,0.8
					c0.1,0.4,0.3,1,0.2,1.4c0,0.5,0,0.9,0,1.3c0.1,0.5,0.3,0.9,0.4,1.3c0.1,0.3,0.2,0.7,0.3,1c0.1,0.4,0,0.8,0.2,1.2
					c0.1,0.2,0.1,0.6,0.3,0.9c0.1,0.2,0.1,0.4,0.2,0.6c0.1,0.5,0.3,0.9,0.5,1.4c0.2,0.6,0.5,1.2,0.7,1.8c0.2,0.4,0.6,0.8,0.9,1.1
					c0.3,0,0.5-0.1,0.5-0.3c0.1-0.3,0.3-0.6,0.6-0.8c0.4-0.5,0.7-1,0.9-1.6c0.4-1.1,0.9-2.3,1.3-3.4c0.6-1.6,1.1-3.2,1.6-4.8
					c0.3-1.1,0.3-1.9,0.4-3.3c0-0.4,0.2-0.8,0.3-1.3c0.1-0.3,0.4-1.3,0.4-1.5c0-0.9,0.2-1,0.2-1.9c-0.1-0.7,0.1-0.8,0.2-1.5
					c0.1-0.3,0.4-1,0.1-1.3c0.1-0.2,0.1-1.1,0.5-1.2c0.2-0.2,0.9-0.2,1.4-0.1c0.1,0.2,0.9,0.8,0.8,0.9c0,0.9-0.4,1.3-0.4,2.2
					C85,86.9,83.2,88.9,83.4,90.5z M71.2,74.5c1.4-2.1,2.3-4.2,3-6.5c0.2-0.6,0.4-1.2,0.6-1.7c0.1-0.3,0.1-0.4,0.2-0.7
					c0-0.5,0.1-1,0.2-1.4c0.2-0.9,0.4-1.9,0.4-2.9c0-1.1,0.2-2.2,0-3.3c-0.1-0.6-0.1-1.1,0-1.7c0.1-0.5,0.1-1,0-1.5
					c-0.2-0.8-0.2-1.6-0.3-2.5c0-0.2,0-0.4-0.1-0.6c-0.1-0.5-0.3-0.9-0.4-1.3c-0.2-0.2-0.3-0.5-0.7-0.4c-0.1,0-0.2,0.1-0.2,0.2
					c-0.1,0.3-0.4,0.8-0.4,1.2c-0.1,1-0.4,2-0.6,3c-0.1,0.5-0.2,1-0.3,1.5c-0.1,0.3-0.3,0.7-0.3,1c-0.1,0.4-0.2,0.8-0.3,1.3
					c-0.2,1-0.3,2.1-0.3,3.1c0,0.9-0.2,1.8-0.2,2.8c0,0.1,0,0.2,0,0.3c-0.1,0.8-0.2,1.6-0.1,2.4c0.1,0.7,0,1.3,0,1.9
					c-0.1,0.2-0.1,0.3-0.1,0.5c0,0.9-0.1,1.8-0.1,2.8c0,0.2,0,0.4-0.1,0.7c0,0.2,0,0.3,0,0.5C71.1,73.7,70.9,74,71.2,74.5z"/>
				<path fill="#695173" d="M106.4,82.4c-0.2,0.3,0,0.7-0.2,1.1l-0.3,1.2c-0.2,0.6-0.4,1.1-0.4,1.6c0,0.2-0.1,0.3-0.1,0.4
					c-0.3,0.7-0.4,1.6-0.7,2.3c-0.1,0.2-0.2,0.4-0.2,0.6c-0.3,0.7-0.7,1.4-0.7,2.2c0,0,0,0,0,0.1c-0.5,0.7-1.9,3.4-2.4,4.1
					c-0.1,0.2-0.2,0.3-0.2,0.5c-0.2,0.3-0.2,0.7-0.4,1c-0.2,0.4-0.4,0.8-0.7,1.2c-0.2,0.4-0.2,0.8-0.4,1.2c-0.1,0.2-0.2,0.4-0.2,0.6
					c-0.4,0.7-0.9,1.5-1.3,2.2c-0.6,0.9-1.2,1.9-2,3.3c-0.4,0.4-1.1,1.2-1.7,2.1c-0.6,0.7-1.2,1.4-2,2c-0.2,0.2-0.6,0.5-0.9,0.5
					c-0.5,0.2-1,0.3-1.6,0.6c-0.2,0-0.3,0.1-0.6,0.1c-0.3,0.2-0.7,0.2-1.2,0.3c-0.3,0.1-0.7,0.1-1.2,0.1c-0.4-0.1-0.8-0.1-1.2-0.1
					c-0.7,0.1-1.5,0.1-2.1-0.2c-0.1-0.1-0.2-0.2-0.4-0.5c-0.1,0.1-0.7-0.7-0.6-0.8c-0.3-0.7-0.4-1.4-0.8-2.1
					c-0.1-0.8-0.7-1.6-0.3-2.4c-0.1-0.3-0.2-0.7-0.2-1.1c-0.2-1.1-0.2-2.2-0.3-3.4c0-0.6-0.1-1.1,0-1.6c0.1-0.3,0,1.8,0,1.6
					c-0.1-0.3,0.1-0.7,0-1c-0.1-0.2,0-0.4,0-0.7c0-0.2,0-0.4,0-0.6c-0.1-0.3,0.1-0.7,0-1.1c-0.2-0.8,0.1-1.7,0-2.5
					c0.2-0.4,0.2-3.3,0.1-3.7c0-0.4,0-0.8,0.1-1.2c0.1-0.2,0.1-0.3,0.1-0.5c-0.2-0.7,0.1-0.6,0.1-1.3c0-0.7,0.1-3.8,0.2-4.4
					c0.1-0.7,0.5-2.7,0.7-2.7c0.3-0.2,0.7-0.3,1.2-0.5c0.1-0.2,2.8,0.4,4.1,0.2c0.3,0.2,0.7,0.2,1,0.4c0.8,0.9,1.1,2.1,2.1,3
					c0.3,1.1,0.7,3.8,1,4.9c0.1,0.3,0.2,0.6,0.2,0.9c0.1,1,0.3,4.4,0.1,5.4c0.1,1.2-0.2,2.3-0.3,3.5c0,0.4-0.2,0.8-0.2,1.2
					c0,0.2,0,0.5,0,0.7c-0.1,0.9-0.2-0.7-0.1,0.2c0,0.2-0.2,0.3-0.2,0.6c0.1,0.2,0.2,0.3,0.2,0.5c0.1,0.6-0.1,1.2-0.2,1.6
					c0,0.2-0.1,0.2-0.1,0.3c0.1,0.9-0.1,1.7-0.3,2.6c0,0.1,0,0.1,0.1,0.1c0.2-0.1,0.4-0.2,0.6-0.3c0.5-0.5,1-1,1.6-1.5
					c0.9-0.8,1.7-1.8,2.5-2.8c0.4-0.5,0.7-1.1,1.2-1.6c1.1-1.6,2.1-3.4,3.1-5c0.3-0.6,0.6-1.2,0.9-1.7c0.1-0.2,0.2-0.4,0.2-0.7
					c0.1-0.2,0.2-0.3,0.2-0.4c0.2-0.9,0.7-1.7,1.1-2.5c0.3-0.9,0.6-1.8,0.9-2.7c0.5-1.2,0.9-2.5,1.2-3.7c0-0.2,0.2-0.2,0.2-0.4
					c0-0.5,0.2-0.8,0.3-1.3c0.1-0.2,0.3-0.2,0.4-0.5c0.8-0.9,1.1,0.1,1.1,0.2C106.5,82,106.4,82.1,106.4,82.4z M82.3,73.8
					c-0.1-0.7-0.2-1.2-0.3-1.8c0.3-0.2,0.7-0.5,1.2-0.7c0.2-0.1,0.3-0.2,0.4-0.2c0.5,0,0.9,0,1.3,0.1c0.4,0.1,0.8,0.2,1.2,0.3
					c0.7,0.2,1.3,0.5,1.6,1.2c0.2,0.2,0.3,0.4,0.6,0.4c0.2,0.7,0.3,1.2,0.2,1.7c0.2,0.5,0.4,0.8,0.7,1.2c0,0.3,0,0.6,0,0.9
					c-0.2,0.3-0.5,0.6-0.7,0.9c-0.7,0.2-1.4,0.1-1.9,0.1c-0.5-0.2-0.8-0.3-1.2-0.4c-0.6-0.2-1.2-0.4-1.6-0.9
					c-0.2-0.2-0.5-0.6-0.7-0.9C82.7,75.1,82.4,74.4,82.3,73.8z M90.9,106.8c-0.1,0-0.2,0-0.1,0.2C90.9,106.9,90.9,106.9,90.9,106.8z
					"/>
				<path fill="#695173" d="M135.7,54.8c0,0.2,0,0.6,0,0.8c0,0.2-0.1,0.5-0.2,0.7c-0.1,0.4-0.2,0.8-0.4,1.2
					c-0.2,0.6-0.5,1.2-0.5,1.8c0,0.8-0.3,1.5-0.8,2.1c-0.6,0.6-1,1.4-1.3,2.1c-0.2,0.3-0.3,0.7-0.6,0.9c-0.7,0.9-1.3,1.8-1.7,2.8
					c-0.1,0.3-0.4,0.7-0.6,1c-0.1,0.1-0.1,0.2-0.2,0.3c-0.6,1.5-0.9,2.1-1.8,3.2c0,0.2,0,0.2,0,0.4c-0.1,0.7-0.1,1.5-0.3,2.2
					c-0.2,0.7-0.4,1.4-0.4,2.1l0,0.1c-0.1,0.4-0.4,0.7-0.4,1.2c0,0.3,0.1,0.7,0.1,1.1c0,0.7,0,1.3-0.3,2c-0.1,0.2-0.1,0.6-0.2,0.8
					c-0.1,0.5,0,1-0.4,1.4c0,0.1,0,0.2,0,0.2c-0.1,1.8-0.7,3.6-0.8,5.4c-0.1,1.5-0.3,2.9-0.4,4.3c-0.1,0.7-0.1,1.4,0,2.1
					c0,0.4,0,0.8,0,1.2c-0.2,1.1,0,2.1,0.1,3.1c0,0.6,0,1.2,0.1,1.7c0,0.3,0.2,0.7,0.2,1.1c0.1,0.3,0.1,0.4,0.2,0.7
					c0,0.4,0,0.7,0.1,1.1c0.2,0.8,0.2,1.7,0.3,2.5c0.1,0.3,0.3,0.5,0.5,0.9c0,0.7,0.2,1.4,0.5,2c-0.1,0.2-0.2,0.2-0.3,0.4
					c0,0.3,0.1,0.6,0.3,0.9c0.2,0.1,0.4,0.2,0.5,0.3c0.4,0.1,0.7-0.3,1,0c0.2,0.2,0,0.4,0.1,0.7c-0.8,0.9-1.4,1.9-2.4,2.7
					c-0.7,0.5-1.4,0.9-2.3,1.1c-0.4,0.1-0.9,0.2-1.4,0.4c-0.3,0-0.7,0.1-1.1,0.1c-0.4,0-0.8-0.4-1.2-0.3c-0.4-0.2-0.8-0.4-1.1-0.7
					c-0.7-0.5-1.2-1-1.9-1.4c-0.3-0.2-0.5-0.5-0.7-0.8c-0.2,0.1-0.3,0-0.5,0.1c-0.4-0.2-0.4-0.6-0.5-0.9c-0.4-0.8-0.8-1.5-1.3-2.3
					c-0.4-0.6-0.4-1.4-0.9-2.1c0.1-0.6-0.2-1.2-0.3-1.8c0-0.3,0-0.7,0.3-0.9c-0.1-0.8-0.3-1.6-0.1-2.4c-0.1-0.2-0.1-0.3-0.2-0.5
					c-0.2,0-0.2,0-0.3,0c-0.6,0.2-1.1,0.6-1.6,1.1c-0.6,0.6-1.3,0.9-2.1,1.2c-0.1-0.1-0.2-0.1-0.3-0.2c-0.8,0.7-1.9,0.9-3,0.9
					c-0.4,0-0.7-0.2-1.1-0.2c-0.8-0.2-1.4-0.7-2.1-1c-1-0.7-1.7-1.5-1.9-2.8c-0.1-1.1,0.1-2.2-0.3-3.3c0-0.1,0-0.1,0-0.2
					c0-1,0-2,0-2.9c0-0.4-0.1-0.8,0-1.3c0-0.1,0.2-0.2,0.4-0.4c0-0.3,0.1-0.6,0.2-1c0.2-1.3,0.6-2.5,1.1-3.8
					c0.6-1.3,1.3-2.7,2.1-3.9c0.4-0.5,0.6-1.2,0.9-1.8c0-0.4,0.5-0.5,0.5-0.9c0-0.4,0.3-0.6,0.7-0.8c0.2-0.1,0.3-0.5,0.6-0.8
					c1.2-0.5,2.6-0.7,4.1-0.4c0.6-0.1,1.1-0.3,1.5-0.4c0.5,0.5,1.1,0.9,1.6,1.4c0.3,0.6,0.8,1.2,1.4,1.7c0.1-1.1,0.5-1.8,0.5-2.8
					c0-0.2,0-0.2,0.1-0.4c0.2-0.7,0.4-1.4,0.4-2.3c0.3-0.7,0.3-1.6,0.7-2.3c0.1-0.6,0.4-1.1,0.5-1.7c0.7-2.1,1.5-4.1,2.4-6
					c0.1-0.3,0.4-0.6,0.4-0.9c0-0.4,0.2-0.6,0.3-0.8c0.4-0.8,0.7-1.7,1.2-2.4c0.4-0.8,0.8-1.5,1.1-2.3c0.2-0.5,0.3-1,0.6-1.4
					c0.3-0.1,0.5-0.4,0.6-0.7c0.6-1,1.1-2,1.7-3.1c0.7-1,1.4-2,2.1-3c0.5-0.7,1-1.4,1.3-2.2c0-0.1,0-0.2,0.1-0.2
					c0.2-0.5,0.4-0.9,0.6-1.3c0.1-0.4,0.2-0.9,0.3-1.4c0.2,0.1,0.4,0.2,0.5,0.3c0.3-0.1,0.4-0.1,0.7-0.2c0.2,0.1,0.3,0.3,0.4,0.3
					c0.8,0.3,1.5-0.1,2.2,0.2c0.2-0.1,0.5,0,0.8-0.1c0.1,0.2,0.2,0.4,0.4,0.5c0.2,0.2,0.5,0.4,0.8,0.5c0.1,0.2,0.1,0.3,0.1,0.4
					c0.3,0.8,0.4,1.6,0.3,2.4c0,0.2,0,0.4,0,0.6c0,0.3,0,0.7,0,1C136.1,53.8,135.8,54.3,135.7,54.8z M114.2,85.4
					c-0.3-0.4-0.6-0.6-0.9-1c-0.3-0.3-0.6-0.6-0.9-0.9c-0.3-0.3-0.6-0.6-1-0.7c-0.4,0.1-0.8,0.2-1.3,0.2c-0.2,0.2-0.5,0.4-0.6,0.6
					c-0.7,0.5-1.4,1.2-1.7,2.1c-0.4,1-0.7,2.1-1.2,3.1c-0.5,1-0.7,2.2-1.1,3.3c-0.3,1-0.5,2.1-0.3,3.1c0,0.2-0.1,0.3-0.1,0.5
					c0,0.2,0,0.2,0,0.4c0,0.6,0,1.2,0.1,1.8c0.1,0.3,0,1,0.5,1.4c0.5-0.1,1.1-0.3,1.7-0.5c0.9-0.4,1.7-0.8,2.6-1
					c0.9-0.2,1.7-0.5,2.6-0.7c0.1-0.6,0.1-1.1,0.2-1.7c0-0.2,0-0.3-0.1-0.5c0.2-0.2,0.4-0.5,0.5-0.8c0-0.2,0-0.3,0-0.4
					c0-0.2,0.1-0.3,0.1-0.4c-0.1-0.6-0.1-1-0.3-1.4c0.2-0.5,0.5-0.9,0.5-1.4c0-0.4,0.2-0.7,0.2-1.1c0-0.3,0.1-0.6,0.1-0.9
					c0.1-0.8,0.2-1.6,0.5-2.4C114.3,85.8,114.2,85.6,114.2,85.4z M134,52c0-0.2,0-0.4,0-0.6c-0.3-0.3-0.5-0.3-0.9-0.3
					c0,0.1-0.1,0.1-0.1,0.1c-0.5,0.7-0.8,1.5-0.9,2.3c-0.2,0.7-0.4,1.4-0.5,2c-0.1,0.6-0.3,1-0.5,1.5c-0.4,0.9-0.7,1.9-0.8,2.8
					c-0.2,0.6-0.5,1-0.8,1.5c-0.2,1.5-0.7,2.8-1.3,4.2c-0.2,0.7-0.2,1.4-0.3,2.2c0.3-0.2,0.4-0.3,0.5-0.5c0.4-0.6,0.8-1.2,1.1-1.9
					c0.8-1.2,1.5-2.5,2.3-3.7c0.3-0.6,0.5-1.3,0.7-2c0-0.3,0.1-0.6,0.3-1c0.5-1.2,0.8-2.4,1-3.6C133.8,54.1,133.9,53,134,52z
					 M127.4,75.8L127.4,75.8L127.4,75.8L127.4,75.8z M127.4,76.2L127.4,76.2L127.4,76.2L127.4,76.2z"/>
				<path fill="#695173" d="M160.7,87.8c-0.3,0.7-0.4,1.5-0.5,2.3c0,0.5-0.2,1.1-0.3,1.4c-0.1,0.6-0.2,1-0.3,1.4
					c0,0.3-0.1,0.7,0,1.1c0.1,0.6,0,1.1-0.3,1.6c-0.3,0.7-0.4,1.5-0.7,2.3c-0.1,0.4-0.2,0.9-0.1,1.4c-0.2,0.3-0.3,0.7-0.4,1.1
					c-0.1,0.3-0.3,0.6-0.4,1.1c0-0.1-0.1,0-0.1,0.1c0.2,1.1-0.1,2-0.5,3c-0.5,1.1-0.8,2.3-1.2,3.4c-0.2,0.4-0.3,0.7-0.5,1.1
					c-0.4,0.5-0.8,1.1-0.9,1.6c-0.1,0.2-0.3,0.4-0.3,0.6c-0.4,0.5-0.8,1-1.3,1.6c-0.3,0.2-0.8,0.7-1.2,1c-0.7,0.4-1.4,0.5-2.2,0.5
					c-0.6,0-1.1,0-1.7,0.1c-1.2,0.1-2.1-0.6-2.6-1.6c-0.4-0.8-0.6-1.7-0.8-2.6c-0.1-0.5-0.1-1-0.1-1.4c-0.1-0.7-0.2-1.4-0.3-2.1
					c-0.1-0.7,0-1.3-0.3-2c-0.2-0.5-0.1-1.1-0.1-1.6c0-0.2,0-0.4-0.1-0.6c-0.1-0.3-0.2-0.7-0.4-1c-0.2,0.3-0.3,0.6-0.6,0.9
					c-0.3,0.5-0.5,1.1-1.1,1.4c-0.2,0.6-0.7,0.8-1,1.3c-0.3,0.4-0.7,0.8-1,1.2c-0.3,0.3-0.4,0.7-0.7,1c-0.2,0.2-0.3,0.2-0.5,0.3
					c-0.4,0.1-0.8,0.2-1.2,0.2c-0.4,0.2-0.8,0.2-1.1,0.1c-0.7,0.1-1.1,0.2-1.6,0.1c-1.6-0.3-3.2-0.4-4.8-1.2c-0.2-0.3-0.6-0.7-0.8-1
					c-0.3-1.4-0.5-2.6-0.8-4c0.1-0.1,0.3-0.2,0.4-0.4c-0.1-0.2-0.1-0.4-0.2-0.7c0.2-0.2,0.3-0.3,0.5-0.5c0.3-1.2,0.6-2.5,0.8-3.8
					c0.1-0.4,0.2-0.8,0.3-1.2c0.5-1.1,0.9-2.3,1.5-3.4c0.2-0.4,0.1-0.8,0.5-1.1c0.3-0.2,0.4-0.7,0.6-1.1c0.3-0.3,0.4-0.7,0.6-1.1
					c0.2-0.3,0.4-0.7,0.6-1.1c0.3-0.8,0.8-1.6,1.3-2.3c0.4-0.7,1.1-1.4,1.7-2.1c0.6-0.6,1.2-1.1,1.6-1.8c0.5-0.7,1.3-1.3,1.8-2
					c0.2-0.2,0.4-0.5,0.6-0.7c0.2-0.2,0.5-0.3,0.7-0.5c1-0.1,2.1-0.1,3.1-0.1c1.1-0.1,2.1,0.2,3.1,0.1c0.4,0.2,0.9,0.4,1.4,0.7
					c0,0,0.1,0.1,0.2,0.2c-0.1,0.5-0.7,0.4-0.8,0.8c-0.7-0.1-1.2-0.1-1.9-0.1c-0.5,0-1.1-0.3-1.7-0.1c-0.3,0.2-0.8,0.7-1.2,1
					c-0.5,0.7-0.9,1.3-1.4,2c-0.3,0.5-0.7,1-1,1.5c-0.5,0.9-1,1.9-1.5,2.8c-0.2,0.2-0.3,0.6-0.4,0.8c-0.1,0.2-0.2,0.5-0.3,0.7
					c-0.2,0.2-0.3,0.4-0.5,0.7c-0.9,2.1-1.7,4.3-2.5,6.4c-0.3,0.8-0.6,1.6-0.9,2.3c-0.3,0.7-0.5,1.5-0.3,2.2c-0.2,0.1-0.3,0-0.2,0.2
					c0.1-0.1,0.1-0.2,0.1-0.2c0.2-0.1,2.5,0.5,2.6,0.3c0.3-0.3,2.6-0.8,2.8-1.2c0.7-1.4,1-2.5,1.9-3.8c0.5-0.7-0.2-1.4,0.1-2.3
					c0.6-0.6-0.1-1.7,0.3-2.3c0.4-0.5-0.7-1.1-0.4-1.6c0.1-0.2,0-0.8,0.1-1.1c0.1-0.6-0.2-1.3,0.2-1.7c0-0.2,0-0.5,0-0.7
					c0.3-0.2-0.1-0.5,0.1-0.8c0.3-0.2,0.3-0.7,0.8-0.9c0.3-0.1,0.7-0.2,1.2-0.4c1.2,0.3,3.5,0.1,4.8,0.2c0.5,0.1,0.9,0.3,1.3,0.7
					c0.2,0.5,0.2,1.1,0,1.6c0,0.2,0,0.3,0,0.5c0.1,1.1,0,2.1-0.1,3.2c-0.1,0.8-0.2,1.7-0.1,2.6c0,0.5,0,1,0.1,1.5
					c0,0.6,0,1.1-0.1,1.6c-0.1,0.5-0.1,1,0.2,1.6c-0.1,0.4-0.3,0.8-0.2,1.3c0.1,1.1,0.2,2.1,0,3.2c-0.1,0.4-0.1,1.1,0.1,1.5
					c0.2,0.7,0.2,1.2,0.1,1.6c0,0.7,0.3,1.2,0.3,1.7c0,0.5,0,1.1,0.1,1.6c0.2,0.5-0.2,1.1-0.1,1.6c0.2-0.1,0.2-0.1,0.3-0.2
					c0.2-0.2,0.3-0.4,0.4-0.7c0.8-1.5,1.4-3,1.8-4.7c0.1-0.3,0.2-0.7,0.3-1c0.2-0.5,0.4-0.9,0.4-1.5c0-0.2,0.1-0.4,0.2-0.6
					c0.3-1.2,0.5-2.4,0.8-3.5c0.1-0.7,0-1.3,0.3-2c0.1-0.4,0.2-0.9,0.3-1.3c0.5-1.6,0.9-3.3,1.5-4.8c0.6-1.8,1.2-3.9,2.8-4.8
					c0.7-0.5,0.8-0.6,1.2-0.5c0.1,0,0.2,0.3,0.4,0.3c0.2,0,0.4,0.3,0.5,0.4c0.1,0.2-0.2,1.1-0.2,1.1S161,87.2,160.7,87.8z"/>
				<path fill="#695173" d="M181.1,80.5c-0.2,0.4-0.3,0.9-0.6,1.4c-0.1,0.6,0,1.2-0.2,1.8c0,1.2-0.2,2.2-0.5,3.3
					c-0.2,0.7-0.2,1.4-0.3,2.1c-0.2,0.6-0.3,1.2-0.5,1.7c-0.1,0.2-0.1,0.4-0.1,0.6c0,0.5-0.1,1-0.3,1.4c-0.2,0.6-0.3,1.1-0.4,1.6
					c0,0.4,0.1,0.7-0.1,1.1c-0.1,0.3,0.2,0.7-0.1,1c-0.1,0.2,0,0.7-0.1,1c0,0.1,0,0.2-0.1,0.3c-0.2,0.7-0.3,1.2-0.3,1.9
					c0,0.2,0,0.3-0.1,0.5c-0.1,0.7-0.2,1.4-0.4,2.1c-0.3,0.9-0.4,1.8-0.7,2.7c-0.1,0.3-0.2,0.6-0.2,0.9c-0.2,0.7-0.3,1.3-0.4,2
					c0,0.3,0.1,0.7,0.2,0.9c-0.1,0.4-0.2,0.7-0.2,1.1c0,0,0,0,0.1,0.1c0,0,0,0,0,0.1c-0.1,0.3,0.2,0.7,0.1,1.1
					c-0.2,0.4-0.2,0.9-0.2,1.4c0.2,0.2,0.2,0.7,0.4,1c0,0.7,0.1,1.3-0.2,1.9c0.1,0.4,0.2,0.9,0.3,1.5c0.2-0.7,0.2-1.2,0.4-1.6
					c0.2,0,0.2,0.2,0.3,0.3c0.1,0.2,0.2,0.3,0.3,0.7c0,0.2-0.1,0.7,0,1c0,0.1,0.1,0.2,0.2,0.2c0,0.1,0.1,0.2,0.1,0.2
					c0,0.2-0.1,0.6-0.1,0.8c0,0.3,0.2,0.6,0.2,0.8c0,0.2,0,0.4,0.1,0.7c0,0.6-0.1,1.1,0.2,1.6c0.1,0.3,0,0.7,0,1.2
					c-0.2,0.2-0.3,0.5-0.5,0.7c-0.1,0-0.2,0-0.2,0c-0.2,0.2-0.1,0.4-0.2,0.7c-0.4,0.2-0.8,0.4-0.9,1c-0.9,0-1.6,0.3-2.1,0.8
					c-0.4,0.2-0.8,0.2-1.2,0.2c-0.3,0.2-0.7,0.1-1.2,0.2c-0.1,0.1-0.2,0.2-0.3,0.3c-0.2,0-0.5-0.1-0.7,0c-0.4-0.1-0.7-0.3-1.1-0.7
					c0.2-0.3,0.5-0.3,0.7-0.5c-0.1-0.2-0.2-0.3-0.5-0.3c-0.2-0.1-0.6,0-0.7-0.4c0.1,0,0.2-0.1,0.2-0.2c-0.2-0.5-0.7-0.9-0.7-1.5
					c0.2-0.1,0.2-0.1,0.3-0.2c-0.1-0.3-0.2-0.7-0.2-1c-0.1,0-0.2-0.1-0.2-0.2c-0.2-0.2-0.1-0.2,0.1-0.3c0.2,0.2,0.4,0.4,0.6,0.6
					c0.2-0.2,0.2-0.3,0.1-0.5c-0.2-0.2-0.2-0.5-0.4-0.7c0-0.2,0.1-0.6,0.1-0.9c0,0-0.1-0.1-0.2-0.2c0.1-0.1,0.2-0.2,0.3-0.2
					c0-0.2,0.1-0.6,0.1-1c0.2,0.2,0.2,0.2,0.3,0.3c0.2-0.4,0.1-0.7,0.1-1.2c-0.1-0.2-0.2-0.2-0.2-0.4l-0.1-0.1
					c-0.2-0.6-0.2-1.1,0.2-1.6c-0.1-0.1-0.2-0.2-0.2-0.2c0.1-0.2,0.1-0.6,0.2-0.8c0-0.4-0.2-0.9,0.2-1.3c-0.1-0.2-0.1-0.5-0.2-0.9
					c0.1-0.2,0.2-0.5,0.2-0.7c-0.1-0.2-0.1-0.4-0.2-0.6c0.2,0,0.3,0,0.5,0.1c0.1-0.2,0.1-0.2,0.1-0.3c-0.2-0.1-0.3-0.2-0.5-0.2
					c0-0.1,0.1-0.2,0.1-0.4c0-0.1-0.1-0.2-0.2-0.3c0.2-0.1,0.2-0.2,0.3-0.5c-0.2-0.4,0.2-0.8,0.1-1.2c-0.1-0.2-0.2-0.2-0.2-0.4
					c0.1-0.2,0.2-0.6,0.2-0.9c-0.1-0.3,0.1-0.7,0.2-1.1c-0.1-0.2-0.2-0.2-0.2-0.5c0.2-0.9-0.2-2,0.2-2.9c-0.2-0.2-0.4,0-0.6-0.1
					c-0.2-0.3,0.2-0.4,0.2-0.7c-0.1-0.4-0.1-0.9-0.2-1.3c-0.2-0.1-0.2,0.2-0.4,0.2c-0.2,0.1-0.3,0.2-0.6,0.3
					c-0.2,0.2-0.3,0.2-0.5,0.2c-0.2,0.2-0.5,0.6-0.7,0.9c-0.2-0.1-0.5-0.2-0.7-0.2c-0.2,0.1-0.3,0.2-0.6,0.2
					c-0.2,0.2-0.3,0.4-0.4,0.6c-0.3,0.1-0.3-0.2-0.5-0.3c-0.8,0.2-1.6,0.2-2.5,0.2c0-0.1,0-0.2-0.1-0.2c-0.1,0.1-0.1,0.2-0.1,0.2
					c-0.5-0.1-1-0.2-1.5-0.1c-0.2,0.1-0.4,0-0.7-0.1c-0.2-0.1-0.5-0.1-0.7-0.2c-0.4-0.4-0.8-0.8-1.2-1.2c0.1-0.2,0.2-0.5,0.3-0.8
					c-0.2,0-0.2,0-0.4,0c0-0.7-0.5-1.3-0.4-2.1c-0.1-0.2-0.1-0.3-0.2-0.7c0.3-0.7-0.1-1.4-0.2-2.2c0,0,0.1-0.2,0.1-0.3
					c-0.1-0.6-0.2-1.1-0.2-1.6c0-0.2-0.2-0.5-0.1-0.7c0.2-0.2-0.1-0.5,0-0.8c0.2-0.3,0.1-0.7,0-1c-0.1-0.3,0.1-0.7-0.2-1
					c0.1-0.2,0.2-0.4,0.2-0.7c0-0.2,0-0.7,0-1.1c0.3-0.3-0.2-0.7,0.1-1.2c0.2-0.3,0.2-0.7,0.2-1.2c-0.1-0.2-0.2-0.5-0.3-0.7
					c0.1-0.4,0.2-0.8,0.2-1.4c-0.1-0.2-0.2-0.7,0-1.1c0.1-0.2,0-0.5,0.1-0.8c0-0.3-0.2-0.7,0-1.2c0.1-0.2-0.2-0.4-0.1-0.7
					c-0.2-0.3-0.2-0.7-0.1-1.2c0.2-0.6,0.1-1.2,0.2-1.8c-0.2-0.2-0.4-0.2-0.7-0.4c0.2-0.2,0.2-0.2,0.2-0.3c0.5,0.2,1,0.2,1.6,0.4
					c0.2,0,0.2-0.3,0.3-0.4c0.2-0.1,0.5-0.2,0.7-0.3c0.6,0.1,1.1,0.4,1.5,0.3c0.7,0.2,1.2,0.5,1.7,0.7c0.1,0,0.2,0,0.2-0.1
					c0.5,0.4,0.9,0.7,1.5,1.2c0,0.2,0.1,0.6,0.1,0.8c0.8,0.9,0.8,1.2,1.2,2.6c0.3,0.4,0.7,0.9,1.1,1.4c0,0.6,0.1,1.2,0,1.7
					c0,0.6,0.2,1.1,0.3,1.6c0.1,0.2,0.2,0.4,0.3,0.6c-0.1,0.6-0.2,1.1-0.2,1.6c0,0.2-0.1,0.4-0.2,0.6c-0.1,0.9-0.1,1.7-0.2,2.6
					c-0.1,0.5-0.2,0.9-0.2,1.4c0,0.2,0.1,0.2,0.2,0.3c0.5-0.3,0.6-0.3,0.7-0.7c0.6-1.2,1.2-2.4,1.6-3.6c0.1-0.1,0.1-0.2,0.1-0.3
					c0.7-0.9,0.8-2,1.2-3c0.2-0.6,0.2-1.2,0.4-1.7c0.2-0.7,0.2-1.2,0.2-1.8c0-0.2-0.1-0.5,0-0.7c0.2-0.7,0.2-1.3,0.2-2.1
					c0-0.5,0.1-1,0.3-1.6c0.6-0.3,1-0.8,1.2-1.5c0.7-0.7,1.2-1.6,2.1-2.1c0.3,0.1,0.7,0.2,1.1,0.3c0.1-0.1,0.2-0.1,0.3-0.2
					c0.5,0.2,0.9,0.2,1.6,0.4c1.2,0.7,2.2,1.7,3.1,3C181.2,78.5,181.1,79.5,181.1,80.5z M158.8,98.9L158.8,98.9L158.8,98.9
					L158.8,98.9z M162.4,102.6C162.4,102.6,162.4,102.6,162.4,102.6L162.4,102.6z M162.4,102.6c0.1,0,0.1,0,0.2,0
					c0,0.1-0.1,0.1-0.1,0.2C162.5,102.6,162.4,102.6,162.4,102.6z M162.6,102.6C162.5,102.6,162.5,102.6,162.6,102.6
					C162.6,102.6,162.6,102.6,162.6,102.6z M167.8,122.9L167.8,122.9L167.8,122.9z M167.8,123.3L167.8,123.3L167.8,123.3
					L167.8,123.3z M168.5,124.2L168.5,124.2c0.2,0,0.2,0,0.3,0.2C168.6,124.3,168.5,124.3,168.5,124.2L168.5,124.2z M168.5,121.6
					C168.5,121.6,168.5,121.6,168.5,121.6C168.5,121.6,168.5,121.6,168.5,121.6C168.5,121.6,168.5,121.6,168.5,121.6z M168.6,121.5
					C168.7,121.6,168.6,121.6,168.6,121.5L168.6,121.5z M169.1,109.1L169.1,109.1L169.1,109.1z M169.3,117.3c0,0.1,0,0.1,0,0.2
					C169.4,117.4,169.4,117.4,169.3,117.3z M169.9,110.3C169.9,110.3,169.9,110.2,169.9,110.3c-0.1,0-0.1,0.1-0.2,0.4
					C169.9,110.5,169.9,110.4,169.9,110.3z M170.3,109.1c-0.1,0.1-0.2,0.2-0.3,0.2c0.1,0.3,0.2,0.7,0.3,1.1
					C170.4,109.7,170.4,109.7,170.3,109.1z M170.4,104.3c0.1,0,0.1,0,0.2,0.1c0-0.1,0-0.2,0-0.2
					C170.5,104.2,170.5,104.2,170.4,104.3z M171.3,103.6c-0.1-0.2-0.2-0.3-0.3-0.6c-0.1,0.1-0.2,0.2-0.2,0.2c0,0.3,0,0.6-0.1,0.8
					c0.1,0.1,0.1,0.1,0.2,0.1c-0.1,0.1-0.1,0.1-0.2,0.2c0.1,0.2,0.2,0.2,0.2,0.3c0,0.4-0.1,0.7-0.1,1.1c0,0,0.1,0.1,0.1,0.2
					c0.1,0,0.2,0,0.2,0c0-0.4,0.1-0.7,0.1-1.2C171,104.4,171.2,104,171.3,103.6z M170.7,106.9c0,0.5-0.2,0.8,0,1.3
					c0.1-0.2,0.2-0.2,0.2-0.3C170.8,107.6,170.9,107.2,170.7,106.9z M170.7,113.7L170.7,113.7L170.7,113.7L170.7,113.7z
					 M170.8,115.2L170.8,115.2L170.8,115.2L170.8,115.2z M170.8,102.6c0.1,0,0.2,0,0.2,0S171,102.6,170.8,102.6
					C170.9,102.6,170.9,102.6,170.8,102.6z M171.4,106.9L171.4,106.9L171.4,106.9L171.4,106.9z M172.7,99.6c0-0.2-0.1-0.3-0.2-0.4
					c-0.1,0.2-0.1,0.5-0.2,0.7c-0.2,0.2,0.2,0.5-0.1,0.7c-0.1,0.2-0.2,0.2-0.2,0.3c0.2,0.4,0.2,0.8,0.1,1.2
					c-0.2,0.1-0.4,0.2-0.6,0.2c-0.2,0.4,0.2,0.8,0,1.2c0,0,0.1,0,0.2,0.1c0.1-0.1,0.2-0.2,0.2-0.2c-0.1-0.2-0.1-0.5-0.2-0.7
					c0.1,0,0.2,0,0.3,0.1c0.1,0.5,0.1,1,0.1,1.6c0.2-0.4,0.3-0.6,0.3-0.7c0.1-0.2,0.1-0.4,0.1-0.6C172.7,102,172.7,100.8,172.7,99.6
					z M171.7,104.9c-0.2,0.4-0.2,0.4,0,0.7C171.8,105.4,171.8,105.1,171.7,104.9z M172.1,108.2c-0.2,0.1-0.3,0.2-0.2,0.5
					c0.1,0,0.2,0.1,0.2,0.1C172.2,108.6,172.3,108.3,172.1,108.2z M171.8,102L171.8,102L171.8,102L171.8,102z M171.9,104.5
					L171.9,104.5L171.9,104.5L171.9,104.5z M172.1,110C172.1,110,172.1,110,172.1,110c0.1-0.2,0.1-0.5,0.1-0.7c-0.1,0-0.2,0-0.3-0.1
					c0.1,0.2,0.1,0.3,0.2,0.4C172,109.7,172.1,109.9,172.1,110z M172.1,106.8c-0.2,0.3-0.2,0.7,0,1
					C172.3,107.4,172.2,107.1,172.1,106.8z M172.1,106.4c0.1-0.2,0.2-0.2,0-0.3C172.1,106.2,172.1,106.3,172.1,106.4z M172.1,110.9
					L172.1,110.9L172.1,110.9L172.1,110.9z M172.6,98.4L172.6,98.4C172.6,98.6,172.6,98.6,172.6,98.4L172.6,98.4z M173.6,110.7
					L173.6,110.7h-0.2C173.4,110.7,173.5,110.7,173.6,110.7L173.6,110.7z M173.5,110.2L173.5,110.2L173.5,110.2L173.5,110.2z
					 M174.4,113.9L174.4,113.9L174.4,113.9z M174.9,112.9c-0.2,0-0.2,0-0.3,0c0.7-0.1-0.4,0.7,0.2,0.6
					C175,113.3,175,113.1,174.9,112.9z M175.6,110L175.6,110C175.5,110,175.5,110,175.6,110L175.6,110z M176.1,113.3
					c0.1-0.3,0.1-0.4,0.1-0.5c0,0,0.1,0.1,0.2,0.1C176.3,112.9,176.3,113,176.1,113.3z M176.7,114c0.2,0.3,0.2,0.6,0.3,0.8
					c0,0-0.1,0-0.1,0.1C176.6,114.7,176.5,114.4,176.7,114z M176.8,111.4L176.8,111.4L176.8,111.4L176.8,111.4z M176.7,112.1
					L176.7,112.1L176.7,112.1L176.7,112.1z M176.7,112.5L176.7,112.5L176.7,112.5L176.7,112.5z M177.5,117.4
					c-0.1-0.5-0.1-0.9,0.2-1.4c0.2-0.2,0.1-0.3,0.2-0.7c0.2,0.6,0.1,1-0.1,1.4C177.7,117,177.8,117.4,177.5,117.4z M177.6,113.9
					C177.6,113.9,177.6,113.9,177.6,113.9c0-0.1,0-0.2,0.1-0.4C177.7,113.7,177.6,113.8,177.6,113.9z M178.3,120.2L178.3,120.2
					L178.3,120.2L178.3,120.2z M179.6,91.3c0,0.2,0,0.2-0.1,0.5C179.3,91.5,179.3,91.4,179.6,91.3z M179.6,90.9
					c0.2,0.2,0.1,0.3-0.1,0.3C179.6,91.1,179.6,91,179.6,90.9z M179.6,91.2C179.6,91.3,179.6,91.3,179.6,91.2
					C179.6,91.3,179.6,91.3,179.6,91.2z"/>
				<path fill="#695173" d="M196.6,82.1c-0.1-0.3-0.2-0.7-0.3-1c-0.2-0.3-0.3-0.7-0.5-1.2c-0.2-0.2-0.6-0.3-0.9-0.6
					c-0.2-0.1-0.3-0.2-0.5-0.2c-0.4-0.1-0.7-0.2-1-0.4c-0.7-0.1-1.2,0.2-1.6,0.2c-0.4,0.4-0.4,0.4-0.2,0.9c-0.1,0.2-0.1,0.5-0.2,0.7
					c0.1,0.2,0.1,0.2,0.2,0.2c0.1,0.1,0.2,0.2,0.2,0.2c0.6,0.5,1,1,1.1,1.7c0.4,0.2,0.7,0.5,1.1,0.7c0.6,0.3,1.2,0.7,1.7,1
					c0.6,0.3,1.2,0.7,1.7,1c0.1,0.1,0.2,0.1,0.2,0.2c0.4,0.3,0.7,0.6,1.1,0.9c0.4,0.3,0.8,0.7,1.2,1.1c0.3,0.4,0.8,0.7,1.2,1
					c0.4,0.3,0.9,0.7,1.2,1c0.1,0.2,0.2,0.2,0.2,0.3c0.8,0.5,1.3,1.2,1.9,1.8c0.2,0.2,0.3,0.4,0.4,0.7c0,0.2,0.2,0.3,0.2,0.4
					c0.6,0.8,1,1.7,1.2,2.6c0,0.2,0.2,0.2,0.2,0.4c0.2-0.1,1,1.9,0.7,2.1c0,0.2,0,0.4,0,0.6c0.2,0.5,0.2,1,0.1,1.5
					c0.2,0.7,0,1.2-0.2,1.8c-0.1,0.3-0.2,0.6-0.3,0.9c-0.1,0.4-0.3,0.7-0.3,1.2c0,0.2-0.1,0.4-0.2,0.6c-0.2,0.3-0.3,0.7-0.5,1.1
					c-0.8,0.8-1.4,1.8-2.3,2.8c-0.1,0.7-0.6,1.2-1.2,1.7c-0.4,0.3-0.8,0.7-1.2,1.1c-0.9,0.7-1.3,1.1-2.3,1.6
					c-0.3,0.6-0.9,0.8-1.5,1.2c-0.4,0.2-0.9,0.5-1.3,0.8c-0.3,0.2-0.7,0.5-1.1,0.6c-0.7,0.3-1.4,0.7-2.2,1c-0.1,0-0.2,0.1-0.3,0.2
					c-0.9,0.4-1.9,0.6-2.8,0.8c-1.1,0.3-2.1,0.4-3.1,0.4c-0.5,0-0.9,0-1.3,0.2c-0.1,0.1-0.2,0-0.3,0c-0.4-0.4-0.5-1.1-0.9-1.5
					c-0.2-0.2-0.7-0.2-1-0.6c0-0.2,0-0.6,0-0.9c-0.1-0.2-0.2-0.3-0.3-0.6c0-0.2,0-0.6-0.1-0.8c-0.2-0.3-0.1-0.7-0.2-1
					c0-0.2,0-0.6,0-0.9c0.3-0.3,0.2-0.7,0.5-1.2c0.2-0.3,0.4-0.7,0.7-1.3c0.6-0.6,1.2-1.4,2.1-2.1c0.7-0.6,1.4-1.2,2.1-1.6
					c0.3-0.2,0.7-0.5,1.2-0.7c-0.1,0,0,0,0.1,0c0.5-0.6,1.2-0.7,1.8-1.1c0.6-0.3,1.2-0.7,1.8-1c0.7-0.4,1.3-0.5,1.9-1
					c-0.3-1.3-0.5-2.6-1.2-3.9c0-0.1,0-0.2,0-0.2c-0.2-0.5-0.2-1-0.4-1.4c-0.2-0.5-0.5-0.9-0.7-1.4c-0.4-0.7-0.8-1.3-1.3-1.9
					c-0.2-0.2-0.3-0.4-0.5-0.7c-0.3-0.6-0.7-1.2-1.2-1.7c-0.5-0.6-1-1.2-1.5-1.8c-0.2-0.3-0.5-0.7-0.7-1.1c-0.2-0.5-0.6-1-1-1.5
					c-0.5-0.7-0.9-1.5-1.2-2.3c-0.2-0.4-0.2-0.8-0.4-1.2c-0.2-0.3-0.2-0.7-0.2-1.1c0-0.3-0.2-0.6,0-0.9c0-0.2-0.2-0.4,0-0.6
					c0.1-0.2,0-0.4,0.1-0.6c0.2-0.2,0.3-0.4,0.7-0.5c0.5-0.2,1-0.4,1.4-0.7c1.6-0.7,3.3-1.4,5-1.9c1-0.2,2-0.6,3-0.7
					c1.8-0.2,3.6,0,5.3,1.3c0.4,0.7,0.8,1.4,1.3,2.2c0.2,1,0.2,1.9-0.2,2.9c-0.1,0.3-0.2,0.7-0.5,0.9c-0.2,0.2-0.4,0.3-0.6,0.4
					c-0.5,0.2-1.1,0.3-1.6,0.4c-0.5-0.1-1-0.2-1.4,0c0.2-0.1-0.3-1-0.2-1.1C196.9,82.7,196.7,82.4,196.6,82.1z M192.5,109.8
					c0.6-1.3,1-2.7,1.5-4.1c0.1-0.2,0.1-0.5,0-0.8c-0.4,0.2-0.8,0.3-1.2,0.6c-0.5,0.3-1.1,0.6-1.6,0.9c-1.1,0.6-2.1,1.3-3,2
					c-0.8,0.6-1.6,1.4-2.3,2.1c-0.6,0.7-0.7,1.3-0.5,2.1c0.3,0.2,0.7,0.3,0.9,0.5c0.7,0,1.3,0,1.8,0c0.7-0.4,1.4-0.4,2-0.7
					c0.5-0.4,1.1-0.7,1.6-1.1c0.1-0.3,0.3-0.9,0.7-1.2C192.4,110,192.5,109.9,192.5,109.8z"/>
			</g>
		</g>
	</g>
	<g>
		<path fill="#74A79E" d="M173.8,137.2c0,0.7-0.5,1.2-1.2,1.2c-0.7,0-1.2-0.5-1.2-1.2c0-0.7,0.5-1.2,1.2-1.2
			C173.3,136,173.8,136.5,173.8,137.2z"/>
		<path fill="#74A79E" d="M29.1,137.2c0,0.7-0.5,1.2-1.2,1.2c-0.7,0-1.2-0.5-1.2-1.2c0-0.7,0.5-1.2,1.2-1.2
			C28.5,136,29.1,136.5,29.1,137.2z"/>
		<g>
			<path fill="#74A79E" d="M41.4,141.2h-2.1c-0.1,0-0.1,0-0.2-0.1c-0.4-0.7-1.4-2.7-1.4-2.7l-1,1.3c0,0,0,0.5,0,1.4
				c0,0.1,0,0.1-0.1,0.1c-0.7,0-1.2,0-1.9,0c-0.1,0-0.1,0-0.1-0.1c0-3,0-4.9,0-7.6c0-0.1,0-0.1,0.1-0.1c0.7,0,1.1,0,1.9,0
				c0.1,0,0.1,0,0.1,0.1c0,0.9,0,3.5,0,3.5s1.6-2.5,2.2-3.5c0-0.1,0.1-0.1,0.1-0.1h2.1c0.1,0,0.1,0,0.1,0.1
				c-0.8,1.1-2.3,3.2-2.3,3.2s1.7,3.1,2.5,4.4C41.6,141.2,41.5,141.2,41.4,141.2z"/>
			<path fill="#74A79E" d="M46.1,141.2c-0.8,0-1.2,0-1.9,0c-0.1,0-0.1,0-0.1-0.1c0-3,0-4.9,0-7.6c0-0.1,0-0.1,0.1-0.1
				c0.7,0,1.2,0,1.9,0c0.1,0,0.1,0,0.1,0.1c0,1.8,0,5.8,0,7.6C46.2,141.2,46.2,141.2,46.1,141.2z"/>
			<path fill="#74A79E" d="M56.8,141.2c-0.6,0-1.3,0-2.2,0c-0.1,0-0.1,0-0.1-0.1c-0.1-0.3-0.3-0.7-0.4-1h-2.8
				c-0.1,0.3-0.3,0.7-0.4,1c0,0.1-0.1,0.1-0.2,0.1c-0.8,0-1.2,0-1.9,0c-0.1,0-0.1,0-0.1-0.2c1.2-2.6,3-6.3,3.9-7.9c0,0,0.1,0,0.1,0
				s0.1,0,0.1,0c1.1,2.1,2.7,5.4,4,7.9C57,141.2,57,141.2,56.8,141.2z M52.7,136.8l-0.8,1.8h1.6L52.7,136.8z"/>
			<path fill="#74A79E" d="M67.2,139.2c-0.3,0-1.6,0-1.6,0s0,1,0,1.9c0,0.1,0,0.1-0.1,0.1c-0.7,0-1.2,0-1.9,0c-0.1,0-0.1,0-0.1-0.1
				c0-3,0-4.9,0-7.6c0-0.1,0.1-0.1,0.1-0.1h3.5c1.7,0,2.8,1.2,2.8,3C69.8,138.3,68.7,139,67.2,139.2z M66.5,135.1h-1v2.5l1,0
				c0.8,0,1.1-0.5,1.1-1.2C67.7,135.5,67.2,135.1,66.5,135.1z"/>
			<path fill="#74A79E" d="M79.1,141.2c-0.6,0-1.3,0-2.2,0c-0.1,0-0.1,0-0.1-0.1c-0.1-0.3-0.3-0.7-0.4-1h-2.8
				c-0.1,0.3-0.3,0.7-0.4,1c0,0.1-0.1,0.1-0.2,0.1c-0.8,0-1.2,0-1.9,0c-0.1,0-0.1,0-0.1-0.2c1.2-2.6,3-6.3,3.9-7.9c0,0,0.1,0,0.1,0
				s0.1,0,0.1,0c1.1,2.1,2.7,5.4,4,7.9C79.2,141.2,79.2,141.2,79.1,141.2z M74.9,136.8l-0.8,1.8h1.6L74.9,136.8z"/>
			<path fill="#74A79E" d="M83.7,141.2c-0.8,0-1.2,0-1.9,0c-0.1,0-0.1,0-0.1-0.1c0-3,0-4.9,0-7.6c0-0.1,0-0.1,0.1-0.1
				c0.7,0,1.2,0,1.9,0c0.1,0,0.1,0,0.1,0.1c0,1.8,0,5.8,0,7.6C83.8,141.2,83.8,141.2,83.7,141.2z"/>
			<path fill="#74A79E" d="M95,141.4c-2.3,0-4.1-1.8-4.1-4.1s1.8-4.1,4.1-4.1c2.3,0,4.1,1.8,4.1,4.1S97.3,141.4,95,141.4z M95,135.2
				c-1.2,0-1.9,0.9-1.9,2.1c0,1.2,0.7,2.1,1.9,2.1c1.2,0,1.9-0.9,1.9-2.1C96.9,136.1,96.2,135.2,95,135.2z M92.6,133
				c-0.1,0-0.1-0.1-0.1-0.1v-1.1c0,0,0-0.1,0.1-0.1h4.6c0.1,0,0.1,0,0.1,0.1v1.2c0,0.1,0,0.1-0.1,0.1H92.6z"/>
			<path fill="#74A79E" d="M112.8,141.2c-0.7,0-1.1,0-1.9,0c-0.1,0-0.1,0-0.1-0.1c0-0.9,0-3.1,0-3.1h-2.6c0,0,0,2.2,0,3.1
				c0,0.1,0,0.1-0.1,0.1c-0.7,0-1.2,0-1.9,0c-0.1,0-0.1,0-0.1-0.1c0-3,0-4.9,0-7.6c0-0.1,0-0.1,0.1-0.1c0.7,0,1.2,0,1.9,0
				c0.1,0,0.1,0,0.1,0.1c0,0.9,0,2.7,0,2.7h2.6c0,0,0-1.8,0-2.7c0-0.1,0-0.1,0.1-0.1c0.7,0,1.2,0,1.9,0c0.1,0,0.1,0,0.1,0.1
				c0,2.7,0,4.5,0,7.6C112.9,141.2,112.9,141.2,112.8,141.2z"/>
			<path fill="#74A79E" d="M123.5,141.2c-0.6,0-1.3,0-2.2,0c-0.1,0-0.1,0-0.1-0.1c-0.1-0.3-0.3-0.7-0.4-1H118
				c-0.1,0.3-0.3,0.7-0.4,1c0,0.1-0.1,0.1-0.2,0.1c-0.8,0-1.2,0-1.9,0c-0.1,0-0.1,0-0.1-0.2c1.2-2.6,3-6.3,3.9-7.9c0,0,0.1,0,0.1,0
				s0.1,0,0.1,0c1.1,2.1,2.7,5.4,4,7.9C123.7,141.2,123.7,141.2,123.5,141.2z M119.4,136.8l-0.8,1.8h1.6L119.4,136.8z"/>
			<path fill="#74A79E" d="M133,141.2h-2c-0.1,0-0.1,0-0.2-0.2c-0.4-0.8-1.2-2.1-1.2-2.1l-1.3,0c0,0,0,1.3,0,2.2
				c0,0.1,0,0.1-0.1,0.1c-0.7,0-1.2,0-1.9,0c-0.1,0-0.1,0-0.1-0.1c0-3,0-4.9,0-7.6c0-0.1,0.1-0.1,0.1-0.1h3.6c1.8,0,2.7,1.2,2.7,2.7
				c0,1.1-0.4,1.8-1.1,2.2c0.3,0.5,1,1.6,1.6,2.7C133.2,141.2,133.2,141.2,133,141.2z M129.3,135.1h-1.1v2.3l1.2,0
				c0.6,0,1-0.5,1-1.2C130.3,135.6,130,135.1,129.3,135.1z"/>
			<path fill="#74A79E" d="M143.2,141.2c-0.6,0-1.3,0-2.2,0c-0.1,0-0.1,0-0.1-0.1c-0.1-0.3-0.3-0.7-0.4-1h-2.8
				c-0.1,0.3-0.3,0.7-0.4,1c0,0.1-0.1,0.1-0.2,0.1c-0.8,0-1.2,0-1.9,0c-0.1,0-0.1,0-0.1-0.2c1.2-2.6,3-6.3,3.9-7.9c0,0,0.1,0,0.1,0
				s0.1,0,0.1,0c1.1,2.1,2.7,5.4,4,7.9C143.3,141.2,143.3,141.2,143.2,141.2z M139,136.8l-0.8,1.8h1.6L139,136.8z"/>
			<path fill="#74A79E" d="M152.7,141.2h-2c-0.1,0-0.1,0-0.2-0.2c-0.4-0.8-1.2-2.1-1.2-2.1l-1.3,0c0,0,0,1.3,0,2.2
				c0,0.1,0,0.1-0.1,0.1c-0.7,0-1.2,0-1.9,0c-0.1,0-0.1,0-0.1-0.1c0-3,0-4.9,0-7.6c0-0.1,0.1-0.1,0.1-0.1h3.6c1.8,0,2.7,1.2,2.7,2.7
				c0,1.1-0.4,1.8-1.1,2.2c0.3,0.5,1,1.6,1.6,2.7C152.8,141.2,152.8,141.2,152.7,141.2z M148.9,135.1h-1.1v2.3l1.2,0
				c0.6,0,1-0.5,1-1.2C149.9,135.6,149.6,135.1,148.9,135.1z"/>
			<path fill="#74A79E" d="M160.8,141.2h-5.3c-0.1,0-0.1,0-0.1-0.2c0-2,0-5.4,0-7.6c0-0.1,0-0.1,0.1-0.1h5.2c0.1,0,0.1,0,0.1,0.2
				c0,0.6,0,0.9,0,1.4c0,0.1,0,0.2-0.1,0.2l-3.3,0v1.3h3.2c0.1,0,0.1,0,0.1,0.2c0,0.6,0,0.9,0,1.4c0,0.1,0,0.2-0.1,0.2h-3.2v1.3
				l3.4,0c0.1,0,0.1,0,0.1,0.2c0,0.6,0,1,0,1.5C160.9,141.2,160.9,141.2,160.8,141.2z"/>
			<path fill="#74A79E" d="M165.8,141.2c-0.8,0-1.2,0-1.9,0c-0.1,0-0.1,0-0.1-0.1c0-3,0-4.9,0-7.6c0-0.1,0-0.1,0.1-0.1
				c0.7,0,1.2,0,1.9,0c0.1,0,0.1,0,0.1,0.1c0,1.8,0,5.8,0,7.6C165.9,141.2,165.9,141.2,165.8,141.2z"/>
		</g>
	</g>
	<g>
		<g>
			<path fill="#003361" d="M48.6,198.6c-3.7,0-5.8-2.6-5.8-5.2c0-2.4,2-5.2,5.8-5.2c3.8,0,5.8,2.8,5.8,5.2
				C54.4,196,52.3,198.6,48.6,198.6z M48.6,190.4c-1.9,0-3.2,1.2-3.2,3.1s1.3,3.1,3.2,3.1c1.9,0,3.2-1.2,3.2-3.1
				S50.5,190.4,48.6,190.4z"/>
			<path fill="#003361" d="M57.3,192.3c0.6-0.5,1.2-0.7,2-0.7c1.8,0,3.2,1.5,3.2,3.5c0,2.2-1.3,3.6-3.4,3.6c-0.6,0-1.3-0.2-1.8-0.5
				v3.7h-2.1v-10.2h2.1V192.3z M57.3,196.8c0.4,0.3,0.8,0.4,1.2,0.4c1.1,0,1.7-0.8,1.7-2.1c0-1.3-0.6-2.1-1.6-2.1
				c-0.5,0-0.8,0.1-1.3,0.5V196.8z"/>
			<path fill="#003361" d="M70.4,197.7c-1.2,0.9-2.5,0.9-3.1,0.9c-2.4,0-4-1.4-4-3.5c0-2.1,1.5-3.6,3.6-3.6c2,0,3.6,1.4,3.5,3.9
				h-4.9c0.1,1.2,0.9,1.9,2.3,1.9c0.9,0,1.5-0.3,2.5-1V197.7z M68.6,194.3c-0.1-0.9-0.7-1.5-1.5-1.5c-0.8,0-1.4,0.5-1.5,1.5H68.6z"
				/>
			<path fill="#003361" d="M73.6,192.7c0.7-0.8,1.3-1.1,2.2-1.1c1.1,0,2.5,0.6,2.5,2.6v4.3h-2.1v-4.2c0-1-0.5-1.4-1.1-1.4
				c-0.5,0-0.9,0.3-1.5,1.1v4.4h-2.1v-6.8h2.1V192.7z"/>
			<path fill="#003361" d="M88.1,188.4c2.3,0,3.3,1.6,3.3,3c0,1.4-1,3.1-3.3,3.1h-2v4.1h-2.5v-10.1H88.1z M86.1,192.6h1.2
				c1.2,0,1.6-0.4,1.6-1.2c0-0.9-0.5-1.2-1.9-1.2h-0.9V192.6z"/>
			<path fill="#003361" d="M95.3,198.6c-2.2,0-3.9-1.4-3.9-3.6c0-2.3,1.9-3.5,3.9-3.5c1.7,0,3.8,0.9,3.8,3.6
				C99.1,197.8,96.8,198.6,95.3,198.6z M95.3,192.8c-0.9,0-1.6,0.7-1.6,2.3c0,1.8,0.8,2.3,1.6,2.3c1,0,1.5-0.8,1.5-2.3
				C96.8,193.7,96.3,192.8,95.3,192.8z"/>
			<path fill="#003361" d="M102.3,198.5h-2.1v-10.1h2.1V198.5z"/>
			<path fill="#003361" d="M105.9,201.8h-2.3l2-4.4l-2.7-5.7h2.3l1.4,3.5l1.5-3.5h2.3L105.9,201.8z"/>
			<path fill="#003361" d="M116.4,193.1h-2.5v2.8c0,0.7,0.4,1.1,1.1,1.1c0.4,0,0.9-0.1,1.4-0.4v1.6c-0.8,0.3-1.3,0.4-2,0.4
				c-1.4,0-2.7-0.7-2.7-2.6v-2.9h-1v-0.4l2.9-3.2h0.3v2.1h2.5V193.1z"/>
			<path fill="#003361" d="M124,197.7c-1.2,0.9-2.5,0.9-3.1,0.9c-2.4,0-4-1.4-4-3.5c0-2.1,1.5-3.6,3.6-3.6c2,0,3.6,1.4,3.5,3.9h-4.9
				c0.1,1.2,0.9,1.9,2.3,1.9c0.9,0,1.5-0.3,2.5-1V197.7z M122.2,194.3c-0.1-0.9-0.7-1.5-1.5-1.5c-0.8,0-1.4,0.5-1.5,1.5H122.2z"/>
			<path fill="#003361" d="M131.3,198.2c-0.9,0.3-1.6,0.5-2.3,0.5c-2.4,0-4-1.4-4-3.5c0-2.1,1.6-3.6,3.9-3.6c0.7,0,1.6,0.2,2.3,0.4
				v1.6c-0.6-0.3-1.2-0.5-1.7-0.5c-1.3,0-2.1,0.8-2.1,2c0,1.2,0.8,2,2,2c0.5,0,1-0.1,1.9-0.5V198.2z"/>
			<path fill="#003361" d="M134.8,192.7L134.8,192.7c0.7-0.8,1.3-1.1,2.2-1.1c1.2,0,2.5,0.8,2.5,2.6v4.4h-2.1v-3.9
				c0-1-0.4-1.5-1.1-1.5c-0.5,0-0.9,0.3-1.4,1v4.4h-2.1v-10.1h2.1V192.7z"/>
			<path fill="#003361" d="M142.6,192.7c0.7-0.8,1.3-1.1,2.2-1.1c1.1,0,2.5,0.6,2.5,2.6v4.3h-2.1v-4.2c0-1-0.5-1.4-1.1-1.4
				c-0.5,0-0.9,0.3-1.5,1.1v4.4h-2.1v-6.8h2.1V192.7z"/>
			<path fill="#003361" d="M150.7,189.5c0,0.7-0.5,1.2-1.2,1.2s-1.2-0.5-1.2-1.2c0-0.7,0.5-1.2,1.2-1.2S150.7,188.8,150.7,189.5z
				 M150.6,198.5h-2.1v-6.8h2.1V198.5z"/>
			<path fill="#003361" d="M157.6,198.2c-0.9,0.3-1.6,0.5-2.3,0.5c-2.4,0-4-1.4-4-3.5c0-2.1,1.6-3.6,3.9-3.6c0.7,0,1.6,0.2,2.3,0.4
				v1.6c-0.6-0.3-1.2-0.5-1.7-0.5c-1.3,0-2.1,0.8-2.1,2c0,1.2,0.8,2,2,2c0.5,0,1-0.1,1.9-0.5V198.2z"/>
		</g>
		<g>
			<path fill="#008296" d="M46.8,207.5L46.8,207.5l-0.8,0.1l0,0l-2-1.9v1.9h0h-0.6v-4.1h0H44v1.8l1.6-1.8h0.8l-1.8,1.9L46.8,207.5"
				/>
		</g>
		<g>
			<path fill="#008296" d="M51,206v-2.5h0h0.6v2.4c0,0.4,0.1,0.6,0.2,0.8l0,0c0.2,0.2,0.5,0.3,0.8,0.3l0,0c0.4,0,0.7-0.1,0.9-0.3
				l0,0c0.2-0.2,0.2-0.5,0.2-0.8l0,0v-2.4h0h0.6v2.5c0,1-0.6,1.7-1.8,1.7l0,0C51.9,207.6,51,207.2,51,206L51,206z"/>
		</g>
		<g>
			<path fill="#008296" d="M75.6,207.6H75v-3.5h-1.4v0v-0.6H77v0v0.5v0h-1.4L75.6,207.6L75.6,207.6L75.6,207.6z"/>
		</g>
		<g>
			<path fill="#008296" d="M82.1,207.6h-0.6v-4.1h0h0.6L82.1,207.6L82.1,207.6L82.1,207.6L82.1,207.6z"/>
		</g>
		<g>
			<path fill="#008296" d="M90.6,207.6l-0.5,0l-2.6-3v3h0h-0.6v-4.1h0l0.5,0l2.6,3v-3h0h0.6L90.6,207.6L90.6,207.6L90.6,207.6
				L90.6,207.6z"/>
		</g>
		<g>
			<path fill="#008296" d="M96,207.6h-0.6v-4.1h0h0.6L96,207.6L96,207.6L96,207.6L96,207.6z"/>
		</g>
		<g>
			<path fill="#008296" d="M107.3,207.6h-0.6l0-3.5h-1.4v0v-0.6h3.4v0v0.5v0h-1.4L107.3,207.6L107.3,207.6L107.3,207.6z"/>
		</g>
		<g>
			<path fill="#008296" d="M113.1,206v-2.5h0h0.6v2.4c0,0.4,0.1,0.6,0.2,0.8l0,0c0.2,0.2,0.5,0.3,0.8,0.3l0,0c0.4,0,0.7-0.1,0.9-0.3
				l0,0c0.2-0.2,0.2-0.5,0.2-0.8l0,0v-2.4h0h0.6v2.5c0,1-0.6,1.7-1.8,1.7l0,0C113.9,207.6,113.1,207.2,113.1,206L113.1,206z"/>
		</g>
		<g>
			<path fill="#008296" d="M122.6,207.6h-0.1 M125.3,207.6h-0.1"/>
			<path fill="#008296" d="M125.3,207.6h-0.1l-1.3-3.2l-1.3,3.2h0h-0.1l-1.6-4.1h0.1h0.6l1.1,2.7l1.1-2.7h0h0.6l1.1,2.7l1.1-2.7h0
				h0.6L125.3,207.6L125.3,207.6L125.3,207.6L125.3,207.6z M125.3,207.6L125.3,207.6"/>
		</g>
		<g>
			<path fill="#008296" d="M134.7,207.6h-0.6l0-1.7H132v1.7h0h-0.6v-4.1h0h0.6v1.7h2.1v-1.7h0h0.6L134.7,207.6L134.7,207.6
				L134.7,207.6L134.7,207.6z"/>
		</g>
		<g>
			<path fill="#008296" d="M139.5,207.6v-4.1h2.3v0v0.5v0h-1.7v1.1h1.6v0v0.6h-1.6v1.2h1.7v0v0.6H139.5L139.5,207.6z"/>
		</g>
		<g>
			<path fill="#008296" d="M147.5,203.5c0.8,0,1.3,0.4,1.3,1.2l0,0c0,0.4-0.2,0.8-0.6,1l0,0c0.3,0.2,0.6,0.6,0.8,1.1l0,0
				c0.2,0.3,0.3,0.4,0.5,0.8l0,0l0,0.1h-0.1l0,0h-0.7l-0.5-0.8c-0.5-0.8-0.7-0.9-1-0.9l0,0h-0.2v1.7h0h-0.6v-4.1H147.5 M147.4,205.3
				c0.6,0,0.7-0.3,0.7-0.6l0,0c0,0,0,0,0,0l0,0c0-0.4-0.2-0.6-0.7-0.6l0,0h-0.3v1.2H147.4L147.4,205.3z"/>
		</g>
		<g>
			<path fill="#008296" d="M60.3,203.5c0.8,0,1.3,0.4,1.3,1.2l0,0c0,0.4-0.2,0.8-0.6,1l0,0c0.3,0.2,0.6,0.6,0.8,1.1l0,0
				c0.2,0.3,0.3,0.4,0.5,0.8l0,0l0,0.1h-0.1l0,0h-0.7l-0.5-0.8c-0.5-0.8-0.7-0.9-1-0.9l0,0h-0.2v1.7h0h-0.6v-4.1H60.3 M60.2,205.3
				c0.6,0,0.7-0.3,0.7-0.6l0,0c0,0,0,0,0,0l0,0c0-0.4-0.2-0.6-0.7-0.6l0,0h-0.3v1.2H60.2L60.2,205.3z"/>
		</g>
		<path fill="#008296" d="M70.2,207.5l-1.8-4H68l-1.7,4.1h0.7l0.5-1.2h1.6l0.5,1.2L70.2,207.5L70.2,207.5z M67.7,205.8l0.5-1.3
			l0.6,1.3H67.7z"/>
		<path fill="#008296" d="M157.4,207.5l-1.8-4h-0.5l-1.7,4.1h0.7l0.5-1.2h1.6l0.5,1.2L157.4,207.5L157.4,207.5z M154.9,205.8
			l0.5-1.3l0.6,1.3H154.9z"/>
	</g>
	<g>
		<path fill="#323232" d="M64.3,169.2C64.2,169.2,64.2,169.2,64.3,169.2c-0.2-0.1-0.3-0.1-0.4-0.1c-0.2,0-0.3,0.1-0.3,0.3
			c0,0,0,0.2,0,0.3s0,0,0,0c0.2,0,0.5,0,0.6,0c0.1,0,0.1,0,0.1,0.1v0.8c0,0.1,0,0.1-0.1,0.1c-0.2,0-0.4,0-0.5,0v2.9
			c0,0.1,0,0.1-0.1,0.1c-0.4,0-0.8,0-1.2,0c0,0-0.1-0.1-0.1-0.1v-2.9c-0.1,0-0.2,0-0.3,0c0,0-0.1,0-0.1-0.1v-0.8c0,0,0-0.1,0.1-0.1
			c0,0,0.2,0,0.3,0c0-0.1,0-0.3,0-0.4c0-0.7,0.3-1.2,1.1-1.2c0.6,0,0.9,0.2,1.1,0.5c0.1,0.1,0.1,0.1,0,0.2
			C64.5,168.8,64.3,169.1,64.3,169.2z"/>
		<path fill="#323232" d="M68.4,171.4c0,0-0.1,0-0.2,0c0-0.4-0.2-0.6-0.4-0.6c-0.2,0-0.4,0.2-0.5,0.3v2.5c0,0.1,0,0.1-0.1,0.1
			c-0.4,0-0.8,0-1.2,0c-0.1,0-0.1,0-0.1-0.1c0-1.5,0-2.4,0-3.8c0-0.1,0-0.1,0.1-0.1c0.5,0,0.7,0,1.2,0c0.1,0,0.1,0,0.1,0.1v0.4
			c0.2-0.4,0.6-0.6,1-0.6c0.6,0,1,0.3,1,1C69.1,170.7,68.5,171.3,68.4,171.4z"/>
		<path fill="#323232" d="M72.8,173.9c-1.2,0-2.1-0.9-2.1-2.1c0-1.2,0.9-2.2,2.1-2.2c1.2,0,2.1,0.9,2.1,2.2S74,173.9,72.8,173.9z
			 M72.8,170.9c-0.4,0-0.8,0.4-0.8,0.9c0,0.5,0.4,0.9,0.8,0.9c0.4,0,0.8-0.4,0.8-0.9C73.6,171.2,73.2,170.9,72.8,170.9z"/>
		<path fill="#323232" d="M82.9,173.7c-0.4,0-0.8,0-1.2,0c0,0-0.1,0-0.1-0.1v-2.3c0-0.4-0.2-0.6-0.5-0.6c-0.3,0-0.5,0.2-0.5,0.4v2.5
			c0,0.1,0,0.1-0.1,0.1c-0.4,0-0.8,0-1.2,0c0,0-0.1,0-0.1-0.1v-2.3c0-0.4-0.2-0.6-0.5-0.6c-0.3,0-0.5,0.2-0.5,0.4v2.6
			c0,0.1,0,0.1-0.1,0.1c-0.4,0-0.8,0-1.2,0c-0.1,0-0.1,0-0.1-0.1c0-1.5,0-2.4,0-3.8c0-0.1,0-0.1,0.1-0.1c0.4,0,0.8,0,1.2,0
			c0.1,0,0.1,0,0.1,0.1v0.6c0.2-0.5,0.6-0.8,1.2-0.8c0.6,0,1,0.2,1.2,0.8c0.1-0.5,0.6-0.8,1.2-0.8c0.6,0,1.3,0.2,1.3,1.3v2.8
			C83,173.7,83,173.7,82.9,173.7z"/>
		<path fill="#323232" d="M91.9,173.7c-0.2,0-1,0-1.1,0c-0.1,0-0.1,0-0.1-0.1v-0.5c-0.1,0.4-0.6,0.6-1.1,0.6c-1.1,0-1.9-0.8-1.9-2.1
			c0-1.2,0.8-2.1,1.9-2.1c0.5,0,1,0.3,1.1,0.6v-0.5c0-0.1,0-0.1,0.1-0.1c0.5,0,0.8,0,1.2,0c0,0,0.1,0,0.1,0.1c0,1.5,0,2.4,0,3.9
			C91.9,173.7,91.9,173.7,91.9,173.7z M89.8,170.9c-0.5,0-0.8,0.4-0.8,0.9c0,0.5,0.4,0.8,0.8,0.8c0.4,0,0.8-0.3,0.8-0.8
			C90.6,171.2,90.2,170.9,89.8,170.9z"/>
		<path fill="#323232" d="M95.3,173.7c-0.4,0-0.8,0-1.2,0c-0.1,0-0.1,0-0.1-0.1c0-1.5,0-3.8,0-5.3c0-0.1,0-0.1,0.1-0.1
			c0.5,0,0.8,0,1.2,0c0.1,0,0.1,0,0.1,0.1L95.3,173.7C95.4,173.7,95.4,173.7,95.3,173.7z"/>
		<path fill="#323232" d="M98.7,173.7c-0.4,0-0.8,0-1.2,0c-0.1,0-0.1,0-0.1-0.1c0-1.5,0-3.8,0-5.3c0-0.1,0-0.1,0.1-0.1
			c0.5,0,0.8,0,1.2,0c0.1,0,0.1,0,0.1,0.1L98.7,173.7C98.8,173.7,98.8,173.7,98.7,173.7z"/>
		<path fill="#323232" d="M105.6,173.9c-1.2,0-2.1-0.9-2.1-2.1c0-1.2,0.9-2.2,2.1-2.2c1.2,0,2.1,0.9,2.1,2.2
			S106.9,173.9,105.6,173.9z M105.6,170.9c-0.4,0-0.8,0.4-0.8,0.9c0,0.5,0.4,0.9,0.8,0.9c0.4,0,0.8-0.4,0.8-0.9
			C106.4,171.2,106.1,170.9,105.6,170.9z"/>
		<path fill="#323232" d="M111.6,169.2C111.6,169.2,111.6,169.2,111.6,169.2c-0.2-0.1-0.3-0.1-0.4-0.1c-0.2,0-0.3,0.1-0.3,0.3
			c0,0,0,0.2,0,0.3s0,0,0,0c0.2,0,0.5,0,0.6,0c0.1,0,0.1,0,0.1,0.1v0.8c0,0.1,0,0.1-0.1,0.1c-0.2,0-0.4,0-0.5,0v2.9
			c0,0.1,0,0.1-0.1,0.1c-0.4,0-0.8,0-1.2,0c0,0-0.1-0.1-0.1-0.1v-2.9c-0.1,0-0.2,0-0.3,0c0,0-0.1,0-0.1-0.1v-0.8c0,0,0-0.1,0.1-0.1
			c0,0,0.2,0,0.3,0c0-0.1,0-0.3,0-0.4c0-0.7,0.3-1.2,1.1-1.2c0.6,0,0.9,0.2,1.1,0.5c0.1,0.1,0.1,0.1,0,0.2
			C111.9,168.8,111.7,169.1,111.6,169.2z"/>
		<path fill="#323232" d="M119.9,173.7c-0.4,0-0.7,0-1.2,0c-0.1,0-0.1,0-0.1-0.1v-0.4c-0.2,0.5-0.6,0.6-1.2,0.6
			c-0.8,0-1.2-0.5-1.2-1.3l0-2.7c0-0.1,0-0.1,0.1-0.1c0.4,0,0.8,0,1.2,0c0.1,0,0.1,0,0.1,0.1l0,2.4c0,0.4,0.2,0.5,0.5,0.5
			c0.3,0,0.5-0.2,0.6-0.4v-2.6c0-0.1,0-0.1,0.1-0.1c0.4,0,0.8,0,1.2,0c0.1,0,0.1,0,0.1,0.1C119.9,171.3,119.9,172.2,119.9,173.7
			C119.9,173.7,119.9,173.7,119.9,173.7z"/>
		<path fill="#323232" d="M123.5,173.9c-1,0-1.5-0.4-1.8-0.9c0-0.1,0-0.1,0-0.1l0.9-0.3c0,0,0.1,0,0.1,0c0.1,0.2,0.4,0.4,0.6,0.4
			c0.4,0,0.5-0.1,0.5-0.3c0-0.2-0.2-0.3-0.8-0.5c-0.8-0.2-1.3-0.5-1.3-1.3c0-0.8,0.7-1.3,1.8-1.3c0.9,0,1.4,0.3,1.6,0.9
			c0,0,0,0.1,0,0.1l-0.9,0.3c0,0-0.1,0-0.1,0c-0.1-0.2-0.3-0.4-0.6-0.4c-0.3,0-0.4,0.1-0.4,0.3c0,0.2,0.2,0.2,0.9,0.4
			c0.8,0.2,1.4,0.5,1.4,1.3C125.4,173.3,124.7,173.9,123.5,173.9z"/>
		<path fill="#323232" d="M134,173.7c-0.2,0-1,0-1.1,0c-0.1,0-0.1,0-0.1-0.1v-0.5c-0.1,0.4-0.6,0.6-1.1,0.6c-1.1,0-1.9-0.8-1.9-2.1
			c0-1.2,0.8-2.1,1.9-2.1c0.5,0,1,0.3,1.1,0.6v-0.5c0-0.1,0-0.1,0.1-0.1c0.5,0,0.8,0,1.2,0c0,0,0.1,0,0.1,0.1c0,1.5,0,2.4,0,3.9
			C134.1,173.7,134.1,173.7,134,173.7z M131.9,170.9c-0.5,0-0.8,0.4-0.8,0.9c0,0.5,0.4,0.8,0.8,0.8c0.4,0,0.8-0.3,0.8-0.8
			C132.7,171.2,132.4,170.9,131.9,170.9z"/>
		<path fill="#323232" d="M138.5,173.6c-0.2,0.1-0.5,0.2-0.8,0.2c-1.4,0-1.4-0.9-1.4-1.7v-1.4c-0.1,0-0.2,0-0.3,0
			c-0.1,0-0.1,0-0.1-0.1v-0.8c0,0,0-0.1,0.1-0.1c0.1,0,0.2,0,0.4,0l0-1c0-0.1,0-0.1,0.1-0.1c0.4,0,0.7,0,1.1,0
			c0.1,0,0.2,0.1,0.2,0.1l0,1c0.1,0,0.4,0,0.7,0c0.1,0,0.1,0,0.1,0.1v0.9c0,0.1,0,0.1-0.1,0.1c-0.2,0-0.5,0-0.7,0v1.5
			c0,0.4,0.2,0.5,0.7,0.4c0.1,0,0.1,0,0.2,0.1c0,0.1,0.1,0.6,0.1,0.8C138.6,173.6,138.6,173.6,138.5,173.6z"/>
	</g>
	<line fill="none" stroke="#323232" stroke-miterlimit="10" x1="89.2" y1="155.4" x2="111.2" y2="155.4"/>
</g>
</svg>
