<!-- Generator: Adobe Illustrator 18.0.0, SVG Export Plug-In  -->
<svg version="1.1"
	 xmlns="http://www.w3.org/2000/svg" xmlns:xlink="http://www.w3.org/1999/xlink" xmlns:a="http://ns.adobe.com/AdobeSVGViewerExtensions/3.0/"
	 x="0px" y="0px" width="216.8px" height="70.8px" viewBox="0 0 216.8 70.8" enable-background="new 0 0 216.8 70.8"
	 xml:space="preserve">
<defs>
</defs>
<g>
	<g>
		<path fill="#FFF3E4" d="M10.9,53.8C3.9,53.8,0,48.8,0,44c0-4.6,3.8-9.8,10.9-9.8c7.2,0,10.9,5.2,10.9,9.8
			C21.9,48.9,17.8,53.8,10.9,53.8z M10.9,38.2c-3.6,0-6,2.3-6,5.8s2.4,5.8,6,5.8c3.6,0,6-2.3,6-5.8S14.6,38.2,10.9,38.2z"/>
		<path fill="#FFF3E4" d="M27.4,41.7c1.1-1,2.3-1.4,3.7-1.4c3.4,0,6,2.9,6,6.6c0,4.1-2.5,6.9-6.4,6.9c-1.1,0-2.4-0.3-3.3-0.9V60
			h-4.1V40.6h4.1V41.7z M27.4,50.2c0.8,0.6,1.5,0.8,2.4,0.8c2,0,3.2-1.5,3.2-3.9c0-2.5-1.1-3.9-3.1-3.9c-0.9,0-1.5,0.3-2.5,1V50.2z"
			/>
		<path fill="#FFF3E4" d="M52.1,52.1c-2.3,1.7-4.8,1.7-5.8,1.7c-4.5,0-7.5-2.6-7.5-6.7c0-3.9,2.8-6.7,6.8-6.7c3.8,0,6.9,2.7,6.7,7.4
			H43c0.1,2.3,1.7,3.6,4.3,3.6c1.6,0,2.9-0.5,4.8-1.8V52.1z M48.7,45.6c-0.2-1.8-1.2-2.8-2.8-2.8c-1.6,0-2.6,1-2.8,2.8H48.7z"/>
		<path fill="#FFF3E4" d="M58.1,42.5c1.3-1.5,2.5-2.1,4.2-2.1c2,0,4.7,1.1,4.7,5v8.2h-4.1v-7.9c0-1.8-0.9-2.6-2-2.6
			c-1,0-1.8,0.5-2.8,2.1v8.3H54V40.6h4.1V42.5z"/>
		<path fill="#FFF3E4" d="M85.6,34.4c4.4,0,6.3,3.1,6.3,5.7c0,2.7-1.9,5.8-6.3,5.8h-3.8v7.7h-4.8V34.4H85.6z M81.8,42.4H84
			c2.2,0,3-0.8,3-2.2c0-1.6-0.9-2.2-3.5-2.2h-1.7V42.4z"/>
		<path fill="#FFF3E4" d="M99,53.8c-4.2,0-7.3-2.7-7.3-6.7c0-4.4,3.5-6.7,7.3-6.7c3.2,0,7.3,1.8,7.3,6.7
			C106.3,52.2,101.9,53.8,99,53.8z M99,42.8c-1.8,0-3,1.4-3,4.3c0,3.3,1.4,4.3,3,4.3c1.9,0,2.9-1.6,2.9-4.4
			C101.9,44.5,101.1,42.8,99,42.8z"/>
		<path fill="#FFF3E4" d="M112.3,53.5h-4.1V34.4h4.1V53.5z"/>
		<path fill="#FFF3E4" d="M119.1,59.7h-4.3l3.8-8.3l-5-10.8h4.3l2.7,6.6l2.9-6.6h4.3L119.1,59.7z"/>
		<path fill="#FFF3E4" d="M138.9,43.4h-4.7v5.3c0,1.3,0.7,2.1,2,2.1c0.8,0,1.6-0.2,2.7-0.8V53c-1.4,0.6-2.5,0.8-3.8,0.8
			c-2.7,0-5-1.2-5-4.8v-5.5h-1.8v-0.8l5.4-6h0.5v4.1h4.7V43.4z"/>
		<path fill="#FFF3E4" d="M153.3,52.1c-2.3,1.7-4.8,1.7-5.8,1.7c-4.5,0-7.5-2.6-7.5-6.7c0-3.9,2.8-6.7,6.8-6.7
			c3.8,0,6.9,2.7,6.7,7.4h-9.3c0.1,2.3,1.7,3.6,4.3,3.6c1.6,0,2.9-0.5,4.8-1.8V52.1z M150,45.6c-0.2-1.8-1.2-2.8-2.8-2.8
			c-1.6,0-2.6,1-2.8,2.8H150z"/>
		<path fill="#FFF3E4" d="M167.2,52.9c-1.6,0.6-3,0.9-4.4,0.9c-4.5,0-7.5-2.6-7.5-6.7c0-3.9,3.1-6.7,7.3-6.7c1.3,0,3,0.3,4.3,0.8v3
			c-1.1-0.6-2.3-0.9-3.3-0.9c-2.4,0-4,1.5-4,3.7c0,2.3,1.5,3.8,3.9,3.8c1,0,1.8-0.2,3.6-0.9V52.9z"/>
		<path fill="#FFF3E4" d="M173.7,42.5L173.7,42.5c1.2-1.5,2.5-2.2,4.1-2.2c2.4,0,4.7,1.4,4.7,4.9v8.2h-4.1v-7.4
			c0-1.9-0.8-2.8-2.1-2.8c-1,0-1.8,0.6-2.7,2v8.2h-4.1V34.4h4.1V42.5z"/>
		<path fill="#FFF3E4" d="M188.5,42.5c1.3-1.5,2.5-2.1,4.2-2.1c2,0,4.7,1.1,4.7,5v8.2h-4.1v-7.9c0-1.8-0.9-2.6-2-2.6
			c-1,0-1.8,0.5-2.8,2.1v8.3h-4.1V40.6h4.1V42.5z"/>
		<path fill="#FFF3E4" d="M203.7,36.4c0,1.2-1,2.2-2.2,2.2c-1.2,0-2.2-1-2.2-2.2c0-1.2,1-2.2,2.2-2.2
			C202.7,34.2,203.7,35.2,203.7,36.4z M203.5,53.5h-4.1V40.6h4.1V53.5z"/>
		<path fill="#FFF3E4" d="M216.8,52.9c-1.6,0.6-3,0.9-4.4,0.9c-4.5,0-7.5-2.6-7.5-6.7c0-3.9,3.1-6.7,7.3-6.7c1.3,0,3,0.3,4.3,0.8v3
			c-1.1-0.6-2.3-0.9-3.3-0.9c-2.4,0-4,1.5-4,3.7c0,2.3,1.5,3.8,3.9,3.8c1,0,1.8-0.2,3.6-0.9V52.9z"/>
	</g>
	<g>
		<path fill="#FFF3E4" d="M7.4,70.5l0.1,0.1l-1.7,0l0,0l-3.7-3.6v3.6H2.1H0.9V63H1h1.2v3.3L5.2,63h1.5l-3.3,3.6L7.4,70.5"/>
	</g>
	<g>
		<path fill="#FFF3E4" d="M15.5,67.8V63h0.1h1.2v4.5c0,0.8,0.1,1.2,0.4,1.5l0,0c0.4,0.4,0.9,0.6,1.6,0.6l0,0c0.8,0,1.4-0.3,1.7-0.6
			l0,0c0.4-0.4,0.5-0.9,0.5-1.6l0,0V63h0.1h1.2v4.6c0,1.9-1.1,3.1-3.4,3.1l0,0C17.1,70.8,15.5,69.9,15.5,67.8L15.5,67.8z"/>
	</g>
	<g>
		<path fill="#FFF3E4" d="M61.9,70.7h-1.2v-6.5h-2.6v-0.1v-1h6.4v0.1v1v0.1H62L61.9,70.7L61.9,70.7L61.9,70.7z"/>
	</g>
	<g>
		<path fill="#FFF3E4" d="M74.1,70.7H73V63h0.1h1.2L74.1,70.7L74.1,70.7L74.1,70.7L74.1,70.7z"/>
	</g>
	<g>
		<path fill="#FFF3E4" d="M90.2,70.7l-1,0L84.4,65v5.7h-0.1h-1.1V63h0.1l0.9,0l5,5.7V63h0.1h1.1L90.2,70.7L90.2,70.7L90.2,70.7
			L90.2,70.7z"/>
	</g>
	<g>
		<path fill="#FFF3E4" d="M100.5,70.7h-1.2V63h0.1h1.2L100.5,70.7L100.5,70.7L100.5,70.7L100.5,70.7z"/>
	</g>
	<g>
		<path fill="#FFF3E4" d="M121.9,70.7h-1.2l0-6.5h-2.6v-0.1v-1h6.4v0.1v1v0.1h-2.6L121.9,70.7L121.9,70.7L121.9,70.7z"/>
	</g>
	<g>
		<path fill="#FFF3E4" d="M132.7,67.8V63h0.1h1.2v4.5c0,0.8,0.1,1.2,0.4,1.5l0,0c0.4,0.4,0.9,0.6,1.6,0.6l0,0c0.8,0,1.4-0.3,1.7-0.6
			l0,0c0.4-0.4,0.5-0.9,0.5-1.6l0,0V63h0.1h1.2v4.6c0,1.9-1.1,3.1-3.4,3.1l0,0C134.3,70.8,132.7,69.9,132.7,67.8L132.7,67.8z"/>
	</g>
	<g>
		<path fill="#FFF3E4" d="M150.7,70.7h-0.2 M155.8,70.7h-0.2"/>
		<path fill="#FFF3E4" d="M155.8,70.7h-0.3l-2.4-6l-2.4,6h0h-0.3l-3.1-7.7h0.1h1.1l2,5l2-5h0.1h1.1l2,5l2-5h0.1h1.2L155.8,70.7
			L155.8,70.7L155.8,70.7L155.8,70.7z M155.8,70.7L155.8,70.7"/>
	</g>
	<g>
		<path fill="#FFF3E4" d="M173.6,70.7h-1.2l0-3.3h-4.1v3.3h-0.1h-1.2V63h0.1h1.2v3.3h4.1V63h0.1h1.2L173.6,70.7L173.6,70.7
			L173.6,70.7L173.6,70.7z"/>
	</g>
	<g>
		<path fill="#FFF3E4" d="M182.7,70.7V63h4.4v0.1v1v0.1h-3.2v2.1h3.1v0.1v1h-3.1v2.2h3.3v0.1v1H182.7L182.7,70.7z"/>
	</g>
	<g>
		<path fill="#FFF3E4" d="M197.7,63c1.5,0,2.5,0.8,2.5,2.2l0,0c0,0.8-0.4,1.5-1.2,1.9l0,0c0.6,0.5,1,1.1,1.6,2l0,0
			c0.3,0.5,0.5,0.8,1,1.5l0,0l0.1,0.1h-0.1l0,0h-1.3l-1-1.6c-1-1.5-1.4-1.7-1.9-1.7l0,0h-0.4v3.3h-0.1h-1.2V63H197.7 M197.5,66.3
			c1.1,0,1.4-0.5,1.4-1.1l0,0c0,0,0,0,0,0l0,0c0-0.7-0.4-1-1.4-1.1l0,0h-0.6v2.2H197.5L197.5,66.3z"/>
	</g>
	<g>
		<path fill="#FFF3E4" d="M32.9,63c1.5,0,2.5,0.8,2.5,2.2l0,0c0,0.8-0.4,1.5-1.2,1.9l0,0c0.6,0.5,1,1.1,1.6,2l0,0
			c0.3,0.5,0.5,0.8,1,1.5l0,0l0.1,0.1h-0.1l0,0h-1.3l-1-1.6c-1-1.5-1.4-1.7-1.9-1.7l0,0h-0.4v3.3h-0.1h-1.2V63H32.9 M32.8,66.3
			c1.1,0,1.4-0.5,1.4-1.1l0,0c0,0,0,0,0,0l0,0c0-0.7-0.4-1-1.4-1.1l0,0h-0.6v2.2H32.8L32.8,66.3z"/>
	</g>
	<path fill="#FFF3E4" d="M51.7,70.6L48.4,63h-0.9l-3.3,7.7h1.3l0.9-2.2h3.1l1,2.2h1.3L51.7,70.6z M46.9,67.3l1-2.5l1.1,2.5H46.9z"/>
	<path fill="#FFF3E4" d="M216.5,70.6l-3.4-7.6h-0.9l-3.3,7.7h1.3l0.9-2.2h3.1l1,2.2h1.3L216.5,70.6z M211.6,67.3l1-2.5l1.1,2.5
		H211.6z"/>
</g>
<g>
	<path fill="#FFF3E4" d="M56.4,11.3h-3.3V1.2h2.8c1.3,0,2.8,0.9,2.8,2.7c0,0.7-0.3,1.5-0.9,1.8c0.9,0.3,1.9,1.3,1.9,2.6
		C59.7,10.3,57.9,11.3,56.4,11.3z M55.6,2.4h-1.1v2.7h1.1c0.8,0,1.6-0.4,1.6-1.3C57.2,2.9,56.5,2.4,55.6,2.4z M56,6.4h-1.5V10H56
		c1.1,0,2.1-0.6,2.1-1.8C58.1,7,57.1,6.4,56,6.4z"/>
	<path fill="#FFF3E4" d="M65.1,5.6c-0.1,0-0.3-0.1-0.5-0.1c-0.9,0-1.9,0.4-1.9,2.1v3.6h-1.4V4.1h1.4v1.5h0c0.3-1,1.1-1.6,2.1-1.6
		c0.2,0,0.5,0,0.7,0.1L65.1,5.6z"/>
	<path fill="#FFF3E4" d="M69.3,11.5c-2.1,0-3.8-1.5-3.8-3.8c0-2.2,1.7-3.8,3.8-3.8s3.8,1.5,3.8,3.8C73.1,9.9,71.5,11.5,69.3,11.5z
		 M69.3,5.2c-1.3,0-2.4,1-2.4,2.5c0,1.5,1.1,2.5,2.4,2.5c1.3,0,2.4-1,2.4-2.5C71.7,6.2,70.6,5.2,69.3,5.2z"/>
	<path fill="#FFF3E4" d="M79.6,11.3v-0.9h0c-0.3,0.6-1,1.1-2.2,1.1c-1.6,0-2.7-1-2.7-2.6V4.1H76v4.6c0,0.7,0.5,1.5,1.7,1.5
		c1.2,0,1.7-0.8,1.7-1.5V4.1h1.4v7.2H79.6z"/>
	<path fill="#FFF3E4" d="M85.6,15c-2,0-3.3-1.1-3.3-2.6c0-1.3,0.8-1.9,1.6-2.1l-0.8-0.8c0-0.5,0.4-1,0.9-1.1c-0.7-0.4-1.2-1-1.2-2
		c0-1.4,1.1-2.4,2.7-2.4c0.4,0,0.7,0,1,0.1s0.6,0.1,1,0.1c0.3,0,0.8-0.1,1-0.3l0.3,1.2c-0.2,0.1-0.6,0.2-0.9,0.2
		c0.2,0.2,0.3,0.6,0.3,1.1c0,1.3-1,2.4-2.7,2.4c-0.6,0-0.9,0.1-0.9,0.4c0,0.1,0,0.2,0.2,0.3l1.9,0.7c1.3,0.4,2,1.1,2,2.5
		C88.8,14,87.5,15,85.6,15z M86.3,11.4L85.1,11c-0.9,0-1.5,0.6-1.5,1.4c0,0.7,0.6,1.4,1.9,1.4c1.3,0,1.9-0.7,1.9-1.2
		C87.4,12,87,11.6,86.3,11.4z M85.5,5.1c-0.8,0-1.4,0.6-1.4,1.2c0,0.7,0.6,1.2,1.4,1.2c0.7,0,1.4-0.6,1.4-1.2
		C86.9,5.7,86.3,5.1,85.5,5.1z"/>
	<path fill="#FFF3E4" d="M94.9,11.3V6.7c0-0.7-0.5-1.5-1.7-1.5c-1.2,0-1.7,0.8-1.7,1.5v4.6h-1.4V0h1.4v4.9h0c0.3-0.5,1-0.9,2.1-0.9
		c1.6,0,2.7,1,2.7,2.6v4.8H94.9z"/>
	<path fill="#FFF3E4" d="M102.5,5.3h-2.3v3.8c0,0.8,0.4,1.1,1.2,1.1c0.3,0,0.5,0,0.7-0.1l-0.1,1.1c-0.2,0.1-0.5,0.1-0.8,0.1
		c-1.3,0-2.4-0.7-2.4-2.1v-4h-1.4V4.1h1.4V2.7l1.4-0.7v2.2h2.5L102.5,5.3z"/>
	<path fill="#FFF3E4" d="M111.9,5.3h-2.3v3.8c0,0.8,0.4,1.1,1.2,1.1c0.3,0,0.5,0,0.7-0.1l-0.1,1.1c-0.2,0.1-0.5,0.1-0.8,0.1
		c-1.3,0-2.4-0.7-2.4-2.1v-4h-1.4V4.1h1.4V2.7l1.4-0.7v2.2h2.5L111.9,5.3z"/>
	<path fill="#FFF3E4" d="M116.5,11.5c-2.1,0-3.8-1.5-3.8-3.8c0-2.2,1.7-3.8,3.8-3.8s3.8,1.5,3.8,3.8
		C120.3,9.9,118.6,11.5,116.5,11.5z M116.5,5.2c-1.3,0-2.4,1-2.4,2.5c0,1.5,1.1,2.5,2.4,2.5c1.3,0,2.4-1,2.4-2.5
		C118.9,6.2,117.8,5.2,116.5,5.2z"/>
	<path fill="#FFF3E4" d="M129,10.6c-1.1,2.7-2.3,3.8-3.7,4.4l-0.9-0.9c1.3-0.6,2.3-1.4,3.1-3.5l-2.7-6.6h1.5l1.3,3.3
		c0.2,0.4,0.4,1.1,0.6,1.7h0c0.2-0.5,0.5-1.2,0.7-1.6l1.3-3.3h1.4L129,10.6z"/>
	<path fill="#FFF3E4" d="M136,11.5c-2.1,0-3.8-1.5-3.8-3.8c0-2.2,1.7-3.8,3.8-3.8s3.8,1.5,3.8,3.8C139.9,9.9,138.2,11.5,136,11.5z
		 M136,5.2c-1.3,0-2.4,1-2.4,2.5c0,1.5,1.1,2.5,2.4,2.5c1.3,0,2.4-1,2.4-2.5C138.4,6.2,137.3,5.2,136,5.2z"/>
	<path fill="#FFF3E4" d="M146.3,11.3v-0.9h0c-0.3,0.6-1,1.1-2.2,1.1c-1.6,0-2.7-1-2.7-2.6V4.1h1.4v4.6c0,0.7,0.5,1.5,1.7,1.5
		c1.2,0,1.7-0.8,1.7-1.5V4.1h1.4v7.2H146.3z"/>
	<path fill="#FFF3E4" d="M156.1,11.5c-1.3,0-2.6-0.5-3.1-0.9V0h1.4v4.5c0.3-0.3,1.2-0.6,2-0.6c2.1,0,3.6,1.6,3.6,3.7
		C160.1,9.9,158.6,11.5,156.1,11.5z M156.4,5.2c-1,0-1.6,0.5-1.8,0.7v3.9c0.2,0.2,0.9,0.4,1.5,0.4c1.7,0,2.7-1,2.7-2.6
		C158.6,6.3,157.6,5.2,156.4,5.2z"/>
	<path fill="#FFF3E4" d="M164.8,10.6c-1.1,2.7-2.3,3.8-3.7,4.4l-0.9-0.9c1.3-0.6,2.3-1.4,3.1-3.5l-2.7-6.6h1.5l1.3,3.3
		c0.2,0.4,0.4,1.1,0.6,1.7h0c0.2-0.5,0.5-1.2,0.7-1.6l1.3-3.3h1.4L164.8,10.6z"/>
</g>
</svg>
