<!-- Generator: Adobe Illustrator 18.0.0, SVG Export Plug-In  -->
<svg version="1.1"
	 xmlns="http://www.w3.org/2000/svg" xmlns:xlink="http://www.w3.org/1999/xlink" xmlns:a="http://ns.adobe.com/AdobeSVGViewerExtensions/3.0/"
	 x="0px" y="0px" width="276.6px" height="126.8px" viewBox="0 0 276.6 126.8" enable-background="new 0 0 276.6 126.8"
	 xml:space="preserve">
<defs>
</defs>
<g>
	<path fill="#323232" d="M1.1,88.9c0.2-4.8,0.4-7.9,0.4-9.4c1.2-27.2,1-50.9-0.8-70.8C0.5,8.3,0.3,7.9,0.1,7.3
		c-0.6-2.1,0.6-4,2.7-4.6c15.4-3.9,27.8,0.2,34.7,10c6.9,9.1,6.4,23.1-2.3,34.1c-4.4,5.6-9.6,10-15.6,13.3c-2.1,1.2-2.7,2.9-1.5,5.2
		c2.5,4.6,5.4,10.6,8.5,17.7c1,1.7,3.1,7.3,6.7,16.8c2.5,6.7,4.8,12,6.9,15.8c1.3,2.1,0.6,4-1.3,5.2c-1.9,1.2-4.2,0.4-5.2-1.3
		c-2.5-4.2-5-9.8-7.7-16.8c-5-13.5-8.3-21.4-12-28.5c-1.7-3.5-4.6-10-4.6,1.2c0,1.5-0.2,3.1-0.2,4.4C9,81.6,9,84.6,8.8,89.3
		c-0.2,4.6-0.4,8.1-0.6,10.4c-0.2,4.6-0.2,12.7,0.4,18.7c0.2,2.1-1.3,4-3.5,4.2c-2.1,0.2-4-1.3-4.2-3.5c-0.6-6.2-0.6-15-0.4-19.9
		L1.1,88.9z M10.6,55.1l-0.2-0.2c1.9,0,3.1-0.2,4.8-1.2c11.2-5.6,18.9-16.4,19.5-25.3c0.2-4.6-0.8-8.5-3.3-11.4
		c-3.9-5.4-10.6-8.7-19.1-8.3c-2.5,0-3.7,1.7-3.7,4c0.8,10.8,1.1,23.3,1.1,38C9.8,53.6,10.2,55.1,10.6,55.1z"/>
	<path fill="#323232" d="M63.2,7.7c-2.1,0-3.3,0-3.3,0.2c-0.4,0.8-0.6,1.9-0.8,3.5c-0.6,6-0.2,13.5,0.8,23.7
		c0.4,4.8,0.6,7.9,0.6,8.9c0,1.2,0,3.3,0,6.6c-0.2,2.7,1.2,4,3.7,4c1.9,0,3.5,0,5-0.2c2.1,0,4,1.5,4,3.7s-1.5,4-3.7,4
		c-1.5,0.2-3.7,0.2-5.8,0.2c-2.5,0-3.9,1.3-4,3.9c-0.6,17.7-1,32.6-0.2,43.2c0.2,3.3,0.4,5.8,1,7.5c0,0.2,0.2,0.6,0.2,0.8
		c0,0.4,1,1,3.1,1.3c4,0.6,8.9,0,14.5-0.4c2.9-0.2,5-0.4,6.4-0.4c2.1,0,3.9,1.7,3.9,3.9s-1.7,3.9-3.9,3.9c-1.2,0-3.1,0.2-5.8,0.4
		c-3.5,0.2-6,0.4-7.3,0.4c-6.4,0.4-11.2-0.2-14.5-1.7c-2.5-1-3.5-3.5-4-6.4c-0.6-2.1-1-5-1.2-8.7c-0.8-11.8-0.4-28.5,0.2-41.3
		c0.2-6.4,0.4-11.6,0.6-16c0.2-4.2,0.2-7.1,0.2-8.7c0-0.8-0.2-3.5-0.6-8.1c-1-10.6-1.3-19.1-0.8-25.3c0.6-4,1.3-7.9,4.2-9.6
		c0.8-0.6,1.9-0.8,3.5-1h12.5c9.3,0.4,14.3,0.6,15,0.4c2.3-0.2,4,1.3,4.2,3.5C91.2,5,90.8,6,90.2,6.7c-0.8,0.8-1.7,1.2-2.7,1.3
		c-1,0.2-6.4,0-16-0.4h-8.1H63.2z"/>
	<path fill="#323232" d="M107.2,61.9c-1.9,1.2-2.7,1.9-2.7,2.7c-0.6,24.1,0.2,42.8,2.1,56.3c0.2,2.3-1.2,4.2-3.3,4.4
		c-2.3,0.2-4.2-1.2-4.4-3.3c-1.9-13.7-2.7-33-2.1-57.6c0.6-24.5,0.4-42-0.4-53c-0.2-1.9-1.3-2.9-1.9-4.8c0-0.4,0-0.6,0-1
		c0-2.1,1.5-4,3.7-4c13.1-0.6,25.4,7.3,30.3,19.9c2.5,6.4,2.5,12.7,0.4,19.5c-1.7,6-5.4,10.6-10.4,14.3c-2.5,1.9-4.8,3.5-6.7,4.4
		L107.2,61.9z M109.5,51.9c6.2-3.9,10-7.7,12-13.3c3.8-11.6-2.5-22.7-12.7-27.4c-2.7-1.2-4.4,0.4-4.2,3.3c0.4,9.1,0.6,20.4,0.4,34.5
		C104.7,52.1,106.8,53.6,109.5,51.9z"/>
	<path fill="#323232" d="M145.2,7.1c-0.8,17.2-0.8,35.9-0.4,60.2c0.2,12.1,0.2,21.4,0.2,27.6c0,7.9,0,12.5,0.2,13.9
		c0.2,2.9,0.4,5.4,0.8,7.1c0,0.4,0.2,0.6,0.2,1c0.2,0.6,1.2,1.2,3.1,1.3c1.9,0.2,4.2,0.4,7.1,0.2c6.7-0.4,11.4-0.2,13.7,0.4
		c2.1,0.6,3.3,2.5,2.7,4.6s-2.5,3.3-4.6,2.7c-1.7-0.4-5.4-0.4-11.4,0c-6.4,0.2-11-0.4-14.1-1.7c-4-2.1-5-8.3-5.2-15.2
		c-0.2-1.3-0.2-6.2-0.2-14.3c0-6.2,0-15.4-0.2-27.8c-0.4-24.5-0.4-42.8,0.4-60.3c0-2.1,1.9-3.7,4-3.7C143.6,3.1,145.2,5,145.2,7.1z"
		/>
	<path fill="#323232" d="M215.5,31.6c4.2,30.5,6.4,60.5,6.4,90.4c0,2.1-1.7,3.9-3.9,3.9s-3.8-1.7-3.8-3.9c0-18.3-0.8-36.6-2.3-54.9
		c-0.2-2.5-1.5-3.7-4-3.9c-4.8-0.4-9.6-0.6-14.5-0.8c-2.3-0.2-3.8,1.2-4,3.5c-0.6,7.5-1.5,18.1-2.5,31.4c-1,14.5-1.7,22.7-2.1,24.9
		c-0.2,2.1-2.3,3.5-4.4,3.3s-3.5-2.3-3.3-4.4c0.2-1.7,1-9.8,2.1-24.3c2.5-32.4,4.4-55.1,7.7-71.9c2.1-10.2,4.6-18.1,9.2-20.4
		c8.5-4.4,14.1,1.2,16.6,9.4c1,3.9,1.7,8.5,2.3,13.7L215.5,31.6z M194.5,54.8c3.9,0,7.7,0.2,11.8,0.4c2.7,0.2,4.2-1.2,4-3.9
		c-0.8-6.2-1.5-12.3-2.5-18.5c0-1-0.6-7.1-1.1-11.2c-0.6-2.9-1.5-6.4-2.7-8.7c-0.8-1.5-1.9-2.9-3.5-2.1c-1,0.6-2.1,1.9-3.1,4.4
		c-1,2.7-2.1,6.4-3.1,11.2c-1.2,6.4-2.3,14.3-3.5,24.1C190.7,53.2,191.8,54.6,194.5,54.8z"/>
	<path fill="#323232" d="M266,37.8c-2.5,6.4-4.8,13.5-7.3,21.4l-6.2,19.5l-6.6,22.2l-6.2,20.2c-0.6,2.1-2.7,3.3-4.8,2.5
		c-2.1-0.6-3.3-2.7-2.5-4.8c11.4-37.6,17.2-57.3,17.5-58.6c-0.2-0.2-0.4-0.6-0.6-1c-2.1-5-6-13.1-11.6-24.3
		c-5.6-11.2-9.4-19.5-11.6-25.1c-0.8-1.7,0.4-4.2,2.3-5c1.9-0.8,4.2,0.2,5,2.3c2.3,6,6,14.1,11.2,24.3c2.3,4.8,4.4,8.9,6,11.9
		c1.3,3.1,2.9,5.8,5-0.2l2.9-8.1c0.4-1,1.3-3.7,2.7-7.9c2.9-8.3,5-13.3,8.1-18.5c1.3-1.7,3.7-2.3,5.4-1.2c1.7,1.2,2.1,3.7,1.1,5.4
		c-2.9,4.4-4.4,8.7-7.3,16.6L266,37.8z"/>
</g>
</svg>
