<!-- Generator: Adobe Illustrator 18.0.0, SVG Export Plug-In  -->
<svg version="1.1"
	 xmlns="http://www.w3.org/2000/svg" xmlns:xlink="http://www.w3.org/1999/xlink" xmlns:a="http://ns.adobe.com/AdobeSVGViewerExtensions/3.0/"
	 x="0px" y="0px" width="25px" height="12.2px" viewBox="0 0 25 12.2" enable-background="new 0 0 25 12.2" xml:space="preserve">
<defs>
</defs>
<g>
	<path fill="#323232" d="M3.3,6.5c0.2,0.2,0.7,0.7,0.9,1c0.2,0.3,0.5,0.8,0.6,1.2c0.1,0.4,0.1,1-0.1,1.6c-0.2,0.8-1,1.4-1.8,1.6
		c-0.9,0.2-1.8-0.1-2.2-0.9c-0.1-0.2-0.2-0.4-0.2-0.6c-0.1-0.2-0.1-0.5-0.1-0.6c0-0.1,0-0.5,0-0.6V8.6c0-0.2,0.2-0.4,0.4-0.4
		S1,8.4,1,8.6v0.2c0,0.8,0.1,1.4,0.3,1.8C1.5,11,2.1,11.2,2.7,11c0.6-0.1,1.1-0.5,1.2-1C4,9.6,4,9.2,4,8.8c-0.1-0.3-0.3-0.7-0.5-1
		C3.4,7.7,3.3,7.6,3.2,7.5L2.7,7.1C2.6,6.9,2.5,6.8,2.3,6.7L2,6.5C1.5,6,1.3,5.9,0.8,5.4C0.4,4.8,0.2,4.5,0.1,3.9C0,3.6,0,3.3,0,2.9
		c0.3-1.7,1.5-2.7,2.8-2.7C4.1,0.4,5,1.6,4.7,3.5c0,0.2-0.2,0.3-0.4,0.3C4.1,3.8,4,3.6,4,3.4C4.2,1.9,3.6,1.1,2.7,1
		C1.9,1,1,1.7,0.8,3.1c-0.1,0.6,0,1.1,0.4,1.6C1.7,5.2,1.9,5.4,2.6,6C2.7,6,2.7,6.1,2.7,6.1L3.3,6.5z"/>
	<path fill="#323232" d="M9.9,0.7c0,0.2-0.2,0.4-0.4,0.4c-0.4,0-0.9,0-1.6,0c-0.3,0-0.4,0.1-0.4,0.4c0,0.4,0.1,0.8,0,1.4
		c0,0.4,0,0.6,0,0.8c0,0.5,0,1.3-0.1,2.4c-0.1,2.2-0.1,3.9,0.1,5.2c0,0.2-0.1,0.4-0.3,0.4S7,11.6,7,11.4C6.8,10,6.8,8.2,6.9,6
		c0-1.1,0.1-1.9,0.1-2.4c0-0.2,0-0.4,0-0.8c0-0.3,0-0.6,0-0.8c0,0.5-0.1-0.4-0.1-0.6C6.9,1.2,6.7,1,6.5,1c-0.4,0-0.7,0-1,0
		C5.3,1.1,5.1,1,5.1,0.7c0-0.2,0.1-0.4,0.3-0.4c0.5,0,1.2,0,2.1,0c1,0,1.6,0,2,0C9.8,0.3,9.9,0.5,9.9,0.7z"/>
	<path fill="#323232" d="M14.1,3c0.4,3,0.6,5.9,0.6,8.8c0,0.2-0.2,0.4-0.4,0.4S14,12,14,11.8c0-1.8-0.1-3.6-0.2-5.4
		c0-0.2-0.2-0.4-0.4-0.4C12.9,6,12.4,6,12,6c-0.2,0-0.4,0.1-0.4,0.3c-0.1,0.7-0.2,1.8-0.2,3.1c-0.1,1.4-0.2,2.2-0.2,2.4
		c0,0.2-0.2,0.3-0.4,0.3s-0.3-0.2-0.3-0.4c0-0.2,0.1-1,0.2-2.4c0.2-3.2,0.4-5.4,0.8-7c0.2-1,0.5-1.8,0.9-2c0.8-0.4,1.4,0.1,1.6,0.9
		c0.1,0.4,0.2,0.8,0.2,1.3L14.1,3z M12.1,5.2c0.4,0,0.8,0,1.1,0c0.3,0,0.4-0.1,0.4-0.4c-0.1-0.6-0.2-1.2-0.2-1.8
		c0-0.1-0.1-0.7-0.1-1.1c-0.1-0.3-0.2-0.6-0.3-0.8c-0.1-0.2-0.2-0.3-0.3-0.2c-0.1,0.1-0.2,0.2-0.3,0.4C12.3,1.6,12.1,2,12,2.5
		c-0.1,0.6-0.2,1.4-0.3,2.4C11.7,5.1,11.8,5.2,12.1,5.2z"/>
	<path fill="#323232" d="M15.8,8.6c0-0.5,0-0.8,0-0.9c0.1-2.7,0.1-5-0.1-6.9c0,0,0-0.1-0.1-0.1c-0.1-0.2,0.1-0.4,0.3-0.5
		c1.5-0.4,2.7,0,3.4,1C20,2,20,3.4,19.1,4.5c-0.4,0.5-0.9,1-1.5,1.3c-0.2,0.1-0.3,0.3-0.2,0.5c0.2,0.5,0.5,1,0.8,1.7
		c0.1,0.2,0.3,0.7,0.7,1.6c0.2,0.7,0.5,1.2,0.7,1.5c0.1,0.2,0.1,0.4-0.1,0.5c-0.2,0.1-0.4,0-0.5-0.1c-0.2-0.4-0.5-1-0.8-1.6
		c-0.5-1.3-0.8-2.1-1.2-2.8c-0.2-0.3-0.5-1-0.5,0.1c0,0.2,0,0.3,0,0.4c0,0.2,0,0.5,0,0.9c0,0.5,0,0.8-0.1,1c0,0.5,0,1.2,0,1.8
		c0,0.2-0.1,0.4-0.3,0.4c-0.2,0-0.4-0.1-0.4-0.3c-0.1-0.6-0.1-1.5,0-1.9L15.8,8.6z M16.7,5.3L16.7,5.3c0.2,0,0.3,0,0.5-0.1
		c1.1-0.5,1.8-1.6,1.9-2.5c0-0.5-0.1-0.8-0.3-1.1c-0.4-0.5-1-0.8-1.9-0.8c-0.2,0-0.4,0.2-0.4,0.4c0.1,1.1,0.1,2.3,0.1,3.7
		C16.6,5.1,16.7,5.3,16.7,5.3z"/>
	<path fill="#323232" d="M25,0.7c0,0.2-0.2,0.4-0.4,0.4c-0.4,0-0.9,0-1.6,0c-0.3,0-0.4,0.1-0.4,0.4c0,0.4,0.1,0.8,0,1.4
		c0,0.4,0,0.6,0,0.8c0,0.5,0,1.3-0.1,2.4c-0.1,2.2-0.1,3.9,0.1,5.2c0,0.2-0.1,0.4-0.3,0.4S22,11.6,22,11.4C21.8,10,21.8,8.2,21.9,6
		c0-1.1,0.1-1.9,0.1-2.4c0-0.2,0-0.4,0-0.8c0-0.3,0-0.6,0-0.8c0,0.5-0.1-0.4-0.1-0.6c0-0.2-0.1-0.4-0.4-0.4c-0.4,0-0.7,0-1,0
		c-0.2,0-0.4-0.1-0.4-0.4c0-0.2,0.1-0.4,0.3-0.4c0.5,0,1.2,0,2.1,0c1,0,1.6,0,2,0C24.8,0.3,25,0.5,25,0.7z"/>
</g>
</svg>
