<?xml version="1.0" encoding="utf-8"?>
<!-- Generator: Adobe Illustrator 21.0.0, SVG Export Plug-In . SVG Version: 6.00 Build 0)  -->
<svg version="1.1" id="Layer_1" xmlns="http://www.w3.org/2000/svg" xmlns:xlink="http://www.w3.org/1999/xlink" x="0px" y="0px"
	 viewBox="0 0 427.4 451.3" style="enable-background:new 0 0 427.4 451.3;" xml:space="preserve">
<style type="text/css">
	.st0{opacity:0.3;}
	.st1{fill:#BABBBF;}
	.st2{fill:#D5DBDA;}
	.st3{fill:#83ABB7;}
	.st4{fill:#EFEFEF;}
	.st5{fill:#64878C;}
	.st6{fill:#D9DADB;}
	.st7{fill:#B2B2B2;}
	.st8{fill:#756F6F;}
	.st9{opacity:0.47;fill:#D9DADB;enable-background:new    ;}
	.st10{fill:#646D78;}
	.st11{fill:#CCCCCC;}
	.st12{fill:#434A54;}
	.st13{fill:#FFFFFF;}
	.st14{opacity:0.62;fill:#DEDFE2;enable-background:new    ;}
</style>
<g class="st0">
	<rect y="317.6" class="st1" width="427.4" height="125.8"/>
	<rect y="0" class="st2" width="157.1" height="424.1"/>
	<rect x="14.5" y="14.5" class="st3" width="128.1" height="388.4"/>
	<rect x="14.5" y="312.7" class="st4" width="128.1" height="94"/>
	<rect x="77.2" y="312.7" class="st2" width="3.9" height="94"/>
	<rect x="14.5" y="254.1" class="st4" width="128.1" height="7.5"/>
	<rect x="14.5" y="187.2" class="st4" width="128.1" height="7.5"/>
	<rect x="14.5" y="117.2" class="st4" width="128.1" height="7.5"/>
	<rect x="14.5" y="61.2" class="st4" width="128.1" height="7.5"/>
	<rect x="63.3" y="342.6" class="st2" width="6.5" height="37.8"/>
	<rect x="86.8" y="342.6" class="st2" width="6.5" height="37.8"/>
	
		<rect x="27.8" y="270.1" transform="matrix(9.311369e-03 -1 1 9.311369e-03 -244.8644 299.268)" class="st5" width="1.6" height="6.2"/>
	<path class="st4" d="M31.7,312.7l-6.7-0.1c-3.3,0-6-2.3-6-5l0.2-19.2c0-2.7,6-4.9,6-4.9l6.7,0.1c0,0,6,2.3,6,5l-0.2,19.2
		C37.7,310.5,35,312.7,31.7,312.7z"/>
	<path class="st5" d="M31.1,310.4h-5.3c-2.6,0-4.7-1.8-4.7-3.9l0.1-15.2c0-2.1,4.8-3.8,4.8-3.8h5.3c0,0,4.7,1.8,4.7,3.9l-0.1,15.1
		C35.9,308.7,33.7,310.4,31.1,310.4z"/>
	
		<rect x="24.7" y="278.7" transform="matrix(9.308998e-03 -1 1 9.308998e-03 -254.3659 308.7805)" class="st4" width="7.9" height="8.1"/>
	
		<rect x="25.5" y="271.8" transform="matrix(9.304201e-03 -1 1 9.304201e-03 -248.0155 302.492)" class="st5" width="6.3" height="9.2"/>
	
		<rect x="22.3" y="276.1" transform="matrix(9.360897e-03 -1 1 9.360897e-03 -251.2357 299.0258)" class="st5" width="6" height="0.4"/>
	
		<rect x="24.3" y="276.1" transform="matrix(9.362064e-03 -1 1 9.362064e-03 -249.2537 301.0258)" class="st5" width="6" height="0.4"/>
	
		<rect x="26.7" y="276.1" transform="matrix(9.237270e-03 -1 1 9.237270e-03 -246.8735 303.4604)" class="st5" width="6" height="0.4"/>
	
		<rect x="28.9" y="276.2" transform="matrix(9.362064e-03 -1 1 9.362064e-03 -244.7972 305.7238)" class="st5" width="6" height="0.4"/>
	
		<rect x="27.8" y="274.6" transform="matrix(9.305988e-03 -1 1 9.305988e-03 -251.7642 306.1065)" class="st5" width="1.6" height="11"/>
	
		<ellipse transform="matrix(9.298311e-03 -1 1 9.298311e-03 -266.6961 321.0788)" class="st6" cx="28.7" cy="295.1" rx="2.6" ry="0.9"/>
	
		<ellipse transform="matrix(9.298311e-03 -1 1 9.298311e-03 -272.0978 326.2277)" class="st6" cx="28.6" cy="300.4" rx="2.6" ry="0.9"/>
	
		<ellipse transform="matrix(9.298310e-03 -1 1 9.298310e-03 -266.7595 326.2605)" class="st6" cx="31.3" cy="297.8" rx="0.9" ry="2.6"/>
	
		<ellipse transform="matrix(0.7137 -0.7005 0.7005 0.7137 -198.4859 106.0434)" class="st6" cx="30.5" cy="295.8" rx="2.6" ry="0.9"/>
	
		<ellipse transform="matrix(0.7137 -0.7005 0.7005 0.7137 -202.5597 104.3143)" class="st6" cx="26.3" cy="299.9" rx="2.6" ry="0.9"/>
	<ellipse transform="matrix(0.714 -0.7002 0.7002 0.714 -201.2839 107.0752)" class="st6" cx="30.4" cy="299.9" rx="0.9" ry="2.6"/>
	<ellipse transform="matrix(0.714 -0.7002 0.7002 0.714 -199.6365 103.2896)" class="st6" cx="26.6" cy="296" rx="0.9" ry="2.6"/>
	
		<ellipse transform="matrix(9.298310e-03 -1 1 9.298310e-03 -272.3065 321.0214)" class="st6" cx="25.9" cy="297.9" rx="0.9" ry="2.6"/>
	
		<ellipse transform="matrix(9.319615e-03 -1 1 9.319615e-03 -269.4951 323.5468)" class="st4" cx="28.5" cy="297.8" rx="1.3" ry="1.4"/>
	
		<rect x="50.6" y="270.1" transform="matrix(9.311288e-03 -1 1 9.311288e-03 -222.2762 322.0681)" class="st5" width="1.6" height="6.2"/>
	<path class="st4" d="M54.5,312.7l-6.7-0.1c-3.3,0-6-2.3-6-5l0.2-19.2c0-2.7,6-4.9,6-4.9l6.7,0.1c0,0,6,2.3,6,5l-0.2,19.2
		C60.5,310.5,57.8,312.7,54.5,312.7z"/>
	<path class="st5" d="M53.9,310.4h-5.3c-2.6,0-4.7-1.8-4.7-3.9l0.1-15.2c0-2.1,4.8-3.8,4.8-3.8h5.3c0,0,4.7,1.8,4.7,3.9l-0.1,15.2
		C58.7,308.7,56.5,310.4,53.9,310.4z"/>
	
		<rect x="47.5" y="278.7" transform="matrix(9.308993e-03 -1 1 9.308993e-03 -231.7775 331.5805)" class="st4" width="7.9" height="8.1"/>
	
		<rect x="48.3" y="271.8" transform="matrix(9.304201e-03 -1 1 9.304201e-03 -225.427 325.2921)" class="st5" width="6.3" height="9.2"/>
	
		<rect x="45.1" y="276.1" transform="matrix(9.362064e-03 -1 1 9.362064e-03 -228.6486 321.8253)" class="st5" width="6" height="0.4"/>
	
		<rect x="47.1" y="276.1" transform="matrix(9.360897e-03 -1 1 9.360897e-03 -226.6665 323.8261)" class="st5" width="6" height="0.4"/>
	
		<rect x="49.4" y="276.1" transform="matrix(9.236117e-03 -1 1 9.236117e-03 -224.3806 326.1607)" class="st5" width="6" height="0.4"/>
	
		<rect x="51.7" y="276.2" transform="matrix(9.362064e-03 -1 1 9.362064e-03 -222.21 328.5237)" class="st5" width="6" height="0.4"/>
	
		<rect x="50.6" y="274.6" transform="matrix(9.305942e-03 -1 1 9.305942e-03 -229.1758 328.9065)" class="st5" width="1.6" height="11"/>
	
		<ellipse transform="matrix(9.298311e-03 -1 1 9.298311e-03 -244.1684 343.9385)" class="st6" cx="51.5" cy="295.2" rx="2.6" ry="0.9"/>
	
		<ellipse transform="matrix(9.298591e-03 -1 1 9.298591e-03 -249.6701 349.1845)" class="st6" cx="51.4" cy="300.6" rx="2.6" ry="0.9"/>
	
		<ellipse transform="matrix(9.298310e-03 -1 1 9.298310e-03 -244.2247 349.1276)" class="st6" cx="54.1" cy="297.8" rx="0.9" ry="2.6"/>
	
		<ellipse transform="matrix(0.7137 -0.7005 0.7005 0.7137 -191.9495 122.0181)" class="st6" cx="53.3" cy="295.8" rx="2.6" ry="0.9"/>
	
		<ellipse transform="matrix(0.7137 -0.7005 0.7005 0.7137 -196.0236 120.289)" class="st6" cx="49.1" cy="299.9" rx="2.6" ry="0.9"/>
	<ellipse transform="matrix(0.714 -0.7002 0.7002 0.714 -194.7557 123.0409)" class="st6" cx="53.2" cy="299.9" rx="0.9" ry="2.6"/>
	<ellipse transform="matrix(0.714 -0.7002 0.7002 0.714 -193.1072 119.2577)" class="st6" cx="49.4" cy="296" rx="0.9" ry="2.6"/>
	
		<ellipse transform="matrix(9.328492e-03 -1 1 9.328492e-03 -249.6791 343.7739)" class="st6" cx="48.7" cy="297.9" rx="0.9" ry="2.6"/>
	
		<ellipse transform="matrix(9.319615e-03 -1 1 9.319615e-03 -246.968 346.4062)" class="st4" cx="51.3" cy="297.8" rx="1.3" ry="1.4"/>
	<polygon class="st4" points="135.8,172.3 135.8,172.3 133.7,169.2 135.4,169.2 135.4,165.3 134,165.3 134,164.7 134,164.7 
		134,164.1 134,162 136.2,162 136.3,159.1 133.7,159.1 132.4,147.9 130.7,147.9 129.3,159.1 126.9,159.1 126.9,162 129.3,162 
		129.3,162.3 129.3,164.7 129.3,165.3 127.8,165.3 127.8,169.2 129.7,169.2 126.8,173.3 126.8,187.4 136.4,187.4 136.4,173.3 	"/>
	<polygon class="st5" points="133.7,169.2 129.7,169.2 126.8,173.3 126.8,187.4 136.4,187.4 136.4,173.3 	"/>
	<polygon class="st7" points="134,165.3 129.3,165.3 129.3,162 134,162 	"/>
	<polygon class="st5" points="129.7,169.2 133.7,169.2 136.4,173.3 126.8,173.3 	"/>
	<polygon class="st5" points="90.5,158.7 84.3,158.8 79.8,165.1 79.8,187.1 94.7,187.1 94.7,165.1 	"/>
	<polygon class="st5" points="84.3,158.8 90.5,158.7 94.7,165.1 79.8,165.1 	"/>
	<rect x="83.8" y="153.4" class="st7" width="7.1" height="5.3"/>
	<rect x="81.8" y="151.4" class="st4" width="11" height="2"/>
	<rect x="88.7" y="152.1" class="st4" width="9.3" height="0.7"/>
	<rect x="97.7" y="151" class="st4" width="4" height="2.4"/>
	<rect x="81.9" y="170.6" class="st2" width="11.1" height="9.7"/>
	<rect x="85.9" y="171.7" class="st4" width="2.8" height="6.9"/>
	<rect x="83.9" y="174.1" class="st4" width="6.9" height="2.5"/>
	<polygon class="st5" points="112.4,158.7 106.2,158.8 101.7,165.1 101.7,187.1 116.6,187.1 116.6,165.1 	"/>
	<polygon class="st5" points="106.2,158.8 112.4,158.7 116.6,165.1 101.7,165.1 	"/>
	<rect x="105.7" y="153.4" class="st7" width="7.1" height="5.3"/>
	<rect x="103.7" y="151.4" class="st4" width="11" height="2"/>
	<rect x="110.6" y="152.1" class="st4" width="9.3" height="0.7"/>
	<rect x="119.6" y="151" class="st4" width="4" height="2.4"/>
	<rect x="103.8" y="170.6" class="st2" width="11.1" height="9.7"/>
	<rect x="107.8" y="171.7" class="st4" width="2.8" height="6.9"/>
	<rect x="105.8" y="174.1" class="st4" width="6.9" height="2.5"/>
	<polygon class="st5" points="28.8,225.7 22.6,225.8 18.1,232.1 18.1,254.1 32.9,254.1 32.9,232.1 	"/>
	<polygon class="st5" points="22.6,225.8 28.8,225.7 32.9,232.1 18.1,232.1 	"/>
	<rect x="22" y="220.4" class="st4" width="7.1" height="5.3"/>
	<polygon class="st5" points="50.1,225.7 43.9,225.8 39.4,232.1 39.4,254.1 54.3,254.1 54.3,232.1 	"/>
	<polygon class="st5" points="43.9,225.8 50.1,225.7 54.3,232.1 39.4,232.1 	"/>
	<rect x="43.4" y="220.4" class="st4" width="7.1" height="5.3"/>
	<polygon class="st5" points="71.4,225.7 65.2,225.8 60.7,232.1 60.7,254.1 75.6,254.1 75.6,232.1 	"/>
	<polygon class="st5" points="65.2,225.8 71.4,225.7 75.6,232.1 60.7,232.1 	"/>
	<rect x="64.7" y="220.4" class="st4" width="7.1" height="5.3"/>
	<path class="st4" d="M28.3,117.3h-2.8c-3.3,0-6-2.7-6-6V95.5c0-3.3,2.7-6,6-6h2.8c3.3,0,6,2.7,6,6v15.7
		C34.3,114.6,31.6,117.3,28.3,117.3z"/>
	<path class="st4" d="M27.1,97.4h-0.5c-2.1,0-3.7-1.7-3.7-3.7v-6.2c0-2.1,1.7-3.7,3.7-3.7h0.5c2.1,0,3.7,1.7,3.7,3.7v6.2
		C30.9,95.7,29.2,97.4,27.1,97.4z"/>
	<path class="st2" d="M31,86.6h-8.1c-0.9,0-1.7-0.8-1.7-1.7v-0.2c0-0.9,0.8-1.7,1.7-1.7H31c0.9,0,1.7,0.8,1.7,1.7v0.2
		C32.7,85.8,31.9,86.6,31,86.6z"/>
	<rect x="19.5" y="96.1" class="st5" width="14.9" height="13.2"/>
	<path class="st4" d="M50.6,117.3h-2.8c-3.3,0-6-2.7-6-6V95.5c0-3.3,2.7-6,6-6h2.8c3.3,0,6,2.7,6,6v15.7
		C56.6,114.6,53.9,117.3,50.6,117.3z"/>
	<path class="st4" d="M49.5,97.4h-0.6c-2.1,0-3.7-1.7-3.7-3.7v-6.2c0-2.1,1.7-3.7,3.7-3.7h0.5c2.1,0,3.7,1.7,3.7,3.7v6.2
		C53.2,95.7,51.5,97.4,49.5,97.4z"/>
	<path class="st2" d="M53.3,86.6h-8.1c-0.9,0-1.7-0.8-1.7-1.7v-0.2c0-0.9,0.8-1.7,1.7-1.7h8.1c0.9,0,1.7,0.8,1.7,1.7v0.2
		C55,85.8,54.2,86.6,53.3,86.6z"/>
	<path class="st4" d="M125.2,312.6h-0.9c-1,0-1.9-0.9-1.9-1.9v-5c0-1,0.9-1.9,1.9-1.9h0.9c1,0,1.9,0.9,1.9,1.9v5
		C127.1,311.8,126.3,312.7,125.2,312.6z"/>
	<path class="st4" d="M124.9,306.4h-0.2c-0.6,0-1.2-0.5-1.2-1.2v-2c0-0.6,0.5-1.2,1.2-1.2h0.2c0.6,0,1.2,0.5,1.2,1.2v2
		C126.1,305.9,125.6,306.4,124.9,306.4z"/>
	<path class="st2" d="M126.2,303h-2.6c-0.3,0-0.5-0.2-0.5-0.5v-0.1c0-0.3,0.2-0.5,0.5-0.5h2.6c0.3,0,0.5,0.2,0.5,0.5v0.1
		C126.7,302.7,126.5,303,126.2,303z"/>
	<path class="st4" d="M130.2,61.1h-0.9c-1,0-1.9-0.9-1.9-1.9v-5c0-1,0.9-1.9,1.9-1.9h0.9c1,0,1.9,0.9,1.9,1.9v5
		C132.1,60.2,131.2,61.1,130.2,61.1z"/>
	<path class="st4" d="M129.9,54.8h-0.2c-0.6,0-1.2-0.5-1.2-1.2v-2c0-0.6,0.5-1.2,1.2-1.2h0.2c0.6,0,1.2,0.5,1.2,1.2v2
		C131,54.3,130.5,54.8,129.9,54.8z"/>
	<path class="st2" d="M131.1,51.4h-2.6c-0.3,0-0.5-0.2-0.5-0.5v-0.1c0-0.3,0.2-0.5,0.5-0.5h2.6c0.3,0,0.5,0.2,0.5,0.5v0.1
		C131.6,51.2,131.4,51.4,131.1,51.4z"/>
	<path class="st4" d="M136.1,61.1h-0.9c-1,0-1.9-0.9-1.9-1.9v-5c0-1,0.9-1.9,1.9-1.9h0.9c1,0,1.9,0.9,1.9,1.9v5
		C138,60.2,137.2,61.1,136.1,61.1z"/>
	<path class="st4" d="M135.8,54.8h-0.2c-0.6,0-1.2-0.5-1.2-1.2v-2c0-0.6,0.5-1.2,1.2-1.2h0.2c0.6,0,1.2,0.5,1.2,1.2v2
		C137,54.3,136.5,54.8,135.8,54.8z"/>
	<path class="st2" d="M137.1,51.4h-2.6c-0.3,0-0.5-0.2-0.5-0.5v-0.1c0-0.3,0.2-0.5,0.5-0.5h2.6c0.3,0,0.5,0.2,0.5,0.5v0.1
		C137.6,51.2,137.4,51.4,137.1,51.4z"/>
	<path class="st4" d="M131.5,312.6h-0.9c-1,0-1.9-0.9-1.9-1.9v-5c0-1,0.9-1.9,1.9-1.9h0.9c1,0,1.9,0.9,1.9,1.9v5
		C133.4,311.8,132.5,312.7,131.5,312.6z"/>
	<path class="st4" d="M131.2,306.4H131c-0.6,0-1.2-0.5-1.2-1.2v-2c0-0.6,0.5-1.2,1.2-1.2h0.2c0.6,0,1.2,0.5,1.2,1.2v2
		C132.4,305.9,131.8,306.4,131.2,306.4z"/>
	<path class="st2" d="M132.4,303h-2.6c-0.3,0-0.5-0.2-0.5-0.5v-0.1c0-0.3,0.2-0.5,0.5-0.5h2.6c0.3,0,0.5,0.2,0.5,0.5v0.1
		C133,302.7,132.7,303,132.4,303z"/>
	<path class="st4" d="M137.7,312.6h-0.9c-1,0-1.9-0.9-1.9-1.9v-5c0-1,0.9-1.9,1.9-1.9h0.9c1,0,1.9,0.9,1.9,1.9v5
		C139.6,311.8,138.8,312.7,137.7,312.6z"/>
	<path class="st4" d="M137.4,306.4h-0.2c-0.6,0-1.2-0.5-1.2-1.2v-2c0-0.6,0.5-1.2,1.2-1.2h0.2c0.6,0,1.2,0.5,1.2,1.2v2
		C138.6,305.9,138.1,306.4,137.4,306.4z"/>
	<path class="st2" d="M138.7,303h-2.6c-0.3,0-0.5-0.2-0.5-0.5v-0.1c0-0.3,0.2-0.5,0.5-0.5h2.6c0.3,0,0.5,0.2,0.5,0.5v0.1
		C139.2,302.7,139,303,138.7,303z"/>
	<path class="st5" d="M25.8,61.2h-2.2c-2.6,0-4.7-2.1-4.7-4.7V44.2c0-2.6,2.1-4.7,4.7-4.7h2.2c2.6,0,4.7,2.1,4.7,4.7v12.2
		C30.5,59,28.4,61.2,25.8,61.2z"/>
	<path class="st2" d="M27.8,39.9h-6.1c-1.1,0-1.9-0.9-1.9-1.9v-0.3c0-1.1,0.9-1.9,1.9-1.9h6.1c1.1,0,1.9,0.9,1.9,1.9V38
		C29.7,39.1,28.9,39.9,27.8,39.9z"/>
	<rect x="41.8" y="96.1" class="st5" width="14.9" height="13.2"/>
	<path class="st4" d="M72.9,117.3h-2.8c-3.3,0-6-2.7-6-6V95.5c0-3.3,2.7-6,6-6h2.8c3.3,0,6,2.7,6,6v15.7
		C78.9,114.6,76.2,117.3,72.9,117.3z"/>
	<path class="st4" d="M71.8,97.4h-0.5c-2.1,0-3.7-1.7-3.7-3.7v-6.2c0-2.1,1.7-3.7,3.7-3.7h0.5c2.1,0,3.7,1.7,3.7,3.7v6.2
		C75.5,95.7,73.8,97.4,71.8,97.4z"/>
	<path class="st2" d="M75.6,86.6h-8.1c-0.9,0-1.7-0.8-1.7-1.7v-0.2c0-0.9,0.8-1.7,1.7-1.7h8.1c0.9,0,1.7,0.8,1.7,1.7v0.2
		C77.3,85.8,76.5,86.6,75.6,86.6z"/>
	<rect x="64.1" y="96.1" class="st5" width="14.9" height="13.2"/>
	<rect x="85.9" y="104.2" class="st2" width="26.8" height="13"/>
	<polygon class="st4" points="86,104.2 97.7,117.2 112.9,117.2 112.7,104.2 	"/>
	<rect x="16.9" y="173.8" class="st2" width="43" height="13"/>
	<polygon class="st4" points="41.4,186.8 35.9,173.8 16.7,173.8 16.7,186.8 	"/>
	<rect x="92.8" y="105.6" class="st2" width="17.2" height="1.2"/>
	<rect x="92.8" y="108.7" class="st2" width="17.2" height="1.2"/>
	<rect x="88.1" y="91.1" class="st2" width="26.8" height="13"/>
	<polygon class="st4" points="88.2,91.1 99.9,104.2 115.1,104.2 114.9,91.1 	"/>
	<rect x="95" y="92.6" class="st2" width="17.2" height="1.2"/>
	<rect x="95" y="95.7" class="st2" width="17.2" height="1.2"/>
	<rect x="119.6" y="92.6" class="st2" width="7.2" height="24.6"/>
	<path class="st5" d="M127.3,93.8h-8.2c-0.9,0-1.6-0.7-1.6-1.6l0,0c0-0.9,0.7-1.6,1.6-1.6h8.2c0.9,0,1.6,0.7,1.6,1.6l0,0
		C128.9,93,128.2,93.8,127.3,93.8z"/>
	<path class="st5" d="M127.3,117.2h-8.2c-0.9,0-1.6-0.7-1.6-1.6l0,0c0-0.9,0.7-1.6,1.6-1.6h8.2c0.9,0,1.6,0.7,1.6,1.6l0,0
		C128.9,116.5,128.2,117.2,127.3,117.2z"/>
	<rect x="121" y="95.7" class="st5" width="1.4" height="17.6"/>
	<rect x="124.1" y="95.7" class="st5" width="1.4" height="17.6"/>
	<rect x="132.1" y="92.6" class="st2" width="7.2" height="24.6"/>
	<path class="st5" d="M139.8,93.8h-8.2c-0.9,0-1.6-0.7-1.6-1.6l0,0c0-0.9,0.7-1.6,1.6-1.6h8.2c0.9,0,1.6,0.7,1.6,1.6l0,0
		C141.4,93,140.7,93.8,139.8,93.8z"/>
	<path class="st5" d="M139.8,117.2h-8.2c-0.9,0-1.6-0.7-1.6-1.6l0,0c0-0.9,0.7-1.6,1.6-1.6h8.2c0.9,0,1.6,0.7,1.6,1.6l0,0
		C141.4,116.5,140.7,117.2,139.8,117.2z"/>
	<rect x="133.5" y="95.7" class="st5" width="1.4" height="17.6"/>
	<rect x="136.5" y="95.7" class="st5" width="1.4" height="17.6"/>
	<rect x="19" y="46.2" class="st2" width="11.5" height="6.8"/>
	<rect x="20.9" y="35.8" class="st4" width="0.8" height="4.1"/>
	<rect x="22.6" y="35.8" class="st4" width="0.8" height="4.1"/>
	<rect x="24.3" y="35.8" class="st4" width="0.8" height="4.1"/>
	<rect x="26" y="35.8" class="st4" width="0.8" height="4.1"/>
	<rect x="27.7" y="35.8" class="st4" width="0.8" height="4.1"/>
	<path class="st5" d="M40.2,61.2H38c-2.6,0-4.7-2.1-4.7-4.7V44.2c0-2.6,2.1-4.7,4.7-4.7h2.2c2.6,0,4.7,2.1,4.7,4.7v12.2
		C44.9,59,42.8,61.2,40.2,61.2z"/>
	<path class="st2" d="M42.1,39.9H36c-1.1,0-1.9-0.9-1.9-1.9v-0.3c0-1.1,0.9-1.9,1.9-1.9h6.1c1.1,0,1.9,0.9,1.9,1.9V38
		C44.1,39.1,43.2,39.9,42.1,39.9z"/>
	<rect x="33.3" y="46.2" class="st2" width="11.5" height="6.8"/>
	<rect x="35.3" y="35.8" class="st4" width="0.8" height="4.1"/>
	<rect x="36.9" y="35.8" class="st4" width="0.8" height="4.1"/>
	<rect x="38.6" y="35.8" class="st4" width="0.8" height="4.1"/>
	<rect x="40.3" y="35.8" class="st4" width="0.8" height="4.1"/>
	<rect x="42" y="35.8" class="st4" width="0.8" height="4.1"/>
	<path class="st5" d="M54.4,61.2h-2.2c-2.6,0-4.7-2.1-4.7-4.7V44.2c0-2.6,2.1-4.7,4.7-4.7h2.2c2.6,0,4.7,2.1,4.7,4.7v12.2
		C59.1,59,57,61.2,54.4,61.2z"/>
	<path class="st2" d="M56.3,39.9h-6.1c-1.1,0-1.9-0.9-1.9-1.9v-0.3c0-1.1,0.9-1.9,1.9-1.9h6.1c1.1,0,1.9,0.9,1.9,1.9V38
		C58.3,39.1,57.4,39.9,56.3,39.9z"/>
	<rect x="47.5" y="46.2" class="st2" width="11.5" height="6.8"/>
	<rect x="49.5" y="35.8" class="st4" width="0.8" height="4.1"/>
	<rect x="51.2" y="35.8" class="st4" width="0.8" height="4.1"/>
	<rect x="52.9" y="35.8" class="st4" width="0.8" height="4.1"/>
	<rect x="54.5" y="35.8" class="st4" width="0.8" height="4.1"/>
	<rect x="56.2" y="35.8" class="st4" width="0.8" height="4.1"/>
	<path class="st4" d="M110,226.5c-2.6,1.7-0.3,5.3-0.3,5.3l9.9,15.5l3.3,1.8c0,0,2.9,5.4,4.3,4.5s-2.2-5.9-2.2-5.9l-0.5-3.6
		l-9.7-15.6C114.7,228.6,112.6,224.9,110,226.5z"/>
	
		<rect x="118.1" y="227" transform="matrix(0.8445 -0.5355 0.5355 0.8445 -110.1581 100.786)" class="st2" width="0.8" height="26.2"/>
	
		<rect x="110.5" y="229.8" transform="matrix(0.8445 -0.5355 0.5355 0.8445 -105.7566 95.9118)" class="st2" width="3.6" height="0.6"/>
	
		<rect x="111.6" y="231.8" transform="matrix(0.8445 -0.5355 0.5355 0.8445 -106.6636 96.8185)" class="st2" width="3.6" height="0.6"/>
	
		<rect x="113" y="233.6" transform="matrix(0.8445 -0.5355 0.5355 0.8445 -107.3974 97.8411)" class="st2" width="3.6" height="0.6"/>
	
		<rect x="114.1" y="235.6" transform="matrix(0.8445 -0.5355 0.5355 0.8445 -108.3043 98.7429)" class="st2" width="3.6" height="0.6"/>
	
		<rect x="115.4" y="237.6" transform="matrix(0.8445 -0.5355 0.5355 0.8445 -109.1779 99.7444)" class="st2" width="3.6" height="0.6"/>
	
		<rect x="116.6" y="239.6" transform="matrix(0.8445 -0.5355 0.5355 0.8445 -110.0536 100.6996)" class="st2" width="3.6" height="0.6"/>
	
		<rect x="118.1" y="241.7" transform="matrix(0.8445 -0.5355 0.5355 0.8445 -110.9485 101.8375)" class="st2" width="3.6" height="0.6"/>
	
		<rect x="119.2" y="243.6" transform="matrix(0.8445 -0.5355 0.5355 0.8445 -111.8025 102.7219)" class="st2" width="3.6" height="0.6"/>
	
		<rect x="120.3" y="245.4" transform="matrix(0.8445 -0.5355 0.5355 0.8445 -112.5898 103.582)" class="st2" width="3.6" height="0.6"/>
	<path class="st2" d="M124.4,251.5l2.1-1.4c0,0,1.9,2.7,0.8,3.4C126.2,254.3,124.8,252.1,124.4,251.5z"/>
	<path class="st8" d="M129.6,245.1"/>
	<polygon class="st9" points="131,254.1 115.9,254.1 113.8,238.3 132.5,238.3 	"/>
	<rect x="66.8" y="39.5" class="st4" width="17.3" height="21.6"/>
	<rect x="66.8" y="52.4" class="st5" width="17.3" height="8.8"/>
	<rect x="88.8" y="35.4" class="st5" width="35.7" height="25.7"/>
	<rect x="88.8" y="35.4" class="st2" width="35.7" height="10.1"/>
	<rect x="88.8" y="45.5" class="st2" width="35.7" height="1.6"/>
	<rect x="88.8" y="57" class="st2" width="35.7" height="1.6"/>
	<rect x="69.8" y="41.7" class="st5" width="11.3" height="1.3"/>
	<rect x="71.8" y="44.8" class="st5" width="7.3" height="1.3"/>
	<rect x="71.8" y="47.1" class="st5" width="7.3" height="1.3"/>
	<rect x="82.1" y="231.1" class="st4" width="17.3" height="21.6"/>
	<rect x="82.1" y="244" class="st5" width="17.3" height="8.8"/>
	<rect x="85.1" y="233.4" class="st5" width="11.3" height="1.3"/>
	<rect x="87.1" y="236.4" class="st5" width="7.3" height="1.3"/>
	<rect x="87.1" y="238.7" class="st5" width="7.3" height="1.3"/>
	<rect x="96.3" y="49.5" class="st2" width="20.7" height="1"/>
	<rect x="100" y="51.9" class="st2" width="13.4" height="1"/>
	<rect x="100" y="53.6" class="st2" width="13.4" height="1"/>
	<rect x="64.7" y="287" class="st6" width="35.7" height="25.7"/>
	<rect x="64.7" y="287" class="st5" width="35.7" height="10.1"/>
	<rect x="64.7" y="297.2" class="st5" width="35.7" height="1.6"/>
	<rect x="64.7" y="308.6" class="st5" width="35.7" height="1.6"/>
	<rect x="72.2" y="301.1" class="st5" width="20.7" height="1"/>
	<rect x="75.8" y="303.5" class="st5" width="13.4" height="1"/>
	<rect x="75.8" y="305.2" class="st5" width="13.4" height="1"/>
	<rect x="44.2" y="175.3" class="st4" width="12.8" height="1.9"/>
	<rect x="47.4" y="178.6" class="st4" width="6.4" height="1.9"/>
	<rect x="19.1" y="175.1" class="st10" width="14.8" height="2.1"/>
	<rect x="19.1" y="178.4" class="st10" width="14.8" height="1.4"/>
	<rect x="19.1" y="180.7" class="st10" width="14.8" height="1.4"/>
	<rect x="16.9" y="160.7" class="st5" width="43" height="13"/>
	<polygon class="st4" points="41.4,173.8 35.9,160.7 16.7,160.7 16.7,173.8 	"/>
	<rect x="44.2" y="162.2" class="st4" width="12.8" height="1.9"/>
	<rect x="47.4" y="165.6" class="st4" width="6.4" height="1.9"/>
	<rect x="19.1" y="162.1" class="st10" width="14.8" height="2.1"/>
	<rect x="19.1" y="165.4" class="st10" width="14.8" height="1.4"/>
	<rect x="19.1" y="167.7" class="st10" width="14.8" height="1.4"/>
	<rect x="16.9" y="147.7" class="st5" width="43" height="13"/>
	<polygon class="st4" points="41.4,160.7 35.9,147.7 16.7,147.7 16.7,160.7 	"/>
	<rect x="44.2" y="149.2" class="st4" width="12.8" height="1.9"/>
	<rect x="47.4" y="152.5" class="st4" width="6.4" height="1.9"/>
	<rect x="19.1" y="149" class="st10" width="14.8" height="2.1"/>
	<rect x="19.1" y="152.3" class="st10" width="14.8" height="1.4"/>
	<rect x="19.1" y="154.7" class="st10" width="14.8" height="1.4"/>
	<rect x="62.9" y="147.9" class="st2" width="14" height="38.9"/>
	<rect x="62.9" y="147.9" class="st4" width="14" height="11.4"/>
	<rect x="66.7" y="151.1" class="st10" width="6.4" height="1.9"/>
	<path class="st11" d="M89.2,308.7L89.2,308.7c0-0.5,0.4-0.8,0.9-0.8l2.7,0.2c0.5,0,0.8,0.4,0.8,0.9l0,0c0,0.5-0.4,0.8-0.9,0.8
		l-2.7-0.2C89.5,309.5,89.2,309.2,89.2,308.7z"/>
	
		<rect x="117.6" y="306.4" transform="matrix(5.584510e-02 -0.9984 0.9984 5.584510e-02 -198.6754 410.6335)" class="st4" width="0.3" height="7.9"/>
	<path class="st2" d="M111.5,310L111.5,310c0-0.6,0.5-1,1.1-1l4.7,0.3c0.6,0,1,0.5,1,1.1l0,0c0,0.6-0.5,1-1.1,1l-4.7-0.3
		C111.9,311.1,111.5,310.6,111.5,310z"/>
	<path class="st4" d="M93.8,310.5l0.2-3c0-0.4,0.4-0.7,0.7-0.7l20.8,1.2c0.4,0,0.7,0.4,0.7,0.7l-0.2,3c0,0.4-0.4,0.7-0.7,0.7
		l-20.8-1.2C94.1,311.2,93.8,310.9,93.8,310.5z"/>
	<path class="st5" d="M95.5,310.7l0.2-3.3c0-0.3,0.3-0.6,0.6-0.5l14,0.8c0.3,0,0.6,0.3,0.5,0.6l-0.2,3.3c0,0.3-0.3,0.6-0.6,0.5
		l-14-0.8C95.7,311.3,95.5,311,95.5,310.7z"/>
	<path class="st4" d="M91.8,311.4l0.3-5.2c0-0.7,0.6-1.2,1.3-1.1h0.2c0.7,0,1.2,0.6,1.1,1.3l-0.3,5.2c0,0.7-0.6,1.2-1.3,1.1h-0.2
		C92.2,312.7,91.7,312.1,91.8,311.4z"/>
	<path class="st4" d="M90,306.6L90,306.6c0.5,0,0.8,0.4,0.8,0.9l-0.2,2.7c0,0.5-0.4,0.8-0.9,0.8l0,0c-0.5,0-0.8-0.4-0.8-0.9l0.2-2.7
		C89.1,306.9,89.5,306.5,90,306.6z"/>
	
		<rect x="109.3" y="308.6" transform="matrix(5.585875e-02 -0.9984 0.9984 5.585875e-02 -204.1815 403.9865)" class="st12" width="4.4" height="2.7"/>
	
		<rect x="106.5" y="308.2" transform="matrix(5.587089e-02 -0.9984 0.9984 5.587089e-02 -206.5246 398.7892)" class="st12" width="2.2" height="0.7"/>
	
		<rect x="104.6" y="308.2" transform="matrix(5.584659e-02 -0.9984 0.9984 5.584659e-02 -208.2741 396.9292)" class="st12" width="2.2" height="0.7"/>
	
		<rect x="102.8" y="308" transform="matrix(5.586847e-02 -0.9984 0.9984 5.586847e-02 -209.8232 394.881)" class="st12" width="2.2" height="0.7"/>
	
		<rect x="100.9" y="307.9" transform="matrix(5.584659e-02 -0.9984 0.9984 5.584659e-02 -211.468 392.9316)" class="st12" width="2.2" height="0.7"/>
	
		<rect x="99.2" y="307.9" transform="matrix(5.587089e-02 -0.9984 0.9984 5.587089e-02 -213.1322 391.1603)" class="st12" width="2.2" height="0.7"/>
	
		<rect x="97.3" y="307.7" transform="matrix(5.584659e-02 -0.9984 0.9984 5.584659e-02 -214.6782 389.1276)" class="st12" width="2.2" height="0.7"/>
	<rect x="142.4" y="0" class="st2" width="157.1" height="424.1"/>
	<rect x="156.9" y="14.5" class="st3" width="128.1" height="388.4"/>
	<rect x="156.9" y="312.7" class="st4" width="128.1" height="94"/>
	<rect x="219.6" y="312.7" class="st2" width="3.9" height="94"/>
	<rect x="156.9" y="254.1" class="st4" width="128.1" height="7.5"/>
	<rect x="156.9" y="187.2" class="st4" width="128.1" height="7.5"/>
	<rect x="156.9" y="117.2" class="st4" width="128.1" height="7.5"/>
	<rect x="156.9" y="61.2" class="st4" width="128.1" height="7.5"/>
	<rect x="205.7" y="342.6" class="st2" width="6.5" height="37.8"/>
	<rect x="229.2" y="342.6" class="st2" width="6.5" height="37.8"/>
	
		<rect x="170.3" y="270.1" transform="matrix(9.311369e-03 -1 1 9.311369e-03 -103.687 441.7679)" class="st5" width="1.6" height="6.2"/>
	<path class="st4" d="M174.1,312.7l-6.7-0.1c-3.3,0-6-2.3-6-5l0.2-19.2c0-2.7,6-4.9,6-4.9l6.7,0.1c0,0,6,2.3,6,5l-0.2,19.2
		C180.1,310.5,177.4,312.7,174.1,312.7z"/>
	<path class="st5" d="M173.5,310.4h-5.3c-2.6,0-4.7-1.8-4.7-3.9l0.1-15.2c0-2.1,4.8-3.8,4.8-3.8h5.3c0,0,4.7,1.8,4.7,3.9l-0.1,15.2
		C178.3,308.7,176.1,310.4,173.5,310.4z"/>
	
		<rect x="167.1" y="278.7" transform="matrix(9.308998e-03 -1 1 9.308998e-03 -113.2852 451.1804)" class="st4" width="7.9" height="8.1"/>
	
		<rect x="167.9" y="271.8" transform="matrix(9.304201e-03 -1 1 9.304201e-03 -106.9343 444.892)" class="st5" width="6.3" height="9.2"/>
	
		<rect x="164.7" y="276.1" transform="matrix(9.360897e-03 -1 1 9.360897e-03 -110.1623 441.4256)" class="st5" width="6" height="0.4"/>
	
		<rect x="166.7" y="276.1" transform="matrix(9.362064e-03 -1 1 9.362064e-03 -108.1806 443.4257)" class="st5" width="6" height="0.4"/>
	
		<rect x="169.1" y="276.1" transform="matrix(9.237270e-03 -1 1 9.237270e-03 -105.7827 445.8602)" class="st5" width="6" height="0.4"/>
	
		<rect x="171.3" y="276.2" transform="matrix(9.362064e-03 -1 1 9.362064e-03 -103.724 448.1236)" class="st5" width="6" height="0.4"/>
	
		<rect x="170.3" y="274.6" transform="matrix(9.305988e-03 -1 1 9.305988e-03 -110.5859 448.6064)" class="st5" width="1.6" height="11"/>
	
		<ellipse transform="matrix(9.298311e-03 -1 1 9.298311e-03 -125.6223 463.4868)" class="st6" cx="171.1" cy="295.1" rx="2.6" ry="0.9"/>
	
		<ellipse transform="matrix(9.298311e-03 -1 1 9.298311e-03 -131.0242 468.6356)" class="st6" cx="171" cy="300.4" rx="2.6" ry="0.9"/>
	
		<ellipse transform="matrix(9.298310e-03 -1 1 9.298310e-03 -125.6859 468.6686)" class="st6" cx="173.7" cy="297.8" rx="0.9" ry="2.6"/>
	
		<ellipse transform="matrix(0.7137 -0.7005 0.7005 0.7137 -157.6442 205.8809)" class="st6" cx="173" cy="295.8" rx="2.6" ry="0.9"/>
	
		<ellipse transform="matrix(0.7137 -0.7005 0.7005 0.7137 -161.7882 204.0645)" class="st6" cx="168.7" cy="299.9" rx="2.6" ry="0.9"/>
	
		<ellipse transform="matrix(0.714 -0.7002 0.7002 0.714 -160.5542 206.7828)" class="st6" cx="172.8" cy="299.9" rx="0.9" ry="2.6"/>
	<ellipse transform="matrix(0.714 -0.7002 0.7002 0.714 -158.9087 202.9969)" class="st6" cx="169" cy="296" rx="0.9" ry="2.6"/>
	
		<ellipse transform="matrix(9.298310e-03 -1 1 9.298310e-03 -131.1348 463.5303)" class="st6" cx="168.4" cy="297.9" rx="0.9" ry="2.6"/>
	
		<ellipse transform="matrix(9.319615e-03 -1 1 9.319615e-03 -128.4244 465.9547)" class="st4" cx="170.9" cy="297.8" rx="1.3" ry="1.4"/>
	
		<rect x="193" y="270.1" transform="matrix(9.311288e-03 -1 1 9.311288e-03 -81.196 464.4679)" class="st5" width="1.6" height="6.2"/>
	<path class="st4" d="M196.9,312.7l-6.7-0.1c-3.3,0-6-2.3-6-5l0.2-19.2c0-2.7,6-4.9,6-4.9l6.7,0.1c0,0,6,2.3,6,5l-0.2,19.2
		C202.9,310.5,200.2,312.7,196.9,312.7z"/>
	<path class="st5" d="M196.3,310.4H191c-2.6,0-4.7-1.8-4.7-3.9l0.1-15.2c0-2.1,4.8-3.8,4.8-3.8h5.3c0,0,4.7,1.8,4.7,3.9l-0.1,15.2
		C201.1,308.7,198.9,310.4,196.3,310.4z"/>
	
		<rect x="189.9" y="278.7" transform="matrix(9.308989e-03 -1 1 9.308989e-03 -90.6969 473.9804)" class="st4" width="7.9" height="8.1"/>
	
		<rect x="190.7" y="271.8" transform="matrix(9.304201e-03 -1 1 9.304201e-03 -84.3458 467.6921)" class="st5" width="6.3" height="9.2"/>
	
		<rect x="187.5" y="276.1" transform="matrix(9.362064e-03 -1 1 9.362064e-03 -87.5753 464.2254)" class="st5" width="6" height="0.4"/>
	
		<rect x="189.5" y="276.1" transform="matrix(9.360897e-03 -1 1 9.360897e-03 -85.5932 466.226)" class="st5" width="6" height="0.4"/>
	
		<rect x="191.9" y="276.1" transform="matrix(9.236117e-03 -1 1 9.236117e-03 -83.1924 468.6606)" class="st5" width="6" height="0.4"/>
	
		<rect x="194.1" y="276.2" transform="matrix(9.362064e-03 -1 1 9.362064e-03 -81.1368 470.9237)" class="st5" width="6" height="0.4"/>
	
		<rect x="193" y="274.6" transform="matrix(9.305942e-03 -1 1 9.305942e-03 -88.0946 471.3065)" class="st5" width="1.6" height="11"/>
	
		<ellipse transform="matrix(9.298311e-03 -1 1 9.298311e-03 -103.0946 486.3464)" class="st6" cx="193.9" cy="295.2" rx="2.6" ry="0.9"/>
	
		<ellipse transform="matrix(9.298591e-03 -1 1 9.298591e-03 -108.4966 491.4952)" class="st6" cx="193.8" cy="300.5" rx="2.6" ry="0.9"/>
	
		<ellipse transform="matrix(9.298310e-03 -1 1 9.298310e-03 -103.0502 491.4374)" class="st6" cx="196.5" cy="297.7" rx="0.9" ry="2.6"/>
	
		<ellipse transform="matrix(0.7137 -0.7005 0.7005 0.7137 -151.1763 221.7684)" class="st6" cx="195.7" cy="295.8" rx="2.6" ry="0.9"/>
	
		<ellipse transform="matrix(0.7137 -0.7005 0.7005 0.7137 -155.252 220.0393)" class="st6" cx="191.5" cy="299.9" rx="2.6" ry="0.9"/>
	
		<ellipse transform="matrix(0.714 -0.7002 0.7002 0.714 -154.0277 222.7485)" class="st6" cx="195.6" cy="299.9" rx="0.9" ry="2.6"/>
	<ellipse transform="matrix(0.714 -0.7002 0.7002 0.714 -152.3792 218.9653)" class="st6" cx="191.8" cy="296" rx="0.9" ry="2.6"/>
	
		<ellipse transform="matrix(9.328492e-03 -1 1 9.328492e-03 -108.6098 486.182)" class="st6" cx="191.1" cy="297.9" rx="0.9" ry="2.6"/>
	
		<ellipse transform="matrix(9.319615e-03 -1 1 9.319615e-03 -105.8972 488.8142)" class="st4" cx="193.7" cy="297.9" rx="1.3" ry="1.4"/>
	<polygon class="st5" points="171.2,225.7 165,225.8 160.5,232.1 160.5,254.1 175.4,254.1 175.4,232.1 	"/>
	<polygon class="st5" points="165,225.8 171.2,225.7 175.4,232.1 160.5,232.1 	"/>
	<rect x="164.5" y="220.4" class="st4" width="7.1" height="5.3"/>
	<polygon class="st5" points="192.5,225.7 186.3,225.8 181.8,232.1 181.8,254.1 196.7,254.1 196.7,232.1 	"/>
	<polygon class="st5" points="186.3,225.8 192.5,225.7 196.7,232.1 181.8,232.1 	"/>
	<rect x="185.8" y="220.4" class="st4" width="7.1" height="5.3"/>
	<polygon class="st5" points="213.8,225.7 207.6,225.8 203.1,232.1 203.1,254.1 218,254.1 218,232.1 	"/>
	<polygon class="st5" points="207.6,225.8 213.8,225.7 218,232.1 203.1,232.1 	"/>
	<rect x="207.1" y="220.4" class="st4" width="7.1" height="5.3"/>
	<path class="st4" d="M170.7,117.3h-2.8c-3.3,0-6-2.7-6-6V95.5c0-3.3,2.7-6,6-6h2.8c3.3,0,6,2.7,6,6v15.7
		C176.7,114.6,174,117.3,170.7,117.3z"/>
	<path class="st4" d="M169.6,97.4h-0.5c-2.1,0-3.7-1.7-3.7-3.7v-6.2c0-2.1,1.7-3.7,3.7-3.7h0.5c2.1,0,3.7,1.7,3.7,3.7v6.2
		C173.3,95.7,171.6,97.4,169.6,97.4z"/>
	<path class="st2" d="M173.4,86.6h-8.1c-0.9,0-1.7-0.8-1.7-1.7v-0.2c0-0.9,0.8-1.7,1.7-1.7h8.1c0.9,0,1.7,0.8,1.7,1.7v0.2
		C175.1,85.8,174.3,86.6,173.4,86.6z"/>
	<rect x="161.9" y="96.1" class="st5" width="14.9" height="13.2"/>
	<path class="st4" d="M193,117.3h-2.8c-3.3,0-6-2.7-6-6V95.5c0-3.3,2.7-6,6-6h2.8c3.3,0,6,2.7,6,6v15.7
		C199,114.6,196.3,117.3,193,117.3z"/>
	<path class="st4" d="M191.9,97.4h-0.5c-2.1,0-3.7-1.7-3.7-3.7v-6.2c0-2.1,1.7-3.7,3.7-3.7h0.5c2.1,0,3.7,1.7,3.7,3.7v6.2
		C195.6,95.7,193.9,97.4,191.9,97.4z"/>
	<path class="st2" d="M195.7,86.6h-8.1c-0.9,0-1.7-0.8-1.7-1.7v-0.2c0-0.9,0.8-1.7,1.7-1.7h8.1c0.9,0,1.7,0.8,1.7,1.7v0.2
		C197.4,85.8,196.6,86.6,195.7,86.6z"/>
	<path class="st4" d="M267.6,312.6h-0.9c-1,0-1.9-0.9-1.9-1.9v-5c0-1,0.9-1.9,1.9-1.9h0.9c1,0,1.9,0.9,1.9,1.9v5
		C269.5,311.8,268.7,312.7,267.6,312.6z"/>
	<path class="st4" d="M267.3,306.4h-0.2c-0.6,0-1.2-0.5-1.2-1.2v-2c0-0.6,0.5-1.2,1.2-1.2h0.2c0.6,0,1.2,0.5,1.2,1.2v2
		C268.5,305.9,268,306.4,267.3,306.4z"/>
	<path class="st2" d="M268.6,303H266c-0.3,0-0.5-0.2-0.5-0.5v-0.1c0-0.3,0.2-0.5,0.5-0.5h2.6c0.3,0,0.5,0.2,0.5,0.5v0.1
		C269.1,302.7,268.9,303,268.6,303z"/>
	<path class="st4" d="M272.6,61.1h-0.9c-1,0-1.9-0.9-1.9-1.9v-5c0-1,0.9-1.9,1.9-1.9h0.9c1,0,1.9,0.9,1.9,1.9v5
		C274.5,60.2,273.6,61.1,272.6,61.1z"/>
	<path class="st4" d="M272.3,54.8h-0.2c-0.6,0-1.2-0.5-1.2-1.2v-2c0-0.6,0.5-1.2,1.2-1.2h0.2c0.6,0,1.2,0.5,1.2,1.2v2
		C273.4,54.3,272.9,54.8,272.3,54.8z"/>
	<path class="st2" d="M273.5,51.4h-2.6c-0.3,0-0.5-0.2-0.5-0.5v-0.1c0-0.3,0.2-0.5,0.5-0.5h2.6c0.3,0,0.5,0.2,0.5,0.5v0.1
		C274,51.2,273.8,51.4,273.5,51.4z"/>
	<path class="st4" d="M278.5,61.1h-0.9c-1,0-1.9-0.9-1.9-1.9v-5c0-1,0.9-1.9,1.9-1.9h0.9c1,0,1.9,0.9,1.9,1.9v5
		C280.5,60.2,279.6,61.1,278.5,61.1z"/>
	<path class="st4" d="M278.2,54.8H278c-0.6,0-1.2-0.5-1.2-1.2v-2c0-0.6,0.5-1.2,1.2-1.2h0.2c0.6,0,1.2,0.5,1.2,1.2v2
		C279.4,54.3,278.9,54.8,278.2,54.8z"/>
	<path class="st2" d="M279.5,51.4h-2.6c-0.3,0-0.5-0.2-0.5-0.5v-0.1c0-0.3,0.2-0.5,0.5-0.5h2.6c0.3,0,0.5,0.2,0.5,0.5v0.1
		C280,51.2,279.8,51.4,279.5,51.4z"/>
	<path class="st4" d="M273.9,312.6H273c-1,0-1.9-0.9-1.9-1.9v-5c0-1,0.9-1.9,1.9-1.9h0.9c1,0,1.9,0.9,1.9,1.9v5
		C275.8,311.8,274.9,312.7,273.9,312.6z"/>
	<path class="st4" d="M273.6,306.4h-0.2c-0.6,0-1.2-0.5-1.2-1.2v-2c0-0.6,0.5-1.2,1.2-1.2h0.2c0.6,0,1.2,0.5,1.2,1.2v2
		C274.8,305.9,274.2,306.4,273.6,306.4z"/>
	<path class="st2" d="M274.8,303h-2.6c-0.3,0-0.5-0.2-0.5-0.5v-0.1c0-0.3,0.2-0.5,0.5-0.5h2.6c0.3,0,0.5,0.2,0.5,0.5v0.1
		C275.4,302.7,275.1,303,274.8,303z"/>
	<path class="st4" d="M280.1,312.6h-0.9c-1,0-1.9-0.9-1.9-1.9v-5c0-1,0.9-1.9,1.9-1.9h0.9c1,0,1.9,0.9,1.9,1.9v5
		C282.1,311.8,281.2,312.7,280.1,312.6z"/>
	<path class="st4" d="M279.8,306.4h-0.2c-0.6,0-1.2-0.5-1.2-1.2v-2c0-0.6,0.5-1.2,1.2-1.2h0.2c0.6,0,1.2,0.5,1.2,1.2v2
		C281,305.9,280.5,306.4,279.8,306.4z"/>
	<path class="st2" d="M281.1,303h-2.6c-0.3,0-0.5-0.2-0.5-0.5v-0.1c0-0.3,0.2-0.5,0.5-0.5h2.6c0.3,0,0.5,0.2,0.5,0.5v0.1
		C281.6,302.7,281.4,303,281.1,303z"/>
	<path class="st5" d="M168.3,61.2h-2.2c-2.6,0-4.7-2.1-4.7-4.7V44.2c0-2.6,2.1-4.7,4.7-4.7h2.2c2.6,0,4.7,2.1,4.7,4.7v12.2
		C173,59,170.8,61.2,168.3,61.2z"/>
	<path class="st2" d="M170.2,39.9h-6.1c-1.1,0-1.9-0.9-1.9-1.9v-0.3c0-1.1,0.9-1.9,1.9-1.9h6.1c1.1,0,1.9,0.9,1.9,1.9V38
		C172.1,39.1,171.3,39.9,170.2,39.9z"/>
	<rect x="184.2" y="96.1" class="st5" width="14.9" height="13.2"/>
	<path class="st4" d="M215.3,117.3h-2.8c-3.3,0-6-2.7-6-6V95.5c0-3.3,2.7-6,6-6h2.8c3.3,0,6,2.7,6,6v15.7
		C221.3,114.6,218.6,117.3,215.3,117.3z"/>
	<path class="st4" d="M214.2,97.4h-0.5c-2.1,0-3.7-1.7-3.7-3.7v-6.2c0-2.1,1.7-3.7,3.7-3.7h0.5c2.1,0,3.7,1.7,3.7,3.7v6.2
		C217.9,95.7,216.2,97.4,214.2,97.4z"/>
	<path class="st2" d="M218,86.6h-8.1c-0.9,0-1.7-0.8-1.7-1.7v-0.2c0-0.9,0.8-1.7,1.7-1.7h8.1c0.9,0,1.7,0.8,1.7,1.7v0.2
		C219.7,85.8,218.9,86.6,218,86.6z"/>
	<rect x="206.5" y="96.1" class="st5" width="14.9" height="13.2"/>
	<rect x="228.3" y="104.2" class="st2" width="26.8" height="13"/>
	<polygon class="st4" points="228.4,104.2 240.1,117.2 255.3,117.2 255.1,104.2 	"/>
	<rect x="159.1" y="173.8" class="st2" width="43" height="13"/>
	<polygon class="st4" points="177.4,186.8 183,173.8 202.1,173.8 202.1,186.8 	"/>
	<rect x="235.2" y="105.6" class="st2" width="17.2" height="1.2"/>
	<rect x="235.2" y="108.7" class="st2" width="17.2" height="1.2"/>
	<rect x="230.5" y="91.1" class="st2" width="26.8" height="13"/>
	<polygon class="st4" points="230.6,91.1 242.3,104.2 257.5,104.2 257.3,91.1 	"/>
	<rect x="237.4" y="92.6" class="st2" width="17.2" height="1.2"/>
	<rect x="237.4" y="95.7" class="st2" width="17.2" height="1.2"/>
	<rect x="262" y="92.6" class="st2" width="7.2" height="24.6"/>
	<path class="st5" d="M269.7,93.8h-8.2c-0.9,0-1.6-0.7-1.6-1.6l0,0c0-0.9,0.7-1.6,1.6-1.6h8.2c0.9,0,1.6,0.7,1.6,1.6l0,0
		C271.3,93,270.6,93.8,269.7,93.8z"/>
	<path class="st5" d="M269.7,117.2h-8.2c-0.9,0-1.6-0.7-1.6-1.6l0,0c0-0.9,0.7-1.6,1.6-1.6h8.2c0.9,0,1.6,0.7,1.6,1.6l0,0
		C271.3,116.5,270.6,117.2,269.7,117.2z"/>
	<rect x="263.4" y="95.7" class="st5" width="1.4" height="17.6"/>
	<rect x="266.5" y="95.7" class="st5" width="1.4" height="17.6"/>
	<rect x="274.5" y="92.6" class="st2" width="7.2" height="24.6"/>
	<path class="st5" d="M282.2,93.8H274c-0.9,0-1.6-0.7-1.6-1.6l0,0c0-0.9,0.7-1.6,1.6-1.6h8.2c0.9,0,1.6,0.7,1.6,1.6l0,0
		C283.8,93,283.1,93.8,282.2,93.8z"/>
	<path class="st5" d="M282.2,117.2H274c-0.9,0-1.6-0.7-1.6-1.6l0,0c0-0.9,0.7-1.6,1.6-1.6h8.2c0.9,0,1.6,0.7,1.6,1.6l0,0
		C283.8,116.5,283.1,117.2,282.2,117.2z"/>
	<rect x="275.9" y="95.7" class="st5" width="1.4" height="17.6"/>
	<rect x="279" y="95.7" class="st5" width="1.4" height="17.6"/>
	<rect x="161.4" y="46.2" class="st2" width="11.5" height="6.8"/>
	<rect x="163.3" y="35.8" class="st4" width="0.8" height="4.1"/>
	<rect x="165" y="35.8" class="st4" width="0.8" height="4.1"/>
	<rect x="166.7" y="35.8" class="st4" width="0.8" height="4.1"/>
	<rect x="168.4" y="35.8" class="st4" width="0.8" height="4.1"/>
	<rect x="170.1" y="35.8" class="st4" width="0.8" height="4.1"/>
	<path class="st5" d="M182.6,61.2h-2.2c-2.6,0-4.7-2.1-4.7-4.7V44.2c0-2.6,2.1-4.7,4.7-4.7h2.2c2.6,0,4.7,2.1,4.7,4.7v12.2
		C187.3,59,185.2,61.2,182.6,61.2z"/>
	<path class="st2" d="M184.5,39.9h-6.1c-1.1,0-1.9-0.9-1.9-1.9v-0.3c0-1.1,0.9-1.9,1.9-1.9h6.1c1.1,0,1.9,0.9,1.9,1.9V38
		C186.5,39.1,185.6,39.9,184.5,39.9z"/>
	<rect x="175.7" y="46.2" class="st2" width="11.5" height="6.8"/>
	<rect x="177.7" y="35.8" class="st4" width="0.8" height="4.1"/>
	<rect x="179.4" y="35.8" class="st4" width="0.8" height="4.1"/>
	<rect x="181.1" y="35.8" class="st4" width="0.8" height="4.1"/>
	<rect x="182.7" y="35.8" class="st4" width="0.8" height="4.1"/>
	<rect x="184.4" y="35.8" class="st4" width="0.8" height="4.1"/>
	<path class="st5" d="M196.8,61.2h-2.2c-2.6,0-4.7-2.1-4.7-4.7V44.2c0-2.6,2.1-4.7,4.7-4.7h2.2c2.6,0,4.7,2.1,4.7,4.7v12.2
		C201.5,59,199.4,61.2,196.8,61.2z"/>
	<path class="st2" d="M198.7,39.9h-6.1c-1.1,0-1.9-0.9-1.9-1.9v-0.3c0-1.1,0.9-1.9,1.9-1.9h6.1c1.1,0,1.9,0.9,1.9,1.9V38
		C200.7,39.1,199.8,39.9,198.7,39.9z"/>
	<rect x="190" y="46.2" class="st2" width="11.5" height="6.8"/>
	<rect x="191.9" y="35.8" class="st4" width="0.8" height="4.1"/>
	<rect x="193.6" y="35.8" class="st4" width="0.8" height="4.1"/>
	<rect x="195.3" y="35.8" class="st4" width="0.8" height="4.1"/>
	<rect x="197" y="35.8" class="st4" width="0.8" height="4.1"/>
	<rect x="198.7" y="35.8" class="st4" width="0.8" height="4.1"/>
	<path class="st8" d="M272,245.1"/>
	<rect x="209.2" y="39.5" class="st4" width="17.3" height="21.6"/>
	<rect x="209.2" y="52.4" class="st5" width="17.3" height="8.8"/>
	<rect x="231.2" y="35.4" class="st5" width="35.7" height="25.7"/>
	<rect x="231.2" y="35.4" class="st2" width="35.7" height="10.1"/>
	<rect x="231.2" y="45.5" class="st2" width="35.7" height="1.6"/>
	<rect x="231.2" y="57" class="st2" width="35.7" height="1.6"/>
	<rect x="212.2" y="41.7" class="st5" width="11.3" height="1.3"/>
	<rect x="214.2" y="44.8" class="st5" width="7.3" height="1.3"/>
	<rect x="214.2" y="47.1" class="st5" width="7.3" height="1.3"/>
	<rect x="224.5" y="231.1" class="st4" width="17.3" height="21.6"/>
	<rect x="224.5" y="244" class="st5" width="17.3" height="8.8"/>
	<rect x="227.6" y="233.4" class="st5" width="11.3" height="1.3"/>
	<rect x="229.6" y="236.4" class="st5" width="7.3" height="1.3"/>
	<rect x="229.6" y="238.7" class="st5" width="7.3" height="1.3"/>
	<rect x="211.8" y="165.2" class="st4" width="17.3" height="21.6"/>
	<rect x="211.8" y="178" class="st5" width="17.3" height="8.8"/>
	<rect x="214.8" y="167.4" class="st5" width="11.3" height="1.3"/>
	<rect x="216.8" y="170.4" class="st5" width="7.3" height="1.3"/>
	<rect x="216.8" y="172.7" class="st5" width="7.3" height="1.3"/>
	<rect x="238.7" y="49.5" class="st2" width="20.7" height="1"/>
	<rect x="242.4" y="51.9" class="st2" width="13.4" height="1"/>
	<rect x="242.4" y="53.6" class="st2" width="13.4" height="1"/>
	<rect x="207.1" y="287" class="st6" width="35.7" height="25.7"/>
	<rect x="207.1" y="287" class="st5" width="35.7" height="10.1"/>
	<rect x="207.1" y="297.2" class="st5" width="35.7" height="1.6"/>
	<rect x="207.1" y="308.6" class="st5" width="35.7" height="1.6"/>
	<rect x="214.6" y="301.1" class="st5" width="20.7" height="1"/>
	<rect x="218.2" y="303.5" class="st5" width="13.4" height="1"/>
	<rect x="218.2" y="305.2" class="st5" width="13.4" height="1"/>
	<rect x="161.9" y="175.3" class="st4" width="12.8" height="1.9"/>
	<rect x="165.1" y="178.6" class="st4" width="6.4" height="1.9"/>
	<rect x="185.1" y="175.2" class="st10" width="14.8" height="2.1"/>
	<rect x="185.1" y="178.5" class="st10" width="14.8" height="1.4"/>
	<rect x="185.1" y="180.8" class="st10" width="14.8" height="1.4"/>
	<rect x="159.1" y="160.8" class="st5" width="43" height="13"/>
	<polygon class="st4" points="177.4,173.8 183,160.7 202.1,160.7 202.1,173.8 	"/>
	<rect x="161.9" y="162.3" class="st4" width="12.8" height="1.9"/>
	<rect x="165.1" y="165.5" class="st4" width="6.4" height="1.9"/>
	<rect x="185.1" y="162.1" class="st10" width="14.8" height="2.1"/>
	<rect x="185.1" y="165.4" class="st10" width="14.8" height="1.4"/>
	<rect x="185.1" y="167.7" class="st10" width="14.8" height="1.4"/>
	<rect x="159.1" y="147.7" class="st5" width="43" height="13"/>
	<polygon class="st4" points="177.4,160.7 183,147.7 202.1,147.7 202.1,160.7 	"/>
	<rect x="161.9" y="149.2" class="st4" width="12.8" height="1.9"/>
	<rect x="165.1" y="152.6" class="st4" width="6.4" height="1.9"/>
	<rect x="185.1" y="149.1" class="st10" width="14.8" height="2.1"/>
	<rect x="185.1" y="152.4" class="st10" width="14.8" height="1.4"/>
	<rect x="185.1" y="154.7" class="st10" width="14.8" height="1.4"/>
	<rect x="235.7" y="173.8" class="st2" width="43" height="13"/>
	<polygon class="st4" points="254.1,186.8 259.7,173.8 278.7,173.8 278.7,186.8 	"/>
	<rect x="238.6" y="175.3" class="st4" width="12.8" height="1.9"/>
	<rect x="241.8" y="178.6" class="st4" width="6.4" height="1.9"/>
	<rect x="261.6" y="175.2" class="st10" width="14.8" height="2.1"/>
	<rect x="261.6" y="178.5" class="st10" width="14.8" height="1.4"/>
	<rect x="261.6" y="180.8" class="st10" width="14.8" height="1.4"/>
	<rect x="235.7" y="160.8" class="st5" width="43" height="13"/>
	<polygon class="st4" points="254.1,173.8 259.7,160.7 278.7,160.7 278.7,173.8 	"/>
	<rect x="238.6" y="162.3" class="st4" width="12.8" height="1.9"/>
	<rect x="241.8" y="165.5" class="st4" width="6.4" height="1.9"/>
	<rect x="261.6" y="162.1" class="st10" width="14.8" height="2.1"/>
	<rect x="261.6" y="165.4" class="st10" width="14.8" height="1.4"/>
	<rect x="261.6" y="167.7" class="st10" width="14.8" height="1.4"/>
	<rect x="235.7" y="147.7" class="st5" width="43" height="13"/>
	<polygon class="st4" points="254.1,160.7 259.7,147.7 278.7,147.7 278.7,160.7 	"/>
	<rect x="238.6" y="149.2" class="st4" width="12.8" height="1.9"/>
	<rect x="241.8" y="152.6" class="st4" width="6.4" height="1.9"/>
	<rect x="261.6" y="149.1" class="st10" width="14.8" height="2.1"/>
	<rect x="261.6" y="152.4" class="st10" width="14.8" height="1.4"/>
	<rect x="261.6" y="154.7" class="st10" width="14.8" height="1.4"/>
	<path class="st11" d="M231.6,308.7L231.6,308.7c0-0.5,0.4-0.8,0.9-0.8l2.7,0.2c0.5,0,0.8,0.4,0.8,0.9l0,0c0,0.5-0.4,0.8-0.9,0.8
		l-2.7-0.2C231.9,309.5,231.6,309.2,231.6,308.7z"/>
	
		<rect x="260.1" y="306.4" transform="matrix(5.584510e-02 -0.9984 0.9984 5.584510e-02 -64.2044 552.8388)" class="st4" width="0.3" height="7.9"/>
	<path class="st2" d="M253.9,310L253.9,310c0-0.6,0.5-1,1.1-1l4.7,0.3c0.6,0,1,0.5,1,1.1l0,0c0,0.6-0.5,1-1.1,1l-4.7-0.3
		C254.3,311.1,253.9,310.6,253.9,310z"/>
	<path class="st4" d="M236.2,310.5l0.2-3c0-0.4,0.4-0.7,0.7-0.7l20.8,1.2c0.4,0,0.7,0.4,0.7,0.7l-0.2,3c0,0.4-0.4,0.7-0.7,0.7
		l-20.8-1.2C236.5,311.2,236.2,310.9,236.2,310.5z"/>
	<path class="st5" d="M237.9,310.7l0.2-3.3c0-0.3,0.3-0.6,0.6-0.5l14,0.8c0.3,0,0.6,0.3,0.5,0.6l-0.2,3.3c0,0.3-0.3,0.6-0.6,0.5
		l-14-0.8C238.2,311.3,237.9,311,237.9,310.7z"/>
	<path class="st4" d="M234.2,311.5l0.3-5.2c0-0.7,0.6-1.2,1.3-1.1h0.2c0.7,0,1.2,0.6,1.1,1.3l-0.3,5.2c0,0.7-0.6,1.2-1.3,1.1h-0.2
		C234.7,312.7,234.1,312.1,234.2,311.5z"/>
	<path class="st4" d="M232.4,306.6L232.4,306.6c0.5,0,0.8,0.4,0.8,0.9l-0.2,2.7c0,0.5-0.4,0.8-0.9,0.8l0,0c-0.5,0-0.8-0.4-0.8-0.9
		l0.2-2.7C231.5,306.9,231.9,306.5,232.4,306.6z"/>
	
		<rect x="251.7" y="308.6" transform="matrix(5.585875e-02 -0.9984 0.9984 5.585875e-02 -69.7125 546.1914)" class="st12" width="4.4" height="2.7"/>
	
		<rect x="248.8" y="308.2" transform="matrix(5.587089e-02 -0.9984 0.9984 5.587089e-02 -72.1463 540.8891)" class="st12" width="2.2" height="0.7"/>
	
		<rect x="247.1" y="308.1" transform="matrix(5.584659e-02 -0.9984 0.9984 5.584659e-02 -73.6983 539.0458)" class="st12" width="2.2" height="0.7"/>
	
		<rect x="245.2" y="308" transform="matrix(5.586688e-02 -0.9984 0.9984 5.586688e-02 -75.3553 537.0865)" class="st12" width="2.2" height="0.7"/>
	
		<rect x="243.4" y="307.9" transform="matrix(5.584659e-02 -0.9984 0.9984 5.584659e-02 -76.9973 535.1368)" class="st12" width="2.2" height="0.7"/>
	
		<rect x="241.6" y="307.8" transform="matrix(5.587089e-02 -0.9984 0.9984 5.587089e-02 -78.5601 533.2763)" class="st12" width="2.2" height="0.7"/>
	
		<rect x="239.7" y="307.8" transform="matrix(5.584659e-02 -0.9984 0.9984 5.584659e-02 -80.3064 531.4167)" class="st12" width="2.2" height="0.7"/>
	<rect x="305.7" y="35.8" class="st4" width="0.8" height="4.1"/>
	<rect x="307.4" y="35.8" class="st4" width="0.8" height="4.1"/>
	<rect x="284.8" y="0" class="st2" width="142.6" height="424.1"/>
	<rect x="299.3" y="14.5" class="st3" width="128.1" height="388.4"/>
	<rect x="299.3" y="312.7" class="st4" width="128.1" height="94"/>
	<rect x="362" y="312.7" class="st2" width="3.9" height="94"/>
	<rect x="299.3" y="254.1" class="st4" width="128.1" height="7.5"/>
	<rect x="299.3" y="187.2" class="st4" width="128.1" height="7.5"/>
	<rect x="299.3" y="117.2" class="st4" width="128.1" height="7.5"/>
	<rect x="299.3" y="61.2" class="st4" width="128.1" height="7.5"/>
	<rect x="348.1" y="342.6" class="st2" width="6.5" height="37.8"/>
	<rect x="371.6" y="342.6" class="st2" width="6.5" height="37.8"/>
	
		<rect x="312.7" y="270.1" transform="matrix(9.311369e-03 -1 1 9.311369e-03 37.3935 584.1677)" class="st5" width="1.6" height="6.2"/>
	<path class="st4" d="M316.5,312.7l-6.7-0.1c-3.3,0-6-2.3-6-5l0.2-19.2c0-2.7,6-4.9,6-4.9l6.7,0.1c0,0,6,2.3,6,5l-0.2,19.2
		C322.5,310.5,319.8,312.7,316.5,312.7z"/>
	<path class="st5" d="M316,310.4h-5.3c-2.6,0-4.7-1.8-4.7-3.9l0.1-15.2c0-2.1,4.8-3.8,4.8-3.8h5.3c0,0,4.7,1.8,4.7,3.9l-0.1,15.2
		C320.7,308.7,318.6,310.4,316,310.4z"/>
	
		<rect x="309.5" y="278.7" transform="matrix(9.308998e-03 -1 1 9.308998e-03 27.7953 593.5804)" class="st4" width="7.9" height="8.1"/>
	
		<rect x="310.3" y="271.8" transform="matrix(9.304201e-03 -1 1 9.304201e-03 34.1469 587.292)" class="st5" width="6.3" height="9.2"/>
	
		<rect x="307.1" y="276.1" transform="matrix(9.360897e-03 -1 1 9.360897e-03 30.9109 583.8256)" class="st5" width="6" height="0.4"/>
	
		<rect x="309.1" y="276.1" transform="matrix(9.362064e-03 -1 1 9.362064e-03 32.8926 585.8256)" class="st5" width="6" height="0.4"/>
	
		<rect x="311.5" y="276.1" transform="matrix(9.237270e-03 -1 1 9.237270e-03 35.3081 588.2602)" class="st5" width="6" height="0.4"/>
	
		<rect x="313.7" y="276.2" transform="matrix(9.362064e-03 -1 1 9.362064e-03 37.3492 590.5238)" class="st5" width="6" height="0.4"/>
	
		<rect x="312.7" y="274.6" transform="matrix(9.305988e-03 -1 1 9.305988e-03 30.4954 591.0064)" class="st5" width="1.6" height="11"/>
	
		<ellipse transform="matrix(9.298311e-03 -1 1 9.298311e-03 15.4512 605.8947)" class="st6" cx="313.5" cy="295.1" rx="2.6" ry="0.9"/>
	
		<ellipse transform="matrix(9.298311e-03 -1 1 9.298311e-03 10.0497 611.0436)" class="st6" cx="313.4" cy="300.5" rx="2.6" ry="0.9"/>
	
		<ellipse transform="matrix(9.298310e-03 -1 1 9.298310e-03 15.3876 611.0764)" class="st6" cx="316.1" cy="297.8" rx="0.9" ry="2.6"/>
	
		<ellipse transform="matrix(0.7137 -0.7005 0.7005 0.7137 -116.871 305.6312)" class="st6" cx="315.4" cy="295.8" rx="2.6" ry="0.9"/>
	
		<ellipse transform="matrix(0.7137 -0.7005 0.7005 0.7137 -120.9471 303.8448)" class="st6" cx="311.2" cy="299.9" rx="2.6" ry="0.9"/>
	
		<ellipse transform="matrix(0.714 -0.7002 0.7002 0.714 -119.8243 306.4904)" class="st6" cx="315.2" cy="299.9" rx="0.9" ry="2.6"/>
	<ellipse transform="matrix(0.714 -0.7002 0.7002 0.714 -118.1812 302.7043)" class="st6" cx="311.4" cy="296" rx="0.9" ry="2.6"/>
	<ellipse transform="matrix(9.298310e-03 -1 1 9.298310e-03 9.9391 605.938)" class="st6" cx="310.8" cy="298" rx="0.9" ry="2.6"/>
	
		<ellipse transform="matrix(9.319615e-03 -1 1 9.319615e-03 12.6462 608.3626)" class="st4" cx="313.4" cy="297.8" rx="1.3" ry="1.4"/>
	
		<rect x="335.5" y="270.1" transform="matrix(9.311288e-03 -1 1 9.311288e-03 59.9817 606.968)" class="st5" width="1.6" height="6.2"/>
	<path class="st4" d="M339.3,312.7l-6.7-0.1c-3.3,0-6-2.3-6-5l0.2-19.2c0-2.7,6-4.9,6-4.9l6.7,0.1c0,0,6,2.3,6,5l-0.2,19.2
		C345.3,310.5,342.6,312.7,339.3,312.7z"/>
	<path class="st5" d="M338.7,310.4h-5.3c-2.6,0-4.7-1.8-4.7-3.9l0.1-15.2c0-2.1,4.8-3.8,4.8-3.8h5.3c0,0,4.7,1.8,4.7,3.9l-0.1,15.2
		C343.5,308.7,341.3,310.4,338.7,310.4z"/>
	
		<rect x="332.3" y="278.7" transform="matrix(9.308985e-03 -1 1 9.308985e-03 50.3838 616.3802)" class="st4" width="7.9" height="8.1"/>
	
		<rect x="333.1" y="271.8" transform="matrix(9.304201e-03 -1 1 9.304201e-03 56.7356 610.0919)" class="st5" width="6.3" height="9.2"/>
	
		<rect x="329.9" y="276.1" transform="matrix(9.362064e-03 -1 1 9.362064e-03 53.4979 606.6251)" class="st5" width="6" height="0.4"/>
	
		<rect x="331.9" y="276.1" transform="matrix(9.360897e-03 -1 1 9.360897e-03 55.4801 608.6259)" class="st5" width="6" height="0.4"/>
	
		<rect x="334.3" y="276.1" transform="matrix(9.236117e-03 -1 1 9.236117e-03 57.8986 611.0605)" class="st5" width="6" height="0.4"/>
	
		<rect x="336.5" y="276.2" transform="matrix(9.362064e-03 -1 1 9.362064e-03 59.9364 613.3237)" class="st5" width="6" height="0.4"/>
	
		<rect x="335.4" y="274.6" transform="matrix(9.305942e-03 -1 1 9.305942e-03 52.9865 613.7063)" class="st5" width="1.6" height="11"/>
	
		<ellipse transform="matrix(9.298311e-03 -1 1 9.298311e-03 38.0799 628.6561)" class="st6" cx="336.3" cy="295.1" rx="2.6" ry="0.9"/>
	
		<ellipse transform="matrix(9.298591e-03 -1 1 9.298591e-03 32.6781 633.8051)" class="st6" cx="336.2" cy="300.4" rx="2.6" ry="0.9"/>
	
		<ellipse transform="matrix(9.298310e-03 -1 1 9.298310e-03 38.0233 633.8454)" class="st6" cx="338.9" cy="297.7" rx="0.9" ry="2.6"/>
	
		<ellipse transform="matrix(0.7137 -0.7005 0.7005 0.7137 -110.403 321.5187)" class="st6" cx="338.1" cy="295.8" rx="2.6" ry="0.9"/>
	
		<ellipse transform="matrix(0.7137 -0.7005 0.7005 0.7137 -114.4805 319.7896)" class="st6" cx="333.9" cy="299.9" rx="2.6" ry="0.9"/>
	<ellipse transform="matrix(0.714 -0.7002 0.7002 0.714 -113.2997 322.4561)" class="st6" cx="338" cy="299.9" rx="0.9" ry="2.6"/>
	<ellipse transform="matrix(0.714 -0.7002 0.7002 0.714 -111.6512 318.6729)" class="st6" cx="334.2" cy="296" rx="0.9" ry="2.6"/>
	
		<ellipse transform="matrix(9.328492e-03 -1 1 9.328492e-03 32.4597 628.5898)" class="st6" cx="333.5" cy="297.9" rx="0.9" ry="2.6"/>
	
		<ellipse transform="matrix(9.319615e-03 -1 1 9.319615e-03 35.2742 631.1238)" class="st4" cx="336.2" cy="297.8" rx="1.3" ry="1.4"/>
	<polygon class="st4" points="420.6,172.3 420.6,172.3 418.5,169.2 420.2,169.2 420.2,165.3 418.8,165.3 418.8,164.7 418.8,164.7 
		418.8,164.1 418.8,162 421,162 421.1,159.1 418.5,159.1 417.2,147.9 415.6,147.9 414.1,159.1 411.7,159.1 411.7,162 414.1,162 
		414.1,162.3 414.1,164.7 414.1,165.3 412.7,165.3 412.7,169.2 414.5,169.2 411.7,173.3 411.7,187.4 421.2,187.4 421.2,173.3 	"/>
	<polygon class="st5" points="418.5,169.2 414.5,169.2 411.7,173.3 411.7,187.4 421.2,187.4 421.2,173.3 	"/>
	<polygon class="st7" points="418.8,165.3 414.1,165.3 414.1,162 418.8,162 	"/>
	<polygon class="st5" points="414.5,169.2 418.5,169.2 421.2,173.3 411.7,173.3 	"/>
	<polygon class="st5" points="375.3,158.7 369.1,158.8 364.6,165.1 364.6,187.1 379.5,187.1 379.5,165.1 	"/>
	<polygon class="st5" points="369.1,158.8 375.3,158.7 379.5,165.1 364.6,165.1 	"/>
	<rect x="368.6" y="153.4" class="st7" width="7.1" height="5.3"/>
	<rect x="366.6" y="151.4" class="st4" width="11" height="2"/>
	<rect x="373.5" y="152.1" class="st4" width="9.3" height="0.7"/>
	<rect x="382.5" y="151" class="st4" width="4" height="2.4"/>
	<rect x="366.7" y="170.6" class="st2" width="11.1" height="9.7"/>
	<rect x="370.7" y="171.7" class="st4" width="2.8" height="6.9"/>
	<rect x="368.7" y="174" class="st4" width="6.9" height="2.5"/>
	<polygon class="st5" points="397.2,158.7 391,158.8 386.5,165.1 386.5,187.1 401.4,187.1 401.4,165.1 	"/>
	<polygon class="st5" points="391,158.8 397.2,158.7 401.4,165.1 386.5,165.1 	"/>
	<rect x="390.5" y="153.4" class="st7" width="7.1" height="5.3"/>
	<rect x="388.5" y="151.4" class="st4" width="11" height="2"/>
	<rect x="395.5" y="152.1" class="st4" width="9.3" height="0.7"/>
	<rect x="404.4" y="151" class="st4" width="4" height="2.4"/>
	<rect x="388.6" y="170.6" class="st2" width="11.1" height="9.7"/>
	<rect x="392.7" y="171.7" class="st4" width="2.8" height="6.9"/>
	<rect x="390.6" y="174" class="st4" width="6.9" height="2.5"/>
	<polygon class="st5" points="313.6,225.7 307.4,225.8 302.9,232.1 302.9,254.1 317.8,254.1 317.8,232.1 	"/>
	<polygon class="st5" points="307.4,225.8 313.6,225.7 317.8,232.1 302.9,232.1 	"/>
	<rect x="306.9" y="220.4" class="st4" width="7.1" height="5.3"/>
	<polygon class="st5" points="334.9,225.7 328.7,225.8 324.2,232.1 324.2,254.1 339.1,254.1 339.1,232.1 	"/>
	<polygon class="st5" points="328.7,225.8 334.9,225.7 339.1,232.1 324.2,232.1 	"/>
	<rect x="328.2" y="220.4" class="st4" width="7.1" height="5.3"/>
	<polygon class="st5" points="356.2,225.7 350,225.8 345.5,232.1 345.5,254.1 360.4,254.1 360.4,232.1 	"/>
	<polygon class="st5" points="350,225.8 356.2,225.7 360.4,232.1 345.5,232.1 	"/>
	<rect x="349.5" y="220.4" class="st4" width="7.1" height="5.3"/>
	<path class="st4" d="M313.1,117.3h-2.8c-3.3,0-6-2.7-6-6V95.5c0-3.3,2.7-6,6-6h2.8c3.3,0,6,2.7,6,6v15.7
		C319.1,114.6,316.4,117.3,313.1,117.3z"/>
	<path class="st4" d="M312,97.4h-0.5c-2.1,0-3.7-1.7-3.7-3.7v-6.2c0-2.1,1.7-3.7,3.7-3.7h0.5c2.1,0,3.7,1.7,3.7,3.7v6.2
		C315.7,95.7,314,97.4,312,97.4z"/>
	<path class="st2" d="M315.8,86.6h-8.1c-0.9,0-1.7-0.8-1.7-1.7v-0.2c0-0.9,0.8-1.7,1.7-1.7h8.1c0.9,0,1.7,0.8,1.7,1.7v0.2
		C317.5,85.8,316.7,86.6,315.8,86.6z"/>
	<rect x="304.3" y="96.1" class="st5" width="14.9" height="13.2"/>
	<path class="st4" d="M335.4,117.3h-2.8c-3.3,0-6-2.7-6-6V95.5c0-3.3,2.7-6,6-6h2.8c3.3,0,6,2.7,6,6v15.7
		C341.4,114.6,338.7,117.3,335.4,117.3z"/>
	<path class="st4" d="M334.3,97.4h-0.5c-2.1,0-3.7-1.7-3.7-3.7v-6.2c0-2.1,1.7-3.7,3.7-3.7h0.5c2.1,0,3.7,1.7,3.7,3.7v6.2
		C338,95.7,336.3,97.4,334.3,97.4z"/>
	<path class="st2" d="M338.1,86.6H330c-0.9,0-1.7-0.8-1.7-1.7v-0.2c0-0.9,0.8-1.7,1.7-1.7h8.1c0.9,0,1.7,0.8,1.7,1.7v0.2
		C339.8,85.8,339,86.6,338.1,86.6z"/>
	<path class="st4" d="M410,312.6h-0.9c-1,0-1.9-0.9-1.9-1.9v-5c0-1,0.9-1.9,1.9-1.9h0.9c1,0,1.9,0.9,1.9,1.9v5
		C412,311.8,411.1,312.7,410,312.6z"/>
	<path class="st4" d="M409.8,306.4h-0.2c-0.6,0-1.2-0.5-1.2-1.2v-2c0-0.6,0.5-1.2,1.2-1.2h0.2c0.6,0,1.2,0.5,1.2,1.2v2
		C410.9,305.9,410.4,306.4,409.8,306.4z"/>
	<path class="st2" d="M411,303h-2.6c-0.3,0-0.5-0.2-0.5-0.5v-0.1c0-0.3,0.2-0.5,0.5-0.5h2.6c0.3,0,0.5,0.2,0.5,0.5v0.1
		C411.5,302.7,411.3,303,411,303z"/>
	<path class="st4" d="M415,61.1h-0.9c-1,0-1.9-0.9-1.9-1.9v-5c0-1,0.9-1.9,1.9-1.9h0.9c1,0,1.9,0.9,1.9,1.9v5
		C416.9,60.2,416,61.1,415,61.1z"/>
	<path class="st4" d="M414.7,54.8h-0.2c-0.6,0-1.2-0.5-1.2-1.2v-2c0-0.6,0.5-1.2,1.2-1.2h0.2c0.6,0,1.2,0.5,1.2,1.2v2
		C415.9,54.3,415.3,54.8,414.7,54.8z"/>
	<path class="st2" d="M415.9,51.4h-2.6c-0.3,0-0.5-0.2-0.5-0.5v-0.1c0-0.3,0.2-0.5,0.5-0.5h2.6c0.3,0,0.5,0.2,0.5,0.5v0.1
		C416.4,51.2,416.2,51.4,415.9,51.4z"/>
	<path class="st4" d="M421,61.1h-0.9c-1,0-1.9-0.9-1.9-1.9v-5c0-1,0.9-1.9,1.9-1.9h0.9c1,0,1.9,0.9,1.9,1.9v5
		C422.9,60.2,422,61.1,421,61.1z"/>
	<path class="st4" d="M420.7,54.8h-0.2c-0.6,0-1.2-0.5-1.2-1.2v-2c0-0.6,0.5-1.2,1.2-1.2h0.2c0.6,0,1.2,0.5,1.2,1.2v2
		C421.8,54.3,421.3,54.8,420.7,54.8z"/>
	<path class="st2" d="M421.9,51.4h-2.6c-0.3,0-0.5-0.2-0.5-0.5v-0.1c0-0.3,0.2-0.5,0.5-0.5h2.6c0.3,0,0.5,0.2,0.5,0.5v0.1
		C422.4,51.2,422.2,51.4,421.9,51.4z"/>
	<path class="st4" d="M416.3,312.6h-0.9c-1,0-1.9-0.9-1.9-1.9v-5c0-1,0.9-1.9,1.9-1.9h0.9c1,0,1.9,0.9,1.9,1.9v5
		C418.2,311.8,417.3,312.7,416.3,312.6z"/>
	<path class="st4" d="M416,306.4h-0.2c-0.6,0-1.2-0.5-1.2-1.2v-2c0-0.6,0.5-1.2,1.2-1.2h0.2c0.6,0,1.2,0.5,1.2,1.2v2
		C417.2,305.9,416.7,306.4,416,306.4z"/>
	<path class="st2" d="M417.2,303h-2.6c-0.3,0-0.5-0.2-0.5-0.5v-0.1c0-0.3,0.2-0.5,0.5-0.5h2.6c0.3,0,0.5,0.2,0.5,0.5v0.1
		C417.8,302.7,417.5,303,417.2,303z"/>
	<path class="st4" d="M422.6,312.6h-0.9c-1,0-1.9-0.9-1.9-1.9v-5c0-1,0.9-1.9,1.9-1.9h0.9c1,0,1.9,0.9,1.9,1.9v5
		C424.5,311.8,423.6,312.7,422.6,312.6z"/>
	<path class="st4" d="M422.3,306.4h-0.2c-0.6,0-1.2-0.5-1.2-1.2v-2c0-0.6,0.5-1.2,1.2-1.2h0.2c0.6,0,1.2,0.5,1.2,1.2v2
		C423.4,305.9,422.9,306.4,422.3,306.4z"/>
	<path class="st2" d="M423.5,303h-2.6c-0.3,0-0.5-0.2-0.5-0.5v-0.1c0-0.3,0.2-0.5,0.5-0.5h2.6c0.3,0,0.5,0.2,0.5,0.5v0.1
		C424,302.7,423.8,303,423.5,303z"/>
	<path class="st5" d="M310.7,61.2h-2.2c-2.6,0-4.7-2.1-4.7-4.7V44.2c0-2.6,2.1-4.7,4.7-4.7h2.2c2.6,0,4.7,2.1,4.7,4.7v12.2
		C315.4,59,313.3,61.2,310.7,61.2z"/>
	<path class="st2" d="M312.6,39.9h-6.1c-1.1,0-1.9-0.9-1.9-1.9v-0.3c0-1.1,0.9-1.9,1.9-1.9h6.1c1.1,0,1.9,0.9,1.9,1.9V38
		C314.5,39.1,313.7,39.9,312.6,39.9z"/>
	<rect x="326.6" y="96.1" class="st5" width="14.9" height="13.2"/>
	<path class="st4" d="M357.7,117.3h-2.8c-3.3,0-6-2.7-6-6V95.5c0-3.3,2.7-6,6-6h2.8c3.3,0,6,2.7,6,6v15.7
		C363.8,114.6,361,117.3,357.7,117.3z"/>
	<path class="st4" d="M356.6,97.4h-0.5c-2.1,0-3.7-1.7-3.7-3.7v-6.2c0-2.1,1.7-3.7,3.7-3.7h0.5c2.1,0,3.7,1.7,3.7,3.7v6.2
		C360.3,95.7,358.7,97.4,356.6,97.4z"/>
	<path class="st2" d="M360.4,86.6h-8.1c-0.9,0-1.7-0.8-1.7-1.7v-0.2c0-0.9,0.8-1.7,1.7-1.7h8.1c0.9,0,1.7,0.8,1.7,1.7v0.2
		C362.1,85.8,361.4,86.6,360.4,86.6z"/>
	<rect x="348.9" y="96.1" class="st5" width="14.9" height="13.2"/>
	<rect x="370.7" y="104.2" class="st2" width="26.8" height="13"/>
	<polygon class="st4" points="370.8,104.2 382.5,117.2 397.7,117.2 397.5,104.2 	"/>
	<rect x="301.7" y="173.8" class="st2" width="43" height="13"/>
	<polygon class="st4" points="326.2,186.8 320.7,173.8 301.5,173.8 301.5,186.8 	"/>
	<rect x="377.6" y="105.6" class="st2" width="17.2" height="1.2"/>
	<rect x="377.6" y="108.7" class="st2" width="17.2" height="1.2"/>
	<rect x="372.9" y="91.1" class="st2" width="26.8" height="13"/>
	<polygon class="st4" points="373,91.1 384.7,104.2 399.9,104.2 399.7,91.1 	"/>
	<rect x="379.8" y="92.6" class="st2" width="17.2" height="1.2"/>
	<rect x="379.8" y="95.7" class="st2" width="17.2" height="1.2"/>
	<rect x="404.4" y="92.6" class="st2" width="7.2" height="24.6"/>
	<path class="st5" d="M412.1,93.8h-8.2c-0.9,0-1.6-0.7-1.6-1.6l0,0c0-0.9,0.7-1.6,1.6-1.6h8.2c0.9,0,1.6,0.7,1.6,1.6l0,0
		C413.7,93,413,93.8,412.1,93.8z"/>
	<path class="st5" d="M412.1,117.2h-8.2c-0.9,0-1.6-0.7-1.6-1.6l0,0c0-0.9,0.7-1.6,1.6-1.6h8.2c0.9,0,1.6,0.7,1.6,1.6l0,0
		C413.7,116.5,413,117.2,412.1,117.2z"/>
	<rect x="405.8" y="95.7" class="st5" width="1.4" height="17.6"/>
	<rect x="408.9" y="95.7" class="st5" width="1.4" height="17.6"/>
	<rect x="416.9" y="92.6" class="st2" width="7.2" height="24.6"/>
	<path class="st5" d="M424.6,93.8h-8.2c-0.9,0-1.6-0.7-1.6-1.6l0,0c0-0.9,0.7-1.6,1.6-1.6h8.2c0.9,0,1.6,0.7,1.6,1.6l0,0
		C426.2,93,425.5,93.8,424.6,93.8z"/>
	<path class="st5" d="M424.6,117.2h-8.2c-0.9,0-1.6-0.7-1.6-1.6l0,0c0-0.9,0.7-1.6,1.6-1.6h8.2c0.9,0,1.6,0.7,1.6,1.6l0,0
		C426.2,116.5,425.5,117.2,424.6,117.2z"/>
	<rect x="418.3" y="95.7" class="st5" width="1.4" height="17.6"/>
	<rect x="421.4" y="95.7" class="st5" width="1.4" height="17.6"/>
	<rect x="303.8" y="46.2" class="st2" width="11.5" height="6.8"/>
	<rect x="309.1" y="35.8" class="st4" width="0.8" height="4.1"/>
	<rect x="310.8" y="35.8" class="st4" width="0.8" height="4.1"/>
	<rect x="312.5" y="35.8" class="st4" width="0.8" height="4.1"/>
	<path class="st5" d="M325,61.2h-2.2c-2.6,0-4.7-2.1-4.7-4.7V44.2c0-2.6,2.1-4.7,4.7-4.7h2.2c2.6,0,4.7,2.1,4.7,4.7v12.2
		C329.7,59,327.6,61.2,325,61.2z"/>
	<path class="st2" d="M326.9,39.9h-6.1c-1.1,0-1.9-0.9-1.9-1.9v-0.3c0-1.1,0.9-1.9,1.9-1.9h6.1c1.1,0,1.9,0.9,1.9,1.9V38
		C328.9,39.1,328,39.9,326.9,39.9z"/>
	<rect x="318.1" y="46.2" class="st2" width="11.5" height="6.8"/>
	<rect x="320.1" y="35.8" class="st4" width="0.8" height="4.1"/>
	<rect x="321.8" y="35.8" class="st4" width="0.8" height="4.1"/>
	<rect x="323.5" y="35.8" class="st4" width="0.8" height="4.1"/>
	<rect x="325.2" y="35.8" class="st4" width="0.8" height="4.1"/>
	<rect x="326.8" y="35.8" class="st4" width="0.8" height="4.1"/>
	<path class="st5" d="M339.2,61.2H337c-2.6,0-4.7-2.1-4.7-4.7V44.2c0-2.6,2.1-4.7,4.7-4.7h2.2c2.6,0,4.7,2.1,4.7,4.7v12.2
		C343.9,59,341.8,61.2,339.2,61.2z"/>
	<path class="st2" d="M341.2,39.9h-6.1c-1.1,0-1.9-0.9-1.9-1.9v-0.3c0-1.1,0.9-1.9,1.9-1.9h6.1c1.1,0,1.9,0.9,1.9,1.9V38
		C343.1,39.1,342.2,39.9,341.2,39.9z"/>
	<rect x="332.4" y="46.2" class="st2" width="11.5" height="6.8"/>
	<rect x="334.3" y="35.8" class="st4" width="0.8" height="4.1"/>
	<rect x="336" y="35.8" class="st4" width="0.8" height="4.1"/>
	<rect x="337.7" y="35.8" class="st4" width="0.8" height="4.1"/>
	<rect x="339.4" y="35.8" class="st4" width="0.8" height="4.1"/>
	<rect x="341.1" y="35.8" class="st4" width="0.8" height="4.1"/>
	<path class="st4" d="M394.8,226.5c-2.6,1.7-0.3,5.3-0.3,5.3l9.9,15.5l3.3,1.8c0,0,2.9,5.4,4.3,4.5s-2.2-5.9-2.2-5.9l-0.5-3.6
		l-9.7-15.6C399.6,228.6,397.5,224.9,394.8,226.5z"/>
	
		<rect x="403" y="227" transform="matrix(0.8445 -0.5355 0.5355 0.8445 -65.8554 253.3581)" class="st2" width="0.8" height="26.2"/>
	
		<rect x="395.3" y="229.8" transform="matrix(0.8445 -0.5355 0.5355 0.8445 -61.4824 248.4189)" class="st2" width="3.6" height="0.6"/>
	
		<rect x="396.4" y="231.8" transform="matrix(0.8445 -0.5355 0.5355 0.8445 -62.391 249.3247)" class="st2" width="3.6" height="0.6"/>
	
		<rect x="397.8" y="233.6" transform="matrix(0.8445 -0.5355 0.5355 0.8445 -63.1242 250.3477)" class="st2" width="3.6" height="0.6"/>
	
		<rect x="398.9" y="235.6" transform="matrix(0.8445 -0.5355 0.5355 0.8445 -64.0308 251.2497)" class="st2" width="3.6" height="0.6"/>
	
		<rect x="400.3" y="237.6" transform="matrix(0.8445 -0.5355 0.5355 0.8445 -64.8751 252.3164)" class="st2" width="3.6" height="0.6"/>
	
		<rect x="401.4" y="239.6" transform="matrix(0.8445 -0.5355 0.5355 0.8445 -65.7804 253.2062)" class="st2" width="3.6" height="0.6"/>
	
		<rect x="402.9" y="241.7" transform="matrix(0.8445 -0.5355 0.5355 0.8445 -66.676 254.3438)" class="st2" width="3.6" height="0.6"/>
	
		<rect x="404" y="243.6" transform="matrix(0.8445 -0.5355 0.5355 0.8445 -67.5294 255.2285)" class="st2" width="3.6" height="0.6"/>
	
		<rect x="405.1" y="245.4" transform="matrix(0.8445 -0.5355 0.5355 0.8445 -68.3166 256.0886)" class="st2" width="3.6" height="0.6"/>
	<path class="st2" d="M409.2,251.5l2.1-1.4c0,0,1.9,2.7,0.8,3.4C411,254.3,409.7,252.1,409.2,251.5z"/>
	<path class="st8" d="M414.4,245.1"/>
	<polygon class="st9" points="415.8,254.1 400.7,254.1 398.6,238.3 417.3,238.3 	"/>
	<rect x="351.6" y="39.5" class="st4" width="17.3" height="21.6"/>
	<rect x="351.6" y="52.4" class="st5" width="17.3" height="8.8"/>
	<rect x="373.7" y="35.4" class="st5" width="35.7" height="25.7"/>
	<rect x="373.7" y="35.4" class="st2" width="35.7" height="10.1"/>
	<rect x="373.7" y="45.5" class="st2" width="35.7" height="1.6"/>
	<rect x="373.7" y="57" class="st2" width="35.7" height="1.6"/>
	<rect x="354.6" y="41.7" class="st5" width="11.3" height="1.3"/>
	<rect x="356.6" y="44.8" class="st5" width="7.3" height="1.3"/>
	<rect x="356.6" y="47.1" class="st5" width="7.3" height="1.3"/>
	<rect x="367" y="231.1" class="st4" width="17.3" height="21.6"/>
	<rect x="367" y="244" class="st5" width="17.3" height="8.8"/>
	<rect x="370" y="233.4" class="st5" width="11.3" height="1.3"/>
	<rect x="372" y="236.4" class="st5" width="7.3" height="1.3"/>
	<rect x="372" y="238.7" class="st5" width="7.3" height="1.3"/>
	<rect x="381.1" y="49.5" class="st2" width="20.7" height="1"/>
	<rect x="384.8" y="51.9" class="st2" width="13.4" height="1"/>
	<rect x="384.8" y="53.6" class="st2" width="13.4" height="1"/>
	<rect x="349.5" y="287" class="st6" width="35.7" height="25.7"/>
	<rect x="349.5" y="287" class="st5" width="35.7" height="10.1"/>
	<rect x="349.5" y="297.2" class="st5" width="35.7" height="1.6"/>
	<rect x="349.5" y="308.6" class="st5" width="35.7" height="1.6"/>
	<rect x="357" y="301.1" class="st5" width="20.7" height="1"/>
	<rect x="360.7" y="303.5" class="st5" width="13.4" height="1"/>
	<rect x="360.7" y="305.2" class="st5" width="13.4" height="1"/>
	<rect x="329" y="175.3" class="st4" width="12.8" height="1.9"/>
	<rect x="332.2" y="178.6" class="st4" width="6.4" height="1.9"/>
	<rect x="304" y="175.1" class="st10" width="14.8" height="2.1"/>
	<rect x="304" y="178.4" class="st10" width="14.8" height="1.4"/>
	<rect x="304" y="180.7" class="st10" width="14.8" height="1.4"/>
	<rect x="301.7" y="160.7" class="st5" width="43" height="13"/>
	<polygon class="st4" points="326.2,173.8 320.7,160.7 301.5,160.7 301.5,173.8 	"/>
	<rect x="329" y="162.2" class="st4" width="12.8" height="1.9"/>
	<rect x="332.2" y="165.6" class="st4" width="6.4" height="1.9"/>
	<rect x="304" y="162.1" class="st10" width="14.8" height="2.1"/>
	<rect x="304" y="165.4" class="st10" width="14.8" height="1.4"/>
	<rect x="304" y="167.7" class="st10" width="14.8" height="1.4"/>
	<rect x="301.7" y="147.7" class="st5" width="43" height="13"/>
	<polygon class="st4" points="326.2,160.7 320.7,147.7 301.5,147.7 301.5,160.7 	"/>
	<rect x="329" y="149.2" class="st4" width="12.8" height="1.9"/>
	<rect x="332.2" y="152.5" class="st4" width="6.4" height="1.9"/>
	<rect x="304" y="149" class="st10" width="14.8" height="2.1"/>
	<rect x="304" y="152.3" class="st10" width="14.8" height="1.4"/>
	<rect x="304" y="154.7" class="st10" width="14.8" height="1.4"/>
	<rect x="347.7" y="147.9" class="st2" width="14" height="38.9"/>
	<rect x="347.7" y="147.9" class="st4" width="14" height="11.4"/>
	<rect x="351.5" y="151.1" class="st10" width="6.4" height="1.9"/>
	<path class="st11" d="M374,308.7L374,308.7c0-0.5,0.4-0.8,0.9-0.8l2.7,0.2c0.5,0,0.8,0.4,0.8,0.9l0,0c0,0.5-0.4,0.8-0.9,0.8
		l-2.7-0.2C374.4,309.5,374,309.2,374,308.7z"/>
	
		<rect x="402.5" y="306.4" transform="matrix(5.584510e-02 -0.9984 0.9984 5.584510e-02 70.2666 695.0441)" class="st4" width="0.3" height="7.9"/>
	<path class="st2" d="M396.3,310L396.3,310c0-0.6,0.5-1,1.1-1l4.7,0.3c0.6,0,1,0.5,1,1.1l0,0c0,0.6-0.5,1-1.1,1l-4.7-0.3
		C396.7,311.1,396.3,310.6,396.3,310z"/>
	<path class="st4" d="M378.6,310.5l0.2-3c0-0.4,0.4-0.7,0.7-0.7l20.8,1.2c0.4,0,0.7,0.4,0.7,0.7l-0.2,3c0,0.4-0.4,0.7-0.7,0.7
		l-20.8-1.2C378.9,311.2,378.6,310.9,378.6,310.5z"/>
	<path class="st5" d="M380.3,310.7l0.2-3.3c0-0.3,0.3-0.6,0.6-0.5l14,0.8c0.3,0,0.6,0.3,0.5,0.6l-0.2,3.3c0,0.3-0.3,0.6-0.6,0.5
		l-14-0.8C380.6,311.3,380.3,311,380.3,310.7z"/>
	<path class="st4" d="M376.6,311.4l0.3-5.2c0-0.7,0.6-1.2,1.3-1.1h0.2c0.7,0,1.2,0.6,1.1,1.3l-0.3,5.2c0,0.7-0.6,1.2-1.3,1.1h-0.2
		C377.1,312.7,376.6,312.1,376.6,311.4z"/>
	<path class="st4" d="M374.8,306.6L374.8,306.6c0.5,0,0.8,0.4,0.8,0.9l-0.2,2.7c0,0.5-0.4,0.8-0.9,0.8l0,0c-0.5,0-0.8-0.4-0.8-0.9
		l0.2-2.7C373.9,306.9,374.3,306.5,374.8,306.6z"/>
	
		<rect x="394.2" y="308.6" transform="matrix(5.585875e-02 -0.9984 0.9984 5.585875e-02 64.7562 688.3969)" class="st12" width="4.4" height="2.7"/>
	
		<rect x="391.3" y="308.2" transform="matrix(5.587089e-02 -0.9984 0.9984 5.587089e-02 62.3209 683.0941)" class="st12" width="2.2" height="0.7"/>
	
		<rect x="389.5" y="308.1" transform="matrix(5.584659e-02 -0.9984 0.9984 5.584659e-02 60.7724 681.2512)" class="st12" width="2.2" height="0.7"/>
	
		<rect x="387.6" y="308.1" transform="matrix(5.586527e-02 -0.9984 0.9984 5.586527e-02 59.014 679.3758)" class="st12" width="2.2" height="0.7"/>
	
		<rect x="385.8" y="307.9" transform="matrix(5.584659e-02 -0.9984 0.9984 5.584659e-02 57.4736 677.342)" class="st12" width="2.2" height="0.7"/>
	
		<rect x="383.9" y="307.8" transform="matrix(5.587089e-02 -0.9984 0.9984 5.587089e-02 55.818 675.3765)" class="st12" width="2.2" height="0.7"/>
	
		<rect x="382.2" y="307.8" transform="matrix(5.584659e-02 -0.9984 0.9984 5.584659e-02 54.1646 673.622)" class="st12" width="2.2" height="0.7"/>
	<path class="st13" d="M350.5,264.1c8-2.2,11.9-1.1,22.5-0.6c0,0-0.2,15.1-11.3,15.1C348.8,278.7,350.5,264.1,350.5,264.1z"/>
	<polygon class="st14" points="249.5,443.5 249.5,443.5 0,443.5 0,451.3 177.9,451.3 177.9,451.3 427.4,451.3 427.4,443.5 	"/>
</g>
</svg>
