<?xml version="1.0" encoding="utf-8"?>
<!-- Generator: Adobe Illustrator 21.0.0, SVG Export Plug-In . SVG Version: 6.00 Build 0)  -->
<svg version="1.1" id="Layer_1" xmlns="http://www.w3.org/2000/svg" xmlns:xlink="http://www.w3.org/1999/xlink" x="0px" y="0px"
	 viewBox="0 0 261.4 390.2" style="enable-background:new 0 0 261.4 390.2;" xml:space="preserve">
<style type="text/css">
	.st0{fill:#A87065;}
	.st1{fill:#A5DFF9;}
	.st2{fill:#86CAE2;}
	.st3{fill:#895B55;}
	.st4{fill:#2B6889;}
	.st5{fill:#4289BA;}
	.st6{fill:#47291F;}
	.st7{fill:#BC7E6F;}
	.st8{fill:none;stroke:#99665F;stroke-width:0.5;stroke-miterlimit:10;}
	.st9{fill:#242D22;}
	.st10{fill:#FFFFFF;}
	.st11{fill:#512D26;}
	.st12{fill:#8F5A32;}
	.st13{fill:#EBEFF2;}
	.st14{fill:#60C5BA;}
	.st15{fill:#EF9C81;}
	.st16{opacity:0.1;fill:#231F20;enable-background:new    ;}
	.st17{fill:#3D4444;}
	.st18{fill:#F5F6F7;}
	.st19{fill:#F79673;}
	.st20{fill:#FCA78D;}
	.st21{fill:#7C4B2A;}
	.st22{fill:#569CE8;}
	.st23{fill:#9B623B;}
	.st24{fill:#DEE4E9;}
</style>
<g>
	<g>
		<path class="st0" d="M96,223.8c0,1-0.7,1.8-1.7,1.8l0,0c-0.4,0-0.8-0.1-1.1-0.4v1.3c0,1-0.7,1.8-1.7,1.8l0,0c-1,0-1.8-0.7-1.8-1.7
			l-0.3-7.9c-0.1,0.1-0.2,0.1-0.3,0.1l0,0l0.3,10.6c0,1-0.7,1.8-1.7,1.8s-1.8-0.7-1.8-1.7l-0.3-10.6c0-0.2,0-0.3,0-0.4h-0.1l0.3,8.9
			c0,1-0.7,1.8-1.7,1.8l0,0c-1,0-1.8-0.7-1.8-1.7L82,216.9c0-0.2,0.1-0.3,0.1-0.5c0-1.3-0.2-2.5-0.5-3.6l-2.6,2.9
			c-0.6,0.7-1.8,0.8-2.5,0.1l0,0c-0.7-0.6-0.8-1.8-0.1-2.5l4.9-7c0.5-2.7,1.7-5.8,3.3-10.7l9.3,2.6l1.5,14.1
			c0.2,0.3,0.3,0.6,0.3,0.9L96,223.8z"/>
		<path class="st1" d="M78.8,104.3l4,92.3l11.1,1.6c3.6-26.8-5.5-89.5-5.5-89.5L78.8,104.3z"/>
		<path class="st2" d="M33,108.1l45-0.6l11.2,25.9c1.9,4.3,2,9.3,0.4,13.7l-2.7,10.5l-1,37.4l-49.5-2.2L33,108.1z"/>
		<path class="st0" d="M66.1,301.8c0,0-9.4-113.5-10.7-113.5l30.9,2c3.2-0.1-4.7,186.5-4.7,186.5l-10.3-0.6
			C72.3,376.2,55.6,325.4,66.1,301.8z"/>
		<path class="st0" d="M33.3,300.4c0,0,1-106.1-0.3-106.1l25.9-6c7.6,74.2-20.1,187.9-20.1,187.9h-9.7
			C30.1,376.2,24.5,314.9,33.3,300.4z"/>
		<polygon class="st3" points="54.1,293.3 33.3,291.9 33.1,287.5 54.6,289.7 		"/>
		<polygon class="st3" points="85.1,286.5 84.8,292.9 65.3,293.3 65,289.8 		"/>
		<path class="st4" d="M29.1,376.2h9.7l12.3,5.5c5,0,13.2,0.6,12.8,8.2l0,0H28.4L29.1,376.2z"/>
		<path class="st4" d="M71.2,376.2h9.7l12.3,5.5c5,0,13.2,0.6,12.8,8.2l0,0H70.5L71.2,376.2z"/>
		<path class="st0" d="M35.9,370.3l2.9,5.9l12.3,5.5c-10.1,5.7-22-5.5-22-5.5L35.9,370.3z"/>
		<path class="st0" d="M78,370.3l2.9,5.9l12.3,5.5c-10.1,5.7-22-5.5-22-5.5L78,370.3z"/>
		<path class="st5" d="M29.7,287.2l-2.6-61.1c-2.8-10.4-0.6-28.2,5.8-36l3.4-14.3h47.6c4.4,27.4,2.7,69.3,1.7,111.6
			C85.5,290.7,29.7,290.5,29.7,287.2z"/>
		<path class="st1" d="M25.3,112.1l49.2-5.7L84.7,130c1.7,3.9,4.4,10.9,2.9,14.9l-2.4,8.7L86,195c-4.4,12.6-38.5,7.7-55.6-2.1
			C44.9,162.1,22.8,130.4,25.3,112.1z"/>
		<path class="st6" d="M58.2,118.7c0,0,16.9-6.2,22.8-18.4c9.4-19.5,3-51.9,3-51.9c5.1-36.6-30-32.5-30-32.5L58.2,118.7z"/>
		<path class="st1" d="M20.4,111.9l-2.2-3.3c0-10,17.8-13.5,38.2-19.7c1.8-0.6,1.3-0.3,3.1,0.9c10.8,7.1,28.9,7.9,28.9,18.9
			c0,0-0.2,7.8-5.9,7.9l-57.1,0.6C21.5,117.2,20.7,117.1,20.4,111.9z"/>
		<polygon class="st0" points="76.5,97.2 64.8,92.6 40,97.7 66.5,126.2 		"/>
		<path class="st0" d="M47.8,68.5l16.3,0.8l0.7,23.9c2.8,12.7-8.6,15.5-16.5,1L47.8,68.5z"/>
		<path class="st2" d="M27.7,129.1c14.9,47.6,2.5,64.4,2.5,64.4c4.3,2.2,4.3,2.2,9.3,3.6c12.9-35.6-7.2-66.5-7.2-66.5
			S26.5,125.4,27.7,129.1z"/>
		<path class="st0" d="M39.1,69L32,41.6c-0.8-9.5,12.7-17.1,22.3-18l0,0c9.7-0.9,18.2,6.2,19,15.7l2.5,28.1
			c0.9,9.5-6.3,17.9-15.9,18.8l0,0C50.3,87,42.3,82.9,39.1,69z"/>
		<path class="st7" d="M44,43.2c-0.8-9.5,6.1-18,15.4-18.8l0,0c9.3-0.8,17.6,6.2,18.4,15.8c0,0,9.7,44.8-12.9,46.8l0,0
			C41.7,89,44,43.1,44,43.2z"/>
		<path class="st8" d="M51.1,44.8c2.2-1.4,6.7-3.7,12.8-4.1c4.2-0.3,7.6,0.5,9.8,1.2"/>
		<path class="st8" d="M51.1,40.8c2.2-1.4,6.7-3.7,12.8-4.1c4.2-0.3,7.6,0.5,9.8,1.2"/>
		<path class="st7" d="M78.8,51.1c2.2,0.4,3.6,3.6,3.1,7.2c-0.5,3.7-2.7,6.3-4.9,6c-2.2-0.4-3.6-3.6-3.1-7.2
			C74.4,53.4,76.6,50.7,78.8,51.1z"/>
		<path class="st0" d="M67.3,66.2L67.3,66.2c3.8-0.4,4.7-3.3,3.7-4.2l-4.5-3.3L67.3,66.2z"/>
		<ellipse transform="matrix(0.9932 -0.1163 0.1163 0.9932 -6.3073 7.1241)" class="st9" cx="57.9" cy="57.6" rx="2.7" ry="3.6"/>
		<ellipse transform="matrix(0.9932 -0.1163 0.1163 0.9932 -5.9517 8.941)" class="st9" cx="73.6" cy="55.5" rx="2.7" ry="3.6"/>
		<path class="st10" d="M67.6,76.7c-7,0.8-9.6-5.6-9.6-5.6l16.1-1.9C74.1,69.2,73.4,76,67.6,76.7z"/>
		<path class="st6" d="M58.7,47.7c-7.4-0.7-11.2,3.2-12.2,5.4c-0.2,0.5,0.2,1,0.6,0.7c5.4-3.7,11.7-3.3,11.7-3.3L58.7,47.7z"/>
		<path class="st6" d="M68.1,46.8c4.3-2,7.9-0.9,10.5,0.4l0.5,1.4c-6.3-0.6-10.8,0.5-10.8,0.5L68.1,46.8z"/>
		<path class="st0" d="M79.2,47.7c-0.3-3.7-6.6-18.6-6.6-18.6C78.1,31.6,79.1,47.6,79.2,47.7z"/>
		<path class="st10" d="M77.9,97.8l-10.6,31.4c0,0-34.4-33-34.9-32.9s10.5,2,10.5,2L66,123.4l7.5-27.3L77.9,97.8z"/>
		<path class="st6" d="M25.1,32.9c-3.8,12.4,1.1,48.3,2.8,53.3c6,17.9,21.2,14.3,21.2,14.3s0.4-8.5-1.2-16.9
			c-0.8-3.8-20-28.3-1.5-36.3C60.3,41.3,72.8,33,73.2,27C73.5,20.5,61,16.5,61,16.5C44.8,14.2,29.9,17.3,25.1,32.9z"/>
		<ellipse transform="matrix(0.8836 -0.4682 0.4682 0.8836 -25.3219 24.8459)" class="st0" cx="37.3" cy="63.4" rx="4.2" ry="6.6"/>
		<g>
			<g>
				<g>
					<path class="st0" d="M15.8,213.3c-1.5-3.9-2.1-6.7-4.7-10.4l-9.2,2.8l0.8,15.4c5.2,3.4,9.2,5.5,14.8,1.1
						C17.6,219.1,17.4,217.4,15.8,213.3z"/>
				</g>
				<g>
					<path class="st0" d="M12.2,207l8.6,9.3c0.9,0.5,1.2,1.2,0.7,2.1l-0.7,1.1c-0.5,0.9-1-0.6-1.9-1.1l-8.3-6.1
						c-0.9-0.6-1.2-1.8-0.7-2.7l0,0C10.4,208.7,11.2,206.4,12.2,207z"/>
				</g>
				<g>
					<path class="st0" d="M17.5,220.6l1.5,9.1c0.1,0.9-0.5,1.8-1.5,2h-0.3c-0.9,0.1-1.8-0.5-2-1.5l-1.5-9.1c-0.1-0.9,0.5-1.8,1.5-2
						h0.3C16.5,219,17.4,219.6,17.5,220.6z"/>
				</g>
				<g>
					<path class="st0" d="M14.1,223.4l1.4,8.7c0.1,0.9-0.5,1.8-1.5,2h-0.3c-0.9,0.1-1.8-0.5-2-1.5l-1.4-8.7c-0.1-0.9,0.5-1.8,1.5-2
						h0.3C13,221.8,13.9,222.5,14.1,223.4z"/>
				</g>
				<g>
					<path class="st0" d="M9.6,221.2l1.8,11.3c0.1,1.1-0.6,2-1.6,2.2l0,0c-1.1,0.1-2-0.6-2.2-1.6l-1.8-11.3c-0.1-1.1,0.6-2,1.6-2.2
						l0,0C8.4,219.5,9.4,220.2,9.6,221.2z"/>
				</g>
				<g>
					<path class="st0" d="M6.4,218.8l1.8,11.3c0.1,1.1-0.6,2-1.6,2.2l0,0c-1.1,0.1-2-0.6-2.2-1.6l-1.8-11.3c-0.1-1.1,0.6-2,1.6-2.2
						l0,0C5.2,217.1,6.2,217.8,6.4,218.8z"/>
				</g>
			</g>
		</g>
		<path class="st1" d="M32.2,121.9L19,105.1C-2.4,148.8-1.2,181.4,1.3,216.3l14.8-6.9C18.9,171.7,16.9,153.7,32.2,121.9z"/>
		<path class="st11" d="M30.2,46.1C23.3,35.6,32,24,42.3,19.6c10.2-4.3,29.3,4.7,29.3,4.7C63.5,42.5,30.3,46.1,30.2,46.1z"/>
		<path class="st8" d="M74.4,66.2c0.6,0.6,1.7,1.9,2.4,3.9c0.5,1.4,0.6,2.6,0.6,3.4"/>
		<path class="st8" d="M58.4,67.2c-0.6,0.6-1.7,1.9-2.4,3.9c-0.5,1.4-0.6,2.6-0.6,3.4"/>
	</g>
	<g>
		<path class="st12" d="M201.1,69.8c-10.5-20.5-20-27.7-20-27.7c-11-44,28.1-40.3,28.1-40.3S207.6,82.8,201.1,69.8z"/>
		<path class="st13" d="M195.7,94.5l-7.1-10.3c-10.1,4.2-12.4,7.4-14.1,12.9l-10.6,48.8l5.3,7.6L188,156L195.7,94.5z"/>
		<path class="st14" d="M241.4,104.7l-53-6.1l-11,25.4c-1.8,4.2-2,9.1-0.4,13.4l6.4,17.5l-3.1,27.2h48.8
			C232.4,149.8,243.9,124.4,241.4,104.7z"/>
		<path class="st14" d="M249.2,100l-1-0.5c0-10.7-18.9-16.1-39.4-25.4c-1.9-0.8-3.9,1.7-5.8,3c-11.7,7.8-17.3,9.5-17.3,21.4
			c0,0-4.7,10.6,1.4,10.6l54,1.2C245.3,110.3,248.9,105.7,249.2,100z"/>
		<path class="st15" d="M198.1,299.8c0,0,8.9-116.4,10.2-116.4l-31.4,2.1c-3.3-0.1,5.7,191.3,5.7,191.3l10.5-0.6
			C192.1,376.1,208.8,324,198.1,299.8z"/>
		<path class="st16" d="M198,299.8c0,0,8.9-116.4,10.2-116.4l-31.4,2.1c-1.9,0,0.4,65,2.6,119.3c4.5,0.7,12.3,1.1,20.7,1.2
			C199.6,303.8,198.9,301.7,198,299.8z"/>
		<path class="st15" d="M232.1,298.2c0,0-0.4-116.4,0.9-116.4l-24.7,1.7c-9.4,75.9,16,192.7,16,192.7h10
			C233.3,376.1,240.6,313.1,232.1,298.2z"/>
		<path class="st16" d="M233,181.8l-24.7,1.7c-4.6,37.2-0.8,84.1,4.2,122.4c9.5-0.2,18.1-0.8,21.8-1.7c-0.6-2.4-1.3-4.5-2.2-6
			C232.1,298.2,231.7,181.8,233,181.8z"/>
		<path class="st17" d="M234.2,376.2h-9.9l-12.7,5.5c-5.1,0-13.4,0.7-13,8.5l0,0H235L234.2,376.2z"/>
		<path class="st17" d="M236.2,298.2l2.8-66.1c3-11.3-1.3-25.9-2.6-32.9l-7.4-21.6l-49.3,0.4c-4.8,29.6-5.2,74.6-4.1,120.4
			C175.7,302,236.1,301.8,236.2,298.2z"/>
		<path class="st15" d="M227.2,370.2l-2.9,6l-12.6,5.6c10.4,5.9,22.5-5.6,22.5-5.6L227.2,370.2z"/>
		<path class="st17" d="M193,376.1h-9.9l-12.6,5.6c-5.1,0-13.4,0.7-13,8.5l0,0h36.4L193,376.1z"/>
		<path class="st15" d="M186.1,370.2l-2.9,6l-12.6,5.6c10.4,5.9,22.5-5.6,22.5-5.6L186.1,370.2z"/>
		<path class="st13" d="M186.4,86.2c-3.7,2.3-10.8,40.4-12.1,45.8c0.3,12.7,8.9,22.9,8.9,22.9l-6.6,23.1
			c-5.6,28.7-4.4,95.4-4.4,95.4c9.2,1.8,15.8,1.8,21.6-0.2c0,0,0.9-99.8-1.7-130.1s6.2-63.1,6.2-63.1S192.4,82.6,186.4,86.2z"/>
		<path class="st18" d="M181.4,274.6c4.9,0.3,9-0.1,12.7-1.4c0,0,0.9-99.8-1.7-130.1c-2.6-30.3,6.2-63.1,6.2-63.1s-2.8,1.3-6.5,3.2
			c-2.1,8.9-7.5,35.2-5.4,59.9c2.6,30.3,1.7,130.1,1.7,130.1C186.2,274,183.9,274.4,181.4,274.6z"/>
		<path class="st19" d="M223.9,57.6l7.5-27.9c0.9-9.7-12.8-17.6-22.6-18.6l0,0c-9.8-0.9-18.6,6.2-19.5,15.9l-2.8,28.6
			c-0.9,9.7,6.3,18.3,16.1,19.3l0,0C212.4,75.9,220.5,71.8,223.9,57.6z"/>
		<path class="st19" d="M215.9,56.5l-17.5,1.3l-0.1,25.7c0,14.2,17.7,14.9,17.8,0.6L215.9,56.5z"/>
		<path class="st20" d="M219.1,31.1c1-9.7-6-18.4-15.5-19.3l0,0c-9.5-0.9-18,6.3-18.9,16c0,0-10.3,45.7,12.7,47.9l0,0
			C221.2,78,219.1,31.2,219.1,31.1z"/>
		<path class="st20" d="M183.6,39.1c-2.3,0.3-3.8,3.6-3.3,7.3s2.7,6.4,5,6.1s3.8-3.6,3.3-7.3S185.9,38.8,183.6,39.1z"/>
		<path class="st12" d="M216.2,35.1c-14.8-6.6-28.1-15.5-28.4-21.9c-0.3-7,13.1-11.1,13.1-11.1C231,7.1,235.9,43.8,216.2,35.1z"/>
		<path class="st21" d="M237.9,14.5c4.8-0.5,9.9,4.7,11.4,11.4c1.6,6.7-1,12.5-5.8,13s-9.9-4.7-11.4-11.4
			C230.6,20.7,233.2,14.9,237.9,14.5z"/>
		<path class="st12" d="M227.5,54.6c0.2,0.7-1.8,2-3.7,3.2l-1.8,6c3.7,2.4,19.7-7.2,19.9-22c0.7-55.7-41-39.7-41-39.7
			S218.3,24.7,227.5,54.6z"/>
		
			<ellipse transform="matrix(0.4753 -0.8798 0.8798 0.4753 72.899 225.8593)" class="st19" cx="225.8" cy="51.8" rx="6.8" ry="4.3"/>
		<path class="st21" d="M205.4,35.6c7.5-0.9,11.4,3.1,12.5,5.3c0.2,0.5-0.1,1-0.6,0.7c-5.6-3.7-12-3.1-12-3.1L205.4,35.6z"/>
		<path class="st21" d="M193.5,34.6c-4.4-2-8.1-0.8-10.7,0.6l-0.5,1.4c6.4-0.7,11.1,0.3,11.1,0.3L193.5,34.6z"/>
		<path class="st19" d="M195,55.4L195,55.4c-4.4-0.5-5.6-4.2-4.4-6l5.4-4.2L195,55.4z"/>
		<path class="st10" d="M197.6,66.6c7.6,0.5,9.4-7.7,9.4-7.7l-17.7-1.1C189.3,57.8,191,66.2,197.6,66.6z"/>
		
			<ellipse transform="matrix(7.632907e-02 -0.9971 0.9971 7.632907e-02 131.089 226.9117)" class="st6" cx="188" cy="42.7" rx="3.7" ry="2.8"/>
		
			<ellipse transform="matrix(7.632980e-02 -0.9971 0.9971 7.632980e-02 147.4497 246.7725)" class="st6" cx="206.9" cy="43.8" rx="3.7" ry="2.8"/>
		<path class="st18" d="M249.9,93.2l-8.2,29.7l-11.1,52.8c18.5,37.7,12,97.6,12,97.6c-11.8,2.8-26.7,2.6-38,0c0,0-5.1-24-2.9-97
			c2-67.2,14.7-98.7,14.7-98.7C240.8,84.3,249.9,93,249.9,93.2z"/>
		<polygon class="st22" points="207.8,192.8 207.8,192.8 176.1,186.3 178.4,130.1 178.4,130.1 210.1,136.6 		"/>
		<polygon class="st5" points="204.7,192.2 204.7,192.2 173,185.6 175.3,129.4 175.3,129.4 206.9,136 		"/>
		<path class="st19" d="M206.6,163.8c1.3-0.3,3.1-0.8,3.7-1.8c2-3.4-2.5-1.6-2.5-1.6l-7.2,0.3l-7.8,4.1l-4.7,8.7l13.4,4.4l7.7-3.1
			l2.6-7.8c0.5-0.7-0.2-1.6-1-1.5l-2.1,0.3l-4.9-0.7C203.8,165.1,204.9,164.3,206.6,163.8z"/>
		<path class="st13" d="M166,136.3l-2.6,13c-1.1,15.4,10.7,23.5,21,26.4c2.8,0.8,5.7,1.2,8.2,1.3l0.2-15.3
			C181.7,159.1,171.1,150.2,166,136.3z"/>
		<path class="st23" d="M237.4,33.5c8.3-12.6-2.2-26.5-14.5-31.7c-12.3-5.2-32,8.4-32,8.4C200.7,32.1,237.4,33.5,237.4,33.5z"/>
		<path class="st24" d="M237.3,128.8l-11.9,46.9c22.3,62.3,10.8,99,10.8,99l6.3-1.5c8.5-56.7-11.7-98.8-11.7-98.8l10.1-48
			L237.3,128.8z"/>
		<g>
			<path class="st20" d="M239.8,215.9c0.5-4.1,0.3-7,1.9-11.3l9.8,0.4l3.2,15.2c-4.3,4.6-7.6,7.7-14.2,4.9
				C239.6,222.2,239.3,220.4,239.8,215.9z"/>
			<path class="st20" d="M241.7,208.8l-7.4,9.7c-0.8,0.8-0.8,2,0,2.8l0,0c0.8,0.8,2,0.8,2.8,0l7.5-7.6c0.8-0.8,0.8-2,0-2.8l0,0
				C243.8,210.1,242.4,208.1,241.7,208.8z"/>
			<path class="st20" d="M240,223.7l1.2,11.6c0.1,1,1,1.8,2.1,1.7l0,0c1-0.1,1.8-1,1.7-2.1l-1.2-11.6c-0.1-1-1-1.8-2.1-1.7l0,0
				C240.7,221.7,239.9,222.7,240,223.7z"/>
			<path class="st20" d="M244.2,225.5l1.2,11.6c0.1,1,1,1.8,2.1,1.7l0,0c1-0.1,1.8-1,1.7-2.1l-1.2-11.6c-0.1-1-1-1.8-2.1-1.7l0,0
				C244.8,223.6,244,224.5,244.2,225.5z"/>
			<path class="st20" d="M248,222.1l1.2,11.6c0.1,1,1,1.8,2.1,1.7l0,0c1-0.1,1.8-1,1.7-2.1l-1.2-11.6c-0.1-1-1-1.8-2.1-1.7l0,0
				C248.6,220.1,247.8,221,248,222.1z"/>
			<path class="st20" d="M250.5,218.9l1.2,11.6c0.1,1,1,1.8,2.1,1.7l0,0c1-0.1,1.8-1,1.7-2.1l-1.2-11.6c-0.1-1-1-1.8-2.1-1.7l0,0
				C251.1,216.9,250.4,217.8,250.5,218.9z"/>
		</g>
		<path class="st18" d="M237.4,112.7L249.8,93c15.2,45.3,12.3,81.8,5.4,115.4l-15.1-0.3C242.2,171.2,248.2,145.6,237.4,112.7z"/>
		<path class="st24" d="M246.8,94.6c19,72,3.8,113.7,3.8,113.7l4.7,0.1c16.4-51.1-5.4-115.4-5.4-115.4L246.8,94.6z"/>
		<path class="st24" d="M215.4,80.3c11.9,1.2,31.3,14.3,31.3,14.3l3.2-1.5c-12.2-10.3-33.5-15.5-33.5-15.5L215.4,80.3z"/>
	</g>
</g>
</svg>
