<?xml version="1.0" encoding="utf-8"?>
<!-- Generator: Adobe Illustrator 19.0.0, SVG Export Plug-In . SVG Version: 6.00 Build 0)  -->
<svg version="1.1" id="Layer_1" xmlns="http://www.w3.org/2000/svg" xmlns:xlink="http://www.w3.org/1999/xlink" x="0px" y="0px"
	 width="90px" height="90px" viewBox="0 0 90 90" style="enable-background:new 0 0 90 90;" xml:space="preserve">
<style type="text/css">
	.st0{fill:#ECEDF0;}
	.st1{fill:#576978;}
	.st2{fill:#5BC4BF;}
	.st3{fill:#CED2DA;}
	.st4{fill:#314050;}
	.st5{fill:#9EA5B5;}
	.st6{fill:#62AEDC;}
	.st7{fill:#F3F6F8;}
</style>
<g id="XMLID_12108_">
	<circle id="XMLID_12115_" class="st0" cx="45" cy="45" r="45"/>
</g>
<g id="XMLID_55_">
	<g id="XMLID_81_">
		<g id="XMLID_82_">
			<path id="XMLID_86_" class="st1" d="M22,38.5c-8.3,0-15.1,6.7-15.1,15.1S13.6,68.7,22,68.7c8.3,0,15.1-6.7,15.1-15.1
				S30.3,38.5,22,38.5z M22,66.5c-7.1,0-12.9-5.8-12.9-12.9c0-7.1,5.8-12.9,12.9-12.9s12.9,5.8,12.9,12.9
				C34.8,60.7,29.1,66.5,22,66.5z"/>
			<path id="XMLID_83_" class="st2" d="M22,39.8c-7.6,0-13.8,6.2-13.8,13.8S14.3,67.4,22,67.4c7.6,0,13.8-6.2,13.8-13.8
				S29.6,39.8,22,39.8z M22,66.3c-7,0-12.7-5.7-12.7-12.7c0-7,5.7-12.7,12.7-12.7c7,0,12.7,5.7,12.7,12.7C34.7,60.6,29,66.3,22,66.3
				z"/>
		</g>
	</g>
	<g id="XMLID_72_">
		<g id="XMLID_74_">
			<path id="XMLID_78_" class="st1" d="M67,38.5c-8.3,0-15.1,6.7-15.1,15.1S58.7,68.7,67,68.7c8.3,0,15.1-6.7,15.1-15.1
				S75.3,38.5,67,38.5z M67,66.5c-7.1,0-12.9-5.8-12.9-12.9c0-7.1,5.8-12.9,12.9-12.9c7.1,0,12.9,5.8,12.9,12.9
				C79.9,60.7,74.1,66.5,67,66.5z"/>
			<path id="XMLID_75_" class="st2" d="M67,39.8c-7.6,0-13.8,6.2-13.8,13.8S59.4,67.4,67,67.4c7.6,0,13.8-6.2,13.8-13.8
				S74.6,39.8,67,39.8z M67,66.3c-7,0-12.7-5.7-12.7-12.7c0-7,5.7-12.7,12.7-12.7c7,0,12.7,5.7,12.7,12.7C79.7,60.6,74,66.3,67,66.3
				z"/>
		</g>
		<circle id="XMLID_73_" class="st3" cx="67" cy="53.6" r="2.1"/>
	</g>
	<path id="XMLID_69_" class="st2" d="M23,52.8l10.3-16.6l6,19.6L23,52.8z M58.4,36.2L40.6,55.4l-7.4-24.3l-1.4,0.4l0.9,2.8L21.2,53
		c-0.1,0.2-0.1,0.5,0,0.7c0.1,0.2,0.3,0.4,0.5,0.4l18,3.3l0,0l0,0l0.4,0.1c0,0,0.1,0,0.1,0c0.2,0,0.4-0.1,0.5-0.2l0.2-0.3l0,0l0,0
		l17.8-19.1l2.3,8c1.5,5.1,5.1,8.5,5.2,8.6l1-1.1c0,0-3.4-3.2-4.8-7.9l-4.8-16.9c0,0-0.2-0.6,0.1-1c0.1-0.3,0.4-0.4,0.8-0.5l0,0
		c0.3-0.1,2.9-1.1,3.3-2.8c0.1-0.5,0.1-1.3-0.7-2.1l-4.3-4l-1,1.1l4.2,4c0.4,0.4,0.3,0.6,0.3,0.7c-0.1,0.7-1.5,1.4-2.3,1.8
		c-0.9,0.3-1.4,0.8-1.6,1.3c-0.5,1-0.2,2.1-0.2,2.1L58.4,36.2z"/>
	<path id="XMLID_68_" class="st4" d="M27.6,27.1h9c0,0,2.7-0.2,2.9,1c0,0,0.5,1.7-1.8,2.1l-9,2.5c0,0-2.7,1-2.9-2.1
		C25.9,30.5,25.2,27.3,27.6,27.1z"/>
	<path id="XMLID_66_" class="st5" d="M40,61.9c-0.6,0-1.2-0.1-1.8-0.3l-17.4-5.5c-1-0.5-1.6-1.5-1.6-2.5c0-1.5,1.3-2.8,2.8-2.8
		l18-0.6c3.2,0,5.8,2.6,5.8,5.8S43.2,61.9,40,61.9z"/>
	<path id="XMLID_65_" class="st2" d="M36.3,44.1l-0.1-1.5C47.5,42.2,57.1,31.1,57.2,31l1.1,1C57.9,32.4,48.2,43.6,36.3,44.1z"/>
	<path id="XMLID_64_" class="st4" d="M59.9,23c-0.3,0-0.6-0.1-0.8-0.3l-3.4-2.8c-0.5-0.4-0.6-1.2-0.2-1.7c0.4-0.5,1.2-0.6,1.7-0.2
		l3.4,2.8c0.5,0.4,0.6,1.2,0.2,1.7C60.5,22.8,60.2,23,59.9,23z"/>
	<polygon id="XMLID_63_" class="st6" points="73,37.1 62.2,37.1 59.9,28.4 74.6,28.4 	"/>
	<circle id="XMLID_62_" class="st3" cx="40" cy="56.1" r="2.3"/>
	<path id="XMLID_59_" class="st7" d="M40,61.3c-2.9,0-5.2-2.3-5.2-5.2c0-2.9,2.3-5.2,5.2-5.2c2.9,0,5.2,2.3,5.2,5.2
		C45.2,58.9,42.9,61.3,40,61.3z M40,51.6c-2.5,0-4.5,2-4.5,4.5c0,2.5,2,4.5,4.5,4.5c2.5,0,4.5-2,4.5-4.5
		C44.5,53.6,42.5,51.6,40,51.6z"/>
	
		<rect id="XMLID_58_" x="38.3" y="60.1" transform="matrix(0.5125 0.8587 -0.8587 0.5125 72.6486 -7.009)" class="st1" width="8.4" height="0.7"/>
	<path id="XMLID_57_" class="st4" d="M47.6,61.8c0.2,0.3,0.1,0.8-0.3,0.9l-5.2,2.9c-0.3,0.2-0.8,0.1-0.9-0.3L41,65
		c-0.2-0.3-0.1-0.8,0.3-0.9l5.2-2.9c0.3-0.2,0.8-0.1,0.9,0.3L47.6,61.8z"/>
	<circle id="XMLID_56_" class="st3" cx="22" cy="53.6" r="2.1"/>
</g>
</svg>
