<?xml version="1.0" encoding="utf-8"?>
<!-- Generator: Adobe Illustrator 19.0.0, SVG Export Plug-In . SVG Version: 6.00 Build 0)  -->
<svg version="1.1" id="Layer_1" xmlns="http://www.w3.org/2000/svg" xmlns:xlink="http://www.w3.org/1999/xlink" x="0px" y="0px"
	 width="225.1px" height="123.5px" viewBox="0 0 225.1 123.5" style="enable-background:new 0 0 225.1 123.5;" xml:space="preserve"
	>
<style type="text/css">
	.st0{opacity:0.8;fill:#FFFFFF;}
</style>
<path id="XMLID_9255_" class="st0" d="M71,77.5c0,0,2.7-13,23.6-7.9c0,0,34.9-79,70.5-7.4c0,0,23.2-21,27.3,7.7
	c0,0,19.6-6.7,26.1,7.7L71,77.5z"/>
<path id="XMLID_9254_" class="st0" d="M88.7,27.2c0,0-1.6-7.8-14.2-4.7c0,0-21-47.5-42.4-4.5c0,0-14-12.6-16.4,4.7
	c0,0-11.8-4-15.7,4.6L88.7,27.2z"/>
<path id="XMLID_34_" class="st0" d="M184.2,95.6h40.9c0,0-0.7-4-4.2-4.2c-2.8-0.2-4.1,1-4.1,1s-1-3-3.6-3.7
	c-2.2-0.6-4.6,0.7-4.6,0.7s0.8-2.9-1-3.4c-1.2-0.3-3.6,1-3.6,1s1.4-5.4,1.4-7.9c0-2.5-1-5.4-4.4-5.5c-3.4-0.1-6.6,3.3-7.8,8.1
	c-1.2,4.8-1.7,7.5-1.7,7.5s-2.8-0.5-4.2,0.3C184.2,91.3,184.2,95.6,184.2,95.6z"/>
<path id="XMLID_25_" class="st0" d="M54.1,103.8c0,0-0.7-2.8-2.8-2.8c-2,0-2.8,1-2.8,1s0.3-4.9-2.7-4.9c-3,0-3.3,1.7-3.3,1.7
	s1-8.4-3.5-8.4c-4.5,0-7,7.9-7,7.9s-2.5-1.7-6,1.3c-1.8,1.5-2,4.3-2,4.3H54.1z"/>
<path id="XMLID_1_" class="st0" d="M78,123.5h39.1c0,0,0.6-6.2-2.5-6.8c-2.9-0.5-3.7,1.1-3.7,1.1s0.9-7.8-3.1-7.9
	c-2.3-0.1-2.8,1.8-2.8,1.8s-2-8.3-7.2-8.3c-5.1,0-4.4,7.5-4.4,7.5s-1.8-0.3-3.4,0.7c-2.3,1.4-1.8,4.1-1.8,4.1s-3.9-0.8-5.7,1.2
	c-1.8,2-1.4,4-1.4,4s-1.9,0.2-2.6,1C77.9,122.7,78,123.5,78,123.5z"/>
</svg>
