<?xml version="1.0" encoding="utf-8"?>
<!-- Generator: Adobe Illustrator 19.0.0, SVG Export Plug-In . SVG Version: 6.00 Build 0)  -->
<svg version="1.1" id="Layer_1" xmlns="http://www.w3.org/2000/svg" xmlns:xlink="http://www.w3.org/1999/xlink" x="0px" y="0px"
	 width="268px" height="229px" viewBox="0 0 268 229" style="enable-background:new 0 0 268 229;" xml:space="preserve">
<style type="text/css">
	.st0{opacity:0.6;fill-rule:evenodd;clip-rule:evenodd;fill:#606060;}
	.st1{fill-rule:evenodd;clip-rule:evenodd;fill:#FFFFFF;}
	.st2{fill-rule:evenodd;clip-rule:evenodd;fill:#4C2F0C;}
	.st3{fill-rule:evenodd;clip-rule:evenodd;fill:#231403;}
	.st4{fill-rule:evenodd;clip-rule:evenodd;fill:#D8AF87;}
</style>
<g id="XMLID_546_">
	<path id="XMLID_532_" class="st0" d="M2.4,99.9c12.4-57.5,69-94,126.3-81.5c53.7,11.7,89,62.1,83.1,115.7l47.1,10.2
		c6.1,1.3,10.1,7.5,8.8,13.7l-2.1,9.6c-1.3,6.2-7.5,10.1-13.6,8.8l-48.7-10.6c-20,45.2-69.5,71.7-119.6,60.8
		C26.4,214.1-10,157.4,2.4,99.9z"/>
	<g id="XMLID_547_">
		<path id="XMLID_531_" class="st1" d="M262.7,149.6l2.1-9.5c1.3-6.1-2.6-12.2-8.7-13.5l-69.5-15.1c-6.1-1.3-12.1,2.6-13.5,8.7
			l-2,9.5c-1.3,6.1,2.6,12.2,8.6,13.5l69.5,15.1C255.3,159.6,261.4,155.7,262.7,149.6z"/>
		<path id="XMLID_530_" class="st1" d="M207.8,127.4c12.3-56.7-23.7-112.7-80.3-125C70.9-9.9,15.1,26.1,2.9,82.9
			c-12.3,56.8,23.7,112.7,80.3,125C139.8,220.2,195.6,184.2,207.8,127.4z"/>
		<path id="XMLID_529_" class="st2" d="M192.6,124.1c10.4-48.3-20.2-96-68.4-106.5C76,7.2,28.5,37.9,18,86.2
			c-10.4,48.3,20.2,96,68.4,106.5C134.6,203.1,182.2,172.4,192.6,124.1z"/>
		<path id="XMLID_528_" class="st3" d="M179.6,121.3c8.9-41.1-17.1-81.6-58.2-90.5C80.4,21.8,40,47.9,31.1,89
			c-8.9,41.1,17.2,81.6,58.2,90.5C130.3,188.5,170.7,162.4,179.6,121.3z"/>
		<path id="XMLID_527_" class="st4" d="M165.3,137c15.3-29.4,6.2-55.3-2.3-68.6C142.8,37,101,27.9,69.6,48.2
			c-13.3,8.6-22.6,21-27.3,34.9c5.3-11.7,24.6-16.8,40.3-16.8c37.9,0-8.9,36.6,25.3,52.9C132.4,130.8,149.3,116.3,165.3,137z"/>
	</g>
</g>
</svg>
