<?xml version="1.0" encoding="utf-8"?>
<!-- Generator: Adobe Illustrator 19.0.0, SVG Export Plug-In . SVG Version: 6.00 Build 0)  -->
<svg version="1.1" id="Layer_1" xmlns="http://www.w3.org/2000/svg" xmlns:xlink="http://www.w3.org/1999/xlink" x="0px" y="0px"
	 width="90px" height="90px" viewBox="0 0 90 90" style="enable-background:new 0 0 90 90;" xml:space="preserve">
<style type="text/css">
	.st0{fill:#ECEDF0;}
	.st1{clip-path:url(#XMLID_54_);}
	.st2{fill:#565066;}
	.st3{fill:#C9C7CF;}
</style>
<g id="XMLID_6823_">
	<g id="cutlery">
		<g id="railway">
			<circle id="XMLID_9832_" class="st0" cx="45" cy="45" r="45"/>
		</g>
	</g>
	<g id="XMLID_6816_">
		<defs>
			<circle id="XMLID_6820_" cx="45" cy="45" r="45"/>
		</defs>
		<clipPath id="XMLID_54_">
			<use xlink:href="#XMLID_6820_"  style="overflow:visible;"/>
		</clipPath>
		<g id="XMLID_6817_" class="st1">
			<path id="XMLID_9828_" class="st2" d="M65.8,19.9c-6.9,0.9-12.2,6.7-12.2,13.9l0,37.3c0,2.1,1.5,4,3.4,4.5
				c0.7,0.2,1.2,0.8,1.2,1.5l0,53.7c0,2.3,1.5,4.3,3.7,4.8c3,0.6,5.6-1.7,5.6-4.6l0-109.5C67.5,20.5,66.7,19.8,65.8,19.9z
				 M64.5,132.7c-0.9,0.9-2.4,0.9-3.3,0c-0.9-0.9-0.9-2.4,0-3.3c0.9-0.9,2.4-0.9,3.3,0C65.5,130.3,65.5,131.7,64.5,132.7z"/>
			<path id="XMLID_9825_" class="st3" d="M42.4,22.8c0-0.4-0.4-0.8-0.8-0.8h0c-0.4,0-0.8,0.3-0.8,0.8l-1.3,15.5
				c-0.1,1.1-0.8,2.1-1.9,2.3c-1.6,0.4-3-0.8-3.1-2.3l-0.6-15.5c0-0.4-0.4-0.8-0.8-0.8c-0.4,0-0.8,0.3-0.8,0.8l-0.6,15.4
				c0,1.1-0.7,2.1-1.8,2.4c-1.6,0.4-3-0.7-3.2-2.2l-1.3-15.6c0-0.4-0.4-0.8-0.8-0.8c-0.4,0-0.8,0.3-0.8,0.8l-2.3,33.4
				c0,1.7,1.4,3.1,3.1,3.1c2.2,0,3.9,1.7,3.9,3.9v65.5c0,2.3,1.5,4.3,3.7,4.8c3,0.6,5.6-1.7,5.6-4.6V63.2c0-2.2,1.7-3.9,3.9-3.9
				c1.7,0,3.1-1.4,3.1-3.1L42.4,22.8z M33,131.2c-1.3,0-2.3-1-2.3-2.3c0-1.3,1-2.3,2.3-2.3s2.3,1,2.3,2.3
				C35.3,130.2,34.3,131.2,33,131.2z"/>
		</g>
	</g>
</g>
</svg>
