<?xml version="1.0" encoding="utf-8"?>
<!-- Generator: Adobe Illustrator 19.0.0, SVG Export Plug-In . SVG Version: 6.00 Build 0)  -->
<svg version="1.1" id="Layer_1" xmlns="http://www.w3.org/2000/svg" xmlns:xlink="http://www.w3.org/1999/xlink" x="0px" y="0px"
	 width="90px" height="90px" viewBox="0 0 90 90" style="enable-background:new 0 0 90 90;" xml:space="preserve">
<style type="text/css">
	.st0{fill:#ECEDF0;}
	.st1{fill:#565066;}
	.st2{fill:#433E51;}
	.st3{fill:#FFFFFF;}
	.st4{fill:#25B6D1;}
	.st5{fill:#C9C7CF;}
	.st6{fill:#EA5E65;}
	.st7{opacity:0.23;fill:#4D4D4D;}
</style>
<g id="XMLID_12108_">
	<circle id="XMLID_12115_" class="st0" cx="45" cy="45" r="45"/>
</g>
<g id="XMLID_1_">
	<rect id="XMLID_94_" x="38.5" y="27.5" class="st1" width="2.1" height="6.9"/>
	<rect id="XMLID_93_" x="40.6" y="27.5" class="st2" width="2.1" height="6.9"/>
	<path id="XMLID_92_" class="st3" d="M81.4,26.5h-2.6c-1,0-1.8,0.7-2,1.6l-1.4,5.8c-0.1,0.3,0.1,0.5-0.3,0.5H44.7
		c-0.4,0-0.7-0.3-0.7-0.7v-1.4c0-0.8-0.6-1.4-1.4-1.4h-4.2c-0.8,0-1.4,0.6-1.4,1.4v1.4c0,0.4-0.3,0.7-0.7,0.7h-8.2V47
		c0,1.1-0.9,2.1-2.1,2.1H14.5c0.4,7.3,6.4,13,13.8,13h13.8c7.6,0,13.8-6.2,13.8-13.8v0c0-1.6-0.3-3.1-0.8-4.6
		c-0.5-1.3,0.6-2.7,2-2.7L79,41c1.1,0,2-0.8,2.1-1.9l1-11.9C82.1,26.9,81.8,26.5,81.4,26.5z"/>
	<g id="XMLID_55_">
		<path id="XMLID_57_" class="st0" d="M41.5,31.2h1.9C43.2,31.1,43,31,42.7,31H41C41.1,31.1,41.3,31.2,41.5,31.2z"/>
	</g>
	<g id="XMLID_89_">
		<path id="XMLID_91_" class="st4" d="M28.3,34.4L28.3,34.4c-7.6,0-13.8,6.2-13.8,13.8v0c0,0.3,0,0.5,0,0.8h11.7
			c1.1,0,2.1-0.9,2.1-2.1V34.4z"/>
		<path id="XMLID_90_" class="st3" d="M25.5,36L25.5,36c-5.1,0.9-9.1,5.8-9.6,11h0.6c0.6,0,1.1-0.4,1.3-1
			C18.9,42.1,21.8,37.1,25.5,36z"/>
	</g>
	<g id="XMLID_14_">
		<path id="XMLID_53_" class="st1" d="M40.6,28.5c-1.1,0-2.1-0.9-2.1-2.1c0-1.1,0.9-2.1,2.1-2.1V28.5z"/>
		<path id="XMLID_15_" class="st2" d="M40.6,28.5c1.1,0,2.1-0.9,2.1-2.1c0-1.1-0.9-2.1-2.1-2.1V28.5z"/>
	</g>
	<path id="XMLID_13_" class="st1" d="M71.5,28.5H9.7c-0.5,0-0.9-0.4-0.9-0.9v-0.2c0-0.5,0.4-0.9,0.9-0.9h61.8c0.5,0,0.9,0.4,0.9,0.9
		v0.2C72.4,28.1,72,28.5,71.5,28.5z"/>
	<g id="XMLID_10_">
		<path id="XMLID_12_" class="st1" d="M19.7,69.7c-4.2,0-7.6-3.4-7.6-7.6v-1.7c-1,0-1.7,0.8-1.7,1.7c0,5.1,4.2,9.3,9.3,9.3h38
			c1,0,1.7-0.8,1.7-1.7h-1.7H19.7z"/>
		<path id="XMLID_11_" class="st5" d="M57.7,68h-38c-3.2,0-5.9-2.6-5.9-5.9c0-1-0.8-1.7-1.7-1.7h0v1.7c0,4.2,3.4,7.6,7.6,7.6h38h1.7
			C59.5,68.7,58.7,68,57.7,68z"/>
	</g>
	<g id="XMLID_7_">
		<path id="XMLID_9_" class="st5" d="M27,60.8v7.5c0,0.8,0.6,1.4,1.4,1.4V59.4C27.6,59.4,27,60.1,27,60.8z"/>
		<path id="XMLID_8_" class="st1" d="M28.3,59.4v10.3c0.8,0,1.4-0.6,1.4-1.4v-7.5C29.7,60.1,29.1,59.4,28.3,59.4z"/>
	</g>
	<g id="XMLID_4_">
		<path id="XMLID_6_" class="st5" d="M40.8,60.8v7.5c0,0.8,0.6,1.4,1.4,1.4V59.4C41.4,59.4,40.8,60.1,40.8,60.8z"/>
		<path id="XMLID_5_" class="st1" d="M42.2,59.4v10.3c0.8,0,1.4-0.6,1.4-1.4v-7.5C43.6,60.1,42.9,59.4,42.2,59.4z"/>
	</g>
</g>
<path id="XMLID_60_" class="st6" d="M14.8,51.4c1.4,6.1,6.9,10.6,13.4,10.6h13.8c6.5,0,12-4.5,13.5-10.6H14.8z"/>
<path id="XMLID_58_" class="st7" d="M81.4,26.5h-2.6c0,0-0.1,0-0.1,0l-0.8,9.4c-0.1,1.1-1,1.9-2.1,1.9l-21.9-0.1
	c-1.4,0-2.4,1.4-2,2.7c0.5,1.4,0.8,3,0.8,4.6v0c0,7.6-6.2,13.8-13.8,13.8H25.1c-3,0-5.8-1-8-2.6c2.5,3.5,6.6,5.8,11.2,5.8h13.8
	c7.6,0,13.8-6.2,13.8-13.8v0c0-1.6-0.3-3.1-0.8-4.6c-0.5-1.3,0.6-2.7,2-2.7L79,41c1.1,0,2-0.8,2.1-1.9l1-11.9
	C82.1,26.9,81.8,26.5,81.4,26.5z"/>
</svg>
