<?xml version="1.0" encoding="utf-8"?>
<!-- Generator: Adobe Illustrator 19.0.0, SVG Export Plug-In . SVG Version: 6.00 Build 0)  -->
<svg version="1.1" id="Layer_1" xmlns="http://www.w3.org/2000/svg" xmlns:xlink="http://www.w3.org/1999/xlink" x="0px" y="0px"
	 width="90px" height="90px" viewBox="0 0 90 90" style="enable-background:new 0 0 90 90;" xml:space="preserve">
<style type="text/css">
	.st0{fill:#ECEDF0;}
	.st1{fill:#919498;}
	.st2{fill:#7F8287;}
	.st3{fill:#B6B7BB;}
	.st4{fill:#A3A5A9;}
	.st5{fill:#C8C9CC;}
	.st6{fill:#50A0D2;}
	.st7{fill:#006E96;}
	.st8{fill:#D2D2D2;}
	.st9{fill:#B4B4B4;}
	.st10{fill:#C8C8C8;}
	.st11{fill:#A0A0A0;}
	.st12{fill:#787878;}
	.st13{fill:#3291C8;}
	.st14{fill:#FAFAFA;}
	.st15{fill:#F0F0F0;}
	.st16{fill:#005A8C;}
</style>
<g id="XMLID_12108_">
	<circle id="XMLID_12115_" class="st0" cx="45" cy="45" r="45"/>
</g>
<g id="XMLID_194_">
	<g id="XMLID_297_">
		<polygon id="XMLID_192_" class="st1" points="45.7,11.9 36.2,14.2 36.2,16.6 55.1,16.6 55.1,14.2 		"/>
		<polygon id="XMLID_191_" class="st2" points="45.7,11.9 45.7,16.6 55.1,16.6 55.1,14.2 		"/>
	</g>
	<rect id="XMLID_188_" x="33.9" y="16.6" class="st3" width="23.6" height="49.6"/>
	<rect id="XMLID_187_" x="45.7" y="16.6" class="st4" width="11.8" height="49.6"/>
	<rect id="XMLID_186_" x="57.5" y="21.3" class="st3" width="11.8" height="44.9"/>
	<rect id="XMLID_185_" x="69.3" y="21.3" class="st4" width="4.7" height="44.9"/>
	<rect id="XMLID_182_" x="17.3" y="21.3" class="st3" width="4.7" height="44.9"/>
	<rect id="XMLID_181_" x="22.1" y="21.3" class="st5" width="11.8" height="44.9"/>
	<g id="XMLID_262_">
		<polygon id="XMLID_144_" class="st6" points="24,24 24,25.4 24,26 24,31 32,31 32,26 32,25.4 32,24 		"/>
		<polygon id="XMLID_145_" class="st6" points="24,33 24,37.8 24,38.8 24,40 32,40 32,38.8 32,37.8 32,33 		"/>
		<polygon id="XMLID_146_" class="st6" points="24,43 24,47.3 24,48.5 24,50 32,50 32,48.5 32,47.3 32,43 		"/>
		<polygon id="XMLID_151_" class="st6" points="24,52 24,56.7 24,57.2 24,59 32,59 32,57.2 32,56.7 32,52 		"/>
	</g>
	<g id="XMLID_253_">
		<polygon id="XMLID_143_" class="st7" points="60,24 60,24.7 60,26 60,31 67,31 67,26 67,24.7 67,24 		"/>
		<polygon id="XMLID_142_" class="st7" points="60,33 60,35.1 60,35.5 60,40 67,40 67,35.5 67,35.1 67,33 		"/>
		<polygon id="XMLID_141_" class="st7" points="60,43 60,44 60,44.9 60,50 67,50 67,44.9 67,44 67,43 		"/>
		<polygon id="XMLID_140_" class="st7" points="60,52 60,53.6 60,54.4 60,59 67,59 67,54.4 67,53.6 67,52 		"/>
	</g>
	<g id="XMLID_250_">
		<rect id="XMLID_150_" x="31.5" y="63.8" class="st8" width="28.3" height="2.4"/>
		<rect id="XMLID_149_" x="45.7" y="63.8" class="st9" width="14.2" height="2.4"/>
	</g>
	<g id="XMLID_247_">
		<rect id="XMLID_148_" x="29.2" y="65" class="st10" width="33.1" height="1.2"/>
		<rect id="XMLID_147_" x="45.7" y="65" class="st11" width="16.5" height="1.2"/>
	</g>
	<g id="XMLID_236_">
		<polygon id="XMLID_138_" class="st11" points="77.6,66.2 14.5,66.2 12.1,68.5 80,68.5 		"/>
		<polygon id="XMLID_137_" class="st12" points="77.6,66.2 45.7,66.2 45.7,68.5 80,68.5 		"/>
	</g>
	<g id="XMLID_221_">
		<polygon id="XMLID_110_" class="st6" points="36.2,37.8 36.2,39.8 36.2,40.2 36.2,44.9 41,44.9 41,40.2 41,39.8 41,37.8 		"/>
		<polygon id="XMLID_105_" class="st6" points="43.3,37.8 43.3,42.6 43.3,43.1 43.3,44.9 48.1,44.9 48.1,43.1 48.1,42.6 48.1,37.8 
					"/>
		<polygon id="XMLID_112_" class="st6" points="36.2,28.4 36.2,29.8 36.2,30.8 36.2,35.5 41,35.5 41,30.8 41,29.8 41,28.4 		"/>
		<polygon id="XMLID_106_" class="st6" points="43.3,28.4 43.3,33.1 43.3,33.5 43.3,35.5 48.1,35.5 48.1,33.5 48.1,33.1 48.1,28.4 
					"/>
		<path id="XMLID_123_" class="st13" d="M48.1,23.7c0-1.3-1.1-2.4-2.4-2.4c-1.3,0-2.4,1.1-2.4,2.4c0,0,0,0,0,0h0v2.4h4.7V23.7
			L48.1,23.7C48,23.7,48.1,23.7,48.1,23.7z"/>
		<path id="XMLID_122_" class="st13" d="M41,23.7c0-1.3-1.1-2.4-2.4-2.4c-1.3,0-2.4,1.1-2.4,2.4c0,0,0,0,0,0h0v2.4H41V23.7L41,23.7
			C41,23.7,41,23.7,41,23.7z"/>
	</g>
	<polygon id="XMLID_121_" class="st14" points="55.1,47.6 36.2,47.6 36.2,48.8 38.6,48.8 38.6,63.8 52.8,63.8 52.8,48.8 55.1,48.8 	
		"/>
	<polygon id="XMLID_120_" class="st15" points="55.1,47.6 45.7,47.6 45.7,48 45.7,57.2 45.7,63.8 52.8,63.8 52.8,48.7 55.1,48.7 	
		"/>
	<g id="XMLID_212_">
		<polygon id="XMLID_104_" class="st6" points="42.1,48.9 41.8,48.9 39.8,48.9 39.8,63.8 41.8,63.8 42.1,63.8 48.1,63.8 48.1,48.9 
					"/>
		<polygon id="XMLID_103_" class="st7" points="50.5,48.9 49.2,48.9 45.7,48.9 45.7,63.8 49.2,63.8 50.5,63.8 51.6,63.8 51.6,48.9 
					"/>
	</g>
	<rect id="XMLID_115_" x="57.5" y="19" class="st4" width="16.5" height="2.4"/>
	<rect id="XMLID_114_" x="17.3" y="19" class="st3" width="16.5" height="2.4"/>
	<g id="XMLID_195_">
		<polygon id="XMLID_113_" class="st7" points="50.4,37.8 50.4,39.7 50.4,40.2 50.4,44.9 55.1,44.9 55.1,40.2 55.1,39.7 55.1,37.8 
					"/>
		<polygon id="XMLID_102_" class="st7" points="45.7,37.8 45.7,42.6 45.7,43.1 45.7,44.9 48.1,44.9 48.1,43.1 48.1,42.6 48.1,37.8 
					"/>
		<polygon id="XMLID_125_" class="st7" points="45.7,28.4 45.7,33.1 45.7,33.5 45.7,35.5 48.1,35.5 48.1,33.5 48.1,33.1 48.1,28.4 
					"/>
		<polygon id="XMLID_111_" class="st7" points="50.4,28.4 50.4,30.1 50.4,30.8 50.4,35.5 55.1,35.5 55.1,30.8 55.1,30.1 55.1,28.4 
					"/>
		<path id="XMLID_100_" class="st16" d="M55.1,23.7c0-1.3-1.1-2.4-2.4-2.4c-1.3,0-2.4,1.1-2.4,2.4c0,0,0,0,0,0h0v2.4h4.7V23.7
			L55.1,23.7C55.1,23.7,55.1,23.7,55.1,23.7z"/>
		<path id="XMLID_99_" class="st7" d="M48.1,23.7c0-1.3-1.1-2.4-2.4-2.4v2.4V26v0h2.4V23.7L48.1,23.7C48,23.7,48.1,23.7,48.1,23.7z"
			/>
	</g>
</g>
</svg>
