<?xml version="1.0" encoding="utf-8"?>
<!-- Generator: Adobe Illustrator 19.0.0, SVG Export Plug-In . SVG Version: 6.00 Build 0)  -->
<svg version="1.1" id="Layer_1" xmlns="http://www.w3.org/2000/svg" xmlns:xlink="http://www.w3.org/1999/xlink" x="0px" y="0px"
	 width="90px" height="90px" viewBox="0 0 90 90" style="enable-background:new 0 0 90 90;" xml:space="preserve">
<style type="text/css">
	.st0{fill:#ECEDF0;}
	.st1{fill:#FFE0B2;}
	.st2{fill:#FFD180;}
	.st3{fill:#C49A64;}
	.st4{fill:#BA5D3A;}
	.st5{fill:#A64C28;}
	.st6{fill:#FFE6AD;}
	.st7{fill:#E0E0E0;}
	.st8{fill:#F5F5F5;}
	.st9{fill:#FFFFFF;}
	.st10{fill:#D8AC6F;}
	.st11{fill:#518793;}
	.st12{fill:#006064;}
	.st13{fill:#7AAFBF;}
	.st14{fill:#00838F;}
	.st15{fill:#B08A5A;}
	.st16{fill:#C99152;}
	.st17{fill:#BA8049;}
	.st18{fill:#B32424;}
	.st19{fill:#A31919;}
	.st20{fill:#BDBDBD;}
</style>
<g id="XMLID_12108_">
	<circle id="XMLID_12115_" class="st0" cx="45" cy="45" r="45"/>
</g>
<g id="XMLID_14496_">
	<polygon id="XMLID_14650_" class="st1" points="45,10.9 20.2,23.2 20.2,72.8 69.8,72.8 69.8,23.2 	"/>
	<polygon id="XMLID_14649_" class="st2" points="46.1,23.8 58,18 69.8,23.8 69.8,72.8 46.1,72.8 	"/>
	<polygon id="XMLID_14648_" class="st3" points="20.2,24.6 20.2,27.2 45,14.9 69.8,27.2 69.8,24.6 45,12.3 	"/>
	<g id="XMLID_14643_">
		<rect id="XMLID_14647_" x="20.2" y="66.9" class="st4" width="26" height="5.9"/>
		<polygon id="XMLID_14646_" class="st2" points="46.1,64.1 20.2,64.1 20,64.5 46.1,64.5 		"/>
		<polygon id="XMLID_14645_" class="st5" points="46.1,66.1 20,66.1 20.2,66.9 46.1,66.9 		"/>
		<rect id="XMLID_14644_" x="20" y="64.5" class="st6" width="26.1" height="1.6"/>
	</g>
	<polygon id="XMLID_14642_" class="st3" points="46.1,24.6 46.1,27.2 58,21.3 69.8,27.2 69.8,24.6 58,18.7 	"/>
	<polygon id="XMLID_14641_" class="st7" points="74.5,27.2 45,12.6 15.5,27.2 14.4,25.1 45,10 75.6,25.1 	"/>
	<polygon id="XMLID_14640_" class="st8" points="74.5,27.2 58,19 41.5,27.2 40.4,25.1 58,16.4 75.6,25.1 	"/>
	<g id="XMLID_14620_">
		<rect id="XMLID_14639_" x="51.9" y="30.4" class="st9" width="12.2" height="12.5"/>
		<rect id="XMLID_14638_" x="53" y="31.5" class="st10" width="10" height="10.3"/>
		<rect id="XMLID_14637_" x="53.5" y="32" class="st11" width="4.2" height="1.8"/>
		<rect id="XMLID_14636_" x="53.5" y="34.4" class="st11" width="4.2" height="6.9"/>
		<rect id="XMLID_14635_" x="58.3" y="32" class="st11" width="4.2" height="1.8"/>
		<rect id="XMLID_14634_" x="53.5" y="32" class="st12" width="4.2" height="0.8"/>
		<rect id="XMLID_14633_" x="58.3" y="32" class="st12" width="4.2" height="0.8"/>
		<rect id="XMLID_14632_" x="58.3" y="34.4" class="st11" width="4.2" height="6.9"/>
		<polygon id="XMLID_14631_" class="st13" points="57.7,34.6 57.7,36.9 55.3,41.3 54,41.3 53.9,41.3 		"/>
		<polygon id="XMLID_14630_" class="st13" points="59.2,34.4 58.3,36 58.3,34.4 		"/>
		<polygon id="XMLID_14629_" class="st13" points="60,32.9 59.5,33.9 58.3,33.9 58.3,33.6 58.7,32.9 		"/>
		<polygon id="XMLID_14628_" class="st13" points="56,41.3 57.7,38.3 57.7,39.5 56.7,41.3 		"/>
		<polygon id="XMLID_14627_" class="st13" points="60.6,34.4 58.3,38.5 58.3,37.3 59.9,34.4 		"/>
		<polygon id="XMLID_14626_" class="st13" points="61.5,32.9 60.9,33.9 60.2,33.9 60.8,32.9 		"/>
		<polygon id="XMLID_14625_" class="st13" points="57.4,34.4 53.5,41.2 53.5,40.5 56.9,34.4 		"/>
		<polygon id="XMLID_14624_" class="st13" points="57.2,33.9 57.7,33 57.7,33.7 57.7,33.9 		"/>
		<polygon id="XMLID_14623_" class="st14" points="60.5,32 60,32.9 58.7,32.9 59.2,32 		"/>
		<polygon id="XMLID_14622_" class="st14" points="58.7,32 58.3,32.8 58.3,32.1 58.3,32 		"/>
		<polygon id="XMLID_14621_" class="st14" points="61.9,32 61.5,32.9 60.8,32.9 61.3,32 		"/>
	</g>
	<path id="XMLID_14619_" class="st9" d="M24.7,68.9V57.5c0-1.4,1.8-2,3.1-2.3c1.5-0.3,3.6-0.5,5.7-0.5c2.1,0,4.2,0.2,5.7,0.5
		c1.3,0.3,3.1,0.9,3.1,2.3v11.4H24.7z"/>
	<path id="XMLID_14618_" class="st10" d="M33.5,55.7c-4.3,0-7.7,0.8-7.7,1.7v10.3h15.4V57.5C41.2,56.5,37.7,55.7,33.5,55.7z"/>
	<path id="XMLID_14617_" class="st15" d="M41.2,57.5v1.4c0-0.2-0.2-0.4-0.5-0.6c-0.8-0.5-2.4-0.8-4.4-1c-0.2,0-0.3,0-0.5,0
		c-0.7,0-1.5-0.1-2.2-0.1c-0.8,0-1.5,0-2.2,0.1c-0.2,0-0.4,0-0.5,0c-2,0.2-3.7,0.5-4.4,1c-0.3,0.2-0.5,0.4-0.5,0.6v-1.4
		c0-1,3.5-1.7,7.7-1.7C37.7,55.7,41.2,56.5,41.2,57.5z"/>
	<path id="XMLID_14616_" class="st11" d="M30.7,56.4v3h-4.4v-1.9c0.1-0.1,0.7-0.5,2.1-0.8C29.1,56.5,29.9,56.4,30.7,56.4z"/>
	<rect id="XMLID_14615_" x="26.3" y="59.9" class="st11" width="4.4" height="7.4"/>
	<path id="XMLID_14614_" class="st11" d="M35.7,56.3v3h-4.4v-3c0.7,0,1.5-0.1,2.2-0.1c0.2,0,0.4,0,0.7,0c0.1,0,0.3,0,0.4,0
		c0.2,0,0.5,0,0.7,0C35.4,56.3,35.5,56.3,35.7,56.3z"/>
	<rect id="XMLID_14613_" x="31.2" y="59.9" class="st11" width="4.4" height="7.4"/>
	<path id="XMLID_14612_" class="st11" d="M40.7,57.5v1.9h-4.4v-3c0.1,0,0.2,0,0.3,0c0.4,0,0.7,0.1,1,0.1c0.2,0,0.4,0.1,0.6,0.1
		c0.1,0,0.2,0,0.3,0.1C40,57,40.5,57.3,40.7,57.5z"/>
	<path id="XMLID_14611_" class="st12" d="M30.7,56.4v0.8c-2,0.2-3.7,0.5-4.4,1v-0.7c0.1-0.1,0.7-0.5,2.1-0.8
		C29.1,56.5,29.9,56.4,30.7,56.4z"/>
	<path id="XMLID_14610_" class="st12" d="M35.7,56.3v0.8c-0.7,0-1.5-0.1-2.2-0.1c-0.8,0-1.5,0-2.2,0.1v-0.8c0.7,0,1.5-0.1,2.2-0.1
		C34.2,56.2,35,56.3,35.7,56.3z"/>
	<path id="XMLID_14609_" class="st12" d="M40.7,57.5v0.7c-0.8-0.5-2.4-0.8-4.4-1v-0.8c0.8,0.1,1.6,0.2,2.3,0.3
		C40,57,40.5,57.3,40.7,57.5z"/>
	<rect id="XMLID_14608_" x="36.2" y="59.9" class="st11" width="4.4" height="7.4"/>
	<polygon id="XMLID_14607_" class="st13" points="29.1,67.3 30.7,64.3 30.7,66.7 30.4,67.3 	"/>
	<polygon id="XMLID_14606_" class="st13" points="34.6,59.9 31.2,65.8 31.2,63.4 33.2,59.9 	"/>
	<path id="XMLID_14605_" class="st13" d="M35.7,56.3v1.6l-0.8,1.5h-1.3l1.7-3.1C35.4,56.3,35.5,56.3,35.7,56.3z"/>
	<path id="XMLID_14604_" class="st14" d="M36.5,56.4L36.2,57v-0.6C36.3,56.4,36.4,56.4,36.5,56.4z"/>
	<polygon id="XMLID_14603_" class="st13" points="35.7,59.9 35.7,59.9 35.7,61 32.2,67.3 31.5,67.3 	"/>
	<polygon id="XMLID_14602_" class="st13" points="36.2,59.9 36.3,59.9 36.2,60.1 	"/>
	<path id="XMLID_14601_" class="st13" d="M38.2,56.6l-1.5,2.7h-0.4v-0.5l1.4-2.4C37.8,56.5,38,56.6,38.2,56.6z"/>
	<polygon id="XMLID_14600_" class="st13" points="27.9,67.3 30.7,62.3 30.7,63 28.3,67.3 	"/>
	<polygon id="XMLID_14599_" class="st13" points="32.5,59.9 31.2,62.1 31.2,61.4 32.1,59.9 	"/>
	<path id="XMLID_14598_" class="st13" d="M34.5,56.3l-1.7,3.1h-0.4l1.8-3.1C34.3,56.3,34.4,56.3,34.5,56.3z"/>
	<path id="XMLID_14597_" class="st13" d="M35.7,57.1v0.8l-0.8,1.5h-1.3l1.3-2.3C35.1,57.1,35.4,57.1,35.7,57.1z"/>
	<path id="XMLID_14596_" class="st14" d="M35.7,56.3v0.8c-0.3,0-0.6,0-0.9,0l0.5-0.8C35.4,56.3,35.5,56.3,35.7,56.3z"/>
	<path id="XMLID_14595_" class="st13" d="M37.8,57.4l-1.1,2h-0.4v-0.5l0.9-1.6C37.4,57.3,37.6,57.3,37.8,57.4z"/>
	<path id="XMLID_14594_" class="st14" d="M38.2,56.6l-0.4,0.8c-0.2,0-0.4-0.1-0.6-0.1l0.4-0.8c0.1,0,0.1,0,0.2,0c0,0,0.1,0,0.1,0
		c0,0,0.1,0,0.1,0C38.1,56.6,38.1,56.6,38.2,56.6C38.2,56.6,38.2,56.6,38.2,56.6z"/>
	<path id="XMLID_14593_" class="st13" d="M34.1,57.1l-1.3,2.3h-0.4l1.3-2.3C33.8,57.1,33.9,57.1,34.1,57.1z"/>
	<path id="XMLID_14592_" class="st14" d="M34.5,56.3l-0.5,0.8c-0.1,0-0.3,0-0.4,0l0.5-0.8C34.3,56.3,34.4,56.3,34.5,56.3z"/>
	<g id="XMLID_14569_">
		<rect id="XMLID_14591_" x="24" y="31.5" class="st10" width="7" height="10.3"/>
		<rect id="XMLID_14590_" x="22.9" y="30.4" class="st9" width="9.1" height="12.5"/>
		<rect id="XMLID_14589_" x="24" y="31.5" class="st10" width="7" height="10.3"/>
		<rect id="XMLID_14588_" x="24" y="31.5" class="st15" width="7" height="1.4"/>
		<rect id="XMLID_14587_" x="24.5" y="32" class="st11" width="2.7" height="1.8"/>
		<rect id="XMLID_14586_" x="24.5" y="34.4" class="st11" width="2.7" height="6.9"/>
		<rect id="XMLID_14585_" x="27.7" y="32" class="st11" width="2.7" height="1.8"/>
		<rect id="XMLID_14584_" x="24.5" y="32" class="st12" width="2.7" height="0.8"/>
		<rect id="XMLID_14583_" x="27.7" y="32" class="st12" width="2.7" height="0.8"/>
		<rect id="XMLID_14582_" x="27.7" y="34.4" class="st11" width="2.7" height="6.9"/>
		<polygon id="XMLID_14581_" class="st13" points="27.2,34.4 27.2,36.6 24.5,41.3 24.5,41.3 24.5,39 27.1,34.4 		"/>
		<polygon id="XMLID_14580_" class="st13" points="28.4,34.4 27.7,35.7 27.7,34.4 		"/>
		<polygon id="XMLID_14579_" class="st13" points="29.3,32.9 28.7,33.9 27.7,33.9 27.7,33.3 27.9,32.9 		"/>
		<polygon id="XMLID_14578_" class="st13" points="25.3,41.3 27.2,37.9 27.2,39.1 25.9,41.3 		"/>
		<polygon id="XMLID_14577_" class="st13" points="29.8,34.4 27.7,38.2 27.7,37 29.2,34.4 		"/>
		<polygon id="XMLID_14576_" class="st13" points="30.4,32.9 30.4,33.4 30.1,33.9 29.5,33.9 30,32.9 		"/>
		<polygon id="XMLID_14575_" class="st13" points="26.2,34.4 26.6,34.4 24.5,38.1 24.5,37.4 		"/>
		<polygon id="XMLID_14574_" class="st13" points="27.2,32.9 27.2,33.4 26.9,33.9 26.5,33.9 27.1,32.9 		"/>
		<polygon id="XMLID_14573_" class="st14" points="27.9,32 27.7,32.5 27.7,32 		"/>
		<polygon id="XMLID_14572_" class="st14" points="27.2,32.7 27.2,32.9 27.1,32.9 		"/>
		<polygon id="XMLID_14571_" class="st14" points="29.8,32 29.3,32.9 27.9,32.9 28.4,32 		"/>
		<polygon id="XMLID_14570_" class="st14" points="30.4,32.2 30.4,32.9 30,32.9 		"/>
	</g>
	<g id="XMLID_14546_">
		<g id="XMLID_14547_">
			<rect id="XMLID_14568_" x="33.9" y="30.4" class="st9" width="9.1" height="12.5"/>
			<rect id="XMLID_14567_" x="35" y="31.5" class="st10" width="7" height="10.3"/>
			<rect id="XMLID_14566_" x="35" y="31.5" class="st15" width="7" height="1.4"/>
			<rect id="XMLID_14565_" x="35.5" y="32" class="st11" width="2.7" height="1.8"/>
			<rect id="XMLID_14564_" x="35.5" y="34.4" class="st11" width="2.7" height="6.9"/>
			<rect id="XMLID_14563_" x="38.7" y="32" class="st11" width="2.7" height="1.8"/>
			<rect id="XMLID_14562_" x="35.5" y="32" class="st12" width="2.7" height="0.8"/>
			<rect id="XMLID_14561_" x="38.7" y="32" class="st12" width="2.7" height="0.8"/>
			<rect id="XMLID_14560_" x="38.7" y="34.4" class="st11" width="2.7" height="6.9"/>
			<polygon id="XMLID_14559_" class="st13" points="38.2,34.4 38.2,36.6 35.5,41.3 35.5,41.3 35.5,39 38.1,34.4 			"/>
			<polygon id="XMLID_14558_" class="st13" points="39.4,34.4 38.7,35.7 38.7,34.4 			"/>
			<polygon id="XMLID_14557_" class="st13" points="40.3,32.9 39.7,33.9 38.7,33.9 38.7,33.3 38.9,32.9 			"/>
			<polygon id="XMLID_14556_" class="st13" points="36.3,41.3 38.2,37.9 38.2,39.1 36.9,41.3 			"/>
			<polygon id="XMLID_14555_" class="st13" points="40.8,34.4 38.7,38.2 38.7,37 40.2,34.4 			"/>
			<polygon id="XMLID_14554_" class="st13" points="41.4,32.9 41.4,33.4 41.1,33.9 40.5,33.9 41,32.9 			"/>
			<polygon id="XMLID_14553_" class="st13" points="37.2,34.4 37.6,34.4 35.5,38.1 35.5,37.4 			"/>
			<polygon id="XMLID_14552_" class="st13" points="38.2,32.9 38.2,33.4 37.9,33.9 37.5,33.9 38.1,32.9 			"/>
			<polygon id="XMLID_14551_" class="st14" points="38.9,32 38.7,32.5 38.7,32 			"/>
			<polygon id="XMLID_14550_" class="st14" points="38.2,32.7 38.2,32.9 38.1,32.9 			"/>
			<polygon id="XMLID_14549_" class="st14" points="40.8,32 40.3,32.9 38.9,32.9 39.4,32 			"/>
			<polygon id="XMLID_14548_" class="st14" points="41.4,32.2 41.4,32.9 41,32.9 			"/>
		</g>
	</g>
	<g id="XMLID_14535_">
		<path id="XMLID_14545_" class="st16" d="M58,51.5c-3.3,0-6,1.8-6,1.8v19.5h12V53.3C64,53.3,61.3,51.5,58,51.5z"/>
		<path id="XMLID_14544_" class="st17" d="M58,51.5c-3.3,0-6,1.8-6,1.8v2.3c0,0,2.7-1.8,6-1.8c3.3,0,6,1.8,6,1.8v-2.3
			C64,53.3,61.3,51.5,58,51.5z"/>
		<g id="XMLID_14536_">
			<rect id="XMLID_14543_" x="53.6" y="54.5" class="st18" width="8.7" height="18.4"/>
			<rect id="XMLID_14542_" x="56" y="68.3" class="st19" width="3.9" height="3.6"/>
			<rect id="XMLID_14541_" x="56" y="55.3" class="st19" width="3.9" height="7.5"/>
			<rect id="XMLID_14540_" x="56" y="63.7" class="st19" width="3.9" height="3.7"/>
			<rect id="XMLID_14539_" x="54.6" y="64.4" class="st20" width="0.6" height="2.3"/>
			<path id="XMLID_14538_" class="st19" d="M53.6,54.5h0.8c-0.3,0.1-0.6,0.2-0.8,0.3V54.5z"/>
			<path id="XMLID_14537_" class="st19" d="M62.3,54.5v0.3c-0.3-0.1-0.5-0.2-0.8-0.3H62.3z"/>
		</g>
	</g>
	<g id="XMLID_14497_">
		<circle id="XMLID_14534_" class="st10" cx="45" cy="18.1" r="1.6"/>
		<circle id="XMLID_14533_" class="st11" cx="45" cy="18.1" r="1.1"/>
		<path id="XMLID_14532_" class="st11" d="M46.1,18.1c0,0.5-0.4,1-0.9,1.1c-0.1,0-0.1,0-0.2,0c0,0-0.1,0-0.1,0c-0.1,0-0.2,0-0.3-0.1
			c-0.2-0.1-0.4-0.2-0.5-0.3c0-0.1-0.1-0.1-0.1-0.2c0,0,0-0.1-0.1-0.1c0-0.1-0.1-0.2-0.1-0.4c0-0.5,0.4-1,0.9-1.1c0,0,0.1,0,0.1,0
			c0,0,0,0,0.1,0c0,0,0.1,0,0.1,0c0.2,0,0.4,0.1,0.5,0.2c0.1,0.1,0.1,0.1,0.2,0.2c0.1,0.1,0.1,0.2,0.1,0.2
			C46.1,17.9,46.1,18,46.1,18.1z"/>
		<path id="XMLID_14531_" class="st11" d="M45.5,17.2c-0.1,0-0.3-0.1-0.5-0.1c-0.2,0-0.3,0-0.5,0.1c0.1-0.1,0.3-0.1,0.5-0.1
			C45.2,17.1,45.3,17.1,45.5,17.2z"/>
		<path id="XMLID_14530_" class="st15" d="M45,16.5c-0.9,0-1.6,0.7-1.6,1.6c0,0.1,0,0.2,0,0.3c0.1-0.8,0.8-1.3,1.6-1.3
			c0.8,0,1.5,0.6,1.6,1.3c0-0.1,0-0.2,0-0.3C46.6,17.2,45.9,16.5,45,16.5z"/>
		<path id="XMLID_14529_" class="st12" d="M45.5,17.2c-0.1,0-0.3-0.1-0.5-0.1c-0.2,0-0.3,0-0.5,0.1c0.1-0.1,0.3-0.1,0.5-0.1
			C45.2,17.1,45.3,17.1,45.5,17.2z"/>
		<path id="XMLID_14528_" class="st13" d="M45.7,17.3l-1.1,1.9c-0.2-0.1-0.4-0.2-0.5-0.3l1-1.8C45.3,17.1,45.5,17.2,45.7,17.3z"/>
		<path id="XMLID_14527_" class="st13" d="M46,17.8l-0.8,1.5c-0.1,0-0.1,0-0.2,0c0,0-0.1,0-0.1,0l1-1.7C45.9,17.6,46,17.7,46,17.8z"
			/>
		<path id="XMLID_14526_" class="st13" d="M44.9,17.1L44,18.7c0,0,0-0.1-0.1-0.1l0.8-1.4C44.8,17.1,44.9,17.1,44.9,17.1z"/>
		<path id="XMLID_14525_" class="st14" d="M45.1,17.1L45.1,17.1c0.1,0,0.2,0.1,0.3,0.1C45.4,17.1,45.3,17.1,45.1,17.1z"/>
		<path id="XMLID_14499_" class="st14" d="M44.8,17.1c0,0,0.1,0,0.1,0l0,0C44.9,17.1,44.8,17.1,44.8,17.1L44.8,17.1z"/>
	</g>
</g>
</svg>
