<?xml version="1.0" encoding="utf-8"?>
<!-- Generator: Adobe Illustrator 19.0.0, SVG Export Plug-In . SVG Version: 6.00 Build 0)  -->
<svg version="1.1" id="Layer_1" xmlns="http://www.w3.org/2000/svg" xmlns:xlink="http://www.w3.org/1999/xlink" x="0px" y="0px"
	 width="1145px" height="866px" viewBox="-325 -172.5 1145 866" style="enable-background:new -325 -172.5 1145 866;"
	 xml:space="preserve">
<style type="text/css">
	.st0{opacity:0.6;fill:#606060;}
	.st1{opacity:0.6;}
	.st2{opacity:0;fill:#606060;}
	.st3{fill:url(#XMLID_2_);}
	.st4{opacity:0.7;fill:#FF6740;}
	.st5{opacity:0.1;}
	.st6{fill:#718BB4;}
	.st7{opacity:0.6;fill-rule:evenodd;clip-rule:evenodd;fill:#606060;}
	.st8{fill-rule:evenodd;clip-rule:evenodd;fill:#FFFFFF;}
	.st9{fill-rule:evenodd;clip-rule:evenodd;fill:#4C2F0C;}
	.st10{fill-rule:evenodd;clip-rule:evenodd;fill:#231403;}
	.st11{fill-rule:evenodd;clip-rule:evenodd;fill:#D8AF87;}
	.st12{fill:#DDCDAB;}
	.st13{fill:#399127;}
	.st14{fill:#B52840;}
	.st15{fill:#EA5467;}
	.st16{fill:#BCBEC0;}
	.st17{fill:#333333;}
</style>
<path id="XMLID_716_" class="st0" d="M-116.4,530.3c2.1-1.6,2.9-6.5,6.1-8.2c5.3-1.2,12-1,17.8,1.4c2.1,2,2.2,6.1,3.6,8.9
	c-1.6,10.9-12,10.7-22.8,9.6c-1.6,0-1.5,1.9-2.9,2.1c-1.2-1.8-4.3-7.4-1.1-8.2C-116.3,534.4-115.8,531.8-116.4,530.3z M-103.9,236.3
	c1.3,0.4,1-0.9,2.1-0.7c2.2,0.6,4.5,1.2,7.1,1.4c2.7,1.8,4,4.8,4.3,8.1c0,0.3,0,0.6,0,0.8c0.2,7.3-4.8,15.1-11.4,10.3
	c-3.4,0.8-6.5-0.6-9.6-0.4c-2.2-2.2-3.2-5.6-5.7-7.5c0.1-0.6,0.2-1.1,0.3-1.5h0c0.2-1.1,0.4-1.9,0.5-2.8h0c0.1-0.7,0.2-1.5,0.3-2.4
	C-112.6,239.1-110.3,234.8-103.9,236.3z M-117.1,285c0.2-1.2,0.4-2.4,0.6-3.6h0c0.2-1,0.5-1.9,0.8-2.8h0c0.9-2.5,2.3-4.6,4.2-6.1
	c8.4-1.5,17.7-2.9,20.7,5.3c-0.4,2.9,0.6,5,0,7.5C-93.6,296.4-115,296.7-117.1,285z M-115.6-72.3c-0.6-1.4-1.7-6.1-1.4-7.8
	c0.7-3.6,5.9-5,8.6-7.5c8.6-1.1,19.1,0.6,18.2,11c-0.3,3.6-2.4,6.1-4.5,8.7h-0.1c0,0,0,0-0.1,0.1c-4.5,0.1-7.4,2.4-11.8,2.1
	c-1.4-0.1-3.2-1-4.9-2.2h-0.2C-113.5-69.1-115-70.8-115.6-72.3z M-117.1,602.5c3-4.2,6-11.9,12.8-8.9c1.2,0.2,1.1-1.1,1.8-1.4
	c3.6,0.2,8.1,1.3,10.7,3.6c3.1,6,2.6,14.9-2.9,17.1c-4,1.6-10.1-0.6-14.6,0.7c-2.3,0.7-2.8,3.1-5.3,3.2
	C-117,612.9-117.5,606.9-117.1,602.5z M-101,186.5c-2.8-0.9-7.1-0.2-10.3-1.4c-1.8-2.2-3.3-4.6-4.5-7.5h0.1c-0.2-0.5-0.4-1-0.6-1.5
	h-1.1c0.1-0.5,0.3-0.9,0.4-1.3h0c1.6-4.7,4.8-7.8,7.8-11c5.3,0.3,9.4,0.2,15,1.4c3.7,2.1,5,7.1,4.3,11.7c-0.1,0.2-0.2,0.5-0.3,0.7h0
	C-92.1,182.3-95.7,185.2-101,186.5z M-108.2,6.4c-1.3-0.6-2.4-1.3-3.3-2.1h0.2c-1-0.8-1.9-1.8-2.6-2.8h-0.1
	c-1.9-2.8-2.8-6.3-3.4-10.4c2.2-1.2,3.9-4.8,6.4-6.8c4.8-0.1,10.3,0.7,16.4,1.1c0.9,2.7,3.7,5.5,4.3,8.9c0.5,3-0.2,5.4-1.5,7.2h-0.1
	c-0.9,1.2-2.1,2.1-3.5,2.8h0.2C-98.9,6.4-104.1,6.9-108.2,6.4z M-94.3,435.6c-2.3,0.1-3.7-0.2-5-0.4c-4.8,2.5-7.5-1.5-12.8,0
	c-0.5,0.2,0.1,0.5,0,1.1c-1.7-1.3-3.3-2.8-5.3-3.9c2.1-2.5,4.2-6.3,1.1-8.5c2.3-5.9,7-9.4,14.6-10c8.3,1.6,13.3,6.1,12.5,16
	C-91.2,431.5-92.1,434.2-94.3,435.6z M-60.3-168h-2.9h-15.9c-20.1,0-39.9,0.9-57.9,0c-0.6,5.7-0.8,10.9-0.9,15.9l19.6,4.7l0.7,0.5
	c1.5-3.9,2.2-8.5,4.8-11.2c2.1-0.8,3.9-1.8,5.7-2.8c4,1.5,8.8,0.5,12.1,2.5c1.8,1.1,1.8,3.2,3.9,3.6c2.6,8.3-1.2,16.5-9.3,17.4
	c-1-0.3-1.8-0.8-2.9-1.1c-4,0.9-6.6-0.2-8.9-2l-25.7,0.6c0.2,7.5,0.5,15.2,0.4,24.5c5.2-0.9,11.4,0.2,14.6-0.3
	c-3,2.2-6.7,3.7-11.4,4.3c-0.4-1.2-6.5,0.2-3.2,0.3c0,10.5,0,18.9,0,29.2c-0.1,1.6,0.4,17.6,0.4,26.1l22.4,8
	c4.6-3.9,13.3-4,20.3-2.9c5.4,4.6,5.1,12.5,1.2,17.4h-0.1c-0.9,1.2-2.1,2.1-3.3,2.8h0.2c-1.4,0.8-3,1.4-4.8,1.5
	c-2,0.1-3.2-0.8-5-1.4c-0.1,0-0.2,0-0.2-0.1h0.5c-0.1,0-0.1,0-0.2-0.1c-3.6-1.3-5.7-1.2-7.7-2.8h-0.2c-0.3-0.3-0.6-0.5-0.9-0.9
	l-14,0.9h-2.2l-6.1,0.4c0,0,0,0.1,0,0.1h-0.1c-0.1,18-0.3,35.9,0,54.9l18.8,4.6l1.2,0.9c1.2-2.4,3.5-4.5,5-6.4
	c5.5-2.6,10.5-2.8,16.7-0.7c3.5,2.9,4.9,10.2,3,15.5h0c-0.4,1.1-0.9,2-1.6,2.8h0.1c-0.8,1-1.7,1.8-2.9,2.3
	c-6.8,0.9-12.4,0.9-16.4-1.4c-0.1-0.3-0.3-0.6-0.5-0.9h0.1c-0.5-1-1.1-1.9-1.6-2.8h-0.1c-0.4-0.7-0.8-1.4-1-2.2c0,0-20.6-0.3-20.4,1
	c-0.8,7.8-0.1,17.2-0.4,25.6c-0.9-0.3,4.2,5.5,8.2,6c-0.5,3-3.7,3.4-6.3,4.2h-0.4c-0.5,0.2-1,0.4-1.4,0.6c0,0,0,0.1,0,0.1
	c0,0,0,0-0.1,0c0.2,5.7,0.2,12,0.1,18.5l17.1,6.1l3,3.5c0.9-1.3,2.1-2.4,2.2-4.6c4.4-5,15.8-3,21-0.4c-0.2,1.8,4.8,4.3,2.1,7.5
	c0.5,0,1,0.1,1.1-0.4c0.1,1.6,0,3-0.2,4.3c-0.1,0.3-0.1,0.5-0.2,0.8c0,0,0,0.1,0,0.1c-0.1,0.4-0.3,0.9-0.5,1.3h0
	c-2.3,5-8.1,6.8-14,6c-2.2-0.3-3.8-2-6.1-1.1c-1.4-0.8-2.2-2.2-2.9-3.8l-23,1.5c-0.1,5.3-0.1,10.5,0.1,15.5l21.8,7.8
	c0.7-2.1,1.9-4,3.6-5.4c1.5,0.6,2.5-0.8,3.9-0.7c1.1,0.1,1.4,1,2.5,1.1c3.3,0.1,6.9-1.3,10.3,0c4,1.5,5.5,6.6,4.8,11.3
	c-0.1,0.8-0.3,1.6-0.5,2.3c-0.7,2.3-1.9,4.3-3.6,5.5c-2.8,1.3-7.1,1.2-10,2.5c-0.3-3.1-4.7-2.2-7.5-2.8c-0.2-0.1-0.3-0.3-0.5-0.4
	l-24.1,1.6c-0.1,3.8-0.7,8.2-0.7,11.3c-0.1,14.8,0,29.4,0.1,44.1l18.6,4.5l1.3,1c1.2-2.5,2.9-4.5,3.2-7.9c2.3-0.9,4.6-1.9,6.4-3.2
	c4.3,0.8,9.5,0,13.2,2.5c2.3,1.6,5.8,6.4,4.6,10.2c-0.1,0.2-0.2,0.3-0.3,0.5h0.1c-0.4,0.5-0.9,1.1-1.2,1.7c-1.8,4.5-4.2,6.5-8.9,8.2
	c-4-1.6-8.2-0.6-11.4-2.1c-1.8-0.8-2.6-2.3-3.2-3.8l-22.3,0.5c0.1,22.2,0.3,44.6-0.1,67.7c-0.1,8-0.3,15.5,0,23.1
	c0.1,2.9,1.1,5.7,1.1,8.5c-0.1,13.6-0.9,26.7-0.7,39.1c3.6,2.5,8.1,3.2,12.5,2.8c-0.9,2.4,1.8-0.1,2.5,2.5c0.2-1.5,3,0.2,4.3-0.7
	c2.5-1.6,1.2-5.6,1.6-9h0c0-0.4,0.1-0.8,0.2-1.1c0.1-0.4,0.2-0.8,0.4-1.1c0,0,0-0.1,0.1-0.1c1.5-3.1,5.4-5.9,9.1-6.1
	c1.3-0.1,3.2,1.2,5.3,1.4c2,0.2,3.9-0.6,5.3,0c3.4,1.4,6.9,7.4,5.7,12.5c-2.6,5-7.5,8.8-15.7,8.5c-5.1-0.2-7.6-2.5-10.3-4.3
	c-3.7,1.6-6.7,0.5-10.3,0.7c-2.2-3.2-9.9,10.9-7.8,11c1.9,0.1,3.9,2.6,4.3,2.8c0.8,0.5,4.3,3.8,5.3,5.3c1.6-0.1,6.6,4,10.3,3.9
	c1.6-4.3,6.6-5.2,11-6.8c1.9,2,4.3,0.5,6.8,1.4c6.1,2.3,9.2,12.2,3.9,16.4c-2.6,0.6-2.6,0-5,1.1c-0.4,2.4,3.9-0.1,3.6,1.4
	c-5.7,2.7-11.8,2.6-18.2,0.7c-2.4,2.2-4.5,2.8-6.1,6.1c-1.7,0.3-1.8-1-3.6-0.7c-3.6,2.6-7.3,1.6-11,2.1c-0.1,1.1-2.4,2.2-3.9,2.8
	c-0.9,11.4,0.2,19.9,0,31.7c4.5,0.4,6.8,3.5,11.4,5c0.5,1.4,1.6,1.9,1.4,3.2c4.5,0.4,6.5,3.2,10,4.6c2.2-2.7,5.9-1.9,8.9-2.1
	c3.5-0.3,7.4-1.4,10.7,0.4c4.6,2.4,5.3,14.8,0.7,16.7c0.7,0.3,1.2-1.1,1.4,0c-4.6,3.6-13.5,4.1-19.6,2.5c-0.8,1.2-0.8,1.9-0.4,3.9
	l8.2,5.2l-3.8,6.3c0.8-0.3,1.6-0.6,2.4-0.8c4.4,1.6,10.1-0.2,13.2,3.2c3.5,3.7,2.8,9.7,0.4,14.6c-1.1,0.8-2.1,1.7-3.2,2.5
	c-7.7,1-13.5,2-19.6-0.3c-1.4,0.9-3.4,1.2-5.6,1.3l-8.9,14.6h0l-1.7,2.8h0l-5.4,8.9l-0.7-1.1c-0.1,8.9-0.2,18.9,0.3,28.3
	c-0.6,0-1.2,0-1.6,0.1l13.3,5.3c-0.1-0.5-0.4-0.9-1-1.1c1.4-2.1,2.2,1.8,4.3,0.4c0.3,0.6,1,0.9,0.7,2.1c2-0.1,2.4-0.4,4.3,0
	c2.3-3.4,2.4-10,8.9-8.2c4.4-4.9,17.7-0.6,17.8,6.8c-0.4-0.1-0.2-0.7-0.7-0.7c3.2,9.6-5.2,13.8-13.9,13.5c-3.3-0.1-6.5-0.9-9.3,0
	c-0.8,2.8-3.2,5.5-4.6,5.7c0.5,1.7,1,1.2-0.7,0.7c1.3,1.2,0,2-0.7,3.2c-0.6-0.3-0.9-1.2-0.4-1.8h-1.4c-0.5-2.2-2.4-4.6-3.3-7.8
	l-12.4,0.5c1.2,15.6,1.5,30,2.2,46.8c1.8,0.1,5.5-0.8,6.8-1.4c0.8,0.8,0.5,2.6,1.8,2.8c4.9,0.1,10.2,0,11,5.7
	c5.8-5.3,13.1-4.6,20.7-2.8c4.6,4,7.3,16,0.4,19.2c-5.4,0.7-9.4,2.1-15,1.4c-0.9,0.8,0.3,2.4-0.4,2.8c-3.1,1.4-4.3,4.8-7.5,6
	c-0.1,0.2-0.1,0.5-0.2,0.7c-0.1,0.4-0.2,0.8-0.4,1.2c0,0,0,0,0,0c-0.2,0.5-0.4,0.9-0.6,1.3h0c-1,2-2.3,3.4-3.1,5.3
	c0.7,3.3,0,5.6,0,10c0.7,0.9,3.2,2.4,4.3,0.7c0.8-0.8-1.4-1.7-1.1-3.2c2-0.9,2.3-3.6,2.8-6.1c4.7-5.1,12.7-5.9,20.3-3.9
	c6.2,3,5.5,15.6,0.4,19.2c-3.8,1-5.3,3-10,2.5c-1,2.4-3.1,3.5-3.9,6.1c9.8,0.2,19.6,0.2,29.4,0.2h15.9h2.9h578V-168H-60.3z
	 M-128.1,542c-0.2-1.2,1.7-0.4,1.8-1.4c0.8,0.4,1.7,0.7,1.8,1.8C-126,543.4-126.7,542.6-128.1,542z M-121,542.7
	c-0.3,0.7-1.4,0.8-2.5,0.7c0-0.6-0.3-0.9-0.7-1.1c0.7-0.8,1.9-1.1,2.9-0.7C-121.4,542.1-121.4,542.6-121,542.7z M-121.8,315.3
	c-0.1,0.1-0.1,0.2-0.2,0.2c-0.7-0.1-0.4-1.2-1-1.4C-122.5,313.5-121.6,314.6-121.8,315.3z M-133.8,283.6c2.5,0.9,6.4,1.2,8.5,1.4
	c-0.8,0.6-1.6,0.6-2.5,0.4c-0.8,0.5-0.7,1.9-1.4,2.5C-130.4,286.4-135.3,287.3-133.8,283.6z M-131,250.5h-1.4
	c-1.1,0.5,1.4-0.4,1.1-1.4C-130.3,249.4-130.9,249.6-131,250.5z M-132.7,263c-0.2,1.3-1.7-0.1-3.2,0.4
	C-135.6,262.5-133.8,262.7-132.7,263z M-105.7-103.2c-5.3,1.7-9.5-1.2-10.3-6c-0.3-0.7-1-1-1.8-1.1c0.2-2.4,2.1-5.1,0-6.8
	c2.4-2.9,5-5.4,8.2-7.5c5.4,1.3,9.7-1.1,15.3,1.4c1.9,3.6,4.8,6.5,4.3,11.4c-0.4,3.6-2.2,6.4-3.9,9.3c0,0,0,0-0.1,0h-0.4
	c-2.8,0.9-7.2,1.6-10.1,0h-0.2C-105-102.7-105.4-103-105.7-103.2z M-127.4-80.1c-0.7,0.9-1.6,1.5-2.8,1.8
	C-129.6-79.2-128.7-81.1-127.4-80.1z M-130.6-78c-1.5,0.1-1.7-0.6-2.9,0c-0.3-0.3-0.4-0.8-0.3-1.4C-132.7-78.4-131-79.9-130.6-78z
	 M-132.7-5.4c0-0.9,1.2-0.7,2.1-0.7C-130.6-5.2-131.8-5.4-132.7-5.4z M-104.2,78.6c-1.7-1.2-4-1.9-7.1-1.8c-1.4-0.7-2.4-1.9-3.2-3.3
	h0.1c-0.5-0.9-1-1.9-1.4-2.8h-0.1c-0.8-1.8-1.5-3.7-2.5-5.3c2.3-2.5,4-5.7,6.4-8.2c7.1,0,11.8-2.6,17.8,0.4
	c2.7,2.6,4.9,9.7,1.8,13.1h0c-0.1,0.1-0.2,0.2-0.3,0.3c0,0,0,0,0,0.1c0,0,0,0.1-0.1,0.1c0.6,1.2-0.2,1.6,0,3.2
	C-95.7,77.5-99.7,77.7-104.2,78.6z M-132.8,176.5c1.9-0.2,3.2,0.5,5.3-0.6c-1.3,1.4-2.2,1.6-4.8,1.6
	C-132.6,177.2-132.6,176.7-132.8,176.5z M-132.4,177.6C-132.4,177.6-132.4,177.5-132.4,177.6l1.7,0
	C-131.2,177.6-131.7,177.6-132.4,177.6z M-123.1,178.3c0-0.3-0.1-0.5-0.3-0.7h0.1c-0.3-0.7-1-1.4-0.8-2.1c0.1-0.1,0.1-0.2,0.2-0.4
	c1.3-0.1,1.7,0.6,2.8,0.7c-0.3,0.7-0.6,1.3-1.1,1.8h0.1C-122.3,177.9-122.6,178.2-123.1,178.3z M-103.5,327
	c-6.5,1.9-10-1.5-11.4-5.7c-1.5,0.2-1.7,1.6-3.2,1.8c-0.2-0.3-0.8-1.3,0.4-1.1c-2.4-0.7-3.8-3.3-3.2-5.9h0c0.1-0.4,0.2-0.8,0.4-1.2
	c1.1,0.9,2.5,1.5,4.3,1.8c1.9-2.7,3-6.2,5.7-8.2c3.5-0.1,7.2,0.1,8.5-2.1c2.9,1.7,5.9,0.6,8.5,2.5c4.2,3,4,9.1,2.9,14.2
	C-92.6,326.4-98.7,329-103.5,327z M-124.5,433.8c-1.2-0.9-1.4-2.8-3.6-2.8c1.9-2.7,4.2,0.3,7.5-0.7c0.3,1.3,1.9,1.7,1.8,2.5
	C-119.6,433.7-122.6,433.1-124.5,433.8z M-133.5,539.5c0.5,0,1.1,1.5,1.1,0c0.5,0.3,1.1,0.5,1.1,1.4c-0.9,0-2,0.1-2.5-0.4
	C-133.6,540.3-133.4,540-133.5,539.5z"/>
<g id="XMLID_645_" class="st1">
	<path id="XMLID_743_" class="st2" d="M-124.4,548.6c2.2-1.7,3-6.8,6.2-8.5c5.5-1.2,12.3-1,18.3,1.5c2.2,2.1,2.3,6.3,3.7,9.3
		c-1.6,11.3-12.3,11.2-23.4,10c-1.7,0-1.5,1.9-2.9,2.2c-1.2-1.9-4.4-7.7-1.1-8.5C-124.3,553-123.8,550.3-124.4,548.6z M-111.6,242.2
		c1.4,0.4,1-0.9,2.2-0.7c2.3,0.6,4.6,1.3,7.3,1.5c2.8,1.8,4.1,5.1,4.4,8.5c0,0.3,0,0.6,0,0.9c0.2,7.7-4.9,15.7-11.7,10.7
		c-3.5,0.9-6.6-0.6-9.9-0.4c-2.2-2.3-3.3-5.8-5.8-7.8c0.1-0.6,0.2-1.1,0.3-1.6h0c0.2-1.1,0.4-2,0.5-3h0c0.1-0.7,0.2-1.5,0.3-2.5
		C-120.6,245.2-118.1,240.7-111.6,242.2z M-125.1,293.1c0.2-1.3,0.4-2.5,0.7-3.7h0c0.2-1,0.5-2,0.9-3l0,0c1-2.6,2.3-4.8,4.3-6.3
		c8.6-1.6,18.2-3,21.2,5.6c-0.4,3,0.7,5.2,0,7.8C-101,304.9-123,305.2-125.1,293.1z M-123.7-79.3c-0.6-1.4-1.8-6.3-1.5-8.2
		c0.7-3.8,6-5.2,8.8-7.8c8.8-1.2,19.6,0.6,18.6,11.5c-0.3,3.8-2.5,6.4-4.6,9.1h-0.1c0,0,0,0-0.1,0.1c-4.6,0.1-7.6,2.5-12.1,2.2
		c-1.4-0.1-3.3-1-5.1-2.3h-0.2C-121.5-76.1-123-77.7-123.7-79.3z M-125.1,623.9c3-4.3,6.1-12.4,13.2-9.3c1.3,0.2,1.1-1.1,1.8-1.5
		c3.7,0.2,8.3,1.3,11,3.7c3.2,6.3,2.7,15.5-2.9,17.8c-4.1,1.7-10.4-0.6-15,0.7c-2.4,0.7-2.8,3.2-5.5,3.3
		C-125,634.8-125.6,628.5-125.1,623.9z M-108.7,190.3c-2.9-0.9-7.3-0.2-10.6-1.5c-1.9-2.3-3.4-4.8-4.6-7.8h0.1
		c-0.2-0.5-0.4-1.1-0.6-1.6h-1.1c0.1-0.5,0.3-0.9,0.4-1.4h0c1.6-4.9,4.9-8.1,8-11.5c5.5,0.3,9.7,0.2,15.3,1.5
		c3.8,2.2,5.2,7.4,4.4,12.2c-0.1,0.2-0.2,0.5-0.3,0.7h0C-99.5,186-103.2,189-108.7,190.3z M-116,2.6c-1.3-0.6-2.4-1.3-3.4-2.2h0.2
		c-1.1-0.9-1.9-1.9-2.7-3h-0.1c-1.9-2.9-2.9-6.6-3.5-10.8c2.3-1.2,4-5.1,6.6-7c4.9-0.1,10.5,0.7,16.8,1.1c0.9,2.8,3.8,5.7,4.4,9.3
		c0.5,3.1-0.2,5.6-1.5,7.5h-0.1c-0.9,1.2-2.1,2.2-3.6,3h0.2C-106.5,2.7-111.9,3.2-116,2.6z M-101.7,450c-2.4,0.1-3.7-0.2-5.1-0.4
		c-4.9,2.6-7.7-1.6-13.2,0c-0.5,0.2,0.1,0.5,0,1.1c-1.8-1.4-3.4-2.9-5.5-4.1c2.1-2.6,4.3-6.6,1.1-8.9c2.4-6.1,7.2-9.8,15-10.4
		c8.5,1.7,13.7,6.3,12.8,16.7C-98.6,445.7-99.5,448.5-101.7,450z M-136.5,560.9c-0.2-1.3,1.8-0.4,1.8-1.5c0.8,0.4,1.7,0.7,1.8,1.9
		C-134.3,562.4-135,561.4-136.5,560.9z M-129.1,561.6c-0.4,0.8-1.4,0.8-2.6,0.7c0-0.6-0.3-1-0.7-1.1c0.8-0.8,1.9-1.2,2.9-0.7
		C-129.6,561-129.6,561.5-129.1,561.6z M-130,324.6c-0.1,0.1-0.1,0.2-0.2,0.3c-0.7-0.1-0.4-1.3-1.1-1.5
		C-130.8,322.8-129.8,323.8-130,324.6z M-113.4-111.6c-5.4,1.8-9.8-1.3-10.6-6.3c-0.3-0.7-1-1-1.8-1.1c0.2-2.5,2.2-5.3,0-7
		c2.4-3,5.2-5.6,8.4-7.8c5.6,1.4,10-1.1,15.7,1.5c1.9,3.8,4.9,6.8,4.4,11.9c-0.4,3.8-2.3,6.7-4,9.6c0,0,0,0-0.1,0h-0.4
		c-2.8,1-7.4,1.7-10.4,0h-0.2C-112.8-111.1-113.1-111.3-113.4-111.6z M-135.7-87.5c-0.7,0.9-1.6,1.6-2.9,1.9
		C-138-86.5-137.1-88.5-135.7-87.5z M-112,77.9c-1.8-1.3-4.1-2-7.3-1.9c-1.5-0.8-2.5-2-3.3-3.4h0.1c-0.6-0.9-1-1.9-1.5-3h-0.1
		c-0.8-1.9-1.5-3.9-2.6-5.5c2.4-2.6,4.1-6,6.6-8.5c7.3,0,12.1-2.8,18.3,0.4c2.8,2.7,5,10.1,1.8,13.7h0c-0.1,0.1-0.2,0.2-0.3,0.3
		c0,0,0,0,0,0.1c0,0,0,0.1-0.1,0.1c0.6,1.2-0.2,1.6,0,3.3C-103.2,76.7-107.4,76.9-112,77.9z M-141.3,179.9c2-0.2,3.3,0.5,5.5-0.7
		c-1.3,1.5-2.2,1.7-4.9,1.6C-141,180.7-141,180.1-141.3,179.9z M-140.8,181C-140.8,181-140.9,181-140.8,181l1.7,0
		C-139.6,181.1-140.2,181.1-140.8,181z M-131.3,181.8c0-0.3-0.1-0.5-0.3-0.8h0.1c-0.3-0.8-1-1.4-0.8-2.2c0.1-0.1,0.1-0.2,0.2-0.4
		c1.3-0.1,1.8,0.7,2.9,0.7c-0.3,0.7-0.6,1.4-1.1,1.8h0.1C-130.5,181.4-130.8,181.7-131.3,181.8z M-111.2,336.8
		c-6.7,2-10.2-1.5-11.7-5.9c-1.5,0.2-1.7,1.7-3.3,1.9c-0.2-0.3-0.8-1.4,0.4-1.1c-2.5-0.7-3.9-3.4-3.3-6.2h0c0.1-0.4,0.2-0.8,0.4-1.3
		c1.1,0.9,2.6,1.6,4.4,1.9c2-2.8,3.1-6.5,5.8-8.5c3.6-0.1,7.4,0.1,8.8-2.2c2.9,1.7,6.1,0.6,8.8,2.6c4.3,3.1,4.1,9.5,2.9,14.8
		C-100,336.2-106.3,338.9-111.2,336.8z M-132.8,448.1c-1.2-1-1.5-3-3.7-3c2-2.8,4.3,0.3,7.7-0.7c0.3,1.4,2,1.8,1.8,2.6
		C-127.7,448-130.8,447.4-132.8,448.1z"/>
</g>
<g id="XMLID_3_">
	<g id="XMLID_646_">
		<linearGradient id="XMLID_2_" gradientUnits="userSpaceOnUse" x1="-134.2204" y1="258.2586" x2="534.7245" y2="258.2586">
			<stop  offset="0" style="stop-color:#EDEDED"/>
			<stop  offset="1" style="stop-color:#FAFAFA"/>
		</linearGradient>
		<path id="XMLID_688_" class="st3" d="M-75-172.5c-20.1,0-39.9,0.9-57.9,0c-0.6,5.7-0.8,10.9-0.9,15.9l19.6,4.7l0.7,0.5
			c1.5-3.9,2.2-8.5,4.8-11.2c2.1-0.8,3.9-1.8,5.7-2.8c4,1.5,8.8,0.5,12.1,2.5c1.8,1.1,1.8,3.2,3.9,3.6c2.6,8.3-1.2,16.5-9.3,17.4
			c-1-0.3-1.8-0.8-2.9-1.1c-4,0.9-6.6-0.2-8.9-2l-25.7,0.6c0.2,7.5,0.5,15.2,0.4,24.5c5.2-0.9,11.4,0.2,14.6-0.3
			c-3,2.2-6.7,3.7-11.4,4.3c-0.4-1.2-6.5,0.1-3.2,0.4c0,10.5,0,18.9,0,29.2c-0.1,1.6,0.4,17.6,0.4,26.1l22.4,8
			c4.6-3.9,13.3-4,20.3-2.9c8.1,6.9,3.3,21.1-6.8,21.7c-2,0.1-3.2-0.8-5-1.4c-4.3-1.5-6.5-1.1-8.8-3.8l-22.3,1.4
			c-0.1,18-0.3,35.9,0,54.9l18.8,4.6l1.2,0.9c1.2-2.4,3.5-4.5,5-6.4c5.5-2.6,10.5-2.8,16.7-0.7c4.9,4.2,5.9,17.2-1.4,20.6
			c-6.8,0.9-12.4,0.9-16.4-1.4c-1-2.1-2.4-3.7-3.2-6c0,0-20.6-0.3-20.4,1c-0.8,7.8-0.1,17.2-0.4,25.6c-0.9-0.3,4.2,5.5,8.2,6.1
			c-0.6,3.8-5.4,3.4-8.2,5c0.2,5.7,0.2,12,0.1,18.5l17.1,6.1l3,3.5c0.9-1.3,2.1-2.4,2.2-4.6c4.4-5,15.8-3,21-0.4
			c-0.2,1.8,4.8,4.3,2.1,7.5c0.5,0,1,0.1,1.1-0.4c0.9,9.8-6.9,13.6-15,12.5c-2.2-0.3-3.8-2-6.1-1.1c-1.4-0.8-2.2-2.2-2.9-3.8
			l-23,1.5c-0.1,5.3-0.1,10.5,0.1,15.5l21.8,7.8c0.7-2.1,1.9-4,3.6-5.4c1.5,0.6,2.5-0.8,3.9-0.7c1.1,0.1,1.4,1,2.5,1.1
			c3.3,0.1,6.9-1.3,10.3,0c6.8,2.5,6.2,15.3,0.7,19.2c-2.8,1.3-7.1,1.2-10,2.5c-0.3-3.1-4.7-2.2-7.5-2.8c-0.2-0.1-0.3-0.3-0.5-0.4
			l-24.1,1.6c-0.1,3.8-0.7,8.2-0.7,11.3c-0.1,14.8,0,29.4,0.1,44.1l18.6,4.5l1.3,1c1.2-2.6,2.9-4.5,3.2-7.9c2.3-0.9,4.6-1.9,6.4-3.2
			c4.3,0.8,9.5,0,13.2,2.5c2.4,1.6,5.9,6.5,4.6,10.3c-0.2,0.6-1.1,1.3-1.4,2.1c-1.8,4.5-4.2,6.5-8.9,8.2c-4-1.6-8.2-0.6-11.4-2.1
			c-1.8-0.8-2.6-2.3-3.2-3.8l-22.3,0.5c0.1,22.2,0.3,44.6-0.1,67.7c-0.1,8-0.3,15.5,0,23.1c0.1,2.9,1.1,5.7,1.1,8.5
			c-0.1,13.6-0.9,26.8-0.7,39.2c3.6,2.5,8.1,3.2,12.5,2.8c-0.9,2.4,1.8-0.1,2.5,2.5c0.2-1.5,3,0.2,4.3-0.7c2.7-1.7,0.9-6.5,1.8-10
			c0.9-3.6,5.4-7.2,9.6-7.5c1.3-0.1,3.2,1.2,5.3,1.4c2,0.2,4-0.6,5.3,0c3.4,1.4,6.9,7.4,5.7,12.5c-2.6,5-7.5,8.8-15.7,8.5
			c-5.1-0.2-7.6-2.5-10.3-4.3c-3.7,1.6-6.7,0.5-10.3,0.7c-2.2-3.2-9.9,10.9-7.8,11c1.9,0.1,3.9,2.6,4.3,2.8c0.8,0.5,4.3,3.8,5.3,5.3
			c1.6-0.1,6.6,4,10.3,3.9c1.6-4.3,6.6-5.2,11-6.8c1.9,2,4.3,0.5,6.8,1.4c6.1,2.3,9.1,12.2,3.9,16.4c-2.6,0.6-2.6,0-5,1.1
			c-0.4,2.4,3.9-0.1,3.6,1.4c-5.7,2.7-11.8,2.6-18.2,0.7c-2.4,2.2-4.5,2.8-6.1,6.1c-1.7,0.3-1.8-1-3.6-0.7c-3.6,2.6-7.3,1.6-11,2.1
			c-0.1,1.1-2.4,2.1-3.9,2.8c-0.9,11.4,0.2,19.9,0,31.7c4.5,0.4,6.8,3.5,11.4,5c0.5,1.4,1.6,1.9,1.4,3.2c4.5,0.4,6.5,3.2,10,4.6
			c2.2-2.7,5.9-1.9,8.9-2.1c3.5-0.3,7.4-1.4,10.7,0.4c4.6,2.4,5.3,14.8,0.7,16.7c0.7,0.3,1.2-1.1,1.4,0c-4.6,3.6-13.5,4.1-19.6,2.5
			c-0.8,1.2-0.8,1.9-0.4,3.9l8.2,5.2l-3.8,6.3c0.8-0.3,1.6-0.6,2.4-0.8c4.4,1.6,10.1-0.2,13.2,3.2c3.5,3.7,2.8,9.7,0.4,14.6
			c-1.1,0.8-2.1,1.7-3.2,2.5c-7.7,1-13.5,2-19.6-0.4c-1.4,0.9-3.4,1.2-5.6,1.3l-16,26.3l-0.7-1.1c-0.1,8.9-0.2,18.9,0.3,28.3
			c-0.6,0-1.2,0-1.6,0.1l13.3,5.3c-0.1-0.5-0.4-0.9-1-1.1c1.4-2.1,2.2,1.8,4.3,0.4c0.3,0.6,1,0.9,0.7,2.1c2-0.1,2.4-0.4,4.3,0
			c2.3-3.4,2.4-10,8.9-8.2c4.4-4.9,17.7-0.6,17.8,6.8c-0.4-0.1-0.2-0.7-0.7-0.7c3.2,9.6-5.2,13.8-13.9,13.5c-3.3-0.1-6.5-0.9-9.3,0
			c-0.8,2.8-3.2,5.5-4.6,5.7c0.5,1.7,1,1.2-0.7,0.7c1.3,1.2,0,2-0.7,3.2c-0.6-0.3-0.9-1.3-0.4-1.8h-1.4c-0.5-2.2-2.4-4.6-3.3-7.8
			l-12.4,0.5c1.2,15.6,1.5,30,2.2,46.8c1.8,0.1,5.5-0.8,6.8-1.4c0.8,0.8,0.5,2.6,1.8,2.8c4.9,0.1,10.2,0,11,5.7
			c5.8-5.3,13.1-4.6,20.7-2.8c4.6,4,7.3,16,0.4,19.2c-5.4,0.7-9.4,2.1-15,1.4c-0.9,0.8,0.3,2.4-0.4,2.8c-3.1,1.4-4.3,4.8-7.5,6
			c-0.9,4-3,5.8-4.3,8.5c0.7,3.3,0,5.6,0,10c0.7,0.9,3.2,2.4,4.3,0.7c0.8-0.8-1.4-1.7-1.1-3.2c2-0.9,2.3-3.6,2.9-6.1
			c4.7-5.1,12.7-5.9,20.3-3.9c6.2,3,5.5,15.6,0.4,19.2c-3.8,1-5.3,3-10,2.5c-1,2.4-3.1,3.5-3.9,6.1c9.8,0.2,19.6,0.2,29.4,0.2h609.7
			v-861.5H-75z M-129.3-82.5c-0.3-0.3-0.4-0.8-0.4-1.4c1.1,1,2.8-0.5,3.2,1.4C-128-82.4-128.2-83-129.3-82.5z M-126.1-82.8
			c0.6-0.8,1.5-2.8,2.8-1.8C-124-83.7-124.9-83.1-126.1-82.8z M-128.6-9.9c0-0.9,1.2-0.7,2.1-0.7C-126.5-9.7-127.7-9.9-128.6-9.9z
			 M-88.7,69.9c-2.8,3.1-6.9,3.3-11.4,4.3c-1.7-1.2-4-1.9-7.1-1.8c-4.1-2.1-4.7-7.6-7.1-11.4c2.3-2.5,4-5.7,6.4-8.2
			c7.1,0,11.8-2.6,17.8,0.4c2.8,2.7,5.1,10.3,1.4,13.5C-88.1,67.8-88.9,68.2-88.7,69.9z M-104,1.9c-6.1-2.6-8.3-8.2-9.3-15.3
			c2.2-1.2,3.9-4.8,6.4-6.8c4.8-0.1,10.3,0.7,16.4,1.1c0.9,2.7,3.7,5.5,4.3,8.9C-84.5,0.3-96.4,2.8-104,1.9z M-128.3,173.1
			c-0.3-0.3-0.2-1-0.7-1.1c2.1-0.3,3.5,0.5,5.7-0.7C-124.7,172.9-125.5,173.1-128.3,173.1z M-119,173.8c-0.1-1.1-1.7-2-0.7-3.2
			c1.3-0.1,1.7,0.7,2.9,0.7C-117.3,172.4-117.8,173.5-119,173.8z M-86.2-81c-0.3,3.7-2.5,6.2-4.6,8.9c-4.5,0.1-7.4,2.4-11.8,2.1
			c-2.9-0.2-7.6-3.7-8.9-6.8c-0.6-1.4-1.7-6.1-1.4-7.8c0.7-3.6,5.9-5,8.6-7.5C-95.8-93.2-85.3-91.5-86.2-81z M-89.8-107
			c-3.1,1.1-8.9,2.1-11.8-0.7c-5.3,1.7-9.5-1.2-10.3-6c-0.3-0.7-1-1-1.8-1.1c0.2-2.4,2.1-5.1,0-6.8c2.4-2.9,5-5.4,8.2-7.5
			c5.4,1.3,9.7-1.1,15.3,1.4c1.9,3.6,4.8,6.5,4.3,11.4C-86.2-112.7-88.1-109.8-89.8-107z M-85.9,172.4c-1.7,5.2-5.5,8.3-11,9.6
			c-2.8-0.9-7.1-0.2-10.3-1.4c-2.1-2.5-3.9-5.4-5-8.9h-1.1c1.4-5.5,4.9-8.9,8.2-12.5c5.3,0.3,9.4,0.2,15,1.4
			C-86.4,162.7-85.1,167.8-85.9,172.4z M-127.2,244.6c1,0.3,0.4,0.5,0.4,1.4h-1.4C-129.4,246.5-126.9,245.6-127.2,244.6z
			 M-131.8,258.8c0.4-0.8,2.2-0.7,3.2-0.4C-128.9,259.8-130.3,258.4-131.8,258.8z M-123.6,280.9c-0.8,0.5-0.7,1.9-1.4,2.5
			c-1.2-1.5-6.1-0.6-4.6-4.3c2.5,0.9,6.4,1.2,8.5,1.4C-121.9,281.2-122.8,281.2-123.6,280.9z M-117.9,311.2
			c-0.7-0.1-0.3-1.3-1.1-1.4C-118.5,308.7-116.9,310.6-117.9,311.2z M-111.9,237.1c3.4-2.5,5.7-6.9,12.1-5.3c1.3,0.4,1-0.9,2.1-0.7
			c2.2,0.6,4.5,1.2,7.1,1.4c8.9,5.8,2.8,26.4-7.1,19.2c-3.4,0.8-6.5-0.6-9.6-0.4c-2.2-2.2-3.2-5.6-5.7-7.5
			C-112.4,241.1-112.1,239.8-111.9,237.1z M-107.2,268.1c8.4-1.5,17.7-2.9,20.7,5.3c-0.4,2.9,0.6,5,0,7.5
			c-2.9,11-24.3,11.3-26.4-0.4C-112.3,275.2-110.7,270.7-107.2,268.1z M-86.6,318.6c-1.9,3.3-8,5.9-12.8,3.9
			c-6.5,1.9-10-1.5-11.4-5.7c-1.5,0.2-1.7,1.6-3.2,1.8c-0.2-0.3-0.8-1.3,0.4-1.1c-2.8-0.8-4.2-4.1-2.9-7.1c1.1,0.9,2.5,1.5,4.3,1.8
			c1.9-2.7,3-6.2,5.7-8.2c3.5-0.1,7.2,0.1,8.5-2.1c2.9,1.7,5.9,0.6,8.5,2.5C-85.3,307.4-85.4,313.5-86.6,318.6z M-120.4,429.3
			c-1.2-0.9-1.4-2.8-3.6-2.8c1.9-2.7,4.2,0.3,7.5-0.7c0.3,1.3,1.9,1.7,1.8,2.5C-115.5,429.2-118.5,428.6-120.4,429.3z M-129.7,536.1
			c0.2-0.3,0.4-0.6,0.4-1.1c0.5,0,1.1,1.5,1.1,0c0.5,0.3,1.1,0.5,1.1,1.4C-128.1,536.4-129.2,536.6-129.7,536.1z M-124,537.5
			c-0.2-1.2,1.7-0.4,1.8-1.4c0.8,0.4,1.7,0.7,1.8,1.8C-121.9,539-122.6,538.1-124,537.5z M-119.4,538.9c0-0.6-0.3-0.9-0.7-1.1
			c0.7-0.8,1.9-1.1,2.9-0.7c0,0.5-0.1,1,0.4,1.1C-117.2,539-118.2,539-119.4,538.9z M-90.5,608.3c-4,1.6-10.1-0.6-14.6,0.7
			c-2.3,0.7-2.8,3.1-5.3,3.2c-2.4-3.8-3-9.8-2.5-14.2c3-4.2,6-11.9,12.8-8.9c1.2,0.1,1.1-1.1,1.8-1.4c3.6,0.2,8.1,1.3,10.7,3.6
			C-84.6,597.3-85.1,606.2-90.5,608.3z M-90.2,431.1c-2.3,0.1-3.7-0.2-5-0.4c-4.8,2.5-7.5-1.5-12.8,0c-0.5,0.2,0.1,0.5,0,1.1
			c-1.7-1.3-3.3-2.8-5.3-3.9c2.1-2.5,4.2-6.3,1.1-8.5c2.3-5.9,7-9.4,14.6-10c8.3,1.6,13.3,6.1,12.5,16
			C-87.1,427.1-88,429.7-90.2,431.1z M-107.6,537.5c-1.6,0-1.5,1.9-2.9,2.1c-1.2-1.8-4.3-7.4-1.1-8.2c-0.6-1.5-0.2-4.1-0.7-5.7
			c2.1-1.6,2.9-6.5,6.1-8.2c5.3-1.1,12-1,17.8,1.4c2.1,2,2.2,6.1,3.6,8.9C-86.4,538.8-96.8,538.6-107.6,537.5z"/>
		<rect id="XMLID_687_" x="-59.1" y="-172.5" class="st4" width="2.9" height="861.5"/>
		<g id="XMLID_647_" class="st5">
			<path id="XMLID_686_" class="st6" d="M-101.9-34.9c-3.6-1.3-5.7-1.2-7.7-2.8h-17.3l-6.1,0.4c0,0.8,0,1.6,0,2.5h31.2
				C-101.7-34.9-101.8-34.9-101.9-34.9z"/>
			<path id="XMLID_685_" class="st6" d="M-109.8-3h-23.3c0,0.9,0,1.9,0,2.8h25.9C-108.2-1-109.1-2-109.8-3z"/>
			<path id="XMLID_684_" class="st6" d="M-111,31.6h-21.6c-0.1,0.9-0.1,1.9-0.2,2.8h23.4C-109.9,33.5-110.5,32.6-111,31.6z"/>
			<path id="XMLID_683_" class="st6" d="M-111.8,66.3h-19.7c-0.5,0.2-1,0.4-1.4,0.6c0,0.7,0,1.5,0.1,2.2h22.4
				C-110.9,68.2-111.3,67.3-111.8,66.3z"/>
			<path id="XMLID_680_" class="st6" d="M-119.7,170.4c1.3-0.1,1.7,0.7,2.9,0.7c-0.3,0.7-0.6,1.4-1.1,1.9h6.3
				c-0.2-0.5-0.4-1-0.6-1.5h-1.1c0.1-0.5,0.3-0.9,0.4-1.3h-20c0,1,0,1.9,0,2.9h13.7C-119.6,172.2-120.5,171.4-119.7,170.4z
				 M-128.2,172.9c-0.3-0.3-0.2-1-0.7-1.1c2.1-0.3,3.5,0.5,5.7-0.7C-124.6,172.8-125.5,173-128.2,172.9z"/>
			<path id="XMLID_679_" class="st6" d="M-112.1,239.5h-20.5c0,1,0,1.9,0,2.8h20C-112.4,241.3-112.2,240.4-112.1,239.5z"/>
			<path id="XMLID_678_" class="st6" d="M-111.4,274.2h-21.3c0,1,0,1.9,0,2.8h20.5C-112.1,276-111.8,275.1-111.4,274.2z"/>
			<path id="XMLID_675_" class="st6" d="M-116.5,310.3c0.7,0.6,1.6,1,2.5,1.3h2c0.6-0.9,1.1-1.9,1.7-2.8H-132
				c0.1,0.9,0.2,1.7,0.2,2.6c0,0.1,0,0.2,0,0.3h14.9C-116.8,311.2-116.7,310.8-116.5,310.3z M-119,309.6c0.5-1,2.1,0.8,1.1,1.4
				C-118.6,310.9-118.2,309.7-119,309.6z"/>
			<path id="XMLID_674_" class="st6" d="M-132.5,346.3h20.9c0-0.4,0.1-0.8,0.2-1.1c0.1-0.6,0.4-1.2,0.7-1.7h-21.7
				C-132.5,344.4-132.5,345.4-132.5,346.3z"/>
			<path id="XMLID_673_" class="st6" d="M-107.5,412.8h-25c0,1,0,1.9,0,2.8h22.3C-109.4,414.5-108.5,413.6-107.5,412.8z"/>
			<g id="XMLID_648_">
				<path id="XMLID_672_" class="st6" d="M534-141.6h-667.5c0,0.9,0.1,1.9,0.1,2.8H534V-141.6z"/>
				<path id="XMLID_671_" class="st6" d="M534-107H-90.2c-2.8,0.9-7.2,1.6-10.1,0h-32.9c0,1,0,1.9,0,2.8H534V-107z"/>
				<path id="XMLID_670_" class="st6" d="M534-72.3H-90.8c0,0,0,0-0.1,0.1c-4.5,0.1-7.4,2.4-11.8,2.1c-1.4-0.1-3.2-1-4.9-2.2H-133
					c0,1,0,1.9,0,2.8H534V-72.3z"/>
				<path id="XMLID_669_" class="st6" d="M534-37.7H-89c-0.9,1.2-2.1,2.1-3.3,2.8H534V-37.7z"/>
				<path id="XMLID_668_" class="st6" d="M-91.2-0.2H534V-3H-87.8C-88.7-1.9-89.9-0.9-91.2-0.2z"/>
				<path id="XMLID_667_" class="st6" d="M534,31.6H-88.2c-0.4,1.1-0.9,2-1.6,2.8H534V31.6z"/>
				<path id="XMLID_666_" class="st6" d="M-88.7,69.1H534v-2.8H-88.4c-0.1,0.1-0.2,0.2-0.3,0.3C-88.1,67.5-88.7,68-88.7,69.1z"/>
				<path id="XMLID_665_" class="st6" d="M534,100.9H-86.3c-0.2,1-0.5,2-0.9,2.8H534V100.9z"/>
				<path id="XMLID_664_" class="st6" d="M534,135.6H-86c-0.1,1-0.3,1.9-0.6,2.8H534V135.6z"/>
				<path id="XMLID_663_" class="st6" d="M-85.8,172.2c-0.1,0.3-0.2,0.6-0.3,0.8H534v-2.9H-85.6C-85.7,170.9-85.7,171.6-85.8,172.2z
					"/>
				<path id="XMLID_662_" class="st6" d="M534,204.9H-85.2c0.1,0.8,0,1.5-0.2,2.2c-0.1,0.2-0.2,0.4-0.4,0.6H534V204.9z"/>
				<path id="XMLID_661_" class="st6" d="M-86.2,242.4H534v-2.8H-86.3C-86.2,240.4-86.1,241.4-86.2,242.4z"/>
				<path id="XMLID_660_" class="st6" d="M-86.4,277H534v-2.8H-86.6C-86.6,275.2-86.5,276.1-86.4,277z"/>
				<path id="XMLID_659_" class="st6" d="M-85.8,311.7H534v-2.8H-86.3C-86.1,309.7-85.9,310.7-85.8,311.7z"/>
				<path id="XMLID_658_" class="st6" d="M534,343.5H-86.9c0.5,0.9,0.9,1.8,1.2,2.8H534V343.5z"/>
				<path id="XMLID_657_" class="st6" d="M534,378.1H-87.4c0.6,0.9,1.1,1.8,1.4,2.8h620V378.1z"/>
				<path id="XMLID_656_" class="st6" d="M-86.9,415.6H534v-2.8H-89.4C-88.4,413.6-87.5,414.5-86.9,415.6z"/>
				<path id="XMLID_655_" class="st6" d="M534,447.4H-89.1c0.8,0.7,1.5,1.6,2,2.8H534V447.4z"/>
				<path id="XMLID_654_" class="st6" d="M534,482.1H-91.2c1.4,0.3,2.6,0.9,3.6,1.9c0.3,0.3,0.5,0.6,0.7,0.9H534V482.1z"/>
				<path id="XMLID_653_" class="st6" d="M-106.1,517.4c5.3-1.2,12-1,17.8,1.4c0.2,0.2,0.4,0.4,0.6,0.7H534v-2.8h-658.6l-1.7,2.8h18
					C-107.7,518.7-107,517.9-106.1,517.4z"/>
				<path id="XMLID_652_" class="st6" d="M534,551.4h-666.3c0,1,0.1,1.9,0.1,2.8h24.9c1-0.5,2.3-0.6,4-0.1c2.8-3.1,9-2.5,13.3,0.1
					H534V551.4z"/>
				<path id="XMLID_651_" class="st6" d="M-100.4,588.9h1c0.5-0.3,0.5-1,1.1-1.3c2.1,0.1,4.5,0.5,6.6,1.3H534V586h-666.1
					c0,0.9,0.1,1.9,0.1,2.8h26.5C-104.1,588.2-102.4,588.1-100.4,588.9z"/>
				<path id="XMLID_650_" class="st6" d="M534,620.7h-657.4c0.2,0.8,0.4,1.6,1.2,1.8c2.8,0.1,5.7,0.1,7.8,1.1H534V620.7z"/>
				<path id="XMLID_649_" class="st6" d="M534,655.3h-647c-0.3,1.1-0.6,2-1.1,2.8H534V655.3z"/>
			</g>
		</g>
	</g>
</g>
<g id="XMLID_6247_">
	<g id="XMLID_546_">
		<path id="XMLID_532_" class="st7" d="M554.8-38.5c12.4-57.2,68.9-93.5,126.1-81.1c53.6,11.6,88.9,61.8,83,115.1l47,10.2
			c6.1,1.3,10.1,7.5,8.8,13.6l-2.1,9.6c-1.3,6.1-7.5,10.1-13.6,8.8L755.4,27c-20,45-69.4,71.3-119.4,60.5
			C578.8,75.2,542.4,18.7,554.8-38.5z"/>
		<g id="XMLID_547_">
			<path id="XMLID_531_" class="st8" d="M814.7,11l2.1-9.5c1.3-6.1-2.6-12.1-8.7-13.4l-69.4-15c-6.1-1.3-12.1,2.6-13.4,8.6l-2,9.5
				c-1.3,6.1,2.6,12.1,8.6,13.4l69.4,15C807.3,21,813.4,17.1,814.7,11z"/>
			<path id="XMLID_530_" class="st8" d="M759.9-11.1c12.2-56.5-23.6-112.1-80.2-124.4c-56.5-12.2-112.3,23.6-124.5,80.1
				C543,1.1,578.9,56.7,635.4,69C691.9,81.2,747.7,45.4,759.9-11.1z"/>
			<path id="XMLID_529_" class="st9" d="M744.8-14.4c10.4-48.1-20.1-95.5-68.3-106c-48.1-10.4-95.6,20.1-106.1,68.2
				C560-4,590.6,43.4,638.7,53.8C686.9,64.2,734.3,33.7,744.8-14.4z"/>
			<path id="XMLID_528_" class="st10" d="M731.7-17.2c8.9-40.9-17.1-81.2-58.1-90.1c-40.9-8.9-81.3,17.1-90.2,58
				c-8.9,40.9,17.1,81.2,58.1,90.1C682.5,49.6,722.8,23.7,731.7-17.2z"/>
			<path id="XMLID_527_" class="st11" d="M717.4-1.5c15.3-29.3,6.2-55-2.3-68.3c-20.2-31.3-61.9-40.3-93.2-20.2
				c-13.3,8.5-22.5,20.9-27.3,34.8c5.2-11.6,24.6-16.8,40.2-16.8c37.8,0-8.9,36.5,25.3,52.6C684.6-7.8,701.5-22.2,717.4-1.5z"/>
		</g>
	</g>
	<g id="XMLID_534_">
		<path id="XMLID_526_" class="st0" d="M-323.5,375.8l-1.5,4l1.5,0.5c-1.5,6.2,0.9,12.1,6,13.8c5.2,1.8,11.4-1.5,14.6-7.4l1.8,0.6
			l1.6-4l-1.2-0.4l3.6-9l1.1,0.4l1.5-4l-0.7-0.2l117.3-289.9l0,0l2.5-28.7l0,0l0.9-10.3l-6.9,8.6l0,0l-18.3,22.9l0,0l-1.5,3.8
			l-6,14.7l0,0l-110.1,271.9l-1.2-0.4l-1.6,4l1.1,0.3l-3.6,9L-323.5,375.8z"/>
		<g id="XMLID_535_">
			<polygon id="XMLID_525_" class="st12" points="-190.5,69.5 -198.2,87.9 -175.6,95.5 -167.9,77 -167.9,77 -164.6,38.1 
				-190.5,69.5 			"/>
			<path id="XMLID_524_" class="st13" d="M-311,360.6c2.9-6.9,10-11,16-9l0,0c5.9,2,8.4,9.2,5.5,16.2l-5.3,12.7c-2.9,7-10,11-15.9,9
				l0,0c-5.9-2-8.4-9.2-5.5-16.2L-311,360.6z"/>
			<path id="XMLID_523_" class="st14" d="M-174.4,74.8c2.5,4.3,6.5,2.2,6.5,2.2l-120.2,289.4l-6.5-2.1L-174.4,74.8z"/>
			<path id="XMLID_522_" class="st14" d="M-190.5,69.5c0,0,0.8,5.9,6.5,2.2L-304.3,361l-6.5-2.2L-190.5,69.5z"/>
			<path id="XMLID_521_" class="st15" d="M-184.1,71.6c1.8,10.1,9.7,3.2,9.7,3.2l-120.2,289.4l-9.7-3.2L-184.1,71.6z"/>
			<polygon id="XMLID_520_" class="st16" points="-316.6,373 -294.3,380.4 -289.3,368.3 -311.6,360.9 			"/>
			<polygon id="XMLID_519_" class="st17" points="-171.7,46.7 -164.6,38.1 -165.5,48.4 			"/>
			<polygon id="XMLID_518_" class="st0" points="-287,365.9 -311.8,358.3 -313.4,362.3 -288.6,369.9 			"/>
			<polygon id="XMLID_435_" class="st0" points="-292.3,378.8 -317.1,371.2 -318.7,375.2 -293.9,382.8 			"/>
		</g>
	</g>
</g>
</svg>
