<?xml version="1.0" encoding="utf-8"?>
<!-- Generator: Adobe Illustrator 19.0.0, SVG Export Plug-In . SVG Version: 6.00 Build 0)  -->
<svg version="1.1" id="Layer_1" xmlns="http://www.w3.org/2000/svg" xmlns:xlink="http://www.w3.org/1999/xlink" x="0px" y="0px"
	 width="310px" height="310px" viewBox="0 0 310 310" style="enable-background:new 0 0 310 310;" xml:space="preserve">
<style type="text/css">
	.st0{fill:#71E3CE;}
	.st1{clip-path:url(#XMLID_31_);}
	.st2{fill:#4DB3A0;}
	.st3{fill:#E6E388;}
	.st4{fill:#D1CE6D;}
	.st5{fill:url(#XMLID_34_);}
	.st6{fill:#E6E5BA;}
	.st7{fill:#5C7837;}
	.st8{fill:#CFCEA7;}
	.st9{fill:#F7F6D7;}
	.st10{fill:#6D9637;}
	.st11{fill:#FABE5A;}
	.st12{fill:#FFD278;}
	.st13{fill:#50A0D2;}
	.st14{fill:#FAFAFA;}
	.st15{fill:#0A7DAF;}
	.st16{fill:#E6E6E6;}
	.st17{fill:#BEA76D;}
	.st18{fill:#A18754;}
	.st19{fill:#886C47;}
	.st20{fill:#3C3C3C;}
	.st21{fill:#282828;}
	.st22{fill:#F5A046;}
	.st23{clip-path:url(#XMLID_31_);fill:#FFFFFF;}
	.st24{opacity:0.25;}
	.st25{fill:#FFFFFF;}
</style>
<circle id="XMLID_7866_" class="st0" cx="155" cy="155" r="143.7"/>
<g id="XMLID_6815_">
	<defs>
		<circle id="XMLID_6995_" cx="155" cy="155" r="143.7"/>
	</defs>
	<clipPath id="XMLID_31_">
		<use xlink:href="#XMLID_6995_"  style="overflow:visible;"/>
	</clipPath>
	<g id="XMLID_12442_" class="st1">
		<g id="XMLID_15417_">
			<path id="XMLID_15418_" class="st2" d="M199.8,263.2c0.3,2.7,2.7,4.8,3.5,7.3c0.1,0.2-0.3,0.2-0.4,0.1c-2.2-1.8-3.4-4.6-3.3-7.4
				C199.7,263.2,199.8,263.1,199.8,263.2L199.8,263.2z"/>
		</g>
		<g id="XMLID_15415_">
			<path id="XMLID_15416_" class="st2" d="M204.4,278.9c-0.2-0.3-0.4-0.5-0.5-0.8c-0.1-0.4-0.3-0.7-0.4-1.1c-0.3-0.8-0.9-1.7-1-2.6
				c0-0.1,0.2-0.2,0.3-0.1c0.7,0.4,1,1.2,1.4,1.9c0.2,0.4,0.3,0.7,0.4,1.1c0.2,0.5,0.1,0.9,0.2,1.4
				C204.9,278.9,204.5,279,204.4,278.9L204.4,278.9z"/>
		</g>
		<g id="XMLID_15413_">
			<path id="XMLID_15414_" class="st2" d="M199.2,271.1c-0.5-0.2-0.9-0.5-1.2-1c-0.3-0.5-0.5-1.4-0.3-1.9c0-0.1,0.2-0.1,0.2,0
				c0.3,0.5,0.2,1.1,0.4,1.6c0.2,0.5,0.6,1,1,1.3C199.4,271,199.3,271.1,199.2,271.1L199.2,271.1z"/>
		</g>
		<g id="XMLID_15411_">
			<path id="XMLID_15412_" class="st2" d="M196.3,261.8c-0.1-0.1-0.1-0.2-0.3-0.2c-0.2,0-0.4-0.4-0.5-0.5c-0.3-0.4-1-1.1-1-1.7
				c0-0.2,0.4-0.3,0.6-0.2c0.4,0.3,0.7,1.1,0.9,1.6c0.1,0.1,0.4,0.5,0.3,0.7c0,0.1,0,0.2,0.1,0.3
				C196.4,261.8,196.3,261.8,196.3,261.8L196.3,261.8z"/>
		</g>
		<g id="XMLID_15409_">
			<path id="XMLID_15410_" class="st2" d="M197.2,255c-0.5-0.7-1.7-2.9-0.5-3.5c0.1,0,0.3-0.1,0.3,0c0.1,0.5,0,0.9,0,1.4
				c0.1,0.7,0.2,1.4,0.4,2.1C197.4,255,197.3,255,197.2,255L197.2,255z"/>
		</g>
		<g id="XMLID_15407_">
			<path id="XMLID_15408_" class="st2" d="M194.3,254.5c-0.6-0.6-1-1.6-0.7-2.4c0.1-0.2,0.6-0.4,0.6-0.1c0.3,0.8-0.3,1.8,0.2,2.5
				C194.5,254.5,194.4,254.5,194.3,254.5L194.3,254.5z"/>
		</g>
		<g id="XMLID_15405_">
			<path id="XMLID_15406_" class="st2" d="M194.2,268.1c-0.7-1.8-1.5-3.9-1.5-5.8c0-0.2,0.4-0.3,0.4-0.1c0.9,1.7,1.2,4,1.4,5.9
				C194.6,268.2,194.3,268.3,194.2,268.1L194.2,268.1z"/>
		</g>
		<g id="XMLID_15403_">
			<path id="XMLID_15404_" class="st2" d="M190.8,258.4c-0.6-1.1-0.6-2.2-0.6-3.4c0-0.2,0.6-0.4,0.6-0.1c0,1.1,0,2.3,0.4,3.4
				C191.2,258.4,190.9,258.5,190.8,258.4L190.8,258.4z"/>
		</g>
		<g id="XMLID_15401_">
			<path id="XMLID_15402_" class="st2" d="M191.8,251c0-0.9,0.1-1.7,0.6-2.4c0.4-0.6,1.3-1,2-1.1c0.1,0,0.1,0.1,0,0.1
				c-0.7,0.3-1.4,0.5-1.9,1.2c-0.4,0.6-0.4,1.5-0.5,2.2C192.1,251.1,191.8,251.2,191.8,251L191.8,251z"/>
		</g>
		<g id="XMLID_15399_">
			<path id="XMLID_15400_" class="st2" d="M188.7,249.5c-0.5,1.3-0.8,2.5-0.9,3.9c0,0.1-0.4,0.2-0.4,0.1c-0.1-1.4,0.4-2.8,1-4
				C188.4,249.5,188.8,249.4,188.7,249.5L188.7,249.5z"/>
		</g>
		<g id="XMLID_15397_">
			<path id="XMLID_15398_" class="st2" d="M185.2,250.5c-0.2,0.6-0.3,1.3-0.3,2c-0.1,0.8,0.1,1.6,0,2.4c0,0.1-0.3,0.2-0.3,0.1
				c-0.5-0.5-0.4-1.4-0.3-2.1C184.2,252,184.7,251.3,185.2,250.5C185.1,250.5,185.2,250.5,185.2,250.5L185.2,250.5z"/>
		</g>
		<g id="XMLID_15395_">
			<path id="XMLID_15396_" class="st2" d="M186.6,257.4c0,0.6,0.1,1.1,0.2,1.7c0.1,0.7,0.5,1.1,0.8,1.7c0,0.1-0.1,0.1-0.2,0.1
				C186.4,260,186.5,258.6,186.6,257.4C186.6,257.4,186.6,257.3,186.6,257.4L186.6,257.4z"/>
		</g>
		<g id="XMLID_15393_">
			<path id="XMLID_15394_" class="st2" d="M183.8,256.4c0.5,0.5,0.7,1.3,1,2c0,0.1-0.2,0.1-0.2,0.1c-0.7-0.4-0.5-1.4-1-2
				C183.5,256.4,183.7,256.3,183.8,256.4L183.8,256.4z"/>
		</g>
		<g id="XMLID_15391_">
			<path id="XMLID_15392_" class="st2" d="M189.2,262.7c0.1,0.6,0.2,1.2,0.4,1.7c0.2,0.7,0.7,1.1,1.1,1.7c0.1,0.1-0.2,0.2-0.3,0.1
				c-1.1-0.8-1.6-2.1-1.5-3.5C188.8,262.6,189.2,262.6,189.2,262.7L189.2,262.7z"/>
		</g>
		<g id="XMLID_15389_">
			<path id="XMLID_15390_" class="st2" d="M191.5,270.5c1.5,0.9,3.3,2.5,3.1,4.4c0,0.1-0.3,0.2-0.4,0.1c-0.5-0.7-0.7-1.5-1.1-2.2
				c-0.4-0.9-1-1.6-1.7-2.2C191.4,270.5,191.5,270.5,191.5,270.5L191.5,270.5z"/>
		</g>
		<g id="XMLID_15387_">
			<path id="XMLID_15388_" class="st2" d="M197.5,275.4c0.1,0.6,0.3,1.2,0.5,1.8c0.2,0.5,0.7,1.2,0.5,1.7c0,0.1-0.2,0.2-0.3,0.1
				c-0.5-0.3-0.7-1.1-0.8-1.6c-0.2-0.6-0.2-1.2-0.2-1.9C197.2,275.3,197.5,275.3,197.5,275.4L197.5,275.4z"/>
		</g>
		<g id="XMLID_15385_">
			<path id="XMLID_15386_" class="st2" d="M210.2,277.3c0.3,0.5,0.5,0.9,0.9,1.4c0.3,0.4,0.7,0.7,1.1,1.1c0.1,0.1-0.2,0.2-0.2,0.1
				c-1.1-0.3-1.7-1.5-2-2.5C209.8,277.3,210.1,277.2,210.2,277.3L210.2,277.3z"/>
		</g>
		<g id="XMLID_15383_">
			<path id="XMLID_15384_" class="st2" d="M199.1,243.9c-1-0.1-2.1,0.4-2.9,0.8c-0.1,0.1-0.4,0-0.3-0.1c0.5-0.5,1-0.8,1.6-1
				c0.6-0.2,1.1,0,1.7,0.2C199.2,243.8,199.1,243.9,199.1,243.9L199.1,243.9z"/>
		</g>
		<g id="XMLID_15381_">
			<path id="XMLID_15382_" class="st2" d="M209.4,240.6c-0.4,0.1-0.7,0.4-1.1,0.5c-0.6,0.3-1.4,0.5-2.1,0.3c-0.1,0-0.1-0.1,0-0.2
				c0.5-0.4,1.2-0.6,1.9-0.7C208.5,240.5,209,240.6,209.4,240.6C209.5,240.5,209.5,240.5,209.4,240.6L209.4,240.6z"/>
		</g>
		<g id="XMLID_15379_">
			<path id="XMLID_15380_" class="st2" d="M209,242.7c-1.3,0.4-2.5,1-3.8,1.2c-0.1,0-0.1-0.1,0-0.1c1.3-0.5,2.5-1.1,3.9-1.4
				C209.3,242.3,209.2,242.6,209,242.7L209,242.7z"/>
		</g>
		<g id="XMLID_15377_">
			<path id="XMLID_15378_" class="st2" d="M215.8,237.5c-0.1,0.1-0.1,0.2-0.2,0.3c-0.2,0.2-0.4,0.4-0.6,0.6
				c-0.3,0.2-0.5,0.5-0.8,0.7c-0.3,0.3-0.5,0.5-0.8,0.7c-0.1,0-0.2,0.1-0.3,0c-0.4-0.4,0.7-1.2,1-1.4c0.3-0.2,0.7-0.4,1.1-0.6
				C215.2,237.7,215.5,237.7,215.8,237.5C215.7,237.5,215.8,237.5,215.8,237.5L215.8,237.5z"/>
		</g>
		<g id="XMLID_15375_">
			<path id="XMLID_15376_" class="st2" d="M218.6,232.7c0.5,0.9,0.8,2.4,0.1,3.3c-0.1,0.1-0.3,0.2-0.4,0c-0.2-0.5,0-1,0-1.5
				c0-0.6,0.1-1.2,0.1-1.8C218.4,232.7,218.6,232.6,218.6,232.7L218.6,232.7z"/>
		</g>
		<g id="XMLID_15373_">
			<path id="XMLID_15374_" class="st2" d="M215.2,230.4c0.6,0,1.1,0.2,1.4,0.7c0.5,0.6,0.5,1.1,0.2,1.8c0,0.1-0.3,0.2-0.3,0.1
				c-0.1-0.3-0.3-0.5-0.4-0.8c-0.1-0.2-0.1-0.5-0.2-0.7C215.9,231.1,215.5,230.7,215.2,230.4C215.2,230.5,215.2,230.4,215.2,230.4
				L215.2,230.4z"/>
		</g>
		<g id="XMLID_15371_">
			<path id="XMLID_15372_" class="st2" d="M215.1,235c-0.5,0.9-1.1,1.9-2.1,2.3c0,0-0.3,0-0.2-0.1c0.7-0.8,1.4-1.5,2-2.3
				C214.9,234.9,215.1,234.9,215.1,235L215.1,235z"/>
		</g>
		<g id="XMLID_15369_">
			<path id="XMLID_15370_" class="st2" d="M219.8,236.8c-1.1,1.1-1.6,2.8-3,3.6c0,0-0.3,0.1-0.3-0.1c0.4-0.7,1.1-1.4,1.6-2
				c0.5-0.6,0.9-1.1,1.5-1.5C219.7,236.7,219.9,236.7,219.8,236.8L219.8,236.8z"/>
		</g>
		<g id="XMLID_15367_">
			<path id="XMLID_15368_" class="st2" d="M212,241.9c-0.8,0.3-1.5,0.8-2.3,1c-0.1,0-0.3,0-0.2-0.1c0.2-0.3,0.7-0.5,1-0.7
				c0.4-0.2,0.9-0.3,1.4-0.4C212,241.7,212.1,241.8,212,241.9L212,241.9z"/>
		</g>
		<g id="XMLID_15365_">
			<path id="XMLID_15366_" class="st2" d="M202.1,245.8c0,0.2-0.2,0.3-0.3,0.4c-0.2,0.2-0.5,0.5-0.7,0.7c-0.5,0.5-1,1-1.4,1.5
				c-0.1,0.1-0.9,0.3-0.7-0.1c0.1-0.2,0.2-0.3,0.3-0.5c0.1-0.2,0.1-0.4,0.2-0.5c0.3-0.4,0.5-0.7,0.8-1c0.3-0.3,0.6-0.4,1-0.6
				C201.4,245.7,202,245.6,202.1,245.8L202.1,245.8z"/>
		</g>
		<g id="XMLID_15363_">
			<path id="XMLID_15364_" class="st2" d="M197.9,246.4c-1,0.6-1.7,1.6-2.8,2c0,0-0.3,0-0.2-0.1
				C195.5,247.4,196.6,246.2,197.9,246.4C197.9,246.3,198,246.3,197.9,246.4L197.9,246.4z"/>
		</g>
		<g id="XMLID_15361_">
			<path id="XMLID_15362_" class="st2" d="M193.4,244.9c-0.5,0.2-0.9,0.4-1.4,0.7c-0.5,0.2-0.9,0.4-1.4,0.6c-0.1,0-0.3,0-0.2-0.1
				c0.4-0.3,0.8-0.6,1.2-0.9c0.5-0.3,1.1-0.4,1.7-0.4C193.5,244.7,193.5,244.8,193.4,244.9L193.4,244.9z"/>
		</g>
		<g id="XMLID_15359_">
			<path id="XMLID_15360_" class="st2" d="M202.7,243.2c-0.8-0.4-1.8-0.4-2.6-0.2c-0.1,0-0.3-0.1-0.2-0.2c0.4-0.4,1.2-0.7,1.8-0.7
				c0.4,0,0.7,0,1,0.2c0.1,0.1,0.2,0.1,0.3,0.2c0.1,0.2,0.1,0.3,0.2,0.5C203.2,243.1,202.8,243.2,202.7,243.2L202.7,243.2z"/>
		</g>
		<g id="XMLID_15357_">
			<path id="XMLID_15358_" class="st2" d="M214.2,230c-0.4-0.5-0.9-0.9-1.3-1.4c-0.4-0.4-0.7-0.9-1-1.4c-0.1-0.1,0.2-0.2,0.3-0.1
				c0.5,0.4,1,0.7,1.4,1.2C213.9,228.8,214.1,229.3,214.2,230C214.3,230,214.2,230,214.2,230L214.2,230z"/>
		</g>
		<g id="XMLID_15355_">
			<path id="XMLID_15356_" class="st2" d="M210.3,225.1c0,0.3-0.5,0.1-0.6,0c-0.2-0.1-0.5-0.3-0.7-0.5c-0.2-0.2-0.5-0.3-0.7-0.5
				c-0.1-0.1,0.1-0.1,0.2-0.1c0.4,0,0.7,0.2,1,0.4c0.2,0.1,0.3,0.2,0.5,0.3c0.1,0,0.1,0.1,0.2,0.2c0,0,0,0,0.1,0.1
				c0.1,0,0,0.1-0.1,0.1C210.1,225.1,210.3,225,210.3,225.1L210.3,225.1z"/>
		</g>
		<g id="XMLID_15353_">
			<path id="XMLID_15354_" class="st2" d="M203,221.9c-0.2-0.3-0.4-0.4-0.7-0.6c-0.2-0.2-0.5-0.4-0.6-0.7c0-0.1,0.2-0.1,0.2-0.1
				c0.3,0.1,0.6,0.4,0.8,0.6c0.2,0.2,0.4,0.5,0.5,0.7C203.3,221.9,203.1,222,203,221.9L203,221.9z"/>
		</g>
		<g id="XMLID_15351_">
			<path id="XMLID_15352_" class="st2" d="M198,218.4c-1-0.9-2.3-2.3-2-3.8c0-0.1,0.3-0.2,0.3-0.1c0.2,0.7,0.3,1.3,0.6,2
				c0.4,0.7,0.8,1.3,1.4,1.8C198.3,218.4,198,218.5,198,218.4L198,218.4z"/>
		</g>
		<g id="XMLID_15349_">
			<path id="XMLID_15350_" class="st2" d="M195.4,211.4c-0.3-0.4-0.7-1.1-0.2-1.6c0,0,0.2-0.1,0.3,0c0,0.1,0,0.1,0,0.2
				c0,0.2,0,0.3,0,0.5c0.1,0.3,0.1,0.5,0.2,0.8C195.8,211.4,195.5,211.4,195.4,211.4L195.4,211.4z"/>
		</g>
		<g id="XMLID_15347_">
			<path id="XMLID_15348_" class="st2" d="M195.7,206.3c-0.1-0.3-0.1-0.6,0-0.8c0.1-0.3,0.3-0.5,0.6-0.5c0,0,0.2,0,0.1,0.1
				c-0.2,0.2-0.3,0.3-0.4,0.5c-0.1,0.2-0.1,0.5-0.2,0.7C195.9,206.3,195.7,206.4,195.7,206.3L195.7,206.3z"/>
		</g>
		<g id="XMLID_15345_">
			<path id="XMLID_15346_" class="st2" d="M198.4,202.5c0.2-0.6,0.8-0.9,1.4-1.1c0,0,0.2,0,0.1,0.1c-0.4,0.3-0.9,0.6-1.2,1
				C198.7,202.5,198.4,202.6,198.4,202.5L198.4,202.5z"/>
		</g>
		<g id="XMLID_15343_">
			<path id="XMLID_15344_" class="st2" d="M201,198.9c0.3-0.4,0.8-0.6,1.2-0.9c0.4-0.2,0.8-0.4,1.2-0.5c0.1,0,0.1,0.1,0.1,0.1
				c-0.3,0.2-0.6,0.3-0.9,0.4c-0.5,0.2-1,0.5-1.4,0.8C201.2,199,200.9,199,201,198.9L201,198.9z"/>
		</g>
		<g id="XMLID_15341_">
			<path id="XMLID_15342_" class="st2" d="M206.4,195.1c0.3-0.2,0.5-0.3,0.8-0.5c0.2-0.1,0.5-0.3,0.8-0.3c0.1,0,0.1,0,0.1,0.1
				c-0.1,0.2-0.4,0.3-0.6,0.4C207.1,194.9,206.8,195.1,206.4,195.1C206.4,195.2,206.3,195.2,206.4,195.1L206.4,195.1z"/>
		</g>
		<g id="XMLID_15339_">
			<path id="XMLID_15340_" class="st2" d="M197.4,201c-0.4,0.5-1,1.1-1.6,1.3c0,0-0.2,0-0.1-0.1c0.2-0.2,0.5-0.4,0.7-0.5
				c0.3-0.2,0.5-0.5,0.8-0.7C197.3,200.9,197.6,200.9,197.4,201L197.4,201z"/>
		</g>
		<g id="XMLID_15337_">
			<path id="XMLID_15338_" class="st2" d="M194,202.5c-0.2,0.6-0.6,1.1-1.1,1.6c0,0-0.3,0.1-0.3,0c0-0.3,0.1-0.5,0.3-0.7
				c0.2-0.3,0.5-0.5,0.7-0.8C193.7,202.4,194,202.3,194,202.5L194,202.5z"/>
		</g>
		<g id="XMLID_15335_">
			<path id="XMLID_15336_" class="st2" d="M194.9,204.8c-0.7,0.3-0.6,1-0.6,1.7c0,0.1-0.2,0.2-0.3,0.1c-0.3-0.4-0.4-0.9-0.1-1.3
				c0.2-0.3,0.6-0.5,1-0.6C194.9,204.7,195,204.7,194.9,204.8L194.9,204.8z"/>
		</g>
		<g id="XMLID_15333_">
			<path id="XMLID_15334_" class="st2" d="M191.4,207c-0.1,0.2-0.1,0.4-0.1,0.6c0,0.3,0,0.6-0.1,0.9c0,0.1-0.3,0.2-0.4,0.1
				c-0.1-0.2-0.1-0.6,0-0.9c0-0.3,0.1-0.5,0.3-0.7C191.2,206.9,191.5,206.9,191.4,207L191.4,207z"/>
		</g>
		<g id="XMLID_15331_">
			<path id="XMLID_15332_" class="st2" d="M193.3,208.5c-0.1,0.3-0.2,0.5-0.2,0.8c0,0.2,0.1,0.5,0.1,0.7c0,0.1-0.2,0.2-0.3,0.1
				c-0.5-0.3-0.3-1.1-0.1-1.6C192.9,208.4,193.4,208.3,193.3,208.5L193.3,208.5z"/>
		</g>
		<g id="XMLID_15329_">
			<path id="XMLID_15330_" class="st2" d="M190.7,211c0.2,0.4,0.4,0.8,0.6,1.1c0.1,0.2,0.3,0.5,0.4,0.7c0.1,0.1,0.2,0.3,0.2,0.4
				c0,0.1-0.2,0.1-0.3,0.1c-0.4-0.1-0.6-0.5-0.8-0.8c-0.3-0.5-0.4-0.9-0.6-1.4C190.3,211,190.7,210.9,190.7,211L190.7,211z"/>
		</g>
		<g id="XMLID_15327_">
			<path id="XMLID_15328_" class="st2" d="M193.2,212.3c0.4,0.6,0.9,1.1,1.2,1.8c0,0.1-0.2,0.1-0.2,0.1c-0.5-0.5-1-1.1-1.3-1.8
				C192.8,212.2,193.2,212.1,193.2,212.3L193.2,212.3z"/>
		</g>
		<g id="XMLID_15325_">
			<path id="XMLID_15326_" class="st2" d="M192.8,215.5c0.9-0.1,1.5,0.4,2.1,1c0.1,0.1-0.1,0.1-0.2,0.1c-0.4-0.2-0.7-0.4-1.1-0.6
				C193.4,215.9,193.1,215.7,192.8,215.5C192.7,215.6,192.8,215.5,192.8,215.5L192.8,215.5z"/>
		</g>
		<g id="XMLID_15323_">
			<path id="XMLID_15324_" class="st2" d="M203.6,195.4c-0.2,0.5-0.6,1-1.2,1.1c-0.1,0-0.2,0-0.3,0c-0.1-0.1,0.3-0.3,0.4-0.4
				c0.2-0.2,0.4-0.5,0.6-0.7C203.2,195.3,203.7,195.2,203.6,195.4L203.6,195.4z"/>
		</g>
		<g id="XMLID_15321_">
			<path id="XMLID_15322_" class="st2" d="M200.3,197.9c-0.5,0.6-1.1,1.3-2,1.4c-0.1,0-0.2-0.1-0.1-0.1c0.6-0.4,1.1-0.8,1.7-1.2
				C200,197.8,200.4,197.8,200.3,197.9L200.3,197.9z"/>
		</g>
		<g id="XMLID_15319_">
			<path id="XMLID_15320_" class="st2" d="M207.3,196c-0.3,0.2-0.5,0.3-0.8,0.4c-0.3,0.1-0.6,0.3-0.9,0.3c-0.1,0-0.2,0-0.1-0.1
				c0.1-0.2,0.4-0.3,0.6-0.4c0.3-0.2,0.6-0.3,1-0.4C207.2,195.8,207.6,195.8,207.3,196L207.3,196z"/>
		</g>
		<g id="XMLID_15317_">
			<path id="XMLID_15318_" class="st2" d="M211.2,192.9c-0.1,0.1-0.1,0.2-0.2,0.4c-0.1,0.2-0.4,0.3-0.6,0.4
				c-0.1,0.1-0.3,0.1-0.4,0.1c-0.1-0.1,0-0.2,0.1-0.2c0.3-0.2,0.8-0.4,1.1-0.6C211.2,192.9,211.3,192.9,211.2,192.9L211.2,192.9z"/>
		</g>
		<g id="XMLID_15315_">
			<path id="XMLID_15316_" class="st2" d="M217.4,229.7c-0.2-0.2-0.4-0.2-0.6-0.4c-0.2-0.2-0.4-0.4-0.5-0.6
				c-0.4-0.5-0.9-0.8-1.4-1.2c-0.1,0,0.1-0.1,0.1-0.1c0.6,0.1,1.1,0.5,1.5,0.9c0.2,0.2,0.4,0.4,0.6,0.6c0.1,0.1,0.2,0.2,0.2,0.3
				C217.3,229.3,217.3,229.5,217.4,229.7C217.4,229.7,217.4,229.7,217.4,229.7L217.4,229.7z"/>
		</g>
		<g id="XMLID_15313_">
			<path id="XMLID_15314_" class="st2" d="M265.8,250c-1.4,0.9-2.9,2.2-4.6,2.3c-0.1,0-0.3,0-0.3-0.1c0.2-0.7,1.3-1,1.9-1.3
				c0.9-0.4,1.9-0.7,2.8-1C265.8,249.8,266,249.9,265.8,250L265.8,250z"/>
		</g>
		<g id="XMLID_15311_">
			<path id="XMLID_15312_" class="st2" d="M255.5,252.6c-2.3,1.5-3.1,4.6-5.9,5.3c-0.1,0-0.4,0-0.2-0.2c2.1-1.6,3.3-4.5,6-5.3
				C255.5,252.5,255.7,252.5,255.5,252.6L255.5,252.6z"/>
		</g>
		<g id="XMLID_15309_">
			<path id="XMLID_15310_" class="st2" d="M245.4,261.7c-1.7,1.9-3.8,3.3-6.1,4.5c-0.1,0-0.5,0.1-0.3-0.1c1.8-1.8,4.2-2.8,6.1-4.4
				C245.2,261.6,245.5,261.6,245.4,261.7L245.4,261.7z"/>
		</g>
		<g id="XMLID_15307_">
			<path id="XMLID_15308_" class="st2" d="M231.3,268.2c-1.6,0.1-2.7,1.5-4.2,2c-0.1,0-0.4,0-0.2-0.2c1.4-1,2.7-2.1,4.5-2.1
				C231.9,267.8,231.5,268.1,231.3,268.2L231.3,268.2z"/>
		</g>
		<g id="XMLID_15305_">
			<path id="XMLID_15306_" class="st2" d="M337.5,205.6c0.5,3.1,0.6,6.4-2.2,8.6c-0.1,0.1-0.6,0.2-0.4,0c1.9-2.5,1.9-5.5,2.3-8.5
				C337.3,205.6,337.5,205.5,337.5,205.6L337.5,205.6z"/>
		</g>
		<g id="XMLID_15303_">
			<path id="XMLID_15304_" class="st2" d="M330.4,220.3c-2,1.4-4,2.6-6.4,3.1c-0.2,0-0.3-0.1,0-0.2c2.2-0.7,4.2-1.7,6.2-3
				C330.3,220,330.7,220.1,330.4,220.3L330.4,220.3z"/>
		</g>
		<g id="XMLID_15301_">
			<path id="XMLID_15302_" class="st2" d="M339.8,212.5c0.9,2.5,0,6.4-3,7c-0.2,0-0.4,0-0.2-0.2c2-1.4,3.1-4.4,2.8-6.8
				C339.4,212.4,339.7,212.4,339.8,212.5L339.8,212.5z"/>
		</g>
		<g id="XMLID_15299_">
			<path id="XMLID_15300_" class="st2" d="M346.9,206.4c0.3,1.9,0.7,3.9-0.2,5.7c0,0.1-0.4,0.2-0.4,0c0.2-1.9,0.3-3.7,0.2-5.6
				C346.5,206.4,346.8,206.3,346.9,206.4L346.9,206.4z"/>
		</g>
		<g id="XMLID_15297_">
			<path id="XMLID_15298_" class="st2" d="M339.5,199.1c1.6,2.1,2.1,4.9,2.3,7.5c0,0.1-0.2,0.2-0.3,0.1c-0.7-2.5-0.9-5.2-2.2-7.5
				C339.3,199.1,339.5,199,339.5,199.1L339.5,199.1z"/>
		</g>
		<g id="XMLID_15295_">
			<path id="XMLID_15296_" class="st2" d="M332.8,191c1.1,0.3,1.9,1.5,2.3,2.4c0,0.1-0.2,0.2-0.3,0.1c-0.4-0.4-0.7-0.9-1-1.3
				c-0.3-0.5-0.7-0.8-1.2-1.2C332.6,191,332.8,191,332.8,191L332.8,191z"/>
		</g>
		<g id="XMLID_15293_">
			<path id="XMLID_15294_" class="st2" d="M335.9,197.3c0.5,1.2,0.8,2.5,1,3.8c0,0.1-0.2,0.2-0.3,0.1c-0.5-1.2-0.7-2.6-1-3.8
				C335.6,197.3,335.9,197.2,335.9,197.3L335.9,197.3z"/>
		</g>
		<g id="XMLID_15291_">
			<path id="XMLID_15292_" class="st2" d="M263.3,241.9c-2.8,3.2-5.5,7-9.8,8.3c-0.1,0-0.3-0.1-0.1-0.1c4-1.6,6.7-5.1,9.6-8.2
				C263,241.8,263.4,241.7,263.3,241.9L263.3,241.9z"/>
		</g>
		<g id="XMLID_15289_">
			<path id="XMLID_15290_" class="st2" d="M249.8,255.3c-1.2,1.5-2.9,2.8-4.5,3.8c-0.1,0-0.3,0-0.2-0.1c1.5-1.2,2.7-2.9,4.5-3.8
				C249.6,255.2,249.9,255.2,249.8,255.3L249.8,255.3z"/>
		</g>
		<g id="XMLID_15287_">
			<path id="XMLID_15288_" class="st2" d="M221.3,269.7c-2,0.1-3.7,1.8-5.8,1.3c-0.3-0.1,0.1-0.3,0.2-0.3c1.9-0.1,3.8-1.6,5.7-1.2
				C221.5,269.5,221.3,269.7,221.3,269.7L221.3,269.7z"/>
		</g>
		<g id="XMLID_15285_">
			<path id="XMLID_15286_" class="st2" d="M243.2,267.9c-2.7,1.8-5.6,3.4-8.9,4.1c-0.2,0-0.3-0.1,0-0.2c3.1-1,5.9-2.5,8.8-3.9
				C243.1,267.8,243.3,267.9,243.2,267.9L243.2,267.9z"/>
		</g>
		<g id="XMLID_15283_">
			<path id="XMLID_15284_" class="st2" d="M294.1,239.4c-0.8-0.1-2,1.6-2.5,2c-0.7,0.7-1.8,1.5-2.8,1.4c-0.2,0-0.2-0.2-0.1-0.3
				c1.2-0.8,2.2-1.7,3.3-2.6c0.7-0.5,1.4-1,2.3-0.7C294.4,239.3,294.2,239.4,294.1,239.4L294.1,239.4z"/>
		</g>
		<g id="XMLID_15281_">
			<path id="XMLID_15282_" class="st2" d="M322.1,221.9c-3.5,1.7-7,2.4-10.9,1.8c-0.3,0,0.1-0.3,0.2-0.3
				C314.9,223,318.6,223.2,322.1,221.9C322.1,221.8,322.2,221.8,322.1,221.9L322.1,221.9z"/>
		</g>
		<g id="XMLID_15279_">
			<path id="XMLID_15280_" class="st2" d="M304.8,226.5c-1.8-0.4-3.6,0.2-5.2,0.8c-0.1,0-0.4,0-0.2-0.1
				C300.6,226.3,303.6,225.1,304.8,226.5C304.9,226.5,304.8,226.5,304.8,226.5L304.8,226.5z"/>
		</g>
		<g id="XMLID_15277_">
			<path id="XMLID_15278_" class="st2" d="M67.7,259.6c-3.6-3.5-7.5-6.9-8.8-11.9c0-0.1,0.2-0.2,0.3-0.1c1.8,4.8,5.2,8.3,8.7,11.9
				C68,259.5,67.8,259.6,67.7,259.6L67.7,259.6z"/>
		</g>
		<g id="XMLID_15275_">
			<path id="XMLID_15276_" class="st2" d="M53.9,249.6c-1.9-1.9-4-4.5-3.9-7.3c0-0.1,0.3-0.2,0.4-0.1c0.8,2.6,2,5.3,3.8,7.3
				C54.2,249.6,53.9,249.7,53.9,249.6L53.9,249.6z"/>
		</g>
		<g id="XMLID_15273_">
			<path id="XMLID_15274_" class="st2" d="M57.2,241.3c-0.2-2-0.7-4-0.5-6.1c0-0.1,0.3-0.2,0.3-0.1c0.3,2,0.6,4.1,0.5,6.1
				C57.5,241.4,57.3,241.4,57.2,241.3L57.2,241.3z"/>
		</g>
		<g id="XMLID_15271_">
			<path id="XMLID_15272_" class="st2" d="M59,232.8c0.2-1.5-0.4-2.8-1.2-4.1c-0.1-0.1,0.2-0.2,0.2-0.1c1.1,1.2,1.5,2.6,1.2,4.2
				C59.2,232.8,59,232.9,59,232.8L59,232.8z"/>
		</g>
		<g id="XMLID_15269_">
			<path id="XMLID_15270_" class="st2" d="M53.4,224.3c-2.3-2-4.9-3.6-7.5-5.1c-0.1-0.1,0.1-0.2,0.2-0.2c3,1,5.5,2.8,7.6,5.1
				C53.7,224.3,53.4,224.4,53.4,224.3L53.4,224.3z"/>
		</g>
		<g id="XMLID_14856_">
			<path id="XMLID_15268_" class="st2" d="M53.1,231.1c-0.1-0.7-0.7-1.2-1.1-1.8c-0.4-0.7-1-1.3-1.6-1.8c-1-1-2.2-1.8-3.2-2.7
				c-0.2-0.1,0.3-0.3,0.4-0.2c1.6,0.6,3.1,1.5,4.3,2.6c0.5,0.5,1,1,1.3,1.7c0.4,0.7,0.2,1.4,0.1,2.2
				C53.4,231.1,53.1,231.2,53.1,231.1L53.1,231.1z"/>
		</g>
		<g id="XMLID_12798_">
			<path id="XMLID_14854_" class="st2" d="M79,266.4c-2.6-0.3-5.3-1.9-6.7-4.1c-0.1-0.2,0.3-0.3,0.4-0.2c1.2,0.8,2.3,1.6,3.5,2.4
				c1,0.6,2.1,1.1,3,1.8C79.2,266.3,79,266.4,79,266.4L79,266.4z"/>
		</g>
		<g id="XMLID_12796_">
			<path id="XMLID_12797_" class="st2" d="M71.9,270.3c-2.7,0-4.8-2.4-6.4-4.4c-0.1-0.1,0.2-0.2,0.3-0.1c1.8,1.5,3.8,4.1,6.3,4.4
				C72.1,270.2,72,270.3,71.9,270.3L71.9,270.3z"/>
		</g>
		<g id="XMLID_12794_">
			<path id="XMLID_12795_" class="st2" d="M59.9,261.8c-1.4-1-2.3-2.9-2.4-4.6c0-0.1,0.2-0.2,0.3-0.1c0.8,1.5,1.1,3.3,2.4,4.6
				C60.2,261.7,60,261.8,59.9,261.8L59.9,261.8z"/>
		</g>
		<g id="XMLID_12792_">
			<path id="XMLID_12793_" class="st2" d="M66.8,263.4c-1.6-1.7-3.6-3.2-4.9-5.1c-0.1-0.1,0.2-0.1,0.2-0.1c1.7,1.5,3.4,3.3,4.8,5.1
				C67,263.4,66.8,263.5,66.8,263.4L66.8,263.4z"/>
		</g>
		<g id="XMLID_12790_">
			<path id="XMLID_12791_" class="st2" d="M89.1,269.1c-1.5-0.3-3-1-4.2-2c-0.1-0.1,0.2-0.2,0.3-0.1c1.4,0.6,2.8,1.3,4.1,1.9
				C89.5,269,89.2,269.1,89.1,269.1L89.1,269.1z"/>
		</g>
		<g id="XMLID_12788_">
			<path id="XMLID_12789_" class="st2" d="M81.4,271.5c-2.7-0.6-5.3-1.5-7.6-3.1c-0.1-0.1,0.1-0.2,0.2-0.1c2.4,1.2,5,2.2,7.5,3.2
				C81.6,271.4,81.4,271.5,81.4,271.5L81.4,271.5z"/>
		</g>
		<g id="XMLID_12786_">
			<path id="XMLID_12787_" class="st2" d="M94,274.2c-1.3-0.2-2.8-0.2-3.9-1c-0.1-0.1,0.1-0.2,0.2-0.1c1.2,0.6,2.5,0.6,3.8,1
				C94.3,274.1,94.1,274.2,94,274.2L94,274.2z"/>
		</g>
		<g id="XMLID_12784_">
			<path id="XMLID_12785_" class="st2" d="M99.6,270c-0.8,0-1.7-0.1-2.2-0.7c0-0.1,0.1-0.1,0.2-0.1C98.2,269.7,99,269.9,99.6,270
				C99.8,269.9,99.7,270,99.6,270L99.6,270z"/>
		</g>
		<g id="XMLID_12782_">
			<path id="XMLID_12783_" class="st2" d="M61.2,239.9c-0.3-1.2-1-2.6-1-3.9c0-0.1,0.2-0.2,0.3-0.1c0.6,1.2,1.1,2.6,0.9,3.9
				C61.3,239.9,61.2,239.9,61.2,239.9L61.2,239.9z"/>
		</g>
		<g id="XMLID_12780_">
			<path id="XMLID_12781_" class="st2" d="M50.7,237.9c0.4-2.2-1-3.6-2-5.3c0-0.1,0.2-0.1,0.2-0.1c1.3,1.4,2.8,3.4,1.9,5.4
				C50.9,237.9,50.7,238,50.7,237.9L50.7,237.9z"/>
		</g>
		<g id="XMLID_12778_">
			<path id="XMLID_12779_" class="st2" d="M44.7,220.7c-0.7-0.3-1.1-0.9-1.5-1.5c-0.1-0.1,0.1-0.1,0.2-0.1c0.3,0.2,0.5,0.5,0.8,0.8
				c0.2,0.2,0.4,0.5,0.7,0.7C44.9,220.6,44.7,220.7,44.7,220.7L44.7,220.7z"/>
		</g>
		<g id="XMLID_12776_">
			<path id="XMLID_12777_" class="st2" d="M41.7,215.1c-0.9-0.9-1.8-1.8-2.7-2.7c-0.1-0.1,0.2-0.1,0.2-0.1c1.1,0.7,1.8,1.7,2.7,2.7
				C42,215.1,41.8,215.1,41.7,215.1L41.7,215.1z"/>
		</g>
		<g id="XMLID_12774_">
			<path id="XMLID_12775_" class="st2" d="M76.7,260.2c-3.8-1.7-6.8-5.5-8.7-9.1c0-0.1,0.2-0.2,0.3-0.1c1.3,1.5,2.6,3.2,3.9,4.7
				c1.4,1.6,3.1,2.9,4.6,4.4C76.9,260.1,76.8,260.2,76.7,260.2L76.7,260.2z"/>
		</g>
		<g id="XMLID_12772_">
			<path id="XMLID_12773_" class="st2" d="M61.1,271.6c-2.6-1.6-5.1-5-6.1-7.9c0-0.1,0.3-0.2,0.3-0.1c1,1.4,1.9,2.8,3,4.2
				c1,1.3,2.3,2.4,3.2,3.7C61.5,271.6,61.1,271.6,61.1,271.6L61.1,271.6z"/>
		</g>
		<g id="XMLID_12770_">
			<path id="XMLID_12771_" class="st2" d="M187.5,274c-1.6-0.1-3.4-0.1-4.9-0.4c-0.1,0,0-0.1,0.1-0.2c1.6-0.3,3.4,0.1,5,0.4
				C187.9,273.8,187.6,274,187.5,274L187.5,274z"/>
		</g>
		<g id="XMLID_12768_">
			<path id="XMLID_12769_" class="st2" d="M184.9,278.1c-3,0.1-6,0.5-8.9-0.4c-0.2-0.1,0.1-0.2,0.2-0.2c3,0.5,5.9,0.3,8.8,0.4
				C185.3,277.9,185,278.1,184.9,278.1L184.9,278.1z"/>
		</g>
		<g id="XMLID_12766_">
			<path id="XMLID_12767_" class="st2" d="M179.2,275.1c-3,0.1-6.1,0.2-9.1,0c-0.2,0,0-0.2,0.1-0.2c3-0.2,6.1-0.1,9.1,0
				C179.5,275,179.3,275.1,179.2,275.1L179.2,275.1z"/>
		</g>
		<g id="XMLID_12764_">
			<path id="XMLID_12765_" class="st2" d="M171.1,273.2c-2.2,0.1-4.4,0.1-6.5-0.2c-0.2,0,0.1-0.2,0.1-0.2c2.2-0.2,4.4,0.1,6.6,0.2
				C171.6,273,171.3,273.2,171.1,273.2L171.1,273.2z"/>
		</g>
		<g id="XMLID_12762_">
			<path id="XMLID_12763_" class="st2" d="M166.3,275.5c-1.9,0.5-3.8,0.5-5.7-0.2c-0.2-0.1,0.2-0.2,0.2-0.2c1.9,0.4,3.6,0.5,5.4,0.2
				C166.5,275.3,166.4,275.5,166.3,275.5L166.3,275.5z"/>
		</g>
		<g id="XMLID_12760_">
			<path id="XMLID_12761_" class="st2" d="M155,275.7c-1.2,0-2.5,0.1-3.7,0.1c-0.1,0-0.1-0.1,0-0.1c1.3-0.3,2.5-0.3,3.8-0.3
				C155.4,275.5,155.1,275.7,155,275.7L155,275.7z"/>
		</g>
		<g id="XMLID_12758_">
			<path id="XMLID_12759_" class="st2" d="M158.1,273.3c-0.9-0.3-1.9-0.4-2.9-0.6c-0.1,0,0.1-0.1,0.1-0.1c1,0.1,2,0.2,3,0.6
				C158.4,273.2,158.2,273.4,158.1,273.3L158.1,273.3z"/>
		</g>
		<g id="XMLID_12756_">
			<path id="XMLID_12757_" class="st2" d="M159.3,278.3c-1.1,0-2.6,0.1-3.6-0.4c-0.1-0.1,0.1-0.2,0.2-0.2c1.2,0,2.4,0.3,3.5,0.4
				C159.7,278.1,159.4,278.3,159.3,278.3L159.3,278.3z"/>
		</g>
		<g id="XMLID_12754_">
			<path id="XMLID_12755_" class="st2" d="M169.1,280.5c-0.7-0.2-1.4-0.2-2.1-0.2c-0.1,0,0-0.1,0.1-0.1c0.8-0.1,1.5,0,2.3,0.2
				C169.6,280.3,169.2,280.5,169.1,280.5L169.1,280.5z"/>
		</g>
		<g id="XMLID_12752_">
			<path id="XMLID_12753_" class="st2" d="M171.4,277.8c-0.5,0-1.2,0.2-1.7,0.2c-0.8,0-1.6-0.1-2.4-0.1c-0.2,0,0-0.2,0.1-0.2
				c0.7-0.1,1.4-0.1,2-0.1C170,277.6,170.7,277.7,171.4,277.8C171.5,277.8,171.4,277.8,171.4,277.8L171.4,277.8z"/>
		</g>
		<g id="XMLID_12750_">
			<path id="XMLID_12751_" class="st2" d="M182.5,282.2c-1.3-0.3-2.5,0.1-3.7,0c-0.2,0,0-0.2,0.1-0.2c1.3-0.2,2.6-0.3,3.8,0
				C182.9,282.1,182.6,282.2,182.5,282.2L182.5,282.2z"/>
		</g>
		<g id="XMLID_12748_">
			<path id="XMLID_12749_" class="st2" d="M191.3,281c-0.6,0-1.2,0-1.8,0c-0.1,0,0-0.1,0.1-0.1c0.6,0,1.2,0,1.8,0
				C191.5,280.9,191.3,281,191.3,281L191.3,281z"/>
		</g>
		<g id="XMLID_12746_">
			<path id="XMLID_12747_" class="st2" d="M192.4,285c-0.3,0-0.5,0.1-0.7,0.2c0,0-0.1,0-0.1-0.1c0.3-0.2,0.6-0.3,0.9-0.3
				C192.7,284.8,192.5,285,192.4,285L192.4,285z"/>
		</g>
		<g id="XMLID_12744_">
			<path id="XMLID_12745_" class="st2" d="M203.4,289.1c-0.2-0.3-0.3-0.6-0.4-0.9c-0.1-0.3-0.3-0.6-0.4-0.9c0-0.1,0.2-0.1,0.2-0.1
				c0.4,0.5,0.7,1.2,0.8,1.8C203.6,289.1,203.4,289.1,203.4,289.1L203.4,289.1z"/>
		</g>
		<g id="XMLID_12740_">
			<path id="XMLID_12743_" class="st2" d="M202.6,283.8c-0.7-0.8-1.8-2.2-1.6-3.4c0-0.1,0.2-0.1,0.2-0.1c0.3,0.5,0.3,1,0.5,1.5
				c0.3,0.6,0.6,1.3,1,1.8C202.9,283.8,202.7,283.8,202.6,283.8L202.6,283.8z"/>
		</g>
		<g id="XMLID_12738_">
			<path id="XMLID_12739_" class="st2" d="M210.5,286.5c-0.3-1.2-0.9-2.2-1.1-3.4c0-0.1,0.2-0.1,0.2-0.1c0.6,1,1.1,2.2,1.2,3.3
				C210.8,286.6,210.5,286.6,210.5,286.5L210.5,286.5z"/>
		</g>
		<g id="XMLID_12736_">
			<path id="XMLID_12737_" class="st2" d="M196.2,286.7c0-0.2,0.3-0.5-0.1-0.6c0.1,0,0.3-0.1,0.4-0.1c-0.5,0.6-0.9,1.3-1.4,1.9
				c0,0.1-0.3,0.2-0.3,0c0.1-0.8,0.6-1.6,1.3-2c0.1,0,0.5-0.1,0.4,0.1C196.4,286.1,196.3,286.4,196.2,286.7
				C196.3,286.7,196.2,286.7,196.2,286.7L196.2,286.7z"/>
		</g>
		<g id="XMLID_12734_">
			<path id="XMLID_12735_" class="st2" d="M217,283.6c-0.6-0.1-1.3-0.2-1.9-0.4c-0.2,0,0-0.1,0.1-0.2c0.7-0.1,1.4,0.1,2.1,0.4
				C217.4,283.5,217.1,283.6,217,283.6L217,283.6z"/>
		</g>
		<g id="XMLID_12732_">
			<path id="XMLID_12733_" class="st2" d="M218,278.2c-0.8-0.6-1.7-1.1-2.5-1.8c0,0,0.1-0.1,0.1-0.1c1,0.4,1.8,1.1,2.6,1.8
				C218.3,278.2,218.1,278.3,218,278.2L218,278.2z"/>
		</g>
		<g id="XMLID_12730_">
			<path id="XMLID_12731_" class="st2" d="M83.7,274c-1.9-0.5-4-0.6-5.8-1.4c-0.2-0.1,0.2-0.2,0.3-0.2c2,0.3,4,0.7,5.8,1.4
				C84.2,273.8,83.8,274,83.7,274L83.7,274z"/>
		</g>
		<g id="XMLID_12727_">
			<path id="XMLID_12728_" class="st2" d="M110.7,272.8c-0.7,0-1.4-0.2-2-0.4c-0.5-0.1-1.1-0.3-1.5-0.7c-0.2-0.1,0.3-0.2,0.4-0.2
				c0.7,0.1,1.3,0.3,2,0.4c0.5,0.1,1.2,0.2,1.6,0.5C111.3,272.6,110.7,272.8,110.7,272.8L110.7,272.8z"/>
		</g>
		<g id="XMLID_12654_">
			<path id="XMLID_12655_" class="st2" d="M148.5,274.6c-0.6,0.3-1.3,0.2-1.9,0.3c-0.6,0-1.2,0-1.8-0.1c-0.2-0.1,0-0.3,0.1-0.3
				c0.7-0.1,1.3-0.2,2-0.3c0.5,0,1.3-0.2,1.7,0.2C148.7,274.5,148.6,274.6,148.5,274.6L148.5,274.6z"/>
		</g>
		<g id="XMLID_12652_">
			<path id="XMLID_12653_" class="st2" d="M136.2,275.4c-0.9-0.1-1.8-0.3-2.7-0.1c-0.1,0-0.1-0.1,0-0.1c0.9-0.4,1.9-0.1,2.9,0.1
				C136.4,275.3,136.2,275.4,136.2,275.4L136.2,275.4z"/>
		</g>
		<g id="XMLID_12650_">
			<path id="XMLID_12651_" class="st2" d="M137.6,274.2c-0.6,0-1.3-0.1-1.7-0.6c-0.1-0.1,0.2-0.1,0.2-0.1c0.5,0.2,1.2,0.2,1.6,0.6
				C137.8,274.1,137.6,274.2,137.6,274.2L137.6,274.2z"/>
		</g>
		<g id="XMLID_12648_">
			<path id="XMLID_12649_" class="st2" d="M7.9,191.6c-2-4.4-3.7-9.7-3.1-14.5c0-0.1,0.3-0.2,0.3-0.1c0.8,5,1.2,9.7,2.9,14.6
				C8.1,191.7,7.9,191.7,7.9,191.6L7.9,191.6z"/>
		</g>
		<g id="XMLID_12629_">
			<path id="XMLID_12630_" class="st2" d="M4.3,171.1c0.6-2.8,0.2-7.2,2.6-9.3c0,0,0.2,0,0.1,0c-2,2.4-1.5,6.3-2.4,9.2
				C4.6,171.1,4.3,171.2,4.3,171.1L4.3,171.1z"/>
		</g>
		<g id="XMLID_12626_">
			<path id="XMLID_12627_" class="st2" d="M2.7,162c1-1.2,1.2-3,2.6-3.9c0,0,0.2,0,0.2,0c-1,1.2-1.4,2.7-2.4,3.9
				C3,162.1,2.6,162.1,2.7,162L2.7,162z"/>
		</g>
		<g id="XMLID_12624_">
			<path id="XMLID_12625_" class="st2" d="M0,166.4c-0.3,2.5-0.4,5.1-1,7.6c0,0.1-0.3,0.1-0.3,0c0.1-2.6,0.6-5.1,1.1-7.6
				C-0.2,166.4,0,166.3,0,166.4L0,166.4z"/>
		</g>
		<g id="XMLID_12622_">
			<path id="XMLID_12623_" class="st2" d="M0.3,178.8c0.2,2,0.7,4.2,0.5,6.2c0,0.1-0.2,0.1-0.3,0.1c-0.6-2-0.6-4.2-0.5-6.2
				C0.1,178.8,0.3,178.7,0.3,178.8L0.3,178.8z"/>
		</g>
		<g id="XMLID_12620_">
			<path id="XMLID_12621_" class="st2" d="M-2.6,193.3c0.4,2,1.4,3.8,2.1,5.7c0,0.1-0.2,0.1-0.2,0.1c-1.1-1.7-1.8-3.7-2.2-5.7
				C-3,193.3-2.7,193.2-2.6,193.3L-2.6,193.3z"/>
		</g>
		<g id="XMLID_12618_">
			<path id="XMLID_12619_" class="st2" d="M0.7,190.9c1.4,5,3.8,9.8,7.7,13.3c0.1,0.1-0.1,0.1-0.2,0.1c-4.1-3.3-6.5-8.3-7.8-13.3
				C0.4,190.9,0.7,190.8,0.7,190.9L0.7,190.9z"/>
		</g>
		<g id="XMLID_12595_">
			<path id="XMLID_12597_" class="st2" d="M12.1,197.8c0.9,1.8,2,3.4,3.3,5c0.1,0.1-0.1,0.1-0.2,0.1c-1.5-1.4-2.5-3.2-3.4-5
				C11.7,197.8,12,197.7,12.1,197.8L12.1,197.8z"/>
		</g>
		<g id="XMLID_12579_">
			<path id="XMLID_12580_" class="st2" d="M24.7,219c-3.5-2.1-6.8-4.5-9.1-8c-0.1-0.1,0.3-0.2,0.3-0.1c2.8,3,5.6,5.7,9,8
				C25.1,218.9,24.8,219,24.7,219L24.7,219z"/>
		</g>
		<g id="XMLID_12577_">
			<path id="XMLID_12578_" class="st2" d="M329.1,224c-1.9,1.1-3.4,2.2-5.5,2.8c-1.8,0.5-3.7,0.6-5.6,0.1c-0.2-0.1,0.1-0.2,0.2-0.2
				c2,0.1,3.9,0.1,5.9-0.5C325.9,225.7,327.3,224.5,329.1,224C329,223.9,329.1,224,329.1,224L329.1,224z"/>
		</g>
		<g id="XMLID_12574_">
			<path id="XMLID_12575_" class="st2" d="M335.2,224.2c-2.4,2.1-4.5,4.3-7.8,4.8c-0.2,0-0.3-0.2-0.1-0.2c2.9-1,5-3.2,7.7-4.6
				C335,224.1,335.3,224.1,335.2,224.2L335.2,224.2z"/>
		</g>
		<g id="XMLID_12572_">
			<path id="XMLID_12573_" class="st2" d="M343.3,216.9c0.2,2.4-0.6,4.1-2.3,5.8c-0.1,0.1-0.4,0.1-0.3,0
				C342,220.9,342.9,219,343.3,216.9C343.2,216.9,343.3,216.8,343.3,216.9L343.3,216.9z"/>
		</g>
		<g id="XMLID_12552_">
			<path id="XMLID_12571_" class="st2" d="M342.2,208.5c1.2,1.7,0.7,4.2-0.2,6c0,0.1-0.2,0.1-0.2,0c0.4-1.9,0.8-4,0.1-5.9
				C341.9,208.5,342.1,208.4,342.2,208.5L342.2,208.5z"/>
		</g>
		<g id="XMLID_12548_">
			<path id="XMLID_12551_" class="st2" d="M313.4,226.8c-1.7-0.4-3.4,0.1-5.2-0.1c-0.1,0,0-0.1,0.1-0.1c1.7-0.2,3.6-0.3,5.2,0.2
				C313.6,226.7,313.4,226.8,313.4,226.8L313.4,226.8z"/>
		</g>
		<g id="XMLID_12545_">
			<path id="XMLID_12546_" class="st2" d="M310.7,230.4c-2,0.1-3.9,0-5.6,1.1c-0.1,0-0.4,0.1-0.3-0.1
				C306.1,229.7,308.9,230.2,310.7,230.4C310.8,230.3,310.7,230.4,310.7,230.4L310.7,230.4z"/>
		</g>
		<g id="XMLID_12542_">
			<path id="XMLID_12543_" class="st2" d="M300.2,231.6c-1.2,0.2-2,0.9-2.9,1.6c0,0-0.3,0.1-0.3,0c0.7-1,2-1.8,3.2-1.7
				C300.5,231.5,300.3,231.6,300.2,231.6L300.2,231.6z"/>
		</g>
		<g id="XMLID_12540_">
			<path id="XMLID_12541_" class="st2" d="M352.4,215.5c0.2,3.7-2.5,7.7-5.9,9c-0.1,0-0.2,0-0.1-0.1c3.2-1.6,5.9-5.2,5.8-8.9
				C352.2,215.5,352.4,215.5,352.4,215.5L352.4,215.5z"/>
		</g>
		<g id="XMLID_12538_">
			<path id="XMLID_12539_" class="st2" d="M332.4,231.2c-3,3.7-9.1,3.3-13.3,3.7c-0.1,0-0.1-0.1,0-0.1c4.5-0.8,9.7-0.2,13.2-3.7
				C332.3,231.2,332.4,231.2,332.4,231.2L332.4,231.2z"/>
		</g>
		<g id="XMLID_12536_">
			<path id="XMLID_12537_" class="st2" d="M251.4,263.5c-0.8,3.8-3.7,7.2-7.5,8.4c-0.1,0-0.2-0.1-0.1-0.1c3.6-1.5,6-4.7,7.4-8.3
				C251.3,263.5,251.4,263.5,251.4,263.5L251.4,263.5z"/>
		</g>
		<g id="XMLID_12508_">
			<path id="XMLID_12511_" class="st2" d="M52.7,269.7c-3.9-6.7-8.5-12.8-7.7-20.9c0-0.1,0.3-0.2,0.3-0.1c0.2,3.8,1,7.3,2.5,10.8
				c1.5,3.5,3.6,6.8,5.2,10.2C53,269.8,52.7,269.8,52.7,269.7L52.7,269.7z"/>
		</g>
		<g id="XMLID_12506_">
			<path id="XMLID_12507_" class="st2" d="M44.7,239c-0.1-3.8-2.9-6.9-5.8-8.9c-0.1-0.1,0.1-0.1,0.2-0.1c3.3,1.6,6.3,5.1,5.9,9
				C44.9,239,44.7,239,44.7,239L44.7,239z"/>
		</g>
		<g id="XMLID_12504_">
			<path id="XMLID_12505_" class="st2" d="M27.2,226.3c-2-0.3-3.5-1.5-4.6-3.1c0,0,0.1-0.1,0.1,0C24,224.6,25.4,225.8,27.2,226.3
				C27.4,226.3,27.3,226.3,27.2,226.3L27.2,226.3z"/>
		</g>
		<g id="XMLID_12502_">
			<path id="XMLID_12503_" class="st2" d="M20.7,221.5c-4.3-1.6-8.5-5.6-11.1-9.3c-0.1-0.1,0.2-0.2,0.2-0.1c1.6,1.7,3.3,3.3,5.1,4.9
				c1.9,1.6,4,2.9,6,4.3C21,221.4,20.7,221.5,20.7,221.5L20.7,221.5z"/>
		</g>
		<g id="XMLID_12500_">
			<path id="XMLID_12501_" class="st2" d="M-6.5,170.5c0,4.6,0.1,9.1,1.5,13.5c0,0.1-0.2,0.1-0.2,0c-1.7-4.3-1.6-8.9-1.6-13.5
				C-6.8,170.5-6.5,170.4-6.5,170.5L-6.5,170.5z"/>
		</g>
		<g id="XMLID_12481_">
			<path id="XMLID_12482_" class="st2" d="M-10.2,178.3c0.2,7.1,1.7,13.6,4.2,20.2c0,0.1-0.3,0.2-0.3,0.1
				c-3.3-6.3-4.2-13.2-4.1-20.2C-10.4,178.3-10.2,178.3-10.2,178.3L-10.2,178.3z"/>
		</g>
		<g id="XMLID_12478_">
			<path id="XMLID_12479_" class="st2" d="M44.7,228.4c-1.1-0.9-2.1-1.9-3.1-2.7c-1.1-0.8-2.2-1.5-3.2-2.4c-0.1-0.1,0.2-0.2,0.3-0.2
				c1.3,0.4,2.4,1.2,3.5,2c1.1,0.9,2.5,1.9,3.1,3.2C45.3,228.4,44.8,228.5,44.7,228.4L44.7,228.4z"/>
		</g>
		<g id="XMLID_12476_">
			<path id="XMLID_12477_" class="st2" d="M55.9,247.4c-2.1-3.1-2.4-7-2.1-10.6c0-0.1,0.2-0.1,0.2,0c0.2,1.7,0.3,3.3,0.6,5
				c0.3,1.9,1,3.7,1.6,5.6C56.2,247.4,55.9,247.5,55.9,247.4L55.9,247.4z"/>
		</g>
		<g id="XMLID_12474_">
			<path id="XMLID_12475_" class="st2" d="M63.1,248.2c-1.3-2.3-2.8-4.9-3.5-7.5c0-0.1,0.1-0.1,0.2,0c1.2,2.4,3,4.8,3.8,7.4
				C63.6,248.3,63.2,248.3,63.1,248.2L63.1,248.2z"/>
		</g>
		<g id="XMLID_12471_">
			<path id="XMLID_12473_" class="st2" d="M66,243.1c-1.9-3.6-1.9-7.9-4.2-11.3c-0.1-0.1,0.2-0.1,0.2-0.1c3.1,3.1,2.9,7.4,4.7,11.3
				C66.8,243.1,66.1,243.3,66,243.1L66,243.1z"/>
		</g>
		<g id="XMLID_12469_">
			<path id="XMLID_12470_" class="st2" d="M66.6,233.4c-0.9-1.4-1.9-2.8-3-4c-1.1-1.2-2.4-2.1-3.6-3.2c-0.1-0.1,0.2-0.2,0.3-0.2
				c2.8,1,5.6,4.4,6.4,7.3C66.8,233.4,66.7,233.5,66.6,233.4L66.6,233.4z"/>
		</g>
		<g id="XMLID_12467_">
			<path id="XMLID_12468_" class="st2" d="M69.5,247.7c-0.3-1.6-0.1-3.4-0.1-5c0-2-0.4-3.8-0.7-5.7c0-0.1,0.3-0.2,0.4-0.1
				c1.4,2.9,1.3,7.6,0.7,10.8C69.8,247.7,69.6,247.8,69.5,247.7L69.5,247.7z"/>
		</g>
	</g>
	<g id="XMLID_5540_" class="st1">
		<g id="XMLID_7819_">
			<path id="XMLID_8010_" class="st3" d="M-10.9,109.5c5.4-4.1,11.7-9.1,18.3-11c4.1-1.2,8.5-2.4,12.7-3.4
				c-5.9,3.4-13.1,5.5-18.4,9.2c-7,4.9-16.2,9.9-16.9,19.1c-0.8,10.2,4.8,21.1,12.2,27.8c8.7,7.8,16.2,11.8,27.1,15.5
				c6.9,2.3,13.7,4.1,20.7,5.6c5.8,1.3,11.6,2.6,17.4,4c6.9,1.6,14.2,4,21,6.3c8.8,3,20,6.5,26.5,13.5c5.8,6.3-4.2,11.1,1,17.9
				c5.9,7.6,18.9,6.7,27.4,7.9c12.4,1.8,23.5,3.4,35.6,7.4c12,4,22.5,10.6,34.6,14.5c8.9,2.9,19.7,4.8,28.9,5.6
				c20.5,1.9,44.8,6.1,62.7-7.2c9.8-7.2,0.2-16.6-6.4-22.8c-3.9-3.7-7.8-7.7-10.9-12.3c-3.2-4.7-5-7.1-0.6-11.1
				c5.8-5.4,15.4-6.8,23.1-7.5c14.3-1.3,31.3-3.4,45.5-1c15.7,2.7,31.4,4.8,47.2,1c8.4-1.9,18.7-6.1,20.1-15
				c1.5-7.8-2.8-14-6.4-20.3c1.4,0.8,2.7,1.7,4.1,2.6c12.1,8.3,22.8,26.3,4.7,34.3c-11.8,5.2-26.2,5.3-38.9,5.3
				c-22.9,0-53.8-5.1-67.9,16.6c-7,11.5-2.8,28.5-14.5,36.8c-8.6,6.1-21.2,8.6-31.3,11.5c-13,3.7-26.5,5.1-39.9,6.4
				c-35.3,3.4-71.8,4.7-107.1,1.3c-18.7-1.8-56.8-9.8-52.9-35.9c1.1-7.2,8.1-8.5,10.5-14.4c2.3-5.8-6.1-10.6-10.5-13.1
				c-9.8-5.7-22.1-8.1-31.3-14.5c-7.1-4.9-13.8-9.3-21.3-13.6c-15.1-8.6-33-20.8-35.8-39.4C-22.3,127-19.3,115.9-10.9,109.5z"/>
			<g id="XMLID_7830_">
				<g id="XMLID_8008_">
					<path id="XMLID_8009_" class="st4" d="M94.8,227.5c0.1,0,0.2,0,0.3,0c0.2,0,0.4,0,0.6,0.1c0.2,0.1,0.4,0.3,0.5,0.5
						c0.3,0.5,0.1,1.1-0.4,1.4c-0.6,0.4-1.6,0.8-2.2,0.3c-0.3-0.3-0.2-0.7-0.2-1.1c0-0.1,0.1-0.3,0.1-0.4c0.1-0.4,0.5-0.5,0.7-0.7
						c0,0,0,0.1-0.1,0.1c0,0,0,0,0,0C94.2,227.5,94.7,227.4,94.8,227.5L94.8,227.5z"/>
				</g>
				<g id="XMLID_8006_">
					<path id="XMLID_8007_" class="st4" d="M89.3,232.4c0.1,0.4,0.1,0.8,0.1,1.1c0,0.3-0.6,0.8-0.8,0.9c0.1-0.1,0.1-0.1-0.2,0.1
						c-0.2,0.1-0.4,0.2-0.7,0.3c-0.8,0.2-1.3,0-1.8-0.4c-0.2-0.2-0.2-0.6-0.1-0.8c0-0.2,0-0.4,0.1-0.5c0.2-0.6,0.9-0.9,1.5-1.1
						C87.8,231.9,89,231.7,89.3,232.4L89.3,232.4z"/>
				</g>
				<g id="XMLID_8004_">
					<path id="XMLID_8005_" class="st4" d="M96.1,239.6c0.2,0.3,0.3,0.6,0.3,0.9c0.1,0.4-0.9,0.6-1.1,0.4c-0.3-0.4-0.2-0.7,0-1.2
						C95.4,239.6,95.9,239.4,96.1,239.6L96.1,239.6z"/>
				</g>
				<g id="XMLID_8002_">
					<path id="XMLID_8003_" class="st4" d="M82.2,219.3c0.1,0.1,0.2,0.2,0.3,0.3c0,0,0.1,0.1,0,0.1c0,0,0,0.1,0,0.1
						c-0.1,0.3-0.9,0.6-1,0.2c0,0,0,0,0-0.1c0-0.1,0-0.1,0-0.2c0,0-0.1-0.1-0.1-0.2C81.2,219.3,82,219.2,82.2,219.3L82.2,219.3z"/>
				</g>
				<g id="XMLID_8000_">
					<path id="XMLID_8001_" class="st4" d="M77.7,233.4c-0.2,0.2-0.2,0.3-0.5,0.4c0.1-0.1,0.2-0.1,0.3-0.2c-0.1,0.1-0.1,0.2-0.2,0.2
						c-0.1,0.1-0.4,0.2-0.5,0.1c-0.1,0-0.1-0.1-0.2-0.2c0.1,0,0.2,0.1,0.3,0.1c-0.3,0-0.3-0.1-0.5-0.2c-0.3-0.3,0.4-0.6,0.6-0.6
						C77.1,232.9,78,232.9,77.7,233.4L77.7,233.4z"/>
				</g>
				<g id="XMLID_7998_">
					<path id="XMLID_7999_" class="st4" d="M106.7,196.3c0.5,0,0.8,0.2,1.1,0.6c0.2,0.3,0.3,0.7,0.4,1c0.2,0.6-0.9,1-1.3,1.1
						c-0.4,0.1-1.9,0.3-1.7-0.6c0.1-0.4,0.2-0.8,0.3-1.2C105.6,196.7,106.1,196.3,106.7,196.3L106.7,196.3z"/>
				</g>
				<g id="XMLID_7996_">
					<path id="XMLID_7997_" class="st4" d="M103,198.8c0.3,0.2,0.6,0.4,0.8,0.7c0.4,0.6-0.5,1-1,1.1c-0.4,0.1-1.7,0.2-1.3-0.6
						c0.2-0.4,0.5-0.7,0.8-1C102.5,198.8,102.8,198.8,103,198.8L103,198.8z"/>
				</g>
				<g id="XMLID_7994_">
					<path id="XMLID_7995_" class="st4" d="M96.1,194.5c0.1,0.1,0.2,0.1,0.2,0.2c0.1,0.4-0.5,0.6-0.8,0.7c-0.3,0.1-0.7,0.1-1-0.1
						c-0.2-0.3,0.1-0.5,0.3-0.7c-0.1,0.1-0.2,0.2-0.3,0.2c0,0,0.1-0.1,0.1-0.1C94.9,194.5,95.9,194.2,96.1,194.5L96.1,194.5z"/>
				</g>
				<g id="XMLID_7992_">
					<path id="XMLID_7993_" class="st4" d="M95.4,201.5C95.4,201.5,95.5,201.5,95.4,201.5c0.2,0.1,0.2,0.2,0.2,0.3
						c-0.1,0.5-1.2,0.8-1.2,0.2c0-0.1,0-0.2,0.1-0.3c0,0,0-0.1,0.1-0.1C94.7,201.4,95.3,201.2,95.4,201.5L95.4,201.5z"/>
				</g>
				<g id="XMLID_7990_">
					<path id="XMLID_7991_" class="st4" d="M100.8,193.6c0,0.1,0,0.2,0,0.2c0,0.1-0.1,0.2-0.2,0.2c-0.1,0-0.2,0.1-0.3,0.1
						c0,0-0.4,0.1-0.2,0c-0.1,0-0.4,0-0.5-0.2c0-0.1,0-0.2,0-0.3C99.8,193.5,100.7,193.2,100.8,193.6L100.8,193.6z"/>
				</g>
				<g id="XMLID_7988_">
					<path id="XMLID_7989_" class="st4" d="M104.3,205.8c-0.1,0.3-0.2,0.5-0.4,0.7c0,0.1-0.2,0.1-0.3,0.1c-0.2-0.1-0.3-0.4-0.4-0.6
						c-0.1-0.2,0.3-0.4,0.4-0.4C103.8,205.6,104.4,205.5,104.3,205.8L104.3,205.8z"/>
				</g>
				<g id="XMLID_7986_">
					<path id="XMLID_7987_" class="st4" d="M107.2,202.2c0.1,0.2,0.3,0.3,0.4,0.6c0,0.2-0.3,0.3-0.4,0.3c-0.6,0.2-0.7-0.4-0.6-0.8
						C106.6,202.2,107.1,202,107.2,202.2L107.2,202.2z"/>
				</g>
				<g id="XMLID_7984_">
					<path id="XMLID_7985_" class="st4" d="M-8.9,147.6c0.4,0.1,0.6,0.3,0.6,0.7c0,0.2-0.2,0.4-0.3,0.4c-0.2,0.2-0.5,0.3-0.7,0.4
						c-0.5,0.1-1.1-0.3-0.8-0.9C-9.9,147.8-9.5,147.5-8.9,147.6L-8.9,147.6z"/>
				</g>
				<g id="XMLID_7982_">
					<path id="XMLID_7983_" class="st4" d="M-12.9,150.1c0,0.1,0.1,0.3,0.1,0.4c0,0.2-0.1,0.4-0.2,0.5c-0.1,0.1-0.4,0.2-0.5,0.1
						c-0.2-0.2-0.5-0.5-0.5-0.8C-14.2,149.9-12.9,149.6-12.9,150.1L-12.9,150.1z"/>
				</g>
				<g id="XMLID_7980_">
					<path id="XMLID_7981_" class="st4" d="M-13.4,143.2c0.2,0.1,0.3,0.2,0.2,0.4c-0.1,0.2-0.3,0.3-0.5,0.4c-0.2,0-0.4,0-0.5-0.1
						c-0.2-0.2,0-0.4,0.2-0.5C-13.9,143.1-13.6,143-13.4,143.2L-13.4,143.2z"/>
				</g>
				<g id="XMLID_7978_">
					<path id="XMLID_7979_" class="st4" d="M-16.3,145c0.1,0.3,0.1,0.5,0.3,0.6c0.5,0.3-0.9,0.9-1,0.4c-0.1-0.3,0-0.6,0.1-0.9
						C-16.8,145-16.4,144.8-16.3,145L-16.3,145z"/>
				</g>
				<g id="XMLID_7976_">
					<path id="XMLID_7977_" class="st4" d="M-17.4,136.7c0,0,0.1,0,0.1,0c0.1,0,0.3,0,0.3,0.1c0,0.1,0,0.2,0,0.3
						c0,0.2-0.5,0.3-0.6,0.1c-0.1-0.2,0.3-0.1,0.1-0.1c-0.1,0-0.1,0-0.2,0C-18.1,137-17.6,136.8-17.4,136.7L-17.4,136.7z"/>
				</g>
				<g id="XMLID_7974_">
					<path id="XMLID_7975_" class="st4" d="M-12.2,147.6c-0.7,0,0-0.5,0.4-0.5C-11.1,147-11.8,147.6-12.2,147.6L-12.2,147.6z"/>
				</g>
				<g id="XMLID_17_">
					<path id="XMLID_7973_" class="st4" d="M-12.7,139.7c0.2,0.2,0.4,0.6,0.3,0.9c0,0.3-0.7,0.4-0.9,0.3c0.4,0,0.4,0,0.2,0
						c-0.1,0-0.1,0-0.2,0c-0.1,0-0.3-0.1-0.3-0.3c-0.1-0.3,0.1-0.6,0.2-0.8C-13.3,139.6-12.9,139.5-12.7,139.7L-12.7,139.7z"/>
				</g>
				<g id="XMLID_7970_">
					<path id="XMLID_7971_" class="st4" d="M212.6,250.2c0.2,0.3,0.4,0.7,0.6,1c0.4,0.6-1.5,1.1-1.5,0.5c0-0.2,0-0.5,0-0.7
						c0-0.2,0.2-0.5,0.3-0.7C212.1,250.1,212.5,250,212.6,250.2L212.6,250.2z"/>
				</g>
				<g id="XMLID_7968_">
					<path id="XMLID_7969_" class="st4" d="M209,254.7c0,0,0,0.1,0,0.1c0,0.2,0,0.3,0,0.5c0,0.3-0.6,0.5-0.8,0.6
						c-0.2,0.1-1.1,0.2-1.1-0.2c0-0.5,0.2-0.9,0.6-1.1c0.3-0.2,0.6-0.3,0.9-0.3C208.9,254.3,209.2,254.4,209,254.7L209,254.7z"/>
				</g>
				<g id="XMLID_7966_">
					<path id="XMLID_7967_" class="st4" d="M203.9,246c0,0.3,0.1,0.4-0.2,0.6c-0.1,0.1-0.3,0.2-0.5,0.1c0,0-0.1,0-0.1-0.1
						c-0.1,0-0.1-0.1-0.1-0.1c0-0.1,0-0.2,0-0.3C203.1,245.9,203.9,245.7,203.9,246L203.9,246z"/>
				</g>
				<g id="XMLID_7964_">
					<path id="XMLID_7965_" class="st4" d="M199.2,249.9c-0.2,0.3-0.2,0.6-0.4,0.9c-0.1,0.1-0.2,0.1-0.3,0.1c-0.4-0.3-0.2-0.8,0.1-1
						c0.1-0.1,0.3-0.2,0.5-0.2C199.1,249.6,199.4,249.7,199.2,249.9L199.2,249.9z"/>
				</g>
				<g id="XMLID_7962_">
					<path id="XMLID_7963_" class="st4" d="M206.5,250.1C206.5,250.1,206.5,250.1,206.5,250.1c0,0,0.1,0,0.2,0c-0.1,0-0.4,0-0.4-0.2
						c-0.1-0.2,0.3-0.4,0.5-0.4c0.2,0,0.6-0.1,0.6,0.1c0.1,0.2-0.3,0.4-0.4,0.4c0.1-0.1,0.1-0.1,0.2-0.2c0,0,0,0.1,0,0.1
						C207,250.2,206.6,250.3,206.5,250.1L206.5,250.1z"/>
				</g>
				<g id="XMLID_7960_">
					<path id="XMLID_7961_" class="st4" d="M198,241.9c0.1,0.2,0,0.5-0.1,0.7c-0.1,0.2-0.6,0.3-0.7,0.1c-0.2-0.3-0.1-0.5,0.1-0.7
						C197.4,241.9,197.8,241.7,198,241.9L198,241.9z"/>
				</g>
				<g id="XMLID_7958_">
					<path id="XMLID_7959_" class="st4" d="M211.1,245.6c0.2,0.3-0.1,1-0.5,1c-0.5,0.1-0.7-0.5-0.6-0.8
						C210.2,245.5,210.9,245.3,211.1,245.6L211.1,245.6z"/>
				</g>
				<g id="XMLID_7956_">
					<path id="XMLID_7957_" class="st4" d="M216.7,256.1C216.7,256.1,216.7,256.1,216.7,256.1c-0.2-0.2,0.3-0.4,0.5-0.3c0,0,0,0,0,0
						c-0.1,0-0.1,0-0.2-0.1c0.2,0,0.3,0,0.4,0.2c0.1,0.1,0,0.3-0.1,0.4c-0.1,0.2-0.8,0.4-1,0.2c-0.3-0.3,0-0.6,0.3-0.7
						c-0.1,0-0.1,0.1-0.2,0.1c0,0,0,0,0-0.1c0.1-0.1,0.2-0.2,0.4-0.2c0.1,0,0.3,0.1,0.2,0.2c0,0,0,0,0,0.1
						C217.1,256.1,216.8,256.2,216.7,256.1L216.7,256.1z"/>
				</g>
				<g id="XMLID_7954_">
					<path id="XMLID_7955_" class="st4" d="M198.4,257.9C198.3,257.9,198.3,257.9,198.4,257.9c0,0,0.1-0.1,0.2-0.1c0,0,0,0.4,0,0.5
						c0,0.4-1.1,0.6-1.1,0.1c0-0.5,0.4-0.9,0.9-0.9C198.7,257.6,198.6,257.8,198.4,257.9L198.4,257.9z"/>
				</g>
				<g id="XMLID_7952_">
					<path id="XMLID_7953_" class="st4" d="M118.2,262c0.5-0.1,1.1,0,1.5,0.4c0.2,0.3,0.4,0.5,0.5,0.9c0.2,0.8-1.1,1.3-1.7,1.5
						c-0.6,0.2-2.3,0.3-2.2-0.7c0-0.3,0.1-0.6,0.2-0.9C116.6,262.4,117.6,262,118.2,262L118.2,262z"/>
				</g>
				<g id="XMLID_7950_">
					<path id="XMLID_7951_" class="st4" d="M108.9,258.4c0.3,0,0.5,0,0.8,0.1c-0.1,0-0.3-0.1-0.4-0.1c0.7,0,1.6,0.6,1.3,1.4
						c-0.2,0.6-0.9,0.9-1.4,1c-0.6,0.2-1.6,0.3-1.9-0.4c-0.2-0.3,0-0.7,0.2-1c0.2-0.4,0.5-0.7,1-0.9c-0.1,0.1-0.3,0.2-0.4,0.3
						C108.2,258.6,108.5,258.4,108.9,258.4L108.9,258.4z"/>
				</g>
				<g id="XMLID_7948_">
					<path id="XMLID_7949_" class="st4" d="M117.6,254.4c0.2,0.3,0.3,0.6,0.4,0.9c0.1,0.3,0,0.7-0.2,1c-0.1,0.1-0.3,0.2-0.5,0.2
						c-0.3-0.1-0.6-0.3-0.7-0.6c-0.1-0.2,0.1-0.5,0.1-0.6c0.1-0.2,0.2-0.5,0.3-0.7C117.1,254.3,117.5,254.2,117.6,254.4L117.6,254.4
						z"/>
				</g>
				<g id="XMLID_7946_">
					<path id="XMLID_7947_" class="st4" d="M127.5,253.6c0.2,0.1,0.3,0.2,0.4,0.4c0.2,0.3,0.1,0.5-0.1,0.7c-0.2,0.2-0.7,0.3-0.9,0.1
						c-0.4-0.2,0-0.6-0.2-1c-0.1-0.1,0.2-0.3,0.3-0.3C127,253.5,127.3,253.5,127.5,253.6L127.5,253.6z"/>
				</g>
				<g id="XMLID_7944_">
					<path id="XMLID_7945_" class="st4" d="M130,261.3c0.5,0.5,0.3,1.6-0.4,1.7c-0.3,0.1-0.7-0.1-0.8-0.4c-0.1-0.4,0-0.8,0.3-1.2
						C129.2,261.3,129.8,261.1,130,261.3L130,261.3z"/>
				</g>
				<g id="XMLID_7942_">
					<path id="XMLID_7943_" class="st4" d="M125.4,259.2c0.4,0.4-0.1,1.1-0.6,1.2c-0.2,0-0.5,0-0.6-0.3c-0.1-0.3,0-0.5,0.2-0.8
						C124.6,259.1,125.1,258.9,125.4,259.2L125.4,259.2z"/>
				</g>
				<g id="XMLID_7940_">
					<path id="XMLID_7941_" class="st4" d="M121.3,258.3c0,0,0,0.1,0.1,0.1C121.4,258.4,121.3,258.4,121.3,258.3
						c0.1,0.1,0.2,0.2,0.2,0.3c0.1,0.3,0,0.4-0.1,0.7c-0.1,0.1-0.4,0.2-0.5,0.1c-0.2-0.2-0.2-0.3-0.1-0.6c0.1-0.2,0.2-0.3,0.2-0.4
						C121,258.2,121.3,258.1,121.3,258.3L121.3,258.3z"/>
				</g>
				<g id="XMLID_7938_">
					<path id="XMLID_7939_" class="st4" d="M107.5,253.2c0.4,0.2,0.7,0.4,0.6,0.9c-0.1,0.3-1.1,0.6-1.1,0.2
						c-0.1-0.3,0.1-0.6,0.1-0.9C107,253.2,107.4,253.1,107.5,253.2L107.5,253.2z"/>
				</g>
				<g id="XMLID_7936_">
					<path id="XMLID_7937_" class="st4" d="M98.9,256c0.1,0.2,0.2,0.5,0.3,0.7c0.1,0.3,0.1,0.5-0.2,0.7c-0.1,0.1-0.4,0.2-0.6,0.1
						c-0.3-0.1-0.3-0.2-0.2-0.5c0.1-0.3,0.2-0.7,0.3-1C98.5,256,98.8,255.8,98.9,256L98.9,256z"/>
				</g>
				<g id="XMLID_7934_">
					<path id="XMLID_7935_" class="st4" d="M105.9,263.8c0.1,0.2,0.1,0.6,0.1,0.8c0,0.3-0.1,0.6-0.5,0.7c-0.7,0.2-1.1-0.6-0.9-1.2
						C104.7,263.7,105.7,263.3,105.9,263.8L105.9,263.8z"/>
				</g>
				<g id="XMLID_7932_">
					<path id="XMLID_7933_" class="st4" d="M139.6,255c0.3,0.4,0.2,0.7-0.1,1.1c-0.1,0.1-0.4,0.2-0.5,0.1c-0.1-0.2-0.3-0.3-0.3-0.5
						c0-0.2,0.1-0.4,0.2-0.5C139.1,255,139.5,254.8,139.6,255L139.6,255z"/>
				</g>
				<g id="XMLID_7930_">
					<path id="XMLID_7931_" class="st4" d="M137.7,263.8c0,0.4,0,0.9,0,1.3c0,0.4-1.3,0.7-1.3,0.3c-0.1-0.4,0-0.9,0-1.3
						C136.4,263.7,137.7,263.4,137.7,263.8L137.7,263.8z"/>
				</g>
				<g id="XMLID_7928_">
					<path id="XMLID_7929_" class="st4" d="M134.4,258.7c0.3,0.3,0.3,0.6,0,0.8c-0.1,0.1-0.3,0.2-0.5,0.1c0,0-0.1,0-0.1-0.1
						c0,0-0.1-0.1-0.1-0.1c0-0.3,0.1-0.5,0.2-0.7C133.9,258.6,134.2,258.5,134.4,258.7L134.4,258.7z"/>
				</g>
				<g id="XMLID_7926_">
					<path id="XMLID_7927_" class="st4" d="M130.9,246.7c0.1,0.2,0.4,0.4,0.3,0.7c-0.1,0.1-0.3,0.2-0.4,0.2
						c-0.5-0.1-0.4-0.4-0.3-0.8C130.5,246.7,130.8,246.5,130.9,246.7L130.9,246.7z"/>
				</g>
				<g id="XMLID_7924_">
					<path id="XMLID_7925_" class="st4" d="M149.2,254.4c0,0.3,0.1,0.5-0.1,0.8c-0.1,0.1-0.4,0.2-0.5,0.1c-0.2-0.2-0.1-0.5-0.1-0.7
						C148.5,254.3,149.1,254.2,149.2,254.4L149.2,254.4z"/>
				</g>
				<g id="XMLID_7922_">
					<path id="XMLID_7923_" class="st4" d="M256.7,256.7c0.3,0,0.7,0.4,0.5,0.7c-0.1,0.2-0.4,0.5-0.7,0.5c-0.4-0.1-0.9-0.2-0.8-0.7
						C255.7,256.8,256.3,256.7,256.7,256.7L256.7,256.7z"/>
				</g>
				<g id="XMLID_7920_">
					<path id="XMLID_7921_" class="st4" d="M253.2,255.1c0,0.2-0.2,0.3-0.3,0.5c-0.1,0.1-0.4,0.2-0.5,0.1c-0.2-0.1-0.3-0.2-0.3-0.3
						C252,254.8,253.3,254.6,253.2,255.1L253.2,255.1z"/>
				</g>
				<g id="XMLID_7918_">
					<path id="XMLID_7919_" class="st4" d="M252.2,258.8c0.1,0.1,0.2,0.2,0.2,0.4c0,0.1,0,0.1-0.1,0.2c-0.2,0.2-0.4,0.2-0.7,0.1
						c-0.1,0-0.1-0.1-0.1-0.2c0-0.2,0.1-0.3,0.2-0.5C251.8,258.7,252.1,258.6,252.2,258.8L252.2,258.8z"/>
				</g>
				<g id="XMLID_7916_">
					<path id="XMLID_7917_" class="st4" d="M248.6,252.3c0,0.2-0.2,0.4-0.3,0.6c-0.2,0.2-0.3,0.4-0.3,0.7c0,0.3-0.4,0.3-0.6,0.3
						c-0.2-0.1-0.4-0.2-0.6-0.3c-0.1-0.1-0.4-0.2-0.5-0.3c-0.4-0.5,0.1-0.9,0.5-1.2C247.1,252,248.8,251.5,248.6,252.3L248.6,252.3z
						"/>
				</g>
				<g id="XMLID_7914_">
					<path id="XMLID_7915_" class="st4" d="M248.6,256.1c0.3,0.1,0.4,0.3,0.3,0.5c-0.1,0.4-1.2,0.7-1.3,0.3
						c-0.1-0.3,0.1-0.5,0.3-0.7C248.1,256.1,248.4,256,248.6,256.1L248.6,256.1z"/>
				</g>
				<g id="XMLID_7912_">
					<path id="XMLID_7913_" class="st4" d="M264.4,254c0.3,0.2,0.7,0.3,0.6,0.7c-0.1,0.4-0.6,0.5-0.9,0.6c-0.3,0.1-1,0.2-1.1-0.2
						c-0.1-0.4,0.4-0.7,0.6-1C263.8,254,264.2,253.9,264.4,254L264.4,254z"/>
				</g>
				<g id="XMLID_7910_">
					<path id="XMLID_7911_" class="st4" d="M304.1,218.7c0.6,0.3,0.1,0.8-0.3,0.9c-0.2,0.1-0.5,0-0.6-0.2c-0.1-0.2,0.1-0.5,0.2-0.6
						C303.6,218.7,303.9,218.6,304.1,218.7L304.1,218.7z"/>
				</g>
				<g id="XMLID_7908_">
					<path id="XMLID_7909_" class="st4" d="M301.9,220.9c0.4,1-2.1,1.3-1.7,0.3C300.4,220.7,301.7,220.2,301.9,220.9L301.9,220.9z"
						/>
				</g>
				<g id="XMLID_7906_">
					<path id="XMLID_7907_" class="st4" d="M305.6,224.3c0.1,0.2,0.2,0.4,0,0.6c-0.1,0.2-0.3,0.3-0.5,0.4c-0.5,0.1-0.6-0.3-0.7-0.7
						C304.2,224.2,305.4,223.9,305.6,224.3L305.6,224.3z"/>
				</g>
				<g id="XMLID_7904_">
					<path id="XMLID_7905_" class="st4" d="M307.4,219.6c-0.2,0.2-0.3,0.3-0.6,0.1C306.3,219.4,307.9,219.1,307.4,219.6L307.4,219.6
						z"/>
				</g>
				<g id="XMLID_7902_">
					<path id="XMLID_7903_" class="st4" d="M306.2,229c0.2,0,0.3,0.4,0.3,0.6c0.1,0.2,0.1,0.5,0,0.7c-0.1,0.2-0.3,0.3-0.5,0.4
						c-0.2,0.1-0.4,0-0.6,0c-0.6-0.1-0.2-0.8,0-1.1C305.6,229.2,305.8,228.9,306.2,229L306.2,229z"/>
				</g>
				<g id="XMLID_7900_">
					<path id="XMLID_7901_" class="st4" d="M352.4,189.7C352.4,189.7,352.4,189.7,352.4,189.7c0.2,0.1,0.4,0.3,0.3,0.5
						c-0.1,0.4-0.3,0.6-0.7,0.8c0.1-0.1,0.2-0.2,0.3-0.3c-0.1,0.1-0.1,0.2-0.2,0.3c-0.1,0-0.1,0.1-0.2,0.1c-0.3,0.2-0.3,0.1,0,0
						c-0.1,0.1-0.2,0.2-0.3,0.2c-0.4,0.2-0.6,0.1-1,0c0.1,0,0.2,0,0.3,0.1c-0.3,0-0.5-0.1-0.6-0.3c0.1,0.1,0.2,0.1,0.3,0.2
						c-0.4,0-0.5-0.2-0.7-0.5c-0.1-0.2,0.1-0.4,0.3-0.6c0,0,0,0,0.1-0.1C350.9,189.7,351.8,189.4,352.4,189.7L352.4,189.7z"/>
				</g>
				<g id="XMLID_7898_">
					<path id="XMLID_7899_" class="st4" d="M344.9,191.3c0.3,0.2,0.4,0.4,0.4,0.8c-0.1,0.4-0.7,0.5-1,0.5c-0.1,0-0.4,0-0.5-0.2
						c-0.1-0.4,0.1-0.7,0.4-0.9C344.3,191.3,344.6,191.2,344.9,191.3L344.9,191.3z"/>
				</g>
				<g id="XMLID_7896_">
					<path id="XMLID_7897_" class="st4" d="M344.1,188.5c-0.3,0.2-0.3,0.3-0.7,0.1c-0.3-0.1,0.2-0.4,0.3-0.4
						C343.9,188.2,344.4,188.3,344.1,188.5L344.1,188.5z"/>
				</g>
				<g id="XMLID_7894_">
					<path id="XMLID_7895_" class="st4" d="M347.4,189.2c-0.1,0.2-0.6,0.5-0.7,0.2c0-0.1,0-0.1,0.1-0.1c0.2-0.1,0,0.2-0.1,0
						C346.4,188.9,347.6,188.8,347.4,189.2L347.4,189.2z"/>
				</g>
				<g id="XMLID_7892_">
					<path id="XMLID_7893_" class="st4" d="M339,190.5c0.2,0.1,0.3,0.1,0.4,0.4c0,0-0.1-0.1-0.1-0.1c0.1,0.1,0.2,0.1,0.2,0.2
						c0.1,0.1,0.1,0.1,0.1,0.2c0,0,0,0.1,0,0.1c-0.1,0.3-0.6,0.5-0.9,0.5c-0.2,0-0.8,0-0.7-0.3c0.1-0.4,0.5-0.6,0.7-0.9
						C338.8,190.5,338.9,190.5,339,190.5L339,190.5z"/>
				</g>
				<g id="XMLID_7890_">
					<path id="XMLID_7891_" class="st4" d="M336.2,193.7c0,0.2,0,0.4-0.2,0.5c-0.2,0.1-0.4,0.1-0.6,0.1c0,0-0.1,0-0.1-0.1
						c0-0.1,0-0.2,0-0.3C335.4,193.6,336.2,193.4,336.2,193.7L336.2,193.7z"/>
				</g>
				<g id="XMLID_7888_">
					<path id="XMLID_7889_" class="st4" d="M334.1,188.6c0.1,0.1,0.3,0.2,0.3,0.3c0,0.2-0.3,0.3-0.4,0.3c-0.1,0-0.4,0.1-0.5-0.1
						c-0.2-0.2,0.4-0.4,0.4-0.4c-0.1,0-0.2,0.1-0.2,0.1c0-0.1,0.1-0.1,0.1-0.2C333.7,188.6,334,188.5,334.1,188.6L334.1,188.6z"/>
				</g>
				<g id="XMLID_7886_">
					<path id="XMLID_7887_" class="st4" d="M336,192.2C336,192.2,336,192.2,336,192.2C336,192.2,336,192.2,336,192.2L336,192.2z"/>
				</g>
				<g id="XMLID_7884_">
					<path id="XMLID_7885_" class="st4" d="M333.5,191.4c0.1,0,0.2,0.1,0.3,0.1c0.3,0.1,0.2,0.4,0,0.5c-0.3,0.3-0.8,0.5-1.2,0.2
						c-0.2-0.1-0.2-0.4,0-0.5C332.8,191.6,333.1,191.3,333.5,191.4L333.5,191.4z"/>
				</g>
				<g id="XMLID_7882_">
					<path id="XMLID_7883_" class="st4" d="M339.9,194.5c0.1,0,0.2,0,0.2,0.1c0.1,0,0.2,0.1,0.2,0.2c0,0.2-0.1,0.2-0.2,0.4
						c-0.1,0.1-0.3,0.2-0.5,0.1c-0.2-0.1-0.2-0.1-0.2-0.3c0-0.1,0.1-0.2,0.2-0.2C339.6,194.7,339.8,194.4,339.9,194.5L339.9,194.5z"
						/>
				</g>
				<g id="XMLID_7880_">
					<path id="XMLID_7881_" class="st4" d="M338.8,187.9c0,0.2,0.1,0.4,0,0.6c0,0.1-0.3,0.2-0.3,0.1c-0.1-0.2-0.3-0.3-0.4-0.5
						C338,187.8,338.8,187.6,338.8,187.9L338.8,187.9z"/>
				</g>
				<g id="XMLID_7861_">
					<path id="XMLID_7862_" class="st4" d="M327.8,189c0.2,0.3,0,0.6-0.1,0.8c0,0.1-0.3,0.2-0.4,0.1c-0.2-0.3-0.3-0.5-0.1-0.8
						C327.2,189,327.7,188.9,327.8,189L327.8,189z"/>
				</g>
				<g id="XMLID_7859_">
					<path id="XMLID_7860_" class="st4" d="M329.7,195.3c0.1,0.3,0,0.5-0.2,0.7c-0.1,0.1-0.3,0.2-0.4,0.1c-0.2-0.2-0.3-0.3-0.2-0.6
						C328.9,195.2,329.7,194.9,329.7,195.3L329.7,195.3z"/>
				</g>
				<g id="XMLID_7857_">
					<path id="XMLID_7858_" class="st4" d="M330,191.3c0.1,0,0.2,0,0.3,0c0,0,0.1,0,0.1,0.1c0,0.1-0.1,0.2-0.2,0.3
						c-0.1,0.1-0.3,0.1-0.4,0.1c-0.1,0-0.1-0.1-0.1-0.1c-0.1-0.1,0.1,0,0,0C329.4,191.6,329.9,191.3,330,191.3L330,191.3z"/>
				</g>
				<g id="XMLID_7855_">
					<path id="XMLID_7856_" class="st4" d="M361.2,190.2c0.1,0.2,0.2,0.4,0.3,0.6c0.1,0.2,0.3,0.5,0.2,0.7c0,0.1-0.3,0.2-0.4,0.2
						c-0.6-0.2-0.8-0.8-0.6-1.3C360.8,190.1,361.1,190.1,361.2,190.2L361.2,190.2z"/>
				</g>
				<g id="XMLID_7853_">
					<path id="XMLID_7854_" class="st4" d="M358.6,192.7c0,0.1,0.2,0.2,0.2,0.3c0.2,0.3-0.6,0.5-0.7,0.5c-0.2,0-0.7,0-0.5-0.4
						c0.1-0.1,0.2-0.3,0.4-0.3c-0.1,0,0.2-0.2,0.2-0.2C358.3,192.6,358.6,192.5,358.6,192.7L358.6,192.7z"/>
				</g>
				<g id="XMLID_7851_">
					<path id="XMLID_7852_" class="st4" d="M357.1,189.4c-0.2,0.6-1,1-1.3,0.3c-0.1-0.3,0.4-0.5,0.6-0.5
						C356.4,189.2,357.2,189.1,357.1,189.4L357.1,189.4z"/>
				</g>
				<g id="XMLID_7849_">
					<path id="XMLID_7850_" class="st4" d="M355.1,191.7c0.5,0.2,0.1,0.7-0.2,0.9c-0.3,0.2-0.7,0.1-1-0.1c-0.1-0.1-0.1-0.1-0.1-0.2
						c0.1-0.2,0.2-0.3,0.4-0.4C354.5,191.7,354.9,191.6,355.1,191.7L355.1,191.7z"/>
				</g>
				<g id="XMLID_7847_">
					<path id="XMLID_7848_" class="st4" d="M424.7,170.4c0,0.3-0.1,0.6-0.2,0.9c0,0.1-0.3,0.2-0.3,0.1c-0.2-0.3-0.2-0.5-0.2-0.8
						C424,170.2,424.8,170.1,424.7,170.4L424.7,170.4z"/>
				</g>
				<g id="XMLID_7842_">
					<path id="XMLID_7846_" class="st4" d="M422.7,173.9c-0.3,0-0.6,0-0.9,0C422,173.7,422.6,173.6,422.7,173.9c0,0.1,0,0.2,0,0.4
						c-0.1,0.3-0.8,0.5-1,0.2c0-0.1,0-0.1-0.1-0.2C421.4,173.8,422.5,173.4,422.7,173.9L422.7,173.9z"/>
				</g>
				<g id="XMLID_7840_">
					<path id="XMLID_7841_" class="st4" d="M425.8,177.3c-0.9,0,0-0.7,0.5-0.7C427.2,176.6,426.3,177.3,425.8,177.3L425.8,177.3z"/>
				</g>
				<g id="XMLID_7837_">
					<path id="XMLID_7838_" class="st4" d="M421.6,177.8c0,0.1,0.1,0.1,0.1,0.2C421.7,177.9,421.6,177.9,421.6,177.8
						c0.1,0.1,0.4,0.1,0.5,0.3c0.1,0.2,0.2,0.2,0.3,0.4c0,0.2,0.1,0.3,0.1,0.5c0,0.2-0.1,0.4-0.3,0.6c-0.2,0.3-0.7,0.4-1,0.3
						c-0.5-0.1-0.9-0.2-1-0.7c0-0.1,0-0.1,0-0.2c0-0.2,0.1-0.2,0.1-0.4c0.1-0.3,0.3-0.5,0.6-0.7c-0.1,0.1-0.1,0.1-0.2,0.2
						c0-0.1,0.1-0.1,0.1-0.2C421.1,177.7,421.5,177.5,421.6,177.8L421.6,177.8z"/>
				</g>
				<g id="XMLID_7835_">
					<path id="XMLID_7836_" class="st4" d="M420.6,168.3C420.6,168.3,420.6,168.2,420.6,168.3c0-0.2,0.5-0.3,0.5-0.2
						c0,0.2,0,0.4,0,0.6c0,0.1-0.4,0.2-0.4,0.1c0-0.2,0.2-0.2,0.3-0.2c0,0,0.1,0,0.1,0.1c0,0,0,0,0,0c0,0.2-0.4,0.2-0.4,0.1
						C420.7,168.6,420.6,168.4,420.6,168.3c0-0.2,0.5-0.3,0.5-0.2c0,0,0,0.1,0,0.1C421.1,168.4,420.6,168.5,420.6,168.3L420.6,168.3
						z"/>
				</g>
				<g id="XMLID_7833_">
					<path id="XMLID_7834_" class="st4" d="M418.6,178.3c-0.1,0-0.2,0-0.3-0.1c-0.3-0.1-0.2-0.3,0-0.5c0.2-0.1,0.8-0.3,0.9,0
						c0.1,0.4-0.1,0.6-0.3,0.9c-0.1,0.1-0.4,0.2-0.5,0.1c-0.3-0.2-0.4-0.4-0.3-0.8c0.1-0.3,0.5-0.4,0.8-0.4c0.4,0,0.4,0.3,0.1,0.5
						C419,178.2,418.8,178.4,418.6,178.3L418.6,178.3z"/>
				</g>
				<g id="XMLID_7831_">
					<path id="XMLID_7832_" class="st4" d="M421.3,182.5C421.3,182.5,421.2,182.6,421.3,182.5c0.2-0.2,0.3-0.2,0.5-0.2
						c0.1,0,0.6,0,0.5,0.2c-0.1,0.4-1.1,0.6-1.2,0.1c0,0,0.1,0,0.1,0.1c0,0,0,0,0,0C421,182.7,421.2,182.6,421.3,182.5L421.3,182.5z
						"/>
				</g>
			</g>
			<g id="XMLID_7828_">
				<path id="XMLID_7829_" class="st4" d="M306.4,193.9c-1.2-6.7-0.4-13.3,5.7-17.2c0.1,0,0.4-0.1,0.2,0.1c-2.8,2.4-4.5,4.8-5,8.4
					c-0.4,2.9,0,5.8-0.7,8.7C306.6,194,306.4,194,306.4,193.9L306.4,193.9z"/>
			</g>
			<g id="XMLID_7826_">
				<path id="XMLID_7827_" class="st4" d="M304.2,193.5c-2-4.6-1-9.6-0.5-14.5c0-0.1,0.3-0.2,0.4-0.1c0.4,4.7-0.7,9.9,0.3,14.5
					C304.4,193.5,304.2,193.5,304.2,193.5L304.2,193.5z"/>
			</g>
			<g id="XMLID_7824_">
				<path id="XMLID_7825_" class="st4" d="M310.3,190.9c-1-1.2,0.2-3.5,0.7-4.7c0.7-1.6,1.8-3.1,3.2-4.2c0.1-0.1,0.5-0.1,0.4,0
					c-1,1.5-1.9,2.8-2.7,4.5c-0.6,1.4-0.5,3.1-1.4,4.3C310.5,190.9,310.4,191,310.3,190.9L310.3,190.9z"/>
			</g>
			<g id="XMLID_7822_">
				<path id="XMLID_7823_" class="st4" d="M402.3,190c-0.1-2.5,0.2-4.7-1.6-6.6c-0.1-0.1,0.1-0.1,0.2-0.1c2.3,1.6,2.1,4.1,1.9,6.6
					C402.8,190.1,402.3,190.2,402.3,190L402.3,190z"/>
			</g>
			<g id="XMLID_7820_">
				<path id="XMLID_7821_" class="st4" d="M400.2,189.1c-0.1-0.2-0.2-0.1-0.3-0.3c-0.1-0.2-0.3-0.5-0.4-0.7
					c-0.3-0.5-0.7-0.9-1.1-1.3c-0.8-0.9-1.7-1.7-2.6-2.6c-0.1-0.1,0.2-0.2,0.3-0.2c1.2,0.7,2.2,1.6,3.1,2.6c0.4,0.4,0.8,0.9,1.1,1.4
					c0.2,0.4,0.2,0.4,0.1,0.9C400.5,189.1,400.3,189.2,400.2,189.1L400.2,189.1z"/>
			</g>
		</g>
		
			<linearGradient id="XMLID_34_" gradientUnits="userSpaceOnUse" x1="943.9474" y1="71.7881" x2="1006.1241" y2="35.2627" gradientTransform="matrix(-1 0 0 1 1023.1192 0)">
			<stop  offset="0" style="stop-color:#97C45A"/>
			<stop  offset="1" style="stop-color:#72A134"/>
		</linearGradient>
		<path id="XMLID_7776_" class="st5" d="M417.9,173.5c-1.4,8.9-11.7,13.1-20.1,15c-15.7,3.8-31.5,1.7-47.2-1
			c-14.1-2.4-31.1-0.3-45.5,1c-7.8,0.7-17.3,2.1-23.1,7.5c-4.4,4.1-2.6,6.5,0.6,11.1c3.1,4.5,6.9,8.6,10.9,12.3
			c6.6,6.3,16.2,15.6,6.4,22.8c-17.9,13.3-42.2,9-62.7,7.2c-9.2-0.8-20.1-2.8-28.9-5.6c-12.1-3.9-22.7-10.5-34.6-14.5
			c-12-4-23.1-5.6-35.6-7.4c-8.5-1.2-21.5-0.3-27.4-7.9c-5.2-6.8,4.8-11.6-1-17.9c-6.5-7-17.7-10.5-26.5-13.5
			c-6.7-2.3-14.1-4.7-21-6.3c-5.8-1.4-11.6-2.7-17.4-4c-7-1.5-13.9-3.3-20.7-5.6c-10.9-3.7-18.4-7.6-27.1-15.5
			c-7.4-6.7-13-17.6-12.2-27.8c0.7-9.1,9.9-14.1,16.9-19.1c5.3-3.7,12.5-5.8,18.4-9.2c1.7-0.4,3.3-0.8,4.9-1.2
			c14.6-3.4,29.8-1.5,44.6-5.1c0,0,194-12.2,282.3,15.2c24.7,7.7,40.1,35.8,48.8,42.2c3.5,2.6,7.2,4.7,10.8,6.9
			C415,159.6,419.4,165.7,417.9,173.5z"/>
		<g id="XMLID_7771_">
			<path id="XMLID_7773_" class="st6" d="M51.6,83.3c-4.5,5.3-2.2,11.8-2.4,17.9c-1.4-0.4-3-1-4.3-0.6l0,0c-0.4-5.5,1-14.4,5.5-18.1
				L51.6,83.3z"/>
			<path id="XMLID_7772_" class="st7" d="M51.2,82.9c2.8-4.1,0.8-13.8-2.8-17.1c0,3,0,5.7,0.4,8.7c0.4,2.8,1.6,5.3,2.4,8.1l0,0
				c-2-5.1-8.9-11-14.8-10.4c1,3,4.7,5.3,7.3,6.9c2.6,1.4,5.1,3.7,8.1,4.3c-3-0.4-5.9-1.6-9.1-1.4c-2,0-7.9,1.2-7.7,3.7
				c3,0,6.1-0.2,9.1-0.4c2.8-0.2,4.9-1.4,7.7-1.6c-1,4.3,0.2,8.5,2.8,11.8c1.2-3.7,0.8-9.1-2.4-11.8l0,0c4.5,1.8,6.5,5.3,9.1,8.9
				c1.6-6.5-3.3-11-9.8-9.9l0,0c2.6-2.2,11.8-2.6,13.8,0.6c-2-9.7-9.3-4.9-14-1.2V82.9z"/>
		</g>
		<g id="XMLID_7700_">
			<path id="XMLID_7770_" class="st6" d="M-6.1,72.8c2.4,5.5,5.8,10.8,7.6,16.4c2,6.2,3.1,12.6,4.2,18.9c1.2,6.8,2.1,14.2,1.7,21.1
				c-2.7,0.5-6.5,0.1-8.9,1.1c1.3-0.6,2-10.8,2-12.2c0.3-5,0.2-9.9-0.4-14.9c-1.1-9.9-4-19.6-7.6-29.1L-6.1,72.8z"/>
			<path id="XMLID_7769_" class="st7" d="M-8.2,74.2c8.4-3.6,21.3,7,23.7,12.5C7.1,85-1.6,79.2-6.8,74.2c2.1,7.5-3.1,17.5-11.8,21.7
				c0-7.8,1.4-18.6,12.2-21.7c-6.6,0.8-18.8,5.6-22.6,10c-1.4-8.9,13.6-14.5,22.6-10.6c-4.5-1.9-8.7-4.7-13.9-5.6
				c-4.5-0.8-9.1-0.8-13.6-0.8c6.6-9.5,27.2-2.2,27.2,7.2c0-6.4,1.4-12.5,10.1-15.3c-0.3,2.5-3.5,5.6-4.9,7.8
				c-1.7,2.5-2.8,5.3-4.9,7.8c4.5-3.6,7.3-5.3,13.6-5.6c5.2-0.3,11.8,0,16.7,1.7c-3.8,2.2-10.8,2.8-15.7,3.1
				c-3.8,0.3-9.1-1.7-12.5-0.3L-8.2,74.2z"/>
			<g id="XMLID_7767_">
				<path id="XMLID_7768_" class="st8" d="M7.8,124.3c-1.6,0.1-3.3,0.2-4.9,0c-0.9-0.1-1.9-0.3-2.8-0.3c-0.6,0-0.7,0-1.2-0.4
					c-0.2-0.1,0.3-0.3,0.3-0.3c1.7-0.1,3.2,0.3,4.9,0.3c1.2,0,2.8-0.1,3.9,0.6C8.1,124.2,7.8,124.3,7.8,124.3L7.8,124.3z"/>
			</g>
			<g id="XMLID_7765_">
				<path id="XMLID_7766_" class="st8" d="M7.4,116.9c-0.9,0.6-2.2,0.4-3.3,0.5c-1.1,0.1-2.8,0.5-3.8-0.1c-0.2-0.1,0-0.3,0.1-0.3
					c1-0.3,2-0.3,3-0.4c1.2-0.1,2.5-0.2,3.7-0.1c0.1,0,0.2,0.1,0.2,0.2C7.4,116.7,7.4,116.8,7.4,116.9
					C7.4,116.8,7.4,116.9,7.4,116.9L7.4,116.9z"/>
			</g>
			<g id="XMLID_7763_">
				<path id="XMLID_7764_" class="st8" d="M6.3,109.6c-0.7,0.6-1.8,0.6-2.7,0.7c-0.7,0.1-2.4,0.5-3-0.1c-0.1-0.1,0.1-0.2,0.2-0.2
					c0.9-0.4,2-0.3,3-0.4c0.7-0.1,1.8-0.4,2.5-0.1C6.3,109.4,6.3,109.5,6.3,109.6L6.3,109.6z"/>
			</g>
			<g id="XMLID_7761_">
				<path id="XMLID_7762_" class="st8" d="M5.4,102.7c-0.7,0.6-1.9,0.9-2.7,1.2c-0.8,0.3-1.9,0.6-2.8,0.2c-0.2-0.1,0-0.3,0.1-0.3
					c0.9-0.3,1.9-0.5,2.8-0.7c0.8-0.2,1.7-0.6,2.5-0.5C5.4,102.6,5.5,102.6,5.4,102.7L5.4,102.7z"/>
			</g>
			<g id="XMLID_7759_">
				<path id="XMLID_7760_" class="st8" d="M4.7,100.5c-0.9,0.3-2,0.2-2.9,0.2c-0.9,0-2.2,0.2-3-0.2c-0.2-0.1,0.1-0.3,0.2-0.3
					C0,100,1.2,100,2.3,100c0.7,0,2-0.2,2.6,0.3C5,100.4,4.7,100.5,4.7,100.5L4.7,100.5z"/>
			</g>
			<g id="XMLID_7715_">
				<path id="XMLID_7758_" class="st8" d="M2.4,90c-1.6,0.2-2.7,1.6-4.3,2c-0.6,0.2-1.1-0.3-0.4-0.6c1.6-0.6,3.1-2.1,4.9-1.7
					C3,89.8,2.6,90,2.4,90L2.4,90z"/>
			</g>
			<g id="XMLID_7711_">
				<path id="XMLID_7714_" class="st8" d="M-0.5,83c-1.2,0.1-2.8,0.7-3.9,0.2C-4.6,83.1-4.4,83-4.3,83c1.3-0.4,2.8-0.8,4.1-0.7
					C0.7,82.3-0.1,83-0.5,83L-0.5,83z"/>
			</g>
			<g id="XMLID_7709_">
				<path id="XMLID_7710_" class="st8" d="M-2.5,78.6c-0.9,0.5-2,0.9-3,0.9c-0.1,0-0.2-0.1-0.1-0.2c0.8-0.7,2.1-1.3,3.1-1.1
					C-2.3,78.3-2.4,78.5-2.5,78.6L-2.5,78.6z"/>
			</g>
		</g>
		<g id="XMLID_7683_">
			<path id="XMLID_7696_" class="st9" d="M32.5,134.3c-1.2,2.7-2.9,5.3-3.7,8.1c-1,3.1-1.5,6.2-2.1,9.3c-0.6,3.3-1,7-0.8,10.4
				c1.4,0.3,3.2,0,4.4,0.6c-0.6-0.3-1-5.3-1-6c-0.2-2.4-0.1-4.9,0.2-7.3c0.6-4.9,2-9.7,3.8-14.3L32.5,134.3z"/>
			<path id="XMLID_7689_" class="st10" d="M33.5,135c-4.1-1.8-10.5,3.4-11.7,6.2c4.1-0.8,8.4-3.7,11-6.2c-1,3.7,1.5,8.6,5.8,10.7
				c0-3.8-0.7-9.2-6-10.7c3.3,0.4,9.3,2.7,11.1,4.9c0.7-4.4-6.7-7.1-11.1-5.2c2.2-1,4.3-2.3,6.9-2.7c2.2-0.4,4.5-0.4,6.7-0.4
				c-3.3-4.7-13.4-1.1-13.4,3.6c0-3.2-0.7-6.2-5-7.5c0.2,1.2,1.7,2.7,2.4,3.8c0.9,1.2,1.4,2.6,2.4,3.8c-2.2-1.8-3.6-2.6-6.7-2.7
				c-2.6-0.1-5.8,0-8.2,0.8c1.9,1.1,5.3,1.4,7.7,1.5c1.9,0.1,4.5-0.8,6.2-0.1L33.5,135z"/>
		</g>
		<g id="XMLID_7680_">
			<path id="XMLID_7682_" class="st9" d="M21,100.6c-2.1,3.2-4.9,6.2-6.7,9.5c-1.9,3.7-3.4,7.6-4.8,11.5c-1.5,4.1-2.9,8.8-3.4,13.2
				c1.7,0.7,4.1,0.8,5.5,1.7c-0.8-0.5,0-7,0.1-7.9c0.4-3.2,1-6.3,1.9-9.3c1.8-6.1,4.7-12,8.1-17.6L21,100.6z"/>
			<path id="XMLID_7681_" class="st10" d="M22.1,101.7c-4.9-3.2-14.2,2-16.4,5.3c5.5-0.1,11.6-2.8,15.5-5.4c-2.2,4.5,0,11.4,5.1,15
				c0.9-4.9,1.2-11.9-5.3-15.1c4.1,1.3,11.3,5.6,13.2,8.9c1.9-5.5-7-10.7-13.1-9.2c3.1-0.7,6-2,9.4-2c3,0,5.8,0.5,8.7,1
				c-3.1-6.7-16.9-4.5-18,1.5c0.7-4,0.5-8.1-4.7-10.8c-0.1,1.6,1.6,3.9,2.2,5.5c0.8,1.8,1.2,3.7,2.2,5.5c-2.5-2.8-4-4.2-8-5
				C9.7,96.1,5.5,95.5,2.3,96c2.2,1.8,6.5,3,9.6,3.7c2.4,0.6,5.9,0,8,1.2L22.1,101.7z"/>
		</g>
		<g id="XMLID_7677_">
			<path id="XMLID_7679_" class="st6" d="M306.1,195.7c-1.3,2.9-3.1,5.7-4,8.6c-1,3.3-1.6,6.6-2.2,9.9c-0.6,3.5-1.1,7.5-0.9,11.1
				c1.4,0.3,3.4,0,4.7,0.6c-0.7-0.3-1-5.6-1.1-6.4c-0.2-2.6-0.1-5.2,0.2-7.8c0.6-5.2,2.1-10.3,4-15.3L306.1,195.7z"/>
			<path id="XMLID_7678_" class="st7" d="M307.2,196.4c-4.4-1.9-11.1,3.6-12.4,6.6c4.4-0.9,8.9-3.9,11.7-6.6
				c-1.1,3.9,1.6,9.2,6.2,11.4c0-4.1-0.7-9.8-6.4-11.4c3.5,0.4,9.9,2.9,11.9,5.2c0.7-4.7-7.1-7.6-11.9-5.5c2.4-1,4.6-2.5,7.3-2.9
				c2.4-0.4,4.7-0.4,7.1-0.4c-3.5-5-14.2-1.2-14.2,3.8c0-3.4-0.7-6.6-5.3-8c0.2,1.3,1.8,2.9,2.6,4.1c0.9,1.3,1.5,2.8,2.6,4.1
				c-2.4-1.9-3.8-2.8-7.1-2.9c-2.7-0.1-6.2,0-8.8,0.9c2,1.2,5.7,1.5,8.2,1.6c2,0.1,4.7-0.9,6.6-0.1L307.2,196.4z"/>
		</g>
		<g id="XMLID_7616_">
			<path id="XMLID_7617_" class="st4" d="M145.6,228.2c-1-3.8-1.4-10,1.9-12.8c0.1-0.1,0.4-0.1,0.3,0c-2.3,3.7-2.5,8.5-1.6,12.6
				C146.3,228.3,145.7,228.4,145.6,228.2L145.6,228.2z"/>
		</g>
		<g id="XMLID_7614_">
			<path id="XMLID_7615_" class="st4" d="M141.1,227.7c1.1-5.8-1.6-10-3.3-15.4c0-0.1,0.3-0.2,0.3-0.1c2.6,4.7,5.5,9.8,3.8,15.3
				C141.9,227.9,141.1,228.1,141.1,227.7L141.1,227.7z"/>
		</g>
		<g id="XMLID_7612_">
			<path id="XMLID_7613_" class="st4" d="M137.6,226.5c-0.4-1.6-0.6-3.3-1.1-4.9c-0.6-1.9-1.7-3.7-3-5.2c-0.1-0.1,0.2-0.2,0.3-0.1
				c2.7,2.4,5.4,6.3,4.7,10.1C138.4,226.6,137.7,226.8,137.6,226.5L137.6,226.5z"/>
		</g>
		<g id="XMLID_7600_">
			<path id="XMLID_7611_" class="st4" d="M211.9,246.6c0.9-4.3,1.9-8.6,0.1-12.8c-0.1-0.1,0.4-0.3,0.4-0.2c2.5,3.5,2.8,8.9,0.9,12.8
				C213.1,246.9,211.8,247.2,211.9,246.6L211.9,246.6z"/>
		</g>
		<g id="XMLID_7598_">
			<path id="XMLID_7599_" class="st4" d="M209.2,245.8c-0.3-2.8,0-5.6-0.7-8.4c0-0.1,0.3-0.2,0.3-0.1c1,2.5,1.3,5.6,1.1,8.3
				C209.8,245.8,209.2,246,209.2,245.8L209.2,245.8z"/>
		</g>
		<g id="XMLID_7596_">
			<path id="XMLID_7597_" class="st4" d="M205.9,245.7c0.1-2.3-0.1-4.5-1.3-6.6c0-0.1,0.2-0.1,0.2-0.1c1.4,1.9,2,4.4,1.3,6.6
				C206.1,245.7,205.9,245.8,205.9,245.7L205.9,245.7z"/>
		</g>
		<g id="XMLID_6847_">
			<path id="XMLID_6849_" class="st4" d="M-18,123.3c-0.4-1.4-0.6-2.8-1-4.2c-0.4-1.5-1-3-1.2-4.6c0-0.1,0.3-0.3,0.4-0.1
				c1.4,2.4,2.9,6,2.2,8.8C-17.5,123.4-17.9,123.5-18,123.3L-18,123.3z"/>
		</g>
		<g id="XMLID_6263_">
			<path id="XMLID_6842_" class="st4" d="M-16.5,119.4c-0.6-3.9-1.1-7.6-2.2-11.4c0-0.1,0.3-0.2,0.4-0.1c1.6,3.5,2.6,7.6,2.1,11.4
				C-16.2,119.4-16.5,119.5-16.5,119.4L-16.5,119.4z"/>
		</g>
		<g id="XMLID_5560_">
			<path id="XMLID_5561_" class="st4" d="M-13.4,115c0-4-0.3-7.5-2.6-10.9c-0.1-0.1,0.2-0.2,0.3-0.1c2.6,2.9,3.5,7.3,2.6,11
				C-13.2,115-13.4,115.1-13.4,115L-13.4,115z"/>
		</g>
		<g id="XMLID_5553_">
			<path id="XMLID_5554_" class="st4" d="M283.3,243c-0.9,0.4-1.4,2-1.8,2.8c-0.4,1-0.7,1.9-1.2,2.8c0,0.1-0.3,0.1-0.3,0
				c-0.1-1.3,0.5-2.5,1-3.6c0.5-1,1.1-1.9,2.2-2.2C283.4,242.8,283.5,242.9,283.3,243L283.3,243z"/>
		</g>
		<g id="XMLID_5544_">
			<path id="XMLID_5550_" class="st4" d="M277.1,242.9c1,1.5,1.2,3.8,0.9,5.6c0,0.1-0.3,0.2-0.4,0.1c-0.3-0.8-0.3-1.7-0.3-2.6
				c0-1-0.2-2-0.5-2.9C276.7,242.9,277,242.8,277.1,242.9L277.1,242.9z"/>
		</g>
		<g id="XMLID_5542_">
			<path id="XMLID_5543_" class="st4" d="M272.3,241.8c2.9,1.3,3.3,5.3,3.1,8c0,0.1-0.3,0.1-0.3,0.1c-0.3-3-0.9-5.8-3.1-8
				C272,241.9,272.3,241.8,272.3,241.8L272.3,241.8z"/>
		</g>
	</g>
	<g id="Beach_Chair" class="st1">
		<g id="XMLID_6278_">
			<path id="XMLID_5539_" class="st11" d="M182.6,192.6c-1.2-1.2-3.1-1.2-4.3,0c-1.2,1.2-1.2,3.1,0,4.3l27.8,28.3h8.6L182.6,192.6z"
				/>
			<path id="XMLID_5538_" class="st12" d="M231.3,135c-1.5-0.8-3.3-0.2-4.1,1.3l-52.5,88.9h6.9l51-86.1
				C233.4,137.6,232.8,135.8,231.3,135z"/>
		</g>
		<g id="XMLID_5557_">
			<path id="XMLID_5537_" class="st13" d="M194.9,210c15.2,0,22.8-7.6,34.2-72.3h57c-11.4,64.7-19,72.3-34.2,72.3H194.9z"/>
			<path id="XMLID_5536_" class="st14" d="M206.3,210c15.2,0,22.8-7.6,34.2-72.3h11.4c-11.4,64.7-19,72.3-34.2,72.3H206.3z"/>
			<path id="XMLID_5535_" class="st14" d="M229.1,210c15.2,0,22.8-7.6,34.2-72.3h11.4c-11.4,64.7-19,72.3-34.2,72.3H229.1z"/>
		</g>
		<g id="XMLID_5547_">
			<path id="XMLID_5528_" class="st15" d="M255.8,210c-11.4,0-15.2-7.6-19-15.2h-57c3.8,7.6,7.6,15.2,19,15.2H255.8z"/>
			<path id="XMLID_4211_" class="st16" d="M221.5,210c-11.4,0-15.2-7.6-19-15.2h-11.4c3.8,7.6,7.6,15.2,19,15.2H221.5z"/>
			<path id="XMLID_4210_" class="st16" d="M244.3,210c-11.4,0-15.2-7.6-19-15.2h-11.4c3.8,7.6,7.6,15.2,19,15.2H244.3z"/>
		</g>
		<rect id="XMLID_4127_" x="182.3" y="217.6" class="st12" width="57" height="3.8"/>
		<g id="XMLID_5541_">
			<path id="XMLID_4076_" class="st11" d="M238.9,192.6c-1.2-1.2-3.1-1.2-4.3,0c-1.2,1.2-1.2,3.1,0,4.3l27.8,28.3h8.6L238.9,192.6z"
				/>
			<path id="XMLID_3_" class="st12" d="M287.6,135c-1.5-0.8-3.3-0.2-4.1,1.3L231,225.2h6.9l51-86.1
				C289.7,137.6,289.1,135.8,287.6,135z"/>
		</g>
	</g>
	<g id="Beach_House_1_" class="st1">
		<polygon id="XMLID_12220_" class="st17" points="192,108.7 192,108.7 168.4,108.7 168.4,113 192,113 192,113 196.2,113 
			200.5,108.7 		"/>
		<polygon id="XMLID_12219_" class="st17" points="59.1,108.7 59.1,108.7 50.5,108.7 54.8,113 59.1,113 59.1,113 82.7,113 
			82.7,108.7 		"/>
		<g id="XMLID_12216_">
			<rect id="XMLID_12218_" x="82.7" y="83" class="st18" width="85.7" height="47.1"/>
			<rect id="XMLID_12217_" x="125.5" y="83" class="st19" width="42.9" height="47.1"/>
		</g>
		<g id="XMLID_12213_">
			<polygon id="XMLID_12215_" class="st18" points="125.5,44.4 52.7,87.3 198.4,87.3 			"/>
			<polygon id="XMLID_12214_" class="st19" points="125.5,44.4 125.5,87.3 198.4,87.3 			"/>
		</g>
		<g id="XMLID_9630_">
			<path id="XMLID_9658_" class="st17" d="M205.5,91.6h3.4l-10.5-6.1V83h-4.3l-8.5-4.9v-3.7h-6.3l-10.8-6.2v-2.3h-4l-8.8-5.1v-3.5
				h-6l-11.1-6.4v-2.1h-3.7l-7.4-4.3l2.4-1.4l1.2-0.7h-10.7l1.2,0.7l2.4,1.4l-7.4,4.3h-3.7v2.1l-11.1,6.4h-6v3.5l-8.8,5.1h-4v2.3
				l-10.8,6.2h-6.3v3.7L57,83h-4.3v2.5l-10.5,6.1h3.4l7.4-4.3h20.1L68,91.6h2.7l5.1-4.3h12.7l-3.6,4.3h2.2l3.6-4.3h9.1l-2.5,4.3h2
				l2.5-4.3h7.2l-1.6,4.3h1.8l1.6-4.3h6.3l-0.8,4.3h1.7l0.8-4.3h5.8v4.3h1.7v-4.3h5.8l0.8,4.3h1.7l-0.8-4.3h6.3l1.6,4.3h1.8
				l-1.6-4.3h7.2l2.5,4.3h2l-2.5-4.3h9.1l3.6,4.3h2.2l-3.6-4.3h12.7l5.1,4.3h2.7l-5.1-4.3H198L205.5,91.6z M131.6,53l3.6,4.3H134
				l-2.5-4.3H131.6z M134.4,53l5.1,4.3h-2.1l-3.6-4.3H134.4z M116.6,61.6h1.8l-1.6,4.3h-2.7L116.6,61.6z M112.2,65.8h-3.5l3.6-4.3
				h2.4L112.2,65.8z M128.1,53.9l1.2,3.4h-0.6L128.1,53.9z M129.7,53.3l2.3,3.9h-0.8L129.7,53.3z M124.7,57.3h-0.5l0.5-3.1V57.3z
				 M122.4,57.3h-0.6l1.2-3.4L122.4,57.3z M119.9,57.3h-0.8l2.3-3.9L119.9,57.3z M120.2,61.6h1.4l-0.8,4.3h-2.2L120.2,61.6z
				 M123.4,61.6h1.3v4.3h-2.1L123.4,61.6z M126.4,61.6h1.3l0.8,4.3h-2.1V61.6z M126.4,57.3v-3.1l0.5,3.1H126.4z M129.4,61.6h1.4
				l1.6,4.3h-2.2L129.4,61.6z M132.7,61.6h1.8l2.5,4.3h-2.7L132.7,61.6z M136.4,61.6h2.4l3.6,4.3h-3.5L136.4,61.6z M141,61.6h3.6
				l5.1,4.3h-5.1L141,61.6z M119.6,53l-2.5,4.3h-1.3l3.6-4.3H119.6z M117.2,53l-3.6,4.3h-2.1l5.1-4.3H117.2z M110,61.6l-3.6,4.3
				h-5.1l5.1-4.3H110z M102.8,70.1l-3.6,4.3h-8.1l5.1-4.3H102.8z M105.1,70.1h4.6l-2.5,4.3h-5.7L105.1,70.1z M111.7,70.1h3.6
				l-1.6,4.3h-4.5L111.7,70.1z M117.1,70.1h3l-0.8,4.3h-3.8L117.1,70.1z M121.9,70.1h2.8v4.3h-3.6L121.9,70.1z M126.4,70.1h2.8
				l0.8,4.3h-3.6V70.1z M130.9,70.1h3l1.6,4.3h-3.8L130.9,70.1z M135.8,70.1h3.6l2.5,4.3h-4.5L135.8,70.1z M141.4,70.1h4.6l3.6,4.3
				h-5.7L141.4,70.1z M148.2,70.1h6.6l5.1,4.3h-8.1L148.2,70.1z M157.5,70.1h10.8l7.4,4.3h-13.2L157.5,70.1z M152.4,65.8l-5.1-4.3
				h6.2l7.4,4.3H152.4z M146.1,57.3h-3.9l-5.1-4.3h1.3v-0.2L146.1,57.3z M112.7,52.8V53h1.3l-5.1,4.3H105L112.7,52.8z M97.6,61.6
				h6.2l-5.1,4.3h-8.5L97.6,61.6z M82.7,70.1h10.8l-5.1,4.3H75.3L82.7,70.1z M60.5,83l7.4-4.3h15.5L78.2,83H60.5z M80.9,83l5.1-4.3
				h9.6L92.1,83H80.9z M94.3,83l3.6-4.3h6.9l-2.5,4.3H94.3z M104.3,83l2.5-4.3h5.4l-1.6,4.3H104.3z M112.4,83l1.6-4.3h4.7l-0.8,4.3
				H112.4z M119.6,83l0.8-4.3h4.3V83H119.6z M126.4,83v-4.3h4.3l0.8,4.3H126.4z M133.2,83l-0.8-4.3h4.7l1.6,4.3H133.2z M140.5,83
				l-1.6-4.3h5.4l2.5,4.3H140.5z M148.8,83l-2.5-4.3h6.9l3.6,4.3H148.8z M159,83l-3.6-4.3h9.6l5.1,4.3H159z M172.8,83l-5.1-4.3h15.5
				l7.4,4.3H172.8z"/>
			<path id="XMLID_9631_" class="st17" d="M198.4,85.5V83h-4.3l-8.5-4.9v-3.7h-6.3l-10.8-6.2v-2.3h-4l-8.8-5.1v-3.5h-6l-11.1-6.4
				v-2.1h-3.7l-7.4-4.3l2.4-1.4l1.2-0.7h-5.4v49.2h0.9v-4.3h5.8l0.8,4.3h1.7l-0.8-4.3h6.3l1.6,4.3h1.8l-1.6-4.3h7.2l2.5,4.3h2
				l-2.5-4.3h9.1l3.6,4.3h2.2l-3.6-4.3h12.7l5.1,4.3h2.7l-5.1-4.3H198l7.4,4.3h3.4L198.4,85.5z M168.4,70.1l7.4,4.3h-13.2l-5.1-4.3
				H168.4z M142.4,65.8h-3.5l-2.5-4.3h2.4L142.4,65.8z M141,61.6h3.6l5.1,4.3h-5.1L141,61.6z M136.9,65.8h-2.7l-1.6-4.3h1.8
				L136.9,65.8z M139.4,70.1l2.5,4.3h-4.5l-1.6-4.3H139.4z M141.4,70.1h4.6l3.6,4.3h-5.7L141.4,70.1z M148.2,70.1h6.6l5.1,4.3h-8.1
				L148.2,70.1z M153.5,61.6l7.4,4.3h-8.5l-5.1-4.3H153.5z M138.4,53v-0.2l7.7,4.4h-3.9l-5.1-4.3H138.4z M134.4,53l5.1,4.3h-2.1
				l-3.6-4.3H134.4z M131.6,53l3.6,4.3H134l-2.5-4.3H131.6z M132,57.3h-0.8l-1.4-3.9L132,57.3z M130.9,61.6l1.6,4.3h-2.2l-0.8-4.3
				H130.9z M129.3,57.3h-0.6l-0.6-3.4L129.3,57.3z M126.4,54.2l0.5,3.1h-0.5V54.2z M126.4,61.6h1.3l0.8,4.3h-2.1V61.6z M126.4,70.1
				h2.8l0.8,4.3h-3.6V70.1z M126.4,83v-4.3h4.3l0.8,4.3H126.4z M131.7,74.4l-0.8-4.3h3l1.6,4.3H131.7z M133.2,83l-0.8-4.3h4.7
				l1.6,4.3H133.2z M140.5,83l-1.6-4.3h5.4l2.5,4.3H140.5z M148.8,83l-2.5-4.3h6.9l3.6,4.3H148.8z M159,83l-3.6-4.3h9.6l5.1,4.3H159
				z M172.8,83l-5.1-4.3h15.5l7.4,4.3H172.8z"/>
		</g>
		<g id="XMLID_9605_">
			<rect id="XMLID_9629_" x="114.8" y="100.1" class="st17" width="21.4" height="30"/>
			<rect id="XMLID_9628_" x="125.5" y="100.1" class="st17" width="10.7" height="30"/>
		</g>
		<rect id="XMLID_9604_" x="147" y="134.4" class="st19" width="6.4" height="17.1"/>
		<rect id="XMLID_9603_" x="97.7" y="134.4" class="st18" width="6.4" height="17.1"/>
		<g id="XMLID_9593_">
			<g id="XMLID_9600_">
				<rect id="XMLID_9602_" x="117" y="134.4" class="st18" width="17.1" height="17.1"/>
				<rect id="XMLID_9601_" x="125.5" y="134.4" class="st19" width="8.6" height="17.1"/>
			</g>
			<g id="XMLID_9597_">
				<rect id="XMLID_9599_" x="114.8" y="138.7" class="st17" width="21.4" height="4.3"/>
				<rect id="XMLID_9598_" x="125.5" y="138.7" class="st17" width="10.7" height="4.3"/>
			</g>
			<g id="XMLID_9594_">
				<rect id="XMLID_9596_" x="114.8" y="147.3" class="st17" width="21.4" height="4.3"/>
				<rect id="XMLID_9595_" x="125.5" y="147.3" class="st17" width="10.7" height="4.3"/>
			</g>
		</g>
		<g id="XMLID_9589_">
			<rect id="XMLID_9592_" x="89.1" y="95.8" class="st11" width="19.3" height="21.4"/>
			<rect id="XMLID_9591_" x="91.3" y="98" class="st20" width="6.4" height="17.1"/>
			<rect id="XMLID_9590_" x="99.8" y="98" class="st20" width="6.4" height="17.1"/>
		</g>
		<g id="XMLID_9586_">
			<rect id="XMLID_9588_" x="119.1" y="104.4" class="st20" width="12.9" height="25.7"/>
			<rect id="XMLID_9587_" x="125.5" y="104.4" class="st21" width="6.4" height="25.7"/>
		</g>
		<g id="XMLID_9582_">
			<rect id="XMLID_9585_" x="142.7" y="95.8" class="st22" width="19.3" height="21.4"/>
			<rect id="XMLID_9584_" x="144.8" y="98" class="st21" width="6.4" height="17.1"/>
			<rect id="XMLID_9583_" x="153.4" y="98" class="st21" width="6.4" height="17.1"/>
		</g>
		<g id="XMLID_2450_">
			<rect id="XMLID_2452_" x="52.7" y="130.1" class="st17" width="145.7" height="4.3"/>
			<rect id="XMLID_2451_" x="125.5" y="130.1" class="st17" width="72.9" height="4.3"/>
		</g>
		<polygon id="XMLID_2449_" class="st17" points="110.5,121.6 108.4,121.6 106.3,121.6 102,121.6 99.8,121.6 95.5,121.6 93.4,121.6 
			89.1,121.6 87,121.6 82.7,121.6 80.5,121.6 76.3,121.6 74.1,121.6 69.8,121.6 67.7,121.6 54.8,121.6 52.7,121.6 50.5,121.6 
			50.5,123.7 52.7,123.7 52.7,134.4 54.8,134.4 54.8,123.7 67.7,123.7 67.7,134.4 69.8,134.4 69.8,123.7 74.1,123.7 74.1,134.4 
			76.3,134.4 76.3,123.7 80.5,123.7 80.5,134.4 82.7,134.4 82.7,123.7 87,123.7 87,134.4 89.1,134.4 89.1,123.7 93.4,123.7 
			93.4,134.4 95.5,134.4 95.5,123.7 99.8,123.7 99.8,134.4 102,134.4 102,123.7 106.3,123.7 106.3,134.4 108.4,134.4 108.4,123.7 
			110.5,123.7 		"/>
		<polygon id="XMLID_2448_" class="st17" points="200.5,121.6 198.4,121.6 196.2,121.6 183.4,121.6 181.2,121.6 177,121.6 
			174.8,121.6 170.5,121.6 168.4,121.6 164.1,121.6 162,121.6 157.7,121.6 155.5,121.6 151.3,121.6 149.1,121.6 144.8,121.6 
			142.7,121.6 140.5,121.6 140.5,123.7 142.7,123.7 142.7,134.4 144.8,134.4 144.8,123.7 149.1,123.7 149.1,134.4 151.3,134.4 
			151.3,123.7 155.5,123.7 155.5,134.4 157.7,134.4 157.7,123.7 162,123.7 162,134.4 164.1,134.4 164.1,123.7 168.4,123.7 
			168.4,134.4 170.5,134.4 170.5,123.7 174.8,123.7 174.8,134.4 177,134.4 177,123.7 181.2,123.7 181.2,134.4 183.4,134.4 
			183.4,123.7 196.2,123.7 196.2,134.4 198.4,134.4 198.4,123.7 200.5,123.7 		"/>
		<g id="XMLID_2421_">
			<rect id="XMLID_2428_" x="187.7" y="87.3" class="st19" width="4.3" height="64.3"/>
			<g id="XMLID_2422_">
				
					<rect id="XMLID_2425_" x="185.5" y="110.2" transform="matrix(0.7071 -0.7071 0.7071 0.7071 -22.7832 166.6874)" class="st22" width="8.6" height="1.3"/>
				
					<rect id="XMLID_2424_" x="185.5" y="110.2" transform="matrix(0.7071 0.7071 -0.7071 0.7071 133.9758 -101.7562)" class="st22" width="8.6" height="1.3"/>
			</g>
		</g>
		<g id="XMLID_2395_">
			<rect id="XMLID_2420_" x="59.1" y="87.3" class="st18" width="4.3" height="64.3"/>
			<g id="XMLID_2398_">
				
					<rect id="XMLID_2419_" x="57" y="110.2" transform="matrix(0.7071 0.7071 -0.7071 0.7071 96.3214 -10.85)" class="st11" width="8.6" height="1.3"/>
				
					<rect id="XMLID_2418_" x="57" y="110.2" transform="matrix(0.7071 -0.7071 0.7071 0.7071 -60.4376 75.7812)" class="st11" width="8.6" height="1.3"/>
			</g>
		</g>
	</g>
	<g id="XMLID_7697_" class="st1">
		<path id="XMLID_7699_" class="st9" d="M238.1,44c-3.5,8.1-8.5,15.8-11.1,24.1c-2.9,9.1-4.6,18.4-6.2,27.6
			c-1.7,9.9-3,20.8-2.5,30.9c4,0.8,9.4,0.1,13.1,1.6c-1.9-0.8-2.9-15.7-3-17.8c-0.5-7.2-0.2-14.5,0.6-21.7
			c1.7-14.5,5.8-28.7,11.2-42.6L238.1,44z"/>
		<path id="XMLID_7698_" class="st10" d="M241.2,46c-12.2-5.3-31.1,10.2-34.7,18.3c12.2-2.4,25-11,32.6-18.3
			c-3.1,11,4.6,25.7,17.3,31.8c0-11.4-2-27.3-17.8-31.8c9.7,1.2,27.5,8.1,33.1,14.7c2-13-19.9-21.2-33.1-15.5
			c6.6-2.9,12.7-6.9,20.4-8.1c6.6-1.2,13.3-1.2,19.9-1.2c-9.7-13.8-39.8-3.3-39.8,10.6c0-9.4-2-18.3-14.8-22.4
			c0.5,3.7,5.1,8.1,7.1,11.4c2.5,3.7,4.1,7.7,7.1,11.4c-6.6-5.3-10.7-7.7-19.9-8.1c-7.6-0.4-17.3,0-24.5,2.4
			c5.6,3.3,15.8,4.1,22.9,4.5c5.6,0.4,13.3-2.4,18.4-0.4L241.2,46z"/>
	</g>
	<path id="XMLID_2_" class="st23" d="M155,11.3c79.4,0,143.7,64.3,143.7,143.7S234.4,298.7,155,298.7S11.3,234.4,11.3,155
		S75.6,11.3,155,11.3 M155,0C113.6,0,74.7,16.1,45.4,45.4S0,113.6,0,155s16.1,80.3,45.4,109.6S113.6,310,155,310
		s80.3-16.1,109.6-45.4S310,196.4,310,155s-16.1-80.3-45.4-109.6S196.4,0,155,0L155,0z"/>
</g>
<g id="XMLID_6805_" class="st24">
	<path id="XMLID_46_" class="st25" d="M212.3,23.2c36.6,26.1,60.5,68.8,60.5,117.1c0,79.4-64.3,143.7-143.7,143.7
		c-20.4,0-39.7-4.2-57.3-11.9c23.5,16.7,52.2,26.6,83.3,26.6c79.4,0,143.7-64.3,143.7-143.7C298.7,96,263.1,45.3,212.3,23.2z"/>
</g>
<path id="XMLID_7972_" class="st25" d="M155,11.3c79.4,0,143.7,64.3,143.7,143.7S234.4,298.7,155,298.7S11.3,234.4,11.3,155
	S75.6,11.3,155,11.3 M155,0C113.6,0,74.7,16.1,45.4,45.4S0,113.6,0,155s16.1,80.3,45.4,109.6S113.6,310,155,310
	s80.3-16.1,109.6-45.4S310,196.4,310,155s-16.1-80.3-45.4-109.6S196.4,0,155,0L155,0z"/>
</svg>
