<?xml version="1.0" encoding="utf-8"?>
<!-- Generator: Adobe Illustrator 19.0.0, SVG Export Plug-In . SVG Version: 6.00 Build 0)  -->
<svg version="1.1" id="Layer_1" xmlns="http://www.w3.org/2000/svg" xmlns:xlink="http://www.w3.org/1999/xlink" x="0px" y="0px"
	 width="90px" height="90px" viewBox="0 0 90 90" style="enable-background:new 0 0 90 90;" xml:space="preserve">
<style type="text/css">
	.st0{fill:#ECEDF0;}
	.st1{fill:#A67C52;}
	.st2{fill:#5C7837;}
	.st3{fill:#CFCEA7;}
</style>
<g id="XMLID_12108_">
	<circle id="XMLID_12115_" class="st0" cx="45" cy="45" r="45"/>
</g>
<g id="XMLID_7700_">
	<path id="XMLID_7770_" class="st1" d="M41.9,25.3c2.3,5.3,5.5,10.3,7.2,15.6c1.9,5.9,3,11.9,4,18c1.1,6.4,2,13.5,1.6,20.1
		c-2.6,0.5-6.1,0.1-8.5,1.1c1.2-0.5,1.9-10.2,1.9-11.6c0.3-4.7,0.2-9.4-0.4-14.1c-1.1-9.4-3.8-18.7-7.3-27.7L41.9,25.3z"/>
	<path id="XMLID_7769_" class="st2" d="M39.9,26.6c7.9-3.4,20.2,6.6,22.5,11.9c-7.9-1.6-16.2-7.1-21.2-11.9c2,7.1-3,16.7-11.3,20.6
		c0-7.4,1.3-17.7,11.6-20.6c-6.3,0.8-17.9,5.3-21.5,9.5c-1.3-8.5,12.9-13.8,21.5-10.1c-4.3-1.9-8.3-4.5-13.2-5.3
		C24,20,19.7,20,15.4,20c6.3-9,25.8-2.1,25.8,6.9c0-6.1,1.3-11.9,9.6-14.5c-0.3,2.4-3.3,5.3-4.6,7.4c-1.7,2.4-2.6,5-4.6,7.4
		c4.3-3.4,7-5,12.9-5.3c5-0.3,11.3,0,15.9,1.6c-3.6,2.1-10.3,2.6-14.9,2.9c-3.6,0.3-8.6-1.6-11.9-0.3L39.9,26.6z"/>
	<g id="XMLID_7767_">
		<path id="XMLID_7768_" class="st3" d="M55.1,74.2c-1.5,0-3.2,0.2-4.7,0c-0.9-0.1-1.8-0.3-2.7-0.3c-0.6,0-0.7,0-1.1-0.4
			c-0.1-0.1,0.2-0.3,0.3-0.3c1.6-0.1,3,0.2,4.6,0.3c1.2,0,2.7-0.1,3.7,0.5C55.3,74.1,55.1,74.2,55.1,74.2L55.1,74.2z"/>
	</g>
	<g id="XMLID_7765_">
		<path id="XMLID_7766_" class="st3" d="M54.7,67.2c-0.9,0.6-2.1,0.4-3.1,0.5c-1.1,0.1-2.6,0.5-3.6-0.1c-0.2-0.1,0-0.2,0.1-0.3
			C49,67,50,67,51,66.9c1.2-0.1,2.3-0.2,3.5-0.1c0.1,0,0.2,0.1,0.2,0.1C54.7,67.1,54.7,67.1,54.7,67.2
			C54.7,67.2,54.7,67.2,54.7,67.2L54.7,67.2z"/>
	</g>
	<g id="XMLID_7763_">
		<path id="XMLID_7764_" class="st3" d="M53.6,60.2c-0.7,0.5-1.7,0.5-2.6,0.6c-0.7,0.1-2.3,0.5-2.8-0.1c-0.1-0.1,0.1-0.2,0.2-0.2
			c0.9-0.4,1.9-0.3,2.9-0.4c0.7-0.1,1.7-0.4,2.4-0.1C53.7,60.1,53.7,60.2,53.6,60.2L53.6,60.2z"/>
	</g>
	<g id="XMLID_7761_">
		<path id="XMLID_7762_" class="st3" d="M52.8,53.7c-0.7,0.6-1.8,0.8-2.6,1.1c-0.8,0.2-1.8,0.5-2.6,0.2c-0.2-0.1,0-0.3,0.1-0.3
			c0.9-0.3,1.8-0.4,2.6-0.6c0.8-0.2,1.6-0.5,2.4-0.5C52.8,53.6,52.8,53.7,52.8,53.7L52.8,53.7z"/>
	</g>
	<g id="XMLID_7759_">
		<path id="XMLID_7760_" class="st3" d="M52.1,51.7c-0.9,0.3-1.9,0.2-2.8,0.2c-0.9,0-2.1,0.2-2.9-0.2c-0.2-0.1,0.1-0.2,0.2-0.3
			c1-0.3,2.2-0.2,3.2-0.3c0.7,0,1.9-0.2,2.4,0.3C52.4,51.6,52.2,51.7,52.1,51.7L52.1,51.7z"/>
	</g>
	<g id="XMLID_7715_">
		<path id="XMLID_7758_" class="st3" d="M50,41.7c-1.5,0.2-2.6,1.5-4.1,1.9c-0.6,0.2-1.1-0.3-0.3-0.6c1.5-0.6,2.9-2,4.6-1.7
			C50.5,41.4,50.1,41.7,50,41.7L50,41.7z"/>
	</g>
	<g id="XMLID_7711_">
		<path id="XMLID_7714_" class="st3" d="M47.2,35c-1.1,0.1-2.7,0.7-3.7,0.2c-0.1-0.1,0.1-0.2,0.1-0.2c1.2-0.4,2.6-0.7,3.9-0.7
			C48.3,34.4,47.6,35,47.2,35L47.2,35z"/>
	</g>
	<g id="XMLID_7709_">
		<path id="XMLID_7710_" class="st3" d="M45.3,30.8c-0.8,0.4-1.9,0.9-2.9,0.9c-0.1,0-0.2-0.1-0.1-0.2c0.7-0.6,2-1.2,3-1.1
			C45.5,30.5,45.4,30.7,45.3,30.8L45.3,30.8z"/>
	</g>
</g>
</svg>
