<?xml version="1.0" encoding="utf-8"?>
<!-- Generator: Adobe Illustrator 19.0.0, SVG Export Plug-In . SVG Version: 6.00 Build 0)  -->
<svg version="1.1" id="Layer_1" xmlns="http://www.w3.org/2000/svg" xmlns:xlink="http://www.w3.org/1999/xlink" x="0px" y="0px"
	 width="100px" height="50px" viewBox="-343 236 100 50" style="enable-background:new -343 236 100 50;" xml:space="preserve">
<style type="text/css">
	.st0{fill:#5BC4BF;}
	.st1{opacity:0.4;fill:#FFFFFF;enable-background:new    ;}
	.st2{opacity:0.05;enable-background:new    ;}
	.st3{opacity:0.15;enable-background:new    ;}
	.st4{opacity:0.1;enable-background:new    ;}
	.st5{opacity:0.2;fill:#FFFFFF;enable-background:new    ;}
	.st6{fill:#419794;}
</style>
<g>
	<path class="st0" d="M-293,243.1L-293,243.1c0-5.5-1.7-7.1-6.9-7.1h-8.9l-0.5,1.6l-0.3-1.6h-1.6l-0.7,3.3l-1.1-3.3h-3.3l-1.9,2.1
		l-5.1-2.1h-5.4h-4.5h11.8h-14.6c-5.4,0-6.9,1.6-6.9,7.1v12.8l0.8,4.5l-0.8,2.4v5.9l2.5,2.9l-2.5,2.4v4.8c0,5.5,1.7,7.1,6.9,7.1
		h-1.7c1.4-0.9,3-1.7,4.7-1.7c3.2,0,5.2,0.9,6.1,1.7h1.9c1.3-0.7,3.1-1.7,5.5-1.7c1.3,0.1,2.4,0.8,3.4,1.7h3.3h8.5h4.3
		c5.4,0,6.9-1.7,6.9-7.1l0,0v-5v-8.9v-6.7l-1.7-1.4l1.7-1.2v-3l-1.7-3.8l1.7-2.8L-293,243.1L-293,243.1z"/>
	<path id="XMLID_11364_" class="st1" d="M-336.1,236L-336.1,236c-5.4,0-6.9,1.6-6.9,7.1l0,0h6.9V236z"/>
	<path id="XMLID_11362_" class="st2" d="M-343,278.9c0,5.5,1.7,7.1,6.9,7.1l0,0v-7.1H-343z"/>
	<path id="XMLID_11361_" class="st2" d="M-299.9,236L-299.9,236v7.1h6.9l0,0C-293,237.6-294.7,236-299.9,236z"/>
	<path id="XMLID_11359_" class="st3" d="M-299.9,286L-299.9,286c5.4,0,6.9-1.7,6.9-7.1h-6.9V286z"/>
	<path id="XMLID_11336_" class="st4" d="M-336.1,278.9v7.1h-1.7c1.4-0.9,3-1.7,4.7-1.7c3.2,0,5.2,0.9,6.1,1.7h1.9
		c1.3-0.7,3.1-1.7,5.5-1.7c1.3,0.1,2.4,0.8,3.4,1.7h3.3h8.5h4.3v-7.1H-336.1z"/>
	<polygon id="XMLID_11333_" class="st5" points="-343,243.1 -343,255.9 -342.2,260.4 -343,262.8 -343,268.7 -340.5,271.7 
		-343,274.1 -343,278.9 -336.1,278.9 -336.1,243.1 	"/>
	<polygon id="XMLID_11329_" class="st4" points="-293,243.1 -299.9,243.1 -299.9,253.9 -299.9,253.9 -302.9,259.3 -301.4,262.1 
		-301.4,266.3 -299.9,268.7 -301.4,272 -299.9,273.5 -299.9,278.9 -293,278.9 -293,273.9 -293,265 -293,258.2 -294.7,256.8 
		-293,255.5 -293,252.5 -294.7,248.7 -293,245.9 	"/>
	<polygon class="st5" points="-308.8,236 -309.3,237.6 -309.6,236 -311.3,236 -311.9,239.3 -313,236 -316.3,236 -318.2,238.1 
		-323.3,236 -328.7,236 -333.2,236 -321.3,236 -336.1,236 -336.1,243.1 -320.1,243.1 -315.9,240.1 -314.7,243.1 -312.9,243.1 
		-310.7,242 -310,243.1 -299.9,243.1 -299.9,236 	"/>
</g>
<g>
	<path class="st6" d="M-243,243.1L-243,243.1c0-5.5-1.7-7.1-6.9-7.1h-8.9l-0.5,1.6l-0.3-1.6h-1.6l-0.7,3.3l-1.1-3.3h-3.3l-1.9,2.1
		l-5.1-2.1h-5.4h-4.5h11.8h-14.6c-5.4,0-6.9,1.6-6.9,7.1v12.8l0.8,4.5l-0.8,2.4v5.9l2.5,2.9l-2.5,2.4v4.8c0,5.5,1.7,7.1,6.9,7.1
		h-1.7c1.4-0.9,3-1.7,4.7-1.7c3.2,0,5.2,0.9,6.1,1.7h1.9c1.3-0.7,3.1-1.7,5.5-1.7c1.3,0.1,2.4,0.8,3.4,1.7h3.3h8.5h4.3
		c5.4,0,6.9-1.7,6.9-7.1l0,0v-5v-8.9v-6.7l-1.7-1.4l1.7-1.2v-3l-1.7-3.8l1.7-2.8L-243,243.1L-243,243.1z"/>
	<path id="XMLID_7_" class="st1" d="M-286.1,236L-286.1,236c-5.4,0-6.9,1.6-6.9,7.1l0,0h6.9V236z"/>
	<path id="XMLID_6_" class="st2" d="M-293,278.9c0,5.5,1.7,7.1,6.9,7.1l0,0v-7.1H-293z"/>
	<path id="XMLID_5_" class="st2" d="M-249.9,236L-249.9,236v7.1h6.9l0,0C-243,237.6-244.7,236-249.9,236z"/>
	<path id="XMLID_4_" class="st3" d="M-249.9,286L-249.9,286c5.4,0,6.9-1.7,6.9-7.1h-6.9V286z"/>
	<path id="XMLID_3_" class="st4" d="M-286.1,278.9v7.1h-1.7c1.4-0.9,3-1.7,4.7-1.7c3.2,0,5.2,0.9,6.1,1.7h1.9
		c1.3-0.7,3.1-1.7,5.5-1.7c1.3,0.1,2.4,0.8,3.4,1.7h3.3h8.5h4.3v-7.1H-286.1z"/>
	<polygon id="XMLID_2_" class="st5" points="-293,243.1 -293,255.9 -292.2,260.4 -293,262.8 -293,268.7 -290.5,271.7 -293,274.1 
		-293,278.9 -286.1,278.9 -286.1,243.1 	"/>
	<polygon id="XMLID_1_" class="st4" points="-243,243.1 -249.9,243.1 -249.9,253.9 -249.9,253.9 -252.9,259.3 -251.4,262.1 
		-251.4,266.3 -249.9,268.7 -251.4,272 -249.9,273.5 -249.9,278.9 -243,278.9 -243,273.9 -243,265 -243,258.2 -244.7,256.8 
		-243,255.5 -243,252.5 -244.7,248.7 -243,245.9 	"/>
	<polygon class="st5" points="-258.8,236 -259.3,237.6 -259.6,236 -261.3,236 -261.9,239.3 -263,236 -266.3,236 -268.2,238.1 
		-273.3,236 -278.7,236 -283.2,236 -271.3,236 -286.1,236 -286.1,243.1 -270.1,243.1 -265.9,240.1 -264.7,243.1 -262.9,243.1 
		-260.7,242 -260,243.1 -249.9,243.1 -249.9,236 	"/>
</g>
</svg>
