<?xml version="1.0" encoding="utf-8"?>
<!-- Generator: Adobe Illustrator 19.0.0, SVG Export Plug-In . SVG Version: 6.00 Build 0)  -->
<svg version="1.1" id="Layer_1" xmlns="http://www.w3.org/2000/svg" xmlns:xlink="http://www.w3.org/1999/xlink" x="0px" y="0px"
	 width="310px" height="310px" viewBox="0 0 310 310" style="enable-background:new 0 0 310 310;" xml:space="preserve">
<style type="text/css">
	.st0{fill:#71E3CE;}
	.st1{opacity:0.8;clip-path:url(#XMLID_3_);fill:#FFFFFF;}
	.st2{clip-path:url(#XMLID_3_);}
	.st3{opacity:0.8;fill:#FFFFFF;}
	.st4{fill:url(#XMLID_17_);}
	.st5{fill:#768EA5;}
	.st6{fill:url(#XMLID_22_);}
	.st7{fill:#728D9F;}
	.st8{fill:#3F6930;}
	.st9{fill:#B0CD5F;}
	.st10{fill:#6D9637;}
	.st11{fill:url(#XMLID_31_);}
	.st12{fill:#5B7D2E;}
	.st13{fill:url(#XMLID_32_);}
	.st14{fill:#4D6720;}
	.st15{fill:url(#XMLID_33_);}
	.st16{fill:#603813;}
	.st17{fill:#406325;}
	.st18{fill:#24420E;}
	.st19{fill:none;}
	.st20{fill:#666666;}
	.st21{fill:#E6E6E6;}
	.st22{fill:#999999;}
	.st23{fill:#67C297;}
	.st24{fill:#A53108;}
	.st25{fill:#B3B3B3;}
	.st26{fill:#B75A39;}
	.st27{fill:#531904;}
	.st28{fill:#4A7561;}
	.st29{opacity:0.2;}
	.st30{fill:#BF0000;}
	.st31{fill:#42210B;}
	.st32{fill:#CCCCCC;}
	.st33{fill:#AB060D;}
	.st34{fill:#FFFFFF;}
	.st35{fill:#7C2506;}
	.st36{fill:#5D1C05;}
	.st37{fill:url(#XMLID_34_);}
	.st38{fill:#BFA02C;}
	.st39{fill:#709143;}
	.st40{fill:#4DB3A0;}
	.st41{opacity:0.25;}
</style>
<circle id="XMLID_7866_" class="st0" cx="155" cy="155" r="143.7"/>
<g id="XMLID_6815_">
	<defs>
		<circle id="XMLID_6995_" cx="155" cy="155" r="143.7"/>
	</defs>
	<clipPath id="XMLID_3_">
		<use xlink:href="#XMLID_6995_"  style="overflow:visible;"/>
	</clipPath>
	<path id="XMLID_7865_" class="st1" d="M-37.8,155.1c0,0,2.9-13.7,24.9-8.3c0,0,36.6-83,74.1-7.8c0,0,24.4-22.1,28.7,8.1
		c0,0,20.6-7.1,27.4,8.1L-37.8,155.1z"/>
	<g id="XMLID_3775_" class="st2">
		<path id="XMLID_4124_" class="st3" d="M245.3,69.8h48.8c0,0-0.9-4.8-5-5c-3.3-0.2-4.9,1.2-4.9,1.2s-1.2-3.6-4.3-4.4
			c-2.6-0.7-5.5,0.8-5.5,0.8s1-3.5-1.2-4.1c-1.4-0.4-4.3,1.2-4.3,1.2s1.6-6.4,1.6-9.5c0-3-1.2-6.4-5.3-6.5c-4.1-0.1-7.8,4-9.3,9.7
			c-1.5,5.7-2,8.9-2,8.9s-3.3-0.6-5,0.4C245.3,64.8,245.3,69.8,245.3,69.8z"/>
		<linearGradient id="XMLID_17_" gradientUnits="userSpaceOnUse" x1="185.9991" y1="57.2856" x2="185.9991" y2="261.7941">
			<stop  offset="0" style="stop-color:#FFFFFF"/>
			<stop  offset="0.5142" style="stop-color:#CBC6BB"/>
			<stop  offset="1" style="stop-color:#A6A3A3"/>
		</linearGradient>
		<polygon id="XMLID_4123_" class="st4" points="43.6,139.3 52.4,117.3 63.4,127.1 82.2,109.4 93.2,82.5 108.7,95.6 141.6,60.5 
			158.2,24.1 179.7,61 186.5,61.4 197.7,70 208.8,67.6 213.5,53.6 230.3,88.1 242.1,91.2 244.4,93.1 252.2,100.3 256.6,109.1 
			269.1,116.4 328.4,216.7 247.1,171.5 140.2,190.6 103.9,187.4 46.2,185.1 		"/>
		<polygon id="XMLID_4122_" class="st5" points="97.3,174.7 110.6,167.2 125.8,124.7 134,107.4 145.9,112.2 143.2,94.7 146.9,91 
			151.6,92.7 153.9,97.8 162.3,102.3 159.7,82.5 159.5,74.9 155.1,68.2 157.1,53.3 153.9,48.4 159,23.3 131.6,64.3 126.5,64 
			106.5,94.7 100.7,102.9 94.8,99.4 93.2,82.5 83.7,102.2 72.3,109.9 64.1,127.1 		"/>
		<linearGradient id="XMLID_22_" gradientUnits="userSpaceOnUse" x1="82.4104" y1="79.7378" x2="82.4104" y2="201.8643">
			<stop  offset="0" style="stop-color:#FFFFFF"/>
			<stop  offset="0.5142" style="stop-color:#CBC6BB"/>
			<stop  offset="1" style="stop-color:#A6A3A3"/>
		</linearGradient>
		<polygon id="XMLID_12729_" class="st6" points="96.6,149.8 64.1,75.6 63.9,74.9 63.4,75.6 52.4,59.9 43.6,95.2 46.2,168.8 
			103.9,172.5 121.3,174.9 		"/>
		<polygon id="XMLID_4121_" class="st5" points="13.6,212 62.9,186.8 50.8,91 54.5,77 53.1,59.9 44.3,80.1 		"/>
		<polygon id="XMLID_4120_" class="st7" points="121.4,186.1 148.3,141.5 170.4,122.1 179.7,99.6 171.6,65.9 176.7,65.9 183.2,74 
			186.9,72.6 192.3,76.6 202.3,65.9 208.1,63.3 214.2,53.6 214.2,76.8 207.6,85.8 200.2,120.1 219.7,144.3 190.7,156.1 165.1,168.9 
			135,195.8 		"/>
		<polygon id="XMLID_4119_" class="st7" points="265.8,150.8 254.2,132.9 246.7,114 242.8,111.5 245.1,93.1 242.8,91.2 231.1,110.6 
			229.7,148.9 247.8,165 		"/>
		<g id="XMLID_4104_">
			<path id="XMLID_4118_" class="st8" d="M250.1,165c0,0-27.8-39.3-45.6-39.3c-27.4,0-74.4,69.6-74.4,69.6s22.9,31.6,43.6,33.2
				c20.6,1.6,26,0.8,26,0.8L250.1,165z"/>
			<g id="XMLID_4105_">
				<polygon id="XMLID_4117_" class="st8" points="209.5,128.7 210.9,128.7 208.4,125.3 210,125.3 207.8,122.3 208.9,122.3 
					206.4,117.6 203.9,122.3 205,122.3 202.8,125.3 204.4,125.3 201.9,128.7 203.3,128.7 201.1,131.6 206.4,131.6 211.7,131.6 				
					"/>
				<polygon id="XMLID_4116_" class="st8" points="203.4,131.3 204.8,131.3 202.3,127.9 203.9,127.9 201.7,124.9 202.8,124.9 
					200.3,120.2 197.9,124.9 199,124.9 196.8,127.9 198.4,127.9 195.9,131.3 197.2,131.3 195,134.2 200.3,134.2 205.6,134.2 				"/>
				<polygon id="XMLID_4115_" class="st8" points="197.5,130.2 198.5,130.2 196.7,127.7 197.8,127.7 196.2,125.5 197,125.5 
					195.2,122.1 193.4,125.5 194.2,125.5 192.6,127.7 193.8,127.7 191.9,130.2 192.9,130.2 191.3,132.3 195.2,132.3 199.1,132.3 
									"/>
				<polygon id="XMLID_4114_" class="st8" points="214,130.2 215,130.2 213.1,127.7 214.3,127.7 212.7,125.5 213.5,125.5 
					211.7,122.1 209.9,125.5 210.7,125.5 209.1,127.7 210.2,127.7 208.4,130.2 209.4,130.2 207.8,132.3 211.7,132.3 215.6,132.3 
									"/>
				<polygon id="XMLID_4113_" class="st8" points="220.3,131.7 221.3,131.7 219.5,129.2 220.7,129.2 219.1,127 219.9,127 
					218.1,123.6 216.2,127 217.1,127 215.4,129.2 216.6,129.2 214.8,131.7 215.8,131.7 214.2,133.8 218.1,133.8 221.9,133.8 				"/>
				<polygon id="XMLID_4112_" class="st8" points="190.9,133.6 191.9,133.6 190.1,131.1 191.3,131.1 189.7,128.9 190.5,128.9 
					188.7,125.4 186.8,128.9 187.7,128.9 186,131.1 187.2,131.1 185.4,133.6 186.4,133.6 184.8,135.7 188.7,135.7 192.5,135.7 				
					"/>
				<polygon id="XMLID_4111_" class="st8" points="185.9,135.4 186.9,135.4 185.1,132.1 186.3,132.1 184.6,129.2 185.5,129.2 
					183.6,124.6 181.8,129.2 182.6,129.2 181,132.1 182.2,132.1 180.4,135.4 181.4,135.4 179.8,138.2 183.6,138.2 187.5,138.2 				
					"/>
				<polygon id="XMLID_4110_" class="st8" points="176.8,143.8 177.8,143.8 175.9,141.3 177.1,141.3 175.5,139.1 176.3,139.1 
					174.5,135.7 172.7,139.1 173.5,139.1 171.9,141.3 173,141.3 171.2,143.8 172.2,143.8 170.6,145.9 174.5,145.9 178.4,145.9 				
					"/>
				<polygon id="XMLID_4109_" class="st8" points="171.5,149.4 172.5,149.4 170.7,146.9 171.8,146.9 170.2,144.7 171,144.7 
					169.2,141.3 167.4,144.7 168.2,144.7 166.6,146.9 167.8,146.9 165.9,149.4 166.9,149.4 165.3,151.5 169.2,151.5 173.1,151.5 
									"/>
				<polygon id="XMLID_4108_" class="st8" points="225,136.3 225.7,136.3 224.4,134.4 225.2,134.4 224,132.7 224.6,132.7 
					223.3,130.1 221.9,132.7 222.5,132.7 221.3,134.4 222.1,134.4 220.8,136.3 221.5,136.3 220.3,137.9 223.3,137.9 226.2,137.9 
									"/>
				<polygon id="XMLID_4107_" class="st8" points="229.1,139.1 229.6,139.1 228.6,137.2 229.2,137.2 228.4,135.6 228.8,135.6 
					227.8,133 226.9,135.6 227.3,135.6 226.4,137.2 227.1,137.2 226.1,139.1 226.6,139.1 225.8,140.7 227.8,140.7 229.9,140.7 				
					"/>
				<polygon id="XMLID_4106_" class="st8" points="180,139.2 180.7,139.2 179.5,136.7 180.3,136.7 179.2,134.5 179.7,134.5 
					178.5,131 177.3,134.5 177.8,134.5 176.7,136.7 177.5,136.7 176.3,139.2 177,139.2 175.9,141.3 178.5,141.3 181.1,141.3 				"/>
			</g>
		</g>
		<path id="XMLID_4096_" class="st9" d="M225.4,232.5c1.3-0.7,2.7-1.4,4.1-2c14.1-5.7,32.4-7.4,49.2-8.2c19.7-1,45.4-1.3,68.3,1.4
			c-8.3-9.7-25.6-29.8-33.1-37.9c-1.5-1.7-3.1-3.3-4.8-5h0.4l-1.5-1.9h0.9l-1.7-2.3h1.1l-1.5-2h0.8l-1.7-3.2l-1.7,3.2h0.8l-0.8,1
			l-1.1-1.4h0.9l-1.7-2.3h1.1l-1.5-2h0.8l-1.7-3.2l-1.7,3.2h0.8l-0.8,1.1l-0.5-1h0.6l-1.1-2.3h0.7l-1-2h0.5l-1.1-3.2l-1.1,3.2h0.5
			l-1,2h0.7l-0.5,1l-1.3-2.2h0.9l-1.7-3.1h1.1l-1.5-2.7h0.8l-1.7-4.3l-1.7,4.3h0.8l-1.5,2.7h1.1l-0.5,1l-1.4-1.9h1.1l-1.5-2h0.8
			l-1.7-3.2l-1.7,3.2h0.8l-1.5,2h1.1l-0.7,0.9c-0.7-0.3-1.5-0.7-2.2-0.9l-0.5-0.7h1.1l-1.5-2h0.8l-1.7-3.2l-1.5,2.9l-2-2.6h1
			l-2.3-4.4l-2.3,4.4h1l-1.4,1.9l-1.1-1.5h1.5l-2.1-2.8h1l-2.3-4.4l-2.3,4.4h1l-2.1,2.8h1.5l-1.6,2.2l-1.6-2.2h1.5l-2.1-2.8h1
			l-2.3-4.4l-2.3,4.4h1l-2.1,2.8h1.5l-1.1,1.5l-1.4-1.9h1l-2.3-4.4l-2.3,4.4h1l-2,2.6l-1.5-2.9l-1.7,3.2h0.8l-1.5,2h1.1l-0.5,0.7
			c-0.7,0.3-1.5,0.6-2.2,0.9l-0.7-0.9h1.1l-1.5-2h0.8l-1.7-3.2l-1.7,3.2h0.8l-1.5,2h1.1l-1.4,1.9l-0.5-1h1.1l-1.5-2.7h0.8l-1.7-4.3
			l-1.7,4.3h0.8l-1.5,2.7h1.1l-1.7,3.1h0.9l-1.3,2.2l-0.5-1h0.7l-1-2h0.5l-1.1-3.2l-1.1,3.2h0.5l-1,2h0.7l-1.1,2.3h0.6l-0.5,1
			l-0.8-1.1h0.8l-1.7-3.2l-1.7,3.2h0.8l-1.5,2h1.1l-1.7,2.3h0.9l-1.1,1.4l-0.8-1h0.8l-1.7-3.2l-1.7,3.2h0.8l-1.5,2h1.1l-1.7,2.3h0.9
			l-1.5,1.9h0.4c-1.7,1.7-3.3,3.3-4.8,5c-10.1,10.9-37.7,43.3-37.7,43.3l20.4,2.8L225.4,232.5z M299.5,171.8l-0.2,0.3
			c-0.1-0.1-0.2-0.2-0.4-0.3H299.5z M295.6,168.9l-0.1,0.2c-0.1-0.1-0.2-0.1-0.3-0.2H295.6z M290.3,164.6l-0.2,0.3l-0.3-0.3H290.3z
			 M280,159.4l-0.1,0.1h0.8l-1,1.3l-1-1.4H280z M275,159.4l-0.1,0.1l-0.1-0.1H275z M274.5,160.1l-0.1,0.1c-0.1,0-0.1,0-0.2,0
			l-0.1-0.1H274.5z M268.4,160.1L268.4,160.1c-0.2,0-0.4,0.1-0.6,0.1c-0.2,0-0.3,0-0.5-0.1l0,0H268.4z M261.5,160.1l-0.1,0.1
			c-0.1,0-0.1,0-0.2,0l-0.1-0.1H261.5z M260.8,159.4l-0.1,0.1l-0.1-0.1H260.8z M255.7,159.5l-0.1-0.1h1.3l-1,1.4l-1-1.3H255.7z
			 M245.8,164.6l-0.3,0.3l-0.2-0.3H245.8z M240.5,168.9c-0.1,0.1-0.2,0.1-0.3,0.2l-0.1-0.2H240.5z M236.7,171.8
			c-0.1,0.1-0.2,0.2-0.4,0.3l-0.2-0.3H236.7z"/>
		<g id="XMLID_4075_">
			<path id="XMLID_4091_" class="st10" d="M110.5,156c41.1,0,66.3,69.5,98.5,70.2c32.3,0.8,9.4-0.9,10.7-0.9c1.3,0-29.4,12.1-60.2,6
				c-30.9-6-30.6-19.1-65.7-19.1c-27.3,0-66.5,12.6-66.5,12.6S55.4,156,110.5,156z"/>
			<g id="XMLID_4077_">
				<polygon id="XMLID_4090_" class="st10" points="96.8,155.1 95,155.1 98.2,150.8 96.2,150.8 98.9,147.1 97.5,147.1 100.6,141.2 
					103.7,147.1 102.4,147.1 105.1,150.8 103.1,150.8 106.2,155.1 104.5,155.1 107.3,158.7 100.6,158.7 94,158.7 				"/>
				<polygon id="XMLID_4089_" class="st10" points="105.2,156.7 103.5,156.7 106.6,152.4 104.6,152.4 107.4,148.7 106,148.7 
					109.1,142.8 112.2,148.7 110.8,148.7 113.6,152.4 111.6,152.4 114.7,156.7 113,156.7 115.7,160.3 109.1,160.3 102.4,160.3 				
					"/>
				<polygon id="XMLID_4088_" class="st10" points="111.8,158.5 110.6,158.5 112.9,155.4 111.4,155.4 113.4,152.6 112.4,152.6 
					114.7,148.3 117,152.6 115.9,152.6 118,155.4 116.5,155.4 118.8,158.5 117.5,158.5 119.6,161.1 114.7,161.1 109.8,161.1 				"/>
				<polygon id="XMLID_4087_" class="st10" points="120.1,159.5 118.8,159.5 121.1,156.4 119.6,156.4 121.7,153.6 120.6,153.6 
					122.9,149.3 125.2,153.6 124.2,153.6 126.2,156.4 124.7,156.4 127,159.5 125.8,159.5 127.8,162.1 122.9,162.1 118,162.1 				"/>
				<polygon id="XMLID_4086_" class="st10" points="126.3,161.8 125.1,161.8 127.4,157.7 125.9,157.7 128,154 126.9,154 
					129.2,148.3 131.5,154 130.5,154 132.5,157.7 131,157.7 133.3,161.8 132.1,161.8 134.1,165.3 129.2,165.3 124.3,165.3 				"/>
				<polygon id="XMLID_4085_" class="st10" points="137.8,172.3 136.6,172.3 138.9,169.2 137.4,169.2 139.4,166.5 138.4,166.5 
					140.7,162.1 143,166.5 141.9,166.5 144,169.2 142.5,169.2 144.8,172.3 143.5,172.3 145.6,175 140.7,175 135.8,175 				"/>
				<polygon id="XMLID_4084_" class="st10" points="144.5,178.8 143.2,178.8 145.5,175.6 144,175.6 146.1,172.9 145,172.9 
					147.3,168.6 149.6,172.9 148.6,172.9 150.6,175.6 149.1,175.6 151.4,178.8 150.2,178.8 152.2,181.4 147.3,181.4 142.4,181.4 
									"/>
				<polygon id="XMLID_4083_" class="st10" points="88.8,160.1 87.5,160.1 89.8,157 88.4,157 90.4,154.3 89.4,154.3 91.7,149.9 
					93.9,154.3 92.9,154.3 94.9,157 93.5,157 95.8,160.1 94.5,160.1 96.5,162.8 91.7,162.8 86.8,162.8 				"/>
				<polygon id="XMLID_4082_" class="st10" points="81.5,165.2 80.3,165.2 82.5,161.3 81.1,161.3 83.1,157.8 82.1,157.8 84.3,152.3 
					86.6,157.8 85.6,157.8 87.6,161.3 86.1,161.3 88.4,165.2 87.1,165.2 89.1,168.6 84.3,168.6 79.5,168.6 				"/>
				<polygon id="XMLID_4081_" class="st10" points="74.4,165.4 73.2,165.4 75.4,162.5 74,162.5 76,159.9 75,159.9 77.2,155.9 
					79.5,159.9 78.5,159.9 80.5,162.5 79,162.5 81.3,165.4 80.1,165.4 82.1,167.8 77.2,167.8 72.4,167.8 				"/>
				<polygon id="XMLID_4080_" class="st10" points="67.9,173.6 66.7,173.6 68.9,170.7 67.5,170.7 69.5,168.1 68.5,168.1 70.7,164.1 
					73,168.1 72,168.1 74,170.7 72.5,170.7 74.8,173.6 73.6,173.6 75.6,176 70.7,176 65.9,176 				"/>
				<polygon id="XMLID_4079_" class="st10" points="62.7,176.9 61.6,176.9 63.5,174 62.3,174 64,171.4 63.2,171.4 65.1,167.4 
					67,171.4 66.2,171.4 67.9,174 66.6,174 68.6,176.9 67.5,176.9 69.3,179.3 65.1,179.3 60.9,179.3 				"/>
				<polygon id="XMLID_4078_" class="st10" points="133.6,165.7 132.8,165.7 134.3,162.5 133.3,162.5 134.7,159.8 134,159.8 
					135.5,155.5 137.1,159.8 136.4,159.8 137.8,162.5 136.8,162.5 138.3,165.7 137.5,165.7 138.8,168.3 135.5,168.3 132.2,168.3 
									"/>
			</g>
		</g>
		<linearGradient id="XMLID_31_" gradientUnits="userSpaceOnUse" x1="1.5549" y1="226.4495" x2="238.4338" y2="226.4495">
			<stop  offset="0" style="stop-color:#97C45A"/>
			<stop  offset="1" style="stop-color:#72A134"/>
		</linearGradient>
		<path id="XMLID_4074_" class="st11" d="M238.4,217.9c0,0-49.4,12.3-88.1,2.5c-38.7-9.9-50.8-30.1-85.5-29.8
			c-27.4,0.2-63.3,35.3-63.3,35.3l4.1,14.6c8.2,16.4,24.1,22.6,39.7,21.8c13.8-0.7,31.4-1.9,49.2-4
			C166.9,250,238.4,217.9,238.4,217.9z"/>
		<path id="XMLID_4073_" class="st12" d="M64.8,207.8c23.5,1.5,56.6,16.9,93.6,19.2c41.9,2.6,80-9.4,80-9.4s-49.4,12.3-88.1,2.5
			c-38.7-9.9-46.8-28.8-85.5-29.8C7.9,188.6,0,226.5,0,226.5S24.7,205.2,64.8,207.8z"/>
		<linearGradient id="XMLID_32_" gradientUnits="userSpaceOnUse" x1="21.4419" y1="256.2206" x2="312.2614" y2="256.2206">
			<stop  offset="0" style="stop-color:#97C45A"/>
			<stop  offset="1" style="stop-color:#72A134"/>
		</linearGradient>
		<path id="XMLID_35_" class="st13" d="M166.5,297.5c3.1-0.7,6.1-1.3,8.9-1.8c10.8-2,26.3-2.1,37.1-1.2c11,0.9,26.3,7.8,36.8,6.5
			c16.3-2,2.9-10.9-4.9-13.2c-8.5-2.5-20.8-1.3-27-7.9c-11.8-12.5,11.2,0.7,25.3-6.8c14.1-7.6,19.2-41.3,35.9-42.4
			c10-0.6,21.6-1.1,33.6-0.9c-5.1-10.8-17.1-32.8-30.7-32.8c-28.5,0-61.8,20.9-87.2,32.2c-73.5,32.8-173,26.6-173,26.6l28.1,47.1
			c5.5,10.9,15.8,15.5,25.1,11c15.3-7.4,42.7-16.6,83.4-16.6C160.9,297.3,163.7,297.3,166.5,297.5z"/>
		<path id="XMLID_3804_" class="st3" d="M90.2,79.6c0,0-0.9-3.3-3.3-3.3c-2.4,0-3.3,1.1-3.3,1.1s0.4-5.9-3.2-5.9c-3.6,0-3.9,2-3.9,2
			s1.2-10.1-4.1-10.1c-5.3,0-8.3,9.4-8.3,9.4s-3-2-7.2,1.6c-2.1,1.8-2.4,5.1-2.4,5.1H90.2z"/>
		<path id="XMLID_3803_" class="st3" d="M118.7,103.1h46.7c0,0,0.7-7.4-3-8.1c-3.4-0.6-4.4,1.3-4.4,1.3s1.1-9.3-3.6-9.5
			c-2.7-0.1-3.3,2.2-3.3,2.2s-2.4-9.8-8.5-9.8c-6.1,0-5.2,8.9-5.2,8.9s-2.2-0.4-4.1,0.8c-2.8,1.7-2.2,4.9-2.2,4.9s-4.7-0.9-6.7,1.4
			c-2.1,2.3-1.7,4.7-1.7,4.7s-2.2,0.2-3.1,1.2C118.6,102.2,118.7,103.1,118.7,103.1z"/>
		<path id="XMLID_4072_" class="st14" d="M88.2,266.9c-5.6-1.4-12-2.6-17.8-3.4c-7.1-1-14.3-0.9-20.6-3.5c0-0.5,0-0.9,0-1.4
			c0.1,0,0.2-0.1,0.4-0.1c1.2-0.9,12.1-0.1,14.1,0c5.9,0.5,12.3,0.3,18.4,0c5.1-0.3,9.8-1.9,14.9-1.9c5.1,0,9.4,1.7,14.5,1.9
			c12.1,0.4,23.4-4.1,35.6-3.8c7.1,0.2,13.8,0,21-0.4c4-0.2,12.8-1,19.2-1.7c5.2-0.6,10.6,0.3-0.3,4.9c-8.6,3.6-19.8,5.5-28.6,6.5
			c-9.2,1.1-26.6,3.4-35.7,4.3C107.7,269.9,96.3,268.9,88.2,266.9z"/>
		<g id="XMLID_15442_">
			<g id="XMLID_4034_">
				
					<linearGradient id="XMLID_33_" gradientUnits="userSpaceOnUse" x1="4446.23" y1="251.0389" x2="4462.1748" y2="251.0389" gradientTransform="matrix(-1 0 0 1 4623.0039 0)">
					<stop  offset="4.255320e-02" style="stop-color:#89942E"/>
					<stop  offset="1" style="stop-color:#CEB826"/>
				</linearGradient>
				<path id="XMLID_4038_" class="st15" d="M176.6,256.1c0.2-0.6,0.2-1.3,0.2-2.2c-0.4,0.2-0.9,0.4-1.6,0.6
					c-2.5,0.7-4.8-0.1-4.8-0.1s4.2-1.6,6.2-2.1c-0.1-1-0.6-1.9-1.2-2.8c-0.1,0-0.1,0-0.2,0c-0.9,0.2-1.7-0.1-1.7-0.1
					s0.4-0.6,1.1-0.9c-0.3-0.4-0.7-0.7-1.1-1c-0.2,0.1-0.5,0.2-0.8,0.2c-0.9,0.2-1.6,0.1-1.6,0.1s0.6-0.5,1.5-0.7
					c0.2,0,0.3-0.1,0.4-0.1c-3-2.1-7.1-3-9.7-1.2c0.9-0.1,2.6-0.1,4.3,0.5c2.6,0.8,4.4,2.5,4.4,2.5s-2.3,0-4.9-0.8
					c-1.9-0.6-3.5-1.5-4.2-1.9c-0.4,0.4-0.8,0.8-1.1,1.4c-0.4,0.7-0.7,1.4-0.8,2.1c0.4,0,0.9,0.1,1.4,0.2c1.9,0.6,3.1,2.1,3.1,2.1
					s-1.7,0.1-3.6-0.5c-0.4-0.1-0.7-0.3-1-0.4c0,1.2,0.2,2.3,0.6,3.2c0.2,0.7,2.4,2.1,3.3,0.9c0.9-1.2,3.4-0.5,3.4-0.5
					s-1.3,0,1.7,1.5C172.4,257.7,175.7,256.5,176.6,256.1z M167.3,251.7c1,0.3,3.1,1.4,3.1,1.4s-1.4,0.5-2.1,0.5
					c-1.2,0-1.7-1.1-1.7-1.1S166.4,251.4,167.3,251.7z M168.3,250.7c0,0,1.6-0.9,3.4-0.8c1.9,0.1,3.4,1.1,3.4,1.1s-1.5,0.5-3.4,0.4
					C169.8,251.2,168.3,250.7,168.3,250.7z"/>
				<g id="XMLID_4035_">
					<path id="XMLID_4037_" class="st16" d="M162.2,249.8c0.1,0.3,0.3,1.3,0.5,1.5c0.2-0.3,0.1-1.2,0.1-1.2c0.2,0.5,0.2,0.9,0.1,1.6
						c0.3,0.5,0.7,0.8,1.2,1.1c0.2,0.1,0.4,0.1,0.7,0.2c0.2,0,0.4,0.1,0.6,0.1c-0.1-0.5-0.2-0.9-0.3-1.4c0,0,0,0,0,0c0,0,0,0-0.1,0
						c-0.5-0.1-1.8-1.1-2.3-2.2c0,0,1.2,1.6,2.3,1.9c0-0.2-0.1-0.3-0.2-0.5c-0.2-0.6-0.8-1.7-1.1-2.5c-0.1-0.2-0.2-0.4-0.3-0.6
						c0,0,1.1,1.8,1.4,2.4c0.2-0.6,0.3-1.6-0.1-2.9c0,0,0.8,1.4,0.2,3.2c0,0.1,0.1,0.2,0.1,0.2c0.3,0.8,0.5,1.6,0.6,2.5
						c0.2-0.5,0.7-1,1.1-1.4c0,0,0.1-0.1,0.1-0.1c-0.1-0.4-0.2-0.8-0.2-1.2c-0.7-0.3-1-0.9-1-2.1h0.3c0,1,0.2,1.6,0.7,1.8
						c0-0.4,0.1-0.7,0.2-1.1c-0.1-0.1-0.2-0.2-0.3-0.4c-0.7-0.9-1.5-1.9-1.6-2.9c0,0,0.8,1.4,1.3,2.1c0-0.4,0-1.1-0.1-1.4
						c0,0,0.5,1.3,0.4,1.7c0.1,0.1,0.2,0.3,0.3,0.4c0.1,0.1,0.1,0.1,0.2,0.2c0-0.1,0.4-0.4,0.4-0.4l-0.1,0.2c0,0.1-0.1,0.3-0.1,0.4
						c0.1,0.2,0.2,0.3,0.3,0.5c0.1,0.2,0.3,0.4,0.5,0.6c0.2,0.3,0.4,0.5,0.6,0.8c0-0.1,0-0.1,0-0.2c0-0.2-0.1-0.4-0.1-0.6
						c-0.2-0.9-0.4-1.8-0.8-2.7c-0.2-0.4-0.4-0.7-0.7-1.1c-0.2-0.3-0.4-0.5-0.5-0.8c0,0,0.6,0.4,0.7,0.7c0.2,0.3,0.5,0.7,0.7,1.1
						c0.2,0.3,0.3,0.6,0.4,0.9c0.2-0.5-0.1-1.2-0.3-1.8c-0.2-0.4-0.1-1.1-0.1-1.1c0,0.3,0.2,0.6,0.3,1c0.3,0.8,0.6,1.6,0.2,2.3
						c0.2,0.5,0.3,1,0.4,1.5c0,0.2,0.1,0.4,0.1,0.6c0.4,1.9-0.1,4.6-0.5,6.5c0.3-0.6,0.5-1.3,0.8-1.9c0.4-1,0.8-1.9,1.2-2.9
						c0-0.4,0-0.5,0-0.8c0-0.1,0-0.1,0-0.2c-0.1-0.5-0.2-1.1-0.2-1.7c-0.1-0.3-0.2-0.7-0.4-1c-0.2-0.3-0.4-0.7-0.5-1
						c-0.1-0.5-0.2-1-0.2-1.5c0-0.1,0-0.2,0-0.3c0-0.4,0-0.9,0.1-1.3c0,0,0.1,0.9,0.1,1.2c0,0.1,0,0.2,0,0.3c0,0.5,0.1,1,0.2,1.5
						c0.1,0.3,0.3,0.6,0.4,0.9c0.1,0.1,0.1,0.3,0.2,0.4c0,0,0,0,0,0c0-0.7,0.1-1.5,0.3-2.2c0-0.1,0.4-1.2,0.4-1.2
						c0.1,0.3,0,0.6-0.1,0.9l0,0.1c0,0.1,0,0.2,0,0.3c0,0.3-0.1,0.5-0.1,0.8l0,0c0.4-0.3,0.9-0.7,1-1.2c0,0,0.2,0.8-0.8,1.4
						c-0.1,0-0.1,0.1-0.2,0.1c0,0.3-0.1,0.7-0.1,1c0,0.3,0,0.5,0,0.8c0,0,0,0,0,0.1l0,0c0,0.6,0.1,1.1,0.2,1.6c0,0.1,0,0.2,0,0.2
						c0,0.1,0,0.2,0,0.2c0.3-0.7,0.7-1.4,1-2.1c0,0,0-0.1,0-0.1c0-0.4-0.1-3.2,0.8-3.6c0,0-0.2,0.4-0.4,1.1
						c-0.1,0.7-0.2,1.5-0.2,2.1c0,0,0-0.1,0.1-0.1c0.3-0.4,0.5-0.9,0.7-1.3c0.2-0.4,0.5-1.3,0.5-1.3c0.1,0.9-0.5,2-1.1,2.8
						c-0.1,0.2-0.3,0.4-0.4,0.6c-0.2,0.3-0.3,0.7-0.5,1c0.4,0,0.8-0.1,1.3-0.3c0.1-0.1,0.3-0.1,0.4-0.1c0.2-0.1,0.4-0.4,0.7-0.6
						c0-0.6,0.2-1.4,0.3-1.9c0,0-0.1,1.2-0.1,1.7c0.3-0.3,0.8-0.4,0.8-0.4c-0.1,0.1-0.6,0.6-1.1,1c0,0-0.5,0.4-0.9,0.5
						c-0.4,0.2-0.9,0.3-1.3,0.3c-0.1,0-0.1,0-0.2,0c-0.2,0.5-0.5,1-0.7,1.4c0.9,0,2.3-0.3,3.3-0.7c-0.2-0.8,0.3-1.7,1.1-2.3
						c0,0-0.5,0.6-0.7,1.2c-0.1,0.3-0.1,0.8-0.1,1c0.1,0,0.4-0.1,0.7-0.3c0.4-0.3,0.8-0.7,0.8-0.7c0,0.4-0.5,0.7-0.8,0.9l-0.1,0
						c-0.5,0.4-1.6,0.8-2.7,1c0.3,0.5,1.2,1,2.1,1.3c0,0,0,0,0,0c0.3-0.5,0.5-0.8,0.8-1c0,0,0.1-0.1,0.1-0.1c0.1-0.3,0.4-0.9,0.8-1
						c0,0-0.4,0.6-0.5,0.9c0.2-0.1,0.5,0,0.6,0c0,0-1.2,0.3-1.6,1.3c0.4,0.2,1.4,0,1.4,0c-0.2,0.2-0.6,0.3-1,0.3
						c-0.2,0-0.5,0-0.8-0.1c-0.9-0.2-2-0.8-2.3-1.5c-0.5,0.1-0.9,0.1-1.3,0.1c0,0-0.1,0-0.1,0c-0.4,0.8-0.7,1.6-1,2.5
						c0.5,0.1,1,0.4,1.4,0.6c0.2,0.1,0.3,0.2,0.5,0.2c0.1,0,0.2,0.1,0.3,0.1c0.3-0.9,1-1.4,1.8-2l0.1-0.1l0.1,0.2l-0.1,0.1
						c-0.1,0.1-0.2,0.2-0.4,0.3c0.2,0.7,2.6,0.7,2.6,0.7c-0.2,0.1-0.6,0.1-0.9,0.1c-0.8,0-1.6-0.2-1.9-0.6c-0.5,0.4-0.9,0.8-1.2,1.5
						c0.5,0.2,1,0.3,1.5,0.3l0,0c0.6,0.1,1.6,0.3,1.6,0.3c-0.3,0-0.5,0.1-0.7,0.1c-0.3,0-0.6,0-0.9-0.1l0,0c-0.2,0-0.3,0-0.5-0.1
						c0,0.9,1,1.5,1,1.5c-0.6-0.1-1.2-1-1.2-1.6c-0.5-0.1-1-0.3-1.4-0.5c-0.1-0.1-0.3-0.2-0.5-0.3c-0.4-0.2-0.9-0.5-1.3-0.6
						c-0.4,1-0.8,2.4-0.5,3h-1l0.1-0.3c0.4-1.5,1-4.4,0.9-6.6c-0.2-0.5-0.5-0.9-0.9-1.4c-0.2-0.2-0.3-0.4-0.5-0.7
						c-0.1-0.1-0.1-0.2-0.2-0.3c-0.2,0.7-0.3,1.4-0.1,2c0.2-0.2,0.4-0.5,0.6-0.7l0.2,0.1c-0.2,0.4-0.6,0.7-0.9,1.1
						c-0.6,0.6-1.2,1.1-1.2,1.9h0c0,0.8,0.1,1.5,0.2,2.1c0.2,1.6,0.3,2.5,0.3,2.6h-0.7c0,0,0.2-2.7-0.1-5.4
						c-0.2-0.1-0.4-0.1-0.7-0.2c-0.3,0-0.7-0.2-0.9-0.4C162,251.5,162.2,249.8,162.2,249.8z"/>
					<path id="XMLID_4036_" class="st16" d="M166.6,254.1c0.3-0.5,1.9-1.6,1.9-1.6c-0.2,0.3-0.5,0.5-0.7,0.7
						c-0.4,0.4-0.8,0.8-1.2,1.4c0,0.1,0,0.2,0,0.3c0,0.1,0.1,0.4,0.1,0.8c0.1,0.9,0.5,2.3,0.8,3H167c-0.1-0.7-0.3-2.1-0.5-3
						c-0.1-0.4-0.1-0.7-0.1-0.8c-0.1-1-0.1-1.4,0.2-2.3C166.7,252.5,166.6,253.6,166.6,254.1z"/>
				</g>
			</g>
			<g id="XMLID_4042_">
				<path id="XMLID_4071_" class="st16" d="M75.4,257.8c0,0,2.7,0.1,2.7,0c0-0.1-2.7-88.1-2.7-88.1V257.8z"/>
				<polygon id="XMLID_4070_" class="st17" points="77.7,241.1 93.7,242.8 94.9,247.2 77.8,243.9 				"/>
				<polygon id="XMLID_4069_" class="st17" points="93.4,240.7 77.4,235.5 76.7,210.9 87,214.6 				"/>
				<polygon id="XMLID_4068_" class="st18" points="77.5,224.8 77.5,226.4 91.2,231.7 91.5,232.9 77.3,232.9 77.4,235.5 93.4,240.7 
					90.7,229.7 				"/>
				<path id="XMLID_4066_" class="st17" d="M76.7,210.5l9.7,2l-2.5-10.7c0,0-7.6-4.7-7.6-4.8C76.3,197,76.7,210.5,76.7,210.5z"/>
				<polygon id="XMLID_4065_" class="st17" points="83.4,199.7 83.5,200.8 76.3,196.5 76.3,195.9 				"/>
				<path id="XMLID_4064_" class="st19" d="M82.9,197.7"/>
				<polyline id="XMLID_4063_" class="st18" points="82.7,197.7 81.7,192.8 76,189.9 76.1,194.6 82.9,197.7 				"/>
				<polygon id="XMLID_4062_" class="st18" points="79.9,185.7 75.9,183.6 75.4,169.7 78.1,179.4 75.7,178.3 75.7,178.9 78.2,180.3 
									"/>
				<polygon id="XMLID_4061_" class="st17" points="75.9,185.2 80.3,186.7 80.8,188.4 76,186.3 				"/>
				<polygon id="XMLID_4060_" class="st18" points="75.4,185.9 71,186.9 70.2,191.5 75.4,189.8 				"/>
				<polygon id="XMLID_4059_" class="st17" points="75.4,190.7 69.5,192.8 62,223.5 75.4,220.9 				"/>
				<polygon id="XMLID_4058_" class="st17" points="75.4,222.2 61.5,227.2 57.8,240.1 73.9,238.9 57.3,242.8 56.1,247.7 75.4,241.9 
									"/>
				<polygon id="XMLID_4057_" class="st16" points="79.5,254.9 83.6,253.5 80.2,255 84.6,256 78,254.9 78,254.5 				"/>
				<path id="XMLID_4056_" class="st16" d="M90.4,250.6l4.9-1.4l-4.1,1.4l4,0.3l-8.3-0.5l2,2l-2.9-2.1l-3.4-0.2
					c0.1,0.2,0.5,0.9,1.4,1.5c1,0.8,3.9,1.1,3.9,1.1s0,0-2.1-0.2c-2.4-0.3-3.4-2-3.6-2.4l-4.4-0.2l0-0.4l0-0.1L90.4,250.6z"/>
				<polygon id="XMLID_4055_" class="st17" points="88.4,250.7 91.5,254.1 91.7,251.6 93.3,253.5 93.5,251.6 94.7,252.8 95.2,251 
									"/>
				<polygon id="XMLID_4054_" class="st17" points="82.3,255.5 83.9,255.5 86,256 86,256.8 85.5,256.6 85,257.3 84.6,256.5 
					84,257.3 82.9,255.7 				"/>
				<polygon id="XMLID_4053_" class="st16" points="68,252.7 71.9,252.7 71.9,252.7 75.7,251.7 75.7,252.1 68.3,253.7 71.3,252.9 
									"/>
				<polygon id="XMLID_4052_" class="st18" points="75.4,219.1 62.4,221.7 63.2,218.7 75.4,217.6 				"/>
				<polygon id="XMLID_4051_" class="st18" points="85,205.9 76.4,201.1 76.4,200.1 				"/>
				<polygon id="XMLID_4050_" class="st18" points="85.1,206.6 76.4,202.1 76.5,206.3 85.6,208.9 				"/>
				<polygon id="XMLID_4049_" class="st18" points="75.4,200.2 67,203.1 75.4,199.3 				"/>
				<polygon id="XMLID_4048_" class="st18" points="68.8,195.9 74.2,194.4 68.5,197 				"/>
				<polygon id="XMLID_4047_" class="st18" points="75.4,193 69.1,194.7 69.4,193.5 75.4,191.4 				"/>
				<polygon id="XMLID_4046_" class="st17" points="75.4,181.6 72.3,181.2 75.4,169.7 				"/>
				<polygon id="XMLID_4045_" class="st16" points="75.8,187.8 75.9,187.3 78.7,188.8 78.8,188.9 80.5,188.7 79,189 80.8,189.9 				
					"/>
				<polygon id="XMLID_4044_" class="st16" points="72.3,184.8 71.5,184.9 73.3,184.5 73.4,184.5 72,183 73.7,184.5 75.5,184.1 
					75.5,184.6 72.6,184.8 71.5,185.9 				"/>
				<path id="XMLID_4043_" class="st16" d="M58.2,252.2l4.1-4.1l13.1-3.7v0.1v0.5l-3.9,1l0.3-0.1l-0.5,3.9h-0.2l0.2-2.2
					c0,0-1.8,0.1-2.8,0.7c-0.9,0.6-2.3,1.7-2.3,1.7l-0.3-0.3c0,0,1.6-1.4,2.5-1.8c0.9-0.4,2.8-0.7,2.8-0.7l0.1-1.2l-9,2.3
					L58.2,252.2z"/>
			</g>
			<g id="XMLID_3815_">
				<polygon id="XMLID_4033_" class="st20" points="173.7,227.3 155.5,226.3 138.7,207.6 148.2,200.5 				"/>
				<polygon id="XMLID_4030_" class="st21" points="162.8,226.2 161.9,253.9 111.5,254.9 111.7,227.5 143.1,204.1 				"/>
				<polygon id="XMLID_4027_" class="st22" points="111.6,249.1 162,249.3 162,248.9 154.6,248.6 155.7,248.9 				"/>
				<polygon id="XMLID_4024_" class="st22" points="111.6,252.2 161.9,251.7 161.9,251.3 159.7,251.6 111.6,251.6 				"/>
				<polygon id="XMLID_4021_" class="st22" points="111.6,246 162.1,245.5 111.6,245.7 				"/>
				<polygon id="XMLID_4018_" class="st22" points="111.6,242 162.3,243 162.3,242.9 146,242.8 111.6,241.7 				"/>
				<polygon id="XMLID_4015_" class="st22" points="111.6,237 162.1,236.5 111.6,236.7 				"/>
				<polygon id="XMLID_4012_" class="st22" points="111.6,226.7 111.6,255 80,253.2 79.4,228.1 				"/>
				<g id="XMLID_4008_">
					<path id="XMLID_4009_" class="st23" d="M147.7,254.4l-1.6-19.3l10.3,1.7l-0.7,17.6L147.7,254.4z M147,236.1l1.4,17.5l6.5,0
						l0.7-16.2L147,236.1z"/>
				</g>
				<polygon id="XMLID_4005_" class="st24" points="155.3,253.8 155.9,237.3 147,235.6 148.2,253.9 				"/>
				<circle id="XMLID_4004_" class="st22" cx="148.8" cy="245.2" r="0.6"/>
				<circle id="XMLID_4003_" class="st25" cx="148.7" cy="245.1" r="0.4"/>
				<g id="XMLID_3996_">
					<polygon id="XMLID_4002_" class="st26" points="151.3,237.1 151.2,242.6 148.5,242.5 148.6,242.3 151.1,242.4 151.2,237.2 
											"/>
					<polygon id="XMLID_4001_" class="st26" points="154.7,248.1 152.1,247.9 152.2,247.8 154.5,247.9 154.7,243.4 154.8,243.3 
											"/>
					<polygon id="XMLID_4000_" class="st26" points="154.9,237.9 154.7,242.7 152.1,242.6 152.3,242.5 154.5,242.6 154.7,238 					
						"/>
					<polygon id="XMLID_3999_" class="st26" points="154.7,253.2 152.1,253.2 152.2,253 154.5,253 154.5,248.7 154.7,248.6 					"/>
					<polygon id="XMLID_3998_" class="st26" points="151.2,247.9 148.5,247.8 148.7,247.6 151.1,247.7 151.1,243.3 151.3,243.1 
											"/>
					<polygon id="XMLID_3997_" class="st26" points="151.2,253.2 148.5,253.2 148.6,253 151.1,253 151.1,248.6 151.2,248.5 					"/>
				</g>
				<polygon id="XMLID_3995_" class="st27" points="148.2,253.9 146.9,235.6 147.1,235.6 148.4,253.9 				"/>
				<polygon id="XMLID_3994_" class="st28" points="146.4,235.1 145.9,235.3 147.2,254.2 147.7,254.2 				"/>
				<polygon id="XMLID_3991_" class="st29" points="152.1,235.7 162.4,236 162.3,241.7 159.2,245.7 151.2,243.3 145.5,246.2 
					131,246.4 134.4,233.4 				"/>
				<polygon id="XMLID_3988_" class="st30" points="160.9,222.8 142.3,224.6 134.4,233.4 151.1,233.8 				"/>
				<polygon id="XMLID_3985_" class="st21" points="151.1,233.8 160.9,222.8 170.3,234.3 168.3,236.3 160.9,226.7 152.1,235.7 
					151.5,236.3 				"/>
				<polygon id="XMLID_3984_" class="st22" points="151.1,233.8 151.5,236.3 134.8,235.5 134.4,233.4 				"/>
				<polygon id="XMLID_3983_" class="st20" points="168.3,236.3 160.9,226.7 152.1,235.7 				"/>
				<polygon id="XMLID_3980_" class="st21" points="111.6,233.8 101.8,233.8 102.1,233.4 79.5,233.8 102.9,233.1 102.6,233.4 
					111.6,233.3 				"/>
				<polygon id="XMLID_3979_" class="st21" points="79.6,237.5 79.6,237.2 99.6,237.2 109.2,237.2 82.9,237.4 				"/>
				<polygon id="XMLID_3978_" class="st21" points="79.8,244.6 79.7,244.2 99.6,244.4 109.2,244.4 82.9,244.5 				"/>
				<polygon id="XMLID_3977_" class="st21" points="111.6,240.5 111.6,240.1 91.6,240.1 82,240.1 108.3,240.4 				"/>
				<polygon id="XMLID_3976_" class="st21" points="111.6,251.9 111.6,251.5 91.7,251.1 82,251 108.3,251.7 				"/>
				<polygon id="XMLID_3975_" class="st21" points="79.8,248.2 79.8,247.6 87.9,247.8 87.3,248.1 111.6,248.6 111.6,249.1 
					105.3,248.8 105.7,248.6 103.1,248.5 103.7,248.9 				"/>
				<g id="XMLID_3946_">
					<g id="XMLID_3968_">
						<g id="XMLID_3973_">
							<polygon id="XMLID_3974_" class="st31" points="97.4,233.4 90.4,233.7 90.4,246.7 97.4,246.7 							"/>
						</g>
						<g id="XMLID_3969_">
							<path id="XMLID_3970_" class="st23" d="M97.7,247h-7.6v-13.6l7.1-0.3l0.5,0.1V247z M90.7,246.4h6.5v-12.7l-6.5,0.2V246.4z"/>
						</g>
					</g>
					<g id="XMLID_3964_">
						<path id="XMLID_3965_" class="st28" d="M97.2,247h-7.5l-0.3-13.7l7.8-0.2V247z M90.1,246.4h6.6v-12.7l-6.6,0.3V246.4z"/>
					</g>
					<path id="XMLID_3956_" class="st26" d="M90.1,246.2h6.6v-12.6l-6.6,0.3V246.2z M96.4,238.1v3.6l-2.4,0.1v-3.6L96.4,238.1z
						 M94,237.8v-3.6l2.4-0.1v3.6L94,237.8z M96.4,245.8H94v-3.6l2.4-0.1V245.8z M93.1,245.8h-2.3v-3.5l2.3-0.1V245.8z M90.8,241.9
						v-3.6l2.3-0.1v3.6L90.8,241.9z M90.8,234.3l2.3-0.1v3.6l-2.3,0.1V234.3z"/>
					<path id="XMLID_3948_" class="st24" d="M90.1,246.4h6.6v-12.7l-6.6,0.3V246.4z M96.3,238.2v3.6l-2.4,0.1v-3.6L96.3,238.2z
						 M93.8,237.9v-3.6l2.4-0.1v3.6L93.8,237.9z M96.3,245.9h-2.4v-3.6l2.4-0.1V245.9z M93,245.9h-2.3v-3.5l2.3-0.1V245.9z
						 M90.7,242.1v-3.6l2.3-0.1v3.6L90.7,242.1z M90.7,234.4l2.3-0.1v3.6l-2.3,0.1V234.4z"/>
					<rect id="XMLID_3947_" x="93.4" y="233.8" class="st27" width="0.1" height="12.5"/>
				</g>
				<polygon id="XMLID_3943_" class="st29" points="111.6,235.5 79.5,235.5 79.4,229 110.5,227.5 111.6,227.2 111.6,229.9 				"/>
				<polygon id="XMLID_3940_" class="st22" points="130,247 129.5,248.1 121.5,247.9 121.5,233.8 122.2,233.2 				"/>
				<polygon id="XMLID_3937_" class="st22" points="145.5,223.8 145,224.2 136,224.5 136,212.5 137,211.8 				"/>
				<polygon id="XMLID_3934_" class="st22" points="155.5,219.4 124.2,219.3 125.6,219.1 				"/>
				<polygon id="XMLID_3931_" class="st22" points="139.9,227.3 113,227.2 114.2,227 				"/>
				<polygon id="XMLID_3928_" class="st22" points="150.6,213.9 131,213.8 131.9,213.6 				"/>
				<polygon id="XMLID_3925_" class="st22" points="157.1,221.8 121.3,221.6 121.7,221.4 				"/>
				<polygon id="XMLID_3922_" class="st22" points="111.6,230.8 135.7,231.8 135.7,231.7 127.9,231.6 111.6,230.5 				"/>
				<g id="XMLID_3901_">
					<g id="XMLID_3915_">
						<g id="XMLID_3920_">
							<polygon id="XMLID_3921_" class="st25" points="137.3,212.1 145.5,212.1 145.1,223.5 137.4,223.6 							"/>
						</g>
						<g id="XMLID_3916_">
							<path id="XMLID_3917_" class="st23" d="M137.1,223.8l-0.1-12h8.8l-0.4,11.9L137.1,223.8z M137.6,212.5v10.7h7.6v-10.7
								L137.6,212.5z"/>
						</g>
					</g>
					<path id="XMLID_3909_" class="st26" d="M140.7,218.1v4.4l-2.8-0.1V218L140.7,218.1z M137.9,217.5v-4.4l2.8,0.1v4.4L137.9,217.5
						z M145,223.1v-10.7l-7.3,0l-0.1,10.7H145z M141.7,222.5v-4.4l2.6,0.1v4.4L141.7,222.5z M144.3,217.7l-2.6-0.1v-4.4l2.6,0.1
						V217.7z"/>
					<path id="XMLID_3903_" class="st24" d="M140.9,218.1v4.4l-2.8-0.1V218L140.9,218.1z M138.1,217.5v-4.4l2.8,0.1v4.4L138.1,217.5
						z M145.1,223.1v-10.7l-7.6,0v10.7H145.1z M141.9,222.5v-4.4l2.6,0.1v4.4L141.9,222.5z M144.5,217.7l-2.6-0.1v-4.4l2.6,0.1
						V217.7z"/>
					<rect id="XMLID_3902_" x="141.3" y="212.5" class="st27" width="0.1" height="10.7"/>
				</g>
				<g id="XMLID_3897_">
					<path id="XMLID_3898_" class="st28" d="M129.8,247h-7.6v-13.8l0.5-0.1l7.1,0.3V247z M122.7,246.4h6.5V234l-6.5-0.2V246.4z"/>
				</g>
				<g id="XMLID_3890_">
					<g id="XMLID_3895_">
						<polygon id="XMLID_3896_" class="st32" points="123,233.4 130,233.7 129.8,246.7 123,246.7 						"/>
					</g>
					<g id="XMLID_3891_">
						<path id="XMLID_3892_" class="st23" d="M130,247h-7.4v-13.9l7.6,0.3L130,247z M123.2,246.4h6.4l0.2-12.4l-6.5-0.2L123.2,246.4
							z"/>
					</g>
				</g>
				<path id="XMLID_3882_" class="st26" d="M129.6,234l-6.4-0.4v12.6h6.4L129.6,234z M125.9,238.2v3.6l-2.4-0.1v-3.6L125.9,238.2z
					 M123.5,237.7v-3.6l2.4,0.1v3.6L123.5,237.7z M123.5,242.1l2.4,0.1v3.6h-2.4V242.1z M126.8,242.3l2.3,0.1v3.5h-2.3V242.3z
					 M126.8,241.8v-3.6l2.3,0.1v3.6L126.8,241.8z M129.1,237.9l-2.3-0.1v-3.6l2.3,0.1V237.9z"/>
				<path id="XMLID_3874_" class="st24" d="M129.8,234l-6.6-0.3v12.7h6.4L129.8,234z M126.1,238.3v3.6l-2.4-0.1v-3.6L126.1,238.3z
					 M123.6,237.8v-3.6l2.4,0.1v3.6L123.6,237.8z M123.6,242.3l2.4,0.1v3.6h-2.4V242.3z M126.9,242.4l2.3,0.1v3.5h-2.3V242.4z
					 M126.9,242v-3.6l2.3,0.1v3.6L126.9,242z M129.2,238l-2.3-0.1v-3.6l2.3,0.1V238z"/>
				<polygon id="XMLID_3873_" class="st33" points="148.2,195.7 98.9,206.8 76.7,226.2 110,224.6 				"/>
				<polygon id="XMLID_3870_" class="st21" points="148.2,195.7 110,224.6 76.7,226.6 76.7,229.3 110.6,228.5 148.2,200.5 
					173.7,227.3 175.1,224.9 				"/>
				<polygon id="XMLID_3869_" class="st22" points="110,224.6 110.6,228.5 76.7,229.3 76.7,226.2 				"/>
				<rect id="XMLID_3868_" x="126.5" y="233.8" class="st27" width="0.1" height="12.5"/>
				<polygon id="XMLID_3865_" class="st28" points="145.5,223.8 145,224 136.8,224.1 136.6,212.1 137,211.8 137.1,223.8 				"/>
				<polygon id="XMLID_3862_" class="st29" points="154.1,223.4 143,212.5 111.6,235.5 111.6,227.7 143.2,204.2 159.8,222.9 				"/>
				<polygon id="XMLID_3861_" class="st21" points="78.9,258.2 78.9,253.6 80,253.2 111.6,255 161.9,253.9 163.1,254 161.9,259.1 
					111.6,260.3 				"/>
				<polygon id="XMLID_3858_" class="st34" points="144.2,254.3 155.9,254 160.8,254.9 147.1,255.2 				"/>
				<polygon id="XMLID_3855_" class="st34" points="147.5,256.2 160.4,256.2 163,257 152,257 				"/>
				<polygon id="XMLID_3852_" class="st34" points="152.3,258.3 162.8,258.1 163.8,258.5 153.8,258.6 				"/>
				<polygon id="XMLID_3849_" class="st21" points="160.8,254.9 160.4,256.2 147.5,256.2 147.1,255.2 				"/>
				<polygon id="XMLID_3846_" class="st21" points="163,257 162.8,258.1 152.8,258.3 152,257 				"/>
				<polygon id="XMLID_3843_" class="st21" points="163.8,258.5 163.8,259.7 153.8,259.7 153.8,258.6 				"/>
				<polygon id="XMLID_3842_" class="st22" points="153.8,259.7 153.8,258.6 152.3,258.3 152,257 147.5,256.2 147.1,255.2 
					144.9,254.5 144.9,259.5 				"/>
				<polygon id="XMLID_3839_" class="st34" points="78.9,253.6 80,253.2 111.7,254.9 144.2,254.3 144.9,254.5 111.5,255.5 
					111.5,255.5 				"/>
				<polygon id="XMLID_3836_" class="st22" points="111.5,255.5 111.5,260.3 78.9,258.2 78.9,253.6 				"/>
				<polygon id="XMLID_3819_" class="st35" points="109.9,198.3 109.4,204.1 110.2,210.3 106.6,213.1 105.7,204.9 105.7,197.6 				
					"/>
				<polygon id="XMLID_3816_" class="st36" points="105.7,197.6 103,198.6 103,204.9 103.8,213.1 106.6,213.1 105.7,204.9 				"/>
			</g>
			<g id="XMLID_3806_">
				<path id="XMLID_3814_" class="st18" d="M117.2,257.1c-1.1,3.4-4.2,6.4-6.1,7.8c0,0-1.7,0-2.2,0c-1.2,0-6-3.1-7.6-7.8
					c-0.5-1.4,2.4-4.3,7.3-4.7C114.8,251.9,118,254.6,117.2,257.1z"/>
				<linearGradient id="XMLID_34_" gradientUnits="userSpaceOnUse" x1="99.9062" y1="259.151" x2="118.8024" y2="259.151">
					<stop  offset="0" style="stop-color:#89942E"/>
					<stop  offset="1" style="stop-color:#406325"/>
				</linearGradient>
				<path id="XMLID_3811_" class="st37" d="M116.9,253.4c0,0-3.3,7.6-3.4,8.2c-0.1,0.6,0.6,0,1.4-1.1c1.8-2.5,2.8-7,2.8-7h1.1
					c-0.4,1.5-1.6,5.1-3,7.3c-1.4,2.2-4.6,4.1-4.6,4.1l3.8-11.4H116.9z M110.4,264.9l4.3-11.4h-1.2c0,0-2.3,8.3-2.6,8.2
					c-0.3-0.1,1-7.8,1-7.8l-1.8,0c0,0-0.3,9.5-0.9,9.5c-0.6,0,0.3-9.2,0.3-9.2l-1.1,0.1c0,0,0.3,4.5,0,4.4c-0.3-0.1-0.4-4.5-0.4-4.5
					l-0.8,0.2c0,0,1,7.7,0.4,7.2c-0.5-0.4-1.3-7.1-1.3-7.1L102,255c0,0,5.6,8.2,4.9,8.3c-2,0.2-5.2-8.2-5.5-8.2
					c-0.2,0-1.5,0.2-1.5,0.2c1.2,3,3.7,7.2,5.4,8.3c1.7,1.1,2.1,1.3,2.1,1.3H110.4z"/>
				<path id="XMLID_3810_" class="st38" d="M109.6,251.8c0,0-1,3.8-0.8,6.6c0.2,2.8,0.2,2.8,0.2,2.8s0.5-3.7,0.6-5
					C109.7,254.7,109.6,251.8,109.6,251.8z"/>
				<path id="XMLID_3809_" class="st38" d="M111.7,252.1c0,0-0.7,2.7-0.7,4.6c0.1,2,0.1,2,0.1,2s0.4-2.6,0.5-3.5
					C111.7,254.2,111.7,252.1,111.7,252.1z"/>
				<path id="XMLID_3808_" class="st38" d="M117.2,252.7c0,0-2,2.9-2.7,5.3c-0.7,2.4-0.7,2.4-0.7,2.4s1.6-3,2-4.1
					C116.3,255.2,117.2,252.7,117.2,252.7z"/>
				<path id="XMLID_3807_" class="st38" d="M103.2,252.1c0,0,0.6,3.4,1.8,5.6c1.2,2.2,1.2,2.2,1.2,2.2s-1-3.2-1.4-4.3
					C104.4,254.5,103.2,252.1,103.2,252.1z"/>
			</g>
		</g>
		<g id="XMLID_15834_">
			<g id="XMLID_15909_">
				<path id="XMLID_15910_" class="st8" d="M276.8,217c0.1,0,0.2,0,0.3,0c0.2,0,0.4,0,0.6,0.1c0.2,0.1,0.3,0.3,0.4,0.4
					c0.2,0.5,0.1,0.9-0.3,1.2c-0.5,0.4-1.4,0.7-1.9,0.3c-0.3-0.2-0.2-0.6-0.1-0.9c0-0.1,0.1-0.2,0.1-0.4c0.1-0.3,0.4-0.4,0.6-0.6
					c0,0,0,0.1-0.1,0.1c0,0,0,0,0,0C276.3,217,276.7,216.9,276.8,217L276.8,217z"/>
			</g>
			<g id="XMLID_15907_">
				<path id="XMLID_15908_" class="st8" d="M272,221.3c0.1,0.3,0.1,0.6,0.1,1c0,0.3-0.5,0.7-0.7,0.8c0.1-0.1,0-0.1-0.2,0.1
					c-0.2,0.1-0.4,0.2-0.6,0.2c-0.7,0.2-1.1,0-1.6-0.4c-0.2-0.1-0.1-0.5-0.1-0.7c0-0.2,0-0.3,0.1-0.5c0.2-0.5,0.8-0.8,1.3-0.9
					C270.8,220.8,271.8,220.6,272,221.3L272,221.3z"/>
			</g>
			<g id="XMLID_15903_">
				<path id="XMLID_15904_" class="st8" d="M266,209.9c0.1,0.1,0.2,0.2,0.3,0.3c0,0,0,0.1,0,0.1c0,0,0,0,0,0.1
					c-0.1,0.2-0.8,0.5-0.9,0.2c0,0,0,0,0-0.1c0,0,0-0.1,0-0.1c0,0,0-0.1-0.1-0.2C265.1,209.9,265.8,209.8,266,209.9L266,209.9z"/>
			</g>
			<g id="XMLID_15901_">
				<path id="XMLID_15902_" class="st8" d="M262,222.1c-0.1,0.2-0.2,0.3-0.4,0.4c0.1-0.1,0.2-0.1,0.2-0.2c-0.1,0.1-0.1,0.1-0.2,0.2
					c-0.1,0.1-0.3,0.2-0.4,0.1c-0.1,0-0.1-0.1-0.2-0.1c0.1,0,0.2,0,0.2,0.1c-0.2,0-0.3-0.1-0.4-0.2c-0.3-0.2,0.4-0.5,0.5-0.6
					C261.5,221.7,262.3,221.7,262,222.1L262,222.1z"/>
			</g>
			<g id="XMLID_15899_">
				<path id="XMLID_15900_" class="st8" d="M293.7,195.8c0.4,0,0.7,0.1,0.9,0.5c0.2,0.3,0.3,0.6,0.4,0.9c0.2,0.5-0.8,0.9-1.1,1
					c-0.3,0.1-1.7,0.2-1.5-0.5c0.1-0.3,0.2-0.7,0.3-1C292.8,196.2,293.2,195.8,293.7,195.8L293.7,195.8z"/>
			</g>
			<g id="XMLID_15897_">
				<path id="XMLID_15898_" class="st8" d="M290.5,198c0.3,0.2,0.5,0.3,0.7,0.6c0.3,0.5-0.5,0.8-0.8,0.9c-0.4,0.1-1.5,0.1-1.1-0.5
					c0.2-0.3,0.5-0.6,0.7-0.9C290.1,198,290.4,198,290.5,198L290.5,198z"/>
			</g>
			<g id="XMLID_15895_">
				<path id="XMLID_15896_" class="st8" d="M284.6,194.3c0,0.1,0.1,0.1,0.2,0.2c0.1,0.3-0.5,0.5-0.7,0.6c-0.2,0.1-0.6,0.1-0.8-0.1
					c-0.2-0.2,0.1-0.5,0.3-0.6c-0.1,0.1-0.1,0.1-0.2,0.2c0,0,0-0.1,0.1-0.1C283.5,194.3,284.4,194,284.6,194.3L284.6,194.3z"/>
			</g>
			<g id="XMLID_15893_">
				<path id="XMLID_15894_" class="st8" d="M284,200.3C284,200.3,284,200.3,284,200.3c0.1,0.1,0.2,0.2,0.2,0.2
					c-0.1,0.4-1,0.7-1.1,0.2c0-0.1,0-0.2,0.1-0.2c0,0,0-0.1,0.1-0.1C283.4,200.3,283.9,200.1,284,200.3L284,200.3z"/>
			</g>
			<g id="XMLID_15891_">
				<path id="XMLID_15892_" class="st8" d="M288.6,193.5c0,0.1,0,0.2,0,0.2c0,0.1-0.1,0.2-0.1,0.2c-0.1,0-0.1,0.1-0.2,0.1
					c0,0-0.3,0.1-0.2,0c-0.1,0-0.4,0-0.4-0.1c0-0.1,0-0.1,0-0.2C287.8,193.4,288.6,193.2,288.6,193.5L288.6,193.5z"/>
			</g>
			<g id="XMLID_15889_">
				<path id="XMLID_15890_" class="st8" d="M291.7,204c-0.1,0.2-0.1,0.5-0.3,0.6c0,0-0.2,0.1-0.2,0c-0.2-0.1-0.2-0.3-0.3-0.5
					c-0.1-0.2,0.3-0.3,0.4-0.3C291.3,203.8,291.8,203.8,291.7,204L291.7,204z"/>
			</g>
			<g id="XMLID_15887_">
				<path id="XMLID_15888_" class="st8" d="M294.1,200.9c0.1,0.2,0.3,0.3,0.3,0.5c0,0.2-0.2,0.3-0.3,0.3c-0.5,0.2-0.6-0.3-0.5-0.6
					C293.7,200.9,294,200.8,294.1,200.9L294.1,200.9z"/>
			</g>
			<g id="XMLID_15855_">
				<path id="XMLID_15856_" class="st8" d="M302.7,220.6c0.3,0,0.6,0.3,0.4,0.6c-0.1,0.2-0.3,0.5-0.6,0.4c-0.3-0.1-0.8-0.2-0.7-0.6
					C301.9,220.7,302.4,220.6,302.7,220.6L302.7,220.6z"/>
			</g>
			<g id="XMLID_15853_">
				<path id="XMLID_15854_" class="st8" d="M299.8,219.2c0,0.2-0.2,0.3-0.3,0.4c-0.1,0.1-0.3,0.1-0.4,0.1c-0.1-0.1-0.3-0.1-0.3-0.3
					C298.7,219,299.9,218.8,299.8,219.2L299.8,219.2z"/>
			</g>
			<g id="XMLID_15849_">
				<path id="XMLID_15850_" class="st8" d="M295.8,216.8c0,0.2-0.2,0.4-0.3,0.5c-0.2,0.2-0.2,0.3-0.2,0.6c0,0.2-0.4,0.3-0.5,0.2
					c-0.2-0.1-0.3-0.2-0.5-0.2c-0.1-0.1-0.3-0.2-0.4-0.3c-0.3-0.4,0.1-0.8,0.4-1C294.5,216.5,295.9,216.1,295.8,216.8L295.8,216.8z"
					/>
			</g>
			<g id="XMLID_15847_">
				<path id="XMLID_15848_" class="st8" d="M295.8,220.1c0.2,0.1,0.3,0.2,0.3,0.5c-0.1,0.3-1,0.6-1.1,0.2c-0.1-0.3,0.1-0.4,0.3-0.6
					C295.3,220.1,295.6,220,295.8,220.1L295.8,220.1z"/>
			</g>
			<g id="XMLID_15845_">
				<path id="XMLID_15846_" class="st8" d="M309.4,218.3c0.3,0.2,0.6,0.3,0.5,0.6c-0.1,0.3-0.5,0.5-0.8,0.5c-0.3,0.1-0.9,0.2-1-0.2
					c-0.1-0.4,0.3-0.6,0.5-0.9C308.9,218.3,309.3,218.2,309.4,218.3L309.4,218.3z"/>
			</g>
			<g id="XMLID_15843_">
				<path id="XMLID_15844_" class="st8" d="M319.6,204c0.5,0.2,0.1,0.7-0.2,0.8c-0.2,0.1-0.4,0-0.5-0.1c-0.1-0.2,0.1-0.4,0.2-0.5
					C319.2,204,319.4,204,319.6,204L319.6,204z"/>
			</g>
			<g id="XMLID_15841_">
				<path id="XMLID_15842_" class="st8" d="M317.8,205.9c0.3,0.9-1.8,1.2-1.5,0.3C316.4,205.8,317.6,205.3,317.8,205.9L317.8,205.9z
					"/>
			</g>
			<g id="XMLID_15839_">
				<path id="XMLID_15840_" class="st8" d="M320.9,208.8c0.1,0.2,0.2,0.4,0,0.6c-0.1,0.1-0.3,0.3-0.4,0.3c-0.4,0.1-0.5-0.3-0.6-0.6
					C319.7,208.8,320.7,208.5,320.9,208.8L320.9,208.8z"/>
			</g>
			<g id="XMLID_15837_">
				<path id="XMLID_15838_" class="st8" d="M322.5,204.7c-0.2,0.2-0.3,0.3-0.5,0.1C321.5,204.6,322.9,204.3,322.5,204.7L322.5,204.7
					z"/>
			</g>
			<g id="XMLID_15835_">
				<path id="XMLID_15836_" class="st8" d="M321.4,212.9c0.2,0,0.2,0.4,0.3,0.5c0.1,0.2,0.1,0.4,0,0.6c-0.1,0.1-0.3,0.3-0.5,0.3
					c-0.2,0.1-0.3,0-0.5,0c-0.5-0.1-0.2-0.7,0-1C320.9,213.1,321.1,212.8,321.4,212.9L321.4,212.9z"/>
			</g>
		</g>
	</g>
	<g id="XMLID_3776_" class="st2">
		<g id="XMLID_3800_">
			<path id="XMLID_3802_" class="st39" d="M350.2,229.9c-23.6-9.2-63.3-9.1-90.3-7.8c-15,0.7-31.5,2.3-44.1,7.4
				c-12.7,5.1-21.4,17.5-10.8,25.9c5.6,4.4,16.6,3.6,24.2,5.3c7,1.6,19,7.6,4.4,8.9c-9.4,0.9-23.1-3.7-33-4.4
				c-9.7-0.6-23.7-0.6-33.3,0.8c-22.5,3.2-56.6,10-71.9,21.3c-35,23.3,50.1,32.9,72.5,33.8c48.8,1.8,97.4-8.6,138-23.7
				c11.8-4.4,37.8-7.5,41.5-16.3c2.4-5.8-1.7-12.5-10.9-15.5c-5.5-1.8-22.2-1-21.7-6.5c6.8-2,13-1.9,19.9-4.5c8.4-3.2,15-5.6,26-4.6
				c0.5,0.8,1.5,1.5,1.9,2.2c-1.6-3.2,2.7-8.4,1.4-12C362.3,235.6,356.8,232.5,350.2,229.9z"/>
			<path id="XMLID_3801_" class="st0" d="M350.2,242.8c-24-8.8-129.5-13.7-144.7,6.2c-15.7,20.5,42,8.9,39.8,23.2
				c-0.6,3.9-70.2,3.2-78,4.2c-22.5,3-56.6,9.3-71.9,19.8c-35,21.7,50.1,30.6,72.5,31.4c53.8,1.9,117.9-11.3,160-31
				c55.5-26-24.1-19.8-20.5-35.8C308.4,256.4,396.1,259.5,350.2,242.8z"/>
		</g>
		<g id="XMLID_16043_">
			<g id="XMLID_16041_">
				<path id="XMLID_16042_" class="st40" d="M185.3,294.9c-5,1.9-10.1,4.1-15.6,2.9c-0.1,0,0-0.3,0.1-0.3c5.5,0.5,10.4-1.1,15.5-2.9
					C185.4,294.7,185.4,294.9,185.3,294.9L185.3,294.9z"/>
			</g>
			<g id="XMLID_16039_">
				<path id="XMLID_16040_" class="st40" d="M169.3,303.7c-2.7,1-6.2,1.8-8.9,0.4c-0.1-0.1,0-0.4,0.1-0.4c2.9,0.4,6,0.6,8.8-0.3
					C169.4,303.4,169.4,303.7,169.3,303.7L169.3,303.7z"/>
			</g>
			<g id="XMLID_16037_">
				<path id="XMLID_16038_" class="st40" d="M162.9,296.6c-2.1-0.8-4.2-1.2-6.1-2.3c-0.1-0.1,0-0.4,0.1-0.3c2.1,0.6,4.2,1.3,6.1,2.4
					C163,296.3,163,296.6,162.9,296.6L162.9,296.6z"/>
			</g>
			<g id="XMLID_16035_">
				<path id="XMLID_16036_" class="st40" d="M155.5,291c-1.4-0.8-2.9-0.9-4.5-0.7c-0.1,0-0.1-0.2,0-0.3c1.6-0.5,3.2-0.2,4.6,0.8
					C155.6,290.8,155.6,291,155.5,291L155.5,291z"/>
			</g>
			<g id="XMLID_16033_">
				<path id="XMLID_16034_" class="st40" d="M144.7,292.4c-3,1.3-5.7,3-8.4,4.9c-0.1,0.1-0.1-0.2,0-0.3c2.3-2.4,5.2-4,8.5-4.9
					C144.8,292.1,144.8,292.4,144.7,292.4L144.7,292.4z"/>
			</g>
			<g id="XMLID_16031_">
				<path id="XMLID_16032_" class="st40" d="M151.1,295.8c-0.8-0.2-1.5,0.2-2.2,0.3c-0.8,0.1-1.7,0.4-2.5,0.7
					c-1.4,0.5-2.7,1.3-4.1,1.8c-0.2,0.1-0.1-0.4,0-0.5c1.3-1.3,2.8-2.3,4.5-2.9c0.7-0.3,1.5-0.5,2.2-0.5c0.9,0,1.4,0.5,2.1,0.9
					C151.3,295.6,151.2,295.8,151.1,295.8L151.1,295.8z"/>
			</g>
			<g id="XMLID_16029_">
				<path id="XMLID_16030_" class="st40" d="M197.1,287.3c-1.5,2.4-4.3,4.2-7.1,4.6c-0.2,0-0.1-0.4,0-0.5c1.3-0.8,2.6-1.5,3.9-2.2
					c1.1-0.6,2-1.5,3.1-2.1C197.2,287,197.2,287.3,197.1,287.3L197.1,287.3z"/>
			</g>
			<g id="XMLID_16027_">
				<path id="XMLID_16028_" class="st40" d="M197.6,295.9c-1.3,2.6-4.6,3.5-7.2,4.1c-0.1,0-0.1-0.3,0-0.3c2.2-1,5.7-1.8,7.1-4
					C197.6,295.6,197.6,295.8,197.6,295.9L197.6,295.9z"/>
			</g>
			<g id="XMLID_16025_">
				<path id="XMLID_16026_" class="st40" d="M183.8,303.5c-1.6,0.8-3.9,0.9-5.6,0.2c-0.1,0-0.1-0.3,0.1-0.3c1.9-0.1,3.7,0.5,5.6-0.2
					C183.9,303.2,183.9,303.4,183.8,303.5L183.8,303.5z"/>
			</g>
			<g id="XMLID_16023_">
				<path id="XMLID_16024_" class="st40" d="M188.6,297.7c-2.4,0.7-4.7,2-7.2,2.3c-0.1,0-0.1-0.2,0-0.3c2.3-0.9,4.8-1.7,7.2-2.3
					C188.7,297.5,188.7,297.7,188.6,297.7L188.6,297.7z"/>
			</g>
			<g id="XMLID_16021_">
				<path id="XMLID_16022_" class="st40" d="M203.2,287.3c-1.8,2.3-4,4.4-6.6,5.9c-0.1,0.1-0.1-0.2,0-0.3c2.3-1.8,4.4-3.8,6.6-5.7
					C203.2,287.1,203.2,287.3,203.2,287.3L203.2,287.3z"/>
			</g>
			<g id="XMLID_16019_">
				<path id="XMLID_16020_" class="st40" d="M163.3,292.1c-1.3-0.3-3-0.2-4.2-0.8c-0.1,0-0.1-0.3,0.1-0.3c1.4,0,3,0.1,4.2,0.9
					C163.4,292,163.4,292.1,163.3,292.1L163.3,292.1z"/>
			</g>
			<g id="XMLID_16017_">
				<path id="XMLID_16018_" class="st40" d="M156.6,301.3c-1.9-1.4-3.9-0.7-6-0.6c-0.1,0,0-0.2,0-0.2c2-0.6,4.6-1.1,6.1,0.6
					C156.7,301.1,156.6,301.3,156.6,301.3L156.6,301.3z"/>
			</g>
			<g id="XMLID_16015_">
				<path id="XMLID_16016_" class="st40" d="M137.1,299.1c-0.6,0.5-1.4,0.7-2.1,0.7c-0.1,0,0-0.2,0-0.2c0.4-0.2,0.7-0.3,1.1-0.4
					c0.3-0.1,0.7-0.2,1-0.3C137.2,298.9,137.2,299.1,137.1,299.1L137.1,299.1z"/>
			</g>
			<g id="XMLID_3799_">
				<path id="XMLID_5551_" class="st40" d="M130.4,299.4c-1.3,0.5-2.5,0.9-3.8,1.3c-0.1,0-0.1-0.2,0-0.3c1.1-0.8,2.5-1,3.8-1.3
					C130.5,299.1,130.5,299.3,130.4,299.4L130.4,299.4z"/>
			</g>
			<g id="XMLID_3797_">
				<path id="XMLID_3798_" class="st40" d="M190.1,286.5c-3.4,2.8-8.5,4-12.8,4.2c-0.1,0-0.1-0.3,0-0.3c2.1-0.6,4.2-1,6.3-1.6
					c2.2-0.6,4.2-1.6,6.4-2.4C190.2,286.4,190.1,286.5,190.1,286.5L190.1,286.5z"/>
			</g>
			<g id="XMLID_3795_">
				<path id="XMLID_3796_" class="st40" d="M193.8,307c-2.8,1.8-7.2,2.6-10.5,2.2c-0.1,0-0.1-0.3,0-0.4c1.8-0.3,3.6-0.5,5.4-0.9
					c1.7-0.4,3.3-1.1,5.1-1.3C194,306.6,193.9,306.9,193.8,307L193.8,307z"/>
			</g>
			<g id="XMLID_3793_">
				<path id="XMLID_3794_" class="st40" d="M206.6,286.2c-1.3,1.7-2.4,3.6-4.1,5c-0.2,0.1-0.1-0.3-0.1-0.4c1.2-1.8,2.5-3.5,4.1-5
					C206.7,285.7,206.7,286.2,206.6,286.2L206.6,286.2z"/>
			</g>
			<g id="XMLID_3791_">
				<path id="XMLID_3792_" class="st40" d="M188.2,314.2c-8.2,0.6-16.3,2.2-23.8-2.3c-0.1-0.1,0-0.4,0.1-0.3
					c3.7,1.5,7.5,2.5,11.5,2.6c4.1,0.2,8.2-0.3,12.2-0.3C188.3,313.9,188.3,314.2,188.2,314.2L188.2,314.2z"/>
			</g>
			<g id="XMLID_3789_">
				<path id="XMLID_3790_" class="st40" d="M154.8,307.6c-3.7-1.7-7.9-0.4-11.3,1.5c-0.1,0.1-0.1-0.2,0-0.2
					c3.1-2.4,7.8-3.7,11.4-1.5C154.9,307.4,154.8,307.6,154.8,307.6L154.8,307.6z"/>
			</g>
			<g id="XMLID_3787_">
				<path id="XMLID_3788_" class="st40" d="M144.6,302.6c-1.3,0.6-2.8,1.1-4.1,1.8c-1.3,0.6-2.5,1.4-3.8,2c-0.1,0.1-0.1-0.3,0-0.3
					c1-1.1,2.3-1.7,3.5-2.4c1.4-0.7,2.9-1.5,4.5-1.6C144.9,302.1,144.7,302.6,144.6,302.6L144.6,302.6z"/>
			</g>
			<g id="XMLID_3785_">
				<path id="XMLID_3786_" class="st40" d="M168.1,300.7c-3.9,0.6-7.9-0.9-11.2-2.9c0,0,0-0.2,0-0.2c1.7,0.6,3.4,1.3,5.1,1.8
					c2,0.6,4,0.7,6.1,1C168.3,300.4,168.2,300.7,168.1,300.7L168.1,300.7z"/>
			</g>
			<g id="XMLID_3783_">
				<path id="XMLID_3784_" class="st40" d="M172.3,294.1c-2.9,0.2-6,0.4-8.8-0.1c-0.1,0,0-0.2,0-0.2c2.9-0.1,6-0.7,8.9-0.2
					C172.5,293.7,172.4,294.1,172.3,294.1L172.3,294.1z"/>
			</g>
			<g id="XMLID_3781_">
				<path id="XMLID_3782_" class="st40" d="M168.7,288.9c-4.4,0.1-8.5-1.8-12.9-1.2c-0.1,0-0.1-0.2,0-0.3c4.5-1.5,8.5,0.6,13,0.7
					C169,288.2,168.9,288.9,168.7,288.9L168.7,288.9z"/>
			</g>
			<g id="XMLID_3779_">
				<path id="XMLID_3780_" class="st40" d="M159.6,283.9c-1.8,0.2-3.5,0.5-5.2,1c-1.7,0.5-3.1,1.3-4.7,2c-0.2,0.1-0.1-0.3,0-0.4
					c2.3-2.3,6.9-3.3,10-2.8C159.7,283.7,159.7,283.9,159.6,283.9L159.6,283.9z"/>
			</g>
			<g id="XMLID_3777_">
				<path id="XMLID_3778_" class="st40" d="M174.7,287.7c-1.7-0.5-3.3-1.5-4.9-2.2c-1.9-0.9-3.8-1.4-5.8-2c-0.1,0-0.1-0.4,0.1-0.4
					c3.5,0,7.9,2.3,10.7,4.3C174.9,287.4,174.8,287.7,174.7,287.7L174.7,287.7z"/>
			</g>
		</g>
		<g id="XMLID_16053_">
			<g id="XMLID_16104_">
				<path id="XMLID_16105_" class="st40" d="M296.8,251.5c-5,1.9-10.1,4.1-15.6,2.9c-0.1,0,0-0.3,0.1-0.3c5.5,0.5,10.4-1.1,15.5-2.9
					C296.9,251.3,296.9,251.5,296.8,251.5L296.8,251.5z"/>
			</g>
			<g id="XMLID_16102_">
				<path id="XMLID_16103_" class="st40" d="M280.8,260.3c-2.7,1-6.2,1.8-8.9,0.4c-0.1-0.1,0-0.4,0.1-0.4c2.9,0.4,6,0.6,8.8-0.3
					C280.9,260,280.9,260.2,280.8,260.3L280.8,260.3z"/>
			</g>
			<g id="XMLID_16100_">
				<path id="XMLID_16101_" class="st40" d="M274.4,253.2c-2.1-0.8-4.2-1.2-6.1-2.3c-0.1-0.1,0-0.4,0.1-0.3c2.1,0.6,4.2,1.3,6.1,2.4
					C274.5,252.9,274.5,253.2,274.4,253.2L274.4,253.2z"/>
			</g>
			<g id="XMLID_16098_">
				<path id="XMLID_16099_" class="st40" d="M267,247.5c-1.4-0.8-2.9-0.9-4.5-0.7c-0.1,0-0.1-0.2,0-0.3c1.6-0.5,3.2-0.2,4.6,0.8
					C267.1,247.4,267,247.6,267,247.5L267,247.5z"/>
			</g>
			<g id="XMLID_16096_">
				<path id="XMLID_16097_" class="st40" d="M256.2,249c-3,1.3-5.7,3-8.4,4.9c-0.1,0.1-0.1-0.2,0-0.3c2.3-2.4,5.2-4,8.5-4.9
					C256.3,248.7,256.3,249,256.2,249L256.2,249z"/>
			</g>
			<g id="XMLID_16094_">
				<path id="XMLID_16095_" class="st40" d="M262.6,252.4c-0.8-0.2-1.5,0.2-2.2,0.3c-0.8,0.1-1.7,0.4-2.5,0.7
					c-1.4,0.5-2.7,1.3-4.1,1.8c-0.2,0.1-0.1-0.4,0-0.5c1.3-1.3,2.8-2.3,4.5-2.9c0.7-0.3,1.5-0.5,2.2-0.5c0.9,0,1.4,0.5,2.1,0.9
					C262.8,252.2,262.7,252.4,262.6,252.4L262.6,252.4z"/>
			</g>
			<g id="XMLID_16092_">
				<path id="XMLID_16093_" class="st40" d="M308.6,243.9c-1.5,2.4-4.3,4.2-7.1,4.6c-0.2,0-0.1-0.4,0-0.5c1.3-0.8,2.6-1.5,3.9-2.2
					c1.1-0.6,2-1.5,3.1-2.1C308.7,243.6,308.6,243.9,308.6,243.9L308.6,243.9z"/>
			</g>
			<g id="XMLID_16090_">
				<path id="XMLID_16091_" class="st40" d="M309.1,252.5c-1.3,2.6-4.6,3.5-7.2,4.1c-0.1,0-0.1-0.3,0-0.3c2.2-1,5.7-1.8,7.1-4
					C309.1,252.2,309.1,252.4,309.1,252.5L309.1,252.5z"/>
			</g>
			<g id="XMLID_16088_">
				<path id="XMLID_16089_" class="st40" d="M295.3,260.1c-1.6,0.8-3.9,0.9-5.6,0.2c-0.1,0-0.1-0.3,0.1-0.3c1.9-0.1,3.7,0.5,5.6-0.2
					C295.4,259.8,295.4,260,295.3,260.1L295.3,260.1z"/>
			</g>
			<g id="XMLID_16086_">
				<path id="XMLID_16087_" class="st40" d="M300.1,254.3c-2.4,0.7-4.7,2-7.2,2.3c-0.1,0-0.1-0.2,0-0.3c2.3-0.9,4.8-1.7,7.2-2.3
					C300.2,254.1,300.2,254.2,300.1,254.3L300.1,254.3z"/>
			</g>
			<g id="XMLID_16084_">
				<path id="XMLID_16085_" class="st40" d="M314.6,243.9c-1.8,2.3-4,4.4-6.6,5.9c-0.1,0.1-0.1-0.2,0-0.3c2.3-1.8,4.4-3.8,6.6-5.7
					C314.7,243.7,314.7,243.9,314.6,243.9L314.6,243.9z"/>
			</g>
			<g id="XMLID_16082_">
				<path id="XMLID_16083_" class="st40" d="M274.8,248.7c-1.3-0.3-3-0.2-4.2-0.8c-0.1,0-0.1-0.3,0.1-0.3c1.4,0,3,0.1,4.2,0.9
					C274.9,248.5,274.8,248.7,274.8,248.7L274.8,248.7z"/>
			</g>
			<g id="XMLID_16080_">
				<path id="XMLID_16081_" class="st40" d="M268,257.8c-1.9-1.4-3.9-0.7-6-0.6c-0.1,0,0-0.2,0-0.2c2-0.6,4.6-1.1,6.1,0.6
					C268.1,257.7,268.1,257.9,268,257.8L268,257.8z"/>
			</g>
			<g id="XMLID_16078_">
				<path id="XMLID_16079_" class="st40" d="M248.6,255.7c-0.6,0.5-1.4,0.7-2.1,0.7c-0.1,0,0-0.2,0-0.2c0.4-0.2,0.7-0.3,1.1-0.4
					c0.3-0.1,0.7-0.2,1-0.3C248.7,255.4,248.7,255.7,248.6,255.7L248.6,255.7z"/>
			</g>
			<g id="XMLID_16076_">
				<path id="XMLID_16077_" class="st40" d="M241.9,255.9c-1.3,0.5-2.5,0.9-3.8,1.3c-0.1,0-0.1-0.2,0-0.3c1.1-0.8,2.5-1,3.8-1.3
					C242,255.6,242,255.9,241.9,255.9L241.9,255.9z"/>
			</g>
			<g id="XMLID_16074_">
				<path id="XMLID_16075_" class="st40" d="M301.6,243.1c-3.4,2.8-8.5,4-12.8,4.2c-0.1,0-0.1-0.3,0-0.3c2.1-0.6,4.2-1,6.3-1.6
					c2.2-0.6,4.2-1.6,6.4-2.4C301.6,243,301.6,243.1,301.6,243.1L301.6,243.1z"/>
			</g>
			<g id="XMLID_16072_">
				<path id="XMLID_16073_" class="st40" d="M305.3,263.6c-2.8,1.8-7.2,2.6-10.5,2.2c-0.1,0-0.1-0.3,0-0.4c1.8-0.3,3.6-0.5,5.4-0.9
					c1.7-0.4,3.3-1.1,5.1-1.3C305.4,263.2,305.4,263.5,305.3,263.6L305.3,263.6z"/>
			</g>
			<g id="XMLID_16070_">
				<path id="XMLID_16071_" class="st40" d="M318.1,242.8c-1.3,1.7-2.4,3.6-4.1,5c-0.2,0.1-0.1-0.3-0.1-0.4c1.2-1.8,2.5-3.5,4.1-5
					C318.2,242.3,318.2,242.7,318.1,242.8L318.1,242.8z"/>
			</g>
			<g id="XMLID_16068_">
				<path id="XMLID_16069_" class="st40" d="M299.6,270.8c-8.2,0.6-16.3,2.2-23.8-2.3c-0.1-0.1,0-0.4,0.1-0.3
					c3.7,1.5,7.5,2.5,11.5,2.6c4.1,0.2,8.2-0.3,12.2-0.3C299.8,270.5,299.7,270.8,299.6,270.8L299.6,270.8z"/>
			</g>
			<g id="XMLID_16066_">
				<path id="XMLID_16067_" class="st40" d="M266.3,264.2c-3.7-1.7-7.9-0.4-11.3,1.5c-0.1,0.1-0.1-0.2,0-0.2
					c3.1-2.4,7.8-3.7,11.4-1.5C266.4,264,266.3,264.2,266.3,264.2L266.3,264.2z"/>
			</g>
			<g id="XMLID_16064_">
				<path id="XMLID_16065_" class="st40" d="M256.1,259.2c-1.3,0.6-2.8,1.1-4.1,1.8c-1.3,0.6-2.5,1.4-3.8,2c-0.1,0.1-0.1-0.3,0-0.3
					c1-1.1,2.3-1.7,3.5-2.4c1.4-0.7,2.9-1.5,4.5-1.6C256.4,258.7,256.2,259.2,256.1,259.2L256.1,259.2z"/>
			</g>
			<g id="XMLID_16062_">
				<path id="XMLID_16063_" class="st40" d="M279.6,257.3c-3.9,0.6-7.9-0.9-11.2-2.9c0,0,0-0.2,0-0.2c1.7,0.6,3.4,1.3,5.1,1.8
					c2,0.6,4,0.7,6.1,1C279.7,257,279.7,257.3,279.6,257.3L279.6,257.3z"/>
			</g>
			<g id="XMLID_16060_">
				<path id="XMLID_16061_" class="st40" d="M283.7,250.7c-2.9,0.2-6,0.4-8.8-0.1c-0.1,0,0-0.2,0-0.2c2.9-0.1,6-0.7,8.9-0.2
					C284,250.3,283.9,250.7,283.7,250.7L283.7,250.7z"/>
			</g>
			<g id="XMLID_16058_">
				<path id="XMLID_16059_" class="st40" d="M280.1,245.5c-4.4,0.1-8.5-1.8-12.9-1.2c-0.1,0-0.1-0.2,0-0.3c4.5-1.5,8.5,0.6,13,0.7
					C280.5,244.8,280.4,245.5,280.1,245.5L280.1,245.5z"/>
			</g>
			<g id="XMLID_16056_">
				<path id="XMLID_16057_" class="st40" d="M271.1,240.4c-1.8,0.2-3.5,0.5-5.2,1c-1.7,0.5-3.1,1.3-4.7,2c-0.2,0.1-0.1-0.3,0-0.4
					c2.3-2.3,6.9-3.3,10-2.8C271.2,240.2,271.2,240.4,271.1,240.4L271.1,240.4z"/>
			</g>
			<g id="XMLID_16054_">
				<path id="XMLID_16055_" class="st40" d="M286.2,244.3c-1.7-0.5-3.3-1.5-4.9-2.2c-1.9-0.9-3.8-1.4-5.8-2c-0.1,0-0.1-0.4,0.1-0.4
					c3.5,0,7.9,2.3,10.7,4.3C286.3,244,286.3,244.3,286.2,244.3L286.2,244.3z"/>
			</g>
		</g>
	</g>
</g>
<g id="XMLID_6805_" class="st41">
	<path id="XMLID_46_" class="st34" d="M212.3,23.2c36.6,26.1,60.5,68.8,60.5,117.1c0,79.4-64.3,143.7-143.7,143.7
		c-20.4,0-39.7-4.2-57.3-11.9c23.5,16.7,52.2,26.6,83.3,26.6c79.4,0,143.7-64.3,143.7-143.7C298.7,96,263.1,45.3,212.3,23.2z"/>
</g>
<path id="XMLID_7972_" class="st34" d="M155,11.3c79.4,0,143.7,64.3,143.7,143.7S234.4,298.7,155,298.7S11.3,234.4,11.3,155
	S75.6,11.3,155,11.3 M155,0C113.6,0,74.7,16.1,45.4,45.4S0,113.6,0,155s16.1,80.3,45.4,109.6S113.6,310,155,310
	s80.3-16.1,109.6-45.4S310,196.4,310,155s-16.1-80.3-45.4-109.6S196.4,0,155,0L155,0z"/>
</svg>
