<?xml version="1.0" encoding="utf-8"?>
<!-- Generator: Adobe Illustrator 19.0.0, SVG Export Plug-In . SVG Version: 6.00 Build 0)  -->
<svg version="1.1" id="Layer_1" xmlns="http://www.w3.org/2000/svg" xmlns:xlink="http://www.w3.org/1999/xlink" x="0px" y="0px"
	 width="232px" height="50px" viewBox="-325 -172.5 232 50" style="enable-background:new -325 -172.5 232 50;"
	 xml:space="preserve">
<style type="text/css">
	.st0{fill:#5BC4BF;}
	.st1{opacity:0.4;fill:#FFFFFF;}
	.st2{opacity:0.05;}
	.st3{opacity:0.15;}
	.st4{opacity:0.1;}
	.st5{opacity:0.2;fill:#FFFFFF;}
	.st6{fill:#419794;}
</style>
<g>
	<path class="st0" d="M-209-165.4L-209-165.4c0-5.5-1.7-7.1-7.1-7.1H-290l-0.5,1.6l-0.3-1.6h-1.6l-0.7,3.3l-1.1-3.3h-3.4l-1.9,2.1
		l-5.2-2.1h-5.5h-4.6h12.1h-15c-5.5,0-7.1,1.6-7.1,7.1v12.8l0.8,4.5l-0.8,2.4v5.9l2.6,2.9l-2.6,2.4v4.8c0,5.5,1.7,7.1,7.1,7.1h59.5
		c1.4-0.9,3.1-1.7,4.8-1.7c3.3,0,5.3,0.9,6.2,1.7h1.9c1.3-0.7,3.2-1.7,5.6-1.7c1.3,0.1,2.5,0.8,3.5,1.7h3.4h12.3h4.4
		c5.5,0,7.1-1.7,7.1-7.1h0v-5v-8.9v-6.7l-1.7-1.4l1.7-1.2v-3l-1.7-3.8l1.7-2.8V-165.4z"/>
	<path id="XMLID_11364_" class="st1" d="M-317.9-172.5L-317.9-172.5c-5.5,0-7.1,1.6-7.1,7.1l0,0h7.1V-172.5z"/>
	<path id="XMLID_11362_" class="st2" d="M-325-129.6c0,5.5,1.7,7.1,7.1,7.1l0,0v-7.1H-325z"/>
	<path id="XMLID_11361_" class="st2" d="M-216.1-172.5L-216.1-172.5v7.1h7.1l0,0C-209-170.9-210.7-172.5-216.1-172.5z"/>
	<path id="XMLID_11359_" class="st3" d="M-216.1-122.5L-216.1-122.5c5.5,0,7.1-1.7,7.1-7.1h-7.1V-122.5z"/>
	<path id="XMLID_11336_" class="st4" d="M-317.9-129.6v7.1h59.5c1.4-0.9,3.1-1.7,4.8-1.7c3.3,0,5.3,0.9,6.2,1.7h1.9
		c1.3-0.7,3.2-1.7,5.6-1.7c1.3,0.1,2.5,0.8,3.5,1.7h3.4h12.3h4.4v-7.1H-317.9z"/>
	<polygon id="XMLID_11333_" class="st5" points="-325,-165.4 -325,-152.6 -324.2,-148.1 -325,-145.7 -325,-139.8 -322.4,-136.8 
		-325,-134.4 -325,-129.6 -317.9,-129.6 -317.9,-165.4 	"/>
	<polygon id="XMLID_11329_" class="st4" points="-209,-165.4 -216.1,-165.4 -216.1,-154.6 -216.1,-154.6 -219.1,-149.2 
		-217.6,-146.4 -217.6,-142.2 -216.1,-139.8 -217.6,-136.5 -216.1,-135 -216.1,-129.6 -209,-129.6 -209,-134.6 -209,-143.5 
		-209,-150.3 -210.7,-151.7 -209,-153 -209,-156 -210.7,-159.8 -209,-162.6 	"/>
	<polygon class="st5" points="-290,-172.5 -290.5,-170.9 -290.8,-172.5 -292.5,-172.5 -293.2,-169.2 -294.3,-172.5 -297.7,-172.5 
		-299.6,-170.4 -304.8,-172.5 -310.4,-172.5 -315,-172.5 -302.8,-172.5 -317.9,-172.5 -317.9,-165.4 -301.6,-165.4 -297.3,-168.4 
		-296,-165.4 -294.2,-165.4 -291.9,-166.5 -291.2,-165.4 -216.1,-165.4 -216.1,-172.5 	"/>
</g>
<g>
	<path class="st6" d="M-93-165.4L-93-165.4c0-5.5-1.7-7.1-7.1-7.1H-174l-0.5,1.6l-0.3-1.6h-1.6l-0.7,3.3l-1.1-3.3h-3.4l-1.9,2.1
		l-5.2-2.1h-5.5h-4.6h12.1h-15c-5.5,0-7.1,1.6-7.1,7.1v12.8l0.8,4.5l-0.8,2.4v5.9l2.6,2.9l-2.6,2.4v4.8c0,5.5,1.7,7.1,7.1,7.1h59.5
		c1.4-0.9,3.1-1.7,4.8-1.7c3.3,0,5.3,0.9,6.2,1.7h1.9c1.3-0.7,3.2-1.7,5.6-1.7c1.3,0.1,2.5,0.8,3.5,1.7h3.4h12.3h4.4
		c5.5,0,7.1-1.7,7.1-7.1h0v-5v-8.9v-6.7l-1.7-1.4l1.7-1.2v-3l-1.7-3.8l1.7-2.8V-165.4z"/>
	<path id="XMLID_7_" class="st1" d="M-201.9-172.5L-201.9-172.5c-5.5,0-7.1,1.6-7.1,7.1l0,0h7.1V-172.5z"/>
	<path id="XMLID_6_" class="st2" d="M-209-129.6c0,5.5,1.7,7.1,7.1,7.1l0,0v-7.1H-209z"/>
	<path id="XMLID_5_" class="st2" d="M-100.1-172.5L-100.1-172.5v7.1h7.1l0,0C-93-170.9-94.7-172.5-100.1-172.5z"/>
	<path id="XMLID_4_" class="st3" d="M-100.1-122.5L-100.1-122.5c5.5,0,7.1-1.7,7.1-7.1h-7.1V-122.5z"/>
	<path id="XMLID_3_" class="st4" d="M-201.9-129.6v7.1h59.5c1.4-0.9,3.1-1.7,4.8-1.7c3.3,0,5.3,0.9,6.2,1.7h1.9
		c1.3-0.7,3.2-1.7,5.6-1.7c1.3,0.1,2.5,0.8,3.5,1.7h3.4h12.3h4.4v-7.1H-201.9z"/>
	<polygon id="XMLID_2_" class="st5" points="-209,-165.4 -209,-152.6 -208.2,-148.1 -209,-145.7 -209,-139.8 -206.4,-136.8 
		-209,-134.4 -209,-129.6 -201.9,-129.6 -201.9,-165.4 	"/>
	<polygon id="XMLID_1_" class="st4" points="-93,-165.4 -100.1,-165.4 -100.1,-154.6 -100.1,-154.6 -103.1,-149.2 -101.6,-146.4 
		-101.6,-142.2 -100.1,-139.8 -101.6,-136.5 -100.1,-135 -100.1,-129.6 -93,-129.6 -93,-134.6 -93,-143.5 -93,-150.3 -94.7,-151.7 
		-93,-153 -93,-156 -94.7,-159.8 -93,-162.6 	"/>
	<polygon class="st5" points="-174,-172.5 -174.5,-170.9 -174.8,-172.5 -176.5,-172.5 -177.2,-169.2 -178.3,-172.5 -181.7,-172.5 
		-183.6,-170.4 -188.8,-172.5 -194.4,-172.5 -199,-172.5 -186.8,-172.5 -201.9,-172.5 -201.9,-165.4 -185.6,-165.4 -181.3,-168.4 
		-180,-165.4 -178.2,-165.4 -175.9,-166.5 -175.2,-165.4 -100.1,-165.4 -100.1,-172.5 	"/>
</g>
</svg>
