<?xml version="1.0" encoding="utf-8"?>
<!-- Generator: Adobe Illustrator 19.0.0, SVG Export Plug-In . SVG Version: 6.00 Build 0)  -->
<svg version="1.1" id="Layer_1" xmlns="http://www.w3.org/2000/svg" xmlns:xlink="http://www.w3.org/1999/xlink" x="0px" y="0px"
	 width="90px" height="90px" viewBox="0 0 90 90" style="enable-background:new 0 0 90 90;" xml:space="preserve">
<style type="text/css">
	.st0{fill:#ECEDF0;}
	.st1{fill-rule:evenodd;clip-rule:evenodd;fill:#32414A;}
	.st2{fill-rule:evenodd;clip-rule:evenodd;fill:#F2AB00;}
	.st3{fill-rule:evenodd;clip-rule:evenodd;fill:#FFFEE2;}
	.st4{fill-rule:evenodd;clip-rule:evenodd;fill:#E29012;}
	.st5{fill-rule:evenodd;clip-rule:evenodd;fill:#FFFEA6;}
	.st6{fill-rule:evenodd;clip-rule:evenodd;fill:#54658D;}
	.st7{fill-rule:evenodd;clip-rule:evenodd;fill:#667599;}
	.st8{fill-rule:evenodd;clip-rule:evenodd;fill:#6B83A8;}
	.st9{fill-rule:evenodd;clip-rule:evenodd;fill:#E8CDB5;}
	.st10{fill-rule:evenodd;clip-rule:evenodd;fill:#DEC3AB;}
	.st11{fill-rule:evenodd;clip-rule:evenodd;fill:#EBD7C5;}
	.st12{fill-rule:evenodd;clip-rule:evenodd;fill:#E04D18;}
	.st13{fill-rule:evenodd;clip-rule:evenodd;fill:#E76F45;}
	.st14{fill-rule:evenodd;clip-rule:evenodd;fill:#FAF0E3;}
	.st15{fill-rule:evenodd;clip-rule:evenodd;fill:#CF4817;}
	.st16{fill-rule:evenodd;clip-rule:evenodd;fill:#BA4217;}
	.st17{fill-rule:evenodd;clip-rule:evenodd;fill:#F07C52;}
	.st18{fill-rule:evenodd;clip-rule:evenodd;fill:#F2E0D0;}
	.st19{fill-rule:evenodd;clip-rule:evenodd;fill:#E0CAB6;}
	.st20{fill-rule:evenodd;clip-rule:evenodd;fill:#4B517B;}
	.st21{fill-rule:evenodd;clip-rule:evenodd;fill:#546387;}
	.st22{fill-rule:evenodd;clip-rule:evenodd;fill:#1F1A17;}
	.st23{fill-rule:evenodd;clip-rule:evenodd;fill:#EAF2F8;}
	.st24{fill-rule:evenodd;clip-rule:evenodd;fill:#FFFFFF;}
	.st25{fill-rule:evenodd;clip-rule:evenodd;fill:#126570;}
	.st26{fill-rule:evenodd;clip-rule:evenodd;fill:#2A757F;}
	.st27{fill-rule:evenodd;clip-rule:evenodd;fill:#CDD4D2;}
	.st28{fill-rule:evenodd;clip-rule:evenodd;fill:#E1E9E7;}
	.st29{fill-rule:evenodd;clip-rule:evenodd;fill:#25818E;}
	.st30{fill-rule:evenodd;clip-rule:evenodd;fill:#423435;}
	.st31{fill-rule:evenodd;clip-rule:evenodd;fill:#F7FBFE;}
	.st32{fill-rule:evenodd;clip-rule:evenodd;fill:#F1A286;}
	.st33{fill-rule:evenodd;clip-rule:evenodd;fill:#386078;}
	.st34{fill-rule:evenodd;clip-rule:evenodd;fill:#9375A5;}
	.st35{fill-rule:evenodd;clip-rule:evenodd;fill:#9E83AE;}
	.st36{fill-rule:evenodd;clip-rule:evenodd;fill:#AC6993;}
	.st37{fill-rule:evenodd;clip-rule:evenodd;fill:#974578;}
	.st38{fill-rule:evenodd;clip-rule:evenodd;fill:#CE2C30;}
	.st39{fill-rule:evenodd;clip-rule:evenodd;fill:#E5615C;}
	.st40{fill-rule:evenodd;clip-rule:evenodd;fill:#EFAC05;}
	.st41{fill-rule:evenodd;clip-rule:evenodd;fill:#84C225;}
	.st42{fill-rule:evenodd;clip-rule:evenodd;fill:#3DADBC;}
	.st43{fill-rule:evenodd;clip-rule:evenodd;fill:#F8B249;}
	.st44{fill-rule:evenodd;clip-rule:evenodd;fill:#F59403;}
	.st45{fill-rule:evenodd;clip-rule:evenodd;fill:#5EBB77;}
	.st46{fill-rule:evenodd;clip-rule:evenodd;fill:#2C9D50;}
	.st47{fill-rule:evenodd;clip-rule:evenodd;fill:#3189C0;}
	.st48{fill-rule:evenodd;clip-rule:evenodd;fill:#006CB1;}
	.st49{fill-rule:evenodd;clip-rule:evenodd;fill:#F8C203;}
	.st50{fill-rule:evenodd;clip-rule:evenodd;fill:#9CCD1F;}
	.st51{fill-rule:evenodd;clip-rule:evenodd;fill:#68C5D2;}
</style>
<g id="XMLID_12108_">
	<circle id="XMLID_12115_" class="st0" cx="45" cy="45" r="45"/>
</g>
<g id="XMLID_1_">
	<g id="XMLID_296_">
		<polygon id="XMLID_300_" class="st1" points="29.2,49.9 35.8,38.1 36.5,38.1 29.5,50.5 		"/>
		<polygon id="XMLID_299_" class="st1" points="58.3,49.7 51.6,38 50.9,38.1 58,50.4 		"/>
		<polygon id="XMLID_298_" class="st1" points="35.9,38.1 39.9,47.3 40.3,47.3 36.5,38.1 		"/>
		<polygon id="XMLID_297_" class="st1" points="51.5,38.1 47.5,47.3 47.1,47.2 50.9,38 		"/>
	</g>
	<g id="XMLID_151_">
		<g id="XMLID_244_">
			<path id="XMLID_256_" class="st2" d="M48,78.4l0.2,1.9c-0.1,1.1-0.1,2.7,1.4,2.3c1.3-0.4,1.7-1.3,1.3-2.6l-0.7-2
				C49.4,78.2,48.8,78.4,48,78.4z"/>
			<path id="XMLID_250_" class="st3" d="M48.2,81.6c0,0.8,0.1,1.1,0.5,1.3c0.4,0.2,0.7,0.2,1.1,0.1c0.7-0.1,1.1-0.5,1.4-0.9
				c0.8-1.4-0.2-2.9-0.7-4.2L50.2,78l0.7,2c0.4,1.3,0,2.2-1.3,2.6C48.7,82.8,48.3,82.3,48.2,81.6L48.2,81.6z M50.2,78L50.2,78
				L50.2,78L50.2,78z"/>
			<path id="XMLID_249_" class="st4" d="M48.7,78.3l0.4,2.2c0.1,0.6,1,0.4,0.8-0.2l-0.5-2.1C49.2,78.3,49,78.3,48.7,78.3z"/>
			<path id="XMLID_247_" class="st5" d="M48.5,78.8l1.2-0.2c0.1,0,0.1,0,0.1,0.1l0,0c0,0.1,0,0.1-0.1,0.1L48.6,79
				c-0.1,0-0.1,0-0.1-0.1l0,0C48.4,78.9,48.5,78.8,48.5,78.8z"/>
			<path id="XMLID_246_" class="st5" d="M48.6,79.5l1.2-0.2c0.1,0,0.1,0,0.1,0.1l0,0c0,0.1,0,0.1-0.1,0.1l-1.2,0.2
				c-0.1,0-0.1,0-0.1-0.1l0,0C48.5,79.5,48.6,79.5,48.6,79.5z"/>
			<path id="XMLID_245_" class="st5" d="M48.8,80.1l1.2-0.2c0.1,0,0.1,0,0.1,0.1l0,0c0,0.1,0,0.1-0.1,0.1l-1.2,0.2
				c-0.1,0-0.1,0-0.1-0.1l0,0C48.7,80.2,48.7,80.1,48.8,80.1z"/>
		</g>
		<g id="XMLID_232_">
			<path id="XMLID_242_" class="st2" d="M40,78.4l-0.2,1.9c0.1,1.1,0.1,2.7-1.4,2.3c-1.3-0.4-1.7-1.3-1.4-2.6l0.7-2
				C38.6,78.3,39.2,78.4,40,78.4z"/>
			<path id="XMLID_238_" class="st3" d="M39.8,81.7c0,0.8-0.1,1.1-0.4,1.3c-0.4,0.2-0.7,0.2-1.1,0.1c-0.7-0.1-1.1-0.4-1.4-0.9
				c-0.8-1.4,0.2-2.9,0.7-4.2l0.2,0.1L37,80c-0.4,1.3,0.1,2.2,1.4,2.6C39.3,82.8,39.7,82.3,39.8,81.7L39.8,81.7z M37.8,78L37.8,78
				L37.8,78L37.8,78z"/>
			<path id="XMLID_237_" class="st4" d="M39.3,78.4l-0.4,2.2c-0.1,0.6-1,0.4-0.8-0.2l0.5-2.2C38.8,78.3,39,78.4,39.3,78.4z"/>
			<path id="XMLID_236_" class="st5" d="M39.5,78.8l-1.2-0.2c-0.1,0-0.1,0-0.1,0.1l0,0c0,0.1,0,0.1,0.1,0.1l1.2,0.2
				c0.1,0,0.1,0,0.1-0.1l0,0C39.6,78.9,39.5,78.9,39.5,78.8z"/>
			<path id="XMLID_235_" class="st5" d="M39.4,79.5l-1.2-0.2c-0.1,0-0.1,0-0.1,0.1l0,0c0,0.1,0,0.1,0.1,0.1l1.2,0.2
				c0.1,0,0.1,0,0.1-0.1l0,0C39.5,79.6,39.4,79.5,39.4,79.5z"/>
			<path id="XMLID_233_" class="st5" d="M39.2,80.2L38,79.9c-0.1,0-0.1,0-0.1,0.1l0,0c0,0.1,0,0.1,0.1,0.1l1.2,0.2
				c0.1,0,0.1,0,0.1-0.1l0,0C39.3,80.2,39.3,80.2,39.2,80.2z"/>
		</g>
		<path id="XMLID_231_" class="st6" d="M45.5,46.5l1.6,0.5c1-0.4,2.6,0.3,2.6,1.8c1.1,1.5,2,3.1,3,4.8c1.1-1.2,2.3-1.9,3.2-3.4
			l1.6,1c-1.2,1.8-2.1,3.2-3.8,4.4c-0.6,0.9-1.7,1.4-2.5,0.2c-1.2-1.9-2.4-2.8-3.6-4.7l0,5.8l-3.8,0L40,57l-0.1-5.8
			c-1.2,1.9-2.5,2.8-3.7,4.8c-0.7,1.2-1.3,0.6-2.3-0.1c-1.7-1.3-2.8-2.7-3.9-4.5l1.6-1c1,1.4,2.1,2.2,3.2,3.7c1-1.7,1.9-3.7,3-5.2
			c0-1.5,1.6-2.2,2.6-1.8l1.6-0.5l1.7,0.6L45.5,46.5z"/>
		<path id="XMLID_230_" class="st7" d="M43.8,57L40,57l-0.1-5.8c-1.2,1.9-2.5,2.8-3.7,4.8c-0.7,1.2-1.2,0.7-2.2-0.1
			c-1.7-1.3-2.7-2.6-3.9-4.5l1.6-1c1,1.5,2.1,2,3.2,3.5c1-1.7,2-3.4,3-4.9c0-1.5,1.6-2.2,2.6-1.8l1.6-0.5l1.7,0.6L43.8,57z"/>
		<path id="XMLID_229_" class="st8" d="M55.6,50.6c0.1-0.1,0.3-0.3,0.4-0.4l1.6,1c-0.1,0.2-0.2,0.4-0.3,0.7L55.6,50.6z"/>
		<path id="XMLID_228_" class="st9" d="M42.6,44.8l2.3,0c0.4,0,0.8,0.3,0.8,0.8l0,1.2c0,1.2-3.8,1.2-3.8,0l0-1.2
			C41.9,45.2,42.2,44.8,42.6,44.8z"/>
		<path id="XMLID_227_" class="st10" d="M42.6,44.8l2.3,0c0.4,0,0.8,0.3,0.8,0.8l0,0.5l-0.3,0.2c-1.6,1-1.5,1-3.1,0
			c-0.1-0.1-0.3-0.2-0.4-0.2l0-0.5C41.9,45.2,42.2,44.8,42.6,44.8z"/>
		<path id="XMLID_226_" class="st11" d="M43.8,47l0,0.6c-1,0-1.9-0.3-1.9-0.9l0-0.7c0.1,0.1,0.2,0.1,0.4,0.2
			C43,46.8,43.4,47,43.8,47z"/>
		
			<ellipse id="XMLID_225_" transform="matrix(-4.394373e-03 -1 1 -4.394373e-03 2.3524 85.5971)" class="st12" cx="43.8" cy="41.6" rx="4.2" ry="4.3"/>
		<path id="XMLID_224_" class="st13" d="M43.8,45.8c-2.4,0-4.3-1.9-4.3-4.2c0-2.3,1.9-4.2,4.3-4.2L43.8,45.8z"/>
		<path id="XMLID_223_" class="st11" d="M45.3,40.2c1.6,1,1.6,0.9,1.6,2.9c0,2,0.1,1.9-1.6,2.9c-1.6,1-1.5,1-3.1,0
			c-1.6-1-1.6-0.9-1.6-2.9c0-2-0.1-1.9,1.6-2.9C43.8,39.3,43.7,39.3,45.3,40.2z"/>
		<path id="XMLID_222_" class="st14" d="M43.8,46.8c-0.4,0-0.7-0.3-1.6-0.7c-1.6-1-1.6-0.9-1.6-2.9c0-2-0.1-1.9,1.6-2.9
			c0.8-0.5,1.2-0.8,1.5-0.8L43.8,46.8z"/>
		<ellipse id="XMLID_221_" class="st12" cx="43.8" cy="40.1" rx="3.6" ry="1.1"/>
		<path id="XMLID_220_" class="st13" d="M43.8,41.2c-2,0-3.6-0.5-3.6-1.1c0-0.6,1.6-1.1,3.6-1.1L43.8,41.2z"/>
		<path id="XMLID_219_" class="st13" d="M47.7,56.9c0.7,3.1,0.9,7.5,1.4,11.4c0.4,2.9,1,6.7,1.4,9.6c-1.1,0.3-1.8,0.6-2.9,0.4
			c-0.5-2.4-0.8-5.5-0.9-7.9c-0.4-0.5-0.5-1.4-0.6-2.1L44,61.8l-0.3,0l-1.9,6.6c-0.1,0.7-0.3,1.6-0.6,2.1c-0.1,2.4-0.3,5.5-0.8,7.9
			c-1.1,0.1-1.8-0.1-2.9-0.4c0.3-2.9,0.8-6.7,1.3-9.6c0.4-4,0.6-8.4,1.3-11.5l3.8,0L47.7,56.9z"/>
		<path id="XMLID_218_" class="st12" d="M43.9,61.8l-0.1,0l-1.9,6.6c-0.1,0.7-0.3,1.6-0.6,2.1c-0.1,2.4-0.3,5.5-0.8,7.9
			c-1.1,0.1-1.8-0.1-2.9-0.4c0.3-2.9,0.8-6.7,1.3-9.6c0.4-4,0.6-8.4,1.3-11.5l3.8,0L43.9,61.8z"/>
		<path id="XMLID_217_" class="st15" d="M47.7,56.9c0.7,3.1,0.9,7.5,1.4,11.4c0.4,2.9,1,6.7,1.4,9.6c-0.5,0.2-0.9,0.3-1.4,0.4
			l-1.2-7.9c-0.3-0.4-0.6-1.5-0.6-2.3l-1.7-11.2L47.7,56.9z"/>
		<path id="XMLID_216_" class="st16" d="M46.1,68.7c0.2,1.8,0.8,2.4,2.5,1.6C47,70.6,46.6,70.2,46.1,68.7z"/>
		<path id="XMLID_215_" class="st16" d="M47.7,56.9c0.2,1,0.4,2.2,0.6,3.5c-1.3-0.7-1.5-1.5-1.8-3.4L47.7,56.9z"/>
		<path id="XMLID_214_" class="st17" d="M40.1,56.9c-0.7,3.1-0.9,7.5-1.3,11.5c-0.4,2.9-1,6.7-1.3,9.6c0.5,0.2,0.9,0.3,1.4,0.4
			l1.2-7.9c0.3-0.4,0.6-1.5,0.6-2.3l1.6-11.3L40.1,56.9z"/>
		<path id="XMLID_213_" class="st16" d="M41.7,68.7c-0.2,1.8-0.8,2.4-2.4,1.7C40.9,70.7,41.2,70.2,41.7,68.7z"/>
		<path id="XMLID_212_" class="st16" d="M40.1,56.9c-0.2,1-0.4,2.2-0.5,3.5c1.3-0.7,1.4-1.5,1.8-3.5L40.1,56.9z"/>
		<path id="XMLID_211_" class="st18" d="M57.5,51.1c0.5-0.5,0.9-0.9,1.1-1.3c0.3-0.3,0.2-0.9,0.1-1c0.1-0.3-0.2-0.7-0.5-0.7
			c-0.1-0.2-0.4-0.5-0.7-0.4c-0.3-0.3-0.7-0.4-0.9,0.2l-0.3,0.8l0-0.4c0.4-0.3,0.3-1,0-1.1L56,48c-0.5,0.7-0.5,1-0.1,1.7l0.1,0.5
			L57.5,51.1z"/>
		<path id="XMLID_210_" class="st19" d="M57.5,51.1c0.1-0.1,0.1-0.1,0.2-0.2L56,50l0,0.2L57.5,51.1z"/>
		<path id="XMLID_209_" class="st20" d="M44.2,47.6l0,9.3l-0.4,0l-0.5,0l0-9.3C43.6,47.7,43.9,47.7,44.2,47.6z"/>
		<path id="XMLID_208_" class="st21" d="M43.8,57l-0.5,0l0-9.3c0.2,0,0.3,0,0.5,0L43.8,57z"/>
		
			<rect id="XMLID_207_" x="39.9" y="55.9" transform="matrix(-1 4.907179e-03 -4.907179e-03 -1 88.0279 112.7989)" class="st22" width="7.9" height="1.2"/>
		<g id="XMLID_203_">
			<polygon id="XMLID_205_" class="st22" points="47,46.8 45.2,56.5 46,56.4 48.1,46.8 			"/>
			<polygon id="XMLID_204_" class="st22" points="40.7,46.8 42.5,56.5 41.7,56.5 39.5,46.8 			"/>
		</g>
		
			<rect id="XMLID_202_" x="41" y="50.2" transform="matrix(-1 5.029807e-03 -5.029807e-03 -1 88.1121 101.0001)" class="st22" width="5.9" height="0.9"/>
		<polygon id="XMLID_201_" class="st14" points="43.7,42.3 44.1,43.4 44.4,44.6 43.8,44.6 43.1,44.6 43.4,43.5 		"/>
		<path id="XMLID_200_" class="st23" d="M42.7,45.2c0.7,0.1,1.4,0,2.1,0c0,0.4-0.4,0.7-1,0.7C43.2,45.9,42.7,45.6,42.7,45.2z"/>
		<path id="XMLID_198_" class="st24" d="M42.7,45.2c0.3,0,0.7,0,1,0l0,0.6l0,0C43.2,45.9,42.7,45.5,42.7,45.2z"/>
		<path id="XMLID_195_" class="st25" d="M41.2,41.9c-0.4,0-0.5,0.2-0.5,0.6l0,0.6c0,0.2,0.1,0.4,0.3,0.6c0.6,0.6,1.4,0.8,2.1,0.1
			c0.5-0.6,0.8-0.6,1.3,0c0.7,0.8,1.5,0.5,2.1-0.1c0.2-0.2,0.3-0.3,0.3-0.6l0-0.6c0-0.4-0.1-0.6-0.5-0.6L41.2,41.9L41.2,41.9z
			 M43,43.5c-0.6,0.7-1.3,0.5-1.9-0.1c-0.2-0.2-0.2-0.2-0.2-0.4l0-0.5c0-0.2,0.1-0.4,0.3-0.4c1.7,0,3.5,0,5.2,0
			c0.2,0,0.3,0.2,0.3,0.4l0,0.5c0,0.2-0.1,0.3-0.2,0.4c-0.6,0.5-1.2,0.8-1.9,0.1C44,42.9,43.6,42.9,43,43.5z"/>
		<path id="XMLID_194_" class="st26" d="M41.2,41.9c-0.4,0-0.5,0.2-0.5,0.6l0,0.6c0,0.2,0.1,0.4,0.3,0.6c0.6,0.6,1.4,0.8,2.1,0.1
			c0.2-0.3,0.4-0.4,0.6-0.4l0-0.2c-0.2,0-0.5,0.2-0.7,0.4c-0.6,0.7-1.3,0.5-1.9-0.1c-0.2-0.2-0.2-0.2-0.2-0.4l0-0.5
			c0-0.2,0.1-0.4,0.3-0.4l2.6,0l0-0.3L41.2,41.9z"/>
		<path id="XMLID_193_" class="st27" d="M43,43.5c-0.6,0.7-1.3,0.5-1.9-0.1c-0.2-0.2-0.2-0.2-0.2-0.4l0-0.5c0-0.2,0.1-0.4,0.3-0.4
			c1.7,0,3.5,0,5.2,0c0.2,0,0.3,0.2,0.3,0.4l0,0.5c0,0.2-0.1,0.3-0.2,0.4c-0.6,0.5-1.2,0.8-1.9,0.1C44,42.9,43.6,42.9,43,43.5z"/>
		<path id="XMLID_192_" class="st28" d="M43,43.5c-0.6,0.7-1.3,0.5-1.9-0.1c-0.2-0.2-0.2-0.2-0.2-0.4l0-0.5c0-0.2,0.1-0.4,0.3-0.4
			l2.6,0l0,0.3l0.2,0.7c-0.1,0-0.1,0-0.2,0l0,0l0,0l0,0c0,0,0,0-0.1,0l0,0C43.5,43.1,43.3,43.3,43,43.5z"/>
		<g id="XMLID_185_">
			<ellipse id="XMLID_191_" class="st24" cx="42.2" cy="42.9" rx="0.9" ry="0.5"/>
			<ellipse id="XMLID_189_" class="st29" cx="42.2" cy="42.9" rx="0.5" ry="0.5"/>
			<circle id="XMLID_188_" class="st30" cx="42.2" cy="42.9" r="0.2"/>
			<circle id="XMLID_187_" class="st24" cx="41.9" cy="42.8" r="0.1"/>
			<circle id="XMLID_186_" class="st24" cx="42" cy="43.2" r="0.1"/>
		</g>
		<g id="XMLID_177_">
			<ellipse id="XMLID_183_" class="st24" cx="45.4" cy="42.9" rx="0.9" ry="0.5"/>
			<ellipse id="XMLID_182_" class="st29" cx="45.3" cy="42.9" rx="0.5" ry="0.5"/>
			<circle id="XMLID_181_" class="st30" cx="45.3" cy="42.9" r="0.2"/>
			<circle id="XMLID_180_" class="st24" cx="45.1" cy="42.8" r="0.1"/>
			<circle id="XMLID_178_" class="st24" cx="45.1" cy="43.2" r="0.1"/>
		</g>
		<g id="XMLID_172_">
			<path id="XMLID_176_" class="st31" d="M41.1,43.4C41,43.3,41,43.3,41,43.2l0.7-1l0.3,0L41.1,43.4z"/>
			<path id="XMLID_175_" class="st31" d="M44,42.2l0.4,0l-0.6,0.9c-0.1,0-0.2,0-0.3,0.1L44,42.2z"/>
			<path id="XMLID_174_" class="st31" d="M44.6,42.2L44.6,42.2l-0.4,1.1c-0.1,0-0.1-0.1-0.2-0.1L44.6,42.2z"/>
			<path id="XMLID_173_" class="st31" d="M46.6,42.3c0,0.1,0,0.1,0,0.2l0,0l-0.4,1c-0.2,0.1-0.4,0.3-0.6,0.3L46.6,42.3z"/>
		</g>
		<path id="XMLID_171_" class="st32" d="M44.1,37.8c-2.4,0.5-3.8,1.7-4.3,4.1C39.8,39.3,41.5,37.9,44.1,37.8z"/>
		<path id="XMLID_170_" class="st22" d="M43.7,61.7l-0.2,0.9l-3.8-4.1c0.1-0.6,0.2-1.1,0.3-1.7L43.7,61.7z"/>
		<path id="XMLID_169_" class="st22" d="M44.1,61.7l0.2,0.9l3.8-4.1c-0.1-0.6-0.2-1.1-0.3-1.7L44.1,61.7z"/>
		<path id="XMLID_167_" class="st8" d="M32.1,50.8c-0.1-0.1-0.3-0.3-0.4-0.4l-1.6,1c0.1,0.2,0.2,0.4,0.3,0.7L32.1,50.8z"/>
		<path id="XMLID_166_" class="st18" d="M30.1,51.3c-0.6-0.5-0.9-0.9-1.2-1.3c-0.3-0.3-0.2-0.9-0.1-1c-0.1-0.3,0.2-0.8,0.5-0.7
			c0.1-0.2,0.4-0.5,0.7-0.4c0.3-0.3,0.7-0.4,0.9,0.2l0.3,0.8l0-0.4c-0.4-0.3-0.3-0.9,0-1.1l0.4,0.7c0.5,0.7,0.5,1,0.1,1.7l-0.1,0.5
			L30.1,51.3z"/>
		<path id="XMLID_165_" class="st19" d="M30.1,51.3c-0.1-0.1-0.1-0.1-0.2-0.2l1.8-0.9l0,0.2L30.1,51.3z"/>
		<g id="XMLID_157_">
			<path id="XMLID_164_" class="st14" d="M58.3,48.1c-0.1,0.5-0.5,1-0.8,1.5c-0.3,0.5,0.2,0.7,0.5,0.4c0.3-0.4,0.5-0.7,0.8-1.1l0,0
				l0,0l0,0C58.9,48.6,58.5,48.1,58.3,48.1L58.3,48.1z"/>
			<path id="XMLID_160_" class="st14" d="M57.6,47.8L57.6,47.8l-0.7,1.4c-0.2,0.5,0.3,0.7,0.5,0.4c0.3-0.5,0.7-1,0.9-1.5
				C58.2,47.9,57.9,47.7,57.6,47.8L57.6,47.8z"/>
			<path id="XMLID_159_" class="st14" d="M56.4,48.9c-0.1,0.4,0.3,0.8,0.5,0.3l0.7-1.4c-0.3-0.3-0.6-0.3-0.8,0.2l-0.3,0.6L56.4,48.9
				z"/>
			<path id="XMLID_158_" class="st14" d="M58.2,50.4c0.2-0.2,0.3-0.4,0.4-0.6c0.3-0.3,0.2-0.9,0.1-0.9c-0.2,0.4-0.5,0.8-0.8,1.1
				C57.8,50.3,57.9,50.5,58.2,50.4z"/>
		</g>
		<g id="XMLID_152_">
			<path id="XMLID_156_" class="st14" d="M29.4,50.5c-0.2-0.2-0.3-0.4-0.4-0.6c-0.3-0.3-0.2-0.8-0.1-0.9c0.2,0.4,0.5,0.8,0.8,1.1
				C29.9,50.5,29.7,50.6,29.4,50.5z"/>
			<path id="XMLID_155_" class="st14" d="M29.3,48.3c0.1,0.5,0.5,1,0.8,1.5c0.3,0.5-0.2,0.7-0.5,0.4c-0.3-0.4-0.6-0.7-0.8-1.1l0,0
				l0,0l0,0C28.8,48.7,29.1,48.3,29.3,48.3L29.3,48.3z"/>
			<path id="XMLID_154_" class="st14" d="M30,47.9L30,47.9l0.7,1.4c0.2,0.5-0.3,0.7-0.5,0.4c-0.3-0.5-0.7-1-0.9-1.5
				C29.4,48.1,29.7,47.8,30,47.9L30,47.9z"/>
			<path id="XMLID_153_" class="st14" d="M31.2,49c0.1,0.4-0.3,0.8-0.5,0.3L30,47.9c0.3-0.3,0.6-0.3,0.8,0.2l0.3,0.6L31.2,49z"/>
		</g>
	</g>
	<polygon id="XMLID_258_" class="st33" points="58.6,28 52.2,35.5 50.5,35.5 54.9,28 54.3,28 49.9,35.5 48.4,35.5 50.9,28 50.3,28 
		47.8,35.5 45.7,35.5 47.2,28 46.6,28 45.1,35.5 41.8,35.5 40.5,28 39.9,28 41.2,35.5 39.2,35.5 36.7,28 36.2,28 38.6,35.5 
		37.1,35.5 32.8,28 32.1,28 36.4,35.5 34.8,35.5 28.4,28 27.6,28 34.9,36.6 35.7,38.2 51.8,38.1 52.7,35.7 59.3,28 	"/>
	<g id="XMLID_259_">
		<path id="XMLID_280_" class="st34" d="M69.7,19.7c2.2,0,4.6,1.3,5.8,3.5c2.4,4.4,3.6,9.8,4.3,14.5c0.1,3.6-5.2,2-5.4-2.1
			c0-0.1,0-0.1,0-0.2c0-0.5-0.2-1.4-0.4-2.5C73.2,28.7,71.4,23.7,69.7,19.7z"/>
		<path id="XMLID_278_" class="st35" d="M69.7,19.7c0.8,0,1.9,0.2,2.6,0.4c2.7,5.9,4.4,13.1,5.6,19.3c0,0.1,0,0.1,0,0.1
			c-1.5-0.2-3.4-1.7-3.4-4.1c0-0.1,0-0.1,0-0.2c0-0.5-0.3-1.4-0.5-2.5C73.2,28.7,71.4,23.7,69.7,19.7z"/>
		<path id="XMLID_277_" class="st36" d="M20.1,19.8c-2.2,0-4.5,1.4-5.7,3.6c-2.4,4.4-3.5,9.9-4.2,14.5c-0.1,3.6,5.3,2,5.3-2.2
			c0-0.1,0-0.1,0-0.2c0-0.5,0.4-1.5,0.6-2.7C16.9,28.8,18.4,23.8,20.1,19.8z"/>
		<path id="XMLID_276_" class="st37" d="M20,19.8c-0.8,0-1.7,0.3-2.4,0.6c-2.7,6-4.3,13.1-5.4,19.3c0,0.1,0,0.1,0,0.1
			c1.5-0.2,3.3-1.7,3.4-4.1c0-0.1,0-0.1,0-0.2C16.5,30.6,18.3,24.5,20,19.8z"/>
		<path id="XMLID_275_" class="st38" d="M40.2,27c2.1,3,8,2.9,9.5-0.2c-0.4-5.1-0.6-9.6-1.5-14.2c-0.1-0.6-0.2-1.2-0.5-1.7
			c-1.4-2.3-4.3-2.4-5.7,0C41.1,12.2,40.5,22.1,40.2,27z"/>
		<path id="XMLID_272_" class="st39" d="M40.2,27c1,1.5,2.9,2.2,4.8,2.2L44.9,9c-1.1,0-2.2,0.5-2.9,1.7C41.1,12.2,40.5,22.1,40.2,27
			z"/>
		<path id="XMLID_271_" class="st40" d="M47.7,10.8c1.6-2.2,4.6-1.5,6.1,1.2c1.3,2.7,3.9,10.2,4.6,15c-1.4,3.7-6.9,3.2-8.7-0.1
			c0-0.1,0.1-0.1,0.1-0.2c-0.4-5.1-0.6-9.6-1.5-14.2C48.1,11.9,48,11.3,47.7,10.8z"/>
		<path id="XMLID_270_" class="st41" d="M53.8,12c2.1-2.1,6.4-0.2,7.8,2.4c2.3,4.3,5,12.5,5.4,16.3c-1.8,1.6-7.7,0.4-8.7-3.7l0,0
			C57.7,22.2,55.1,14.8,53.8,12z"/>
		<path id="XMLID_269_" class="st42" d="M61.5,14.4c3.2-0.8,6.3,0.9,8.5,5.4c2.2,5.5,4.4,13.9,4.4,15.7c-3.8,1.3-7.2-3-7.4-4.8
			C66.6,26.9,63.8,18.6,61.5,14.4z"/>
		<path id="XMLID_268_" class="st43" d="M42,10.7c-1.6-2.1-4.5-1.4-6,1.3c-1.3,2.7-3.8,10.2-4.4,15.1c1.4,3.7,6.8,3.1,8.7-0.1
			c0,0,0,0-0.1-0.1l0-0.2l0,0c0.2-3.3,0.4-6.4,0.7-9.4C41.2,14.2,41.6,11.4,42,10.7z"/>
		<path id="XMLID_267_" class="st44" d="M42,10.7c-0.7-1-1.8-1.3-2.8-1.2c0,0.1-0.1,0.2-0.1,0.4C38,13.5,35.9,22.5,35,29.7
			c2,0.2,4.2-0.8,5.3-2.6c0,0,0,0-0.1-0.1l0-0.2l0,0c0.2-3.3,0.4-6.4,0.7-9.4C41.2,14.2,41.6,11.4,42,10.7z"/>
		<path id="XMLID_266_" class="st45" d="M36,12.1c-2.1-2.1-6.4-0.1-7.8,2.5C26,18.9,23.3,27.2,23,30.9c1.8,1.5,7.7,0.3,8.6-3.8l0,0
			C32.2,22.3,34.7,14.9,36,12.1z"/>
		<path id="XMLID_265_" class="st46" d="M36,12.1c-0.8-0.8-2-1-3.2-0.8c-0.2,0.3-0.3,0.6-0.4,0.9c-2.1,4.9-4.7,13.4-6,19.3
			c2.2-0.4,4.6-1.8,5.2-4.3l0,0C32.2,22.3,34.7,14.9,36,12.1z"/>
		<path id="XMLID_264_" class="st47" d="M28.3,14.5c-3.2-0.8-6.3,0.9-8.4,5.5c-2.2,5.5-4.3,13.9-4.3,15.7c3.8,1.3,7.2-3.1,7.4-4.9
			C23.3,27.1,26,18.8,28.3,14.5z"/>
		<path id="XMLID_263_" class="st48" d="M28.3,14.5c-1.1-0.3-2.1-0.3-3.2,0.1c-0.6,0.9-1.1,2-1.6,3.2c-2,5.7-4.1,13.6-4.9,17.9
			c2.4-0.9,4.2-3.5,4.3-4.8C23.3,27.1,26,18.8,28.3,14.5z"/>
		<path id="XMLID_262_" class="st49" d="M47.8,10.7c0.7-1,1.8-1.3,2.8-1.2c0,0.1,0.1,0.2,0.1,0.4c1.1,3.5,3.2,12.5,4.2,19.7
			c-2,0.2-4.2-0.7-5.3-2.6c0,0,0,0,0.1-0.1l0-0.2l0,0c-0.2-3.3-0.4-6.4-0.8-9.4C48.7,14.2,48.3,11.4,47.8,10.7z"/>
		<path id="XMLID_261_" class="st50" d="M53.9,12c0.8-0.8,2-1,3.2-0.8c0.2,0.3,0.3,0.6,0.4,0.8c2.2,4.9,4.9,13.4,6.2,19.2
			c-2.2-0.3-4.7-1.8-5.3-4.3l0,0C57.8,22.2,55.2,14.8,53.9,12z"/>
		<path id="XMLID_260_" class="st51" d="M61.6,14.4c1.1-0.3,2.1-0.3,3.2,0c0.6,0.9,1.1,2,1.6,3.2c2,5.6,4.2,13.6,5.1,17.8
			c-2.4-0.9-4.2-3.5-4.4-4.7C66.7,26.9,63.9,18.6,61.6,14.4z"/>
	</g>
</g>
</svg>
