<?xml version="1.0" encoding="utf-8"?>
<!-- Generator: Adobe Illustrator 19.0.0, SVG Export Plug-In . SVG Version: 6.00 Build 0)  -->
<svg version="1.1" id="Layer_1" xmlns="http://www.w3.org/2000/svg" xmlns:xlink="http://www.w3.org/1999/xlink" x="0px" y="0px"
	 width="160px" height="357px" viewBox="0 0 160 357" style="enable-background:new 0 0 160 357;" xml:space="preserve">
<style type="text/css">
	.st0{opacity:0.6;fill:#606060;}
	.st1{fill:#DDCDAB;}
	.st2{fill:#399127;}
	.st3{fill:#B52840;}
	.st4{fill:#EA5467;}
	.st5{fill:#BCBEC0;}
	.st6{fill:#333333;}
</style>
<g id="XMLID_534_">
	<path id="XMLID_526_" class="st0" d="M1.5,338.2l-1.5,4l1.5,0.5c-1.5,6.2,0.9,12.1,5.9,13.8c5.2,1.8,11.4-1.5,14.5-7.4l1.8,0.6
		l1.6-4l-1.2-0.4l3.6-9l1.1,0.4l1.5-4l-0.7-0.2l117-290.3l0,0l2.5-28.7l0,0l0.9-10.4l-6.9,8.7l0,0l-18.3,23l0,0l-1.5,3.8l-6,14.8
		l0,0L7.8,325.5l-1.2-0.4l-1.6,4l1.1,0.3l-3.6,9L1.5,338.2z"/>
	<g id="XMLID_535_">
		<polygon id="XMLID_525_" class="st1" points="134.1,31.4 126.5,49.9 149.1,57.4 156.7,39 156.7,39 160,0 134.1,31.4 		"/>
		<path id="XMLID_524_" class="st2" d="M13.9,323c2.9-6.9,10-11,15.9-9l0,0c5.9,2,8.4,9.2,5.5,16.2L30,342.9c-2.9,7-10,11-15.9,9
			l0,0c-5.9-2-8.4-9.2-5.5-16.2L13.9,323z"/>
		<path id="XMLID_523_" class="st3" d="M150.2,36.8c2.5,4.3,6.5,2.2,6.5,2.2L36.8,328.7l-6.5-2.1L150.2,36.8z"/>
		<path id="XMLID_522_" class="st3" d="M134.1,31.4c0,0,0.8,5.9,6.5,2.2L20.7,323.3l-6.5-2.2L134.1,31.4z"/>
		<path id="XMLID_521_" class="st4" d="M140.6,33.6c1.8,10.1,9.7,3.2,9.7,3.2L30.4,326.6l-9.7-3.2L140.6,33.6z"/>
		<polygon id="XMLID_520_" class="st5" points="8.4,335.3 30.6,342.8 35.6,330.7 13.4,323.2 		"/>
		<polygon id="XMLID_519_" class="st6" points="152.9,8.6 160,0 159.1,10.3 		"/>
		<polygon id="XMLID_518_" class="st0" points="37.9,328.2 13.1,320.6 11.6,324.6 36.3,332.2 		"/>
		<polygon id="XMLID_435_" class="st0" points="32.6,341.2 7.9,333.6 6.3,337.6 31,345.2 		"/>
	</g>
</g>
</svg>
