<?xml version="1.0" encoding="utf-8"?>
<!-- Generator: Adobe Illustrator 19.0.0, SVG Export Plug-In . SVG Version: 6.00 Build 0)  -->
<svg version="1.1" id="Layer_1" xmlns="http://www.w3.org/2000/svg" xmlns:xlink="http://www.w3.org/1999/xlink" x="0px" y="0px"
	 width="310px" height="310px" viewBox="0 0 310 310" style="enable-background:new 0 0 310 310;" xml:space="preserve">
<style type="text/css">
	.st0{fill:#71E3CE;}
	.st1{opacity:0.8;clip-path:url(#XMLID_63_);fill:#FFFFFF;}
	.st2{clip-path:url(#XMLID_63_);}
	.st3{fill:#A4885E;}
	.st4{fill:#886C47;}
	.st5{fill:#614D2F;}
	.st6{fill:#BBA065;}
	.st7{fill:#BEA76D;}
	.st8{fill:#A18754;}
	.st9{fill:#B0CD5F;}
	.st10{fill:#77A843;}
	.st11{fill:#C9D5DC;}
	.st12{fill:#7293A4;}
	.st13{fill:#173A46;}
	.st14{fill:#376B80;}
	.st15{fill:#072A34;}
	.st16{fill:#2C5869;}
	.st17{fill:#003445;}
	.st18{fill:#426B7D;}
	.st19{fill:#2D4D5A;}
	.st20{fill:#004A5F;}
	.st21{fill:#94AEBC;}
	.st22{fill:#B1BFC8;}
	.st23{fill:#68818E;}
	.st24{fill:#92A4AE;}
	.st25{fill:#FFFFFF;}
	.st26{opacity:0.25;}
</style>
<g id="XMLID_7967_">
	<g id="XMLID_7971_">
		<g id="XMLID_7977_">
			<circle id="XMLID_8442_" class="st0" cx="155" cy="155" r="143.7"/>
			<g id="XMLID_7978_">
				<defs>
					<circle id="XMLID_7980_" cx="155" cy="155" r="143.7"/>
				</defs>
				<clipPath id="XMLID_63_">
					<use xlink:href="#XMLID_7980_"  style="overflow:visible;"/>
				</clipPath>
				<path id="XMLID_8441_" class="st1" d="M-1.2,147.1c0,0,2.9-13.7,24.9-8.3c0,0,36.6-83,74.1-7.8c0,0,24.4-22.1,28.7,8.1
					c0,0,20.6-7.1,27.4,8.1L-1.2,147.1z"/>
				<g id="XMLID_7981_" class="st2">
					<g id="XMLID_8432_">
						<path id="XMLID_8440_" class="st3" d="M105.9,162.8c0,0,33.6-105.5,37.9-106.3c4.3-0.8,4.3-0.8,4.3-0.8s10-25.8,21.3-23.1
							c11.3,2.7,30.9,40.4,31.6,43.1c0.7,2.7,9.3,1.5,10.6,3.9c1.3,2.3,14,31.2,17.3,32c3.3,0.8,7.3-8.5,13.3-3.9
							c6,4.6,16.3,28.5,18.6,28.9c2.3,0.4,17.3-2.7,20.6,1.2c3.3,3.9,7.6,11.2,10.6,12.3c3,1.2,9.6,3.1,21.3,7.3
							c11.6,4.2,17.6,27,17.6,27l-213.8,5.8L105.9,162.8z"/>
						<path id="XMLID_8439_" class="st4" d="M172.6,188.7l158.3-4.3c0,0-6-22.7-17.6-27c-11.6-4.2-18.3-6.2-21.3-7.3
							c-3-1.2-7.3-8.5-10.6-12.3c-3.3-3.9-18.3-0.8-20.6-1.2c-2.3-0.4-12.6-24.3-18.6-28.9c-6-4.6-10,4.6-13.3,3.9
							c-3.3-0.8-16-29.7-17.3-32c-1.3-2.3-10-1.2-10.6-3.9c-0.7-2.7-20.3-40.4-31.6-43.1c-11.3-2.7-21.3,23.1-21.3,23.1s0,0-4.3,0.8
							c0,0,11.3,38.1,13.3,35.4c2-2.7,1.3-59.7,11.6-53.9c10.3,5.8,16.6,31.2,15.6,34.7c-1,3.5-12.6,34.3-10.6,34.7
							c2,0.4,10.6-5.1,10.6-3.5c0,5.8-7,13.1-7,14.6c0,1.5-3.7,20-1.3,22.3c2.3,2.3,7-1.9,5.7,3.5c-1.3,5.4-6.6,11.2-6.6,13.1
							c0,1.9-1,13.1-1,13.1s7.6-3.9,8-0.8c0.3,3.1-8,10.4-8.3,12.7C173.6,183.3,173.1,185.8,172.6,188.7z"/>
						<g id="XMLID_8434_">
							<path id="XMLID_8438_" class="st5" d="M260.8,136.6c0.3,1.6,0.6,3,0.6,3.5c0,1.2,6,27.3,7.3,26.2c1.3-1.2-0.7-13.9,1.7-14.6
								c2.3-0.8,6.6,3.1,6.6,4.6c0,1.5,8,21.6,9,18.9c0.9-2.3-6.5-30.3-7.4-38.8C273.2,134.9,262.9,136.9,260.8,136.6z"/>
							<path id="XMLID_8437_" class="st5" d="M310.6,174.8c0,0,7.7-5.6,12.2-8.7c-2.6-3.9-5.8-7.2-9.5-8.6
								c-11.6-4.2-18.3-6.2-21.3-7.3c-1.7,0.8,7,18.5,7,18.5L310.6,174.8z"/>
							<path id="XMLID_8436_" class="st5" d="M217.6,139.7c1.7-2.7-8.6-57.8-6-60.1c-1.3-2.3-10-1.2-10.6-3.9
								C200.9,75.8,215.9,142.4,217.6,139.7z"/>
							<path id="XMLID_8435_" class="st5" d="M237.5,107c1.9-0.8,6.4,3.6,10.8,8.9c-2.2-3.6-4.4-6.7-6.1-8.1c-6-4.6-10,4.6-13.3,3.9
								c0,0,7,42.4,8,42.4c1,0,3.3-3.9,3-6.2C239.5,145.5,233.2,108.9,237.5,107z"/>
						</g>
						<path id="XMLID_8433_" class="st6" d="M117.2,190.2l40.9-1.1c0-11.6-0.5-37.2-0.1-41.7c0.4-5.6,8.9-51.4,8.4-55.5
							c-0.4-4.1-16.8,15.9-19.1,11.8c-2.2-4.1-10.2,32.4-12.4,34.9c-2.2,2.6-4.4-3.1-4.9-7.2c-0.4-4.1-12.9,23.6-12.9,23.6
							s-4.1,8.3-7.7,16.6L117.2,190.2z"/>
					</g>
					<g id="XMLID_8429_">
						<path id="XMLID_8431_" class="st7" d="M-9.7,173.4c0,0,18.7-98.4,45.3-84.5c14.4,7.5,18.2,23.5,19.5,26
							c1.3,2.5,7.5,30.6,10.6,28c8.9-7.5,15.7-7,16.5-4.5c0.8,2.5,4.7,11,8.5,7.5c3.8-3.5,12.3-17,26.3-12c14,5,27.5,35,30.1,42
							c2.5,7,2.5,7,2.5,7l-162.2,3.5L-9.7,173.4z"/>
						<path id="XMLID_8430_" class="st8" d="M55.2,114.9c-1-2-3.8-13-12.5-21.1c-3.4,1-6.6,2.4-8.9,0.9c-5.1-3.3-9,10-9,12
							c0,2-5.1,10-10.7,10.7c-4.9,0.6-13.5,53.9-15.8,68.8l151.4-3.3c0,0,0,0-2.5-7c-1.6-4.4-7.5-17.8-15.1-28.4
							c-9.9-7.2-18.3-12.1-21.4-12.1c-10.2,0-15.2,18.7-18.6,20c-3.4,1.3-9.6-14-9.6-16.9c0-0.1-0.1-0.1-0.1-0.2
							c-0.6,1-4.6,22.1-6.7,25.1c-2.3,3.3-7.9-12.7-9.8-20.4C62.6,145.6,56.4,117.4,55.2,114.9z"/>
					</g>
					<path id="XMLID_8428_" class="st9" d="M67.1,166.1l176-4c0,0,138.1,33.6,151.2,50.5c9.6,12.5-70.1,53.2-93.8,62.3
						C260.3,290.6,72.8,315.2,60,314.9C-21.7,313-80.2,235.1-67.6,205.7C-62.6,193.8,67.1,166.1,67.1,166.1z"/>
					<g id="XMLID_8420_">
						<polygon id="XMLID_8427_" class="st10" points="349.7,210.6 343.8,210 323.4,219.1 330.2,226.1 						"/>
						<polygon id="XMLID_8426_" class="st11" points="349.8,217.1 349.8,210.5 329.6,218.6 329.6,227.7 						"/>
						<polygon id="XMLID_8425_" class="st10" points="357.3,217.9 349.8,217.1 329.6,227.7 337.7,233.4 						"/>
						<polygon id="XMLID_8424_" class="st11" points="357.3,226.6 357.3,217.9 335.3,228.8 335.5,238.8 						"/>
						<polygon id="XMLID_8423_" class="st12" points="335.5,238.8 335.5,228.8 329.6,227.7 329.6,218.6 323.7,219.1 323.7,209.7 
							314.5,210.5 314.5,224.3 322,223.8 322,231.6 327.3,232.2 327.3,238.1 						"/>
						<polygon id="XMLID_8422_" class="st11" points="343.8,210 343.8,202.3 323.7,209.7 323.7,219.1 						"/>
						<polygon id="XMLID_8421_" class="st10" points="343.8,202.3 336.3,201.9 314.5,210.5 323.7,209.7 						"/>
					</g>
					<g id="XMLID_8406_">
						<polygon id="XMLID_8419_" class="st13" points="278.9,179.6 296.7,170.8 297.6,183.5 279.2,188.3 						"/>
						<g id="XMLID_8416_">
							<polygon id="XMLID_8418_" class="st14" points="280.5,187.2 280.3,178.5 282.1,169.6 283.5,168.6 288.2,170.1 290.3,180.6 
								291.3,193.3 289.8,194.1 							"/>
							<polygon id="XMLID_8417_" class="st12" points="278.8,189 278.9,179.3 282.1,169.5 286.8,171 288.9,181.5 289.8,194.2 
															"/>
						</g>
						<g id="XMLID_8413_">
							<polygon id="XMLID_8415_" class="st14" points="297.8,179 297.6,170.3 299.4,161.4 300.8,160.5 305.6,162 307.7,172.5 
								308.6,185.2 307.2,186 							"/>
							<polygon id="XMLID_8414_" class="st15" points="296.4,179.8 296.2,171.1 299.4,161.3 304.1,162.8 306.3,173.3 307.2,186 
															"/>
						</g>
						<polygon id="XMLID_8412_" class="st11" points="288.9,181.5 307.7,172.5 309.1,185.7 289.8,194.2 						"/>
						<g id="XMLID_8408_">
							<polygon id="XMLID_8411_" class="st16" points="296.1,187.2 294.7,187.9 294.7,182.7 296.1,182 							"/>
							<polygon id="XMLID_8410_" class="st16" points="299.8,185.4 298.4,186 298.4,180.9 299.8,180.2 							"/>
							<polygon id="XMLID_8409_" class="st16" points="303.4,183.5 302,184.2 302,179.1 303.4,178.4 							"/>
						</g>
						<polygon id="XMLID_8407_" class="st16" points="282.6,176.9 284.2,177.3 284.2,182.1 282.6,181.7 						"/>
					</g>
					<g id="XMLID_8392_">
						<polygon id="XMLID_8405_" class="st13" points="291.4,186.6 309.2,177.8 310.2,190.5 291.7,195.3 						"/>
						<g id="XMLID_8402_">
							<polygon id="XMLID_8404_" class="st14" points="293,194.1 292.8,185.5 294.6,176.6 296,175.6 300.7,177.1 302.9,187.6 
								303.8,200.3 302.3,201.1 							"/>
							<polygon id="XMLID_8403_" class="st12" points="291.3,196 291.4,186.3 294.6,176.5 299.3,178 301.4,188.5 302.4,201.2 
															"/>
						</g>
						<g id="XMLID_8399_">
							<polygon id="XMLID_8401_" class="st14" points="310.3,186 310.2,177.3 311.9,168.4 313.3,167.4 318.1,168.9 320.2,179.5 
								321.1,192.1 319.7,192.9 							"/>
							<polygon id="XMLID_8400_" class="st15" points="308.9,186.8 308.7,178.1 311.9,168.3 316.7,169.8 318.8,180.3 319.7,193 
															"/>
						</g>
						<polygon id="XMLID_8398_" class="st11" points="301.4,188.5 320.2,179.5 321.6,192.6 302.4,201.2 						"/>
						<g id="XMLID_8394_">
							<polygon id="XMLID_8397_" class="st16" points="308.6,194.2 307.2,194.8 307.2,189.7 308.6,189 							"/>
							<polygon id="XMLID_8396_" class="st16" points="312.3,192.4 310.9,193 310.9,187.9 312.3,187.2 							"/>
							<polygon id="XMLID_8395_" class="st16" points="315.9,190.5 314.5,191.2 314.5,186 315.9,185.4 							"/>
						</g>
						<polygon id="XMLID_8393_" class="st16" points="295.1,183.9 296.7,184.3 296.7,189.1 295.1,188.7 						"/>
					</g>
					<g id="XMLID_8378_">
						<polygon id="XMLID_8391_" class="st13" points="305.9,195.8 323.7,187 324.7,199.7 306.2,204.5 						"/>
						<g id="XMLID_8388_">
							<polygon id="XMLID_8390_" class="st14" points="307.5,203.3 307.3,194.7 309.1,185.7 310.5,184.8 315.2,186.3 317.4,196.8 
								318.3,209.5 316.8,210.3 							"/>
							<polygon id="XMLID_8389_" class="st12" points="305.8,205.2 305.9,195.5 309.1,185.6 313.8,187.1 315.9,197.7 316.9,210.3 
															"/>
						</g>
						<g id="XMLID_8385_">
							<polygon id="XMLID_8387_" class="st14" points="324.8,195.2 324.7,186.5 326.4,177.6 327.8,176.6 332.6,178.1 334.7,188.6 
								335.6,201.3 334.2,202.1 							"/>
							<polygon id="XMLID_8386_" class="st15" points="323.4,196 323.2,187.3 326.4,177.5 331.1,179 333.3,189.5 334.2,202.2 
															"/>
						</g>
						<polygon id="XMLID_8384_" class="st11" points="315.9,197.7 334.7,188.6 336.1,201.8 316.9,210.3 						"/>
						<g id="XMLID_8380_">
							<polygon id="XMLID_8383_" class="st16" points="323.1,203.4 321.7,204 321.7,198.9 323.1,198.2 							"/>
							<polygon id="XMLID_8382_" class="st16" points="326.8,201.5 325.4,202.2 325.4,197.1 326.8,196.4 							"/>
							<polygon id="XMLID_8381_" class="st16" points="330.4,199.7 329,200.4 329,195.2 330.4,194.6 							"/>
						</g>
						<polygon id="XMLID_8379_" class="st16" points="309.7,193.1 311.2,193.5 311.2,198.2 309.7,197.9 						"/>
					</g>
					<g id="XMLID_8373_">
						<path id="XMLID_8377_" class="st10" d="M150.5,180l23.2,11.4l13.8-1.4l22.8,11.2l22.5,5.4l16.7,11.6l11.2-4.4l12.7-10.5
							l8.7-14.1c0,0-24.6-8.7-26-9c-2.1-0.4-41.6-14.3-41.6-14.3L150.5,180z"/>
						<path id="XMLID_8374_" class="st9" d="M249.5,218.3L249.5,218.3l-16.7-11.6l-22.5-5.4L187.5,190l-13.8,1.4c0,0,0,0,0,0
							L150.5,180c0,0,0,0,0,0c0,0,0,0,0,0l64-14.1c0,0,0,0,0,0c0.4,0.1,39.5,13.9,41.6,14.3c1.5,0.3,25.8,8.9,26,9c0,0,0,0,0,0
							c0,0,0,0,0,0l-8.7,14.1c0,0,0,0,0,0l-12.7,10.5l0,0L249.5,218.3C249.5,218.3,249.5,218.3,249.5,218.3z M187.5,189.9
							L187.5,189.9l22.8,11.2l22.5,5.4c0,0,0,0,0,0l16.7,11.6l11.2-4.3l12.7-10.5l8.7-14.1c-1.1-0.4-24.6-8.7-26-9
							c-2.1-0.4-40.8-14-41.6-14.3l-63.9,14l23.1,11.4L187.5,189.9L187.5,189.9z"/>
					</g>
					<g id="XMLID_8348_">
						<path id="XMLID_8372_" class="st16" d="M207.8,153.2l9.7,2.4c0,0-1.8,5-2,5.3c-0.1,0.2-9.5,0.7-9.6,0.7
							c-0.2,0-0.2-7.4-0.2-7.4L207.8,153.2z"/>
						<polygon id="XMLID_8371_" class="st12" points="199,153.1 201.4,144.3 204,143.8 204.9,144.5 207,152.5 206.9,163.1 
							199,164.4 						"/>
						<polygon id="XMLID_8370_" class="st14" points="199.8,153.7 202.2,144.9 204.8,144.4 207.8,153.2 207.8,163.8 199.6,164.2 
													"/>
						<polygon id="XMLID_8369_" class="st12" points="210.2,157 212.6,148.3 215.2,147.8 216.2,148 218.2,156.5 218.2,167.1 
							211,168.1 						"/>
						<polygon id="XMLID_8368_" class="st11" points="199,164.3 199,153 211.2,157.3 211.2,169.6 						"/>
						<polygon id="XMLID_8367_" class="st14" points="211.2,157.3 213.6,148.5 216.2,148 219.2,156.8 219.1,167.4 211.2,169.6 
													"/>
						<g id="XMLID_8361_">
							<polygon id="XMLID_8366_" class="st16" points="201.4,158.1 200.6,157.8 200.6,155.4 201.4,155.7 							"/>
							<polygon id="XMLID_8365_" class="st16" points="203.4,158.8 202.6,158.5 202.6,156.1 203.4,156.4 							"/>
							<polygon id="XMLID_8364_" class="st16" points="205.4,159.5 204.6,159.2 204.6,156.9 205.4,157.2 							"/>
							<polygon id="XMLID_8363_" class="st16" points="207.4,160.3 206.6,160 206.6,157.6 207.4,157.9 							"/>
							<polygon id="XMLID_8362_" class="st16" points="209.4,161 208.6,160.7 208.6,158.3 209.4,158.6 							"/>
						</g>
						<polygon id="XMLID_8360_" class="st17" points="216.1,155 215,155.3 215,152.9 216.1,152.6 						"/>
						<polygon id="XMLID_8359_" class="st17" points="204.3,150.3 203.1,150.6 203.1,148.3 204.3,148 						"/>
						<g id="XMLID_8349_">
							<path id="XMLID_8358_" class="st14" d="M200.1,160.6c3.3,1.1,6.6,2.4,9.9,3.7C206.6,163.2,203.4,162,200.1,160.6z"/>
							<path id="XMLID_8357_" class="st14" d="M200.1,162.2c3.3,1.2,6.6,2.6,9.9,4.1C206.6,165.1,203.3,163.7,200.1,162.2z"/>
							<path id="XMLID_8356_" class="st14" d="M200.8,163.9c3,1.1,6,2.4,8.9,3.7C206.7,166.5,203.7,165.2,200.8,163.9z"/>
							<path id="XMLID_8355_" class="st14" d="M208.1,163.7c0.1,0.6,0.1,1.2,0,1.8C208,164.9,208,164.3,208.1,163.7z"/>
							<path id="XMLID_8354_" class="st14" d="M205.1,162.5c0.1,0.6,0.1,1.2,0,1.8C205,163.7,205,163.1,205.1,162.5z"/>
							<path id="XMLID_8353_" class="st14" d="M206.3,164.8c0.1,0.5,0.1,0.9,0,1.4C206.2,165.8,206.2,165.3,206.3,164.8z"/>
							<path id="XMLID_8352_" class="st14" d="M207.6,166.7c0.1,0.4,0.1,0.7,0,1.1C207.4,167.5,207.4,167.1,207.6,166.7z"/>
							<path id="XMLID_8351_" class="st14" d="M202.7,161.7c0.1,0.6,0.1,1.1,0,1.7C202.6,162.8,202.6,162.2,202.7,161.7z"/>
							<path id="XMLID_8350_" class="st14" d="M203.9,165.2c0.1,0.3,0.1,0.5,0,0.8C203.8,165.7,203.8,165.4,203.9,165.2z"/>
						</g>
					</g>
					<g id="XMLID_8323_">
						<path id="XMLID_8347_" class="st16" d="M220.1,157.3l9.7,2.1c0,0-1.8,5.1-2,5.3c-0.1,0.2-9.5,1-9.6,1c-0.2,0-0.2-7.4-0.2-7.4
							L220.1,157.3z"/>
						<polygon id="XMLID_8346_" class="st12" points="211.2,157.4 213.6,148.6 216.2,148 217.1,148.7 219.2,156.7 219.2,167.3 
							211.2,168.7 						"/>
						<polygon id="XMLID_8345_" class="st14" points="212,158.1 214.5,149.2 217.1,148.6 220.1,157.3 220,167.9 211.8,168.6 						
							"/>
						<polygon id="XMLID_8344_" class="st12" points="222.4,161.1 224.9,152.2 227.5,151.6 228.4,151.9 230.5,160.3 230.4,170.9 
							223.2,172.1 						"/>
						<polygon id="XMLID_8343_" class="st11" points="211.2,168.7 211.2,157.4 223.4,161.3 223.4,173.6 						"/>
						<polygon id="XMLID_8342_" class="st14" points="223.4,161.3 225.8,152.4 228.4,151.9 231.4,160.5 231.4,171.1 223.4,173.6 
													"/>
						<g id="XMLID_8336_">
							<polygon id="XMLID_8341_" class="st16" points="213.6,162.4 212.8,162.1 212.8,159.7 213.6,160 							"/>
							<polygon id="XMLID_8340_" class="st16" points="215.6,163 214.8,162.8 214.8,160.4 215.6,160.7 							"/>
							<polygon id="XMLID_8339_" class="st16" points="217.6,163.7 216.8,163.4 216.8,161.1 217.6,161.4 							"/>
							<polygon id="XMLID_8338_" class="st16" points="219.6,164.4 218.8,164.1 218.8,161.8 219.6,162 							"/>
							<polygon id="XMLID_8337_" class="st16" points="221.6,165.1 220.8,164.8 220.8,162.4 221.6,162.7 							"/>
						</g>
						<polygon id="XMLID_8335_" class="st17" points="228.3,158.8 227.2,159.1 227.2,156.8 228.3,156.5 						"/>
						<polygon id="XMLID_8334_" class="st17" points="216.5,154.5 215.3,154.8 215.3,152.5 216.5,152.2 						"/>
						<g id="XMLID_8324_">
							<path id="XMLID_8333_" class="st14" d="M212.3,165c3.3,1,6.6,2.2,9.9,3.4C218.9,167.4,215.6,166.2,212.3,165z"/>
							<path id="XMLID_8332_" class="st14" d="M212.3,166.6c3.3,1.1,6.6,2.4,9.9,3.8C218.8,169.2,215.5,167.9,212.3,166.6z"/>
							<path id="XMLID_8331_" class="st14" d="M213,168.2c3,1,6,2.2,8.9,3.5C218.9,170.6,216,169.5,213,168.2z"/>
							<path id="XMLID_8330_" class="st14" d="M220.3,167.8c0.1,0.6,0.1,1.2,0,1.8C220.2,169,220.2,168.4,220.3,167.8z"/>
							<path id="XMLID_8329_" class="st14" d="M217.3,166.7c0.1,0.6,0.1,1.2,0,1.8C217.2,167.9,217.2,167.3,217.3,166.7z"/>
							<path id="XMLID_8328_" class="st14" d="M218.5,169c0.1,0.5,0.1,0.9,0,1.4C218.4,169.9,218.4,169.5,218.5,169z"/>
							<path id="XMLID_8327_" class="st14" d="M219.8,170.9c0.1,0.4,0.1,0.7,0,1.1C219.7,171.6,219.7,171.2,219.8,170.9z"/>
							<path id="XMLID_8326_" class="st14" d="M215,165.9c0.1,0.6,0.1,1.1,0,1.7C214.8,167,214.8,166.5,215,165.9z"/>
							<path id="XMLID_8325_" class="st14" d="M216.1,169.4c0.1,0.3,0.1,0.5,0,0.8C216,169.9,216,169.7,216.1,169.4z"/>
						</g>
					</g>
					<g id="XMLID_8298_">
						<path id="XMLID_8322_" class="st16" d="M237.9,163l11.4,2.3c0,0-2.2,5.7-2.3,5.9c-0.1,0.2-11.2,1.1-11.3,1.1
							c-0.2,0-0.2-8.2-0.2-8.2L237.9,163z"/>
						<polygon id="XMLID_8321_" class="st12" points="227.5,163.1 230.4,153.3 233.4,152.7 234.4,153.4 236.9,162.3 236.9,174 
							227.5,175.7 						"/>
						<polygon id="XMLID_8320_" class="st14" points="228.4,163.8 231.3,154 234.4,153.3 237.9,163 237.8,174.7 228.2,175.5 						
							"/>
						<polygon id="XMLID_8319_" class="st12" points="240.7,167.2 243.6,157.3 246.6,156.7 247.8,156.9 250.2,166.3 250.1,178.1 
							241.6,179.4 						"/>
						<polygon id="XMLID_8318_" class="st11" points="227.5,175.6 227.5,163.1 241.8,167.4 241.8,181.1 						"/>
						<polygon id="XMLID_8317_" class="st14" points="241.8,167.4 244.7,157.6 247.8,156.9 251.3,166.5 251.2,178.3 241.8,181.1 
													"/>
						<g id="XMLID_8311_">
							<polygon id="XMLID_8316_" class="st16" points="230.3,168.6 229.4,168.3 229.4,165.7 230.3,166 							"/>
							<polygon id="XMLID_8315_" class="st16" points="232.6,169.3 231.7,169.1 231.7,166.4 232.6,166.7 							"/>
							<polygon id="XMLID_8314_" class="st16" points="235,170.1 234.1,169.8 234.1,167.2 235,167.5 							"/>
							<polygon id="XMLID_8313_" class="st16" points="237.4,170.8 236.5,170.5 236.5,167.9 237.4,168.2 							"/>
							<polygon id="XMLID_8312_" class="st16" points="239.7,171.6 238.8,171.3 238.8,168.7 239.7,169 							"/>
						</g>
						<polygon id="XMLID_8310_" class="st17" points="247.6,164.7 246.3,165 246.3,162.4 247.6,162.1 						"/>
						<polygon id="XMLID_8309_" class="st17" points="233.7,159.9 232.4,160.2 232.4,157.7 233.7,157.3 						"/>
						<g id="XMLID_8299_">
							<path id="XMLID_8308_" class="st14" d="M228.8,171.5c3.9,1.2,7.8,2.4,11.6,3.8C236.5,174.1,232.6,172.9,228.8,171.5z"/>
							<path id="XMLID_8307_" class="st14" d="M228.8,173.3c3.9,1.3,7.8,2.7,11.6,4.2C236.4,176.2,232.6,174.8,228.8,173.3z"/>
							<path id="XMLID_8306_" class="st14" d="M229.6,175.1c3.5,1.2,7,2.5,10.5,3.8C236.6,177.7,233.1,176.5,229.6,175.1z"/>
							<path id="XMLID_8305_" class="st14" d="M238.2,174.6c0.1,0.7,0.1,1.4,0,2C238.1,176,238.1,175.3,238.2,174.6z"/>
							<path id="XMLID_8304_" class="st14" d="M234.7,173.4c0.1,0.7,0.1,1.3,0,2C234.6,174.8,234.6,174.1,234.7,173.4z"/>
							<path id="XMLID_8303_" class="st14" d="M236.1,176c0.1,0.5,0.1,1,0,1.6C236,177,236,176.5,236.1,176z"/>
							<path id="XMLID_8302_" class="st14" d="M237.6,178c0.1,0.4,0.1,0.8,0,1.2C237.5,178.9,237.5,178.4,237.6,178z"/>
							<path id="XMLID_8301_" class="st14" d="M231.9,172.6c0.1,0.6,0.1,1.2,0,1.8C231.8,173.8,231.8,173.2,231.9,172.6z"/>
							<path id="XMLID_8300_" class="st14" d="M233.2,176.4c0.1,0.3,0.1,0.6,0,0.8C233.1,177,233.1,176.7,233.2,176.4z"/>
						</g>
					</g>
					<g id="XMLID_8273_">
						<path id="XMLID_8297_" class="st16" d="M252.1,167.1l11.4,2.3c0,0-2.2,5.7-2.3,5.9c-0.1,0.2-11.2,1.1-11.3,1.1
							c-0.2,0-0.2-8.2-0.2-8.2L252.1,167.1z"/>
						<polygon id="XMLID_8296_" class="st12" points="241.7,167.3 244.6,157.4 247.6,156.8 248.6,157.5 251.1,166.4 251.1,178.2 
							241.7,179.8 						"/>
						<polygon id="XMLID_8295_" class="st14" points="242.6,167.9 245.5,158.1 248.6,157.5 252.1,167.1 252,178.9 242.4,179.6 
													"/>
						<polygon id="XMLID_8294_" class="st12" points="254.9,171.3 257.8,161.5 260.8,160.8 262,161.1 264.4,170.4 264.3,182.2 
							255.8,183.5 						"/>
						<polygon id="XMLID_8293_" class="st11" points="241.7,179.8 241.7,167.2 256,171.5 256,185.3 						"/>
						<polygon id="XMLID_8292_" class="st14" points="256,171.5 258.9,161.7 262,161 265.5,170.7 265.4,182.4 256,185.3 						"/>
						<g id="XMLID_8286_">
							<polygon id="XMLID_8291_" class="st16" points="244.5,172.7 243.6,172.4 243.6,169.8 244.5,170.1 							"/>
							<polygon id="XMLID_8290_" class="st16" points="246.8,173.5 245.9,173.2 245.9,170.6 246.8,170.9 							"/>
							<polygon id="XMLID_8289_" class="st16" points="249.2,174.2 248.3,173.9 248.3,171.3 249.2,171.6 							"/>
							<polygon id="XMLID_8288_" class="st16" points="251.6,175 250.7,174.7 250.7,172.1 251.6,172.4 							"/>
							<polygon id="XMLID_8287_" class="st16" points="253.9,175.7 253,175.4 253,172.8 253.9,173.1 							"/>
						</g>
						<polygon id="XMLID_8285_" class="st17" points="261.8,168.8 260.5,169.1 260.5,166.5 261.8,166.2 						"/>
						<polygon id="XMLID_8284_" class="st17" points="247.9,164 246.6,164.4 246.6,161.8 247.9,161.4 						"/>
						<g id="XMLID_8274_">
							<path id="XMLID_8283_" class="st14" d="M243,175.6c3.9,1.2,7.8,2.4,11.6,3.8C250.7,178.3,246.8,177,243,175.6z"/>
							<path id="XMLID_8282_" class="st14" d="M243,177.4c3.9,1.3,7.8,2.7,11.6,4.2C250.6,180.3,246.8,178.9,243,177.4z"/>
							<path id="XMLID_8281_" class="st14" d="M243.8,179.2c3.5,1.2,7,2.5,10.5,3.8C250.8,181.9,247.3,180.6,243.8,179.2z"/>
							<path id="XMLID_8280_" class="st14" d="M252.4,178.7c0.1,0.7,0.1,1.4,0,2C252.3,180.1,252.3,179.4,252.4,178.7z"/>
							<path id="XMLID_8279_" class="st14" d="M248.9,177.6c0.1,0.7,0.1,1.3,0,2C248.8,178.9,248.8,178.2,248.9,177.6z"/>
							<path id="XMLID_8278_" class="st14" d="M250.3,180.1c0.1,0.5,0.1,1,0,1.6C250.2,181.1,250.2,180.6,250.3,180.1z"/>
							<path id="XMLID_8277_" class="st14" d="M251.8,182.2c0.1,0.4,0.1,0.8,0,1.2C251.7,183,251.7,182.6,251.8,182.2z"/>
							<path id="XMLID_8276_" class="st14" d="M246.1,176.7c0.1,0.6,0.1,1.2,0,1.8C246,177.9,246,177.3,246.1,176.7z"/>
							<path id="XMLID_8275_" class="st14" d="M247.4,180.6c0.1,0.3,0.1,0.6,0,0.8C247.3,181.1,247.3,180.9,247.4,180.6z"/>
						</g>
					</g>
					<g id="XMLID_8248_">
						<path id="XMLID_8272_" class="st16" d="M266,171.5l11.4,2.3c0,0-2.2,5.7-2.3,5.9c-0.1,0.2-11.2,1.1-11.3,1.1
							c-0.2,0-0.2-8.2-0.2-8.2L266,171.5z"/>
						<polygon id="XMLID_8271_" class="st12" points="255.6,171.7 258.5,161.8 261.6,161.2 262.6,162 265.1,170.8 265,182.6 
							255.6,184.2 						"/>
						<polygon id="XMLID_8270_" class="st14" points="256.6,172.4 259.5,162.5 262.5,161.9 266,171.5 266,183.3 256.4,184 						"/>
						<polygon id="XMLID_8269_" class="st12" points="268.9,175.7 271.7,165.9 274.8,165.3 275.9,165.5 278.3,174.9 278.2,186.6 
							269.8,188 						"/>
						<polygon id="XMLID_8268_" class="st11" points="255.6,184.2 255.6,171.6 270,176 270,189.7 						"/>
						<polygon id="XMLID_8267_" class="st14" points="270,176 272.9,166.1 275.9,165.5 279.4,175.1 279.4,186.9 270,189.7 						"/>
						<g id="XMLID_8261_">
							<polygon id="XMLID_8266_" class="st16" points="258.4,177.2 257.5,176.9 257.5,174.3 258.4,174.6 							"/>
							<polygon id="XMLID_8265_" class="st16" points="260.8,177.9 259.9,177.6 259.9,175 260.8,175.3 							"/>
							<polygon id="XMLID_8264_" class="st16" points="263.2,178.7 262.3,178.4 262.3,175.7 263.2,176 							"/>
							<polygon id="XMLID_8263_" class="st16" points="265.5,179.4 264.6,179.1 264.6,176.5 265.5,176.8 							"/>
							<polygon id="XMLID_8262_" class="st16" points="267.9,180.1 267,179.8 267,177.2 267.9,177.5 							"/>
						</g>
						<polygon id="XMLID_8260_" class="st17" points="275.8,173.2 274.4,173.6 274.4,171 275.8,170.6 						"/>
						<polygon id="XMLID_8259_" class="st17" points="261.8,168.5 260.5,168.8 260.5,166.2 261.8,165.9 						"/>
						<g id="XMLID_8249_">
							<path id="XMLID_8258_" class="st14" d="M257,180.1c3.9,1.2,7.8,2.4,11.6,3.8C264.7,182.7,260.8,181.4,257,180.1z"/>
							<path id="XMLID_8257_" class="st14" d="M256.9,181.9c3.9,1.3,7.8,2.7,11.6,4.2C264.6,184.7,260.7,183.4,256.9,181.9z"/>
							<path id="XMLID_8256_" class="st14" d="M257.8,183.6c3.5,1.2,7,2.5,10.5,3.8C264.7,186.3,261.2,185,257.8,183.6z"/>
							<path id="XMLID_8255_" class="st14" d="M266.4,183.2c0.1,0.7,0.1,1.4,0,2C266.3,184.5,266.3,183.9,266.4,183.2z"/>
							<path id="XMLID_8254_" class="st14" d="M262.9,182c0.1,0.7,0.1,1.3,0,2C262.8,183.3,262.8,182.7,262.9,182z"/>
							<path id="XMLID_8253_" class="st14" d="M264.3,184.5c0.1,0.5,0.1,1,0,1.6C264.2,185.6,264.2,185.1,264.3,184.5z"/>
							<path id="XMLID_8252_" class="st14" d="M265.7,186.6c0.1,0.4,0.1,0.8,0,1.2C265.6,187.4,265.6,187,265.7,186.6z"/>
							<path id="XMLID_8251_" class="st14" d="M260.1,181.1c0.1,0.6,0.1,1.2,0,1.8C259.9,182.4,259.9,181.7,260.1,181.1z"/>
							<path id="XMLID_8250_" class="st14" d="M261.4,185c0.1,0.3,0.1,0.6,0,0.8C261.3,185.6,261.3,185.3,261.4,185z"/>
						</g>
					</g>
					<g id="XMLID_8240_">
						<polygon id="XMLID_8247_" class="st10" points="159.5,166.5 166.6,165.2 190.7,169.3 182.7,175.7 						"/>
						<polygon id="XMLID_8246_" class="st11" points="159.5,171.5 159.5,166.5 183.4,169.9 183.4,176.9 						"/>
						<polygon id="XMLID_8245_" class="st10" points="150.5,173.2 159.5,171.5 183.4,176.9 173.7,182.4 						"/>
						<polygon id="XMLID_8244_" class="st11" points="150.5,180 150.5,173.2 176.6,178.6 176.4,186.3 						"/>
						<polygon id="XMLID_8243_" class="st12" points="176.4,186.3 176.4,178.6 183.4,176.9 183.4,169.9 190.4,169.4 190.4,162.1 
							201.3,161.4 201.3,172 192.3,172.8 192.3,178.8 186,180 186,184.6 						"/>
						<polygon id="XMLID_8242_" class="st11" points="166.6,165.2 166.6,159.2 190.4,162.1 190.4,169.4 						"/>
						<polygon id="XMLID_8241_" class="st10" points="166.6,159.2 175.4,157.9 201.3,161.4 190.4,162.1 						"/>
					</g>
					<g id="XMLID_8228_">
						<polygon id="XMLID_8239_" class="st10" points="186,180 217.6,191.5 222.7,189.3 192.3,178.8 						"/>
						<polygon id="XMLID_8238_" class="st11" points="186,180 186,184.6 217.6,197.2 217.6,191.5 						"/>
						<g id="XMLID_8234_">
							<polygon id="XMLID_8237_" class="st10" points="192.4,172.8 222.7,183.9 229.7,180.8 201.3,171.8 							"/>
							<polygon id="XMLID_8236_" class="st11" points="192.3,172.8 192.3,178.8 222.7,189.3 222.7,183.9 							"/>
							<polygon id="XMLID_8235_" class="st12" points="222.7,183.9 222.7,189.3 229.6,186.2 229.7,180.8 							"/>
						</g>
						<g id="XMLID_8230_">
							<polygon id="XMLID_8233_" class="st10" points="200.9,165.5 231.2,176.7 238.2,173.5 209.8,164.5 							"/>
							<polygon id="XMLID_8232_" class="st11" points="200.8,165.5 200.8,171.5 231.2,182.1 231.2,176.7 							"/>
							<polygon id="XMLID_8231_" class="st12" points="231.2,176.7 231.2,182.1 238.1,178.9 238.2,173.5 							"/>
						</g>
						<polygon id="XMLID_8229_" class="st12" points="222.7,189.3 222.8,194.6 217.6,197.2 217.6,191.5 						"/>
					</g>
					<g id="XMLID_8216_">
						<polygon id="XMLID_8227_" class="st10" points="222.7,193.6 255.2,206.7 260.5,204.2 229.2,192.2 						"/>
						<polygon id="XMLID_8226_" class="st11" points="222.7,193.6 222.7,198.8 255.2,213.1 255.2,206.7 						"/>
						<g id="XMLID_8222_">
							<polygon id="XMLID_8225_" class="st10" points="229.2,185.4 260.5,198 267.7,194.5 238.4,184.2 							"/>
							<polygon id="XMLID_8224_" class="st11" points="229.2,185.3 229.2,192.2 260.5,204.2 260.5,198 							"/>
							<polygon id="XMLID_8223_" class="st12" points="260.5,198 260.5,204.2 267.7,200.6 267.7,194.5 							"/>
						</g>
						<g id="XMLID_8218_">
							<polygon id="XMLID_8221_" class="st10" points="238,177.1 269.3,189.8 276.5,186.2 247.2,175.9 							"/>
							<polygon id="XMLID_8220_" class="st11" points="238,177.1 238,183.9 269.3,195.9 269.3,189.8 							"/>
							<polygon id="XMLID_8219_" class="st12" points="269.3,189.8 269.3,195.9 276.4,192.4 276.5,186.2 							"/>
						</g>
						<polygon id="XMLID_8217_" class="st12" points="260.5,204.2 260.6,210.2 255.2,213.1 255.2,206.7 						"/>
					</g>
					<polygon id="XMLID_8215_" class="st18" points="276.4,192.4 302.1,206.3 312.2,238.5 326.3,232.4 307.5,200.5 282.1,189.2 
											"/>
					<g id="XMLID_8201_">
						<polygon id="XMLID_40_" class="st12" points="311.4,235.8 325.1,230.3 326.3,232.4 312.2,238.5 						"/>
						<polygon id="XMLID_46_" class="st12" points="308.8,231.5 322.6,226.1 323.8,228.1 309.7,234.2 						"/>
						<polygon id="XMLID_45_" class="st12" points="306.3,227.2 320.1,221.8 321.2,223.8 307.1,230 						"/>
						<polygon id="XMLID_44_" class="st12" points="303.8,222.9 317.5,217.5 318.7,219.5 304.6,225.7 						"/>
						<polygon id="XMLID_43_" class="st12" points="301.3,218.6 315,213.2 316.2,215.2 302.1,221.4 						"/>
						<polygon id="XMLID_42_" class="st12" points="298.7,214.3 312.5,208.9 313.7,211 299.5,217.1 						"/>
						<polygon id="XMLID_41_" class="st12" points="296.2,210.1 309.9,204.6 311.1,206.7 297,212.8 						"/>
						<polygon id="XMLID_39_" class="st12" points="293.7,205.8 307.4,200.4 308.6,202.4 294.5,208.5 						"/>
					</g>
					<g id="XMLID_8188_">
						<g id="XMLID_8198_">
							<polygon id="XMLID_8200_" class="st11" points="266.2,195.5 278.1,201.7 300.5,195.5 302.1,206.3 278.9,210.8 265.9,202.5 
															"/>
							<polygon id="XMLID_8199_" class="st12" points="278.1,201.7 278.9,210.8 302.1,206.3 300.5,195.5 							"/>
						</g>
						<g id="XMLID_8195_">
							<polygon id="XMLID_8197_" class="st11" points="264,211.6 278.4,217.9 305.8,211.6 307.7,222.6 279.4,227.2 263.5,218.8 
															"/>
							<polygon id="XMLID_8196_" class="st12" points="278.4,217.9 279.4,227.2 307.7,222.6 305.8,211.6 							"/>
						</g>
						<g id="XMLID_8192_">
							<polygon id="XMLID_8194_" class="st11" points="253.6,225.8 275.4,235.6 302.8,229.3 304.8,240.2 276.4,244.9 253.1,232.9 
															"/>
							<polygon id="XMLID_8193_" class="st12" points="275.4,235.6 276.4,244.9 312.2,238.5 310.3,227.6 							"/>
						</g>
						<polygon id="XMLID_8191_" class="st10" points="266.2,195.5 278.1,201.7 300.5,195.5 277.3,193.6 						"/>
						<polygon id="XMLID_8190_" class="st10" points="264,211.6 265.9,202.5 278.9,210.8 302.1,206.3 305.8,211.6 278.4,217.9 
													"/>
						<polygon id="XMLID_8189_" class="st10" points="253.6,225.8 263.5,218.8 279.4,227.2 307.7,222.6 310.3,227.6 275.4,235.6 
													"/>
					</g>
					<g id="XMLID_8180_">
						<polygon id="XMLID_8187_" class="st10" points="359.3,229.2 351.1,228.5 323.2,238.4 332.5,246 						"/>
						<polygon id="XMLID_8186_" class="st11" points="359.3,236.2 359.3,229.1 331.7,237.9 331.7,247.7 						"/>
						<polygon id="XMLID_8185_" class="st10" points="369.6,237 359.3,236.2 331.7,247.7 342.9,253.8 						"/>
						<polygon id="XMLID_8184_" class="st11" points="369.6,246.5 369.6,237 339.5,248.9 339.8,259.7 						"/>
						<polygon id="XMLID_8183_" class="st12" points="339.8,259.7 339.8,248.9 331.7,247.7 331.7,237.9 323.6,238.4 323.6,228.2 
							311.1,229.1 311.1,243.9 321.4,243.4 321.4,251.9 328.6,252.5 328.6,258.9 						"/>
						<polygon id="XMLID_8182_" class="st11" points="351.1,228.5 351.1,220.1 323.6,228.2 323.6,238.4 						"/>
						<polygon id="XMLID_8181_" class="st10" points="351.1,220.1 340.9,219.8 311.1,229.1 323.6,228.2 						"/>
					</g>
					<g id="XMLID_8172_">
						<polygon id="XMLID_8179_" class="st10" points="325.6,242.7 317.8,242 291.3,251.5 300.1,258.8 						"/>
						<polygon id="XMLID_8178_" class="st11" points="325.7,249.4 325.7,242.5 299.4,251 299.4,260.4 						"/>
						<polygon id="XMLID_8177_" class="st10" points="335.5,250.2 325.7,249.4 299.4,260.4 310,266.3 						"/>
						<polygon id="XMLID_8176_" class="st11" points="335.5,259.3 335.5,250.2 306.8,261.6 307.1,272 						"/>
						<polygon id="XMLID_8175_" class="st12" points="307.1,272 307.1,261.6 299.4,260.4 299.4,251 291.7,251.5 291.7,241.7 
							279.7,242.5 280,250.8 289.6,256.4 289.5,261.7 296.5,265.1 296.7,269.7 						"/>
						<polygon id="XMLID_8174_" class="st11" points="317.8,242 317.8,233.9 291.7,241.7 291.7,251.5 						"/>
						<polygon id="XMLID_8173_" class="st10" points="317.8,233.9 308.1,233.6 279.7,242.5 291.7,241.7 						"/>
					</g>
					<g id="XMLID_8167_">
						<polygon id="XMLID_8171_" class="st10" points="215,257 255.3,285.6 258.9,285.3 225.9,261.4 261.8,248.3 262.2,239.3 						
							"/>
						<path id="XMLID_8168_" class="st9" d="M255.3,285.7L255.3,285.7L215,257c0,0,0,0,0,0c0,0,0,0,0,0l47.1-17.8c0,0,0,0,0,0
							c0,0,0,0,0,0l-0.4,9.1c0,0,0,0,0,0l-35.8,13l32.9,23.9c0,0,0,0,0,0c0,0,0,0,0,0L255.3,285.7
							C255.3,285.7,255.3,285.7,255.3,285.7z M215.1,257l40.2,28.6l3.5-0.4l-32.9-23.9c0,0,0,0,0,0c0,0,0,0,0,0l35.9-13l0.4-9
							L215.1,257z"/>
					</g>
					<g id="XMLID_8162_">
						<polygon id="XMLID_8166_" class="st10" points="186,233.5 214,251.9 217.6,251.6 196.9,237.8 238.6,223.3 238.6,214.3 						
							"/>
						<path id="XMLID_8163_" class="st9" d="M214,252C213.9,252,213.9,252,214,252L186,233.5c0,0,0,0,0,0c0,0,0,0,0,0l52.6-19.2
							c0,0,0,0,0,0c0,0,0,0,0,0v9.1c0,0,0,0,0,0L197,237.8l20.6,13.7c0,0,0,0,0,0c0,0,0,0,0,0L214,252L214,252z M186.1,233.5
							l27.8,18.4l3.5-0.4l-20.6-13.7c0,0,0,0,0,0c0,0,0,0,0,0l41.7-14.5v-9L186.1,233.5z"/>
					</g>
					<g id="XMLID_8157_">
						<polygon id="XMLID_8161_" class="st10" points="160.3,228.4 188.2,246.9 191.8,246.5 171.2,232.7 217.2,215.3 217.2,206.3 
													"/>
						<path id="XMLID_8158_" class="st9" d="M188.2,246.9L188.2,246.9l-27.9-18.5c0,0,0,0,0,0c0,0,0,0,0,0l56.9-22.1c0,0,0,0,0,0
							c0,0,0,0,0,0v9.1c0,0,0,0,0,0l-46,17.4l20.6,13.7c0,0,0,0,0,0c0,0,0,0,0,0L188.2,246.9C188.2,246.9,188.2,246.9,188.2,246.9z
							 M160.4,228.4l27.8,18.4l3.5-0.4l-20.6-13.7c0,0,0,0,0,0c0,0,0,0,0,0l46-17.4v-9L160.4,228.4z"/>
					</g>
					<g id="XMLID_8152_">
						<polygon id="XMLID_8156_" class="st10" points="134.2,214.3 162.1,232.7 165.7,232.4 145.1,218.6 191.1,201.2 191.1,192.1 
													"/>
						<path id="XMLID_8153_" class="st9" d="M162.1,232.8L162.1,232.8l-27.9-18.5c0,0,0,0,0,0c0,0,0,0,0,0l56.9-22.1c0,0,0,0,0,0
							c0,0,0,0,0,0v9.1c0,0,0,0,0,0l-46,17.4l20.6,13.7c0,0,0,0,0,0c0,0,0,0,0,0L162.1,232.8C162.1,232.8,162.1,232.8,162.1,232.8z
							 M134.3,214.3l27.8,18.4l3.5-0.3l-20.6-13.7c0,0,0,0,0,0c0,0,0,0,0,0l46-17.4v-9L134.3,214.3z"/>
					</g>
					<g id="XMLID_7995_">
						<g id="XMLID_8147_">
							<path id="XMLID_8151_" class="st10" d="M110.4,195.1l23.2,8c0,0,2.9,4.4,0.7,5.1c-2.2,0.7-21.2,8.9-21.2,8.9l14,3.8l14.1-2.5
								L160,233l11.3,11l-50.7,9.1l-21.7,11.2l-27.5-5.4L43,237.1c0,0,3.6-11.6,2.2-11.2c-1.4,0.4-22.8-6.2-22.8-6.2
								s-2.1-17.1-0.5-16c1.6,1.1,23.7-13,25.5-13.4c1.8-0.4,31.4-4.1,31.4-4.1L110.4,195.1z"/>
							<path id="XMLID_8148_" class="st9" d="M98.8,264.3L98.8,264.3l-27.5-5.4l0,0L43,237.1c0,0,0,0,0,0c0-0.1,3.1-10.1,2.4-11.1
								c0-0.1-0.1-0.1-0.2-0.1c0,0-0.1,0-0.2,0c-2.4,0-22.5-6.1-22.7-6.2c0,0,0,0,0,0c-0.1-0.6-1.8-14.8-0.8-16
								c0.1-0.1,0.2-0.1,0.3,0c0.1,0,0.1,0.1,0.3,0.1c1.9,0,10.3-4.9,17.1-8.9c4.2-2.5,7.5-4.4,8.2-4.5c1.8-0.4,31.1-4.1,31.4-4.1
								c0,0,0,0,0,0l31.7,8.8l23.2,8c0,0,0,0,0,0c0.1,0.1,2,3,1.5,4.4c-0.1,0.3-0.4,0.6-0.7,0.7c-2.1,0.7-19.8,8.3-21.1,8.8
								l13.9,3.8l14.1-2.5c0,0,0,0,0,0l18.8,14.8l11.3,11c0,0,0,0,0,0c0,0,0,0,0,0l-50.7,9.1L98.8,264.3
								C98.8,264.3,98.8,264.3,98.8,264.3z M71.3,258.8l27.5,5.4l21.7-11.2l0,0l50.7-9.1L160,233l-18.8-14.7l-14.1,2.5c0,0,0,0,0,0
								l-14-3.8c0,0,0,0,0,0c0,0,0,0,0,0c0.2-0.1,19.1-8.2,21.2-8.9c0.4-0.1,0.6-0.3,0.7-0.7c0.5-1.4-1.3-4.2-1.4-4.3l-23.2-8
								l-31.7-8.8c-0.6,0.1-29.6,3.8-31.4,4.1c-0.7,0.1-4.1,2.2-8.2,4.5c-6.8,4-15.2,8.9-17.1,8.9c-0.1,0-0.2,0-0.3-0.1
								c-0.1-0.1-0.2-0.1-0.2,0c-1,1.1,0.7,15.3,0.8,15.9c0.7,0.2,20.3,6.2,22.6,6.2c0.1,0,0.1,0,0.2,0c0.1,0,0.2,0,0.3,0.1
								c0.8,1-2.2,10.5-2.4,11.2L71.3,258.8z"/>
						</g>
						<polygon id="XMLID_8146_" class="st11" points="65.9,161.4 66.1,154.9 88.1,151.3 111.7,157.1 111.5,178.3 114.2,185.8 
							118,201.3 121.6,208.3 91.7,218.7 71.6,222.8 48.4,214.3 47.2,200.6 64.1,176.1 						"/>
						<g id="XMLID_8121_">
							<g id="XMLID_8134_">
								<polygon id="XMLID_8145_" class="st10" points="42.1,176.9 73.7,188.4 78.7,186.2 48.4,175.7 								"/>
								<polygon id="XMLID_8144_" class="st11" points="42.1,176.9 42.1,181.5 73.7,194 73.7,188.4 								"/>
								<g id="XMLID_8140_">
									<polygon id="XMLID_8143_" class="st10" points="48.5,169.7 78.7,180.8 85.8,177.7 57.4,168.6 									"/>
									<polygon id="XMLID_8142_" class="st11" points="48.4,169.6 48.4,175.7 78.7,186.2 78.7,180.8 									"/>
									<polygon id="XMLID_8141_" class="st12" points="78.7,180.8 78.7,186.2 85.7,183.1 85.8,177.7 									"/>
								</g>
								<g id="XMLID_8136_">
									<polygon id="XMLID_8139_" class="st10" points="57,162.4 87.3,173.5 94.3,170.4 65.9,161.4 									"/>
									<polygon id="XMLID_8138_" class="st11" points="56.9,162.4 56.9,168.4 87.3,179 87.3,173.5 									"/>
									<polygon id="XMLID_8137_" class="st12" points="87.3,173.5 87.3,179 94.2,175.8 94.3,170.4 									"/>
								</g>
								<polygon id="XMLID_8135_" class="st12" points="78.7,186.2 78.9,191.5 73.7,194 73.7,188.4 								"/>
							</g>
							<g id="XMLID_8122_">
								<polygon id="XMLID_8133_" class="st10" points="21.8,199.1 53.4,210.6 58.5,208.4 28.1,197.9 								"/>
								<polygon id="XMLID_8132_" class="st11" points="21.8,199.1 21.8,203.7 53.4,216.3 53.4,210.6 								"/>
								<g id="XMLID_8128_">
									<polygon id="XMLID_8131_" class="st10" points="28.2,191.9 58.5,203 65.5,199.9 37.1,190.9 									"/>
									<polygon id="XMLID_8130_" class="st11" points="28.1,191.9 28.1,197.9 58.5,208.4 58.5,203 									"/>
									<polygon id="XMLID_8129_" class="st12" points="58.5,203 58.5,208.4 65.4,205.3 65.5,199.9 									"/>
								</g>
								<g id="XMLID_8124_">
									<polygon id="XMLID_8127_" class="st10" points="36.7,184.7 67,195.8 74,192.6 45.6,183.6 									"/>
									<polygon id="XMLID_8126_" class="st11" points="36.6,184.6 36.6,190.6 67,201.2 67,195.8 									"/>
									<polygon id="XMLID_8125_" class="st12" points="67,195.8 67,201.2 73.9,198 74,192.6 									"/>
								</g>
								<polygon id="XMLID_8123_" class="st12" points="58.5,208.4 58.6,213.7 53.4,216.3 53.4,210.6 								"/>
							</g>
						</g>
						<polygon id="XMLID_8120_" class="st12" points="111.7,157.1 93.7,162.2 94.2,175.8 85.6,179.5 85.7,183.1 78.7,186.2 
							78.9,191.5 73.7,194 73.9,198 67,201.2 65.4,205.3 58.5,208.4 58.6,213.7 53.4,216.3 71.6,222.8 91.7,218.7 121.6,208.3 
							116.3,194.3 111.5,178.3 						"/>
						<polygon id="XMLID_8119_" class="st19" points="94.3,170.4 93.3,186.8 85.5,204.4 92.4,202.4 100.7,186.2 						"/>
						<g id="XMLID_8111_">
							<polygon id="XMLID_8118_" class="st10" points="80.6,188.1 84,186.9 95.8,190.6 91.8,196.4 							"/>
							<polygon id="XMLID_8117_" class="st11" points="80.6,192.6 80.6,188.1 92.2,191.1 92.2,197.4 							"/>
							<polygon id="XMLID_8116_" class="st10" points="76.2,194.2 80.6,192.6 92.2,197.4 87.5,202.4 							"/>
							<polygon id="XMLID_8115_" class="st11" points="76.2,200.2 76.2,194.2 88.9,198.9 88.8,205.9 							"/>
							<polygon id="XMLID_8114_" class="st12" points="88.8,205.9 88.8,198.9 92.2,197.4 92.2,191.1 95.6,190.7 95.6,184.2 
								100.9,183.5 100.9,193.1 96.5,193.7 96.5,199.1 93.5,200.2 93.5,204.4 							"/>
							<polygon id="XMLID_8113_" class="st11" points="84,186.9 84,181.6 95.6,184.2 95.6,190.7 							"/>
							<polygon id="XMLID_8112_" class="st10" points="84,181.6 88.3,180.4 100.9,183.5 95.6,184.2 							"/>
						</g>
						<g id="XMLID_8103_">
							<polygon id="XMLID_8110_" class="st10" points="68,207.3 71.4,206 83.2,209.7 79.3,215.5 							"/>
							<polygon id="XMLID_8109_" class="st11" points="68,211.7 68,207.2 79.6,210.2 79.6,216.5 							"/>
							<polygon id="XMLID_8108_" class="st10" points="63.6,213.3 68,211.7 79.6,216.5 74.9,221.5 							"/>
							<polygon id="XMLID_8107_" class="st11" points="63.6,219.3 63.6,213.3 76.3,218 76.2,225 							"/>
							<polygon id="XMLID_8106_" class="st12" points="76.2,225 76.2,218 79.6,216.5 79.6,210.2 83,209.8 83,203.3 88.3,202.6 
								88.3,212.2 83.9,212.8 83.9,218.3 80.9,219.3 80.9,223.5 							"/>
							<polygon id="XMLID_8105_" class="st11" points="71.4,206 71.4,200.7 83,203.3 83,209.8 							"/>
							<polygon id="XMLID_8104_" class="st10" points="71.4,200.7 75.7,199.5 88.3,202.6 83,203.3 							"/>
						</g>
						<g id="XMLID_8072_">
							<g id="XMLID_8100_">
								<polygon id="XMLID_8102_" class="st18" points="94.3,170.4 100.6,186.3 91.8,203.3 102.6,201.8 110.3,184.8 101.8,168.2 
																	"/>
								<polygon id="XMLID_8101_" class="st18" points="94.3,170.4 95.7,161.8 103.7,159.4 101.8,168.2 								"/>
							</g>
							<g id="XMLID_8088_">
								<polygon id="XMLID_34_" class="st12" points="94.3,170.4 101.8,168.2 102.4,169.1 94.9,171.7 								"/>
								<polygon id="XMLID_38_" class="st12" points="95.4,173.3 103.4,171.2 104,172.2 96.1,174.6 								"/>
								<polygon id="XMLID_37_" class="st12" points="96.6,176.2 104.9,174.2 105.6,175.3 97.2,177.5 								"/>
								<polygon id="XMLID_36_" class="st12" points="97.8,179.1 106.5,177.3 107.2,178.4 98.4,180.4 								"/>
								<polygon id="XMLID_35_" class="st12" points="98.9,182 108,180.3 108.8,181.6 99.6,183.3 								"/>
								<polygon id="XMLID_33_" class="st12" points="100.1,184.9 109.6,183.3 110.4,184.7 100.7,186.2 								"/>
							</g>
							<g id="XMLID_8076_">
								<polygon id="XMLID_3_" class="st12" points="100.3,187.4 109.6,186.9 109.1,188.1 99.3,188.6 								"/>
								<polygon id="XMLID_32_" class="st12" points="98.8,190 108.4,189.6 107.9,190.8 97.9,191.2 								"/>
								<polygon id="XMLID_31_" class="st12" points="97.4,192.7 107.2,192.3 106.7,193.6 96.4,193.8 								"/>
								<polygon id="XMLID_22_" class="st12" points="96,195.3 106,195 105.5,196.3 95,196.5 								"/>
								<polygon id="XMLID_17_" class="st12" points="94.6,197.9 104.8,197.7 104.3,199 93.6,199.1 								"/>
								<polygon id="XMLID_2_" class="st12" points="93.2,200.5 103.6,200.4 103.2,201.7 92.2,201.7 								"/>
							</g>
							<polygon id="XMLID_8075_" class="st12" points="95.8,161.8 103.7,159.3 103.5,160.7 95.6,163.3 							"/>
							<polygon id="XMLID_8074_" class="st12" points="95.2,164.8 103.2,162.3 103,163.7 95,166.3 							"/>
							<polygon id="XMLID_8073_" class="st12" points="94.9,167.5 102.8,165 102.6,166.4 94.6,169 							"/>
						</g>
						<g id="XMLID_8025_">
							<polygon id="XMLID_8071_" class="st11" points="63.1,229.7 53.8,236.4 87.8,259 112,248.6 159.2,239.5 160,233 134.8,232.4 
								109.8,222.2 101.2,217.1 							"/>
							<g id="XMLID_8065_">
								<path id="XMLID_8070_" class="st18" d="M116.2,216.1v20.4c0,0,32.2-7.4,32.8-7.1c0.5,0.4,2-9.8,2-9.8l-16.1-6.3l-14,4.7
									L116.2,216.1z"/>
								<polygon id="XMLID_8069_" class="st20" points="120.9,218 121.5,232.1 149,229.4 151,219.6 134.9,213.3 								"/>
								<path id="XMLID_8068_" class="st12" d="M84.7,257l1.1-9.8l15.6-2.5l-0.4-14.5l55.8-11.6l3.3,2.5l4,17.5
									c0,0-52.9,9.1-55.1,11.2c-2.2,2.2-13.8,7.3-13.8,7.3l-7.2,2.2L84.7,257z"/>
								<path id="XMLID_8067_" class="st21" d="M87.8,259l1.1-9.8l15.6-2.5l-0.4-14.5l55.8-11.6l7.2,19.9c0,0-52.9,9.1-55.1,11.2
									c-2.2,2.2-13.8,7.2-13.8,7.2H87.8z"/>
								<polygon id="XMLID_8066_" class="st12" points="156.8,218.6 133.3,211.4 116.2,216.1 120.9,218 133.3,215.4 151,221.2 
																	"/>
							</g>
							<polygon id="XMLID_8064_" class="st18" points="101.4,244.7 104.4,246.7 104.1,232.2 101,230.2 							"/>
							<g id="XMLID_8041_">
								<path id="XMLID_8063_" class="st14" d="M110.6,236.7c7.3-1.5,14.7-2.8,22.1-4.1c7.4-1.3,14.7-2.6,22.1-3.8
									c-7.3,1.5-14.7,2.8-22.1,4.1C125.3,234.1,118,235.5,110.6,236.7z"/>
								<path id="XMLID_8062_" class="st14" d="M112.8,239.7c7-1.4,14-2.6,21-4c7-1.2,14-2.5,21.1-3.7c-7,1.4-14,2.6-21,4
									C126.8,237.3,119.8,238.6,112.8,239.7z"/>
								<path id="XMLID_8061_" class="st14" d="M126.5,240.3c4.6-0.9,9.2-1.7,13.8-2.6c4.6-0.8,9.2-1.6,13.9-2.3
									c-4.6,0.9-9.2,1.7-13.8,2.6C135.8,238.7,131.2,239.6,126.5,240.3z"/>
								<path id="XMLID_8060_" class="st14" d="M116.4,245.7c6.4-1.4,12.9-2.6,19.4-3.9c6.5-1.2,12.9-2.5,19.4-3.6
									c-6.4,1.4-12.9,2.6-19.4,3.9C129.3,243.3,122.9,244.6,116.4,245.7z"/>
								<path id="XMLID_8059_" class="st14" d="M93.2,253c4.4-0.9,8.8-1.5,13.2-2C102,251.8,97.6,252.5,93.2,253z"/>
								<path id="XMLID_8058_" class="st14" d="M95,255.3c3.1-0.7,6.1-1.2,9.2-1.4C101.2,254.6,98.1,255,95,255.3z"/>
								<path id="XMLID_8057_" class="st14" d="M139.1,235.1c0.2,0.9,0.2,1.8,0,2.8C138.9,236.9,138.9,236,139.1,235.1z"/>
								<path id="XMLID_8056_" class="st14" d="M135.8,238.6c0.2,1.1,0.2,2.3,0,3.4C135.6,240.8,135.6,239.7,135.8,238.6z"/>
								<path id="XMLID_8055_" class="st14" d="M130.2,233.2c0.2,1.1,0.2,2.2,0,3.3C130,235.3,130,234.3,130.2,233.2z"/>
								<path id="XMLID_8054_" class="st14" d="M145.9,230.2c0.2,1.2,0.2,2.3,0,3.5C145.6,232.5,145.6,231.3,145.9,230.2z"/>
								<path id="XMLID_8053_" class="st14" d="M146.3,236.8c0.2,1.1,0.2,2.2,0,3.3C146.1,239,146.1,237.9,146.3,236.8z"/>
								<path id="XMLID_8052_" class="st14" d="M122.2,234.5c0.2,1.1,0.2,2.2,0,3.3C122,236.7,122,235.6,122.2,234.5z"/>
								<path id="XMLID_8051_" class="st14" d="M126.6,233.6c-0.2-1.1-0.2-2.2,0-3.3C126.8,231.4,126.8,232.5,126.6,233.6z"/>
								<path id="XMLID_8050_" class="st14" d="M150.6,229.4c-0.2-1-0.2-2,0-3.1C150.8,227.4,150.8,228.4,150.6,229.4z"/>
								<path id="XMLID_8049_" class="st14" d="M125.9,244c0.2,1.1,0.2,2.1,0,3.2C125.7,246.1,125.7,245,125.9,244z"/>
								<path id="XMLID_8048_" class="st14" d="M137.6,231.7c-0.2-1-0.2-1.9,0-2.9C137.8,229.8,137.8,230.8,137.6,231.7z"/>
								<path id="XMLID_8047_" class="st14" d="M99.6,252.1c0.2,0.8,0.2,1.6,0,2.4C99.4,253.7,99.4,252.9,99.6,252.1z"/>
								<path id="XMLID_8046_" class="st14" d="M97,255.1c0.2,0.8,0.2,1.7,0,2.5C96.8,256.7,96.8,255.9,97,255.1z"/>
								<path id="XMLID_8045_" class="st14" d="M115.8,235.7c0.2,1.2,0.2,2.3,0,3.5C115.6,238,115.6,236.8,115.8,235.7z"/>
								<path id="XMLID_8044_" class="st14" d="M119.3,238.6c0.2,1.3,0.2,2.6,0,3.8C119.1,241.1,119.1,239.9,119.3,238.6z"/>
								<path id="XMLID_8043_" class="st14" d="M116.3,248.2c-0.2-1.6-0.2-3.2,0-4.8C116.5,245.1,116.5,246.7,116.3,248.2z"/>
								<path id="XMLID_8042_" class="st14" d="M151.2,232.9c0.2,1,0.2,2.1,0,3.1C151,234.9,151,233.9,151.2,232.9z"/>
							</g>
							<polygon id="XMLID_8040_" class="st21" points="108.8,219.2 108.8,226.5 100.3,220.9 69.3,231.1 68,218.7 70.7,210.8 
								91.8,203.3 104.8,200.3 109,204.9 109.9,216 							"/>
							<polygon id="XMLID_8039_" class="st18" points="63.1,229.7 66,209.4 104.8,197.1 112.1,205.4 113.1,217 108.8,219.2 
								107.7,207.2 102.6,201.8 71.5,211.9 69.3,231.1 							"/>
							<polygon id="XMLID_8038_" class="st20" points="108.8,219.2 113.1,217 112.8,224.8 108.8,226.5 							"/>
							<polygon id="XMLID_8037_" class="st12" points="102.6,201.8 100.3,220.9 108.8,226.5 108.8,219.2 107.7,207.2 							"/>
							<g id="XMLID_8026_">
								<path id="XMLID_8036_" class="st14" d="M73.7,214.7c4.4-1.5,8.9-2.8,13.4-4.2c4.5-1.3,8.9-2.6,13.5-3.8
									c-4.4,1.5-8.9,2.8-13.4,4.2C82.6,212.1,78.2,213.5,73.7,214.7z"/>
								<path id="XMLID_8035_" class="st14" d="M75,218.6c4-1.4,8.1-2.6,12.1-4c4.1-1.2,8.1-2.5,12.3-3.6c-4,1.4-8.1,2.6-12.1,4
									C83.2,216.1,79.1,217.4,75,218.6z"/>
								<path id="XMLID_8034_" class="st14" d="M74.8,223c3.8-1.3,7.6-2.5,11.4-3.7c3.8-1.1,7.7-2.4,11.5-3.4
									c-3.8,1.3-7.6,2.5-11.4,3.7C82.5,220.8,78.6,222,74.8,223z"/>
								<path id="XMLID_8033_" class="st14" d="M74,227.4c1.8-0.8,3.7-1.4,5.6-2.1c1.9-0.6,3.8-1.3,5.7-1.8
									c-1.8,0.8-3.7,1.4-5.6,2.1C77.8,226.2,76,226.9,74,227.4z"/>
								<path id="XMLID_8032_" class="st14" d="M81.9,220.9c0.1,0.7,0.2,1.3,0.2,2c0,0.7,0,1.3-0.2,2c-0.2-0.7-0.2-1.3-0.2-2
									C81.7,222.2,81.7,221.5,81.9,220.9z"/>
								<path id="XMLID_8031_" class="st14" d="M86.8,219.3c-0.1-0.7-0.2-1.5-0.2-2.2c0-0.7,0-1.5,0.2-2.2c0.2,0.7,0.2,1.5,0.2,2.2
									C87,217.8,87,218.5,86.8,219.3z"/>
								<path id="XMLID_8030_" class="st14" d="M93.1,212.9c-0.1-0.7-0.2-1.3-0.2-2c0-0.7,0-1.3,0.2-2c0.2,0.7,0.2,1.3,0.2,2
									C93.3,211.6,93.3,212.2,93.1,212.9z"/>
								<path id="XMLID_8029_" class="st14" d="M80.9,212.6c0.1,0.6,0.2,1.3,0.2,1.9c0,0.6,0,1.3-0.2,1.9c-0.2-0.6-0.2-1.3-0.2-1.9
									C80.8,213.9,80.8,213.3,80.9,212.6z"/>
								<path id="XMLID_8028_" class="st14" d="M92.9,217.5c0.1,0.7,0.2,1.3,0.2,2c0,0.7,0,1.3-0.2,2c-0.2-0.7-0.2-1.3-0.2-2
									C92.7,218.8,92.7,218.1,92.9,217.5z"/>
								<path id="XMLID_8027_" class="st14" d="M76.7,218.1c0.1,0.7,0.2,1.4,0.2,2.2c0,0.7,0,1.4-0.2,2.2c-0.2-0.7-0.2-1.4-0.2-2.2
									C76.5,219.5,76.5,218.8,76.7,218.1z"/>
							</g>
						</g>
						<polygon id="XMLID_8024_" class="st10" points="66.1,154.9 93.7,162.2 111.7,157.1 88.1,151.3 						"/>
						<g id="XMLID_7996_">
							<g id="XMLID_8016_">
								<polygon id="XMLID_8023_" class="st12" points="87.4,147.8 92.3,147.8 92.6,143.7 97.3,143.3 98.2,143.3 98.8,157.5 
									88.8,157.6 								"/>
								<path id="XMLID_8022_" class="st11" d="M80.6,157l0.3-9.9l7.4,0.8c0,0,0,10.4,0,10.6C88.3,158.6,80.6,157,80.6,157z"/>
								<polygon id="XMLID_8021_" class="st14" points="88.3,147.8 93.2,147.8 93.5,143.7 98.1,143.3 99.6,157.5 88.3,158.4 
																	"/>
								<g id="XMLID_8018_">
									<polygon id="XMLID_8020_" class="st16" points="83.5,152.6 82.8,152.5 82.8,149.7 83.5,149.8 									"/>
									<polygon id="XMLID_8019_" class="st16" points="85.5,152.8 84.8,152.7 84.8,149.9 85.5,150.1 									"/>
								</g>
								<polygon id="XMLID_8017_" class="st17" points="96.9,150.5 95.7,150.5 95.7,147.7 96.9,147.7 								"/>
							</g>
							<g id="XMLID_7997_">
								<g id="XMLID_8014_">
									<path id="XMLID_8015_" class="st17" d="M90.6,154c2.3-0.3,4.6-0.6,7-0.7C95.2,153.7,92.9,153.9,90.6,154z"/>
								</g>
								<g id="XMLID_8012_">
									<path id="XMLID_8013_" class="st17" d="M90.5,155.4c2.3-0.3,4.6-0.4,7-0.4C95.2,155.2,92.8,155.3,90.5,155.4z"/>
								</g>
								<g id="XMLID_8010_">
									<path id="XMLID_8011_" class="st17" d="M91.1,156.4c2.1-0.2,4.2-0.3,6.3-0.3C95.2,156.3,93.2,156.4,91.1,156.4z"/>
								</g>
								<g id="XMLID_8008_">
									<path id="XMLID_8009_" class="st17" d="M96.2,153.5c0.1,0.5,0.1,1,0,1.5C96.1,154.5,96.1,154,96.2,153.5z"/>
								</g>
								<g id="XMLID_8006_">
									<path id="XMLID_8007_" class="st17" d="M94.1,153.7c0.1,0.5,0.1,1,0,1.5C94,154.6,94,154.1,94.1,153.7z"/>
								</g>
								<g id="XMLID_8004_">
									<path id="XMLID_8005_" class="st17" d="M94.9,155.1c0.1,0.4,0.1,0.8,0,1.1C94.8,155.9,94.8,155.5,94.9,155.1z"/>
								</g>
								<g id="XMLID_8002_">
									<path id="XMLID_8003_" class="st17" d="M95.8,156.2c0.1,0.3,0.1,0.6,0,0.9C95.7,156.8,95.7,156.5,95.8,156.2z"/>
								</g>
								<g id="XMLID_8000_">
									<path id="XMLID_8001_" class="st17" d="M92.4,153.9c0.1,0.4,0.1,0.9,0,1.3C92.3,154.8,92.3,154.3,92.4,153.9z"/>
								</g>
								<g id="XMLID_7998_">
									<path id="XMLID_7999_" class="st17" d="M93.2,156.3c0.1,0.2,0.1,0.4,0,0.6C93.1,156.7,93.1,156.5,93.2,156.3z"/>
								</g>
							</g>
						</g>
					</g>
					<g id="XMLID_7982_">
						<polygon id="XMLID_7994_" class="st11" points="60.4,283.1 94,255.1 102.3,255.1 115,248 156.9,240.5 187.1,247.4 
							254.2,284.9 104.1,305.9 60.3,288.2 						"/>
						<polygon id="XMLID_7993_" class="st22" points="62.7,283.4 87.4,263.3 100.4,268.5 119.6,261.3 133.7,270.2 145.5,278.5 
							149.2,286.3 68.3,291.4 59.9,287.1 						"/>
						<polygon id="XMLID_7992_" class="st23" points="66.8,290.7 89.5,273.6 103.8,277.1 129.9,267.9 145.5,278.5 149.2,286.3 
							105.6,306.7 						"/>
						<g id="XMLID_7988_">
							<polygon id="XMLID_7991_" class="st24" points="167,253.2 197.2,249.2 202,252.4 204.9,257.8 202.9,261.6 202.9,274.5 
								177.3,278.8 177,261.9 							"/>
							<polygon id="XMLID_7990_" class="st23" points="202.1,252.4 196.3,258.7 191.1,258.4 189.1,262.4 186,259.3 179.9,259.6 
								177.3,275.4 177.3,278.8 202.9,274.5 202.9,261.6 204.9,257.8 							"/>
							<polygon id="XMLID_7989_" class="st22" points="163.8,274.8 167,253.2 179.9,259.6 177.3,278.8 							"/>
						</g>
						<polygon id="XMLID_7987_" class="st24" points="100.4,268.5 103.8,277.1 129.9,267.9 119.6,261.3 						"/>
						<polygon id="XMLID_7986_" class="st22" points="98.6,296.9 119.9,285.4 147.8,272.2 161,275.1 179.9,274.2 201.2,284.8 
							202.3,296.3 100.9,303.2 						"/>
						<polygon id="XMLID_7985_" class="st24" points="147.8,272.2 156.7,284.8 168.7,284.3 161,275.1 						"/>
						<polygon id="XMLID_7984_" class="st24" points="179.9,274.2 180.5,282.2 201.7,290.6 201.2,284.8 						"/>
						<polygon id="XMLID_7983_" class="st23" points="124.5,301.8 156.7,284.8 168.7,284.3 177,286 180.5,282.2 201.7,290.6 
							202.3,296.3 						"/>
					</g>
				</g>
				<path id="XMLID_7979_" class="st1" d="M297.7,68.2c0,0-1.7-8.3-15-5c0,0-22.1-50.1-44.7-4.7c0,0-14.7-13.3-17.3,4.9
					c0,0-12.4-4.3-16.5,4.9L297.7,68.2z"/>
			</g>
		</g>
		<path id="XMLID_7972_" class="st25" d="M155,11.3c79.4,0,143.7,64.3,143.7,143.7S234.4,298.7,155,298.7S11.3,234.4,11.3,155
			S75.6,11.3,155,11.3 M155,0C113.6,0,74.7,16.1,45.4,45.4C16.1,74.7,0,113.6,0,155c0,41.4,16.1,80.3,45.4,109.6
			C74.7,293.9,113.6,310,155,310s80.3-16.1,109.6-45.4C293.9,235.3,310,196.4,310,155c0-41.4-16.1-80.3-45.4-109.6
			C235.3,16.1,196.4,0,155,0L155,0z"/>
	</g>
	<g id="XMLID_7968_" class="st26">
		<path id="XMLID_81_" class="st25" d="M212.3,23.2c36.6,26.1,60.5,68.8,60.5,117.1c0,79.4-64.3,143.7-143.7,143.7
			c-20.4,0-39.7-4.2-57.3-11.9c23.5,16.7,52.2,26.6,83.3,26.6c79.4,0,143.7-64.3,143.7-143.7C298.7,96,263.1,45.3,212.3,23.2z"/>
	</g>
</g>
</svg>
