<svg version="1.1" id="Layer_1" xmlns="http://www.w3.org/2000/svg" xmlns:xlink="http://www.w3.org/1999/xlink" x="0px" y="0px"
	 width="248px" height="210px" viewBox="-335 156 248 210" style="enable-background:new -335 156 248 210;" xml:space="preserve">
<style type="text/css">
	.st00{fill:#71E3CE;}
	.st01{opacity:0.8;fill:#FFFFFF;enable-background:new    ;}
	.st02{fill:#A4885E;}
	.st03{fill:#886C47;}
	.st04{fill:#614D2F;}
	.st05{fill:#BBA065;}
	.st06{fill:#BEA76D;}
	.st07{fill:#A18754;}
	.st08{fill:#FFFFFF;}
	.st09{fill:#477DB2;}
	.st010{fill:#FFC522;}
	.st011{opacity:0.1;enable-background:new    ;}
	.st012{fill:#FFC48F;}
	.st013{fill:#6B401C;}
	.st014{fill:#F7EEF2;}
	.st015{opacity:0.5;fill:#FFEEA9;enable-background:new    ;}
	.st016{fill:#BA6E3A;}
	.st017{fill:#544030;}
	.st018{fill:#484C54;}
	.st019{fill:#BF9E7D;}
	.st020{fill:#7DB7E2;}
	.st021{opacity:0.5;}
	.st022{fill:#FFEEA9;}
	.st023{fill:#38718E;}
	.st024{opacity:0.3;enable-background:new    ;}
	.st025{fill:#3F8AAF;}
	.st026{opacity:0.1;fill:#FFFFFF;enable-background:new    ;}
	.st027{fill:#8E5C5A;}
	.st028{fill:#3D210D;}
	.st029{fill:#6D7076;}
	.st030{fill:#FAFAFA;}
	.st031{fill:#E1E0E4;}
	.st032{fill:#66ACB5;}
	.st033{opacity:0.2;fill:#FFFFFF;enable-background:new    ;}
	.st034{fill:url(#XMLID_11_);}
	.st035{fill:url(#XMLID_12_);}
	.st036{fill:#9EA5B5;}
	.st037{fill:url(#XMLID_28_);}
	.st038{fill:url(#XMLID_29_);}
	.st039{fill:url(#XMLID_30_);}
	.st040{fill:url(#XMLID_31_);}
</style>
<ellipse id="XMLID_5712_" class="st00" cx="-210.7" cy="261.1" rx="84.5" ry="84.2"/>
<path id="XMLID_6232_" class="st01" d="M-200,204.5c0,0,1.5-7,12.8-4.2c0,0,18.8-42.5,38.1-4c0,0,12.5-11.3,14.7,4.2
	c0,0,10.6-3.6,14.1,4.1L-200,204.5z"/>
<path id="XMLID_6230_" class="st01" d="M-319.4,303.5c0,0,2.2-10.4,18.9-6.3c0,0,27.8-62.8,56.2-5.9c0,0,18.5-16.7,21.8,6.2
	c0,0,15.6-5.3,20.8,6.1L-319.4,303.5z"/>
<g id="XMLID_1_">
	<g id="XMLID_15_">
		<g id="XMLID_19_">
			<path id="XMLID_27_" class="st02" d="M-248,336.4c0,0,9.1-38.5,10.3-38.8s1.2-0.3,1.2-0.3s2.7-9.4,5.8-8.4s8.4,14.8,8.6,15.7
				c0.2,1,2.5,0.6,2.9,1.4s3.8,11.4,4.7,11.7c0.9,0.3,2-3.1,3.6-1.4s4.4,10.4,5.1,10.5c0.6,0.1,4.7-1,5.6,0.4
				c0.9,1.4,2.1,4.1,2.9,4.5c0.8,0.4,2.6,1.1,5.8,2.7c3.2,1.5,4.8,9.8,4.8,9.8l-50,1.8l-10-5.7L-248,336.4z"/>
			<path id="XMLID_26_" class="st03" d="M-229.9,345.8l43-1.6c0,0-1.6-8.3-4.8-9.8s-5-2.2-5.8-2.7c-0.8-0.4-2-3.1-2.9-4.5
				c-0.9-1.4-5-0.3-5.6-0.4c-0.6-0.1-3.4-8.9-5.1-10.5c-1.6-1.7-2.7,1.7-3.6,1.4c-0.9-0.3-4.3-10.8-4.7-11.7
				c-0.4-0.8-2.7-0.4-2.9-1.4s-5.5-14.8-8.6-15.7c-3.1-1-5.8,8.4-5.8,8.4s0,0-1.2,0.3c0,0,3.1,13.9,3.6,12.9s0.4-21.8,3.2-19.7
				c2.8,2.1,4.5,11.4,4.2,12.7s-3.4,12.5-2.9,12.7c0.5,0.1,2.9-1.8,2.9-1.3c0,2.1-1.9,4.8-1.9,5.3c0,0.6-1,7.3-0.4,8.2
				c0.6,0.8,1.9-0.7,1.5,1.3s-1.8,4.1-1.8,4.8c0,0.7-0.3,4.8-0.3,4.8s2.1-1.4,2.2-0.3c0.1,1.1-2.2,3.8-2.3,4.6
				C-229.7,343.9-229.8,344.8-229.9,345.8z"/>
			<g id="XMLID_21_">
				<path id="XMLID_25_" class="st04" d="M-205.9,326.8c0.1,0.6,0.2,1.1,0.2,1.3c0,0.4,1.6,10,2,9.6c0.4-0.4-0.2-5.1,0.5-5.3
					c0.6-0.3,1.8,1.1,1.8,1.7c0,0.6,2.2,7.9,2.4,6.9c0.2-0.9-1.8-11.1-2-14.2C-202.6,326.2-205.4,326.9-205.9,326.8z"/>
				<path id="XMLID_24_" class="st04" d="M-192.4,340.7c0,0,2.1-2,3.3-3.2c-0.7-1.4-1.6-2.6-2.6-3.1c-3.2-1.5-5-2.2-5.8-2.7
					c-0.5,0.3,1.9,6.7,1.9,6.7L-192.4,340.7z"/>
				<path id="XMLID_23_" class="st04" d="M-217.7,328c0.5-1-2.3-21.1-1.6-21.9c-0.4-0.8-2.7-0.4-2.9-1.4
					C-222.2,304.6-218.1,328.9-217.7,328z"/>
				<path id="XMLID_22_" class="st04" d="M-212.3,316c0.5-0.3,1.7,1.3,2.9,3.2c-0.6-1.3-1.2-2.4-1.7-3c-1.6-1.7-2.7,1.7-3.6,1.4
					c0,0,1.9,15.5,2.2,15.5s0.9-1.4,0.8-2.2C-211.7,330.1-213.4,316.7-212.3,316z"/>
			</g>
			<path id="XMLID_20_" class="st05" d="M-233.9,346c0-4.2-0.1-13.6,0-15.2c0.1-2.1,2.4-18.7,2.3-20.2c-0.1-1.5-4.6,5.8-5.2,4.3
				c-0.6-1.5-2.8,11.8-3.4,12.7c-0.6,0.9-1.2-1.1-1.3-2.6s-3.5,8.6-3.5,8.6s-1.1,3-2.1,6l0.8,2.5L-233.9,346z"/>
		</g>
		<g id="XMLID_16_">
			<path id="XMLID_18_" class="st06" d="M-275.8,322.5c2.2-8.6,4.9-15.6,8.6-13c3.9,2.7,4.9,8.6,5.3,9.5c0.3,0.9,2,11.2,2.9,10.2
				c2.4-2.7,4.3-2.6,4.5-1.6c0.2,0.9,1.3,4,2.3,2.7s3.3-6.2,7.1-4.4s7.5,12.8,8.2,15.3c0.7,2.6,0.7,2.6,0.7,2.6l-6.4,0.2l-16.6-7.9
				c0,0-0.2-0.9-5.1-3.9C-267.9,329.9-276.7,326-275.8,322.5z"/>
			<path id="XMLID_17_" class="st07" d="M-261.8,318.9c-0.3-0.7-1-4.8-3.4-7.7c-0.9,0.3-1.8,0.9-2.4,0.3c-1.4-1.2-2.5,3.7-2.5,4.4
				c0,0.7-1.4,3.7-2.9,3.9c-0.4,0.1-0.9,1.8-1.4,4.4c-0.3,1.8,2.3,3,3.9,4.1c4,2.8,10,4.4,9.7,7.2l17.5,8.5l7-0.2c0,0,0,0-0.7-2.6
				c-0.4-1.6-2-6.5-4.1-10.4c-2.7-2.6-5-4.4-5.8-4.4c-2.8,0-4.1,6.8-5.1,7.3c-0.9,0.5-2.6-5.1-2.6-6.2v-0.1
				c-0.2,0.4-1.2,8.1-1.8,9.2c-0.6,1.2-2.1-4.6-2.7-7.5C-259.8,330.1-261.5,319.8-261.8,318.9z"/>
		</g>
	</g>
	<g id="XMLID_2_">
		<g id="XMLID_6_">
			<path id="XMLID_14_" class="st02" d="M-174.3,336.4c0,0,9.1-38.5,10.3-38.8s1.2-0.3,1.2-0.3s2.7-9.4,5.8-8.4s8.4,14.8,8.6,15.7
				c0.2,1,2.5,0.6,2.9,1.4c0.3,0.5,1.8,5.2,3.1,8.5c0.4,0.9-6.5,9.5-14.7,16.3c-7.1,6-15.6,10.6-15.6,10.6L-174.3,336.4z"/>
			<path id="XMLID_13_" class="st03" d="M-141,317.7c-0.9-0.3-4.3-10.8-4.7-11.7c-0.4-0.8-2.7-0.4-2.9-1.4s-5.5-14.8-8.6-15.7
				c-3.1-1-5.8,8.4-5.8,8.4s0,0-1.2,0.3c0,0,3.1,13.9,3.6,12.9s0.4-21.8,3.2-19.7c2.8,2.1,4.5,11.4,4.2,12.7s-3.4,12.5-2.9,12.7
				c0.5,0.1,2.9-1.8,2.9-1.3c0,2.1-1.9,4.8-1.9,5.3c0,0.6-1,7.3-0.4,8.2C-154.9,329.2-140.1,318-141,317.7z"/>
			<g id="XMLID_8_">
				<path id="XMLID_10_" class="st04" d="M-144.7,319c-0.7-5.8-1.3-12.5-0.9-12.9c-0.4-0.8-2.7-0.4-2.9-1.4c0-0.1,1.9,8,2.6,14.8
					C-145.6,322.7-144.4,321.3-144.7,319z"/>
			</g>
			<path id="XMLID_7_" class="st05" d="M-160.2,330.8c0.1-2.1,2.4-18.7,2.3-20.2c-0.1-1.5-4.6,5.8-5.2,4.3
				c-0.6-1.5-2.8,11.8-3.4,12.7c-0.6,0.9-1.2-1.1-1.3-2.6s-3.5,8.6-3.5,8.6s-1.1,3-2.1,6C-173.4,339.6-160.3,332.4-160.2,330.8z"/>
		</g>
		<g id="XMLID_3_">
			<path id="XMLID_5_" class="st06" d="M-205.7,340.3c0,0,5.1-35.9,12.3-30.8c3.9,2.7,4.9,8.6,5.3,9.5c0.3,0.9,2,11.2,2.9,10.2
				c2.4-2.7,4.3-2.6,4.5-1.6c0.2,0.9,1.3,4,2.3,2.7s3.3-6.2,7.1-4.4c2.8,1.3,5.3,6.2,6.8,10.4c0.5,1.5-12.9,7.9-12.9,7.9l-29.1,0.9
				L-205.7,340.3z"/>
			<path id="XMLID_4_" class="st07" d="M-188.1,318.9c-0.3-0.7-1-4.8-3.4-7.7c-0.9,0.3-1.8,0.9-2.4,0.3c-1.4-1.2-2.5,3.7-2.5,4.4
				c0,0.7-1.4,3.7-2.9,3.9c-1.3,0.2-3.7,19.7-4.3,25.1l26.4-0.8c0,0,8.3-1.7,7.6-4.3c-0.2-0.9,5.5-1.6,4.6-3.9
				c-0.7-1.7-1.5-3.6-2.4-5.2c-2.7-2.6-5-4.4-5.8-4.4c-2.8,0-4.1,6.8-5.1,7.3c-0.9,0.5-2.6-5.1-2.6-6.2v-0.1
				c-0.2,0.4-1.2,8.1-1.8,9.2c-0.6,1.2-2.1-4.6-2.7-7.5C-186.1,330.1-187.8,319.8-188.1,318.9z"/>
		</g>
	</g>
</g>
<path id="XMLID_11392_" class="st08" d="M-210.7,176.8c46.6,0,84.5,37.7,84.5,84.2s-37.8,84.2-84.5,84.2s-84.5-37.6-84.5-84.1
	S-257.4,176.8-210.7,176.8 M-210.7,169.8c-50.4,0-91.5,40.9-91.5,91.2s41,91.2,91.5,91.2s91.5-40.9,91.5-91.2
	S-160.3,169.8-210.7,169.8L-210.7,169.8z"/>
<g id="Plane" class="animated bob infinite">
	<g id="XMLID_5876_">
		<path id="XMLID_5930_" class="st09" d="M-220.6,307.7h7c1.3-10.3,1.9-16.1-1.4-29.7l-10.1,13.2
			C-223.2,291.5-221.4,294.3-220.6,307.7z"/>
		<path id="XMLID_5929_" class="st09" d="M-232.6,307.6c0.2-9.6,1.1-15.2,3.6-16.6l-8.8-13.5c-3.2,11.3-3.3,20.2-2.3,30.1H-232.6z"/>
		<path id="XMLID_5928_" class="st010" d="M-214.2,251.6c1.3,3.5,13.2,3,20.8-0.3c2.2,3.9,1.9,14.1-1,12.6c-9.7,0.4-27.8-3-27.7-8.7
			C-222,250.3-215.4,248.3-214.2,251.6z"/>
		<g id="XMLID_5926_">
			<path id="XMLID_5927_" class="st011" d="M-216.8,252.2c-0.3,4.1,9.5,5.3,17.1,5.1c-1.5,2.4-1.1,4.1-0.4,5c0.9-0.2,2-0.9,2.9-1.9
				c-1.6,1.6-3.3,2.4-4.5,1.8c-10.8,0.5-21.1-1.8-20.2-9.1C-221.3,248.3-216.6,249.3-216.8,252.2z"/>
		</g>
		<path id="XMLID_5925_" class="st011" d="M-195.7,257.2c0.6-2.4,1.4-4.4,2.2-5.8c2.5,4,1.8,10.6-0.5,12.7
			C-195.2,263.7-196.8,261.7-195.7,257.2z"/>
		<path id="XMLID_5924_" class="st012" d="M-188.9,249.7c1.2-2.6,3.8-3.7,5.2-2.5c1.4,1.3,1,4-0.8,6.1c-1.9,2.1-6.9,1.1-8.3-0.1
			C-194.2,251.9-190.1,252.2-188.9,249.7z"/>
		<path id="XMLID_5923_" class="st012" d="M-193.4,252c1.6-0.4,4.1-0.8,4.2-0.2c0.2,0.6,0.2,1.7-1.3,2.2c-1.6,0.4-5.3,0.5-5.4-0.1
			C-196,253.2-194.9,252.4-193.4,252z"/>
		<g id="XMLID_5904_">
			<path id="XMLID_5922_" class="st010" d="M-239.9,239.2c-9.6,22.2-14,24-21,9.5c-4,4-4,13-0.8,13.7c13.2,12.3,14.5,4.1,25.9-19
				L-239.9,239.2z"/>
			<g id="XMLID_5920_">
				<path id="XMLID_5921_" class="st011" d="M-239.9,239.2c-1.2,2.8,0.6,7.1-0.5,9.3c-6.4,14.9-9.8,17.7-19.6,9
					c-0.4,2.8-1.8,3.9-2.9,4c-0.6-0.8-0.9-2-1-3.3c0.2,2.2,0.9,3.9,2.3,4.2c13.2,12.3,14.5,4.1,25.9-19L-239.9,239.2z"/>
			</g>
			<path id="XMLID_5919_" class="st011" d="M-259.9,255c-0.1-2.4-0.6-4.6-1.1-6.2c-3.2,3.4-3.7,10.1-1.9,12.6
				C-261.6,261.3-259.7,259.6-259.9,255z"/>
			<path id="XMLID_5918_" class="st012" d="M-263.2,244.5c0.8-2.7-0.5-5.3-2.4-5.3s-3.4,2.3-3.3,5.2c0.1,2.8,4.5,5.3,6.4,5.3
				S-264,247.2-263.2,244.5z"/>
			<path id="XMLID_5917_" class="st012" d="M-261.3,249.2c-0.9-1.3-2.5-3.3-3.1-2.9c-0.5,0.3-1.3,1.2-0.4,2.5s3.6,3.8,4.2,3.5
				C-260.1,251.9-260.4,250.5-261.3,249.2z"/>
			<path id="XMLID_5914_" class="st013" d="M-264.2,236.7l-1.4-0.1l-1.1,12.1c0,0.1,0,0.3,0.1,0.4c0.1,0.1,0.2,0.2,0.3,0.2
				c0.5,0,1-0.3,1-0.8L-264.2,236.7z"/>
			<path id="XMLID_5911_" class="st013" d="M-260.6,225.4c0-1.6-1.1-2.9-2.7-3.1l-0.8-0.1c-1.1-0.1-2.1,0.5-2.3,1.6l-2.7,11.6
				c-0.1,0.6,0,1.2,0.3,1.7c0.4,0.5,0.9,0.8,1.5,0.9l4.2,0.4c0.6,0.1,1.1-0.1,1.6-0.5c0.4-0.4,0.7-0.9,0.7-1.5L-260.6,225.4z"/>
			<ellipse id="XMLID_5910_" class="st012" cx="-266.3" cy="244.3" rx="2" ry="0.7"/>
			<ellipse id="XMLID_5909_" class="st012" cx="-266.1" cy="242.3" rx="2" ry="0.7"/>
			
				<ellipse id="XMLID_5908_" transform="matrix(-0.7214 -0.6925 0.6925 -0.7214 -625.608 229.136)" class="st012" cx="-266.7" cy="240.4" rx="0.7" ry="2"/>
			
				<ellipse id="XMLID_5907_" transform="matrix(0.945 -0.3271 0.3271 0.945 -93.3093 -73.0778)" class="st012" cx="-263.9" cy="240.9" rx="0.7" ry="2"/>
			<path id="XMLID_5906_" class="st014" d="M-261,224.8c-0.2-1-0.9-1.7-1.5-1.6c-0.6,0.1-0.5,0.9-0.3,1.9c0.2,1,0.4,1.8,1.1,1.6
				C-261.1,226.7-260.8,225.8-261,224.8z"/>
			<path id="XMLID_5905_" class="st015" d="M-265.3,232.9c0.4-2.5,0.8-6.4-0.1-6.5c-0.9-0.2-2.2,4.5-2.6,7c-0.4,2.5-0.4,3.6,0.5,3.7
				C-266.5,237.3-265.7,235.4-265.3,232.9z"/>
		</g>
		<path id="XMLID_5903_" class="st013" d="M-217.3,222.3c-0.8-8.2-7.1-17-13.5-17c-3.8,0.4-1.2,10-0.4,18.3
			c0.8,8.2,4.5,14.6,8.3,14.3C-219.1,237.5-216.6,230.5-217.3,222.3z"/>
		<path id="XMLID_5902_" class="st013" d="M-224.9,223.2c-0.8-8.2,5.2-20.9-13-17.3c-5.2,1.8-10.3,11.4-9.5,19.6
			c0.8,8.2,13.1,13.6,16.9,13.3C-226.6,238.4-224.1,231.4-224.9,223.2z"/>
		<path id="XMLID_5901_" class="st09" d="M-237.5,278.5l22.8,2.8l-7.9,11.2c-3.1-2.2-7.2-2.9-9.5,1.1L-237.5,278.5z"/>
		<g id="XMLID_5899_">
			<path id="XMLID_5900_" class="st011" d="M-239.7,284.3c0.4-2.2,1-4.4,1.8-6.7l0.7,0.8l18.5-0.1l2.6-1.8c1,3.4,1.8,5.6,2.3,8.1
				C-221.6,288.8-234.8,289.6-239.7,284.3z"/>
		</g>
		<path id="XMLID_5898_" class="st010" d="M-241,241.6c0.6-2.8,2.9-5,5.7-5.5c7.8-0.9,13.7-3.1,21.8,13.2c0.6,2.6-1,5.7-4.1,7.1
			c-3.4,16.8,0.7,12.8,3.3,24.5c0.6,2.9-27.5,7.4-26.8,0.8C-227.7,260.5-243.8,255.3-241,241.6z"/>
		<path id="XMLID_5897_" class="st016" d="M-225.2,243.8c-3.1-0.1-10.6-3.5-13.4-6c1-0.8,2.1-1.4,3.4-1.7c4.2-0.5,7.8-1.3,11.5,0.5
			C-221.2,238.6-221.2,242-225.2,243.8z"/>
		<path id="XMLID_5896_" class="st011" d="M-238.2,254.5v-0.1c5.2,5.2,16.5,3.6,20.9,2.1c-0.9,1.4-0.8,3.8-1.1,5.5
			C-224.5,266.3-233,264.6-238.2,254.5z"/>
		<path id="XMLID_5895_" class="st012" d="M-225.6,243.2c-2.8-0.1-9.5-3.2-11.9-5.5c0.8-0.8,1.9-1.3,3-1.5c3.7-0.5,6.9-1.2,10.3,0.5
			C-222,238.5-222,241.5-225.6,243.2z"/>
		<rect id="XMLID_5894_" x="-233.4" y="227.5" class="st012" width="5" height="10"/>
		<path id="XMLID_5893_" class="st011" d="M-240.3,240c1-2,2.9-3.4,5.1-3.9c0.6-0.1,1.2-0.1,1.8-0.2c-1.2-18.1,3.5-5,5-5
			c0.2,0,0,4.3,0,4.6c3.6,0.1,7.1,1.5,11,6.9c-2.2,1-5,1.8-8.1,2.1C-232.9,245.3-239.1,243.3-240.3,240z"/>
		<path id="XMLID_5892_" class="st012" d="M-241.9,223.4c-1.2-6.7,3.6-13.9,9.4-14.9c5.8-1,10.6,1.3,11.8,10.6
			c-2.2,7.6-4,11.4-7.6,11.9C-230.9,231.1-232.8,230.2-241.9,223.4z"/>
		<path id="XMLID_5891_" class="st013" d="M-247.4,225.8c-0.8-8.2,4.4-17.7,8-18s4.2,8.6,5,16.8s-1.5,15.1-5.1,15.4
			C-243.1,240.4-246.7,234-247.4,225.8z"/>
		<path id="XMLID_5890_" class="st013" d="M-239.9,210.2c0-1.4,2.6-4.9,6.4-4.9s8.5,3.4,6.4,4.2c-2.3,1.4-8.1,1.3-9.2,9.1
			C-240,218.6-239.9,211.6-239.9,210.2z"/>
		<path id="XMLID_5889_" class="st012" d="M-225.7,219.7c0-2.2,0.9-2.7,2.4-2.7s3,2.1,3,4.3s-3.7,8.3-6.5,8.9
			C-228.2,230.2-225.7,221.9-225.7,219.7z"/>
		<path id="XMLID_5888_" class="st011" d="M-224.4,222.1c0-0.4-0.5-0.8-1.1-0.9c0.2-0.1,0.4-0.1,0.6-0.1c0.7,0,1.3,0.4,1.3,0.9
			s-0.6,0.9-1.3,0.9c-0.1,0-0.2,0-0.3,0C-224.7,222.7-224.4,222.4-224.4,222.1z"/>
		<path id="XMLID_5887_" class="st017" d="M-229.5,218.5c0-1.3,0.5-2.2,1-2.2s0.8,0.9,0.8,2.2s-0.4,2.4-0.9,2.4
			C-229.1,220.9-229.5,219.8-229.5,218.5z"/>
		<ellipse id="XMLID_5886_" class="st017" cx="-223.2" cy="218.4" rx="0.8" ry="2.1"/>
		<path id="XMLID_5885_" class="st013" d="M-230.4,223.5c2.4,1.2,3.9,1.8,6.9,1.2C-227.7,229.1-227.6,228.5-230.4,223.5z"/>
		<path id="XMLID_5884_" class="st013" d="M-227.4,215.2c0.3,0.1,0.6,0.3,0.8,0.5l-0.1,0.3c-0.2-0.1-0.3-0.2-0.5-0.3
			c-1.2-0.4-2.6,0.3-3.4,1.7l-0.4-0.1C-230.3,215.7-228.8,214.7-227.4,215.2z"/>
		<path id="XMLID_5883_" class="st013" d="M-221.5,216.8c0.1,0.3,0.1,0.6,0.1,0.9l-0.3,0.1c0-0.2,0-0.4-0.1-0.5
			c-0.4-1.1-1.5-1.8-2.8-1.7l-0.1-0.3C-223.3,214.9-221.9,215.6-221.5,216.8z"/>
		<path id="XMLID_5882_" class="st014" d="M-229.2,224.7c1.7,0.8,3.4,0.8,4.7,0.5l-0.9,0.9c-0.9,0.2-1.9,0.4-3-0.1L-229.2,224.7z"/>
		<path id="XMLID_5881_" class="st012" d="M-236.8,220.1c-0.1-1.1,0.2-2,0.6-2c0.5-0.1,0.4,0.6,0.5,1.6c0.1,1.1,0.4,2.2-0.1,2.2
			C-236.2,222-236.7,221.2-236.8,220.1z"/>
		<path id="XMLID_5880_" class="st011" d="M-225.4,243.1l-1.7-1.8l0.5,1.7C-226.6,242.9-226.1,243.7-225.4,243.1z"/>
		<path id="XMLID_5879_" class="st015" d="M-241.8,237.7c-0.5,0-1.5-0.4-2.5-1.2c-1.5-2.6-2.7-6.4-3.1-10.7c-0.3-3.2,0.3-6.5,1.3-9.5
			c1.7-5.1,5-9.3,8.3-10.5c2.5-0.5,4.6-0.7,6.3-0.6C-236.6,209.5-245,219.2-241.8,237.7z"/>
		<path id="XMLID_5878_" class="st013" d="M-235.1,211.5c0,0,3.1,1.6-0.3,12.2C-235.5,223.7-233.4,214.8-235.1,211.5z"/>
		<path id="XMLID_5877_" class="st013" d="M-242.5,218.6c0,0-2.7,8.7,1.3,20.2C-241.1,238.8-247.5,228.9-242.5,218.6z"/>
	</g>
	<g id="XMLID_5811_">
		<path id="XMLID_5875_" class="st018" d="M-203.8,308.7c1-7.6,1.8-15.7,2.3-25.2l-12.7-8.8c-0.1,13.3,0,24.4,0,34.1h10.4V308.7z"/>
		<path id="XMLID_5874_" class="st018" d="M-178.1,308.4c-1.9-13.1-3.7-24.6-5.3-34l-10.9,9.5c2.4,8.8,4.5,16.6,6.4,24.5H-178.1z"/>
		<path id="XMLID_5873_" class="st012" d="M-160.4,214.8c-0.7-2.5-0.5-6.8-2.3-6.2c-1.8,0.5-4.2,5.2-3.4,7.7c0.7,2.5,3.2,4.5,5,4
			C-159.4,219.7-159.7,217.3-160.4,214.8z"/>
		<path id="XMLID_5872_" class="st019" d="M-159.7,218c0-2.4-1-4.3-2.1-4.3s-2.1,1.9-2.1,4.3s-0.2,6.5,1,6.5
			C-161.8,224.4-159.7,220.4-159.7,218z"/>
		<path id="XMLID_5871_" class="st018" d="M-203.8,214.5c-0.9-3.2-5-9.6-7.3-8.9c-2.3,0.7-2.5,7.7-1.6,10.8s6.8,6.3,9.1,5.6
			C-201.3,221.3-202.9,217.6-203.8,214.5z"/>
		<path id="XMLID_5870_" class="st018" d="M-202.6,211.6c2.4-4.4,6.4-15.1,3.1-16.8c-3.3-1.7-10.5,1.5-13.8,8.7
			c-2.1,4.6,0.1,14.3,3.4,16.1C-206.7,221.3-204.9,216.1-202.6,211.6z"/>
		<path id="XMLID_5869_" class="st020" d="M-160.5,226l-5.3-1.7c-4.9,25.4-14.7,23.5-18.5,6.1l-5.9,5.6
			C-178.6,263.8-167.3,253.6-160.5,226z"/>
		<path id="XMLID_5868_" class="st011" d="M-162,225.5c-6.4,23.1-16.7,31.5-27.1,9.4l-1.1,1.1c11.6,27.7,23,17.6,29.8-10L-162,225.5z
			"/>
		<path id="XMLID_5867_" class="st018" d="M-183.2,275.8l-29.8,1.4l8.8,17.4c5.4-4.3,8.1-3.7,17.5-3.9L-183.2,275.8z"/>
		<g id="XMLID_5865_" class="st021">
			<path id="XMLID_5866_" class="st011" d="M-183.4,274.4l-0.3,0.3l0.5-2.3L-214,274c0,0,0.2,8.6-0.1,12.5
				C-203.3,288.1-183,281.8-183.4,274.4z"/>
		</g>
		<path id="XMLID_5864_" class="st020" d="M-185.9,228.5c-10.6-7-24.4-2.1-29.9,4c-0.6,0.7-0.9,1.6-1,2.5
			c-4.3,14.7,6.5,21.6,0.8,39.8c0.9,10.2,32,5.9,33.8-2.7C-183.5,254.3-176.8,236.8-185.9,228.5z"/>
		<g id="XMLID_5862_" class="st021">
			<path id="XMLID_5863_" class="st022" d="M-181.7,254.6c0.5-5.7,0.9-10.9,0.5-15.4c-6.4,4.1-17.7,5.1-36.6,4.2
				c0.3,5.5,2.2,10.2,3.1,15.9C-196.6,259.5-186.8,258.4-181.7,254.6z"/>
		</g>
		<path id="XMLID_5861_" class="st011" d="M-211.7,272.9c0.3-1.1,6.1-41.5-4.1-40.3c-0.6,0.7-0.9,1.6-1,2.5
			c-4.3,14.7,6.5,21.6,0.8,39.8c0.8,8.8,24.1,6.8,31.6,0.6C-194.2,278.6-211.1,279.7-211.7,272.9z"/>
		<ellipse id="XMLID_5860_" class="st023" cx="-199.9" cy="228.4" rx="7.8" ry="3.6"/>
		<path id="XMLID_5859_" class="st019" d="M-197.7,217.8h-6.3v9.6c0.7,2.1,5.9,1.6,6.3,0V217.8z"/>
		<g id="XMLID_5857_" class="st021">
			<path id="XMLID_5858_" class="st011" d="M-199,238.4c7.4-0.6,13.4-3.9,14.9-7.9c-0.5-0.7-1.1-1.4-1.8-2c-3.3-2.2-7-3.2-10.6-3.4
				c-0.4-0.1-0.8-0.2-1.2-0.2v-4.2c-0.9,0-1.8,0-2.7,0.1c-1.2,0.1-2.4,0.3-3.6,0.5v4c-1.2,0.3-2.2,0.8-2.8,1.4
				c-3.5,1.3-6.5,3.2-8.6,5.3C-214,236.3-207.1,239.1-199,238.4z"/>
		</g>
		<path id="XMLID_5856_" class="st019" d="M-187.7,209.3c0-7.7-5.4-13.9-12.2-13.9c-6.7,0-12.2,6.2-12.2,13.9s5.5,13.9,12.2,13.9
			S-185.6,225-187.7,209.3z"/>
		<path id="XMLID_5855_" class="st019" d="M-187.7,206.6c0-6.2-4.3-11.2-9.7-11.2c-5.3,0-9.7,5-9.7,11.2s6.7,9.1,15.5,6.3
			C-186.2,214.4-187.7,212.9-187.7,206.6z"/>
		<path id="XMLID_5854_" class="st018" d="M-205.2,207.4c0-4.1,0.7-9.6-1.9-9.6s-8.3,1.8-7.6,13.4c0,4.1,3.3,8.7,5.9,8.7
			C-209.8,216.3-205.2,211.5-205.2,207.4z"/>
		
			<ellipse id="XMLID_5853_" transform="matrix(-0.1601 -0.9871 0.9871 -0.1601 -449.4821 38.1008)" class="st019" cx="-208.5" cy="210.3" rx="3" ry="2.5"/>
		
			<ellipse id="XMLID_5852_" transform="matrix(-0.1601 -0.9871 0.9871 -0.1601 -449.2668 38.3137)" class="st011" cx="-208.3" cy="210.3" rx="2.1" ry="1.8"/>
		<polygon id="XMLID_5851_" class="st018" points="-201.1,200.3 -207.8,202.7 -206.5,212.4 -203.8,212.6 		"/>
		<path id="XMLID_5850_" class="st018" d="M-190.6,197.3c0-1.3-4.9-3.3-8.5-3.3s-5.9,1-5.9,2.3s3.4,1.5,7,1.5
			S-190.6,198.6-190.6,197.3z"/>
		<path id="XMLID_5849_" class="st018" d="M-200.8,200.6c0-2.3-2.3-4.2-4.7-4.2s-4.4,1.9-4.4,4.2s3.6,11.9,6,11.9
			C-201.1,207.4-200.8,202.9-200.8,200.6z"/>
		<path id="XMLID_5848_" class="st018" d="M-191.8,197.8c0,0,1.9,1.1,2.7-1.1c0,0-1.5,1.6-2.1,0.2
			C-191.7,195.9-191.8,197.8-191.8,197.8z"/>
		<path id="XMLID_5847_" class="st018" d="M-191.8,197.7c0,0,2.2,0.2,2-2.1c0,0-0.7,2.1-1.9,1C-192.5,195.9-191.8,197.7-191.8,197.7z
			"/>
		<path id="XMLID_5846_" class="st018" d="M-195.2,196.8c0,0-2.1-0.2-2.4,2.5c0,0,0.9-1.8,3.6-1.3L-195.2,196.8z"/>
		<path id="XMLID_5845_" class="st018" d="M-206.1,209.2c0,0-1-1.8-3.4-0.6c0,0,1.9-0.3,3.1,2.3L-206.1,209.2z"/>
		<path id="XMLID_5844_" class="st018" d="M-210.4,218.1c0,0,1.3,1.6-0.8,3.4c0,0,1-1.7-0.9-3.8L-210.4,218.1z"/>
		<path id="XMLID_5843_" class="st018" d="M-194.9,195.1c-5-3.1-12.9-0.5-14.6,3.5c0.5,1,2.5,0.2,4.9-1
			C-202.2,196.3-194.4,196-194.9,195.1z"/>
		<ellipse id="XMLID_5842_" class="st017" cx="-196.9" cy="207.3" rx="1" ry="2.5"/>
		<ellipse id="XMLID_5841_" class="st017" cx="-189.5" cy="207.1" rx="0.8" ry="2.5"/>
		<path id="XMLID_5838_" class="st018" d="M-195.4,201.9l-2.8,0.4c-0.4,0.1-0.7,0.2-0.9,0.5s-0.3,0.6-0.3,1l0.1,0.5l4.2-0.6
			L-195.4,201.9z"/>
		<path id="XMLID_5835_" class="st018" d="M-187.4,203c0.1-0.5-0.3-0.9-0.7-1l-2.5-0.3l-0.2,1.9l3.3,0.4L-187.4,203z"/>
		<path id="XMLID_5834_" class="st018" d="M-187.6,209.8c0,0,0.3,5.4-4,4.3c0,0-7,2.9-12.4-5c0,0-7.1,7.8-4.8,10.7
			c2.4,2.9,6.2,5,11.2,4.2S-181.1,227.9-187.6,209.8z"/>
		<path id="XMLID_5831_" class="st024" d="M-198.8,215.1c-0.7,0.5-1.2,1.2-1.5,2s-0.3,1.7,0.2,2.4s1.2,1.2,2.1,1.3
			c3.3,0.3,8.2-0.7,8.8-3C-188.2,213.7-193.5,217.8-198.8,215.1z"/>
		<path id="XMLID_5830_" class="st014" d="M-190.8,216.3c-2.5,0.6-5.4,0.3-7.8-0.3l-0.4,1.3c2.6,1,4.6,1,7.5,0.4L-190.8,216.3z"/>
		<polygon id="XMLID_5829_" class="st025" points="-158.5,223.3 -166.2,221.1 -167.3,225.1 -159.7,227.3 		"/>
		<path id="XMLID_5828_" class="st026" d="M-202.2,202c0-1.7-2.1-3-4.7-3s-5.6,1.8-5.6,3.5s3,0,5.6,0S-202.2,203.6-202.2,202z"/>
		<polygon id="XMLID_5827_" class="st027" points="-161.2,207.8 -168.1,204.5 -173,205.1 -174.5,216.6 -164,219 -161.9,218.6 		"/>
		<g id="XMLID_5825_">
			<polygon id="XMLID_5826_" class="st011" points="-174,212.9 -174.5,216.6 -164,219 -161.9,218.6 -162.1,216 -169.6,212.2 			"/>
		</g>
		<g id="XMLID_5823_">
			<polygon id="XMLID_5824_" class="st015" points="-161.9,218.6 -161.2,207.8 -168.1,204.5 -168.4,204.6 -169.8,215.4 			"/>
		</g>
		<path id="XMLID_5822_" class="st027" d="M-161.6,208.2c-0.5,0-2.1,0.2-2.6,0.2c-0.9,0-1.7,1.2-1.7,3.2s0.7,3.1,1.7,3.1
			c0.5,0,2.1,0.8,2.6,0.8c0.9,0,1.7-1.6,1.7-3.7C-159.9,209.9-160.6,208.2-161.6,208.2z"/>
		<path id="XMLID_5821_" class="st011" d="M-165.8,211.7c0,2,0.7,3.1,1.7,3.1c0.5,0,2.1,0.8,2.6,0.8c0.9,0,1.7-1.6,1.7-3.7
			C-159.9,209.9-165.8,209.7-165.8,211.7z"/>
		<ellipse id="XMLID_5820_" class="st028" cx="-161.3" cy="211.8" rx="0.8" ry="2.7"/>
		
			<rect id="XMLID_5819_" x="-163.3" y="210" transform="matrix(-0.9947 -0.1027 0.1027 -0.9947 -346.6901 404.0242)" class="st015" width="0.8" height="1.9"/>
		
			<rect id="XMLID_5818_" x="-164.3" y="210.3" transform="matrix(-0.9947 -0.1027 0.1027 -0.9947 -348.6769 403.6367)" class="st015" width="0.8" height="1"/>
		<polygon id="XMLID_5817_" class="st015" points="-164.7,209.5 -165.2,209.4 -165.5,212.1 -165,212.2 		"/>
		<path id="XMLID_5816_" class="st019" d="M-160.9,219.7c0.2-0.5-1.7-2-3.1-2.6c-1.3-0.6-3.2,0-3.4,0.6c-0.2,0.5,2.4,1.4,3.7,2
			C-162.4,220.2-161.1,220.3-160.9,219.7z"/>
		<path id="XMLID_5815_" class="st022" d="M-166.6,206.4c-0.6-0.2-1.1-0.1-1.2,0.2c-0.1,0.3,0.3,0.7,0.9,0.9c0.6,0.2,1.1,0.1,1.2-0.2
			C-165.7,206.9-166,206.5-166.6,206.4z"/>
		<path id="XMLID_5814_" class="st027" d="M-162.1,231.6c-0.5,9.8-2.6,17.1-5.2,17.1c-2.9,0-5.3-9.8-5.3-21.8
			c0-5.6,0.5-10.7,1.4-14.6c-1.2,4-1.9,9.7-1.9,16c0,12,2.6,21.8,5.8,21.8c2.9,0,5.4-9.1,5.8-19.6L-162.1,231.6z"/>
		<path id="XMLID_5813_" class="st018" d="M-209.8,195.1c0,0,2.3,0.6,0.3,3.5C-209.5,198.6-205.5,195.5-209.8,195.1z"/>
		<path id="XMLID_5812_" class="st011" d="M-191,212c-0.2,0.5-0.8,0.8-1.5,0.7c0,0.1,0.5,0.5,0.8,0.6c0.9,0.3,1.5-0.3,1.7-0.9
			s-0.4-1.3-1.2-1.6c-0.1,0-0.2,0-0.3,0C-191.1,211-190.9,211.5-191,212z"/>
	</g>
	<g id="XMLID_5755_">
		<path id="XMLID_5810_" class="st029" d="M-259.8,270.7c0,0-12.5-2.2-15.3-4.4c-2.8-2.3-29.6-29-31.4-28.9c-1.8,0.2-9,0.8-9,0.8
			l16,36.7L-259.8,270.7z"/>
		<path id="XMLID_5809_" class="st018" d="M-261,270.8c0,0-13.4-2.1-16.2-4.4c-2.8-2.3-29.6-29-31.4-28.9c-1.8,0.2-8.1,0.7-8.1,0.7
			l16,36.7L-261,270.8z"/>
		<path id="XMLID_5808_" class="st030" d="M-300.7,273.8c3.1-0.3,34.9-3,40-3.5c3.1-0.3,5.4,4.1,10.7,3.6c4.6-0.4,44.6-3.9,70.6-6.2
			c4.5-0.4,16.7-7.2,24.8-7.9c19.3-1.7,29.5,5.7,36.6,9.9c4.4,2.6,6.8,5,8.1,7.2c2.8,4.6,3,12.5,3.1,14.8c0.1,4.5-30.2,11-40.8,13
			c-28,5.1-73.3,14.4-105.3,11c-22.3-2.4-59.4-37-55.7-34.4c-1.7-1.2-1.6-2.7-0.3-3.5C-307.6,277-303.8,274.1-300.7,273.8z"/>
		<path id="XMLID_5807_" class="st031" d="M-260.5,273.3c3.1-0.3,5.4,4.1,10.7,3.6c4.6-0.4,44.6-3.9,70.6-6.2
			c4.5-0.4,16.5-4.8,24.6-5.5c19.3-1.7,29.3,3.4,36.5,7.6c4.4,2.6,8.9,7.2,10.2,9.4v0.1c0.9,3.9,1,7.9,1.1,9.4
			c0.1,4.5-30.2,11-40.8,13c-28,5.1-73.3,14.4-105.3,11c-9.2-1-23.4-9.5-33.7-16.2c-13.1-8.6-21.1-17.5-22-18.2
			c-1-0.7-1.4-1.6-1.2-2.3c2.9-1,7.2-2.1,9.4-2.3C-297.3,276.5-265.6,273.7-260.5,273.3z"/>
		<path id="XMLID_5806_" class="st018" d="M-107.9,282.3c0.4,1.6,0.6,3.2,0.8,4.7c0.2,2.1,0.3,3.9,0.3,4.8c0,0.1,0,0.3,0,0.4l0,0v0.1
			c-0.2,0.5-0.5,1-1,1.5c-4.1,4.2-30.7,9.2-39.7,10.9c-28,5.1-73.3,14.4-105.3,11c-9.2-1-20.3-6.8-33.7-16.2c25.5,0.1,64.6-4,87.3-6
			C-158.2,289.9-137.9,287.3-107.9,282.3z"/>
		<path id="XMLID_5805_" class="st011" d="M-162.5,293.1c0,0,2.6,7.8,2.1,8.4s-12.9,7.9-19.8,9.2c-6.9,1.3-42.6,5.1-44.6,1.5
			C-226.7,308.5-164.8,292.8-162.5,293.1z"/>
		<g id="XMLID_5791_" class="st021">
			<path id="XMLID_5792_" class="st08" d="M-216.9,278.8l-4.7,0.4c-0.6,0.1-1.1,0.6-1,1.2l0.5,5.5c0.1,0.6,0.6,1.1,1.2,1l4.7-0.4
				c0.6-0.1,1.1-0.6,1-1.2l-0.5-5.5C-215.8,279.2-216.3,278.7-216.9,278.8z M-205.8,277.8l-4.7,0.4c-0.6,0.1-1.1,0.6-1,1.2l0.5,5.5
				c0.1,0.6,0.6,1.1,1.2,1l4.7-0.4c0.6-0.1,1.1-0.6,1-1.2l-0.5-5.5C-204.6,278.2-205.2,277.7-205.8,277.8z M-194.6,276.8l-4.7,0.4
				c-0.6,0.1-1.1,0.6-1,1.2l0.5,5.5c0.1,0.6,0.6,1.1,1.2,1l4.7-0.4c0.6-0.1,1.1-0.6,1-1.2l-0.5-5.5
				C-193.4,277.2-194,276.8-194.6,276.8z M-239.3,280.7l-4.7,0.4c-0.6,0.1-1.1,0.6-1,1.2l0.5,5.5c0.1,0.6,0.6,1.1,1.2,1l4.7-0.4
				c0.6-0.1,1.1-0.6,1-1.2l-0.5-5.5C-238.1,281.1-238.6,280.7-239.3,280.7z M-228.1,279.7l-4.7,0.4c-0.6,0.1-1.1,0.6-1,1.2l0.5,5.5
				c0.1,0.6,0.6,1.1,1.2,1l4.7-0.4c0.6-0.1,1.1-0.6,1-1.2l-0.5-5.5C-226.9,280.1-227.5,279.7-228.1,279.7z M-250.4,281.7l-4.7,0.4
				c-0.6,0.1-1.1,0.6-1,1.2l0.5,5.5c0.1,0.6,0.6,1.1,1.2,1l4.7-0.4c0.6-0.1,1.1-0.6,1-1.2l-0.5-5.5
				C-249.3,282.1-249.8,281.6-250.4,281.7z M-138.8,271.9l-4.7,0.4c-0.6,0.1-1.1,0.6-1,1.2l0.5,5.5c0.1,0.6,0.6,1.1,1.2,1l4.7-0.4
				c0.6-0.1,1.1-0.6,1-1.2l-0.5-5.5C-137.6,272.4-138.2,271.9-138.8,271.9z M-150,272.9l-4.7,0.4c-0.6,0.1-1.1,0.6-1,1.2l0.5,5.5
				c0.1,0.6,0.6,1.1,1.2,1l4.7-0.4c0.6-0.1,1.1-0.6,1-1.2l-0.5-5.5C-148.8,273.3-149.3,272.9-150,272.9z M-118.8,270.5l-8,0.7
				l-5.5,0.5c-0.6,0.1-1.1,0.6-1,1.2l0.5,5.5c0.1,0.6,0.6,1.1,1.2,1l16.3-1.4l5-0.4C-111.7,275.3-114.4,272.9-118.8,270.5z
				 M-172.3,274.9l-4.7,0.4c-0.6,0.1-1.1,0.6-1,1.2l0.5,5.5c0.1,0.6,0.6,1.1,1.2,1l4.7-0.4c0.6-0.1,1.1-0.6,1-1.2l-0.5-5.5
				C-171.1,275.3-171.7,274.8-172.3,274.9z M-161.1,273.9l-4.7,0.4c-0.6,0.1-1.1,0.6-1,1.2l0.5,5.5c0.1,0.6,0.6,1.1,1.2,1l4.7-0.4
				c0.6-0.1,1.1-0.6,1-1.2l-0.5-5.5C-159.9,274.3-160.5,273.8-161.1,273.9z M-183.5,275.8l-4.7,0.4c-0.6,0.1-1.1,0.6-1,1.2l0.5,5.5
				c0.1,0.6,0.6,1.1,1.2,1l4.7-0.4c0.6-0.1,1.1-0.6,1-1.2l-0.5-5.5C-182.3,276.2-182.8,275.8-183.5,275.8z"/>
		</g>
		<g id="XMLID_5776_">
			<g id="XMLID_5777_">
				<path id="XMLID_5778_" class="st032" d="M-138.3,271.4l-4.7,0.4c-0.6,0.1-1.1,0.6-1,1.2l0.5,5.5c0.1,0.6,0.6,1.1,1.2,1l4.7-0.4
					c0.6-0.1,1.1-0.6,1-1.2l-0.5-5.5C-137.1,271.8-137.7,271.3-138.3,271.4z M-118,269.8l-13.8,1.4c-0.6,0.1-1.1,0.6-1,1.2l0.5,5.5
					c0.1,0.6,0.6,1.1,1.2,1l21.3-1.9C-111.2,274.7-114.4,271.9-118,269.8z M-149.5,272.3l-4.7,0.4c-0.6,0.1-1.1,0.6-1,1.2l0.5,5.5
					c0.1,0.6,0.6,1.1,1.2,1l4.7-0.4c0.6-0.1,1.1-0.6,1-1.2l-0.5-5.5C-148.3,272.7-148.8,272.3-149.5,272.3z M-160.6,273.3l-4.7,0.4
					c-0.6,0.1-1.1,0.6-1,1.2l0.5,5.5c0.1,0.6,0.6,1.1,1.2,1l4.7-0.4c0.6-0.1,1.1-0.6,1-1.2l-0.5-5.5
					C-159.5,273.7-160,273.3-160.6,273.3z M-171.8,274.3l-4.7,0.4c-0.6,0.1-1.1,0.6-1,1.2l0.5,5.5c0.1,0.6,0.6,1.1,1.2,1l4.7-0.4
					c0.6-0.1,1.1-0.6,1-1.2l-0.5-5.5C-170.6,274.7-171.2,274.2-171.8,274.3z M-183,275.3l-4.7,0.4c-0.6,0.1-1.1,0.6-1,1.2l0.5,5.5
					c0.1,0.6,0.6,1.1,1.2,1l4.7-0.4c0.6-0.1,1.1-0.6,1-1.2l-0.5-5.5C-181.8,275.7-182.3,275.2-183,275.3z M-194.1,276.2l-4.7,0.4
					c-0.6,0.1-1.1,0.6-1,1.2l0.5,5.5c0.1,0.6,0.6,1.1,1.2,1l4.7-0.4c0.6-0.1,1.1-0.6,1-1.2l-0.5-5.5
					C-193,276.6-193.5,276.2-194.1,276.2z M-205.3,277.2l-4.7,0.4c-0.6,0.1-1.1,0.6-1,1.2l0.5,5.5c0.1,0.6,0.6,1.1,1.2,1l4.7-0.4
					c0.6-0.1,1.1-0.6,1-1.2l-0.5-5.5C-204.1,277.6-204.7,277.2-205.3,277.2z M-216.5,278.2l-4.7,0.4c-0.6,0.1-1.1,0.6-1,1.2l0.5,5.5
					c0.1,0.6,0.6,1.1,1.2,1l4.7-0.4c0.6-0.1,1.1-0.6,1-1.2l-0.5-5.5C-215.3,278.6-215.8,278.1-216.5,278.2z M-227.6,279.2l-4.7,0.4
					c-0.6,0.1-1.1,0.6-1,1.2l0.5,5.5c0.1,0.6,0.6,1.1,1.2,1l4.7-0.4c0.6-0.1,1.1-0.6,1-1.2l-0.5-5.5
					C-226.4,279.6-227,279.1-227.6,279.2z M-238.8,280.1l-4.7,0.4c-0.6,0.1-1.1,0.6-1,1.2l0.5,5.5c0.1,0.6,0.6,1.1,1.2,1l4.7-0.4
					c0.6-0.1,1.1-0.6,1-1.2l-0.5-5.5C-237.6,280.5-238.2,280.1-238.8,280.1z M-250,281.1l-4.7,0.4c-0.6,0.1-1.1,0.6-1,1.2l0.5,5.5
					c0.1,0.6,0.6,1.1,1.2,1l4.7-0.4c0.6-0.1,1.1-0.6,1-1.2l-0.5-5.5C-248.8,281.5-249.3,281.1-250,281.1z"/>
			</g>
		</g>
		<path id="XMLID_5775_" class="st033" d="M-126.6,270.6c4.3,1.3,8.3,3.6,11.6,6.8l5.1-0.4c-1.3-2.2-4.5-5.1-8.1-7.2L-126.6,270.6z"
			/>
		<g id="XMLID_5769_">
			
				<linearGradient id="XMLID_11_" gradientUnits="userSpaceOnUse" x1="-3903.1577" y1="39.699" x2="-3904.4307" y2="54.2423" gradientTransform="matrix(-0.9962 8.720000e-02 -8.720000e-02 -0.9962 -4078.7043 698.4162)">
				<stop  offset="5.589980e-03" style="st0op-color:#FAFCFF"/>
				<stop  offset="0.253" style="st0op-color:#EEEEF2"/>
				<stop  offset="0.6947" style="st0op-color:#DCDBE0"/>
				<stop  offset="1" style="st0op-color:#D6D4D9"/>
			</linearGradient>
			<path id="XMLID_5774_" class="st034" d="M-194.9,305.2c5-0.4,14.1-1.2,14.1-1.2l0.6,6.7l0.6,6.7c0,0-9.2,0.8-14.1,1.2
				c-5,0.4-14-1.8-14.3-5.5C-208.3,309.3-199.8,305.6-194.9,305.2z"/>
			<path id="XMLID_5773_" class="st018" d="M-180.1,310.6l0.6,6.7c0,0-3.1,0.3-6.8,0.6c-0.8-2-1.4-4.2-1.6-6.6
				c-0.2-2.3-0.3-4.7,0.4-6.7c3.6-0.3,6.8-0.6,6.8-0.6L-180.1,310.6z"/>
			<path id="XMLID_5772_" class="st011" d="M-208,313c-0.3-3.7,8.1-7.4,13.1-7.9c5-0.4,14.1-1.2,14.1-1.2l0.6,6.7L-208,313z"/>
			
				<linearGradient id="XMLID_12_" gradientUnits="userSpaceOnUse" x1="-3917.3967" y1="39.739" x2="-3917.3967" y2="53.0933" gradientTransform="matrix(-0.9962 8.720000e-02 -8.720000e-02 -0.9962 -4078.7043 698.4162)">
				<stop  offset="0.1675" style="st0op-color:#F6F4F0"/>
				<stop  offset="0.5159" style="st0op-color:#EFEDEC"/>
				<stop  offset="1" style="st0op-color:#DDDCE0"/>
			</linearGradient>
			<path id="XMLID_5771_" class="st035" d="M-178.8,310.5c0.3,3.7,0,6.7-0.8,6.8c-0.8,0.1-1.6-2.9-2-6.5c-0.3-3.7,0-6.7,0.8-6.8
				C-180,303.9-179.1,306.8-178.8,310.5z"/>
			
				<ellipse id="XMLID_5770_" transform="matrix(-8.687691e-02 -0.9962 0.9962 -8.687691e-02 -504.9746 158.3033)" class="st036" cx="-179.9" cy="310.6" rx="5.2" ry="1"/>
		</g>
		<g id="XMLID_5763_">
			
				<linearGradient id="XMLID_28_" gradientUnits="userSpaceOnUse" x1="-3882.6868" y1="36.3394" x2="-3883.9597" y2="50.8827" gradientTransform="matrix(-0.9962 8.720000e-02 -8.720000e-02 -0.9962 -4078.7043 698.4162)">
				<stop  offset="5.589980e-03" style="st0op-color:#FAFCFF"/>
				<stop  offset="0.253" style="st0op-color:#EEEEF2"/>
				<stop  offset="0.6947" style="st0op-color:#DCDBE0"/>
				<stop  offset="1" style="st0op-color:#D6D4D9"/>
			</linearGradient>
			<path id="XMLID_5768_" class="st037" d="M-215,310.3c5-0.4,14.1-1.2,14.1-1.2l0.6,6.7l0.6,6.7c0,0-9.2,0.8-14.1,1.2
				c-5,0.4-14-1.8-14.3-5.5C-228.4,314.5-220,310.7-215,310.3z"/>
			<path id="XMLID_5767_" class="st018" d="M-200.3,315.7l0.6,6.7c0,0-3.1,0.3-6.8,0.6c-0.8-2-1.4-4.2-1.6-6.6
				c-0.2-2.3-0.3-4.7,0.4-6.7c3.6-0.3,6.8-0.6,6.8-0.6L-200.3,315.7z"/>
			<path id="XMLID_5766_" class="st011" d="M-228.1,318.1c-0.3-3.7,8.1-7.4,13.1-7.9c5-0.4,14.1-1.2,14.1-1.2l0.6,6.7L-228.1,318.1z"
				/>
			
				<linearGradient id="XMLID_29_" gradientUnits="userSpaceOnUse" x1="-3896.929" y1="36.3817" x2="-3896.929" y2="49.7359" gradientTransform="matrix(-0.9962 8.720000e-02 -8.720000e-02 -0.9962 -4078.7043 698.4162)">
				<stop  offset="0.1675" style="st0op-color:#F6F4F0"/>
				<stop  offset="0.5159" style="st0op-color:#EFEDEC"/>
				<stop  offset="1" style="st0op-color:#DDDCE0"/>
			</linearGradient>
			<path id="XMLID_5765_" class="st038" d="M-198.9,315.6c0.3,3.7,0,6.7-0.8,6.8c-0.8,0.1-1.6-2.9-2-6.5c-0.3-3.7,0-6.7,0.8-6.8
				S-199.2,311.9-198.9,315.6z"/>
			
				<ellipse id="XMLID_5764_" transform="matrix(-8.708653e-02 -0.9962 0.9962 -8.708653e-02 -531.9394 143.8966)" class="st036" cx="-200" cy="315.7" rx="5.2" ry="1"/>
		</g>
		<path id="XMLID_5762_" class="st018" d="M-161.9,299.8c0.2,1.7-98.7,25.9-109.6,26.9c-6.9,0.6-29.6,1.6-29.6,1.6l-0.4-5
			c0,0,61.3-18.9,66.6-19.4c15.1-1.3,72.4-10.9,72.4-10.9S-162,298.1-161.9,299.8z"/>
		<path id="XMLID_5761_" class="st011" d="M-301.5,323.3l0.4,5c0,0,22.8-1,29.6-1.6c-0.8-0.6-1.7-6.4-0.2-6.9
			C-272.6,315.9-301.5,323.3-301.5,323.3z"/>
		
			<linearGradient id="XMLID_30_" gradientUnits="userSpaceOnUse" x1="-3796.7681" y1="59.3265" x2="-3935.239" y2="47.2118" gradientTransform="matrix(-0.9962 8.720000e-02 -8.720000e-02 -0.9962 -4078.7043 698.4162)">
			<stop  offset="3.923610e-03" style="st0op-color:#FFFFFF"/>
			<stop  offset="0.4836" style="st0op-color:#FDFDFD"/>
			<stop  offset="0.7149" style="st0op-color:#F6F5F6"/>
			<stop  offset="0.8925" style="st0op-color:#E9E8EB"/>
			<stop  offset="1" style="st0op-color:#DDDCE0"/>
		</linearGradient>
		<path id="XMLID_5760_" class="st039" d="M-162.5,293.1c0,0-98.6,26.8-109.5,27.7c-6.9,0.6-29.5,2.6-29.5,2.6s51.9-20.2,66.4-23
			C-213.1,296.2-162.5,293.1-162.5,293.1z"/>
		<path id="XMLID_5759_" class="st011" d="M-281.5,277.3c0,0,2.3,0.4,2.5,2c0.1,0.8-15.4,4.5-18,12.6c-2.3-1.7-6.7-5.5-8.5-7.4
			C-307.2,282.9-281.5,277.3-281.5,277.3z"/>
		<path id="XMLID_5758_" class="st018" d="M-279,279.3c0,0-37.3,9.5-41.4,9.8c-2.6,0.2-11.2,0.7-11.2,0.7l-0.2-1.8
			c0,0,23.2-6.9,25.2-7c5.7-0.5,27.4-4.1,27.4-4.1L-279,279.3z"/>
		<path id="XMLID_5757_" class="st011" d="M-331.8,288l0.2,1.8c0,0,8.6-0.4,11.2-0.7c-0.4-0.5-0.4-1.6-0.4-2.9
			C-327.2,286.6-331.8,288-331.8,288z"/>
		
			<linearGradient id="XMLID_31_" gradientUnits="userSpaceOnUse" x1="-3768.8296" y1="87.6222" x2="-3821.2295" y2="83.0377" gradientTransform="matrix(-0.9962 8.720000e-02 -8.720000e-02 -0.9962 -4078.7043 698.4162)">
			<stop  offset="3.923610e-03" style="st0op-color:#FFFFFF"/>
			<stop  offset="0.4836" style="st0op-color:#FDFDFD"/>
			<stop  offset="0.7149" style="st0op-color:#F6F5F6"/>
			<stop  offset="0.8925" style="st0op-color:#E9E8EB"/>
			<stop  offset="1" style="st0op-color:#DDDCE0"/>
		</linearGradient>
		<path id="XMLID_5756_" class="st040" d="M-279.2,276.9c0,0-37.3,9.8-41.4,10.2c-2.6,0.2-11.2,1-11.2,1s22.5-8.2,25-8.8
			C-297.3,277.4-279.2,276.9-279.2,276.9z"/>
	</g>
	<g id="XMLID_5741_">
		<ellipse id="XMLID_5754_" class="st019" cx="-221.4" cy="297.5" rx="2.5" ry="2.7"/>
		<ellipse id="XMLID_5753_" class="st011" cx="-221.4" cy="297.5" rx="2.5" ry="2.7"/>
		<path id="XMLID_5752_" class="st019" d="M-220.4,295.3c-1.2-2-2.1-5.6-3.6-5.3c-1.5,0.3-1.9,4.5-1.5,6.5s2,3.4,3.5,3.1
			C-220.4,299.3-219.3,297.1-220.4,295.3z"/>
		<path id="XMLID_5749_" class="st020" d="M-212.4,247.3c2.2-2.7,3-6.3,2.3-9.7c-1.2-5.5-4.4-6.2-5.8-4.8
			c-8.2,12.4-10.6,26.3-10,57.3l4.8,1.1C-221.2,268-218,254.3-212.4,247.3z"/>
		<path id="XMLID_5748_" class="st011" d="M-213.3,233.9c0.3-0.3,0.7-0.5,1.1-0.6c-1.4-1.4-3-1.4-3.8-0.5
			c-8.2,12.4-10.6,26.3-10,57.3l2.7,0.6C-223.8,260.1-221.4,246.2-213.3,233.9z"/>
		<path id="XMLID_5745_" class="st020" d="M-212.4,247.3c2.2-2.7,3-6.3,2.3-9.7c-1.2-5.5-4.4-6.2-5.8-4.8
			c-8.2,12.4-10.6,26.3-10,57.3l4.8,1.1C-221.2,268-218,254.3-212.4,247.3z"/>
		<path id="XMLID_5744_" class="st011" d="M-217.3,234.9c-7.2,11.9-9.2,25.9-8.7,55.3l2.7,0.6C-224,251.7-218.3,242.1-217.3,234.9z"
			/>
		
			<rect id="XMLID_5743_" x="-226.5" y="288.7" transform="matrix(-0.9993 -3.756643e-02 3.756643e-02 -0.9993 -457.8143 571.8717)" class="st025" width="6" height="3.1"/>
		<path id="XMLID_5742_" class="st019" d="M-219.3,294.6c-1.1-0.9-2.3-1.3-2.6-0.9s0.4,1.4,1.5,2.2c1.1,0.9,1.7,1.7,2,1.3
			C-218,296.8-218.1,295.4-219.3,294.6z"/>
	</g>
</g>
</svg>
