<?xml version="1.0" encoding="utf-8"?>
<!-- Generator: Adobe Illustrator 19.0.0, SVG Export Plug-In . SVG Version: 6.00 Build 0)  -->
<svg version="1.1" id="Layer_1" xmlns="http://www.w3.org/2000/svg" xmlns:xlink="http://www.w3.org/1999/xlink" x="0px" y="0px"
	 width="183px" height="110px" viewBox="-325 -172.5 183 110" style="enable-background:new -325 -172.5 183 110;"
	 xml:space="preserve">
<style type="text/css">
	.st0{fill:#477DB2;}
	.st1{fill:#FFC522;}
	.st2{opacity:0.1;}
	.st3{fill:#FFC48F;}
	.st4{fill:#6B401C;}
	.st5{fill:#F7EEF2;}
	.st6{opacity:0.5;fill:#FFEEA9;}
	.st7{fill:#BA6E3A;}
	.st8{fill:#544030;}
	.st9{fill:#484C54;}
	.st10{fill:#BF9E7D;}
	.st11{fill:#7DB7E2;}
	.st12{opacity:0.5;}
	.st13{fill:#FFEEA9;}
	.st14{fill:#38718E;}
	.st15{opacity:0.3;}
	.st16{fill:#3F8AAF;}
	.st17{opacity:0.1;fill:#FFFFFF;}
	.st18{fill:#8E5C5A;}
	.st19{fill:#3D210D;}
	.st20{fill:#6D7076;}
	.st21{fill:#FAFAFA;}
	.st22{fill:#E1E0E4;}
	.st23{fill:#FFFFFF;}
	.st24{fill:#66ACB5;}
	.st25{opacity:0.2;fill:#FFFFFF;}
	.st26{fill:url(#XMLID_2_);}
	.st27{fill:url(#XMLID_3_);}
	.st28{fill:#9EA5B5;}
	.st29{fill:url(#XMLID_4_);}
	.st30{fill:url(#XMLID_5_);}
	.st31{fill:url(#XMLID_6_);}
	.st32{fill:url(#XMLID_7_);}
</style>
<g id="XMLID_4475_">
	<g id="XMLID_5460_">
		<path id="XMLID_5526_" class="st0" d="M-234.5-79.4h5.7c1.1-8.4,1.6-13.1-1.2-24.3l-8.2,10.8C-236.7-92.6-235.2-90.3-234.5-79.4z"
			/>
		<path id="XMLID_5525_" class="st0" d="M-244.3-79.4c0.2-7.9,0.9-12.5,2.9-13.6l-7.2-11c-2.6,9.3-2.7,16.5-1.9,24.6H-244.3z"/>
		<path id="XMLID_5524_" class="st1" d="M-229.3-125.2c1.1,2.9,10.7,2.5,16.9-0.3c1.8,3.2,1.5,11.5-0.8,10.3
			c-7.9,0.3-22.6-2.5-22.6-7.1C-235.7-126.3-230.3-127.8-229.3-125.2z"/>
		<g id="XMLID_5522_">
			<path id="XMLID_5523_" class="st2" d="M-231.5-124.7c-0.3,3.3,7.7,4.3,13.9,4.2c-1.2,1.9-0.9,3.4-0.3,4.1
				c0.8-0.2,1.6-0.7,2.4-1.5c-1.3,1.3-2.7,2-3.6,1.4c-8.8,0.4-17.2-1.5-16.5-7.4C-235.2-127.9-231.3-127.1-231.5-124.7z"/>
		</g>
		<path id="XMLID_5521_" class="st2" d="M-214.3-120.6c0.5-1.9,1.1-3.6,1.8-4.8c2.1,3.3,1.4,8.7-0.4,10.4
			C-213.9-115.3-215.2-116.9-214.3-120.6z"/>
		<path id="XMLID_5520_" class="st3" d="M-208.8-126.8c1-2.1,3.1-3,4.3-2c1.1,1,0.8,3.3-0.7,5c-1.5,1.7-5.6,0.9-6.8-0.1
			C-213.1-125-209.7-124.7-208.8-126.8z"/>
		<path id="XMLID_5519_" class="st3" d="M-212.4-124.9c1.3-0.4,3.3-0.7,3.4-0.2c0.1,0.5,0.2,1.4-1.1,1.8c-1.3,0.4-4.3,0.4-4.4,0
			C-214.6-123.8-213.7-124.5-212.4-124.9z"/>
		<g id="XMLID_5499_">
			<path id="XMLID_5518_" class="st1" d="M-250.2-135.4c-7.8,18.2-11.4,19.6-17.1,7.8c-3.3,3.3-3.2,10.6-0.7,11.2
				c10.8,10.1,11.8,3.4,21.1-15.6L-250.2-135.4z"/>
			<g id="XMLID_5516_">
				<path id="XMLID_5517_" class="st2" d="M-250.2-135.4c-1,2.3,0.5,5.8-0.4,7.6c-5.2,12.2-8,14.5-16,7.4c-0.3,2.3-1.5,3.2-2.4,3.3
					c-0.5-0.6-0.7-1.6-0.8-2.7c0.1,1.8,0.8,3.2,1.8,3.5c10.8,10.1,11.8,3.4,21.1-15.6L-250.2-135.4z"/>
			</g>
			<path id="XMLID_5515_" class="st2" d="M-266.5-122.4c-0.1-2-0.5-3.8-0.9-5c-2.6,2.8-3,8.3-1.6,10.3
				C-267.9-117.3-266.3-118.6-266.5-122.4z"/>
			<path id="XMLID_5514_" class="st3" d="M-269.2-131c0.6-2.2-0.4-4.3-1.9-4.3c-1.5,0-2.8,1.9-2.7,4.2c0.1,2.3,3.7,4.4,5.2,4.3
				C-267.1-126.8-269.8-128.7-269.2-131z"/>
			<path id="XMLID_5513_" class="st3" d="M-267.7-127.2c-0.7-1.1-2.1-2.7-2.5-2.4c-0.4,0.3-1.1,1-0.3,2c0.7,1.1,3,3.1,3.4,2.8
				C-266.7-124.9-266.9-126.1-267.7-127.2z"/>
			<path id="XMLID_5510_" class="st4" d="M-270-137.4l-1.2-0.1l-0.9,9.9c0,0.1,0,0.2,0.1,0.3c0.1,0.1,0.2,0.1,0.3,0.1
				c0.4,0,0.8-0.3,0.8-0.7L-270-137.4z"/>
			<path id="XMLID_5507_" class="st4" d="M-267.1-146.6c0-1.3-0.9-2.4-2.2-2.5l-0.6-0.1c-0.9-0.1-1.7,0.4-1.9,1.3l-2.2,9.5
				c-0.1,0.5,0,1,0.3,1.4c0.3,0.4,0.7,0.7,1.2,0.7l3.4,0.3c0.5,0,0.9-0.1,1.3-0.4c0.3-0.3,0.5-0.8,0.6-1.2L-267.1-146.6z"/>
			<ellipse id="XMLID_5506_" class="st3" cx="-271.7" cy="-131.1" rx="1.6" ry="0.5"/>
			<ellipse id="XMLID_5505_" class="st3" cx="-271.6" cy="-132.8" rx="1.6" ry="0.5"/>
			
				<ellipse id="XMLID_5504_" transform="matrix(0.6908 -0.7231 0.7231 0.6908 13.0325 -238.2327)" class="st3" cx="-272" cy="-134.4" rx="1.6" ry="0.5"/>
			
				<ellipse id="XMLID_5503_" transform="matrix(0.3257 0.9455 -0.9455 0.3257 -308.5027 164.7607)" class="st3" cx="-269.8" cy="-133.9" rx="1.6" ry="0.5"/>
			<path id="XMLID_5502_" class="st5" d="M-267.4-147.1c-0.2-0.8-0.7-1.4-1.2-1.3c-0.5,0.1-0.4,0.8-0.3,1.6c0.2,0.8,0.3,1.4,0.9,1.3
				C-267.5-145.6-267.2-146.3-267.4-147.1z"/>
			<path id="XMLID_5501_" class="st6" d="M-270.9-140.4c0.3-2,0.7-5.2-0.1-5.3c-0.8-0.1-1.8,3.6-2.1,5.7c-0.3,2-0.3,2.9,0.4,3.1
				C-271.9-136.9-271.3-138.4-270.9-140.4z"/>
		</g>
		<path id="XMLID_5498_" class="st4" d="M-231.9-149.1c-0.6-6.7-5.8-13.9-11-13.9c-3.1,0.3-1,8.2-0.3,14.9c0.6,6.7,3.7,12,6.8,11.7
			C-233.3-136.7-231.3-142.4-231.9-149.1z"/>
		<path id="XMLID_5497_" class="st4" d="M-238-148.4c-0.6-6.7,4.2-17.1-10.5-14.1c-4.2,1.5-8.3,9.3-7.7,16.1
			c0.6,6.7,10.6,11.1,13.7,10.8C-239.4-136-237.4-141.7-238-148.4z"/>
		<path id="XMLID_5496_" class="st0" d="M-248.3-103.2l18.6,2.3l-6.4,9.2c-2.5-1.8-5.9-2.4-7.7,0.9L-248.3-103.2z"/>
		<g id="XMLID_5488_">
			<path id="XMLID_5495_" class="st2" d="M-250.1-98.5c0.4-1.8,0.8-3.6,1.5-5.5l0.5,0.7l15.1-0.1l2.1-1.5c0.8,2.8,1.5,4.6,1.9,6.6
				C-235.4-94.7-246.1-94.1-250.1-98.5z"/>
		</g>
		<path id="XMLID_5487_" class="st1" d="M-251.1-133.3c0.5-2.3,2.3-4.1,4.6-4.5c6.3-0.8,11.1-2.5,17.7,10.8c0.5,2.2-0.8,4.7-3.3,5.8
			c-2.7,13.8,0.6,10.5,2.7,20c0.5,2.4-22.4,6.1-21.8,0.7C-240.3-117.9-253.4-122.1-251.1-133.3z"/>
		<path id="XMLID_5486_" class="st7" d="M-238.3-131.5c-2.5-0.1-8.6-2.8-10.9-4.9c0.8-0.7,1.7-1.2,2.8-1.4c3.4-0.4,6.3-1.1,9.4,0.4
			C-235-135.8-235-133.1-238.3-131.5z"/>
		<path id="XMLID_5485_" class="st2" d="M-248.8-122.8c0,0,0-0.1,0-0.1c4.2,4.2,13.4,2.9,17,1.7c-0.7,1.1-0.7,3.1-0.9,4.5
			C-237.7-113.2-244.6-114.6-248.8-122.8z"/>
		<path id="XMLID_5483_" class="st3" d="M-238.6-132c-2.3-0.1-7.7-2.6-9.7-4.5c0.7-0.6,1.5-1.1,2.5-1.2c3-0.4,5.6-1,8.3,0.4
			C-235.7-135.9-235.7-133.4-238.6-132z"/>
		<rect id="XMLID_5482_" x="-245" y="-144.9" class="st3" width="4.1" height="8.2"/>
		<path id="XMLID_5481_" class="st2" d="M-250.6-134.7c0.8-1.6,2.3-2.8,4.1-3.1c0.5-0.1,1-0.1,1.4-0.2c-1-14.8,2.9-4.1,4.1-4.1
			c0.1,0,0,3.5,0,3.8c2.9,0.1,5.8,1.2,8.9,5.6c-1.8,0.9-4.1,1.5-6.6,1.7C-244.5-130.3-249.6-132-250.6-134.7z"/>
		<path id="XMLID_5480_" class="st3" d="M-251.9-148.3c-0.9-5.4,2.9-11.4,7.6-12.2c4.8-0.8,8.6,1,9.6,8.7c-1.8,6.2-3.2,9.3-6.2,9.7
			C-243-141.9-244.5-142.7-251.9-148.3z"/>
		<path id="XMLID_5479_" class="st4" d="M-256.4-146.3c-0.6-6.7,3.6-14.5,6.5-14.7c2.9-0.3,3.4,7.1,4.1,13.7
			c0.6,6.7-1.2,12.3-4.2,12.6C-252.9-134.4-255.8-139.6-256.4-146.3z"/>
		<path id="XMLID_5478_" class="st4" d="M-250.2-159c0-1.1,2.2-4,5.2-4s6.9,2.8,5.2,3.4c-1.9,1.2-6.6,1.1-7.5,7.4
			C-250.3-152.1-250.2-157.9-250.2-159z"/>
		<path id="XMLID_5477_" class="st3" d="M-238.7-151.2c0-1.8,0.8-2.2,2-2.2c1.2,0,2.5,1.7,2.5,3.5s-3,6.8-5.3,7.3
			C-240.7-142.7-238.7-149.5-238.7-151.2z"/>
		<path id="XMLID_5476_" class="st2" d="M-237.6-149.3c0-0.4-0.4-0.7-0.9-0.7c0.1-0.1,0.3-0.1,0.5-0.1c0.6,0,1.1,0.3,1.1,0.8
			s-0.5,0.8-1.1,0.8c-0.1,0-0.2,0-0.2,0C-237.9-148.8-237.6-149-237.6-149.3z"/>
		<path id="XMLID_5475_" class="st8" d="M-241.8-152.2c0-1.1,0.4-1.8,0.8-1.8c0.4,0,0.7,0.8,0.7,1.8c0,1.1-0.3,1.9-0.7,1.9
			C-241.5-150.3-241.8-151.2-241.8-152.2z"/>
		<ellipse id="XMLID_5474_" class="st8" cx="-236.7" cy="-152.3" rx="0.7" ry="1.7"/>
		<path id="XMLID_5473_" class="st4" d="M-242.5-148.1c1.9,1,3.2,1.5,5.6,1C-240.3-143.5-240.2-144-242.5-148.1z"/>
		<path id="XMLID_5472_" class="st4" d="M-240.1-155c0.3,0.1,0.5,0.2,0.7,0.4l-0.1,0.3c-0.1-0.1-0.3-0.2-0.4-0.2
			c-1-0.3-2.1,0.3-2.7,1.4l-0.3-0.1C-242.5-154.6-241.2-155.3-240.1-155z"/>
		<path id="XMLID_5471_" class="st4" d="M-235.3-153.6c0.1,0.2,0.1,0.5,0.1,0.7l-0.2,0.1c0-0.2,0-0.3-0.1-0.4
			c-0.3-0.9-1.2-1.5-2.3-1.4l-0.1-0.3C-236.8-155.2-235.7-154.6-235.3-153.6z"/>
		<path id="XMLID_5468_" class="st5" d="M-241.5-147.2c1.4,0.6,2.8,0.6,3.8,0.4l-0.7,0.8c-0.7,0.2-1.5,0.3-2.4-0.1L-241.5-147.2z"/>
		<path id="XMLID_5467_" class="st3" d="M-247.8-150.9c-0.1-0.9,0.1-1.6,0.5-1.7c0.4,0,0.3,0.5,0.4,1.3c0.1,0.9,0.3,1.8-0.1,1.8
			C-247.3-149.4-247.7-150-247.8-150.9z"/>
		<path id="XMLID_5464_" class="st2" d="M-238.4-132.1l-1.4-1.5l0.4,1.4C-239.4-132.3-239-131.7-238.4-132.1z"/>
		<path id="XMLID_5463_" class="st6" d="M-251.8-136.6c-0.4,0-1.2-0.4-2.1-1c-1.3-2.1-2.2-5.2-2.5-8.7c-0.2-2.6,0.2-5.3,1.1-7.7
			c1.4-4.1,4-7.6,6.7-8.6c2.1-0.4,3.7-0.5,5.1-0.5C-247.5-159.6-254.4-151.6-251.8-136.6z"/>
		<path id="XMLID_5462_" class="st4" d="M-246.4-158c0,0,2.5,1.3-0.3,10C-246.7-148-245-155.3-246.4-158z"/>
		<path id="XMLID_5461_" class="st4" d="M-252.4-152.1c0,0-2.2,7.1,1.1,16.5C-251.3-135.6-256.4-143.7-252.4-152.1z"/>
	</g>
	<g id="XMLID_4618_">
		<path id="XMLID_5459_" class="st9" d="M-220.9-78.5c0.8-6.2,1.4-12.8,1.9-20.6l-10.3-7.2c-0.1,10.9,0,19.9,0,27.9H-220.9z"/>
		<path id="XMLID_5458_" class="st9" d="M-200-78.8c-1.5-10.7-3-20.1-4.3-27.8l-8.9,7.8c2,7.2,3.6,13.6,5.2,20H-200z"/>
		<path id="XMLID_5457_" class="st3" d="M-185.6-155.3c-0.6-2.1-0.4-5.5-1.9-5.1c-1.5,0.4-3.4,4.3-2.8,6.3c0.6,2.1,2.6,3.7,4,3.2
			C-184.8-151.2-185-153.2-185.6-155.3z"/>
		<path id="XMLID_5456_" class="st10" d="M-185-152.7c0-2-0.8-3.5-1.7-3.5c-1,0-1.7,1.6-1.7,3.5s-0.2,5.3,0.8,5.3
			C-186.7-147.4-185-150.7-185-152.7z"/>
		<path id="XMLID_5455_" class="st9" d="M-220.9-155.5c-0.8-2.6-4.1-7.9-6-7.3c-1.9,0.6-2.1,6.3-1.3,8.9c0.8,2.6,5.5,5.2,7.4,4.6
			C-218.9-149.9-220.1-152.9-220.9-155.5z"/>
		<path id="XMLID_5454_" class="st9" d="M-219.9-157.8c1.9-3.6,5.2-12.4,2.5-13.8c-2.6-1.4-8.5,1.2-11.2,7.1
			c-1.7,3.7,0.1,11.7,2.7,13.1C-223.2-149.9-221.8-154.2-219.9-157.8z"/>
		<path id="XMLID_5453_" class="st11" d="M-185.6-146.1l-4.3-1.4c-4,20.8-12,19.2-15,5l-4.8,4.6
			C-200.4-115.2-191.2-123.5-185.6-146.1z"/>
		<path id="XMLID_5452_" class="st2" d="M-186.9-146.5c-5.2,18.8-13.6,25.7-22.1,7.7l-0.9,0.9c9.5,22.7,18.7,14.4,24.2-8.2
			L-186.9-146.5z"/>
		<path id="XMLID_5451_" class="st9" d="M-204.1-105.4l-24.2,1.2l7.2,14.3c4.4-3.6,6.6-3,14.3-3.2L-204.1-105.4z"/>
		<g id="XMLID_5449_" class="st12">
			<path id="XMLID_5450_" class="st2" d="M-204.3-106.6l-0.2,0.2l0.4-1.9l-25.1,1.3c0,0,0.1,7-0.1,10.2
				C-220.5-95.3-204-100.5-204.3-106.6z"/>
		</g>
		<path id="XMLID_5448_" class="st11" d="M-206.3-144c-8.6-5.7-19.9-1.8-24.3,3.3c-0.5,0.6-0.7,1.3-0.8,2c-3.5,12,5.2,17.7,0.7,32.6
			c0.7,8.3,26,4.9,27.5-2.2C-204.4-123-198.9-137.3-206.3-144z"/>
		<g id="XMLID_5446_" class="st12">
			<path id="XMLID_5447_" class="st13" d="M-202.9-122.7c0.4-4.6,0.8-8.9,0.4-12.6c-5.2,3.4-14.4,4.2-29.7,3.5
				c0.2,4.5,1.8,8.4,2.5,13C-215.1-118.7-207-119.6-202.9-122.7z"/>
		</g>
		<path id="XMLID_5445_" class="st2" d="M-227.3-107.8c0.3-0.9,5-33.9-3.4-33c-0.5,0.6-0.7,1.3-0.8,2c-3.5,12,5.2,17.7,0.7,32.6
			c0.6,7.2,19.6,5.6,25.7,0.5C-213.1-103.1-226.8-102.2-227.3-107.8z"/>
		<ellipse id="XMLID_5442_" class="st14" cx="-217.7" cy="-144.1" rx="6.3" ry="3"/>
		<path id="XMLID_5439_" class="st10" d="M-216-152.8h-5.1v7.9c0.6,1.8,4.8,1.3,5.1,0V-152.8z"/>
		<g id="XMLID_5435_" class="st12">
			<path id="XMLID_5438_" class="st2" d="M-217-135.9c6-0.5,10.9-3.2,12.1-6.4c-0.4-0.6-0.9-1.1-1.5-1.6c-2.7-1.8-5.7-2.6-8.6-2.8
				c-0.3-0.1-0.6-0.1-1-0.2v-3.5c-0.7,0-1.4,0-2.2,0.1c-1,0.1-2,0.2-2.9,0.4v3.3c-1,0.3-1.8,0.7-2.3,1.2c-2.9,1-5.3,2.6-7,4.3
				C-229.2-137.7-223.5-135.4-217-135.9z"/>
		</g>
		<path id="XMLID_5434_" class="st10" d="M-207.8-159.8c0-6.3-4.4-11.4-9.9-11.4c-5.5,0-9.9,5.1-9.9,11.4s4.4,11.4,9.9,11.4
			C-212.2-148.4-206.1-146.9-207.8-159.8z"/>
		<path id="XMLID_5433_" class="st10" d="M-207.8-162c0-5.1-3.5-9.2-7.9-9.2s-7.9,4.1-7.9,9.2c0,5.1,5.5,7.4,12.6,5.1
			C-206.6-155.6-207.8-156.8-207.8-162z"/>
		<path id="XMLID_5432_" class="st9" d="M-222-161.3c0-3.4,0.6-7.9-1.5-7.9c-2.1,0-6.8,1.5-6.2,10.9c0,3.4,2.7,7.1,4.8,7.1
			C-225.8-154-222-158-222-161.3z"/>
		
			<ellipse id="XMLID_5431_" transform="matrix(0.987 -0.1608 0.1608 0.987 22.6408 -38.2171)" class="st10" cx="-224.7" cy="-159" rx="2" ry="2.5"/>
		
			<ellipse id="XMLID_5430_" transform="matrix(0.987 -0.1609 0.1609 0.987 22.6459 -38.1865)" class="st2" cx="-224.5" cy="-159" rx="1.4" ry="1.7"/>
		<polygon id="XMLID_5429_" class="st9" points="-218.7,-167.1 -224.1,-165.1 -223.1,-157.2 -220.9,-157 		"/>
		<path id="XMLID_5428_" class="st9" d="M-210.2-169.5c0-1.1-4-2.7-6.9-2.7c-2.9,0-4.8,0.8-4.8,1.9s2.8,1.2,5.7,1.2
			S-210.2-168.5-210.2-169.5z"/>
		<path id="XMLID_5427_" class="st9" d="M-218.5-166.9c0-1.9-1.8-3.4-3.8-3.4s-3.6,1.5-3.6,3.4c0,1.9,2.9,9.7,4.9,9.7
			C-218.7-161.3-218.5-165-218.5-166.9z"/>
		<path id="XMLID_5426_" class="st9" d="M-211.2-169.1c0,0,1.6,0.9,2.2-0.9c0,0-1.3,1.3-1.7,0.1
			C-211.1-170.7-211.2-169.1-211.2-169.1z"/>
		<path id="XMLID_5425_" class="st9" d="M-211.1-169.2c0,0,1.8,0.1,1.6-1.7c0,0-0.6,1.7-1.5,0.8
			C-211.7-170.7-211.1-169.2-211.1-169.2z"/>
		<path id="XMLID_5424_" class="st9" d="M-213.9-170c0,0-1.7-0.1-2,2.1c0,0,0.7-1.4,2.9-1.1L-213.9-170z"/>
		<path id="XMLID_5423_" class="st9" d="M-222.8-159.9c0,0-0.8-1.5-2.8-0.5c0,0,1.6-0.2,2.5,1.9L-222.8-159.9z"/>
		<path id="XMLID_5422_" class="st9" d="M-226.3-152.6c0,0,1.1,1.3-0.7,2.8c0,0,0.9-1.4-0.7-3.1L-226.3-152.6z"/>
		<path id="XMLID_5421_" class="st9" d="M-213.7-171.4c-4-2.5-10.5-0.4-11.9,2.8c0.4,0.8,2,0.2,4-0.8
			C-219.6-170.4-213.2-170.6-213.7-171.4z"/>
		<ellipse id="XMLID_5420_" class="st8" cx="-215.2" cy="-161.4" rx="0.8" ry="2.1"/>
		<ellipse id="XMLID_5396_" class="st8" cx="-209.3" cy="-161.5" rx="0.7" ry="2.1"/>
		<path id="XMLID_5011_" class="st9" d="M-214.1-165.8l-2.3,0.3c-0.3,0-0.5,0.2-0.7,0.4c-0.2,0.2-0.3,0.5-0.2,0.8l0.1,0.4l3.4-0.5
			L-214.1-165.8z"/>
		<path id="XMLID_4850_" class="st9" d="M-207.6-164.9c0.1-0.4-0.2-0.7-0.6-0.8l-2-0.3l-0.2,1.5l2.7,0.4L-207.6-164.9z"/>
		<path id="XMLID_4848_" class="st9" d="M-207.7-159.3c0,0,0.2,4.4-3.2,3.5c0,0-5.7,2.4-10.1-4c0,0-5.8,6.4-3.9,8.7s5.1,4.1,9.1,3.4
			C-211.7-148.4-202.4-144.6-207.7-159.3z"/>
		<path id="XMLID_4645_" class="st15" d="M-216.8-155c-0.6,0.4-1,1-1.2,1.6c-0.3,0.7-0.2,1.4,0.2,2c0.4,0.6,1,1,1.7,1
			c2.7,0.2,6.7-0.5,7.2-2.5C-208.2-156.2-212.5-152.8-216.8-155z"/>
		<path id="XMLID_4644_" class="st5" d="M-210.4-154c-2.1,0.5-4.4,0.3-6.3-0.2l-0.3,1.1c2.1,0.8,3.8,0.8,6.1,0.4L-210.4-154z"/>
		
			<rect id="XMLID_4643_" x="-190.9" y="-149.3" transform="matrix(0.9596 0.2812 -0.2812 0.9596 -49.075 46.8136)" class="st16" width="6.5" height="3.4"/>
		<path id="XMLID_4642_" class="st17" d="M-219.6-165.7c0-1.4-1.7-2.5-3.8-2.5c-2.1,0-4.6,1.5-4.6,2.8s2.5,0,4.6,0
			C-221.3-165.4-219.6-164.4-219.6-165.7z"/>
		<polygon id="XMLID_4635_" class="st18" points="-186.3,-161 -191.9,-163.6 -195.8,-163.2 -197,-153.8 -188.6,-151.8 
			-186.8,-152.1 		"/>
		<g id="XMLID_4633_">
			<polygon id="XMLID_4634_" class="st2" points="-196.6,-156.8 -197,-153.8 -188.6,-151.8 -186.8,-152.1 -187,-154.3 
				-193.1,-157.4 			"/>
		</g>
		<g id="XMLID_4631_">
			<polygon id="XMLID_4632_" class="st6" points="-186.8,-152.2 -186.3,-161 -191.9,-163.6 -192.1,-163.6 -193.2,-154.7 			"/>
		</g>
		<path id="XMLID_4630_" class="st18" d="M-186.5-160.6c-0.4,0-1.7,0.2-2.1,0.2c-0.8,0-1.3,1-1.3,2.6s0.6,2.5,1.3,2.5
			c0.4,0,1.7,0.7,2.1,0.7c0.8,0,1.4-1.3,1.4-3S-185.8-160.6-186.5-160.6z"/>
		<path id="XMLID_4628_" class="st2" d="M-190-157.8c0,1.6,0.6,2.5,1.3,2.5c0.4,0,1.7,0.7,2.1,0.7c0.8,0,1.4-1.3,1.4-3
			S-190-159.5-190-157.8z"/>
		<ellipse id="XMLID_4627_" class="st19" cx="-186.3" cy="-157.7" rx="0.7" ry="2.2"/>
		
			<rect id="XMLID_4626_" x="-187.9" y="-159.2" transform="matrix(0.9947 0.1031 -0.1031 0.9947 -17.336 18.5051)" class="st6" width="0.7" height="1.6"/>
		
			<rect id="XMLID_4625_" x="-188.8" y="-159" transform="matrix(0.9947 0.1031 -0.1031 0.9947 -17.3557 18.5944)" class="st6" width="0.7" height="0.9"/>
		<polygon id="XMLID_4624_" class="st6" points="-189.1,-159.6 -189.5,-159.7 -189.8,-157.5 -189.3,-157.4 		"/>
		<path id="XMLID_4623_" class="st10" d="M-186-151.2c0.2-0.4-1.4-1.7-2.5-2.1c-1.1-0.5-2.6,0-2.8,0.5c-0.2,0.4,1.9,1.2,3,1.6
			C-187.2-150.8-186.2-150.8-186-151.2z"/>
		
			<ellipse id="XMLID_4622_" transform="matrix(0.3067 -0.9518 0.9518 0.3067 21.6119 -293.7217)" class="st13" cx="-190.8" cy="-161.7" rx="0.5" ry="0.9"/>
		<path id="XMLID_4621_" class="st18" d="M-187-141.5c-0.4,8-2.1,14-4.2,14c-2.4,0-4.3-8-4.3-17.8c0-4.6,0.4-8.8,1.1-11.9
			c-0.9,3.3-1.5,7.9-1.5,13.1c0,9.8,2.1,17.8,4.7,17.8c2.4,0,4.4-7.5,4.7-16.1L-187-141.5z"/>
		<path id="XMLID_4620_" class="st9" d="M-225.8-171.4c0,0,1.9,0.5,0.2,2.8C-225.6-168.5-222.3-171-225.8-171.4z"/>
		<path id="XMLID_4619_" class="st2" d="M-210.5-157.6c-0.1,0.4-0.7,0.6-1.3,0.6c0,0.1,0.4,0.4,0.7,0.5c0.7,0.2,1.2-0.2,1.4-0.7
			c0.1-0.5-0.3-1.1-1-1.3c-0.1,0-0.2,0-0.3,0C-210.6-158.3-210.4-157.9-210.5-157.6z"/>
	</g>
	<g id="XMLID_4504_">
		<path id="XMLID_4617_" class="st20" d="M-266.5-109.6c0,0-10.1-1.8-12.4-3.6c-2.3-1.9-24-23.7-25.5-23.6c-1.5,0.1-7.3,0.6-7.3,0.6
			l13,30L-266.5-109.6z"/>
		<path id="XMLID_4616_" class="st9" d="M-267.4-109.5c0,0-10.9-1.7-13.1-3.6c-2.3-1.9-24-23.7-25.5-23.6c-1.5,0.1-6.6,0.6-6.6,0.6
			l13,30L-267.4-109.5z"/>
		<path id="XMLID_4615_" class="st21" d="M-299.7-107c2.6-0.2,28.4-2.5,32.5-2.8c2.5-0.2,4.4,3.3,8.7,3c3.7-0.3,36.3-3.2,57.4-5
			c3.7-0.3,13.6-5.9,20.1-6.5c15.7-1.4,24,4.6,29.8,8.1c3.5,2.1,5.5,4.1,6.6,5.9c2.2,3.8,2.4,10.3,2.5,12.1
			c0.1,3.7-24.6,9-33.2,10.6c-22.8,4.2-59.6,11.8-85.6,8.9c-18.2-2-48.3-30.2-45.3-28.1c-1.4-1-1.3-2.2-0.2-2.9
			C-305.3-104.4-302.3-106.8-299.7-107z"/>
		<path id="XMLID_4614_" class="st22" d="M-267-107.5c2.5-0.2,4.4,3.3,8.7,3c3.7-0.3,36.3-3.2,57.4-5c3.7-0.3,13.4-3.9,20-4.5
			c15.7-1.4,23.9,2.8,29.7,6.2c3.5,2.1,7.2,5.8,8.3,7.7c0,0,0,0,0,0.1c0.7,3.2,0.8,6.5,0.9,7.7c0.1,3.7-24.6,9-33.2,10.6
			c-22.8,4.2-59.6,11.8-85.6,8.9c-7.5-0.8-19.1-7.7-27.4-13.2c-10.7-7.1-17.2-14.3-17.9-14.9c-0.8-0.6-1.1-1.3-1-1.9
			c2.3-0.8,5.9-1.7,7.6-1.9C-296.9-104.8-271.1-107.1-267-107.5z"/>
		<path id="XMLID_4613_" class="st9" d="M-142.9-100.1c0.3,1.3,0.5,2.6,0.6,3.8c0.2,1.7,0.2,3.2,0.2,4c0,0.1,0,0.2,0,0.4
			c0,0,0,0,0,0c0,0,0,0.1,0,0.1c-0.1,0.4-0.4,0.8-0.8,1.3c-3.3,3.4-25,7.5-32.3,8.9c-22.8,4.2-59.6,11.8-85.6,8.9
			c-7.5-0.8-16.5-5.5-27.4-13.2c20.7,0.1,52.6-3.3,71-4.9C-183.8-93.9-167.3-96-142.9-100.1z"/>
		<path id="XMLID_4612_" class="st2" d="M-187.3-91.3c0,0,2.1,6.4,1.7,6.8C-185.9-84-196-78-201.6-77c-5.6,1-34.7,4.2-36.3,1.2
			C-239.5-78.7-189.2-91.5-187.3-91.3z"/>
		<g id="XMLID_4598_" class="st12">
			<path id="XMLID_4599_" class="st23" d="M-231.6-103l-3.8,0.3c-0.5,0-0.9,0.5-0.8,1l0.4,4.5c0,0.5,0.5,0.9,1,0.8l3.8-0.3
				c0.5,0,0.9-0.5,0.8-1l-0.4-4.5C-230.6-102.7-231.1-103-231.6-103z M-222.5-103.8l-3.8,0.3c-0.5,0-0.9,0.5-0.8,1l0.4,4.5
				c0,0.5,0.5,0.9,1,0.8l3.8-0.3c0.5,0,0.9-0.5,0.8-1l-0.4-4.5C-221.5-103.4-222-103.8-222.5-103.8z M-213.4-104.6l-3.8,0.3
				c-0.5,0-0.9,0.5-0.8,1l0.4,4.5c0,0.5,0.5,0.9,1,0.8l3.8-0.3c0.5,0,0.9-0.5,0.8-1l-0.4-4.5C-212.5-104.2-212.9-104.6-213.4-104.6z
				 M-249.7-101.4l-3.8,0.3c-0.5,0-0.9,0.5-0.8,1l0.4,4.5c0,0.5,0.5,0.9,1,0.8l3.8-0.3c0.5,0,0.9-0.5,0.8-1l-0.4-4.5
				C-248.8-101.1-249.2-101.4-249.7-101.4z M-240.7-102.2l-3.8,0.3c-0.5,0-0.9,0.5-0.8,1l0.4,4.5c0,0.5,0.5,0.9,1,0.8l3.8-0.3
				c0.5,0,0.9-0.5,0.8-1l-0.4-4.5C-239.7-101.9-240.2-102.2-240.7-102.2z M-258.8-100.6l-3.8,0.3c-0.5,0-0.9,0.5-0.8,1l0.4,4.5
				c0,0.5,0.5,0.9,1,0.8l3.8-0.3c0.5,0,0.9-0.5,0.8-1l-0.4-4.5C-257.9-100.3-258.3-100.6-258.8-100.6z M-168-108.6l-3.8,0.3
				c-0.5,0-0.9,0.5-0.8,1l0.4,4.5c0,0.5,0.5,0.9,1,0.8l3.8-0.3c0.5,0,0.9-0.5,0.8-1l-0.4-4.5C-167.1-108.2-167.5-108.6-168-108.6z
				 M-177.1-107.8l-3.8,0.3c-0.5,0-0.9,0.5-0.8,1l0.4,4.5c0,0.5,0.5,0.9,1,0.8l3.8-0.3c0.5,0,0.9-0.5,0.8-1l-0.4-4.5
				C-176.1-107.4-176.6-107.8-177.1-107.8z M-151.8-109.7l-6.5,0.6l-4.4,0.4c-0.5,0-0.9,0.5-0.8,1l0.4,4.5c0,0.5,0.5,0.9,1,0.8
				l13.3-1.2l4.1-0.4C-146-105.8-148.2-107.8-151.8-109.7z M-195.3-106.2l-3.8,0.3c-0.5,0-0.9,0.5-0.8,1l0.4,4.5
				c0,0.5,0.5,0.9,1,0.8l3.8-0.3c0.5,0,0.9-0.5,0.8-1l-0.4-4.5C-194.3-105.8-194.8-106.2-195.3-106.2z M-186.2-107l-3.8,0.3
				c-0.5,0-0.9,0.5-0.8,1l0.4,4.5c0,0.5,0.5,0.9,1,0.8l3.8-0.3c0.5,0,0.9-0.5,0.8-1l-0.4-4.5C-185.2-106.6-185.7-107-186.2-107z
				 M-204.3-105.4l-3.8,0.3c-0.5,0-0.9,0.5-0.8,1l0.4,4.5c0,0.5,0.5,0.9,1,0.8l3.8-0.3c0.5,0,0.9-0.5,0.8-1l-0.4-4.5
				C-203.4-105-203.8-105.4-204.3-105.4z"/>
		</g>
		<g id="XMLID_4542_">
			<g id="XMLID_4543_">
				<path id="XMLID_4544_" class="st24" d="M-167.6-109l-3.8,0.3c-0.5,0-0.9,0.5-0.8,1l0.4,4.5c0,0.5,0.5,0.9,1,0.8l3.8-0.3
					c0.5,0,0.9-0.5,0.8-1l-0.4-4.5C-166.7-108.7-167.1-109.1-167.6-109z M-151.1-110.3l-11.2,1.1c-0.5,0-0.9,0.5-0.8,1l0.4,4.5
					c0,0.5,0.5,0.9,1,0.8l17.3-1.5C-145.6-106.3-148.2-108.6-151.1-110.3z M-176.7-108.2l-3.8,0.3c-0.5,0-0.9,0.5-0.8,1l0.4,4.5
					c0,0.5,0.5,0.9,1,0.8l3.8-0.3c0.5,0,0.9-0.5,0.8-1l-0.4-4.5C-175.8-107.9-176.2-108.3-176.7-108.2z M-185.8-107.4l-3.8,0.3
					c-0.5,0-0.9,0.5-0.8,1l0.4,4.5c0,0.5,0.5,0.9,1,0.8l3.8-0.3c0.5,0,0.9-0.5,0.8-1l-0.4-4.5C-184.8-107.1-185.3-107.5-185.8-107.4
					z M-194.9-106.6l-3.8,0.3c-0.5,0-0.9,0.5-0.8,1l0.4,4.5c0,0.5,0.5,0.9,1,0.8l3.8-0.3c0.5,0,0.9-0.5,0.8-1l-0.4-4.5
					C-193.9-106.3-194.4-106.7-194.9-106.6z M-204-105.8l-3.8,0.3c-0.5,0-0.9,0.5-0.8,1l0.4,4.5c0,0.5,0.5,0.9,1,0.8l3.8-0.3
					c0.5,0,0.9-0.5,0.8-1l-0.4-4.5C-203-105.5-203.4-105.9-204-105.8z M-213-105.1l-3.8,0.3c-0.5,0-0.9,0.5-0.8,1l0.4,4.5
					c0,0.5,0.5,0.9,1,0.8l3.8-0.3c0.5,0,0.9-0.5,0.8-1l-0.4-4.5C-212.1-104.7-212.5-105.1-213-105.1z M-222.1-104.3l-3.8,0.3
					c-0.5,0-0.9,0.5-0.8,1l0.4,4.5c0,0.5,0.5,0.9,1,0.8l3.8-0.3c0.5,0,0.9-0.5,0.8-1l-0.4-4.5C-221.2-103.9-221.6-104.3-222.1-104.3
					z M-231.2-103.5l-3.8,0.3c-0.5,0-0.9,0.5-0.8,1l0.4,4.5c0,0.5,0.5,0.9,1,0.8l3.8-0.3c0.5,0,0.9-0.5,0.8-1l-0.4-4.5
					C-230.2-103.1-230.7-103.5-231.2-103.5z M-240.3-102.7l-3.8,0.3c-0.5,0-0.9,0.5-0.8,1l0.4,4.5c0,0.5,0.5,0.9,1,0.8l3.8-0.3
					c0.5,0,0.9-0.5,0.8-1l-0.4-4.5C-239.3-102.3-239.8-102.7-240.3-102.7z M-249.4-101.9l-3.8,0.3c-0.5,0-0.9,0.5-0.8,1l0.4,4.5
					c0,0.5,0.5,0.9,1,0.8l3.8-0.3c0.5,0,0.9-0.5,0.8-1l-0.4-4.5C-248.4-101.5-248.8-101.9-249.4-101.9z M-258.4-101.1l-3.8,0.3
					c-0.5,0-0.9,0.5-0.8,1l0.4,4.5c0,0.5,0.5,0.9,1,0.8l3.8-0.3c0.5,0,0.9-0.5,0.8-1l-0.4-4.5C-257.5-100.7-257.9-101.1-258.4-101.1
					z"/>
			</g>
		</g>
		<path id="XMLID_4541_" class="st25" d="M-158.1-109.7c3.5,1.1,6.8,2.9,9.5,5.6l4.1-0.4c-1.1-1.8-3.7-4.2-6.6-5.9L-158.1-109.7z"/>
		<g id="XMLID_4535_">
			
				<linearGradient id="XMLID_2_" gradientUnits="userSpaceOnUse" x1="-4245.4722" y1="109.4294" x2="-4246.5127" y2="97.5446" gradientTransform="matrix(-0.9962 8.720000e-02 8.720000e-02 0.9962 -4451.6172 190.7014)">
				<stop  offset="5.589980e-03" style="stop-color:#FAFCFF"/>
				<stop  offset="0.253" style="stop-color:#EEEEF2"/>
				<stop  offset="0.6947" style="stop-color:#DCDBE0"/>
				<stop  offset="1" style="stop-color:#D6D4D9"/>
			</linearGradient>
			<path id="XMLID_4540_" class="st26" d="M-213.6-81.4c4.1-0.4,11.5-1,11.5-1l0.5,5.4l0.5,5.4c0,0-7.4,0.7-11.5,1
				c-4.1,0.4-11.4-1.5-11.6-4.5C-224.6-78-217.7-81.1-213.6-81.4z"/>
			<path id="XMLID_4539_" class="st9" d="M-201.6-77l0.5,5.4c0,0-2.6,0.2-5.5,0.5c-0.7-1.6-1.1-3.5-1.3-5.4
				c-0.2-1.9-0.2-3.8,0.3-5.5c2.9-0.3,5.5-0.5,5.5-0.5L-201.6-77z"/>
			<path id="XMLID_4538_" class="st2" d="M-224.3-75c-0.3-3,6.6-6.1,10.7-6.4c4.1-0.4,11.5-1,11.5-1l0.5,5.4L-224.3-75z"/>
			
				<linearGradient id="XMLID_3_" gradientUnits="userSpaceOnUse" x1="-4257.0874" y1="109.3893" x2="-4257.0874" y2="98.4704" gradientTransform="matrix(-0.9962 8.720000e-02 8.720000e-02 0.9962 -4451.6172 190.7014)">
				<stop  offset="0.1675" style="stop-color:#F6F4F0"/>
				<stop  offset="0.5159" style="stop-color:#EFEDEC"/>
				<stop  offset="1" style="stop-color:#DDDCE0"/>
			</linearGradient>
			<path id="XMLID_4537_" class="st27" d="M-200.5-77.1c0.3,3,0,5.5-0.6,5.5c-0.6,0.1-1.3-2.3-1.6-5.3c-0.3-3,0-5.5,0.6-5.5
				C-201.5-82.5-200.8-80.1-200.5-77.1z"/>
			
				<ellipse id="XMLID_4536_" transform="matrix(0.9962 -8.728480e-02 8.728480e-02 0.9962 5.9519 -17.8778)" class="st28" cx="-201.5" cy="-77" rx="0.8" ry="4.3"/>
		</g>
		<g id="XMLID_4529_">
			
				<linearGradient id="XMLID_4_" gradientUnits="userSpaceOnUse" x1="-4228.7998" y1="112.1797" x2="-4229.8403" y2="100.295" gradientTransform="matrix(-0.9962 8.720000e-02 8.720000e-02 0.9962 -4451.6172 190.7014)">
				<stop  offset="5.589980e-03" style="stop-color:#FAFCFF"/>
				<stop  offset="0.253" style="stop-color:#EEEEF2"/>
				<stop  offset="0.6947" style="stop-color:#DCDBE0"/>
				<stop  offset="1" style="stop-color:#D6D4D9"/>
			</linearGradient>
			<path id="XMLID_4534_" class="st29" d="M-230-77.2c4.1-0.4,11.5-1,11.5-1l0.5,5.4l0.5,5.4c0,0-7.4,0.7-11.5,1
				c-4.1,0.4-11.4-1.5-11.6-4.5C-240.9-73.8-234-76.9-230-77.2z"/>
			<path id="XMLID_4533_" class="st9" d="M-218-72.8l0.5,5.4c0,0-2.6,0.2-5.5,0.5c-0.7-1.6-1.1-3.5-1.3-5.4
				c-0.2-1.9-0.2-3.8,0.3-5.5c2.9-0.3,5.5-0.5,5.5-0.5L-218-72.8z"/>
			<path id="XMLID_4532_" class="st2" d="M-240.7-70.8c-0.3-3,6.6-6.1,10.7-6.4c4.1-0.4,11.5-1,11.5-1l0.5,5.4L-240.7-70.8z"/>
			
				<linearGradient id="XMLID_5_" gradientUnits="userSpaceOnUse" x1="-4240.4155" y1="112.1397" x2="-4240.4155" y2="101.2208" gradientTransform="matrix(-0.9962 8.720000e-02 8.720000e-02 0.9962 -4451.6172 190.7014)">
				<stop  offset="0.1675" style="stop-color:#F6F4F0"/>
				<stop  offset="0.5159" style="stop-color:#EFEDEC"/>
				<stop  offset="1" style="stop-color:#DDDCE0"/>
			</linearGradient>
			<path id="XMLID_4531_" class="st30" d="M-216.9-72.9c0.3,3,0,5.5-0.6,5.5c-0.6,0.1-1.3-2.3-1.6-5.3c-0.3-3,0-5.5,0.6-5.5
				C-217.9-78.3-217.2-75.9-216.9-72.9z"/>
			
				<ellipse id="XMLID_4530_" transform="matrix(0.9962 -8.749700e-02 8.749700e-02 0.9962 5.5348 -19.3382)" class="st28" cx="-217.8" cy="-72.8" rx="0.8" ry="4.3"/>
		</g>
		<path id="XMLID_4528_" class="st9" d="M-186.8-85.8c0.1,1.4-80.3,21.2-89.1,22c-5.6,0.5-24.1,1.3-24.1,1.3l-0.4-4.1
			c0,0,49.8-15.4,54.2-15.8c12.3-1.1,58.9-8.9,58.9-8.9S-186.9-87.2-186.8-85.8z"/>
		<path id="XMLID_4527_" class="st2" d="M-300.4-66.6l0.4,4.1c0,0,18.5-0.8,24.1-1.3c-0.7-0.5-1.4-5.2-0.2-5.6
			C-276.9-72.7-300.4-66.6-300.4-66.6z"/>
		
			<linearGradient id="XMLID_6_" gradientUnits="userSpaceOnUse" x1="-4158.9194" y1="93.3815" x2="-4271.5767" y2="103.2377" gradientTransform="matrix(-0.9962 8.720000e-02 8.720000e-02 0.9962 -4451.6172 190.7014)">
			<stop  offset="3.923610e-03" style="stop-color:#FFFFFF"/>
			<stop  offset="0.4836" style="stop-color:#FDFDFD"/>
			<stop  offset="0.7149" style="stop-color:#F6F5F6"/>
			<stop  offset="0.8925" style="stop-color:#E9E8EB"/>
			<stop  offset="1" style="stop-color:#DDDCE0"/>
		</linearGradient>
		<path id="XMLID_4526_" class="st31" d="M-187.3-91.3c0,0-80.2,21.9-89.1,22.6c-5.6,0.5-24,2.1-24,2.1s42.2-16.5,54-18.8
			C-228.5-88.8-187.3-91.3-187.3-91.3z"/>
		<path id="XMLID_4525_" class="st2" d="M-284.1-104.1c0,0,1.9,0.3,2,1.6c0.1,0.7-12.5,3.7-14.7,10.3c-1.9-1.4-5.5-4.5-6.9-6
			C-305-99.6-284.1-104.1-284.1-104.1z"/>
		<path id="XMLID_4524_" class="st9" d="M-282.1-102.5c0,0-30.3,7.7-33.7,8c-2.1,0.2-9.1,0.5-9.1,0.5l-0.1-1.5
			c0,0,18.8-5.6,20.5-5.7c4.7-0.4,22.2-3.4,22.2-3.4L-282.1-102.5z"/>
		<path id="XMLID_4523_" class="st2" d="M-325-95.4l0.1,1.5c0,0,7-0.4,9.1-0.5c-0.3-0.4-0.3-1.3-0.3-2.3
			C-321.3-96.6-325-95.4-325-95.4z"/>
		
			<linearGradient id="XMLID_7_" gradientUnits="userSpaceOnUse" x1="-4136.2085" y1="70.2515" x2="-4178.7896" y2="73.9768" gradientTransform="matrix(-0.9962 8.720000e-02 8.720000e-02 0.9962 -4451.6172 190.7014)">
			<stop  offset="3.923610e-03" style="stop-color:#FFFFFF"/>
			<stop  offset="0.4836" style="stop-color:#FDFDFD"/>
			<stop  offset="0.7149" style="stop-color:#F6F5F6"/>
			<stop  offset="0.8925" style="stop-color:#E9E8EB"/>
			<stop  offset="1" style="stop-color:#DDDCE0"/>
		</linearGradient>
		<path id="XMLID_4522_" class="st32" d="M-282.3-104.5c0,0-30.3,8-33.7,8.3c-2.1,0.2-9.1,0.8-9.1,0.8s18.3-6.7,20.4-7.2
			C-296.9-104.1-282.3-104.5-282.3-104.5z"/>
	</g>
	<g id="XMLID_4478_">
		<ellipse id="XMLID_4503_" class="st10" cx="-235.2" cy="-87.7" rx="2" ry="2.2"/>
		<ellipse id="XMLID_4502_" class="st2" cx="-235.2" cy="-87.7" rx="2" ry="2.2"/>
		<path id="XMLID_4501_" class="st10" d="M-234.4-89.5c-0.9-1.6-1.7-4.6-2.9-4.3c-1.2,0.3-1.5,3.7-1.2,5.3c0.3,1.6,1.6,2.8,2.8,2.5
			C-234.4-86.2-233.5-88-234.4-89.5z"/>
		<path id="XMLID_4486_" class="st11" d="M-227.9-128.7c1.8-2.2,2.4-5.1,1.9-7.9c-0.9-4.5-3.6-5.1-4.7-3.9
			c-6.7,10.1-8.6,21.5-8.1,46.8l3.9,0.9C-235-111.8-232.5-123-227.9-128.7z"/>
		<path id="XMLID_4485_" class="st2" d="M-228.6-139.6c0.2-0.3,0.6-0.4,0.9-0.5c-1.1-1.2-2.4-1.1-3.1-0.4
			c-6.7,10.1-8.6,21.5-8.1,46.8l2.2,0.5C-237.2-118.3-235.2-129.6-228.6-139.6z"/>
		<path id="XMLID_4482_" class="st11" d="M-227.9-128.7c1.8-2.2,2.4-5.1,1.9-7.9c-0.9-4.5-3.6-5.1-4.7-3.9
			c-6.7,10.1-8.6,21.5-8.1,46.8l3.9,0.9C-235-111.8-232.5-123-227.9-128.7z"/>
		<path id="XMLID_4481_" class="st2" d="M-231.8-138.8c-5.8,9.7-7.5,21.2-7,45.2l2.2,0.5C-237.3-125.1-232.7-133-231.8-138.8z"/>
		
			<rect id="XMLID_4480_" x="-239.4" y="-94.8" transform="matrix(0.9993 3.774485e-02 -3.774485e-02 0.9993 -3.7008 8.877)" class="st16" width="4.9" height="2.5"/>
		<path id="XMLID_4479_" class="st10" d="M-233.5-90.1c-0.9-0.7-1.9-1-2.1-0.7c-0.2,0.3,0.3,1.1,1.3,1.8c0.9,0.7,1.4,1.4,1.6,1.1
			C-232.5-88.2-232.5-89.4-233.5-90.1z"/>
	</g>
</g>
</svg>
