<?xml version="1.0" encoding="utf-8"?>
<!-- Generator: Adobe Illustrator 19.0.0, SVG Export Plug-In . SVG Version: 6.00 Build 0)  -->
<svg version="1.1" id="Layer_1" xmlns="http://www.w3.org/2000/svg" xmlns:xlink="http://www.w3.org/1999/xlink" x="0px" y="0px"
	 width="90px" height="90px" viewBox="0 0 90 90" style="enable-background:new 0 0 90 90;" xml:space="preserve">
<style type="text/css">
	.st0{fill:#ECEDF0;}
	.st1{fill:#003248;}
	.st2{fill:#ECA400;}
	.st3{fill:#FFC907;}
	.st4{fill:#195079;}
	.st5{fill:#DE3F18;}
	.st6{fill:#FB601E;}
	.st7{fill:#FFFFFF;}
</style>
<g id="XMLID_11866_">
	<g id="cutlery_5_">
		<g id="railway_5_">
			<circle id="XMLID_12015_" class="st0" cx="45" cy="45" r="45"/>
		</g>
	</g>
	<g id="XMLID_11867_">
		<g id="XMLID_12007_">
			<g id="XMLID_158_">
				<g id="XMLID_159_">
					<path id="XMLID_160_" class="st1" d="M47.1,23.4C47.1,23.4,47.1,23.4,47.1,23.4c0.3,0,0.4-0.3,0.4-0.5c0,0-0.3-2.1-0.7-7.6
						c0-0.2-0.2-0.4-0.5-0.4h0c-0.2,0-0.4,0.2-0.4,0.5c0.4,5.6,0.7,7.6,0.7,7.7C46.7,23.3,46.9,23.4,47.1,23.4L47.1,23.4z"/>
				</g>
			</g>
		</g>
		<g id="XMLID_11868_">
			<g id="XMLID_11990_">
				<path id="XMLID_11999_" class="st2" d="M42,41.1l13.6,30.8c0.9,2,3.3,2.9,5.3,2l18.1-8c2-0.9,2.9-3.3,2-5.3L67.3,29.9
					c-0.9-2-3.3-4.2-5.4-4.9l-10.2-3.5c-2.1-0.7-4.5,0.3-5.4,2.3l-4.4,10C41.1,35.8,41.1,39.1,42,41.1z M43.7,41.6
					c-0.8-1.8-0.8-4.8,0-6.6l4-9c0.8-1.8,3-2.8,4.8-2.1l9.2,3.2c1.9,0.6,4,2.6,4.8,4.5l12.3,27.8c0.8,1.8,0,3.9-1.8,4.7l-16.3,7.2
					c-1.8,0.8-3.9,0-4.7-1.8L43.7,41.6z"/>
				<path id="XMLID_11991_" class="st3" d="M43.7,41.6L56,69.3c0.8,1.8,2.9,2.6,4.7,1.8L77,64c1.8-0.8,2.6-2.9,1.8-4.7L66.5,31.5
					c-0.8-1.8-3-3.8-4.8-4.5l-9.2-3.2c-1.9-0.6-4,0.3-4.8,2.1l-4,9C42.9,36.8,42.9,39.8,43.7,41.6z M50,30.3
					c-0.7-1.6-0.3-3.2,0.8-3.7c1.1-0.5,2.6,0.4,3.3,1.9c0.7,1.6,0.3,3.2-0.8,3.7C52.2,32.7,50.7,31.9,50,30.3z"/>
			</g>
			<g id="XMLID_11982_">
				<g id="XMLID_142_">
					<g id="XMLID_143_">
						<path id="XMLID_144_" class="st4" d="M49.9,28.6c0.1-0.1,0.2-0.2,0.2-0.3c0-0.2,0.6-5.6-2.9-6.4c-0.2-0.1-0.4,0.1-0.5,0.3
							c-0.1,0.2,0.1,0.4,0.3,0.5c2.9,0.7,2.3,5.5,2.3,5.5c0,0.2,0.1,0.4,0.4,0.4C49.7,28.6,49.8,28.6,49.9,28.6L49.9,28.6z"/>
					</g>
				</g>
			</g>
			<g id="XMLID_11974_">
				<g id="XMLID_136_">
					<g id="XMLID_137_">
						<path id="XMLID_138_" class="st4" d="M49.8,29.4c0.1-0.1,0.2-0.2,0.2-0.4c0-0.2-0.2-4.8-3.8-5.5c-0.2,0-0.4,0.1-0.5,0.3
							c0,0.2,0.1,0.4,0.3,0.5c3,0.5,3.1,4.7,3.1,4.7c0,0.2,0.2,0.4,0.4,0.4C49.8,29.5,49.8,29.5,49.8,29.4L49.8,29.4z"/>
					</g>
				</g>
			</g>
			<g id="XMLID_11894_">
				<g id="XMLID_11966_">
					<g id="XMLID_121_">
						<g id="XMLID_122_">
							<path id="XMLID_123_" class="st1" d="M43.5,22C43.5,22,43.5,22,43.5,22c-0.2-0.1-0.3-0.4-0.2-0.6c0,0,0.9-1.7,3-6.4
								c0.1-0.2,0.3-0.3,0.5-0.2c0,0,0,0,0,0c0.2,0.1,0.3,0.3,0.2,0.5c-2.1,4.7-3,6.3-3,6.4C43.9,22,43.7,22.1,43.5,22L43.5,22z"/>
						</g>
					</g>
				</g>
				<g id="XMLID_11949_">
					<path id="XMLID_11958_" class="st5" d="M48.7,31.8l-4.4-10c-0.9-2-3.3-3.1-5.4-2.3l-10.2,3.5c-2.1,0.7-4.5,2.9-5.4,4.9
						L9.7,58.7c-0.9,2,0,4.4,2,5.3l18.1,8c2,0.9,4.4,0,5.3-2l13.6-30.8C49.6,37.1,49.6,33.8,48.7,31.8z M34.7,67.3
						c-0.8,1.8-2.9,2.6-4.7,1.8l-16.3-7.2c-1.8-0.8-2.6-2.9-1.8-4.7l12.3-27.8c0.8-1.8,3-3.8,4.8-4.5l9.2-3.2c1.9-0.6,4,0.3,4.8,2.1
						l4,9c0.8,1.8,0.8,4.8,0,6.6L34.7,67.3z"/>
					<path id="XMLID_11950_" class="st6" d="M47,33l-4-9c-0.8-1.8-3-2.8-4.8-2.1L29,25c-1.9,0.6-4,2.6-4.8,4.5L11.9,57.2
						c-0.8,1.8,0,3.9,1.8,4.7L30,69.1c1.8,0.8,3.9,0,4.7-1.8L47,39.6C47.8,37.8,47.8,34.8,47,33z M37.4,30.2
						c-1.1-0.5-1.5-2.2-0.8-3.7c0.7-1.6,2.2-2.4,3.3-1.9c1.1,0.5,1.5,2.2,0.8,3.7C40,29.9,38.5,30.7,37.4,30.2z"/>
				</g>
				<g id="XMLID_11911_">
					<g id="XMLID_202_">
						<g id="XMLID_214_">
							<g id="XMLID_215_">
								<path id="XMLID_216_" class="st7" d="M23.3,58c-1.1,1.1-1.7,1.4-2.4,1c-0.5-0.2-1-0.9-0.5-2c0.3-0.7,0.9-1.2,0.9-1.2
									c0.2-0.1,0.4-0.3,0.5-0.4c0.1-0.1,0.1-0.3-0.1-0.4l-0.9-0.8c-0.2-0.1-0.4-0.2-0.4-0.2c-0.1,0.1-0.3,0.2-0.4,0.4
									c0,0-0.9,0.9-1.3,1.8c-0.9,2.1-0.3,4.1,1.5,4.9c1.4,0.6,2.9,0.2,4.4-1.4c1.1-1.1,1.7-1.2,2.3-0.9c0.8,0.4,1.1,1.2,0.6,2.3
									c-0.3,0.7-1.2,1.6-1.2,1.6c-0.2,0.1-0.4,0.3-0.5,0.4c-0.1,0.1-0.1,0.3,0.1,0.4l0.9,0.8c0.2,0.1,0.4,0.2,0.4,0.2
									c0.1,0,0.2-0.2,0.4-0.4c0,0,1.2-1.2,1.6-2.1c1.2-2.6,0.1-4.5-1.5-5.2C26.2,56,24.8,56.4,23.3,58z"/>
							</g>
						</g>
						<g id="XMLID_209_">
							<g id="XMLID_210_">
								<path id="XMLID_211_" class="st7" d="M22,49.2c-0.1,0.2,0,0.5,0.1,0.6l8.4,7.8c0.2,0.1,0.4,0.1,0.5-0.1l0.6-1.3
									c0.1-0.2,0-0.5-0.1-0.6l-2.1-1.9c-0.2-0.1-0.2-0.4-0.1-0.6l1-2.3c0.1-0.2,0.3-0.3,0.6-0.3l2.8,0.2c0.2,0,0.5-0.1,0.6-0.3
									l0.6-1.4c0.1-0.2,0-0.4-0.2-0.4l-11.4-1c-0.2,0-0.5,0.1-0.6,0.3L22,49.2z M28.1,50.1c0.2,0,0.3,0.2,0.2,0.4l-0.6,1.3
									c-0.1,0.2-0.3,0.2-0.5,0.1l-1.5-1.3c-0.2-0.1-0.4-0.3-0.5-0.4c-0.1-0.1-0.2-0.3-0.1-0.3c0.1,0,0.7,0.1,0.9,0.1L28.1,50.1z"
									/>
							</g>
						</g>
						<g id="XMLID_206_">
							<g id="XMLID_207_">
								<path id="XMLID_208_" class="st7" d="M25.8,41.4c-0.2-0.1-0.4,0-0.5,0.2l-0.6,1.3c-0.1,0.2,0,0.4,0.2,0.5l9.9,4.4
									c0.2,0.1,0.4,0,0.5-0.2l2.4-5.5c0.1-0.2,0-0.4-0.2-0.5l-1-0.5c-0.2-0.1-0.4,0-0.5,0.2l-1.5,3.5c-0.1,0.2-0.3,0.3-0.5,0.2
									L25.8,41.4z"/>
							</g>
						</g>
						<g id="XMLID_203_">
							<g id="XMLID_204_">
								<path id="XMLID_205_" class="st7" d="M37.5,37.9c-0.1,0.2-0.3,0.3-0.5,0.2l-2.1-0.9c-0.2-0.1-0.3-0.3-0.2-0.5l1.4-3.1
									c0.1-0.2,0-0.4-0.2-0.5l-1-0.5c-0.2-0.1-0.4,0-0.5,0.2l-1.4,3.1c-0.1,0.2-0.3,0.3-0.5,0.2l-1.7-0.8
									c-0.2-0.1-0.3-0.3-0.2-0.5l1.5-3.3c0.1-0.2,0-0.4-0.2-0.5l-1-0.5c-0.2-0.1-0.4,0-0.5,0.2L27.8,36c-0.1,0.2,0,0.4,0.2,0.5
									l9.9,4.4c0.2,0.1,0.4,0,0.5-0.2l2.5-5.5c0.1-0.2,0-0.4-0.2-0.5l-1-0.5c-0.2-0.1-0.4,0-0.5,0.2L37.5,37.9z"/>
							</g>
						</g>
					</g>
				</g>
				<g id="XMLID_11903_">
					<g id="XMLID_85_">
						<g id="XMLID_86_">
							<path id="XMLID_87_" class="st4" d="M40.8,26.6c-0.1-0.1-0.2-0.2-0.2-0.3c0-0.2-0.6-5.6,2.9-6.4c0.2-0.1,0.4,0.1,0.5,0.3
								c0.1,0.2-0.1,0.4-0.3,0.5c-2.9,0.7-2.3,5.5-2.3,5.5c0,0.2-0.1,0.4-0.3,0.4C40.9,26.6,40.9,26.6,40.8,26.6L40.8,26.6z"/>
						</g>
					</g>
				</g>
				<g id="XMLID_11895_">
					<g id="XMLID_79_">
						<g id="XMLID_80_">
							<path id="XMLID_81_" class="st4" d="M40.8,27.4c-0.1-0.1-0.2-0.2-0.2-0.4c0-0.2,0.2-4.8,3.8-5.5c0.2,0,0.4,0.1,0.5,0.3
								c0,0.2-0.1,0.4-0.3,0.5c-3,0.5-3.1,4.7-3.1,4.7c0,0.2-0.2,0.4-0.4,0.4C40.9,27.5,40.9,27.5,40.8,27.4L40.8,27.4z"/>
						</g>
					</g>
				</g>
			</g>
			<g id="XMLID_11869_">
				<g id="XMLID_127_">
					<g id="XMLID_128_">
						<g id="XMLID_129_">
							<path id="XMLID_130_" class="st7" d="M58.6,46.2c1.1,3.5-0.2,5.8-2.3,6.5c-2.1,0.7-4.4-0.5-5.5-3.8c-1.1-3.3,0.2-5.8,2.4-6.5
								C55.6,41.7,57.7,43.1,58.6,46.2z M52.6,48.3c0.6,2.2,2,3.5,3.4,3.1c1.5-0.5,1.7-2.3,1-4.5c-0.6-2.1-1.8-3.5-3.4-3
								C52.2,44.3,51.9,46.2,52.6,48.3z M59.1,59.7c-0.4,0.1-0.5-0.8-0.3-1.9l3.5-16.1c0.3-1.2,0.8-2.3,1.2-2.4
								c0.4-0.1,0.5,0.7,0.3,1.9l-3.5,16.1C60,58.4,59.5,59.5,59.1,59.7z M71.7,49.7c1.1,3.5-0.2,5.8-2.3,6.5
								c-2.1,0.7-4.4-0.5-5.5-3.8c-1-3.3,0.2-5.8,2.4-6.5C68.6,45.2,70.7,46.6,71.7,49.7z M65.7,51.8c0.6,2.2,2,3.5,3.4,3.1
								c1.5-0.5,1.7-2.3,1-4.5c-0.6-2-1.8-3.5-3.4-3C65.2,47.8,65,49.7,65.7,51.8z"/>
						</g>
					</g>
				</g>
			</g>
		</g>
	</g>
</g>
</svg>
