<?xml version="1.0" encoding="utf-8"?>
<!-- Generator: Adobe Illustrator 19.0.0, SVG Export Plug-In . SVG Version: 6.00 Build 0)  -->
<svg version="1.1" id="Layer_1" xmlns="http://www.w3.org/2000/svg" xmlns:xlink="http://www.w3.org/1999/xlink" x="0px" y="0px"
	 width="580px" height="50px" viewBox="-343 236 580 50" style="enable-background:new -343 236 580 50;" xml:space="preserve">
<style type="text/css">
	.st0{fill:#5BC4BF;}
	.st1{opacity:0.4;fill:#FFFFFF;enable-background:new    ;}
	.st2{opacity:0.05;enable-background:new    ;}
	.st3{opacity:0.15;enable-background:new    ;}
	.st4{opacity:0.1;enable-background:new    ;}
	.st5{opacity:0.2;fill:#FFFFFF;enable-background:new    ;}
	.st6{fill:#419794;}
</style>
<g>
	<path class="st0" d="M-53,243.1L-53,243.1c0-5.5-1.8-7.1-7.4-7.1h-246.1l-0.5,1.6l-0.3-1.6h-1.7l-0.7,3.3l-1.1-3.3h-3.5l-2,2.1
		l-5.4-2.1h-5.7h-4.8h12.6h-15.7c-5.7,0-7.4,1.6-7.4,7.1v12.8l0.8,4.5l-0.8,2.4v5.9l2.7,2.9l-2.7,2.4v4.8c0,5.5,1.8,7.1,7.4,7.1h231
		c1.5-0.9,3.2-1.7,5-1.7c3.4,0,5.5,0.9,6.5,1.7h2c1.4-0.7,3.3-1.7,5.8-1.7c1.4,0.1,2.6,0.8,3.7,1.7h3.5H-65h4.6
		c5.7,0,7.4-1.7,7.4-7.1l0,0v-5v-8.9v-6.7l-1.8-1.4l1.8-1.2v-3l-1.8-3.8l1.8-2.8L-53,243.1L-53,243.1z"/>
	<path id="XMLID_11364_" class="st1" d="M-335.6,236L-335.6,236c-5.7,0-7.4,1.6-7.4,7.1l0,0h7.4V236z"/>
	<path id="XMLID_11362_" class="st2" d="M-343,278.9c0,5.5,1.8,7.1,7.4,7.1l0,0v-7.1H-343z"/>
	<path id="XMLID_11361_" class="st2" d="M-60.4,236L-60.4,236v7.1h7.4l0,0C-53,237.6-54.8,236-60.4,236z"/>
	<path id="XMLID_11359_" class="st3" d="M-60.4,286L-60.4,286c5.7,0,7.4-1.7,7.4-7.1h-7.4V286z"/>
	<path id="XMLID_11336_" class="st4" d="M-335.6,278.9v7.1h231c1.5-0.9,3.2-1.7,5-1.7c3.4,0,5.5,0.9,6.5,1.7h2
		c1.4-0.7,3.3-1.7,5.8-1.7c1.4,0.1,2.6,0.8,3.7,1.7h3.5h12.8h4.6v-7.1H-335.6z"/>
	<polygon id="XMLID_11333_" class="st5" points="-343,243.1 -343,255.9 -342.2,260.4 -343,262.8 -343,268.7 -340.3,271.7 
		-343,274.1 -343,278.9 -335.6,278.9 -335.6,243.1 	"/>
	<polygon id="XMLID_11329_" class="st4" points="-53,243.1 -60.4,243.1 -60.4,253.9 -60.4,253.9 -63.5,259.3 -62,262.1 -62,266.3 
		-60.4,268.7 -62,272 -60.4,273.5 -60.4,278.9 -53,278.9 -53,273.9 -53,265 -53,258.2 -54.8,256.8 -53,255.5 -53,252.5 -54.8,248.7 
		-53,245.9 	"/>
	<polygon class="st5" points="-306.5,236 -307,237.6 -307.3,236 -309.1,236 -309.8,239.3 -311,236 -314.5,236 -316.5,238.1 
		-321.9,236 -327.8,236 -332.6,236 -319.8,236 -335.6,236 -335.6,243.1 -318.6,243.1 -314.1,240.1 -312.7,243.1 -310.9,243.1 
		-308.5,242 -307.7,243.1 -60.4,243.1 -60.4,236 	"/>
</g>
<g>
	<path class="st6" d="M237,243.1L237,243.1c0-5.5-1.8-7.1-7.4-7.1H-16.5l-0.5,1.6l-0.3-1.6H-19l-0.7,3.3l-1.1-3.3h-3.5l-2,2.1
		l-5.4-2.1h-5.7h-4.8h12.6h-15.7c-5.7,0-7.4,1.6-7.4,7.1v12.8l0.8,4.5l-0.8,2.4v5.9l2.7,2.9l-2.7,2.4v4.8c0,5.5,1.8,7.1,7.4,7.1h231
		c1.5-0.9,3.2-1.7,5-1.7c3.4,0,5.5,0.9,6.5,1.7h2c1.4-0.7,3.3-1.7,5.8-1.7c1.4,0.1,2.6,0.8,3.7,1.7h3.5H225h4.6
		c5.7,0,7.4-1.7,7.4-7.1l0,0v-5v-8.9v-6.7l-1.8-1.4l1.8-1.2v-3l-1.8-3.8l1.8-2.8L237,243.1L237,243.1z"/>
	<path id="XMLID_7_" class="st1" d="M-45.6,236L-45.6,236c-5.7,0-7.4,1.6-7.4,7.1l0,0h7.4V236z"/>
	<path id="XMLID_6_" class="st2" d="M-53,278.9c0,5.5,1.8,7.1,7.4,7.1l0,0v-7.1H-53z"/>
	<path id="XMLID_5_" class="st2" d="M229.6,236L229.6,236v7.1h7.4l0,0C237,237.6,235.2,236,229.6,236z"/>
	<path id="XMLID_4_" class="st3" d="M229.6,286L229.6,286c5.7,0,7.4-1.7,7.4-7.1h-7.4V286z"/>
	<path id="XMLID_3_" class="st4" d="M-45.6,278.9v7.1h231c1.5-0.9,3.2-1.7,5-1.7c3.4,0,5.5,0.9,6.5,1.7h2c1.4-0.7,3.3-1.7,5.8-1.7
		c1.4,0.1,2.6,0.8,3.7,1.7h3.5h12.8h4.6v-7.1H-45.6z"/>
	<polygon id="XMLID_2_" class="st5" points="-53,243.1 -53,255.9 -52.2,260.4 -53,262.8 -53,268.7 -50.3,271.7 -53,274.1 -53,278.9 
		-45.6,278.9 -45.6,243.1 	"/>
	<polygon id="XMLID_1_" class="st4" points="237,243.1 229.6,243.1 229.6,253.9 229.6,253.9 226.5,259.3 228,262.1 228,266.3 
		229.6,268.7 228,272 229.6,273.5 229.6,278.9 237,278.9 237,273.9 237,265 237,258.2 235.2,256.8 237,255.5 237,252.5 235.2,248.7 
		237,245.9 	"/>
	<polygon class="st5" points="-16.5,236 -17,237.6 -17.3,236 -19.1,236 -19.8,239.3 -21,236 -24.5,236 -26.5,238.1 -31.9,236 
		-37.8,236 -42.6,236 -29.8,236 -45.6,236 -45.6,243.1 -28.6,243.1 -24.1,240.1 -22.7,243.1 -20.9,243.1 -18.5,242 -17.7,243.1 
		229.6,243.1 229.6,236 	"/>
</g>
</svg>
