<?xml version="1.0" encoding="utf-8"?>
<!-- Generator: Adobe Illustrator 19.0.0, SVG Export Plug-In . SVG Version: 6.00 Build 0)  -->
<svg version="1.1" id="Layer_1" xmlns="http://www.w3.org/2000/svg" xmlns:xlink="http://www.w3.org/1999/xlink" x="0px" y="0px"
	 width="90px" height="90px" viewBox="0 0 90 90" style="enable-background:new 0 0 90 90;" xml:space="preserve">
<style type="text/css">
	.st0{fill:#ECEDF0;}
	.st1{fill:#9EA5B5;}
	.st2{fill:#03D8BE;}
	.st3{fill:#477DB2;}
	.st4{fill:#FF8F43;}
	.st5{fill:#F42F2F;}
	.st6{fill:#FF5236;}
	.st7{fill:#A4E1F4;}
	.st8{fill:#224456;}
	.st9{fill:#2EE5CA;}
</style>
<g id="XMLID_12019_">
	<g id="cutlery_7_">
		<g id="railway_7_">
			<circle id="XMLID_12104_" class="st0" cx="45" cy="45" r="45"/>
		</g>
	</g>
	<g id="XMLID_12020_">
		<g id="XMLID_12102_">
			<rect id="XMLID_12103_" x="16.4" y="39.8" class="st1" width="1" height="31.9"/>
		</g>
		<g id="XMLID_12100_">
			<rect id="XMLID_12101_" x="69.1" y="25.8" class="st1" width="1" height="45.9"/>
		</g>
		<g id="XMLID_12098_">
			<rect id="XMLID_12099_" x="60.3" y="19.3" class="st1" width="1" height="52.4"/>
		</g>
		<g id="XMLID_12096_">
			<rect id="XMLID_12097_" x="51.5" y="20.5" class="st1" width="1" height="51.1"/>
		</g>
		<g id="XMLID_12094_">
			<rect id="XMLID_12095_" x="42.7" y="33.5" class="st1" width="1" height="38.1"/>
		</g>
		<g id="XMLID_12092_">
			<rect id="XMLID_12093_" x="34" y="45.7" class="st1" width="1" height="26"/>
		</g>
		<g id="XMLID_12090_">
			<rect id="XMLID_12091_" x="25.2" y="46.6" class="st1" width="1" height="25.1"/>
		</g>
		<g id="XMLID_12088_">
			<path id="XMLID_12089_" class="st2" d="M28.8,47.4L28.8,47.4c-5.4,0-10.1-3.1-12.3-8l0.9-0.4c2,4.6,6.4,7.4,11.4,7.4
				c5,0,9.4-2.8,11.4-7.4l5.6-12.6c2.2-4.9,6.9-8,12.3-8h0c5.4,0,10.1,3.1,12.3,8l-0.9,0.4c-2-4.6-6.4-7.4-11.4-7.4
				c-5,0-9.4,2.8-11.4,7.4l-5.6,12.6C38.9,44.4,34.2,47.4,28.8,47.4z"/>
		</g>
		<g id="XMLID_12086_">
			<path id="XMLID_12087_" class="st3" d="M28.8,48.9L28.8,48.9c-6,0-11.2-3.4-13.6-8.9c-0.4-1,0-2.1,1-2.6c1-0.4,2.1,0,2.6,1
				c1.8,4,5.7,6.6,10.1,6.6c4.4,0,8.3-2.5,10.1-6.6l5.6-12.6c2.4-5.5,7.7-8.8,13.6-8.8h0c6,0,11.2,3.4,13.6,8.9c0.4,1,0,2.1-1,2.6
				c-1,0.4-2.1,0-2.6-1c-1.8-4-5.7-6.6-10.1-6.6c-4.4,0-8.3,2.5-10.1,6.6L42.4,40C40,45.5,34.8,48.9,28.8,48.9z"/>
		</g>
		<g id="XMLID_12084_">
			<rect id="XMLID_12085_" x="14.5" y="67.8" class="st3" width="58.5" height="4.4"/>
		</g>
		<g id="XMLID_12063_">
			<g id="XMLID_12082_">
				<path id="XMLID_12083_" class="st4" d="M62.9,14.5h1.9v-3.8c0-0.2-0.2-0.4-0.4-0.4h0c-0.2,0-0.4,0.1-0.4,0.3L62.9,14.5z"/>
			</g>
			<g id="XMLID_12080_">
				<path id="XMLID_12081_" class="st4" d="M57.1,14.5h1.9v-3.7c0-0.2-0.2-0.4-0.4-0.4h0c-0.2,0-0.4,0.1-0.4,0.3L57.1,14.5z"/>
			</g>
			<g id="XMLID_12078_">
				<path id="XMLID_12079_" class="st5" d="M51.2,14.3l2.3-1v-1.6C53.5,11.7,51.2,13.4,51.2,14.3L51.2,14.3z"/>
			</g>
			<g id="XMLID_12076_">
				<path id="XMLID_12077_" class="st6" d="M54.5,17.2h7c1.8,0,3.3-0.4,3.3-2.3V13l-12.1,0.4L51.2,14v0.9
					C51.2,16.7,52.7,17.2,54.5,17.2z"/>
			</g>
			<g id="XMLID_12071_">
				<circle id="XMLID_12075_" class="st7" cx="61.3" cy="17.3" r="1.3"/>
				<path id="XMLID_12072_" class="st8" d="M61.3,19c-0.9,0-1.7-0.7-1.7-1.7c0-0.9,0.7-1.7,1.7-1.7s1.7,0.7,1.7,1.7
					C62.9,18.3,62.2,19,61.3,19z M61.3,16.3c-0.5,0-1,0.4-1,1s0.4,1,1,1s1-0.4,1-1S61.8,16.3,61.3,16.3z"/>
			</g>
			<g id="XMLID_12066_">
				<circle id="XMLID_12070_" class="st7" cx="54.9" cy="17.3" r="1.3"/>
				<path id="XMLID_12067_" class="st8" d="M54.9,19c-0.9,0-1.7-0.7-1.7-1.7c0-0.9,0.7-1.7,1.7-1.7s1.7,0.7,1.7,1.7
					C56.6,18.3,55.9,19,54.9,19z M54.9,16.3c-0.5,0-1,0.4-1,1s0.4,1,1,1s1-0.4,1-1S55.5,16.3,54.9,16.3z"/>
			</g>
			<g id="XMLID_12064_">
				<path id="XMLID_12065_" class="st9" d="M53.4,13.7h11.3c0.2,0,0.4-0.2,0.4-0.4v0c0-0.2-0.2-0.4-0.4-0.4H53.4
					c-0.2,0-0.4,0.2-0.4,0.4v0C52.9,13.5,53.1,13.7,53.4,13.7z"/>
			</g>
		</g>
		<g id="XMLID_12042_">
			<g id="XMLID_12061_">
				<path id="XMLID_12062_" class="st4" d="M48,16.6l1.2-1.4l-2.9-2.4c-0.2-0.1-0.4-0.1-0.6,0.1l0,0c-0.1,0.1-0.1,0.4,0,0.5L48,16.6
					z"/>
			</g>
			<g id="XMLID_12059_">
				<path id="XMLID_12060_" class="st4" d="M44.3,21.2l1.2-1.4l-2.9-2.4c-0.2-0.1-0.4-0.1-0.6,0.1l0,0c-0.1,0.1-0.1,0.4,0,0.5
					L44.3,21.2z"/>
			</g>
			<g id="XMLID_12057_">
				<path id="XMLID_12058_" class="st5" d="M40.5,25.6l0.7-2.4l-1.3-1C39.9,22.1,39.8,25,40.5,25.6L40.5,25.6z"/>
			</g>
			<g id="XMLID_12055_">
				<path id="XMLID_12056_" class="st6" d="M44.8,24.8l4.4-5.4c1.2-1.4,1.7-2.8,0.3-4L48,14.2l-7.4,9.6l-0.5,1.6l0.7,0.6
					C42.3,27.1,43.6,26.2,44.8,24.8z"/>
			</g>
			<g id="XMLID_12050_">
				<circle id="XMLID_12054_" class="st7" cx="49.2" cy="19.7" r="1.3"/>
				<path id="XMLID_12051_" class="st8" d="M49.2,21.4c-0.4,0-0.8-0.1-1.1-0.4c-0.3-0.3-0.6-0.7-0.6-1.1c0-0.4,0.1-0.9,0.4-1.2
					c0.6-0.7,1.7-0.8,2.3-0.2c0.3,0.3,0.6,0.7,0.6,1.1c0,0.4-0.1,0.9-0.4,1.2C50.1,21.2,49.7,21.4,49.2,21.4z M49.2,18.7
					c-0.3,0-0.6,0.1-0.8,0.4c-0.2,0.2-0.2,0.5-0.2,0.7c0,0.3,0.2,0.5,0.4,0.7c0.4,0.3,1.1,0.3,1.4-0.1c0.2-0.2,0.2-0.5,0.2-0.7
					c0-0.3-0.2-0.5-0.4-0.7C49.6,18.8,49.4,18.7,49.2,18.7z"/>
			</g>
			<g id="XMLID_12045_">
				<circle id="XMLID_12049_" class="st7" cx="45.1" cy="24.6" r="1.3"/>
				<path id="XMLID_12046_" class="st8" d="M45.1,26.3L45.1,26.3c-0.4,0-0.8-0.1-1.1-0.4c-0.3-0.3-0.6-0.7-0.6-1.1
					c0-0.4,0.1-0.9,0.4-1.2c0.6-0.7,1.7-0.8,2.3-0.2c0.7,0.6,0.8,1.6,0.2,2.3C46.1,26.1,45.6,26.3,45.1,26.3z M45.1,23.6
					c-0.3,0-0.6,0.1-0.8,0.4c-0.3,0.4-0.3,1.1,0.1,1.4c0.4,0.3,1.1,0.3,1.4-0.1c0.3-0.4,0.3-1.1-0.1-1.4
					C45.6,23.7,45.4,23.6,45.1,23.6z"/>
			</g>
			<g id="XMLID_12043_">
				<path id="XMLID_12044_" class="st9" d="M41.4,23.5l7.2-8.8c0.2-0.2,0.1-0.5-0.1-0.6l0,0C48.3,14,48,14,47.9,14.2L40.7,23
					c-0.2,0.2-0.1,0.5,0.1,0.6l0,0C40.9,23.8,41.2,23.7,41.4,23.5z"/>
			</g>
		</g>
		<g id="XMLID_12021_">
			<g id="XMLID_12040_">
				<path id="XMLID_12041_" class="st4" d="M40.1,29.8l0.9-1.7l-3.3-1.8c-0.2-0.1-0.5,0-0.6,0.2l0,0c-0.1,0.2-0.1,0.4,0.1,0.5
					L40.1,29.8z"/>
			</g>
			<g id="XMLID_12038_">
				<path id="XMLID_12039_" class="st4" d="M37.4,35l0.9-1.6L35,31.6c-0.2-0.1-0.5,0-0.6,0.2l0,0c-0.1,0.2-0.1,0.4,0.1,0.5L37.4,35z
					"/>
			</g>
			<g id="XMLID_12036_">
				<path id="XMLID_12037_" class="st5" d="M34.5,40l0.2-2.5l-1.4-0.8C33.2,36.7,33.7,39.6,34.5,40L34.5,40z"/>
			</g>
			<g id="XMLID_12034_">
				<path id="XMLID_12035_" class="st6" d="M38.5,38.4l3.3-6.2c0.9-1.6,1.2-3.1-0.4-4l-1.7-0.9l-5.3,10.8l-0.2,1.6l0.8,0.4
					C36.6,41.1,37.6,40,38.5,38.4z"/>
			</g>
			<g id="XMLID_12029_">
				<circle id="XMLID_12033_" class="st7" cx="41.8" cy="32.6" r="1.3"/>
				<path id="XMLID_12030_" class="st8" d="M41.8,34.2L41.8,34.2c-0.3,0-0.5-0.1-0.8-0.2c-0.8-0.4-1.1-1.4-0.7-2.2
					c0.4-0.8,1.5-1.1,2.2-0.7c0.4,0.2,0.7,0.6,0.8,1c0.1,0.4,0.1,0.9-0.1,1.3C43,33.9,42.5,34.2,41.8,34.2z M41.8,31.6
					c-0.4,0-0.7,0.2-0.9,0.5c-0.3,0.5-0.1,1.1,0.4,1.3c0.5,0.3,1.1,0.1,1.3-0.4c0.1-0.2,0.2-0.5,0.1-0.8c-0.1-0.3-0.2-0.5-0.5-0.6
					C42.2,31.6,42,31.6,41.8,31.6z"/>
			</g>
			<g id="XMLID_12024_">
				<circle id="XMLID_12028_" class="st7" cx="38.9" cy="38.2" r="1.3"/>
				<path id="XMLID_12025_" class="st8" d="M38.9,39.8L38.9,39.8c-0.3,0-0.5-0.1-0.8-0.2c-0.4-0.2-0.7-0.6-0.8-1
					c-0.1-0.4-0.1-0.9,0.1-1.3c0.4-0.8,1.5-1.1,2.2-0.7c0.4,0.2,0.7,0.6,0.8,1c0.1,0.4,0.1,0.9-0.1,1.3C40,39.5,39.5,39.8,38.9,39.8
					z M38.9,37.2c-0.4,0-0.7,0.2-0.9,0.5c-0.1,0.2-0.2,0.5-0.1,0.8c0.1,0.3,0.2,0.5,0.5,0.6c0.5,0.3,1.1,0.1,1.4-0.4
					c0.1-0.2,0.2-0.5,0.1-0.8c-0.1-0.3-0.2-0.5-0.5-0.6C39.2,37.2,39,37.2,38.9,37.2z"/>
			</g>
			<g id="XMLID_12022_">
				<path id="XMLID_12023_" class="st9" d="M34.9,37.9l5.4-10c0.1-0.2,0-0.5-0.2-0.6l0,0c-0.2-0.1-0.5,0-0.6,0.2l-5.4,10
					c-0.1,0.2,0,0.5,0.2,0.6l0,0C34.6,38.1,34.8,38.1,34.9,37.9z"/>
			</g>
		</g>
	</g>
</g>
</svg>
