<?xml version="1.0" encoding="utf-8"?>
<!-- Generator: Adobe Illustrator 19.0.0, SVG Export Plug-In . SVG Version: 6.00 Build 0)  -->
<svg version="1.1" id="Layer_1" xmlns="http://www.w3.org/2000/svg" xmlns:xlink="http://www.w3.org/1999/xlink" x="0px" y="0px"
	 width="310px" height="310px" viewBox="-304 106 310 310" style="enable-background:new -304 106 310 310;" xml:space="preserve">
<style type="text/css">
	.st0{fill:#71E3CE;}
	.st1{opacity:0.8;clip-path:url(#SVGID_2_);fill:#FFFFFF;enable-background:new    ;}
	.st2{opacity:0.8;clip-path:url(#SVGID_4_);fill:#FFFFFF;enable-background:new    ;}
	.st3{clip-path:url(#SVGID_6_);fill:#B0CD5F;}
	.st4{clip-path:url(#SVGID_8_);fill:#F2F2F2;}
	.st5{clip-path:url(#SVGID_10_);fill:#F2F2F2;}
	.st6{opacity:0.1;clip-path:url(#SVGID_12_);enable-background:new    ;}
	.st7{clip-path:url(#SVGID_14_);}
	.st8{fill:#477DB2;}
	.st9{opacity:0.6;fill:#975400;enable-background:new    ;}
	.st10{fill:#7BBDFF;}
	.st11{fill:#C2A0E8;}
	.st12{opacity:0.5;fill:#FFEEA9;enable-background:new    ;}
	.st13{opacity:0.5;fill:#8A5000;enable-background:new    ;}
	.st14{fill:#9D7EC4;}
	.st15{fill:#EA4E2A;}
	.st16{fill:#FFB883;}
	.st17{opacity:0.3;fill:#8A5000;enable-background:new    ;}
	.st18{fill:#FFEEA9;}
	.st19{fill:#774523;}
	.st20{fill:#5185A5;}
	.st21{fill:#7DB7E2;}
	.st22{fill:#AF4F88;}
	.st23{fill:#C9B977;}
	.st24{fill:#97FBFF;}
	.st25{opacity:0.6;fill:#BBFBFF;enable-background:new    ;}
	.st26{fill:#FF5236;}
	.st27{fill:#C192FF;}
	.st28{fill:#FF8F43;}
	.st29{opacity:0.5;fill:#EC8AFF;enable-background:new    ;}
	.st30{fill:#9B2823;}
	.st31{fill:#FFCA08;}
	.st32{fill:#81D1EA;}
	.st33{fill:#FFA77B;}
	.st34{fill:#C562F9;}
	.st35{fill:#C9E565;}
	.st36{fill:#A85A38;}
	.st37{fill:#724621;}
	.st38{opacity:0.25;}
	.st39{fill:#FFFFFF;}
</style>
<circle id="XMLID_7866_" class="st0" cx="-149" cy="261" r="143.7"/>
<g id="XMLID_6815_">
	<g>
		<defs>
			<circle id="SVGID_1_" cx="-149" cy="261" r="143.7"/>
		</defs>
		<clipPath id="SVGID_2_">
			<use xlink:href="#SVGID_1_"  style="overflow:visible;"/>
		</clipPath>
		<path id="XMLID_6994_" class="st1" d="M-6.3,174.2c0,0-1.7-8.3-15-5c0,0-22.1-50.1-44.7-4.7c0,0-14.7-13.3-17.3,4.9
			c0,0-12.4-4.3-16.5,4.9L-6.3,174.2z"/>
	</g>
	<g>
		<defs>
			<circle id="SVGID_3_" cx="-149" cy="261" r="143.7"/>
		</defs>
		<clipPath id="SVGID_4_">
			<use xlink:href="#SVGID_3_"  style="overflow:visible;"/>
		</clipPath>
		<path id="XMLID_7865_" class="st2" d="M-309.5,254.8c0,0,2.9-13.7,24.9-8.3c0,0,36.6-83,74.1-7.8c0,0,24.4-22.1,28.7,8.1
			c0,0,20.6-7.1,27.4,8.1L-309.5,254.8z"/>
	</g>
	<g>
		<defs>
			<circle id="SVGID_5_" cx="-149" cy="261" r="143.7"/>
		</defs>
		<clipPath id="SVGID_6_">
			<use xlink:href="#SVGID_5_"  style="overflow:visible;"/>
		</clipPath>
		<path id="XMLID_7852_" class="st3" d="M-236.9,299.2l176-4c0,0,138.1,33.6,151.2,50.5c9.6,12.5-70.1,53.2-93.8,62.3
			c-40.2,15.6-227.7,40.2-240.5,39.9c-81.7-1.9-140.2-79.7-127.6-109.2C-366.6,326.8-236.9,299.2-236.9,299.2z"/>
	</g>
	<g>
		<defs>
			<circle id="SVGID_7_" cx="-149" cy="261" r="143.7"/>
		</defs>
		<clipPath id="SVGID_8_">
			<use xlink:href="#SVGID_7_"  style="overflow:visible;"/>
		</clipPath>
		<ellipse id="XMLID_6808_" class="st4" cx="-144.5" cy="328.5" rx="163.9" ry="17.7"/>
	</g>
	<g>
		<defs>
			<circle id="SVGID_9_" cx="-149" cy="261" r="143.7"/>
		</defs>
		<clipPath id="SVGID_10_">
			<use xlink:href="#SVGID_9_"  style="overflow:visible;"/>
		</clipPath>
		<polygon id="XMLID_6804_" class="st5" points="-19.7,436.3 -272.3,436.3 -161.6,333.2 -130.3,333.2 		"/>
	</g>
	<g>
		<defs>
			<circle id="SVGID_11_" cx="-149" cy="261" r="143.7"/>
		</defs>
		<clipPath id="SVGID_12_">
			<use xlink:href="#SVGID_11_"  style="overflow:visible;"/>
		</clipPath>
		<ellipse id="XMLID_6814_" class="st6" cx="-144.5" cy="325.1" rx="163.9" ry="14.4"/>
	</g>
	<g>
		<defs>
			<circle id="SVGID_13_" cx="-149" cy="261" r="143.7"/>
		</defs>
		<clipPath id="SVGID_14_">
			<use xlink:href="#SVGID_13_"  style="overflow:visible;"/>
		</clipPath>
		<g id="XMLID_7003_" class="st7">
			<rect id="XMLID_7654_" x="-272.7" y="319.5" class="st8" width="5.4" height="8.8"/>
			<rect id="XMLID_7653_" x="-246.8" y="319.5" class="st8" width="5.4" height="8.8"/>
			<path id="XMLID_7652_" class="st9" d="M-14.7,330.6c-12.5-3.9-266.5-3.3-274.5-0.3C-281.5,335.1-24,334.2-14.7,330.6z"/>
			<rect id="XMLID_7651_" x="-92.7" y="176.1" class="st8" width="2.4" height="154.4"/>
			<rect id="XMLID_7650_" x="-271.3" y="263.5" class="st8" width="2.4" height="67.5"/>
			<path id="XMLID_7649_" class="st8" d="M-48,168.6c-16.6-5.7-37.4,15.9-48.1,46.2c-9.5,26.8-7.1,30.1,1,7.1
				c10.7-30.3,28.9-52.8,41.9-48.3c12.9,4.4,12.4,35.5,1.7,65.8c-6,16.9-22.1,37.2-37.4,51.1c19.8-12.6,42.2-34.9,48.9-53.9
				C-29.3,206.2-31.4,174.2-48,168.6z"/>
			<path id="XMLID_7648_" class="st10" d="M-41.9,236.5c5.5-16.2,7.4-32.9,5.6-45.8l-7.2,3.6c0.4,12.3-3.1,29-8.4,44.7
				c-4.7,13.8-16.8,30.2-28.6,43.2h3C-62,269.5-47.1,251.9-41.9,236.5z"/>
			<g id="XMLID_7646_">
				<path id="XMLID_7647_" class="st8" d="M-120.1,258.2c-6.9,7.4-40.8,13.8-77.2,22.9c-26.1,6.5-53.8,7.4-74.4,12.1
					c20.4-2.1,47.5-0.3,73.2-6.6c41.5-10.3,80.6-14.9,79.2-26.2C-119.5,259.6-119.7,258.9-120.1,258.2z"/>
			</g>
			<path id="XMLID_7645_" class="st8" d="M-237.2,307.9c-20.9-1.6-36.7-4.3-36.6-9.5c0.1-3.4,8.9-6.2,22-7.6
				c-19.5,1.2-33.5,4.8-33.6,9.3c-0.1,5.9,22.9,11,51.4,11.6C-222.3,311.6-227.5,309.9-237.2,307.9z"/>
			<polygon id="XMLID_7644_" class="st11" points="-108.2,295.4 -17.3,288.5 -29.4,331.1 -105,331.1 			"/>
			<g id="XMLID_7639_">
				<polygon id="XMLID_7643_" class="st12" points="-29.9,331.1 -18,288.7 -19.7,288.7 -30.4,289.5 -33.6,331.1 				"/>
				<polygon id="XMLID_7642_" class="st12" points="-39.7,331.1 -43.6,290.5 -50.2,291 -46.9,327.3 				"/>
				<polygon id="XMLID_7641_" class="st12" points="-63.5,329.6 -61.5,291.9 -66.2,292.2 -70.4,331.1 				"/>
				<polygon id="XMLID_7640_" class="st12" points="-80.5,331.1 -75.8,293 -89.9,294 -88.3,331.1 				"/>
			</g>
			<path id="XMLID_7638_" class="st13" d="M-65.5,331c9.7-4.2,9.2-23.3,9.2-23.3s4.6,22.3,19.3,23.2L-65.5,331z"/>
			<path id="XMLID_7637_" class="st14" d="M-57.5,318.9c0,0-8.7,13.6-14.1,10.1c0,0,1.8,3,6.6,2C-60.4,330-58,324.1-57.5,318.9z"/>
			<path id="XMLID_7636_" class="st13" d="M-63.7,331.1c8-4.2,7.6-23.3,7.6-23.3s3.9,22.3,16,23.2L-63.7,331.1z"/>
			<polygon id="XMLID_7635_" class="st13" points="-18,291.3 -104.1,300.9 -94.3,328.7 -21.4,303.7 			"/>
			<path id="XMLID_7634_" class="st15" d="M-65.8,264.2c16.3,12.7,29.9,18.2,53.9,25.5l-99.4,11.3
				C-89.5,288.1-73.4,276.6-65.8,264.2z"/>
			<g id="XMLID_7631_">
				<path id="XMLID_7633_" class="st16" d="M-45.9,293.5l22.1-2.5c0,0-23.8-5.1-42-26.8c-0.1,0.1-0.2,0.3-0.3,0.4c0,0.1,0,0.2,0,0.3
					C-63.7,271-57.5,284.8-45.9,293.5z"/>
				<path id="XMLID_7632_" class="st16" d="M-71.7,296.4c4.8-13,5.6-25.2,5.7-31.6c0-0.1,0-0.2,0-0.3c-1,1.5-2,3-3.2,4.5
					c-4.8,10-14,21.4-21,29.5L-71.7,296.4z"/>
			</g>
			<rect id="XMLID_7630_" x="-245.2" y="287.9" class="st8" width="2.4" height="39.4"/>
			<rect id="XMLID_7629_" x="-136.4" y="263.5" class="st8" width="2.4" height="67.5"/>
			<rect id="XMLID_7628_" x="-166.8" y="223.7" class="st8" width="1.6" height="106.7"/>
			<rect id="XMLID_7627_" x="-115.1" y="186.5" class="st8" width="2.4" height="144"/>
			<rect id="XMLID_7626_" x="-210.2" y="169.7" class="st8" width="2.4" height="160.7"/>
			<path id="XMLID_7625_" class="st8" d="M-99.9,154.1c-8.6-1.1-18.8,18.5-22.1,43.9c-1.5,11.6-3.9,26.2-4.6,38.5
				c4.7-9.4,11.4-21.1,13.6-31.5c5-22.9,8.7-40.7,13.8-40.1c5.1,0.6,8.3,20.9,3.6,43.1c-0.8,5.8-15.5,66.8-46.2,52.5
				c-14.6-6.8-23.5-26.6-24.3-49.6c-0.2-5.8-2.5,1.7-2.1,8.2c1.3,22.2,10.2,39.8,24.4,46.4c33,15.3,51-41.7,53-63.6
				C-87.5,176.5-91.3,155.2-99.9,154.1z"/>
			<path id="XMLID_7624_" class="st8" d="M-99,153.6c-8.6-1.1-18.7,18.5-22.1,43.9c-1.5,11.6-3.9,26.2-4.6,38.5
				c4.7-9.4,11.4-21.1,13.6-31.5c5-22.9,8.7-40.7,13.8-40.1c5.1,0.6,8.3,20.9,3.6,43.1c-0.8,5.8-15.5,66.8-46.2,52.5
				c-14.6-6.8-23.5-26.6-24.3-49.6c-0.2-5.8-2.5,1.7-2.1,8.2c1.3,22.2,10.2,39.8,24.4,46.4c33,15.3,51-41.7,53-63.6
				C-86.6,176.1-90.4,154.7-99,153.6z"/>
			<path id="XMLID_7623_" class="st8" d="M-191.2,229.8c-12.3-20.3-35.4-23.2-53.1-7.5c16.9-11.1,36.8-7,48,11.4
				c10.5,17.3,9.7,40.4-0.1,59.6c-2.5,4.9,3.7,1.5,6.3-4C-181.1,270.3-181,246.6-191.2,229.8z"/>
			<path id="XMLID_7622_" class="st8" d="M-210.8,301.8c20.7-1,28.5-21.5,22.3-33.9c-0.2,17.7-12.2,28.9-23.4,28.4
				c-11.1-0.4-16.6-10.9-17.5-26.4c-0.3-5.9-3-16.3-4-10.5C-232.3,291.4-223.9,301.4-210.8,301.8z"/>
			<path id="XMLID_7621_" class="st8" d="M-209.6,301.5c20.7-1,28.5-21.5,22.3-33.9c-0.2,17.7-12.2,28.9-23.4,28.4
				c-11.1-0.4-16.6-10.9-17.5-26.4c-0.3-5.9-3-16.3-4-10.5C-231.1,291.2-222.7,301.2-209.6,301.5z"/>
			<path id="XMLID_7620_" class="st10" d="M-119.6,186.4c-23.6,116-128.9,103.7-142.8,85c-15.2-20.4,17.5-50.4,30.2-56.3
				c-31,8.5-45.9,46.7-36.3,60c11.9,26.7,133.6,33.5,153-69.9C-115.5,198.7-116.7,193.9-119.6,186.4z"/>
			<path id="XMLID_7619_" class="st17" d="M-184.6,275.9c-15,5.8-28.2,7.9-41.4,7.5c14.1,2.8,30.2,3.2,46.8-0.7
				c12.2-5.2,23.7-12.1,30.5-19.3C-156.4,269-171.2,273.4-184.6,275.9z"/>
			<path id="XMLID_7618_" class="st8" d="M-226.6,195.2c17.7-59,55.8-57.8,61.9,19.8c0.5,6.8-1.2,10.1-2.3,4.2
				c-14.5-76.7-37.5-64.8-53.4-23c-8.1,21.4-9.6,62.9-6.4,82.5c0.7,4.2-3.3-4.6-4.1-9.5C-234.1,249-234,220.1-226.6,195.2z"/>
			<path id="XMLID_7617_" class="st10" d="M-228.3,194.8c17.7-59,55.8-57.8,61.9,19.8c0.5,6.8-1.2,10.1-2.3,4.2
				c-14.5-76.7-37.5-64.8-53.4-23c-8.1,21.4-9.6,62.9-6.4,82.5c0.7,4.2-3.3-4.6-4.1-9.5C-235.8,248.5-235.7,219.6-228.3,194.8z"/>
			<path id="XMLID_7616_" class="st15" d="M-11.9,289.6l-7.7,0.3l0.1,4.4c3,0.7,5.7,0.3,8.9-1.3L-11.9,289.6z"/>
			<path id="XMLID_7615_" class="st15" d="M-28,290.9l-9.6,1.5l0.9,4.8c4,1,6.7,0.7,8.9-1.3L-28,290.9z"/>
			<path id="XMLID_7614_" class="st15" d="M-46.6,292.9l-9.1,1.2l1.2,5.8c3.7,0.9,5.9,0.9,8.9-1.3L-46.6,292.9z"/>
			<path id="XMLID_7613_" class="st15" d="M-64.5,295.4l-9.1,1.2l1.2,5.8c3.9,0.8,6.2,0.5,8.9-1.2L-64.5,295.4z"/>
			<path id="XMLID_7612_" class="st15" d="M-83,297.7l-8.6,0.3l1.4,6.8c3.8,0.8,5.9,0.6,8.9-1.3L-83,297.7z"/>
			<path id="XMLID_7611_" class="st18" d="M-19.6,289.6l-9.1,1.4l0.6,5c3.7,0.3,5.9,0.1,8.9-1.7L-19.6,289.6z"/>
			<path id="XMLID_7610_" class="st18" d="M-37.2,292.2l-9.5,1.1l1.1,5.5c3.7,0.7,6.1,0.7,9.1-1.4L-37.2,292.2z"/>
			<path id="XMLID_7609_" class="st18" d="M-55.2,294l-10,1.4l1.8,5.7c3.3,0.8,5.8,0.3,9.1-1.4L-55.2,294z"/>
			<path id="XMLID_7608_" class="st18" d="M-73.2,296.2l-10,1.4l1.8,5.7c3.6,1,5.7,0.7,9.2-0.9L-73.2,296.2z"/>
			<path id="XMLID_7607_" class="st18" d="M-91.1,299l-10,1.4l1.8,5.7c3.6,0.7,7.7,0.9,9.1-1.4L-91.1,299z"/>
			<path id="XMLID_7606_" class="st8" d="M-107.5,292.1c-55.5,28.4-71.4,20.4-151.3,13.7l-0.8,4.1c97.7,8.5,109.9,12,155-15.7
				L-107.5,292.1z"/>
			<path id="XMLID_7605_" class="st10" d="M-236,306.4c-20.9-1.6-36.7-4.3-36.6-9.5c0.1-3.4,8.9-6.2,22-7.6
				c-19.5,1.2-33.5,4.8-33.6,9.3c-0.1,5.9,22.9,11,51.4,11.6C-221.1,310.2-226.3,308.5-236,306.4z"/>
			<path id="XMLID_7604_" class="st10" d="M-106.3,290.7c-55.5,28.4-71.4,20.4-151.3,13.7l-0.8,4.1c97.7,8.5,109.9,12,155-15.7
				L-106.3,290.7z"/>
			<polygon id="XMLID_7603_" class="st19" points="-137.4,304.5 -146.7,303.9 -147,320.7 -136.7,320.7 			"/>
			<polygon id="XMLID_7602_" class="st12" points="-141.4,305.8 -146.2,305.1 -146.3,322 -141.1,322 			"/>
			<polygon id="XMLID_7601_" class="st16" points="-95,296.7 -139.8,293.9 -139.8,322.5 -95.8,323.2 			"/>
			<polygon id="XMLID_7600_" class="st15" points="-81,318.1 -92.1,314.9 -93.1,298.8 -95.3,297.4 -97.3,326.4 -78.3,326.2 			"/>
			<polygon id="XMLID_7599_" class="st13" points="-98.2,318 -137.6,316 -137.9,318.8 -98.4,320.2 			"/>
			<polygon id="XMLID_7598_" class="st20" points="-97.1,301.7 -137.4,297.9 -137.7,315.1 -98.2,317.6 			"/>
			<polygon id="XMLID_7597_" class="st21" points="-98,302 -136.4,298.4 -136.7,314.7 -99.1,317.1 			"/>
			<rect id="XMLID_7596_" x="-275.7" y="326.1" class="st22" width="208.7" height="5.1"/>
			<rect id="XMLID_7595_" x="-275.7" y="326.1" class="st16" width="208.7" height="2.6"/>
			<polygon id="XMLID_7594_" class="st15" points="-81,320.1 -220.1,314.1 -216.6,326.2 -79.4,326 			"/>
			<polygon id="XMLID_7593_" class="st13" points="-88.9,319.8 -220.1,314.1 -218,321 -87.6,324.3 			"/>
			<polygon id="XMLID_7592_" class="st12" points="-114.8,299.9 -130.2,315.4 -137.7,315.1 -137.7,310.2 -127.5,298.8 			"/>
			<polygon id="XMLID_7591_" class="st12" points="-109.1,300.3 -121.2,316 -108.1,316.8 -99.8,301.4 			"/>
			<polygon id="XMLID_7590_" class="st13" points="-93,296.9 -140.1,294.4 -139.9,302.2 -96,307.1 -96.7,319.1 -92.7,307.5 			"/>
			<polygon id="XMLID_7589_" class="st18" points="-93.7,287 -137.2,275.4 -146,294.9 -89.1,301 			"/>
			<polygon id="XMLID_7588_" class="st15" points="-94.5,285.7 -138.2,274.2 -146.3,295 -90,299.9 			"/>
			<path id="XMLID_7587_" class="st12" d="M-136.7,273.7l-8.1,20.8l1.6,0.1c11.3-2.4,38.8-8,48.1-10L-136.7,273.7z"/>
			<path id="XMLID_7586_" class="st15" d="M-66.6,255.1c1.7,4.7,14,18.2,14,18.2c-10.3-0.5-24.8,4.2-24.8,4.2
				S-67.3,261.7-66.6,255.1z"/>
			<path id="XMLID_7585_" class="st18" d="M-66.4,256.4c1.5,4.2,12.3,16.1,12.3,16.1c-9.1-0.4-21.9,3.8-21.9,3.8
				S-67.1,262.3-66.4,256.4z"/>
			<g id="XMLID_7583_">
				<path id="XMLID_7584_" class="st15" d="M-66.6,255.1c-0.3,3-2.5,7.8-4.7,12.2c3.3-0.9,7.9-1.5,11.9-1.9
					C-62.4,261.7-65.8,257.3-66.6,255.1z"/>
			</g>
			<polygon id="XMLID_7582_" class="st16" points="-89.1,319.6 -222.6,312.4 -221,317.9 -89.2,321.8 			"/>
			<path id="XMLID_7581_" class="st14" d="M-51,320.9c0,0,13.2,11.7,18.6,7.1c0,0-1.6,3.4-7.1,3.1C-45,330.8-49.1,325.8-51,320.9z"
				/>
			
				<ellipse id="XMLID_7580_" transform="matrix(-7.739280e-02 -0.997 0.997 -7.739280e-02 -367.832 276.0208)" class="st23" cx="-56.2" cy="308.2" rx="1.3" ry="0.9"/>
			<ellipse id="XMLID_7579_" class="st16" cx="-89.7" cy="308.3" rx="1.1" ry="1.1"/>
			<ellipse id="XMLID_7578_" class="st16" cx="-66" cy="305.8" rx="1.1" ry="1.1"/>
			<ellipse id="XMLID_7577_" class="st16" cx="-57.8" cy="304.1" rx="1.1" ry="1.1"/>
			<ellipse id="XMLID_7576_" class="st16" cx="-49.6" cy="303.1" rx="1.1" ry="1.1"/>
			<ellipse id="XMLID_7575_" class="st16" cx="-41.6" cy="301.6" rx="1.1" ry="1.1"/>
			<ellipse id="XMLID_7574_" class="st16" cx="-32.6" cy="300.4" rx="1.1" ry="1.1"/>
			<ellipse id="XMLID_7573_" class="st16" cx="-23.3" cy="299" rx="1.1" ry="1.1"/>
			<ellipse id="XMLID_7572_" class="st16" cx="-13.6" cy="296.9" rx="1.1" ry="1.1"/>
			<ellipse id="XMLID_7571_" class="st16" cx="-81.1" cy="307.1" rx="1.1" ry="1.1"/>
			<ellipse id="XMLID_7570_" class="st16" cx="-73.4" cy="306.6" rx="1.1" ry="1.1"/>
			<path id="XMLID_7569_" class="st24" d="M-58.9,326.9l10-0.4c0,0-6.1-9.2-6.7-12.9C-56.3,310-54.5,322-58.9,326.9z"/>
			<path id="XMLID_7568_" class="st25" d="M-52.4,321.3l-2.8,5.6H-59c0,0,3.7-3.5,3.1-13.7L-52.4,321.3z"/>
			<polygon id="XMLID_7567_" class="st17" points="-56.5,321.3 -52.4,321.3 -55.8,313.2 			"/>
			<path id="XMLID_7566_" class="st8" d="M-115.8,315.8l6.2,0.3C-109.2,309.8-114.4,308.4-115.8,315.8z"/>
			<polygon id="XMLID_7565_" class="st13" points="-213.8,314.5 -220,314 -219.2,316.7 -214,316.7 			"/>
			<polygon id="XMLID_7564_" class="st13" points="-206,314.9 -212.2,314.4 -211.4,317.1 -206.2,317.1 			"/>
			<polygon id="XMLID_7563_" class="st13" points="-197.6,315.2 -203.8,314.8 -203,317.5 -197.8,317.5 			"/>
			<polygon id="XMLID_7562_" class="st13" points="-189.2,315.6 -195.4,315.1 -194.6,317.8 -189.4,317.8 			"/>
			<polygon id="XMLID_7561_" class="st13" points="-180.8,315.6 -187,315.1 -186.2,317.8 -181,317.8 			"/>
			<polygon id="XMLID_7560_" class="st13" points="-171.7,316.1 -177.9,315.6 -177.1,318.3 -171.9,318.3 			"/>
			<polygon id="XMLID_7559_" class="st13" points="-163.9,316.8 -168.8,316.4 -168.1,318.6 -164.1,318.6 			"/>
			<polygon id="XMLID_7558_" class="st13" points="-156.3,317.2 -161.2,316.8 -160.5,319 -156.5,319 			"/>
			<polygon id="XMLID_7557_" class="st13" points="-147.9,317.5 -152.9,317.1 -152.2,319.3 -148.1,319.3 			"/>
			<polygon id="XMLID_7556_" class="st13" points="-140,317.9 -145,317.5 -144.3,319.7 -140.2,319.7 			"/>
			<polygon id="XMLID_7555_" class="st13" points="-90.8,320 -95.7,319.7 -95,321 -91,321.1 			"/>
			<polygon id="XMLID_7554_" class="st12" points="-130.2,278.2 -134.3,293.8 -132.1,294 -129,278.5 			"/>
			<polygon id="XMLID_7553_" class="st12" points="-121.2,280.6 -123.4,294.4 -121.5,294.5 -120.1,280.7 			"/>
			<polygon id="XMLID_7552_" class="st12" points="-111.7,283.4 -111.7,295.5 -110.1,295.3 -110.8,283.4 			"/>
			<polygon id="XMLID_7551_" class="st12" points="-102.7,285 -100.5,296.9 -98.9,296.4 -101.8,284.8 			"/>
			<polygon id="XMLID_7550_" class="st15" points="-67.8,246.5 -68.3,246.6 -66.3,259 -65.9,258.9 			"/>
			<polygon id="XMLID_7549_" class="st15" points="-68.3,246.6 -60.1,247.9 -61.9,249.1 -60,252.3 -67.3,251.2 			"/>
			<g id="XMLID_7546_">
				<path id="XMLID_7548_" class="st8" d="M-116.5,195.9c-0.2,2.5-0.5,4.9-0.5,7.6c-19.4,103.3-138,96.4-149.9,69.7
					c-6.2-8.6-2.2-27.5,9.7-42.1c-13.2,14.9-17.8,35.1-11.3,44c11.9,26.7,133.6,33.5,153-69.9C-115.5,201.8-115.8,198.9-116.5,195.9
					z"/>
				<path id="XMLID_7547_" class="st8" d="M-232.2,215.1c-1.2,0.3-2.4,0.7-3.5,1.1c-5.4,3.7-12.1,9.5-17.7,16.3
					C-246.2,224.2-237.5,217.5-232.2,215.1z"/>
			</g>
			<g id="XMLID_7543_">
				<path id="XMLID_7545_" class="st10" d="M-99.9,154.1c-8.6-1.1-18.9,18.8-22.2,44.2c-1,7.8-5.2,17-6.2,26
					c-5,31.9,12.9-15.9,14.2-22c5-22.9,10-39.1,15.1-38.5C-95.9,158.4-97.1,154.5-99.9,154.1z"/>
				<path id="XMLID_7544_" class="st17" d="M-122.1,224.1l-9.4-0.4c0,0,12.5-40.6,14.8-50c0,0,3.4-6.1,3.8-7.4
					c2.8-2.7,8.7-5.4,10.3-0.1c-3.7,4.4-9,23.7-11.6,36.3C-115.4,206.7-121.3,222.5-122.1,224.1z"/>
			</g>
			<g id="XMLID_7541_">
				<path id="XMLID_7542_" class="st8" d="M-168.7,218.8c1.1,5.9,2.9,2.6,2.3-4.2c-3.4-42.9-16.6-62.5-30.6-61.4v9.6
					C-186.8,162-176.5,177.6-168.7,218.8z"/>
			</g>
			<ellipse id="XMLID_7540_" class="st18" cx="-248.3" cy="309.4" rx="1.4" ry="1.3"/>
			<ellipse id="XMLID_7539_" class="st18" cx="-254.9" cy="308.8" rx="1.4" ry="1.3"/>
			<ellipse id="XMLID_7538_" class="st18" cx="-261.8" cy="307.8" rx="1.4" ry="1.3"/>
			<ellipse id="XMLID_7537_" class="st18" cx="-268.1" cy="306.9" rx="1.4" ry="1.3"/>
			<ellipse id="XMLID_7536_" class="st18" cx="-261.3" cy="280.6" rx="1.4" ry="1.3"/>
			<ellipse id="XMLID_7535_" class="st18" cx="-252.9" cy="285" rx="1.4" ry="1.3"/>
			<ellipse id="XMLID_7534_" class="st18" cx="-244.7" cy="287.4" rx="1.4" ry="1.3"/>
			<ellipse id="XMLID_7533_" class="st18" cx="-235.7" cy="289.6" rx="1.4" ry="1.3"/>
			<ellipse id="XMLID_7532_" class="st18" cx="-226.3" cy="289.9" rx="1.4" ry="1.3"/>
			<ellipse id="XMLID_7531_" class="st18" cx="-216.4" cy="290.5" rx="1.4" ry="1.3"/>
			<ellipse id="XMLID_7530_" class="st18" cx="-207.4" cy="289.7" rx="1.4" ry="1.3"/>
			<ellipse id="XMLID_7529_" class="st18" cx="-197.7" cy="288.6" rx="1.4" ry="1.3"/>
			<ellipse id="XMLID_7528_" class="st18" cx="-188.1" cy="286.1" rx="1.4" ry="1.3"/>
			<ellipse id="XMLID_7527_" class="st18" cx="-177.8" cy="282.8" rx="1.4" ry="1.3"/>
			<ellipse id="XMLID_7526_" class="st18" cx="-168.8" cy="277.9" rx="1.4" ry="1.3"/>
			<ellipse id="XMLID_7525_" class="st18" cx="-158.8" cy="272.4" rx="1.4" ry="1.3"/>
			<ellipse id="XMLID_7524_" class="st18" cx="-150.5" cy="266" rx="1.4" ry="1.3"/>
			<ellipse id="XMLID_7523_" class="st18" cx="-143.1" cy="259.3" rx="1.4" ry="1.3"/>
			<ellipse id="XMLID_7522_" class="st18" cx="-136.4" cy="251.6" rx="1.4" ry="1.3"/>
			<ellipse id="XMLID_7521_" class="st18" cx="-130.3" cy="242.8" rx="1.4" ry="1.3"/>
			<ellipse id="XMLID_7520_" class="st18" cx="-125.1" cy="233.4" rx="1.4" ry="1.3"/>
			<ellipse id="XMLID_7519_" class="st18" cx="-120.3" cy="223.2" rx="1.4" ry="1.3"/>
			<ellipse id="XMLID_7518_" class="st18" cx="-115.9" cy="211.7" rx="1.4" ry="1.3"/>
			<ellipse id="XMLID_7517_" class="st18" cx="-112.4" cy="200.7" rx="1.4" ry="1.3"/>
			<ellipse id="XMLID_7516_" class="st18" cx="-109.7" cy="189.5" rx="1.4" ry="1.3"/>
			<ellipse id="XMLID_7515_" class="st18" cx="-106.8" cy="178.6" rx="1.4" ry="1.3"/>
			<ellipse id="XMLID_7514_" class="st18" cx="-104.2" cy="168.6" rx="1.4" ry="1.3"/>
			<ellipse id="XMLID_7513_" class="st18" cx="-97.6" cy="163.7" rx="1.4" ry="1.3"/>
			<ellipse id="XMLID_7512_" class="st18" cx="-266.1" cy="275.4" rx="1.4" ry="1.3"/>
			<ellipse id="XMLID_7511_" class="st18" cx="-269" cy="268.6" rx="1.4" ry="1.3"/>
			<ellipse id="XMLID_7510_" class="st18" cx="-228.7" cy="273.5" rx="1.4" ry="1.3"/>
			<ellipse id="XMLID_7509_" class="st18" cx="-229.2" cy="264.1" rx="1.4" ry="1.3"/>
			<ellipse id="XMLID_7508_" class="st18" cx="-229.2" cy="253.8" rx="1.4" ry="1.3"/>
			<ellipse id="XMLID_7507_" class="st18" cx="-229.2" cy="244.2" rx="1.4" ry="1.3"/>
			<ellipse id="XMLID_7506_" class="st18" cx="-229" cy="235" rx="1.4" ry="1.3"/>
			<ellipse id="XMLID_7505_" class="st18" cx="-228.4" cy="225.5" rx="1.4" ry="1.3"/>
			<ellipse id="XMLID_7504_" class="st18" cx="-227.1" cy="216.1" rx="1.4" ry="1.3"/>
			<ellipse id="XMLID_7503_" class="st18" cx="-224.4" cy="205.1" rx="1.4" ry="1.3"/>
			<ellipse id="XMLID_7502_" class="st18" cx="-220.9" cy="194" rx="1.4" ry="1.3"/>
			<ellipse id="XMLID_7501_" class="st18" cx="-216.7" cy="184.3" rx="1.4" ry="1.3"/>
			<ellipse id="XMLID_7500_" class="st18" cx="-212.1" cy="174.9" rx="1.4" ry="1.3"/>
			<ellipse id="XMLID_7499_" class="st18" cx="-205.5" cy="167.6" rx="1.4" ry="1.3"/>
			<ellipse id="XMLID_7498_" class="st18" cx="-197.1" cy="161.8" rx="1.4" ry="1.3"/>
			<ellipse id="XMLID_7497_" class="st18" cx="-275.7" cy="305" rx="1.4" ry="1.3"/>
			<ellipse id="XMLID_7496_" class="st18" cx="-280.6" cy="302.4" rx="1.4" ry="1.3"/>
			<ellipse id="XMLID_7495_" class="st18" cx="-283.7" cy="297.6" rx="1.4" ry="1.3"/>
			<ellipse id="XMLID_7494_" class="st18" cx="-239.9" cy="310.2" rx="1.4" ry="1.3"/>
			<ellipse id="XMLID_7493_" class="st18" cx="-231.6" cy="310.7" rx="1.4" ry="1.3"/>
			<ellipse id="XMLID_7492_" class="st18" cx="-222.9" cy="311.7" rx="1.4" ry="1.3"/>
			<polygon id="XMLID_7491_" class="st26" points="-120,208.5 -120.7,207.2 -130.2,205.8 -133.5,220.8 -130.4,226.7 -125.4,224.7 
							"/>
			<polygon id="XMLID_7490_" class="st27" points="-115.7,186.6 -116.6,185.4 -126.1,185.4 -127.1,200.7 -123.2,205.2 -118.4,203.6 
							"/>
			<polygon id="XMLID_7489_" class="st28" points="-109.5,167.4 -110.2,165.5 -118.7,164.6 -122.6,178.2 -120.2,183.7 -115.2,182.5 
							"/>
			<polygon id="XMLID_7488_" class="st17" points="-123.8,208.2 -127.3,222 -132.6,220.4 -129.9,206.6 			"/>
			<polygon id="XMLID_7487_" class="st17" points="-126.7,207.5 -129.2,220.3 -132.6,220.4 -129.9,206.6 			"/>
			<polygon id="XMLID_7486_" class="st17" points="-126.7,200.4 -121.6,201.1 -119.9,187 -125.6,186.8 			"/>
			<polygon id="XMLID_7485_" class="st17" points="-126.7,200.4 -123.9,200.2 -123,187.8 -125.6,186.8 			"/>
			<polygon id="XMLID_7484_" class="st17" points="-122,178.1 -117.9,179.3 -113.2,166.9 -118.2,165.5 			"/>
			<polygon id="XMLID_7483_" class="st17" points="-122,178.1 -119.8,178.7 -116.3,167.8 -118.2,165.5 			"/>
			<polygon id="XMLID_7482_" class="st12" points="-117.9,179.3 -122,178.1 -118.4,166.1 -118.7,164.6 -122.6,178.2 -120.2,183.7 
				-115.2,182.5 -117.1,181.1 -116.5,175.7 			"/>
			<polygon id="XMLID_7481_" class="st29" points="-120.9,202.2 -121.5,200.2 -121.6,201.1 -126.7,200.4 -125.6,186.9 -126.1,185.4 
				-127.1,200.7 -123.2,205.2 -118.4,203.6 			"/>
			<polygon id="XMLID_7480_" class="st12" points="-127.6,221.9 -132.6,220.4 -130,206.9 -130.2,205.8 -133.5,220.8 -130.4,226.7 
				-125.4,224.7 -127.3,223.7 			"/>
			<path id="XMLID_7479_" class="st30" d="M-128.3,216c-1.2-1.2-2.6-1.7-3.1-1.2s0.2,1.8,1.4,3s2.6,1.7,3.1,1.2
				C-126.5,218.5-127.1,217.2-128.3,216z"/>
			<path id="XMLID_7478_" class="st31" d="M-128.6,219.6c0.4-0.5,0-1.6-1-2.4s-2.1-1-2.6-0.4c-0.4,0.5,0,1.6,1,2.4
				C-130.2,219.9-129.1,220.1-128.6,219.6z"/>
			<path id="XMLID_7477_" class="st32" d="M-127.6,219.2c-0.5-0.8-1.3-1.2-1.8-1c-0.4,0.3-0.4,1.2,0.1,2s1.3,1.2,1.8,1
				C-127,220.8-127,220-127.6,219.2z"/>
			<polygon id="XMLID_7476_" class="st31" points="-134.7,212.1 -135.4,212.4 -133.5,217.2 -132.9,217 			"/>
			<ellipse id="XMLID_7475_" class="st33" cx="-133.1" cy="216.8" rx="1.7" ry="1.7"/>
			<polygon id="XMLID_7474_" class="st31" points="-132.3,212.7 -133,212.9 -131.7,217.9 -131,217.8 			"/>
			<polygon id="XMLID_7473_" class="st32" points="-131.7,215.4 -132.2,215.7 -129.9,218.9 -129.4,218.5 			"/>
			<ellipse id="XMLID_7472_" class="st33" cx="-129.2" cy="218.1" rx="1.7" ry="1.7"/>
			<path id="XMLID_7471_" class="st30" d="M-126.4,210c-1.1-1.2-2.5-1.9-3-1.4s0,1.8,1.2,3.1c1.1,1.2,2.5,1.9,3,1.4
				C-124.8,212.6-125.3,211.3-126.4,210z"/>
			<path id="XMLID_7470_" class="st34" d="M-127,213.5c0.5-0.5,0.1-1.6-0.8-2.4c-0.9-0.8-2.1-1.1-2.5-0.6c-0.5,0.5-0.1,1.6,0.8,2.4
				C-128.6,213.8-127.5,214-127,213.5z"/>
			<path id="XMLID_7469_" class="st35" d="M-126.5,213.3c-0.7-0.6-1.6-0.8-2-0.4c-0.3,0.4,0,1.2,0.7,1.8c0.7,0.6,1.6,0.8,2,0.4
				C-125.4,214.7-125.7,213.9-126.5,213.3z"/>
			<polygon id="XMLID_7468_" class="st34" points="-132.5,205.7 -133.2,205.9 -131.6,210.9 -131,210.7 			"/>
			<ellipse id="XMLID_7467_" class="st33" cx="-131.2" cy="210.5" rx="1.7" ry="1.7"/>
			<polygon id="XMLID_7466_" class="st34" points="-130.2,206.5 -130.8,206.6 -129.9,211.7 -129.3,211.6 			"/>
			<polygon id="XMLID_7465_" class="st35" points="-129.7,209.1 -130.3,209.5 -128.2,212.8 -127.7,212.5 			"/>
			<path id="XMLID_7464_" class="st33" d="M-125.7,212.2c0.1-0.9-0.7-1.7-1.6-1.8c-1-0.1-1.8,0.6-1.9,1.6c-0.1,0.9,0.7,1.7,1.6,1.8
				C-126.6,213.8-125.8,213.1-125.7,212.2z"/>
			<path id="XMLID_7463_" class="st30" d="M-123.3,194.5c-1.2-0.9-2.5-1.3-2.9-0.8s0.3,1.6,1.5,2.6c1.2,0.9,2.5,1.3,2.9,0.8
				C-121.4,196.6-122.1,195.5-123.3,194.5z"/>
			<path id="XMLID_7462_" class="st31" d="M-123.3,197.8c0.3-0.5-0.2-1.4-1.1-2.1c-1-0.6-2-0.7-2.4-0.2c-0.3,0.5,0.2,1.4,1.1,2.1
				C-124.7,198.2-123.6,198.3-123.3,197.8z"/>
			<path id="XMLID_7461_" class="st32" d="M-122.3,197.3c-0.6-0.7-1.3-1-1.7-0.7s-0.2,1.1,0.3,1.8s1.3,1,1.7,0.7
				S-121.8,198-122.3,197.3z"/>
			<polygon id="XMLID_7460_" class="st31" points="-129.5,191.6 -130,191.8 -127.9,196.1 -127.3,195.8 			"/>
			<path id="XMLID_7459_" class="st33" d="M-126,195.5c-0.1-0.8-0.9-1.5-1.7-1.4c-0.9,0.1-1.5,0.8-1.4,1.7c0.1,0.8,0.9,1.5,1.7,1.4
				C-126.5,197.1-125.9,196.4-126,195.5z"/>
			<polygon id="XMLID_7458_" class="st31" points="-127.2,191.9 -127.8,192.1 -126.2,196.5 -125.6,196.3 			"/>
			<polygon id="XMLID_7457_" class="st32" points="-126.4,194.2 -126.8,194.6 -124.5,197.3 -124,196.9 			"/>
			<path id="XMLID_7456_" class="st33" d="M-122.4,196.3c-0.1-0.8-0.9-1.5-1.7-1.4c-0.9,0.1-1.5,0.8-1.4,1.7
				c0.1,0.8,0.9,1.5,1.7,1.4C-122.9,197.9-122.3,197.2-122.4,196.3z"/>
			<path id="XMLID_7455_" class="st36" d="M-122.2,196.4c0-0.4-0.8-1.7-1.6-1.7c-0.9,0-1.8,0.5-1.8,1c0,0.4,0.7,0.8,1.6,0.8
				C-123.2,196.6-122.2,196.9-122.2,196.4z"/>
			<polygon id="XMLID_7454_" class="st32" points="-123.1,196 -123.7,196.3 -122.8,198.2 -122.2,198 			"/>
			<path id="XMLID_7453_" class="st30" d="M-122.1,188.9c-1.2-1-2.4-1.5-2.8-1c-0.4,0.5,0.2,1.6,1.3,2.7c1.2,1,2.4,1.5,2.8,1
				S-121,189.9-122.1,188.9z"/>
			<path id="XMLID_7412_" class="st34" d="M-122.3,192.1c0.4-0.5,0-1.5-1-2.1c-0.9-0.7-2-0.8-2.3-0.3c-0.4,0.5,0,1.5,1,2.1
				C-123.8,192.5-122.7,192.6-122.3,192.1z"/>
			<path id="XMLID_7411_" class="st35" d="M-121.9,191.9c-0.7-0.5-1.5-0.6-1.8-0.2c-0.3,0.4,0.1,1.1,0.8,1.6s1.5,0.6,1.8,0.2
				C-120.8,193.1-121.1,192.4-121.9,191.9z"/>
			<polygon id="XMLID_7410_" class="st34" points="-128.1,185.5 -128.6,185.8 -126.8,190.1 -126.2,189.9 			"/>
			<path id="XMLID_7409_" class="st33" d="M-125.1,189.5c0-0.8-0.5-1.3-1.3-1.3c-0.9,0-1.8,0.8-1.5,1.6c0.4,1.2,1.4,1.5,2.1,1.1
				C-124.9,190.4-125.1,190.4-125.1,189.5z"/>
			<polygon id="XMLID_7408_" class="st34" points="-125.9,186 -126.5,186.2 -125.1,190.7 -124.6,190.6 			"/>
			<polygon id="XMLID_7407_" class="st35" points="-125.2,188.4 -125.7,188.7 -123.5,191.6 -123,191.2 			"/>
			
				<ellipse id="XMLID_7406_" transform="matrix(-2.770960e-02 -0.9996 0.9996 -2.770960e-02 -317.0346 73.2296)" class="st33" cx="-122.9" cy="190.8" rx="1.5" ry="1.6"/>
			<polygon id="XMLID_7405_" class="st35" points="-122.1,190.4 -122.6,190.6 -121.8,192.6 -121.3,192.4 			"/>
			<path id="XMLID_7403_" class="st30" d="M-118,173.6c-0.8-1.1-1.8-1.7-2.3-1.4s-0.2,1.4,0.6,2.5s1.8,1.7,2.3,1.4
				C-116.9,175.8-117.2,174.7-118,173.6z"/>
			<path id="XMLID_7402_" class="st34" d="M-118.8,176.2c0.4-0.3,0.3-1.2-0.4-1.9c-0.7-0.8-1.5-1.1-2-0.8c-0.4,0.3-0.3,1.2,0.4,2
				C-120.2,176.2-119.3,176.5-118.8,176.2z"/>
			<path id="XMLID_7401_" class="st35" d="M-118.4,176.1c-0.5-0.6-1.2-0.8-1.5-0.6c-0.3,0.3-0.2,0.9,0.4,1.5
				c0.5,0.6,1.2,0.8,1.5,0.6C-117.7,177.3-117.8,176.7-118.4,176.1z"/>
			<polygon id="XMLID_7400_" class="st34" points="-122.5,169.6 -123,169.7 -122.3,173.6 -121.8,173.6 			"/>
			<path id="XMLID_7399_" class="st33" d="M-120.5,173.7c0.2-0.7-0.4-1.4-1.1-1.6c-0.8-0.2-1.5,0.3-1.7,1c-0.2,0.7,0.3,1.4,1.1,1.6
				C-121.4,174.8-120.7,174.4-120.5,173.7z"/>
			<polygon id="XMLID_7397_" class="st34" points="-120.7,170.4 -121.2,170.5 -121,174.5 -120.5,174.4 			"/>
			<polygon id="XMLID_7396_" class="st35" points="-120.6,172.5 -121.1,172.7 -119.8,175.5 -119.3,175.3 			"/>
			<path id="XMLID_7395_" class="st33" d="M-117.7,175.3c0.2-0.7-0.4-1.4-1.1-1.6c-0.8-0.2-1.5,0.3-1.7,1c-0.2,0.7,0.3,1.4,1.1,1.6
				C-118.6,176.4-117.8,176-117.7,175.3z"/>
			<polygon id="XMLID_7394_" class="st35" points="-118.3,174.9 -118.8,174.9 -118.5,176.7 -118,176.7 			"/>
			<path id="XMLID_7393_" class="st18" d="M-120.6,203.5c0.1-0.2-0.2-0.4-0.5-0.6c-0.4-0.2-0.7-0.2-0.8,0c-0.1,0.2,0.2,0.4,0.5,0.6
				S-120.7,203.7-120.6,203.5z"/>
			<path id="XMLID_7391_" class="st18" d="M-124.5,202.7c0.1-0.1,0-0.5-0.3-0.7c-0.3-0.3-0.6-0.4-0.8-0.3c-0.1,0.1,0,0.5,0.3,0.7
				C-125,202.7-124.6,202.8-124.5,202.7z"/>
			<polygon id="XMLID_7390_" class="st10" points="-118.7,205.8 -114.2,202.4 -115.2,206.1 			"/>
			<polygon id="XMLID_7389_" class="st10" points="-113,183.6 -108.3,179.6 -109.9,185.1 			"/>
			<path id="XMLID_7388_" class="st37" d="M-126.2,189.8c0.5-0.4,0.6-1.1,0.2-1.5c-0.3-0.4-1.3-0.3-1.8,0.1
				c-0.5,0.4-0.6,1.1-0.3,1.5C-127.7,190.3-126.7,190.2-126.2,189.8z"/>
			<path id="XMLID_7387_" class="st37" d="M-118.4,175.1c0.5-0.4,0.6-1.1,0.2-1.5c-0.4-0.4-1.3-0.3-1.8,0.1s-0.6,1.1-0.3,1.5
				C-119.9,175.6-118.9,175.5-118.4,175.1z"/>
			<path id="XMLID_7385_" class="st37" d="M-127.2,195.6c0.3-0.5,0.4-1.2,0-1.5c-0.5-0.3-1.6,0-1.9,0.5c-0.3,0.5-0.2,1.2,0.2,1.5
				C-128.5,196.5-127.5,196.1-127.2,195.6z"/>
			<path id="XMLID_7384_" class="st37" d="M-126.8,195.7c-0.2-0.3-0.4-0.6-0.6-0.5c-0.1,0.1-0.1,0.4,0.1,0.7
				c0.2,0.3,0.4,0.6,0.6,0.5C-126.6,196.4-126.6,196-126.8,195.7z"/>
			<path id="XMLID_7383_" class="st30" d="M-115,167.8c-0.7-1.4-1.7-2.3-2.2-2c-0.6,0.3-0.5,1.6,0.2,3c0.7,1.4,1.7,2.3,2.2,2
				S-114.4,169.2-115,167.8z"/>
			<path id="XMLID_7382_" class="st31" d="M-116.5,170.7c0.5-0.3,0.5-1.4-0.1-2.3c-0.6-1-1.5-1.5-2-1.2s-0.5,1.4,0.1,2.3
				C-117.9,170.5-117,171-116.5,170.7z"/>
			<path id="XMLID_7381_" class="st32" d="M-115.4,170.7c-0.2-0.9-0.7-1.5-1.2-1.4c-0.5,0.1-0.7,0.9-0.5,1.7
				c0.2,0.9,0.7,1.5,1.2,1.4C-115.5,172.4-115.2,171.6-115.4,170.7z"/>
			<rect id="XMLID_7379_" x="-119.8" y="162.5" class="st31" width="0.6" height="4.7"/>
			<path id="XMLID_7378_" class="st33" d="M-117.9,167.5c0.3-0.8-0.1-1.7-0.9-2c-0.8-0.3-1.7,0.1-2,0.9c-0.3,0.8,0.1,1.7,0.9,2
				C-119.1,168.7-118.2,168.3-117.9,167.5z"/>
			<polygon id="XMLID_7377_" class="st31" points="-117.4,163.7 -118,163.7 -118.5,168.4 -117.9,168.4 			"/>
			<polygon id="XMLID_7376_" class="st32" points="-117.7,166.2 -118.2,166.3 -117.3,169.8 -116.8,169.6 			"/>
			<path id="XMLID_7375_" class="st33" d="M-115,169.8c0.3-0.8-0.1-1.7-0.9-2s-1.7,0.1-2,0.9s0.1,1.7,0.9,2
				C-116.2,171-115.3,170.6-115,169.8z"/>
			<path id="XMLID_7123_" class="st36" d="M-114.9,170c0.2-0.4,0.1-1.8-0.7-2.2c-0.8-0.4-1.9-0.3-2.1,0.1c-0.2,0.4,0.3,1,1.1,1.4
				C-115.9,169.7-115.1,170.4-114.9,170z"/>
			
				<rect id="XMLID_7122_" x="-116.2" y="169.2" transform="matrix(-0.9996 -2.681399e-02 2.681399e-02 -0.9996 -236.3397 337.4248)" class="st32" width="0.6" height="2.2"/>
			<path id="XMLID_7121_" class="st37" d="M-119,167.1c0.6-0.3,0.9-0.9,0.6-1.3c-0.3-0.5-1.4-0.7-2-0.4c-0.6,0.3-0.8,1-0.5,1.5
				C-120.5,167.3-119.5,167.4-119,167.1z"/>
			
				<ellipse id="XMLID_7120_" transform="matrix(-3.560836e-02 -0.9994 0.9994 -3.560836e-02 -290.4285 54.3401)" class="st37" cx="-119" cy="167.3" rx="0.7" ry="0.3"/>
			<path id="XMLID_7119_" class="st37" d="M-130.7,210.1c0.3-0.5,0.4-1.2,0-1.5c-0.5-0.3-1.6,0-1.9,0.5c-0.3,0.5-0.2,1.2,0.2,1.5
				C-132,210.9-131,210.6-130.7,210.1z"/>
			<path id="XMLID_7118_" class="st37" d="M-130.3,210.2c-0.2-0.3-0.4-0.6-0.6-0.5c-0.1,0.1-0.1,0.4,0.1,0.7
				c0.2,0.3,0.4,0.6,0.6,0.5C-130.1,210.9-130.2,210.5-130.3,210.2z"/>
			<ellipse id="XMLID_7117_" class="st36" cx="-129.4" cy="217.4" rx="1.5" ry="1.1"/>
			<path id="XMLID_7116_" class="st36" d="M-132.5,215.2c-0.2-0.4-1-0.3-1.6,0s-0.9,0.8-0.7,1.3c0.2,0.4,0.6-0.2,1.2-0.4
				C-133.1,215.8-132.3,215.7-132.5,215.2z"/>
			<path id="XMLID_7008_" class="st36" d="M-122.2,189.7c-0.2-0.4-1-0.3-1.6,0s-0.9,0.8-0.7,1.3c0.2,0.4,0.6-0.2,1.2-0.4
				C-122.8,190.2-122,190.1-122.2,189.7z"/>
			<path id="XMLID_7007_" class="st36" d="M-121.2,172.6c-0.2-0.4-1-0.3-1.6,0c-0.6,0.3-0.9,0.8-0.7,1.3c0.2,0.4,0.6-0.2,1.2-0.4
				C-121.7,173.1-121,173-121.2,172.6z"/>
			<path id="XMLID_7006_" class="st36" d="M-126.1,210.6c-0.2-0.4-1.6-0.3-2.2,0c-0.6,0.3-0.9,0.8-0.7,1.3c0.2,0.4,2.4,0.5,3,0.2
				C-125.4,211.8-125.9,211-126.1,210.6z"/>
			<polygon id="XMLID_7005_" class="st32" points="-128.3,217.7 -128.9,217.9 -128.1,220.1 -127.5,219.9 			"/>
			<polygon id="XMLID_7004_" class="st35" points="-126.5,211.7 -127.2,211.9 -126.5,214.1 -125.9,214 			"/>
		</g>
	</g>
</g>
<g id="XMLID_6805_" class="st38">
	<path id="XMLID_46_" class="st39" d="M-91.7,129.2c36.6,26.1,60.5,68.8,60.5,117.1c0,79.4-64.3,143.7-143.7,143.7
		c-20.4,0-39.7-4.2-57.3-11.9c23.5,16.7,52.2,26.6,83.3,26.6c79.4,0,143.7-64.3,143.7-143.7C-5.3,202-40.9,151.3-91.7,129.2z"/>
</g>
<path id="XMLID_7972_" class="st39" d="M-149,117.3c79.4,0,143.7,64.3,143.7,143.7S-69.6,404.7-149,404.7S-292.7,340.4-292.7,261
	S-228.4,117.3-149,117.3 M-149,106c-41.4,0-80.3,16.1-109.6,45.4S-304,219.6-304,261s16.1,80.3,45.4,109.6
	c29.3,29.3,68.2,45.4,109.6,45.4s80.3-16.1,109.6-45.4C-10.1,341.3,6,302.4,6,261s-16.1-80.3-45.4-109.6S-107.6,106-149,106
	L-149,106z"/>
</svg>
