<?xml version="1.0" encoding="utf-8"?>
<!-- Generator: Adobe Illustrator 19.0.0, SVG Export Plug-In . SVG Version: 6.00 Build 0)  -->
<svg version="1.1" id="Layer_1" xmlns="http://www.w3.org/2000/svg" xmlns:xlink="http://www.w3.org/1999/xlink" x="0px" y="0px"
	 width="90px" height="90px" viewBox="0 0 90 90" style="enable-background:new 0 0 90 90;" xml:space="preserve">
<style type="text/css">
	.st0{fill:#ECEDF0;}
	.st1{fill:#433E51;}
	.st2{fill:#78C7C9;}
	.st3{fill:#E56452;}
	.st4{fill:#B65D45;}
	.st5{fill:#60A4A7;}
	.st6{fill:#C9C7CF;}
	.st7{fill:#565066;}
	.st8{fill:#F9B44F;}
</style>
<g id="XMLID_5530_">
	<circle id="XMLID_9808_" class="st0" cx="45" cy="45" r="45"/>
	<g id="backpack_2_">
		<g id="backpack_1_">
			<path id="XMLID_9806_" class="st1" d="M31.1,50.6H28c-0.6,0-1-0.4-1-1V27.7c0-0.6,0.4-1,1-1h3.1c0.6,0,1,0.4,1,1v21.9
				C32.1,50.2,31.6,50.6,31.1,50.6z"/>
			<path id="XMLID_9805_" class="st1" d="M60.2,50.6h3.1c0.6,0,1-0.4,1-1V27.7c0-0.6-0.4-1-1-1h-3.1c-0.6,0-1,0.4-1,1v21.9
				C59.2,50.2,59.7,50.6,60.2,50.6z"/>
			<path id="XMLID_9804_" class="st2" d="M64.8,72.7H26.5c-1.1,0-2-0.9-2-2V45.5c0-2.8,2.2-5,5-5h32.4c2.8,0,5,2.2,5,5v25.2
				C66.8,71.8,66,72.7,64.8,72.7z"/>
			<path id="XMLID_9803_" class="st3" d="M68.5,22.7H22.8v-1.1c0-2.2,1.8-4,4-4h37.8c2.2,0,4,1.8,4,4V22.7z"/>
			<path id="XMLID_9802_" class="st4" d="M64.5,27.8H26.8c-2.2,0-4-1.8-4-4v-1.1h45.8v1.1C68.5,26,66.8,27.8,64.5,27.8z"/>
			<g id="XMLID_9800_">
				<path id="XMLID_9801_" class="st1" d="M42.3,25.2c0-2.1,1.9-3.8,4.1-3.3c1.2,0.2,2.2,1.1,2.5,2.3c0.2,0.6,0.2,1.2,0.1,1.7
					c-0.1,0.5,0.3,1,0.8,1h0c0.4,0,0.7-0.3,0.8-0.7c0.2-0.8,0.2-1.6-0.1-2.5c-0.5-1.8-2.1-3.2-4-3.5c-3.2-0.6-6,1.9-6,5
					c0,0.4,0,0.7,0.1,1c0.1,0.4,0.4,0.7,0.8,0.7l0,0c0.5,0,0.9-0.5,0.8-1C42.3,25.7,42.3,25.5,42.3,25.2z"/>
			</g>
			<g id="XMLID_7437_">
				<path id="XMLID_7439_" class="st5" d="M62.6,33.7c0-4.7-3.8-8.5-8.5-8.5h-8.5v15.3h17V33.7z"/>
				<path id="XMLID_7438_" class="st2" d="M37.2,25.2c-4.7,0-8.5,3.8-8.5,8.5v6.8h17V25.2H37.2z"/>
			</g>
			<path id="XMLID_7436_" class="st6" d="M52.7,30.9h-14c-0.5,0-0.8-0.4-0.8-0.8l0,0c0-0.5,0.4-0.8,0.8-0.8h14
				c0.5,0,0.8,0.4,0.8,0.8l0,0C53.5,30.6,53.1,30.9,52.7,30.9z"/>
			<path id="XMLID_7435_" class="st7" d="M52,33.5L52,33.5c-0.5,0-0.8-0.4-0.8-0.8v-1.7c0-0.5,0.4-0.8,0.8-0.8l0,0
				c0.5,0,0.8,0.4,0.8,0.8v1.7C52.9,33.1,52.5,33.5,52,33.5z"/>
			<path id="XMLID_7434_" class="st5" d="M61.6,68H29.7c-0.5,0-1-0.5-1-1V46.1c0-0.5,0.5-1,1-1h31.9c0.5,0,1,0.5,1,1V67
				C62.6,67.6,62.2,68,61.6,68z"/>
			<path id="XMLID_7433_" class="st6" d="M59.2,48.5H32.1c-0.5,0-0.8-0.4-0.8-0.8l0,0c0-0.5,0.4-0.8,0.8-0.8h27.1
				c0.5,0,0.8,0.4,0.8,0.8l0,0C60.1,48.1,59.7,48.5,59.2,48.5z"/>
			<path id="XMLID_7432_" class="st7" d="M58.4,51.1L58.4,51.1c-0.5,0-0.8-0.4-0.8-0.8v-1.7c0-0.5,0.4-0.8,0.8-0.8l0,0
				c0.5,0,0.8,0.4,0.8,0.8v1.7C59.2,50.7,58.8,51.1,58.4,51.1z"/>
			<path id="XMLID_7431_" class="st1" d="M24.5,71h-3.1c-1.1,0-2-0.9-2-2v-5.5c0-0.6,0.4-1,1-1h4.1V71z"/>
			<path id="XMLID_7430_" class="st1" d="M66.8,71h4.2c0.9,0,1.7-0.8,1.7-1.7v-5.9c0-0.5-0.4-0.8-0.8-0.8h-5.1V71z"/>
		</g>
		<path id="XMLID_7429_" class="st7" d="M47.2,64.2h-3.1c-0.6,0-1-0.4-1-1V44c0-0.6,0.4-1,1-1h3.1c0.6,0,1,0.4,1,1v19.2
			C48.2,63.8,47.8,64.2,47.2,64.2z"/>
		<path id="XMLID_7428_" class="st7" d="M47.2,74.5h-3.1c-0.6,0-1-0.4-1-1v-3.7c0-0.6,0.4-1,1-1h3.1c0.6,0,1,0.4,1,1v3.7
			C48.2,74.1,47.8,74.5,47.2,74.5z"/>
		<path id="XMLID_6899_" class="st7" d="M48.9,69.3h-6.5c-0.6,0-1-0.4-1-1v-4.8c0-0.6,0.4-1,1-1h6.5c0.6,0,1,0.4,1,1v4.8
			C49.9,68.8,49.4,69.3,48.9,69.3z M48.2,67.6v-3.4h-5.1v3.4H48.2z"/>
		<rect id="XMLID_6898_" x="28.7" y="16.7" class="st7" width="1.7" height="11.9"/>
		<rect id="XMLID_6897_" x="60.9" y="16.7" class="st7" width="1.7" height="11.9"/>
		<path id="XMLID_6896_" class="st6" d="M66.8,62.5v-1.7c0-0.9,0.8-1.7,1.7-1.7h1.7c0.9,0,1.7,0.8,1.7,1.7v1.7H66.8z"/>
		<path id="XMLID_6895_" class="st6" d="M20.2,62.5v-0.8c0-0.9,0.8-1.7,1.7-1.7h0.8c0.9,0,1.7,0.8,1.7,1.7v0.8H20.2z"/>
		<rect id="XMLID_6894_" x="68.5" y="58.3" class="st6" width="1.7" height="0.8"/>
		<path id="XMLID_6893_" class="st8" d="M70.2,58.3h-1.7c-0.5,0-0.8-0.4-0.8-0.8l0,0c0-0.5,0.4-0.8,0.8-0.8h1.7
			c0.5,0,0.8,0.4,0.8,0.8l0,0C71.1,57.9,70.7,58.3,70.2,58.3z"/>
	</g>
</g>
</svg>
