<?xml version="1.0" encoding="utf-8"?>
<!-- Generator: Adobe Illustrator 19.0.0, SVG Export Plug-In . SVG Version: 6.00 Build 0)  -->
<svg version="1.1" id="Layer_1" xmlns="http://www.w3.org/2000/svg" xmlns:xlink="http://www.w3.org/1999/xlink" x="0px" y="0px"
	 width="396px" height="50px" viewBox="-343 236 396 50" style="enable-background:new -343 236 396 50;" xml:space="preserve">
<style type="text/css">
	.st0{fill:#5BC4BF;}
	.st1{opacity:0.4;fill:#FFFFFF;enable-background:new    ;}
	.st2{opacity:0.05;enable-background:new    ;}
	.st3{opacity:0.15;enable-background:new    ;}
	.st4{opacity:0.1;enable-background:new    ;}
	.st5{opacity:0.2;fill:#FFFFFF;enable-background:new    ;}
	.st6{fill:#419794;}
</style>
<g>
	<path class="st0" d="M-145,243.1L-145,243.1c0-5.5-1.7-7.1-7.1-7.1H-308l-0.5,1.6l-0.3-1.6h-1.6l-0.7,3.3l-1.1-3.3h-3.4l-1.9,2.1
		l-5.2-2.1h-5.5h-4.6h12.1h-15c-5.5,0-7.1,1.6-7.1,7.1v12.8l0.8,4.5l-0.8,2.4v5.9l2.6,2.9l-2.6,2.4v4.8c0,5.5,1.7,7.1,7.1,7.1h141.5
		c1.4-0.9,3.1-1.7,4.8-1.7c3.3,0,5.3,0.9,6.2,1.7h1.9c1.3-0.7,3.2-1.7,5.6-1.7c1.3,0.1,2.5,0.8,3.5,1.7h3.4h12.3h4.4
		c5.5,0,7.1-1.7,7.1-7.1l0,0v-5v-8.9v-6.7l-1.7-1.4l1.7-1.2v-3l-1.7-3.8l1.7-2.8L-145,243.1L-145,243.1z"/>
	<path id="XMLID_11364_" class="st1" d="M-335.9,236L-335.9,236c-5.5,0-7.1,1.6-7.1,7.1l0,0h7.1V236z"/>
	<path id="XMLID_11362_" class="st2" d="M-343,278.9c0,5.5,1.7,7.1,7.1,7.1l0,0v-7.1H-343z"/>
	<path id="XMLID_11361_" class="st2" d="M-152.1,236L-152.1,236v7.1h7.1l0,0C-145,237.6-146.7,236-152.1,236z"/>
	<path id="XMLID_11359_" class="st3" d="M-152.1,286L-152.1,286c5.5,0,7.1-1.7,7.1-7.1h-7.1V286z"/>
	<path id="XMLID_11336_" class="st4" d="M-335.9,278.9v7.1h141.5c1.4-0.9,3.1-1.7,4.8-1.7c3.3,0,5.3,0.9,6.2,1.7h1.9
		c1.3-0.7,3.2-1.7,5.6-1.7c1.3,0.1,2.5,0.8,3.5,1.7h3.4h12.3h4.4v-7.1H-335.9z"/>
	<polygon id="XMLID_11333_" class="st5" points="-343,243.1 -343,255.9 -342.2,260.4 -343,262.8 -343,268.7 -340.4,271.7 
		-343,274.1 -343,278.9 -335.9,278.9 -335.9,243.1 	"/>
	<polygon id="XMLID_11329_" class="st4" points="-145,243.1 -152.1,243.1 -152.1,253.9 -152.1,253.9 -155.1,259.3 -153.6,262.1 
		-153.6,266.3 -152.1,268.7 -153.6,272 -152.1,273.5 -152.1,278.9 -145,278.9 -145,273.9 -145,265 -145,258.2 -146.7,256.8 
		-145,255.5 -145,252.5 -146.7,248.7 -145,245.9 	"/>
	<polygon class="st5" points="-308,236 -308.5,237.6 -308.8,236 -310.5,236 -311.2,239.3 -312.3,236 -315.7,236 -317.6,238.1 
		-322.8,236 -328.4,236 -333,236 -320.8,236 -335.9,236 -335.9,243.1 -319.6,243.1 -315.3,240.1 -314,243.1 -312.2,243.1 
		-309.9,242 -309.2,243.1 -152.1,243.1 -152.1,236 	"/>
</g>
<g>
	<path class="st6" d="M53,243.1L53,243.1c0-5.5-1.7-7.1-7.1-7.1H-110l-0.5,1.6l-0.3-1.6h-1.6l-0.7,3.3l-1.1-3.3h-3.4l-1.9,2.1
		l-5.2-2.1h-5.5h-4.6h12.1h-15c-5.5,0-7.1,1.6-7.1,7.1v12.8l0.8,4.5l-0.8,2.4v5.9l2.6,2.9l-2.6,2.4v4.8c0,5.5,1.7,7.1,7.1,7.1H3.8
		c1.4-0.9,3.1-1.7,4.8-1.7c3.3,0,5.3,0.9,6.2,1.7h1.9c1.3-0.7,3.2-1.7,5.6-1.7c1.3,0.1,2.5,0.8,3.5,1.7h3.4h12.3h4.4
		c5.5,0,7.1-1.7,7.1-7.1l0,0v-5v-8.9v-6.7l-1.7-1.4l1.7-1.2v-3l-1.7-3.8L53,246L53,243.1L53,243.1z"/>
	<path id="XMLID_7_" class="st1" d="M-137.9,236L-137.9,236c-5.5,0-7.1,1.6-7.1,7.1l0,0h7.1V236z"/>
	<path id="XMLID_6_" class="st2" d="M-145,278.9c0,5.5,1.7,7.1,7.1,7.1l0,0v-7.1H-145z"/>
	<path id="XMLID_5_" class="st2" d="M45.9,236L45.9,236v7.1H53l0,0C53,237.6,51.3,236,45.9,236z"/>
	<path id="XMLID_4_" class="st3" d="M45.9,286L45.9,286c5.5,0,7.1-1.7,7.1-7.1h-7.1V286z"/>
	<path id="XMLID_3_" class="st4" d="M-137.9,278.9v7.1H3.6c1.4-0.9,3.1-1.7,4.8-1.7c3.3,0,5.3,0.9,6.2,1.7h1.9
		c1.3-0.7,3.2-1.7,5.6-1.7c1.3,0.1,2.5,0.8,3.5,1.7H29h12.3h4.4v-7.1H-137.9z"/>
	<polygon id="XMLID_2_" class="st5" points="-145,243.1 -145,255.9 -144.2,260.4 -145,262.8 -145,268.7 -142.4,271.7 -145,274.1 
		-145,278.9 -137.9,278.9 -137.9,243.1 	"/>
	<polygon id="XMLID_1_" class="st4" points="53,243.1 45.9,243.1 45.9,253.9 45.9,253.9 42.9,259.3 44.4,262.1 44.4,266.3 
		45.9,268.7 44.4,272 45.9,273.5 45.9,278.9 53,278.9 53,273.9 53,265 53,258.2 51.3,256.8 53,255.5 53,252.5 51.3,248.7 53,245.9 	
		"/>
	<polygon class="st5" points="-110,236 -110.5,237.6 -110.8,236 -112.5,236 -113.2,239.3 -114.3,236 -117.7,236 -119.6,238.1 
		-124.8,236 -130.4,236 -135,236 -122.8,236 -137.9,236 -137.9,243.1 -121.6,243.1 -117.3,240.1 -116,243.1 -114.2,243.1 
		-111.9,242 -111.2,243.1 45.9,243.1 45.9,236 	"/>
</g>
</svg>
