<?xml version="1.0" encoding="utf-8"?>
<!-- Generator: Adobe Illustrator 19.0.0, SVG Export Plug-In . SVG Version: 6.00 Build 0)  -->
<svg version="1.1" id="Layer_1" xmlns="http://www.w3.org/2000/svg" xmlns:xlink="http://www.w3.org/1999/xlink" x="0px" y="0px"
	 width="90px" height="90px" viewBox="0 0 90 90" style="enable-background:new 0 0 90 90;" xml:space="preserve">
<style type="text/css">
	.st0{fill:#ECEDF0;}
	.st1{fill:#C5D3E2;}
	.st2{fill:#932210;}
	.st3{fill:#FFFFFF;}
	.st4{opacity:0.1;}
</style>
<g id="XMLID_12108_">
	<circle id="XMLID_12115_" class="st0" cx="45" cy="45" r="45"/>
	<g id="XMLID_12109_">
		<g id="XMLID_12111_">
			<path id="XMLID_12114_" class="st1" d="M63.3,32.7c0-4.2-2.5-15.3-2.5-15.3l-30.9,0c0,0-3.3,10.3-3.3,15.3
				c0,9.9,7.3,18.1,16.6,19v19.9c-1,0-13.4,4.2-12.4,4.2h26.7c1,0-10.7-4.2-11.7-4.2V51.8C55.6,51.3,63.3,42.9,63.3,32.7z"/>
			<path id="XMLID_12113_" class="st2" d="M28.4,33.4c0,8.3,5.6,15.2,13.1,16.8h6.9c7.5-1.6,13.1-8.6,13.1-16.8
				c0-2.2-0.8-6.6-1.4-9.9H30.3C29.4,26.6,28.4,30.8,28.4,33.4z"/>
			<path id="XMLID_12112_" class="st3" d="M34.9,31.1c0,5.8,2,10.4,0.4,10.4c-1.5,0-2.7-4.7-2.7-10.4c0-5.8,1.2-10.4,2.7-10.4
				C36.8,20.7,34.9,25.4,34.9,31.1z"/>
		</g>
		<path id="XMLID_12110_" class="st4" d="M45.9,51.8v19.8c1,0,12.7,4.2,11.7,4.2H45V17.4l15.9,0c0,0,2.5,11.1,2.5,15.3
			C63.3,42.9,55.6,51.3,45.9,51.8z"/>
	</g>
</g>
</svg>
