<?xml version="1.0" encoding="utf-8"?>
<!-- Generator: Adobe Illustrator 19.0.0, SVG Export Plug-In . SVG Version: 6.00 Build 0)  -->
<svg version="1.1" id="Layer_1" xmlns="http://www.w3.org/2000/svg" xmlns:xlink="http://www.w3.org/1999/xlink" x="0px" y="0px"
	 width="263.3px" height="137.7px" viewBox="361.5 -127.1 263.3 137.7" style="enable-background:new 361.5 -127.1 263.3 137.7;"
	 xml:space="preserve">
<style type="text/css">
	.st0{fill:#58C2E6;}
	.st1{fill:#E889B6;}
	.st2{fill:#FDCC5F;}
	.st3{fill:#D84652;}
	.st4{fill:#9ECC6C;}
	.st5{fill:#9697C8;}
	.st6{fill:none;stroke:#302C1F;stroke-width:3;stroke-miterlimit:10;}
</style>
<polygon id="XMLID_11572_" class="st0" points="364.5,-61.5 379.7,-94.2 399.2,-71.2 "/>
<polygon id="XMLID_1_" class="st0" points="578.5,3.6 554.5,-23.3 583.3,-32.2 "/>
<polygon id="XMLID_11571_" class="st1" points="393,-35.8 403,-70.4 425.8,-50.7 "/>
<polygon id="XMLID_2_" class="st1" points="614,-9.5 586.1,-32.3 613.3,-45.5 "/>
<polygon id="XMLID_11570_" class="st2" points="425.5,-13.9 429.1,-49.8 455.1,-34.6 "/>
<polygon id="XMLID_11569_" class="st3" points="463.1,2.6 458.3,-33.2 487.1,-24.4 "/>
<polygon id="XMLID_11568_" class="st4" points="500.6,10.6 488.8,-23.5 518.7,-20.7 "/>
<polygon id="XMLID_11567_" class="st5" points="537.6,10 520.7,-21.8 550.8,-23.6 "/>
<g id="XMLID_14145_">
	<path id="XMLID_3_" class="st6" d="M362.4-126.6c0,0,41.1,104.4,159.8,104.4c43.9,0,77-13.8,101.2-31.2"/>
</g>
</svg>
