<?xml version="1.0" encoding="utf-8"?>
<!-- Generator: Adobe Illustrator 19.0.0, SVG Export Plug-In . SVG Version: 6.00 Build 0)  -->
<svg version="1.1" id="Layer_1" xmlns="http://www.w3.org/2000/svg" xmlns:xlink="http://www.w3.org/1999/xlink" x="0px" y="0px"
	 width="263.3px" height="137.7px" viewBox="361.5 -127.1 263.3 137.7" style="enable-background:new 361.5 -127.1 263.3 137.7;"
	 xml:space="preserve">
<style type="text/css">
	.st0{fill:#58C2E6;}
	.st1{fill:#E889B6;}
	.st2{fill:#FDCC5F;}
	.st3{fill:#D84652;}
	.st4{fill:#9ECC6C;}
	.st5{fill:#9697C8;}
	.st6{fill:none;stroke:#302C1F;stroke-width:3;stroke-miterlimit:10;}
</style>
<polygon id="XMLID_11572_" class="st0" points="586.6,-71.2 606.1,-94.2 621.3,-61.5 "/>
<polygon id="XMLID_1_" class="st0" points="402.5,-32.2 431.3,-23.3 407.3,3.6 "/>
<polygon id="XMLID_11571_" class="st1" points="560,-50.7 582.8,-70.4 592.8,-35.8 "/>
<polygon id="XMLID_2_" class="st1" points="372.5,-45.5 399.7,-32.3 371.8,-9.5 "/>
<polygon id="XMLID_11570_" class="st2" points="530.7,-34.6 556.7,-49.8 560.3,-13.9 "/>
<polygon id="XMLID_11569_" class="st3" points="498.7,-24.4 527.5,-33.2 522.7,2.6 "/>
<polygon id="XMLID_11568_" class="st4" points="467.1,-20.7 497,-23.5 485.2,10.6 "/>
<polygon id="XMLID_11567_" class="st5" points="435,-23.6 465.1,-21.8 448.2,10 "/>
<g id="XMLID_14145_">
	<path id="XMLID_3_" class="st6" d="M362.4-53.4c24.2,17.4,57.3,31.2,101.2,31.2c118.7,0,159.8-104.4,159.8-104.4"/>
</g>
</svg>
