<?xml version="1.0" encoding="utf-8"?>
<!-- Generator: Adobe Illustrator 19.0.0, SVG Export Plug-In . SVG Version: 6.00 Build 0)  -->
<svg version="1.1" id="Layer_1" xmlns="http://www.w3.org/2000/svg" xmlns:xlink="http://www.w3.org/1999/xlink" x="0px" y="0px"
	 width="50.2px" height="42.1px" viewBox="-74.1 79.7 50.2 42.1" style="enable-background:new -74.1 79.7 50.2 42.1;"
	 xml:space="preserve">
<style type="text/css">
	.st0{fill:#DA2619;}
	.st1{fill:#BC2313;}
	.st2{fill:#F39A6D;}
	.st3{fill:#237F29;}
	.st4{fill:#C46C2A;}
	.st5{fill:#DAA169;}
	.st6{fill:#A0531B;}
	.st7{fill:#6B3D17;}
	.st8{fill:#F2CAAB;}
	.st9{fill:#861C06;}
	.st10{fill:#EC694E;}
</style>
<g>
	<g id="XMLID_925_">
		<path id="XMLID_2646_" class="st0" d="M-50.3,90c1,4.8-1.5,9.5-5.6,11.8c-4.1,2.3-9.6,2.4-13.5-0.5c-1.9-1.5-3.7-3.5-4.3-5.9
			c-0.6-2-0.6-4.1,0.1-6.1c0.4-0.9,0.9-1.9,1.5-2.6c0.7-1,1.8-1.6,3-1.9c1.9-0.8,4.1-1.2,6.1-1.6c2.4-0.4,5.1-1,7.4-0.1
			c2.3,0.9,4,3.1,4.9,5.4C-50.5,88.9-50.4,89.4-50.3,90C-49.6,92.9-50.3,89.8-50.3,90z"/>
		<path id="XMLID_2670_" class="st1" d="M-51.4,90.2L-51.4,90.2c0.8,4.1-1.2,8.3-5,10.4c-1,0.6-2.1,1-3.3,1.2c-0.1,0-0.1,0-0.1,0
			l-3.8-17.4c0.2,0,0.4-0.1,0.6-0.1l0.4-0.1c2.1-0.4,4.6-0.9,6.8-0.1s3.5,2.9,4.1,4.6C-51.6,89.2-51.5,89.7-51.4,90.2z"/>
		
			<ellipse id="XMLID_2643_" transform="matrix(-0.2042 -0.9789 0.9789 -0.2042 -173.6281 42.9614)" class="st2" cx="-69.4" cy="92.1" rx="1.4" ry="1.7"/>
		<path id="XMLID_2641_" class="st3" d="M-55.3,86.8c-3.9-1.9-7.1-1.7-7.6-1.6c-0.4,0.4-1.1,1.1-1.5,2.2c-0.6,1.5-0.7,2.3-0.7,2.3
			s-1-1.1-0.7-2.4c0.1-0.3,0.2-0.6,0.3-0.8c-1.9,1.1-3.1,2.2-4.5,3.3c0.5-1.5,2.2-3.8,4.8-4.9c-3.2-0.1-5.1,1-5.9,1.6
			c1.1-1.5,4.2-3.5,6.7-3.1c0-0.1,0-0.2,0-0.4c0-0.5-0.2-1-0.3-1.5l0,0c0-0.2-0.2-0.4-0.2-0.6c0-0.1-0.1-0.1-0.1-0.2
			c-0.1-0.1-0.1-0.3-0.2-0.3l0,0c0-0.1,0-0.1,0-0.2c0-0.1,0.2-0.3,0.5-0.3c0.1,0,0.1,0,0.1,0l0.1,0.1c0.7,0.4,1.4,1.9,1.8,3.2
			c0.9-0.8,2.8-2.2,5.3-1c-0.7,0.1-1.4,0.3-2,0.6c-0.1,0-0.2,0.1-0.3,0.1c-0.1,0.1-0.3,0.1-0.5,0.2l0,0c-0.2,0.2-0.2,0.2-0.4,0.3
			s-0.3,0.1-0.3,0.2c-0.1,0-0.1,0.1-0.1,0.1C-59.2,83.5-56.9,84.3-55.3,86.8z"/>
	</g>
	<g id="XMLID_11555_">
		<path id="XMLID_11564_" class="st4" d="M-23.9,114c-0.4,6.3-11.6,8.6-25.4,7.5s-25.2-5.1-24.2-10.5c0.7-3.6,11.2,1.5,25,2.6
			C-34.7,114.7-23.6,110.3-23.9,114z"/>
		<path id="XMLID_11563_" class="st5" d="M-27,113.9c0,0-0.8,0.3-2.2,0.6c-1.4,0.3-3.4,0.5-5.7,0.7c-2.3,0.2-4.9,0.3-7.6,0.2
			c-2.6,0-5.3-0.2-7.6-0.4c-2.5-0.2-4.8-0.5-7-0.9c-2.2-0.4-4.1-0.9-5.7-1.4c-3.2-1-5.1-1.9-5.4-1.5c-0.2,0.3,0.2,0.7,1.1,1.3
			s2.2,1.3,3.9,1.9c1.7,0.6,3.7,1.2,5.9,1.6s4.6,0.7,7,0.8c1.9,0.1,4.3,0.1,6.9,0c2.6-0.1,5.3-0.4,7.7-0.7c2.5-0.4,4.6-0.8,6.2-1.3
			c0.8-0.2,1.4-0.4,1.8-0.6C-27.2,114-27,113.9-27,113.9z"/>
		<path id="XMLID_11562_" class="st6" d="M-24,113.5c-1,1.7-2.1,2.9-4.3,4.1c-11,6.1-31.7,2.3-38.8-1.4c-2.9-1.5-5.6-2.8-5.6-6.3
			c-0.4,0.2-0.7,0.5-0.8,1c-1.1,5.4,10.4,9.4,24.2,10.5s25-1.2,25.4-7.5C-23.9,113.8-23.9,113.6-24,113.5z"/>
		<path id="XMLID_11556_" class="st6" d="M-47.7,115c1,1.8,1.8,3.9,2.2,5.9c0.1,0.3,0.1,0.6,0.2,0.8c0.2,0,0.4,0,0.5,0
			c0-0.3-0.1-0.6-0.2-1C-45.6,118.7-46.5,116.7-47.7,115z M-39,114.8c1.1,1.5,1.7,3.3,2,5.1c0.1,0.5,0.1,1,0.2,1.6
			c0.2,0,0.3,0,0.5,0c0-0.5-0.1-1.1-0.2-1.6C-37,118-37.7,116.2-39,114.8z M-62.6,118.1c-0.1,0.4-0.3,0.7-0.4,1
			c0.1,0,0.3,0.1,0.4,0.1c0.2-0.3,0.3-0.7,0.4-1c0.5-1.7,0.8-3.4,0.7-5.2C-61.5,114.9-61.9,116.6-62.6,118.1z M-29.5,118.2
			c-0.2-0.8-0.6-1.5-1-2.2c-0.5-0.7-1.1-1.2-1.8-1.5c0.7,0.3,1.3,1,1.7,1.6c0.4,0.7,0.6,1.4,0.8,2.2c0.1,0.5,0.2,1.1,0.3,1.6
			c0.1,0,0.3-0.1,0.4-0.1C-29.3,119.3-29.4,118.8-29.5,118.2z M-55.6,114.6c0.4,0.8,0.6,1.7,0.6,2.5c0,0.9-0.1,1.8-0.2,2.6
			c-0.1,0.4-0.1,0.7-0.2,1c0.1,0,0.3,0,0.4,0.1c0.1-0.3,0.2-0.7,0.2-1c0.1-0.9,0.1-1.8,0-2.7C-54.9,116.2-55.1,115.3-55.6,114.6z"/>
	</g>
	<g id="XMLID_11633_">
		<path id="XMLID_11645_" class="st7" d="M-23.9,101.4v-3.8c0-1.4-0.5-2.7-1.3-3.5c-1.6-1.6-3.8-1.5-5.6-1.5c-0.7,0-1.5,0-2.1,0.1
			l0,0c-1,0.1-1.9,0.2-3,0.3c-1.6,0.2-3.3,0.3-5,0.4c-0.9,0.1-1.7,0.1-2.6,0.1c-1.7,0-3.4-0.1-5.2-0.2l0,0c-0.2,0-0.4,0-0.6,0l0,0
			c-0.8-0.1-1.6-0.1-2.4-0.1c-1.3,0-3-0.2-4.2,1c-0.6,0.6-1.1,1.6-1.1,2.7l0,0v4.1c0,0.1,0,0.2,0,0.3s0,0.1,0,0.2
			c0.1,1.6,0.9,3.6,2.9,5.7c2.6,2.8,7.6,5.8,13.7,5.9c0.3,0,0.6,0,0.8,0c6.1,0,10.8-2.8,13.1-5.4c1.7-1.8,2.5-3.7,2.6-5.4l0,0l0,0
			C-23.9,102-23.9,101.7-23.9,101.4z"/>
		<path id="XMLID_11641_" class="st1" d="M-25.6,94.5c-1.4-1.4-3.9-1.4-6.5-1.2c-2.7,0.2-5.6,0.6-8.7,0.8c-3.2,0.2-6.2,0-8.9-0.2
			c-2.6-0.2-4.9-0.5-6,0.6c-0.3,0.3-0.5,0.8-0.5,1.5c0,0.2,0,0.5,0,0.7c0.2,1.3,1,2.8,2.5,4.4l0,0c2.5,2.8,7.4,5.7,13.3,5.8
			c5.8,0.3,10.8-2.3,13.3-5.1l0.1-0.1c1.6-1.7,2.3-3.4,2.3-4.9v-0.1C-24.8,95.8-25.1,95-25.6,94.5z"/>
		<path id="XMLID_11640_" class="st8" d="M-31.8,96.7c-0.1,0-0.3-0.1-0.5-0.1c-0.1,0-0.3,0-0.4,0.1c-0.6,0.2-1.1,0.7-1.1,1.4
			c0,0.8,0.7,1.5,1.5,1.5s1.5-0.7,1.5-1.5C-30.8,97.5-31.2,96.9-31.8,96.7z"/>
		<path id="XMLID_11639_" class="st9" d="M-43.5,96.6c0-0.1,0-0.1-0.1-0.2c0,0,0-0.1-0.1-0.1c-0.2-0.2-0.5-0.2-0.7,0l0,0l0,0
			l-0.2,0.2l-3.9,4.2c-0.1,0.1-0.1,0.2-0.1,0.3s0.1,0.3,0.2,0.4c0.1,0.1,0.2,0.1,0.3,0.1s0.3-0.1,0.4-0.2l0.3-0.3l3.8-4.2
			C-43.5,96.9-43.5,96.8-43.5,96.6z"/>
		<path id="XMLID_11638_" class="st9" d="M-48,96.5c0-0.1,0-0.1,0-0.2s-0.1-0.1-0.1-0.1c-0.2-0.2-0.4-0.2-0.6,0l-0.1,0.1l0,0
			l-0.1,0.1l0,0l-2.8,2.7c-0.2,0.2-0.2,0.4,0,0.6c0.1,0.1,0.2,0.1,0.3,0.1s0.2,0,0.3-0.1l3-3C-48,96.7-48,96.6-48,96.5z"/>
		<path id="XMLID_11637_" class="st9" d="M-38.3,96.4L-38.3,96.4c-0.2-0.2-0.6-0.2-0.8,0.1h-0.1l-4.2,4.8l-1.3,1.5
			c-0.2,0.2-0.2,0.6,0.1,0.8c0.1,0.1,0.2,0.1,0.4,0.1s0.3-0.1,0.4-0.2l1.9-2.2l3.7-4.2c0.1-0.2,0.2-0.4,0.1-0.6
			C-38.2,96.5-38.3,96.4-38.3,96.4z"/>
		<path id="XMLID_11634_" class="st10" d="M-30.4,92.3c-0.8,0-1.5,0-2.1,0.1l0,0c-1,0.1-2,0.2-3.1,0.3c-1.7,0.2-3.4,0.4-5.3,0.5
			c-0.9,0.1-1.8,0.1-2.8,0.1l0,0c-1.8,0-3.6-0.1-5.5-0.3l0,0c-0.2,0-0.5,0-0.7-0.1c-0.9-0.1-1.7-0.1-2.4-0.1c-1.2,0-2.6,0.1-3.6,1.1
			c-0.5,0.5-0.8,1.3-0.9,2.2c0,0.5,0,1,0.2,1.5l0,0c0.3,1.1,0.9,2.2,1.8,3.4c0.2,0.3,0.5,0.6,0.7,0.8c2.6,2.8,7.5,5.8,13.6,5.9
			c0.3,0,0.6,0,0.8,0c6,0,10.6-2.8,13-5.4c0.2-0.2,0.4-0.4,0.6-0.7c1-1.3,1.6-2.6,1.8-3.8c0.1-0.4,0.1-0.7,0.1-1.1
			c0-1.2-0.4-2.3-1.1-3C-26.7,92.4-28.8,92.3-30.4,92.3z M-25.4,97c0,1.4-0.7,3-2.2,4.7l-0.1,0.1c-2.5,2.7-7.2,5.1-12.8,4.9
			c-5.6-0.2-10.3-2.9-12.7-5.6l0,0c-1.4-1.5-2.2-3.1-2.4-4.3c0-0.2-0.1-0.5,0-0.7c0-0.6,0.2-1.1,0.5-1.4c1-1.1,3.2-0.8,5.8-0.6
			c2.6,0.2,5.5,0.4,8.5,0.2c3.1-0.2,5.8-0.5,8.4-0.8c2.5-0.2,4.9-0.2,6.3,1.2c0.5,0.5,0.8,1.3,0.8,2.1C-25.4,96.9-25.4,96.9-25.4,97
			z"/>
	</g>
</g>
</svg>
