<?xml version="1.0" encoding="utf-8"?>
<!-- Generator: Adobe Illustrator 19.0.0, SVG Export Plug-In . SVG Version: 6.00 Build 0)  -->
<svg version="1.1" id="Layer_1" xmlns="http://www.w3.org/2000/svg" xmlns:xlink="http://www.w3.org/1999/xlink" x="0px" y="0px"
	 width="34px" height="34px" viewBox="-9 16 34 34" style="enable-background:new -9 16 34 34;" xml:space="preserve">
<style type="text/css">
	.st0{fill:#DA2619;}
	.st1{fill:#BC2313;}
	.st2{fill:#F39A6D;}
	.st3{fill:#237F29;}
</style>
<g id="XMLID_925_">
	<path id="XMLID_2646_" class="st0" d="M25,34.6c-0.1,6.9-4.9,12.7-11.3,14.6c-6.3,1.9-14.1,0.4-18.5-4.8c-2.2-2.6-4-6-4.2-9.5
		C-9.2,32-8.6,29-7,26.5c0.8-1.2,1.8-2.3,2.9-3.2c1.3-1.1,3-1.6,4.7-1.8c2.9-0.5,6-0.4,8.9-0.3c3.4,0.1,7.3,0.2,10.3,2.1
		c2.9,1.9,4.6,5.5,5.1,8.9C25,33,25,33.8,25,34.6C25,38.9,25,34.4,25,34.6z"/>
	<path id="XMLID_2670_" class="st1" d="M23.3,34.6c0,0,0,0.1,0,0.1c-0.1,5.9-4.2,11-10.1,12.8c-1.6,0.5-3.2,0.7-4.9,0.7
		c-0.1,0-0.2,0-0.2,0V22.9c0.3,0,0.6,0,0.8,0l0.6,0c3,0.1,6.7,0.2,9.4,1.9c2.7,1.7,4,5.1,4.3,7.6C23.3,33.1,23.3,33.8,23.3,34.6z"/>
	
		<ellipse id="XMLID_2643_" transform="matrix(0.9999 1.015701e-02 -1.015701e-02 0.9999 0.3217 2.252981e-02)" class="st2" cx="-2.1" cy="31.7" rx="2.4" ry="2"/>
	<path id="XMLID_2641_" class="st3" d="M19,28.7c-4.8-3.8-9.3-4.5-10.1-4.6c-0.6,0.4-1.8,1.2-2.7,2.6c-1.3,1.9-1.7,2.9-1.7,2.9
		s-1-1.8-0.2-3.6c0.2-0.4,0.4-0.8,0.6-1c-3,0.9-5,2.1-7.2,3.2c1.2-1.9,4.2-4.6,8.1-5.4c-4.4-1.1-7.4-0.1-8.7,0.4
		c2-1.8,6.9-3.5,10.2-2.2c0-0.2,0.1-0.3,0.1-0.5c0.1-0.7,0.1-1.5,0.1-2.2c0,0,0,0,0,0c0-0.3-0.1-0.6-0.1-0.9c0-0.1-0.1-0.2-0.1-0.3
		c-0.1-0.2-0.1-0.4-0.2-0.5c0,0,0,0,0,0c0-0.1,0-0.2,0.1-0.3C7.2,16.1,7.5,16,8,16c0.1,0,0.2,0,0.2,0l0.1,0.1c0.8,0.8,1.3,3.1,1.5,5
		c1.5-0.9,4.6-2.2,7.7,0.2c-1-0.1-2.1,0-3,0.2c-0.2,0-0.3,0.1-0.5,0.1c-0.2,0.1-0.5,0.1-0.7,0.2c0,0,0,0,0,0
		C13,22,12.9,22,12.7,22.1c-0.2,0.1-0.4,0.1-0.5,0.2c-0.1,0-0.1,0.1-0.2,0.1C14.5,22.9,17.5,24.7,19,28.7z"/>
</g>
</svg>
