<?xml version="1.0" encoding="utf-8"?>
<!-- Generator: Adobe Illustrator 19.0.0, SVG Export Plug-In . SVG Version: 6.00 Build 0)  -->
<svg version="1.1" id="Layer_1" xmlns="http://www.w3.org/2000/svg" xmlns:xlink="http://www.w3.org/1999/xlink" x="0px" y="0px"
	 width="67.8px" height="42.3px" viewBox="0 0 67.8 42.3" style="enable-background:new 0 0 67.8 42.3;" xml:space="preserve">
<style type="text/css">
	.st0{fill:#6B3D17;}
	.st1{fill:#BC2313;}
	.st2{fill:#F2CAAB;}
	.st3{fill:#861C06;}
	.st4{fill:#EC694E;}
</style>
<g id="XMLID_6591_">
	<path id="XMLID_6600_" class="st0" d="M67.8,18.7l0-7.7c0-2.9-1-5.5-2.8-7.2c-3.2-3.2-7.8-3-11.4-3c-1.5,0-3.1,0.1-4.2,0.2
		c0,0,0,0,0,0c-2,0.2-4,0.4-6.1,0.6C40,2,36.6,2.3,33,2.5c-1.7,0.1-3.5,0.2-5.4,0.2c-3.4,0-6.9-0.2-10.7-0.5H17
		c-0.5,0-0.9-0.1-1.3-0.1l0,0c-1.7-0.1-3.4-0.3-4.9-0.3c-2.7,0-6-0.3-8.5,2.1C0.9,5.2,0.1,7.1,0,9.4h0l0,8.3c0,0.2,0,0.4,0,0.6
		c0,0.1,0,0.3,0,0.4c0.2,3.3,1.9,7.3,5.9,11.5c5.3,5.6,15.4,11.7,28,11.9c0.6,0,1.1,0,1.7,0c12.3,0,21.9-5.6,26.8-10.9
		c3.5-3.7,5.1-7.5,5.3-10.9h0v-0.1C67.8,19.8,67.8,19.2,67.8,18.7z"/>
	<path id="XMLID_6599_" class="st1" d="M64.3,4.6C61.5,1.7,56.4,1.7,51,2.1c-5.5,0.5-11.3,1.3-17.8,1.6c-6.4,0.4-12.6,0.1-18-0.4
		C9.8,2.9,5.1,2.3,2.9,4.6c-0.7,0.7-1,1.7-1.1,3C1.8,8,1.9,8.5,2,9c0.4,2.5,2,5.7,5,9l0,0c5.2,5.7,15,11.5,27,11.7
		c11.8,0.6,21.9-4.7,27.1-10.3c0.1-0.1,0.1-0.1,0.2-0.2c3.2-3.4,4.6-7,4.7-9.9c0-0.1,0-0.1,0-0.2C66,7.2,65.4,5.6,64.3,4.6z"/>
	<path id="XMLID_6598_" class="st2" d="M51.7,9.1c-0.3-0.1-0.6-0.1-0.9-0.1c-0.3,0-0.5,0-0.8,0.1c-1.3,0.3-2.3,1.5-2.3,2.9
		c0,1.7,1.4,3,3,3c1.7,0,3-1.4,3-3C53.8,10.6,52.9,9.5,51.7,9.1z"/>
	<path id="XMLID_6597_" class="st3" d="M27.8,8.9c0-0.2-0.1-0.3-0.2-0.4c0-0.1-0.1-0.1-0.1-0.2C27.1,7.9,26.4,8,26,8.4l0,0.1h0
		l-0.4,0.5l-7.9,8.6c-0.2,0.2-0.3,0.4-0.3,0.7c0,0.3,0.1,0.6,0.3,0.8c0.2,0.2,0.4,0.3,0.7,0.3c0.3,0,0.6-0.1,0.8-0.3l0.6-0.6
		l7.8-8.5C27.8,9.5,27.9,9.2,27.8,8.9z"/>
	<path id="XMLID_6596_" class="st3" d="M18.7,8.6c0-0.1,0-0.2-0.1-0.3c0-0.1-0.1-0.2-0.2-0.3c-0.3-0.3-0.9-0.3-1.2,0L17,8.2h0
		l-0.2,0.2h0L11,14c-0.3,0.3-0.4,0.9,0,1.2c0.2,0.2,0.4,0.3,0.6,0.3c0.2,0,0.4-0.1,0.6-0.2l6.2-6C18.6,9,18.7,8.8,18.7,8.6z"/>
	<path id="XMLID_6595_" class="st3" d="M38.4,8.4C38.4,8.4,38.4,8.4,38.4,8.4C37.9,8,37.2,8,36.8,8.5l-0.2,0.2l-8.5,9.8l-2.7,3.1
		c-0.4,0.5-0.4,1.2,0.1,1.6c0.2,0.2,0.5,0.3,0.7,0.3c0.3,0,0.6-0.1,0.8-0.4l3.9-4.5l7.5-8.6c0.3-0.3,0.4-0.8,0.2-1.2
		C38.6,8.6,38.5,8.5,38.4,8.4z"/>
	<path id="XMLID_6592_" class="st4" d="M54.5,0c-1.5,0-3.1,0.1-4.3,0.2l0,0c-2,0.2-4.1,0.4-6.2,0.6c-3.4,0.4-7,0.7-10.8,0.9
		c-1.8,0.1-3.8,0.2-5.7,0.2c0,0,0,0,0,0c-3.6,0-7.3-0.2-11.3-0.6h-0.1c-0.5,0-0.9-0.1-1.4-0.1C12.9,1.1,11.3,1,9.7,1
		C7.4,1,4.4,1.2,2.4,3.3C1.3,4.4,0.7,5.9,0.6,7.8c0,0.9,0.1,2,0.4,3v0c0.6,2.2,1.7,4.5,3.7,7c0.4,0.6,0.9,1.1,1.5,1.7
		c5.2,5.7,15.3,11.9,27.7,12.1c0.6,0,1.2,0,1.7,0c12.2,0,21.6-5.7,26.4-11c0.4-0.5,0.8-0.9,1.2-1.4c2.1-2.6,3.3-5.3,3.7-7.7
		c0.1-0.8,0.2-1.5,0.2-2.2c0-2.5-0.8-4.7-2.3-6.1C62,0.4,57.8,0,54.5,0z M64.8,9.6c-0.1,2.8-1.4,6.2-4.5,9.5
		c-0.1,0.1-0.1,0.1-0.2,0.2c-5,5.4-14.7,10.5-26.1,10C22.5,29.1,13,23.4,8,18l0,0c-2.9-3.2-4.4-6.2-4.8-8.7c-0.1-0.5-0.1-1-0.1-1.4
		c0-1.2,0.4-2.2,1-2.9c2.1-2.2,6.6-1.6,11.8-1.2c5.2,0.5,11.2,0.8,17.4,0.4C39.5,3.8,45.1,3,50.4,2.6c5.2-0.4,10-0.4,12.8,2.4
		c1,1,1.6,2.6,1.6,4.4C64.8,9.5,64.8,9.5,64.8,9.6z"/>
</g>
</svg>
