<?xml version="1.0" encoding="utf-8"?>
<!-- Generator: Adobe Illustrator 19.0.0, SVG Export Plug-In . SVG Version: 6.00 Build 0)  -->
<svg version="1.1" id="Layer_1" xmlns="http://www.w3.org/2000/svg" xmlns:xlink="http://www.w3.org/1999/xlink" x="0px" y="0px"
	 width="60.7px" height="20.4px" viewBox="0 0 60.7 20.4" style="enable-background:new 0 0 60.7 20.4;" xml:space="preserve">
<style type="text/css">
	.st0{fill:#D05D21;}
	.st1{fill:#9D1712;}
	.st2{opacity:0.24;}
	.st3{fill:#F5B05F;}
</style>
<g id="XMLID_11643_">
	<g id="XMLID_11663_">
		<path id="XMLID_11664_" class="st0" d="M50.4,4c-20.5,6.5-26.5,0.6-40.1-3.6C6.4-0.8,2,0.9,0.5,4.7c-1.5,3.7,0.8,8.3,5.4,9.7
			c14.9,6.4,33.6,7.8,48.9,3.6c4.6-1.4,7-6,5.4-9.7C58.7,4.6,54.4,2.8,50.4,4z"/>
	</g>
	<g id="XMLID_11661_">
		<path id="XMLID_11662_" class="st1" d="M11.3,8.3c-0.8,2.8-1.9,5-2.5,4.8C8.3,13,8.5,10.6,9.4,7.8c0.9-2.8,2-5,2.5-4.8
			C12.3,3.1,12.1,5.5,11.3,8.3z"/>
	</g>
	<g id="XMLID_11652_">
		<path id="XMLID_11660_" class="st1" d="M23.4,11.1c-0.5,2.9-1.3,5.2-1.9,5.1C21,16,21,13.6,21.5,10.7c0.5-2.9,1.4-5.2,1.9-5.1
			C23.9,5.7,23.9,8.1,23.4,11.1z"/>
	</g>
	<g id="XMLID_11650_">
		<path id="XMLID_11651_" class="st1" d="M35.8,12.4c-0.2,2.9-0.7,5.3-1.3,5.3c-0.6,0-0.9-2.5-0.6-5.4C34,9.3,34.6,7,35.1,7
			C35.6,7.1,35.9,9.5,35.8,12.4z"/>
	</g>
	<g id="XMLID_11648_">
		<path id="XMLID_11649_" class="st1" d="M47.3,12c0.8,2.8,1,5.3,0.4,5.4c-0.6,0.2-1.6-2-2.4-4.9c-0.7-2.8-0.9-5.3-0.4-5.4
			C45.4,7,46.5,9.2,47.3,12z"/>
	</g>
	<g id="XMLID_11646_" class="st2">
		<path id="XMLID_11647_" class="st3" d="M44.8,6.4C32.5,9.9,24.6,7.6,11.3,1.5C7.7,0.4,4.1,1.3,3.2,3.8c-1,2.5,1.4,5.7,5.3,6.8
			c12.3,4.5,18.4,10.2,38.7,5.1c4-1,6.4-4.1,5.6-6.6C51.9,6.6,48.4,5.5,44.8,6.4z"/>
	</g>
</g>
</svg>
