<?xml version="1.0" encoding="utf-8"?>
<!-- Generator: Adobe Illustrator 19.0.0, SVG Export Plug-In . SVG Version: 6.00 Build 0)  -->
<svg version="1.1" id="Layer_1" xmlns="http://www.w3.org/2000/svg" xmlns:xlink="http://www.w3.org/1999/xlink" x="0px" y="0px"
	 width="73.6px" height="63.1px" viewBox="247.8 4.5 73.6 63.1" style="enable-background:new 247.8 4.5 73.6 63.1;"
	 xml:space="preserve">
<style type="text/css">
	.st0{opacity:0.51;fill:url(#XMLID_40_);}
	.st1{opacity:0.59;}
	.st2{fill:#FFFFFF;}
	.st3{fill:#5BC4BF;}
	.st4{fill:#419794;}
	.st5{opacity:0.51;fill:url(#XMLID_41_);}
</style>
<g id="XMLID_16830_">
	
		<radialGradient id="XMLID_40_" cx="-7309.2603" cy="-1929.9688" r="53.459" gradientTransform="matrix(2.422222e-11 0.4268 -1 3.551951e-11 -1731.6498 4910.3257)" gradientUnits="userSpaceOnUse">
		<stop  offset="0.3039" style="stop-color:#FFFFFF"/>
		<stop  offset="0.729" style="stop-color:#FFFFFF;stop-opacity:0"/>
	</radialGradient>
	<path id="XMLID_16829_" class="st0" d="M649.6,2255.9L649.6,2255.9c0-16.4,13.3-29.7,29.7-29.7h0c16.4,0,29.7,13.3,29.7,29.7l0,0
		c0,16.4-13.3,29.7-29.7,29.7h0C662.9,2285.6,649.6,2272.3,649.6,2255.9z"/>
	<g id="XMLID_16816_" class="st1">
		<g id="XMLID_16794_">
			<circle id="XMLID_16815_" class="st2" cx="643.8" cy="2271.8" r="1.9"/>
			<circle id="XMLID_16814_" class="st2" cx="672.4" cy="2267.6" r="1.9"/>
			<circle id="XMLID_16813_" class="st2" cx="659.3" cy="2255" r="1.2"/>
			<circle id="XMLID_16812_" class="st2" cx="663" cy="2271.3" r="1.2"/>
			<circle id="XMLID_16811_" class="st2" cx="653.5" cy="2264.7" r="1.2"/>
			<circle id="XMLID_16810_" class="st2" cx="650.2" cy="2252.5" r="1.2"/>
			<circle id="XMLID_16809_" class="st2" cx="644.7" cy="2246" r="0.7"/>
			<circle id="XMLID_16808_" class="st2" cx="662.1" cy="2261" r="0.7"/>
			<circle id="XMLID_16807_" class="st2" cx="669.2" cy="2236.5" r="0.7"/>
			<circle id="XMLID_16806_" class="st2" cx="669" cy="2277.9" r="0.7"/>
			<circle id="XMLID_16795_" class="st2" cx="661.2" cy="2223.1" r="0.7"/>
		</g>
		<g id="XMLID_16817_">
			<circle id="XMLID_16828_" class="st2" cx="713.6" cy="2233.1" r="1.9"/>
			<circle id="XMLID_16827_" class="st2" cx="685" cy="2237.3" r="1.9"/>
			<circle id="XMLID_16826_" class="st2" cx="698" cy="2249.9" r="1.2"/>
			<circle id="XMLID_16825_" class="st2" cx="694.4" cy="2233.6" r="1.2"/>
			<circle id="XMLID_16824_" class="st2" cx="703.8" cy="2240.3" r="1.2"/>
			<circle id="XMLID_16823_" class="st2" cx="707.1" cy="2252.4" r="1.2"/>
			<circle id="XMLID_16822_" class="st2" cx="712.6" cy="2258.9" r="0.7"/>
			<circle id="XMLID_16821_" class="st2" cx="695.2" cy="2244" r="0.7"/>
			<circle id="XMLID_16820_" class="st2" cx="688.1" cy="2268.5" r="0.7"/>
			<circle id="XMLID_16819_" class="st2" cx="688.3" cy="2227.1" r="0.7"/>
			<circle id="XMLID_16818_" class="st2" cx="696.1" cy="2281.8" r="0.7"/>
		</g>
	</g>
	<g id="XMLID_16793_">
		<path id="XMLID_16796_" class="st3" d="M660.1,2255.9h-4v4.3H654v-4.3h-4v-1.9h4v-4.3h2.1v4.3h4V2255.9z"/>
		<path id="XMLID_16798_" class="st3" d="M671.9,2260.1v1.9h-8.3v-1.9h3.1v-8.8c0-0.3,0-0.7,0-1.1l-2.2,1.8
			c-0.1,0.1-0.2,0.2-0.4,0.2s-0.2,0-0.3,0s-0.2-0.1-0.3-0.1s-0.1-0.1-0.2-0.2l-0.8-1.1l4.6-3.9h2.1v13.2H671.9z"/>
		<path id="XMLID_16800_" class="st4" d="M691.9,2268.3c-7.6,0-13.7-6.1-13.7-13.7s6.1-13.7,13.7-13.7s13.7,6.1,13.7,13.7
			S699.5,2268.3,691.9,2268.3z M691.9,2243.1c-6.3,0-11.4,5.1-11.4,11.4s5.1,11.4,11.4,11.4s11.4-5.1,11.4-11.4
			S698.2,2243.1,691.9,2243.1z M687.4,2252.3c-1.3,0-2.3-1-2.3-2.3s1-2.3,2.3-2.3s2.3,1,2.3,2.3S688.6,2252.3,687.4,2252.3z
			 M691.9,2262.6c-3,0-5.6-1.9-6.5-4.8c-0.2-0.6,0.1-1.2,0.8-1.4c0.6-0.2,1.2,0.1,1.4,0.8c0.6,1.9,2.4,3.2,4.4,3.2s3.8-1.3,4.4-3.2
			c0.2-0.6,0.8-0.9,1.4-0.8c0.6,0.2,0.9,0.8,0.7,1.4C697.6,2260.6,694.9,2262.6,691.9,2262.6z M696.5,2252.3c-1.3,0-2.3-1-2.3-2.3
			s1-2.3,2.3-2.3s2.3,1,2.3,2.3S697.8,2252.3,696.5,2252.3z"/>
	</g>
</g>
<g id="XMLID_1_">
	
		<radialGradient id="XMLID_41_" cx="-11415.3525" cy="-2016.9689" r="53.459" gradientTransform="matrix(2.422222e-11 0.4268 -1 3.551951e-11 -1731.6498 4910.3257)" gradientUnits="userSpaceOnUse">
		<stop  offset="0.3039" style="stop-color:#FFFFFF"/>
		<stop  offset="0.729" style="stop-color:#FFFFFF;stop-opacity:0"/>
	</radialGradient>
	<path id="XMLID_38_" class="st5" d="M255.6,37.9L255.6,37.9c0-16.4,13.3-29.7,29.7-29.7h0c16.4,0,29.7,13.3,29.7,29.7v0
		c0,16.4-13.3,29.7-29.7,29.7h0C268.9,67.6,255.6,54.3,255.6,37.9z"/>
	<g id="XMLID_13_" class="st1">
		<g id="XMLID_26_">
			<circle id="XMLID_37_" class="st2" cx="249.8" cy="53.8" r="1.9"/>
			<circle id="XMLID_36_" class="st2" cx="278.4" cy="49.6" r="1.9"/>
			<circle id="XMLID_35_" class="st2" cx="265.3" cy="37" r="1.2"/>
			<circle id="XMLID_34_" class="st2" cx="269" cy="53.3" r="1.2"/>
			<circle id="XMLID_33_" class="st2" cx="259.5" cy="46.7" r="1.2"/>
			<circle id="XMLID_32_" class="st2" cx="256.2" cy="34.5" r="1.2"/>
			<circle id="XMLID_31_" class="st2" cx="250.7" cy="28" r="0.7"/>
			<circle id="XMLID_30_" class="st2" cx="268.1" cy="43" r="0.7"/>
			<circle id="XMLID_29_" class="st2" cx="275.2" cy="18.5" r="0.7"/>
			<circle id="XMLID_28_" class="st2" cx="275" cy="59.9" r="0.7"/>
			<circle id="XMLID_27_" class="st2" cx="267.2" cy="5.1" r="0.7"/>
		</g>
		<g id="XMLID_14_">
			<circle id="XMLID_25_" class="st2" cx="319.6" cy="15.1" r="1.9"/>
			<circle id="XMLID_24_" class="st2" cx="291" cy="19.3" r="1.9"/>
			<circle id="XMLID_23_" class="st2" cx="304" cy="31.9" r="1.2"/>
			<circle id="XMLID_22_" class="st2" cx="300.4" cy="15.6" r="1.2"/>
			<circle id="XMLID_21_" class="st2" cx="309.8" cy="22.3" r="1.2"/>
			<circle id="XMLID_20_" class="st2" cx="313.1" cy="34.4" r="1.2"/>
			<circle id="XMLID_19_" class="st2" cx="318.6" cy="40.9" r="0.7"/>
			<circle id="XMLID_18_" class="st2" cx="301.2" cy="26" r="0.7"/>
			<circle id="XMLID_17_" class="st2" cx="294.1" cy="50.5" r="0.7"/>
			<circle id="XMLID_16_" class="st2" cx="294.3" cy="9.1" r="0.7"/>
			<circle id="XMLID_15_" class="st2" cx="302.1" cy="63.8" r="0.7"/>
		</g>
	</g>
	<g id="XMLID_2_">
		<path id="XMLID_11_" class="st3" d="M266.1,37.9h-4v4.3H260v-4.3h-4V36h4v-4.3h2.1V36h4V37.9z"/>
		<path id="XMLID_9_" class="st3" d="M277.9,42.1V44h-8.3v-1.9h3.1v-8.8c0-0.3,0-0.7,0-1.1l-2.2,1.8c-0.1,0.1-0.2,0.2-0.4,0.2
			s-0.2,0-0.3,0s-0.2-0.1-0.3-0.1s-0.1-0.1-0.2-0.2l-0.8-1.1l4.6-3.9h2.1v13.2H277.9z"/>
		<path id="XMLID_3_" class="st4" d="M297.9,50.3c-7.6,0-13.7-6.1-13.7-13.7s6.1-13.7,13.7-13.7s13.7,6.1,13.7,13.7
			S305.5,50.3,297.9,50.3z M297.9,25.1c-6.3,0-11.4,5.1-11.4,11.4S291.6,48,297.9,48s11.4-5.1,11.4-11.4S304.2,25.1,297.9,25.1z
			 M293.4,34.3c-1.3,0-2.3-1-2.3-2.3s1-2.3,2.3-2.3s2.3,1,2.3,2.3S294.6,34.3,293.4,34.3z M297.9,44.6c-3,0-5.6-1.9-6.5-4.8
			c-0.2-0.6,0.1-1.2,0.8-1.4c0.6-0.2,1.2,0.1,1.4,0.8c0.6,1.9,2.4,3.2,4.4,3.2s3.8-1.3,4.4-3.2c0.2-0.6,0.8-0.9,1.4-0.8
			c0.6,0.2,0.9,0.8,0.7,1.4C303.6,42.6,300.9,44.6,297.9,44.6z M302.5,34.3c-1.3,0-2.3-1-2.3-2.3s1-2.3,2.3-2.3s2.3,1,2.3,2.3
			S303.8,34.3,302.5,34.3z"/>
	</g>
</g>
</svg>
