<?xml version="1.0" encoding="utf-8"?>
<!-- Generator: Adobe Illustrator 19.0.0, SVG Export Plug-In . SVG Version: 6.00 Build 0)  -->
<svg version="1.1" id="Layer_1" xmlns="http://www.w3.org/2000/svg" xmlns:xlink="http://www.w3.org/1999/xlink" x="0px" y="0px"
	 width="175.9px" height="29.7px" viewBox="-371 111.3 175.9 29.7" style="enable-background:new -371 111.3 175.9 29.7;"
	 xml:space="preserve">
<style type="text/css">
	.st0{fill:#003361;}
	.st1{fill:#008296;}
</style>
<g id="XMLID_2736_">
	<g id="XMLID_2905_">
		<path id="XMLID_2940_" class="st0" d="M-362.1,127.2c-5.7,0-8.9-4-8.9-8c0-3.7,3-8,8.9-8c5.8,0,8.9,4.2,8.9,8
			C-353.3,123.2-356.6,127.2-362.1,127.2z M-362.1,114.5c-3,0-4.9,1.9-4.9,4.8s2,4.7,4.9,4.7s4.9-1.9,4.9-4.7
			S-359.2,114.5-362.1,114.5z"/>
		<path id="XMLID_2937_" class="st0" d="M-348.8,117.4c0.9-0.8,1.9-1.1,3-1.1c2.7,0,4.9,2.3,4.9,5.3c0,3.4-2,5.6-5.2,5.6
			c-0.9,0-1.9-0.3-2.7-0.7v5.7h-3.3v-15.7h3.3V117.4z M-348.8,124.3c0.7,0.5,1.2,0.7,1.9,0.7c1.6,0,2.6-1.2,2.6-3.2
			s-0.9-3.2-2.5-3.2c-0.7,0-1.2,0.2-2,0.8V124.3z"/>
		<path id="XMLID_2934_" class="st0" d="M-328.8,125.8c-1.9,1.4-3.9,1.4-4.7,1.4c-3.7,0-6.1-2.1-6.1-5.4c0.1-3.2,2.4-5.5,5.6-5.5
			c3,0,5.6,2.2,5.4,6h-7.5c0.1,1.9,1.4,3,3.5,3c1.3,0,2.3-0.4,3.9-1.5L-328.8,125.8L-328.8,125.8z M-331.5,120.6
			c-0.1-1.4-1-2.3-2.3-2.3c-1.3,0-2.1,0.8-2.3,2.3H-331.5z"/>
		<path id="XMLID_2932_" class="st0" d="M-323.9,118c1-1.2,2.1-1.7,3.4-1.7c1.6,0,3.8,0.9,3.8,4v6.7h-3.3v-6.4
			c0-1.5-0.7-2.1-1.6-2.1c-0.8,0-1.4,0.4-2.3,1.7v6.7h-3.3v-10.4h3.3C-323.9,116.5-323.9,118-323.9,118z"/>
		<path id="XMLID_2929_" class="st0" d="M-301.6,111.5c3.5,0,5.1,2.5,5.1,4.6c0,2.2-1.5,4.7-5.1,4.7h-3.1v6.2h-3.9v-15.5H-301.6z
			 M-304.6,117.9h1.8c1.8,0,2.4-0.6,2.4-1.8c0-1.3-0.7-1.8-2.8-1.8h-1.4V117.9z"/>
		<path id="XMLID_2926_" class="st0" d="M-290.7,127.2c-3.4,0-5.9-2.2-5.9-5.5c0-3.6,2.8-5.4,5.9-5.4c2.6,0,5.9,1.4,5.9,5.5
			S-288.3,127.2-290.7,127.2z M-290.7,118.3c-1.4,0-2.4,1.1-2.4,3.5c0,2.7,1.2,3.5,2.4,3.5c1.5,0,2.4-1.3,2.4-3.6
			C-288.3,119.6-289,118.3-290.7,118.3z"/>
		<path id="XMLID_2924_" class="st0" d="M-279.9,127h-3.3v-15.5h3.3V127z"/>
		<path id="XMLID_2922_" class="st0" d="M-274.4,132h-3.5l3.1-6.7l-4.1-8.8h3.5l2.2,5.4l2.4-5.4h3.5L-274.4,132z"/>
		<path id="XMLID_2920_" class="st0" d="M-258.3,118.8h-3.8v4.3c0,1,0.6,1.7,1.6,1.7c0.7,0,1.3-0.2,2.2-0.6v2.4
			c-1.2,0.5-2,0.7-3,0.7c-2.2,0-4.1-1-4.1-3.9v-4.6h-1.5v-0.7l4.4-4.9h0.4v3.3h3.8V118.8z"/>
		<path id="XMLID_2917_" class="st0" d="M-246.6,125.8c-1.9,1.4-3.9,1.4-4.7,1.4c-3.7,0-6.1-2.1-6.1-5.4c0-3.2,2.3-5.5,5.5-5.5
			c3,0,5.6,2.2,5.4,6h-7.5c0.1,1.9,1.4,3,3.5,3c1.3,0,2.3-0.4,3.9-1.5C-246.6,123.8-246.6,125.8-246.6,125.8z M-249.3,120.6
			c-0.1-1.4-1-2.3-2.3-2.3s-2.1,0.8-2.3,2.3H-249.3z"/>
		<path id="XMLID_2915_" class="st0" d="M-235.4,126.5c-1.3,0.5-2.4,0.7-3.5,0.7c-3.7,0-6.1-2.1-6.1-5.4c0-3.2,2.5-5.5,5.9-5.5
			c1.1,0,2.4,0.3,3.5,0.7v2.5c-0.9-0.5-1.9-0.7-2.7-0.7c-2,0-3.2,1.2-3.2,3c0,1.9,1.2,3.1,3.1,3.1c0.8,0,1.5-0.2,3-0.7L-235.4,126.5
			L-235.4,126.5z"/>
		<path id="XMLID_2913_" class="st0" d="M-230.1,118.1L-230.1,118.1c1-1.2,2.1-1.7,3.4-1.7c1.9,0,3.8,1.2,3.8,4v6.7h-3.3v-6
			c0-1.6-0.7-2.3-1.7-2.3c-0.8,0-1.4,0.5-2.2,1.6v6.7h-3.3v-15.6h3.3V118.1z"/>
		<path id="XMLID_2911_" class="st0" d="M-218.1,118c1-1.2,2.1-1.7,3.4-1.7c1.6,0,3.8,0.9,3.8,4v6.7h-3.3v-6.4
			c0-1.5-0.7-2.1-1.6-2.1c-0.8,0-1.4,0.4-2.3,1.7v6.7h-3.3v-10.4h3.3L-218.1,118L-218.1,118z"/>
		<path id="XMLID_2908_" class="st0" d="M-205.7,113.1c0,1-0.8,1.8-1.8,1.8s-1.8-0.8-1.8-1.8s0.8-1.8,1.8-1.8
			S-205.7,112.1-205.7,113.1z M-205.9,127h-3.3v-10.5h3.3V127z"/>
		<path id="XMLID_2906_" class="st0" d="M-195.1,126.5c-1.3,0.5-2.4,0.7-3.5,0.7c-3.7,0-6.1-2.1-6.1-5.4c0-3.2,2.5-5.5,5.9-5.5
			c1.1,0,2.4,0.3,3.5,0.7v2.5c-0.9-0.5-1.9-0.7-2.7-0.7c-2,0-3.2,1.2-3.2,3c0,1.9,1.3,3.1,3.1,3.1c0.8,0,1.5-0.2,3-0.7V126.5z"/>
	</g>
	<g id="XMLID_2902_">
		<path id="XMLID_2903_" class="st1" d="M-365,140.8l0.1,0.1h-1.4l0,0l-3-2.9v2.9l0,0h-0.9v-6.2h0.1h0.9v2.7l2.5-2.7h1.2l-2.7,2.9
			L-365,140.8"/>
	</g>
	<g id="XMLID_2899_">
		<path id="XMLID_2900_" class="st1" d="M-358.4,138.5v-3.8h0.1h0.9v3.7c0,0.7,0.1,0.9,0.3,1.2l0,0c0.3,0.3,0.8,0.5,1.3,0.5l0,0
			c0.7,0,1.1-0.2,1.4-0.5l0,0c0.3-0.3,0.4-0.7,0.4-1.3l0,0v-3.6l0,0h0.9v3.8c0,1.5-0.9,2.5-2.8,2.5l0,0
			C-357.1,141-358.4,140.2-358.4,138.5L-358.4,138.5z"/>
	</g>
	<g id="XMLID_2896_">
		<path id="XMLID_2897_" class="st1" d="M-320.8,140.9h-0.9v-5.3h-2.1v-0.1v-0.8h5.2v0.1v0.8v0.1h-2.1L-320.8,140.9L-320.8,140.9
			L-320.8,140.9z"/>
	</g>
	<g id="XMLID_2893_">
		<path id="XMLID_2894_" class="st1" d="M-310.9,140.9h-0.9v-6.2h0.1h0.9L-310.9,140.9L-310.9,140.9L-310.9,140.9L-310.9,140.9z"/>
	</g>
	<g id="XMLID_2890_">
		<path id="XMLID_2891_" class="st1" d="M-297.8,140.9h-0.8l-4-4.6v4.6h-0.1h-0.9v-6.2h0.1h0.7l4,4.6v-4.6h0.1h0.9L-297.8,140.9
			L-297.8,140.9L-297.8,140.9L-297.8,140.9z"/>
	</g>
	<g id="XMLID_2887_">
		<path id="XMLID_2888_" class="st1" d="M-289.5,140.9h-0.9v-6.2h0.1h0.9L-289.5,140.9L-289.5,140.9L-289.5,140.9L-289.5,140.9z"/>
	</g>
	<g id="XMLID_2884_">
		<path id="XMLID_2885_" class="st1" d="M-272.1,140.9h-0.9v-5.3h-2.1v-0.1v-0.8h5.2v0.1v0.8v0.1h-2.1L-272.1,140.9L-272.1,140.9
			L-272.1,140.9z"/>
	</g>
	<g id="XMLID_2881_">
		<path id="XMLID_2882_" class="st1" d="M-263.3,138.5v-3.8h0.1h0.9v3.7c0,0.7,0.1,0.9,0.3,1.2l0,0c0.3,0.3,0.8,0.5,1.3,0.5l0,0
			c0.7,0,1.1-0.2,1.4-0.5l0,0c0.3-0.3,0.4-0.7,0.4-1.3l0,0v-3.6h0.1h0.9v3.8c0,1.5-0.9,2.5-2.8,2.5l0,0
			C-262,141-263.3,140.2-263.3,138.5L-263.3,138.5z"/>
	</g>
	<g id="XMLID_2873_">
		<path id="XMLID_2878_" class="st1" d="M-248.8,140.9h-0.2 M-244.6,140.9h-0.2"/>
		<path id="XMLID_2875_" class="st1" d="M-244.6,141h-0.2l-2-4.9l-2,4.9l0,0h-0.2l-2.5-6.3h0.1h0.9l1.6,4.1l1.6-4.1l0,0h0.9l1.7,4.1
			l1.6-4.1l0,0h1L-244.6,141L-244.6,141L-244.6,141L-244.6,141z M-244.6,140.9L-244.6,140.9"/>
	</g>
	<g id="XMLID_2869_">
		<path id="XMLID_2871_" class="st1" d="M-230.2,140.9h-0.9v-2.7h-3.3v2.7h-0.1h-0.9v-6.2h0.1h0.9v2.7h3.3v-2.7h0.1h0.9
			L-230.2,140.9L-230.2,140.9L-230.2,140.9L-230.2,140.9z"/>
	</g>
	<g id="XMLID_2866_">
		<path id="XMLID_2867_" class="st1" d="M-222.8,140.9v-6.2h3.6v0.1v0.8v0.1h-2.6v1.6h2.5v0.1v0.8h-2.5v1.8h2.7v0.1v0.8
			L-222.8,140.9L-222.8,140.9z"/>
	</g>
	<g id="XMLID_2749_">
		<path id="XMLID_2750_" class="st1" d="M-210.6,134.7c1.3,0,2.1,0.7,2.1,1.8l0,0c0,0.7-0.3,1.2-1,1.5l0,0c0.5,0.4,0.8,0.9,1.3,1.6
			l0,0c0.3,0.4,0.4,0.6,0.8,1.2l0,0l0.1,0.1h-0.1l0,0h-1.1l-0.8-1.3c-0.8-1.2-1.1-1.4-1.6-1.4l0,0h-0.3v2.6h-0.1h-0.9v-6.2
			L-210.6,134.7 M-210.7,137.4c0.9,0,1.1-0.4,1.1-0.9l0,0l0,0l0,0c0-0.5-0.3-0.9-1.1-0.9l0,0h-0.5v1.8H-210.7L-210.7,137.4z"/>
	</g>
	<g id="XMLID_2745_">
		<path id="XMLID_2746_" class="st1" d="M-344.3,134.7c1.3,0,2.1,0.7,2.1,1.8l0,0c0,0.7-0.3,1.2-1,1.5l0,0c0.5,0.4,0.8,0.9,1.3,1.6
			l0,0c0.3,0.4,0.4,0.6,0.8,1.2l0,0l0.1,0.1h-0.1l0,0h-1.1l-0.8-1.3c-0.8-1.2-1.1-1.4-1.6-1.4l0,0h-0.3v2.6h-0.1h-0.9v-6.2
			L-344.3,134.7 M-344.4,137.4c0.9,0,1.1-0.4,1.1-0.9l0,0l0,0l0,0c0-0.5-0.3-0.9-1.1-0.9l0,0h-0.5v1.8H-344.4L-344.4,137.4z"/>
	</g>
	<path id="XMLID_2741_" class="st1" d="M-329,140.8l-2.7-6.2h-0.7l-2.7,6.2h1l0.8-1.8h2.5l0.8,1.8H-329L-329,140.8z M-332.9,138.2
		l0.8-2l0.9,2H-332.9z"/>
	<path id="XMLID_2738_" class="st1" d="M-195.4,140.8l-2.7-6.2h-0.7l-2.7,6.2h1l0.8-1.8h2.5l0.8,1.8H-195.4L-195.4,140.8z
		 M-199.3,138.2l0.8-2l0.9,2H-199.3z"/>
</g>
</svg>
