<?xml version="1.0" encoding="utf-8"?>
<!-- Generator: Adobe Illustrator 19.0.0, SVG Export Plug-In . SVG Version: 6.00 Build 0)  -->
<svg version="1.1" id="Layer_1" xmlns="http://www.w3.org/2000/svg" xmlns:xlink="http://www.w3.org/1999/xlink" x="0px" y="0px"
	 width="136px" height="138.6px" viewBox="51 -58 136 138.6" style="enable-background:new 51 -58 136 138.6;" xml:space="preserve"
	>
<style type="text/css">
	.st0{fill:#FFDFB3;}
	.st1{opacity:0.1;fill:#212126;enable-background:new    ;}
	.st2{fill:#212126;}
	.st3{fill:#ECEDF0;}
	.st4{fill:#DDDFE5;}
	.st5{opacity:0.7;fill:#FFFFFF;enable-background:new    ;}
	.st6{fill:#EA5E65;}
	.st7{opacity:0.15;fill:#484C54;enable-background:new    ;}
	.st8{fill:#9EA5B5;}
</style>
<g id="XMLID_3447_">
	<path id="XMLID_16_" class="st0" d="M60.4,1l-8.6-25c0-15.6,12.6-28.2,28.2-28.2h1.5V59.5H56.9L60.4,1z"/>
	<path id="XMLID_15_" class="st1" d="M75.4-38.4L70.9-27c-1.7-1.5-3.4-5.5-3.4-9.5s4.6-9.2,4.6-9.2L75.4-38.4z"/>
	<path id="XMLID_3458_" class="st0" d="M181.1,59.5h-24.6V-52.2h1.5c15.6,0,28.2,12.6,28.2,28.2l-8.6,25L181.1,59.5z"/>
	<path id="XMLID_11642_" class="st1" d="M166-45.7c0,0,4.6,5.2,4.6,9.2s-1.7,8-3.4,9.5l-4.5-11.4L166-45.7z"/>
	<g id="XMLID_3444_">
		<g id="XMLID_3440_">
			<path id="XMLID_3439_" class="st2" d="M178.8-48.8h-13.6v-6.6h13.6c1.3,0,2.3,1,2.3,2.3v2.1C181.1-49.8,180.1-48.8,178.8-48.8z"
				/>
			<path id="XMLID_3441_" class="st2" d="M59.3-55.4h13.6v6.7H59.3C58-48.8,57-49.8,57-51.1v-2.1C57-54.4,58-55.4,59.3-55.4z"/>
		</g>
		<g id="XMLID_3443_">
			<path id="XMLID_3438_" class="st3" d="M154.6-7.6h-71c-6.9,0-12.5-5.6-12.5-12.5V-58H167v38C167.1-13.1,161.5-7.6,154.6-7.6z"/>
			<path id="XMLID_3442_" class="st4" d="M163-58c-1.6,25.1-33.3,45.2-72.1,45.2c-6.5,0-12.8-0.6-18.9-1.6c1.7,4.1,5.7,6.9,10.3,6.9
				h73.5c6.2,0,11.2-5,11.2-11.2V-58H163z"/>
		</g>
	</g>
	<path id="XMLID_3445_" class="st0" d="M178.4,58h-12.3l-9.4-62.9c-0.3-2.3-0.2-4.6,0.3-6.8l3.9-14.1h25.3l-10,27.9L178.4,58z"/>
	<path id="XMLID_3456_" class="st0" d="M162.4-18L162.4-18c-4.7,0-8.5-3.8-8.5-8.5v-8.2c0-3.1,2.5-5.6,5.6-5.6l0,0
		c3.1,0,5.6,2.5,5.6,5.6l2.4,10.1C168.4-21.2,165.8-18,162.4-18z"/>
	<path id="XMLID_11644_" class="st1" d="M164.7-18.8L164.7-18.8c-4.8,0-8.7-3.9-8.7-8.7v-8.4c0-1.6,0.6-3,1.7-4.1
		c-2.2,0.8-3.8,2.9-3.8,5.3v8.2c0,4.7,3.8,8.5,8.5,8.5l0,0c1,0,1.9-0.3,2.7-0.8C165-18.8,164.9-18.8,164.7-18.8z"/>
	<path id="XMLID_274_" class="st5" d="M156.4-35.1c0-1.9,1.5-3.4,3.4-3.4s3.4,1.5,3.4,3.4H156.4z"/>
	<polygon id="XMLID_269_" class="st1" points="181.5,58 156.6,58 156.6,8.8 178.1,8.8 	"/>
	<g id="XMLID_3455_">
		<rect id="XMLID_3452_" x="150.6" y="23.2" class="st6" width="34.7" height="57"/>
		<rect id="XMLID_3446_" x="151" y="23.5" class="st7" width="6.5" height="57.1"/>
		<rect id="XMLID_3448_" x="164.7" y="23.5" class="st7" width="6.5" height="57.1"/>
		<rect id="XMLID_3449_" x="178.3" y="23.5" class="st7" width="6.5" height="57.1"/>
		<rect id="XMLID_3451_" x="150.4" y="32.1" class="st7" width="35.4" height="6.5"/>
		<rect id="XMLID_3450_" x="150.4" y="45.8" class="st7" width="35.4" height="6.5"/>
		<path id="XMLID_3454_" class="st6" d="M184.5,24.9h-33.3c-1.4,0-2.5-1.1-2.5-2.5v-9.3c0-1.4,1.1-2.5,2.5-2.5h33.3
			c1.4,0,2.5,1.1,2.5,2.5v9.3C186.9,23.8,185.8,24.9,184.5,24.9z"/>
		<circle id="XMLID_3453_" class="st8" cx="154.8" cy="18.6" r="3"/>
	</g>
	<path id="XMLID_14_" class="st0" d="M61.8,2.1l-10-27.9h25.3L81-11.7c0.5,2.2,0.6,4.5,0.3,6.8L71.9,58H59.6L61.8,2.1z"/>
	<path id="XMLID_13_" class="st0" d="M70.6-24.6L73-34.7c0-3.1,2.5-5.6,5.6-5.6l0,0c3.1,0,5.6,2.5,5.6,5.6v8.2
		c0,4.7-3.8,8.5-8.5,8.5l0,0C72.3-18,69.7-21.2,70.6-24.6z"/>
	<path id="XMLID_12_" class="st1" d="M73-18.8c0.8,0.5,1.7,0.8,2.7,0.8l0,0c4.7,0,8.5-3.8,8.5-8.5v-8.2c0-2.4-1.6-4.5-3.8-5.3
		c1.1,1.1,1.7,2.5,1.7,4.1v8.4c0,4.8-3.9,8.7-8.7,8.7l0,0C73.2-18.8,73.1-18.8,73-18.8z"/>
	<path id="XMLID_11_" class="st5" d="M74.9-35.1c0-1.9,1.5-3.4,3.4-3.4s3.4,1.5,3.4,3.4H74.9z"/>
	<polygon id="XMLID_10_" class="st1" points="59.9,8.8 81.5,8.8 81.5,58 56.5,58 	"/>
	<g id="XMLID_1_">
		<rect id="XMLID_9_" x="52.8" y="23.2" class="st6" width="34.7" height="57"/>
		<rect id="XMLID_8_" x="80.6" y="23.5" class="st7" width="6.5" height="57.1"/>
		<rect id="XMLID_7_" x="66.9" y="23.5" class="st7" width="6.5" height="57.1"/>
		<rect id="XMLID_6_" x="53.2" y="23.5" class="st7" width="6.5" height="57.1"/>
		<rect id="XMLID_5_" x="52.3" y="32.1" class="st7" width="35.4" height="6.5"/>
		<rect id="XMLID_4_" x="52.3" y="45.8" class="st7" width="35.4" height="6.5"/>
		<rect id="XMLID_20_" x="150.4" y="60" class="st7" width="35.4" height="6.5"/>
		<rect id="XMLID_19_" x="150.4" y="73.6" class="st7" width="35.4" height="6.5"/>
		<rect id="XMLID_18_" x="52.3" y="60" class="st7" width="35.4" height="6.5"/>
		<rect id="XMLID_17_" x="52.3" y="73.6" class="st7" width="35.4" height="6.5"/>
		<path id="XMLID_3_" class="st6" d="M51,22.4v-9.3c0-1.4,1.1-2.5,2.5-2.5h33.3c1.4,0,2.5,1.1,2.5,2.5v9.3c0,1.4-1.1,2.5-2.5,2.5
			H53.5C52.2,24.9,51.1,23.8,51,22.4z"/>
		<circle id="XMLID_2_" class="st8" cx="83.3" cy="18.6" r="3"/>
	</g>
</g>
</svg>
