<?xml version="1.0" encoding="utf-8"?>
<!-- Generator: Adobe Illustrator 19.0.0, SVG Export Plug-In . SVG Version: 6.00 Build 0)  -->
<svg version="1.1" id="Layer_1" xmlns="http://www.w3.org/2000/svg" xmlns:xlink="http://www.w3.org/1999/xlink" x="0px" y="0px"
	 width="107.9px" height="115px" viewBox="-388.9 217.4 107.9 115" style="enable-background:new -388.9 217.4 107.9 115;"
	 xml:space="preserve">
<style type="text/css">
	.st0{fill:#FFDFB3;}
	.st1{opacity:0.1;fill:#212126;enable-background:new    ;}
	.st2{fill:#212126;}
	.st3{fill:#ECEDF0;}
	.st4{fill:#DDDFE5;}
	.st5{opacity:0.7;fill:#FFFFFF;enable-background:new    ;}
	.st6{fill:#EA5E65;}
	.st7{opacity:0.15;fill:#484C54;enable-background:new    ;}
	.st8{fill:#9EA5B5;}
</style>
<g id="XMLID_3447_">
	<path id="XMLID_16_" class="st0" d="M-381.4,264.2l-6.8-19.8c0-12.4,10-22.4,22.4-22.4h1.2v88.2h-19.5L-381.4,264.2z"/>
	<path id="XMLID_15_" class="st1" d="M-369.5,232.9l-3.6,9c-1.3-1.2-2.7-4.4-2.7-7.5s3.6-7.3,3.6-7.3L-369.5,232.9z"/>
	<path id="XMLID_3458_" class="st0" d="M-285.7,310.2h-19.5V222h1.2c12.4,0,22.4,10,22.4,22.4l-6.8,19.8L-285.7,310.2z"/>
	<path id="XMLID_11642_" class="st1" d="M-297.7,227.1c0,0,3.6,4.1,3.6,7.3s-1.3,6.3-2.7,7.5l-3.6-9L-297.7,227.1z"/>
	<g id="XMLID_3444_">
		<g id="XMLID_3440_">
			<path id="XMLID_3439_" class="st2" d="M-287.5,224.7h-10.8v-5.2h10.8c1,0,1.8,0.8,1.8,1.8v1.7
				C-285.7,223.9-286.5,224.7-287.5,224.7z"/>
			<path id="XMLID_3441_" class="st2" d="M-382.3,219.4h10.8v5.3h-10.8c-1-0.1-1.8-0.9-1.8-1.9v-1.7
				C-384.1,220.2-383.3,219.4-382.3,219.4z"/>
		</g>
		<g id="XMLID_3443_">
			<path id="XMLID_3438_" class="st3" d="M-306.7,257.4H-363c-5.5,0-9.9-4.4-9.9-9.9v-30.1h76.1v30.1
				C-296.8,253-301.2,257.4-306.7,257.4z"/>
			<path id="XMLID_3442_" class="st4" d="M-300,217.4c-1.3,19.9-26.4,35.9-57.2,35.9c-5.2,0-10.2-0.5-15-1.3
				c1.3,3.3,4.5,5.5,8.2,5.5h58.3c4.9,0,8.9-4,8.9-8.9v-31.2H-300z"/>
		</g>
	</g>
	<path id="XMLID_3445_" class="st0" d="M-287.8,309h-9.8l-7.5-49.5c-0.2-1.8-0.2-3.6,0.2-5.4l3.1-11.2h20.1l-7.9,22.1L-287.8,309z"
		/>
	<path id="XMLID_3456_" class="st0" d="M-300.5,249.1L-300.5,249.1c-3.7,0-6.7-3-6.7-6.7v-6.5c0-2.5,2-4.4,4.4-4.4l0,0
		c2.5,0,4.4,2,4.4,4.4l1.9,8C-295.8,246.6-297.8,249.1-300.5,249.1z"/>
	<path id="XMLID_11644_" class="st1" d="M-298.7,248.5L-298.7,248.5c-3.8,0-6.9-3.1-6.9-6.9v-6.7c0-1.3,0.5-2.4,1.3-3.3
		c-1.7,0.6-3,2.3-3,4.2v6.5c0,3.7,3,6.7,6.7,6.7l0,0c0.8,0,1.5-0.2,2.1-0.6C-298.5,248.5-298.5,248.5-298.7,248.5z"/>
	<path id="XMLID_274_" class="st5" d="M-305.3,235.5c0-1.5,1.2-2.7,2.7-2.7c1.5,0,2.7,1.2,2.7,2.7H-305.3z"/>
	<polygon id="XMLID_269_" class="st1" points="-285.4,309 -305.1,309 -305.1,270.4 -288.1,270.4 	"/>
	<g id="XMLID_3455_">
		<rect id="XMLID_3452_" x="-309.9" y="281.8" class="st6" width="27.5" height="50.7"/>
		<rect id="XMLID_3446_" x="-309.6" y="282" class="st7" width="5.2" height="50.5"/>
		<rect id="XMLID_3448_" x="-298.7" y="282" class="st7" width="5.2" height="50.5"/>
		<rect id="XMLID_3449_" x="-287.9" y="282" class="st7" width="5.2" height="50.5"/>
		<rect id="XMLID_3451_" x="-310" y="288.9" class="st7" width="28.1" height="5.2"/>
		<rect id="XMLID_3450_" x="-310" y="299.7" class="st7" width="28.1" height="5.2"/>
		<path id="XMLID_3454_" class="st6" d="M-283,283.1h-26.4c-1.1,0-2-0.9-2-2v-7.4c0-1.1,0.9-2,2-2h26.4c1.1,0,2,0.9,2,2v7.4
			C-281.1,282.3-281.9,283.1-283,283.1z"/>
		<circle id="XMLID_3453_" class="st8" cx="-306.5" cy="278.1" r="2.4"/>
	</g>
	<path id="XMLID_14_" class="st0" d="M-380.3,265.1l-7.9-22.1h20.1l3.1,11.2c0.4,1.7,0.5,3.6,0.2,5.4l-7.5,49.5h-9.8L-380.3,265.1z"
		/>
	<path id="XMLID_13_" class="st0" d="M-373.3,243.9l1.9-8c0-2.5,2-4.4,4.4-4.4l0,0c2.5,0,4.4,2,4.4,4.4v6.5c0,3.7-3,6.7-6.7,6.7l0,0
		C-372,249.1-374.1,246.6-373.3,243.9z"/>
	<path id="XMLID_12_" class="st1" d="M-371.4,248.5c0.6,0.4,1.3,0.6,2.1,0.6l0,0c3.7,0,6.7-3,6.7-6.7v-6.5c0-1.9-1.3-3.6-3-4.2
		c0.9,0.9,1.3,2,1.3,3.3v6.7c0,3.8-3.1,6.9-6.9,6.9l0,0C-371.3,248.5-371.4,248.5-371.4,248.5z"/>
	<path id="XMLID_11_" class="st5" d="M-369.9,235.5c0-1.5,1.2-2.7,2.7-2.7c1.5,0,2.7,1.2,2.7,2.7H-369.9z"/>
	<polygon id="XMLID_10_" class="st1" points="-381.8,270.4 -364.7,270.4 -364.7,309 -384.5,309 	"/>
	<g id="XMLID_1_">
		<rect id="XMLID_9_" x="-387.5" y="281.8" class="st6" width="27.5" height="50.7"/>
		<rect id="XMLID_8_" x="-365.4" y="282" class="st7" width="5.2" height="50.5"/>
		<rect id="XMLID_7_" x="-376.3" y="282" class="st7" width="5.2" height="50.5"/>
		<rect id="XMLID_6_" x="-387.2" y="282" class="st7" width="5.2" height="50.5"/>
		<rect id="XMLID_5_" x="-387.9" y="288.9" class="st7" width="28.1" height="5.2"/>
		<rect id="XMLID_4_" x="-387.9" y="299.7" class="st7" width="28.1" height="5.2"/>
		<rect id="XMLID_18_" x="-310" y="310.3" class="st7" width="28.1" height="5.2"/>
		<rect id="XMLID_17_" x="-387.9" y="310.3" class="st7" width="28.1" height="5.2"/>
		<rect id="XMLID_20_" x="-310" y="320.8" class="st7" width="28.1" height="5.2"/>
		<rect id="XMLID_19_" x="-387.9" y="320.8" class="st7" width="28.1" height="5.2"/>
		<path id="XMLID_3_" class="st6" d="M-388.9,281.2v-7.4c0-1.1,0.9-2,2-2h26.4c1.1,0,2,0.9,2,2v7.4c0,1.1-0.9,2-2,2h-26.4
			C-387.9,283.1-388.8,282.3-388.9,281.2z"/>
		<circle id="XMLID_2_" class="st8" cx="-363.3" cy="278.1" r="2.4"/>
	</g>
</g>
</svg>
