<svg xmlns="http://www.w3.org/2000/svg" width="45" height="45" viewBox="0 0 45 45"><defs><style>.cls-1{fill:none;stroke:#3addbe;stroke-linecap:round;stroke-linejoin:round;stroke-width:1.79px;}</style></defs><title>age</title><g id="Layer_1" data-name="Layer 1"><line class="cls-1" x1="1.89" y1="43.11" x2="43.11" y2="43.11"/><path class="cls-1" d="M3.68,24.29V35.94a3.59,3.59,0,0,0,3.58,3.58H37.73a3.59,3.59,0,0,0,3.58-3.58V24.29"/><path class="cls-1" d="M3.68,24.29c0,2.47,2.69,4.48,4.48,4.48s4.48-2,4.48-4.48a5.27,5.27,0,0,0,4.93,4.93,5.27,5.27,0,0,0,4.93-4.93,5.27,5.27,0,0,0,4.93,4.93,5.27,5.27,0,0,0,4.93-4.93c0,2.47,2.69,4.48,4.48,4.48s4.48-2,4.48-4.48V19.81H3.68Z"/><path class="cls-1" d="M13.54,6.37a2.69,2.69,0,1,1-5.38,0c0-1.48,2.69-4.48,2.69-4.48S13.54,4.89,13.54,6.37Z"/><path class="cls-1" d="M36.84,6.37a2.69,2.69,0,1,1-5.38,0c0-1.48,2.69-4.48,2.69-4.48S36.84,4.89,36.84,6.37Z"/><path class="cls-1" d="M24.29,6.37a2.69,2.69,0,0,1-5.38,0c0-1.48,2.69-4.48,2.69-4.48S24.29,4.89,24.29,6.37Z"/><rect class="cls-1" x="19.81" y="12.64" width="3.58" height="7.17"/><rect class="cls-1" x="9.06" y="12.64" width="3.58" height="7.17"/><rect class="cls-1" x="32.36" y="12.64" width="3.58" height="7.17"/></g></svg>