<svg xmlns="http://www.w3.org/2000/svg" width="45" height="45" viewBox="0 0 45 45"><defs><style>.cls-1{fill:none;stroke:#3addbe;stroke-linecap:round;stroke-linejoin:round;stroke-width:1.79px;}</style></defs><title>apple</title><g id="Layer_1" data-name="Layer 1"><path class="cls-1" d="M33.16,24.81a8.84,8.84,0,0,1,4.22-7.44,9.14,9.14,0,0,0-7.14-3.87c-3-.31-5.93,1.79-7.48,1.79s-3.92-1.75-6.44-1.7a9.57,9.57,0,0,0-8.08,4.9c-3.44,6-.88,14.83,2.48,19.68,1.64,2.37,3.6,5,6.16,4.94s3.41-1.6,6.4-1.6,3.83,1.6,6.45,1.55,4.35-2.42,6-4.8a21.5,21.5,0,0,0,2.71-5.56A8.63,8.63,0,0,1,33.16,24.81Z"/><path class="cls-1" d="M28.56,8.47a9.09,9.09,0,0,0,2.15-6.58A9.23,9.23,0,0,0,24.63,5a8.65,8.65,0,0,0-2.19,6.38A7.66,7.66,0,0,0,28.56,8.47Z"/></g></svg>