<svg xmlns="http://www.w3.org/2000/svg" width="45" height="45" viewBox="0 0 45 45"><defs><style>.cls-1{fill:none;stroke:#3addbe;stroke-linecap:round;stroke-linejoin:round;stroke-width:1.79px;}.cls-2{fill:#3addbe;}</style></defs><title>firefox</title><g id="Layer_1" data-name="Layer 1"><path class="cls-1" d="M8.7,9.18A18.75,18.75,0,0,1,33.43,6.64"/><path class="cls-2" d="M27.19,5.62c8.59,0,12.1,4.73,13.54,8.59A10.75,10.75,0,0,0,40.56,13a18,18,0,0,1,.77,3.25,14.55,14.55,0,0,1,.38,2.8,6.76,6.76,0,0,0,.45-2,12.42,12.42,0,0,1,.16,5l.18-.23A20,20,0,0,1,25.7,41.6l-.3,0c-.5.07-1,.13-1.52.16l-.86,0-.52,0-.66,0h-.6l-.42,0-1-.11c-.43-.05-.85-.11-1.27-.19l-.41-.09a18.73,18.73,0,0,1-5.65-2.2,20.08,20.08,0,0,1-6.2-5.58l-.11-.13-.07-.11A19.89,19.89,0,0,1,2.5,21.87l.37.42,0-.55a13.62,13.62,0,0,1,.85-3.42l-1.17,1a2,2,0,0,1-.05-.48l0,.05,0-.19v0h0A6,6,0,0,1,3.3,16.1q.57-1,.9-1.55l0,0h0l0,0,.11-.07.41-.62Q4.7,8.26,6.86,6.13C7.23,8.57,8,10.06,9.12,10.58h0l-.1.08-.13.1h0L9,10.67l.11-.08h0A8.19,8.19,0,0,1,12,10a5.05,5.05,0,0,1,1.75.3A9.22,9.22,0,0,1,19.15,7.6a7.22,7.22,0,0,0-2.16,2l-.09.08a6.81,6.81,0,0,0-.8,2.24L16,12l.07.07v0h0v0l.35.27,1.16,1.14a3.08,3.08,0,0,0,1.11.78v0a8.4,8.4,0,0,0,1.65.16h.47c.34.21.4.45.21.74l0,0h0l0,0a1.11,1.11,0,0,1-.6.83,15,15,0,0,0-2.66,2.06v0a4.73,4.73,0,0,1,.7,3.23,15.37,15.37,0,0,0-2.85-.58l-.31,0,.31,0c-.73.11-1.15,1.56-1.15,1.56h0l-.06.47.06-.47h0l.3.44A11.31,11.31,0,0,0,17,25a3.55,3.55,0,0,0,1.95.62,3.78,3.78,0,0,0,1.88-.54,4.29,4.29,0,0,1,2.31-.75,3.58,3.58,0,0,1,1.67.43,4.17,4.17,0,0,1,1.34,1.13c.21.56,0,.89-.63,1a1.15,1.15,0,0,0-.49-.11,1.27,1.27,0,0,0-.45.09h0l-2.54,1.67a9.37,9.37,0,0,1-4.31,1q-.46,0-.93,0A10.52,10.52,0,0,0,21,32.17a10.86,10.86,0,0,0,3.33.53q4.46-.17,8-5.46a8.92,8.92,0,0,1-.44,3.23q3-3.22,2.17-9.9a6.22,6.22,0,0,1,1.29,2.61q1-3.25-.25-8.24a2.86,2.86,0,0,1,1.63,1.26c.13-2.42-1.6-4.3-3.48-5.61-.23-.16-.46-.32-.72-.48l-.09-.05a26.07,26.07,0,0,0-3.58-1.72A3.53,3.53,0,0,1,30.34,8a5.23,5.23,0,0,1,1.1.11C30,6,26.88,5.63,26.88,5.63h.3M42.5,21.88h0m-15.32-18h-.33a1.79,1.79,0,0,0-.17,3.57,4.59,4.59,0,0,1,.54.1,1.79,1.79,0,0,0,.92,2.5,24.41,24.41,0,0,1,3.33,1.6l.06,0L32,12l.2.13a9,9,0,0,1,1.69,1.49l-.08.07a1.79,1.79,0,0,0-.5,1.74,20.88,20.88,0,0,1,.6,3.39,1.79,1.79,0,0,0-1.69,2,16.69,16.69,0,0,1,0,4.66,1.79,1.79,0,0,0-1.44.8c-2,3-4.13,4.55-6.5,4.66a9.25,9.25,0,0,1-2.38-.33,10.71,10.71,0,0,0,1-.44L23,30l2.12-1.39a1.79,1.79,0,0,0,.37,0l.24,0a2.52,2.52,0,0,0,1.93-1.18,2.49,2.49,0,0,0,.14-2.2,1.79,1.79,0,0,0-.23-.42,5.94,5.94,0,0,0-1.9-1.64l-.06,0a5.36,5.36,0,0,0-2.5-.63,6,6,0,0,0-3.23,1,2,2,0,0,1-1,.29,1.78,1.78,0,0,1-1-.32,7.71,7.71,0,0,1-.81-.66l.68.18a1.79,1.79,0,0,0,2.27-1.41,6,6,0,0,0-.29-3.09,10.44,10.44,0,0,1,1.36-1,2.9,2.9,0,0,0,1.35-1.56,2.27,2.27,0,0,0,.31-1.66,2.34,2.34,0,0,0-1.11-1.5,1.79,1.79,0,0,0-.95-.27h-.47a6.63,6.63,0,0,1-1.18-.11,4.16,4.16,0,0,1-.35-.31l-.76-.75a4.45,4.45,0,0,1,.28-.67,1.8,1.8,0,0,0,.18-.25,5.46,5.46,0,0,1,1.63-1.46,1.79,1.79,0,0,0-1-3.28h-.22A10.77,10.77,0,0,0,13.32,8.3,7.18,7.18,0,0,0,12,8.19a9.22,9.22,0,0,0-2.55.39,6.9,6.9,0,0,1-.85-2.71,1.79,1.79,0,0,0-3-1C3.87,6.57,3,9.31,3,13.21H3a1.89,1.89,0,0,0-.32.43c-.24.39-.55.92-.91,1.58a7.8,7.8,0,0,0-1,3.15,1.81,1.81,0,0,0,0,.21v.09a1.79,1.79,0,0,0,.05.62,2.94,2.94,0,0,0,.09.47,1.79,1.79,0,0,0,.42.74v.07a1.79,1.79,0,0,0-.55,1.29,21.64,21.64,0,0,0,4,12.5l0,.07.13.18.07.09a21.73,21.73,0,0,0,6.71,6,20.58,20.58,0,0,0,6.17,2.4l.4.09h.06c.51.1,1,.16,1.38.21l1,.11.4,0h.76l.62,0h.18l.52,0,.86,0c.56,0,1.1-.1,1.68-.18l.31,0A21.69,21.69,0,0,0,44.29,22s0-.07,0-.1a1.8,1.8,0,0,0-.08-.53,13.52,13.52,0,0,0-.32-4.75A1.79,1.79,0,0,0,43,15.49a19.32,19.32,0,0,0-.77-3.05,1.79,1.79,0,0,0-.84-1c-1.93-3.49-6-7.61-14.23-7.61Z"/></g></svg>