<svg xmlns="http://www.w3.org/2000/svg" xmlns:xlink="http://www.w3.org/1999/xlink" width="96" height="77" viewBox="0 0 96 77"><defs><style>.cls-1{fill:none;}.cls-2{fill:#fff;}.cls-3{clip-path:url(#clip-path);}.cls-4{fill:#eebe89;}.cls-5{fill:#edeceb;}.cls-6{clip-path:url(#clip-path-2);}.cls-7{fill:#93562a;}.cls-8{fill:#ffc197;}.cls-9{fill:#fca76d;}.cls-10{fill:#73c197;}.cls-11{fill:#034b6b;}.cls-12{fill:#085e7c;}.cls-13{fill:#013547;}.cls-14{fill:#592b1d;}.cls-15{fill:#e5e5e5;}.cls-16{fill:#cecccc;}.cls-17{fill:#40a069;}.cls-18{fill:#8ed6ad;}.cls-19{fill:#50ad78;}.cls-20{fill:#a1e5bd;}.cls-21{fill:#723b17;}.cls-22{fill:#9fc48c;}.cls-23{fill:#d4e8ca;}.cls-24{fill:#2b211a;}.cls-25{clip-path:url(#clip-path-3);}.cls-26{fill:#5e381d;}.cls-27{clip-path:url(#clip-path-4);}</style><clipPath id="clip-path"><circle class="cls-1" cx="-56" cy="-59" r="42.75"/></clipPath><clipPath id="clip-path-2"><circle class="cls-1" cx="48" cy="-59" r="42.75"/></clipPath><clipPath id="clip-path-3"><path id="SVGID" class="cls-2" d="M52,25.06c0-1,2.12-2.1,3.35-2.09s3.34.64,3.22,1.94c-.07.75-.65,1.44-3.22,1.44S52.07,25.65,52,25.06Z"/></clipPath><clipPath id="clip-path-4"><path id="SVGID-2" data-name="SVGID" class="cls-2" d="M43.78,25.06c0-1-2.12-2.1-3.35-2.09s-3.34.64-3.22,1.94c.07.75.65,1.44,3.22,1.44S43.75,25.65,43.78,25.06Z"/></clipPath></defs><title>head-3</title><g id="Layer_1" data-name="Layer 1"><g class="cls-3"><path class="cls-4" d="M-24.78-33.74C-16-30.17,9.11-4.86,15,7.89a6.39,6.39,0,0,1-.6,6.41l-27,26.1-4.35,6.83a3.41,3.41,0,0,1-5.45.88C-23.81,46.93-28,43.87-28,43.87l-4.83,4.2a1.89,1.89,0,0,1-2.22.2l-.71-.42-.48.32a1.38,1.38,0,0,1-1.44,0h0a1.38,1.38,0,0,1-.55-1.8l0-.08h0a1.61,1.61,0,0,1-.33-2.48L-32.09,37a1.55,1.55,0,0,1,1.87-.3l1.31.71-3.41-2.7-5.07,2.6a1.37,1.37,0,0,1-1.7-.37h0a1.37,1.37,0,0,1,.33-2l5.92-3.15a2.47,2.47,0,0,1,2.58.16l9.35,6.57L2.4,9.87C-10.35-3.93-23.68-11-31.81-15.38-31.81-15.38-34.47-37.68-24.78-33.74Z"/><path class="cls-5" d="M16.41,7.69c-7-12.19-27-35.32-35.61-39.59S-35.4-11.72-29,4.69C-20.12-8.69-2.55,11.8-2.55,11.8l-2.34,6,9.68,7.08L15,14.6C17.2,12.26,17.56,9.69,16.41,7.69Z"/></g><g class="cls-6"><path class="cls-7" d="M11-27.22c4.62-8.06,18.56-12.91,22.53-15.11s3.35-12.11,3.35-12.11H60.53s-.62,9.91,3.35,12.11,17.9,7,22.53,15.11S72.75,7.92,72.75,22.24c0,10.26,1.54,10.53,1.54,31.67H23.13c0-21.14,1.54-21.41,1.54-31.67C24.67,7.92,6.4-19.15,11-27.22Z"/><path class="cls-8" d="M21.37,198.94c.43-5.75-6.95-38-2.81-57.29,0,0,1.57-9.23.87-16.73s-2.27-37.39.43-55.7l3.48-25.26h50.8l3.48,25.26c2.7,18.31,1.13,48.2.43,55.7s.87,16.73.87,16.73c4.13,19.25-3.25,51.55-2.81,57.29,0,8.93,9,14.61,7.43,21.29-.74,3.12-7.11,4.32-11.35,3-4.5-1.36-3.43-4.46-4.5-7.28-.61-1.59-1.94-2.75-2.18-3.74-.65-2.75,1.68-7.91,1.68-13.76,0-20.63-7-33.74-2.83-53.61-2.08-5.52-3.38-11-3-16.3-5.13-16.4-9-31.91-9.22-44.9H45.39c-.24,13-4.09,28.5-9.22,44.9.34,5.32-1,10.78-3,16.3,4.13,19.87-2.83,33-2.83,53.61,0,5.85,2.17,9.17,1.52,11.92-.32,1.33-1.29,2.47-2.41,5.06-1.19,2.78-.2,5.45-3.71,7.1-5.11,2.4-12.15.61-12.57-4.69C12.61,211.28,21.39,207.87,21.37,198.94Z"/><path class="cls-9" d="M19.26-14.18c.17,0,.3,1.77.89,4.54a38.8,38.8,0,0,0,1.35,4.77c.31.87.67,1.79,1.09,2.7A9.9,9.9,0,0,0,24.16.35a4.58,4.58,0,0,0,2.37,1.44,12,12,0,0,0,2.8.27c1.85,0,3.55-.12,5-.21a32,32,0,0,1,4.64-.21,22.21,22.21,0,0,1-4.55,1,41.77,41.77,0,0,1-5.06.56A12,12,0,0,1,26.23,3a5.7,5.7,0,0,1-1.63-.64,6,6,0,0,1-1.39-1.15,10.49,10.49,0,0,1-1.77-2.88,29.34,29.34,0,0,1-1-2.85,29.44,29.44,0,0,1-1.09-5C18.94-12.39,19.13-14.19,19.26-14.18Z"/><path class="cls-9" d="M58.47,1.63a32,32,0,0,1,4.64.21c1.43.09,3.13.23,5,.21a12,12,0,0,0,2.8-.27A4.58,4.58,0,0,0,73.26.35a9.9,9.9,0,0,0,1.58-2.53c.41-.91.77-1.83,1.09-2.7a38.86,38.86,0,0,0,1.35-4.77c.59-2.77.72-4.55.89-4.54s.32,1.8,0,4.68a29.43,29.43,0,0,1-1.09,5,29.31,29.31,0,0,1-1,2.85,10.49,10.49,0,0,1-1.77,2.88,6,6,0,0,1-1.39,1.15A5.7,5.7,0,0,1,71.19,3a12,12,0,0,1-3.11.2A41.78,41.78,0,0,1,63,2.64,22.21,22.21,0,0,1,58.47,1.63Z"/><path class="cls-9" d="M38.8,7A8.93,8.93,0,0,1,39,9a18,18,0,0,0,.31,2.14,7.45,7.45,0,0,0,.35,1.18,2.9,2.9,0,0,0,.62,1,4,4,0,0,0,2.22.81,16.07,16.07,0,0,0,2.16.08,14.56,14.56,0,0,1,2.05,0,4.7,4.7,0,0,1-2,.64,10.74,10.74,0,0,1-2.29.17,6.49,6.49,0,0,1-1.39-.21,3.33,3.33,0,0,1-1.43-.77,3.56,3.56,0,0,1-.83-1.37,7,7,0,0,1-.33-1.36,11.55,11.55,0,0,1-.09-2.29C38.44,7.76,38.69,7,38.8,7Z"/><path class="cls-9" d="M39.26,16.76a8.91,8.91,0,0,1,.22,2,18,18,0,0,0,.31,2.14,7.45,7.45,0,0,0,.35,1.18,2.9,2.9,0,0,0,.62,1A4,4,0,0,0,43,24a16.07,16.07,0,0,0,2.16.08,14.53,14.53,0,0,1,2.05,0,4.7,4.7,0,0,1-2,.64,10.73,10.73,0,0,1-2.29.17,6.49,6.49,0,0,1-1.39-.21,3.33,3.33,0,0,1-1.43-.77,3.56,3.56,0,0,1-.83-1.37,7,7,0,0,1-.33-1.36,11.55,11.55,0,0,1-.09-2.29C38.9,17.52,39.15,16.74,39.26,16.76Z"/><path class="cls-9" d="M39.72,26.52a8.91,8.91,0,0,1,.22,2,18,18,0,0,0,.31,2.14,7.45,7.45,0,0,0,.35,1.18,2.89,2.89,0,0,0,.62,1,4,4,0,0,0,2.22.81,16.1,16.1,0,0,0,2.16.08,14.52,14.52,0,0,1,2.05,0,4.7,4.7,0,0,1-2,.64,10.75,10.75,0,0,1-2.29.17A6.5,6.5,0,0,1,42,34.36a3.33,3.33,0,0,1-1.43-.77,3.56,3.56,0,0,1-.83-1.37,7,7,0,0,1-.33-1.36,11.55,11.55,0,0,1-.09-2.29C39.36,27.28,39.61,26.5,39.72,26.52Z"/><path class="cls-9" d="M56.37,14.85a6.49,6.49,0,0,1-1.39.21,10.74,10.74,0,0,1-2.29-.17,4.7,4.7,0,0,1-2-.64,14.56,14.56,0,0,1,2.05,0,16.07,16.07,0,0,0,2.16-.08,4,4,0,0,0,2.22-.81,2.89,2.89,0,0,0,.62-1,7.43,7.43,0,0,0,.35-1.18A18,18,0,0,0,58.41,9a8.94,8.94,0,0,1,.22-2c.11,0,.36.76.43,2.05A11.56,11.56,0,0,1,59,11.35a7,7,0,0,1-.33,1.36,3.57,3.57,0,0,1-.83,1.37A3.33,3.33,0,0,1,56.37,14.85Z"/><path class="cls-9" d="M55.91,24.61a6.49,6.49,0,0,1-1.39.21,10.73,10.73,0,0,1-2.29-.17,4.7,4.7,0,0,1-2-.64,14.53,14.53,0,0,1,2.05,0A16.07,16.07,0,0,0,54.45,24a4,4,0,0,0,2.22-.81,2.89,2.89,0,0,0,.62-1,7.43,7.43,0,0,0,.35-1.18,18,18,0,0,0,.31-2.14,8.92,8.92,0,0,1,.22-2c.11,0,.36.76.43,2.05a11.56,11.56,0,0,1-.09,2.29,7,7,0,0,1-.33,1.36,3.57,3.57,0,0,1-.83,1.37A3.33,3.33,0,0,1,55.91,24.61Z"/><path class="cls-9" d="M51.83,33.8A16.1,16.1,0,0,0,54,33.72a4,4,0,0,0,2.22-.81,2.89,2.89,0,0,0,.62-1,7.43,7.43,0,0,0,.35-1.18,18,18,0,0,0,.31-2.14,8.92,8.92,0,0,1,.22-2c.11,0,.36.76.43,2.05A11.56,11.56,0,0,1,58,30.86a7,7,0,0,1-.33,1.36,3.57,3.57,0,0,1-.83,1.37,3.33,3.33,0,0,1-1.43.77,6.5,6.5,0,0,1-1.39.21,10.75,10.75,0,0,1-2.29-.17,4.7,4.7,0,0,1-2-.64A14.52,14.52,0,0,1,51.83,33.8Z"/><path class="cls-9" d="M48.71,6.64c.18,0,.4,1.63.4,3.63a10.78,10.78,0,0,1-.4,3.63,10.78,10.78,0,0,1-.4-3.63C48.31,8.27,48.53,6.64,48.71,6.64Z"/><path class="cls-9" d="M48.71,16c.18,0,.4,1.63.4,3.63a10.78,10.78,0,0,1-.4,3.63,10.78,10.78,0,0,1-.4-3.63C48.31,17.6,48.53,16,48.71,16Z"/><path class="cls-9" d="M48.71,25.3c.18,0,.4,1.63.4,3.63a10.78,10.78,0,0,1-.4,3.63,10.78,10.78,0,0,1-.4-3.63C48.31,26.93,48.53,25.3,48.71,25.3Z"/><path class="cls-10" d="M22.62,23.5C22.62,8.86,5.22-18.8,9.95-27s19-13.19,23-15.44a5,5,0,0,0,2-2.28l6,5.92,7.51,9,7.16-9L62-44.77a5,5,0,0,0,2,2.28C68-40.24,82.26-35.28,87-27S74.32,8.86,74.32,23.5c0,8.51,2.07,36.2,2.07,36.2H20.61S22.62,32.15,22.62,23.5Z"/><path class="cls-11" d="M79.14,197.16h-14l-6.05-65.88-9.29-43H46.91s-4.24,23.19-10.33,42.66c.29,4.81-3.82,66.25-3.82,66.25H18.35s-2.91-44.22-1.13-69.9c.6-8.66-.41-40.24,2.23-58.12l1.61-11.71,55.26-.07L78,69.15C80.67,87,79.88,119,80.2,127.63,80.59,138.34,79.93,162.64,79.14,197.16Z"/><path class="cls-12" d="M46.42,61.3h3.82a0,0,0,0,1,0,0V78.82a0,0,0,0,1,0,0H45.74a0,0,0,0,1,0,0V62A.68.68,0,0,1,46.42,61.3Z" transform="translate(95.98 140.12) rotate(180)"/><path class="cls-13" d="M78,69.15c.65,4.41,1.09,9.69,1.4,15.25L65.14,58.49,70,57.38h6.29Z"/><path class="cls-13" d="M19.45,69.15l1.61-11.71h6.11l4.64,1.06L18.14,83.28C18.43,78.14,18.84,73.28,19.45,69.15Z"/><path class="cls-14" d="M76.17,53.79l1.16,6.81q-28.34,1-57.25,0l1-6.82Q49,54.76,76.17,53.79Z"/><polygon class="cls-15" points="55.92 53.79 56.39 61.52 41.02 61.52 41.56 53.79 55.92 53.79"/><polygon class="cls-16" points="53.56 55.05 53.88 60.26 43.53 60.26 43.9 55.05 53.56 55.05"/><polygon class="cls-11" points="33.8 53.79 33.3 61.3 30.77 61.3 31.39 53.79 33.8 53.79"/><polygon class="cls-11" points="63.61 53.79 64.11 61.3 66.64 61.3 66.02 53.79 63.61 53.79"/><path class="cls-7" d="M68.51,63s2.63-3.09,5.25-5.73c2.15-2.16,5.9-15.94,9.12-25.26h0c.09-.6,1.7-5.93,1.83-6.49-3.25-7.78-6.39-21.89-6.39-31.3,0,0-7.09-25,2.38-27.11C96.9-33.67,95.29-7.74,95.29-7.74,98-.45,98.4,10.59,97.21,20.56A31.08,31.08,0,0,1,98,23.92h0c1,3.27.15,4.73-.68,8.07C92.84,49.84,85.5,54.72,80.79,64l-4,12.91-8.1,4.82L62,74.88Z"/><path class="cls-7" d="M28.91,63s-2.63-3.09-5.25-5.73c-2.15-2.16-5.9-15.94-9.12-25.26h0c-.09-.6-1.7-5.93-1.83-6.49C16,17.73,19.09,3.62,19.1-5.79c0,0,7.09-25-2.38-27.11C.52-33.67,2.13-7.74,2.13-7.74-.59-.45-1,10.59.21,20.56a31.11,31.11,0,0,0-.75,3.37h0c-1,3.27-.15,4.73.68,8.07,4.44,17.85,11.79,22.73,16.5,32l4,12.91,8.1,4.82,6.74-6.88Z"/><polygon class="cls-11" points="66.64 60.91 67.57 60.88 79.19 80.44 79.6 87.89 59.48 88.26 56.16 73.16 66.64 60.91"/><polygon class="cls-11" points="30.86 60.91 29.92 60.88 18.31 80.44 17.92 87.89 38.02 88.26 41.33 73.16 30.86 60.91"/><path class="cls-13" d="M27.67,67.34a.25.25,0,1,1,.43.26l-.64,1.08a.25.25,0,1,1-.43-.26Z"/><path class="cls-13" d="M30.65,62.29a.25.25,0,1,1,.43.26l-.64,1.08a.25.25,0,1,1-.43-.26Z"/><path class="cls-13" d="M26.18,69.87a.25.25,0,1,1,.43.26L26,71.21a.25.25,0,1,1-.43-.26Z"/><path class="cls-13" d="M29.16,64.82a.25.25,0,1,1,.43.26L29,66.15a.25.25,0,1,1-.43-.26Z"/><path class="cls-13" d="M24.69,72.4a.25.25,0,1,1,.43.26l-.64,1.08a.25.25,0,1,1-.43-.26Z"/><path class="cls-13" d="M23.19,74.92a.25.25,0,0,1,.43.26L23,76.26a.25.25,0,1,1-.43-.26Z"/><path class="cls-13" d="M69.85,67.34a.25.25,0,1,0-.43.26l.64,1.08a.25.25,0,1,0,.43-.26Z"/><path class="cls-13" d="M66.87,62.29a.25.25,0,1,0-.43.26l.64,1.08a.25.25,0,0,0,.43-.26Z"/><path class="cls-13" d="M71.35,69.87a.25.25,0,1,0-.43.26l.64,1.08A.25.25,0,1,0,72,71Z"/><path class="cls-13" d="M68.36,64.82a.25.25,0,1,0-.43.26l.64,1.08A.25.25,0,1,0,69,65.9Z"/><path class="cls-13" d="M72.84,72.4a.25.25,0,1,0-.43.26L73,73.73a.25.25,0,1,0,.43-.26Z"/><path class="cls-13" d="M74.33,74.92a.25.25,0,1,0-.43.26l.64,1.08A.25.25,0,1,0,75,76Z"/><path class="cls-10" d="M13,25.91c.08.3,3.32,11,3.32,11L3.05,42.71S.72,36.49-.26,32.55c-.15-.62-.31-1.18-.45-1.7C-1.36,28.53-1.78,27-1,24.24-.75,23.05-2.26,5.43,1.77-8c0-.94-.69-15.65,6-22.4,2.39-2.43,7.66-2.52,10.42-3.9C26.51-30.45,19.77-7,19.47-5.95,19.46,4.11,16.1,18.39,13,25.91Z"/><path class="cls-10" d="M84.63,25.91c-.08.3-3.32,11-3.32,11l13.24,5.83s2.33-6.22,3.31-10.15c.15-.62.31-1.18.45-1.7.64-2.32,1.07-3.86.24-6.61C98.36,23.05,99.87,5.43,95.84-8c0-.94.69-15.65-6-22.4-2.39-2.43-7.66-2.52-10.42-3.9C71.09-30.45,77.83-7,78.13-5.95,78.15,4.11,81.51,18.39,84.63,25.91Z"/><circle class="cls-17" cx="62.63" cy="14.17" r="0.51"/><circle class="cls-17" cx="62.63" cy="3.4" r="0.51"/><circle class="cls-17" cx="62.63" cy="8.79" r="0.51"/><circle class="cls-17" cx="36.26" cy="49.16" r="0.51"/><circle class="cls-17" cx="38.28" cy="24.94" r="0.51"/><circle class="cls-17" cx="62.63" cy="46.47" r="0.51"/><circle class="cls-17" cx="62.63" cy="51.85" r="0.51"/><circle class="cls-17" cx="62.63" cy="19.55" r="0.51"/><circle class="cls-17" cx="62.63" cy="24.94" r="0.51"/><circle class="cls-17" cx="62.63" cy="30.32" r="0.51"/><circle class="cls-17" cx="62.63" cy="41.08" r="0.51"/><circle class="cls-17" cx="62.63" cy="35.7" r="0.51"/><circle class="cls-17" cx="36.26" cy="6.1" r="0.51"/><circle class="cls-17" cx="38.28" cy="35.7" r="0.51"/><circle class="cls-17" cx="38.28" cy="30.32" r="0.51"/><circle class="cls-17" cx="38.28" cy="46.47" r="0.51"/><circle class="cls-17" cx="38.28" cy="41.08" r="0.51"/><circle class="cls-17" cx="38.28" cy="51.85" r="0.51"/><circle class="cls-17" cx="36.26" cy="33.01" r="0.51"/><circle class="cls-17" cx="36.26" cy="27.63" r="0.51"/><circle class="cls-17" cx="36.26" cy="16.86" r="0.51"/><circle class="cls-17" cx="36.26" cy="38.39" r="0.51"/><circle class="cls-17" cx="36.26" cy="43.77" r="0.51"/><circle class="cls-17" cx="36.26" cy="22.24" r="0.51"/><circle class="cls-17" cx="36.26" cy="0.71" r="0.51"/><circle class="cls-17" cx="36.26" cy="11.48" r="0.51"/><circle class="cls-17" cx="74.8" cy="51.85" r="0.51"/><circle class="cls-17" cx="72.77" cy="49.16" r="0.51"/><path class="cls-17" d="M74.29,35.7a.5.5,0,0,1,.24-.42l.05.88A.51.51,0,0,1,74.29,35.7Z"/><circle class="cls-17" cx="72.77" cy="11.48" r="0.51"/><circle class="cls-17" cx="72.77" cy="33.01" r="0.51"/><circle class="cls-17" cx="72.77" cy="38.39" r="0.51"/><circle class="cls-17" cx="72.77" cy="27.63" r="0.51"/><circle class="cls-17" cx="72.77" cy="43.77" r="0.51"/><circle class="cls-17" cx="72.77" cy="0.71" r="0.51"/><circle class="cls-17" cx="72.77" cy="22.24" r="0.51"/><circle class="cls-17" cx="72.77" cy="6.1" r="0.51"/><circle class="cls-17" cx="72.77" cy="16.86" r="0.51"/><path class="cls-17" d="M74.8,14.68a.51.51,0,0,1,0-1,.5.5,0,0,1,.48.37l-.13.51A.5.5,0,0,1,74.8,14.68Z"/><path class="cls-17" d="M74.8,47a.51.51,0,1,1,0-1,.5.5,0,0,1,.42.24l0,.48A.5.5,0,0,1,74.8,47Z"/><circle class="cls-17" cx="74.8" cy="8.79" r="0.51"/><circle class="cls-17" cx="74.8" cy="3.4" r="0.51"/><path class="cls-17" d="M74.29,41.08a.51.51,0,0,1,.51-.51h.06l.06,1-.12,0A.51.51,0,0,1,74.29,41.08Z"/><circle class="cls-17" cx="76.83" cy="0.71" r="0.51"/><circle class="cls-17" cx="76.83" cy="6.1" r="0.51"/><circle class="cls-17" cx="44.37" cy="11.48" r="0.51"/><circle class="cls-17" cx="44.37" cy="6.1" r="0.51"/><circle class="cls-17" cx="44.37" cy="0.71" r="0.51"/><circle class="cls-17" cx="46.4" cy="46.47" r="0.51"/><circle class="cls-17" cx="44.37" cy="43.77" r="0.51"/><circle class="cls-17" cx="48.43" cy="27.63" r="0.51"/><circle class="cls-17" cx="44.37" cy="49.16" r="0.51"/><circle class="cls-17" cx="44.37" cy="16.86" r="0.51"/><circle class="cls-17" cx="46.4" cy="51.85" r="0.51"/><circle class="cls-17" cx="44.37" cy="27.63" r="0.51"/><circle class="cls-17" cx="44.37" cy="22.24" r="0.51"/><circle class="cls-17" cx="44.37" cy="33.01" r="0.51"/><circle class="cls-17" cx="44.37" cy="38.39" r="0.51"/><circle class="cls-17" cx="46.4" cy="41.08" r="0.51"/><circle class="cls-17" cx="48.43" cy="38.39" r="0.51"/><circle class="cls-17" cx="48.43" cy="33.01" r="0.51"/><circle class="cls-17" cx="48.43" cy="49.16" r="0.51"/><circle class="cls-17" cx="48.43" cy="43.77" r="0.51"/><circle class="cls-17" cx="46.4" cy="24.94" r="0.51"/><circle class="cls-17" cx="46.4" cy="19.55" r="0.51"/><circle class="cls-17" cx="46.4" cy="30.32" r="0.51"/><circle class="cls-17" cx="46.4" cy="35.7" r="0.51"/><circle class="cls-17" cx="46.4" cy="14.17" r="0.51"/><circle class="cls-17" cx="46.4" cy="8.79" r="0.51"/><circle class="cls-17" cx="46.4" cy="3.4" r="0.51"/><circle class="cls-17" cx="42.34" cy="51.85" r="0.51"/><circle class="cls-17" cx="40.31" cy="43.77" r="0.51"/><circle class="cls-17" cx="40.31" cy="33.01" r="0.51"/><circle class="cls-17" cx="40.31" cy="38.39" r="0.51"/><circle class="cls-17" cx="40.31" cy="49.16" r="0.51"/><circle class="cls-17" cx="40.31" cy="11.48" r="0.51"/><circle class="cls-17" cx="40.31" cy="6.1" r="0.51"/><circle class="cls-17" cx="40.31" cy="22.24" r="0.51"/><circle class="cls-17" cx="40.31" cy="0.71" r="0.51"/><circle class="cls-17" cx="40.31" cy="16.86" r="0.51"/><circle class="cls-17" cx="40.31" cy="27.63" r="0.51"/><circle class="cls-17" cx="38.28" cy="3.4" r="0.51"/><circle class="cls-17" cx="38.28" cy="8.79" r="0.51"/><circle class="cls-17" cx="38.28" cy="14.17" r="0.51"/><circle class="cls-17" cx="42.34" cy="14.17" r="0.51"/><circle class="cls-17" cx="42.34" cy="19.55" r="0.51"/><circle class="cls-17" cx="42.34" cy="30.32" r="0.51"/><circle class="cls-17" cx="42.34" cy="35.7" r="0.51"/><circle class="cls-17" cx="42.34" cy="24.94" r="0.51"/><circle class="cls-17" cx="42.34" cy="8.79" r="0.51"/><circle class="cls-17" cx="42.34" cy="3.4" r="0.51"/><circle class="cls-17" cx="42.34" cy="41.08" r="0.51"/><circle class="cls-17" cx="38.28" cy="19.55" r="0.51"/><circle class="cls-17" cx="42.34" cy="46.47" r="0.51"/><circle class="cls-17" cx="82.92" cy="3.4" r="0.51"/><circle class="cls-17" cx="82.92" cy="14.17" r="0.51"/><circle class="cls-17" cx="82.92" cy="8.79" r="0.51"/><circle class="cls-17" cx="84.95" cy="27.63" r="0.51"/><circle class="cls-17" cx="93.06" cy="38.39" r="0.51"/><circle class="cls-17" cx="80.89" cy="6.1" r="0.51"/><path class="cls-17" d="M91,40.58a.51.51,0,0,1,.51.51.49.49,0,0,1-.08.26l-.9-.4A.5.5,0,0,1,91,40.58Z"/><circle class="cls-17" cx="80.89" cy="0.71" r="0.51"/><circle class="cls-17" cx="80.89" cy="11.48" r="0.51"/><circle class="cls-17" cx="86.97" cy="35.7" r="0.51"/><circle class="cls-17" cx="86.97" cy="24.94" r="0.51"/><circle class="cls-17" cx="86.97" cy="30.32" r="0.51"/><circle class="cls-17" cx="84.95" cy="33.01" r="0.51"/><circle class="cls-17" cx="86.97" cy="8.79" r="0.51"/><circle class="cls-17" cx="86.97" cy="3.4" r="0.51"/><circle class="cls-17" cx="86.97" cy="14.17" r="0.51"/><circle class="cls-17" cx="82.92" cy="35.7" r="0.51"/><circle class="cls-17" cx="86.97" cy="19.55" r="0.51"/><path class="cls-17" d="M83.42,30.32a.5.5,0,0,1-.25.43l.2-.65A.5.5,0,0,1,83.42,30.32Z"/><circle class="cls-17" cx="84.95" cy="16.86" r="0.51"/><circle class="cls-17" cx="84.95" cy="22.24" r="0.51"/><circle class="cls-17" cx="84.95" cy="11.48" r="0.51"/><circle class="cls-17" cx="84.95" cy="6.1" r="0.51"/><circle class="cls-17" cx="84.95" cy="0.71" r="0.51"/><circle class="cls-17" cx="95.09" cy="3.4" r="0.51"/><circle class="cls-17" cx="95.09" cy="19.55" r="0.51"/><circle class="cls-17" cx="95.09" cy="14.17" r="0.51"/><circle class="cls-17" cx="95.09" cy="8.79" r="0.51"/><circle class="cls-17" cx="95.09" cy="35.7" r="0.51"/><circle class="cls-17" cx="95.09" cy="30.32" r="0.51"/><circle class="cls-17" cx="95.09" cy="24.94" r="0.51"/><circle class="cls-17" cx="93.06" cy="27.63" r="0.51"/><circle class="cls-17" cx="93.06" cy="33.01" r="0.51"/><circle class="cls-17" cx="93.06" cy="6.1" r="0.51"/><circle class="cls-17" cx="93.06" cy="22.24" r="0.51"/><path class="cls-17" d="M94.58,41.08a.51.51,0,0,1,.51-.51.5.5,0,0,1,.22.05l-.34.94A.5.5,0,0,1,94.58,41.08Z"/><circle class="cls-17" cx="93.06" cy="16.86" r="0.51"/><circle class="cls-17" cx="93.06" cy="11.48" r="0.51"/><circle class="cls-17" cx="93.06" cy="0.71" r="0.51"/><circle class="cls-17" cx="91.03" cy="35.7" r="0.51"/><circle class="cls-17" cx="91.03" cy="24.94" r="0.51"/><circle class="cls-17" cx="91.03" cy="30.32" r="0.51"/><circle class="cls-17" cx="91.03" cy="19.55" r="0.51"/><circle class="cls-17" cx="91.03" cy="14.17" r="0.51"/><circle class="cls-17" cx="91.03" cy="3.4" r="0.51"/><circle class="cls-17" cx="91.03" cy="8.79" r="0.51"/><circle class="cls-17" cx="68.72" cy="33.01" r="0.51"/><circle class="cls-17" cx="68.72" cy="38.39" r="0.51"/><circle class="cls-17" cx="68.72" cy="43.77" r="0.51"/><circle class="cls-17" cx="68.72" cy="27.63" r="0.51"/><circle class="cls-17" cx="68.72" cy="49.16" r="0.51"/><circle class="cls-17" cx="68.72" cy="0.71" r="0.51"/><circle class="cls-17" cx="68.72" cy="6.1" r="0.51"/><circle class="cls-17" cx="68.72" cy="16.86" r="0.51"/><circle class="cls-17" cx="68.72" cy="22.24" r="0.51"/><circle class="cls-17" cx="66.69" cy="8.79" r="0.51"/><circle class="cls-17" cx="66.69" cy="14.17" r="0.51"/><circle class="cls-17" cx="66.69" cy="3.4" r="0.51"/><circle class="cls-17" cx="70.74" cy="41.08" r="0.51"/><circle class="cls-17" cx="70.74" cy="3.4" r="0.51"/><circle class="cls-17" cx="70.74" cy="8.79" r="0.51"/><circle class="cls-17" cx="70.74" cy="14.17" r="0.51"/><circle class="cls-17" cx="70.74" cy="24.94" r="0.51"/><circle class="cls-17" cx="70.74" cy="19.55" r="0.51"/><circle class="cls-17" cx="70.74" cy="30.32" r="0.51"/><circle class="cls-17" cx="70.74" cy="35.7" r="0.51"/><circle class="cls-17" cx="66.69" cy="19.55" r="0.51"/><circle class="cls-17" cx="70.74" cy="46.47" r="0.51"/><circle class="cls-17" cx="70.74" cy="51.85" r="0.51"/><circle class="cls-17" cx="68.72" cy="11.48" r="0.51"/><circle class="cls-17" cx="66.69" cy="24.94" r="0.51"/><path class="cls-17" d="M78.35,3.4a.51.51,0,0,1,1,0,.5.5,0,0,1-.42.49c0-.23-.07-.45-.1-.68l-.23.63A.5.5,0,0,1,78.35,3.4Z"/><circle class="cls-17" cx="64.66" cy="49.16" r="0.51"/><circle class="cls-17" cx="89" cy="38.39" r="0.51"/><path class="cls-17" d="M82.92,19a.51.51,0,0,1,0,1,.5.5,0,0,1-.42-.24l-.08-.28A.51.51,0,0,1,82.92,19Z"/><path class="cls-17" d="M84.95,37.88a.51.51,0,0,1,.51.51.49.49,0,0,1-.09.27l-.9-.4A.5.5,0,0,1,84.95,37.88Z"/><circle class="cls-17" cx="89" cy="27.63" r="0.51"/><circle class="cls-17" cx="89" cy="33.01" r="0.51"/><circle class="cls-17" cx="89" cy="0.71" r="0.51"/><circle class="cls-17" cx="89" cy="11.48" r="0.51"/><circle class="cls-17" cx="89" cy="22.24" r="0.51"/><circle class="cls-17" cx="89" cy="6.1" r="0.51"/><circle class="cls-17" cx="89" cy="16.86" r="0.51"/><circle class="cls-17" cx="66.69" cy="30.32" r="0.51"/><circle class="cls-17" cx="66.69" cy="35.7" r="0.51"/><circle class="cls-17" cx="66.69" cy="41.08" r="0.51"/><circle class="cls-17" cx="66.69" cy="51.85" r="0.51"/><circle class="cls-17" cx="66.69" cy="46.47" r="0.51"/><circle class="cls-17" cx="64.66" cy="33.01" r="0.51"/><circle class="cls-17" cx="64.66" cy="27.63" r="0.51"/><circle class="cls-17" cx="64.66" cy="22.24" r="0.51"/><circle class="cls-17" cx="64.66" cy="16.86" r="0.51"/><circle class="cls-17" cx="64.66" cy="38.39" r="0.51"/><circle class="cls-17" cx="64.66" cy="43.77" r="0.51"/><circle class="cls-17" cx="64.66" cy="11.48" r="0.51"/><circle class="cls-17" cx="64.66" cy="0.71" r="0.51"/><circle class="cls-17" cx="64.66" cy="6.1" r="0.51"/><circle class="cls-17" cx="32.2" cy="38.39" r="0.51"/><circle class="cls-17" cx="22.05" cy="8.79" r="0.51"/><circle class="cls-17" cx="24.08" cy="27.63" r="0.51"/><path class="cls-17" d="M20,5.59a.51.51,0,1,1,0,1,.49.49,0,0,1-.24-.07l-.22-.63A.51.51,0,0,1,20,5.59Z"/><path class="cls-17" d="M22.56,14.17a.5.5,0,0,1-.27.44q-.12-.47-.25-.95h0A.51.51,0,0,1,22.56,14.17Z"/><circle class="cls-17" cx="24.08" cy="43.77" r="0.51"/><circle class="cls-17" cx="24.08" cy="33.01" r="0.51"/><circle class="cls-17" cx="24.08" cy="38.39" r="0.51"/><circle class="cls-17" cx="24.08" cy="49.16" r="0.51"/><path class="cls-17" d="M22.19,46.95l.06-.95a.51.51,0,0,1,.31.47A.5.5,0,0,1,22.19,46.95Z"/><path class="cls-17" d="M22.05,51.34a.51.51,0,0,1,0,1,.5.5,0,0,1-.22-.06l.06-.93A.5.5,0,0,1,22.05,51.34Z"/><circle class="cls-17" cx="22.05" cy="3.4" r="0.51"/><circle class="cls-17" cx="9.88" cy="35.7" r="0.51"/><circle class="cls-17" cx="9.88" cy="30.32" r="0.51"/><circle class="cls-17" cx="9.88" cy="24.94" r="0.51"/><circle class="cls-17" cx="9.88" cy="8.79" r="0.51"/><circle class="cls-17" cx="20.03" cy="0.71" r="0.51"/><circle class="cls-17" cx="9.88" cy="14.17" r="0.51"/><circle class="cls-17" cx="9.88" cy="3.4" r="0.51"/><circle class="cls-17" cx="7.85" cy="38.39" r="0.51"/><circle class="cls-17" cx="7.85" cy="22.24" r="0.51"/><circle class="cls-17" cx="7.85" cy="33.01" r="0.51"/><circle class="cls-17" cx="7.85" cy="27.63" r="0.51"/><circle class="cls-17" cx="7.85" cy="6.1" r="0.51"/><circle class="cls-17" cx="7.85" cy="0.71" r="0.51"/><circle class="cls-17" cx="7.85" cy="16.86" r="0.51"/><circle class="cls-17" cx="7.85" cy="11.48" r="0.51"/><circle class="cls-17" cx="9.88" cy="19.55" r="0.51"/><circle class="cls-17" cx="28.14" cy="38.39" r="0.51"/><circle class="cls-17" cx="28.14" cy="43.77" r="0.51"/><circle class="cls-17" cx="24.08" cy="22.24" r="0.51"/><circle class="cls-17" cx="28.14" cy="49.16" r="0.51"/><circle class="cls-17" cx="28.14" cy="0.71" r="0.51"/><circle class="cls-17" cx="28.14" cy="22.24" r="0.51"/><circle class="cls-17" cx="28.14" cy="27.63" r="0.51"/><circle class="cls-17" cx="28.14" cy="6.1" r="0.51"/><circle class="cls-17" cx="28.14" cy="16.86" r="0.51"/><circle class="cls-17" cx="28.14" cy="11.48" r="0.51"/><circle class="cls-17" cx="28.14" cy="33.01" r="0.51"/><circle class="cls-17" cx="24.08" cy="11.48" r="0.51"/><circle class="cls-17" cx="24.08" cy="16.86" r="0.51"/><circle class="cls-17" cx="24.08" cy="6.1" r="0.51"/><circle class="cls-17" cx="24.08" cy="0.71" r="0.51"/><circle class="cls-17" cx="48.43" cy="22.24" r="0.51"/><circle class="cls-17" cx="26.11" cy="19.55" r="0.51"/><circle class="cls-17" cx="26.11" cy="14.17" r="0.51"/><circle class="cls-17" cx="26.11" cy="24.94" r="0.51"/><circle class="cls-17" cx="26.11" cy="8.79" r="0.51"/><circle class="cls-17" cx="26.11" cy="3.4" r="0.51"/><circle class="cls-17" cx="26.11" cy="41.08" r="0.51"/><circle class="cls-17" cx="26.11" cy="46.47" r="0.51"/><circle class="cls-17" cx="26.11" cy="30.32" r="0.51"/><circle class="cls-17" cx="26.11" cy="51.85" r="0.51"/><circle class="cls-17" cx="26.11" cy="35.7" r="0.51"/><circle class="cls-17" cx="5.82" cy="30.32" r="0.51"/><circle class="cls-17" cx="5.82" cy="35.7" r="0.51"/><circle class="cls-17" cx="5.82" cy="24.94" r="0.51"/><circle class="cls-17" cx="5.82" cy="19.55" r="0.51"/><circle class="cls-17" cx="3.79" cy="0.71" r="0.51"/><circle class="cls-17" cx="3.79" cy="11.48" r="0.51"/><circle class="cls-17" cx="3.79" cy="16.86" r="0.51"/><circle class="cls-17" cx="5.82" cy="14.17" r="0.51"/><circle class="cls-17" cx="3.79" cy="6.1" r="0.51"/><circle class="cls-17" cx="18" cy="3.4" r="0.51"/><path class="cls-17" d="M5.32,41.08a.51.51,0,1,1,1,.2l-.63.28A.5.5,0,0,1,5.32,41.08Z"/><path class="cls-17" d="M17.49,8.79a.5.5,0,0,1,.43-.49c-.06.31-.12.61-.18.92A.5.5,0,0,1,17.49,8.79Z"/><circle class="cls-17" cx="5.82" cy="8.79" r="0.51"/><path class="cls-17" d="M15.46,16.86a.51.51,0,0,1,.51-.51l.12,0-.26,1A.5.5,0,0,1,15.46,16.86Z"/><circle class="cls-17" cx="5.82" cy="3.4" r="0.51"/><path class="cls-17" d="M11.4,38.39a.51.51,0,1,1,1,0,.5.5,0,0,1-.05.22l-.59.26A.5.5,0,0,1,11.4,38.39Z"/><circle class="cls-17" cx="1.77" cy="8.79" r="0.51"/><circle class="cls-17" cx="1.77" cy="3.4" r="0.51"/><circle class="cls-17" cx="1.77" cy="14.17" r="0.51"/><circle class="cls-17" cx="1.77" cy="30.32" r="0.51"/><circle class="cls-17" cx="1.77" cy="19.55" r="0.51"/><circle class="cls-17" cx="3.79" cy="22.24" r="0.51"/><circle class="cls-17" cx="1.77" cy="35.7" r="0.51"/><path class="cls-17" d="M-.27,32.5h0A.51.51,0,0,1,.24,33a.5.5,0,0,1-.27.44c-.08-.31-.16-.61-.24-.9Z"/><circle class="cls-17" cx="1.77" cy="24.94" r="0.51"/><circle class="cls-17" cx="3.79" cy="38.39" r="0.51"/><path class="cls-17" d="M.24.71a.5.5,0,0,1-.4.49Q-.1.74,0,.27A.5.5,0,0,1,.24.71Z"/><circle class="cls-17" cx="-0.26" cy="22.24" r="0.51"/><circle class="cls-17" cx="3.79" cy="33.01" r="0.51"/><circle class="cls-17" cx="3.79" cy="27.63" r="0.51"/><path class="cls-17" d="M-.26,5.59a.51.51,0,0,1,.51.51.51.51,0,0,1-.51.51.5.5,0,0,1-.44-.28l0-.53A.5.5,0,0,1-.26,5.59Z"/><circle class="cls-17" cx="-0.26" cy="11.48" r="0.51"/><circle class="cls-17" cx="-0.26" cy="27.63" r="0.51"/><circle class="cls-17" cx="-0.26" cy="16.86" r="0.51"/><path class="cls-17" d="M13.94,30.83a.51.51,0,0,1,0-1,.49.49,0,0,1,.23.06l.21.69A.5.5,0,0,1,13.94,30.83Z"/><circle class="cls-17" cx="11.91" cy="0.71" r="0.51"/><circle class="cls-17" cx="11.91" cy="27.63" r="0.51"/><circle class="cls-17" cx="11.91" cy="6.1" r="0.51"/><circle class="cls-17" cx="11.91" cy="16.86" r="0.51"/><circle class="cls-17" cx="11.91" cy="33.01" r="0.51"/><circle class="cls-17" cx="11.91" cy="11.48" r="0.51"/><circle class="cls-17" cx="11.91" cy="22.24" r="0.51"/><circle class="cls-17" cx="13.94" cy="35.7" r="0.51"/><circle class="cls-17" cx="13.94" cy="19.55" r="0.51"/><circle class="cls-17" cx="13.94" cy="8.79" r="0.51"/><circle class="cls-17" cx="13.94" cy="14.17" r="0.51"/><circle class="cls-17" cx="13.94" cy="3.4" r="0.51"/><circle class="cls-17" cx="15.97" cy="6.1" r="0.51"/><circle class="cls-17" cx="15.97" cy="0.71" r="0.51"/><circle class="cls-17" cx="15.97" cy="11.48" r="0.51"/><circle class="cls-17" cx="54.51" cy="3.4" r="0.51"/><circle class="cls-17" cx="56.54" cy="49.16" r="0.51"/><circle class="cls-17" cx="54.51" cy="14.17" r="0.51"/><circle class="cls-17" cx="54.51" cy="46.47" r="0.51"/><circle class="cls-17" cx="58.57" cy="19.55" r="0.51"/><circle class="cls-17" cx="54.51" cy="41.08" r="0.51"/><circle class="cls-17" cx="54.51" cy="24.94" r="0.51"/><circle class="cls-17" cx="56.54" cy="43.77" r="0.51"/><circle class="cls-17" cx="54.51" cy="19.55" r="0.51"/><circle class="cls-17" cx="54.51" cy="35.7" r="0.51"/><circle class="cls-17" cx="54.51" cy="8.79" r="0.51"/><circle class="cls-17" cx="58.57" cy="46.47" r="0.51"/><circle class="cls-17" cx="58.57" cy="30.32" r="0.51"/><circle class="cls-17" cx="58.57" cy="24.94" r="0.51"/><circle class="cls-17" cx="58.57" cy="51.85" r="0.51"/><circle class="cls-17" cx="58.57" cy="41.08" r="0.51"/><circle class="cls-17" cx="58.57" cy="35.7" r="0.51"/><circle class="cls-17" cx="56.54" cy="22.24" r="0.51"/><circle class="cls-17" cx="56.54" cy="38.39" r="0.51"/><circle class="cls-17" cx="56.54" cy="16.86" r="0.51"/><circle class="cls-17" cx="56.54" cy="27.63" r="0.51"/><circle class="cls-17" cx="56.54" cy="33.01" r="0.51"/><circle class="cls-17" cx="56.54" cy="11.48" r="0.51"/><circle class="cls-17" cx="56.54" cy="6.1" r="0.51"/><circle class="cls-17" cx="56.54" cy="0.71" r="0.51"/><circle class="cls-17" cx="54.51" cy="51.85" r="0.51"/><circle class="cls-17" cx="50.46" cy="35.7" r="0.51"/><circle class="cls-17" cx="50.46" cy="51.85" r="0.51"/><circle class="cls-17" cx="50.46" cy="30.32" r="0.51"/><circle class="cls-17" cx="50.46" cy="46.47" r="0.51"/><circle class="cls-17" cx="50.46" cy="41.08" r="0.51"/><circle class="cls-17" cx="50.46" cy="3.4" r="0.51"/><circle class="cls-17" cx="50.46" cy="8.79" r="0.51"/><circle class="cls-17" cx="50.46" cy="14.17" r="0.51"/><circle class="cls-17" cx="50.46" cy="19.55" r="0.51"/><circle class="cls-17" cx="50.46" cy="24.94" r="0.51"/><circle class="cls-17" cx="48.43" cy="6.1" r="0.51"/><circle class="cls-17" cx="48.43" cy="0.71" r="0.51"/><circle class="cls-17" cx="48.43" cy="16.86" r="0.51"/><circle class="cls-17" cx="48.43" cy="11.48" r="0.51"/><circle class="cls-17" cx="52.49" cy="16.86" r="0.51"/><circle class="cls-17" cx="52.49" cy="38.39" r="0.51"/><circle class="cls-17" cx="52.49" cy="22.24" r="0.51"/><circle class="cls-17" cx="52.49" cy="27.63" r="0.51"/><circle class="cls-17" cx="52.49" cy="33.01" r="0.51"/><circle class="cls-17" cx="52.49" cy="11.48" r="0.51"/><circle class="cls-17" cx="52.49" cy="0.71" r="0.51"/><circle class="cls-17" cx="52.49" cy="6.1" r="0.51"/><circle class="cls-17" cx="52.49" cy="43.77" r="0.51"/><circle class="cls-17" cx="52.49" cy="49.16" r="0.51"/><circle class="cls-17" cx="54.51" cy="30.32" r="0.51"/><circle class="cls-17" cx="32.2" cy="0.71" r="0.51"/><circle class="cls-17" cx="32.2" cy="6.1" r="0.51"/><circle class="cls-17" cx="32.2" cy="16.86" r="0.51"/><circle class="cls-17" cx="32.2" cy="27.63" r="0.51"/><circle class="cls-17" cx="58.57" cy="14.17" r="0.51"/><circle class="cls-17" cx="32.2" cy="22.24" r="0.51"/><circle class="cls-17" cx="32.2" cy="11.48" r="0.51"/><circle class="cls-17" cx="32.2" cy="43.77" r="0.51"/><circle class="cls-17" cx="34.23" cy="3.4" r="0.51"/><circle class="cls-17" cx="30.17" cy="51.85" r="0.51"/><circle class="cls-17" cx="30.17" cy="3.4" r="0.51"/><circle class="cls-17" cx="30.17" cy="30.32" r="0.51"/><circle class="cls-17" cx="30.17" cy="24.94" r="0.51"/><circle class="cls-17" cx="30.17" cy="8.79" r="0.51"/><circle class="cls-17" cx="30.17" cy="14.17" r="0.51"/><circle class="cls-17" cx="30.17" cy="19.55" r="0.51"/><circle class="cls-17" cx="34.23" cy="8.79" r="0.51"/><circle class="cls-17" cx="30.17" cy="35.7" r="0.51"/><circle class="cls-17" cx="30.17" cy="46.47" r="0.51"/><circle class="cls-17" cx="30.17" cy="41.08" r="0.51"/><circle class="cls-17" cx="32.2" cy="49.16" r="0.51"/><circle class="cls-17" cx="32.2" cy="33.01" r="0.51"/><circle class="cls-17" cx="60.6" cy="22.24" r="0.51"/><circle class="cls-17" cx="60.6" cy="27.63" r="0.51"/><circle class="cls-17" cx="60.6" cy="43.77" r="0.51"/><circle class="cls-17" cx="60.6" cy="49.16" r="0.51"/><circle class="cls-17" cx="60.6" cy="38.39" r="0.51"/><circle class="cls-17" cx="60.6" cy="33.01" r="0.51"/><circle class="cls-17" cx="60.6" cy="0.71" r="0.51"/><circle class="cls-17" cx="60.6" cy="6.1" r="0.51"/><circle class="cls-17" cx="60.6" cy="11.48" r="0.51"/><circle class="cls-17" cx="60.6" cy="16.86" r="0.51"/><circle class="cls-17" cx="58.57" cy="8.79" r="0.51"/><circle class="cls-17" cx="58.57" cy="3.4" r="0.51"/><circle class="cls-17" cx="34.23" cy="51.85" r="0.51"/><circle class="cls-17" cx="34.23" cy="46.47" r="0.51"/><circle class="cls-17" cx="34.23" cy="14.17" r="0.51"/><circle class="cls-17" cx="34.23" cy="35.7" r="0.51"/><circle class="cls-17" cx="34.23" cy="24.94" r="0.51"/><circle class="cls-17" cx="34.23" cy="19.55" r="0.51"/><circle class="cls-17" cx="34.23" cy="41.08" r="0.51"/><circle class="cls-17" cx="34.23" cy="30.32" r="0.51"/><polygon class="cls-18" points="16.64 33.26 18.14 39.3 4.01 46.29 0.34 39.77 16.64 33.26"/><polygon class="cls-18" points="80.96 33.26 79.46 39.3 93.59 46.29 97.26 39.77 80.96 33.26"/><polygon class="cls-19" points="46.57 53.79 50.85 53.79 50.85 -26.45 46.57 -31.58 46.57 53.79"/><circle class="cls-20" cx="48.71" cy="9.29" r="0.79"/><circle class="cls-20" cx="48.71" cy="19.43" r="0.79"/><circle class="cls-20" cx="48.71" cy="29.56" r="0.79"/><circle class="cls-20" cx="48.71" cy="39.7" r="0.79"/><circle class="cls-20" cx="48.71" cy="49.83" r="0.79"/></g><path class="cls-7" d="M10.22,67.53c4.62-8.06,18.56-12.91,22.53-15.11s3.35-12.11,3.35-12.11H59.72s-.62,9.91,3.35,12.11,17.9,7,22.53,15.11S71.94,102.66,71.94,117c0,10.26,1.54,10.53,1.54,31.67H22.33c0-21.14,1.54-21.41,1.54-31.67C23.87,102.66,5.59,75.59,10.22,67.53Z"/><path class="cls-21" d="M61.78,51.26c-4.45-2.28-3.7,1.21-12.45,3.21-5.77,1.32-13-2.85-14.1-5.69a27.66,27.66,0,0,0,.86-8.47H59.72S59.25,47.88,61.78,51.26Z"/><path class="cls-9" d="M47.55,81.14c0-4.49.19-8.12.36-8.12s.36,3.64.36,8.12a58.14,58.14,0,0,1-.36,8.12A58.13,58.13,0,0,1,47.55,81.14Z"/><path class="cls-10" d="M21.82,118.25c0-14.64-17.4-42.3-12.67-50.54s19-13.19,23-15.44a5,5,0,0,0,2-2.28l6,5.92,7.51,9,7.16-9L61.19,50a5,5,0,0,0,2,2.28c4.05,2.25,18.3,7.2,23,15.44s-12.67,35.91-12.67,50.54c0,8.51,2.07,36.2,2.07,36.2H19.81S21.82,126.9,21.82,118.25Z"/><path class="cls-7" d="M67.71,157.73S70.34,154.65,73,152c2.15-2.16,5.9-15.94,9.12-25.26h0c.09-.6,1.7-5.93,1.83-6.49-3.25-7.78-6.39-21.89-6.39-31.3,0,0-7.09-25,2.38-27.11C96.1,61.07,94.49,87,94.49,87c2.72,7.29,3.11,18.33,1.93,28.3a31.08,31.08,0,0,1,.75,3.37h0c1,3.27.15,4.73-.68,8.07-4.44,17.85-11.79,22.73-16.5,32l-4,12.91-8.1,4.82-6.74-6.88Z"/><path class="cls-7" d="M28.11,157.73s-2.63-3.09-5.25-5.73c-2.15-2.16-5.9-15.94-9.12-25.26h0c-.09-.6-1.7-5.93-1.83-6.49,3.25-7.78,6.39-21.89,6.39-31.3,0,0,7.09-25-2.38-27.11C-.28,61.07,1.33,87,1.33,87c-2.72,7.29-3.11,18.33-1.93,28.3a31.11,31.11,0,0,0-.75,3.37h0c-1,3.27-.15,4.73.68,8.07,4.44,17.85,11.79,22.73,16.5,32l4,12.91,8.1,4.82,6.74-6.88Z"/><path class="cls-10" d="M12.17,120.65c.08.3,3.32,11,3.32,11L2.25,137.45s-2.33-6.22-3.31-10.15c-.15-.62-.31-1.18-.45-1.7-.64-2.32-1.07-3.86-.24-6.61.2-1.19-1.31-18.81,2.72-32.24,0-.94-.69-15.65,6-22.4,2.39-2.43,7.66-2.52,10.42-3.9C25.71,64.29,19,87.72,18.67,88.8,18.66,98.85,15.29,113.13,12.17,120.65Z"/><path class="cls-10" d="M83.83,120.65c-.08.3-3.32,11-3.32,11l13.24,5.83s2.33-6.22,3.31-10.15c.15-.62.31-1.18.45-1.7.64-2.32,1.07-3.86.24-6.61-.2-1.19,1.31-18.81-2.72-32.24,0-.94.69-15.65-6-22.4-2.39-2.43-7.66-2.52-10.42-3.9C70.29,64.29,77,87.72,77.33,88.8,77.34,98.85,80.71,113.13,83.83,120.65Z"/><circle class="cls-17" cx="61.83" cy="60.47" r="0.51"/><circle class="cls-17" cx="61.83" cy="65.85" r="0.51"/><circle class="cls-17" cx="61.83" cy="71.24" r="0.51"/><circle class="cls-17" cx="61.83" cy="55.09" r="0.51"/><circle class="cls-17" cx="35.45" cy="63.16" r="0.51"/><circle class="cls-17" cx="35.45" cy="57.78" r="0.51"/><circle class="cls-17" cx="35.45" cy="73.93" r="0.51"/><circle class="cls-17" cx="35.45" cy="68.54" r="0.51"/><circle class="cls-17" cx="35.45" cy="52.4" r="0.51"/><circle class="cls-17" cx="61.83" cy="76.62" r="0.51"/><circle class="cls-17" cx="71.97" cy="63.16" r="0.51"/><circle class="cls-17" cx="71.97" cy="73.93" r="0.51"/><circle class="cls-17" cx="71.97" cy="68.54" r="0.51"/><circle class="cls-17" cx="74" cy="71.24" r="0.51"/><circle class="cls-17" cx="74" cy="60.47" r="0.51"/><circle class="cls-17" cx="71.97" cy="57.78" r="0.51"/><circle class="cls-17" cx="74" cy="65.85" r="0.51"/><circle class="cls-17" cx="74" cy="76.62" r="0.51"/><circle class="cls-17" cx="76.03" cy="73.93" r="0.51"/><path class="cls-17" d="M78.06,61a.5.5,0,0,1-.22-1l.72.48h0A.5.5,0,0,1,78.06,61Z"/><circle class="cls-17" cx="76.03" cy="63.16" r="0.51"/><circle class="cls-17" cx="76.03" cy="68.54" r="0.51"/><circle class="cls-17" cx="78.06" cy="65.85" r="0.51"/><circle class="cls-17" cx="78.06" cy="71.24" r="0.51"/><circle class="cls-17" cx="78.06" cy="76.62" r="0.51"/><circle class="cls-17" cx="41.54" cy="65.85" r="0.51"/><circle class="cls-17" cx="43.57" cy="73.93" r="0.51"/><circle class="cls-17" cx="43.57" cy="68.54" r="0.51"/><circle class="cls-17" cx="43.57" cy="63.16" r="0.51"/><circle class="cls-17" cx="41.54" cy="60.47" r="0.51"/><circle class="cls-17" cx="45.6" cy="71.24" r="0.51"/><circle class="cls-17" cx="45.6" cy="65.85" r="0.51"/><circle class="cls-17" cx="45.6" cy="76.62" r="0.51"/><circle class="cls-17" cx="37.48" cy="55.09" r="0.51"/><circle class="cls-17" cx="37.48" cy="65.85" r="0.51"/><circle class="cls-17" cx="37.48" cy="71.24" r="0.51"/><circle class="cls-17" cx="37.48" cy="60.47" r="0.51"/><circle class="cls-17" cx="37.48" cy="76.62" r="0.51"/><circle class="cls-17" cx="41.54" cy="71.24" r="0.51"/><circle class="cls-17" cx="41.54" cy="76.62" r="0.51"/><circle class="cls-17" cx="39.51" cy="73.93" r="0.51"/><circle class="cls-17" cx="39.51" cy="68.54" r="0.51"/><circle class="cls-17" cx="39.51" cy="63.16" r="0.51"/><circle class="cls-17" cx="39.51" cy="57.78" r="0.51"/><circle class="cls-17" cx="82.11" cy="65.85" r="0.51"/><circle class="cls-17" cx="82.11" cy="71.24" r="0.51"/><circle class="cls-17" cx="82.11" cy="76.62" r="0.51"/><circle class="cls-17" cx="80.09" cy="68.54" r="0.51"/><circle class="cls-17" cx="80.09" cy="73.93" r="0.51"/><circle class="cls-17" cx="92.26" cy="73.93" r="0.51"/><circle class="cls-17" cx="80.09" cy="63.16" r="0.51"/><circle class="cls-17" cx="84.14" cy="63.16" r="0.51"/><circle class="cls-17" cx="84.14" cy="73.93" r="0.51"/><circle class="cls-17" cx="84.14" cy="68.54" r="0.51"/><circle class="cls-17" cx="69.94" cy="60.47" r="0.51"/><path class="cls-17" d="M94.29,77.13a.51.51,0,0,1,0-1h0q.09.49.17,1A.5.5,0,0,1,94.29,77.13Z"/><path class="cls-17" d="M91.75,68.54a.49.49,0,0,1,.08-.25q.19.37.36.75A.5.5,0,0,1,91.75,68.54Z"/><circle class="cls-17" cx="90.23" cy="71.24" r="0.51"/><circle class="cls-17" cx="90.23" cy="76.62" r="0.51"/><path class="cls-17" d="M90.23,66.36a.5.5,0,0,1-.23-1q.31.39.59.8A.5.5,0,0,1,90.23,66.36Z"/><circle class="cls-17" cx="65.88" cy="55.09" r="0.51"/><circle class="cls-17" cx="65.88" cy="60.47" r="0.51"/><circle class="cls-17" cx="65.88" cy="65.85" r="0.51"/><circle class="cls-17" cx="65.88" cy="71.24" r="0.51"/><circle class="cls-17" cx="65.88" cy="76.62" r="0.51"/><circle class="cls-17" cx="69.94" cy="65.85" r="0.51"/><circle class="cls-17" cx="69.94" cy="71.24" r="0.51"/><circle class="cls-17" cx="69.94" cy="76.62" r="0.51"/><circle class="cls-17" cx="67.91" cy="63.16" r="0.51"/><circle class="cls-17" cx="67.91" cy="68.54" r="0.51"/><circle class="cls-17" cx="67.91" cy="73.93" r="0.51"/><circle class="cls-17" cx="67.91" cy="57.78" r="0.51"/><circle class="cls-17" cx="88.2" cy="73.93" r="0.51"/><path class="cls-17" d="M87.73,63.36l.5.31h0A.51.51,0,0,1,87.73,63.36Z"/><circle class="cls-17" cx="88.2" cy="68.54" r="0.51"/><circle class="cls-17" cx="86.17" cy="71.24" r="0.51"/><circle class="cls-17" cx="86.17" cy="65.85" r="0.51"/><circle class="cls-17" cx="86.17" cy="76.62" r="0.51"/><circle class="cls-17" cx="63.86" cy="57.78" r="0.51"/><circle class="cls-17" cx="63.86" cy="63.16" r="0.51"/><path class="cls-17" d="M63.86,52.9a.51.51,0,0,1-.47-.32l.58.29Z"/><circle class="cls-17" cx="63.86" cy="73.93" r="0.51"/><circle class="cls-17" cx="63.86" cy="68.54" r="0.51"/><circle class="cls-17" cx="21.25" cy="76.62" r="0.51"/><circle class="cls-17" cx="19.22" cy="73.93" r="0.51"/><circle class="cls-17" cx="19.22" cy="68.54" r="0.51"/><circle class="cls-17" cx="21.25" cy="71.24" r="0.51"/><circle class="cls-17" cx="21.25" cy="65.85" r="0.51"/><circle class="cls-17" cx="21.25" cy="60.47" r="0.51"/><circle class="cls-17" cx="7.05" cy="68.54" r="0.51"/><circle class="cls-17" cx="7.05" cy="73.93" r="0.51"/><circle class="cls-17" cx="19.22" cy="63.16" r="0.51"/><circle class="cls-17" cx="25.31" cy="60.47" r="0.51"/><circle class="cls-17" cx="25.31" cy="76.62" r="0.51"/><circle class="cls-17" cx="25.31" cy="71.24" r="0.51"/><circle class="cls-17" cx="25.31" cy="65.85" r="0.51"/><circle class="cls-17" cx="27.34" cy="73.93" r="0.51"/><circle class="cls-17" cx="23.28" cy="73.93" r="0.51"/><circle class="cls-17" cx="23.28" cy="57.78" r="0.51"/><circle class="cls-17" cx="23.28" cy="63.16" r="0.51"/><circle class="cls-17" cx="23.28" cy="68.54" r="0.51"/><circle class="cls-17" cx="13.14" cy="76.62" r="0.51"/><circle class="cls-17" cx="5.02" cy="71.24" r="0.51"/><circle class="cls-17" cx="2.99" cy="73.93" r="0.51"/><circle class="cls-17" cx="5.02" cy="76.62" r="0.51"/><circle class="cls-17" cx="11.11" cy="73.93" r="0.51"/><circle class="cls-17" cx="11.11" cy="68.54" r="0.51"/><circle class="cls-17" cx="15.17" cy="73.93" r="0.51"/><circle class="cls-17" cx="11.11" cy="63.16" r="0.51"/><circle class="cls-17" cx="15.17" cy="63.16" r="0.51"/><circle class="cls-17" cx="15.17" cy="68.54" r="0.51"/><circle class="cls-17" cx="9.08" cy="71.24" r="0.51"/><circle class="cls-17" cx="9.08" cy="76.62" r="0.51"/><circle class="cls-17" cx="9.08" cy="65.85" r="0.51"/><circle class="cls-17" cx="17.19" cy="65.85" r="0.51"/><circle class="cls-17" cx="17.19" cy="71.24" r="0.51"/><path class="cls-17" d="M17.19,61a.5.5,0,0,1-.44-.27c.21-.08.4-.17.59-.26h0l.3-.2a.5.5,0,0,1,.06.23A.51.51,0,0,1,17.19,61Z"/><circle class="cls-17" cx="17.19" cy="76.62" r="0.51"/><circle class="cls-17" cx="13.14" cy="71.24" r="0.51"/><circle class="cls-17" cx="13.14" cy="65.85" r="0.51"/><circle class="cls-17" cx="27.34" cy="68.54" r="0.51"/><circle class="cls-17" cx="53.71" cy="76.62" r="0.51"/><circle class="cls-17" cx="53.71" cy="71.24" r="0.51"/><circle class="cls-17" cx="53.71" cy="65.85" r="0.51"/><circle class="cls-17" cx="53.71" cy="60.47" r="0.51"/><circle class="cls-17" cx="51.68" cy="63.16" r="0.51"/><circle class="cls-17" cx="27.34" cy="57.78" r="0.51"/><circle class="cls-17" cx="55.74" cy="57.78" r="0.51"/><circle class="cls-17" cx="55.74" cy="73.93" r="0.51"/><circle class="cls-17" cx="55.74" cy="68.54" r="0.51"/><circle class="cls-17" cx="55.74" cy="63.16" r="0.51"/><circle class="cls-17" cx="51.68" cy="68.54" r="0.51"/><circle class="cls-17" cx="47.63" cy="68.54" r="0.51"/><circle class="cls-17" cx="47.63" cy="73.93" r="0.51"/><circle class="cls-17" cx="49.65" cy="65.85" r="0.51"/><circle class="cls-17" cx="49.65" cy="71.24" r="0.51"/><circle class="cls-17" cx="49.65" cy="76.62" r="0.51"/><circle class="cls-17" cx="51.68" cy="73.93" r="0.51"/><circle class="cls-17" cx="31.4" cy="73.93" r="0.51"/><circle class="cls-17" cx="33.42" cy="76.62" r="0.51"/><circle class="cls-17" cx="31.4" cy="68.54" r="0.51"/><circle class="cls-17" cx="31.4" cy="57.78" r="0.51"/><circle class="cls-17" cx="31.4" cy="63.16" r="0.51"/><circle class="cls-17" cx="33.42" cy="71.24" r="0.51"/><circle class="cls-17" cx="33.42" cy="65.85" r="0.51"/><circle class="cls-17" cx="33.42" cy="60.47" r="0.51"/><circle class="cls-17" cx="27.34" cy="63.16" r="0.51"/><circle class="cls-17" cx="29.37" cy="65.85" r="0.51"/><circle class="cls-17" cx="29.37" cy="60.47" r="0.51"/><circle class="cls-17" cx="29.37" cy="55.09" r="0.51"/><circle class="cls-17" cx="29.37" cy="76.62" r="0.51"/><circle class="cls-17" cx="29.37" cy="71.24" r="0.51"/><circle class="cls-17" cx="57.77" cy="71.24" r="0.51"/><circle class="cls-17" cx="57.77" cy="55.09" r="0.51"/><circle class="cls-17" cx="57.77" cy="65.85" r="0.51"/><circle class="cls-17" cx="57.77" cy="60.47" r="0.51"/><circle class="cls-17" cx="57.77" cy="76.62" r="0.51"/><circle class="cls-17" cx="33.42" cy="55.09" r="0.51"/><circle class="cls-17" cx="59.8" cy="57.78" r="0.51"/><circle class="cls-17" cx="59.8" cy="52.4" r="0.51"/><circle class="cls-17" cx="59.8" cy="63.16" r="0.51"/><circle class="cls-17" cx="59.8" cy="73.93" r="0.51"/><circle class="cls-17" cx="59.8" cy="68.54" r="0.51"/><polygon class="cls-19" points="45.77 148.53 50.05 148.53 50.05 68.29 45.77 63.16 45.77 148.53"/><circle class="cls-20" cx="47.91" cy="73.64" r="0.79"/><polygon class="cls-22" points="41.03 54.82 49.76 68.11 39.42 56.77 41.03 54.82"/><polygon class="cls-23" points="41.03 54.82 34.66 47.86 31.67 52.42 37.69 63.65 41.03 54.82"/><polygon class="cls-22" points="54.28 54.82 47.39 64.5 47.94 65.34 56.3 57.32 54.28 54.82"/><polygon class="cls-23" points="54.28 54.82 60.65 47.86 63.92 51.88 57.87 63.65 54.28 54.82"/><path class="cls-7" d="M62.85,25.45s2.08-3.92,3.68-2.21c2.72,2.91-.93,15.1-4.39,12.8Z"/><path class="cls-21" d="M63.45,26.24s1.43-2.49,2.53-1.4c1.87,1.85-1.41,10.61-3,8.13Z"/><path class="cls-7" d="M33,25.45s-2.08-3.92-3.68-2.21c-2.72,2.91.93,15.1,4.39,12.8Z"/><path class="cls-21" d="M32.37,26.24s-1.43-2.49-2.53-1.4c-1.87,1.85,1.41,10.61,3,8.13Z"/><path class="cls-7" d="M48,.38H47.8C39.45.47,31.18,5.25,31.18,14.74L33.1,37.42c1.21,7.31,10.45,12.64,12.68,12.64H50c2.23,0,11.48-5.33,12.68-12.64l1.92-22.68C64.63,5.25,56.36.47,48,.38Z"/><path class="cls-2" d="M41.55,37.65c1.84.47,4.37.14,6.36.14s4.61.28,6.36-.14c0,0-2.94,3.91-6.22,3.92S41.55,37.65,41.55,37.65Z"/><path class="cls-24" d="M56.19,35.1c-2.64-.88-5.32.49-8.08.49S42.68,34.22,40,35.1s-2.35,5.68-2.35,5.68l4.7,2.66S39.51,38,41.27,37.1c1.07-.57,2.23.12,6.93.12s5.67-.69,6.74-.12c1.76.94-1.16,6.06-1.16,6.06l4.75-2.38S58.87,36,56.19,35.1Z"/><path class="cls-24" d="M60.18,4.2c7.13,6.85,4.29,19.29,4.29,19.29L63.3,30.42H63c.24-4.4.93-17.88-2.49-20.59-3.17-2.51-3.4-1.35-12.87-1.48s-11.27-1.27-14,2.21c-1.88,2.4-1.11,15.29-.87,19.86h-.29l-1-6.64S27.72,11.19,34.18,5.29C43.81-3.53,56.37.53,60.18,4.2Z"/><path id="SVGID-3" data-name="SVGID" class="cls-2" d="M52,25.06c0-1,2.12-2.1,3.35-2.09s3.34.64,3.22,1.94c-.07.75-.65,1.44-3.22,1.44S52.07,25.65,52,25.06Z"/><g class="cls-25"><circle class="cls-26" cx="55.39" cy="24.67" r="1.91"/><circle cx="55.39" cy="24.67" r="1.07"/><circle class="cls-2" cx="56.04" cy="24.88" r="0.22"/></g><path class="cls-21" d="M52,25c-.1-1.37,2-2.22,3.35-2.21s3.49.64,3.22,2.16A5.66,5.66,0,0,0,52,25Z"/><path id="SVGID-4" data-name="SVGID" class="cls-2" d="M43.78,25.06c0-1-2.12-2.1-3.35-2.09s-3.34.64-3.22,1.94c.07.75.65,1.44,3.22,1.44S43.75,25.65,43.78,25.06Z"/><g class="cls-27"><circle class="cls-26" cx="40.43" cy="24.67" r="1.91"/><circle cx="40.43" cy="24.67" r="1.07"/><circle class="cls-2" cx="41.06" cy="24.88" r="0.22"/></g><path class="cls-21" d="M43.77,25c.1-1.37-2-2.22-3.35-2.21s-3.49.64-3.22,2.16A5.66,5.66,0,0,1,43.77,25Z"/><path class="cls-21" d="M52.38,33.47a1.37,1.37,0,0,0-.4-.59,1.69,1.69,0,0,0-.44-.28c-.12-.05-.19-.06-.22,0s.15.2.36.48a1.32,1.32,0,0,1,.24.51.77.77,0,0,1-.1.6.58.58,0,0,1-.52.24,1.1,1.1,0,0,1-.31-.11,3.3,3.3,0,0,0-.34-.15,1,1,0,0,0-.28-.05c.15-.2.19-.34.15-.36s-.28.2-.7.49a3.85,3.85,0,0,1-.79.42,3.17,3.17,0,0,1-1.1.22,3.25,3.25,0,0,1-1.11-.19,4.1,4.1,0,0,1-.81-.4c-.43-.28-.66-.5-.73-.46s0,.12.12.28a1,1,0,0,0-.24,0,3.31,3.31,0,0,0-.34.15,1.1,1.1,0,0,1-.31.11.58.58,0,0,1-.52-.24.76.76,0,0,1-.1-.6,1.32,1.32,0,0,1,.24-.51c.21-.28.41-.44.36-.48s-.1,0-.22,0a1.69,1.69,0,0,0-.44.28,1.37,1.37,0,0,0-.4.59,1,1,0,0,0,.11.86,1,1,0,0,0,.45.35,1.09,1.09,0,0,0,.63.06,1.37,1.37,0,0,0,.44-.19l.27-.17a.71.71,0,0,1,.26-.08l.17.17a3.2,3.2,0,0,0,.85.52,3.38,3.38,0,0,0,1.32.26A3.3,3.3,0,0,0,49.26,35a3,3,0,0,0,.83-.55l.11-.11a.71.71,0,0,1,.28.08l.27.17a1.36,1.36,0,0,0,.44.19,1.09,1.09,0,0,0,.63-.06,1,1,0,0,0,.45-.35A1,1,0,0,0,52.38,33.47Z"/><path class="cls-24" d="M60.07,23.82c-.23.13-1.57-1.07-1.83-1.19a4.92,4.92,0,0,0-2.88-.38c-1.5.26-3,1.22-4.56,1.14-1-.05-.89-1.87-.8-2.38s4.85-.58,6-.55a4.61,4.61,0,0,1,3.07,1.13c.17.15,1.61,1.89,1,2.24Z"/><path class="cls-24" d="M35.74,23.82c.23.13,1.57-1.07,1.83-1.19a4.92,4.92,0,0,1,2.88-.38c1.5.26,3,1.22,4.56,1.14,1-.05.89-1.87.8-2.38s-4.85-.58-6-.55a4.61,4.61,0,0,0-3.07,1.13c-.17.15-1.61,1.89-1,2.24Z"/><path class="cls-24" d="M63,30.24C62,38,55.6,42.34,51.8,44.28A1.93,1.93,0,0,1,49,42.56H46.82v.08c0,1.42-1.65,2.09-2.93,1.47-3.8-1.83-10.12-5.81-11.09-13.87h-.29l.59,7c1.21,7.31,9.53,12.83,12.68,12.83H50c3.4,0,11.48-5.52,12.68-12.83l.59-7Z"/></g></svg>