<svg xmlns="http://www.w3.org/2000/svg" xmlns:xlink="http://www.w3.org/1999/xlink" width="101" height="77" viewBox="0 0 101 77"><defs><style>.cls-1{fill:none;}.cls-2{clip-path:url(#clip-path);}.cls-3{fill:#93562a;}.cls-4{fill:#c56946;}.cls-5{fill:#1d3042;}.cls-6{fill:#152430;}.cls-7{fill:#702c3a;}.cls-8{fill:#725d54;}.cls-9{fill:#7a645a;}.cls-10{fill:#593b31;}.cls-11{fill:#cecccc;}.cls-12{fill:#847167;}.cls-13{fill:#826960;}.cls-14{fill:#723b17;}.cls-15{fill:#aa573d;}.cls-16{fill:#c48b47;}.cls-17{fill:#2b1a14;}.cls-18{fill:#aaa;}.cls-19{fill:#d6d6d6;}.cls-20{fill:#fff;}.cls-21{fill:#592b1d;}.cls-22{fill:#be5647;}.cls-23{fill:#93322b;}</style><clipPath id="clip-path"><circle class="cls-1" cx="120" cy="-61" r="42.75"/></clipPath></defs><title>head-1</title><g id="Layer_1" data-name="Layer 1"><g class="cls-2"><path class="cls-3" d="M83.77-27.09C88.32-35,102-39.78,105.93-42s3.29-11.91,3.29-11.91h23.24s-.61,9.75,3.29,11.91S153.36-35,157.91-27.09,144.48,7.47,144.48,21.55c0,10.09,1.52,10.36,1.52,31.15H95.69c0-20.79,1.52-21.06,1.52-31.15C97.2,7.47,79.22-19.16,83.77-27.09Z"/><path class="cls-3" d="M94,195.34c.43-5.65-6.83-37.41-2.77-56.35,0,0,1.54-9.08.86-16.46s-2.23-36.78.43-54.78L95.89,42.9h50l3.42,24.85c2.66,18,1.12,47.4.43,54.78s.86,16.46.86,16.46c4.06,18.94-3.2,50.7-2.77,56.35,0,8.78,7.93,16.91,7.93,20.07s-5.8,5.87-9.86,4.29-2.14-4.41-3.79-7.82-3.91-2.55-4.55-5.26,1.5-6,1.5-11.72c0-20.29-6.84-33.18-2.78-52.73-2-5.43-3.33-10.79-3-16-5-16.13-8.83-31.38-9.07-44.16h-6.59c-.24,12.78-4,28-9.07,44.16.33,5.23-.95,10.6-3,16,4.06,19.55-2.78,32.44-2.78,52.73,0,5.76,2.14,9,1.5,11.72s-2.9,1.85-4.55,5.26.27,6.24-3.79,7.82-9.58-1.66-9.58-4.82S94,204.12,94,195.34Z"/><path class="cls-3" d="M91.87-14.27c.16,0,.29,1.74.87,4.46a38.19,38.19,0,0,0,1.33,4.69c.31.86.66,1.76,1.07,2.66A9.73,9.73,0,0,0,96.69,0,4.5,4.5,0,0,0,99,1.44a11.76,11.76,0,0,0,2.76.26c1.82,0,3.5-.12,4.9-.21a31.5,31.5,0,0,1,4.57-.21,21.84,21.84,0,0,1-4.48,1,41.09,41.09,0,0,1-5,.55,11.79,11.79,0,0,1-3.06-.2A5.6,5.6,0,0,1,97.13,2,5.91,5.91,0,0,1,95.76.87,10.32,10.32,0,0,1,94-2a28.86,28.86,0,0,1-1-2.8,29,29,0,0,1-1.08-4.91C91.56-12.51,91.75-14.27,91.87-14.27Z"/><path class="cls-4" d="M96.07,21.65C96.07,7.56,79.33-19.06,83.88-27S102.14-39.69,106-41.86a4.85,4.85,0,0,0,1.9-2.2c9.13,6.36,15.94,6.43,26,0a4.85,4.85,0,0,0,1.9,2.2c3.9,2.17,17.61,6.93,22.16,14.86S145.83,7.56,145.83,21.65c0,8.19,2,34.83,2,34.83H94.14S96.07,30,96.07,21.65Z"/><path class="cls-5" d="M152,198.59H135.57l-4.44-69.78L122,86.48h-2.82s-4.17,22.81-10.16,42c.29,4.73-2.66,70.15-2.66,70.15h-17s-1.19-48.49.57-73.74c.59-8.52-.4-39.58,2.19-57.16l1.59-11.52,54.18.3,1.86,11.21c2.6,17.58,1.82,49,2.13,57.51C152.29,135.74,152.8,164.64,152,198.59Z"/><path class="cls-6" d="M93.74,56.18l5.17,0,2.92,3.4L90.74,84.2c.28-6,.72-11.75,1.42-16.51Z"/><path class="cls-7" d="M148.2,55.78l.74,6.26a477,477,0,0,1-56.08,0l1-6.26Q120.64,56.5,148.2,55.78Z"/><path class="cls-8" d="M100.86,57.35c9.48-8.73,12.6-24.46,11.34-54.27s-11.72-44.4-11.72-44.4L86.26-36C77.45-31.24,72.94-22.74,74.12-9.23L91.9,5.43c9,39.15-20.46,47.86-5,75.9C86.86,81.33,87.56,69.61,100.86,57.35Z"/><path class="cls-9" d="M97.53,54.86C107,46.12,110.12,30.4,108.87.58c-.93-22,2.08-27.32,3.34,2.5s-1.86,45.54-11.34,54.27C87.56,69.61,88.57,63.11,97.53,54.86Z"/><path class="cls-1" d="M164.63,56.67c-.55,2.3-1.08,4.59-1.57,6.86l-1,13.89-5.77,7.27-7.07,3.17a1.62,1.62,0,0,1-1.33-3l5-2.86,2.3-5.25a.88.88,0,0,0-1.58-.78l-1.57,3A1.67,1.67,0,0,1,149,77.7l3.26-9.57,4.89-6.31q-.34-2.63-.69-5.15H85.22q-.35,2.52-.69,5.15l4.89,6.31,3.26,9.57A1.67,1.67,0,0,1,89.62,79l-1.57-3a.88.88,0,0,0-1.58.78L88.77,82l5,2.86a1.62,1.62,0,0,1-1.33,3l-7.07-3.17-5.77-7.27-1-13.89c-.49-2.26-1-4.55-1.57-6.86H72.69V90h98.55V56.67Z"/><path class="cls-3" d="M79.58,77.42l5.77,7.27,7.07,3.17a1.62,1.62,0,0,0,1.33-3l-5-2.86-2.3-5.25A.88.88,0,0,1,88.05,76l1.57,3a1.67,1.67,0,0,0,3.07-1.32l-3.26-9.57-4.89-6.31q.34-2.63.69-5.15H77.05c.55,2.3,1.08,4.59,1.57,6.86Z"/><path class="cls-8" d="M86.41-36.06c-8.82,4.7-14.95,13.19-13.8,26.7,0,0-3,23.45-3.13,32.67C69.3,32.37,71.56,54.28,75,59L89.35,56.2,86.84,23.73,93.19,3.15C97-11.19,102.63-37.39,86.41-36.06Z"/><path class="cls-10" d="M112.2,3.08c0,.87.07,1.72.1,2.57-7.65.25-14.63.62-20.14,1l0-.08,0,.08C86.2,7,82,7.4,80.49,7.6L75,8.34c-1.23.17-3.18,1-4.63.9C70.86,4,71.53-1.28,72-4.88l39.4-2C111.77-3.77,112.05-.45,112.2,3.08Z"/><path class="cls-11" d="M72.2,5.76c.83-1,1.8-2.16,2.88-3.47l1.13.93,2.34,1.89,1.27,1,1.69,1.35.2,0,4.54-5.61,4.06,3.3,1.57,1.27L97.24.78l2.2,1.86,2,1.66.95.79.84.71.1.09.05,0s0,0,0,0l.17-.21.34-.41.49-.6.36-.45.69-.87,1.27-1.66,1-1.32,1.47,1.69a17.33,17.33,0,0,0,2.7,2.82,17,17,0,0,0-2.18-3.21l-1.5-2c.89-1.25,1.6-2.34,2.09-3.19a5.64,5.64,0,0,0,1-2.1,11.92,11.92,0,0,0-1.4,1.83c-.55.75-1.28,1.69-2.16,2.8l-.69-.9-1.69-2.17-.92-1.18-1-1.24-.94,0-5.2,5.33L97.15-1l-1.06-.92L91.54-5.87l-.89,0-.53.66L86,0l-.66-.53L79.56-5.19,76.92-1.75,74.9.93,74.84,1l-2-1.43-1.33-.95-.08.66,1,.82,1.9,1.58c-1,1.38-2,2.61-2.71,3.65l-1,1.41-.11,1C71,7.22,71.54,6.55,72.2,5.76ZM98.12-.15l.07-.07,2.68-2.85,1.27-1.36.61-.66.06-.07h0l0,0,0-.06,3.33,3.94.88,1-1.16,1.42-1.33,1.6-.71.84-.37.43-.19.22,0,.05,0,0,0,0s0,0,0,0l-.08-.08-.93-.82-1.94-1.71Zm-11,1L91.2-4.34v0L95.2-1l1,.89L91.76,4.58h0l0,0-.54-.43ZM75.65,1.6l.05-.07,4.06-5,0,0h0l.08.06.63.52,1.3,1.07L84.54.45l.7.57-2.12,2.7L82.06,5.07l-.51.66-.1.13,0,0L76.83,2.47Z"/><path class="cls-12" d="M94.58-39.17c3.2-3.65,6.85-4.34,10.46-4.82,0,0,9.27,39.3,7.39,53.82C108.89-10.65,96.9-18.05,94.58-39.17Z"/><polygon class="cls-13" points="89.28 56.03 74.95 58.73 77.56 68.19 89.35 66.3 89.28 56.03"/><ellipse class="cls-8" cx="87.39" cy="61.53" rx="0.45" ry="3.29" transform="translate(-0.07 0.1) rotate(-0.07)"/><path class="cls-8" d="M84.27,58.38c-.24.08,0,1.57.25,3.4s.27,3.35.52,3.37.59-1.54.37-3.47S84.49,58.3,84.27,58.38Z"/><ellipse class="cls-8" cx="82.62" cy="62.19" rx="0.45" ry="3.18" transform="translate(-9.83 15.85) rotate(-10.35)"/><path class="cls-8" d="M79.06,59.12c-.24,0-.16,1.65.44,3.52s1.48,3.22,1.7,3.11-.27-1.58-.85-3.39S79.31,59.07,79.06,59.12Z"/><path class="cls-8" d="M76.69,60.34c-.24,0-.17,1.49.45,3.14s1.5,2.8,1.71,2.68-.29-1.41-.87-3S76.94,60.29,76.69,60.34Z"/></g><path class="cls-3" d="M14.27,67.34c4.55-7.93,18.26-12.7,22.16-14.86s3.29-11.91,3.29-11.91H63s-.61,9.75,3.29,11.91,17.61,6.93,22.16,14.86S75,101.9,75,116c0,10.09,1.52,10.36,1.52,31.15H26.19c0-20.79,1.52-21.06,1.52-31.15C27.7,101.9,9.72,75.27,14.27,67.34Z"/><path class="cls-14" d="M65,51.34c-4.38-2.24-3.64,1.19-12.25,3.15-5.68,1.3-12.79-2.8-13.87-5.6a27.2,27.2,0,0,0,.85-8.33H63S62.5,48,65,51.34Z"/><path class="cls-3" d="M51,80.73a49.78,49.78,0,0,1,.35-8,49.75,49.75,0,0,1,.35,8,57.16,57.16,0,0,1-.35,8A57.2,57.2,0,0,1,51,80.73Z"/><path class="cls-4" d="M26.57,116.08c0-14.09-16.74-40.71-12.19-48.64s18.26-12.7,22.16-14.86a4.85,4.85,0,0,0,1.9-2.2c9.13,6.36,15.94,6.43,26,0a4.85,4.85,0,0,0,1.9,2.2c3.9,2.17,17.61,6.93,22.16,14.86S76.33,102,76.33,116.08c0,8.19,2,34.83,2,34.83H24.64S26.57,124.4,26.57,116.08Z"/><rect class="cls-10" x="49.27" y="55.21" width="4.21" height="95.36" transform="translate(102.75 205.78) rotate(180)"/><polygon class="cls-15" points="38.5 48.3 35.49 52.78 46.81 61.54 51.37 55.21 38.5 48.3"/><polygon class="cls-15" points="64.13 48.47 67.41 52.78 56.09 61.54 51.37 55.21 64.13 48.47"/><circle class="cls-16" cx="51.37" cy="63.18" r="0.78"/><circle class="cls-16" cx="51.37" cy="73.15" r="0.78"/><path class="cls-8" d="M71,154.14c-9.85-8.31-11.95-26.81-10.69-56.63S72,53.11,72,53.11l14.22,5.35c8.81,4.73,13.32,13.23,12.14,26.74L80.08,100.87c-5.93,41,17.45,62.73-.64,80.76l1-13.13A30.6,30.6,0,0,0,71,154.14Z"/><path class="cls-8" d="M31.36,151.78c9.48-8.73,12.6-24.46,11.34-54.27S31,53.11,31,53.11L16.76,58.46C8,63.19,3.44,71.69,4.62,85.2L22.4,99.86c9,39.15-20.46,47.86-5,75.9C17.36,175.76,18.06,164,31.36,151.78Z"/><path class="cls-9" d="M28,149.29c9.48-8.73,12.6-24.46,11.34-54.27-.93-22,2.08-27.32,3.34,2.5s-1.86,45.54-11.34,54.27C18.06,164,19.07,157.54,28,149.29Z"/><path class="cls-8" d="M86.41,58.55c8.8,4.75,14.88,13.27,13.66,26.78,0,0,3.24,23.47,3,32.69s-5,34-5,34l-14.81-1.39-.16-35.43L79.42,97.73C75.68,83.37,70.2,57.13,86.41,58.55Z"/><path class="cls-8" d="M16.91,58.37C8.09,63.07,2,71.56,3.11,85.07c0,0-3,23.45-3.13,32.67-.18,9.05,2.08,31,5.53,35.67l14.34-2.78-2.51-32.48,6.35-20.57C27.51,83.24,33.13,57,16.91,58.37Z"/><path class="cls-11" d="M66.06,65.74Q69.75,65,73.38,64c5.1-1.41,10.17-3.18,15.41-4A24.47,24.47,0,0,1,98.91,73.12c-11.83.07-23.65.9-35.48,1.53A92.76,92.76,0,0,1,66.06,65.74Z"/><path class="cls-11" d="M9.2,64.34a123.56,123.56,0,0,0,28.63,4c.67,2.11,1.32,4.44,1.92,7a157,157,0,0,1-35-3.7A23.69,23.69,0,0,1,9.2,64.34Z"/><path class="cls-17" d="M3.11,85.07a32.71,32.71,0,0,1,.48-9.42c8.83,2.56,18.41,2,27.68,1.5q4.4-.23,8.8-.43c.62,2.79,1.17,5.83,1.61,9.11L2.8,87.3C3,85.9,3.11,85.07,3.11,85.07Z"/><path class="cls-17" d="M61.43,85.13c.47-3.31,1-6.37,1.68-9.16q11.57-.25,23.13-.25,4.41,0,8.83,0c1.32,0,3-.18,4.52-.07a32.55,32.55,0,0,1,.47,9.63s.1.76.27,2C87.59,84.9,74.49,84.77,61.43,85.13Z"/><path class="cls-17" d="M76.75,64.31c.27-.29,1.68.54,3.41,1.94,1.4-1.47,2.61-2.37,2.91-2.11s-.39,1.6-1.62,3.22l0,0c2.28,2.06,3.86,4,3.53,4.39s-2.42-1-4.67-3c-1.7,2-3.32,3.26-3.68,3s.7-2.16,2.39-4.18C77.46,65.94,76.49,64.61,76.75,64.31Z"/><path class="cls-17" d="M87,65c-.65-.88-.93-1.51-.76-1.68s.79.16,1.65.79c.47.34,1,.77,1.62,1.24,1-1.38,2-2.24,2.3-2s-.08,1.49-.95,3.06l.25.18c1.26.9,2.48,1.65,3.35,2.26s1.38,1.09,1.27,1.31-.8.15-1.83-.18A14.48,14.48,0,0,1,90.05,68l-.14-.11C88.68,69.77,87.43,71,87,70.78s.27-2,1.51-4A14.36,14.36,0,0,1,87,65Z"/><path class="cls-17" d="M23.67,70.14c-.84-1.12-1.28-2-1-2.23s1.17.3,2.29,1.28c1.08-.71,2-1,2.22-.75s-.21,1-1,1.88l.34.35c1.76,1.86,2.89,3.64,2.53,4s-2.07-.9-3.83-2.76l-.36-.39c-1.41,1.11-2.75,1.71-3,1.35S22.3,71.3,23.67,70.14Z"/><path class="cls-17" d="M16.2,70.41l1.19-.86c-.64-1.35-.76-2.49-.39-2.64s1,.55,1.73,1.61c.82-.65,1.45-1.15,1.78-1s.22.56,0,1.15A4.55,4.55,0,0,1,19.66,70c.89,1.47,1.48,2.72,1.13,3s-1.5-.49-2.52-1.93a4.35,4.35,0,0,1-1.63.54c-.65.06-1.07-.09-1.11-.33S15.77,70.74,16.2,70.41Z"/><path class="cls-17" d="M10.26,68.34c-.82-1.42-1-2.68-.66-2.87s1.25.71,2.17,2c1-.48,1.78-.64,2-.36s-.26.94-1.08,1.66c.75,1.2,1.21,2.18.91,2.46s-1.29-.3-2.27-1.44c-1.55,1-3,1.51-3.28,1.1S8.75,69.36,10.26,68.34Z"/><path class="cls-4" d="M65.93,85.16c0,.08.54.36,1.63.33a7.06,7.06,0,0,0,1.94-.35A10.71,10.71,0,0,0,71.85,84a19.72,19.72,0,0,0,2.47-1.88l1.11-1c.41.44.84.9,1.34,1.35a7.72,7.72,0,0,0,3.12,1.79,8.53,8.53,0,0,0,3.85.08,13.68,13.68,0,0,0,3.52-1.24c.52-.26,1-.53,1.49-.8l.29.31a12.54,12.54,0,0,0,5.89,3.28,11.59,11.59,0,0,0,2.56.34c.38,0,.73,0,1.06,0s.62-.07.88-.1c.52-.1.46-.6,0-.59l-.84,0c-.3,0-.64,0-1-.1a12.72,12.72,0,0,1-2.34-.53,12.28,12.28,0,0,1-5.17-3.22L90,81.62l.19-.12A22.49,22.49,0,0,1,95,79.07a9.6,9.6,0,0,1,3.54-.49c.85.06,1.33.19,1.38.08s-.37-.41-1.28-.67a8.21,8.21,0,0,0-3.92,0,13.65,13.65,0,0,0-2.56.87c-.88.39-1.78.87-2.7,1.39l-.42.23c-.44-.56-.9-1.16-1.42-1.76a10.19,10.19,0,0,0-1.58-1.51,6,6,0,0,0-2.13-1,6.3,6.3,0,0,0-2.35-.13,8.51,8.51,0,0,0-2.14.56A12.39,12.39,0,0,0,76,78.82l-.57.51a11.93,11.93,0,0,0-2-1.62,5.88,5.88,0,0,0-3.81-1.08,3.5,3.5,0,0,0-.62.14,3.37,3.37,0,0,0-.42.19c-.21.13-.31.22-.29.27s.52-.07,1.35,0a6,6,0,0,1,3.18,1.37,12.66,12.66,0,0,1,1.67,1.59l-1.07,1a22.07,22.07,0,0,1-2.22,1.92,11.47,11.47,0,0,1-2,1.21,8.3,8.3,0,0,1-1.7.55C66.52,85.1,65.94,85,65.93,85.16ZM76.44,80.3l.48-.4A11.55,11.55,0,0,1,80,78a5.24,5.24,0,0,1,6.53,1.69c.43.48.83,1,1.24,1.49a15.31,15.31,0,0,1-4.31,1.67,7.33,7.33,0,0,1-3.18,0,6.55,6.55,0,0,1-2.59-1.41C77.25,81.09,76.84,80.69,76.44,80.3Z"/><path class="cls-4" d="M35.9,76.78c0-.08-.55-.33-1.64-.27a7.05,7.05,0,0,0-1.93.42A10.7,10.7,0,0,0,30,78.14a19.73,19.73,0,0,0-2.39,2l-1.07,1c-.42-.43-.88-.87-1.4-1.3A7.72,7.72,0,0,0,22,78.18a8.53,8.53,0,0,0-3.85.07,13.68,13.68,0,0,0-3.47,1.37c-.51.28-1,.57-1.45.86l-.31-.3a12.54,12.54,0,0,0-6-3,11.59,11.59,0,0,0-2.57-.24c-.38,0-.38.81,0,.85a12.69,12.69,0,0,1,2.36.44,12.28,12.28,0,0,1,5.3,3l.07.07-.19.12A22.49,22.49,0,0,1,7.06,84,9.82,9.82,0,0,1,4,84.63c-.74,0-.74.62,0,.69A8.67,8.67,0,0,0,7.38,85a13.67,13.67,0,0,0,2.53-1c.87-.43,1.75-.94,2.65-1.49l.41-.25c.47.54.94,1.13,1.49,1.71a10.21,10.21,0,0,0,1.64,1.44,6,6,0,0,0,2.17.94,6.3,6.3,0,0,0,2.35,0,8.51,8.51,0,0,0,2.12-.65,12.39,12.39,0,0,0,3.33-2.3l.55-.53c3.06,3.86,9.46,2.57,10.4,2.39a3.49,3.49,0,0,0,.62-.16,3.32,3.32,0,0,0,.42-.2c.21-.14.3-.24.28-.28s-.52.09-1.35.05-5.92.92-9.48-2.69l1-1.07a22.07,22.07,0,0,1,2.14-2,11.48,11.48,0,0,1,2-1.29,8.29,8.29,0,0,1,1.68-.62C35.31,76.86,35.89,76.9,35.9,76.78ZM25.59,82l-.46.42a11.54,11.54,0,0,1-3,2,6,6,0,0,1-3.55.49,6,6,0,0,1-3-1.92c-.44-.46-.87-1-1.3-1.44a15.3,15.3,0,0,1,4.24-1.83,7.33,7.33,0,0,1,3.18-.1,6.55,6.55,0,0,1,2.64,1.3C24.74,81.29,25.17,81.67,25.59,82Z"/><path class="cls-9" d="M60.31,97.51C61.57,67.7,72,53.11,72,53.11l2.28.86C71.43,59.09,64.94,73,64,96.13c-1.26,29.81.84,48.32,10.69,56.63,5.76,4.86,2.1,6.25-3.66,1.38C61.15,145.83,59.05,127.33,60.31,97.51Z"/><path class="cls-12" d="M77.75,55.26c-3.2-3.65-6.85-4.34-10.46-4.82,0,0-9.09,39.3-7.21,53.82C63.62,83.78,75.43,76.38,77.75,55.26Z"/><path class="cls-12" d="M25.08,55.26c3.2-3.65,6.85-4.34,10.46-4.82,0,0,9.27,39.3,7.39,53.82C39.39,83.78,27.4,76.38,25.08,55.26Z"/><path class="cls-3" d="M38.21,25.07s-2.29-4-4.37-2.47c-3.53,2.61.12,14.81,4.52,12.86Z"/><path class="cls-14" d="M37.43,25.79s-1.59-2.55-3-1.59c-2.42,1.65,1,10.47,3.15,8.19Z"/><path class="cls-3" d="M65,25.07s2.29-4,4.37-2.47c3.53,2.61-.12,14.81-4.52,12.86Z"/><path class="cls-14" d="M65.73,25.79s1.59-2.55,3-1.59c2.42,1.65-1,10.47-3.15,8.19Z"/><path class="cls-3" d="M51.58,50.4c-5.28,0-14.31-5.48-14.79-12L35.15,16C34.65,9.34,40.54,3.67,48,3.67h7.2C62.61,3.67,68.5,9.34,68,16L66.37,38.45C65.89,44.92,56.86,50.4,51.58,50.4Z"/><path class="cls-18" d="M51.6,0c5.78,0,9.54,3.7,12.18,5.68C73.32,5.86,68,23.53,68,23.53l-1,6s1-17.93-3.58-20.36c-3.57-1.88-2.68.49-12.08.35S42.47,6.3,38.16,10c-3,2.54-2,19.68-2,19.68l-.84-5.85s-5.9-12.28.27-18.56C38.12,2.67,44.86,0,51.6,0Z"/><ellipse class="cls-14" cx="51.58" cy="43.6" rx="1.76" ry="0.18"/><path class="cls-19" d="M53.75,21l.07.66a.75.75,0,0,0,1,.66c3.94-1.46,7.61-2.46,9.37-.27a.27.27,0,0,0,.43,0h0a.31.31,0,0,0,0-.37l-1.2-1.59a2.45,2.45,0,0,0-2.33-1l-6.71,1.05A.76.76,0,0,0,53.75,21Z"/><path class="cls-19" d="M49.3,20.94l-.06.66a.74.74,0,0,1-1,.68C44.36,20.9,40.71,20,39,22.19a.27.27,0,0,1-.43,0h0a.32.32,0,0,1,0-.37l1.16-1.62a2.42,2.42,0,0,1,2.29-1l6.66.92A.76.76,0,0,1,49.3,20.94Z"/><path class="cls-20" d="M48.17,24.76c-2-2.62-4.82-3.06-7.2-.15C44.67,27.6,47,25.25,48.17,24.76Z"/><circle class="cls-21" cx="44.51" cy="24.23" r="1.75"/><circle cx="44.51" cy="24.23" r="0.98"/><circle class="cls-20" cx="45" cy="23.8" r="0.2"/><path class="cls-14" d="M48.17,24.76a3.69,3.69,0,0,0-3.67-2.42A3.78,3.78,0,0,0,41,24.61C43.53,22.52,46.26,22.79,48.17,24.76Z"/><path class="cls-20" d="M55,24.76c2-2.62,4.82-3.06,7.2-.15C58.49,27.6,56.19,25.25,55,24.76Z"/><circle class="cls-21" cx="58.65" cy="24.23" r="1.75"/><circle cx="58.65" cy="24.23" r="0.98"/><circle class="cls-20" cx="59.07" cy="23.8" r="0.2"/><path class="cls-14" d="M55,24.76a3.7,3.7,0,0,1,3.67-2.42,3.78,3.78,0,0,1,3.53,2.26C59.63,22.52,56.9,22.79,55,24.76Z"/><path class="cls-14" d="M55.63,32.35a1.39,1.39,0,0,0-.37-.6,1.51,1.51,0,0,0-.39-.28c-.11-.05-.18-.06-.2,0s.14.2.32.48a1.38,1.38,0,0,1,.22.51.83.83,0,0,1-.09.6.51.51,0,0,1-.47.25.94.94,0,0,1-.28-.11,2.84,2.84,0,0,0-.31-.15.84.84,0,0,0-.25-.05c.14-.2.17-.34.14-.36s-.26.2-.63.49a3.39,3.39,0,0,1-.72.42,2.63,2.63,0,0,1-1,.22,2.69,2.69,0,0,1-1-.19,3.58,3.58,0,0,1-.74-.4c-.39-.28-.6-.5-.66-.46s0,.12.11.29a.84.84,0,0,0-.22,0,2.83,2.83,0,0,0-.31.15.94.94,0,0,1-.28.11A.51.51,0,0,1,48,33a.84.84,0,0,1-.09-.6,1.39,1.39,0,0,1,.22-.51c.19-.28.37-.44.32-.48s-.09,0-.2,0a1.52,1.52,0,0,0-.39.28,1.39,1.39,0,0,0-.37.6,1,1,0,0,0,.1.86.94.94,0,0,0,.41.35.9.9,0,0,0,.57.06,1.18,1.18,0,0,0,.4-.19l.25-.17a.6.6,0,0,1,.23-.08l.16.17a2.87,2.87,0,0,0,.77.52,2.82,2.82,0,0,0,1.2.26,2.78,2.78,0,0,0,1.94-.84l.1-.11a.6.6,0,0,1,.26.08l.25.17a1.18,1.18,0,0,0,.4.19.9.9,0,0,0,.57-.06.94.94,0,0,0,.41-.35A1,1,0,0,0,55.63,32.35Z"/><path class="cls-22" d="M53.25,36c-.79.06-.93.62-1.67.62S50.69,36,49.9,36a7.49,7.49,0,0,0-4.66,1.15c1.34,2.05,1.12,4,6.33,4.23,5.21-.2,5-2.18,6.33-4.23A7.49,7.49,0,0,0,53.25,36Z"/><path class="cls-23" d="M57.52,37.19s-.11.14-.38.3a4.42,4.42,0,0,1-1.25.48,23.38,23.38,0,0,1-4.31.43,23.79,23.79,0,0,1-4.28-.5A4.41,4.41,0,0,1,46,37.49l-.18-.11-.12-.09c-.06-.05-.09-.09-.08-.1s.05,0,.13,0l.14.05.19.07a5.93,5.93,0,0,0,1.25.27,14.52,14.52,0,0,0,1.9.07c.72,0,1.51-.05,2.34-.05.42,0,.83,0,1.22,0l1.13.07c.36,0,.7,0,1,0a7.09,7.09,0,0,0,.88-.08A14.78,14.78,0,0,0,57.52,37.19Z"/><path class="cls-18" d="M55.59,33.71a14.18,14.18,0,0,1,2.86,1.75,3.88,3.88,0,0,0,3.16.74,2.68,2.68,0,0,1-2.05,1.25l.49.27a4,4,0,0,1-3.34-.16l.38.37a4.45,4.45,0,0,1-2.85-1.22l.32.51a5.18,5.18,0,0,1-2.28-.81c-.72-.55-1.23-1.86-.25-2.38A4.49,4.49,0,0,1,55.59,33.71Z"/><path class="cls-18" d="M48.08,33.71a14.18,14.18,0,0,0-2.86,1.75,3.88,3.88,0,0,1-3.16.74,2.68,2.68,0,0,0,2.05,1.25l-.49.27A4,4,0,0,0,47,37.56l-.38.37a4.45,4.45,0,0,0,2.85-1.22l-.32.51a5.18,5.18,0,0,0,2.28-.81c.72-.55,1.23-1.86.25-2.38A4.49,4.49,0,0,0,48.08,33.71Z"/></g></svg>