<svg xmlns="http://www.w3.org/2000/svg" xmlns:xlink="http://www.w3.org/1999/xlink" width="126" height="77" viewBox="0 0 126 77"><defs><style>.cls-1{fill:none;}.cls-2{fill:#fff;}.cls-3{clip-path:url(#clip-path);}.cls-4{fill:#93562a;}.cls-5{fill:#c56946;}.cls-6{fill:#1d3042;}.cls-7{fill:#152430;}.cls-8{fill:#702c3a;}.cls-9{fill:#725d54;}.cls-10{fill:#593b31;}.cls-11{fill:#cecccc;}.cls-12{fill:#7a645a;}.cls-13{fill:#847167;}.cls-14{fill:#826960;}.cls-15{clip-path:url(#clip-path-2);}.cls-16{fill:#edeceb;}.cls-17{fill:#eebe89;}.cls-18{fill:#212121;}.cls-19{fill:#30241e;}.cls-20{fill:#253749;}.cls-21{fill:#a0a5b5;}.cls-22{fill:#3f536b;}.cls-23{fill:#f5d00d;}.cls-24{fill:#915f3d;}.cls-25{fill:#dbae82;}.cls-26{fill:#d89e68;}.cls-27{fill:#dd7b45;}.cls-28{fill:#19130e;}.cls-29{clip-path:url(#clip-path-3);}.cls-30{fill:#82543d;}.cls-31{fill:#b28c79;}.cls-32{clip-path:url(#clip-path-4);}.cls-33{fill:#f95151;}.cls-34{fill:#331c18;}</style><clipPath id="clip-path"><circle class="cls-1" cx="-20" cy="-58" r="42.75"/></clipPath><clipPath id="clip-path-2"><circle class="cls-1" cx="92" cy="-58" r="42.75"/></clipPath><clipPath id="clip-path-3"><path id="SVGID" class="cls-2" d="M57.13,31.23s-.85-1.4-3.8-1.67-3.88.8-3.88.8.57.49,3.59.76A19.3,19.3,0,0,0,57.13,31.23Z"/></clipPath><clipPath id="clip-path-4"><path id="SVGID-2" data-name="SVGID" class="cls-2" d="M65.88,31.23s.85-1.4,3.8-1.67,3.88.8,3.88.8-.57.49-3.59.76A19.3,19.3,0,0,1,65.88,31.23Z"/></clipPath></defs><title>head-2</title><g id="Layer_1" data-name="Layer 1"><g class="cls-3"><path class="cls-4" d="M-56.23-24.09C-51.68-32-38-36.78-34.07-39s3.29-11.91,3.29-11.91H-7.54S-8.14-41.12-4.24-39,13.36-32,17.91-24.09,4.48,10.47,4.48,24.55C4.48,34.65,6,34.91,6,55.7H-44.31c0-20.79,1.52-21.06,1.52-31.15C-42.8,10.47-60.78-16.16-56.23-24.09Z"/><path class="cls-4" d="M-46,198.34c.43-5.65-6.83-37.41-2.77-56.35,0,0,1.54-9.08.86-16.46s-2.23-36.78.43-54.78l3.42-24.85h50L9.28,70.75c2.66,18,1.12,47.4.43,54.78s.86,16.46.86,16.46c4.06,18.94-3.2,50.7-2.77,56.35,0,8.78,7.93,16.91,7.93,20.07s-5.8,5.87-9.86,4.29-2.14-4.41-3.79-7.82-3.91-2.55-4.55-5.26,1.5-6,1.5-11.72c0-20.29-6.84-33.18-2.78-52.73-2-5.43-3.33-10.79-3-16-5-16.13-8.83-31.38-9.07-44.16h-6.59c-.24,12.78-4,28-9.07,44.16.33,5.23-.95,10.6-3,16,4.06,19.55-2.78,32.44-2.78,52.73,0,5.76,2.14,9,1.5,11.72s-2.9,1.85-4.55,5.26.27,6.24-3.79,7.82-9.58-1.66-9.58-4.82S-46,207.12-46,198.34Z"/><path class="cls-4" d="M-9.56,4.29A31.5,31.5,0,0,1-5,4.49c1.4.09,3.07.23,4.9.21a11.76,11.76,0,0,0,2.76-.26A4.5,4.5,0,0,0,5,3,9.73,9.73,0,0,0,6.54.54c.41-.89.76-1.8,1.07-2.66A38.19,38.19,0,0,0,8.94-6.81c.58-2.73.71-4.47.87-4.46s.32,1.77,0,4.61A29,29,0,0,1,8.7-1.76a28.86,28.86,0,0,1-1,2.8A10.32,10.32,0,0,1,5.92,3.87,5.91,5.91,0,0,1,4.56,5,5.6,5.6,0,0,1,3,5.63a11.79,11.79,0,0,1-3.06.2,41.09,41.09,0,0,1-5-.55A21.85,21.85,0,0,1-9.56,4.29Z"/><path class="cls-5" d="M-43.93,24.65c0-14.09-16.74-40.71-12.19-48.64S-37.86-36.69-34-38.86a4.85,4.85,0,0,0,1.9-2.2c9.13,6.36,15.94,6.43,26,0a4.85,4.85,0,0,0,1.9,2.2C-.24-36.69,13.47-31.93,18-24S5.83,10.56,5.83,24.65c0,8.19,2,34.83,2,34.83H-45.86S-43.93,33-43.93,24.65Z"/><path class="cls-6" d="M12,201.59H-4.43L-8.87,131.8-18,89.48h-2.82S-25,112.29-31,131.44c.29,4.73-2.66,70.15-2.66,70.15h-17s-1.19-48.49.57-73.74c.59-8.52-.4-39.58,2.19-57.16l1.59-11.52,54.18.3L9.78,70.69c2.6,17.58,1.82,49,2.13,57.51C12.29,138.74,12.8,167.64,12,201.59Z"/><path class="cls-7" d="M9.78,70.69C10.53,75.78,11,82,11.29,88.53L-.4,62.61l2.71-3.16,5.61,0Z"/><path class="cls-8" d="M8.2,58.78,8.94,65a477,477,0,0,1-56.08,0l1-6.26Q-19.36,59.5,8.2,58.78Z"/><path class="cls-9" d="M.5,62.71C-9.35,54.4-11.45,35.89-10.19,6.08S1.53-38.32,1.53-38.32L15.75-33c8.81,4.73,13.32,13.23,12.14,26.74L9.58,9.44C3.65,50.46,27,72.17,8.93,90.2l1-13.13A30.6,30.6,0,0,0,.5,62.71Z"/><path class="cls-1" d="M24.63,59.67c-.55,2.3-1.08,4.59-1.57,6.86l-1,13.89-5.77,7.27L9.27,90.86a1.62,1.62,0,0,1-1.33-3l5-2.86,2.3-5.25A.88.88,0,0,0,13.63,79l-1.57,3A1.67,1.67,0,0,1,9,80.7l3.26-9.57,4.89-6.31q-.34-2.63-.69-5.15H-54.78q-.35,2.52-.69,5.15l4.89,6.31,3.26,9.57A1.67,1.67,0,0,1-48,82.64a1.67,1.67,0,0,1-2.4-.62l-1.57-3a.88.88,0,0,0-1.51-.09.88.88,0,0,0-.07.87l2.3,5.25,5,2.86a1.62,1.62,0,0,1,.81,1.94,1.62,1.62,0,0,1-2.14,1l-7.07-3.17-5.77-7.27-1-13.89c-.49-2.26-1-4.55-1.57-6.86h-4.36V93H31.24V59.67Z"/><path class="cls-4" d="M12.26,71.13,9,80.7A1.67,1.67,0,0,0,12.06,82l1.57-3a.88.88,0,0,1,1.58.78L12.92,85l-5,2.86a1.62,1.62,0,0,0,1.33,3l7.07-3.17,5.77-7.27,1-13.89c.49-2.26,1-4.55,1.57-6.86H16.46q.35,2.52.69,5.15Z"/><path class="cls-9" d="M15.91-32.88C24.7-28.13,30.78-19.61,29.57-6.1c0,0,3.24,23.47,3,32.69s-5,34-5,34L12.73,59.2l-.16-35.43L8.92,6.3C5.18-8.06-.3-34.3,15.91-32.88Z"/><path class="cls-10" d="M-10.28,8.36c0-.75.06-1.51.09-2.28.16-3.89.49-7.51.92-10.87C3.84-5.28,17-5.23,30-3.13c.43,3.35,1.14,9.07,1.71,14.84C21.21,9.17,5.34,8.36-10.28,8.36Z"/><path class="cls-11" d="M29.81,6.36c-.77-1-1.7-2.23-2.75-3.57l1.79-1.64L30.33-.23,30.26-.8c-.51.38-1.13.86-1.85,1.44L26.54,2.13l-.05-.07L24.43-.55,21.76-3.91,16.25.9l-.62.55-4.11-5-.92-1.12L5.81-.15l-1,1L4.73.72-1-5-2.31-3.2-3.17-2-4.74.23l-.65.92C-6.28.07-7-.85-7.57-1.58A11.87,11.87,0,0,0-9-3.36,5.73,5.73,0,0,0-8-1.29c.51.84,1.23,1.9,2.13,3.13l-1.39,2a17.07,17.07,0,0,0-2,3.28,17.09,17.09,0,0,0,2.54-2.9l1.37-1.74,1,1.29L-3.1,5.41l.69.85L-2,6.7l.49.59.35.4.17.2s0,.06,0,0l0,0,.1-.09.79-.73.9-.82L2.71,4.52,4.78,2.59l5.37,5.47,1.49-1.32,3.84-3.42L20.16,8.9l1.71-1.49,1.2-1.06,2.21-2,1.07-1c1.09,1.28,2.07,2.43,2.91,3.38s1.61,1.83,2.16,2.42l-.09-.83C30.91,7.83,30.41,7.15,29.81,6.36ZM3.9,1.69l-2,1.94L0,5.39l-.87.85-.07.08s0,0,0,0l0,0,0,0,0-.05L-1.23,6l-.37-.42-.72-.82L-3.66,3.2-4.83,1.82-4,.77l3.11-4,0,.06,0,0h0l.06.07.62.64L1.14-1.16,3.83,1.61Zm10.75.63L10.76,5.74l-.51.45,0,0h0L5.72,1.71l1-.92,3.76-3.53v0Zm11.12.44-1.12.91L20.31,7.24l0,0-.1-.13-.52-.64L18.59,5.1,16.45,2.46l.66-.59,2.56-2.3L20.9-1.53l.6-.54.07-.07h0v0l0,0,4.1,4.87Z"/><path class="cls-12" d="M-10.19,6.08c1.26-29.81,11.72-44.4,11.72-44.4l2.28.86C.93-32.34-5.56-18.39-6.53,4.7-7.79,34.51-5.69,53,4.16,61.32c5.76,4.86,2.1,6.25-3.66,1.38C-9.35,54.4-11.45,35.89-10.19,6.08Z"/><path class="cls-13" d="M7.25-36.17C4-39.81.39-40.5-3.21-41c0,0-9.09,39.3-7.21,53.82C-6.88-7.65,4.93-15.05,7.25-36.17Z"/><polygon class="cls-14" points="12.62 59.18 27.59 60.46 25.09 70.57 13.21 69.43 12.62 59.18"/><ellipse class="cls-9" cx="14.86" cy="64.55" rx="0.45" ry="3.29" transform="translate(-4 1.05) rotate(-3.58)"/><path class="cls-9" d="M17.77,61.21c.25.06.05,1.57,0,3.41s-.05,3.36-.3,3.4-.69-1.49-.59-3.44S17.54,61.14,17.77,61.21Z"/><ellipse class="cls-9" cx="19.66" cy="64.9" rx="3.18" ry="0.45" transform="translate(-47.09 76.87) rotate(-83.31)"/><path class="cls-9" d="M23,61.61c.24,0,.27,1.63-.22,3.54s-1.27,3.31-1.49,3.21.17-1.6.63-3.43S22.77,61.58,23,61.61Z"/><path class="cls-9" d="M25.46,62.68c.24,0,.26,1.48-.24,3.17s-1.32,2.89-1.53,2.78.2-1.42.68-3S25.21,62.65,25.46,62.68Z"/></g><g class="cls-15"><path class="cls-16" d="M117.31,140.66c-.14-7.75-2-14-1.75-21.16s10.79-36.17,10.87-57.42c.11-28.22-15-29.94-16-45.44H76c-1,15.49-6.95,23.74-5.4,44.94l27.71,2.35h2.54s-.27,44.75-.27,51.3.26,19.17.26,19.17-.58,5.07-1.17,15.35a112.61,112.61,0,0,0,.4,13.48h14C115.86,155.74,117.44,147.83,117.31,140.66Z"/><path class="cls-17" d="M99,60.75s-25.75,63.1-27.6,67c-2.15,4.53-4.84,8-6,12.09-1.2,4.31-1.1,6.88-5.65,15.92-7,13.89-16.92,32.39-18.22,35.58s1.32,11.07.77,13.18-3.29,2.31-6.23,4.93c-3.63,3.24-13.47,2.47-14.54.26-.66-1.38,3.49-4.22,6.62-8.44,2.71-3.65,4.33-8.61,5.26-11,5.24-13.69,6.11-31.39,11.49-45.49,3.08-8.07,6.51-11.8,9.81-22s14.57-61.5,15.85-69.14Z"/><path d="M122.31,40.67a45.67,45.67,0,0,0-2.91-5.24C112,39.49,106.89,47.11,92.45,49c-8.37,1.08-15.44,1.44-21.93,0-.09,1.18-.15,2.41-.18,3.69l27,12.2,3.47-.9h0C104.58,50.28,116.05,42.65,122.31,40.67Z"/><path class="cls-17" d="M123.36-30.36c-3.61-5.21-15.88-3.76-19.82-6.68s-3.36-14.34-3.36-14.34h-14S86.79-40,82.84-37,66.63-35.57,63-30.36c-6,8.68,5.64,15.74,7.39,20.71C74.3.67,76,8.46,76,16.64h34.47c0-8.18,1.66-16,5.55-26.29C117.73-14.62,129.38-21.68,123.36-30.36Z"/><path d="M115.12-7.3l-21,.12-.89,0-.89,0-20.74.72A91,91,0,0,1,74.36,3a34.11,34.11,0,0,0,8.11.46c6.32-.29,6.61-1.94,10.73-1.94s4.4,1.65,10.73,1.94A34.11,34.11,0,0,0,112,3,93.15,93.15,0,0,1,115.12-7.3Z"/><path class="cls-18" d="M115.81-10.59c0-4.54-.52-9-2.1-11.4-4.94,6.31-11.61,11.13-19.63,14.8C97.77,5.06,114.59,6.8,115.81-10.59Z"/><path class="cls-18" d="M70.61-10.44c0-4.54.48-9.17,2.06-11.54,4.94,6.31,11.61,11.13,19.63,14.8C88.62,5.06,71.83,6.95,70.61-10.44Z"/><path class="cls-19" d="M118.93,105.33c3.23-12.4,7.66-29.39,7.72-43.25.06-16.64-5.09-24-9.64-30.58l-.55-.79c-4.77,5.75-16,9.79-29.06,9.79a56.57,56.57,0,0,1-15.62-2.1,80,80,0,0,0-1.69,16.78C67.83,67,57.67,113,54.55,122.64a77.79,77.79,0,0,1-5.7,13.2,79.37,79.37,0,0,0-4.11,8.82c-2.71,7.11-4.3,15.23-5.84,23.08-.74,3.77-1.5,7.68-2.38,11.38l-.05.21,10.15,2.41.08-.15,3-5.67C53,169.49,56.79,162.21,60,155.85c3.55-7.06,4.28-10.21,5-13.26.2-.86.41-1.75.67-2.7a33.28,33.28,0,0,1,3.42-7.3c.85-1.5,1.73-3,2.54-4.75C73.19,124.5,92,78.43,97.87,64.12l.4,0h2.31c0,3.43-.27,44.84-.27,51.08,0,6.48.26,19,.27,19.14s-.59,5.19-1.17,15.36c-.32,5.72.44,14.49,1.12,22.23.3,3.45.59,6.72.76,9.54v.21H110l0-.18c.61-3.66,1.68-7.93,2.81-12.45,2.27-9.06,4.84-19.34,4.68-28.42a84.56,84.56,0,0,0-.93-10,62.64,62.64,0,0,1-.83-11.16C115.88,117,117.23,111.87,118.93,105.33Z"/><path class="cls-17" d="M63.84-32C55.15-28.2,30.76-2.22,25.19,10.69A6.39,6.39,0,0,0,26,17.08L53.63,42.44l4.54,6.71a3.41,3.41,0,0,0,5.48.74c1.44-1.23,5.57-4.41,5.57-4.41l4.94,4.07a1.89,1.89,0,0,0,2.22.14l.7-.44.49.3a1.38,1.38,0,0,0,1.44,0h0a1.38,1.38,0,0,0,.5-1.82l0-.08h0a1.61,1.61,0,0,0,.26-2.49l-6.64-6.66a1.55,1.55,0,0,0-1.88-.25L69.92,39l3.33-2.79,5.14,2.46a1.37,1.37,0,0,0,1.69-.42h0a1.37,1.37,0,0,0-.39-2l-6-3a2.47,2.47,0,0,0-2.57.23l-9.17,6.83-24.09-28C50.23-1.81,63.36-9.23,71.36-13.85,71.36-13.85,73.42-36.22,63.84-32Z"/><path class="cls-17" d="M123.22-32.74C132-29.17,157.11-3.86,163,8.89a6.39,6.39,0,0,1-.6,6.41l-27,26.1-4.35,6.83a3.41,3.41,0,0,1-5.45.88c-1.47-1.19-5.69-4.25-5.69-4.25l-4.83,4.2a1.89,1.89,0,0,1-2.22.2l-.71-.42-.48.32a1.38,1.38,0,0,1-1.44,0h0a1.38,1.38,0,0,1-.55-1.8l0-.08h0a1.61,1.61,0,0,1-.33-2.48L115.91,38a1.55,1.55,0,0,1,1.87-.3l1.31.71-3.41-2.7-5.07,2.6a1.37,1.37,0,0,1-1.7-.37h0a1.37,1.37,0,0,1,.33-2l5.92-3.15a2.47,2.47,0,0,1,2.58.16l9.35,6.57L150.4,10.87C137.65-2.93,124.32-10,116.19-14.38,116.19-14.38,113.53-36.68,123.22-32.74Z"/><path d="M70.1-4.3l23.06-.21h1l1,0,22.75.46a99.84,99.84,0,0,0-2.91,10.44,37.41,37.41,0,0,1-8.88.63c-6.94-.21-7.28-2-11.79-2s-4.8,1.88-11.73,2.3A37.39,37.39,0,0,1,73.65,7,102.15,102.15,0,0,0,70.1-4.3Z"/><path class="cls-18" d="M69.28-7.89c0-5,.42-9.9,2.12-12.53,5.52,6.84,12.91,12,21.76,15.91C89.32,9,70.9,11.15,69.28-7.89Z"/><path class="cls-18" d="M118.85-8.44c-.12-5-.67-10-2.45-12.62-5.32,7-12.55,12.39-21.29,16.53C99.35,8.83,117.78,10.64,118.85-8.44Z"/><polygon class="cls-20" points="113.59 19.2 74.55 19.2 74.55 25.34 113.99 25.34 113.59 19.2"/><polygon class="cls-21" points="113.79 20.27 74.55 20.27 74.55 24.26 113.99 24.26 113.79 20.27"/><rect class="cls-22" x="106.5" y="18.84" width="1.69" height="6.5" transform="translate(214.69 44.18) rotate(180)"/><rect class="cls-22" x="82.46" y="18.84" width="1.69" height="6.5" transform="translate(166.61 44.18) rotate(180)"/><path class="cls-23" d="M92.05,22.27a3.06,3.06,0,1,1,3.06,3.06A3.07,3.07,0,0,1,92.05,22.27Zm1.07,0a2,2,0,1,0,2-2A2,2,0,0,0,93.12,22.27Z"/><path class="cls-16" d="M70.88-34.77c-8.12,0-19.77,11.17-19.77,11.17L65.17-9c7.42,10.13,1.62,27.6,9.38,28.24h39c5.77-4.19,4.93-15.7,8.19-29.58L132.25-28.3s-8.56-8.45-24.9-8.45Z"/><path class="cls-17" d="M60.82,39l1.12,1.31,9.17-6.83a2.47,2.47,0,0,1,2.57-.23l6,3a1.37,1.37,0,0,1,.39,2h0a1.37,1.37,0,0,1-1.69.42l-5.14-2.46L69.92,39l1.29-.74a1.55,1.55,0,0,1,1.88.25l6.64,6.66a1.61,1.61,0,0,1-.26,2.49l0,.08a1.38,1.38,0,0,1-1.94,1.81l-.49-.3-.7.44a1.89,1.89,0,0,1-2.22-.14L69.2,45.48s-4.13,3.17-5.57,4.41a3.41,3.41,0,0,1-5.48-.74l-2.54-3.76A76.36,76.36,0,0,0,60.82,39Z"/><path class="cls-17" d="M110.61,38.32a1.37,1.37,0,0,1-1.37-2.37l5.92-3.15a2.47,2.47,0,0,1,2.58.16l9.35,6.57,1.32-1.62A24.81,24.81,0,0,0,134,43.67l-2.91,4.57a3.41,3.41,0,0,1-5.45.88c-1.47-1.19-5.69-4.25-5.69-4.25l-4.83,4.21a1.89,1.89,0,0,1-2.22.2l-.71-.42-.48.32a1.38,1.38,0,0,1-2-1.76l0-.08a1.61,1.61,0,0,1-.33-2.48L115.91,38a1.55,1.55,0,0,1,1.87-.3l1.31.71-3.41-2.7Z"/><path class="cls-2" d="M81.28-26.35V11.94h25.45V-26.35Zm25,.44v.72h-1c-3.34,0-7.95.18-13,.55-3.95.29-7.59.67-10.57,1v-2.32ZM81.72,7.79V5.11l.63,0C84.11,5,86.21,5,88.53,4.94s4.89-.08,7.57-.08,5.24,0,7.57.06l2.62.05V6.92c-1.16,0-2.41-.07-3.75-.09-2.26,0-4.74,0-7.35.06s-5.08.21-7.34.36-4.28.34-6,.53Zm.22.65c1.7-.1,3.72-.22,6-.33s4.72-.21,7.31-.28,5.07-.11,7.32-.13l3.75,0V10l-1.8-.12c-2.46-.15-5.18-.27-8-.33s-5.57,0-8,0-4.69.16-6.55.29h-.16V8.45Zm-.22-4V1.19l1.87,0c1.8,0,3.95-.05,6.33-.07s5,0,7.75,0,5.36.12,7.74.2l.88,0V4.16L103.7,4c-2.33-.08-4.9-.14-7.6-.14s-5.26.07-7.6.16-4.43.22-6.19.36Zm0-3.85V-.71c2.35-.17,4.87-.34,7.5-.47,3.19-.16,6.23-.26,9-.32,1.38,0,2.7-.05,3.93-.06l3.43,0h.71V.52l-.84-.05c-2.39-.13-5-.23-7.77-.28s-5.39,0-7.77,0S85.37.38,83.56.5Zm0-2.23v-2.2c2.65,0,5.6,0,8.71,0,6.34-.05,12-.16,15.86-.29v1.9l-.7,0c-1,0-2.2-.08-3.44-.09s-2.56,0-3.94,0c-2.78,0-5.83.09-9,.25C86.56-2,84.06-1.81,81.72-1.6Zm0-3.06v-3c2.24-.13,4.62-.2,7.1-.21,3.33,0,6.5.1,9.38.23,1.44.07,2.81.13,4.1.21l3.57.21.43,0v2.48c-3.84-.07-9.52-.09-15.87,0C87.32-4.75,84.37-4.71,81.72-4.67Zm0-3.93v-.85c2.57-.19,5.35-.36,8.26-.49,3.3-.14,6.45-.21,9.31-.25,1.43,0,2.79,0,4.06,0l2.94,0v2.3l-.38,0c-1.09-.11-2.28-.22-3.57-.32s-2.66-.2-4.1-.3c-2.89-.17-6.08-.31-9.43-.3C86.32-8.83,84-8.74,81.72-8.59Zm0-1.74v-2.42C84-12.86,86.4-13,88.91-13c3.27-.08,6.38-.1,9.21-.1,1.42,0,2.76,0,4,0s2.43,0,3.5.07l.64,0v2.13c-.91,0-1.89-.09-2.93-.11-1.28,0-2.64-.06-4.08-.07-2.87,0-6,0-9.35.18C87-10.75,84.28-10.55,81.72-10.33Zm0-3.32v-1l.65-.07c1-.12,2.06-.23,3.17-.35,2.24-.23,4.7-.45,7.28-.63s5.05-.3,7.3-.39c1.12,0,2.19-.08,3.19-.1l2.78-.06h.19v2.61l-.61,0c-1.07-.07-2.25-.14-3.51-.18s-2.61-.09-4-.13c-2.84-.05-6-.06-9.25,0C86.39-13.9,84-13.79,81.72-13.65Zm0-1.76v-2.06l5-.44c2.22-.17,4.66-.35,7.23-.5s5-.26,7.24-.34l5.07-.15v2h-.19c-.85,0-1.79-.05-2.79-.06s-2.08,0-3.21,0c-2.26,0-4.74.14-7.34.32s-5.07.44-7.32.71c-1.12.15-2.18.28-3.18.44Zm0-2.78v-2.59l4.51-.29c2.2-.13,4.62-.25,7.16-.35s5-.15,7.17-.19,4.09,0,5.73,0v2c-1.5,0-3.22,0-5.09,0-2.24,0-4.69.12-7.27.27s-5,.36-7.25.58C84.85-18.59,83.18-18.39,81.72-18.19Zm0-3.33v-1.31c3-.26,6.67-.58,10.64-.87,5.07-.37,9.66-.63,13-.82l.95-.06v2.24c-1.64-.08-3.58-.13-5.73-.15s-4.65,0-7.2.11-5,.25-7.19.43C84.55-21.81,83.06-21.67,81.72-21.52Zm0,33v-1h.19c1.86,0,4.08-.07,6.54-.08s5.17,0,8,.05,5.54.15,8,.25l1.84.09v.71Z"/><path class="cls-16" d="M23.38,11.94C28.94-1,53.73-25.91,53.73-25.91,65.17-19.14,74.13-9.6,69.64,7.44c-6.33-11.56-28,7.36-28,7.36l3,5.47-8.64,6.06-10.52-7.7C23.12,16.57,22.46,14.05,23.38,11.94Z"/><path class="cls-16" d="M164.41,8.69c-7-12.19-27-35.32-35.61-39.59S112.6-10.72,119,5.69c8.86-13.38,26.43,7.11,26.43,7.11l-2.34,6,9.68,7.08L163,15.6C165.2,13.26,165.56,10.69,164.41,8.69Z"/></g><circle cx="52.31" cy="39.36" r="11.53" transform="matrix(0.97, -0.26, 0.26, 0.97, -8.42, 14.92)"/><path class="cls-17" d="M91.53,64.06c-3.61-5.21-15.88-3.76-19.82-6.68S68.35,43,68.35,43h-14S55,54.45,51,57.37,34.8,58.85,31.19,64.06c-6,8.68,5.64,15.74,7.39,20.71,3.89,10.32,5.55,18.11,5.55,26.29H78.59c0-8.18,1.66-16,5.55-26.29C85.89,79.8,97.54,72.73,91.53,64.06Z"/><path class="cls-24" d="M58.87,50.74c4.21.85,7.86-.16,9.63-2.21a43.31,43.31,0,0,1-.14-5.5h-14a39.26,39.26,0,0,1-.73,9.31A4.79,4.79,0,0,1,58.87,50.74Z"/><path d="M82.25,59.94,81,77.55l1.35.09,1.22-17.45Z"/><path d="M40.35,77.64l1.35-.09-1.23-17.6-1.33.24Z"/><path class="cls-18" d="M84,83.83c0-4.54-.52-9-2.1-11.4-4.94,6.31-11.61,11.13-19.63,14.8C65.93,99.48,82.76,101.22,84,83.83Z"/><path class="cls-18" d="M38.77,84c0-4.54.48-9.17,2.06-11.54,4.94,6.31,11.61,11.13,19.63,14.8C56.79,99.48,40,101.36,38.77,84Z"/><path class="cls-17" d="M71.71,57.37C67.77,54.45,68.35,43,68.35,43h-14S55,54.45,51,57.37C50.63,65.29,69.19,66.35,71.71,57.37Z"/><path class="cls-25" d="M58.87,50.74c4.21.85,7.86-.16,9.63-2.21a43.31,43.31,0,0,1-.14-5.5h-14a39.26,39.26,0,0,1-.73,9.31A4.79,4.79,0,0,1,58.87,50.74Z"/><path class="cls-25" d="M46.93,25.54s-2-3-3.61-1.7c-2.67,2.24.91,11.6,4.31,9.83Z"/><path class="cls-26" d="M46.35,26.14s-1.41-1.91-2.48-1.08c-1.83,1.42,1.38,8.15,3,6.25Z"/><path class="cls-25" d="M76.26,25.54s2-3,3.61-1.7c2.67,2.24-.91,11.6-4.31,9.83Z"/><path class="cls-24" d="M76.84,26.14s1.41-1.91,2.48-1.08c1.83,1.42-1.38,8.15-3,6.25Z"/><circle class="cls-2" cx="77.33" cy="32.48" r="0.39"/><circle class="cls-2" cx="45.85" cy="32.48" r="0.39"/><path class="cls-17" d="M45.2,27.82C46.87,41.11,55.87,50,61.57,50s14.69-8.84,16.38-22.13C79.7,14,77,3.56,61.57,3.56S43.46,14,45.2,27.82Z"/><path class="cls-27" d="M59.14,36.14a1.91,1.91,0,0,0-.22.68.6.6,0,0,0,.13.4l.08.07.1,0c.33.07.73-.23,1.09-.23s1,.24,1.5.2c.35,0,.67-.2,1-.2s.72.26,1.1.2a.36.36,0,0,0,.2-.1.41.41,0,0,0,.1-.18.61.61,0,0,0,0-.21,1.8,1.8,0,0,0-.24-.67,1.52,1.52,0,0,1,.39.64.67.67,0,0,1-.11.57.64.64,0,0,1-.3.2c-.4.13-.76-.1-1.15-.08s-.63.19-1,.23a3.46,3.46,0,0,1-1.15-.15,2.77,2.77,0,0,0-1.23.07.73.73,0,0,1-.38,0,.57.57,0,0,1-.28-.23.75.75,0,0,1-.09-.57A1.59,1.59,0,0,1,59.14,36.14Z"/><path class="cls-28" d="M47.28,25.81s.05,0,.1-.06l.09-.09.13-.12a4,4,0,0,1,.85-.64,4.21,4.21,0,0,1,1.38-.47,5.3,5.3,0,0,1,1.68,0,17.75,17.75,0,0,1,3.22,1c.46.17.87.31,1.18.41l.61.17a1.48,1.48,0,0,0,.8,0c.21-.07.34-.21.36-.36a.53.53,0,0,0-.27-.43,1.89,1.89,0,0,0-.68-.29l-.56-.13c-.3-.08-.69-.19-1.16-.33s-1-.31-1.58-.46a10.33,10.33,0,0,0-1.84-.33,5.53,5.53,0,0,0-1.86.15,4.28,4.28,0,0,0-1.47.72,3.22,3.22,0,0,0-.8.86l-.1.17-.06.13C47.28,25.76,47.27,25.8,47.28,25.81Z"/><path class="cls-28" d="M75.77,25.81s-.05,0-.1-.06l-.09-.09-.13-.12a4,4,0,0,0-.85-.64,4.21,4.21,0,0,0-1.38-.47,5.3,5.3,0,0,0-1.68,0,17.75,17.75,0,0,0-3.22,1c-.46.17-.87.31-1.18.41l-.61.17a1.48,1.48,0,0,1-.8,0c-.21-.07-.34-.21-.36-.36a.53.53,0,0,1,.27-.43,1.89,1.89,0,0,1,.68-.29l.56-.13c.3-.08.69-.19,1.16-.33s1-.31,1.58-.46a10.33,10.33,0,0,1,1.84-.33,5.53,5.53,0,0,1,1.86.15,4.28,4.28,0,0,1,1.47.72,3.22,3.22,0,0,1,.8.86l.1.17.06.13C75.78,25.76,75.78,25.8,75.77,25.81Z"/><path id="SVGID-3" data-name="SVGID" class="cls-2" d="M57.13,31.23s-.85-1.4-3.8-1.67-3.88.8-3.88.8.57.49,3.59.76A19.3,19.3,0,0,0,57.13,31.23Z"/><g class="cls-29"><circle class="cls-30" cx="53.22" cy="30.53" r="2.02" transform="translate(17.97 80.75) rotate(-84.77)"/><circle cx="53.22" cy="30.53" r="1.13" transform="translate(17.97 80.74) rotate(-84.77)"/><circle class="cls-2" cx="52.78" cy="29.99" r="0.23" transform="translate(18.12 79.83) rotate(-84.78)"/></g><path class="cls-31" d="M57.13,31.23s-.36-2.1-3.84-2.42-3.84,1.55-3.84,1.55A7,7,0,0,1,57.13,31.23Z"/><path d="M49.45,30.36a2.89,2.89,0,0,1-.95-1.28c1.42.45,3.06-.23,4.92.09a7.7,7.7,0,0,1,3.71,2.06,8.51,8.51,0,0,0-3.76-1.6A7.17,7.17,0,0,0,49.45,30.36Z"/><path id="SVGID-4" data-name="SVGID" class="cls-2" d="M65.88,31.23s.85-1.4,3.8-1.67,3.88.8,3.88.8-.57.49-3.59.76A19.3,19.3,0,0,1,65.88,31.23Z"/><g class="cls-32"><circle class="cls-30" cx="69.78" cy="30.53" r="2.02" transform="translate(-2.49 6.49) rotate(-5.23)"/><circle cx="69.78" cy="30.53" r="1.13" transform="translate(-2.49 6.49) rotate(-5.23)"/><circle class="cls-2" cx="70.23" cy="29.99" r="0.23" transform="translate(-2.44 6.51) rotate(-5.22)"/></g><path class="cls-31" d="M65.88,31.23s.36-2.1,3.84-2.42,3.84,1.55,3.84,1.55A7,7,0,0,0,65.88,31.23Z"/><path d="M73.56,30.36a2.89,2.89,0,0,0,.95-1.28c-1.42.45-3.06-.23-4.92.09a7.7,7.7,0,0,0-3.71,2.06,8.51,8.51,0,0,1,3.76-1.6A7.17,7.17,0,0,1,73.56,30.36Z"/><path class="cls-33" d="M68.47,40.17c-2,.54-4.77-.8-6.95-.8s-5,1.29-6.95.8c1.86,1.62,3.36,5.25,6.95,5.27S66.37,42.24,68.47,40.17Z"/><path class="cls-2" d="M66.76,40.8c-1.52.4-3.6.12-5.24.12a24.82,24.82,0,0,1-5.24-.12,11.38,11.38,0,0,0,5.24,1.6A11.09,11.09,0,0,0,66.76,40.8Z"/><path class="cls-17" d="M32,62.4C23.32,66.21-1.08,92.19-6.64,105.11a6.39,6.39,0,0,0,.78,6.39l27.66,25.36,4.54,6.71a3.41,3.41,0,0,0,5.48.74c1.44-1.23,5.57-4.41,5.57-4.41L42.31,144a1.89,1.89,0,0,0,2.22.14l.7-.44.49.3a1.38,1.38,0,0,0,1.44,0h0a1.38,1.38,0,0,0,.5-1.82l0-.08h0a1.61,1.61,0,0,0,.26-2.49l-6.64-6.66a1.55,1.55,0,0,0-1.88-.25l-1.29.74,3.33-2.79,5.14,2.46a1.37,1.37,0,0,0,1.69-.42h0a1.37,1.37,0,0,0-.39-2l-6-3a2.47,2.47,0,0,0-2.57.23l-9.17,6.83L6,106.74C18.4,92.6,31.53,85.18,39.53,80.57,39.53,80.57,41.59,58.2,32,62.4Z"/><path class="cls-17" d="M91.38,61.67c8.79,3.58,33.89,28.88,39.8,41.64a6.39,6.39,0,0,1-.6,6.41l-27,26.1-4.35,6.83a3.41,3.41,0,0,1-5.45.88c-1.47-1.19-5.69-4.25-5.69-4.25l-4.83,4.2a1.89,1.89,0,0,1-2.22.2l-.71-.42-.48.32a1.38,1.38,0,0,1-1.44,0h0a1.38,1.38,0,0,1-.55-1.8l0-.08h0a1.61,1.61,0,0,1-.33-2.48l6.45-6.84a1.55,1.55,0,0,1,1.87-.3l1.31.71-3.41-2.7-5.07,2.6a1.37,1.37,0,0,1-1.7-.37h0a1.37,1.37,0,0,1,.33-2l5.92-3.15a2.47,2.47,0,0,1,2.58.16l9.35,6.57,23.31-28.66C105.81,91.49,92.49,84.43,84.36,80,84.36,80,81.69,57.73,91.38,61.67Z"/><path d="M39,60.31l1.63,19.28-1.47.12L37.5,60.6Z"/><path d="M85.18,79,83.71,79l1.07-19.32,1.47.25Z"/><path class="cls-18" d="M37.45,86.53c0-5,.42-9.9,2.12-12.53,5.52,6.84,12.91,12,21.76,15.91C57.48,103.4,39.06,105.57,37.45,86.53Z"/><path class="cls-18" d="M87,86c-.12-5-.67-10-2.45-12.62-5.32,7-12.55,12.39-21.29,16.53C67.51,103.25,85.95,105.05,87,86Z"/><path class="cls-16" d="M39,59.65c-8.12,0-19.77,11.17-19.77,11.17L33.33,85.38C40.76,95.5,35,113,42.71,113.61h39c5.77-4.19,4.93-15.7,8.19-29.58l10.46-17.92s-8.56-8.45-24.9-8.45Z"/><path class="cls-2" d="M49.44,68.06v38.29H74.9V68.06Zm25,.44v.72h-1c-3.34,0-7.95.18-13,.55-3.95.29-7.59.67-10.57,1V68.5ZM49.88,102.21V99.53l.63,0c1.76-.05,3.86-.11,6.18-.16s4.89-.08,7.57-.08,5.24,0,7.57.06l2.62.05v1.95c-1.16,0-2.41-.07-3.75-.09-2.26,0-4.74,0-7.35.06s-5.08.21-7.34.36-4.28.34-6,.53Zm.22.65c1.7-.1,3.72-.22,6-.33s4.72-.21,7.31-.28,5.07-.11,7.32-.13l3.75,0v2.28l-1.8-.12c-2.46-.15-5.18-.27-8-.33s-5.57,0-8,0-4.69.16-6.55.29h-.16v-1.37Zm-.22-4V95.61l1.87,0c1.8,0,3.95-.05,6.33-.07s5,0,7.75,0,5.36.12,7.74.2l.88,0v2.79l-2.59-.12c-2.33-.08-4.9-.14-7.6-.14s-5.26.07-7.6.16-4.43.22-6.19.36Zm0-3.85V93.71c2.35-.17,4.87-.34,7.5-.47,3.19-.16,6.23-.26,9-.32,1.38,0,2.7-.05,3.93-.06l3.43,0h.71v2.11l-.84-.05c-2.39-.13-5-.23-7.77-.28s-5.39,0-7.77,0-4.54.15-6.34.27Zm0-2.23v-2.2c2.65,0,5.6,0,8.71,0,6.34-.05,12-.16,15.86-.29v1.9l-.7,0c-1,0-2.2-.08-3.44-.09s-2.56,0-3.94,0c-2.78,0-5.83.09-9,.25C54.73,92.43,52.22,92.61,49.88,92.81Zm0-3.06v-3c2.24-.13,4.62-.2,7.1-.21,3.33,0,6.5.1,9.38.23,1.44.07,2.81.13,4.1.21l3.57.21.43,0v2.48c-3.84-.07-9.52-.09-15.87,0C55.48,89.66,52.54,89.7,49.88,89.75Zm0-3.93V85c2.57-.19,5.35-.36,8.26-.49,3.3-.14,6.45-.21,9.31-.25,1.43,0,2.79,0,4.06,0l2.94,0v2.3l-.38,0c-1.09-.11-2.28-.22-3.57-.32s-2.66-.2-4.1-.3c-2.89-.17-6.08-.31-9.43-.3C54.49,85.58,52.13,85.67,49.88,85.83Zm0-1.74V81.66c2.27-.11,4.68-.21,7.2-.27,3.27-.08,6.38-.1,9.21-.1,1.42,0,2.76,0,4,0s2.43,0,3.5.07l.64,0v2.13c-.91,0-1.89-.09-2.93-.11-1.28,0-2.64-.06-4.08-.07-2.87,0-6,0-9.35.18C55.21,83.67,52.44,83.86,49.88,84.08Zm0-3.32v-1l.65-.07c1-.12,2.06-.23,3.17-.35,2.24-.23,4.7-.45,7.28-.63s5.05-.3,7.3-.39c1.12,0,2.19-.08,3.19-.1l2.78-.06h.19v2.61l-.61,0c-1.07-.07-2.25-.14-3.51-.18s-2.61-.09-4-.13c-2.84-.05-6-.06-9.25,0C54.55,80.51,52.15,80.63,49.88,80.76Zm0-1.76V76.94l5-.44c2.22-.17,4.66-.35,7.23-.5s5-.26,7.24-.34l5.07-.15v2h-.19c-.85,0-1.79-.05-2.79-.06s-2.08,0-3.21,0c-2.26,0-4.74.14-7.34.32s-5.07.44-7.32.71c-1.12.15-2.18.28-3.18.44Zm0-2.78V73.63l4.51-.29c2.2-.13,4.62-.25,7.16-.35s5-.15,7.17-.19,4.09,0,5.73,0v2c-1.5,0-3.22,0-5.09,0-2.24,0-4.69.12-7.27.27s-5,.36-7.25.58C53,75.83,51.35,76,49.88,76.23Zm0-3.33V71.59c3-.26,6.67-.58,10.64-.87,5.07-.37,9.66-.63,13-.82l.95-.06v2.24c-1.64-.08-3.58-.13-5.73-.15s-4.65,0-7.2.11-5,.25-7.19.43C52.72,72.6,51.22,72.75,49.88,72.9Zm0,33v-1h.19c1.86,0,4.08-.07,6.54-.08s5.17,0,8,.05,5.54.15,8,.25l1.84.09v.71Z"/><path class="cls-16" d="M-8.46,106.35C-2.89,93.44,21.9,68.5,21.9,68.5c11.44,6.77,20.4,16.31,15.91,33.35-6.33-11.56-28,7.36-28,7.36l3,5.47-8.64,6.06-10.52-7.7C-8.72,111-9.37,108.47-8.46,106.35Z"/><path class="cls-16" d="M132.58,103.11c-7-12.19-27-35.32-35.61-39.59S80.76,83.7,87.19,100.11c8.86-13.38,26.43,7.11,26.43,7.11l-2.34,6,9.68,7.08L131.2,110C133.37,107.68,133.73,105.11,132.58,103.11Z"/><path class="cls-34" d="M58.78,3.36v0C76.1,0,79.57,16.19,80.92,18.21c6.42,9.57-.09,9.58-1.43,17a14,14,0,0,1-2.58-5.7C75,21.63,58.77,21.72,51.84,11.48a7.56,7.56,0,0,0-4.3,5.94c-.17,2.34.95,4.79-.1,7-1,2-3.34,3.85-3.66,5.64s.66,3.6,1.66,5c-3.92,0-5.68-4.24-3.93-9.75C42.87,21,40.89,2.8,58.78,3.36Z"/></g></svg>