<svg xmlns="http://www.w3.org/2000/svg" width="45" height="45" viewBox="0 0 45 45"><defs><style>.cls-1{fill:#3addbe;}</style></defs><title>ie</title><g id="Layer_1" data-name="Layer 1"><path class="cls-1" d="M35.32,3a6.18,6.18,0,0,1,4.34,1.28q3.15,3.23.58,10.1a18.13,18.13,0,0,1,2.41,9.11q0,1.16-.08,2.07H16.78v.08a8.35,8.35,0,0,0,.91,3.81,8.11,8.11,0,0,0,2.94,3,8.26,8.26,0,0,0,8.29,0,8.14,8.14,0,0,0,2.94-3h9.87a18.2,18.2,0,0,1-6.63,8.81,17.63,17.63,0,0,1-10.61,3.43,18.63,18.63,0,0,1-8.29-1.9A18.61,18.61,0,0,1,8.4,42a6.39,6.39,0,0,1-4.72-1.81Q2.35,39,2.35,36.06A21.7,21.7,0,0,1,3.47,29.6,35.86,35.86,0,0,1,7.2,21.78,39.81,39.81,0,0,1,13.38,14Q15.45,11.89,16,11.4a26.83,26.83,0,0,0-9.29,7.69,17.75,17.75,0,0,1,6.43-9.93A17.78,17.78,0,0,1,24.49,5.27a10.88,10.88,0,0,1,1.33.08A25.1,25.1,0,0,1,34.27,3q.55,0,1,0m4.34,10.55q1.91-5.13-.17-7.2a4,4,0,0,0-3-1.1A14.23,14.23,0,0,0,31.21,6.6a18,18,0,0,1,8.46,7m-22.89,7.2H32.12a7.34,7.34,0,0,0-2.4-5.09,7.62,7.62,0,0,0-10.53,0,7.33,7.33,0,0,0-2.41,5.09m-7.54,20A14.78,14.78,0,0,0,15,39.12a18.15,18.15,0,0,1-7.8-9.52q-3.73,7.28-1,10a4.06,4.06,0,0,0,3,1.09m32.5-11.27h0M35.32,1.21c-.37,0-.76,0-1.16,0a26.51,26.51,0,0,0-8.63,2.28c-.35,0-.7,0-1,0A20,20,0,0,0,5,18.66a1.79,1.79,0,0,0,.81,2l-.14.22a37.78,37.78,0,0,0-3.91,8.22,23.56,23.56,0,0,0-1.2,7c0,2.43.63,4.25,1.87,5.43a8.15,8.15,0,0,0,6,2.31,19.11,19.11,0,0,0,7.81-2,20.5,20.5,0,0,0,8.28,1.72A19.46,19.46,0,0,0,36.16,39.7a20,20,0,0,0,7.24-9.57,1.79,1.79,0,0,0-1.65-2.48H31.87a1.79,1.79,0,0,0-1.56.91A6.32,6.32,0,0,1,28,30.92a6.46,6.46,0,0,1-6.45,0,6.28,6.28,0,0,1-2.28-2.33,6.79,6.79,0,0,1-.48-1.25H42.57a1.79,1.79,0,0,0,1.79-1.63c.06-.66.09-1.41.09-2.23a20,20,0,0,0-2.24-9.26C43.85,9.34,43.43,5.57,40.95,3L40.89,3a7.88,7.88,0,0,0-5.57-1.77Zm.54,5.87a6,6,0,0,1,.66,0,2.11,2.11,0,0,1,1.7.55,2.58,2.58,0,0,1,.56,2,19.47,19.47,0,0,0-2.92-2.48ZM19,19a5.86,5.86,0,0,1,1.42-2,5.83,5.83,0,0,1,8.07,0,5.86,5.86,0,0,1,1.42,2Zm-9.75,20a2.2,2.2,0,0,1-1.73-.56c-.78-.78-.83-2.3-.17-4.4a19.6,19.6,0,0,0,3.95,4.66,8.08,8.08,0,0,1-2,.31Z"/></g></svg>