<svg xmlns="http://www.w3.org/2000/svg" xmlns:xlink="http://www.w3.org/1999/xlink" width="460.82" height="1008.2" viewBox="0 0 460.82 1008.2"><defs><style>.cls-1{fill:#fff;}.cls-2{opacity:0.1;}.cls-3{fill:#edeceb;}.cls-4{fill:#eebe89;}.cls-5{fill:#915f3d;}.cls-6{fill:#212121;}.cls-7{fill:#fc6a3d;}.cls-8{fill:#f2eae7;}.cls-9{fill:#3f3f3f;}.cls-10{fill:#702c3f;}.cls-11{fill:#441322;}.cls-12{fill:#30241e;}.cls-13{fill:#dbae82;}.cls-14{fill:#d89e68;}.cls-15{fill:#dd7b45;}.cls-16{fill:#19130e;}.cls-17{clip-path:url(#clip-path);}.cls-18{fill:#82543d;}.cls-19{fill:#b28c79;}.cls-20{clip-path:url(#clip-path-2);}.cls-21{fill:#f95151;}.cls-22{fill:#f2a470;}.cls-23{fill:#253749;}.cls-24{fill:#a0a5b5;}.cls-25{fill:#3f536b;}.cls-26{fill:#f5d00d;}.cls-27{fill:#331c18;}</style><clipPath id="clip-path"><path id="SVGID" class="cls-1" d="M253.77,225.69s-2.32-3.8-10.34-4.53-10.56,2.17-10.56,2.17,1.55,1.32,9.78,2.08S253.77,225.69,253.77,225.69Z"/></clipPath><clipPath id="clip-path-2"><path id="SVGID-2" data-name="SVGID" class="cls-1" d="M277.57,225.69s2.32-3.8,10.34-4.53,10.56,2.17,10.56,2.17-1.55,1.32-9.78,2.08S277.57,225.69,277.57,225.69Z"/></clipPath></defs><title>image-2</title><g id="Layer_1" data-name="Layer 1"><ellipse class="cls-2" cx="202.9" cy="951" rx="202.9" ry="57.21"/><circle cx="240.66" cy="247.84" r="31.38" transform="translate(-56.06 70.92) rotate(-15.04)"/><path class="cls-3" d="M330.9,780.42c-.38-21.09-5.56-38.11-4.77-57.57s29.36-98.42,29.58-156.27c.29-76.8-40.76-81.48-43.54-123.65H218.38c-2.78,42.17-18.9,64.61-14.69,122.3l75.42,6.38H286s-.73,121.77-.73,139.61.72,52.16.72,52.16-1.59,13.78-3.18,41.76c-.56,9.86.07,23,1.08,36.67h38.19C327,821.45,331.26,799.93,330.9,780.42Z"/><path class="cls-4" d="M288.38,907.73c-.8,20.68-10.64,51.33-10.64,60.25s10.17,7.35,20.11,7.35,17.92-3.3,18.72-10.6S309,934.89,309,906.51c0-15.74,7-39.33,13-64.69H283.89C285.74,867,288.89,894.34,288.38,907.73Z"/><path class="cls-4" d="M281.09,563S211,734.66,206,745.25c-5.86,12.34-13.16,21.83-16.25,32.89-3.27,11.74-3,18.72-15.37,43.33-19,37.79-46,88.15-49.58,96.81s3.58,30.13,2.1,35.85-9,6.28-17,13.42c-9.89,8.83-36.66,6.72-39.56.71-1.81-3.76,9.5-11.5,18-23,7.37-9.92,11.78-23.42,14.3-30C117,878,119.32,829.87,134,791.51c8.39-22,17.72-32.11,26.71-59.93s39.64-167.36,43.14-188.13Z"/><path d="M344.5,508.31a124.27,124.27,0,0,0-7.93-14.25c-20.08,11-34,31.79-73.32,36.87-22.77,2.95-42,3.92-59.68-.09-.24,3.22-.41,6.55-.5,10l73.49,33.2,9.45-2.45h0C296.25,534.48,327.48,513.71,344.5,508.31Z"/><path class="cls-4" d="M347.37,315c-9.82-14.17-43.2-10.24-53.93-18.19s-9.14-39-9.14-39H246.24s1.59,31.09-9.14,39-44.11,4-53.93,18.19c-16.36,23.61,15.34,42.84,20.1,56.35,10.6,28.09,15.1,49.28,15.1,71.55h93.79c0-22.27,4.51-43.46,15.1-71.55C332,357.88,363.73,338.64,347.37,315Z"/><path class="cls-5" d="M258.49,278.8c11.45,2.31,21.38-.44,26.2-6a117.87,117.87,0,0,1-.39-15H246.24s.7,13.78-2,25.33C248.63,278.62,251.94,277.47,258.49,278.8Z"/><path class="cls-5" d="M278.64,355.6c-6.83,1-11.73,6.83-13.37,13.54-1.64-6.71-6.54-12.51-13.37-13.54,8.36,3.42,13.64,14.21,12.29,23.55h2.15C265,369.82,270.28,359,278.64,355.6Z"/><path d="M324.93,377.77l-57.24.31-2.42,0-2.42,0-56.44,2a247.68,247.68,0,0,1,7.6,25.8,92.81,92.81,0,0,0,22.06,1.25c17.21-.78,18-5.28,29.19-5.28s12,4.5,29.19,5.28a92.81,92.81,0,0,0,22.06-1.25A253.49,253.49,0,0,1,324.93,377.77Z"/><path d="M322.13,303.84l-3.35,47.91,3.66.26,3.32-47.5Q324,304.15,322.13,303.84Z"/><path d="M208.1,352l3.66-.26-3.35-47.91q-1.83.31-3.63.66Z"/><path class="cls-6" d="M326.83,368.84c-.11-12.36-1.41-24.55-5.72-31-13.45,17.16-31.59,30.3-53.42,40.26C277.72,411.42,323.5,416.15,326.83,368.84Z"/><path class="cls-6" d="M203.82,369.24c.11-12.36,1.31-25,5.62-31.41,13.45,17.16,31.59,30.3,53.42,40.26C252.83,411.42,207.14,416.55,203.82,369.24Z"/><polygon class="cls-7" points="286.85 922.83 286.65 901.53 310.2 901.53 310.2 925.13 286.85 922.83"/><polygon class="cls-7" points="101.3 918.58 106.21 899.25 130.89 906.35 124.55 922.83 101.3 918.58"/><path class="cls-8" d="M274.37,977.41c6.4,4.17,33.5,2.89,38.17,2.46s8-1.75,10.64-4.67c.43-4.82.16-9.2-1.31-12.83l-2.48-2.94,1,6.58-27.26-5.83-16.81,2.33C274.29,968.35,273.71,973.27,274.37,977.41Z"/><path class="cls-9" d="M274.37,977.41c4.16,1.57,9.2-4.06,17.22-4.06,6.64,0,12.78,6.81,22.24,6.36C298.92,981.12,285.35,980.87,274.37,977.41Z"/><path class="cls-10" d="M318,923.13c-1.58,12.29-.25,27,2.37,42.89-5.61,3.41-11.89,4.27-18.66,3.21q-9.47-11.51-19-.87c-4.82-.5-6.84-2.86-6.41-6.85L281,945.24a110.74,110.74,0,0,0,.79-23.37,4.4,4.4,0,0,1,4.67-4.66L313.92,919A4.4,4.4,0,0,1,318,923.13Z"/><path class="cls-11" d="M306.41,957.42l-6.41-8.6,9.93-30.09s2.9-12.48-9.93-13.35c-12.65-.86-12,11.94-12,11.94l4.08,32.82-7.73,6.12C292.42,951,299.93,950,306.41,957.42Z"/><path class="cls-8" d="M305.57,949.87c-.29,1-4.62.65-9.39-1.53s-7.9-5.19-7.33-6.07,4.43.53,8.92,2.56S305.87,948.83,305.57,949.87Z"/><ellipse class="cls-8" cx="296.54" cy="946.12" rx="8.75" ry="1.93" transform="translate(-431.78 273.34) rotate(-29.87)"/><path class="cls-8" d="M305.45,941.52c-.37,1-5.24,0-10.5-2.91s-8.66-6.52-8-7.36,4.89,1.22,9.9,4S305.84,940.51,305.45,941.52Z"/><path class="cls-8" d="M288.58,942.38c-.32-.41.39-1.6,2-3a28.76,28.76,0,0,1,7-4.35,44.86,44.86,0,0,1,7.57-2.72c2-.5,3.34-.59,3.57-.11s-.72,1.46-2.47,2.61a56.53,56.53,0,0,1-7.05,3.72c-2.78,1.28-5.27,2.38-7.12,3.16S288.91,942.81,288.58,942.38Z"/><path class="cls-8" d="M308.67,932.17c-.17.49-1.72.47-4-.23a34,34,0,0,1-8.35-4.09,46.16,46.16,0,0,1-7.17-5.73c-1.66-1.67-2.52-2.91-2.2-3.34.66-.89,5.7,2,11.47,5.84l7.4,4.85C307.68,930.74,308.85,931.65,308.67,932.17Z"/><ellipse class="cls-8" cx="298.99" cy="926.03" rx="13.54" ry="1.93" transform="translate(-356.98 207.26) rotate(-24.49)"/><path class="cls-8" d="M69.92,962.79c-3.3,3.06-4.14,7.55-3.11,13.14,8.7,3,34.88,5.53,49.5-3.67v-5a24.7,24.7,0,0,0,15.61-5,5.1,5.1,0,0,0,1.88-5.2l-2.66-11.46Z"/><path class="cls-9" d="M66.82,975.93c6.39,1.76,11.35-2.73,16.75-2.73,8.41,0,11.22,5.19,22.64,3.3C98.88,979.16,79,979.61,66.82,975.93Z"/><path class="cls-10" d="M130.53,923.76l.62,19.79a4.87,4.87,0,0,1-1.23,3.4c-3.71,4.14-10.12,3.63-13.21,7.33s-6.52,15-20.3,13.73c-7-7.33-13.67-7.62-19.91,0-6.69-.7-8-3-6-6.38L84.22,947.7c5.44-8.71,7.93-18.3,9-28.31a4.74,4.74,0,0,1,4.39-3.3l22.71-.64a4.74,4.74,0,0,1,2.57.67l4.83,2.9A5.73,5.73,0,0,1,130.53,923.76Z"/><path class="cls-11" d="M101.43,957c-5.82-6.31-12.09-8.3-19.16-2.51,11.87-12.85,14.28-24.6,15.37-38.42,0,0-3.43-10.25,8.57-11s14.14,10.32,14.14,10.32C109,925.47,103.06,939.76,101.43,957Z"/><path class="cls-8" d="M85.58,949.29c.11,1,5.87,1.14,10.94-.2s11-4.24,10.55-5.2-6.76.23-11.53,1.47S85.45,948.22,85.58,949.29Z"/><path class="cls-8" d="M103.66,953.77c.76-.75-2.56-4.88-6-8.32s-6.76-5.63-7.52-4.88,1.38,4.14,4.77,7.59S102.9,954.52,103.66,953.77Z"/><path class="cls-8" d="M89,940c.16,1,5.12,1.13,10.88-.61s12.18-4.9,11.73-5.85-7.36.52-12.85,2.16S88.84,938.93,89,940Z"/><path class="cls-8" d="M107.75,941.85a28.75,28.75,0,0,0-5.82-5.8,44.85,44.85,0,0,0-6.78-4.34c-1.84-.93-3.12-1.32-3.45-.9s.38,1.59,1.82,3.09a56.53,56.53,0,0,0,6,5.2c2.43,1.87,4.61,3.5,6.24,4.67S109,943.61,107.75,941.85Z"/><path class="cls-8" d="M92.28,929.92c.09.51,1.62.74,4,.43a34,34,0,0,0,8.9-2.67,46.17,46.17,0,0,0,8-4.49c1.91-1.37,4.75-2.72,4.51-3.19-.51-1-7.75,1.32-14.07,4.15l-8.09,3.58C93.49,928.68,92.19,929.39,92.28,929.92Z"/><path class="cls-8" d="M112.73,933.81c.68-.82-.8-3.18-6.56-8s-11-8-11.66-7.15,3.44,5.35,9.2,10.12S112,934.63,112.73,933.81Z"/><path class="cls-12" d="M335.32,684.28c8.8-33.75,20.85-80,21-117.69.17-45.28-13.86-65.44-26.24-83.22l-1.49-2.14c-13,15.65-43.5,26.64-79.07,26.64A153.94,153.94,0,0,1,207,502.14a217.61,217.61,0,0,0-4.6,45.65c-6.16,32.24-33.81,157.29-42.3,183.6-5.14,15.91-10.42,26.08-15.52,35.91a216,216,0,0,0-11.17,24c-7.39,19.35-11.71,41.44-15.89,62.81-2,10.27-4.09,20.89-6.47,31l-.14.58,27.62,6.56.22-.42c2.48-4.78,5.19-10,8-15.43,9.11-17.49,19.43-37.31,28.13-54.62,9.65-19.2,11.65-27.79,13.58-36.09.54-2.34,1.1-4.75,1.83-7.35,1.91-6.85,5.5-13.17,9.3-19.87,2.31-4.07,4.7-8.29,6.91-12.92,4.31-9.06,55.56-134.44,71.46-173.38l1.1.09h6.3c-.06,9.32-.72,122-.72,139,0,17.64.71,51.83.72,52.09s-1.61,14.12-3.18,41.8c-.88,15.56,1.2,39.43,3,60.48.82,9.4,1.6,18.27,2.08,26l0,.56H311l.08-.5c1.67-10,4.58-21.58,7.66-33.88,6.18-24.66,13.18-52.62,12.73-77.34A230.12,230.12,0,0,0,329,753.24c-1.38-10.23-2.68-19.89-2.25-30.37C327,716.14,330.68,702.08,335.32,684.28Z"/><path class="cls-4" d="M293.44,296.85c-10.73-7.95-9.14-39-9.14-39H246.24s1.59,31.09-9.14,39C236.08,318.39,286.59,321.28,293.44,296.85Z"/><path class="cls-13" d="M258.49,278.8c11.45,2.31,21.38-.44,26.2-6a117.87,117.87,0,0,1-.39-15H246.24s.7,13.78-2,25.33C248.63,278.62,251.94,277.47,258.49,278.8Z"/><path class="cls-13" d="M226,210.21s-5.57-8.2-9.83-4.62c-7.26,6.09,2.47,31.56,11.72,26.75Z"/><path class="cls-14" d="M224.42,211.85s-3.83-5.21-6.75-2.94c-5,3.87,3.77,22.17,8.05,17Z"/><path class="cls-13" d="M305.82,210.21s5.57-8.2,9.83-4.62c7.26,6.09-2.47,31.56-11.72,26.75Z"/><path class="cls-5" d="M307.4,211.85s3.83-5.21,6.75-2.94c5,3.87-3.77,22.17-8.05,17Z"/><circle class="cls-1" cx="308.74" cy="229.1" r="1.07"/><circle class="cls-1" cx="223.07" cy="229.1" r="1.07"/><path class="cls-4" d="M221.29,216.43c4.56,36.16,29.05,60.22,44.56,60.22s40-24.05,44.56-60.22c4.77-37.64-2.51-66-44.56-66S216.56,178.91,221.29,216.43Z"/><path class="cls-15" d="M259.24,239.08a5.2,5.2,0,0,0-.6,1.84A1.63,1.63,0,0,0,259,242a.87.87,0,0,0,.22.19.77.77,0,0,0,.27.11c.91.19,2-.62,3-.63,1.38,0,2.7.64,4.08.53,1-.07,1.83-.55,2.8-.54s2,.72,3,.53a1,1,0,0,0,.53-.26,1.11,1.11,0,0,0,.27-.48,1.65,1.65,0,0,0,.06-.57,4.89,4.89,0,0,0-.64-1.82,4.14,4.14,0,0,1,1.07,1.76,1.82,1.82,0,0,1-.29,1.56,1.73,1.73,0,0,1-.81.54c-1.08.35-2.07-.26-3.14-.23-.9,0-1.73.52-2.62.62a9.43,9.43,0,0,1-3.13-.42,7.55,7.55,0,0,0-3.35.18,2,2,0,0,1-1-.07,1.56,1.56,0,0,1-.77-.63,2,2,0,0,1-.24-1.54A4.33,4.33,0,0,1,259.24,239.08Z"/><path class="cls-16" d="M227,211s.14,0,.29-.17l.26-.26.35-.34a10.81,10.81,0,0,1,2.32-1.74,11.45,11.45,0,0,1,3.76-1.29,14.42,14.42,0,0,1,4.56.06,48.31,48.31,0,0,1,8.75,2.7c1.26.47,2.37.84,3.22,1.1s1.44.41,1.65.45a4,4,0,0,0,2.18-.05c.58-.2.94-.56,1-1a1.44,1.44,0,0,0-.72-1.18,5.14,5.14,0,0,0-1.86-.8c-.19,0-.73-.16-1.54-.36s-1.88-.51-3.14-.89-2.71-.84-4.29-1.26a28.11,28.11,0,0,0-5-.9,15,15,0,0,0-5.07.42,11.66,11.66,0,0,0-4,1.95,8.77,8.77,0,0,0-2.18,2.35l-.26.46c-.07.14-.12.26-.15.36S226.93,210.94,227,211Z"/><path class="cls-16" d="M304.48,211s-.14,0-.29-.17l-.26-.26-.35-.34a10.8,10.8,0,0,0-2.32-1.74,11.46,11.46,0,0,0-3.76-1.29,14.42,14.42,0,0,0-4.56.06,48.31,48.31,0,0,0-8.75,2.7c-1.26.47-2.37.84-3.22,1.1s-1.44.41-1.65.45a4,4,0,0,1-2.18-.05c-.58-.2-.94-.56-1-1a1.44,1.44,0,0,1,.72-1.18,5.14,5.14,0,0,1,1.86-.8c.19,0,.73-.16,1.54-.36s1.88-.51,3.14-.89,2.71-.84,4.29-1.26a28.11,28.11,0,0,1,5-.9,15,15,0,0,1,5.07.42,11.65,11.65,0,0,1,4,1.95A8.77,8.77,0,0,1,304,209.8l.26.46c.07.14.12.26.15.36S304.52,210.94,304.48,211Z"/><path id="SVGID-3" data-name="SVGID" class="cls-1" d="M253.77,225.69s-2.32-3.8-10.34-4.53-10.56,2.17-10.56,2.17,1.55,1.32,9.78,2.08S253.77,225.69,253.77,225.69Z"/><g class="cls-17"><circle class="cls-18" cx="243.14" cy="223.79" r="5.49" transform="translate(-1.88 445.51) rotate(-84.77)"/><circle cx="243.14" cy="223.79" r="3.07" transform="translate(-1.89 445.5) rotate(-84.77)"/><circle class="cls-1" cx="241.93" cy="222.32" r="0.62" transform="translate(-1.47 443.04) rotate(-84.78)"/></g><path class="cls-19" d="M253.77,225.69s-1-5.71-10.45-6.58-10.45,4.22-10.45,4.22A19,19,0,0,1,253.77,225.69Z"/><path d="M232.87,223.34a7.85,7.85,0,0,1-2.58-3.49c3.86,1.22,8.33-.63,13.39.23,5.65,1,10.09,5.61,10.09,5.61a23.16,23.16,0,0,0-10.22-4.36A19.52,19.52,0,0,0,232.87,223.34Z"/><path id="SVGID-4" data-name="SVGID" class="cls-1" d="M277.57,225.69s2.32-3.8,10.34-4.53,10.56,2.17,10.56,2.17-1.55,1.32-9.78,2.08S277.57,225.69,277.57,225.69Z"/><g class="cls-20"><circle class="cls-18" cx="288.2" cy="223.79" r="5.49" transform="translate(-19.2 27.2) rotate(-5.23)"/><circle cx="288.2" cy="223.79" r="3.07" transform="translate(-19.21 27.22) rotate(-5.23)"/><circle class="cls-1" cx="289.4" cy="222.32" r="0.62" transform="translate(-19.02 27.24) rotate(-5.22)"/></g><path class="cls-19" d="M277.57,225.69s1-5.71,10.45-6.58,10.45,4.22,10.45,4.22A19,19,0,0,0,277.57,225.69Z"/><path d="M298.46,223.34a7.85,7.85,0,0,0,2.58-3.49c-3.86,1.22-8.33-.63-13.39.23-5.65,1-10.09,5.61-10.09,5.61a23.16,23.16,0,0,1,10.22-4.36A19.52,19.52,0,0,1,298.46,223.34Z"/><path class="cls-21" d="M284.63,250c-5.48,1.46-13-2.19-18.91-2.19S252,251.36,246.82,250c5.07,4.41,9.14,14.29,18.91,14.33S278.92,255.67,284.63,250Z"/><path class="cls-1" d="M280,251.75c-4.13,1.09-9.79.34-14.25.34s-10.33.66-14.25-.34c0,0,6.89,4.33,14.25,4.36S280,251.75,280,251.75Z"/><path class="cls-4" d="M185.4,310.52c-23.65,10.38-90,81.08-105.18,116.22a17.4,17.4,0,0,0,2.11,17.38l75.27,69,12.34,18.27c2.27,4.12,8.48,7.51,14.9,2,3.92-3.36,15.15-12,15.15-12l13.45,11.08a5.15,5.15,0,0,0,6,.37l1.89-1.21,1.34.83a3.75,3.75,0,0,0,3.92,0h0a3.75,3.75,0,0,0,1.37-4.95l-.11-.22h0a4.38,4.38,0,0,0,.72-6.77l-18.06-18.13a4.23,4.23,0,0,0-5.1-.68l-3.52,2,9.06-7.59,14,6.71a3.73,3.73,0,0,0,4.6-1.13h0a3.73,3.73,0,0,0-1.05-5.42l-16.33-8.13a6.71,6.71,0,0,0-7,.62l-25,18.57L114.7,431.17c33.66-38.47,69.4-58.66,91.18-71.21C205.87,360,211.47,299.09,185.4,310.52Z"/><path class="cls-4" d="M347,308.54c23.93,9.73,92.22,78.59,108.31,113.3a17.4,17.4,0,0,1-1.63,17.44l-73.35,71-11.84,18.6c-2.16,4.18-8.27,7.74-14.84,2.41-4-3.25-15.47-11.57-15.47-11.57L325,531.2a5.15,5.15,0,0,1-6,.53L317,530.57l-1.32.86a3.75,3.75,0,0,1-3.91.12h0a3.75,3.75,0,0,1-1.51-4.91l.11-.22h0a4.38,4.38,0,0,1-.9-6.74l17.56-18.62a4.23,4.23,0,0,1,5.08-.82l3.58,1.93-9.27-7.34-13.81,7.09a3.73,3.73,0,0,1-4.63-1h0a3.73,3.73,0,0,1,.9-5.44L325,486.9a6.71,6.71,0,0,1,7,.43l25.46,17.88,63.44-78c-34.7-37.53-71-56.74-93.09-68.69C327.86,358.53,320.61,297.82,347,308.54Z"/><path class="cls-22" d="M252.83,360.9c7.5,1,13,7.3,14.87,14.63,1.69-7.38,7-13.83,14.44-15.05-9.11,3.88-14.73,15.8-13.1,26l-2.36,0C268,376.27,262,364.52,252.83,360.9Z"/><path d="M202.42,385.94l62.76-.56h2.65l2.65-.09,61.91,1.26A271.69,271.69,0,0,0,324.48,415c-4.29.92-12.27,2.09-24.17,1.73-18.88-.58-19.8-5.51-32.09-5.33s-13.07,5.13-31.92,6.26c-11.88.71-19.9-.23-24.21-1A278,278,0,0,0,202.42,385.94Z"/><path d="M204.32,304.83l4.43,52.47-4,.34-4.39-52Q202.32,305.2,204.32,304.83Z"/><path d="M330.11,355.83l-4-.22L329,303q2,.31,4,.67Z"/><path class="cls-6" d="M200.2,376.18c-.07-13.56,1.15-26.95,5.78-34.09,15,18.61,35.12,32.72,59.21,43.3C254.72,422.08,204.6,428,200.2,376.18Z"/><path class="cls-6" d="M335.08,374.67c-.32-13.55-1.83-27.34-6.66-34.35-14.48,19-34.16,33.72-57.93,45C282,421.69,332.18,426.59,335.08,374.67Z"/><polygon class="cls-23" points="320.78 449.89 214.53 449.89 214.53 466.59 321.87 466.59 320.78 449.89"/><polygon class="cls-24" points="321.32 452.81 214.53 452.81 214.53 463.67 321.87 463.67 321.32 452.81"/><rect class="cls-25" x="301.49" y="448.91" width="4.59" height="17.68" transform="translate(607.57 915.5) rotate(180)"/><rect class="cls-25" x="236.07" y="448.91" width="4.59" height="17.68" transform="translate(476.72 915.5) rotate(180)"/><path class="cls-26" d="M262.16,458.24a8.34,8.34,0,1,1,8.34,8.34A8.35,8.35,0,0,1,262.16,458.24Zm2.91,0a5.43,5.43,0,1,0,5.43-5.43A5.44,5.44,0,0,0,265.07,458.24Z"/><path class="cls-3" d="M204.55,303c-22.09,0-53.8,30.41-53.8,30.41L189,373c20.2,27.56,4.41,75.1,25.52,76.84H320.78c15.71-11.41,13.42-42.74,22.29-80.49l28.47-48.76s-23.31-23-67.76-23Z"/><path class="cls-4" d="M177.19,503.86l3.05,3.55,25-18.57a6.71,6.71,0,0,1,7-.62l16.33,8.13a3.73,3.73,0,0,1,1.05,5.42h0a3.73,3.73,0,0,1-4.6,1.13l-14-6.71-9.06,7.59,3.52-2a4.23,4.23,0,0,1,5.1.68l18.06,18.13a4.38,4.38,0,0,1-.72,6.77l.11.22a3.75,3.75,0,0,1-5.29,4.93l-1.34-.83-1.89,1.21a5.15,5.15,0,0,1-6-.37L200,521.42s-11.24,8.63-15.15,12c-6.43,5.51-12.63,2.12-14.9-2L163,521.16A207.8,207.8,0,0,0,177.19,503.86Z"/><path class="cls-4" d="M312.66,501.92a3.73,3.73,0,0,1-3.73-6.45L325,486.9a6.71,6.71,0,0,1,7,.43l25.46,17.88,3.58-4.41c4,6.35,9.58,11,15.28,15.68l-7.91,12.43c-2.16,4.18-8.27,7.74-14.84,2.41-4-3.25-15.47-11.57-15.47-11.57L325,531.2a5.15,5.15,0,0,1-6,.53L317,530.57l-1.32.86a3.75,3.75,0,0,1-5.42-4.78l.11-.22a4.38,4.38,0,0,1-.9-6.74l17.56-18.62a4.23,4.23,0,0,1,5.08-.82l3.58,1.93-9.27-7.34Z"/><path class="cls-1" d="M232.85,325.94v104.2h69.27V325.94Zm68.07,1.2v2h-2.64c-9.08.06-21.63.49-35.45,1.5-10.74.79-20.66,1.81-28.77,2.83v-6.3ZM234,418.86v-7.29l1.71-.05c4.79-.15,10.49-.3,16.83-.43s13.3-.21,20.6-.23,14.27.07,20.6.17l7.12.14v5.3c-3.15-.11-6.57-.2-10.21-.25-6.14-.07-12.9,0-20,.16s-13.83.56-20,1-11.64.93-16.26,1.44Zm.6,1.76c4.62-.28,10.13-.59,16.24-.89s12.84-.57,19.9-.77,13.79-.3,19.91-.36c3.64,0,7.06,0,10.21,0v6.21l-4.89-.34c-6.71-.41-14.09-.73-21.85-.89s-15.15-.1-21.86.05-12.76.44-17.83.78l-.44,0v-3.74Zm-.6-10.78v-8.94l5.09-.08c4.9-.08,10.74-.15,17.22-.18s13.61,0,21.08.11,14.6.32,21.08.54l2.4.09V409q-3.37-.17-7.05-.32c-6.35-.23-13.34-.37-20.67-.37s-14.32.18-20.67.43-12.06.6-16.85,1Zm0-10.48v-3.63c6.4-.47,13.26-.92,20.42-1.29,8.68-.43,17-.7,24.49-.87,3.77-.06,7.35-.15,10.7-.17s6.47-.05,9.32-.06h1.93v5.74l-2.29-.14c-6.49-.35-13.64-.63-21.14-.75s-14.66-.06-21.16.09-12.35.42-17.26.73Q236.35,399.17,234,399.35Zm0-6.07v-6c7.22,0,15.24,0,23.71-.08,17.25-.14,32.7-.44,43.16-.8v5.17l-1.9-.07c-2.86-.11-6-.21-9.35-.25s-7-.07-10.73-.07c-7.56,0-15.87.25-24.59.68C247.22,392.24,240.41,392.73,234,393.28Zm0-8.33v-8.22c6.1-.34,12.58-.55,19.31-.58,9.05,0,17.68.28,25.53.62,3.92.2,7.65.36,11.14.58l9.71.57,1.17.07v6.75c-10.46-.19-25.92-.24-43.18-.1C249.28,384.71,241.27,384.82,234,385Zm0-10.68V372c7-.51,14.56-1,22.46-1.34,9-.38,17.54-.58,25.33-.68,3.89,0,7.6-.07,11.06,0,2.84,0,5.51,0,8,.05v6.27l-1-.1c-3-.29-6.21-.6-9.71-.88s-7.23-.55-11.17-.82c-7.87-.47-16.55-.83-25.67-.82C246.57,373.61,240.15,373.85,234,374.27Zm0-4.74v-6.59c6.17-.3,12.75-.56,19.58-.74,8.89-.22,17.37-.28,25.07-.26,3.85,0,7.52,0,10.95.11s6.62.12,9.54.19l1.73,0v5.79c-2.49-.12-5.14-.23-8-.3-3.48-.12-7.19-.16-11.1-.2-7.82,0-16.42.1-25.44.48C248.53,368.41,241,368.93,234,369.53Zm0-9V357.8l1.77-.2c2.7-.33,5.59-.62,8.63-1,6.09-.62,12.78-1.22,19.82-1.73s13.75-.82,19.87-1.06c3.06-.1,6-.21,8.68-.26s5.25-.12,7.57-.16h.53v7.09l-1.65-.1c-2.92-.18-6.12-.37-9.55-.5s-7.11-.25-11-.35c-7.73-.15-16.24-.16-25.17.06C246.75,359.82,240.2,360.12,234,360.5Zm0-4.78V350.1c4-.37,8.66-.77,13.71-1.18,6-.48,12.69-1,19.67-1.37s13.64-.69,19.69-.92c5.08-.18,9.73-.31,13.8-.42v5.44l-.51,0c-2.32-.08-4.87-.15-7.6-.16s-5.65,0-8.73,0c-6.15.11-12.9.38-20,.86s-13.81,1.19-19.91,1.94c-3,.4-5.95.77-8.65,1.19Zm0-7.56v-7.06c3.69-.26,7.81-.53,12.28-.8,6-.35,12.57-.69,19.49-1s13.51-.4,19.5-.5,11.13-.12,15.6-.13v5.57c-4.09-.08-8.76-.09-13.86,0-6.08.1-12.77.32-19.78.73s-13.68,1-19.73,1.58C242.58,347.07,238,347.61,234,348.15Zm0-9.06v-3.55c8.16-.72,18.15-1.58,29-2.37,13.78-1,26.28-1.72,35.33-2.24l2.58-.15v6.1c-4.47-.22-9.75-.36-15.61-.41-6,0-12.64.05-19.59.3s-13.55.68-19.56,1.16C241.76,338.29,237.69,338.69,234,339.1Zm0,89.84v-2.75h.51c5.07-.11,11.1-.19,17.79-.23s14.06,0,21.78.15,15.08.41,21.77.68l5,.23v1.93Z"/><path class="cls-3" d="M75.28,430.14c15.14-35.14,82.6-103,82.6-103,31.13,18.42,55.52,44.37,43.29,90.75-17.22-31.47-76.12,20-76.12,20l8.25,14.9-23.5,16.5L81.17,448.37C74.58,442.73,72.8,435.89,75.28,430.14Z"/><path class="cls-3" d="M459.07,421.31c-19.08-33.17-73.43-96.11-96.9-107.72s-44.1,54.89-26.63,99.55c24.1-36.41,71.91,19.35,71.91,19.35l-6.36,16.42,26.35,19.26,27.87-28.07C461.22,433.74,462.2,426.74,459.07,421.31Z"/><path class="cls-27" d="M258.25,149.86l0-.1c47.17-9.06,56.61,35,60.29,40.5,17.47,26.05-.24,26.07-3.88,46.35-2.91-3.46-5.33-8.57-7-15.52-5.27-21.51-49.38-21.27-68.24-49.15-6.7,3.41-11.21,9.64-11.7,16.16-.47,6.36,2.57,13-.28,18.95-2.65,5.48-9.09,10.48-10,15.35s1.79,9.8,4.53,13.71c-10.66,0-15.47-11.54-10.7-26.54C215,197.9,209.56,148.35,258.25,149.86Z"/></g></svg>