<svg xmlns="http://www.w3.org/2000/svg" width="460.82" height="1008.2" viewBox="0 0 460.82 1008.2"><defs><style>.cls-1{opacity:0.1;}.cls-2{fill:#93562a;}.cls-3{fill:#723b17;}.cls-4{fill:#6b3918;}.cls-5{fill:#b77e58;}.cls-6{fill:#c56946;}.cls-7{fill:#935e3a;}.cls-8{fill:#1d3042;}.cls-9{fill:#152430;}.cls-10{fill:#702c3a;}.cls-11{fill:#5b2431;}.cls-12{fill:#593b31;}.cls-13{fill:#aa573d;}.cls-14{fill:#c48b47;}.cls-15{fill:#725d54;}.cls-16{fill:#7a645a;}.cls-17{fill:none;}.cls-18{fill:#cecccc;}.cls-19{fill:#2b1a14;}.cls-20{fill:#847167;}.cls-21{fill:#826960;}.cls-22{fill:#aaa;}.cls-23{fill:#d6d6d6;}.cls-24{fill:#fff;}.cls-25{fill:#592b1d;}.cls-26{fill:#be5647;}.cls-27{fill:#93322b;}</style></defs><title>image-1</title><g id="Layer_1" data-name="Layer 1"><ellipse class="cls-1" cx="230.41" cy="951" rx="202.9" ry="57.21"/><path class="cls-2" d="M114.59,209.83c14.17-24.71,56.89-39.56,69-46.31s10.25-37.12,10.25-37.12h72.43s-1.89,30.37,10.25,37.12,54.86,21.6,69,46.31S303.76,317.5,303.76,361.39c0,31.45,4.72,32.27,4.72,97.06H151.71c0-64.79,4.72-65.61,4.72-97.06C156.44,317.5,100.42,234.55,114.59,209.83Z"/><path class="cls-3" d="M272.62,160c-13.64-7-11.33,3.71-38.16,9.83-17.69,4-39.86-8.74-43.21-17.44,3.55-11.22,2.64-25.95,2.64-25.95h72.43S264.86,149.62,272.62,160Z"/><path class="cls-2" d="M146.33,902.9c1.33-17.61-21.28-116.58-8.63-175.58,0,0,4.81-28.29,2.66-51.28s-7-114.59,1.33-170.7l10.66-77.42H308l10.66,77.42C327,561.45,322.17,653,320,676s2.66,51.28,2.66,51.28c12.66,59-10,158-8.63,175.58,0,27.37,24.71,52.7,24.71,62.53S320.7,983.71,308,978.79s-6.65-13.73-11.81-24.36-12.18-8-14.17-16.38,4.66-18.59,4.66-36.53c0-63.22-21.32-103.4-8.66-164.3-6.37-16.91-10.36-33.63-9.33-49.94C253,637,241.21,589.5,240.47,549.67H219.92c-.74,39.83-12.53,87.35-28.26,137.61,1,16.31-3,33-9.33,49.94,12.66,60.91-8.66,101.08-8.66,164.3,0,17.94,6.66,28.1,4.66,36.53s-9,5.75-14.17,16.38.85,19.44-11.81,24.36-29.85-5.18-29.85-15S146.36,930.27,146.33,902.9Z"/><path class="cls-2" d="M139.84,249.77c.51,0,.91,5.42,2.72,13.91a119,119,0,0,0,4.13,14.61c1,2.68,2.06,5.49,3.33,8.28a30.33,30.33,0,0,0,4.83,7.75,14,14,0,0,0,7.25,4.42,36.65,36.65,0,0,0,8.59.82c5.68,0,10.89-.38,15.26-.65,8.74-.61,14.18-1,14.23-.65s-5.25,1.65-14,3.08A128,128,0,0,1,170.74,303a36.75,36.75,0,0,1-9.53-.61,17.46,17.46,0,0,1-5-2,18.42,18.42,0,0,1-4.25-3.52,32.17,32.17,0,0,1-5.42-8.82,90.93,90.93,0,0,1-6.57-24C138.86,255.27,139.45,249.77,139.84,249.77Z"/><path class="cls-2" d="M260,298.24c0-.33,5.49,0,14.23.65,4.37.28,9.58.7,15.26.65a36.65,36.65,0,0,0,8.59-.82,14,14,0,0,0,7.25-4.42,30.33,30.33,0,0,0,4.83-7.75c1.27-2.78,2.37-5.6,3.33-8.28a119,119,0,0,0,4.13-14.61c1.81-8.49,2.21-13.93,2.72-13.91s1,5.5-.12,14.36a90.93,90.93,0,0,1-6.57,24,32.15,32.15,0,0,1-5.42,8.82,18.41,18.41,0,0,1-4.25,3.52,17.46,17.46,0,0,1-5,2,36.75,36.75,0,0,1-9.53.61A128,128,0,0,1,274,301.32C265.26,299.89,260,298.55,260,298.24Z"/><path class="cls-2" d="M229,251.54c0-13.75.59-24.89,1.09-24.89s1.09,11.14,1.09,24.89-.73,24.89-1.09,24.89S229,265.29,229,251.54Z"/><path class="cls-2" d="M199.72,314.7c.34.06.32,2.45.66,6.26a55.18,55.18,0,0,0,.94,6.56,22.82,22.82,0,0,0,1.08,3.61,8.87,8.87,0,0,0,1.91,3.13c1.67,1.6,4.42,2.18,6.8,2.49a49.24,49.24,0,0,0,6.62.25c3.83-.08,6.22-.37,6.29-.14s-2.19,1.26-6.1,2a32.9,32.9,0,0,1-7,.53,19.89,19.89,0,0,1-4.26-.63,10.21,10.21,0,0,1-4.38-2.37,10.93,10.93,0,0,1-2.53-4.21,21.54,21.54,0,0,1-1-4.16,35.38,35.38,0,0,1-.29-7C198.62,317,199.39,314.64,199.72,314.7Z"/><path class="cls-2" d="M201.13,344.61c.34.06.32,2.45.66,6.26a55.18,55.18,0,0,0,.94,6.56A22.89,22.89,0,0,0,203.8,361a8.87,8.87,0,0,0,1.91,3.13c1.67,1.6,4.42,2.18,6.8,2.49a49.24,49.24,0,0,0,6.62.25c3.83-.08,6.22-.37,6.29-.13s-2.19,1.26-6.1,2a32.87,32.87,0,0,1-7,.53,19.89,19.89,0,0,1-4.26-.63,10.21,10.21,0,0,1-4.38-2.37,10.93,10.93,0,0,1-2.53-4.21,21.54,21.54,0,0,1-1-4.16,35.39,35.39,0,0,1-.29-7C200,346.93,200.8,344.54,201.13,344.61Z"/><path class="cls-2" d="M202.53,374.51c.34.06.32,2.45.66,6.26a55.15,55.15,0,0,0,.94,6.56,22.89,22.89,0,0,0,1.08,3.61,8.86,8.86,0,0,0,1.91,3.13c1.67,1.6,4.42,2.18,6.8,2.49a49.33,49.33,0,0,0,6.62.25c3.83-.08,6.22-.37,6.29-.14s-2.19,1.26-6.1,2a32.94,32.94,0,0,1-7,.53,19.92,19.92,0,0,1-4.26-.63,10.21,10.21,0,0,1-4.38-2.37,10.93,10.93,0,0,1-2.53-4.21,21.54,21.54,0,0,1-1-4.16,35.38,35.38,0,0,1-.29-7C201.43,376.83,202.2,374.45,202.53,374.51Z"/><path class="cls-2" d="M253.57,338.74a19.89,19.89,0,0,1-4.26.63,32.91,32.91,0,0,1-7-.53c-3.91-.7-6.17-1.73-6.1-2s2.46.06,6.29.14a49.24,49.24,0,0,0,6.62-.25c2.38-.31,5.13-.89,6.8-2.49a8.87,8.87,0,0,0,1.91-3.13,22.82,22.82,0,0,0,1.08-3.61,55.18,55.18,0,0,0,.94-6.56c.34-3.81.33-6.2.66-6.26s1.1,2.32,1.32,6.29a35.38,35.38,0,0,1-.29,7,21.5,21.5,0,0,1-1,4.16,10.93,10.93,0,0,1-2.53,4.21A10.22,10.22,0,0,1,253.57,338.74Z"/><path class="cls-2" d="M252.16,368.65a19.89,19.89,0,0,1-4.26.63,32.88,32.88,0,0,1-7-.53c-3.91-.7-6.17-1.73-6.1-2s2.46.06,6.29.13a49.24,49.24,0,0,0,6.62-.25c2.38-.31,5.13-.89,6.8-2.49a8.87,8.87,0,0,0,1.91-3.13,22.83,22.83,0,0,0,1.08-3.61,55.19,55.19,0,0,0,.94-6.56c.34-3.81.33-6.2.66-6.26s1.1,2.32,1.32,6.29a35.39,35.39,0,0,1-.29,7,21.47,21.47,0,0,1-1,4.16,10.93,10.93,0,0,1-2.53,4.21A10.21,10.21,0,0,1,252.16,368.65Z"/><path class="cls-2" d="M239.66,396.83a49.33,49.33,0,0,0,6.62-.25c2.38-.31,5.13-.89,6.8-2.49a8.87,8.87,0,0,0,1.91-3.13,22.83,22.83,0,0,0,1.08-3.61,55.16,55.16,0,0,0,.94-6.56c.34-3.81.33-6.2.66-6.26s1.1,2.32,1.32,6.29a35.38,35.38,0,0,1-.29,7,21.51,21.51,0,0,1-1,4.16,10.93,10.93,0,0,1-2.53,4.21,10.21,10.21,0,0,1-4.38,2.37,19.92,19.92,0,0,1-4.26.63,32.94,32.94,0,0,1-7-.53c-3.91-.7-6.17-1.74-6.1-2S235.83,396.75,239.66,396.83Z"/><path class="cls-2" d="M230.1,313.59c.56,0,1.22,5,1.22,11.14s-.81,11.14-1.22,11.14-1.22-5-1.22-11.14S229.54,313.59,230.1,313.59Z"/><path class="cls-2" d="M230.1,342.18c.56,0,1.22,5,1.22,11.14s-.81,11.14-1.22,11.14-1.22-5-1.22-11.14S229.54,342.18,230.1,342.18Z"/><path class="cls-2" d="M230.1,370.78c.56,0,1.22,5,1.22,11.14s-.81,11.14-1.22,11.14-1.22-5-1.22-11.14S229.54,370.78,230.1,370.78Z"/><path class="cls-4" d="M281.93,922.6a98.26,98.26,0,0,0-1.5,23.39,4.43,4.43,0,0,0,1.38,2.94c1.9,1.82,5.38,5.61,6.43,9.82,1.47,5.88-3.47,16.6,17.1,21,5.62.86,16.06,1.33,24.82-.54,15.25-3.62,10.92-23.7,10.92-23.7l-14.07-18-2.82-15.65a4.49,4.49,0,0,0-5.3-3.61c-8.35,1.67-19.35,1.72-32.15.7A4.51,4.51,0,0,0,281.93,922.6Z"/><path class="cls-5" d="M281.94,914a96.83,96.83,0,0,0-1.66,25s6.49,5.26,8,11.13-3.47,16.6,17.1,21c0,0,11.94,1.47,22.59,0s17.92-10.66,10.1-23l-11-19.28-2.82-15.65a4.49,4.49,0,0,0-5.3-3.61c-7,1.4-15.91,1.66-26.16,1.1q-2.93-.16-6-.41A4.5,4.5,0,0,0,281.94,914Z"/><path class="cls-4" d="M180.45,922.6A98.26,98.26,0,0,1,182,946a4.43,4.43,0,0,1-1.38,2.94c-1.9,1.82-5.38,5.61-6.43,9.82-1.47,5.88,3.47,16.6-17.1,21-5.62.86-16.06,1.33-24.82-.54-15.25-3.62-10.92-23.7-10.92-23.7l14.07-18,2.82-15.65a4.49,4.49,0,0,1,5.3-3.61c8.35,1.67,19.35,1.72,32.16.7A4.51,4.51,0,0,1,180.45,922.6Z"/><path class="cls-5" d="M180.45,914a96.82,96.82,0,0,1,1.66,25s-6.49,5.26-8,11.13,3.47,16.6-17.1,21c0,0-11.94,1.47-22.59,0s-17.92-10.66-10.1-23l11-19.28,2.82-15.65a4.49,4.49,0,0,1,5.3-3.61c7,1.4,15.91,1.66,26.16,1.1q2.93-.16,6-.41A4.5,4.5,0,0,1,180.45,914Z"/><path class="cls-6" d="M152.92,361.68c0-43.89-52.16-126.84-38-151.56s56.89-39.56,69-46.31a15.1,15.1,0,0,0,5.92-6.85c28.46,19.83,49.66,20,81.1,0a15.11,15.11,0,0,0,5.92,6.85c12.15,6.75,54.86,21.6,69,46.31s-38,107.67-38,151.56c0,25.51,6.21,108.54,6.21,108.54H146.91S152.92,387.63,152.92,361.68Z"/><path class="cls-7" d="M325.44,941.27l-3.06-2a7.12,7.12,0,0,1-3.2-5.94V907.06a3.84,3.84,0,0,0-2.35-3.55c-7.87-3.28-15.85-4-24-.46a3.82,3.82,0,0,0-2.11,4.65l7.66,24.62a7.12,7.12,0,0,1-1.91,7.29l-4.31,4.06C301.46,936.78,312.87,937.06,325.44,941.27Z"/><path class="cls-4" d="M294.21,915c-3.22-.23-5.27-.25-5.32-.66s1.95-1,5.32-1.28a35.12,35.12,0,0,1,5.94.08,42.26,42.26,0,0,1,7.16,1.37c.4.12.78.25,1.17.37,1.06-.24,2.1-.45,3.09-.61a43.08,43.08,0,0,1,5.66-.54c3.24-.08,5.23.28,5.23.64,0,.58-4,1-9.63,2.21.43.2.86.39,1.27.59a35.14,35.14,0,0,1,5.06,3.1c2.71,2,4,3.66,3.82,3.92s-2-.77-4.85-2.29c-1.42-.77-3.15-1.6-5.09-2.45-1.46-.61-3-1.22-4.73-1.77-.89.24-1.79.5-2.71.79-9.09,2.77-15.79,6.82-16.24,6.15-.2-.3,1.24-1.72,4-3.48a43,43,0,0,1,5-2.75,53.41,53.41,0,0,1,5.08-2.05c-1.22-.27-2.4-.5-3.53-.7C297.73,915.36,295.82,915.15,294.21,915Z"/><path class="cls-4" d="M298,925.88a34.06,34.06,0,0,1,5.65.24,41.51,41.51,0,0,1,5,1,36.6,36.6,0,0,1,4.61-1.2,29.82,29.82,0,0,1,5.12-.5c2.94,0,4.71.45,4.69.8,0,.64-4.35.82-10,2.36a41.71,41.71,0,0,1,3.8,1.72,34,34,0,0,1,4.77,3c2.55,2,3.8,3.54,3.57,3.81-.52.64-6.64-4.16-15.58-6.9l-.9-.27-.59.22c-7.9,3-13.14,7.69-13.71,7.1-.25-.25.75-1.78,2.93-3.75a29.74,29.74,0,0,1,4.13-3.08c.89-.55,1.86-1.08,2.89-1.59-6.49-1.35-11.43-1.21-11.48-1.87C292.84,926.62,294.76,926,298,925.88Z"/><path class="cls-7" d="M136.94,941.27l3.06-2a7.12,7.12,0,0,0,3.2-5.94V907.06a3.84,3.84,0,0,1,2.35-3.55c7.87-3.28,15.85-4,24-.46a3.82,3.82,0,0,1,2.11,4.65L164,932.33a7.12,7.12,0,0,0,1.91,7.29l4.31,4.06C160.92,936.78,149.51,937.06,136.94,941.27Z"/><path class="cls-4" d="M168.18,915c3.22-.23,5.27-.25,5.32-.66s-1.95-1-5.32-1.28a35.12,35.12,0,0,0-5.94.08,42.27,42.27,0,0,0-7.16,1.37c-.4.12-.78.25-1.17.37-1.06-.24-2.1-.45-3.09-.61a43.08,43.08,0,0,0-5.66-.54c-3.24-.08-5.23.28-5.23.64,0,.58,4,1,9.63,2.21-.43.2-.86.39-1.27.59a35.14,35.14,0,0,0-5.06,3.1c-2.71,2-4,3.66-3.82,3.92s2-.77,4.85-2.29c1.42-.77,3.15-1.6,5.09-2.45,1.46-.61,3-1.22,4.73-1.77.89.24,1.79.5,2.71.79,9.09,2.77,15.79,6.82,16.24,6.15.2-.3-1.24-1.72-4-3.48a43,43,0,0,0-5-2.75,53.47,53.47,0,0,0-5.09-2.05c1.22-.27,2.4-.5,3.53-.7C164.66,915.36,166.56,915.15,168.18,915Z"/><path class="cls-4" d="M164.4,925.88a34.05,34.05,0,0,0-5.65.24,41.49,41.49,0,0,0-5,1,36.6,36.6,0,0,0-4.61-1.2,29.81,29.81,0,0,0-5.12-.5c-2.94,0-4.71.45-4.69.8,0,.64,4.35.82,10,2.36-1.35.54-2.63,1.12-3.8,1.72a34,34,0,0,0-4.77,3c-2.55,2-3.8,3.54-3.57,3.81.52.64,6.64-4.16,15.58-6.9l.9-.27.59.22c7.9,3,13.14,7.69,13.71,7.1.25-.25-.75-1.78-2.93-3.75a29.74,29.74,0,0,0-4.13-3.08c-.89-.55-1.86-1.08-2.89-1.59,6.49-1.35,11.43-1.21,11.48-1.87C169.55,926.62,167.62,926,164.4,925.88Z"/><path class="cls-8" d="M327.24,913H276L262.14,695.58,233.66,563.71h-8.79s-13,71.06-31.66,130.72c.89,14.74-8.28,218.58-8.28,218.58H132.11s-3.7-151.08,1.78-229.76c1.85-26.54-1.26-123.32,6.83-178.1l4.94-35.88,168.81.94,5.79,34.94c8.09,54.77,5.66,152.62,6.63,179.21C328.07,717.19,329.68,807.23,327.24,913Z"/><path class="cls-9" d="M145.66,469.28l16.1.09,9.1,10.6-34.56,76.63c.87-18.74,2.24-36.62,4.42-51.44Z"/><path class="cls-9" d="M320.26,505.16c2.34,15.84,3.8,35.29,4.71,55.58L288.54,480l8.45-9.85,17.47.1Z"/><path class="cls-9" d="M223.32,470.22h11.75a0,0,0,0,1,0,0v64.56a0,0,0,0,1,0,0H221.29a0,0,0,0,1,0,0V472.24A2,2,0,0,1,223.32,470.22Z" transform="translate(456.36 1005) rotate(180)"/><path class="cls-10" d="M315.35,468.05l2.3,19.5a1486.27,1486.27,0,0,1-174.75,0l3-19.5Q229.47,470.3,315.35,468.05Z"/><circle class="cls-11" cx="229.27" cy="479.97" r="3.43"/><polygon class="cls-11" points="184.02 467.58 182.5 490.6 174.74 490.6 176.65 467.58 184.02 467.58"/><polygon class="cls-11" points="275.38 467.58 276.89 490.6 284.65 490.6 282.75 467.58 275.38 467.58"/><rect class="cls-11" x="220.46" y="469.16" width="0.84" height="20.97"/><rect class="cls-12" x="223.63" y="172.03" width="13.13" height="297.12" transform="translate(460.39 641.18) rotate(180)"/><polygon class="cls-13" points="190.09 150.51 180.7 164.46 215.97 191.75 230.2 172.03 190.09 150.51"/><polygon class="cls-13" points="269.94 151.01 280.16 164.46 244.9 191.75 230.2 172.03 269.94 151.01"/><circle class="cls-14" cx="230.2" cy="196.87" r="2.42"/><circle class="cls-14" cx="230.2" cy="227.93" r="2.42"/><circle class="cls-14" cx="230.2" cy="258.99" r="2.42"/><circle class="cls-14" cx="230.2" cy="290.04" r="2.42"/><circle class="cls-14" cx="230.2" cy="321.1" r="2.42"/><circle class="cls-14" cx="230.2" cy="352.16" r="2.42"/><circle class="cls-14" cx="230.2" cy="383.22" r="2.42"/><circle class="cls-14" cx="230.2" cy="414.27" r="2.42"/><circle class="cls-14" cx="230.2" cy="445.33" r="2.42"/><path class="cls-15" d="M287.71,480.28c-30.68-25.9-37.22-83.55-33.3-176.45S290.91,165.5,290.91,165.5l44.32,16.66c27.45,14.72,41.5,41.23,37.83,83.32L316,314.3C297.53,442.13,370.36,509.78,314,566L317.2,525C312.64,511.86,305.66,495.44,287.71,480.28Z"/><path class="cls-15" d="M164.21,472.94c29.52-27.21,39.25-76.21,35.33-169.11S163,165.5,163,165.5l-44.32,16.66c-27.45,14.72-41.51,41.23-37.83,83.32l55.4,45.67c27.93,122-63.75,149.13-15.69,236.51C120.58,547.66,122.76,511.14,164.21,472.94Z"/><path class="cls-16" d="M153.82,465.16C183.34,438,193.06,389,189.14,296.05c-2.89-68.4,6.48-85.12,10.39,7.78s-5.8,141.9-35.33,169.11C122.76,511.14,125.91,490.88,153.82,465.16Z"/><path class="cls-17" d="M362.9,470.8c-1.71,7.18-3.38,14.32-4.89,21.36l-3,43.29-18,22.67L315,568a5,5,0,0,1-4.13-9.2l15.51-8.93,7.16-16.35a2.75,2.75,0,0,0-4.93-2.44l-4.89,9.34a5.22,5.22,0,0,1-9.56-4.1l10.17-29.81,15.25-19.66q-1.07-8.2-2.16-16.05h-222q-1.08,7.86-2.16,16.05l15.25,19.66,10.17,29.81a5.22,5.22,0,0,1-9.56,4.1l-4.89-9.34a2.75,2.75,0,0,0-4.93,2.44l7.16,16.35L142,558.81a5,5,0,0,1-4.13,9.2l-22-9.88-18-22.67-3-43.29c-1.52-7-3.19-14.19-4.89-21.36H76.43V574.6H383.49V470.8Z"/><path class="cls-2" d="M324.35,506.52l-10.17,29.81a5.22,5.22,0,0,0,9.56,4.1l4.89-9.34a2.75,2.75,0,0,1,4.93,2.44l-7.16,16.35-15.51,8.93A5,5,0,0,0,315,568l22-9.88,18-22.67,3-43.29c1.52-7,3.19-14.19,4.89-21.36H337.45q1.08,7.86,2.16,16.05Z"/><path class="cls-2" d="M97.89,535.46l18,22.67,22,9.88a5,5,0,0,0,4.13-9.2l-15.51-8.93-7.16-16.35a2.75,2.75,0,0,1,4.93-2.44l4.89,9.34a5.22,5.22,0,0,0,9.56-4.1l-10.17-29.81-15.25-19.66q1.07-8.2,2.16-16.05H90c1.71,7.18,3.38,14.32,4.89,21.36Z"/><path class="cls-15" d="M335.71,182.45c27.41,14.8,46.35,41.35,42.57,83.43,0,0,10.1,73.13,9.22,101.84s-15.54,106-15.54,106l-46.13-4.32L325.32,359l-11.38-54.44C302.3,259.76,285.21,178,335.71,182.45Z"/><path class="cls-15" d="M119.18,181.88c-27.49,14.65-46.57,41.11-43,83.2,0,0-9.19,73.07-9.76,101.79-.56,28.21,6.48,96.49,17.23,111.14l44.69-8.65-7.81-101.2,19.79-64.1C152.19,259.36,169.71,177.72,119.18,181.88Z"/><path class="cls-18" d="M272.31,204.83q11.5-2.43,22.83-5.56c15.88-4.41,31.69-9.91,48-12.36,14.46,9.58,25.8,23,31.52,40.9-36.87.2-73.71,2.8-110.56,4.77A289,289,0,0,1,272.31,204.83Z"/><path class="cls-18" d="M95.15,200.48a385,385,0,0,0,89.2,12.5c2.08,6.57,4.11,13.84,6,21.79-36.73-.25-73.44-3.14-109-11.53A73.8,73.8,0,0,1,95.15,200.48Z"/><path class="cls-19" d="M76.18,265.08a101.93,101.93,0,0,1,1.49-29.34c27.5,8,57.37,6.2,86.24,4.67q13.7-.73,27.41-1.33c1.92,8.69,3.63,18.15,5,28.4L75.21,272C75.81,267.65,76.18,265.08,76.18,265.08Z"/><path class="cls-19" d="M257.9,265.27c1.46-10.32,3.24-19.84,5.24-28.54q36-.78,72.09-.78,13.75,0,27.5.14c4.12,0,9.3-.55,14.08-.21a101.42,101.42,0,0,1,1.47,30s.32,2.36.85,6.37C339.4,264.53,298.59,264.14,257.9,265.27Z"/><path class="cls-12" d="M199.54,303.83c.11,2.71.21,5.37.31,8-23.83.77-45.58,1.92-62.76,3.05l0-.24-.08.24c-18.43,1.21-31.57,2.39-36.24,3l-17.21,2.31c-3.84.52-9.92,3.06-14.43,2.82,1.65-16.33,3.71-32.81,5.19-44L197,272.81C198.19,282.5,199.07,292.82,199.54,303.83Z"/><path class="cls-12" d="M254.13,310.93c.09-2.35.18-4.7.28-7.1.51-12.11,1.52-23.39,2.87-33.88,40.84-1.51,81.72-1.37,122.24,5.2,1.35,10.42,3.55,28.25,5.31,46.23C352.24,313.47,302.8,310.95,254.13,310.93Z"/><path class="cls-19" d="M305.64,200.4c.83-.91,5.24,1.68,10.62,6.05,4.35-4.58,8.13-7.38,9.08-6.57s-1.22,5-5.05,10l.07.06c7.09,6.42,12,12.55,11,13.69s-7.53-3.09-14.57-9.44c-5.3,6.08-10.36,10.17-11.48,9.22s2.19-6.74,7.46-13C307.84,205.46,304.81,201.31,305.64,200.4Z"/><path class="cls-19" d="M337.54,202.64c-2-2.73-2.91-4.71-2.36-5.24s2.47.49,5.14,2.46c1.47,1.07,3.17,2.41,5,3.87,3.2-4.3,6.14-7,7.16-6.33s-.25,4.64-3,9.52l.77.56c3.91,2.8,7.72,5.13,10.43,7.05s4.29,3.38,4,4.08-2.48.47-5.72-.57A45.13,45.13,0,0,1,347.08,212l-.43-.33c-3.85,5.74-7.75,9.65-9,8.87s.84-6.32,4.69-12.47A44.75,44.75,0,0,1,337.54,202.64Z"/><path class="cls-19" d="M140.22,218.54c-2.63-3.49-4-6.23-3.24-6.94s3.63.93,7.14,4c3.36-2.23,6.19-3.25,6.93-2.35s-.66,3.2-3.21,5.86l1.05,1.09c5.47,5.8,9,11.35,7.88,12.4s-6.45-2.8-11.92-8.59l-1.11-1.21c-4.4,3.47-8.58,5.34-9.5,4.21S136,222.17,140.22,218.54Z"/><path class="cls-19" d="M117,219.4c1-.77,2.3-1.66,3.69-2.68-2-4.22-2.35-7.76-1.23-8.23s3.11,1.72,5.4,5c2.55-2,4.51-3.6,5.54-3,.64.38.68,1.74-.09,3.6a14.17,14.17,0,0,1-2.57,3.91c2.76,4.59,4.61,8.47,3.53,9.42s-4.66-1.53-7.85-6a13.54,13.54,0,0,1-5.09,1.69c-2,.2-3.32-.29-3.47-1S115.61,220.43,117,219.4Z"/><path class="cls-19" d="M98.45,212.94c-2.54-4.41-3.25-8.35-2.06-8.93s3.89,2.22,6.77,6.19c3.09-1.49,5.54-2,6.12-1.11s-.82,2.92-3.38,5.17c2.35,3.73,3.76,6.8,2.83,7.67s-4-.94-7.08-4.47c-4.84,3.15-9.38,4.69-10.21,3.43S93.74,216.13,98.45,212.94Z"/><path class="cls-6" d="M271.9,265.35c-.06.26,1.68,1.11,5.08,1a22,22,0,0,0,6.05-1.08,33.38,33.38,0,0,0,7.32-3.48A61.45,61.45,0,0,0,298,256c1.14-1,2.3-2,3.47-3.06,1.27,1.38,2.63,2.81,4.19,4.21a24,24,0,0,0,9.73,5.57,26.57,26.57,0,0,0,12,.25,42.64,42.64,0,0,0,11-3.85c1.61-.8,3.15-1.65,4.63-2.5.31.33.6.66.92,1a39.08,39.08,0,0,0,18.35,10.21,36.1,36.1,0,0,0,8,1.06c1.18.07,2.29,0,3.29-.07s1.92-.22,2.74-.32c1.63-.31,1.44-1.86-.14-1.84l-2.61-.1c-.95-.1-2-.13-3.07-.31a39.64,39.64,0,0,1-7.28-1.65,38.26,38.26,0,0,1-16.12-10l-.2-.22.6-.36c5.58-3.42,10.55-6.2,15.09-7.58a29.92,29.92,0,0,1,11-1.52c2.66.19,4.16.6,4.29.26s-1.17-1.28-4-2.08a25.57,25.57,0,0,0-12.22.1,42.53,42.53,0,0,0-8,2.71c-2.75,1.22-5.55,2.72-8.42,4.32l-1.31.73c-1.38-1.75-2.8-3.62-4.42-5.5a31.76,31.76,0,0,0-4.93-4.7,18.71,18.71,0,0,0-6.65-3.2,19.64,19.64,0,0,0-7.31-.4,26.51,26.51,0,0,0-6.67,1.76,38.61,38.61,0,0,0-10.65,6.74c-.62.53-1.2,1.06-1.79,1.59a37.17,37.17,0,0,0-6.12-5c-4.4-2.88-8.91-3.81-11.88-3.37a10.92,10.92,0,0,0-1.94.42,10.5,10.5,0,0,0-1.32.58c-.67.42-1,.7-.89.85.15.38,1.62-.22,4.21,0a18.84,18.84,0,0,1,9.9,4.28,39.43,39.43,0,0,1,5.19,4.95c-1.15,1.1-2.25,2.19-3.32,3.21a68.76,68.76,0,0,1-6.92,6,35.75,35.75,0,0,1-6.38,3.78,25.85,25.85,0,0,1-5.31,1.72C273.75,265.16,272,265,271.9,265.35Zm32.76-15.15c.49-.41,1-.83,1.49-1.24a36,36,0,0,1,9.56-5.79,18.71,18.71,0,0,1,11.12-1.08c3.63.86,6.62,3.41,9.24,6.36,1.33,1.48,2.59,3.06,3.87,4.63a47.69,47.69,0,0,1-13.41,5.19,22.85,22.85,0,0,1-9.9-.08,20.4,20.4,0,0,1-8.06-4.39C307.2,252.66,305.91,251.44,304.65,250.21Z"/><path class="cls-6" d="M178.35,239.23c.05-.26-1.72-1-5.12-.83a22,22,0,0,0-6,1.31,33.35,33.35,0,0,0-7.18,3.76,61.47,61.47,0,0,0-7.46,6.16c-1.1,1-2.22,2.1-3.35,3.19-1.32-1.33-2.74-2.7-4.35-4a24.05,24.05,0,0,0-9.94-5.18,26.57,26.57,0,0,0-12,.22,42.63,42.63,0,0,0-10.81,4.28c-1.58.87-3.08,1.77-4.53,2.68-.32-.31-.62-.64-1-.94a39.08,39.08,0,0,0-18.74-9.48,36.1,36.1,0,0,0-8-.74c-1.18,0-1.2,2.51-.1,2.66a39.55,39.55,0,0,1,7.34,1.36,38.25,38.25,0,0,1,16.5,9.39l.21.21-.59.38c-5.44,3.63-10.3,6.61-14.78,8.17a30.6,30.6,0,0,1-9.6,1.94c-2.32-.11-2.32,1.95,0,2.14A27,27,0,0,0,89.49,265a42.6,42.6,0,0,0,7.87-3c2.7-1.33,5.44-2.94,8.25-4.65l1.28-.78c1.45,1.69,2.94,3.51,4.63,5.32a31.82,31.82,0,0,0,5.11,4.5,18.71,18.71,0,0,0,6.77,2.93,19.64,19.64,0,0,0,7.32.11,26.52,26.52,0,0,0,6.6-2,38.6,38.6,0,0,0,10.37-7.16c.6-.55,1.16-1.1,1.72-1.65,9.55,12,29.47,8,32.42,7.44a10.88,10.88,0,0,0,1.92-.5,10.35,10.35,0,0,0,1.29-.64c.65-.44.93-.74.86-.88-.16-.37-1.61.28-4.2.17s-18.43,2.87-29.54-8.37c1.1-1.15,2.16-2.27,3.19-3.33a68.78,68.78,0,0,1,6.68-6.26,35.76,35.76,0,0,1,6.23-4,25.84,25.84,0,0,1,5.24-1.93C176.51,239.49,178.31,239.61,178.35,239.23Zm-32.14,16.42c-.48.43-1,.87-1.44,1.29a36,36,0,0,1-9.33,6.16,18.7,18.7,0,0,1-11.07,1.52c-3.67-.72-6.75-3.15-9.48-6-1.39-1.43-2.7-3-4.05-4.47a47.67,47.67,0,0,1,13.2-5.71,22.84,22.84,0,0,1,9.9-.31,20.4,20.4,0,0,1,8.23,4.07C143.58,253.29,144.92,254.47,146.22,255.65Z"/><path class="cls-18" d="M74.9,312.2c2.58-3.06,5.61-6.71,9-10.82l3.54,2.89,7.28,5.9,3.95,3.17,5.28,4.2.61-.06L118.67,300l12.66,10.29,4.89,4,16.68-17.57,6.84,5.81,6.16,5.18,3,2.48,2.6,2.2.32.27.16.14c.06.08.09-.07.14-.09l.54-.65,1.07-1.29,1.52-1.88,1.11-1.4,2.14-2.73,3.95-5.17c1.07-1.42,2.06-2.78,3-4.1,1.66,1.93,3.2,3.71,4.58,5.28,5.1,5.8,8.13,9,8.42,8.77s-2.19-3.84-6.81-10c-1.37-1.83-2.95-3.91-4.67-6.17,2.76-3.91,5-7.28,6.52-10,2.36-4,3.21-6.45,3-6.55s-1.61,2-4.35,5.69c-1.72,2.33-4,5.27-6.74,8.73l-2.16-2.81-5.27-6.78-2.87-3.66L172,274.08l-2.92.15-16.19,16.61-.26.27-3.29-2.88L135.15,276l-2.78.14-1.64,2.06-12.67,16L116,292.53,97.84,278.08,89.62,288.8l-6.32,8.34-.17.22c-2.23-1.64-4.29-3.14-6.13-4.47q-2.28-1.65-4.13-2.95L72.61,292l3,2.56c1.76,1.48,3.75,3.13,5.92,4.92-3.22,4.29-6.08,8.13-8.46,11.39q-1.77,2.42-3.18,4.4-.17,1.58-.34,3.17C71,316.74,72.83,314.65,74.9,312.2Zm80.76-18.43.21-.23,8.36-8.89,3.95-4.22,1.91-2,.2-.21,0,0,.07-.08.15-.18,10.38,12.28,2.73,3.2q-1.7,2.11-3.61,4.42l-4.14,5-2.22,2.63-1.15,1.35-.58.68-.15.17-.06.06-.11.11s-.07.08-.11,0l-.25-.25-2.88-2.55-6-5.32Zm-34.4,3,12.85-16.06,0-.05,12.41,10.62,3.25,2.76-14,14.48h0l-.1-.08-1.67-1.35Zm-35.61,2.45.17-.21,12.65-15.58.1.1,0,0,0,0,.24.2,2,1.63,4,3.33,8.43,6.9,2.17,1.76-6.59,8.42L105.62,310,104,312.1a3,3,0,0,0-.31.42l-.09.14L89.33,301.94Z"/><path class="cls-18" d="M379,304.71c-2.41-3.18-5.31-6.94-8.57-11.12,2-1.85,3.93-3.56,5.59-5.1s3.31-3.07,4.6-4.31l-.22-1.8c-1.58,1.2-3.51,2.7-5.77,4.48-1.75,1.39-3.7,2.95-5.81,4.66l-.17-.22-6.4-8.14L354,272.7l-17.18,15-1.94,1.71L322,273.78l-2.87-3.48-14.89,14.13-3.11,3-.26-.26L283,269.36l-4,5.56-2.67,3.75-4.9,6.93-2,2.87c-2.79-3.37-5.08-6.24-6.82-8.52-2.78-3.59-4.13-5.69-4.41-5.55s.67,2.53,3.09,6.46c1.59,2.63,3.84,5.93,6.65,9.75-1.61,2.31-3.07,4.44-4.35,6.31-4.29,6.31-6.59,10-6.3,10.21s3.14-3.07,7.91-9c1.29-1.61,2.73-3.43,4.28-5.41,1,1.29,2,2.62,3.06,4l4,5,2.16,2.66,1.12,1.36,1.54,1.83,1.08,1.26.55.64s.09.18.14.09l.15-.14.31-.28L286,306.9l2.79-2.56L294.6,299l6.46-6,16.75,17,4.63-4.1,12-10.67L349,312.61,354.3,308l3.73-3.29,6.88-6.12,3.34-3c3.4,4,6.45,7.56,9.05,10.54,2.76,3.16,5,5.7,6.72,7.53l-.27-2.59C382.48,309.28,380.89,307.16,379,304.71ZM298.3,290.14,292,296.19l-5.69,5.5-2.72,2.64-.23.26c0,.07-.07,0-.11,0l-.11-.11-.06-.06-.15-.16-.59-.66-1.16-1.31-2.24-2.56-4.18-4.85q-1.93-2.26-3.64-4.31l2.55-3.28,9.7-12.59.15.18.07.08,0,0,.2.2,1.92,2,4,4.1,8.39,8.63Zm33.5,2-12.13,10.69-1.58,1.4-.1.09h0l-14-14,3.07-2.86,11.72-11,0,0Zm34.66,1.36L363,296.29l-13.54,11.15-.09-.14a3.14,3.14,0,0,0-.32-.41l-1.62-2-3.33-4.12-6.67-8.21,2.05-1.83,8-7.16,3.83-3.45,1.87-1.69.23-.21,0,0,0,0,.09-.1,12.77,15.19Z"/><path class="cls-16" d="M254.4,303.83c3.92-92.9,36.51-138.34,36.51-138.34l7.11,2.67c-9,16-29.19,59.41-32.23,131.35-3.92,92.9,2.63,150.55,33.3,176.45,18,15.15,6.56,19.47-11.39,4.31C257,454.39,250.48,396.73,254.4,303.83Z"/><path class="cls-20" d="M308.73,172.2c-10-11.36-21.36-13.51-32.58-15,0,0-28.32,122.46-22.46,167.71C264.71,261.06,301.51,238,308.73,172.2Z"/><path class="cls-20" d="M144.64,172.2c10-11.36,21.36-13.51,32.58-15,0,0,28.87,122.46,23,167.71C189.21,261.06,151.87,238,144.64,172.2Z"/><polygon class="cls-21" points="325.46 469.3 372.14 473.29 364.33 504.78 327.3 501.23 325.46 469.3"/><ellipse class="cls-15" cx="332.45" cy="486.02" rx="1.39" ry="10.26" transform="translate(-29.72 21.73) rotate(-3.58)"/><path class="cls-15" d="M341.52,475.6c.77.2.16,4.89-.1,10.63s-.16,10.47-.94,10.59-2.14-4.66-1.83-10.72S340.81,475.39,341.52,475.6Z"/><ellipse class="cls-15" cx="347.41" cy="487.11" rx="9.89" ry="1.39" transform="translate(-176.86 775.4) rotate(-83.31)"/><path class="cls-15" d="M357.87,476.86c.75.07.84,5.09-.67,11s-4,10.3-4.65,10,.53-5,2-10.7S357.1,476.77,357.87,476.86Z"/><path class="cls-15" d="M365.47,480.19c.74.08.82,4.6-.76,9.87s-4.11,9-4.77,8.67.63-4.44,2.11-9.46S364.69,480.09,365.47,480.19Z"/><polygon class="cls-21" points="128.13 468.82 83.48 477.24 91.6 506.71 128.33 500.8 128.13 468.82"/><ellipse class="cls-15" cx="122.22" cy="485.96" rx="1.39" ry="10.26" transform="translate(-0.56 0.14) rotate(-0.07)"/><path class="cls-15" d="M112.5,476.13c-.75.25.15,4.89.78,10.6s.83,10.43,1.62,10.51,1.84-4.78,1.14-10.82S113.2,475.88,112.5,476.13Z"/><ellipse class="cls-15" cx="107.36" cy="488" rx="1.39" ry="9.89" transform="translate(-85.91 27.22) rotate(-10.35)"/><path class="cls-15" d="M96.26,478.43c-.74.12-.51,5.13,1.38,11s4.61,10,5.28,9.7-.84-4.93-2.64-10.55S97,478.3,96.26,478.43Z"/><path class="cls-15" d="M88.89,482.24c-.74.13-.53,4.64,1.39,9.8s4.67,8.73,5.32,8.35-.91-4.39-2.71-9.31S89.66,482.09,88.89,482.24Z"/><ellipse class="cls-14" cx="261.03" cy="325.37" rx="5.2" ry="7.78"/><ellipse class="cls-14" cx="262.42" cy="383.14" rx="5.2" ry="7.78"/><ellipse class="cls-14" cx="272.83" cy="442.95" rx="5.2" ry="7.78" transform="translate(-132.42 116.74) rotate(-19.54)"/><path class="cls-2" d="M185.53,78.12s-7.15-12.48-13.62-7.7c-11,8.14.36,46.15,14.09,40.08Z"/><path class="cls-3" d="M183.1,80.35s-5-8-9.38-4.94c-7.54,5.13,3.16,32.62,9.82,25.53Z"/><path class="cls-2" d="M268.87,78.12s7.15-12.48,13.62-7.7c11,8.14-.36,46.15-14.09,40.08Z"/><path class="cls-3" d="M271.3,80.35s5-8,9.38-4.94c7.54,5.13-3.16,32.62-9.82,25.53Z"/><path class="cls-2" d="M227.2,157c-16.47,0-44.6-17.08-46.08-37.24L176,50c-1.53-20.86,16.81-38.53,40-38.53h22.43c23.17,0,41.52,17.68,40,38.53l-5.12,69.83C271.79,140,243.66,157,227.2,157Z"/><path class="cls-22" d="M227.28,0c18,0,29.73,11.52,38,17.7,29.72.56,13.25,55.61,13.25,55.61L275.31,92s3.16-55.86-11.17-63.43c-11.11-5.87-8.34,1.51-37.63,1.1s-27.71-10.05-41.13,1.44c-9.24,7.91-6.27,61.31-6.27,61.31L176.5,74.21s-18.38-38.27.84-57.82C185.26,8.33,206.27,0,227.28,0Z"/><ellipse class="cls-3" cx="227.2" cy="135.86" rx="5.49" ry="0.57"/><path class="cls-23" d="M234,65.57l.22,2.07a2.33,2.33,0,0,0,3.06,2.05c12.26-4.54,23.7-7.68,29.2-.83a.84.84,0,0,0,1.34,0h0a1,1,0,0,0,0-1.16l-3.74-5a7.63,7.63,0,0,0-7.27-3.05l-20.89,3.27A2.37,2.37,0,0,0,234,65.57Z"/><path class="cls-23" d="M220.1,65.25l-.18,2.07a2.31,2.31,0,0,1-3,2.11c-12.22-4.31-23.6-7.23-28.94-.27a.83.83,0,0,1-1.32,0h0a1,1,0,0,1,0-1.16l3.62-5a7.55,7.55,0,0,1,7.14-3.19l20.75,2.87A2.36,2.36,0,0,1,220.1,65.25Z"/><path class="cls-24" d="M216.59,77.16c-6.09-8.16-15-9.53-22.43-.47C205.67,86,212.81,78.68,216.59,77.16Z"/><ellipse class="cls-25" cx="205.17" cy="75.51" rx="5.45" ry="5.46"/><circle cx="205.17" cy="75.51" r="3.06"/><circle class="cls-24" cx="206.7" cy="74.17" r="0.61"/><path class="cls-3" d="M216.59,77.16c-2.27-5.8-7.14-7.55-11.42-7.53a11.78,11.78,0,0,0-11,7.05C202.11,70.17,210.62,71,216.59,77.16Z"/><path class="cls-24" d="M237.8,77.16c6.09-8.16,15-9.53,22.43-.47C248.72,86,241.58,78.68,237.8,77.16Z"/><ellipse class="cls-25" cx="249.22" cy="75.51" rx="5.45" ry="5.46"/><circle cx="249.22" cy="75.51" r="3.06"/><circle class="cls-24" cx="250.55" cy="74.17" r="0.61"/><path class="cls-3" d="M237.8,77.16c2.27-5.8,7.14-7.55,11.42-7.53a11.78,11.78,0,0,1,11,7.05C252.28,70.17,243.77,71,237.8,77.16Z"/><path class="cls-3" d="M239.82,100.79a4.32,4.32,0,0,0-1.14-1.86,4.72,4.72,0,0,0-1.23-.88c-.33-.16-.55-.2-.61-.13s.42.64,1,1.51a4.31,4.31,0,0,1,.67,1.59,2.6,2.6,0,0,1-.28,1.86,1.59,1.59,0,0,1-1.48.76,2.92,2.92,0,0,1-.87-.33,8.85,8.85,0,0,0-1-.45,2.6,2.6,0,0,0-.78-.16c.42-.63.53-1.06.43-1.11s-.8.62-2,1.52a10.57,10.57,0,0,1-2.23,1.32,8.2,8.2,0,0,1-3.09.68,8.4,8.4,0,0,1-3.12-.6,11.15,11.15,0,0,1-2.3-1.24c-1.22-.86-1.87-1.54-2.05-1.44s0,.38.34.89a2.6,2.6,0,0,0-.69.15,8.8,8.8,0,0,0-1,.45,2.93,2.93,0,0,1-.87.33,1.59,1.59,0,0,1-1.48-.76,2.6,2.6,0,0,1-.28-1.86,4.32,4.32,0,0,1,.67-1.59c.59-.87,1.15-1.37,1-1.51s-.28,0-.61.13a4.73,4.73,0,0,0-1.23.88,4.32,4.32,0,0,0-1.14,1.86,3.23,3.23,0,0,0,.31,2.67,2.93,2.93,0,0,0,1.27,1.08,2.81,2.81,0,0,0,1.77.19,3.66,3.66,0,0,0,1.25-.59c.3-.21.55-.39.77-.52a1.88,1.88,0,0,1,.73-.25c.15.17.3.34.49.52a8.93,8.93,0,0,0,2.41,1.63,8.78,8.78,0,0,0,3.74.81,8.67,8.67,0,0,0,6-2.62l.31-.34a1.87,1.87,0,0,1,.8.26c.22.13.46.31.77.52a3.67,3.67,0,0,0,1.25.59,2.81,2.81,0,0,0,1.77-.19,2.93,2.93,0,0,0,1.27-1.08A3.23,3.23,0,0,0,239.82,100.79Z"/><path class="cls-26" d="M232.41,112.15c-2.45.17-2.89,1.93-5.22,1.95s-2.77-1.77-5.22-1.95c-5.16-.47-8.41.46-14.52,3.58,4.17,6.4,3.49,12.57,19.73,13.19,16.24-.63,15.56-6.8,19.74-13.19C240.82,112.62,237.58,111.69,232.41,112.15Z"/><path class="cls-27" d="M245.72,115.89c0,.07-.35.43-1.19.94a13.78,13.78,0,0,1-3.9,1.5,72.85,72.85,0,0,1-13.43,1.33,74.13,74.13,0,0,1-13.35-1.54,13.75,13.75,0,0,1-4-1.3c-.22-.12-.41-.22-.57-.33l-.38-.29c-.2-.16-.29-.27-.26-.31s.17,0,.4.08l.43.17c.17.07.37.13.59.21a18.47,18.47,0,0,0,3.89.83,45.26,45.26,0,0,0,5.93.22c2.24,0,4.7-.16,7.3-.17,1.31,0,2.58.06,3.81.14s2.4.16,3.52.22,2.18.08,3.17.06a22.08,22.08,0,0,0,2.73-.24C243.78,116.87,245.6,115.67,245.72,115.89Z"/><path class="cls-22" d="M239.68,105c3.29,1.15,6,3.55,8.9,5.44s6.54,3.35,9.86,2.29a8.36,8.36,0,0,1-6.39,3.9l1.54.85a12.31,12.31,0,0,1-10.42-.5l1.2,1.15a13.86,13.86,0,0,1-8.89-3.81l1,1.6c-2.49-.46-5.08-1-7.09-2.51-2.23-1.72-3.83-5.79-.79-7.42A14,14,0,0,1,239.68,105Z"/><path class="cls-22" d="M216.29,105c-3.29,1.15-6,3.55-8.9,5.44s-6.54,3.35-9.86,2.29a8.36,8.36,0,0,0,6.39,3.9l-1.54.85a12.31,12.31,0,0,0,10.42-.5l-1.2,1.15a13.86,13.86,0,0,0,8.89-3.81l-1,1.6c2.49-.46,5.08-1,7.09-2.51,2.23-1.72,3.83-5.79.79-7.42A14,14,0,0,0,216.29,105Z"/></g></svg>