<svg xmlns="http://www.w3.org/2000/svg" xmlns:xlink="http://www.w3.org/1999/xlink" width="460.82" height="1008.2" viewBox="0 0 460.82 1008.2"><defs><style>.cls-1{fill:#fff;}.cls-2{opacity:0.1;}.cls-3{fill:#93562a;}.cls-4{fill:#723b17;}.cls-5{fill:#ffc197;}.cls-6{fill:#fca76d;}.cls-7{fill:#73c197;}.cls-8{fill:#034b6b;}.cls-9{fill:#337187;}.cls-10{fill:#085e7c;}.cls-11{fill:#013547;}.cls-12{fill:#e0d5d3;}.cls-13{fill:#592b1d;}.cls-14{fill:#421a11;}.cls-15{fill:#e5e5e5;}.cls-16{fill:#cecccc;}.cls-17{fill:#40a069;}.cls-18{fill:#8ed6ad;}.cls-19{fill:#50ad78;}.cls-20{fill:#a1e5bd;}.cls-21{fill:#9fc48c;}.cls-22{fill:#d4e8ca;}.cls-23{fill:#2b211a;}.cls-24{clip-path:url(#clip-path);}.cls-25{fill:#5e381d;}.cls-26{clip-path:url(#clip-path-2);}</style><clipPath id="clip-path"><path id="SVGID" class="cls-1" d="M242.46,103.76c-.14-2.93,6.33-6.26,10-6.23,3.23,0,10,1.91,9.61,5.79-.2,2.24-1.94,4.3-9.61,4.3S242.54,105.52,242.46,103.76Z"/></clipPath><clipPath id="clip-path-2"><path id="SVGID-2" data-name="SVGID" class="cls-1" d="M217.81,103.76c.14-2.93-6.33-6.26-10-6.23-3.23,0-10,1.91-9.61,5.79.2,2.24,1.94,4.3,9.61,4.3S217.73,105.52,217.81,103.76Z"/></clipPath></defs><title>image-3</title><g id="Layer_1" data-name="Layer 1"><ellipse class="cls-2" cx="230.41" cy="951" rx="202.9" ry="57.21"/><path class="cls-3" d="M117.72,230.43c13.79-24.05,55.37-38.5,67.19-45.07s10-36.13,10-36.13h70.49s-1.84,29.56,10,36.13,53.4,21,67.19,45.07-40.73,104.79-40.73,147.51c0,30.61,4.6,31.41,4.6,94.47H153.84c0-63.06,4.6-63.86,4.6-94.47C158.44,335.22,103.92,254.48,117.72,230.43Z"/><path class="cls-4" d="M271.52,181.89c-13.27-6.8-11,3.61-37.14,9.56-17.22,3.93-38.79-8.5-42.06-17,3.45-10.92,2.57-25.25,2.57-25.25h70.49S264,171.82,271.52,181.89Z"/><path class="cls-5" d="M148.6,905c1.3-17.14-20.72-113.46-8.4-170.89,0,0,4.68-27.53,2.59-49.91S136,572.64,144.09,518l10.37-75.36H306L316.36,518c8.06,54.61,3.39,143.76,1.3,166.13s2.59,49.91,2.59,49.91c12.32,57.43-9.69,153.75-8.4,170.89,0,26.64,26.85,43.56,22.15,63.49-2.2,9.32-21.21,12.89-33.87,9.07-13.43-4.05-10.22-13.32-13.43-21.71-1.81-4.75-5.8-8.19-6.5-11.15-1.94-8.2,5-23.58,5-41,0-61.53-20.75-100.63-8.43-159.91-6.2-16.46-10.08-32.74-9.08-48.61-15.31-48.92-26.79-95.17-27.51-133.94h-20c-.72,38.77-12.19,85-27.51,133.94,1,15.87-2.88,32.15-9.08,48.61C196,803,175.22,842.1,175.22,903.63c0,17.46,6.48,27.35,4.54,35.55-.94,4-3.85,7.36-7.18,15.1-3.56,8.28-.59,16.27-11.07,21.19-15.24,7.16-36.23,1.83-37.48-14C122.47,941.79,148.63,931.61,148.6,905Z"/><path class="cls-6" d="M142.29,269.29c.5,0,.89,5.27,2.65,13.54a115.73,115.73,0,0,0,4,14.22c.93,2.61,2,5.35,3.24,8.06a29.52,29.52,0,0,0,4.7,7.54A13.65,13.65,0,0,0,164,317a35.67,35.67,0,0,0,8.36.79c5.53,0,10.6-.37,14.85-.64,8.51-.6,13.81-1,13.85-.64s-5.11,1.61-13.58,3a124.58,124.58,0,0,1-15.08,1.67,35.76,35.76,0,0,1-9.27-.59,17,17,0,0,1-4.87-1.91,17.92,17.92,0,0,1-4.14-3.42,31.3,31.3,0,0,1-5.28-8.58,88.45,88.45,0,0,1-6.4-23.37C141.33,274.65,141.9,269.29,142.29,269.29Z"/><path class="cls-6" d="M259.25,316.47c0-.32,5.34,0,13.85.64,4.25.27,9.32.68,14.85.64a35.67,35.67,0,0,0,8.36-.79,13.65,13.65,0,0,0,7.06-4.3,29.52,29.52,0,0,0,4.7-7.54c1.23-2.71,2.31-5.45,3.24-8.06a115.9,115.9,0,0,0,4-14.22c1.76-8.26,2.15-13.56,2.64-13.54s1,5.36-.11,14a88.46,88.46,0,0,1-6.4,23.37,31.29,31.29,0,0,1-5.28,8.58,17.93,17.93,0,0,1-4.14,3.42,17,17,0,0,1-4.87,1.91,35.76,35.76,0,0,1-9.27.59,124.61,124.61,0,0,1-15.08-1.67C264.35,318.08,259.2,316.77,259.25,316.47Z"/><path class="cls-6" d="M229.07,271c0-13.38.57-24.22,1.07-24.22s1.07,10.85,1.07,24.22-.71,24.22-1.07,24.22S229.07,284.4,229.07,271Z"/><path class="cls-6" d="M200.57,332.49c.33.05.31,2.38.64,6.09a53.7,53.7,0,0,0,.91,6.39,22.22,22.22,0,0,0,1,3.52,8.64,8.64,0,0,0,1.86,3.05c1.63,1.56,4.3,2.12,6.61,2.42a47.93,47.93,0,0,0,6.44.25c3.73-.08,6.06-.36,6.12-.13s-2.14,1.22-5.94,1.91a32,32,0,0,1-6.82.52,19.35,19.35,0,0,1-4.15-.61,9.94,9.94,0,0,1-4.26-2.3,10.63,10.63,0,0,1-2.46-4.1,21,21,0,0,1-1-4,34.44,34.44,0,0,1-.28-6.83C199.5,334.76,200.25,332.43,200.57,332.49Z"/><path class="cls-6" d="M201.94,361.6c.33.05.31,2.38.65,6.09a53.71,53.71,0,0,0,.91,6.39,22.22,22.22,0,0,0,1,3.52,8.64,8.64,0,0,0,1.86,3.05c1.63,1.56,4.3,2.12,6.61,2.42a47.93,47.93,0,0,0,6.44.25c3.73-.08,6.06-.36,6.12-.13s-2.14,1.22-5.94,1.91a32,32,0,0,1-6.82.52,19.35,19.35,0,0,1-4.15-.61,9.93,9.93,0,0,1-4.26-2.3,10.63,10.63,0,0,1-2.46-4.1,21,21,0,0,1-1-4,34.44,34.44,0,0,1-.28-6.83C200.87,363.86,201.61,361.54,201.94,361.6Z"/><path class="cls-6" d="M203.3,390.7c.33.05.31,2.38.65,6.09a53.58,53.58,0,0,0,.91,6.39,22.22,22.22,0,0,0,1,3.52,8.63,8.63,0,0,0,1.86,3.05c1.63,1.56,4.3,2.12,6.61,2.42a48,48,0,0,0,6.44.25c3.73-.08,6.06-.36,6.12-.13s-2.14,1.22-5.94,1.91a32.06,32.06,0,0,1-6.82.52,19.39,19.39,0,0,1-4.15-.62,9.93,9.93,0,0,1-4.26-2.3,10.63,10.63,0,0,1-2.46-4.1,20.93,20.93,0,0,1-1-4,34.44,34.44,0,0,1-.28-6.83C202.24,393,203,390.64,203.3,390.7Z"/><path class="cls-6" d="M253,355.89a19.35,19.35,0,0,1-4.15.61A32,32,0,0,1,242,356c-3.81-.69-6-1.69-5.94-1.91s2.39.06,6.12.13a47.93,47.93,0,0,0,6.44-.25c2.32-.3,5-.87,6.61-2.42a8.63,8.63,0,0,0,1.86-3.05,22.17,22.17,0,0,0,1-3.52,53.7,53.7,0,0,0,.91-6.39c.34-3.71.32-6,.64-6.09s1.07,2.26,1.28,6.12a34.47,34.47,0,0,1-.28,6.83,21,21,0,0,1-1,4,10.64,10.64,0,0,1-2.46,4.1A9.94,9.94,0,0,1,253,355.89Z"/><path class="cls-6" d="M251.61,385a19.35,19.35,0,0,1-4.15.61,32,32,0,0,1-6.82-.52c-3.81-.69-6-1.69-5.94-1.91s2.39.06,6.12.13a47.93,47.93,0,0,0,6.44-.25c2.32-.3,5-.87,6.61-2.42a8.63,8.63,0,0,0,1.86-3.05,22.17,22.17,0,0,0,1-3.52,53.71,53.71,0,0,0,.91-6.39c.34-3.71.32-6,.65-6.09s1.07,2.26,1.28,6.12a34.48,34.48,0,0,1-.28,6.83,21,21,0,0,1-1,4,10.63,10.63,0,0,1-2.46,4.1A9.93,9.93,0,0,1,251.61,385Z"/><path class="cls-6" d="M239.44,412.42a48,48,0,0,0,6.44-.25c2.32-.3,5-.87,6.61-2.42a8.63,8.63,0,0,0,1.86-3.05,22.17,22.17,0,0,0,1-3.52,53.58,53.58,0,0,0,.91-6.39c.34-3.71.32-6,.65-6.09s1.07,2.26,1.28,6.12a34.47,34.47,0,0,1-.28,6.83,21,21,0,0,1-1,4,10.63,10.63,0,0,1-2.46,4.1,9.94,9.94,0,0,1-4.26,2.3,19.39,19.39,0,0,1-4.15.62,32.06,32.06,0,0,1-6.82-.52c-3.81-.69-6-1.69-5.94-1.91S235.71,412.35,239.44,412.42Z"/><path class="cls-6" d="M230.13,331.41c.55,0,1.18,4.85,1.18,10.84s-.79,10.84-1.18,10.84-1.18-4.85-1.18-10.84S229.59,331.41,230.13,331.41Z"/><path class="cls-6" d="M230.13,359.24c.55,0,1.18,4.85,1.18,10.84s-.79,10.84-1.18,10.84-1.18-4.85-1.18-10.84S229.59,359.24,230.13,359.24Z"/><path class="cls-6" d="M230.13,387.07c.55,0,1.18,4.85,1.18,10.84s-.79,10.84-1.18,10.84-1.18-4.85-1.18-10.84S229.59,387.07,230.13,387.07Z"/><path class="cls-7" d="M152.31,381.7c0-43.66-51.89-126.17-37.79-150.76s56.59-39.35,68.67-46.07a15,15,0,0,0,5.89-6.81L207,195.73l22.4,26.92,21.35-26.85,19-17.72a15,15,0,0,0,5.89,6.81c12.08,6.71,54.57,21.48,68.67,46.07S306.52,338,306.52,381.7c0,25.37,6.18,108,6.18,108H146.33S152.31,407.51,152.31,381.7Z"/><path class="cls-8" d="M320.89,899.68h-41.8L261,703.19,233.32,574.85h-8.55S212.11,644,193.95,702.08c.87,14.34-11.39,197.6-11.39,197.6h-43s-8.69-131.9-3.36-208.48c1.8-25.83-1.23-120,6.64-173.34l4.81-34.92,164.82-.22,5.12,35.14c7.87,53.31,5.51,148.54,6.45,174.42C325.21,724.22,323.26,796.72,320.89,899.68Z"/><rect class="cls-9" x="274.57" y="896.1" width="49.82" height="16.37" transform="translate(598.97 1808.56) rotate(180)"/><rect class="cls-9" x="135.84" y="896.1" width="49.82" height="16.37" transform="translate(321.5 1808.56) rotate(180)"/><path class="cls-10" d="M223.31,494.45h11.38a0,0,0,0,1,0,0v52.24a0,0,0,0,1,0,0H221.28a0,0,0,0,1,0,0V496.47A2,2,0,0,1,223.31,494.45Z" transform="translate(455.97 1041.14) rotate(180)"/><path class="cls-11" d="M317.6,517.86c1.94,13.16,3.26,28.89,4.16,45.49l-42.62-77.27,14.58-3.33,18.75,0Z"/><path class="cls-11" d="M142.86,517.86l4.81-34.92,18.21,0,13.85,3.16L139,560C139.8,544.67,141,530.17,142.86,517.86Z"/><path class="cls-12" d="M278.82,924.15a95.61,95.61,0,0,0-1.46,22.77,4.31,4.31,0,0,0,1.34,2.86c1.85,1.77,5.24,5.46,6.26,9.55,1.43,5.72-3.37,16.15,16.65,20.44a75,75,0,0,0,24.16-.52c14.84-3.53,10.63-23.06,10.63-23.06L322.7,938.67,320,923.43a4.37,4.37,0,0,0-5.16-3.51c-8.12,1.62-18.84,1.68-31.3.68A4.39,4.39,0,0,0,278.82,924.15Z"/><path class="cls-13" d="M278.83,915.75a94.24,94.24,0,0,0-1.61,24.35s6.32,5.12,7.75,10.84-3.37,16.15,16.65,20.44a98.93,98.93,0,0,0,22,0C334,969.95,341,961,333.43,949L322.7,930.27,320,915a4.37,4.37,0,0,0-5.16-3.51c-6.83,1.36-15.48,1.62-25.46,1.07q-2.85-.16-5.84-.4A4.38,4.38,0,0,0,278.83,915.75Z"/><path class="cls-14" d="M321.17,942.32l-3-2a6.93,6.93,0,0,1-3.12-5.78V909a3.74,3.74,0,0,0-2.28-3.45c-7.65-3.2-15.42-3.85-23.37-.45a3.72,3.72,0,0,0-2.05,4.53l7.46,24a6.93,6.93,0,0,1-1.86,7.1l-4.19,4C297.83,937.95,308.94,938.22,321.17,942.32Z"/><path class="cls-12" d="M290.77,916.79c-3.14-.23-5.13-.24-5.18-.64s1.9-1,5.18-1.25a34.18,34.18,0,0,1,5.78.08,41.14,41.14,0,0,1,7,1.33c.39.11.76.24,1.14.36,1-.24,2-.44,3-.6a41.92,41.92,0,0,1,5.51-.53c3.15-.08,5.09.27,5.09.62,0,.57-3.91,1-9.38,2.15l1.23.58a34.21,34.21,0,0,1,4.93,3c2.64,2,3.93,3.56,3.72,3.82s-1.95-.74-4.72-2.23c-1.38-.75-3.06-1.56-5-2.38-1.42-.59-3-1.18-4.6-1.72-.86.24-1.74.49-2.64.77-8.85,2.7-15.37,6.64-15.81,6-.19-.29,1.2-1.67,3.85-3.39a41.87,41.87,0,0,1,4.84-2.68,51.94,51.94,0,0,1,4.95-2c-1.19-.27-2.34-.49-3.44-.68C294.19,917.11,292.34,916.9,290.77,916.79Z"/><path class="cls-12" d="M294.44,927.34a33.14,33.14,0,0,1,5.5.23,40.4,40.4,0,0,1,4.83.93,35.58,35.58,0,0,1,4.48-1.17,29,29,0,0,1,5-.49c2.86,0,4.58.44,4.57.78,0,.62-4.23.8-9.73,2.3,1.32.52,2.56,1.09,3.7,1.68a33.12,33.12,0,0,1,4.64,3c2.49,1.91,3.7,3.45,3.48,3.71-.5.62-6.46-4-15.16-6.71l-.87-.26-.57.22c-7.69,2.91-12.79,7.48-13.34,6.91-.24-.24.73-1.74,2.85-3.65a29,29,0,0,1,4-3c.87-.53,1.81-1.05,2.81-1.55-6.32-1.32-11.12-1.18-11.17-1.82C289.44,928.06,291.31,927.49,294.44,927.34Z"/><path class="cls-12" d="M180.05,924.15a95.64,95.64,0,0,1,1.46,22.77,4.31,4.31,0,0,1-1.34,2.86c-1.85,1.77-5.24,5.46-6.26,9.55-1.43,5.72,3.37,16.15-16.65,20.44a75,75,0,0,1-24.16-.52c-14.84-3.53-10.63-23.06-10.63-23.06l13.69-17.53,2.75-15.24a4.37,4.37,0,0,1,5.16-3.51c8.12,1.62,18.84,1.68,31.3.68A4.39,4.39,0,0,1,180.05,924.15Z"/><path class="cls-13" d="M180,915.75a94.24,94.24,0,0,1,1.61,24.35s-6.32,5.12-7.75,10.84,3.37,16.15-16.65,20.44a98.93,98.93,0,0,1-22,0c-10.37-1.43-17.45-10.37-9.83-22.34l10.73-18.77L138.92,915a4.37,4.37,0,0,1,5.16-3.51c6.83,1.36,15.48,1.62,25.46,1.07q2.85-.16,5.84-.4A4.38,4.38,0,0,1,180,915.75Z"/><path class="cls-14" d="M137.71,942.32l3-2a6.93,6.93,0,0,0,3.12-5.78V909a3.74,3.74,0,0,1,2.28-3.45c7.65-3.2,15.42-3.85,23.37-.45a3.72,3.72,0,0,1,2.05,4.53l-7.46,24a6.93,6.93,0,0,0,1.86,7.1l4.19,4C161,937.95,149.94,938.22,137.71,942.32Z"/><path class="cls-12" d="M168.11,916.79c3.14-.23,5.13-.24,5.18-.64s-1.9-1-5.18-1.25a34.18,34.18,0,0,0-5.78.08,41.14,41.14,0,0,0-7,1.33c-.39.11-.76.24-1.14.36-1-.24-2-.44-3-.6a41.92,41.92,0,0,0-5.51-.53c-3.15-.08-5.09.27-5.09.62,0,.57,3.91,1,9.38,2.15l-1.23.58a34.21,34.21,0,0,0-4.93,3c-2.64,2-3.93,3.56-3.72,3.82s1.95-.74,4.72-2.23c1.38-.75,3.06-1.56,5-2.38,1.42-.59,3-1.18,4.6-1.72.86.24,1.74.49,2.64.77,8.85,2.7,15.37,6.64,15.81,6,.19-.29-1.2-1.67-3.85-3.39a41.88,41.88,0,0,0-4.84-2.68,51.93,51.93,0,0,0-4.95-2c1.19-.27,2.34-.49,3.44-.68C164.68,917.11,166.54,916.9,168.11,916.79Z"/><path class="cls-12" d="M164.43,927.34a33.14,33.14,0,0,0-5.5.23,40.41,40.41,0,0,0-4.83.93,35.58,35.58,0,0,0-4.48-1.17,29,29,0,0,0-5-.49c-2.86,0-4.58.44-4.57.78,0,.62,4.23.8,9.73,2.3-1.32.52-2.56,1.09-3.7,1.68a33.12,33.12,0,0,0-4.64,3c-2.49,1.91-3.7,3.45-3.48,3.71.5.62,6.46-4,15.16-6.71l.87-.26.57.22c7.69,2.91,12.79,7.48,13.34,6.91.24-.24-.73-1.74-2.85-3.65a29,29,0,0,0-4-3c-.87-.53-1.81-1.05-2.81-1.55,6.32-1.32,11.12-1.18,11.17-1.82C169.44,928.06,167.57,927.49,164.43,927.34Z"/><path class="cls-13" d="M312,472.05l3.47,20.32q-84.52,2.93-170.77,0l2.9-20.33Q230.86,474.92,312,472.05Z"/><polygon class="cls-15" points="251.65 472.04 253.04 495.09 207.19 495.09 208.82 472.04 251.65 472.04"/><polygon class="cls-16" points="244.61 475.81 245.55 491.33 214.69 491.33 215.78 475.81 244.61 475.81"/><polygon class="cls-8" points="185.66 472.04 184.19 494.45 176.63 494.45 178.48 472.04 185.66 472.04"/><polygon class="cls-8" points="274.57 472.04 276.05 494.45 283.61 494.45 281.75 472.04 274.57 472.04"/><path class="cls-3" d="M289.2,499.48s7.83-9.21,15.67-17.1c6.41-6.46,17.61-47.55,27.2-75.34h0c.28-1.79,5.07-17.69,5.47-19.35-9.69-23.21-19.06-65.29-19.07-93.35,0,0-21.15-74.42,7.1-80.86,48.31-2.3,43.51,75,43.51,75,8.12,21.75,9.28,54.68,5.74,84.41A92.69,92.69,0,0,1,377,383h0c2.93,9.76.46,14.1-2,24.08-13.25,53.23-35.16,67.78-49.21,95.56L314,541.12l-24.15,14.36-20.12-20.53Z"/><path class="cls-3" d="M171.07,499.48s-7.83-9.21-15.67-17.1c-6.41-6.46-17.61-47.55-27.2-75.34h0c-.28-1.79-5.07-17.69-5.47-19.35,9.69-23.21,19.05-65.29,19.07-93.35,0,0,21.15-74.42-7.1-80.86-48.31-2.3-43.51,75-43.51,75-8.12,21.75-9.28,54.68-5.74,84.41a92.8,92.8,0,0,0-2.23,10h0c-2.93,9.76-.46,14.1,2,24.08,13.25,53.23,35.16,67.78,49.21,95.56l11.81,38.52,24.15,14.36,20.12-20.53Z"/><polygon class="cls-8" points="283.61 493.27 286.39 493.21 321.04 551.54 322.27 573.74 262.25 574.85 252.36 529.8 283.61 493.27"/><polygon class="cls-8" points="176.88 493.27 174.09 493.21 139.45 551.54 138.3 573.74 198.24 574.85 208.13 529.8 176.88 493.27"/><path class="cls-11" d="M167.37,512.47a.75.75,0,1,1,1.29.76l-1.91,3.23a.75.75,0,1,1-1.29-.76Z"/><path class="cls-11" d="M176.27,497.39a.75.75,0,1,1,1.29.76l-1.91,3.23a.75.75,0,1,1-1.29-.76Z"/><path class="cls-11" d="M162.92,520a.75.75,0,1,1,1.29.76L162.31,524a.75.75,0,1,1-1.29-.76Z"/><path class="cls-11" d="M171.82,504.93a.75.75,0,1,1,1.29.76l-1.91,3.23a.75.75,0,1,1-1.29-.76Z"/><path class="cls-11" d="M158.47,527.54a.75.75,0,1,1,1.29.76l-1.91,3.23a.75.75,0,1,1-1.29-.76Z"/><path class="cls-11" d="M149.57,542.61a.75.75,0,1,1,1.29.76L149,546.6a.75.75,0,1,1-1.29-.76Z"/><path class="cls-11" d="M143.22,553.38l1.91-3.23a.75.75,0,1,1,1.29.76l-1.91,3.23a.75.75,0,1,1-1.29-.76Z"/><path class="cls-11" d="M154,535.08a.75.75,0,0,1,1.29.76l-1.91,3.23a.75.75,0,1,1-1.29-.76Z"/><path class="cls-11" d="M293.2,512.47a.75.75,0,1,0-1.29.76l1.91,3.23a.75.75,0,1,0,1.29-.76Z"/><path class="cls-11" d="M284.3,497.39a.75.75,0,1,0-1.29.76l1.91,3.23a.75.75,0,0,0,1.29-.76Z"/><path class="cls-11" d="M297.65,520a.75.75,0,1,0-1.29.76l1.91,3.23a.75.75,0,1,0,1.29-.76Z"/><path class="cls-11" d="M288.75,504.93a.75.75,0,1,0-1.29.76l1.91,3.23a.75.75,0,1,0,1.29-.76Z"/><path class="cls-11" d="M302.1,527.54a.75.75,0,1,0-1.29.76l1.91,3.23a.75.75,0,1,0,1.29-.76Z"/><path class="cls-11" d="M311,542.61a.75.75,0,1,0-1.29.76l1.91,3.23a.75.75,0,1,0,1.29-.76Z"/><path class="cls-11" d="M317.35,553.38l-1.91-3.23a.75.75,0,1,0-1.29.76l1.91,3.23a.75.75,0,1,0,1.29-.76Z"/><path class="cls-11" d="M306.55,535.08a.75.75,0,1,0-1.29.76l1.91,3.23a.75.75,0,1,0,1.29-.76Z"/><path class="cls-7" d="M123.54,388.88c.23.9,9.91,32.72,9.91,32.72L94,439s-7-18.54-9.88-30.29c-.46-1.86-.92-3.52-1.35-5.06-1.92-6.92-3.19-11.5-.72-19.72.59-3.55-3.92-56.1,8.1-96.17-.15-2.8-2.06-46.69,17.77-66.81,7.14-7.24,22.84-7.51,31.07-11.64,25,11.48,4.87,81.37,4,84.57C142.89,323.86,132.85,366.44,123.54,388.88Z"/><path class="cls-7" d="M337.28,388.88c-.23.9-9.91,32.72-9.91,32.72L366.86,439s7-18.54,9.88-30.29c.46-1.86.92-3.52,1.35-5.06,1.92-6.92,3.19-11.5.72-19.72-.59-3.55,3.92-56.1-8.1-96.17.15-2.8,2.06-46.69-17.77-66.81-7.14-7.24-22.84-7.51-31.07-11.64-25,11.48-4.87,81.37-4,84.57C317.93,323.86,328,366.44,337.28,388.88Z"/><circle class="cls-17" cx="271.65" cy="305.7" r="1.51"/><circle class="cls-17" cx="271.65" cy="273.59" r="1.51"/><circle class="cls-17" cx="271.65" cy="353.87" r="1.51"/><circle class="cls-17" cx="271.65" cy="321.76" r="1.51"/><circle class="cls-17" cx="271.65" cy="337.81" r="1.51"/><circle class="cls-17" cx="271.65" cy="209.37" r="1.51"/><circle class="cls-17" cx="192.98" cy="458.22" r="1.51"/><circle class="cls-17" cx="271.65" cy="225.43" r="1.51"/><circle class="cls-17" cx="271.65" cy="241.48" r="1.51"/><circle class="cls-17" cx="199.04" cy="385.98" r="1.51"/><circle class="cls-17" cx="271.65" cy="289.65" r="1.51"/><circle class="cls-17" cx="271.65" cy="193.32" r="1.51"/><circle class="cls-17" cx="271.65" cy="450.2" r="1.51"/><circle class="cls-17" cx="271.65" cy="466.25" r="1.51"/><circle class="cls-17" cx="271.65" cy="369.92" r="1.51"/><circle class="cls-17" cx="271.65" cy="385.98" r="1.51"/><circle class="cls-17" cx="271.65" cy="402.03" r="1.51"/><circle class="cls-17" cx="271.65" cy="434.14" r="1.51"/><circle class="cls-17" cx="271.65" cy="418.09" r="1.51"/><circle class="cls-17" cx="192.98" cy="329.79" r="1.51"/><circle class="cls-17" cx="192.98" cy="217.4" r="1.51"/><circle class="cls-17" cx="192.98" cy="201.35" r="1.51"/><circle class="cls-17" cx="192.98" cy="249.51" r="1.51"/><circle class="cls-17" cx="192.98" cy="233.46" r="1.51"/><circle class="cls-17" cx="192.98" cy="185.29" r="1.51"/><circle class="cls-17" cx="199.04" cy="418.09" r="1.51"/><circle class="cls-17" cx="199.04" cy="402.03" r="1.51"/><circle class="cls-17" cx="199.04" cy="450.2" r="1.51"/><circle class="cls-17" cx="192.98" cy="265.57" r="1.51"/><circle class="cls-17" cx="199.04" cy="434.14" r="1.51"/><circle class="cls-17" cx="199.04" cy="466.25" r="1.51"/><circle class="cls-17" cx="192.98" cy="410.06" r="1.51"/><circle class="cls-17" cx="192.98" cy="394" r="1.51"/><circle class="cls-17" cx="192.98" cy="361.89" r="1.51"/><circle class="cls-17" cx="192.98" cy="281.62" r="1.51"/><circle class="cls-17" cx="192.98" cy="426.11" r="1.51"/><circle class="cls-17" cx="192.98" cy="442.17" r="1.51"/><circle class="cls-17" cx="192.98" cy="377.95" r="1.51"/><circle class="cls-17" cx="192.98" cy="297.68" r="1.51"/><circle class="cls-17" cx="192.98" cy="313.73" r="1.51"/><circle class="cls-17" cx="192.98" cy="345.84" r="1.51"/><circle class="cls-17" cx="307.96" cy="466.25" r="1.51"/><circle class="cls-17" cx="271.65" cy="257.54" r="1.51"/><circle class="cls-17" cx="301.91" cy="217.4" r="1.51"/><circle class="cls-17" cx="301.91" cy="249.51" r="1.51"/><circle class="cls-17" cx="301.91" cy="233.46" r="1.51"/><circle class="cls-17" cx="301.91" cy="458.22" r="1.51"/><circle class="cls-17" cx="301.91" cy="281.62" r="1.51"/><circle class="cls-17" cx="307.96" cy="241.48" r="1.51"/><circle class="cls-17" cx="307.96" cy="209.37" r="1.51"/><circle class="cls-17" cx="301.91" cy="297.68" r="1.51"/><circle class="cls-17" cx="301.91" cy="201.35" r="1.51"/><circle class="cls-17" cx="307.96" cy="225.43" r="1.51"/><path class="cls-17" d="M306.44,418.09a1.49,1.49,0,0,1,.73-1.26q.07,1.31.15,2.62A1.51,1.51,0,0,1,306.44,418.09Z"/><circle class="cls-17" cx="301.91" cy="345.84" r="1.51"/><circle class="cls-17" cx="301.91" cy="410.06" r="1.51"/><circle class="cls-17" cx="301.91" cy="426.11" r="1.51"/><circle class="cls-17" cx="301.91" cy="394" r="1.51"/><circle class="cls-17" cx="301.91" cy="442.17" r="1.51"/><circle class="cls-17" cx="301.91" cy="313.73" r="1.51"/><circle class="cls-17" cx="301.91" cy="377.95" r="1.51"/><circle class="cls-17" cx="301.91" cy="329.79" r="1.51"/><circle class="cls-17" cx="307.96" cy="257.54" r="1.51"/><circle class="cls-17" cx="301.91" cy="361.89" r="1.51"/><circle class="cls-17" cx="320.06" cy="273.59" r="1.51"/><circle class="cls-17" cx="314.01" cy="249.51" r="1.51"/><path class="cls-17" d="M320.06,210.89a1.5,1.5,0,0,1-.66-2.86c.72.47,1.43.95,2.14,1.43h0A1.5,1.5,0,0,1,320.06,210.89Z"/><circle class="cls-17" cx="314.01" cy="217.4" r="1.51"/><circle class="cls-17" cx="314.01" cy="233.46" r="1.51"/><circle class="cls-17" cx="320.06" cy="305.7" r="1.51"/><circle class="cls-17" cx="320.06" cy="289.65" r="1.51"/><path class="cls-17" d="M308,355.38a1.51,1.51,0,0,1,0-3,1.49,1.49,0,0,1,1.43,1.09c-.13.51-.27,1-.4,1.52A1.5,1.5,0,0,1,308,355.38Z"/><circle class="cls-17" cx="320.06" cy="225.43" r="1.51"/><circle class="cls-17" cx="320.06" cy="241.48" r="1.51"/><path class="cls-17" d="M308,451.71a1.51,1.51,0,0,1,0-3,1.49,1.49,0,0,1,1.26.72l.1,1.44A1.5,1.5,0,0,1,308,451.71Z"/><circle class="cls-17" cx="320.06" cy="257.54" r="1.51"/><circle class="cls-17" cx="314.01" cy="297.68" r="1.51"/><circle class="cls-17" cx="314.01" cy="265.57" r="1.51"/><circle class="cls-17" cx="307.96" cy="337.81" r="1.51"/><circle class="cls-17" cx="307.96" cy="321.76" r="1.51"/><circle class="cls-17" cx="307.96" cy="305.7" r="1.51"/><circle class="cls-17" cx="307.96" cy="289.65" r="1.51"/><path class="cls-17" d="M306.44,434.14a1.51,1.51,0,0,1,1.51-1.51,1.36,1.36,0,0,1,.17,0l.19,2.92a1.45,1.45,0,0,1-.35.07A1.51,1.51,0,0,1,306.44,434.14Z"/><circle class="cls-17" cx="307.96" cy="273.59" r="1.51"/><circle class="cls-17" cx="314.01" cy="313.73" r="1.51"/><circle class="cls-17" cx="314.01" cy="281.62" r="1.51"/><circle class="cls-17" cx="314.01" cy="329.79" r="1.51"/><circle class="cls-17" cx="301.91" cy="265.57" r="1.51"/><circle class="cls-17" cx="217.19" cy="345.84" r="1.51"/><circle class="cls-17" cx="217.19" cy="297.68" r="1.51"/><circle class="cls-17" cx="217.19" cy="329.79" r="1.51"/><circle class="cls-17" cx="217.19" cy="313.73" r="1.51"/><circle class="cls-17" cx="211.14" cy="225.43" r="1.51"/><circle class="cls-17" cx="217.19" cy="281.62" r="1.51"/><circle class="cls-17" cx="217.19" cy="249.51" r="1.51"/><circle class="cls-17" cx="223.24" cy="450.2" r="1.51"/><circle class="cls-17" cx="217.19" cy="233.46" r="1.51"/><circle class="cls-17" cx="217.19" cy="217.4" r="1.51"/><circle class="cls-17" cx="217.19" cy="442.17" r="1.51"/><circle class="cls-17" cx="229.29" cy="394" r="1.51"/><circle class="cls-17" cx="217.19" cy="458.22" r="1.51"/><circle class="cls-17" cx="211.14" cy="209.37" r="1.51"/><circle class="cls-17" cx="217.19" cy="361.89" r="1.51"/><circle class="cls-17" cx="223.24" cy="466.25" r="1.51"/><circle class="cls-17" cx="217.19" cy="394" r="1.51"/><circle class="cls-17" cx="217.19" cy="377.95" r="1.51"/><circle class="cls-17" cx="217.19" cy="410.06" r="1.51"/><circle class="cls-17" cx="217.19" cy="426.11" r="1.51"/><circle class="cls-17" cx="217.19" cy="265.57" r="1.51"/><circle class="cls-17" cx="223.24" cy="241.48" r="1.51"/><circle class="cls-17" cx="223.24" cy="225.43" r="1.51"/><circle class="cls-17" cx="223.24" cy="434.14" r="1.51"/><circle class="cls-17" cx="229.29" cy="426.11" r="1.51"/><circle class="cls-17" cx="229.29" cy="410.06" r="1.51"/><circle class="cls-17" cx="229.29" cy="458.22" r="1.51"/><circle class="cls-17" cx="223.24" cy="257.54" r="1.51"/><circle class="cls-17" cx="229.29" cy="442.17" r="1.51"/><circle class="cls-17" cx="223.24" cy="385.98" r="1.51"/><circle class="cls-17" cx="223.24" cy="369.92" r="1.51"/><circle class="cls-17" cx="223.24" cy="402.03" r="1.51"/><circle class="cls-17" cx="223.24" cy="273.59" r="1.51"/><circle class="cls-17" cx="223.24" cy="418.09" r="1.51"/><circle class="cls-17" cx="223.24" cy="353.87" r="1.51"/><circle class="cls-17" cx="223.24" cy="289.65" r="1.51"/><circle class="cls-17" cx="223.24" cy="305.7" r="1.51"/><circle class="cls-17" cx="223.24" cy="337.81" r="1.51"/><circle class="cls-17" cx="223.24" cy="321.76" r="1.51"/><circle class="cls-17" cx="211.14" cy="466.25" r="1.51"/><circle class="cls-17" cx="205.09" cy="442.17" r="1.51"/><circle class="cls-17" cx="205.09" cy="410.06" r="1.51"/><circle class="cls-17" cx="205.09" cy="426.11" r="1.51"/><circle class="cls-17" cx="199.04" cy="193.32" r="1.51"/><circle class="cls-17" cx="205.09" cy="458.22" r="1.51"/><circle class="cls-17" cx="205.09" cy="345.84" r="1.51"/><circle class="cls-17" cx="205.09" cy="329.79" r="1.51"/><circle class="cls-17" cx="205.09" cy="377.95" r="1.51"/><circle class="cls-17" cx="205.09" cy="313.73" r="1.51"/><circle class="cls-17" cx="205.09" cy="361.89" r="1.51"/><circle class="cls-17" cx="205.09" cy="394" r="1.51"/><circle class="cls-17" cx="199.04" cy="305.7" r="1.51"/><circle class="cls-17" cx="199.04" cy="289.65" r="1.51"/><circle class="cls-17" cx="199.04" cy="321.76" r="1.51"/><circle class="cls-17" cx="199.04" cy="337.81" r="1.51"/><circle class="cls-17" cx="199.04" cy="353.87" r="1.51"/><circle class="cls-17" cx="199.04" cy="225.43" r="1.51"/><circle class="cls-17" cx="199.04" cy="273.59" r="1.51"/><circle class="cls-17" cx="199.04" cy="241.48" r="1.51"/><circle class="cls-17" cx="199.04" cy="209.37" r="1.51"/><circle class="cls-17" cx="199.04" cy="257.54" r="1.51"/><circle class="cls-17" cx="211.14" cy="353.87" r="1.51"/><circle class="cls-17" cx="211.14" cy="241.48" r="1.51"/><circle class="cls-17" cx="211.14" cy="369.92" r="1.51"/><circle class="cls-17" cx="211.14" cy="402.03" r="1.51"/><circle class="cls-17" cx="211.14" cy="418.09" r="1.51"/><circle class="cls-17" cx="211.14" cy="385.98" r="1.51"/><circle class="cls-17" cx="211.14" cy="337.81" r="1.51"/><circle class="cls-17" cx="211.14" cy="273.59" r="1.51"/><circle class="cls-17" cx="211.14" cy="257.54" r="1.51"/><circle class="cls-17" cx="205.09" cy="297.68" r="1.51"/><circle class="cls-17" cx="211.14" cy="289.65" r="1.51"/><circle class="cls-17" cx="211.14" cy="321.76" r="1.51"/><circle class="cls-17" cx="211.14" cy="305.7" r="1.51"/><circle class="cls-17" cx="205.09" cy="249.51" r="1.51"/><circle class="cls-17" cx="205.09" cy="233.46" r="1.51"/><circle class="cls-17" cx="211.14" cy="434.14" r="1.51"/><circle class="cls-17" cx="205.09" cy="265.57" r="1.51"/><circle class="cls-17" cx="205.09" cy="281.62" r="1.51"/><circle class="cls-17" cx="205.09" cy="217.4" r="1.51"/><circle class="cls-17" cx="199.04" cy="369.92" r="1.51"/><circle class="cls-17" cx="211.14" cy="450.2" r="1.51"/><circle class="cls-17" cx="205.09" cy="201.35" r="1.51"/><circle class="cls-17" cx="332.16" cy="321.76" r="1.51"/><circle class="cls-17" cx="332.16" cy="305.7" r="1.51"/><circle class="cls-17" cx="332.16" cy="353.87" r="1.51"/><circle class="cls-17" cx="362.42" cy="281.62" r="1.51"/><circle class="cls-17" cx="332.16" cy="337.81" r="1.51"/><circle class="cls-17" cx="338.21" cy="394" r="1.51"/><circle class="cls-17" cx="332.16" cy="225.43" r="1.51"/><circle class="cls-17" cx="332.16" cy="289.65" r="1.51"/><circle class="cls-17" cx="332.16" cy="241.48" r="1.51"/><circle class="cls-17" cx="332.16" cy="257.54" r="1.51"/><circle class="cls-17" cx="332.16" cy="273.59" r="1.51"/><circle class="cls-17" cx="326.11" cy="233.46" r="1.51"/><circle class="cls-17" cx="362.42" cy="426.11" r="1.51"/><circle class="cls-17" cx="326.11" cy="249.51" r="1.51"/><circle class="cls-17" cx="362.42" cy="249.51" r="1.51"/><circle class="cls-17" cx="362.42" cy="265.57" r="1.51"/><circle class="cls-17" cx="326.11" cy="329.79" r="1.51"/><path class="cls-17" d="M356.37,432.63a1.51,1.51,0,0,1,1.51,1.51,1.47,1.47,0,0,1-.25.78l-2.7-1.19A1.49,1.49,0,0,1,356.37,432.63Z"/><circle class="cls-17" cx="326.11" cy="265.57" r="1.51"/><circle class="cls-17" cx="326.11" cy="281.62" r="1.51"/><circle class="cls-17" cx="326.11" cy="313.73" r="1.51"/><circle class="cls-17" cx="326.11" cy="345.84" r="1.51"/><circle class="cls-17" cx="326.11" cy="297.68" r="1.51"/><circle class="cls-17" cx="326.11" cy="217.4" r="1.51"/><circle class="cls-17" cx="344.26" cy="418.09" r="1.51"/><circle class="cls-17" cx="344.26" cy="385.98" r="1.51"/><circle class="cls-17" cx="344.26" cy="402.03" r="1.51"/><circle class="cls-17" cx="338.21" cy="217.4" r="1.51"/><circle class="cls-17" cx="338.21" cy="410.06" r="1.51"/><circle class="cls-17" cx="344.26" cy="337.81" r="1.51"/><circle class="cls-17" cx="344.26" cy="321.76" r="1.51"/><circle class="cls-17" cx="344.26" cy="305.7" r="1.51"/><circle class="cls-17" cx="344.26" cy="353.87" r="1.51"/><circle class="cls-17" cx="332.16" cy="418.09" r="1.51"/><circle class="cls-17" cx="344.26" cy="369.92" r="1.51"/><path class="cls-17" d="M333.68,402a1.49,1.49,0,0,1-.75,1.28l.59-1.93A1.48,1.48,0,0,1,333.68,402Z"/><circle class="cls-17" cx="338.21" cy="265.57" r="1.51"/><circle class="cls-17" cx="338.21" cy="281.62" r="1.51"/><circle class="cls-17" cx="338.21" cy="249.51" r="1.51"/><circle class="cls-17" cx="338.21" cy="297.68" r="1.51"/><circle class="cls-17" cx="338.21" cy="233.46" r="1.51"/><circle class="cls-17" cx="338.21" cy="361.89" r="1.51"/><circle class="cls-17" cx="338.21" cy="377.95" r="1.51"/><circle class="cls-17" cx="338.21" cy="345.84" r="1.51"/><circle class="cls-17" cx="338.21" cy="329.79" r="1.51"/><circle class="cls-17" cx="338.21" cy="313.73" r="1.51"/><circle class="cls-17" cx="356.37" cy="273.59" r="1.51"/><circle class="cls-17" cx="374.52" cy="377.95" r="1.51"/><path class="cls-17" d="M373,297.68a1.49,1.49,0,0,1,.15-.64q.21.89.4,1.79A1.49,1.49,0,0,1,373,297.68Z"/><circle class="cls-17" cx="368.47" cy="273.59" r="1.51"/><circle class="cls-17" cx="374.52" cy="410.06" r="1.51"/><circle class="cls-17" cx="368.47" cy="289.65" r="1.51"/><circle class="cls-17" cx="374.52" cy="361.89" r="1.51"/><circle class="cls-17" cx="374.52" cy="313.73" r="1.51"/><circle class="cls-17" cx="374.52" cy="329.79" r="1.51"/><circle class="cls-17" cx="374.52" cy="345.84" r="1.51"/><circle class="cls-17" cx="374.52" cy="394" r="1.51"/><circle class="cls-17" cx="368.47" cy="321.76" r="1.51"/><circle class="cls-17" cx="368.47" cy="305.7" r="1.51"/><path class="cls-17" d="M379.06,386a1.49,1.49,0,0,1,.15-.64c.16.62.3,1.21.41,1.79A1.49,1.49,0,0,1,379.06,386Z"/><circle class="cls-17" cx="362.42" cy="297.68" r="1.51"/><path class="cls-17" d="M379.06,353.87a1.44,1.44,0,0,1,.06-.3c0,.21,0,.43,0,.64A1.47,1.47,0,0,1,379.06,353.87Z"/><circle class="cls-17" cx="295.85" cy="209.37" r="1.51"/><circle class="cls-17" cx="368.47" cy="369.92" r="1.51"/><circle class="cls-17" cx="368.47" cy="353.87" r="1.51"/><circle class="cls-17" cx="368.47" cy="337.81" r="1.51"/><circle class="cls-17" cx="368.47" cy="418.09" r="1.51"/><circle class="cls-17" cx="368.47" cy="402.03" r="1.51"/><circle class="cls-17" cx="368.47" cy="385.98" r="1.51"/><path class="cls-17" d="M368.47,259.05a1.51,1.51,0,0,1,0-3h.06q.27,1.46.49,2.9A1.5,1.5,0,0,1,368.47,259.05Z"/><path class="cls-17" d="M360.91,233.46a1.47,1.47,0,0,1,.23-.76q.56,1.1,1.07,2.23A1.49,1.49,0,0,1,360.91,233.46Z"/><circle class="cls-17" cx="362.42" cy="394" r="1.51"/><circle class="cls-17" cx="344.26" cy="289.65" r="1.51"/><circle class="cls-17" cx="356.37" cy="241.48" r="1.51"/><circle class="cls-17" cx="362.42" cy="410.06" r="1.51"/><circle class="cls-17" cx="356.37" cy="257.54" r="1.51"/><circle class="cls-17" cx="362.42" cy="329.79" r="1.51"/><circle class="cls-17" cx="362.42" cy="377.95" r="1.51"/><path class="cls-17" d="M367,434.14a1.51,1.51,0,0,1,1.51-1.51,1.48,1.48,0,0,1,.64.16l-1,2.8A1.49,1.49,0,0,1,367,434.14Z"/><circle class="cls-17" cx="362.42" cy="361.89" r="1.51"/><circle class="cls-17" cx="362.42" cy="345.84" r="1.51"/><circle class="cls-17" cx="362.42" cy="313.73" r="1.51"/><circle class="cls-17" cx="356.37" cy="418.09" r="1.51"/><circle class="cls-17" cx="356.37" cy="385.98" r="1.51"/><path class="cls-17" d="M356.37,226.94a1.5,1.5,0,0,1-.67-2.85q.92,1.15,1.76,2.37A1.5,1.5,0,0,1,356.37,226.94Z"/><circle class="cls-17" cx="356.37" cy="289.65" r="1.51"/><circle class="cls-17" cx="356.37" cy="402.03" r="1.51"/><circle class="cls-17" cx="356.37" cy="369.92" r="1.51"/><circle class="cls-17" cx="356.37" cy="353.87" r="1.51"/><circle class="cls-17" cx="356.37" cy="321.76" r="1.51"/><circle class="cls-17" cx="356.37" cy="305.7" r="1.51"/><circle class="cls-17" cx="356.37" cy="337.81" r="1.51"/><circle class="cls-17" cx="289.8" cy="410.06" r="1.51"/><circle class="cls-17" cx="289.8" cy="426.11" r="1.51"/><circle class="cls-17" cx="289.8" cy="442.17" r="1.51"/><circle class="cls-17" cx="289.8" cy="394" r="1.51"/><circle class="cls-17" cx="289.8" cy="458.22" r="1.51"/><circle class="cls-17" cx="289.8" cy="313.73" r="1.51"/><circle class="cls-17" cx="289.8" cy="329.79" r="1.51"/><circle class="cls-17" cx="344.26" cy="273.59" r="1.51"/><circle class="cls-17" cx="289.8" cy="361.89" r="1.51"/><circle class="cls-17" cx="289.8" cy="377.95" r="1.51"/><circle class="cls-17" cx="283.75" cy="305.7" r="1.51"/><circle class="cls-17" cx="283.75" cy="193.32" r="1.51"/><circle class="cls-17" cx="289.8" cy="297.68" r="1.51"/><circle class="cls-17" cx="283.75" cy="337.81" r="1.51"/><circle class="cls-17" cx="283.75" cy="353.87" r="1.51"/><circle class="cls-17" cx="283.75" cy="289.65" r="1.51"/><circle class="cls-17" cx="283.75" cy="321.76" r="1.51"/><circle class="cls-17" cx="283.75" cy="209.37" r="1.51"/><circle class="cls-17" cx="283.75" cy="225.43" r="1.51"/><circle class="cls-17" cx="283.75" cy="241.48" r="1.51"/><circle class="cls-17" cx="283.75" cy="273.59" r="1.51"/><circle class="cls-17" cx="283.75" cy="257.54" r="1.51"/><circle class="cls-17" cx="295.85" cy="434.14" r="1.51"/><circle class="cls-17" cx="295.85" cy="305.7" r="1.51"/><circle class="cls-17" cx="295.85" cy="321.76" r="1.51"/><circle class="cls-17" cx="295.85" cy="337.81" r="1.51"/><circle class="cls-17" cx="295.85" cy="353.87" r="1.51"/><circle class="cls-17" cx="295.85" cy="385.98" r="1.51"/><circle class="cls-17" cx="295.85" cy="369.92" r="1.51"/><circle class="cls-17" cx="295.85" cy="225.43" r="1.51"/><circle class="cls-17" cx="295.85" cy="241.48" r="1.51"/><circle class="cls-17" cx="295.85" cy="257.54" r="1.51"/><circle class="cls-17" cx="295.85" cy="289.65" r="1.51"/><circle class="cls-17" cx="289.8" cy="281.62" r="1.51"/><circle class="cls-17" cx="295.85" cy="273.59" r="1.51"/><circle class="cls-17" cx="289.8" cy="217.4" r="1.51"/><circle class="cls-17" cx="289.8" cy="233.46" r="1.51"/><circle class="cls-17" cx="295.85" cy="402.03" r="1.51"/><circle class="cls-17" cx="289.8" cy="249.51" r="1.51"/><circle class="cls-17" cx="289.8" cy="201.35" r="1.51"/><circle class="cls-17" cx="289.8" cy="265.57" r="1.51"/><circle class="cls-17" cx="295.85" cy="418.09" r="1.51"/><circle class="cls-17" cx="283.75" cy="369.92" r="1.51"/><circle class="cls-17" cx="295.85" cy="450.2" r="1.51"/><circle class="cls-17" cx="295.85" cy="466.25" r="1.51"/><circle class="cls-17" cx="289.8" cy="345.84" r="1.51"/><circle class="cls-17" cx="350.32" cy="249.51" r="1.51"/><circle class="cls-17" cx="283.75" cy="385.98" r="1.51"/><circle class="cls-17" cx="350.32" cy="281.62" r="1.51"/><circle class="cls-17" cx="350.32" cy="265.57" r="1.51"/><path class="cls-17" d="M348.92,218q.77.43,1.49.92l-.1,0A1.51,1.51,0,0,1,348.92,218Z"/><circle class="cls-17" cx="350.32" cy="233.46" r="1.51"/><path class="cls-17" d="M318.55,321.76a1.51,1.51,0,0,1,3,0,1.49,1.49,0,0,1-1.25,1.46c-.1-.68-.2-1.36-.3-2l-.69,1.87A1.49,1.49,0,0,1,318.55,321.76Z"/><circle class="cls-17" cx="277.7" cy="458.22" r="1.51"/><circle class="cls-17" cx="350.32" cy="426.11" r="1.51"/><path class="cls-17" d="M332.16,368.41a1.51,1.51,0,0,1,0,3,1.49,1.49,0,0,1-1.26-.72l-.25-.83A1.51,1.51,0,0,1,332.16,368.41Z"/><path class="cls-17" d="M338.21,424.6a1.51,1.51,0,0,1,1.51,1.51,1.48,1.48,0,0,1-.27.81l-2.68-1.18A1.49,1.49,0,0,1,338.21,424.6Z"/><circle class="cls-17" cx="344.26" cy="241.48" r="1.51"/><circle class="cls-17" cx="350.32" cy="394" r="1.51"/><circle class="cls-17" cx="350.32" cy="410.06" r="1.51"/><circle class="cls-17" cx="344.26" cy="225.43" r="1.51"/><circle class="cls-17" cx="344.26" cy="257.54" r="1.51"/><circle class="cls-17" cx="350.32" cy="313.73" r="1.51"/><circle class="cls-17" cx="350.32" cy="345.84" r="1.51"/><circle class="cls-17" cx="350.32" cy="377.95" r="1.51"/><circle class="cls-17" cx="350.32" cy="329.79" r="1.51"/><circle class="cls-17" cx="350.32" cy="361.89" r="1.51"/><circle class="cls-17" cx="350.32" cy="297.68" r="1.51"/><circle class="cls-17" cx="277.7" cy="201.35" r="1.51"/><circle class="cls-17" cx="277.7" cy="217.4" r="1.51"/><path class="cls-17" d="M277.7,186.8a1.51,1.51,0,0,1-1.4-.94l1.73.88A1.45,1.45,0,0,1,277.7,186.8Z"/><circle class="cls-17" cx="277.7" cy="249.51" r="1.51"/><circle class="cls-17" cx="277.7" cy="233.46" r="1.51"/><circle class="cls-17" cx="277.7" cy="265.57" r="1.51"/><circle class="cls-17" cx="283.75" cy="402.03" r="1.51"/><circle class="cls-17" cx="283.75" cy="418.09" r="1.51"/><circle class="cls-17" cx="283.75" cy="434.14" r="1.51"/><circle class="cls-17" cx="283.75" cy="466.25" r="1.51"/><circle class="cls-17" cx="283.75" cy="450.2" r="1.51"/><circle class="cls-17" cx="277.7" cy="410.06" r="1.51"/><circle class="cls-17" cx="277.7" cy="394" r="1.51"/><circle class="cls-17" cx="277.7" cy="377.95" r="1.51"/><circle class="cls-17" cx="277.7" cy="281.62" r="1.51"/><circle class="cls-17" cx="277.7" cy="361.89" r="1.51"/><circle class="cls-17" cx="277.7" cy="426.11" r="1.51"/><circle class="cls-17" cx="277.7" cy="442.17" r="1.51"/><circle class="cls-17" cx="277.7" cy="345.84" r="1.51"/><circle class="cls-17" cx="277.7" cy="297.68" r="1.51"/><circle class="cls-17" cx="277.7" cy="313.73" r="1.51"/><circle class="cls-17" cx="277.7" cy="329.79" r="1.51"/><circle class="cls-17" cx="180.88" cy="426.11" r="1.51"/><circle class="cls-17" cx="150.62" cy="305.7" r="1.51"/><circle class="cls-17" cx="150.62" cy="337.81" r="1.51"/><circle class="cls-17" cx="156.68" cy="394" r="1.51"/><circle class="cls-17" cx="150.62" cy="273.59" r="1.51"/><circle class="cls-17" cx="150.62" cy="289.65" r="1.51"/><circle class="cls-17" cx="150.62" cy="257.54" r="1.51"/><circle class="cls-17" cx="144.57" cy="281.62" r="1.51"/><path class="cls-17" d="M144.57,328.27a1.51,1.51,0,1,1,0,3,1.47,1.47,0,0,1-.73-.21l-.67-1.88A1.51,1.51,0,0,1,144.57,328.27Z"/><circle class="cls-17" cx="144.57" cy="265.57" r="1.51"/><circle class="cls-17" cx="144.57" cy="249.51" r="1.51"/><circle class="cls-17" cx="144.57" cy="233.46" r="1.51"/><path class="cls-17" d="M152.14,353.87a1.5,1.5,0,0,1-.81,1.31q-.35-1.4-.73-2.82h0A1.51,1.51,0,0,1,152.14,353.87Z"/><circle class="cls-17" cx="150.62" cy="241.48" r="1.51"/><circle class="cls-17" cx="156.68" cy="442.17" r="1.51"/><circle class="cls-17" cx="156.68" cy="410.06" r="1.51"/><circle class="cls-17" cx="156.68" cy="426.11" r="1.51"/><circle class="cls-17" cx="156.68" cy="458.22" r="1.51"/><circle class="cls-17" cx="150.62" cy="225.43" r="1.51"/><circle class="cls-17" cx="150.62" cy="209.37" r="1.51"/><path class="cls-17" d="M151,451.63l.18-2.82a1.51,1.51,0,0,1,.92,1.39A1.49,1.49,0,0,1,151,451.63Z"/><path class="cls-17" d="M150.62,464.74a1.51,1.51,0,0,1,0,3,1.48,1.48,0,0,1-.66-.17l.19-2.76A1.48,1.48,0,0,1,150.62,464.74Z"/><circle class="cls-17" cx="144.57" cy="297.68" r="1.51"/><circle class="cls-17" cx="150.62" cy="321.76" r="1.51"/><circle class="cls-17" cx="114.32" cy="418.09" r="1.51"/><circle class="cls-17" cx="108.27" cy="281.62" r="1.51"/><circle class="cls-17" cx="108.27" cy="233.46" r="1.51"/><circle class="cls-17" cx="108.27" cy="249.51" r="1.51"/><circle class="cls-17" cx="108.27" cy="265.57" r="1.51"/><circle class="cls-17" cx="114.32" cy="402.03" r="1.51"/><circle class="cls-17" cx="114.32" cy="385.98" r="1.51"/><circle class="cls-17" cx="114.32" cy="337.81" r="1.51"/><circle class="cls-17" cx="144.57" cy="313.73" r="1.51"/><circle class="cls-17" cx="114.32" cy="305.7" r="1.51"/><circle class="cls-17" cx="114.32" cy="353.87" r="1.51"/><circle class="cls-17" cx="114.32" cy="321.76" r="1.51"/><circle class="cls-17" cx="108.27" cy="297.68" r="1.51"/><circle class="cls-17" cx="108.27" cy="426.11" r="1.51"/><circle class="cls-17" cx="144.57" cy="217.4" r="1.51"/><circle class="cls-17" cx="108.27" cy="377.95" r="1.51"/><circle class="cls-17" cx="108.27" cy="410.06" r="1.51"/><circle class="cls-17" cx="108.27" cy="394" r="1.51"/><circle class="cls-17" cx="108.27" cy="329.79" r="1.51"/><circle class="cls-17" cx="108.27" cy="313.73" r="1.51"/><circle class="cls-17" cx="108.27" cy="361.89" r="1.51"/><circle class="cls-17" cx="108.27" cy="345.84" r="1.51"/><circle class="cls-17" cx="114.32" cy="369.92" r="1.51"/><circle class="cls-17" cx="162.73" cy="289.65" r="1.51"/><circle class="cls-17" cx="168.78" cy="426.11" r="1.51"/><circle class="cls-17" cx="168.78" cy="442.17" r="1.51"/><circle class="cls-17" cx="162.73" cy="209.37" r="1.51"/><circle class="cls-17" cx="162.73" cy="273.59" r="1.51"/><circle class="cls-17" cx="162.73" cy="257.54" r="1.51"/><circle class="cls-17" cx="156.68" cy="377.95" r="1.51"/><circle class="cls-17" cx="162.73" cy="241.48" r="1.51"/><circle class="cls-17" cx="162.73" cy="225.43" r="1.51"/><circle class="cls-17" cx="168.78" cy="458.22" r="1.51"/><circle class="cls-17" cx="168.78" cy="313.73" r="1.51"/><circle class="cls-17" cx="168.78" cy="281.62" r="1.51"/><circle class="cls-17" cx="168.78" cy="297.68" r="1.51"/><circle class="cls-17" cx="168.78" cy="265.57" r="1.51"/><circle class="cls-17" cx="168.78" cy="249.51" r="1.51"/><circle class="cls-17" cx="168.78" cy="377.95" r="1.51"/><circle class="cls-17" cx="168.78" cy="394" r="1.51"/><circle class="cls-17" cx="168.78" cy="329.79" r="1.51"/><circle class="cls-17" cx="168.78" cy="361.89" r="1.51"/><circle class="cls-17" cx="168.78" cy="345.84" r="1.51"/><circle class="cls-17" cx="168.78" cy="410.06" r="1.51"/><circle class="cls-17" cx="156.68" cy="265.57" r="1.51"/><circle class="cls-17" cx="156.68" cy="249.51" r="1.51"/><circle class="cls-17" cx="156.68" cy="201.35" r="1.51"/><circle class="cls-17" cx="162.73" cy="305.7" r="1.51"/><circle class="cls-17" cx="156.68" cy="217.4" r="1.51"/><circle class="cls-17" cx="156.68" cy="233.46" r="1.51"/><circle class="cls-17" cx="156.68" cy="345.84" r="1.51"/><circle class="cls-17" cx="156.68" cy="297.68" r="1.51"/><circle class="cls-17" cx="156.68" cy="361.89" r="1.51"/><circle class="cls-17" cx="156.68" cy="329.79" r="1.51"/><circle class="cls-17" cx="156.68" cy="313.73" r="1.51"/><circle class="cls-17" cx="229.29" cy="377.95" r="1.51"/><circle class="cls-17" cx="162.73" cy="369.92" r="1.51"/><circle class="cls-17" cx="162.73" cy="353.87" r="1.51"/><circle class="cls-17" cx="162.73" cy="385.98" r="1.51"/><circle class="cls-17" cx="162.73" cy="337.81" r="1.51"/><circle class="cls-17" cx="162.73" cy="321.76" r="1.51"/><circle class="cls-17" cx="162.73" cy="434.14" r="1.51"/><circle class="cls-17" cx="162.73" cy="450.2" r="1.51"/><circle class="cls-17" cx="162.73" cy="402.03" r="1.51"/><circle class="cls-17" cx="162.73" cy="466.25" r="1.51"/><circle class="cls-17" cx="162.73" cy="418.09" r="1.51"/><circle class="cls-17" cx="126.42" cy="257.54" r="1.51"/><circle class="cls-17" cx="102.22" cy="402.03" r="1.51"/><circle class="cls-17" cx="102.22" cy="418.09" r="1.51"/><circle class="cls-17" cx="96.16" cy="281.62" r="1.51"/><circle class="cls-17" cx="102.22" cy="385.98" r="1.51"/><circle class="cls-17" cx="102.22" cy="369.92" r="1.51"/><circle class="cls-17" cx="96.16" cy="313.73" r="1.51"/><circle class="cls-17" cx="96.16" cy="265.57" r="1.51"/><circle class="cls-17" cx="96.16" cy="345.84" r="1.51"/><circle class="cls-17" cx="96.16" cy="361.89" r="1.51"/><circle class="cls-17" cx="102.22" cy="353.87" r="1.51"/><circle class="cls-17" cx="96.16" cy="297.68" r="1.51"/><circle class="cls-17" cx="96.16" cy="329.79" r="1.51"/><circle class="cls-17" cx="138.52" cy="321.76" r="1.51"/><path class="cls-17" d="M100.7,434.14a1.51,1.51,0,1,1,2.91.59l-1.88.83A1.5,1.5,0,0,1,100.7,434.14Z"/><path class="cls-17" d="M137,337.81a1.49,1.49,0,0,1,1.28-1.47c-.17.91-.36,1.83-.54,2.74A1.49,1.49,0,0,1,137,337.81Z"/><circle class="cls-17" cx="114.32" cy="289.65" r="1.51"/><circle class="cls-17" cx="102.22" cy="337.81" r="1.51"/><path class="cls-17" d="M131,361.89a1.51,1.51,0,0,1,1.51-1.51,1.45,1.45,0,0,1,.35.07c-.25,1-.51,1.93-.77,2.87A1.49,1.49,0,0,1,131,361.89Z"/><circle class="cls-17" cx="102.22" cy="241.48" r="1.51"/><circle class="cls-17" cx="102.22" cy="321.76" r="1.51"/><circle class="cls-17" cx="102.22" cy="305.7" r="1.51"/><circle class="cls-17" cx="102.22" cy="289.65" r="1.51"/><circle class="cls-17" cx="102.22" cy="273.59" r="1.51"/><path class="cls-17" d="M118.86,426.11a1.51,1.51,0,1,1,3,0,1.49,1.49,0,0,1-.16.65l-1.77.78A1.49,1.49,0,0,1,118.86,426.11Z"/><circle class="cls-17" cx="90.11" cy="337.81" r="1.51"/><circle class="cls-17" cx="90.11" cy="321.76" r="1.51"/><circle class="cls-17" cx="90.11" cy="353.87" r="1.51"/><circle class="cls-17" cx="90.11" cy="402.03" r="1.51"/><circle class="cls-17" cx="90.11" cy="369.92" r="1.51"/><circle class="cls-17" cx="96.16" cy="377.95" r="1.51"/><circle class="cls-17" cx="90.11" cy="418.09" r="1.51"/><path class="cls-17" d="M84,408.55h0a1.51,1.51,0,0,1,1.51,1.51,1.5,1.5,0,0,1-.8,1.31c-.25-.92-.49-1.82-.7-2.68Z"/><circle class="cls-17" cx="90.11" cy="385.98" r="1.51"/><path class="cls-17" d="M91.63,273.59a1.51,1.51,0,0,1-1.45,1.5c0-.95.1-1.95.17-3A1.49,1.49,0,0,1,91.63,273.59Z"/><circle class="cls-17" cx="90.11" cy="305.7" r="1.51"/><path class="cls-17" d="M90.11,288.13a1.51,1.51,0,0,1,0,3,1.48,1.48,0,0,1-.89-.32q.37-1.35.76-2.68Z"/><circle class="cls-17" cx="96.16" cy="249.51" r="1.51"/><circle class="cls-17" cx="96.16" cy="426.11" r="1.51"/><path class="cls-17" d="M85.57,313.73a1.49,1.49,0,0,1-1.21,1.45q.19-1.38.4-2.77A1.5,1.5,0,0,1,85.57,313.73Z"/><circle class="cls-17" cx="84.06" cy="377.95" r="1.51"/><circle class="cls-17" cx="96.16" cy="410.06" r="1.51"/><circle class="cls-17" cx="96.16" cy="394" r="1.51"/><path class="cls-17" d="M84.06,328.27a1.51,1.51,0,1,1-1.33,2.2q.06-.78.13-1.57A1.48,1.48,0,0,1,84.06,328.27Z"/><circle class="cls-17" cx="84.06" cy="345.84" r="1.51"/><circle class="cls-17" cx="84.06" cy="394" r="1.51"/><circle class="cls-17" cx="84.06" cy="361.89" r="1.51"/><circle class="cls-17" cx="102.22" cy="257.54" r="1.51"/><circle class="cls-17" cx="120.37" cy="249.51" r="1.51"/><circle class="cls-17" cx="120.37" cy="265.57" r="1.51"/><circle class="cls-17" cx="120.37" cy="281.62" r="1.51"/><circle class="cls-17" cx="120.37" cy="233.46" r="1.51"/><circle class="cls-17" cx="120.37" cy="297.68" r="1.51"/><path class="cls-17" d="M126.42,403.54a1.51,1.51,0,0,1,0-3,1.47,1.47,0,0,1,.68.18l.62,2.06A1.49,1.49,0,0,1,126.42,403.54Z"/><circle class="cls-17" cx="132.47" cy="249.51" r="1.51"/><circle class="cls-17" cx="120.37" cy="217.4" r="1.51"/><circle class="cls-17" cx="132.47" cy="217.4" r="1.51"/><circle class="cls-17" cx="132.47" cy="233.46" r="1.51"/><circle class="cls-17" cx="120.37" cy="313.73" r="1.51"/><circle class="cls-17" cx="120.37" cy="394" r="1.51"/><circle class="cls-17" cx="114.32" cy="241.48" r="1.51"/><circle class="cls-17" cx="120.37" cy="329.79" r="1.51"/><circle class="cls-17" cx="132.47" cy="265.57" r="1.51"/><circle class="cls-17" cx="114.32" cy="257.54" r="1.51"/><circle class="cls-17" cx="114.32" cy="273.59" r="1.51"/><circle class="cls-17" cx="114.32" cy="225.43" r="1.51"/><circle class="cls-17" cx="120.37" cy="361.89" r="1.51"/><circle class="cls-17" cx="120.37" cy="410.06" r="1.51"/><circle class="cls-17" cx="120.37" cy="345.84" r="1.51"/><circle class="cls-17" cx="120.37" cy="377.95" r="1.51"/><circle class="cls-17" cx="138.52" cy="225.43" r="1.51"/><circle class="cls-17" cx="126.42" cy="418.09" r="1.51"/><circle class="cls-17" cx="126.42" cy="369.92" r="1.51"/><circle class="cls-17" cx="138.52" cy="289.65" r="1.51"/><circle class="cls-17" cx="126.42" cy="337.81" r="1.51"/><circle class="cls-17" cx="126.42" cy="353.87" r="1.51"/><circle class="cls-17" cx="138.52" cy="273.59" r="1.51"/><circle class="cls-17" cx="138.52" cy="241.48" r="1.51"/><path class="cls-17" d="M138.52,210.89a1.5,1.5,0,0,1-1.32-.81c.61-.24,1.2-.5,1.75-.78h0l.9-.6a1.48,1.48,0,0,1,.18.68A1.51,1.51,0,0,1,138.52,210.89Z"/><circle class="cls-17" cx="126.42" cy="321.76" r="1.51"/><circle class="cls-17" cx="138.52" cy="257.54" r="1.51"/><circle class="cls-17" cx="138.52" cy="305.7" r="1.51"/><circle class="cls-17" cx="126.42" cy="305.7" r="1.51"/><circle class="cls-17" cx="132.47" cy="281.62" r="1.51"/><circle class="cls-17" cx="126.42" cy="241.48" r="1.51"/><circle class="cls-17" cx="132.47" cy="329.79" r="1.51"/><circle class="cls-17" cx="132.47" cy="297.68" r="1.51"/><circle class="cls-17" cx="132.47" cy="313.73" r="1.51"/><circle class="cls-17" cx="132.47" cy="345.84" r="1.51"/><circle class="cls-17" cx="126.42" cy="289.65" r="1.51"/><circle class="cls-17" cx="126.42" cy="273.59" r="1.51"/><circle class="cls-17" cx="126.42" cy="225.43" r="1.51"/><circle class="cls-17" cx="168.78" cy="233.46" r="1.51"/><circle class="cls-17" cx="156.68" cy="281.62" r="1.51"/><circle class="cls-17" cx="247.44" cy="257.54" r="1.51"/><circle class="cls-17" cx="247.44" cy="241.48" r="1.51"/><circle class="cls-17" cx="247.44" cy="273.59" r="1.51"/><circle class="cls-17" cx="247.44" cy="305.7" r="1.51"/><circle class="cls-17" cx="247.44" cy="289.65" r="1.51"/><circle class="cls-17" cx="247.44" cy="321.76" r="1.51"/><circle class="cls-17" cx="247.44" cy="225.43" r="1.51"/><circle class="cls-17" cx="253.5" cy="458.22" r="1.51"/><circle class="cls-17" cx="247.44" cy="209.37" r="1.51"/><circle class="cls-17" cx="247.44" cy="353.87" r="1.51"/><circle class="cls-17" cx="247.44" cy="450.2" r="1.51"/><circle class="cls-17" cx="259.55" cy="369.92" r="1.51"/><circle class="cls-17" cx="247.44" cy="434.14" r="1.51"/><circle class="cls-17" cx="241.39" cy="217.4" r="1.51"/><circle class="cls-17" cx="247.44" cy="385.98" r="1.51"/><circle class="cls-17" cx="253.5" cy="442.17" r="1.51"/><circle class="cls-17" cx="247.44" cy="369.92" r="1.51"/><circle class="cls-17" cx="247.44" cy="418.09" r="1.51"/><circle class="cls-17" cx="168.78" cy="201.35" r="1.51"/><circle class="cls-17" cx="247.44" cy="337.81" r="1.51"/><circle class="cls-17" cx="259.55" cy="450.2" r="1.51"/><circle class="cls-17" cx="253.5" cy="201.35" r="1.51"/><circle class="cls-17" cx="253.5" cy="249.51" r="1.51"/><circle class="cls-17" cx="253.5" cy="233.46" r="1.51"/><circle class="cls-17" cx="253.5" cy="217.4" r="1.51"/><circle class="cls-17" cx="241.39" cy="233.46" r="1.51"/><circle class="cls-17" cx="259.55" cy="402.03" r="1.51"/><circle class="cls-17" cx="259.55" cy="385.98" r="1.51"/><circle class="cls-17" cx="259.55" cy="466.25" r="1.51"/><circle class="cls-17" cx="259.55" cy="434.14" r="1.51"/><circle class="cls-17" cx="259.55" cy="418.09" r="1.51"/><circle class="cls-17" cx="253.5" cy="377.95" r="1.51"/><circle class="cls-17" cx="253.5" cy="426.11" r="1.51"/><circle class="cls-17" cx="253.5" cy="361.89" r="1.51"/><circle class="cls-17" cx="253.5" cy="394" r="1.51"/><circle class="cls-17" cx="253.5" cy="265.57" r="1.51"/><circle class="cls-17" cx="253.5" cy="410.06" r="1.51"/><circle class="cls-17" cx="253.5" cy="345.84" r="1.51"/><circle class="cls-17" cx="253.5" cy="297.68" r="1.51"/><circle class="cls-17" cx="253.5" cy="329.79" r="1.51"/><circle class="cls-17" cx="253.5" cy="281.62" r="1.51"/><circle class="cls-17" cx="253.5" cy="313.73" r="1.51"/><circle class="cls-17" cx="247.44" cy="466.25" r="1.51"/><circle class="cls-17" cx="235.34" cy="418.09" r="1.51"/><circle class="cls-17" cx="235.34" cy="466.25" r="1.51"/><circle class="cls-17" cx="235.34" cy="402.03" r="1.51"/><circle class="cls-17" cx="235.34" cy="450.2" r="1.51"/><circle class="cls-17" cx="235.34" cy="434.14" r="1.51"/><circle class="cls-17" cx="235.34" cy="321.76" r="1.51"/><circle class="cls-17" cx="235.34" cy="337.81" r="1.51"/><circle class="cls-17" cx="235.34" cy="353.87" r="1.51"/><circle class="cls-17" cx="235.34" cy="369.92" r="1.51"/><circle class="cls-17" cx="235.34" cy="385.98" r="1.51"/><circle class="cls-17" cx="229.29" cy="329.79" r="1.51"/><circle class="cls-17" cx="235.34" cy="305.7" r="1.51"/><circle class="cls-17" cx="229.29" cy="297.68" r="1.51"/><circle class="cls-17" cx="229.29" cy="313.73" r="1.51"/><circle class="cls-17" cx="229.29" cy="361.89" r="1.51"/><circle class="cls-17" cx="229.29" cy="345.84" r="1.51"/><circle class="cls-17" cx="229.29" cy="233.46" r="1.51"/><circle class="cls-17" cx="229.29" cy="249.51" r="1.51"/><circle class="cls-17" cx="229.29" cy="281.62" r="1.51"/><circle class="cls-17" cx="229.29" cy="265.57" r="1.51"/><circle class="cls-17" cx="241.39" cy="361.89" r="1.51"/><circle class="cls-17" cx="241.39" cy="426.11" r="1.51"/><circle class="cls-17" cx="241.39" cy="377.95" r="1.51"/><circle class="cls-17" cx="241.39" cy="394" r="1.51"/><circle class="cls-17" cx="241.39" cy="410.06" r="1.51"/><circle class="cls-17" cx="241.39" cy="345.84" r="1.51"/><circle class="cls-17" cx="241.39" cy="281.62" r="1.51"/><circle class="cls-17" cx="241.39" cy="265.57" r="1.51"/><circle class="cls-17" cx="241.39" cy="313.73" r="1.51"/><circle class="cls-17" cx="241.39" cy="329.79" r="1.51"/><circle class="cls-17" cx="241.39" cy="297.68" r="1.51"/><circle class="cls-17" cx="235.34" cy="273.59" r="1.51"/><circle class="cls-17" cx="235.34" cy="225.43" r="1.51"/><circle class="cls-17" cx="235.34" cy="241.48" r="1.51"/><circle class="cls-17" cx="235.34" cy="289.65" r="1.51"/><circle class="cls-17" cx="241.39" cy="442.17" r="1.51"/><circle class="cls-17" cx="235.34" cy="257.54" r="1.51"/><circle class="cls-17" cx="241.39" cy="458.22" r="1.51"/><circle class="cls-17" cx="241.39" cy="249.51" r="1.51"/><circle class="cls-17" cx="247.44" cy="402.03" r="1.51"/><circle class="cls-17" cx="180.88" cy="313.73" r="1.51"/><circle class="cls-17" cx="180.88" cy="297.68" r="1.51"/><circle class="cls-17" cx="180.88" cy="281.62" r="1.51"/><circle class="cls-17" cx="180.88" cy="265.57" r="1.51"/><circle class="cls-17" cx="180.88" cy="329.79" r="1.51"/><circle class="cls-17" cx="180.88" cy="361.89" r="1.51"/><circle class="cls-17" cx="180.88" cy="394" r="1.51"/><circle class="cls-17" cx="259.55" cy="353.87" r="1.51"/><circle class="cls-17" cx="180.88" cy="377.95" r="1.51"/><circle class="cls-17" cx="180.88" cy="249.51" r="1.51"/><circle class="cls-17" cx="180.88" cy="345.84" r="1.51"/><circle class="cls-17" cx="186.93" cy="273.59" r="1.51"/><circle class="cls-17" cx="186.93" cy="289.65" r="1.51"/><circle class="cls-17" cx="180.88" cy="442.17" r="1.51"/><circle class="cls-17" cx="186.93" cy="257.54" r="1.51"/><circle class="cls-17" cx="180.88" cy="233.46" r="1.51"/><circle class="cls-17" cx="186.93" cy="321.76" r="1.51"/><circle class="cls-17" cx="186.93" cy="305.7" r="1.51"/><circle class="cls-17" cx="180.88" cy="201.35" r="1.51"/><circle class="cls-17" cx="180.88" cy="217.4" r="1.51"/><circle class="cls-17" cx="186.93" cy="241.48" r="1.51"/><circle class="cls-17" cx="186.93" cy="225.43" r="1.51"/><circle class="cls-17" cx="186.93" cy="209.37" r="1.51"/><circle class="cls-17" cx="174.83" cy="466.25" r="1.51"/><circle class="cls-17" cx="174.83" cy="321.76" r="1.51"/><circle class="cls-17" cx="174.83" cy="402.03" r="1.51"/><circle class="cls-17" cx="174.83" cy="385.98" r="1.51"/><circle class="cls-17" cx="174.83" cy="337.81" r="1.51"/><circle class="cls-17" cx="174.83" cy="353.87" r="1.51"/><circle class="cls-17" cx="174.83" cy="369.92" r="1.51"/><circle class="cls-17" cx="168.78" cy="217.4" r="1.51"/><circle class="cls-17" cx="186.93" cy="337.81" r="1.51"/><circle class="cls-17" cx="174.83" cy="418.09" r="1.51"/><circle class="cls-17" cx="174.83" cy="450.2" r="1.51"/><circle class="cls-17" cx="174.83" cy="434.14" r="1.51"/><circle class="cls-17" cx="174.83" cy="225.43" r="1.51"/><circle class="cls-17" cx="174.83" cy="209.37" r="1.51"/><circle class="cls-17" cx="174.83" cy="193.32" r="1.51"/><circle class="cls-17" cx="180.88" cy="458.22" r="1.51"/><circle class="cls-17" cx="174.83" cy="305.7" r="1.51"/><circle class="cls-17" cx="174.83" cy="273.59" r="1.51"/><circle class="cls-17" cx="174.83" cy="289.65" r="1.51"/><circle class="cls-17" cx="174.83" cy="257.54" r="1.51"/><circle class="cls-17" cx="174.83" cy="241.48" r="1.51"/><circle class="cls-17" cx="180.88" cy="410.06" r="1.51"/><circle class="cls-17" cx="265.6" cy="377.95" r="1.51"/><circle class="cls-17" cx="265.6" cy="394" r="1.51"/><circle class="cls-17" cx="265.6" cy="442.17" r="1.51"/><circle class="cls-17" cx="265.6" cy="458.22" r="1.51"/><circle class="cls-17" cx="265.6" cy="426.11" r="1.51"/><circle class="cls-17" cx="265.6" cy="410.06" r="1.51"/><circle class="cls-17" cx="265.6" cy="313.73" r="1.51"/><circle class="cls-17" cx="265.6" cy="297.68" r="1.51"/><circle class="cls-17" cx="265.6" cy="329.79" r="1.51"/><circle class="cls-17" cx="265.6" cy="345.84" r="1.51"/><circle class="cls-17" cx="265.6" cy="361.89" r="1.51"/><circle class="cls-17" cx="259.55" cy="241.48" r="1.51"/><circle class="cls-17" cx="259.55" cy="273.59" r="1.51"/><circle class="cls-17" cx="259.55" cy="305.7" r="1.51"/><circle class="cls-17" cx="259.55" cy="289.65" r="1.51"/><circle class="cls-17" cx="259.55" cy="337.81" r="1.51"/><circle class="cls-17" cx="259.55" cy="321.76" r="1.51"/><circle class="cls-17" cx="259.55" cy="193.32" r="1.51"/><circle class="cls-17" cx="259.55" cy="225.43" r="1.51"/><circle class="cls-17" cx="259.55" cy="209.37" r="1.51"/><circle class="cls-17" cx="265.6" cy="281.62" r="1.51"/><circle class="cls-17" cx="259.55" cy="257.54" r="1.51"/><circle class="cls-17" cx="186.93" cy="466.25" r="1.51"/><circle class="cls-17" cx="186.93" cy="450.2" r="1.51"/><circle class="cls-17" cx="186.93" cy="193.32" r="1.51"/><circle class="cls-17" cx="186.93" cy="353.87" r="1.51"/><circle class="cls-17" cx="186.93" cy="418.09" r="1.51"/><circle class="cls-17" cx="186.93" cy="385.98" r="1.51"/><circle class="cls-17" cx="186.93" cy="369.92" r="1.51"/><circle class="cls-17" cx="186.93" cy="434.14" r="1.51"/><circle class="cls-17" cx="186.93" cy="402.03" r="1.51"/><circle class="cls-17" cx="265.6" cy="265.57" r="1.51"/><circle class="cls-17" cx="265.6" cy="201.35" r="1.51"/><circle class="cls-17" cx="265.6" cy="185.29" r="1.51"/><circle class="cls-17" cx="265.6" cy="217.4" r="1.51"/><circle class="cls-17" cx="265.6" cy="249.51" r="1.51"/><circle class="cls-17" cx="265.6" cy="233.46" r="1.51"/><polygon class="cls-18" points="134.48 410.81 138.96 428.83 96.81 449.67 85.86 430.24 134.48 410.81"/><polygon class="cls-18" points="326.33 410.81 321.86 428.83 364 449.67 374.95 430.24 326.33 410.81"/><polygon class="cls-19" points="223.74 472.04 236.52 472.04 236.52 232.7 223.74 217.4 223.74 472.04"/><circle class="cls-20" cx="230.13" cy="248.64" r="2.35"/><circle class="cls-20" cx="230.13" cy="278.87" r="2.35"/><circle class="cls-20" cx="230.13" cy="309.1" r="2.35"/><circle class="cls-20" cx="230.13" cy="339.33" r="2.35"/><circle class="cls-20" cx="230.13" cy="369.55" r="2.35"/><circle class="cls-20" cx="230.13" cy="399.78" r="2.35"/><circle class="cls-20" cx="230.13" cy="430.01" r="2.35"/><circle class="cls-20" cx="230.13" cy="460.24" r="2.35"/><polygon class="cls-21" points="209.61 192.51 235.66 232.15 204.81 198.32 209.61 192.51"/><polygon class="cls-22" points="209.61 192.51 190.62 171.75 181.71 185.38 199.66 218.86 209.61 192.51"/><polygon class="cls-21" points="249.14 192.51 228.6 221.41 230.23 223.89 255.18 199.97 249.14 192.51"/><polygon class="cls-22" points="249.14 192.51 268.13 171.75 277.88 183.75 259.85 218.86 249.14 192.51"/><path class="cls-3" d="M274.72,104.92s6.22-11.7,11-6.59c8.11,8.69-2.76,45-13.09,38.18Z"/><path class="cls-4" d="M276.48,107.26s4.27-7.43,7.55-4.19c5.57,5.52-4.21,31.64-9,24.26Z"/><path class="cls-3" d="M185.55,104.92s-6.22-11.7-11-6.59c-8.11,8.69,2.76,45,13.09,38.18Z"/><path class="cls-4" d="M183.78,107.26s-4.27-7.43-7.55-4.19c-5.57,5.52,4.21,31.64,9,24.26Z"/><path class="cls-3" d="M230.46,30.15h-.66c-24.88.25-49.55,14.52-49.55,42.83L186,140.63c3.6,21.8,31.18,37.71,37.83,37.71h12.65c6.66,0,34.24-15.91,37.83-37.71L280,73C280,44.67,255.35,30.4,230.46,30.15Z"/><path class="cls-1" d="M211.16,141.32c5.5,1.39,13,.43,19,.43s13.76.84,19-.43c0,0-8.76,11.65-18.56,11.69S211.16,141.32,211.16,141.32Z"/><path class="cls-23" d="M254.82,133.7c-7.88-2.61-15.88,1.47-24.09,1.47s-16.21-4.08-24.09-1.47-7,16.94-7,16.94l14,7.93s-8.56-16.1-3.32-18.9c3.18-1.7,6.66.36,20.68.36s16.92-2.06,20.1-.36c5.25,2.8-3.45,18.07-3.45,18.07l14.16-7.1S262.82,136.35,254.82,133.7Z"/><path class="cls-23" d="M266.75,41.53C288,62,279.54,99.07,279.54,99.07l-3.48,20.66h-.86c.71-13.13,2.77-53.33-7.41-61.41-9.45-7.49-10.13-4-38.39-4.42s-33.6-3.79-41.74,6.59c-5.62,7.17-3.31,45.61-2.59,59.24h-.86l-3.06-19.82s-11.23-37.52,8-55.14C217.92,18.49,255.38,30.6,266.75,41.53Z"/><path id="SVGID-3" data-name="SVGID" class="cls-1" d="M242.46,103.76c-.14-2.93,6.33-6.26,10-6.23,3.23,0,10,1.91,9.61,5.79-.2,2.24-1.94,4.3-9.61,4.3S242.54,105.52,242.46,103.76Z"/><g class="cls-24"><ellipse class="cls-25" cx="252.45" cy="102.58" rx="5.7" ry="5.7"/><circle cx="252.45" cy="102.58" r="3.19"/><circle class="cls-1" cx="254.38" cy="103.22" r="0.64"/></g><path class="cls-4" d="M242.46,103.48c-.29-4.08,6-6.62,10-6.6,3.7,0,10.4,1.92,9.6,6.44C255,98.12,246.94,100.42,242.46,103.48Z"/><path id="SVGID-4" data-name="SVGID" class="cls-1" d="M217.81,103.76c.14-2.93-6.33-6.26-10-6.23-3.23,0-10,1.91-9.61,5.79.2,2.24,1.94,4.3,9.61,4.3S217.73,105.52,217.81,103.76Z"/><g class="cls-26"><ellipse class="cls-25" cx="207.82" cy="102.58" rx="5.7" ry="5.7"/><circle cx="207.82" cy="102.58" r="3.19"/><circle class="cls-1" cx="209.7" cy="103.22" r="0.64"/></g><path class="cls-4" d="M217.8,103.48c.29-4.08-6-6.62-10-6.6-3.7,0-10.4,1.92-9.6,6.44C205.31,98.12,213.32,100.42,217.8,103.48Z"/><path class="cls-4" d="M243.47,128.84a4.09,4.09,0,0,0-1.21-1.77,5,5,0,0,0-1.3-.84c-.35-.15-.58-.19-.64-.13s.45.61,1.07,1.44a3.93,3.93,0,0,1,.71,1.52,2.28,2.28,0,0,1-.29,1.78,1.74,1.74,0,0,1-1.56.73,3.29,3.29,0,0,1-.92-.31,9.84,9.84,0,0,0-1-.43,3,3,0,0,0-.82-.15c.45-.6.56-1,.45-1.06s-.84.59-2.08,1.45a11.49,11.49,0,0,1-2.36,1.26,9.44,9.44,0,0,1-3.27.65,9.7,9.7,0,0,1-3.3-.57,12.22,12.22,0,0,1-2.43-1.19c-1.29-.82-2-1.48-2.17-1.38s0,.37.36.85a3,3,0,0,0-.73.14,9.87,9.87,0,0,0-1,.43,3.29,3.29,0,0,1-.92.31,1.74,1.74,0,0,1-1.56-.73,2.28,2.28,0,0,1-.29-1.78,3.93,3.93,0,0,1,.71-1.52c.62-.83,1.21-1.31,1.07-1.44s-.29,0-.64.13a5,5,0,0,0-1.3.84,4.09,4.09,0,0,0-1.21,1.77,2.83,2.83,0,0,0,.33,2.55,3,3,0,0,0,1.34,1,3.26,3.26,0,0,0,1.87.18,4.07,4.07,0,0,0,1.32-.57c.32-.2.58-.37.81-.5a2.13,2.13,0,0,1,.77-.24c.15.16.32.32.52.49a9.53,9.53,0,0,0,2.54,1.55,10.09,10.09,0,0,0,4,.78,9.86,9.86,0,0,0,3.92-.87,9,9,0,0,0,2.47-1.63l.32-.33a2.11,2.11,0,0,1,.85.25c.23.12.49.3.81.5a4.07,4.07,0,0,0,1.32.57,3.26,3.26,0,0,0,1.87-.18,3,3,0,0,0,1.34-1A2.83,2.83,0,0,0,243.47,128.84Z"/><path class="cls-23" d="M266.42,100c-.69.38-4.7-3.2-5.45-3.54a14.66,14.66,0,0,0-8.6-1.14c-4.48.77-9,3.63-13.6,3.39-3-.15-2.66-5.58-2.39-7.11s14.48-1.72,17.85-1.63a13.75,13.75,0,0,1,9.16,3.36c.5.46,4.81,5.63,3,6.67C265.83,100.38,266.56,100,266.42,100Z"/><path class="cls-23" d="M193.85,100c.69.38,4.7-3.2,5.45-3.54a14.66,14.66,0,0,1,8.6-1.14c4.48.77,9,3.63,13.6,3.39,3-.15,2.66-5.58,2.39-7.11S209.4,89.93,206,90a13.75,13.75,0,0,0-9.16,3.36c-.5.46-4.81,5.63-3,6.67C194.43,100.38,193.71,100,193.85,100Z"/><path class="cls-23" d="M275.2,119.19c-2.93,23.09-22.12,36.12-33.46,41.88a5.75,5.75,0,0,1-8.37-5.13H226.9v.24c0,4.23-4.93,6.22-8.74,4.39-11.34-5.45-30.19-17.33-33.09-41.38h-.86l1.77,20.9c3.6,21.8,28.43,38.26,37.83,38.26h12.65c10.15,0,34.24-16.46,37.83-38.26l1.77-20.9Z"/></g></svg>