<svg xmlns="http://www.w3.org/2000/svg" width="45" height="45" viewBox="0 0 45 45"><defs><style>.cls-1{fill:none;stroke:#3addbe;stroke-linecap:round;stroke-linejoin:round;stroke-width:1.79px;}</style></defs><title>ipad</title><g id="Layer_1" data-name="Layer 1"><rect class="cls-1" x="7.27" y="1.89" width="30.47" height="41.22" rx="3.58" ry="3.58"/><rect class="cls-1" x="10.85" y="7.27" width="23.3" height="28.67"/><path class="cls-1" d="M22.5,3.68a.9.9,0,1,0,.9.9.9.9,0,0,0-.9-.9Z"/><path class="cls-1" d="M23.4,39.53a.9.9,0,0,1-.9.9h0a.9.9,0,0,1-.9-.9h0a.9.9,0,0,1,.9-.9h0a.9.9,0,0,1,.9.9Z"/></g></svg>