<svg xmlns="http://www.w3.org/2000/svg" width="45" height="45" viewBox="0 0 45 45"><defs><style>.cls-1{fill:none;stroke:#3addbe;stroke-linecap:round;stroke-linejoin:round;stroke-width:1.79px;}</style></defs><title>laptop</title><g id="Layer_1" data-name="Layer 1"><polygon class="cls-1" points="29.67 35.05 15.33 35.05 16.23 31.46 28.77 31.46 29.67 35.05"/><path class="cls-1" d="M39.53,5.47a2.69,2.69,0,0,0-2.69-2.69H8.16A2.69,2.69,0,0,0,5.47,5.47V26.08L1.89,38.63v.9a2.69,2.69,0,0,0,2.69,2.69H40.42a2.69,2.69,0,0,0,2.69-2.69v-.9L39.53,25.19Z"/><line class="cls-1" x1="5.47" y1="26.08" x2="39.53" y2="26.08"/><line class="cls-1" x1="1.89" y1="38.63" x2="43.11" y2="38.63"/><rect class="cls-1" x="9.06" y="6.37" width="26.88" height="16.13"/></g></svg>