<svg xmlns="http://www.w3.org/2000/svg" xmlns:xlink="http://www.w3.org/1999/xlink" width="90" height="90" viewBox="0 0 90 90"><defs><style>.cls-1{fill:none;}.cls-2{fill:#fff;}.cls-3{clip-path:url(#clip-path);}.cls-4{fill:#eebe89;}.cls-5{fill:#edeceb;}.cls-6{clip-path:url(#clip-path-2);}.cls-7{fill:#cef6ef;}.cls-8{fill:#93562a;}.cls-9{fill:#723b17;}.cls-10{fill:#fca76d;}.cls-11{fill:#73c197;}.cls-12{fill:#40a069;}.cls-13{fill:#50ad78;}.cls-14{fill:#a1e5bd;}.cls-15{fill:#9fc48c;}.cls-16{fill:#d4e8ca;}.cls-17{fill:#2b211a;}.cls-18{clip-path:url(#clip-path-3);}.cls-19{fill:#5e381d;}.cls-20{clip-path:url(#clip-path-4);}</style><clipPath id="clip-path"><circle class="cls-1" cx="-59" cy="45" r="42.75"/></clipPath><clipPath id="clip-path-2"><circle class="cls-1" cx="45" cy="45" r="42.75"/></clipPath><clipPath id="clip-path-3"><path id="SVGID" class="cls-2" d="M49.84,34.32c0-1,2.12-2.1,3.35-2.09s3.34.64,3.22,1.94c-.07.75-.65,1.44-3.22,1.44S49.87,34.91,49.84,34.32Z"/></clipPath><clipPath id="clip-path-4"><path id="SVGID-2" data-name="SVGID" class="cls-2" d="M41.58,34.32c0-1-2.12-2.1-3.35-2.09s-3.34.64-3.22,1.94c.07.75.65,1.44,3.22,1.44S41.55,34.91,41.58,34.32Z"/></clipPath></defs><title>nav-icon-3</title><g id="Layer_1" data-name="Layer 1"><g class="cls-3"><path class="cls-4" d="M-27.78,70.26C-19,73.83,6.11,99.14,12,111.89a6.39,6.39,0,0,1-.6,6.41l-27,26.1-4.35,6.83a3.41,3.41,0,0,1-5.45.88c-1.47-1.19-5.69-4.25-5.69-4.25l-4.83,4.2a1.89,1.89,0,0,1-2.22.2l-.71-.42-.48.32a1.38,1.38,0,0,1-1.44,0h0a1.38,1.38,0,0,1-.55-1.8l0-.08h0a1.61,1.61,0,0,1-.33-2.48l6.45-6.84a1.55,1.55,0,0,1,1.87-.3l1.31.71-3.41-2.7-5.07,2.6a1.37,1.37,0,0,1-1.7-.37h0a1.37,1.37,0,0,1,.33-2l5.92-3.15a2.47,2.47,0,0,1,2.58.16l9.35,6.57L-.6,113.87C-13.35,100.07-26.68,93-34.81,88.62-34.81,88.62-37.47,66.32-27.78,70.26Z"/><path class="cls-5" d="M13.41,111.69c-7-12.19-27-35.32-35.61-39.59S-38.4,92.28-32,108.69c8.86-13.38,26.43,7.11,26.43,7.11l-2.34,6,9.68,7.08L12,118.6C14.2,116.26,14.56,113.69,13.41,111.69Z"/></g><g class="cls-6"><circle class="cls-7" cx="45" cy="45" r="42.75"/><path class="cls-8" d="M8,76.78c4.62-8.06,18.56-12.91,22.53-15.11s3.35-12.11,3.35-12.11H57.53s-.62,9.91,3.35,12.11,17.9,7,22.53,15.11-13.65,35.13-13.65,49.45c0,10.26,1.54,10.53,1.54,31.67H20.13c0-21.14,1.54-21.41,1.54-31.67C21.67,111.92,3.4,84.85,8,76.78Z"/><path class="cls-9" d="M59.59,60.51c-4.45-2.28-3.7,1.21-12.45,3.21C41.36,65,34.13,60.87,33,58a27.66,27.66,0,0,0,.86-8.47H57.53S57.05,57.14,59.59,60.51Z"/><path class="cls-10" d="M16.26,89.82c.17,0,.3,1.77.89,4.54a38.8,38.8,0,0,0,1.35,4.77c.31.87.67,1.79,1.09,2.7a9.9,9.9,0,0,0,1.58,2.53,4.58,4.58,0,0,0,2.37,1.44,12,12,0,0,0,2.8.27c1.85,0,3.55-.12,5-.21a32,32,0,0,1,4.64-.21,22.21,22.21,0,0,1-4.55,1,41.77,41.77,0,0,1-5.06.56,12,12,0,0,1-3.11-.2,5.7,5.7,0,0,1-1.63-.64,6,6,0,0,1-1.39-1.15,10.49,10.49,0,0,1-1.77-2.88A29.65,29.65,0,0,1,16.3,94.5C15.94,91.61,16.13,89.81,16.26,89.82Z"/><path class="cls-10" d="M55.47,105.63a32,32,0,0,1,4.64.21c1.43.09,3.13.23,5,.21a12,12,0,0,0,2.8-.27,4.58,4.58,0,0,0,2.37-1.44,9.9,9.9,0,0,0,1.58-2.53c.41-.91.77-1.83,1.09-2.7a38.86,38.86,0,0,0,1.35-4.77c.59-2.77.72-4.55.89-4.54s.32,1.8,0,4.68A29.66,29.66,0,0,1,73,102.34a10.49,10.49,0,0,1-1.77,2.88,6,6,0,0,1-1.39,1.15,5.7,5.7,0,0,1-1.63.64,12,12,0,0,1-3.11.2,41.78,41.78,0,0,1-5.06-.56A22.21,22.21,0,0,1,55.47,105.63Z"/><path class="cls-10" d="M45.35,90.39c0-4.49.19-8.12.36-8.12s.36,3.64.36,8.12a58.14,58.14,0,0,1-.36,8.12A58.13,58.13,0,0,1,45.35,90.39Z"/><path class="cls-11" d="M19.62,127.5c0-14.64-17.4-42.3-12.67-50.54s19-13.19,23-15.44a5,5,0,0,0,2-2.28l6,5.92,7.51,9,7.16-9L59,59.23a5,5,0,0,0,2,2.28C65,63.76,79.26,68.72,84,77S71.32,112.86,71.32,127.5c0,8.51,2.07,36.2,2.07,36.2H17.61S19.62,136.15,19.62,127.5Z"/><path class="cls-8" d="M65.51,167s2.63-3.09,5.25-5.73c2.15-2.16,5.9-15.94,9.12-25.26h0c.09-.6,1.7-5.93,1.83-6.49-3.25-7.78-6.39-21.89-6.39-31.3,0,0-7.09-25,2.38-27.11,16.2-.77,14.59,25.15,14.59,25.15,2.72,7.29,3.11,18.33,1.93,28.3a31.08,31.08,0,0,1,.75,3.37h0c1,3.27.15,4.73-.68,8.07-4.44,17.85-11.79,22.73-16.5,32l-4,12.91-8.1,4.82L59,178.88Z"/><path class="cls-8" d="M25.91,167s-2.63-3.09-5.25-5.73c-2.15-2.16-5.9-15.94-9.12-25.26h0c-.09-.6-1.7-5.93-1.83-6.49,3.25-7.78,6.39-21.89,6.39-31.3,0,0,7.09-25-2.38-27.11C-2.48,70.33-.87,96.26-.87,96.26c-2.72,7.29-3.11,18.33-1.93,28.3a31.11,31.11,0,0,0-.75,3.37h0c-1,3.27-.15,4.73.68,8.07,4.44,17.85,11.79,22.73,16.5,32l4,12.91,8.1,4.82,6.74-6.88Z"/><path class="cls-11" d="M10,129.91c.08.3,3.32,11,3.32,11L.05,146.71s-2.33-6.22-3.31-10.15c-.15-.62-.31-1.18-.45-1.7-.64-2.32-1.07-3.86-.24-6.61.2-1.19-1.31-18.81,2.72-32.24,0-.94-.69-15.65,6-22.4,2.39-2.43,7.66-2.52,10.42-3.9,8.37,3.85,1.63,27.28,1.33,28.35C16.46,108.11,13.1,122.39,10,129.91Z"/><path class="cls-11" d="M81.63,129.91c-.08.3-3.32,11-3.32,11l13.24,5.83s2.33-6.22,3.31-10.15c.15-.62.31-1.18.45-1.7.64-2.32,1.07-3.86.24-6.61-.2-1.19,1.31-18.81-2.72-32.24,0-.94.69-15.65-6-22.4-2.39-2.43-7.66-2.52-10.42-3.9C68.09,73.55,74.83,97,75.13,98.05,75.15,108.11,78.51,122.39,81.63,129.91Z"/><circle class="cls-12" cx="59.63" cy="69.73" r="0.51"/><circle class="cls-12" cx="59.63" cy="75.11" r="0.51"/><circle class="cls-12" cx="59.63" cy="80.49" r="0.51"/><circle class="cls-12" cx="59.63" cy="64.34" r="0.51"/><circle class="cls-12" cx="33.26" cy="72.42" r="0.51"/><circle class="cls-12" cx="33.26" cy="67.03" r="0.51"/><circle class="cls-12" cx="33.26" cy="83.18" r="0.51"/><circle class="cls-12" cx="33.26" cy="77.8" r="0.51"/><circle class="cls-12" cx="33.26" cy="61.65" r="0.51"/><circle class="cls-12" cx="33.26" cy="88.57" r="0.51"/><circle class="cls-12" cx="59.63" cy="85.87" r="0.51"/><circle class="cls-12" cx="69.77" cy="72.42" r="0.51"/><circle class="cls-12" cx="69.77" cy="83.18" r="0.51"/><circle class="cls-12" cx="69.77" cy="77.8" r="0.51"/><circle class="cls-12" cx="71.8" cy="80.49" r="0.51"/><circle class="cls-12" cx="71.8" cy="69.73" r="0.51"/><circle class="cls-12" cx="69.77" cy="67.03" r="0.51"/><circle class="cls-12" cx="71.8" cy="75.11" r="0.51"/><circle class="cls-12" cx="71.8" cy="85.87" r="0.51"/><circle class="cls-12" cx="73.83" cy="83.18" r="0.51"/><path class="cls-12" d="M75.86,70.23a.5.5,0,0,1-.22-1l.72.48h0A.5.5,0,0,1,75.86,70.23Z"/><circle class="cls-12" cx="73.83" cy="72.42" r="0.51"/><circle class="cls-12" cx="73.83" cy="77.8" r="0.51"/><circle class="cls-12" cx="75.86" cy="75.11" r="0.51"/><circle class="cls-12" cx="75.86" cy="80.49" r="0.51"/><circle class="cls-12" cx="75.86" cy="85.87" r="0.51"/><circle class="cls-12" cx="73.83" cy="88.57" r="0.51"/><circle class="cls-12" cx="69.77" cy="88.57" r="0.51"/><circle class="cls-12" cx="39.34" cy="75.11" r="0.51"/><circle class="cls-12" cx="41.37" cy="83.18" r="0.51"/><circle class="cls-12" cx="41.37" cy="77.8" r="0.51"/><circle class="cls-12" cx="41.37" cy="72.42" r="0.51"/><circle class="cls-12" cx="39.34" cy="69.73" r="0.51"/><circle class="cls-12" cx="41.37" cy="88.57" r="0.51"/><circle class="cls-12" cx="43.4" cy="80.49" r="0.51"/><circle class="cls-12" cx="43.4" cy="75.11" r="0.51"/><circle class="cls-12" cx="43.4" cy="85.87" r="0.51"/><circle class="cls-12" cx="35.28" cy="64.34" r="0.51"/><circle class="cls-12" cx="35.28" cy="75.11" r="0.51"/><circle class="cls-12" cx="35.28" cy="80.49" r="0.51"/><circle class="cls-12" cx="35.28" cy="69.73" r="0.51"/><circle class="cls-12" cx="35.28" cy="85.87" r="0.51"/><circle class="cls-12" cx="39.34" cy="80.49" r="0.51"/><circle class="cls-12" cx="39.34" cy="85.87" r="0.51"/><circle class="cls-12" cx="37.31" cy="83.18" r="0.51"/><circle class="cls-12" cx="37.31" cy="77.8" r="0.51"/><circle class="cls-12" cx="37.31" cy="88.57" r="0.51"/><circle class="cls-12" cx="37.31" cy="72.42" r="0.51"/><circle class="cls-12" cx="37.31" cy="67.03" r="0.51"/><circle class="cls-12" cx="79.92" cy="75.11" r="0.51"/><circle class="cls-12" cx="79.92" cy="80.49" r="0.51"/><circle class="cls-12" cx="79.92" cy="85.87" r="0.51"/><circle class="cls-12" cx="77.89" cy="77.8" r="0.51"/><circle class="cls-12" cx="77.89" cy="83.18" r="0.51"/><circle class="cls-12" cx="90.06" cy="83.18" r="0.51"/><circle class="cls-12" cx="90.06" cy="88.57" r="0.51"/><circle class="cls-12" cx="77.89" cy="88.57" r="0.51"/><circle class="cls-12" cx="77.89" cy="72.42" r="0.51"/><circle class="cls-12" cx="81.95" cy="72.42" r="0.51"/><circle class="cls-12" cx="81.95" cy="88.57" r="0.51"/><circle class="cls-12" cx="81.95" cy="83.18" r="0.51"/><circle class="cls-12" cx="81.95" cy="77.8" r="0.51"/><circle class="cls-12" cx="67.74" cy="69.73" r="0.51"/><path class="cls-12" d="M89.55,77.8a.49.49,0,0,1,.08-.25q.19.37.36.75A.5.5,0,0,1,89.55,77.8Z"/><circle class="cls-12" cx="88.03" cy="80.49" r="0.51"/><circle class="cls-12" cx="88.03" cy="85.87" r="0.51"/><path class="cls-12" d="M88,75.62a.5.5,0,0,1-.23-1q.31.39.59.8A.5.5,0,0,1,88,75.62Z"/><circle class="cls-12" cx="63.69" cy="64.34" r="0.51"/><circle class="cls-12" cx="63.69" cy="69.73" r="0.51"/><circle class="cls-12" cx="63.69" cy="75.11" r="0.51"/><circle class="cls-12" cx="63.69" cy="80.49" r="0.51"/><circle class="cls-12" cx="63.69" cy="85.87" r="0.51"/><circle class="cls-12" cx="67.74" cy="75.11" r="0.51"/><circle class="cls-12" cx="67.74" cy="80.49" r="0.51"/><circle class="cls-12" cx="67.74" cy="85.87" r="0.51"/><circle class="cls-12" cx="65.72" cy="72.42" r="0.51"/><circle class="cls-12" cx="65.72" cy="77.8" r="0.51"/><circle class="cls-12" cx="65.72" cy="83.18" r="0.51"/><circle class="cls-12" cx="65.72" cy="67.03" r="0.51"/><circle class="cls-12" cx="65.72" cy="88.57" r="0.51"/><circle class="cls-12" cx="86" cy="83.18" r="0.51"/><circle class="cls-12" cx="86" cy="88.57" r="0.51"/><path class="cls-12" d="M85.54,72.61l.5.31h0A.51.51,0,0,1,85.54,72.61Z"/><circle class="cls-12" cx="86" cy="77.8" r="0.51"/><circle class="cls-12" cx="83.97" cy="80.49" r="0.51"/><circle class="cls-12" cx="83.97" cy="75.11" r="0.51"/><circle class="cls-12" cx="83.97" cy="85.87" r="0.51"/><circle class="cls-12" cx="61.66" cy="67.03" r="0.51"/><circle class="cls-12" cx="61.66" cy="72.42" r="0.51"/><path class="cls-12" d="M61.66,62.16a.51.51,0,0,1-.47-.32l.58.29Z"/><circle class="cls-12" cx="61.66" cy="83.18" r="0.51"/><circle class="cls-12" cx="61.66" cy="77.8" r="0.51"/><circle class="cls-12" cx="61.66" cy="88.57" r="0.51"/><circle class="cls-12" cx="19.05" cy="85.87" r="0.51"/><circle class="cls-12" cx="17.03" cy="88.57" r="0.51"/><circle class="cls-12" cx="17.03" cy="83.18" r="0.51"/><circle class="cls-12" cx="17.03" cy="77.8" r="0.51"/><circle class="cls-12" cx="19.05" cy="80.49" r="0.51"/><circle class="cls-12" cx="19.05" cy="75.11" r="0.51"/><circle class="cls-12" cx="19.05" cy="69.73" r="0.51"/><circle class="cls-12" cx="4.85" cy="77.8" r="0.51"/><circle class="cls-12" cx="4.85" cy="83.18" r="0.51"/><circle class="cls-12" cx="4.85" cy="88.57" r="0.51"/><circle class="cls-12" cx="17.03" cy="72.42" r="0.51"/><circle class="cls-12" cx="23.11" cy="69.73" r="0.51"/><circle class="cls-12" cx="23.11" cy="85.87" r="0.51"/><circle class="cls-12" cx="23.11" cy="80.49" r="0.51"/><circle class="cls-12" cx="23.11" cy="75.11" r="0.51"/><circle class="cls-12" cx="25.14" cy="88.57" r="0.51"/><circle class="cls-12" cx="25.14" cy="83.18" r="0.51"/><circle class="cls-12" cx="21.08" cy="88.57" r="0.51"/><circle class="cls-12" cx="21.08" cy="83.18" r="0.51"/><circle class="cls-12" cx="21.08" cy="67.03" r="0.51"/><circle class="cls-12" cx="21.08" cy="72.42" r="0.51"/><circle class="cls-12" cx="21.08" cy="77.8" r="0.51"/><circle class="cls-12" cx="10.94" cy="85.87" r="0.51"/><circle class="cls-12" cx="0.79" cy="88.57" r="0.51"/><circle class="cls-12" cx="2.82" cy="80.49" r="0.51"/><circle class="cls-12" cx="0.79" cy="83.18" r="0.51"/><circle class="cls-12" cx="2.82" cy="85.87" r="0.51"/><circle class="cls-12" cx="8.91" cy="83.18" r="0.51"/><circle class="cls-12" cx="8.91" cy="88.57" r="0.51"/><circle class="cls-12" cx="8.91" cy="77.8" r="0.51"/><circle class="cls-12" cx="12.97" cy="83.18" r="0.51"/><circle class="cls-12" cx="8.91" cy="72.42" r="0.51"/><circle class="cls-12" cx="12.97" cy="72.42" r="0.51"/><circle class="cls-12" cx="12.97" cy="77.8" r="0.51"/><circle class="cls-12" cx="6.88" cy="80.49" r="0.51"/><circle class="cls-12" cx="12.97" cy="88.57" r="0.51"/><circle class="cls-12" cx="6.88" cy="85.87" r="0.51"/><circle class="cls-12" cx="6.88" cy="75.11" r="0.51"/><circle class="cls-12" cx="15" cy="75.11" r="0.51"/><circle class="cls-12" cx="15" cy="80.49" r="0.51"/><path class="cls-12" d="M15,70.23a.5.5,0,0,1-.44-.27c.21-.08.4-.17.59-.26h0l.3-.2a.5.5,0,0,1,.06.23A.51.51,0,0,1,15,70.23Z"/><circle class="cls-12" cx="15" cy="85.87" r="0.51"/><circle class="cls-12" cx="10.94" cy="80.49" r="0.51"/><circle class="cls-12" cx="10.94" cy="75.11" r="0.51"/><circle class="cls-12" cx="25.14" cy="77.8" r="0.51"/><circle class="cls-12" cx="51.51" cy="85.87" r="0.51"/><circle class="cls-12" cx="51.51" cy="80.49" r="0.51"/><circle class="cls-12" cx="51.51" cy="75.11" r="0.51"/><circle class="cls-12" cx="51.51" cy="69.73" r="0.51"/><circle class="cls-12" cx="49.49" cy="72.42" r="0.51"/><circle class="cls-12" cx="25.14" cy="67.03" r="0.51"/><circle class="cls-12" cx="53.54" cy="67.03" r="0.51"/><circle class="cls-12" cx="53.54" cy="83.18" r="0.51"/><circle class="cls-12" cx="53.54" cy="77.8" r="0.51"/><circle class="cls-12" cx="53.54" cy="72.42" r="0.51"/><circle class="cls-12" cx="49.49" cy="77.8" r="0.51"/><circle class="cls-12" cx="53.54" cy="88.57" r="0.51"/><circle class="cls-12" cx="45.43" cy="77.8" r="0.51"/><circle class="cls-12" cx="45.43" cy="83.18" r="0.51"/><circle class="cls-12" cx="45.43" cy="88.57" r="0.51"/><circle class="cls-12" cx="49.49" cy="88.57" r="0.51"/><circle class="cls-12" cx="47.46" cy="75.11" r="0.51"/><circle class="cls-12" cx="47.46" cy="80.49" r="0.51"/><circle class="cls-12" cx="47.46" cy="85.87" r="0.51"/><circle class="cls-12" cx="49.49" cy="83.18" r="0.51"/><circle class="cls-12" cx="29.2" cy="88.57" r="0.51"/><circle class="cls-12" cx="29.2" cy="83.18" r="0.51"/><circle class="cls-12" cx="31.23" cy="85.87" r="0.51"/><circle class="cls-12" cx="29.2" cy="77.8" r="0.51"/><circle class="cls-12" cx="29.2" cy="67.03" r="0.51"/><circle class="cls-12" cx="29.2" cy="72.42" r="0.51"/><circle class="cls-12" cx="31.23" cy="80.49" r="0.51"/><circle class="cls-12" cx="31.23" cy="75.11" r="0.51"/><circle class="cls-12" cx="31.23" cy="69.73" r="0.51"/><circle class="cls-12" cx="25.14" cy="72.42" r="0.51"/><circle class="cls-12" cx="27.17" cy="75.11" r="0.51"/><circle class="cls-12" cx="27.17" cy="69.73" r="0.51"/><circle class="cls-12" cx="27.17" cy="64.34" r="0.51"/><circle class="cls-12" cx="27.17" cy="85.87" r="0.51"/><circle class="cls-12" cx="27.17" cy="80.49" r="0.51"/><circle class="cls-12" cx="55.57" cy="80.49" r="0.51"/><circle class="cls-12" cx="55.57" cy="64.34" r="0.51"/><circle class="cls-12" cx="55.57" cy="75.11" r="0.51"/><circle class="cls-12" cx="55.57" cy="69.73" r="0.51"/><circle class="cls-12" cx="55.57" cy="85.87" r="0.51"/><circle class="cls-12" cx="31.23" cy="64.34" r="0.51"/><circle class="cls-12" cx="57.6" cy="88.57" r="0.51"/><circle class="cls-12" cx="57.6" cy="67.03" r="0.51"/><circle class="cls-12" cx="57.6" cy="61.65" r="0.51"/><circle class="cls-12" cx="57.6" cy="72.42" r="0.51"/><circle class="cls-12" cx="57.6" cy="83.18" r="0.51"/><circle class="cls-12" cx="57.6" cy="77.8" r="0.51"/><polygon class="cls-13" points="43.57 157.79 47.85 157.79 47.85 77.55 43.57 72.42 43.57 157.79"/><circle class="cls-14" cx="45.71" cy="82.89" r="0.79"/><polygon class="cls-15" points="38.83 64.07 47.56 77.36 37.22 66.02 38.83 64.07"/><polygon class="cls-16" points="38.83 64.07 32.46 57.11 29.47 61.68 35.49 72.91 38.83 64.07"/><polygon class="cls-15" points="52.08 64.07 45.2 73.76 45.74 74.59 54.11 66.57 52.08 64.07"/><polygon class="cls-16" points="52.08 64.07 58.45 57.11 61.72 61.14 55.67 72.91 52.08 64.07"/><path class="cls-8" d="M60.66,34.71s2.08-3.92,3.68-2.21c2.72,2.91-.93,15.1-4.39,12.8Z"/><path class="cls-9" d="M61.25,35.49s1.43-2.49,2.53-1.4c1.87,1.85-1.41,10.61-3,8.13Z"/><path class="cls-8" d="M30.76,34.71s-2.08-3.92-3.68-2.21c-2.72,2.91.93,15.1,4.39,12.8Z"/><path class="cls-9" d="M30.17,35.49s-1.43-2.49-2.53-1.4c-1.87,1.85,1.41,10.61,3,8.13Z"/><path class="cls-8" d="M45.82,9.64H45.6C37.26,9.72,29,14.51,29,24l1.92,22.68C32.11,54,41.36,59.32,43.59,59.32h4.24c2.23,0,11.48-5.33,12.68-12.64L62.43,24C62.43,14.51,54.16,9.72,45.82,9.64Z"/><path class="cls-2" d="M39.35,46.91c1.84.47,4.37.14,6.36.14s4.61.28,6.36-.14c0,0-2.94,3.91-6.22,3.92S39.35,46.91,39.35,46.91Z"/><path class="cls-17" d="M54,44.35c-2.64-.88-5.32.49-8.08.49s-5.43-1.37-8.08-.49S35.48,50,35.48,50l4.7,2.66s-2.87-5.4-1.11-6.34c1.07-.57,2.23.12,6.93.12s5.67-.69,6.74-.12c1.76.94-1.16,6.06-1.16,6.06L56.34,50S56.67,45.24,54,44.35Z"/><path class="cls-17" d="M58,13.45c7.13,6.85,4.29,19.29,4.29,19.29l-1.17,6.93h-.29c.24-4.4.93-17.88-2.49-20.59-3.17-2.51-3.4-1.35-12.87-1.48s-11.27-1.27-14,2.21c-1.88,2.4-1.11,15.29-.87,19.86h-.29l-1-6.64S25.52,20.45,32,14.54C41.61,5.73,54.18,9.79,58,13.45Z"/><path id="SVGID-3" data-name="SVGID" class="cls-2" d="M49.84,34.32c0-1,2.12-2.1,3.35-2.09s3.34.64,3.22,1.94c-.07.75-.65,1.44-3.22,1.44S49.87,34.91,49.84,34.32Z"/><g class="cls-18"><circle class="cls-19" cx="53.19" cy="33.92" r="1.91"/><circle cx="53.19" cy="33.92" r="1.07"/><circle class="cls-2" cx="53.84" cy="34.14" r="0.22"/></g><path class="cls-9" d="M49.84,34.22c-.1-1.37,2-2.22,3.35-2.21s3.49.64,3.22,2.16A5.66,5.66,0,0,0,49.84,34.22Z"/><path id="SVGID-4" data-name="SVGID" class="cls-2" d="M41.58,34.32c0-1-2.12-2.1-3.35-2.09s-3.34.64-3.22,1.94c.07.75.65,1.44,3.22,1.44S41.55,34.91,41.58,34.32Z"/><g class="cls-20"><circle class="cls-19" cx="38.23" cy="33.92" r="1.91"/><circle cx="38.23" cy="33.92" r="1.07"/><circle class="cls-2" cx="38.86" cy="34.14" r="0.22"/></g><path class="cls-9" d="M41.58,34.22c.1-1.37-2-2.22-3.35-2.21s-3.49.64-3.22,2.16A5.66,5.66,0,0,1,41.58,34.22Z"/><path class="cls-9" d="M50.18,42.73a1.37,1.37,0,0,0-.4-.59,1.69,1.69,0,0,0-.44-.28c-.12-.05-.19-.06-.22,0s.15.2.36.48a1.32,1.32,0,0,1,.24.51.77.77,0,0,1-.1.6.58.58,0,0,1-.52.24,1.1,1.1,0,0,1-.31-.11,3.3,3.3,0,0,0-.34-.15,1,1,0,0,0-.28-.05c.15-.2.19-.34.15-.36s-.28.2-.7.49a3.85,3.85,0,0,1-.79.42,3.17,3.17,0,0,1-1.1.22,3.25,3.25,0,0,1-1.11-.19,4.1,4.1,0,0,1-.81-.4c-.43-.28-.66-.5-.73-.46s0,.12.12.28a1,1,0,0,0-.24,0,3.31,3.31,0,0,0-.34.15,1.1,1.1,0,0,1-.31.11.58.58,0,0,1-.52-.24.76.76,0,0,1-.1-.6,1.32,1.32,0,0,1,.24-.51c.21-.28.41-.44.36-.48s-.1,0-.22,0a1.69,1.69,0,0,0-.44.28,1.37,1.37,0,0,0-.4.59,1,1,0,0,0,.11.86,1,1,0,0,0,.45.35,1.09,1.09,0,0,0,.63.06,1.37,1.37,0,0,0,.44-.19l.27-.17a.71.71,0,0,1,.26-.08l.17.17a3.2,3.2,0,0,0,.85.52,3.38,3.38,0,0,0,1.32.26,3.3,3.3,0,0,0,1.31-.29,3,3,0,0,0,.83-.55l.11-.11a.71.71,0,0,1,.28.08l.27.17A1.36,1.36,0,0,0,49,44a1.09,1.09,0,0,0,.63-.06,1,1,0,0,0,.45-.35A1,1,0,0,0,50.18,42.73Z"/><path class="cls-17" d="M57.88,33.07C57.65,33.2,56.3,32,56,31.89a4.92,4.92,0,0,0-2.88-.38c-1.5.26-3,1.22-4.56,1.14-1-.05-.89-1.87-.8-2.38s4.85-.58,6-.55a4.61,4.61,0,0,1,3.07,1.13c.17.15,1.61,1.89,1,2.24Z"/><path class="cls-17" d="M33.54,33.07c.23.13,1.57-1.07,1.83-1.19a4.92,4.92,0,0,1,2.88-.38c1.5.26,3,1.22,4.56,1.14,1-.05.89-1.87.8-2.38s-4.85-.58-6-.55a4.61,4.61,0,0,0-3.07,1.13c-.17.15-1.61,1.89-1,2.24Z"/><path class="cls-17" d="M60.82,39.49c-1,7.74-7.41,12.11-11.22,14a1.93,1.93,0,0,1-2.81-1.72H44.63v.08c0,1.42-1.65,2.09-2.93,1.47-3.8-1.83-10.12-5.81-11.09-13.87h-.29l.59,7c1.21,7.31,9.53,12.83,12.68,12.83h4.24c3.4,0,11.48-5.52,12.68-12.83l.59-7Z"/></g><path class="cls-2" d="M45,90A45,45,0,1,1,90,45,45.05,45.05,0,0,1,45,90ZM45,4.5A40.5,40.5,0,1,0,85.5,45,40.55,40.55,0,0,0,45,4.5Z"/></g></svg>