<svg xmlns="http://www.w3.org/2000/svg" xmlns:xlink="http://www.w3.org/1999/xlink" width="90" height="90" viewBox="0 0 90 90"><defs><style>.cls-1{fill:none;}.cls-2{fill:#fff;}.cls-3{clip-path:url(#clip-path);}.cls-4{fill:#cef6ef;}.cls-5{fill:#eebe89;}.cls-6{fill:#915f3d;}.cls-7{fill:#212121;}.cls-8{fill:#dbae82;}.cls-9{fill:#d89e68;}.cls-10{fill:#dd7b45;}.cls-11{fill:#19130e;}.cls-12{clip-path:url(#clip-path-2);}.cls-13{fill:#82543d;}.cls-14{fill:#b28c79;}.cls-15{clip-path:url(#clip-path-3);}.cls-16{fill:#f95151;}.cls-17{fill:#f2a470;}.cls-18{fill:#edeceb;}.cls-19{fill:#331c18;}</style><clipPath id="clip-path"><circle class="cls-1" cx="45" cy="45" r="42.75"/></clipPath><clipPath id="clip-path-2"><path id="SVGID" class="cls-2" d="M42,39.81s-.85-1.4-3.8-1.67-3.88.8-3.88.8.57.49,3.59.76A19.3,19.3,0,0,0,42,39.81Z"/></clipPath><clipPath id="clip-path-3"><path id="SVGID-2" data-name="SVGID" class="cls-2" d="M50.71,39.81s.85-1.4,3.8-1.67,3.88.8,3.88.8-.57.49-3.59.76A19.3,19.3,0,0,1,50.71,39.81Z"/></clipPath></defs><title>nav-icon-2</title><g id="Layer_1" data-name="Layer 1"><g class="cls-3"><circle class="cls-4" cx="45" cy="45" r="42.75"/><circle cx="37.15" cy="47.95" r="11.53" transform="matrix(0.97, -0.26, 0.26, 0.97, -11.17, 11.28)"/><path class="cls-5" d="M76.36,72.64C72.76,67.43,60.49,68.88,56.54,66s-3.36-14.34-3.36-14.34h-14S39.79,63,35.84,66,19.63,67.43,16,72.64c-6,8.68,5.64,15.74,7.39,20.71C27.3,103.67,29,111.46,29,119.64H63.43c0-8.18,1.66-16,5.55-26.29C70.73,88.38,82.38,81.32,76.36,72.64Z"/><path class="cls-6" d="M43.7,59.32c4.21.85,7.86-.16,9.63-2.21a43.31,43.31,0,0,1-.14-5.5h-14a39.26,39.26,0,0,1-.73,9.31A4.79,4.79,0,0,1,43.7,59.32Z"/><path class="cls-6" d="M51.1,87.55a6.29,6.29,0,0,0-4.91,5,6.29,6.29,0,0,0-4.91-5c3.07,1.26,5,5.22,4.52,8.65h.79C46.09,92.77,48,88.81,51.1,87.55Z"/><path d="M67.09,68.53l-1.23,17.6,1.35.09,1.22-17.45Z"/><path d="M25.19,86.23l1.35-.09L25.3,68.53,24,68.77Z"/><path class="cls-7" d="M68.81,92.41c0-4.54-.52-9-2.1-11.4-4.94,6.31-11.61,11.13-19.63,14.8C50.77,108.06,67.59,109.8,68.81,92.41Z"/><path class="cls-7" d="M23.61,92.56c0-4.54.48-9.17,2.06-11.54,4.94,6.31,11.61,11.13,19.63,14.8C41.62,108.06,24.83,109.95,23.61,92.56Z"/><path class="cls-5" d="M56.54,66C52.6,63,53.19,51.61,53.19,51.61h-14S39.79,63,35.84,66C35.47,73.87,54,74.94,56.54,66Z"/><path class="cls-8" d="M43.7,59.32c4.21.85,7.86-.16,9.63-2.21a43.31,43.31,0,0,1-.14-5.5h-14a39.26,39.26,0,0,1-.73,9.31A4.79,4.79,0,0,1,43.7,59.32Z"/><path class="cls-8" d="M31.76,34.12s-2-3-3.61-1.7c-2.67,2.24.91,11.6,4.31,9.83Z"/><path class="cls-9" d="M31.18,34.72s-1.41-1.91-2.48-1.08c-1.83,1.42,1.38,8.15,3,6.25Z"/><path class="cls-8" d="M61.09,34.12s2-3,3.61-1.7c2.67,2.24-.91,11.6-4.31,9.83Z"/><path class="cls-6" d="M61.67,34.72s1.41-1.91,2.48-1.08c1.83,1.42-1.38,8.15-3,6.25Z"/><circle class="cls-2" cx="62.17" cy="41.06" r="0.39"/><circle class="cls-2" cx="30.69" cy="41.06" r="0.39"/><path class="cls-5" d="M30,36.41c1.68,13.29,10.68,22.13,16.38,22.13S61.1,49.7,62.78,36.41c1.75-13.83-.92-24.26-16.38-24.26S28.29,22.62,30,36.41Z"/><path class="cls-10" d="M44,44.73a1.91,1.91,0,0,0-.22.68.6.6,0,0,0,.13.4l.08.07.1,0c.33.07.73-.23,1.09-.23s1,.24,1.5.2c.35,0,.67-.2,1-.2s.72.26,1.1.2a.36.36,0,0,0,.2-.1.41.41,0,0,0,.1-.18.61.61,0,0,0,0-.21,1.8,1.8,0,0,0-.24-.67,1.52,1.52,0,0,1,.39.64.67.67,0,0,1-.11.57.64.64,0,0,1-.3.2c-.4.13-.76-.1-1.15-.08s-.63.19-1,.23a3.46,3.46,0,0,1-1.15-.15,2.77,2.77,0,0,0-1.23.07.73.73,0,0,1-.38,0,.57.57,0,0,1-.28-.23.75.75,0,0,1-.09-.57A1.59,1.59,0,0,1,44,44.73Z"/><path class="cls-11" d="M32.12,34.4s.05,0,.1-.06l.09-.09.13-.12a4,4,0,0,1,.85-.64A4.21,4.21,0,0,1,34.68,33a5.3,5.3,0,0,1,1.68,0,17.75,17.75,0,0,1,3.22,1c.46.17.87.31,1.18.41l.61.17a1.48,1.48,0,0,0,.8,0c.21-.07.34-.21.36-.36a.53.53,0,0,0-.27-.43,1.89,1.89,0,0,0-.68-.29L41,33.36c-.3-.08-.69-.19-1.16-.33s-1-.31-1.58-.46a10.33,10.33,0,0,0-1.84-.33,5.53,5.53,0,0,0-1.86.15,4.28,4.28,0,0,0-1.47.72,3.22,3.22,0,0,0-.8.86l-.1.17-.06.13C32.11,34.34,32.1,34.39,32.12,34.4Z"/><path class="cls-11" d="M60.6,34.4s-.05,0-.1-.06l-.09-.09-.13-.12a4,4,0,0,0-.85-.64A4.21,4.21,0,0,0,58,33a5.3,5.3,0,0,0-1.68,0,17.75,17.75,0,0,0-3.22,1c-.46.17-.87.31-1.18.41l-.61.17a1.48,1.48,0,0,1-.8,0c-.21-.07-.34-.21-.36-.36a.53.53,0,0,1,.27-.43,1.89,1.89,0,0,1,.68-.29l.56-.13c.3-.08.69-.19,1.16-.33s1-.31,1.58-.46a10.33,10.33,0,0,1,1.84-.33,5.53,5.53,0,0,1,1.86.15,4.28,4.28,0,0,1,1.47.72,3.22,3.22,0,0,1,.8.86l.1.17.06.13C60.61,34.34,60.62,34.39,60.6,34.4Z"/><path id="SVGID-3" data-name="SVGID" class="cls-2" d="M42,39.81s-.85-1.4-3.8-1.67-3.88.8-3.88.8.57.49,3.59.76A19.3,19.3,0,0,0,42,39.81Z"/><g class="cls-12"><circle class="cls-13" cx="38.06" cy="39.11" r="2.02" transform="translate(-4.36 73.45) rotate(-84.77)"/><circle cx="38.06" cy="39.11" r="1.13" transform="translate(-4.36 73.44) rotate(-84.77)"/><circle class="cls-2" cx="37.62" cy="38.57" r="0.23" transform="translate(-4.22 72.53) rotate(-84.78)"/></g><path class="cls-14" d="M42,39.81s-.36-2.1-3.84-2.42-3.84,1.55-3.84,1.55A7,7,0,0,1,42,39.81Z"/><path d="M34.29,38.94a2.89,2.89,0,0,1-.95-1.28c1.42.45,3.06-.23,4.92.09A7.7,7.7,0,0,1,42,39.81a8.51,8.51,0,0,0-3.76-1.6A7.17,7.17,0,0,0,34.29,38.94Z"/><path id="SVGID-4" data-name="SVGID" class="cls-2" d="M50.71,39.81s.85-1.4,3.8-1.67,3.88.8,3.88.8-.57.49-3.59.76A19.3,19.3,0,0,1,50.71,39.81Z"/><g class="cls-15"><circle class="cls-13" cx="54.62" cy="39.11" r="2.02" transform="translate(-3.34 5.14) rotate(-5.23)"/><circle cx="54.62" cy="39.11" r="1.13" transform="translate(-3.34 5.14) rotate(-5.23)"/><circle class="cls-2" cx="55.06" cy="38.57" r="0.23" transform="translate(-3.28 5.17) rotate(-5.22)"/></g><path class="cls-14" d="M50.71,39.81s.36-2.1,3.84-2.42,3.84,1.55,3.84,1.55A7,7,0,0,0,50.71,39.81Z"/><path d="M58.39,38.94a2.89,2.89,0,0,0,.95-1.28c-1.42.45-3.06-.23-4.92.09a7.7,7.7,0,0,0-3.71,2.06,8.51,8.51,0,0,1,3.76-1.6A7.17,7.17,0,0,1,58.39,38.94Z"/><path class="cls-16" d="M53.31,48.75c-2,.54-4.77-.8-6.95-.8s-5,1.29-6.95.8C41.28,50.37,42.77,54,46.36,54S51.21,50.83,53.31,48.75Z"/><path class="cls-2" d="M51.6,49.39c-1.52.4-3.6.12-5.24.12a24.82,24.82,0,0,1-5.24-.12A11.38,11.38,0,0,0,46.36,51,11.09,11.09,0,0,0,51.6,49.39Z"/><path class="cls-5" d="M16.84,71c-8.69,3.81-33.09,29.79-38.65,42.71a6.39,6.39,0,0,0,.78,6.39L6.63,145.44l4.54,6.71a3.41,3.41,0,0,0,5.48.74c1.44-1.23,5.57-4.41,5.57-4.41l4.94,4.07a1.89,1.89,0,0,0,2.22.14l.7-.44.49.3a1.38,1.38,0,0,0,1.44,0h0a1.38,1.38,0,0,0,.5-1.82l0-.08h0a1.61,1.61,0,0,0,.26-2.49l-6.64-6.66a1.55,1.55,0,0,0-1.88-.25l-1.29.74,3.33-2.79,5.14,2.46a1.37,1.37,0,0,0,1.69-.42h0a1.37,1.37,0,0,0-.39-2l-6-3a2.47,2.47,0,0,0-2.57.23l-9.17,6.83-24.09-28c12.37-14.14,25.5-21.55,33.51-26.17C24.36,89.15,26.42,66.78,16.84,71Z"/><path class="cls-5" d="M76.22,70.26C85,73.83,110.11,99.14,116,111.89a6.39,6.39,0,0,1-.6,6.41l-27,26.1-4.35,6.83a3.41,3.41,0,0,1-5.45.88c-1.47-1.19-5.69-4.25-5.69-4.25l-4.83,4.2a1.89,1.89,0,0,1-2.22.2l-.71-.42-.48.32a1.38,1.38,0,0,1-1.44,0h0a1.38,1.38,0,0,1-.55-1.8l0-.08h0a1.61,1.61,0,0,1-.33-2.48L68.91,141a1.55,1.55,0,0,1,1.87-.3l1.31.71-3.41-2.7-5.07,2.6a1.37,1.37,0,0,1-1.7-.37h0a1.37,1.37,0,0,1,.33-2l5.92-3.15a2.47,2.47,0,0,1,2.58.16l9.35,6.57,23.31-28.66C90.65,100.07,77.32,93,69.19,88.62,69.19,88.62,66.53,66.32,76.22,70.26Z"/><path class="cls-17" d="M41.62,89.5a6.9,6.9,0,0,1,5.46,5.38,6.9,6.9,0,0,1,5.31-5.53C49,90.77,47,95.15,47.58,98.9h-.87C47.2,95.14,45,90.83,41.62,89.5Z"/><path d="M23.8,68.89l1.63,19.28L24,88.3,22.34,69.18Z"/><path d="M70,87.63l-1.48-.08,1.07-19.32,1.47.25Z"/><path class="cls-7" d="M22.28,95.11c0-5,.42-9.9,2.12-12.53,5.52,6.84,12.91,12,21.76,15.91C42.32,112,23.9,114.15,22.28,95.11Z"/><path class="cls-7" d="M71.85,94.56c-.12-5-.67-10-2.45-12.62-5.32,7-12.55,12.39-21.29,16.53C52.35,111.83,70.78,113.64,71.85,94.56Z"/><path class="cls-18" d="M23.88,68.23C15.76,68.24,4.11,79.4,4.11,79.4L18.17,94c7.42,10.13,1.62,27.6,9.38,28.24h39c5.77-4.19,4.93-15.7,8.19-29.58L85.25,74.7s-8.56-8.45-24.9-8.45Z"/><path class="cls-2" d="M34.28,76.65v38.29H59.73V76.65Zm25,.44v.72h-1c-3.34,0-7.95.18-13,.55-3.95.29-7.59.67-10.57,1V77.09ZM34.72,110.79v-2.68l.63,0c1.76-.05,3.86-.11,6.18-.16s4.89-.08,7.57-.08,5.24,0,7.57.06l2.62.05v1.95c-1.16,0-2.41-.07-3.75-.09-2.26,0-4.74,0-7.35.06s-5.08.21-7.34.36-4.28.34-6,.53Zm.22.65c1.7-.1,3.72-.22,6-.33s4.72-.21,7.31-.28,5.07-.11,7.32-.13l3.75,0V113l-1.8-.12c-2.46-.15-5.18-.27-8-.33s-5.57,0-8,0-4.69.16-6.55.29h-.16v-1.37Zm-.22-4v-3.28l1.87,0c1.8,0,3.95-.05,6.33-.07s5,0,7.75,0,5.36.12,7.74.2l.88,0v2.79L56.7,107c-2.33-.08-4.9-.14-7.6-.14s-5.26.07-7.6.16-4.43.22-6.19.36Zm0-3.85v-1.33c2.35-.17,4.87-.34,7.5-.47,3.19-.16,6.23-.26,9-.32,1.38,0,2.7-.05,3.93-.06l3.43,0h.71v2.11l-.84-.05c-2.39-.13-5-.23-7.77-.28s-5.39,0-7.77,0-4.54.15-6.34.27Zm0-2.23v-2.2c2.65,0,5.6,0,8.71,0,6.34-.05,12-.16,15.86-.29v1.9l-.7,0c-1,0-2.2-.08-3.44-.09s-2.56,0-3.94,0c-2.78,0-5.83.09-9,.25C39.56,101,37.06,101.19,34.72,101.4Zm0-3.06v-3c2.24-.13,4.62-.2,7.1-.21,3.33,0,6.5.1,9.38.23,1.44.07,2.81.13,4.1.21l3.57.21.43,0v2.48c-3.84-.07-9.52-.09-15.87,0C40.32,98.25,37.37,98.29,34.72,98.33Zm0-3.93v-.85c2.57-.19,5.35-.36,8.26-.49,3.3-.14,6.45-.21,9.31-.25,1.43,0,2.79,0,4.06,0l2.94,0v2.3l-.38,0c-1.09-.11-2.28-.22-3.57-.32s-2.66-.2-4.1-.3c-2.89-.17-6.08-.31-9.43-.3C39.32,94.17,37,94.26,34.72,94.41Zm0-1.74V90.25C37,90.14,39.4,90,41.91,90c3.27-.08,6.38-.1,9.21-.1,1.42,0,2.76,0,4,0s2.43,0,3.5.07l.64,0v2.13c-.91,0-1.89-.09-2.93-.11-1.28,0-2.64-.06-4.08-.07-2.87,0-6,0-9.35.18C40,92.25,37.28,92.45,34.72,92.67Zm0-3.32v-1l.65-.07c1-.12,2.06-.23,3.17-.35,2.24-.23,4.7-.45,7.28-.63s5.05-.3,7.3-.39c1.12,0,2.19-.08,3.19-.1l2.78-.06h.19v2.61l-.61,0c-1.07-.07-2.25-.14-3.51-.18s-2.61-.09-4-.13c-2.84-.05-6-.06-9.25,0C39.39,89.1,37,89.21,34.72,89.35Zm0-1.76V85.53l5-.44c2.22-.17,4.66-.35,7.23-.5s5-.26,7.24-.34l5.07-.15v2H59.1c-.85,0-1.79-.05-2.79-.06s-2.08,0-3.21,0c-2.26,0-4.74.14-7.34.32s-5.07.44-7.32.71c-1.12.15-2.18.28-3.18.44Zm0-2.78V82.22l4.51-.29c2.2-.13,4.62-.25,7.16-.35s5-.15,7.17-.19,4.09,0,5.73,0v2c-1.5,0-3.22,0-5.09,0-2.24,0-4.69.12-7.27.27s-5,.36-7.25.58C37.85,84.41,36.18,84.61,34.72,84.81Zm0-3.33V80.18c3-.26,6.67-.58,10.64-.87,5.07-.37,9.66-.63,13-.82l.95-.06v2.24c-1.64-.08-3.58-.13-5.73-.15s-4.65,0-7.2.11-5,.25-7.19.43C37.55,81.19,36.06,81.33,34.72,81.48Zm0,33v-1h.19c1.86,0,4.08-.07,6.54-.08s5.17,0,8,.05,5.54.15,8,.25l1.84.09v.71Z"/><path class="cls-18" d="M-23.62,114.94C-18.06,102,6.73,77.09,6.73,77.09c11.44,6.77,20.4,16.31,15.91,33.35-6.33-11.56-28,7.36-28,7.36l3,5.47-8.64,6.06-10.52-7.7C-23.88,119.57-24.54,117.05-23.62,114.94Z"/><path class="cls-18" d="M117.41,111.69c-7-12.19-27-35.32-35.61-39.59S65.6,92.28,72,108.69c8.86-13.38,26.43,7.11,26.43,7.11l-2.34,6,9.68,7.08L116,118.6C118.2,116.26,118.56,113.69,117.41,111.69Z"/><path class="cls-19" d="M43.61,11.94v0c17.33-3.33,20.8,12.87,22.16,14.88,6.42,9.57-.09,9.58-1.43,17a14,14,0,0,1-2.58-5.7c-1.94-7.9-18.15-7.82-25.08-18.06A7.56,7.56,0,0,0,32.37,26c-.17,2.34.95,4.79-.1,7-1,2-3.34,3.85-3.66,5.64s.66,3.6,1.66,5c-3.92,0-5.68-4.24-3.93-9.75C27.7,29.6,25.72,11.39,43.61,11.94Z"/></g><path class="cls-2" d="M45,90A45,45,0,1,1,90,45,45.05,45.05,0,0,1,45,90ZM45,4.5A40.5,40.5,0,1,0,85.5,45,40.55,40.55,0,0,0,45,4.5Z"/></g></svg>