<svg xmlns="http://www.w3.org/2000/svg" xmlns:xlink="http://www.w3.org/1999/xlink" width="90" height="90" viewBox="0 0 90 90"><defs><style>.cls-1{fill:none;}.cls-2{clip-path:url(#clip-path);}.cls-3{fill:#cef6ef;}.cls-4{fill:#93562a;}.cls-5{fill:#723b17;}.cls-6{fill:#c56946;}.cls-7{fill:#593b31;}.cls-8{fill:#aa573d;}.cls-9{fill:#c48b47;}.cls-10{fill:#725d54;}.cls-11{fill:#7a645a;}.cls-12{fill:#cecccc;}.cls-13{fill:#2b1a14;}.cls-14{fill:#847167;}.cls-15{fill:#aaa;}.cls-16{fill:#d6d6d6;}.cls-17{fill:#fff;}.cls-18{fill:#592b1d;}.cls-19{fill:#be5647;}.cls-20{fill:#93322b;}.cls-21{clip-path:url(#clip-path-2);}.cls-22{fill:#eebe89;}.cls-23{fill:#edeceb;}</style><clipPath id="clip-path"><circle class="cls-1" cx="45" cy="45" r="42.75"/></clipPath><clipPath id="clip-path-2"><circle class="cls-1" cx="157" cy="45" r="42.75"/></clipPath></defs><title>nav-icon-1</title><g id="Layer_1" data-name="Layer 1"><g class="cls-2"><circle class="cls-3" cx="45" cy="45" r="42.75"/><path class="cls-4" d="M8.77,78.91C13.32,71,27,66.22,30.93,64s3.29-11.91,3.29-11.91H57.46S56.86,61.88,60.76,64,78.36,71,82.91,78.91s-13.43,34.55-13.43,48.64c0,10.09,1.52,10.36,1.52,31.15H20.69c0-20.79,1.52-21.06,1.52-31.15C22.2,113.47,4.22,86.84,8.77,78.91Z"/><path class="cls-5" d="M59.49,62.91c-4.38-2.24-3.64,1.19-12.25,3.15-5.68,1.3-12.79-2.8-13.87-5.6a27.2,27.2,0,0,0,.85-8.33H57.46S57,59.59,59.49,62.91Z"/><path class="cls-4" d="M45.49,92.3a49.78,49.78,0,0,1,.35-8,49.75,49.75,0,0,1,.35,8,57.16,57.16,0,0,1-.35,8A57.2,57.2,0,0,1,45.49,92.3Z"/><path class="cls-6" d="M21.07,127.65C21.07,113.56,4.33,86.94,8.88,79S27.14,66.31,31,64.14a4.85,4.85,0,0,0,1.9-2.2c9.13,6.36,15.94,6.43,26,0a4.85,4.85,0,0,0,1.9,2.2C64.76,66.31,78.47,71.07,83,79s-12.19,34.55-12.19,48.64c0,8.19,2,34.83,2,34.83H19.14S21.07,136,21.07,127.65Z"/><rect class="cls-7" x="43.77" y="66.78" width="4.21" height="95.36" transform="translate(91.75 228.92) rotate(180)"/><polygon class="cls-8" points="33 59.87 29.99 64.35 41.31 73.11 45.87 66.78 33 59.87"/><polygon class="cls-8" points="58.63 60.03 61.91 64.35 50.59 73.11 45.87 66.78 58.63 60.03"/><circle class="cls-9" cx="45.87" cy="74.75" r="0.78"/><circle class="cls-9" cx="45.87" cy="84.72" r="0.78"/><path class="cls-10" d="M65.5,165.71c-9.85-8.31-11.95-26.81-10.69-56.63s11.72-44.4,11.72-44.4L80.75,70c8.81,4.73,13.32,13.23,12.14,26.74L74.58,112.44c-5.93,41,17.45,62.73-.64,80.76l1-13.13A30.6,30.6,0,0,0,65.5,165.71Z"/><path class="cls-10" d="M25.86,163.35c9.48-8.73,12.6-24.46,11.34-54.27s-11.72-44.4-11.72-44.4L11.26,70C2.45,74.76-2.06,83.26-.88,96.77L16.9,111.43c9,39.15-20.46,47.86-5,75.9C11.86,187.33,12.56,175.61,25.86,163.35Z"/><path class="cls-11" d="M22.53,160.86c9.48-8.73,12.6-24.46,11.34-54.27-.93-22,2.08-27.32,3.34,2.5s-1.86,45.54-11.34,54.27C12.56,175.61,13.57,169.11,22.53,160.86Z"/><path class="cls-10" d="M80.91,70.12c8.8,4.75,14.88,13.27,13.66,26.78,0,0,3.24,23.47,3,32.69s-5,34-5,34L77.73,162.2l-.16-35.43L73.92,109.3C70.18,94.94,64.7,68.7,80.91,70.12Z"/><path class="cls-10" d="M11.41,69.94c-8.82,4.7-14.95,13.19-13.8,26.7,0,0-3,23.45-3.13,32.67-.18,9.05,2.08,31,5.53,35.67l14.34-2.78-2.51-32.48,6.35-20.57C22,94.81,27.63,68.61,11.41,69.94Z"/><path class="cls-12" d="M60.56,77.31q3.69-.78,7.33-1.78c5.1-1.41,10.17-3.18,15.41-4A24.47,24.47,0,0,1,93.41,84.68c-11.83.07-23.65.9-35.48,1.53A92.76,92.76,0,0,1,60.56,77.31Z"/><path class="cls-12" d="M3.7,75.91a123.56,123.56,0,0,0,28.63,4c.67,2.11,1.32,4.44,1.92,7a157,157,0,0,1-35-3.7A23.69,23.69,0,0,1,3.7,75.91Z"/><path class="cls-13" d="M-2.39,96.64a32.71,32.71,0,0,1,.48-9.42c8.83,2.56,18.41,2,27.68,1.5q4.4-.23,8.8-.43c.62,2.79,1.17,5.83,1.61,9.11L-2.7,98.87C-2.51,97.47-2.39,96.64-2.39,96.64Z"/><path class="cls-13" d="M55.93,96.7c.47-3.31,1-6.37,1.68-9.16q11.57-.25,23.13-.25,4.41,0,8.83,0c1.32,0,3-.18,4.52-.07a32.55,32.55,0,0,1,.47,9.63s.1.76.27,2C82.09,96.46,69,96.34,55.93,96.7Z"/><path class="cls-13" d="M71.25,75.88c.27-.29,1.68.54,3.41,1.94,1.4-1.47,2.61-2.37,2.91-2.11s-.39,1.6-1.62,3.22l0,0c2.28,2.06,3.86,4,3.53,4.39s-2.42-1-4.67-3c-1.7,2-3.32,3.26-3.68,3s.7-2.16,2.39-4.18C72,77.51,71,76.18,71.25,75.88Z"/><path class="cls-13" d="M81.49,76.6c-.65-.88-.93-1.51-.76-1.68s.79.16,1.65.79c.47.34,1,.77,1.62,1.24,1-1.38,2-2.24,2.3-2s-.08,1.49-.95,3.06l.25.18c1.26.9,2.48,1.65,3.35,2.26s1.38,1.09,1.27,1.31-.8.15-1.83-.18a14.48,14.48,0,0,1-3.82-1.94l-.14-.11c-1.24,1.84-2.49,3.1-2.87,2.85s.27-2,1.51-4A14.36,14.36,0,0,1,81.49,76.6Z"/><path class="cls-13" d="M18.17,81.71c-.84-1.12-1.28-2-1-2.23s1.17.3,2.29,1.28c1.08-.71,2-1,2.22-.75s-.21,1-1,1.88l.34.35c1.76,1.86,2.89,3.64,2.53,4s-2.07-.9-3.83-2.76l-.36-.39c-1.41,1.11-2.75,1.71-3,1.35S16.8,82.87,18.17,81.71Z"/><path class="cls-13" d="M10.7,82l1.19-.86c-.64-1.35-.76-2.49-.39-2.64s1,.55,1.73,1.61c.82-.65,1.45-1.15,1.78-1s.22.56,0,1.15a4.55,4.55,0,0,1-.82,1.25c.89,1.47,1.48,2.72,1.13,3s-1.5-.49-2.52-1.93a4.35,4.35,0,0,1-1.63.54c-.65.06-1.07-.09-1.11-.33S10.27,82.31,10.7,82Z"/><path class="cls-13" d="M4.76,79.91c-.82-1.42-1-2.68-.66-2.87s1.25.71,2.17,2c1-.48,1.78-.64,2-.36s-.26.94-1.08,1.66c.75,1.2,1.21,2.18.91,2.46s-1.29-.3-2.27-1.44c-1.55,1-3,1.51-3.28,1.1S3.25,80.93,4.76,79.91Z"/><path class="cls-6" d="M60.43,96.73c0,.08.54.36,1.63.33A7.06,7.06,0,0,0,64,96.72a10.71,10.71,0,0,0,2.35-1.12,19.72,19.72,0,0,0,2.47-1.88l1.11-1c.41.44.84.9,1.34,1.35a7.72,7.72,0,0,0,3.12,1.79,8.53,8.53,0,0,0,3.85.08,13.68,13.68,0,0,0,3.52-1.24c.52-.26,1-.53,1.49-.8l.29.31a12.54,12.54,0,0,0,5.89,3.28,11.59,11.59,0,0,0,2.56.34c.38,0,.73,0,1.06,0s.62-.07.88-.1c.52-.1.46-.6,0-.59l-.84,0c-.3,0-.64,0-1-.1a12.72,12.72,0,0,1-2.34-.53,12.28,12.28,0,0,1-5.17-3.22l-.06-.07.19-.12a22.49,22.49,0,0,1,4.84-2.43,9.6,9.6,0,0,1,3.54-.49c.85.06,1.33.19,1.38.08s-.37-.41-1.28-.67a8.21,8.21,0,0,0-3.92,0,13.65,13.65,0,0,0-2.56.87c-.88.39-1.78.87-2.7,1.39l-.42.23c-.44-.56-.9-1.16-1.42-1.76a10.19,10.19,0,0,0-1.58-1.51,6,6,0,0,0-2.13-1,6.3,6.3,0,0,0-2.35-.13,8.51,8.51,0,0,0-2.14.56,12.39,12.39,0,0,0-3.42,2.16l-.57.51a11.93,11.93,0,0,0-2-1.62,5.88,5.88,0,0,0-3.81-1.08,3.5,3.5,0,0,0-.62.14,3.37,3.37,0,0,0-.42.19c-.21.13-.31.22-.29.27s.52-.07,1.35,0a6,6,0,0,1,3.18,1.37A12.66,12.66,0,0,1,69,91.75l-1.07,1a22.07,22.07,0,0,1-2.22,1.92,11.47,11.47,0,0,1-2,1.21,8.3,8.3,0,0,1-1.7.55C61,96.67,60.44,96.61,60.43,96.73Zm10.51-4.86.48-.4a11.55,11.55,0,0,1,3.07-1.86A5.24,5.24,0,0,1,81,91.31c.43.48.83,1,1.24,1.49A15.31,15.31,0,0,1,78,94.46a7.33,7.33,0,0,1-3.18,0A6.55,6.55,0,0,1,72.19,93C71.75,92.66,71.34,92.26,70.94,91.87Z"/><path class="cls-6" d="M30.4,88.34c0-.08-.55-.33-1.64-.27a7.05,7.05,0,0,0-1.93.42,10.7,10.7,0,0,0-2.3,1.21,19.73,19.73,0,0,0-2.39,2l-1.07,1c-.42-.43-.88-.87-1.4-1.3a7.72,7.72,0,0,0-3.19-1.66,8.53,8.53,0,0,0-3.85.07,13.68,13.68,0,0,0-3.47,1.37c-.51.28-1,.57-1.45.86l-.31-.3a12.54,12.54,0,0,0-6-3,11.59,11.59,0,0,0-2.57-.24c-.38,0-.38.81,0,.85a12.69,12.69,0,0,1,2.36.44,12.28,12.28,0,0,1,5.3,3l.07.07L6.31,93a22.49,22.49,0,0,1-4.74,2.62,9.82,9.82,0,0,1-3.08.62c-.74,0-.74.62,0,.69a8.67,8.67,0,0,0,3.4-.28,13.67,13.67,0,0,0,2.53-1c.87-.43,1.75-.94,2.65-1.49l.41-.25c.47.54.94,1.13,1.49,1.71A10.21,10.21,0,0,0,10.59,97a6,6,0,0,0,2.17.94,6.3,6.3,0,0,0,2.35,0,8.51,8.51,0,0,0,2.12-.65,12.39,12.39,0,0,0,3.33-2.3l.55-.53c3.06,3.86,9.46,2.57,10.4,2.39a3.49,3.49,0,0,0,.62-.16,3.32,3.32,0,0,0,.42-.2c.21-.14.3-.24.28-.28s-.52.09-1.35.05-5.92.92-9.48-2.69l1-1.07a22.07,22.07,0,0,1,2.14-2,11.48,11.48,0,0,1,2-1.29,8.29,8.29,0,0,1,1.68-.62C29.81,88.43,30.39,88.47,30.4,88.34ZM20.09,93.61l-.46.42a11.54,11.54,0,0,1-3,2,6,6,0,0,1-3.55.49,6,6,0,0,1-3-1.92c-.44-.46-.87-1-1.3-1.44A15.3,15.3,0,0,1,13,91.3a7.33,7.33,0,0,1,3.18-.1,6.55,6.55,0,0,1,2.64,1.3C19.24,92.86,19.67,93.24,20.09,93.61Z"/><path class="cls-11" d="M54.81,109.08c1.26-29.81,11.72-44.4,11.72-44.4l2.28.86c-2.88,5.12-9.37,19.07-10.34,42.16-1.26,29.81.84,48.32,10.69,56.63,5.76,4.86,2.1,6.25-3.66,1.38C55.65,157.4,53.55,138.89,54.81,109.08Z"/><path class="cls-14" d="M72.25,66.83C69,63.19,65.39,62.5,61.79,62c0,0-9.09,39.3-7.21,53.82C58.12,95.35,69.93,87.95,72.25,66.83Z"/><path class="cls-14" d="M19.58,66.83C22.79,63.19,26.44,62.5,30,62c0,0,9.27,39.3,7.39,53.82C33.89,95.35,21.9,87.95,19.58,66.83Z"/><path class="cls-4" d="M32.71,36.64s-2.29-4-4.37-2.47C24.8,36.78,28.45,49,32.86,47Z"/><path class="cls-5" d="M31.93,37.36s-1.59-2.55-3-1.59c-2.42,1.65,1,10.47,3.15,8.19Z"/><path class="cls-4" d="M59.45,36.64s2.29-4,4.37-2.47C67.36,36.78,63.71,49,59.3,47Z"/><path class="cls-5" d="M60.23,37.36s1.59-2.55,3-1.59c2.42,1.65-1,10.47-3.15,8.19Z"/><path class="cls-4" d="M46.08,62c-5.28,0-14.31-5.48-14.79-12L29.65,27.61c-.49-6.69,5.4-12.37,12.83-12.37h7.2c7.44,0,13.32,5.67,12.83,12.37L60.87,50C60.39,56.49,51.36,62,46.08,62Z"/><path class="cls-15" d="M46.1,11.57c5.78,0,9.54,3.7,12.18,5.68,9.54.18,4.25,17.85,4.25,17.85l-1,6s1-17.93-3.58-20.36c-3.57-1.88-2.68.49-12.08.35s-8.89-3.23-13.2.46c-3,2.54-2,19.68-2,19.68l-.84-5.85s-5.9-12.28.27-18.56C32.62,14.24,39.36,11.57,46.1,11.57Z"/><ellipse class="cls-5" cx="46.08" cy="55.17" rx="1.76" ry="0.18"/><path class="cls-16" d="M48.25,32.61l.07.66a.75.75,0,0,0,1,.66c3.94-1.46,7.61-2.46,9.37-.27a.27.27,0,0,0,.43,0h0a.31.31,0,0,0,0-.37l-1.2-1.59a2.45,2.45,0,0,0-2.33-1l-6.71,1.05A.76.76,0,0,0,48.25,32.61Z"/><path class="cls-16" d="M43.8,32.51l-.06.66a.74.74,0,0,1-1,.68c-3.92-1.38-7.57-2.32-9.29-.09a.27.27,0,0,1-.43,0h0a.32.32,0,0,1,0-.37l1.16-1.62a2.42,2.42,0,0,1,2.29-1l6.66.92A.76.76,0,0,1,43.8,32.51Z"/><path class="cls-17" d="M42.67,36.33c-2-2.62-4.82-3.06-7.2-.15C39.17,39.17,41.46,36.82,42.67,36.33Z"/><circle class="cls-18" cx="39.01" cy="35.8" r="1.75"/><circle cx="39.01" cy="35.8" r="0.98"/><circle class="cls-17" cx="39.5" cy="35.37" r="0.2"/><path class="cls-5" d="M42.67,36.33A3.69,3.69,0,0,0,39,33.92a3.78,3.78,0,0,0-3.53,2.26C38,34.09,40.76,34.36,42.67,36.33Z"/><path class="cls-17" d="M49.48,36.33c2-2.62,4.82-3.06,7.2-.15C53,39.17,50.69,36.82,49.48,36.33Z"/><circle class="cls-18" cx="53.15" cy="35.8" r="1.75"/><circle cx="53.15" cy="35.8" r="0.98"/><circle class="cls-17" cx="53.57" cy="35.37" r="0.2"/><path class="cls-5" d="M49.48,36.33a3.7,3.7,0,0,1,3.67-2.42,3.78,3.78,0,0,1,3.53,2.26C54.13,34.09,51.4,34.36,49.48,36.33Z"/><path class="cls-5" d="M50.13,43.92a1.39,1.39,0,0,0-.37-.6,1.51,1.51,0,0,0-.39-.28c-.11-.05-.18-.06-.2,0s.14.2.32.48a1.38,1.38,0,0,1,.22.51.83.83,0,0,1-.09.6.51.51,0,0,1-.47.25.94.94,0,0,1-.28-.11,2.84,2.84,0,0,0-.31-.15.84.84,0,0,0-.25-.05c.14-.2.17-.34.14-.36s-.26.2-.63.49a3.39,3.39,0,0,1-.72.42,2.63,2.63,0,0,1-1,.22,2.69,2.69,0,0,1-1-.19,3.58,3.58,0,0,1-.74-.4c-.39-.28-.6-.5-.66-.46s0,.12.11.29a.84.84,0,0,0-.22,0,2.83,2.83,0,0,0-.31.15.94.94,0,0,1-.28.11.51.51,0,0,1-.47-.25.84.84,0,0,1-.09-.6,1.39,1.39,0,0,1,.22-.51c.19-.28.37-.44.32-.48s-.09,0-.2,0a1.52,1.52,0,0,0-.39.28,1.39,1.39,0,0,0-.37.6,1,1,0,0,0,.1.86.94.94,0,0,0,.41.35.9.9,0,0,0,.57.06,1.18,1.18,0,0,0,.4-.19l.25-.17a.6.6,0,0,1,.23-.08l.16.17a2.87,2.87,0,0,0,.77.52,2.82,2.82,0,0,0,1.2.26,2.78,2.78,0,0,0,1.94-.84l.1-.11a.6.6,0,0,1,.26.08l.25.17a1.18,1.18,0,0,0,.4.19.9.9,0,0,0,.57-.06.94.94,0,0,0,.41-.35A1,1,0,0,0,50.13,43.92Z"/><path class="cls-19" d="M47.75,47.56c-.79.06-.93.62-1.67.62s-.89-.57-1.67-.62a7.49,7.49,0,0,0-4.66,1.15c1.34,2.05,1.12,4,6.33,4.23,5.21-.2,5-2.18,6.33-4.23A7.49,7.49,0,0,0,47.75,47.56Z"/><path class="cls-20" d="M52,48.76s-.11.14-.38.3a4.42,4.42,0,0,1-1.25.48,23.38,23.38,0,0,1-4.31.43,23.79,23.79,0,0,1-4.28-.5,4.41,4.41,0,0,1-1.27-.42L40.34,49l-.12-.09c-.06-.05-.09-.09-.08-.1s.05,0,.13,0l.14.05.19.07a5.93,5.93,0,0,0,1.25.27,14.52,14.52,0,0,0,1.9.07c.72,0,1.51-.05,2.34-.05.42,0,.83,0,1.22,0l1.13.07c.36,0,.7,0,1,0a7.09,7.09,0,0,0,.88-.08A14.78,14.78,0,0,0,52,48.76Z"/><path class="cls-15" d="M50.09,45.28A14.18,14.18,0,0,1,52.94,47a3.88,3.88,0,0,0,3.16.74A2.68,2.68,0,0,1,54.06,49l.49.27a4,4,0,0,1-3.34-.16l.38.37a4.45,4.45,0,0,1-2.85-1.22l.32.51A5.18,5.18,0,0,1,46.79,48c-.72-.55-1.23-1.86-.25-2.38A4.49,4.49,0,0,1,50.09,45.28Z"/><path class="cls-15" d="M42.58,45.28A14.18,14.18,0,0,0,39.72,47a3.88,3.88,0,0,1-3.16.74A2.68,2.68,0,0,0,38.61,49l-.49.27a4,4,0,0,0,3.34-.16l-.38.37a4.45,4.45,0,0,0,2.85-1.22l-.32.51A5.18,5.18,0,0,0,45.88,48c.72-.55,1.23-1.86.25-2.38A4.49,4.49,0,0,0,42.58,45.28Z"/></g><path class="cls-17" d="M45,90A45,45,0,1,1,90,45,45.05,45.05,0,0,1,45,90ZM45,4.5A40.5,40.5,0,1,0,85.5,45,40.55,40.55,0,0,0,45,4.5Z"/><g class="cls-21"><path class="cls-22" d="M128.84,71c-8.69,3.81-33.09,29.79-38.65,42.71a6.39,6.39,0,0,0,.78,6.39l27.66,25.36,4.54,6.71a3.41,3.41,0,0,0,5.48.74c1.44-1.23,5.57-4.41,5.57-4.41l4.94,4.07a1.89,1.89,0,0,0,2.22.14l.7-.44.49.3a1.38,1.38,0,0,0,1.44,0h0a1.38,1.38,0,0,0,.5-1.82l0-.08h0a1.61,1.61,0,0,0,.26-2.49l-6.64-6.66a1.55,1.55,0,0,0-1.88-.25l-1.29.74,3.33-2.79,5.14,2.46a1.37,1.37,0,0,0,1.69-.42h0a1.37,1.37,0,0,0-.39-2l-6-3a2.47,2.47,0,0,0-2.57.23l-9.17,6.83-24.09-28c12.37-14.14,25.5-21.55,33.51-26.17C136.36,89.15,138.42,66.78,128.84,71Z"/><path class="cls-23" d="M88.38,114.94c5.56-12.91,30.36-37.85,30.36-37.85,11.44,6.77,20.4,16.31,15.91,33.35-6.33-11.56-28,7.36-28,7.36l3,5.47-8.64,6.06-10.52-7.7C88.12,119.57,87.46,117.05,88.38,114.94Z"/></g></g></svg>