<svg xmlns="http://www.w3.org/2000/svg" width="45" height="45" viewBox="0 0 45 45"><defs><style>.cls-1{fill:none;stroke:#3addbe;stroke-linecap:round;stroke-linejoin:round;stroke-width:1.79px;}</style></defs><title>windows</title><g id="Layer_1" data-name="Layer 1"><path class="cls-1" d="M27.56,41.08c-3.19,0-7.45-2.63-7.45-2.62l3.64-12.63a12.35,12.35,0,0,0,7.89,2.56,20.47,20.47,0,0,0,6.89-1.31L35,39.34a19.73,19.73,0,0,1-7.46,1.74"/><path class="cls-1" d="M16,37.11a12.39,12.39,0,0,0-7.25-2.54,18.49,18.49,0,0,0-6.86,1.56L5.54,23.48a20.83,20.83,0,0,1,7.23-1.67,13.09,13.09,0,0,1,7,2.42C19.29,25.88,16.75,34.57,16,37.11Z"/><path class="cls-1" d="M24.17,6.29h0c-.75,2.57-3,10.17-3.71,12.7a12.33,12.33,0,0,0-7-2.51,19,19,0,0,0-7.07,1.65L10,5.52a19,19,0,0,1,6.79-1.59C19.11,3.92,21,4.36,24.17,6.29Z"/><path class="cls-1" d="M32.46,23.16a14,14,0,0,1-7.85-2.45l0,0L28.27,7.92a12.55,12.55,0,0,0,7.8,2.61,17.54,17.54,0,0,0,7-1.6L39.47,21.45h0a0,0,0,0,0,0,0,16.31,16.31,0,0,1-7,1.68"/></g></svg>