<svg id="Layer_1" data-name="Layer 1" xmlns="http://www.w3.org/2000/svg" xmlns:xlink="http://www.w3.org/1999/xlink" width="149" height="149" viewBox="0 0 149 149">
  <defs>
    <linearGradient id="linear-gradient" x1="-384.69" y1="126.69" x2="-380.8" y2="112.16" gradientTransform="translate(380.95 -207.9) rotate(-25.27)" gradientUnits="userSpaceOnUse">
      <stop offset="0.03" stop-color="#f17153"/>
      <stop offset="1" stop-color="#ed4333"/>
    </linearGradient>
    <linearGradient id="linear-gradient-2" x1="922.34" y1="807.55" x2="923.33" y2="807.55" gradientTransform="matrix(0.64, 0.77, -0.77, 0.64, 117.93, -1165.9)" gradientUnits="userSpaceOnUse">
      <stop offset="0.34" stop-color="#ef6348"/>
      <stop offset="1" stop-color="#ed4333"/>
    </linearGradient>
    <linearGradient id="linear-gradient-3" x1="1324.68" y1="676.51" x2="1325.71" y2="676.51" gradientTransform="translate(304.98 -1408.79) rotate(71.42)" xlink:href="#linear-gradient-2"/>
    <linearGradient id="linear-gradient-4" x1="1746.54" y1="310.45" x2="1747.57" y2="310.45" gradientTransform="translate(682.81 -1604.76) rotate(99.54)" xlink:href="#linear-gradient-2"/>
    <linearGradient id="linear-gradient-5" x1="943.38" y1="-1821.15" x2="947.27" y2="-1835.67" gradientTransform="matrix(-0.64, 0.77, -0.77, -0.64, -741.53, -1816.13)" xlink:href="#linear-gradient"/>
    <linearGradient id="linear-gradient-6" x1="-636.54" y1="-959.02" x2="-635.55" y2="-959.02" gradientTransform="translate(-96.8 -1059.34) rotate(-154.74)" xlink:href="#linear-gradient-2"/>
    <linearGradient id="linear-gradient-7" x1="-763.59" y1="-414.11" x2="-762.57" y2="-414.11" gradientTransform="translate(-162.79 -759.77) rotate(-133.74)" xlink:href="#linear-gradient-2"/>
    <linearGradient id="linear-gradient-8" x1="-610.36" y1="332.24" x2="-609.33" y2="332.24" gradientTransform="translate(-421.16 -423.02) rotate(-105.62)" xlink:href="#linear-gradient-2"/>
  </defs>
  <title>appetite</title>
  <circle cx="74.5" cy="74.5" r="74.5" style="fill: #ecedf0"/>
  <g>
    <g>
      <circle cx="73.51" cy="76.46" r="55.98" style="fill: #4f5257;opacity: 0.5"/>
      <g>
        <g>
          <circle cx="74.5" cy="74.49" r="57.93" style="fill: #eaecee"/>
          <circle cx="74.18" cy="74.49" r="56.6" style="fill: #fff"/>
          <g>
            <path d="M106.94,57.11A36.81,36.81,0,0,1,42.06,91.87a36.81,36.81,0,1,0,64.89-34.76Z" style="fill: #eaecee"/>
            <path d="M74.86,38.34a36.79,36.79,0,0,1,32.09,18.77A36.81,36.81,0,1,0,42.06,91.87a36.82,36.82,0,0,1,32.8-53.53Z" style="fill: #eaecee"/>
          </g>
        </g>
        <g>
          <path d="M120.33,76.57a13.72,13.72,0,0,1,4.58.51c1.16.39,1.86,1,1.8,1.75a1.07,1.07,0,0,1-.19.53c1.3-.26,2.12-.82,2.17-1.61s-.79-1.5-2.15-1.9a16.79,16.79,0,0,0-5.35-.44,41.43,41.43,0,0,0-5.52.61c-1.34.26-2.12.55-2.14.83s.21.35.63.56A21.44,21.44,0,0,1,120.33,76.57Z" style="fill: #eaecee"/>
          <path d="M119.94,80.85a13.7,13.7,0,0,1,4.51.94c1.12.5,1.76,1.18,1.63,1.91a1.08,1.08,0,0,1-.24.51c1.31-.14,2.19-.62,2.31-1.4s-.64-1.57-2-2.09a16.76,16.76,0,0,0-5.29-.94,41.36,41.36,0,0,0-5.55.09c-1.36.13-2.16.34-2.2.63s.18.37.58.61A21.5,21.5,0,0,1,119.94,80.85Z" style="fill: #eaecee"/>
          <path d="M119.15,85.08a13.71,13.71,0,0,1,4.4,1.36c1.07.6,1.64,1.34,1.44,2.06a1.09,1.09,0,0,1-.29.49c1.32,0,2.24-.41,2.43-1.18s-.49-1.62-1.76-2.27a16.77,16.77,0,0,0-5.18-1.43,42.19,42.19,0,0,0-5.53-.43c-1.37,0-2.18.14-2.25.42s.14.38.52.66A21.55,21.55,0,0,1,119.15,85.08Z" style="fill: #eaecee"/>
          <path d="M118,89.21A13.66,13.66,0,0,1,122.21,91c1,.7,1.51,1.49,1.24,2.18a1.1,1.1,0,0,1-.33.45c1.31.11,2.27-.19,2.53-.94s-.33-1.66-1.54-2.43a16.75,16.75,0,0,0-5-1.92,41.76,41.76,0,0,0-5.47-1c-1.36-.12-2.19-.07-2.28.2s.11.4.45.71A21.53,21.53,0,0,1,118,89.21Z" style="fill: #eaecee"/>
          <path d="M116.39,93.21a13.69,13.69,0,0,1,4.07,2.16c.94.79,1.36,1.62,1,2.29a1.09,1.09,0,0,1-.37.42c1.3.24,2.28,0,2.61-.69s-.18-1.68-1.3-2.56a16.73,16.73,0,0,0-4.81-2.38A41.86,41.86,0,0,0,112.25,91c-1.34-.25-2.17-.27-2.29,0s.07.4.38.75A21.5,21.5,0,0,1,116.39,93.21Z" style="fill: #eaecee"/>
          <path d="M114.45,97.05a13.67,13.67,0,0,1,3.85,2.53c.86.87,1.2,1.74.81,2.37a1.06,1.06,0,0,1-.41.38c1.27.36,2.27.23,2.67-.45s0-1.69-1.05-2.67a16.76,16.76,0,0,0-4.57-2.82,41.81,41.81,0,0,0-5.19-2c-1.31-.38-2.14-.47-2.28-.23s0,.41.31.78A21.46,21.46,0,0,1,114.45,97.05Z" style="fill: #eaecee"/>
          <path d="M112.15,100.69a13.68,13.68,0,0,1,3.59,2.88c.77,1,1,1.85.58,2.44a1.05,1.05,0,0,1-.44.34c1.23.47,2.23.44,2.69-.19s.14-1.69-.8-2.76a16.81,16.81,0,0,0-4.28-3.24,41.88,41.88,0,0,0-5-2.44c-1.27-.5-2.08-.67-2.25-.44s0,.41.23.81A21.53,21.53,0,0,1,112.15,100.69Z" style="fill: #eaecee"/>
          <path d="M109.53,104.1a13.71,13.71,0,0,1,3.31,3.2c.68,1,.85,1.93.36,2.48a1.1,1.1,0,0,1-.48.3c1.18.59,2.18.65,2.7.06s.3-1.66-.54-2.82a16.78,16.78,0,0,0-4-3.62,41.72,41.72,0,0,0-4.74-2.89c-1.22-.61-2-.86-2.2-.65s0,.41.16.83A21.47,21.47,0,0,1,109.53,104.1Z" style="fill: #eaecee"/>
          <path d="M106.6,107.25a13.68,13.68,0,0,1,3,3.5c.58,1.08.67,2,.13,2.5a1.08,1.08,0,0,1-.5.26c1.12.69,2.11.85,2.68.31s.45-1.63-.28-2.86a16.81,16.81,0,0,0-3.61-4,41.56,41.56,0,0,0-4.45-3.32c-1.16-.73-1.92-1-2.13-.85s-.09.4.08.84A21.36,21.36,0,0,1,106.6,107.25Z" style="fill: #eaecee"/>
          <path d="M103.39,110.11a13.66,13.66,0,0,1,2.66,3.76c.48,1.13.48,2.06-.11,2.51a1.08,1.08,0,0,1-.52.21c1.05.8,2,1,2.64.56s.6-1.58,0-2.87a16.78,16.78,0,0,0-3.22-4.29,41.59,41.59,0,0,0-4.12-3.72c-1.08-.83-1.82-1.22-2-1s-.13.39,0,.84A21.41,21.41,0,0,1,103.39,110.11Z" style="fill: #eaecee"/>
          <path d="M99.93,112.66a13.72,13.72,0,0,1,2.3,4c.37,1.17.29,2.1-.35,2.48a1.06,1.06,0,0,1-.54.16c1,.89,1.92,1.23,2.58.8s.74-1.52.26-2.86a16.85,16.85,0,0,0-2.81-4.58,42,42,0,0,0-3.75-4.09c-1-.93-1.69-1.38-1.93-1.23s-.16.38-.08.84A21.49,21.49,0,0,1,99.93,112.66Z" style="fill: #eaecee"/>
          <path d="M96.24,114.88a13.69,13.69,0,0,1,1.91,4.19c.26,1.2.09,2.11-.58,2.44a1.07,1.07,0,0,1-.55.11c.89,1,1.79,1.4,2.49,1s.88-1.44.53-2.82A16.79,16.79,0,0,0,97.68,115a41.8,41.8,0,0,0-3.35-4.42c-.91-1-1.56-1.54-1.81-1.41s-.19.36-.16.83A21.46,21.46,0,0,1,96.24,114.88Z" style="fill: #eaecee"/>
          <path d="M92.37,116.74a13.65,13.65,0,0,1,1.51,4.35c.15,1.22-.11,2.11-.8,2.38a1.09,1.09,0,0,1-.56.05c.79,1.06,1.65,1.57,2.39,1.27s1-1.35.79-2.76a16.71,16.71,0,0,0-1.9-5,41.87,41.87,0,0,0-2.92-4.72c-.81-1.1-1.4-1.68-1.67-1.57s-.23.34-.23.81A21.5,21.5,0,0,1,92.37,116.74Z" style="fill: #eaecee"/>
          <path d="M88.33,118.22a13.71,13.71,0,0,1,1.09,4.47c0,1.22-.31,2.09-1,2.29a1.06,1.06,0,0,1-.56,0c.69,1.13,1.5,1.71,2.26,1.49s1.14-1.25,1-2.67a16.79,16.79,0,0,0-1.42-5.18,41.74,41.74,0,0,0-2.47-5c-.7-1.17-1.24-1.8-1.51-1.72s-.26.32-.31.78A21.48,21.48,0,0,1,88.33,118.22Z" style="fill: #eaecee"/>
          <path d="M84.17,119.32a13.63,13.63,0,0,1,.66,4.56c-.08,1.22-.5,2.05-1.24,2.18A1.08,1.08,0,0,1,83,126c.58,1.19,1.33,1.85,2.1,1.69s1.25-1.14,1.29-2.56a16.72,16.72,0,0,0-.93-5.29,41.84,41.84,0,0,0-2-5.18c-.59-1.23-1.06-1.91-1.34-1.86s-.29.29-.38.75A21.5,21.5,0,0,1,84.17,119.32Z" style="fill: #eaecee"/>
          <path d="M79.93,120a13.7,13.7,0,0,1,.23,4.6c-.2,1.21-.7,2-1.44,2.06a1.08,1.08,0,0,1-.55-.1c.46,1.24,1.15,2,1.94,1.88s1.35-1,1.53-2.43a16.8,16.8,0,0,0-.43-5.35,41.6,41.6,0,0,0-1.49-5.35c-.47-1.28-.88-2-1.16-2s-.31.26-.45.71A21.4,21.4,0,0,1,79.93,120Z" style="fill: #eaecee"/>
          <path d="M75.64,120.33a13.67,13.67,0,0,1-.2,4.6c-.31,1.19-.88,1.92-1.62,1.92a1.09,1.09,0,0,1-.54-.16c.35,1.27,1,2.06,1.75,2.06s1.44-.89,1.75-2.28a16.84,16.84,0,0,0,.07-5.37,41.8,41.8,0,0,0-1-5.46c-.35-1.32-.69-2.08-1-2.07s-.34.24-.51.67A21.29,21.29,0,0,1,75.64,120.33Z" style="fill: #eaecee"/>
          <path d="M71.34,120.23a13.68,13.68,0,0,1-.62,4.56c-.42,1.15-1.05,1.84-1.79,1.76a1.06,1.06,0,0,1-.52-.2c.23,1.3.77,2.14,1.55,2.21s1.51-.75,1.95-2.11a16.84,16.84,0,0,0,.57-5.34,41.79,41.79,0,0,0-.48-5.53c-.23-1.35-.5-2.13-.78-2.15s-.36.2-.57.62A21.42,21.42,0,0,1,71.34,120.23Z" style="fill: #eaecee"/>
          <path d="M67.07,119.74a13.66,13.66,0,0,1-1,4.48c-.52,1.11-1.22,1.73-1.95,1.58a1.07,1.07,0,0,1-.5-.25c.1,1.32.57,2.21,1.34,2.35s1.58-.61,2.14-1.92a16.77,16.77,0,0,0,1.06-5.26,41.86,41.86,0,0,0,0-5.55c-.1-1.36-.29-2.17-.58-2.22s-.37.17-.63.56A21.48,21.48,0,0,1,67.07,119.74Z" style="fill: #eaecee"/>
          <path d="M62.86,118.85a13.71,13.71,0,0,1-1.46,4.37c-.63,1.05-1.38,1.61-2.09,1.39a1.07,1.07,0,0,1-.48-.3c0,1.32.36,2.25,1.12,2.46s1.63-.45,2.31-1.7a16.81,16.81,0,0,0,1.55-5.14,41.87,41.87,0,0,0,.56-5.52c0-1.37-.09-2.18-.36-2.26s-.39.13-.68.5A21.53,21.53,0,0,1,62.86,118.85Z" style="fill: #eaecee"/>
          <path d="M58.76,117.56a13.67,13.67,0,0,1-1.86,4.21c-.72,1-1.52,1.47-2.21,1.19a1.11,1.11,0,0,1-.45-.34c-.14,1.31.14,2.27.88,2.56s1.67-.3,2.46-1.48a16.73,16.73,0,0,0,2-5,41.88,41.88,0,0,0,1.08-5.44c.16-1.36.12-2.18-.15-2.29s-.4.1-.72.43A21.52,21.52,0,0,1,58.76,117.56Z" style="fill: #eaecee"/>
          <path d="M54.8,115.9a13.68,13.68,0,0,1-2.25,4c-.81.92-1.66,1.32-2.31,1a1.08,1.08,0,0,1-.41-.38c-.27,1.29-.07,2.28.63,2.63s1.69-.14,2.59-1.24a16.8,16.8,0,0,0,2.49-4.76,41.78,41.78,0,0,0,1.59-5.32c.28-1.34.32-2.16.07-2.29s-.4.06-.76.36A21.52,21.52,0,0,1,54.8,115.9Z" style="fill: #eaecee"/>
          <path d="M51,113.87a13.67,13.67,0,0,1-2.62,3.78c-.89.84-1.77,1.16-2.39.75a1.06,1.06,0,0,1-.37-.42c-.39,1.26-.29,2.26.38,2.67s1.69,0,2.69-1a16.79,16.79,0,0,0,2.93-4.5A41.77,41.77,0,0,0,53.7,110c.41-1.3.52-2.12.28-2.27s-.41,0-.79.29A21.44,21.44,0,0,1,51,113.87Z" style="fill: #eaecee"/>
          <path d="M47.42,111.49a13.76,13.76,0,0,1-3,3.52c-1,.75-1.87,1-2.45.53a1.08,1.08,0,0,1-.33-.46c-.5,1.22-.5,2.22.13,2.7s1.68.18,2.77-.74a16.73,16.73,0,0,0,3.34-4.21,41.72,41.72,0,0,0,2.55-4.93c.53-1.26.72-2.06.49-2.24s-.41,0-.81.21A21.43,21.43,0,0,1,47.42,111.49Z" style="fill: #eaecee"/>
          <path d="M44.07,108.79A13.72,13.72,0,0,1,40.8,112c-1,.66-2,.81-2.49.3a1.1,1.1,0,0,1-.29-.48c-.61,1.17-.7,2.17-.12,2.7s1.66.33,2.83-.48a16.77,16.77,0,0,0,3.71-3.88,41.74,41.74,0,0,0,3-4.67c.64-1.2.91-2,.7-2.18s-.41-.06-.83.14A21.46,21.46,0,0,1,44.07,108.79Z" style="fill: #eaecee"/>
          <path d="M41,105.78a13.69,13.69,0,0,1-3.56,2.91c-1.09.56-2,.62-2.51.07a1.09,1.09,0,0,1-.24-.51c-.72,1.11-.9,2.09-.37,2.68s1.62.49,2.86-.21a16.76,16.76,0,0,0,4.06-3.52,41.67,41.67,0,0,0,3.42-4.37c.75-1.14,1.09-1.9.9-2.11s-.4-.1-.84.06A21.38,21.38,0,0,1,41,105.78Z" style="fill: #eaecee"/>
          <path d="M38.21,102.51a13.72,13.72,0,0,1-3.82,2.57c-1.14.45-2.07.43-2.5-.17a1.07,1.07,0,0,1-.2-.53c-.82,1-1.09,2-.62,2.63s1.57.63,2.87.06a16.8,16.8,0,0,0,4.37-3.12,41.56,41.56,0,0,0,3.81-4c.86-1.07,1.26-1.79,1.09-2s-.39-.13-.84,0A21.48,21.48,0,0,1,38.21,102.51Z" style="fill: #eaecee"/>
          <path d="M35.74,99a13.71,13.71,0,0,1-4,2.2c-1.18.34-2.1.24-2.48-.4a1.07,1.07,0,0,1-.15-.55c-.91,1-1.27,1.89-.86,2.56s1.5.78,2.85.33a16.81,16.81,0,0,0,4.64-2.7,41.78,41.78,0,0,0,4.17-3.66c1-1,1.42-1.66,1.27-1.9s-.37-.17-.83-.1A21.55,21.55,0,0,1,35.74,99Z" style="fill: #eaecee"/>
          <path d="M33.61,95.25a13.7,13.7,0,0,1-4.23,1.81c-1.2.23-2.12,0-2.43-.63a1.09,1.09,0,0,1-.09-.56c-1,.86-1.44,1.76-1.1,2.47s1.42.92,2.81.59a16.77,16.77,0,0,0,4.87-2.25,42.32,42.32,0,0,0,4.5-3.25c1-.89,1.57-1.52,1.45-1.78s-.36-.2-.82-.17A21.52,21.52,0,0,1,33.61,95.25Z" style="fill: #eaecee"/>
          <path d="M31.84,91.33a13.67,13.67,0,0,1-4.39,1.4c-1.22.12-2.11-.16-2.36-.86a1.12,1.12,0,0,1,0-.56c-1.07.77-1.6,1.62-1.33,2.36s1.33,1,2.74.86a16.8,16.8,0,0,0,5.06-1.79,42,42,0,0,0,4.78-2.81c1.12-.79,1.71-1.37,1.61-1.63s-.34-.23-.8-.25A21.51,21.51,0,0,1,31.84,91.33Z" style="fill: #eaecee"/>
          <path d="M30.45,87.26a13.71,13.71,0,0,1-4.5,1c-1.22,0-2.09-.36-2.27-1.08a1.08,1.08,0,0,1,0-.56c-1.14.66-1.75,1.46-1.54,2.22s1.23,1.17,2.65,1.11A16.78,16.78,0,0,0,30,88.63a41.62,41.62,0,0,0,5-2.35c1.19-.68,1.83-1.2,1.76-1.47s-.31-.26-.78-.32A21.57,21.57,0,0,1,30.45,87.26Z" style="fill: #eaecee"/>
          <path d="M29.45,83.08a13.69,13.69,0,0,1-4.57.56c-1.22-.11-2-.55-2.15-1.29a1.1,1.1,0,0,1,.07-.56c-1.2.55-1.88,1.29-1.74,2.06s1.11,1.28,2.53,1.36a16.74,16.74,0,0,0,5.31-.8,41.75,41.75,0,0,0,5.23-1.86c1.24-.56,1.94-1,1.89-1.3s-.29-.29-.74-.4A21.47,21.47,0,0,1,29.45,83.08Z" style="fill: #eaecee"/>
          <path d="M28.85,78.82a13.67,13.67,0,0,1-4.6.13c-1.2-.23-2-.74-2-1.48a1.06,1.06,0,0,1,.12-.55c-1.25.43-2,1.1-1.93,1.89s1,1.37,2.39,1.59a16.82,16.82,0,0,0,5.36-.3,41.53,41.53,0,0,0,5.38-1.36c1.29-.44,2-.83,2-1.12s-.26-.32-.7-.47A21.36,21.36,0,0,1,28.85,78.82Z" style="fill: #eaecee"/>
          <path d="M28.64,74.53a13.7,13.7,0,0,1-4.59-.3c-1.18-.34-1.91-.92-1.88-1.66a1.07,1.07,0,0,1,.17-.54c-1.28.32-2.08.92-2.1,1.7s.85,1.46,2.24,1.8a16.82,16.82,0,0,0,5.37.2,41.77,41.77,0,0,0,5.48-.86c1.33-.32,2.09-.64,2.09-.93s-.23-.34-.65-.53A21.31,21.31,0,0,1,28.64,74.53Z" style="fill: #eaecee"/>
          <path d="M28.84,70.23a13.66,13.66,0,0,1-4.55-.72c-1.14-.45-1.81-1.09-1.72-1.83a1.09,1.09,0,0,1,.22-.52c-1.3.2-2.16.72-2.24,1.5s.71,1.53,2.06,2a16.78,16.78,0,0,0,5.32.69A41.87,41.87,0,0,0,33.47,71c1.35-.2,2.14-.45,2.17-.73s-.2-.36-.6-.59A21.46,21.46,0,0,1,28.84,70.23Z" style="fill: #eaecee"/>
          <path d="M29.43,66A13.68,13.68,0,0,1,25,64.82c-1.1-.55-1.7-1.26-1.54-2a1.07,1.07,0,0,1,.26-.5c-1.32.07-2.22.51-2.38,1.29s.57,1.6,1.86,2.18A16.72,16.72,0,0,0,28.43,67a41.6,41.6,0,0,0,5.55.17c1.37-.07,2.17-.24,2.23-.52s-.16-.38-.55-.64A21.46,21.46,0,0,1,29.43,66Z" style="fill: #eaecee"/>
          <path d="M30.42,61.79a13.68,13.68,0,0,1-4.33-1.56c-1-.65-1.57-1.41-1.34-2.12a1.09,1.09,0,0,1,.31-.47c-1.32,0-2.26.3-2.49,1.06S23,60.33,24.22,61a16.74,16.74,0,0,0,5.1,1.67,42,42,0,0,0,5.51.69c1.36.06,2.19,0,2.27-.31s-.12-.39-.48-.69A21.53,21.53,0,0,1,30.42,61.79Z" style="fill: #eaecee"/>
          <path d="M31.8,57.71a13.67,13.67,0,0,1-4.16-2c-1-.75-1.43-1.56-1.14-2.24a1.11,1.11,0,0,1,.35-.44c-1.31-.17-2.28.09-2.58.82s.26,1.67,1.42,2.5a16.77,16.77,0,0,0,4.92,2.15A42.16,42.16,0,0,0,36,59.75c1.35.19,2.18.17,2.29-.09s-.09-.4-.42-.73A21.51,21.51,0,0,1,31.8,57.71Z" style="fill: #eaecee"/>
          <path d="M33.56,53.79a13.66,13.66,0,0,1-4-2.35c-.9-.83-1.28-1.68-.92-2.33a1.08,1.08,0,0,1,.39-.4c-1.29-.3-2.27-.13-2.64.57s.1,1.69,1.18,2.62a16.75,16.75,0,0,0,4.7,2.6,42,42,0,0,0,5.28,1.71c1.33.31,2.16.37,2.29.12s0-.41-.34-.77A21.51,21.51,0,0,1,33.56,53.79Z" style="fill: #eaecee"/>
          <path d="M35.68,50A13.73,13.73,0,0,1,32,47.34c-.81-.91-1.12-1.8-.7-2.41a1.06,1.06,0,0,1,.43-.36c-1.25-.42-2.25-.34-2.68.32s-.06,1.69.93,2.72a16.78,16.78,0,0,0,4.43,3,41.7,41.7,0,0,0,5.09,2.2c1.29.44,2.11.57,2.27.33s0-.41-.27-.8A21.47,21.47,0,0,1,35.68,50Z" style="fill: #eaecee"/>
          <path d="M38.14,46.52a13.68,13.68,0,0,1-3.45-3c-.73-1-.95-1.89-.47-2.46a1.07,1.07,0,0,1,.46-.32c-1.21-.53-2.21-.55-2.7.07s-.22,1.68.67,2.79A16.77,16.77,0,0,0,36.78,47a41.62,41.62,0,0,0,4.87,2.67c1.25.56,2,.77,2.23.55s0-.41-.19-.82A21.45,21.45,0,0,1,38.14,46.52Z" style="fill: #eaecee"/>
          <path d="M40.92,43.24a13.66,13.66,0,0,1-3.15-3.35c-.63-1.05-.76-2-.24-2.5a1.11,1.11,0,0,1,.49-.28c-1.15-.64-2.15-.75-2.69-.18s-.37,1.65.41,2.84a16.79,16.79,0,0,0,3.79,3.8,41.79,41.79,0,0,0,4.6,3.11c1.19.67,2,1,2.17.75s.07-.41-.12-.83A21.39,21.39,0,0,1,40.92,43.24Z" style="fill: #eaecee"/>
          <path d="M44,40.23a13.65,13.65,0,0,1-2.83-3.63c-.53-1.1-.58-2,0-2.51a1.09,1.09,0,0,1,.51-.23c-1.09-.75-2.07-.95-2.67-.43s-.52,1.61.14,2.87a16.8,16.8,0,0,0,3.42,4.14A41.63,41.63,0,0,0,46.86,44c1.12.78,1.87,1.14,2.09.95s.11-.4,0-.84A21.41,21.41,0,0,1,44,40.23Z" style="fill: #eaecee"/>
          <path d="M47.33,37.52a13.66,13.66,0,0,1-2.48-3.88c-.43-1.15-.39-2.08.23-2.5a1.07,1.07,0,0,1,.53-.18c-1-.85-2-1.14-2.61-.68s-.67,1.55-.13,2.87a16.82,16.82,0,0,0,3,4.44,41.72,41.72,0,0,0,3.94,3.91c1,.88,1.76,1.3,2,1.14s.14-.38,0-.84A21.46,21.46,0,0,1,47.33,37.52Z" style="fill: #eaecee"/>
          <path d="M50.91,35.13a13.66,13.66,0,0,1-2.1-4.1c-.32-1.18-.19-2.11.46-2.47a1.06,1.06,0,0,1,.55-.13c-.93-.94-1.86-1.32-2.54-.92s-.81,1.48-.39,2.84a16.83,16.83,0,0,0,2.59,4.7A42.07,42.07,0,0,0,53,39.33c1,1,1.63,1.46,1.87,1.32s.18-.37.12-.83A21.46,21.46,0,0,1,50.91,35.13Z" style="fill: #eaecee"/>
          <path d="M54.7,33.09A13.67,13.67,0,0,1,53,28.82c-.21-1.21,0-2.12.69-2.41a1.09,1.09,0,0,1,.56-.08c-.84-1-1.73-1.49-2.44-1.16s-1,1.4-.66,2.8a16.73,16.73,0,0,0,2.14,4.92,41.73,41.73,0,0,0,3.14,4.58c.86,1.06,1.48,1.61,1.74,1.49s.21-.35.19-.82A21.5,21.5,0,0,1,54.7,33.09Z" style="fill: #eaecee"/>
          <path d="M58.66,31.42A13.71,13.71,0,0,1,57.36,27c-.09-1.22.21-2.11.91-2.34a1.11,1.11,0,0,1,.56,0c-.74-1.09-1.58-1.64-2.32-1.38s-1.08,1.31-.92,2.72a16.75,16.75,0,0,0,1.66,5.1A41.83,41.83,0,0,0,60,35.93c.76,1.14,1.32,1.74,1.59,1.65s.24-.33.27-.8A21.52,21.52,0,0,1,58.66,31.42Z" style="fill: #eaecee"/>
          <path d="M62.76,30.12a13.68,13.68,0,0,1-.88-4.52c0-1.22.41-2.08,1.13-2.24a1.07,1.07,0,0,1,.56,0c-.63-1.16-1.42-1.78-2.18-1.59s-1.2,1.2-1.17,2.62a16.84,16.84,0,0,0,1.18,5.24,41.94,41.94,0,0,0,2.23,5.08c.65,1.2,1.15,1.86,1.43,1.79s.27-.3.34-.77A21.51,21.51,0,0,1,62.76,30.12Z" style="fill: #eaecee"/>
          <path d="M67,29.22a13.67,13.67,0,0,1-.45-4.58c.14-1.22.6-2,1.34-2.12a1.1,1.1,0,0,1,.56.08c-.52-1.21-1.24-1.91-2-1.79s-1.3,1.08-1.41,2.5a16.73,16.73,0,0,0,.68,5.33,41.89,41.89,0,0,0,1.74,5.27c.53,1.26,1,2,1.26,1.92s.3-.28.41-.73A21.46,21.46,0,0,1,67,29.22Z" style="fill: #eaecee"/>
          <path d="M71.23,28.72a13.68,13.68,0,0,1,0-4.6c.25-1.2.79-2,1.53-2a1.07,1.07,0,0,1,.55.13c-.41-1.26-1.06-2-1.84-2s-1.4,1-1.64,2.36A16.83,16.83,0,0,0,70,28a42,42,0,0,0,1.24,5.41c.41,1.3.79,2,1.07,2s.33-.25.48-.69A21.33,21.33,0,0,1,71.23,28.72Z" style="fill: #eaecee"/>
          <path d="M75.53,28.62A13.73,13.73,0,0,1,75.94,24c.36-1.17,1-1.88,1.7-1.84a1.05,1.05,0,0,1,.53.18c-.29-1.29-.87-2.1-1.65-2.13s-1.47.82-1.85,2.19a16.83,16.83,0,0,0-.32,5.36,41.5,41.5,0,0,0,.73,5.5c.29,1.33.6,2.11.88,2.12s.35-.22.55-.64A21.36,21.36,0,0,1,75.53,28.62Z" style="fill: #eaecee"/>
          <path d="M79.83,28.91a13.69,13.69,0,0,1,.83-4.53c.47-1.13,1.14-1.78,1.87-1.67a1.1,1.1,0,0,1,.52.23c-.17-1.31-.67-2.18-1.45-2.28s-1.55.68-2,2A16.76,16.76,0,0,0,78.73,28a42.07,42.07,0,0,0,.22,5.55c.17,1.36.4,2.15.68,2.19s.36-.19.6-.59A21.49,21.49,0,0,1,79.83,28.91Z" style="fill: #eaecee"/>
          <path d="M84.07,29.6a13.69,13.69,0,0,1,1.25-4.43c.57-1.08,1.3-1.67,2-1.49a1.07,1.07,0,0,1,.49.28c0-1.32-.46-2.23-1.23-2.41s-1.61.53-2.23,1.81a16.8,16.8,0,0,0-1.31,5.21,41.44,41.44,0,0,0-.3,5.54c0,1.37.19,2.18.47,2.24s.38-.15.65-.53A21.44,21.44,0,0,1,84.07,29.6Z" style="fill: #eaecee"/>
          <path d="M88.23,30.69a13.69,13.69,0,0,1,1.66-4.29c.68-1,1.45-1.54,2.15-1.29a1.08,1.08,0,0,1,.46.32c.08-1.32-.25-2.27-1-2.51s-1.65.37-2.39,1.59a16.75,16.75,0,0,0-1.79,5.06,41.8,41.8,0,0,0-.82,5.49c-.09,1.36,0,2.19.26,2.28s.39-.11.7-.47A21.53,21.53,0,0,1,88.23,30.69Z" style="fill: #eaecee"/>
          <path d="M92.27,32.17a13.67,13.67,0,0,1,2.06-4.12c.77-1,1.59-1.4,2.26-1.08a1.08,1.08,0,0,1,.43.36c.21-1.3,0-2.28-.76-2.59s-1.68.22-2.53,1.36A16.74,16.74,0,0,0,91.47,31a41.84,41.84,0,0,0-1.34,5.39c-.22,1.35-.22,2.18,0,2.29s.4-.08.74-.4A21.45,21.45,0,0,1,92.27,32.17Z" style="fill: #eaecee"/>
          <path d="M96.15,34a13.66,13.66,0,0,1,2.44-3.9c.85-.88,1.71-1.24,2.35-.87a1.08,1.08,0,0,1,.39.4c.33-1.28.18-2.27-.51-2.65s-1.69.06-2.64,1.12a16.79,16.79,0,0,0-2.72,4.63A41.7,41.7,0,0,0,93.63,38c-.35,1.32-.42,2.15-.17,2.28s.41,0,.78-.33A21.48,21.48,0,0,1,96.15,34Z" style="fill: #eaecee"/>
          <path d="M99.84,36.23a13.66,13.66,0,0,1,2.8-3.66c.93-.79,1.82-1.08,2.42-.64a1.05,1.05,0,0,1,.35.44c.45-1.24.39-2.24-.26-2.69s-1.69-.1-2.74.87a16.78,16.78,0,0,0-3.14,4.36,42.32,42.32,0,0,0-2.32,5c-.47,1.28-.62,2.1-.39,2.26s.41,0,.8-.25A21.42,21.42,0,0,1,99.84,36.23Z" style="fill: #eaecee"/>
          <path d="M103.31,38.77a13.66,13.66,0,0,1,3.12-3.38c1-.7,1.91-.9,2.47-.41a1.08,1.08,0,0,1,.31.47c.56-1.2.6-2.2,0-2.7s-1.67-.26-2.81.61a16.78,16.78,0,0,0-3.53,4,41.73,41.73,0,0,0-2.78,4.8c-.59,1.23-.82,2-.59,2.21s.41,0,.82-.18A21.41,21.41,0,0,1,103.31,38.77Z" style="fill: #eaecee"/>
          <path d="M106.52,41.62a13.7,13.7,0,0,1,3.43-3.08c1.06-.61,2-.72,2.5-.18a1.1,1.1,0,0,1,.27.5c.67-1.14.8-2.13.25-2.69s-1.64-.41-2.85.34a16.79,16.79,0,0,0-3.89,3.7A41.68,41.68,0,0,0,103,44.74c-.7,1.17-1,1.95-.8,2.15s.4.08.84-.1A21.36,21.36,0,0,1,106.52,41.62Z" style="fill: #eaecee"/>
          <path d="M109.46,44.77a13.65,13.65,0,0,1,3.7-2.74c1.11-.5,2-.53,2.51.05a1.07,1.07,0,0,1,.22.52c.77-1.07,1-2,.5-2.66s-1.6-.56-2.87.08a16.78,16.78,0,0,0-4.22,3.32,41.54,41.54,0,0,0-3.62,4.2c-.81,1.1-1.18,1.84-1,2.06s.39.11.84,0A21.37,21.37,0,0,1,109.46,44.77Z" style="fill: #eaecee"/>
          <path d="M112.09,48.17A13.74,13.74,0,0,1,116,45.78c1.16-.4,2.09-.34,2.49.29a1.07,1.07,0,0,1,.17.54c.87-1,1.18-1.94.74-2.6s-1.54-.71-2.86-.19a16.83,16.83,0,0,0-4.51,2.92,42,42,0,0,0-4,3.85c-.9,1-1.35,1.72-1.18,2s.38.15.84.06A21.42,21.42,0,0,1,112.09,48.17Z" style="fill: #eaecee"/>
          <path d="M114.39,51.8a13.66,13.66,0,0,1,4.14-2c1.19-.29,2.11-.14,2.45.52a1.07,1.07,0,0,1,.12.55c1-.91,1.36-1.83,1-2.52s-1.46-.85-2.83-.46a16.8,16.8,0,0,0-4.76,2.48,41.75,41.75,0,0,0-4.34,3.46c-1,.93-1.5,1.59-1.36,1.84s.36.19.83.14A21.45,21.45,0,0,1,114.39,51.8Z" style="fill: #eaecee"/>
          <path d="M116.34,55.63A13.66,13.66,0,0,1,120.66,54c1.22-.18,2.12.06,2.4.75a1.1,1.1,0,0,1,.07.56c1-.81,1.53-1.69,1.21-2.42s-1.38-1-2.78-.73a16.72,16.72,0,0,0-5,2,41.74,41.74,0,0,0-4.65,3c-1.08.84-1.64,1.44-1.53,1.7s.35.22.81.21A21.54,21.54,0,0,1,116.34,55.63Z" style="fill: #eaecee"/>
          <path d="M117.93,59.63a13.64,13.64,0,0,1,4.45-1.19c1.22-.06,2.1.26,2.31,1a1.06,1.06,0,0,1,0,.56c1.11-.71,1.68-1.54,1.44-2.29s-1.28-1.11-2.7-1a16.75,16.75,0,0,0-5.14,1.55,41.85,41.85,0,0,0-4.91,2.58c-1.15.73-1.77,1.28-1.69,1.55s.32.25.79.29A21.56,21.56,0,0,1,117.93,59.63Z" style="fill: #eaecee"/>
          <path d="M119.12,63.76a13.67,13.67,0,0,1,4.54-.77c1.22.06,2.06.46,2.21,1.18a1.08,1.08,0,0,1,0,.56c1.17-.6,1.82-1.37,1.65-2.14s-1.17-1.22-2.59-1.24a16.75,16.75,0,0,0-5.27,1.05,42.06,42.06,0,0,0-5.13,2.11c-1.22.62-1.89,1.11-1.82,1.39s.3.28.76.36A21.46,21.46,0,0,1,119.12,63.76Z" style="fill: #eaecee"/>
          <path d="M119.92,68a13.66,13.66,0,0,1,4.59-.34c1.21.17,2,.65,2.09,1.39a1.09,1.09,0,0,1-.09.56c1.23-.49,1.94-1.2,1.84-2s-1-1.33-2.47-1.47a16.79,16.79,0,0,0-5.34.55,41.91,41.91,0,0,0-5.31,1.61c-1.27.5-2,.93-1.95,1.21s.27.31.72.43A21.47,21.47,0,0,1,119.92,68Z" style="fill: #eaecee"/>
          <path d="M120.33,72.27a13.71,13.71,0,0,1,4.6.09c1.19.28,1.94.83,2,1.57a1.09,1.09,0,0,1-.14.54c1.26-.38,2-1,2-1.8s-.92-1.42-2.31-1.69a16.75,16.75,0,0,0-5.37.05,41.68,41.68,0,0,0-5.44,1.11c-1.31.38-2.06.74-2.05,1s.24.33.68.5A21.35,21.35,0,0,1,120.33,72.27Z" style="fill: #eaecee"/>
        </g>
      </g>
    </g>
    <g>
      <path d="M106.17,60.87c-.29-.3-.69-.17-.89-.38s-.21-.6-.34-.88a1.29,1.29,0,0,0-.86-.74,1.88,1.88,0,0,0-1.26-.05,1,1,0,0,0-.75-.82c-.53-.07-.77.27-1.22.35a2.12,2.12,0,0,0-.53-1A2.27,2.27,0,0,0,99.08,57c-1-.08-1.68.64-1.93.68s-.54-.34-.77-.32a5.28,5.28,0,0,0-2,.41A1,1,0,0,0,94,56.64c1.07-.95,3.7-3,2.07-4.44a1.79,1.79,0,0,0,.16-2.14c-.31-.55-1-.59-1.25-.87-1.14-1.1-1.26-2.15-3.19-.92-.61-1.9-3.35.37-4,.77-.69-.93-2.09.25-3.25,1.64a4.63,4.63,0,0,0-1-2.28A1.86,1.86,0,0,0,82.3,48a1.88,1.88,0,0,0-1.21.64.7.7,0,0,0-.86-.73,2.35,2.35,0,0,0-1.39,1c-.41-.45-1,0-1.29.35s-.34.38-.49.59a4.33,4.33,0,0,1-.38.54c-.2.22-.51.33-.72.54a6.29,6.29,0,0,0-.4.51,6,6,0,0,0-.71,1.28,16.68,16.68,0,0,0-.84,3c-.11.51-.21,1-.34,1.54a24.65,24.65,0,0,1-1.22,3.54,1.26,1.26,0,0,0-.56-.65c-.27-1.07-.77-2.82-2-3.07-.45-.09-.69.28-1,.22s-.6-.42-.9-.6a1.4,1.4,0,0,0-1.23-.13,1.79,1.79,0,0,0-1.08.76,1.1,1.1,0,0,0-1.2-.27c-.49.27-.45.74-.76,1.1a2.55,2.55,0,0,0-1.12-.55c-.87-.08-1.4.6-1.89,1.19a3.27,3.27,0,0,1-.73.82c-.22.13-.5.05-.65.12-.48.23-.45.86-.68,1.3a1.84,1.84,0,0,1-.73.83c-.23.09-.48-.11-.76,0-.91.51-1.05,2.82-.84,3.65a12.68,12.68,0,0,1,.3,1.34c-4.48,2.4-6.87,7.36-5.47,12,.08.26.17.52.27.77a10.19,10.19,0,0,0-.64,5.58c-.71.3-1.36.73-1.51,1.24-.09.31.17.51.14.75a1.84,1.84,0,0,1-.64.91c-.37.33-1,.45-1.1,1,0,.16.11.41,0,.66a3.27,3.27,0,0,1-.63.9c-.47.61-1,1.29-.71,2.12a2.55,2.55,0,0,0,.8,1c-.28.38-.75.46-.89,1a1.1,1.1,0,0,0,.55,1.11A1.79,1.79,0,0,0,46.33,97a1.4,1.4,0,0,0,.42,1.17c.24.25.64.41.79.74s-.16.62,0,1c.53,1.15,2.35,1.22,3.45,1.23a1.4,1.4,0,0,0,.89.42,3.75,3.75,0,0,0,1.56-.25,3.24,3.24,0,0,0-.36.56c-.14.42-.13.56.33.65.22,0,.57-.14.71-.11.6.1.28.55.1,1-.25.67-.16,1.45.71,1.48s1.52-.51,2.26-.26.47.85.9,1.21,1.4-.05,2-.36a5.33,5.33,0,0,0,2.06-2c.44-.61,1.3-.72,2-1.1a3.34,3.34,0,0,0,1.22-4.62c-.21-.42-.65-.94-.46-1.47.25-.68,1.14-.77,1.78-1,1.85-.58.63-2.58.1-3.58a10.22,10.22,0,0,0,3.7-5,6.35,6.35,0,0,0,1.23-.45,10,10,0,0,0,3.36-3.12l.29-.38.41.06c1,.19,1.72.75,2.64,1a5,5,0,0,0,2,.06,8,8,0,0,0,5.94.67,7.63,7.63,0,0,0,1.78-.59l.54-.28.52.09c2.3.54,3.58-.53,5.61-1.36,4.11-1.68,9.35-2,9.93-7C105.1,72.8,102.47,72,101,70l-.14-.18a22.06,22.06,0,0,0,2.58-1.09c.68-.45,1.48-1.43.72-2.07a3.54,3.54,0,0,0,1.74-1.76,1.1,1.1,0,0,0,0-.85C106.32,63.15,107,61.69,106.17,60.87ZM55.33,70.69a2.5,2.5,0,0,0,0,.65c.08.82.93,1.27.65,2.21a8.15,8.15,0,0,1-.58,1.3A10.15,10.15,0,0,0,53,77,8.38,8.38,0,0,1,55.33,70.69Zm14.76,3.78.27-.14a2.32,2.32,0,0,1,.37-.14,7.7,7.7,0,0,1,.14,1Zm2.64,1.8a9.43,9.43,0,0,0,0-2l.45-.06h.05a5.56,5.56,0,0,0,.85-.22c.1.24.2.48.31.71s.2.41.31.62l0,.16A3.83,3.83,0,0,1,74,76,4.87,4.87,0,0,1,72.73,76.27Zm-18-6.6a9.4,9.4,0,0,0-2.79,8.8v0A9.06,9.06,0,0,1,54.73,69.67Z" style="fill: #85878a;opacity: 0.42"/>
      <g>
        <g>
          <path d="M76.16,48.32c-.17.2-.34.38-.49.59a4.33,4.33,0,0,1-.38.54c-.2.22-.51.33-.72.54a6.31,6.31,0,0,0-.4.51,6,6,0,0,0-.71,1.28,16.68,16.68,0,0,0-.84,3c-.11.51-.21,1-.34,1.54-1.09,4.24-3.34,7.81-5.64,11.57-.64,1.05-1.48,2-2.22,3s-5.33,7.57-1.48,6.87c2.78-.5,3.73-3.18,6-4.25,1.06-.49,1.8,0,2.77-.06,1.24-.11,5.55-3.69,6-1.82.24,1.09-1.72,1.45-2.51,1.81-1.06.49-1.66,1.33-2.62,1.71-1.2.49-1.95.08-3,1.08-.6.58-1.24,1.47-2,2.08-1,.83-6.15,3.81-4,5.55,1.1.89,2.53-.31,3.4-.79a7.9,7.9,0,0,1,5-1.17c.78.12,1.59.08,2.36.23,1,.19,1.72.75,2.64,1,1.86.5,3.56-.57,5.48-.17s3.49-.29,5.32.14c2.3.54,3.58-.53,5.61-1.36,4.11-1.68,9.35-2,9.93-7,.32-2.74-2.31-3.56-3.76-5.57l-.14-.18a22,22,0,0,0,2.58-1.09c.68-.45,1.48-1.43.72-2.07A3.54,3.54,0,0,0,104.54,64a1.1,1.1,0,0,0,0-.85c.42-.87,1.05-2.33.26-3.15-.29-.3-.69-.17-.89-.38s-.21-.6-.34-.88a1.29,1.29,0,0,0-.86-.74,1.88,1.88,0,0,0-1.26-.05,1,1,0,0,0-.75-.82c-.53-.07-.77.27-1.22.35a2.12,2.12,0,0,0-.53-1,2.27,2.27,0,0,0-1.25-.37c-1-.08-1.68.64-1.93.68s-.54-.34-.77-.32a5.28,5.28,0,0,0-2,.41,1,1,0,0,0-.31-1.14c1.07-.95,3.7-3,2.07-4.44a1.79,1.79,0,0,0,.16-2.14c-.31-.55-1-.59-1.25-.87-1.14-1.1-1.26-2.15-3.19-.92-.61-1.9-3.35.37-4,.77-.69-.93-2.09.25-3.25,1.64a4.63,4.63,0,0,0-1-2.28,1.86,1.86,0,0,0-1.21-.44,1.88,1.88,0,0,0-1.21.64.7.7,0,0,0-.86-.73,2.35,2.35,0,0,0-1.39,1C77,47.52,76.44,48,76.16,48.32Z" style="fill: #4c9e4b"/>
          <g>
            <path d="M85.46,53.13c.82-1.79,2.18-4.2,4.6-4.19s2.27,2.72.55,3.64a1.51,1.51,0,0,1,1.48.73,2.48,2.48,0,0,1-.69,2.39c-1.45,1.45-3.87,1.65-5.77,2.48.28.26.59.31.69.64s-.27,1-.61,1.22A10.8,10.8,0,0,1,83,61c1.9.48.27,2.13-.84,2.52a19.52,19.52,0,0,0-3.44,1.15c.6.06,1.4-.16,1.27.6-.1.58-1,.92-1.44,1.11.93.51,1.35.72.5,1.57a4.46,4.46,0,0,1-2.54,1.3c-1,.17-2,.21-3,.29a4.6,4.6,0,0,0-2.14.45c-.33.22-.19.43-.36.75a2.18,2.18,0,0,1-.73.66,8.42,8.42,0,0,1-2,.54,9.48,9.48,0,0,0-3,1.77c-.63.52-1.1,1.2-1.67,1.76-.33.31-.62.66-.93,1-.06-.29.18-.73.26-1a4.72,4.72,0,0,1,.38-.91A12.54,12.54,0,0,1,64.47,73l1.07-1.45c.52-.7,1.47-2.29,2.57-2.3a2.86,2.86,0,0,1,.77-1.32c.69-.92,2-3,3.45-2.92-.52-1.28,1.15-3.22,1.88-4.2.53-.71,3.19-3,3.53-.92A3.15,3.15,0,0,1,78.4,57c.44-.57,1.37-1.73,2.14-.77-.37-1.12,1.63-2.37,2.33-3.1a3.15,3.15,0,0,1,1.32-1.06C85,51.86,85.74,52.37,85.46,53.13Z" style="fill: #8bc53f"/>
            <path d="M72.65,76.31c1.17-.51,2.53-1.18,3.48-.07.25-.32.25-.83.49-1.21a3.91,3.91,0,0,1,1-.89,1.52,1.52,0,0,1,2.22,0,3.94,3.94,0,0,1,3.07-2.94c1.23-.23,3.36.4,3,1.85a3.39,3.39,0,0,1,1.19-1.65c.89-.67,2.89-.92,3.15.36.56-1.23,2.93-1.76,4.23-1.47a2.7,2.7,0,0,1,2.18,2.59,4.09,4.09,0,0,1,4.2,1.92c1.21,2-.64,3.09-2.58,3.61a7.06,7.06,0,0,1-3-.3c1.69.84-.51,2.61-1.34,2.89-2.22.74-3.66-.36-5.26-1.43.5.79-.31,1.82-1.18,2s-1.76-.87-2.3-1.5C85.59,81.3,84,82,82.83,81.82c-1.33-.15-1.73-1.15-2.61-1.86-1,1.09-1.55,1-3,.37.67,2.12-3.69.76-4.79.56-2.23-.39-6.9,1.43-7.71,1.56s4.16-2.64,4.68-2.94c.79-.46,1.09-1.12,1.69-1.78S71.87,76.66,72.65,76.31Z" style="fill: #8bc53f"/>
            <path d="M92.17,60.28l.19-.28a2.32,2.32,0,0,1,.82-.76c.38-.2,1.11-.46,1.43-.05a2.41,2.41,0,0,1,1.44-1.07,1.22,1.22,0,0,1,1.38.59c.45-.3,1.1-.75,1.7-.6.27.07.82,1.1.49,1.16a2.92,2.92,0,0,1,1.67,0c.46.18.81.74.21,1,.62-.33,2.05-.21,2.32.45.18.45-.06.82-.37,1.16-.15.17-.91,1-1.22.8C104,64,100.26,66.44,99,65c.19,1.75-1.94,1-3.57.34-.06.42-.39.67-1.08.61a3.44,3.44,0,0,1-1.66-.82c0,.92-.64.94-1.4.67a8.88,8.88,0,0,0-5.33.33c-.61.19-1.17.51-1.79.68s-.65,0-.3-.44A25.9,25.9,0,0,1,86,64.1c.38-.36,1.13-1,1.69-.88a7.2,7.2,0,0,1,1.68-2.1C89.9,60.67,91.54,59.35,92.17,60.28Z" style="fill: #8bc53f"/>
            <path d="M77.51,50.36c-.07-.68.47-2.05,1.54-1.7.89.3.55,1.62.31,2.18.35-.51.87-1.53,1.61-1.68,1.29-.25.65,1.31.38,1.82a11.29,11.29,0,0,1-1.56,2.1,8.59,8.59,0,0,0-.92,1L78.75,54a6,6,0,0,0-2.11,1.26c-.32.33-.66.88-1.14,1-.83.26-.94-.62-.91-1.17,0-.7,0-2.24,1.26-1.79a5.75,5.75,0,0,1-.57-2.52C75.49,49.9,77,49.38,77.51,50.36Z" style="fill: #8bc53f"/>
          </g>
        </g>
        <g>
          <path d="M75,77.89c2.38,5,7.48,7.4,11.8,5.36,4.73-2.23,6-7.58,3.59-12.63s-7.21-7.39-11.8-5.22C74.27,67.45,72.62,72.85,75,77.89Z" style="fill: #358a4b"/>
          <ellipse cx="81.9" cy="74.64" rx="8.1" ry="9.48" transform="translate(-24.02 42.1) rotate(-25.27)" style="fill: #d5e192"/>
          <path d="M86.05,83.45c-4.15,2-9.4-.4-11.69-5.26s-.78-10.41,3.37-12.37,9.4.4,11.69,5.26S90.21,81.49,86.05,83.45ZM78,66.3C74,68.15,72.6,73.4,74.77,78s7.13,6.83,11.06,5,5.36-7.1,3.19-11.7S81.89,64.45,78,66.3Z" style="fill: #358a4b"/>
          <path d="M80.34,69.28c.89.66,1.05,3.61.28,4.3a5,5,0,0,1-1.5-2.81C79,70.06,79.22,68.44,80.34,69.28Z" style="fill: #fdfdf8"/>
          <path d="M85.3,78.84c-1.08.1-3.25-1.89-3.19-2.88a5.23,5.23,0,0,1,3,1C85.68,77.43,86.65,78.72,85.3,78.84Z" style="fill: #fdfdf8"/>
          <path d="M76.41,73.3c.88-.63,3.31.42,3.56,1.48a3.77,3.77,0,0,1-2.85.36C76.52,75,75.31,74.08,76.41,73.3Z" style="fill: #fdfdf8"/>
          <path d="M87.23,73.4c-.44,1.17-3.53,2-4.5,1.31a5,5,0,0,1,2.54-2.36C86,72.06,87.78,71.93,87.23,73.4Z" style="fill: #fdfdf8"/>
          <path d="M78.24,78.87c-.31-1.1,1.59-3.18,2.73-3.07a4.07,4.07,0,0,1-.66,3C79.92,79.33,78.62,80.25,78.24,78.87Z" style="fill: #fdfdf8"/>
        </g>
        <path d="M58.89,74.27c-1.1,2.06-2.17,4.12-3.42,6.13-.49.79-1.08,1.51-1.56,2.32a5.1,5.1,0,0,1-2,2c-.67.35-2.08.46-2,1.3s.81,1.62-.33,2.45c-.69.5-1.74.64-1.88,1.57-.11.73.44.94-.41,1.56-.4.29-.69.34-.84.78a2,2,0,0,0,0,1.21c.14.29.6.3.7.53s-.2.62-.3.83c-.29.64-.84,1.55,0,1.93.55.24,1.14-.42,1.74-.56.11.71-.31,1.21.65,1.51.37.12,2.35-.62,2.17-1.05.22.52-1.25,2.7-.42,2.89.51.12,1.44-1.27,1.91-1s-1.1,2-1.21,2.34-.13.56.33.65c.22,0,.57-.14.71-.11.6.1.28.55.1,1-.25.67-.16,1.45.71,1.48s1.52-.51,2.26-.26.47.85.9,1.21,1.4-.05,2-.36a5.33,5.33,0,0,0,2.06-2c.44-.61,1.3-.72,2-1.1A3.34,3.34,0,0,0,64,97c-.21-.42-.65-.94-.46-1.47.25-.68,1.14-.77,1.78-1,2-.61.46-2.85,0-3.76-.22-.44-.67-.9,0-1.29s1.57-.05,2.17-.79a2.75,2.75,0,0,0,.26-2.44c-.24-.49-.89-.71-1.12-1.22-.49-1.12.94-1.24,1.76-1.82,1.17-.83,1.14-2.5,1-3.54a6.2,6.2,0,0,0-2.14-3.79A2.62,2.62,0,0,1,66.41,74c0-.82.53-.76,1.19-.62.49.1.72.23,1.06-.28s0-.85-.36-1.22c-.58-.59-1.26-1-1.44-1.85a8.22,8.22,0,0,1-.07-2.14,10.56,10.56,0,0,1,.46-2.45c.2-.67,1.7-2.9,1.14-3.37s-1.56.5-2,.83a11.21,11.21,0,0,0-2.1,2.38A19.27,19.27,0,0,1,63,67.19c-.54.61-1.18,1.1-1.7,1.71a4.93,4.93,0,0,0-.83,1.43C59.9,71.64,59.58,73,58.89,74.27Z" style="fill: #4c9e4b"/>
        <g>
          <path d="M59.11,75.45l0,0c-.47.37-.76.9-1.22,1.28a10.2,10.2,0,0,0-2.39,2.07c-.61.91-.75,2-1.33,2.91-.56-.85-.48-2.15-.7-3.14a7.67,7.67,0,0,1,0-3.15c.21-1,.86-1.81,1.16-2.77s-.57-1.38-.65-2.21c-.11-1.21.61-1.86,1.07-2.84a4.21,4.21,0,0,0-.09-3c-.21-.83-.06-3.14.84-3.65.28-.16.53,0,.76,0a1.84,1.84,0,0,0,.73-.83c.24-.44.2-1.07.68-1.3.15-.07.42,0,.65-.12a3.27,3.27,0,0,0,.73-.82c.48-.6,1-1.27,1.89-1.19a2.55,2.55,0,0,1,1.12.55c.31-.36.27-.83.76-1.1a1.1,1.1,0,0,1,1.2.27,1.79,1.79,0,0,1,1.08-.76,1.4,1.4,0,0,1,1.23.13c.3.17.55.52.91.6s.56-.3,1-.22c1.24.25,1.74,2,2,3.07.28.15.4.33.62.76a3.94,3.94,0,0,1-.19,2.73c.84.08,1.19,1.3,1.12,2-.16,1.54-1.4,1.08-2.4,1.56a2.91,2.91,0,0,0-1.08,1c-.25.53.14,1.12-.11,1.66-.59,1.27-2.86,1.7-4,2.08-1.59.54-1,2.84-2.69,3.54C60.88,74.91,59.94,74.83,59.11,75.45Z" style="fill: #4c9e4b"/>
          <path d="M58.22,64.43c0-.13,0-.26,0-.38a2.55,2.55,0,0,1,.14-1.23c.17-.43.6-1.13,1.15-1A2.57,2.57,0,0,1,59.9,60a1.23,1.23,0,0,1,1.56-.34c.17-.56.38-1.4,1-1.63.27-.11,1.45.49,1.23.76A2.77,2.77,0,0,1,65,57.65c.51-.13,1.19.16.9.81.28-.7,1.56-1.51,2.24-1.07a1.34,1.34,0,0,1,.51,1.3c0,.25,0,1.52-.45,1.51,2.37.08,1,4.72-1.07,4.22,1.39,1.49-.88,2.2-2.72,2.59.25.43.15.86-.47,1.25a3.49,3.49,0,0,1-2,.3c.63.86.13,1.27-.69,1.51-1.81.53-3.19,2.19-4.19,3.71-.37.57-.62,1.22-1,1.77s-.55.39-.56-.21a28.89,28.89,0,0,1,.23-3.48c.06-.58.25-1.61.78-1.89a8.26,8.26,0,0,1-.08-3C56.6,66.23,57,64,58.22,64.43Z" style="fill: #8bc53f"/>
          <path d="M56.25,73.81c0,.09,0,.16-.11.24a.51.51,0,0,1,.11-.24" style="fill: #54b848"/>
          <path d="M59.8,65.58c.43-.16.61,0,1-.52s.2-1,.52-1.36c.72.54,1.22-.61,1.55-1.11a6.54,6.54,0,0,1,2-1.84,10.81,10.81,0,0,1,2.56-1.81c.65-.21.67,0,.3.57a2.73,2.73,0,0,1-1.4,1c-1,.47-1.44,1.41-2.23,2.14S62.56,64.2,61.78,65c-.37.38-1.49,1.76-.34,1.5.76-.18,1.39-1.05,2.13-1.35a3.36,3.36,0,0,1,1.13-.2c.17,1-1.76,1.2-2.42,1.61a15.26,15.26,0,0,0-1.65,1.32,4.42,4.42,0,0,0-1.38,1.53,12.86,12.86,0,0,1-.91,2.14,21.1,21.1,0,0,0-2,3.73,3.92,3.92,0,0,1-1.53,2.32,14.87,14.87,0,0,1,1.52-4.22c.34-.79.67-1.58,1-2.37.26-.61.74-1.14.95-1.74C58.6,68.24,58.62,66,59.8,65.58Z" style="fill: #7ab744"/>
          <path d="M54,83.14c-.92-.74-.38-3-.24-3.92a39.92,39.92,0,0,1,.82-4.44c.11-.39.46-1.46.88-1.6.68-.23.23.81.67,1.21,1.16-2.29,1.72-4.51,3.53-6.46.55.73-.68,1.84-1,2.46a12.38,12.38,0,0,0-1.26,3.37c.35-.22,2.16-2,2.28-1,.09.75-2.18,2.25-2.66,2.83a6.46,6.46,0,0,0-1.7,3.51C55.26,80.37,55.13,82.26,54,83.14Z" style="fill: #d7e6a5"/>
        </g>
        <g>
          <path d="M62.73,85.4l0,0c.25-.55.69-1,1-1.49a10.2,10.2,0,0,1,1.44-2.81c.74-.81,1.8-1.21,2.52-2-1-.34-2.2,0-3.21.06a7.67,7.67,0,0,0-3.06.71c-.93.44-1.56,1.27-2.42,1.78s-1.48-.23-2.3-.11c-1.2.17-1.66,1-2.51,1.71a4.21,4.21,0,0,1-3,.62c-.85,0-3.07.68-3.35,1.68-.09.31.17.51.14.75a1.84,1.84,0,0,1-.64.91c-.37.33-1,.45-1.1,1,0,.16.11.41,0,.66a3.27,3.27,0,0,1-.63.9c-.47.61-1,1.29-.71,2.12a2.55,2.55,0,0,0,.8,1c-.28.38-.75.46-.89,1a1.1,1.1,0,0,0,.55,1.11,1.79,1.79,0,0,0-.48,1.23,1.4,1.4,0,0,0,.42,1.17c.24.25.64.41.79.74s-.16.62,0,1c.53,1.15,2.35,1.22,3.45,1.23a1.4,1.4,0,0,0,.89.42,3.94,3.94,0,0,0,2.61-.83c.28.79,1.55.85,2.21.61,1.46-.52.72-1.61.94-2.7A2.91,2.91,0,0,1,57,96.52c.46-.36,1.12-.12,1.59-.5,1.09-.87,1-3.18,1.08-4.38C59.8,90,62.17,90,62.46,88.2,62.62,87.25,62.33,86.35,62.73,85.4Z" style="fill: #4c9e4b"/>
          <path d="M51.81,87.14l-.38,0a2.55,2.55,0,0,0-1.16.43c-.38.26-1,.85-.66,1.35a2.57,2.57,0,0,0-1.75.87,1.23,1.23,0,0,0,0,1.59c-.51.29-1.27.7-1.35,1.35,0,.29.82,1.3,1,1a2.77,2.77,0,0,0-.74,1.58c0,.52.44,1.12,1,.68-.62.44-1.1,1.87-.51,2.43a1.34,1.34,0,0,0,1.39.19c.24-.06,1.47-.4,1.36-.79.64,2.28,4.83-.11,3.85-2,1.78,1,1.93-1.37,1.87-3.26.48.14.87-.06,1.1-.75a3.49,3.49,0,0,0-.17-2c1,.41,1.27-.17,1.31-1,.09-1.88,1.37-3.62,2.62-5,.46-.5,1-.89,1.48-1.4s.25-.63-.33-.5a28.89,28.89,0,0,0-3.33,1c-.55.2-1.5.62-1.65,1.21a8.26,8.26,0,0,0-2.94.63C53.18,85.15,51.09,86.09,51.81,87.14Z" style="fill: #8bc53f"/>
          <path d="M60.46,83c.08-.06.15-.06.2-.17a.51.51,0,0,0-.2.17" style="fill: #54b848"/>
          <path d="M53.3,88.4c-.05.46.16.59-.28,1s-.9.43-1.2.83c.7.57-.3,1.33-.71,1.77a6.54,6.54,0,0,0-1.32,2.37,10.81,10.81,0,0,0-1.15,2.91c0,.68.16.65.63.16a2.73,2.73,0,0,0,.6-1.59c.22-1.09,1-1.73,1.55-2.68s1.19-1.81,1.78-2.75c.28-.45,1.36-1.86,1.37-.69,0,.78-.7,1.6-.8,2.39a3.36,3.36,0,0,0,.07,1.15c1.06-.08.75-2,1-2.73a15.26,15.26,0,0,1,.89-1.92A4.42,4.42,0,0,1,56.88,87a12.86,12.86,0,0,0,1.86-1.39,21.1,21.1,0,0,1,3.15-2.86c.71-.49,1.67-1.07,1.9-2a14.87,14.87,0,0,0-3.74,2.47L58,84.71c-.53.4-.93,1-1.47,1.33C55.61,86.61,53.44,87.16,53.3,88.4Z" style="fill: #7ab744"/>
          <path d="M69,78.65c-.94-.72-3,.33-3.86.7A39.93,39.93,0,0,0,61,81.19c-.35.2-1.31.79-1.34,1.24-.06.72.84,0,1.34.37-2,1.67-4,2.73-5.44,5,.84.36,1.63-1.1,2.16-1.52a12.38,12.38,0,0,1,3-2c-.13.4-1.48,2.58-.44,2.45.75-.09,1.67-2.64,2.12-3.25a6.46,6.46,0,0,1,3-2.48C66.6,80.5,68.41,79.93,69,78.65Z" style="fill: #d7e6a5"/>
        </g>
        <g>
          <path d="M79.24,56.92a1.66,1.66,0,0,0-.06.19c-.36,1.52,1.23,3.32,1.78,4.64,1.2,2.86,2.46,5.76,3.53,8.65.3.8.42,4,1.35,4.23,1.94.4,4.73-2.84,5.89-5.49s1.71-8.77-.85-12.17a7.27,7.27,0,0,0-5.8-3C83.46,54,79.87,55.16,79.24,56.92Z" style="fill: #c52127"/>
          <path d="M78.47,57.35a1.68,1.68,0,0,0-.05.18c-.35,1.51,1.2,3.29,1.73,4.6,1.17,2.84,2.39,5.71,3.44,8.58.29.79,1.08,3.7,2,3.89,1.89.4,5-4.33,5.56-5.65,1.48-3.73,1.41-8.33-1.08-11.71a7.37,7.37,0,0,0-5.89-2.83C82.58,54.45,79.09,55.61,78.47,57.35Z" style="fill: #e23722"/>
          <path d="M89.59,57.82A6.33,6.33,0,0,0,84.46,55c-1.44,0-4.61,1.12-5.16,2.75a1.62,1.62,0,0,0,0,.17c-.31,1.42,1.09,3.09,1.57,4.32C81.88,64.94,83,67.64,84,70.34c.26.75,1,3.48,1.8,3.66,1.71.37,4.32-3.86,4.79-5.09C91.88,65.4,91.85,61,89.59,57.82Zm-.2,9.36c-1,1.51-1.69,3.08-2.79,4.52-.72.95-1,.5-1.47-.57-.83-2,1-1.8,2.25-2.69,0-1.25-2,.47-2.68-.28-1.34-1.38,1.86-2.05,2.18-2.82.72-1.77-2.56.24-2.83.2a1.7,1.7,0,0,1-1.09-1.67c.21-.92,2.12-1,1.84-2.27-.14-.63-1.26-.31-1.68-.32-1.08,0-1.32-.2-1.75-1.1-.54-1.14-1.07-1.8.4-2.34a6.12,6.12,0,0,1,3.6,0C87,58.27,88.1,60,89,61.45,90.11,63.35,90.64,65.23,89.39,67.18Z" style="fill: url(#linear-gradient)"/>
          <path d="M84.49,59.6a2.11,2.11,0,0,1-2,1.09,2.6,2.6,0,0,1,1-1.34C83.82,59.14,84.63,58.88,84.49,59.6Z" style="fill: url(#linear-gradient-2)"/>
          <path d="M87.13,62.58c.2.7-1.62,1.15-2.06,1C85.24,63.12,86.82,61.53,87.13,62.58Z" style="fill: url(#linear-gradient-3)"/>
          <path d="M88.29,66.91c-.15.71-2,.25-2.3-.08C86.36,66.49,88.51,65.84,88.29,66.91Z" style="fill: url(#linear-gradient-4)"/>
        </g>
        <g>
          <path d="M75.29,57.07C73,60,67.94,60.45,66,63.54A6.37,6.37,0,0,0,68.6,73c3.62,1.69,7.72-.87,8.71-5.57.43-2-.87-7-.49-9.09s.94-4.87.94-4.87S76.08,56,75.29,57.07Z" style="fill: #cc1c22"/>
          <path d="M71.81,71.53c2.58-.23,4.2-3.24,4.32-5.59.07-1.42-.39-2.82-.29-4.28.11-1.62.42-3.21.58-4.82-1,.89-1.67,2.49-2.8,3.29s-2,1-3.1,1.71a8.66,8.66,0,0,0-2.28,2.07c-1.08,1.41-1.91,3.47-1.07,5.19a5.19,5.19,0,0,0,3,2.22A4,4,0,0,0,71.81,71.53Z" style="fill: #e2504f"/>
          <path d="M72.65,66.74c-2.11.23-3.3,3.52-.77,3.93C74.19,71,75.59,66.42,72.65,66.74Z" style="fill: #f59c99"/>
          <path d="M72.44,72.21c-.21,0-.42.05-.64.07a1.33,1.33,0,0,0-.68.16c-.25.17-.3.4,0,.53a2.14,2.14,0,0,0,1,0,3.52,3.52,0,0,0,1.68-.73c.26-.22.68-.65,0-.5-.37.09-.69.29-1.06.39Z" style="fill: #f59c99"/>
        </g>
        <g>
          <circle cx="59.46" cy="82.63" r="10.23" transform="translate(-42.18 88.36) rotate(-57.49)" style="fill: #358a4b"/>
          <circle cx="59.46" cy="82.63" r="8.94" transform="translate(-42.18 88.36) rotate(-57.49)" style="fill: #d5e192"/>
          <path d="M55.87,78.6c1,.08,2.65,2.35,2.38,3.29a4.67,4.67,0,0,1-2.61-1.49C55.2,79.89,54.56,78.5,55.87,78.6Z" style="fill: #fdfdf8"/>
          <path d="M64.67,83.9c-.81.62-3.54.12-4-.69a4.93,4.93,0,0,1,2.92-.67C64.26,82.59,65.69,83.12,64.67,83.9Z" style="fill: #fdfdf8"/>
          <path d="M54.67,85.25c.06-.93,2-2.39,2.89-2.16a4.14,4.14,0,0,1-1.28,2.34C55.83,85.83,54.6,86.42,54.67,85.25Z" style="fill: #fdfdf8"/>
          <path d="M63.75,78.45c-.16,1.23-3,3-4.05,2.61a5.53,5.53,0,0,1,1.93-3C62.25,77.57,63.95,76.91,63.75,78.45Z" style="fill: #fdfdf8"/>
          <path d="M59.2,88.16c-.8-.72-.33-3.33.63-3.82a3.84,3.84,0,0,1,1,2.71C60.77,87.68,60.2,89.06,59.2,88.16Z" style="fill: #fdfdf8"/>
        </g>
        <g>
          <path d="M78,57.7c-5.71,2.69-7.94,9.94-5,16.18S83,83,88.7,80.3s7.94-9.94,5-16.18S83.73,55,78,57.7ZM88,79.55c-5.13,2.42-11.5-.29-14.22-6s-.77-12.4,4.37-14.82,11.5.29,14.22,6S93.17,77.13,88,79.55Z" style="fill: #b672ae"/>
          <path d="M77.92,58.81c-5.31,2.5-7.4,9.21-4.68,15s9.23,8.4,14.53,5.9,7.4-9.21,4.68-15S83.22,56.31,77.92,58.81Zm9.42,20c-4.85,2.29-10.79-.13-13.27-5.39S73.5,62,78.34,59.72s10.79.13,13.27,5.39S92.18,76.49,87.34,78.78Z" style="fill: #e5d5e4"/>
          <path d="M78.34,59.72C73.5,62,71.58,68.13,74.07,73.39s8.43,7.67,13.27,5.39,6.76-8.41,4.28-13.67S83.19,57.43,78.34,59.72Zm8.84,18.72c-4.67,2.21-10.41-.12-12.8-5.2s-.55-11,4.12-13.19,10.41.12,12.8,5.2S91.85,76.23,87.18,78.44Z" style="fill: #b672ae"/>
        </g>
        <g>
          <path d="M49.74,78c1.62,5.37,7.7,8.29,13.57,6.51s9.32-7.56,7.7-12.93S63.31,63.26,57.44,65,48.12,72.59,49.74,78ZM70.26,72c1.46,4.83-1.76,10.07-7.18,11.7s-11-1-12.46-5.78,1.76-10.07,7.18-11.7S68.8,67.2,70.26,72Z" style="fill: #b672ae"/>
          <path d="M50.7,78.21c1.51,5,7.12,7.71,12.54,6.08s8.6-7,7.09-12-7.12-7.71-12.55-6.08S49.2,73.22,50.7,78.21Zm18.78-5.67C70.86,77.1,68,82,63,83.5s-10.08-1-11.46-5.55S53.08,68.48,58,67,68.11,68,69.49,72.54Z" style="fill: #e5d5e4"/>
          <path d="M51.55,78c1.38,4.56,6.51,7,11.46,5.55s7.85-6.4,6.48-11S63,65.5,58,67,50.18,73.39,51.55,78Zm17.62-5.31c1.33,4.4-1.47,9.13-6.25,10.57s-9.72-1-11.05-5.35,1.47-9.13,6.25-10.57S67.84,68.24,69.17,72.64Z" style="fill: #b672ae"/>
        </g>
        <g>
          <path d="M74.39,80.37a1.67,1.67,0,0,0,0-.19c-.32-1.53-2.52-2.48-3.58-3.44-2.3-2.08-4.67-4.17-6.88-6.33-.61-.6-2.1-3.47-3-3.25-1.93.46-3.08,4.58-3,7.48s2.18,8.66,5.94,10.66a7.27,7.27,0,0,0,6.52.24C71.81,84.82,74.56,82.23,74.39,80.37Z" style="fill: #c52127"/>
          <path d="M74.9,79.65a1.68,1.68,0,0,0,0-.19C74.54,78,72.39,77,71.35,76c-2.26-2.08-4.59-4.15-6.76-6.31-.6-.6-2.55-2.89-3.45-2.68-1.88.44-2.72,6.07-2.63,7.48.25,4,2.27,8.14,6,10.14a7.37,7.37,0,0,0,6.53.06C72.42,84,75.08,81.49,74.9,79.65Z" style="fill: #e23722"/>
          <path d="M64.64,84a6.33,6.33,0,0,0,5.82.35c1.29-.63,3.69-3,3.5-4.69a1.62,1.62,0,0,0,0-.18c-.32-1.41-2.3-2.34-3.26-3.24-2.09-2-4.25-3.93-6.26-6-.55-.56-2.37-2.73-3.18-2.55-1.71.39-2.27,5.33-2.17,6.64C59.34,78.07,61.25,82,64.64,84Zm-3.8-8.56c.24-1.78.22-3.51.6-5.28.25-1.16.71-.89,1.57-.11,1.6,1.45-.19,2.07-.89,3.39.52,1.13,1.58-1.26,2.55-.89,1.8.68-.81,2.65-.77,3.48.1,1.91,2.22-1.3,2.47-1.38a1.7,1.7,0,0,1,1.7,1c.19.92-1.47,1.85-.7,2.84.4.51,1.27-.26,1.65-.43a1.51,1.51,0,0,1,2.05.25c1,.8,1.73,1.18.63,2.29a6.12,6.12,0,0,1-3.26,1.54c-1.65.3-3.4-.8-4.8-1.73C61.81,79.17,60.53,77.7,60.84,75.4Z" style="fill: url(#linear-gradient-5)"/>
          <path d="M68.5,80.18a2.11,2.11,0,0,1,1.32-1.83A2.6,2.6,0,0,1,69.49,80C69.3,80.31,68.67,80.89,68.5,80.18Z" style="fill: url(#linear-gradient-6)"/>
          <path d="M64.84,78.6c-.48-.55,1-1.73,1.44-1.79C66.32,77.31,65.56,79.42,64.84,78.6Z" style="fill: url(#linear-gradient-7)"/>
          <path d="M62,75.17c-.17-.71,1.67-1.07,2.11-.9C63.87,74.73,62.2,76.24,62,75.17Z" style="fill: url(#linear-gradient-8)"/>
        </g>
      </g>
    </g>
  </g>
</svg>
