<svg id="Layer_1" data-name="Layer 1" xmlns="http://www.w3.org/2000/svg" xmlns:xlink="http://www.w3.org/1999/xlink" width="149" height="149" viewBox="0 0 149 149">
  <defs>
    <clipPath id="clip-path">
      <circle cx="74.5" cy="74.5" r="74.5" style="fill: none"/>
    </clipPath>
  </defs>
  <title>bones</title>
  <circle cx="74.5" cy="74.5" r="74.5" style="fill: #ecedf0"/>
  <g style="clip-path: url(#clip-path)">
    <g>
      <g>
        <path d="M76.75,1.51s-8.48-1.56-13,5.19a14.87,14.87,0,0,0-1.32,13.2s-2.74,1.65-.77,6.36c0,0,1.1,3,3,2.8l.26,3.65.7.95.08,6s-.08,6-18.6,11.4c0,0-9.27,2.8-5.21,19.15,0,0-3.29,11.85-1.65,21.51l1.1,7.57a168.3,168.3,0,0,0-8.89,32.26L31.26,135l-6.2,8.86-.16,7.41s.27,2.72,1.65,1.18l-.27,6.8s.22,2.25,2.3.27c0,0-.66,7.74,2.74,2.3l1.15-2.3s1.15,6,3.18-.16l1.21-3.62s-.05,2.85.88,3.35a2,2,0,0,0,2,.05s-.11-4,.66-5.38l.91-4.14s2.14-5.68.16-10.86c0,0,11.55-20.44,12.1-36.79L54,93.44a56,56,0,0,1,.82,8.07s-3.21,16.76-5.4,23.13c0,0-4,20.52,3.73,47.52L55,178.52a69.77,69.77,0,0,0,.66,17.89,59.56,59.56,0,0,0,1,29.63S61,239.2,60.78,246.22c0,0-1.43,2.3-1.43,3.51,0,0-12,9.55-12.51,13.39l.88,2.52s0,3.73,5.82,1.21l4.83-1.65s4.06-1.65,4.5-3.51A14,14,0,0,1,68.68,257s5.35-2.3,2.06-7.82c0,0,1.15-3,.08-4.53,0,0-1.81-12.26-.82-19.84a29.15,29.15,0,0,0,1.81-16s-1.7-7.41-.93-9.77c0,0,2.17-8.18,1.67-14.6L74.5,142l.33-32.37,1.32-65.84Z" style="fill: #f6ba88"/>
        <path d="M72.25,1.51s8.48-1.56,13,5.19a14.87,14.87,0,0,1,1.32,13.2s2.74,1.65.77,6.36c0,0-1.1,3-3,2.8l-.26,3.65-.7.95-.08,6s.08,6,18.6,11.4c0,0,9.27,2.8,5.21,19.15,0,0,3.29,11.85,1.65,21.51l-1.1,7.57a168.3,168.3,0,0,1,8.89,32.26l1.21,3.4,6.2,8.86.16,7.41s-.27,2.72-1.65,1.18l.27,6.8s-.22,2.25-2.3.27c0,0,.66,7.74-2.74,2.3l-1.15-2.3s-1.15,6-3.18-.16l-1.21-3.62s.05,2.85-.88,3.35a2,2,0,0,1-2,.05s.11-4-.66-5.38l-.91-4.14s-2.14-5.68-.16-10.86c0,0-11.55-20.44-12.1-36.79L95,93.44a56,56,0,0,0-.82,8.07s3.21,16.76,5.4,23.13c0,0,4,20.52-3.73,47.52L94,178.52a69.77,69.77,0,0,1-.66,17.89,59.56,59.56,0,0,1-1,29.63S88,239.2,88.22,246.22c0,0,1.43,2.3,1.43,3.51,0,0,12,9.55,12.51,13.39l-.88,2.52s0,3.73-5.82,1.21l-4.83-1.65s-4.06-1.65-4.5-3.51A14,14,0,0,0,80.32,257s-5.35-2.3-2.06-7.82c0,0-1.15-3-.08-4.53,0,0,1.81-12.26.82-19.84a29.15,29.15,0,0,1-1.81-16s1.7-7.41.93-9.77c0,0-2.17-8.18-1.67-14.6L74.5,142l-.33-32.37L72.85,43.76Z" style="fill: #f6ba88"/>
      </g>
      <g>
        <path d="M63.61,86.9,63,85.74c.33-.17,8.22-4.2,11.92-4.2a28.55,28.55,0,0,1,11,4.13l-.72,1.08a27.8,27.8,0,0,0-10.37-3.92C71.55,82.84,63.69,86.86,63.61,86.9Z" style="fill: #fff"/>
        <path d="M61.65,91.34l.23-1.15C62.25,90,71,86,75.05,86a33.74,33.74,0,0,1,12.16,4.13l.19.94C82.2,87.92,75,87.3,75,87.29,71.31,87.3,61.74,91.3,61.65,91.34Z" style="fill: #fff"/>
        <path d="M61.57,94.69v-.11c.37-.17,9.31-5.24,13.4-5.24.36,0,7.38.87,12.35,5.07h0c-5.2-3.14-12.38-3.76-12.45-3.77C71.23,90.64,61.66,94.65,61.57,94.69Z" style="fill: #fff"/>
        <path d="M80.53,93.46c0,.49-2.57,2.2-5.73,2.2s-5.73-1.71-5.73-2.2,2.57.41,5.73.41S80.53,93,80.53,93.46Z" style="fill: #fff"/>
        <path d="M81.67,98.3c0,.5-3.06,2.2-6.84,2.2S68,98.79,68,98.3s3.06.41,6.84.41S81.67,97.8,81.67,98.3Z" style="fill: #fff"/>
        <path d="M81.89,102.81c0,.5-3.06,2.2-6.84,2.2s-6.84-1.71-6.84-2.2,3.06.41,6.84.41S81.89,102.31,81.89,102.81Z" style="fill: #fff"/>
        <path d="M81.64,107.13c0,.49-3.06,2.2-6.84,2.2S68,107.62,68,107.13s3.06.41,6.84.41S81.64,106.63,81.64,107.13Z" style="fill: #fff"/>
        <g>
          <path d="M82.32,59.54s1.06-4.16,6.6-3.67c0,0,3.18.68,4.75-.19,0,0,4.18-2.28,4.56,1l-1.79,5s-4.73,1.85-3.8,6.79c0,0,.54,6.3-3.86,6,0,0-2.23.27-4.18-4.35C84.6,70.13,81,63.29,82.32,59.54Z" style="fill: #fff"/>
          <g>
            <polygon points="104.24 103.32 98.89 104.57 97.1 100.72 103.73 100.88 104.24 103.32" style="fill: #fff"/>
            <ellipse cx="109.71" cy="135.75" rx="1.87" ry="1.96" style="fill: #fff"/>
            <ellipse cx="112.93" cy="135.06" rx="1.87" ry="1.96" style="fill: #fff"/>
            <path d="M101.81,104.34a2,2,0,0,0-2.65-1.47s-1.51.61-.57,2.49c0,0,1.71,2,2.77,6.76,0,0,3.5,15.16,5.38,19.88,0,0,.29,3.38,2.53,2.69l1.14-1.1s-1.87-1.39-3.54-6.44Z" style="fill: #fff"/>
            <path d="M101.53,57.73a2.79,2.79,0,0,0-4.56,0L95.82,60s-1.22,2.28.65,3.63c0,0,2.47,8.16,1.06,31.2l-1,3.37S94.82,102.34,98,102c0,0,7.82,1.79,6.46-2.61L102.2,95S100,85.23,101,63.72C101,63.72,102.42,60.3,101.53,57.73Z" style="fill: #fff"/>
            <path d="M102.48,105s-1.2-2,.49-2.5a1.59,1.59,0,0,1,2.17,1.79,10.69,10.69,0,0,0,.65,3.31s3.64,10.65,5.92,18.42c0,0,1.85,5.11,2.77,6.36,0,0,1.39,1.79-2.24,2.12,0,0-2.69,1-2.61-1.51A74.44,74.44,0,0,0,102.48,105Z" style="fill: #fff"/>
            <path d="M108.83,137a12.54,12.54,0,0,0-1,5.16l.43,6s1.41,1,1.52-.49c0,0-1.2-6-.11-6.25,0,0,.54-.92,1.68,7,0,0,1,.43,1.25-.49,0,0-1.41-5.27-.81-6,0,0,.76-.71,2.39,5.81,0,0,1.3.87,1.36-.65,0,0-2.06-4.89-1.2-5.54,0,0,1.2-.65,2.28,4.94,0,0,1.63-.33,1.63-.54,0,0-2.61-5.16-1.47-5.43,0,0,1-.54,3.42,4l1.52-.49s-4.4-7.12-6.84-8.37l-3-.22Z" style="fill: #fff"/>
            <path d="M108.63,148.89q.07.76.16,1.57c.45,3.94,1.08,7.09,1.43,7.05s.26-3.26-.19-7.2q-.09-.81-.19-1.56Z" style="fill: #fff"/>
            <path d="M111.55,148.85q.16,1,.34,2.08c.89,5.23,1.88,9.43,2.22,9.37s-.1-4.35-1-9.58q-.18-1.07-.37-2.08Z" style="fill: #fff"/>
            <path d="M114.8,148.27q.31,1.19.65,2.45c1.68,6.16,3.32,11.08,3.65,11s-.76-5.16-2.44-11.32q-.35-1.26-.68-2.45Z" style="fill: #fff"/>
            <path d="M117.13,146.59q.28,1.08.59,2.22c1.53,5.58,3,10,3.36,9.94s-.63-4.69-2.16-10.27q-.31-1.15-.62-2.22Z" style="fill: #fff"/>
            <path d="M120.89,144.61c.07.32.15.65.24,1,.65,2.47,1.44,4.4,1.77,4.31s.08-2.16-.57-4.63c-.09-.34-.18-.66-.27-1Z" style="fill: #fff"/>
          </g>
        </g>
        <g>
          <path d="M66.08,59.66S65,55.5,59.48,56c0,0-3.18.68-4.75-.19,0,0-4.18-2.28-4.56,1l1.79,5s4.73,1.85,3.8,6.79c0,0-.54,6.3,3.86,6,0,0,2.23.27,4.18-4.35C63.8,70.25,67.39,63.41,66.08,59.66Z" style="fill: #fff"/>
          <g>
            <polygon points="44.16 103.44 49.52 104.69 51.31 100.84 44.68 101 44.16 103.44" style="fill: #fff"/>
            <ellipse cx="38.69" cy="135.88" rx="1.87" ry="1.96" style="fill: #fff"/>
            <ellipse cx="35.47" cy="135.18" rx="1.87" ry="1.96" style="fill: #fff"/>
            <path d="M46.6,104.46A2,2,0,0,1,49.24,103s1.51.61.57,2.49c0,0-1.71,2-2.77,6.76,0,0-3.5,15.16-5.38,19.88,0,0-.29,3.38-2.53,2.69L38,133.72s1.87-1.39,3.54-6.44Z" style="fill: #fff"/>
            <path d="M46.88,57.85a2.79,2.79,0,0,1,4.56,0l1.14,2.24s1.22,2.28-.65,3.63c0,0-2.47,8.16-1.06,31.2l1,3.37s1.68,4.18-1.47,3.86c0,0-7.82,1.79-6.46-2.61l2.23-4.4s2.23-9.78,1.25-31.29C47.45,63.84,46,60.42,46.88,57.85Z" style="fill: #fff"/>
            <path d="M45.93,105.07s1.19-2-.49-2.5a1.59,1.59,0,0,0-2.17,1.79,10.7,10.7,0,0,1-.65,3.31S39,118.33,36.7,126.1c0,0-1.85,5.11-2.77,6.36,0,0-1.39,1.79,2.24,2.12,0,0,2.69,1,2.61-1.51A74.44,74.44,0,0,1,45.93,105.07Z" style="fill: #fff"/>
            <path d="M39.57,137.13a12.54,12.54,0,0,1,1,5.16l-.43,6s-1.41,1-1.52-.49c0,0,1.2-6,.11-6.25,0,0-.54-.92-1.68,7,0,0-1,.43-1.25-.49,0,0,1.41-5.27.81-6,0,0-.76-.71-2.39,5.81,0,0-1.3.87-1.36-.65,0,0,2.06-4.89,1.2-5.54,0,0-1.2-.65-2.28,4.94,0,0-1.63-.33-1.63-.54,0,0,2.61-5.16,1.47-5.43,0,0-1-.54-3.42,4L26.65,144s4.4-7.12,6.84-8.37l3-.22Z" style="fill: #fff"/>
            <path d="M39.78,149q-.07.76-.16,1.57c-.45,3.94-1.08,7.09-1.43,7.06s-.26-3.26.19-7.2q.09-.81.19-1.56Z" style="fill: #fff"/>
            <path d="M36.86,149q-.16,1-.34,2.08c-.89,5.23-1.88,9.43-2.22,9.37s.1-4.35,1-9.58q.18-1.07.37-2.08Z" style="fill: #fff"/>
            <path d="M33.61,148.39q-.31,1.19-.65,2.45c-1.68,6.16-3.32,11.08-3.65,11s.76-5.16,2.44-11.32q.35-1.26.68-2.45Z" style="fill: #fff"/>
            <path d="M31.27,146.71q-.28,1.08-.59,2.22c-1.53,5.58-3,10-3.36,9.94s.63-4.69,2.16-10.27q.31-1.15.62-2.22Z" style="fill: #fff"/>
            <path d="M27.51,144.73c-.07.32-.15.65-.24,1-.65,2.47-1.44,4.4-1.77,4.31s-.08-2.16.57-4.63q.13-.51.27-1Z" style="fill: #fff"/>
          </g>
        </g>
        <g>
          <g>
            <rect x="72.54" y="39.22" width="4.35" height="74.31" style="fill: #fff"/>
            <rect x="71.76" y="38.03" width="5.6" height="3.64" rx="1.3" ry="1.3" style="fill: #fff"/>
            <rect x="71.82" y="42.1" width="5.6" height="3.64" rx="1.3" ry="1.3" style="fill: #fff"/>
            <g>
              <rect x="71.81" y="46.26" width="5.6" height="3.64" rx="1.3" ry="1.3" style="fill: #fff"/>
              <rect x="71.83" y="50.9" width="5.6" height="3.64" rx="1.3" ry="1.3" style="fill: #fff"/>
              <rect x="71.85" y="55.54" width="5.6" height="3.64" rx="1.3" ry="1.3" style="fill: #fff"/>
              <rect x="71.88" y="60.19" width="5.6" height="3.64" rx="1.3" ry="1.3" style="fill: #fff"/>
              <rect x="71.9" y="64.83" width="5.6" height="3.64" rx="1.3" ry="1.3" style="fill: #fff"/>
              <rect x="71.92" y="69.48" width="5.6" height="3.64" rx="1.3" ry="1.3" style="fill: #fff"/>
              <rect x="71.95" y="74.12" width="5.6" height="3.64" rx="1.3" ry="1.3" style="fill: #fff"/>
              <rect x="71.97" y="78.77" width="5.6" height="3.64" rx="1.3" ry="1.3" style="fill: #fff"/>
              <rect x="71.99" y="83.41" width="5.6" height="3.64" rx="1.3" ry="1.3" style="fill: #fff"/>
              <rect x="72.01" y="88.06" width="5.6" height="3.64" rx="1.3" ry="1.3" style="fill: #fff"/>
              <rect x="72.04" y="92.7" width="5.6" height="3.64" rx="1.3" ry="1.3" style="fill: #fff"/>
              <rect x="72.06" y="97.35" width="5.6" height="3.64" rx="1.3" ry="1.3" style="fill: #fff"/>
              <rect x="72.08" y="101.99" width="5.6" height="3.64" rx="1.3" ry="1.3" style="fill: #fff"/>
              <rect x="72.11" y="106.64" width="5.6" height="3.64" rx="1.3" ry="1.3" style="fill: #fff"/>
              <rect x="72.13" y="111.28" width="5.6" height="3.64" rx="1.3" ry="1.3" style="fill: #fff"/>
            </g>
          </g>
          <g>
            <polygon points="67.59 28.01 68.71 33.25 74.78 34.76 80.48 33.37 81.38 27.87 83.09 27.34 82.48 34.03 77.1 37.94 71.97 37.95 66.42 33.78 65.96 27.52 67.85 27.87 67.59 28.01" style="fill: #fff"/>
            <g>
              <path d="M73.08,27.63a2,2,0,0,1-.82-1.22,1.91,1.91,0,0,1,.94-2.73V22.55a1.34,1.34,0,0,0-1.3-1.38h-.11A1.72,1.72,0,0,1,71,22.46a1.66,1.66,0,0,1-1.4,1.38,1.77,1.77,0,0,1-1.12.36,1.92,1.92,0,0,1-1.23-.42,1.93,1.93,0,0,1-1.82-1.67,2.13,2.13,0,0,1-.13-.21,2.08,2.08,0,0,1-.39-.65A1.36,1.36,0,0,0,64,22.55l.88,3.94c0,.76,1,1.26,1.73,1.45l6.34,1.55c.44,0,.46-.82.4-1.63A1.86,1.86,0,0,1,73.08,27.63Z" style="fill: #fff"/>
              <path d="M84,20.95h-.14a1.83,1.83,0,0,1-1.44,2.58,1.67,1.67,0,0,1-1.51.79,1.89,1.89,0,0,1-1.48-.65,2,2,0,0,1-.68-.83,1.9,1.9,0,0,1-.57-.56,2.07,2.07,0,0,1-.68-1.16,2.08,2.08,0,0,1-.12-.17h0A1.34,1.34,0,0,0,76,22.33v1.52c1.7.61,1.76,3.38-.09,3.74-.06.82-.05,1.67.4,1.67l6.34-1.55c.73-.18,1.73-.69,1.73-1.45l.88-3.94A1.34,1.34,0,0,0,84,20.95Z" style="fill: #fff"/>
              <g>
                <polygon points="80.15 30.44 68.67 30.44 67.36 27.67 81.46 27.67 80.15 30.44" style="fill: #fff"/>
                <path d="M70.38,31a.81.81,0,0,1-.85.77h0a.81.81,0,0,1-.85-.77v-.5a.81.81,0,0,1,.85-.77h0a.81.81,0,0,1,.85.77Z" style="fill: #fff"/>
                <path d="M72,31a.81.81,0,0,1-.85.77h0a.81.81,0,0,1-.85-.77v-.5a.81.81,0,0,1,.85-.77h0a.81.81,0,0,1,.85.77Z" style="fill: #fff"/>
                <path d="M73.67,31a.81.81,0,0,1-.85.77h0A.81.81,0,0,1,72,31v-.5a.81.81,0,0,1,.85-.77h0a.81.81,0,0,1,.85.77Z" style="fill: #fff"/>
                <path d="M75.33,31a.81.81,0,0,1-.85.77h0a.81.81,0,0,1-.85-.77v-.5a.81.81,0,0,1,.85-.77h0a.81.81,0,0,1,.85.77Z" style="fill: #fff"/>
                <path d="M76.94,31a.81.81,0,0,1-.85.77h0a.81.81,0,0,1-.85-.77v-.5a.81.81,0,0,1,.85-.77h0a.81.81,0,0,1,.85.77Z" style="fill: #fff"/>
                <path d="M78.6,31a.81.81,0,0,1-.85.77h0A.81.81,0,0,1,76.9,31v-.5a.81.81,0,0,1,.85-.77h0a.81.81,0,0,1,.85.77Z" style="fill: #fff"/>
                <path d="M80.24,30.93a.81.81,0,0,1-.85.77h0a.81.81,0,0,1-.85-.77v-.5a.81.81,0,0,1,.85-.77h0a.81.81,0,0,1,.85.77Z" style="fill: #fff"/>
              </g>
              <path d="M74.63,5c-6.45,0-11.68,5.5-11.68,12.28s5.23,12.28,11.68,12.28,11.68-5.5,11.68-12.28S81.08,5,74.63,5Zm-3.17,16.2c-1.41,1.89-2.35,3.21-4.14,2.33s-2.16-2.77-1.1-4.93,2.67-2.68,4.47-1.81S72.89,19.3,71.45,21.23Zm4.94,5.71c-.48.27-1.18,0-1.73-.66-.55.67-1.28,1-1.77.71s-.64-1.42-.07-2.42a2.27,2.27,0,0,1,1.67-1.29c.6-.21,1.46.31,2,1.24S77,26.6,76.39,26.94Zm5.51-3.32c-1.79.87-2.73-.44-4.14-2.33s-1-3.53.78-4.4,3.41-.36,4.47,1.81S83.69,22.75,81.9,23.62Z" style="fill: #fff"/>
            </g>
            <path d="M70.61,34.46a.8.8,0,0,1-.8.8h0a.8.8,0,0,1-.8-.8v-1a.8.8,0,0,1,.8-.8h0a.8.8,0,0,1,.8.8Z" style="fill: #fff"/>
            <path d="M72.09,34.62a.8.8,0,0,1-.8.8h0a.8.8,0,0,1-.8-.8v-1a.8.8,0,0,1,.8-.8h0a.8.8,0,0,1,.8.8Z" style="fill: #fff"/>
            <path d="M73.58,34.75a.8.8,0,0,1-.8.8h0a.8.8,0,0,1-.8-.8v-1a.8.8,0,0,1,.8-.8h0a.8.8,0,0,1,.8.8Z" style="fill: #fff"/>
            <path d="M75,34.87a.8.8,0,0,1-.8.8h0a.8.8,0,0,1-.8-.8v-1a.8.8,0,0,1,.8-.8h0a.8.8,0,0,1,.8.8Z" style="fill: #fff"/>
            <path d="M76.54,34.85a.8.8,0,0,1-.8.8h0a.8.8,0,0,1-.8-.8v-1a.8.8,0,0,1,.8-.8h0a.8.8,0,0,1,.8.8Z" style="fill: #fff"/>
            <path d="M78.06,34.66a.8.8,0,0,1-.8.8h0a.8.8,0,0,1-.8-.8v-1a.8.8,0,0,1,.8-.8h0a.8.8,0,0,1,.8.8Z" style="fill: #fff"/>
            <path d="M79.51,34.58a.8.8,0,0,1-.8.8h0a.8.8,0,0,1-.8-.8v-1a.8.8,0,0,1,.8-.8h0a.8.8,0,0,1,.8.8Z" style="fill: #fff"/>
            <path d="M80.57,34.28a.8.8,0,0,1-.8.8h0a.8.8,0,0,1-.8-.8v-1a.8.8,0,0,1,.8-.8h0a.8.8,0,0,1,.8.8Z" style="fill: #fff"/>
          </g>
          <g>
            <path d="M74.23,58.4c-7.22,0-12.61-2.29-12.66-5.32,0-2.47,5.46-4.83,12.67-4.83s12.55,2.44,12.64,4.83C87,56.11,81.45,58.4,74.23,58.4Zm0-9.34c-6.69,0-11.35,2.12-11.35,4s4.66,4,11.35,4,11.35-2.12,11.35-4S80.92,49.05,74.23,49.05Z" style="fill: #fff"/>
            <path d="M74.23,63c-8.35,0-14.58-2.29-14.64-5.32,0-2.47,6.31-4.83,14.66-4.83s14.51,2.44,14.62,4.83C89,60.67,82.58,63,74.23,63Zm0-9.34c-7.74,0-13.13,2.12-13.13,4s5.39,4,13.13,4,13.13-2.12,13.13-4S82,53.62,74.23,53.62Z" style="fill: #fff"/>
            <path d="M74.23,67C64.35,67,57,64.75,56.9,61.71c-.06-2.47,7.47-4.83,17.35-4.83s17.18,2.44,17.31,4.83C91.72,64.74,84.11,67,74.23,67Zm0-9.34c-9.16,0-15.54,2.12-15.54,4s6.38,4,15.54,4,15.54-2.12,15.54-4S83.39,57.69,74.23,57.69Z" style="fill: #fff"/>
            <path d="M74.23,72.41c-10.18,0-17.79-2.29-17.86-5.32-.06-2.47,7.7-4.83,17.88-4.83S92,64.7,92.09,67.09C92.26,70.12,84.41,72.41,74.23,72.41Zm0-9.34c-9.44,0-16,2.12-16,4s6.58,4,16,4,16-2.12,16-4S83.67,63.07,74.23,63.07Z" style="fill: #fff"/>
            <path d="M74.23,77.14c-11.13,0-19.45-2.29-19.53-5.32C54.64,69.34,63.12,67,74.25,67s19.36,2.44,19.51,4.83C93.95,74.85,85.36,77.14,74.23,77.14Zm0-9.34c-10.32,0-17.52,2.12-17.52,4s7.19,4,17.52,4,17.52-2.12,17.52-4S84.55,67.79,74.23,67.79Z" style="fill: #fff"/>
            <g>
              <path d="M63.82,82.82a7.9,7.9,0,0,1-3.13-.59c-3.57-1.57-5.59-3.43-6-5.52A4.36,4.36,0,0,1,55.79,73l.93.91-.47-.46.47.45A3,3,0,0,0,56,76.48c.32,1.62,2.14,3.2,5.26,4.57.25.12,5.66,2.59,11-4.6l1.26.47C70.09,81.51,66.29,82.82,63.82,82.82Z" style="fill: #fff"/>
              <path d="M60.83,87.06a4.78,4.78,0,0,1-2.33-.57C55.84,85,54.33,83.17,54,81.15a5.35,5.35,0,0,1,1-3.74l.5,1.08L55.19,78l.35.44A3.48,3.48,0,0,0,55,80.93c.24,1.56,1.59,3.09,3.92,4.42.18.12,4.22,2.5,8.22-4.45l.94.46C65.51,85.79,62.67,87.06,60.83,87.06Z" style="fill: #fff"/>
              <path d="M64,85.18c-2.91,5.44-5.59,3.56-5.73,3.47-1.69-1-2.67-2.23-2.85-3.46a2.87,2.87,0,0,1,.15-1.39,2.05,2.05,0,0,1-.45-.76,4.2,4.2,0,0,0-.39,2.33c.22,1.58,1.31,3,3.24,4.18a3.29,3.29,0,0,0,1.7.44c1.34,0,3.64-1.55,5.5-5Z" style="fill: #fff"/>
              <path d="M62.66,88.27c-2.23,5.44-4.61,4.37-4.72,4.28a5.33,5.33,0,0,1-2.18-3.46,3.69,3.69,0,0,1,.11-1.39,2.24,2.24,0,0,1-.35-.76,5.33,5.33,0,0,0-.3,2.33,6.16,6.16,0,0,0,2.49,4.18,2.12,2.12,0,0,0,1.3.45c1,0,3.84-2.25,4.54-6.63Z" style="fill: #fff"/>
              <path d="M61.27,91.82c-1.75,5.44-3.62,4.37-3.7,4.28a5.68,5.68,0,0,1-1.71-3.46,4.66,4.66,0,0,1,.09-1.39,2.56,2.56,0,0,1-.27-.76A6.57,6.57,0,0,0,57.38,97a1.49,1.49,0,0,0,1,.44c.8,0,3-2.25,3.57-6.63Z" style="fill: #fff"/>
            </g>
            <g>
              <path d="M85.43,82.48a7.9,7.9,0,0,0,3.13-.59c3.57-1.57,5.59-3.43,6-5.52a4.36,4.36,0,0,0-1.09-3.67l-.93.91.47-.46-.47.45a3,3,0,0,1,.74,2.53c-.32,1.62-2.14,3.2-5.26,4.57-.25.12-5.66,2.59-11-4.6l-1.26.47C79.16,81.17,83,82.48,85.43,82.48Z" style="fill: #fff"/>
              <path d="M88.42,86.72a4.78,4.78,0,0,0,2.33-.57c2.66-1.52,4.17-3.32,4.47-5.34a5.35,5.35,0,0,0-1-3.74l-.5,1.08.35-.44-.35.44a3.48,3.48,0,0,1,.55,2.44C94,82.15,92.67,83.68,90.35,85c-.18.12-4.22,2.5-8.22-4.45l-.94.46C83.75,85.45,86.58,86.72,88.42,86.72Z" style="fill: #fff"/>
              <path d="M85.23,84.84c2.91,5.44,5.59,3.56,5.73,3.47,1.69-1,2.67-2.23,2.85-3.46a2.87,2.87,0,0,0-.15-1.39,2.05,2.05,0,0,0,.45-.76A4.2,4.2,0,0,1,94.5,85c-.22,1.58-1.31,3-3.24,4.18a3.29,3.29,0,0,1-1.7.44c-1.34,0-3.64-1.55-5.5-5Z" style="fill: #fff"/>
              <path d="M86.59,87.94c2.23,5.44,4.61,4.37,4.72,4.28a5.33,5.33,0,0,0,2.18-3.46,3.69,3.69,0,0,0-.11-1.39,2.24,2.24,0,0,0,.35-.76,5.33,5.33,0,0,1,.3,2.33,6.16,6.16,0,0,1-2.49,4.18,2.12,2.12,0,0,1-1.3.44c-1,0-3.84-2.25-4.54-6.63Z" style="fill: #fff"/>
              <path d="M88,91.48c1.75,5.44,3.62,4.37,3.7,4.28a5.68,5.68,0,0,0,1.71-3.46,4.66,4.66,0,0,0-.09-1.39,2.56,2.56,0,0,0,.27-.76,6.57,6.57,0,0,1-1.72,6.5,1.49,1.49,0,0,1-1,.45c-.8,0-3-2.25-3.57-6.63Z" style="fill: #fff"/>
            </g>
          </g>
          <path d="M79.35,53.25c0,2.48-2.35,5.58-4.6,5.58s-4.81-3.11-4.81-5.58,2.56-3.38,4.81-3.38S79.35,50.77,79.35,53.25Z" style="fill: #fff"/>
          <path d="M78.32,70.61c0,1.28-2.34,2.32-3.63,2.32h0c-1.28,0-3.63-1-3.63-2.32L72.37,60a2.32,2.32,0,0,1,2.32-2.32h0A2.32,2.32,0,0,1,77,60Z" style="fill: #fff"/>
        </g>
        <path d="M71.24,111.12s-5-2.72-4.78.54l.33,3.91s0,1.68,2.23.33A2.43,2.43,0,0,0,70.64,118v2.5l4.29,5.27L78.57,121l.49-3.21a2.17,2.17,0,0,0,2-2.17s1.41,1,1.68-1.36c0,0,.54-5.22-3.21-3.53l-3.48.65Z" style="fill: #fff"/>
        <path d="M75.46,129s-6.56-.29-6.89-7.62a.87.87,0,0,0-.84-1s-2-.7-.44-3.36c0,0,2-1.48.35-7.2,0,0-1.68-4.45-8-3,0,0-6.14,1.52-4.78,7.71,0,0,.33,2.88,1.68,2.93,0,0,3.8-.33,3.64,3.59,0,0-1,3.22-.34,4.56a3.82,3.82,0,0,0,4.69,2.57l.57,0s-1.39,4.16,1.43,5.3a11.42,11.42,0,0,0,6.19-.08l2.93-1.71Zm-6,2.4a1.52,1.52,0,1,1,1.73-1.51A1.63,1.63,0,0,1,69.45,131.44Z" style="fill: #fff"/>
        <path d="M73.91,131.77l2.93,1.71a11.42,11.42,0,0,0,6.19.08c2.81-1.14,1.43-5.3,1.43-5.3l.57,0a3.82,3.82,0,0,0,4.69-2.57c.65-1.34-.34-4.56-.34-4.56-.16-3.91,3.64-3.59,3.64-3.59,1.36-.05,1.68-2.93,1.68-2.93,1.36-6.19-4.78-7.71-4.78-7.71-6.36-1.41-8,3-8,3-1.68,5.72.35,7.2.35,7.2,1.58,2.66-.44,3.36-.44,3.36a.87.87,0,0,0-.84,1c-.33,7.33-6.89,7.62-6.89,7.62Zm4.44-1.83a1.75,1.75,0,1,1,1.73,1.51A1.63,1.63,0,0,1,78.35,129.94Z" style="fill: #fff"/>
        <path d="M59.61,124s-1.14,2.65-2.44,1.06c0,0-1.63-3.34-4.24,1,0,0-1.71,3.14.61,5.5,0,0,.91.64,2.16,9.17,0,0,2.28,17.76,4.78,29.72,0,0,1.47,8.75-1.52,14,0,0-2.65,4.64.77,7.46,0,0,2.93,1.79,5.13-.57,0,0,3.75,3.14,5.66,0a6.13,6.13,0,0,0-.29-6.11s-3.14-2.12-5.42-14.83c0,0-3.91-19-4.56-34,0,0,1.51-1.29,0-3.65l.77-4.07s4.69.49,2.77-4.32C63.81,124.43,60.1,120.23,59.61,124Z" style="fill: #fff"/>
        <path d="M89.74,123.26s1.14,2.65,2.44,1.06c0,0,1.63-3.34,4.24,1,0,0,1.71,3.14-.61,5.5,0,0-.91.64-2.16,9.17,0,0-2.28,17.76-4.78,29.72,0,0-1.47,8.75,1.52,14,0,0,2.65,4.64-.77,7.46,0,0-2.93,1.79-5.13-.57,0,0-3.75,3.14-5.66,0a6.13,6.13,0,0,1,.29-6.11s3.14-2.12,5.42-14.83c0,0,3.91-19,4.56-34,0,0-1.51-1.29,0-3.65L88.31,128s-4.69.49-2.77-4.32C85.54,123.67,89.25,119.47,89.74,123.26Z" style="fill: #fff"/>
      </g>
    </g>
  </g>
</svg>
