<svg id="Layer_1" data-name="Layer 1" xmlns="http://www.w3.org/2000/svg" width="149" height="149" viewBox="0 0 149 149">
  <title>eye</title>
  <circle cx="74.5" cy="74.5" r="74.5" style="fill: #ecedf0"/>
  <g>
    <path d="M140.8,74.25c0-.06,0-.11,0-.16V74s0-.08,0-.12,0-.09,0-.14v0A5,5,0,0,0,139.36,71,101.05,101.05,0,0,0,125,57.46c-11-8.78-23.63-16.13-37.54-19.08A62.57,62.57,0,0,0,63.22,38a76.26,76.26,0,0,0-21.07,7.44A114.39,114.39,0,0,0,14,66.29C12.49,67.81,11,69.36,9.58,71a5.09,5.09,0,0,0,0,7A101.07,101.07,0,0,0,24,91.54c11,8.78,23.63,16.13,37.54,19.08a62.55,62.55,0,0,0,24.22.34,76.3,76.3,0,0,0,21.07-7.44,114.52,114.52,0,0,0,28.13-20.82c1.53-1.52,3-3.07,4.44-4.72a5,5,0,0,0,1.39-2.73v0s0-.09,0-.14,0-.08,0-.12v-.08c0-.05,0-.11,0-.16s0-.16,0-.25S140.8,74.34,140.8,74.25Z" style="fill: #fff;stroke: #f0d0b4;stroke-miterlimit: 10;stroke-width: 4px"/>
    <circle cx="74.5" cy="74.5" r="26.22" style="fill: #389ae1"/>
    <circle cx="74.5" cy="74.5" r="13.01" style="fill: #283c51"/>
    <circle cx="70.11" cy="69.41" r="2.72" style="fill: #fff"/>
  </g>
</svg>
