<svg id="Layer_1" data-name="Layer 1" xmlns="http://www.w3.org/2000/svg" xmlns:xlink="http://www.w3.org/1999/xlink" width="149" height="149" viewBox="0 0 149 149">
  <defs>
    <clipPath id="clip-path">
      <circle cx="74.5" cy="74.5" r="74.5" style="fill: none"/>
    </clipPath>
  </defs>
  <title>fatigue</title>
  <circle cx="74.5" cy="74.5" r="74.5" style="fill: #ecedf0"/>
  <g style="clip-path: url(#clip-path)">
    <g>
      <path d="M25.94,66.43c6.88,4.15,16-1.69,19.45.51,14.79,9.47,19.32,17.33,24.52,17.25C67.15,87.78,64,92,57.39,92.56c-19,.52-33.28-1.43-43-16.76-1.41-2-4.3-9.32-5.14-12-4.06-13.1,7-30.37,30.12-24.49A51.34,51.34,0,0,1,51.6,44.65C69.26,54.8,81.9,71.86,83.51,93.48,79.07,74.91,57.62,34.57,25.94,66.43" style="fill: #472b29;fill-rule: evenodd"/>
      <path d="M51.45,47.35l7.86,4.34c1.23-.36,1.75-1.91.15-2.85-4.1-1.9-3.12-4.47-6.71-6.83-1.58-1-4.29,2.12-1.3,5.33" style="fill: #ebc79c;fill-rule: evenodd"/>
      <path d="M32.3,73.62c4.74,2.86,9.16,5.11,14.94,6.28-4.36.63-9,1-13.2-.86Z" style="fill: #472b29;fill-rule: evenodd"/>
      <path d="M41.3,79l8.92,1c.79,1,.31,2.57-1.53,2.4-4.44-.83-5.13,1.82-9.43,1.65-1.89-.07-2.26-4.22,2-5.09" style="fill: #ebc79c;fill-rule: evenodd"/>
      <path d="M59.89,56.4c7,8,14,10.63,21,11.21,9.34-5,12.48-10.47,13.82-16.7l15.27-6.44c9.72,11.52,26.24,19.09,36,22.9l31.84.75L180,113.44c-12.86-1.37-24.6-2.75-38.58-4.12H132c-7.63,7.65-19.65,5.56-30.77-.32-8.89-2.88-14.47,7.59-20.43,8.85C59.64,118.93,58.59,89,68.5,91.23c2.2.5,3.23-5.36,2-6.08-8.58-4-7.23-5-20-6.76Z" style="fill: #ffc492;fill-rule: evenodd"/>
      <path d="M59.58,57.13C68.73,66,71.74,81.49,87,83.68l91.78,5.65,1.2,24.12c-12.86-1.37-24.6-2.75-38.58-4.12H132c-7.63,7.65-19.65,5.56-30.77-.32-8.89-2.88-14.47,7.59-20.43,8.85C59.64,118.93,58.59,89,68.5,91.23c2.2.5,3.23-5.36,2-6.08-8.13-3.8-7.35-4.88-18.1-6.49l.09-4.89Z" style="fill-rule: evenodd;opacity: 0.1"/>
      <path d="M74.41,117.08c6.33.93,9.57-.33,22.9,3.4l1.6-19.4c-5.2-2.77-7.7-3.13-12.9-5.9Z" style="fill: #e3b578;fill-rule: evenodd"/>
      <path d="M120.93,54.33a119.94,119.94,0,0,0,25,13l31.84.75L180,113.44c-12.86-1.37-24.6-2.75-38.58-4.12H132c-7.36,7.38-18.8,5.7-29.57.3-.9-3.48-3.06-6.11-2.9-10.27C93,94.93,84.71,96.41,70.77,86.62l.22-.87c7.52,6.54,22.84,9.42,28.62,12.75,3.49-3.87,11.47-6.14,13.35-11.62-3.67-4.35-3.64-10.68-4-15.81-4.2-1-13.83-1.3-16.05-14.9l.22-.35c1.77,9.45,8.08,14.38,16.11,14.51,14-.5,16.24-4.58,11.67-16" style="fill: #b0d1de;fill-rule: evenodd"/>
      <path d="M111.77,85.2l25.93,6.92a172.16,172.16,0,0,0,41.09.51l1.2,20.82c-12.86-1.37-24.6-2.75-38.58-4.12H132c-7.37,7.39-18.84,5.69-29.62.27-1.18-3.15-3-6.92-2.85-10.24C93,95,84.81,96.39,71,86.79a4.14,4.14,0,0,0-.08-.83l.05-.21c7.52,6.54,22.84,9.42,28.62,12.75,3.49-3.87,11.47-6.14,13.35-11.62a12.28,12.28,0,0,1-1.19-1.68" style="fill-rule: evenodd;opacity: 0.1"/>
      <path d="M25.69,79.11c26.78,4.76,36.11-.6,42.5-7.06-1.77-15.71-10.34-25.8-33-31.79C9.57,33.47-1,74.35,25.69,79.11" style="fill: #f6ba88;fill-rule: evenodd"/>
      <path d="M41.17,60a9.8,9.8,0,0,1-1.49-2.19,9.66,9.66,0,0,1,0-5.8c.72-1.85,2.22-2.28,3.8-3.58-6.21,4.86-1.76,12.47-2.3,11.57" style="fill: #4f302b;fill-rule: evenodd"/>
      <path d="M44.09,67.58c-2.37.62-.59,3.54-3.9,7.62,1.74-1.39,2.82-.35,3.36-6.11a2.89,2.89,0,0,1,.54-1.51" style="fill: #4f302b;fill-rule: evenodd"/>
      <path d="M38.37,64.94a9.81,9.81,0,0,0-2.2,1.47A9.66,9.66,0,0,0,34,71.78c0,2,1.2,3,2.18,4.74-3.93-6.83,3-12.22,2.21-11.59" style="fill: #4f302b;fill-rule: evenodd"/>
      <path d="M56.69,72.81c1.71-.7,2.41-2.53,2.58-4.19A31,31,0,0,0,59,63.87c-1.61,2.68-3.1,6-2.32,8.93" style="fill: #e68c8f;fill-rule: evenodd"/>
      <path d="M46,59.83c-1.56-1.88,1.58-3.22,1.25-8.47.6,2.14,2.09,1.92-.81,6.93A2.89,2.89,0,0,0,46,59.83" style="fill: #4f302b;fill-rule: evenodd"/>
      <path d="M42.68,64.31c3.83.35,7.68,1.53,9.3,4.49l2.79-2.47L53,67c-2.48-1.27-4.34-2.68-10.35-2.68" style="fill-rule: evenodd;opacity: 0.1"/>
      <path d="M69.23,84.61a62.37,62.37,0,0,1-34.39-2.88c10.14,4.08,20,7.91,33,4.35Z" style="fill: #382421;fill-rule: evenodd"/>
      <path d="M25.94,66.43c6.88,4.15,10,11,13.46,13.24,14.79,9.47,25.31,4.6,30.51,4.52C67.15,87.78,64,92,57.39,92.56c-12,0-19.22-1.32-43-16.76-1.41-2-4.3-9.32-5.14-12-4.06-13.1,7-30.37,30.12-24.49A51.34,51.34,0,0,1,51.6,44.65C69.26,54.8,81.9,71.86,83.51,93.48,79.07,74.91,57.62,34.57,25.94,66.43" style="fill: #542929;fill-rule: evenodd"/>
      <path d="M24,67.11c6.88,4.15,9.54,10.39,12.84,12.79,15.6,11.35,27.84,4.38,33,4.3C67.15,87.78,64,92,57.39,92.56c-12,0-17.78,4.86-43-16.76-4.37-3.75-4.3-9.32-5.14-12-4.06-13.1,7-30.37,30.12-24.49A51.34,51.34,0,0,1,51.6,44.65C69.26,54.8,81.9,71.86,83.51,93.48,84.37,76.26,58.81,35.79,24,67.11" style="fill: #73292b;fill-rule: evenodd"/>
      <path d="M24.85,67.15c32.34-21.25,48.31-.48,47.6,17.55,3.3-12.9-9.88-41.77-37.89-26.76Z" style="fill: #542929;fill-rule: evenodd"/>
      <path d="M28.36,62.5c33.89-16.6,46.2,6.56,44.09,22.2,3.3-12.9-9.88-41.77-37.89-26.76Z" style="fill: #73292b;fill-rule: evenodd"/>
      <path d="M56.69,72.81c1.5-3.26,1.44-5.77,2.32-8.93-1.61,3.78-3.1,6.53-2.32,8.93" style="fill: #d9878a;fill-rule: evenodd"/>
      <path d="M49.08,89.09l38.4,29c10.56,4.49,17.22,1.34,22.29-3.16-.66-5.24-12.15-17.42-18.35-19.33C79.27,91.84,65.12,89.84,52,82.11c-7.93-4.7-11.29.94-16.94,1.42l-15-6.66,12,13.44Z" style="fill: #ffc492;fill-rule: evenodd"/>
      <path d="M94.11,55.56c5.46,11.66,10.32,17.81,13.53,29.8-12.95-3-31.41-2.53-48.53-6.17l-18.7-.33L27.93,87.31l15.88-2.8c4.79.79,14.12,6.62,17.34,3.57,23.32,2.46,59.7,27.12,69.29,12.67-5.46-17.55-8.61-29.85-12.78-47.4-.59-17.07-26.32-15.46-23.54,2.19" style="fill: #f6ba88;fill-rule: evenodd"/>
      <path d="M-4.95,83.72c3.57,3.18,9.74,7.62,15,9.27a245.63,245.63,0,0,0,54.35,10.68,21.75,21.75,0,0,0,15-4.31c-4.44-3.4-12-10.43-24-15.18C47.41,81,35.93,78.35,25.62,75.33c-10.55-3.1-23.2,2.13-30.57,8.39" style="fill: #fff;fill-rule: evenodd"/>
      <path d="M-2.76,84c3.39,3,9.24,7.23,14.26,8.79A233,233,0,0,0,63,102.91a20.63,20.63,0,0,0,14.27-4.08c-4.21-3.23-10.19-1.89-21.58-6.39-7.64-3-16.13-3.53-25.9-6.4-10-2.94-25.6-8-32.59-2" style="fill: #d9d6d6;fill-rule: evenodd;opacity: 0.5"/>
      <path d="M-6.3,107c4,3.21,10.85,7.46,16.35,8.42a195.83,195.83,0,0,0,55.36,2.11,20.48,20.48,0,0,0,14.14-8.43C74.62,105.76,66,98.6,53.38,95.17c-8.47-2.3-20.23-3.23-30.89-4.87C11.58,88.62,0,97.7-6.3,107" style="fill: #fff;fill-rule: evenodd"/>
      <path d="M-3.93,106.83c3.82,3,10.25,7,15.45,8a185,185,0,0,0,52.3,2,19.34,19.34,0,0,0,13.36-8c-4.66-3.13-5.12.34-17-2.9-8-2.17-27-2.73-37-4.28C12.81,100,2,98.06-3.93,106.83" style="fill: #d1cfcf;fill-rule: evenodd;opacity: 0.5"/>
    </g>
  </g>
</svg>
