<svg xmlns="http://www.w3.org/2000/svg" xmlns:xlink="http://www.w3.org/1999/xlink" width="149" height="149" viewBox="0 0 149 149">
  <defs>
    <linearGradient id="linear-gradient" x1="83.94" y1="84.73" x2="83.94" y2="103.42" gradientUnits="userSpaceOnUse">
      <stop offset="0.64" stop-color="#fff"/>
      <stop offset="1"/>
    </linearGradient>
    <filter id="luminosity-noclip" x="70.11" y="-7306.03" width="16.47" height="32766" filterUnits="userSpaceOnUse" color-interpolation-filters="sRGB">
      <feFlood flood-color="#fff" result="bg"/>
      <feBlend in="SourceGraphic" in2="bg"/>
    </filter>
    <mask id="mask" x="70.11" y="-7306.03" width="16.47" height="32766" maskUnits="userSpaceOnUse">
      <g style="filter: url(#luminosity-noclip)"/>
    </mask>
    <radialGradient id="radial-gradient" cx="157.84" cy="209.96" r="8.24" gradientTransform="translate(-79.5 -79.5)" gradientUnits="userSpaceOnUse">
      <stop offset="0" stop-color="#fff"/>
      <stop offset="0.58" stop-color="#fff"/>
      <stop offset="0.66" stop-color="#f5f5f5"/>
      <stop offset="0.79" stop-color="#dcdcdc"/>
      <stop offset="0.95" stop-color="#b2b2b2"/>
      <stop offset="1" stop-color="#a3a3a3"/>
    </radialGradient>
    <clipPath id="clip-path">
      <circle cx="-101.73" cy="72.96" r="74.5" style="fill: none"/>
    </clipPath>
    <clipPath id="clip-path-2">
      <circle cx="74.5" cy="74.5" r="74.5" style="fill: none"/>
    </clipPath>
    <mask id="mask-2" x="59.19" y="69.25" width="49.49" height="39.49" maskUnits="userSpaceOnUse">
      <rect x="59.19" y="69.25" width="49.49" height="35.9" style="fill: url(#linear-gradient)"/>
    </mask>
    <radialGradient id="radial-gradient-2" cx="157.84" cy="209.54" r="12.71" gradientTransform="translate(-79.5 -79.5)" gradientUnits="userSpaceOnUse">
      <stop offset="0" stop-color="#ec1c24"/>
      <stop offset="0.65" stop-color="#ec1c24"/>
      <stop offset="0.68" stop-color="#ed262d"/>
      <stop offset="0.74" stop-color="#ef4046"/>
      <stop offset="0.81" stop-color="#f36a6f"/>
      <stop offset="0.89" stop-color="#f7a4a7"/>
      <stop offset="0.98" stop-color="#feeeef"/>
      <stop offset="1" stop-color="#fff"/>
    </radialGradient>
    <filter id="luminosity-noclip-2" x="70.11" y="122.23" width="16.47" height="16.47" filterUnits="userSpaceOnUse" color-interpolation-filters="sRGB">
      <feFlood flood-color="#fff" result="bg"/>
      <feBlend in="SourceGraphic" in2="bg"/>
    </filter>
    <mask id="mask-3" x="70.11" y="122.23" width="16.47" height="16.47" maskUnits="userSpaceOnUse">
      <g style="mask: url(#mask);filter: url(#luminosity-noclip-2)">
        <circle cx="78.34" cy="130.47" r="8.24" style="mix-blend-mode: multiply;fill: url(#radial-gradient)"/>
      </g>
    </mask>
    <radialGradient id="radial-gradient-3" cx="157.84" cy="209.96" r="8.24" gradientTransform="translate(-79.5 -79.5)" gradientUnits="userSpaceOnUse">
      <stop offset="0" stop-color="#ec1c24"/>
      <stop offset="0.58" stop-color="#ec1c24"/>
      <stop offset="0.63" stop-color="#ed262c"/>
      <stop offset="0.72" stop-color="#ef3f40"/>
      <stop offset="0.83" stop-color="#f36a61"/>
      <stop offset="0.96" stop-color="#f8a38f"/>
      <stop offset="1" stop-color="#f9b59d"/>
    </radialGradient>
    <radialGradient id="radial-gradient-4" cx="157.84" cy="209.96" r="6.61" gradientTransform="translate(-79.5 -79.5)" gradientUnits="userSpaceOnUse">
      <stop offset="0" stop-color="#ec1c24"/>
      <stop offset="0.36" stop-color="#ec1c24"/>
      <stop offset="0.44" stop-color="#ed262c"/>
      <stop offset="0.58" stop-color="#ef3f40"/>
      <stop offset="0.75" stop-color="#f36a61"/>
      <stop offset="0.94" stop-color="#f8a38f"/>
      <stop offset="1" stop-color="#f9b59d"/>
    </radialGradient>
  </defs>
  <title>fracture</title>
  <g style="isolation: isolate">
    <g id="Layer_1" data-name="Layer 1">
      <g style="clip-path: url(#clip-path)">
        <circle cx="6.46" cy="143.3" r="1.07" style="fill: #fff;stroke: #1a68a4;stroke-linecap: round;stroke-width: 1.13386px"/>
        <circle cx="-0.25" cy="139.58" r="1.07" style="fill: #fff;stroke: #1a68a4;stroke-linecap: round;stroke-width: 1.13386px"/>
        <line x1="-1.49" y1="129.78" x2="1" y2="129.25" style="fill: none;stroke: #1a68a4;stroke-linecap: round;stroke-width: 1.13386px"/>
        <line x1="1.5" y1="136.04" x2="2.64" y2="133.79" style="fill: none;stroke: #1a68a4;stroke-linecap: round;stroke-width: 1.13386px"/>
        <line x1="5.89" y1="137.8" x2="7.03" y2="135.56" style="fill: none;stroke: #1a68a4;stroke-linecap: round;stroke-width: 1.13386px"/>
        <line x1="9.94" y1="140.33" x2="11.67" y2="138.51" style="fill: none;stroke: #1a68a4;stroke-linecap: round;stroke-width: 1.13386px"/>
        <line x1="12.43" y1="143.3" x2="14.47" y2="141.83" style="fill: none;stroke: #1a68a4;stroke-linecap: round;stroke-width: 1.13386px"/>
        <line x1="13.99" y1="146.97" x2="16.4" y2="146.24" style="fill: none;stroke: #1a68a4;stroke-linecap: round;stroke-width: 1.13386px"/>
        <line x1="5.08" y1="147.65" x2="2.84" y2="148.9" style="fill: none;stroke: #1a68a4;stroke-linecap: round;stroke-width: 1.13386px"/>
        <line x1="-0.25" y1="144.49" x2="-1.37" y2="146.75" style="fill: none;stroke: #1a68a4;stroke-linecap: round;stroke-width: 1.13386px"/>
        <circle cx="2.06" cy="129.07" r="1.07" style="fill: #2fb5ea;stroke: #1a68a4;stroke-linecap: round;stroke-width: 1.13386px"/>
        <circle cx="3.13" cy="132.84" r="1.07" style="fill: #2fb5ea;stroke: #1a68a4;stroke-linecap: round;stroke-width: 1.13386px"/>
        <circle cx="7.53" cy="134.62" r="1.07" style="fill: #2fb5ea;stroke: #1a68a4;stroke-linecap: round;stroke-width: 1.13386px"/>
        <circle cx="12.43" cy="137.75" r="1.07" style="fill: #2fb5ea;stroke: #1a68a4;stroke-linecap: round;stroke-width: 1.13386px"/>
        <circle cx="15.34" cy="141.19" r="1.07" style="fill: #2fb5ea;stroke: #1a68a4;stroke-linecap: round;stroke-width: 1.13386px"/>
        <circle cx="17.43" cy="145.93" r="1.07" style="fill: #2fb5ea;stroke: #1a68a4;stroke-linecap: round;stroke-width: 1.13386px"/>
        <circle cx="1.91" cy="149.42" r="1.07" style="fill: #2fb5ea;stroke: #1a68a4;stroke-linecap: round;stroke-width: 1.13386px"/>
      </g>
      <circle cx="74.5" cy="74.5" r="74.5" style="fill: #ecedf0"/>
      <g style="clip-path: url(#clip-path-2)">
        <g>
          <g>
            <g>
              <path d="M64.85,28.28,48.5,18.8c0,.86,5.83,33.4,5.83,33.4l-5.58,9.65L45.43,49.62s-1-10.29-2.9-16.73S36,23.42,33.86,24.06s-2.24,5.54-2.46,9.19S30,48.08,30,48.08s2.19,7.53,4.42,16.28c1,4.08,1.2,8.56,2.77,12.41,3.1,7.61,25.17,33.54,25.17,33.54l-1.82,77.43h46.39L102,110.87s8.57-12.78,10.89-23.47,5-26,5-26L119,48.22A94.76,94.76,0,0,0,118.48,37a27.18,27.18,0,0,0-3.29-10s-19-2.62-22.61-1-9-16.54-9-16.54Z" style="fill: #ffdcae"/>
              <path d="M102,110.87s8.57-12.78,10.89-23.47,5-26,5-26L119,48.22A94.76,94.76,0,0,0,118.48,37a26.56,26.56,0,0,0-1.38-5.83c.3,4.6.76,11.88.76,13.51,0,2.43-.72,3.67-.51,4.35a47.57,47.57,0,0,1-.51,10c-.58,2.66-1.1,2.18-1.34,3.72s-1.26,17.48-4.59,26.89-10.29,19.63-10.29,20.9,4.05,63.88,4.91,77.18h1.37Z" style="fill: #fff0c8"/>
              <path d="M63.25,108.67c-.33-1-14.71-16.9-17.06-21.29S38.5,75.71,38,72.37,32.82,51.47,32.16,49s-.18-4.06,0-9.56a69.24,69.24,0,0,0-.57-9.15c-.08,1-.12,2-.18,2.95C31.19,36.89,30,48.08,30,48.08s2.19,7.53,4.42,16.28c1,4.08,1.2,8.56,2.77,12.41,3.1,7.61,25.17,33.54,25.17,33.54l-1.82,77.43h1.13C62,174.15,63.55,109.55,63.25,108.67Z" style="fill: #fff0c8"/>
              <g>
                <g>
                  <path d="M72.64,127c.94.22.75,1.21,2.07,1.28s3.1-1.16,4-.87.16,1,2,1.32,1.05-1.68,2.56-1.32a3.81,3.81,0,0,1,1.46.7,8,8,0,0,1,.53-2.51c2-3.2,1.87-9.61,1.87-9.61.12-3.1-5.73-.26-9.4-1.28s-6.52-5.73-8.68-5S66,113.14,65.86,117c-.08,2.56,2.07,7.41,3.94,11.42C70.83,127.66,72.11,126.85,72.64,127Z" style="fill: #fff;stroke: #58595b;stroke-linecap: round;stroke-width: 1.71462px"/>
                  <path d="M83.94,187.75s-.48-39.81.48-55.79c-.88.2-1.79.29-1.9,0a1.24,1.24,0,0,0-1.8-.38c-.55.56-1.77,1.55-2.15.54s-.35-2.42-1.16-2-3.07,2.35-3.82,1.69-.47-1.22-1.22-1.22a3.11,3.11,0,0,0-1.26.6c.4.86.74,1.61,1,2.21,1.45,3.59-.16,54.35-.16,54.35" style="fill: #fff;stroke: #58595b;stroke-linecap: round;stroke-width: 1.71462px"/>
                </g>
                <path d="M94.63,99.72a4.56,4.56,0,0,1,2.5,3c.34,2-2.13,10.7-4.63,11.28-3.11.71-5.54-5.5-4.42-8.17S93.38,99.33,94.63,99.72Z" style="fill: #fff;stroke: #58595b;stroke-linecap: round;stroke-width: 1.71462px"/>
                <path d="M80.51,108.66s5.34-.14,5.93-3.45,1.45-13.68.53-14.37-6.13-.69-7.45,0-2.83,1-3.3,5.73S75.3,108.87,80.51,108.66Z" style="fill: #fff;stroke: #58595b;stroke-linecap: round;stroke-width: 1.71462px"/>
                <path d="M87.37,91.59a6.8,6.8,0,0,1,3.48.08c1.85.55,4.68,3.8,4.48,5.39s-5.73,7.74-7.05,8.5A2.32,2.32,0,0,1,84.79,104C84.4,102.31,87.37,91.59,87.37,91.59Z" style="fill: #fff;stroke: #58595b;stroke-linecap: round;stroke-width: 1.71462px"/>
                <path d="M68.37,102.34c.8-.14,4.09-4.12,6.11-4.45S77,95,76.88,93.64s-1.48-2.9-4.25-2.79S66.52,93.8,65,94.76s-2.7,3-2.67,3.92.58.86,2.57,1.78S67.57,102.47,68.37,102.34Z" style="fill: #fff;stroke: #58595b;stroke-linecap: round;stroke-width: 1.71462px"/>
                <path d="M85.1,105.89s3.05.37,3.81,2.78,0,6.67-4.16,6.58-5.52-2.69-5.42-4.68S82.77,105.92,85.1,105.89Z" style="fill: #fff;stroke: #58595b;stroke-linecap: round;stroke-width: 1.71462px"/>
                <path d="M77.56,113.83s4.41-2.31,2.8-6.22-2.81-10.84-5.18-10.66-7,3.89-7.29,4.53-1.1,3.76-.34,4.41a27.5,27.5,0,0,1,4.53,4C73.66,111.87,75.3,114.93,77.56,113.83Z" style="fill: #fff;stroke: #58595b;stroke-linecap: round;stroke-width: 1.71462px"/>
                <path d="M91.23,187.75s.29-56.34-.17-59.65-3.39-7.16-3.69-9.41.4-4.29,2.68-4.58,1,.55,3.21,0,1.82-3,4.18-1.74c1.72.91.1,8.54-.09,11.56s.87,63.87.87,63.87" style="fill: #fff;stroke: #58595b;stroke-linecap: round;stroke-width: 1.71462px"/>
              </g>
              <path d="M106.89,187.75,102,110.87s8.57-12.78,10.89-23.47,5-26,5-26L119,48.22A94.76,94.76,0,0,0,118.48,37a27.18,27.18,0,0,0-3.29-10s-19-2.62-22.61-1-9-16.54-9-16.54L64.85,28.28,48.5,18.8c0,.86,5.83,33.4,5.83,33.4l-5.58,9.65L45.43,49.62s-1-10.29-2.9-16.73S36,23.42,33.86,24.06s-2.24,5.54-2.46,9.19S30,48.08,30,48.08s2.19,7.53,4.42,16.28c1,4.08,1.2,8.56,2.77,12.41,3.1,7.61,25.17,33.54,25.17,33.54l-1.82,77.43" style="fill: none;stroke: #dea17f;stroke-width: 1.3px"/>
              <g style="mask: url(#mask-2)">
                <path d="M59.89,100.86s14.28,7,20.62,7.8,20.22-4.41,21.48-4.94,9.09-17.76,6-21.68-21.26-7.31-23.69-6.27-22.8,6.79-24.37,8.88S59.89,100.86,59.89,100.86Z" style="fill: #ffdcae"/>
              </g>
              <path d="M83.63,87.68c3.5.08,4.18-5.43,10.57-9.56,3.19-2.07,9.4-3.41,9.4-3.41a81.2,81.2,0,0,1,1.71-8.81,19.68,19.68,0,0,1,2.87-5.64s7.32-13.66,6.09-28.89c-.14-1.73-31.35.29-47.9-2.71-.47-.09-.82-10.12-1.27-10.2-1-7.74-4.43-4.77-5.24-4.23-3.13,2.06-9.15,8.48-9.15,8.48l3.16,18.2c1.06,5.94,1.57,11.33,1.57,11.33L49.16,62.59s15.77,6.7,22.11,13.21S80.75,87.61,83.63,87.68Z" style="fill: #fabe9c"/>
              <path d="M64,14.73c-.48-.34.45,11.75-7.91,11.16S48,16,48,14.81a6.86,6.86,0,0,1,7.09-6.5c5.9,0,8.38,2.87,9,4.52a50.32,50.32,0,0,1,1.31,6l.45,8.41A101.4,101.4,0,0,1,64,14.73Z" style="fill: #ffdcae"/>
              <path d="M66.13,27.82l-.74-8.94a50.32,50.32,0,0,0-1.31-6c-.61-1.65-3.09-4.52-9-4.52A6.86,6.86,0,0,0,48,14.81c0,1.23-.29,10.5,8.07,11.08,6.6.46,7.41-7,7.69-10,.07-.7.09-.89.09-.89" style="fill: none;stroke: #dea17f;stroke-linecap: round;stroke-linejoin: round;stroke-width: 1.3px"/>
              <path d="M51.32,14.17v5.48s2.5.4,5.33.77,5.19.59,5.19.59l.22-4.74a4.88,4.88,0,0,0-4.85-3.71C53,12.37,51.32,14.17,51.32,14.17Z" style="fill: #fff1de"/>
              <path d="M68,9.38l-2.2,25.2s1,6.32,7.08,6.81S81.77,37.6,82,35.56s1.83-24.08,1.54-26.18A6.56,6.56,0,0,0,77,4C72.92,4.11,68.4,5.23,68,9.38Z" style="fill: #ffdcae"/>
              <path d="M115,30.37l-7.42,5.37s-1.07,12.16-2.26,15.37C104,54.7,94.18,56,95.18,49.58c1.19-7.5,1.94-16.08,1.94-16.08s5.58-7.27,6.47-8.4c1.52-1.94,9.69-3.41,11.71,2.17A3.92,3.92,0,0,1,115,30.37Z" style="fill: #ffdcae"/>
              <path d="M97.36,30.53s-.81,12.58-2.28,15.88-5.37,4.49-8,4-6-1.77-5-9.27S83.63,31,83.63,31l3.8-14.2s1.91-7.2,8.16-6,7.35,5.07,7.57,7.28,0,11.12,0,11.12l-4.4,2.21Z" style="fill: #ffdcae"/>
              <path d="M84.71,35.5l-1.65,8.9s.9,2.25,4.4,2.2,4.85-1.65,4.85-1.65l.9-7.2s-.65-4.4-3.9-4.5S84.83,34.84,84.71,35.5Z" style="fill: #fff1de"/>
              <path d="M101.76,40.79c.8,2.2-.8,8.25-.8,8.25s-.75,1.2-3.05,1-2.43-1.48-2.33-2.22,1.09-8.41,1.09-8.41S101,38.59,101.76,40.79Z" style="fill: #fff1de"/>
              <path d="M100.92,20.28,98.56,26.2l-1.21,4.33,1.41.83,4.83-6.27L103.17,18S101.71,18,100.92,20.28Z" style="fill: #fabe9c"/>
              <path d="M75,24.06s-4.23-.11-5.66,3.6A22.18,22.18,0,0,0,68,35.53a8.35,8.35,0,0,0,7.1,3.13c4.78-.22,4.78-1.62,4.78-1.62V28.29S78.68,24.21,75,24.06Z" style="fill: #fff1de"/>
              <polygon points="86.92 18.67 83.59 9.38 82.45 30.8 83.54 31.36 86.92 18.67" style="fill: #fabe9c"/>
              <line x1="86.92" y1="18.67" x2="83.59" y2="9.38" style="fill: none;stroke: #dea17f;stroke-width: 1.3px"/>
              <path d="M51.32,62.78s11,5.8,18.29,11.5a80,80,0,0,1,12.84,13.1" style="fill: none;stroke: #dea17f;stroke-linecap: round;stroke-linejoin: round;stroke-width: 1.3px"/>
              <path d="M87.13,85.4s5-6.81,9-8.29,7.52-2.4,7.52-2.4" style="fill: none;stroke: #dea17f;stroke-linecap: round;stroke-linejoin: round;stroke-width: 1.3px"/>
              <path d="M83.59,9.38A6.56,6.56,0,0,0,77,4c-4.07.14-8.59,1.26-9,5.41l-2.2,25.2s1,6.32,7.08,6.81S81.77,37.6,82,35.56c.22-1.6,1.22-15.57,1.5-22.49" style="fill: none;stroke: #dea17f;stroke-linecap: round;stroke-linejoin: round;stroke-width: 1.3px"/>
              <path d="M98.77,31.36l-1.41-.83s-.81,12.58-2.28,15.88-5.37,4.49-8,4-6-1.77-5-9.27S83.63,31,83.63,31l3.8-14.2s1.91-7.2,8.16-6,7.35,5.07,7.57,7.28.1,7.5.1,7.5" style="fill: none;stroke: #dea17f;stroke-width: 1.3px"/>
              <path d="M115.73,27.95c-2-5.58-10.62-4.8-12.13-2.85-.89,1.14-6.47,8.4-6.47,8.4s-.76,8.59-1.94,16.08c-1,6.38,8.8,5.12,10.12,1.54,1.19-3.21,2.26-15.37,2.26-15.37l6.68-4.84" style="fill: none;stroke: #dea17f;stroke-linecap: round;stroke-linejoin: round;stroke-width: 1.3px"/>
              <path d="M54.33,52.2s14.27,2.89,25,7.59S92.77,68.2,92.77,68.2" style="fill: none;stroke: #dea17f;stroke-linecap: round;stroke-linejoin: round;stroke-width: 1.3px"/>
              <path d="M70.67,49s14.42,5.69,24.44,8.31,8.51.46,13.57,1.92,5.72,2.39,5.72,2.39" style="fill: none;stroke: #dea17f;stroke-linecap: round;stroke-linejoin: round;stroke-width: 1.3px"/>
              <path d="M55.55,39.26a47,47,0,0,0,8.1,0c2.78-.44,4.09-.59,4.09-.59" style="fill: none;stroke: #dea17f;stroke-linecap: round;stroke-linejoin: round;stroke-width: 1.3px"/>
              <path d="M106.57,44.66s.58,1.22,4.07,1.94,5.1,1,5.1,1" style="fill: none;stroke: #dea17f;stroke-linecap: round;stroke-linejoin: round;stroke-width: 1.3px"/>
              <path d="M35,49s1.23,1.08,6,1c4.1,0,4.45-.44,4.45-.44" style="fill: none;stroke: #dea17f;stroke-linecap: round;stroke-linejoin: round;stroke-width: 1.3px"/>
              <path d="M48.17,63,44.58,50.5a6,6,0,0,1-2.89.75c-1.67,0-3.35-.15-3.65.3s4.73,16,5.57,16S48.17,63,48.17,63Z" style="fill: #fabe9c"/>
              <path d="M37.28,48.06s3,1.21,4.94.95,2.21,0,2.21,0-.76-5.51-1.14-6.73-.91-3.56-.91-3.56a6.68,6.68,0,0,1-2.15.73c-1.19.17-4.16-1.5-4.16-1.5S36,47.63,37.28,48.06Z" style="fill: #fabe9c"/>
              <path d="M97.36,30.53s0-2.11,2.12-6.89c2-4.42,1.83-4.22,1.83-4.22" style="fill: none;stroke: #dea17f;stroke-linecap: round;stroke-linejoin: round;stroke-width: 1.3px"/>
            </g>
            <line x1="49.71" y1="60.2" x2="47.92" y2="63.4" style="fill: none;stroke: #dea17f;stroke-linecap: round;stroke-linejoin: round;stroke-width: 1.3px"/>
          </g>
          <circle cx="78.34" cy="130.04" r="12.71" style="opacity: 0.35000000000000003;mix-blend-mode: multiply;fill: url(#radial-gradient-2)"/>
          <g style="mask: url(#mask-3)">
            <circle cx="78.34" cy="130.47" r="8.24" style="mix-blend-mode: multiply;fill: url(#radial-gradient-3)"/>
          </g>
          <circle cx="78.34" cy="130.47" r="6.61" style="mix-blend-mode: multiply;fill: url(#radial-gradient-4)"/>
        </g>
      </g>
    </g>
  </g>
</svg>
