<svg id="Layer_1" data-name="Layer 1" xmlns="http://www.w3.org/2000/svg" xmlns:xlink="http://www.w3.org/1999/xlink" width="149" height="149" viewBox="0 0 149 149">
  <defs>
    <clipPath id="clip-path">
      <circle cx="74.5" cy="74.5" r="74.5" style="fill: none"/>
    </clipPath>
  </defs>
  <title>hairLoss</title>
  <g>
    <circle cx="74.5" cy="74.5" r="74.5" style="fill: #ecedf0"/>
    <g style="clip-path: url(#clip-path)">
      <g>
        <g>
          <path d="M80.21,20.74S94,12.08,100.27,30.45c8.59,25.31-6.22,62.71-6.22,62.71l-16.7-3.66Z" style="fill: #583821"/>
          <path d="M81.24,21.43S66.13.84,48.46,20.19c-18.79,20.57.56,42,.85,54.47.24,10.49-8.53,23.11-14.87,32.93L77.36,89.51Z" style="fill: #583821"/>
          <path d="M83.91,72.58l-9,4.51-9-4.51c1.52,16.63-9.39,28.85-9.39,28.85v79.41H93.31V101.43S82.39,89.21,83.91,72.58Z" style="fill: #f0d0b4"/>
          <path d="M74.86,77.09l-9-4.51c.31,3.37-1,6.56-1.45,9.51,4.79,7.75,11.31,13,18.49,13a15.55,15.55,0,0,0,6-1.25c-2.35-5.16-5.77-12.62-5-21.27Z" style="fill: #231f20;opacity: 0.07"/>
          <g>
            <path d="M95.75,48.73c0-16.21-9.51-24.9-21.25-24.9s-21.25,8.69-21.25,24.9S62.77,82.54,74.5,82.54,95.75,64.94,95.75,48.73Z" style="fill: #f0d0b4"/>
            <path d="M82.09,75.52c-.75-6.21-3.87-11.87-7.59-11.87s-6.84,5.66-7.59,11.87Z" style="fill: #fff"/>
            <g>
              <ellipse cx="82.82" cy="57.69" rx="1.95" ry="3.47" style="fill: #2b2b2b"/>
              <circle cx="83.51" cy="56.93" r="0.54" style="fill: #ecf0f1"/>
            </g>
            <ellipse cx="86.83" cy="62.49" rx="2.93" ry="1.66" style="fill: #f2ddde;opacity: 0.75"/>
            <g>
              <ellipse cx="66.18" cy="57.69" rx="1.95" ry="3.47" style="fill: #2b2b2b"/>
              <circle cx="66.86" cy="56.93" r="0.54" style="fill: #ecf0f1"/>
            </g>
            <ellipse cx="62.17" cy="62.49" rx="2.93" ry="1.66" style="fill: #f2ddde;opacity: 0.75"/>
            <path d="M78.67,45.75l.5,0a8.9,8.9,0,0,1,1.28.19,10.81,10.81,0,0,1,1.74.53,9.44,9.44,0,0,1,.94.42c.32.16.63.34.94.52s.59.4.88.62a9.86,9.86,0,0,1,.79.67,9.32,9.32,0,0,1,.68.68c.21.22.39.44.55.65a9.54,9.54,0,0,1,1,1.48h0a0,0,0,0,1-.07,0s-.5-.47-1.27-1.16a21.66,21.66,0,0,0-3-2.27,19.75,19.75,0,0,0-1.76-1c-.58-.29-1.13-.53-1.6-.73L79.08,46l-.44-.16a0,0,0,0,1,0-.08Z" style="fill: #583821"/>
            <path d="M70.33,45.75l-.5,0a8.9,8.9,0,0,0-1.28.19,10.81,10.81,0,0,0-1.74.53,9.44,9.44,0,0,0-.94.42c-.32.16-.63.34-.94.52s-.59.4-.88.62a9.86,9.86,0,0,0-.79.67,9.32,9.32,0,0,0-.68.68c-.21.22-.39.44-.55.65a9.54,9.54,0,0,0-1,1.48h0a0,0,0,0,0,.07,0s.5-.47,1.27-1.16a21.65,21.65,0,0,1,3-2.27,19.76,19.76,0,0,1,1.76-1c.58-.29,1.13-.53,1.6-.73L69.92,46l.44-.16a0,0,0,0,0,0-.08Z" style="fill: #583821"/>
          </g>
          <path d="M71.53,18.39a24,24,0,0,0-5,.22,15.83,15.83,0,0,0-2.32.51c-.38.1-.74.24-1.1.37s-.7.29-1,.44-.67.34-1,.53-.63.39-.93.6a10.6,10.6,0,0,0-.88.67c-.29.23-.55.49-.83.73s-.53.52-.77.8l-.38.42-.36.44c-.25.28-.46.61-.69.91s-.43.64-.65,1L53.32,23.7c.41-.19.76-.33,1.14-.47l1.11-.41c.75-.26,1.49-.5,2.25-.73a33.1,33.1,0,0,1,4.61-1c.78-.11,1.57-.19,2.37-.23a21.87,21.87,0,0,1,2.4,0,18.33,18.33,0,0,1,2.39.35,15,15,0,0,1,2.32.74L72,22a.88.88,0,0,1-.33,1.69c-.3,0-.66,0-1,.05l-1,.11q-1,.13-2,.34a21.43,21.43,0,0,0-3.91,1.2,14.69,14.69,0,0,0-3.51,2.07c-.26.22-.52.44-.77.68s-.48.49-.71.74a10.24,10.24,0,0,0-.63.82c-.21.28-.37.58-.55.87v0a.18.18,0,0,1-.31-.17c.16-.32.3-.65.49-1a10.77,10.77,0,0,1,.58-.91c.22-.29.43-.59.67-.85s.49-.54.74-.79a15.5,15.5,0,0,1,3.54-2.5,22.69,22.69,0,0,1,4-1.6q1-.31,2.11-.53l1.07-.2c.37-.06.71-.11,1.11-.15l-.27,1.72c-.34-.09-.67-.2-1-.26s-.69-.13-1-.18A16.27,16.27,0,0,0,67.12,23a22.1,22.1,0,0,0-4.24.53,29.32,29.32,0,0,0-4.13,1.26c-.67.26-1.34.54-2,.86l-1,.48c-.31.16-.65.35-.9.5a1.65,1.65,0,0,1-2.34-2.16l.06-.12c.21-.42.41-.84.64-1.25s.47-.82.76-1.21a11.28,11.28,0,0,1,.88-1.14,11.86,11.86,0,0,1,1-1.05A11.64,11.64,0,0,1,57,18.81a14.23,14.23,0,0,1,1.23-.8,13.17,13.17,0,0,1,1.31-.65,13.4,13.4,0,0,1,1.36-.5,13.74,13.74,0,0,1,1.4-.34,11.89,11.89,0,0,1,1.41-.19,11.75,11.75,0,0,1,1.4,0c.46,0,.93,0,1.38.09a15,15,0,0,1,2.67.57,11.55,11.55,0,0,1,1.26.47,9,9,0,0,1,1.2.61.18.18,0,0,1-.11.34Z" style="fill: #ecf0f1;opacity: 0.25"/>
          <polygon points="74.86 126.71 62.22 126.71 74.86 166.42 87.51 126.71 74.86 126.71"/>
          <path d="M86.65,87.85,70.79,173l8,28.58A18.35,18.35,0,0,0,97.48,215l16.05-.95s.35-21.68-9.39-41c-2.22-4.39-2-9.49-.38-14.14,4-11.68,11.56-32.11,11.74-34.63,0,0-5.45-24.89-6-25.65S86.65,87.85,86.65,87.85Z" style="fill: #3f3e37"/>
          <path d="M74.86,148.86s27.56,12.53,38.29-16.84c-1.86,5.66-8.08,22.69-10,28.15-5.84-.24-25.63.74-28.34.6Z" style="fill: #231f20;opacity: 0.2"/>
          <polygon points="86.65 87.85 91.87 90.02 97.35 113.48 87.75 119.42 97.86 116.02 70.79 173 86.65 87.85" style="fill: #58595b"/>
          <path d="M63.08,87.85,78.94,173l-8,28.58A18.35,18.35,0,0,1,52.25,215L36.2,214s-.35-21.68,9.39-41c2.22-4.39,2-9.49.38-14.14-4-11.68-11.56-32.11-11.74-34.63,0,0,6.77-26.22,7.28-27S63.08,87.85,63.08,87.85Z" style="fill: #3f3e37"/>
          <path d="M74.86,148.86S47.3,161.39,36.57,132c1.86,5.66,8.08,22.69,10,28.15,5.84-.24,25.63.74,28.34.6Z" style="fill: #231f20;opacity: 0.2"/>
          <polygon points="63.08 87.85 57.86 90.02 52.37 113.48 61.97 119.42 51.86 116.02 78.94 173 63.08 87.85" style="fill: #58595b"/>
          <path d="M57.86,90S3.34,110.26-1.58,116.66c-3.2,4.16-2.23,14.08,8.17,12.4,7.13-1.15,41-6.5,41-6.5Z" style="fill: #3f3e37"/>
          <path d="M91.87,90s53.79,20.25,58.71,26.65c3.2,4.16,2.23,14.08-8.17,12.4-7.13-1.15-41-6.5-41-6.5Z" style="fill: #3f3e37"/>
        </g>
        <g>
          <path d="M6.59,105.47S40.18,74,40.37,71.1c.27-4,.69-14.58,1-15.84s4.7-19,7.1-18.86-.3,9.87-.72,11.56c-.49,2-.72,10.27-1.17,12.22s.29,21.48-.9,22.44-29.19,32-29.19,32Z" style="fill: #f0d0b4"/>
          <path d="M45.36,82.62S53,78.3,53,72.68,50.24,65,50.09,63.32s.14-9.74-1.2-11.09-1.87-1-2.17,0-.92,9.42-1.36,11.66-.42,1.29-1.58,3.68a10,10,0,0,0-.67,5.28Z" style="fill: #231f20;opacity: 0.15"/>
          <path d="M45.66,82.62s7.64-4.32,7.64-9.93-2.78-9.88-2.93-11.52.35-5.72-.49-7.89c-1.15-2.95-2.57-2.62-2.85-1-.19,1.07-.92,9.42-1.36,11.66s-5.72,8.13-6.87,10.52-5.86,8.31-5.86,8.31l5.42,7Z" style="fill: #f0d0b4"/>
        </g>
        <path d="M23.08,87.24,33.64,98S11.39,127.72,6.59,129.06s-17.82,0-11.4-12.17S23.08,87.24,23.08,87.24Z" style="fill: #494841"/>
        <g>
          <path d="M142.41,105.47S108.82,74,108.63,71.1c-.27-4-.69-14.58-1-15.84s-4.7-19-7.1-18.86.3,9.87.72,11.56c.49,2,.72,10.27,1.17,12.22s-.29,21.48.9,22.44,29.19,32,29.19,32Z" style="fill: #f0d0b4"/>
          <path d="M103.64,82.62S96,78.3,96,72.68s2.76-7.73,2.91-9.37-.14-9.74,1.2-11.09,1.87-1,2.17,0,.92,9.42,1.36,11.66.42,1.29,1.58,3.68a10,10,0,0,1,.67,5.28Z" style="fill: #231f20;opacity: 0.15"/>
          <path d="M103.34,82.62s-7.64-4.32-7.64-9.93,2.78-9.88,2.93-11.52-.35-5.72.49-7.89c1.15-2.95,2.57-2.62,2.85-1,.19,1.07.92,9.42,1.36,11.66s5.72,8.13,6.87,10.52,5.86,8.31,5.86,8.31l-5.42,7Z" style="fill: #f0d0b4"/>
        </g>
        <path d="M125.92,87.24,115.36,98s22.25,29.72,27.06,31.06,17.82,0,11.4-12.17S125.92,87.24,125.92,87.24Z" style="fill: #494841"/>
      </g>
    </g>
  </g>
</svg>
