<svg id="Layer_1" data-name="Layer 1" xmlns="http://www.w3.org/2000/svg" xmlns:xlink="http://www.w3.org/1999/xlink" width="149" height="149" viewBox="0 0 149 149">
  <defs>
    <clipPath id="clip-path">
      <circle cx="74.5" cy="74.5" r="74.5" style="fill: none"/>
    </clipPath>
    <linearGradient id="linear-gradient" x1="79.54" y1="162.53" x2="83.96" y2="106.02" gradientUnits="userSpaceOnUse">
      <stop offset="0" stop-color="#efb58c"/>
      <stop offset="0" stop-color="#efb58c"/>
      <stop offset="0.54" stop-color="#e1b186"/>
      <stop offset="1" stop-color="#dcb084"/>
    </linearGradient>
  </defs>
  <title>lowGlucose</title>
  <g>
    <circle cx="74.5" cy="74.5" r="74.5" style="fill: #ecedf0"/>
    <g style="clip-path: url(#clip-path)">
      <g>
        <path d="M88.83,80.72c-3.84,3.45-9.55,3.34-12.78-.24L40.71,41c-3.22-3.58-4.34-10.54-.51-14h0c3.84-3.45,11.19-2.08,14.4,1.5L89.94,68c3.22,3.58,2.72,9.28-1.11,12.73Z" style="fill: #f3c6a6"/>
        <path d="M110.71,110.44a76.6,76.6,0,0,1-9.45-19.5l-26-10.39L45.76,123.78,58.24,143.1S73.13,166.65,94,163.41l9.26,21.12h11.33C95.37,130.13,110.71,110.44,110.71,110.44Z" style="fill: url(#linear-gradient)"/>
        <path d="M80.92,27.17c-12.44,0-22.52,4.73-22.52,10.56v66.39c0,2.35,1.15,4.26,2.58,4.26h39.89c1.42,0,2.58-1.91,2.58-4.26V37.73C103.44,31.89,93.36,27.17,80.92,27.17Z" style="fill: #3d4c64"/>
        <path d="M80.92,27.17a46,46,0,0,0-7.63.62,7.64,7.64,0,0,0,15.2,0A46,46,0,0,0,80.92,27.17Z" style="fill: #a7a9ac"/>
        <rect x="76.23" y="5" width="9.38" height="25.11" style="fill: #fff"/>
        <rect x="79.14" y="5.72" width="3.56" height="6.38" style="fill: #cf564d"/>
        <path d="M97,74.67a1.88,1.88,0,0,0,1.62-2.06V44A1.87,1.87,0,0,0,97,42H64.86A1.87,1.87,0,0,0,63.25,44V72.61a1.88,1.88,0,0,0,1.61,2.06Z" style="fill: #25b6d1"/>
        <path d="M97,40.43H64.86A3.42,3.42,0,0,0,61.69,44V72.61a3.42,3.42,0,0,0,3.17,3.61H97a3.42,3.42,0,0,0,3.18-3.61V44A3.42,3.42,0,0,0,97,40.43ZM97,72.61a.81.81,0,0,1-.15.5H65a.82.82,0,0,1-.15-.5V44a.79.79,0,0,1,.14-.5H96.89A.81.81,0,0,1,97,44Z" style="fill: #ecc135"/>
        <circle cx="80.92" cy="92.19" r="9.76" style="fill: #5bc4bf"/>
        <path d="M80.92,85.92A1.88,1.88,0,0,0,79,87.8v8.58a1.88,1.88,0,0,0,3.76,0V87.8A1.88,1.88,0,0,0,80.92,85.92Z" style="fill: #fff"/>
        <path d="M140,184.38l-14.5-33.56c14.83-15.44,3.58-41.31,3.58-41.31l-23-54.3c-9.5,1.47-13.4,10.75-12,19.08,3.34,17.15,9.47,26.91,9.47,26.91s-22.63,13.51-4.21,55c0,0,5.62,12.33,12.52,28.19Z" style="fill: #f3c6a6"/>
        <path d="M101.79,56.56c.07,1.79,3.83,13.86,10.25,12.69l-6-14.05A14.47,14.47,0,0,0,101.79,56.56Z" style="fill: #f6d8c2"/>
        <g>
          <path d="M72.18,86.11c-2.16,5.3-7.91,8-12.87,6L36.88,83c-5-2-7.23-7.94-5.08-13.24h0c2.15-5.31,7.91-8,12.86-6L67.1,72.87c5,2,7.23,7.94,5.08,13.25Z" style="fill: #f3c6a6"/>
          <path d="M63.48,89.39l4.83-11.92c-.3-.14-.6-.27-.9-.39-6.07-2.44-12.07-1.73-13.4,1.58s2.51,8,8.58,10.41C62.89,89.19,63.18,89.29,63.48,89.39Z" style="fill: #f6d8c2"/>
        </g>
        <g>
          <path d="M63.43,109c-3.46,4.36-9.56,5.27-13.63,2L31.4,96.46c-4.07-3.23-4.56-9.38-1.1-13.73h0c3.46-4.35,9.56-5.27,13.63-2l18.4,14.62c4.07,3.23,4.56,9.38,1.1,13.73Z" style="fill: #f3c6a6"/>
          <path d="M54.42,109.71l7.77-9.79c-.24-.21-.48-.42-.73-.61-5-3.93-10.77-4.92-12.92-2.2s.15,8.12,5.14,12.05Z" style="fill: #f6d8c2"/>
        </g>
        <g>
          <path d="M64.66,119.14A8.31,8.31,0,0,1,56.93,128l-20,.63a8.31,8.31,0,0,1-8.28-8.32h0c-.15-4.74,3.31-8.7,7.74-8.84l20-.64c4.42-.14,8.13,3.58,8.28,8.33Z" style="fill: #f3c6a6"/>
          <path d="M59.18,124.54l-.34-10.65H58c-5.41.19-9.71,2.73-9.61,5.69s4.57,5.19,10,5C58.66,124.58,58.92,124.56,59.18,124.54Z" style="fill: #f6d8c2"/>
        </g>
      </g>
    </g>
  </g>
  <g>
    <polygon points="78.4 49.76 83.43 49.76 84.63 50.96 83.42 52.16 78.4 52.16 77.23 50.96 78.4 49.76" style="fill: #3d4c64"/>
    <polygon points="78.4 57.54 83.43 57.54 84.63 58.74 83.43 59.95 78.4 59.95 77.2 58.74 78.4 57.54" style="fill: #3d4c64"/>
    <polygon points="86.01 52.35 86.01 57.36 84.8 58.57 83.6 57.36 83.6 52.36 84.81 51.15 86.01 52.35" style="fill: #3d4c64"/>
    <polygon points="78.35 65.35 83.43 65.35 84.63 66.55 83.43 67.76 78.35 67.76 77.15 66.55 78.35 65.35" style="fill: #3d4c64"/>
    <polygon points="78.19 60.16 78.19 65.17 76.97 66.38 75.78 65.17 75.78 60.17 76.98 58.96 78.19 60.16" style="fill: #3d4c64"/>
  </g>
</svg>
