<svg id="Layer_1" data-name="Layer 1" xmlns="http://www.w3.org/2000/svg" xmlns:xlink="http://www.w3.org/1999/xlink" width="149" height="149" viewBox="0 0 149 149">
  <defs>
    <linearGradient id="linear-gradient" x1="33.54" y1="73.43" x2="62.03" y2="73.43" gradientUnits="userSpaceOnUse">
      <stop offset="0" stop-color="#25b6d1"/>
      <stop offset="1" stop-color="#ea5e65"/>
    </linearGradient>
    <clipPath id="clip-path">
      <circle cx="67.3" cy="265.18" r="74.5" style="fill: none"/>
    </clipPath>
  </defs>
  <title>lowPressure</title>
  <circle cx="74.5" cy="74.5" r="74.5" style="fill: #ecedf0"/>
  <g>
    <path d="M98.47,60.66h15.65A11.88,11.88,0,0,1,126,72.54h0a11.88,11.88,0,0,1-11.88,11.88h-9.55a11.7,11.7,0,0,0-11.7,11.7v13.12" style="fill: none;stroke: #000;stroke-miterlimit: 10;stroke-width: 3.06319px"/>
    <ellipse cx="92.87" cy="121.19" rx="13.31" ry="17.22" style="fill: #ccc"/>
    <path d="M98.14,105.38a20.13,20.13,0,0,1,3.55,11.68c0,9.51-6,17.22-13.31,17.22a10.74,10.74,0,0,1-5.27-1.41c2.43,3.4,5.9,5.54,9.76,5.54,7.35,0,13.31-7.71,13.31-17.22C106.18,114.1,102.87,108,98.14,105.38Z" style="opacity: 0.1"/>
    <rect x="89.19" y="99.33" width="7.41" height="5.33" style="fill: #ccc"/>
    <path d="M91.14,16.21a22.69,22.69,0,0,0-18.77,9.93A22.71,22.71,0,0,0,30.89,38.93c0,29.13,41.49,58.24,41.49,58.24s41.49-33,41.49-58.24A22.72,22.72,0,0,0,91.14,16.21Z" style="fill: #ea5e65"/>
    <g>
      <circle cx="47.78" cy="79.79" r="20.26" style="fill: #fff;stroke: #000;stroke-miterlimit: 10;stroke-width: 3.06319px"/>
      <path d="M35.07,79.79a12.71,12.71,0,1,1,25.42,0s0,.09,0,.14" style="fill: none;stroke-miterlimit: 10;stroke-width: 3.06319px;stroke: url(#linear-gradient)"/>
      <g>
        <circle cx="47.22" cy="79.93" r="3.49" transform="translate(-36.75 119.53) rotate(-84.67)"/>
        <path d="M47.39,78.63l-1.06,3-12.14-5.5a.43.43,0,0,1,.28-.81Z"/>
      </g>
    </g>
  </g>
  <g style="clip-path: url(#clip-path)">
    <path d="M55.59,168s26.29,3.62,31.83-5.17c3.85-6.1-.82-15.39-8.09-18.81L78,149.66l-1.49-3.3L74.58,150l-2.51-2S53.16,150.78,50,157.13c-8,16.11,1.54,27.85,1.69,28.34C56.66,175.55,55,175.39,55.59,168Z" style="fill: #c86e00"/>
  </g>
</svg>
