<svg id="Layer_1" data-name="Layer 1" xmlns="http://www.w3.org/2000/svg" width="149" height="149" viewBox="0 0 149 149">
  <title>moon</title>
  <circle cx="74.5" cy="74.5" r="74.5" style="fill: #ecedf0"/>
  <g id="Moon">
    <circle cx="74.5" cy="74.5" r="56.89" transform="translate(-30.86 74.5) rotate(-45)" style="fill: #fae4a8"/>
    <circle cx="84.62" cy="108.83" r="7.37" transform="translate(-52.17 91.71) rotate(-45)" style="fill: #e8cd8c"/>
    <path d="M89.32,129.38A56.15,56.15,0,0,1,55,103,14.76,14.76,0,0,0,57,101.32,14.84,14.84,0,0,0,47.32,76a57,57,0,0,1,.35-8,18.7,18.7,0,0,0,16.11-33.5l.12-.14A56.53,56.53,0,0,1,89.32,19.62a56.86,56.86,0,1,0,0,109.76ZM45.8,42.29a11.19,11.19,0,0,1,13-2,11,11,0,0,1,2.89,2,11.23,11.23,0,1,1-15.88,0ZM41.3,85.57A7.37,7.37,0,0,1,51.72,96c-.06.06-.13.1-.19.16A7.36,7.36,0,0,1,41.3,85.57Z" style="fill: #e8cd8c"/>
    <circle cx="54.7" cy="118.07" r="4.83" transform="translate(-67.47 73.27) rotate(-45)" style="fill: #fae4a8"/>
    <circle cx="86.9" cy="34.6" r="5.16" transform="translate(0.99 71.59) rotate(-45.01)" style="fill: #e8cd8c"/>
    <g>
      <ellipse cx="114.5" cy="68.34" rx="4.26" ry="5.36" style="fill: #484c54"/>
      <path d="M101.27,81.68c5.76,0,11.06,2.1,13.82,5.48a2.43,2.43,0,0,1-3.76,3.07c-1.83-2.24-5.78-3.69-10.06-3.69S93,88,91.21,90.24a2.43,2.43,0,1,1-3.76-3.08C90.21,83.78,95.5,81.68,101.27,81.68Z" style="fill: #484c54"/>
      <ellipse cx="88.04" cy="68.34" rx="4.31" ry="5.41" style="fill: #484c54"/>
    </g>
  </g>
</svg>
