<svg id="Layer_1" data-name="Layer 1" xmlns="http://www.w3.org/2000/svg" xmlns:xlink="http://www.w3.org/1999/xlink" width="149" height="149" viewBox="0 0 149 149">
  <defs>
    <clipPath id="clip-path">
      <circle cx="74.5" cy="74.5" r="74.5" style="fill: none"/>
    </clipPath>
  </defs>
  <title>muscleWasting</title>
  <circle cx="74.5" cy="74.5" r="74.5" style="fill: #ecedf0"/>
  <g style="clip-path: url(#clip-path)">
    <g>
      <g>
        <path d="M112.93,79.93s-2.93.69.2,3.28a11,11,0,0,0,6.47,2.57S115.06,78.21,112.93,79.93Z" style="fill: #f4c490"/>
        <path d="M125.39,74s-.07-3.2-3.48-1.55c0,0-2.19-1.81-5,1,0,0-.66-1.51-2.53-.2s-3.26,2.35-2.66,4.36,2.08,4,2.87,3.86l1.25-.17s.35,2.09,1.31,1.86c0,0,2.44,6,7.71,4.67s2.9-11.08,2.9-11.08Z" style="fill: #f4c490"/>
        <path d="M134.81,86.67s-4.17-17.51-9.52-13.43S120,76.69,119.05,78s.7,5.75,1.19,6,3.93.84,4.15.43,1.41-4.71,1.41-4.71a1.36,1.36,0,0,0-1.88.57l-.66,1.23a4.1,4.1,0,0,0-.89-2.27s2.56.32,3.43-.9c0,0-2.39,5.1-1.55,9.17.09.45.28,3.2,5.65,2.41S134.81,86.67,134.81,86.67Z" style="fill: #ffdcae"/>
        <path d="M121.32,73a13.79,13.79,0,0,0-3,2.36,3.8,3.8,0,0,0-.88,1.53,2.17,2.17,0,0,0,0,.84c0,.32.06.65.08,1,0,.65,0,1.31,0,2s-.05,1.31-.11,1.95l0,.48v.06h0s0,0,0,0v0a.24.24,0,0,0,0,.05.42.42,0,0,0,.06.13,1.42,1.42,0,0,0,.7.43,2.14,2.14,0,0,0,.9.11.81.81,0,0,0,.41-.15.49.49,0,0,0,.18-.41.55.55,0,0,1-.1.48,1,1,0,0,1-.45.27,2.3,2.3,0,0,1-1,0,1.8,1.8,0,0,1-1-.47.86.86,0,0,1-.18-.28.76.76,0,0,1,0-.19v-.63c0-1.3,0-2.57-.09-3.85,0-.32,0-.64-.06-1a2.71,2.71,0,0,1,.09-1.09A4.08,4.08,0,0,1,117.91,75,9.19,9.19,0,0,1,121.32,73Z" style="fill: #ffdcae"/>
        <path d="M116.86,73.44a16.61,16.61,0,0,0-1.95,2.27,3.25,3.25,0,0,0-.54,1.24,1.18,1.18,0,0,0,.06.59,5.92,5.92,0,0,0,.25.67,11.53,11.53,0,0,0,.66,1.31A7.14,7.14,0,0,1,116,81a2.13,2.13,0,0,1,0,.22l0,.19a2.94,2.94,0,0,0,.07.33,3.15,3.15,0,0,0,.27.66,3.66,3.66,0,0,0,.93,1.15,3,3,0,0,1-1.23-.95,3.44,3.44,0,0,1-.42-.69,2.43,2.43,0,0,1-.14-.4l0-.18-.05-.15a9.17,9.17,0,0,0-.73-1.25A10.72,10.72,0,0,1,114,78.5a6.64,6.64,0,0,1-.26-.76,2.14,2.14,0,0,1-.08-.44,1.72,1.72,0,0,1,0-.46,3.46,3.46,0,0,1,.77-1.47A8.27,8.27,0,0,1,116.86,73.44Z" style="fill: #ffdcae"/>
      </g>
      <path d="M91.73,111.64s24.45,3.38,34,1c0,0,4.69-16.74.53-27.11,0,0,5-8.09,8.23.67s4.2,26.87,2.75,34.88c0,0-34.6,6.1-47.24,2.13S91.73,111.64,91.73,111.64Z" style="fill: #ffdcae"/>
      <path d="M81,108.72l13.47,2.82S90.39,122.2,93,126.22c0,0-12.89-2.4-15.5-.92S81,108.72,81,108.72Z" style="fill: #0f6aa8"/>
      <g>
        <path d="M19.79,42.17S12,56.06,11.61,68.82s-.19,17.09-8.11,19c0,0,15.52,6,23.58-5.69S19.79,42.17,19.79,42.17Z" style="fill: #d35400"/>
        <path d="M100.6,47.08c-3.31-18.6-35.66-26.14-59.13-21.85S23.24,43.45,22.65,47.71c0,0-6.08,2.39-6.7,7.91s6.64,7.43,6.64,7.43.06-.44,0,.09c1.66,3.71-2.23,25-11.58,34.16,0,0,13.87,8.17,12.64,7.57,5,5,23.92,9.7,50.12,2.22C97.82,100.25,95,71.85,95,71.85S101.82,53.91,100.6,47.08Z" style="fill: #ffe5c2"/>
        <path d="M22.39,60a15.23,15.23,0,0,1-.54-1.87c-.14-.61-.26-1.2-.41-1.77a5.48,5.48,0,0,0-.56-1.51,1.18,1.18,0,0,0-.51-.47,2.14,2.14,0,0,0-.89-.14,1.53,1.53,0,0,1,1-.47,1.62,1.62,0,0,1,1.15.4,3.57,3.57,0,0,1,1.06,1.89,6.63,6.63,0,0,1,.17,2A5.7,5.7,0,0,1,22.39,60Z" style="fill: #f4c490"/>
        <path d="M51.28,18.66s27-12.47,46.55-2.86,18.38,21,24,22.89,10.36-2.92,11.88-7.79c0,0,1.72,24.06-33,24.9s-48.27-16.42-51.17-27c0,0-22.06,21.6-13.76,52.39A21.75,21.75,0,0,0,30,78s1-42.38-11.82-27.21c0,0,2.17-24,14.45-30.79S51.28,18.66,51.28,18.66Z" style="fill: #d35400"/>
        <path d="M49.39,25.46a29,29,0,0,0-4.33.85A26.13,26.13,0,0,0,41,27.76a20.32,20.32,0,0,0-6.81,4.9,22.1,22.1,0,0,0-4.26,7.27,46,46,0,0,0-2.07,8.51,24.75,24.75,0,0,1,.57-9,19.22,19.22,0,0,1,4.28-8.14,18.14,18.14,0,0,1,7.72-5,20.65,20.65,0,0,1,4.46-1A17.11,17.11,0,0,1,49.39,25.46Z" style="fill: #f39943"/>
        <path d="M43.64,24a21,21,0,0,0-6.57,1.26,14.68,14.68,0,0,0-5.49,3.52,15.4,15.4,0,0,0-3.39,5.59,29.61,29.61,0,0,0-1.42,6.57,19.86,19.86,0,0,1,.68-6.81,15.5,15.5,0,0,1,1.33-3.22,13.93,13.93,0,0,1,2.09-2.82,13.65,13.65,0,0,1,2.76-2.17,14.47,14.47,0,0,1,3.2-1.39A15.75,15.75,0,0,1,43.64,24Z" style="fill: #f39943"/>
        <path d="M56.28,19.65a46.72,46.72,0,0,1,7.06-2.09,60.59,60.59,0,0,1,7.3-1.12,58.59,58.59,0,0,1,7.4-.22,55.79,55.79,0,0,1,7.38.77,50,50,0,0,1,7.2,1.85,43.75,43.75,0,0,1,6.8,3,40.45,40.45,0,0,1,11.43,9.26,51.42,51.42,0,0,0-12-8.22,49.16,49.16,0,0,0-6.71-2.69,51.2,51.2,0,0,0-7-1.72A57.88,57.88,0,0,0,78,17.64a70.26,70.26,0,0,0-7.26,0c-2.42.12-4.84.34-7.25.68A68.74,68.74,0,0,0,56.28,19.65Z" style="fill: #c0392b"/>
        <g>
          <path d="M90.35,53.59c-3-2.46-6-2.78-9.6-4a41.22,41.22,0,0,1-9.47-5.13c-3.09-2.11-5.75-4.79-8.79-6.93-1.56-1.1-3.14-2.11-4.59-3.3A143.84,143.84,0,0,1,26,24.79s-2.26-2-3.94,3.07-6,14.28-2.12,15c0,0,26.08,11,71.5,11.64C91.1,54.18,90.72,53.9,90.35,53.59Z" style="fill: #f1f2f2"/>
          <path d="M71.28,44.42c-1.58-1.08-3.05-2.31-4.52-3.54-24.17-3-40.7-8.95-45.55-10.87-.58,1.81-1.2,3.87-1.68,5.81,6.71,2.66,27.62,10,57.72,12.22A52.8,52.8,0,0,1,71.28,44.42Z" style="fill: #1c75bc"/>
        </g>
        <path d="M49.45,28.77S57.08,55.61,96,55.7C96,55.7,70.7,19.68,49.45,28.77Z" style="fill: #d35400"/>
        <path d="M52.11,28.26a79.9,79.9,0,0,0,6.57,6.34,89.65,89.65,0,0,0,7.16,5.61A78.26,78.26,0,0,0,73.54,45a63.8,63.8,0,0,0,8.22,3.77,55,55,0,0,0,8.66,2.52,51.68,51.68,0,0,0,9,1,55,55,0,0,0,17.92-2.6,46.49,46.49,0,0,1-17.94,3.77,48,48,0,0,1-9.23-.82,54.5,54.5,0,0,1-8.92-2.51,62.41,62.41,0,0,1-8.37-3.94,68.65,68.65,0,0,1-7.7-5.09,73.57,73.57,0,0,1-7-6A59.09,59.09,0,0,1,52.11,28.26Z" style="fill: #f39943"/>
        <path d="M54.34,27.36a58,58,0,0,0,5.16,5.27,70.25,70.25,0,0,0,5.66,4.7,72.58,72.58,0,0,0,12.55,7.59,65.55,65.55,0,0,0,13.87,4.75,60.32,60.32,0,0,0,7.26,1.16,69,69,0,0,0,7.37.37,56.34,56.34,0,0,1-7.41.12,59.76,59.76,0,0,1-7.38-.89,58.18,58.18,0,0,1-14.14-4.6,63.56,63.56,0,0,1-12.6-7.89,68.85,68.85,0,0,1-5.53-5q-1.3-1.33-2.52-2.73A35.42,35.42,0,0,1,54.34,27.36Z" style="fill: #f39943"/>
      </g>
      <g>
        <path d="M66.12,75s1.28,2,5.79,2.12c3.89.08,4.12-1.55,4.12-1.55s.2,3.4-4.86,3C65.46,78.18,66.12,75,66.12,75Z" style="fill: #916a43"/>
        <path d="M49.93,89.92s-.29-1,2.16-2,20.59-4.85,32,1.19c0,0,2.34,1.05,2.73,2.48,0,0-.33-6.51-16.32-7.41C53.31,83.22,48.68,89.42,49.93,89.92Z" style="fill: #916a43"/>
        <path d="M61.41,96.06a27.39,27.39,0,0,0,3.41.95,22.76,22.76,0,0,0,3.34.45,26.61,26.61,0,0,0,3.38,0c1.15-.07,2.31-.22,3.56-.32a9.29,9.29,0,0,1-3.3,1.74,10.76,10.76,0,0,1-3.76.44,10.31,10.31,0,0,1-3.68-.92A7.44,7.44,0,0,1,61.41,96.06Z" style="fill: #f4c490"/>
        <path d="M72,65.4l.31,2.26c.1.72.22,1.43.36,2.13s.29,1.4.47,2.11.38,1.43.55,2.22a5.76,5.76,0,0,1-1.55-1.82,7.56,7.56,0,0,1-.82-2.25,7.68,7.68,0,0,1-.09-2.39A5.37,5.37,0,0,1,72,65.4Z" style="fill: #f4c490"/>
        <g>
          <path d="M87.34,64.76s3.28.85,3.56,2.7-3.61,2.4-5.43,2.23-6.83-4.85-.93-5.28Z" style="fill: #fff"/>
          <path d="M78.67,61.43s3.43-3.88,11-2.11,7.92,4.51,7.92,4.51-.66.78-2.48-.16-8.18-4-12.24-3S78.67,61.43,78.67,61.43Z" style="fill: #d35400"/>
          <path d="M81,64.58s3.94-2.44,12,1.55C93,66.13,84.64,64.22,81,64.58Z" style="fill: #726658"/>
          <path d="M91.52,68.47s-5.64,3.08-10.3-1.27a6,6,0,0,0,5.06,3.31C90.19,70.93,91.52,68.47,91.52,68.47Z" style="fill: #726658"/>
          <path d="M88.89,65.15a2.43,2.43,0,0,1,2,2.55c-.24,2.07-1.6,2.74-3.61,1.62S86.52,64.29,88.89,65.15Z" style="fill: #34495e"/>
          <path d="M88.77,66.47s1.65,1.42.65,1.92a1.41,1.41,0,0,1-1.93-.93C87.24,66.86,88.06,66.37,88.77,66.47Z" style="fill: #231f20"/>
          <path d="M89.69,66.28c.14.33.24,1.67-.69,1.29s-.51-1.1-.25-1.47S89.57,66,89.69,66.28Z" style="fill: #fff"/>
        </g>
        <g>
          <path d="M55.81,61.61s-3.38.18-4,1.94,3.06,3.06,4.88,3.26,7.66-3.41,2-5Z" style="fill: #fff"/>
          <path d="M65.11,59.53s-2.82-4.35-10.55-3.72-8.5,3.29-8.5,3.29.54.86,2.47.22,8.68-2.74,12.55-1.14S65.11,59.53,65.11,59.53Z" style="fill: #d35400"/>
          <path d="M62.35,62.31s-3.53-3-12.09-.24C50.26,62.06,58.79,61.41,62.35,62.31Z" style="fill: #726658"/>
          <path d="M51.36,64.59s5.12,3.88,10.37.27a6,6,0,0,1-5.49,2.52C52.3,67.22,51.36,64.59,51.36,64.59Z" style="fill: #726658"/>
          <path d="M58.74,61.53A2.64,2.64,0,0,0,56.31,64c-.11,2.25,1.16,3.15,3.39,2.23S61.3,60.94,58.74,61.53Z" style="fill: #34495e"/>
          <path d="M58.65,63s-1.91,1.28-1,2,1.76-.12,2.11-.72S59.39,62.94,58.65,63Z" style="fill: #231f20"/>
          <path d="M57.75,62.63c-.2.33-.52,1.75.48,1.48s.7-1.1.5-1.54S57.91,62.35,57.75,62.63Z" style="fill: #fff"/>
        </g>
        <ellipse cx="53.31" cy="73.17" rx="9.33" ry="4.4" transform="translate(-2.25 1.69) rotate(-1.78)" style="fill: #f9bea5"/>
      </g>
      <path d="M22.62,63.14S27.9,87.07,15,89.38,22.62,63.14,22.62,63.14Z" style="fill: #d35400"/>
      <path d="M95.14,75.13a14.26,14.26,0,0,0-6.39-2.86c-4.69-.94-8.75.14-9.08,2.41s3.23,4.88,7.92,5.83a12.56,12.56,0,0,0,7.2-.36A46.9,46.9,0,0,0,95.14,75.13Z" style="fill: #f9bea5"/>
      <path d="M65.4,88.14a8.63,8.63,0,0,1,2.32-.73,11.8,11.8,0,0,1,2.41-.18,9,9,0,0,1,2.43.39,5.11,5.11,0,0,1,1.16.52,2.39,2.39,0,0,1,.89.91,4.24,4.24,0,0,0-1.13-.28c-.37,0-.74-.07-1.12-.09-.75,0-1.5,0-2.27-.07s-1.53-.06-2.31-.12A16.51,16.51,0,0,1,65.4,88.14Z" style="fill: #f4c490"/>
      <path d="M82.41,166.35c1.71-15.67-8.8-30.37-8.8-30.37a47.52,47.52,0,0,0,8.78-32.92c-35.49,9-67.66-10.15-67.66-10.15C-2,105.31-4.61,164.78-4.61,164.78c3.94,1.79,7.76,3.35,11.46,4.72a38.36,38.36,0,0,1,2.76-6.79,37.66,37.66,0,0,0,1.69,8.38C59.73,187.49,85.62,170,85.62,170A4.8,4.8,0,0,1,82.41,166.35Z" style="fill: #1c75bc"/>
      <path d="M43.11,142.81a15.51,15.51,0,0,1,3.1-2.62,26.2,26.2,0,0,1,3.57-2,34.76,34.76,0,0,1,7.76-2.44,40.79,40.79,0,0,1,8.06-.73,35.93,35.93,0,0,1,8,.92c-2.67.35-5.3.6-7.9.93s-5.17.71-7.72,1.2A73.81,73.81,0,0,0,50.44,140q-1.86.56-3.7,1.26A34,34,0,0,0,43.11,142.81Z" style="fill: #0f6aa8"/>
      <path d="M14.73,92.91c-.27.2-.54.42-.81.65,6.87,5.14,31.91,21,68.67,11.59-.08-1.32-.2-2.08-.2-2.08C46.9,112.08,14.73,92.91,14.73,92.91Z" style="fill: #4a9ed8"/>
      <path d="M19.07,133s2.46,60.82,1.45,73.17S26.07,210.63,27,205s6.79-61.09,2.83-72S19.07,133,19.07,133Z" style="fill: #ffe5c2"/>
      <path d="M14.25,137.61s15.08-3.36,19.49-2.59S23.94,114.62,14.25,137.61Z" style="fill: #1c75bc"/>
      <path d="M14.87,129.28c.4,1.31.72,2.64,1,4,.12.68.23,1.36.3,2.06a9.88,9.88,0,0,1,.05,1.08,4.45,4.45,0,0,1,0,.59,1.82,1.82,0,0,1-.26.73l-.63-1q4.54-1,9.11-1.8c1.53-.27,3.06-.5,4.6-.71.77-.1,1.55-.2,2.33-.28.39,0,.79-.07,1.2-.1l.64,0h.36a2.51,2.51,0,0,1,.53.08l-1.49,1c.13-2.35.17-4.78.12-7.17a67.45,67.45,0,0,0-.5-7.15,26.84,26.84,0,0,0-1.68-6.86,9.27,9.27,0,0,0-1.85-2.92,5.67,5.67,0,0,0-3.08-1.65,5.34,5.34,0,0,1,1.84.25,6.14,6.14,0,0,1,1.69.88,9.72,9.72,0,0,1,2.48,2.9,23.67,23.67,0,0,1,2.48,7.08,50.09,50.09,0,0,1,.89,7.38,64.78,64.78,0,0,1,0,7.42l-.09,1.38-1.4-.33c.08,0,0,0,0,0h-.74l-1.11.07c-.75.06-1.51.14-2.27.22l-4.58.51c-3.06.35-6.13.71-9.2,1h0l-.66-1a.52.52,0,0,0,.1-.22,3.45,3.45,0,0,0,.09-.42,8.83,8.83,0,0,0,.08-1c0-.66,0-1.33,0-2C15.07,132,15,130.64,14.87,129.28Z" style="fill: #0f6aa8"/>
    </g>
  </g>
</svg>
