<svg id="Layer_1" data-name="Layer 1" xmlns="http://www.w3.org/2000/svg" xmlns:xlink="http://www.w3.org/1999/xlink" width="149" height="149" viewBox="0 0 149 149">
  <defs>
    <clipPath id="clip-path">
      <circle cx="74.5" cy="74.5" r="74.5" style="fill: none"/>
    </clipPath>
    <clipPath id="clip-path-2">
      <circle cx="86.44" cy="290.89" r="74.5" style="fill: none"/>
    </clipPath>
  </defs>
  <title>obesity</title>
  <circle cx="74.5" cy="74.5" r="74.5" style="fill: #ecedf0"/>
  <g style="clip-path: url(#clip-path)">
    <g>
      <path d="M113.75,91a9.32,9.32,0,0,0-2.07-2.76,4.72,4.72,0,0,0-1.49-1,1.75,1.75,0,0,0-1.33.07C108,86,104.7,80.09,104,80c0,0-2.56,4.15-2.84,4.9-1.53,4-.3,6.73,1.28,10.55a5.63,5.63,0,0,0,1.07,1.86c1,1,2.77,1.67,4,.93a34.75,34.75,0,0,0,6-4.82A1.71,1.71,0,0,0,113.75,91Z" style="fill: #f6ba88"/>
      <path d="M108.8,87.31a18,18,0,0,1,3,4.32,1.49,1.49,0,0,0,.49-.21.52.52,0,0,0,.23-.46.77.77,0,0,0-.33-.46l-2.08-1.75" style="fill: #eda672"/>
      <path d="M76.11,146.82s3.33,6.16,3.42,7.37-3.42,7.94-3.42,13c0,12.7,15.63,46.08,16.6,47s9.57,2.91,9.45-2.8,7.7-63.92,7.7-63.92Z" style="fill: #eda672"/>
      <path d="M81.8,136.62s-2,13.78-1.75,16.74,1.9,6.16,1.75,15.21c-.07,4.25-10.93,45.14-10.93,45.14a4.36,4.36,0,0,1-3.66,2.09,46.49,46.49,0,0,1-7-1c-3-12.94-13.34-31.49-14.11-46.71-.22-4.44,2.86-7.87,2.54-10.87-.93-8.8-2.67-13-2.53-17.13Z" style="fill: #f6ba88"/>
      <path d="M39.33,84c-4.11,4.33-5.77,13.61-6.49,17.78-2.1,12.27,10.75,40,15,51.91,1.63,2.11,29.17,1.7,32.2-2.41,0,0,26.13,2.18,30.07-2,2.37-10,21-37.27,14.59-66Z" style="fill: #449393"/>
      <path d="M106,15.53c-2.41-1.31-6.13-4.92-10.66-3.21-1,6.57.29,40.32,7.22,37,.35,4.57,8,13,10.33,17,0,0-7.71-.23-11.52,15.89-2,7.91,13.54,16.82,15.19,17.77,16.37-17.59,13.19-28.86,11.81-36.2C127.41,58.49,123.58,25.05,106,15.53Z" style="fill: #f6ba88"/>
      <path d="M33.88,99.13s10.62,9.69,32.28,12c19.7,2.12,54.54-1.24,59.93-9.61,5.62-8.73,2.78-18.84,0-23.9.29.53-93.56,12.91-91.33,5.36C33.9,85.86,33.88,99.13,33.88,99.13Z" style="fill: #f6ba88"/>
      <path d="M55.79,10.73s4.82,30.48,25.6,29.78c17.69-.59,15.51-29.28,15.51-29.28l-2.71-.54-1.4-5.52-33-7.91L59.06,9.63Z" style="fill: #f6ba88"/>
      <path d="M45.73,45.43,32.84,95.19c24.21,11,91.63-1.21,95.29-12.89,0,0-.73-9.45-9.76-20.49,9.76-6-1.44-18.54-7.72-25.07-4.33-4.5-5.86-18.86-9.63-24.68l-6.83-1.37s2.91,15-9.45,15.4C71.21,26.54,59.06,9.63,59.06,9.63c-5,1.55-16.29,5.42-16,6.84C48.82,44.83,45.73,45.43,45.73,45.43Z" style="fill: #b2442b"/>
      <path d="M58-13.37C58,.15,61.51,4.07,65.91,7.48,73,13,84.73,11.72,89.55,9.24c7-3.6,12-12,6.45-20.93-1.36-2.21-3.61-3.67-3.85-4.61C88.76-29.3,85.93-35.36,81-37.61A14.1,14.1,0,0,0,75.47-39C71.59-39,58-35.57,58-13.37Z" style="fill: #f6ba88"/>
      <path d="M20.48,111a2.22,2.22,0,0,0-.06,2,1.47,1.47,0,0,0,1.88.3,3.77,3.77,0,0,0,1.35-1.55c1.27-2.24,2.12-4.88,1.52-7.39A2.69,2.69,0,0,0,23.28,103Z" style="fill: #eda672"/>
      <path d="M33.44,102.07a12.66,12.66,0,0,1-7.49,18.85,3.7,3.7,0,0,1-3.42-.32c-1.11-1-.94-2.68-.68-4.12l1.41-7.74c.2-1.12-.39-2.34-.4-3.49a5.38,5.38,0,0,1,.9-3.25,6.39,6.39,0,0,1,3.93-2.18,3.23,3.23,0,0,1,1.75,0c.77.27,1.25,1,1.85,1.58S32.82,102.6,33.44,102.07Z" style="fill: #f6ba88"/>
      <path d="M61.43-.33c5.38-3.18,11.32-6.3,17.62-4.94,4.6,1,8.75,3.19,13.28,4.43,1.11.3,4.95.48,5.15,1.56.88,4.62-2.79,11.75-11,12.85C75.48,15,63.5,10.18,61.43-.33Z" style="fill: #f6ba88"/>
      <path d="M43.06,16.47c8.76,4.58,15.42,35.71,7.27,35-1.11,7.47-12.93,30.35-16.92,51.5,4.2,7.89-8.19-1.28-9.58,0C17.1,89.22,20.19,66.52,20.46,65,23.23,50.27,23.38,24.68,43.06,16.47Z" style="fill: #f6ba88"/>
      <path d="M79.2,150.32a115.89,115.89,0,0,0,16.45-25.55" style="fill: none;stroke: #2a7270;stroke-linecap: round;stroke-linejoin: round;stroke-width: 1.09732px"/>
      <path d="M95.65,125.26A18.44,18.44,0,0,0,109.41,118" style="fill: none;stroke: #2a7270;stroke-linecap: round;stroke-linejoin: round;stroke-width: 1.09732px"/>
      <path d="M76.2,6.16a29.88,29.88,0,0,0,17-3.53C91.75,5.5,88.72,7,85.54,7.48A15.2,15.2,0,0,1,76.2,6.16Z" style="fill: #eda672"/>
    </g>
  </g>
  <g style="clip-path: url(#clip-path-2)">
    <g>
      <path d="M79.4,140.79c.21-10.44,14.39-11.43,15.1,2,.52,9.92,1,30.34,6.19,39.14s7.57,11,7.57,11-6.88-.28-13-9.35c-8.87-13.07-8.5-20.61-11.56-30.27S79.31,144.82,79.4,140.79Z" style="fill: #b28147"/>
      <ellipse cx="86.67" cy="135.49" rx="3.14" ry="2.8" style="fill: #f2accb"/>
      <path d="M102,149.42C101.71,137.34,90.1,135,86.67,135s-15,2.38-15.28,14.46c-.3,15.44,5.47,17.39,15.28,17.39S102.25,164.87,102,149.42Z" style="fill: #b28147"/>
      <path d="M101.56,147.27c.15.12.19.21-.76,1.73a3.66,3.66,0,0,1-1.11,1.25c-.23.13-.3.07-.35,0s-.09-.14,0-.34c.24-.37,1.76-3,2.17-2.65Z" style="fill: #a47342"/>
      <path d="M100.8,144c.08,0,.18,0,.19.39a4.28,4.28,0,0,1-.79,2.15,4.41,4.41,0,0,1-1.59,1.64c-.33.15-.39.08-.43,0-.12-.23,1.34-1.77,1.48-2s.88-2.2,1.14-2.2Z" style="fill: #a47342"/>
      <path d="M72.54,144c.26,0,1,2,1.14,2.2s1.61,1.76,1.48,2c0,.07-.1.15-.43,0a4.41,4.41,0,0,1-1.59-1.64,4.28,4.28,0,0,1-.79-2.15c0-.37.11-.39.19-.39Z" style="fill: #a47342"/>
      <path d="M97.87,139.53c.09,0,.17,0,.25.35a5.17,5.17,0,0,1-.24,2.25,9.32,9.32,0,0,1-.81,2.07c-.17.28-.24.28-.33.25s-.16-.08-.09-.41a20.41,20.41,0,0,1,.62-2.08,20.45,20.45,0,0,0,.41-2.07C97.7,139.58,97.78,139.54,97.87,139.53Z" style="fill: #a47342"/>
      <path d="M98.94,140.7c.09,0,.17,0,.25.38.25,1.51-.59,3.38-1.33,4.65-.19.31-.26.3-.35.28s-.16-.08-.07-.45c.2-.95.66-1.85.93-2.78.07-.24.31-2.06.57-2.09Z" style="fill: #a47342"/>
      <path d="M89.78,135.86c.08,0,.16-.06.43.32A11.83,11.83,0,0,1,92,142c0,.47-.09.51-.17.51s-.16,0-.27-.45c-.54-1.9-1.07-3.77-1.71-5.65-.15-.41-.1-.48,0-.53Z" style="fill: #a47342"/>
      <path d="M91.38,136.25c0-.08.09-.15.59.05A4.64,4.64,0,0,1,94.06,139a9.8,9.8,0,0,1,.66,3.3c0,.51-.1.55-.18.56-.28,0-1-3.37-1.07-3.63a6.3,6.3,0,0,0-1.23-2.1c-.16-.17-.93-.68-.84-.89Z" style="fill: #a47342"/>
      <path d="M71.78,147.27c.41-.34,1.93,2.28,2.17,2.65.13.19.1.27,0,.34s-.12.12-.35,0A3.66,3.66,0,0,1,72.54,149c-1-1.52-.91-1.61-.76-1.73Z" style="fill: #a47342"/>
      <path d="M75.47,139.53c.09,0,.16,0,.2.36a20.83,20.83,0,0,0,.41,2.07A20.77,20.77,0,0,1,76.7,144c.06.34,0,.39-.09.41s-.16,0-.33-.25a9.32,9.32,0,0,1-.81-2.07,5.17,5.17,0,0,1-.24-2.25C75.3,139.53,75.38,139.52,75.47,139.53Z" style="fill: #a47342"/>
      <path d="M74.4,140.7c.24,0,.55,1.88.62,2.09.3.93.81,1.82,1,2.77.1.37,0,.44-.06.45s-.15,0-.35-.27c-.78-1.27-1.73-3.12-1.51-4.65.07-.39.16-.4.24-.39Z" style="fill: #a47342"/>
      <path d="M83.56,135.86c.22.16-.78,2.35-.86,2.59-.37,1.18-.56,2.39-.88,3.57-.11.43-.18.46-.27.46s-.17,0-.18-.51a10.37,10.37,0,0,1,1.73-5.83c.3-.37.39-.34.46-.29Z" style="fill: #a47342"/>
      <path d="M82,136.25c.09.21-.68.72-.84.89a6.31,6.31,0,0,0-1.23,2.1c-.1.27-.79,3.65-1.07,3.63-.09,0-.17,0-.18-.56a9.8,9.8,0,0,1,.66-3.3,4.64,4.64,0,0,1,2.08-2.71c.5-.2.56-.13.59-.05Z" style="fill: #a47342"/>
      <path d="M95.63,143.81c-1.67-1.67-5.94-1.7-9-1.7s-7.29,0-9,1.7c-1.2,1.19-1.49,6-5,9.66,0,1.3.86,12.35,3,17.66,1.38,3.48,8.49,8.89,11,8.82,2.48.08,9.58-5.34,11-8.82,2.11-5.31,3-16.35,3-17.66C97.13,149.78,96.83,145,95.63,143.81Z" style="fill: #fad9c7"/>
    </g>
  </g>
</svg>
