<svg id="Layer_1" data-name="Layer 1" xmlns="http://www.w3.org/2000/svg" xmlns:xlink="http://www.w3.org/1999/xlink" width="149" height="149" viewBox="0 0 149 149">
  <defs>
    <clipPath id="clip-path">
      <circle cx="74.5" cy="74.5" r="74.5" style="fill: none"/>
    </clipPath>
  </defs>
  <title>skinDarkening</title>
  <circle cx="74.5" cy="74.5" r="74.5" style="fill: #ecedf0"/>
  <g style="clip-path: url(#clip-path)">
    <g>
      <path d="M62.32,10.49c9.24-2.86,19.51-2.34,27.73,2.74,11.53,7.12,26.38,21.43,26.38,33.48S112.35,132.36,105,148.17s-40.48,19.36-54.15,2.93c-8.76-10.53-12.53-61.88-13.95-85.23C35.62,45.06,30.86,20.24,62.32,10.49Z" style="fill: #7c3e03"/>
      <path d="M92.2,99.59c2.74-.22,6.52,0,8.65,2.56,8.56,10.27,27.6,36.13,27.6,42.54,0,5.48-10.59,21.51-23.47,36.28-2.24-1-6,1.53-6-2.55,6.07-12,12.27-30.44,16.78-33.61-.33-4.56-17.24-23.65-22.12-28.58C93.67,116.23,88.43,99.89,92.2,99.59Z" style="fill: #f6ba88"/>
      <path d="M45.19,102.52c-6.29,5.24-29.81,37.17-29.81,51,0,4.84,13,19.3,37.14,29.8,1.81-1.64,3.82-2,2.51-5.86-10.68-6.46-21.79-25-25.6-27.2,0-2.47,15.35-22.74,20.71-27.2l1.37,4.18c7.09,5.84,10.11-2.53,10.31-11.55.15-6.53-3.51-15.47-3.51-15.47C55.26,99.94,48.21,100,45.19,102.52Z" style="fill: #f6ba88"/>
      <path d="M62.4,100.45s2.25,28.46,19.48,27.11c21.8-1.71,6.83-28.14,6.83-28.14L81.21,98l-1-7.51-.52-4-.14-1.11L79.4,84l-8.33-1.3-.15,1-.19,1.28-1.46,9.77-.55,3.67Z" style="fill: #f6ba88"/>
      <path d="M69.27,94.72a90,90,0,0,1,11-4.28l-.66-5.07c-.33,0-5.58.8-8.85-.42Z" style="fill: #eda672"/>
      <path d="M84.19,98.54l8,1s2.31,13.75,4.29,18.87c2.59,6.69,9.47,8.12,8.38,17.65-.1,0-1,4.58-5.12,6.33l-6,27.4s3.19,6.78,5.2,11.87c1.52,3.84-28.91,6.39-38.27-5.1,0,0,6.17-5.57,7.72-7.38-5.81-12.37-11-22.9-16.86-42,7.32,4.43,12.13-3.79,6.8-27,2.93.25,5.07-.45,6.84-.69h0s-1.09,25.58,17.09,24.23C97.62,122.64,84.19,98.54,84.19,98.54Z" style="fill: #f6ba88"/>
      <path d="M84.19,98.54l8,1s2.31,13.75,4.29,18.87c2.59,6.69,9.47,8.12,8.38,17.65-.1,0-1,4.58-5.12,6.33l-.63,10.28c-2.86,2.56-31.52,8.08-41.48-.43l-6.14-25c7.32,4.43,12.13-3.79,6.8-27,2.93.25,5.07-.45,6.84-.69h0s-1.09,25.58,17.09,24.23C97.62,122.64,84.19,98.54,84.19,98.54Z" style="fill: #a66aa8"/>
      <path d="M99.75,142.44c-4.56,1-5.2-.62-11.53-.51-7.46.12-19.85,5.4-24.84-3.59,16.27,4.05,15.08-1.72,26-.67,5.65.55,11.41,3.37,15.4-1.87C104.89,138.35,101.77,142,99.75,142.44Z" style="fill: #904d93"/>
      <path d="M50.84,50.75c0,19.41,7,28.44,13.85,32.53a22.72,22.72,0,0,0,3.75,1.8,21.7,21.7,0,0,0,7.4,1.42l.84,0c.36,0,.74,0,1.14-.09a21.76,21.76,0,0,0,2.76-.49c8-1.93,20.27-9.41,20.27-35.14,0-22.23-9.47-31.32-17.09-34.78A20.23,20.23,0,0,0,75.84,14C70.29,14,50.84,18.9,50.84,50.75Z" style="fill: #f6ba88"/>
      <path d="M103.68,52.72S67.93,36.1,62,27.78c0,0-10.16,34.7-17.6,40.79-5.67,4.64.65-34.06.65-34.06S62.67,11,75.84,12.82,99.73,27,99.73,27Z" style="fill: #7c3e03"/>
      <path d="M86.55,49.28a3.81,3.81,0,0,1,1.17,2.83A6.54,6.54,0,0,1,87,55.33a2.15,2.15,0,0,1-1.76,1.36A1.64,1.64,0,0,1,84,55.93a3.92,3.92,0,0,1-.53-1.41,13.52,13.52,0,0,1-.29-3.39,3,3,0,0,1,.49-1.74,2,2,0,0,1,2.21-.49c.38.13.6.4,1,.42a3.67,3.67,0,0,0,1.62-.51A3.94,3.94,0,0,1,87,49.94a4.44,4.44,0,0,0,1.63.69,1.8,1.8,0,0,1-1.06.26" style="fill: #7c3e03"/>
      <path d="M65.13,49.28A3.81,3.81,0,0,0,64,52.11a6.54,6.54,0,0,0,.73,3.21,2.15,2.15,0,0,0,1.76,1.36,1.64,1.64,0,0,0,1.24-.76,3.92,3.92,0,0,0,.53-1.41,13.52,13.52,0,0,0,.29-3.39A3,3,0,0,0,68,49.39a2,2,0,0,0-2.21-.49c-.38.13-.6.4-1,.42a3.67,3.67,0,0,1-1.62-.51,3.94,3.94,0,0,0,1.5,1.13,4.44,4.44,0,0,1-1.63.69,1.8,1.8,0,0,0,1.06.26" style="fill: #7c3e03"/>
      <path d="M79,59.46a4.09,4.09,0,0,1-2.58,2,3.22,3.22,0,0,1-2-.41,7.76,7.76,0,0,1-1.67-1.28c-.19-.18-.39-.5-.26-.73s.33-.2.52-.2c1.88-.05,5.63,0,5.63,0,.15,0,.33,0,.41.13S79.13,59.32,79,59.46Z" style="fill: #eda672"/>
      <g style="opacity: 0.2">
        <ellipse cx="61.7" cy="62.67" rx="4.69" ry="5.62"/>
      </g>
      <g style="opacity: 0.2">
        <ellipse cx="91.93" cy="62.91" rx="4.69" ry="5.86"/>
      </g>
      <path d="M83.4,40.93a6.78,6.78,0,0,1,3.77.92,11.38,11.38,0,0,1,3,2.54,14.92,14.92,0,0,0-8.55-2.56A2.14,2.14,0,0,1,83.4,40.93Z" style="fill: #602c02"/>
      <path d="M65.86,40.93a6.78,6.78,0,0,0-3.77.92,11.38,11.38,0,0,0-3,2.54,14.92,14.92,0,0,1,8.55-2.56A2.14,2.14,0,0,0,65.86,40.93Z" style="fill: #602c02"/>
      <g>
        <path d="M71.75,73.32a30.76,30.76,0,0,1,9.5-.44" style="fill: none;stroke: #d38854;stroke-linecap: round;stroke-linejoin: round;stroke-width: 1.09732px"/>
        <path d="M71.91,74.52a3.68,3.68,0,0,1-.31-2.4" style="fill: none;stroke: #d38854;stroke-linecap: round;stroke-linejoin: round;stroke-width: 1.09732px"/>
        <path d="M81.61,74.1a2.53,2.53,0,0,0,.06-2.38" style="fill: none;stroke: #d38854;stroke-linecap: round;stroke-linejoin: round;stroke-width: 1.09732px"/>
      </g>
    </g>
  </g>
</svg>
