<svg id="Layer_1" data-name="Layer 1" xmlns="http://www.w3.org/2000/svg" xmlns:xlink="http://www.w3.org/1999/xlink" width="149" height="149" viewBox="0 0 149 149">
  <defs>
    <clipPath id="clip-path">
      <circle cx="62.56" cy="-141.89" r="74.5" style="fill: none"/>
    </clipPath>
    <clipPath id="clip-path-2">
      <circle cx="74.5" cy="74.5" r="74.5" style="fill: none"/>
    </clipPath>
  </defs>
  <title>thinLimbs</title>
  <g style="clip-path: url(#clip-path)">
    <g>
      <path d="M107,1.08s.49-.09.57,1c.14,1.77.4,2.23-2.63,2.83-4.44.89-16.52,1.62-22.3,1-3-.33-3.4-1.12-3.51-2.56s.57-1.42.57-1.42Z" style="fill: #ddd"/>
      <path d="M79.71,2c.09,1.33,8.42,2,14.16,1.6,2.62-.18,4.75-.41,6.47-.65,5.33-.74,6.71-1.58,6.71-1.6s.61-3.27-1.41-4.79a6.7,6.7,0,0,0-5.22-1.3c-2.25.2-4.92.84-9,.16,0,0-7.76.19-8.66.38C80.1-3.64,79.42-2.11,79.71,2Z" style="fill: #963"/>
      <path d="M95.53-2.44A3.24,3.24,0,0,1,97.16-4.9c.25-.1.63-.09.69.17s-.12.36-.25.5a4,4,0,0,0-.87,2c-.13.73-.18,1.48-.38,2.2a1.18,1.18,0,0,1-.21.46.47.47,0,0,1-.46.17c-.28-.07-.35-.43-.37-.71A9.55,9.55,0,0,1,95.53-2.44Z" style="fill: #ddd"/>
      <path d="M93.52-4.14a1.43,1.43,0,0,1,.65-.65.57.57,0,0,1,.76.32,1,1,0,0,1-.2.68,7.58,7.58,0,0,0-1,3.18,2.94,2.94,0,0,1-.2,1.06,1,1,0,0,1-.18.25.43.43,0,0,1-.74-.26A7.49,7.49,0,0,1,93.52-4.14Z" style="fill: #ddd"/>
      <path d="M47.47,2.5c-1-.59-1.25,3.2-.41,3.61S61,6.73,61.63,5.7a2.74,2.74,0,0,0-.05-3.34C57.51,2.66,51,4.52,47.47,2.5Z" style="fill: #ddd"/>
      <path d="M47.54,2.6A3.2,3.2,0,0,1,46.45.35a5.55,5.55,0,0,1,2.73-4.88A11.46,11.46,0,0,1,54.79-6a6.62,6.62,0,0,1,4.72,1.12c1.57,1.35,1.75,3.68,1.82,5.75a2.47,2.47,0,0,1-.4,1.77,2.36,2.36,0,0,1-1.33.6,27.31,27.31,0,0,1-9.88.2A4.6,4.6,0,0,1,47.54,2.6Z" style="fill: #963"/>
    </g>
  </g>
  <circle cx="74.5" cy="74.5" r="74.5" style="fill: #ecedf0"/>
  <g style="clip-path: url(#clip-path-2)">
    <g>
      <path d="M101.6-17.26c-5.09-2.32-16.72-6.94-18-9.29-1.49-2.83-1.51-9.72-1.42-15.38-2.59,2.3-6,4.27-7.49,4.23s-4.9-1.93-7.49-4.23c.09,5.67.07,12.55-1.42,15.38-1.24,2.35-12.87,7-18,9.29,0,9.8.06,19.78.29,33.82.16,9.64,8.32,30.06,7.3,40.27a92.35,92.35,0,0,1-3.68,12,42.13,42.13,0,0,0,23,5.52,42.13,42.13,0,0,0,23-5.52,92.35,92.35,0,0,1-3.68-12c-1-10.21,7.15-30.63,7.3-40.27C101.53,2.52,101.6-8.89,101.6-17.26Z" style="fill: #f6ba88"/>
      <path d="M89.6,207a130.13,130.13,0,0,1-2.94-13.51c-.24-2.69-.72-10.47-.86-12.05-.24-4.39-7.67-55.11-8.84-66.81,8.36-3.94,17.86-4.54,27.28-3.63.22,2.19.94,23.75,1.1,28.23.66,18.45,1,56.07,1.62,61.8S110,228,111.21,239.19c1.88,17.46-4,44-1.84,72.07.08,1,2.37,8.18,2.77,9.62.19.7.4,1.36.59,1.92.33.87,4.31,7.91,5.49,8.79s1.54,2.48,1.68,4.42A1.38,1.38,0,0,1,118,337.6c-.11-.09.12,1.21-.87,1.33s-.43.08-1.22-.25a1.24,1.24,0,0,1-.9,1.28,2.79,2.79,0,0,1-2.39-.15,3,3,0,0,1-2.81.33c-.54-.16-.19-.33-.63-.05a6.06,6.06,0,0,1-3.62.52c-.84-.16-1.37-1.11-1.55-2.87-1.29-.74-1.42-1.9-1.42-3.36,0-2.54-.18-3.34-1.39-4s-1.89-.45-1.11-6.24a32,32,0,0,1,1-4.34c.06-2.25.41-5.15.39-6-.41-14.62-6.53-43.59-7.76-52.32s.22-33-.6-38.87S91.21,213.73,89.6,207Z" style="fill: #f6ba88"/>
      <path d="M59.87,207a130.09,130.09,0,0,0,2.94-13.51c.24-2.69.72-10.47.86-12.05.24-4.39,7.67-55.11,8.84-66.81-8.36-3.94-17.86-4.54-27.28-3.63-.22,2.19-.94,23.75-1.1,28.23-.66,18.45-1,56.07-1.62,61.8S39.46,228,38.25,239.19c-1.88,17.46,4,44,1.84,72.07-.08,1-2.37,8.18-2.77,9.62-.19.7-.4,1.36-.59,1.92-.33.87-4.31,7.91-5.49,8.79s-1.54,2.48-1.68,4.42a1.38,1.38,0,0,0,1.86,1.59c.11-.09-.12,1.21.87,1.33s.43.08,1.22-.25a1.24,1.24,0,0,0,.9,1.28,2.79,2.79,0,0,0,2.39-.15,3,3,0,0,0,2.81.33c.54-.16.19-.33.63-.05a6.06,6.06,0,0,0,3.62.52c.84-.16,1.37-1.11,1.55-2.87,1.29-.74,1.42-1.9,1.42-3.36,0-2.54.18-3.34,1.39-4s1.89-.45,1.11-6.24a32,32,0,0,0-1-4.34c-.06-2.25-.41-5.15-.39-6,.41-14.62,6.53-43.59,7.76-52.32s-.22-33,.6-38.87S58.25,213.73,59.87,207Z" style="fill: #f6ba88"/>
      <path d="M101.54,80l-.05-.21a77.26,77.26,0,0,0-4-12c-7.06,4-14.93,5.13-22.76,5.13S59,71.76,52,67.81a77.25,77.25,0,0,0-4,12l-.05.21c-1.23,5.44-3,24.16-2.91,34.25a51.76,51.76,0,0,1,27.48,1.88c.12-3,.54-5.84.55-6.11h3.38c0,.27.43,3.1.55,6.11a51.76,51.76,0,0,1,27.48-1.88C104.52,104.17,102.77,85.44,101.54,80Z" style="fill: #3e3a39"/>
      <g>
        <path d="M117.25,144.44a1.81,1.81,0,0,0,.91-1.53c.84,5.32,1.8,10.21,2,12,.31,3,2.25,3.06,2.5,1.23.25,3.45,2.86,3.34,2.53.52,0-.09,0-.62-.05-.72.42,1.62,2.47,1.37,2.23-.65-.1-.83-.22-2.08-.35-3.52.46,3.59,2.34,3.09,2.11-.11-.26-3.61-1-14.93-1.27-16.91-.35-3.07-1.4-9.67-2.71-12.16-1.12-6.2-1.23-32.06-1.65-41s-1.79-9.32-3.05-16.95-7.65-41.6-7.57-51.6a69.35,69.35,0,0,0-2.86-21c-2.23-8-5.94-8.85-9.35-9.47-1.72,14.5,1.27,34.73,1.48,36.77.34,3.28.83,8,1.07,10.26.89,8.42,6.57,34.74,6.46,41.8s5.55,29.23,6.46,42c.11,1.61.8,5.43.86,6.44.14,2.27-.76,4.32-1.62,8.07-1,4.31.63,11.87,1,13.5C116.78,143.68,115.83,145.16,117.25,144.44Z" style="fill: #f6ba88"/>
        <path d="M125.13,156c-.06,0-.12-.07-.24-1.1s-.32-3-.74-6.87-.68-5.82-.8-6.86-.09-1.12,0-1.13.13.05.33,1.08.51,3,.92,6.86.56,5.85.61,6.89S125.18,156,125.13,156Z" style="fill: #f6ba9d"/>
        <path d="M127,151.8c-.12,0-.22-.19-.77-5.62-.26-2.72-.31-4.14-.3-4.88s.06-.79.12-.8.13.21.62,5.64S127.12,151.79,127,151.8Z" style="fill: #f6ba9d"/>
        <path d="M125,158.12s0,0,0,.22a1,1,0,0,1-.26.36.9.9,0,0,1-.82.19c-.76-.19-1.33-1.19-1.47-2.56l-.63-5.45-1-8.33c-.16-1.25-.12-1.35-.06-1.36s.13.07.37,1.32.6,3.66,1.15,8.33c.27,2.33.46,4.11.6,5.46s.63,2.16,1.15,2.31a.79.79,0,0,0,.85-.34C125,158.12,125,158.11,125,158.12Z" style="fill: #f6ba9d"/>
        <path d="M118.19,143.09s0,0-.09-.17h.13A2,2,0,0,1,118,144a1.74,1.74,0,0,1-.9.73,1,1,0,0,1-.41.08.39.39,0,0,1-.27-.16.6.6,0,0,1-.09-.24,5.12,5.12,0,0,1,0-.9,8,8,0,0,0-.16-2.13c-.17-.82-.36-1.76-.55-2.83s-.37-2.28-.51-3.64a30.45,30.45,0,0,1-.19-4.56,13.66,13.66,0,0,1,.41-2.92c.21-.89.43-1.72.64-2.49a21.68,21.68,0,0,0,.86-4,17.6,17.6,0,0,0-.19-3l-.25-2.07c-.28-2.21-.29-2.37-.22-2.38s.17.14.53,2.34c.09.55.19,1.23.3,2.07a17,17,0,0,1,.23,3.06,21.4,21.4,0,0,1-.85,4.12c-.21.77-.43,1.59-.64,2.48a13.3,13.3,0,0,0-.4,2.84,30.62,30.62,0,0,0,.18,4.5c.14,1.35.32,2.55.49,3.61s.36,2,.52,2.82a8.12,8.12,0,0,1,.13,2.22,5.36,5.36,0,0,0,0,.82c0,.11,0,.14.08.14a.76.76,0,0,0,.26-.05,1.51,1.51,0,0,0,.79-.58,2.81,2.81,0,0,0,.36-.93h.13C118.23,143.06,118.21,143.09,118.19,143.09Z" style="fill: #f6ba9d"/>
        <path d="M121.83,157.36s0,.08-.25.1a1.4,1.4,0,0,1-1.15-.89,4.33,4.33,0,0,1-.43-1.43l-.36-2.07-1.12-6.57-.33-2-.15-.9c0-.16-.05-.27-.07-.45l0-.42c-.07-1.11-.13-2.05-.2-2.87-.15-1.63-.31-2.75-.4-3.51-.2-1.52-.18-1.64-.11-1.65s.14.09.42,1.61c.14.76.32,1.87.5,3.52.09.82.15,1.78.23,2.88l0,.42c0,.1,0,.27.06.41l.15.9.33,2L120,153a16.53,16.53,0,0,0,.67,3.41,1.37,1.37,0,0,0,.89.86C121.79,157.33,121.82,157.33,121.83,157.36Z" style="fill: #f6ba9d"/>
        <path d="M116.3,144.9c0,.23.33.39.33-.22a25.14,25.14,0,0,0,0-2.94c-.11-.54-.28-.4-.29-.21A19.88,19.88,0,0,0,116.3,144.9Z" style="fill: #f09dc1"/>
      </g>
      <g>
        <path d="M32.22,144.58A1.81,1.81,0,0,1,31.3,143c-.85,5.32-1.8,10.21-2,12-.31,3-2.25,3.06-2.5,1.23-.26,3.45-2.86,3.34-2.53.52,0-.09,0-.62.05-.72-.42,1.62-2.47,1.37-2.23-.65.1-.83.22-2.08.35-3.52-.46,3.59-2.34,3.08-2.11-.11.27-3.61,1-14.93,1.28-16.91.35-3.07,1.41-9.67,2.71-12.16,1.12-6.2,1.24-32.06,1.66-41s1.79-9.32,3.06-16.95,7.66-41.6,7.59-51.6a69.35,69.35,0,0,1,2.87-21c2.23-8,5.95-8.84,9.36-9.47,1.72,14.5-1.29,34.72-1.5,36.77-.34,3.28-.83,8-1.07,10.26-.89,8.42-6.58,34.74-6.48,41.8s-5.57,29.23-6.48,42c-.12,1.61-.8,5.43-.86,6.44-.14,2.27.76,4.32,1.61,8.07,1,4.31-.64,11.87-1,13.5C32.68,143.82,33.64,145.3,32.22,144.58Z" style="fill: #f6ba88"/>
        <path d="M24.34,156.1c-.06,0-.11-.08-.06-1.13s.2-3,.61-6.89.73-5.83.93-6.86.27-1.09.33-1.08.1.09,0,1.13-.38,3-.8,6.86-.61,5.83-.74,6.87S24.4,156.11,24.34,156.1Z" style="fill: #f6ba9d"/>
        <path d="M22.46,151.93c-.12,0-.22-.24.34-5.66s.46-5.64.62-5.64.11.06.12.8,0,2.16-.31,4.88C22.67,151.74,22.58,151.94,22.46,151.93Z" style="fill: #f6ba9d"/>
        <path d="M24.42,158.26s.07,0,.17.14a.79.79,0,0,0,.85.34c.52-.14,1-1,1.15-2.31s.33-3.12.6-5.46c.55-4.67.92-7.08,1.15-8.33s.31-1.33.37-1.32.09.11-.06,1.36l-1,8.33L27,156.47c-.14,1.37-.71,2.37-1.47,2.56a.9.9,0,0,1-.82-.19,1,1,0,0,1-.26-.36C24.37,158.3,24.39,158.27,24.42,158.26Z" style="fill: #f6ba9d"/>
        <path d="M31.27,143.23s0,0,0-.19h.13a2.81,2.81,0,0,0,.36.93,1.51,1.51,0,0,0,.79.58.76.76,0,0,0,.26.05s.05,0,.08-.14a5.36,5.36,0,0,0,0-.82,8.12,8.12,0,0,1,.13-2.22c.16-.82.34-1.75.52-2.82s.36-2.26.5-3.61a30.61,30.61,0,0,0,.18-4.5,13.3,13.3,0,0,0-.4-2.84c-.21-.88-.43-1.71-.63-2.48a21.41,21.41,0,0,1-.85-4.12,17,17,0,0,1,.23-3.06c.11-.84.21-1.52.3-2.07.36-2.2.48-2.35.53-2.34s.06.17-.22,2.38L32.88,118a17.6,17.6,0,0,0-.19,3,21.68,21.68,0,0,0,.86,4c.21.77.43,1.6.64,2.49a13.66,13.66,0,0,1,.41,2.92,30.45,30.45,0,0,1-.19,4.56c-.15,1.36-.33,2.56-.52,3.63s-.38,2-.55,2.83a8,8,0,0,0-.16,2.13,5.12,5.12,0,0,1,0,.9.6.6,0,0,1-.09.24.39.39,0,0,1-.27.15,1,1,0,0,1-.41-.08,1.74,1.74,0,0,1-.9-.73,2.05,2.05,0,0,1-.27-1.05h.13C31.32,143.21,31.3,143.23,31.27,143.23Z" style="fill: #f6ba9d"/>
        <path d="M27.63,157.5s0,0,.24-.07a1.37,1.37,0,0,0,.89-.86,16.53,16.53,0,0,0,.67-3.41l1.09-6.59.34-2,.15-.9c0-.14.06-.31.06-.41l0-.42c.07-1.1.14-2.06.23-2.88.18-1.65.36-2.76.5-3.52.28-1.52.36-1.62.42-1.61s.09.13-.12,1.65c-.1.76-.25,1.88-.4,3.51-.08.82-.13,1.77-.2,2.87l0,.42c0,.19,0,.3-.07.45l-.15.9-.33,2-1.12,6.57-.36,2.07a4.33,4.33,0,0,1-.43,1.43,1.4,1.4,0,0,1-1.15.89C27.64,157.58,27.62,157.52,27.63,157.5Z" style="fill: #f6ba9d"/>
        <path d="M33.16,145c0,.23-.33.39-.33-.22a25.18,25.18,0,0,1,0-2.94c.11-.54.28-.4.29-.21A19.88,19.88,0,0,1,33.16,145Z" style="fill: #f09dc1"/>
      </g>
      <path d="M92.31-21.57c.32,9.78-2.64,30.4-17.58,30.4s-17.9-20.62-17.58-30.4c-3.54,1.77-6.95,3.24-9.28,4.3,0,6.08,1.44,12.56,1.55,19.54.07,4.28-1.58,8.94-1.49,14.28.06,3.59,1.46,8.68,2.85,14.18a74.76,74.76,0,0,0,24,1.61,74.76,74.76,0,0,0,24-1.61c1.39-5.5,2.8-10.59,2.85-14.18.09-5.34-1.55-10-1.49-14.28.11-7,1.55-13.46,1.55-19.54C99.26-18.32,95.85-19.8,92.31-21.57Z" style="fill: #ed86b3"/>
    </g>
  </g>
</svg>
