<svg id="Layer_1" data-name="Layer 1" xmlns="http://www.w3.org/2000/svg" viewBox="0 0 149 149"><defs><style>.cls-1{fill:#ecedf0;}.cls-2{fill:#341f1f;}.cls-3{fill:#fadab9;}.cls-4{fill:#fff0d9;}.cls-5{fill:#339a98;}.cls-6{fill:#51bcb6;}.cls-7{fill:#96c2a7;}.cls-8{fill:#c1dfc4;}.cls-9{fill:#d94e49;}.cls-10{fill:#ee7867;}.cls-11{fill:#0e4053;}.cls-12{fill:#206479;}.cls-13{fill:#fff;}.cls-14{fill:#ea5e65;}</style></defs><title>weightLoss</title><circle class="cls-1" cx="74.5" cy="74.5" r="74.5"/><path class="cls-2" d="M94.79,24.68l-3.37-3.37a24,24,0,0,1,2.78,3.37Z"/><path class="cls-2" d="M121.05,28.32h0l0,0Z"/><path class="cls-2" d="M91.23,21.12h0l.06.05Z"/><path class="cls-3" d="M95.89,27.56h15.8A10.44,10.44,0,0,1,122.09,38v74a10.44,10.44,0,0,1-10.41,10.41H77.59l-.5,2.88h35.13a12.61,12.61,0,0,0,12.57-12.57V37.25a12.53,12.53,0,0,0-3.66-8.85l-.06-.06,0,0a12.53,12.53,0,0,0-8.83-3.65h-18A23.81,23.81,0,0,1,95.89,27.56Z"/><path class="cls-4" d="M71.91,125.26l-.5-2.88H37.68A10.44,10.44,0,0,1,27.28,112V38A10.44,10.44,0,0,1,37.68,27.56H53.11a23.83,23.83,0,0,1,1.68-2.88h-18A12.61,12.61,0,0,0,24.21,37.25v75.44a12.61,12.61,0,0,0,12.57,12.57Z"/><path class="cls-5" d="M122.09,112V38a10.44,10.44,0,0,0-10.41-10.41H95.89A23.85,23.85,0,0,1,89,57L77.59,122.37h34.09A10.44,10.44,0,0,0,122.09,112Z"/><path class="cls-6" d="M60,57a23.84,23.84,0,0,1-6.92-29.47H37.68A10.44,10.44,0,0,0,27.28,38v74a10.44,10.44,0,0,0,10.41,10.41H71.41Z"/><path class="cls-7" d="M94.67,38.09A20.17,20.17,0,0,1,74.5,58.26v67h2.59l.5-2.88L89,57a23.82,23.82,0,0,0,2.45-35.73l-.14-.14-.06-.05A23.76,23.76,0,0,0,74.5,14.26v3.67A20.17,20.17,0,0,1,94.67,38.09Z"/><path class="cls-8" d="M50.67,38.09A23.79,23.79,0,0,0,60,57l11.38,65.34.5,2.88H74.5v-67a20.17,20.17,0,1,1,0-40.34V14.26A23.82,23.82,0,0,0,50.67,38.09Z"/><path class="cls-3" d="M74.5,24v1.83a.92.92,0,0,1,.92.92V33.6a4.58,4.58,0,0,1-.92,9.08V54h.37v3.29A19.32,19.32,0,0,0,78.14,57l-1.07-5,.72-.15,1.07,5a19.1,19.1,0,0,0,3.14-1l-1.34-3,.67-.3,1.34,3a19.21,19.21,0,0,0,2.85-1.65l-3-4.15.59-.43,3,4.15a19.38,19.38,0,0,0,2.45-2.21L86.11,49l.49-.55L89,50.69A19.29,19.29,0,0,0,91,48l-4.44-2.57.37-.64,4.44,2.57a19.16,19.16,0,0,0,1.34-3l-3.14-1,.23-.7,3.14,1a19.14,19.14,0,0,0,.68-3.22l-5.1-.54.08-.73,5.1.54c0-.54.07-1.09.07-1.65s0-1.1-.07-1.65l-3.27.34-.08-.73,3.27-.34a19.14,19.14,0,0,0-.68-3.22L88,34.08l-.23-.7,4.88-1.59a19.13,19.13,0,0,0-1.34-3L88.5,30.43l-.37-.64L91,28.15A19.3,19.3,0,0,0,89,25.49l-3.81,3.43-.49-.55,3.81-3.43a19.37,19.37,0,0,0-2.45-2.21L84.17,25.4,83.58,25l1.94-2.66a19.24,19.24,0,0,0-2.85-1.65l-2.09,4.69-.67-.3L82,20.35a19.11,19.11,0,0,0-3.14-1l-.69,3.22-.72-.15.68-3.22a19.34,19.34,0,0,0-3.28-.34V24Z"/><path class="cls-4" d="M74.13,54h.37V42.68a4.58,4.58,0,0,1-.92-9.08V26.72a.92.92,0,0,1,.92-.92V24h-.37V18.85a19.33,19.33,0,0,0-3.28.34l.69,3.22-.72.15-.69-3.22a19.11,19.11,0,0,0-3.14,1L69.09,25l-.67.3-2.09-4.69a19.21,19.21,0,0,0-2.85,1.65L65.42,25l-.59.43-1.94-2.67a19.36,19.36,0,0,0-2.45,2.21l3.81,3.43-.49.55L60,25.49A19.32,19.32,0,0,0,58,28.15l2.86,1.65-.37.63-2.86-1.65a19.14,19.14,0,0,0-1.34,3l4.88,1.59-.23.7-4.88-1.59a19.15,19.15,0,0,0-.68,3.22l3.27.34-.08.73-3.27-.34c0,.54-.07,1.09-.07,1.65s0,1.1.07,1.65l5.1-.54.08.73-5.1.54a19.15,19.15,0,0,0,.68,3.22l3.14-1,.23.7-3.14,1a19.14,19.14,0,0,0,1.34,3l4.44-2.57.37.64L58,48A19.3,19.3,0,0,0,60,50.69l2.45-2.2.49.54-2.45,2.2a19.35,19.35,0,0,0,2.45,2.21l3-4.15.59.43-3,4.15a19.23,19.23,0,0,0,2.85,1.65l1.34-3,.67.3-1.34,3a19.11,19.11,0,0,0,3.14,1l1.07-5,.72.15-1.07,5a19.32,19.32,0,0,0,3.28.34Z"/><path class="cls-9" d="M74.5,33.51a4.61,4.61,0,0,1,.92.09V26.72a.92.92,0,0,0-.92-.92Z"/><path class="cls-10" d="M73.58,26.72V33.6a4.61,4.61,0,0,1,.92-.09v-7.7A.92.92,0,0,0,73.58,26.72Z"/><path class="cls-11" d="M74.5,36.26a1.83,1.83,0,0,1,0,3.67v2.75a4.58,4.58,0,1,0,0-9.17Z"/><path class="cls-12" d="M73.2,39.39a1.83,1.83,0,0,1,1.3-3.13V33.51a4.58,4.58,0,1,0,0,9.17V39.92A1.83,1.83,0,0,1,73.2,39.39Z"/><path class="cls-6" d="M71.54,22.41l-.69-3.22-.72.15.69,3.22Z"/><path class="cls-5" d="M77.79,51.82l-.72.15,1.07,5,.72-.15Z"/><path class="cls-6" d="M68.42,25.34l.67-.3L67,20.35l-.67.3Z"/><path class="cls-5" d="M80.65,52.81l1.34,3,.67-.3-1.34-3Z"/><path class="cls-6" d="M64.83,25.4l.59-.43-1.94-2.66-.59.43Z"/><path class="cls-5" d="M82.5,49.73l3,4.15.59-.43-3-4.15Z"/><path class="cls-6" d="M63.76,28.92l.49-.55-3.81-3.43-.49.55Z"/><path class="cls-5" d="M86.11,49l2.45,2.2.49-.55-2.45-2.2Z"/><path class="cls-6" d="M60.87,29.8,58,28.15c-.13.21-.25.42-.37.64l2.86,1.65Z"/><path class="cls-5" d="M86.54,45.47,91,48c.13-.21.25-.42.37-.64l-4.44-2.57Z"/><path class="cls-6" d="M61.19,33.38l-4.88-1.59c-.08.23-.16.46-.23.7L61,34.08Z"/><path class="cls-5" d="M89.56,43.37l3.14,1c.08-.23.16-.46.23-.7l-3.14-1Z"/><path class="cls-6" d="M58.67,36.06l-3.27-.34q0,.36-.08.73l3.27.34Z"/><path class="cls-5" d="M88.5,39.93l5.1.54q0-.36.08-.73l-5.1-.54Z"/><path class="cls-6" d="M60.42,39.2l-5.1.54q0,.37.08.73l5.1-.54Z"/><path class="cls-5" d="M90.4,36.79l3.27-.34q0-.37-.08-.73l-3.27.34Z"/><path class="cls-6" d="M59.22,42.67l-3.14,1c.07.23.15.47.23.7l3.14-1Z"/><path class="cls-5" d="M88,34.08l4.88-1.59c-.07-.23-.15-.47-.23-.7l-4.88,1.59Z"/><path class="cls-6" d="M62.09,44.83,57.65,47.4c.12.21.24.43.37.64l4.44-2.57Z"/><path class="cls-5" d="M88.5,30.43l2.86-1.65c-.12-.21-.24-.43-.37-.64L88.13,29.8Z"/><path class="cls-6" d="M62.4,48.49,60,50.69l.49.55L62.89,49Z"/><path class="cls-5" d="M84.75,28.37l.49.55L89,25.49l-.49-.55Z"/><path class="cls-6" d="M65.91,49.3l-3,4.15.59.43,3-4.15Z"/><path class="cls-5" d="M83.58,25l.59.43,1.94-2.67-.59-.43Z"/><path class="cls-6" d="M67.68,52.51l-1.34,3,.67.3,1.34-3Z"/><path class="cls-5" d="M79.91,25l.67.3,2.09-4.69-.67-.3Z"/><path class="cls-6" d="M71.92,52l-.72-.15-1.07,5,.72.15Z"/><path class="cls-5" d="M78.18,22.57l.69-3.22-.72-.15-.68,3.22Z"/><path class="cls-5" d="M73.2,39.39A1.83,1.83,0,1,0,75.8,36.8Z"/><path class="cls-6" d="M73.2,36.8a1.83,1.83,0,0,0,0,2.59L75.8,36.8a1.83,1.83,0,0,0-2.59,0Z"/><path class="cls-5" d="M74.87,24V18.85H74.5V24Z"/><path class="cls-6" d="M74.13,24h.37V18.84h-.37Z"/><path class="cls-5" d="M74.87,54H74.5v3.3h.37Z"/><path class="cls-6" d="M74.5,54h-.37v3.29h.37V54Z"/><path class="cls-11" d="M94.67,38.09A20.17,20.17,0,0,0,74.5,17.92v.92h.37a19.34,19.34,0,0,1,3.28.34l.72.15a19.11,19.11,0,0,1,3.14,1l.67.3a19.24,19.24,0,0,1,2.85,1.65l.59.43a19.37,19.37,0,0,1,2.45,2.21l.49.55A19.3,19.3,0,0,1,91,28.15c.13.21.25.42.37.64a19.13,19.13,0,0,1,1.34,3c.08.23.16.46.23.7a19.14,19.14,0,0,1,.68,3.22q0,.36.08.73c0,.54.07,1.09.07,1.65s0,1.1-.07,1.65q0,.37-.08.73a19.14,19.14,0,0,1-.68,3.22c-.07.23-.15.47-.23.7a19.16,19.16,0,0,1-1.34,3c-.12.21-.24.43-.37.64A19.29,19.29,0,0,1,89,50.69l-.49.55a19.38,19.38,0,0,1-2.45,2.21l-.59.43a19.21,19.21,0,0,1-2.85,1.65l-.67.3a19.1,19.1,0,0,1-3.14,1l-.72.15a19.32,19.32,0,0,1-3.28.34H74.5v.92A20.17,20.17,0,0,0,94.67,38.09Z"/><path class="cls-12" d="M74.5,57.34h-.37A19.32,19.32,0,0,1,70.86,57l-.72-.15a19.11,19.11,0,0,1-3.14-1l-.67-.3a19.23,19.23,0,0,1-2.85-1.65l-.59-.43a19.35,19.35,0,0,1-2.45-2.21L60,50.69A19.3,19.3,0,0,1,58,48c-.13-.21-.25-.42-.37-.64a19.14,19.14,0,0,1-1.34-3c-.08-.23-.16-.46-.23-.7a19.15,19.15,0,0,1-.68-3.22q0-.36-.08-.73c0-.54-.07-1.09-.07-1.65s0-1.1.07-1.65q0-.37.08-.73a19.15,19.15,0,0,1,.68-3.22c.07-.23.15-.47.23-.7a19.14,19.14,0,0,1,1.34-3c.12-.21.24-.43.37-.64A19.32,19.32,0,0,1,60,25.49l.49-.55a19.36,19.36,0,0,1,2.45-2.21l.59-.43a19.21,19.21,0,0,1,2.85-1.65l.67-.3a19.11,19.11,0,0,1,3.14-1l.72-.15a19.33,19.33,0,0,1,3.28-.34h.37v-.92a20.17,20.17,0,1,0,0,40.34v-.92Z"/><polygon class="cls-13" points="98.36 95.18 113.36 98.18 115.36 108.18 105.36 111.18 91.36 107.18 90.36 95.18 98.36 95.18"/><path class="cls-14" d="M88.2,110.83a16.52,16.52,0,0,1,0-16.47,16.34,16.34,0,0,1,6-6,16.52,16.52,0,0,1,16.47,0,16.36,16.36,0,0,1,6,6,16.5,16.5,0,0,1,0,16.47,16.33,16.33,0,0,1-6,6,16.5,16.5,0,0,1-16.47,0A16.31,16.31,0,0,1,88.2,110.83ZM92.84,104a1.32,1.32,0,0,0,.41,1,1.3,1.3,0,0,0,1,.41h16.41A1.38,1.38,0,0,0,112,104v-2.73a1.38,1.38,0,0,0-1.37-1.37H94.2a1.3,1.3,0,0,0-1,.41,1.32,1.32,0,0,0-.41,1Z"/></svg>