<?xml version="1.0" encoding="utf-8"?>
<!-- Generator: Adobe Illustrator 23.0.6, SVG Export Plug-In . SVG Version: 6.00 Build 0)  -->
<svg version="1.1" id="Layer_1" xmlns="http://www.w3.org/2000/svg" xmlns:xlink="http://www.w3.org/1999/xlink" x="0px" y="0px"
	 width="70px" height="70px" viewBox="0 0 70 70" style="enable-background:new 0 0 70 70;" xml:space="preserve">
<style type="text/css">
	.st0{fill:#D9DBE1;}
</style>
<title>map-grid</title>
<rect x="69" class="st0" width="1" height="2"/>
<path class="st0" d="M70,64.1h-1v-3.9h1V64.1z M70,56.3h-1v-3.9h1V56.3z M70,48.6h-1v-3.9h1V48.6z M70,40.8h-1v-3.9h1V40.8z
	 M70,33.1h-1v-3.9h1V33.1z M70,25.3h-1v-3.9h1V25.3z M70,17.5h-1v-3.9h1V17.5z M70,9.8h-1V5.9h1V9.8z"/>
<rect x="69" y="68" class="st0" width="1" height="2"/>
<rect y="69" class="st0" width="2" height="1"/>
<path class="st0" d="M64.1,70h-3.9v-1h3.9V70z M56.3,70h-3.9v-1h3.9L56.3,70z M48.6,70h-3.9v-1h3.9L48.6,70z M40.8,70h-3.9v-1h3.9
	L40.8,70z M33.1,70h-3.9v-1h3.9L33.1,70z M25.3,70h-3.9v-1h3.9V70z M17.5,70h-3.9v-1h3.9L17.5,70z M9.8,70H5.9v-1h3.9V70z"/>
<rect x="68" y="69" class="st0" width="2" height="1"/>
</svg>
