<svg id="Layer_1" data-name="Layer 1" xmlns="http://www.w3.org/2000/svg" xmlns:xlink="http://www.w3.org/1999/xlink" width="130" height="148.15" viewBox="0 0 130 148.15"><defs><style>.cls-1,.cls-11,.cls-14{fill:none;}.cls-2{fill:#fdeaa7;}.cls-3{clip-path:url(#clip-path);}.cls-4{fill:#c3856d;}.cls-5{fill:#e6e6e6;}.cls-6{fill:#eb4d4c;}.cls-7{fill:#d63838;}.cls-8{fill:#ccc;}.cls-10,.cls-15,.cls-9{fill:#27130b;}.cls-10,.cls-14,.cls-15{stroke:#27130b;}.cls-10,.cls-11,.cls-14,.cls-15{stroke-miterlimit:10;}.cls-10{stroke-width:0.45px;}.cls-11{stroke:#9d5d4a;stroke-width:2.12px;}.cls-11,.cls-14{stroke-linecap:round;}.cls-12{fill:#1a1a1a;}.cls-13{fill:#9d5d4a;}.cls-14{stroke-width:2.57px;}.cls-15{stroke-width:0.43px;}</style><clipPath id="clip-path"><path class="cls-1" d="M.87,83a64.13,64.13,0,1,0,128.25,0c0-20.24-10.26-47-24.91-58.76C93.24,15.46,78.46,1,63.28,1,42.26,1,24.4,7,12.71,22.67,4.69,33.37.87,68.63.87,83Z"/></clipPath></defs><title>avatar-2 copy</title><circle class="cls-2" cx="65" cy="83.03" r="64.13"/><g class="cls-3"><path class="cls-4" d="M43.19,130.89l.17-.06c.08,0,0,0,0,0l-.09,0L43,131c-.21.06-.51.19-.77.29s-.57.24-.86.36-.59.25-.89.41l-.91.44-.91.5c-.61.31-1.21.7-1.82,1.06a49.72,49.72,0,0,0-7,5.28,59.94,59.94,0,0,0-6.25,6.61,68.9,68.9,0,0,0-5.3,7.73,85.23,85.23,0,0,0-7.83,17.82c-.46,1.61-1,3.17-1.4,4.81l-1.19,4.92c-.34,1.66-.63,3.35-.95,5s-.55,3.38-.77,5.09a169.26,169.26,0,0,0-1.45,20.86l.06,5.3c0,1.77,0,3.54.15,5.32l.29,5.33c.05.89.08,1.78.16,2.67l.26,2.67a335.8,335.8,0,0,0,6.82,42.77l0,.07a8.57,8.57,0,0,1-16.61,4.17A354.14,354.14,0,0,1-14,235.74l-.44-2.85c-.14-1-.23-1.92-.34-2.88l-.65-5.77c-.25-1.92-.37-3.86-.5-5.8l-.4-5.83A190.92,190.92,0,0,1-16,189c.14-2,.27-4,.56-6s.48-4,.78-6l1.08-6c.36-2,.91-4,1.37-6a109.45,109.45,0,0,1,8.74-23.43,94.07,94.07,0,0,1,6.68-11,85.79,85.79,0,0,1,8.46-10.09,76.23,76.23,0,0,1,10.27-8.75c.95-.65,1.88-1.32,2.88-1.92l1.48-.92,1.55-.88c.51-.29,1-.58,1.59-.86s1.07-.56,1.66-.83,1.13-.53,1.79-.8c.33-.14.6-.26,1-.4l.57-.21.33-.12.5-.17a13.7,13.7,0,0,1,7.94,26.21Z"/><path class="cls-5" d="M43.19,130.89c.34-.11.11,0,.11,0l-.25.08c-.17,0-.41.15-.64.23-.45.18-1,.39-1.46.63s-1,.48-1.54.77-1,.56-1.56.87a49.5,49.5,0,0,0-6.08,4.26,58.75,58.75,0,0,0-10.49,11.51,77.17,77.17,0,0,0-7.79,14.39,107.07,107.07,0,0,0-5,16.3,154.18,154.18,0,0,0-3.32,35.37,262.1,262.1,0,0,0,3.26,36.56l-19.48,3.58a282.77,282.77,0,0,1-5.46-39.33,176.69,176.69,0,0,1,1.85-40.73,131,131,0,0,1,5.25-20.47A102.26,102.26,0,0,1,0,135.21a84.78,84.78,0,0,1,14.35-17.39,76.25,76.25,0,0,1,9.2-7.18c.83-.55,1.66-1.08,2.54-1.59s1.75-1,2.66-1.5,1.85-1,2.86-1.41c.51-.23,1-.45,1.57-.68.29-.12.52-.22.87-.35s.53-.21,1.24-.44Z"/><path class="cls-4" d="M95.7,104.68l.5.17.33.12.56.21c.39.15.65.27,1,.4.66.27,1.2.53,1.79.8s1.11.55,1.66.83,1.08.56,1.59.86l1.55.88,1.48.92c1,.61,1.93,1.27,2.88,1.92a76.23,76.23,0,0,1,10.27,8.75,85.79,85.79,0,0,1,8.46,10.09,94.07,94.07,0,0,1,6.68,11,109.45,109.45,0,0,1,8.74,23.43c.45,2,1,4,1.37,6l1.08,6c.29,2,.52,4,.78,6s.42,4,.56,6a190.92,190.92,0,0,1,.29,23.63l-.4,5.83c-.13,1.94-.25,3.88-.5,5.8L145.7,230c-.12,1-.2,1.92-.34,2.88l-.44,2.85a354.14,354.14,0,0,1-9.79,44.72,8.57,8.57,0,0,1-16.61-4.14l0-.09a335.8,335.8,0,0,0,6.82-42.77l.26-2.67c.08-.89.1-1.78.16-2.67l.29-5.33c.13-1.78.13-3.55.15-5.32l.06-5.3a169.26,169.26,0,0,0-1.45-20.86c-.22-1.71-.42-3.42-.77-5.09s-.61-3.36-.95-5l-1.19-4.92c-.38-1.64-.95-3.21-1.4-4.81a85.23,85.23,0,0,0-7.83-17.82,68.9,68.9,0,0,0-5.3-7.73,59.94,59.94,0,0,0-6.25-6.61,49.72,49.72,0,0,0-7-5.28c-.61-.36-1.21-.75-1.82-1.06l-.91-.5-.91-.44c-.3-.16-.6-.29-.89-.41s-.59-.27-.86-.36S88.21,131,88,131l-.31-.1-.09,0s-.08,0,0,0l.17.06a13.7,13.7,0,0,1,7.94-26.21Z"/><path class="cls-5" d="M95.7,104.68c.72.23.87.3,1.24.44s.58.23.87.35c.57.23,1.06.45,1.57.68,1,.46,1.94.92,2.86,1.41s1.81,1,2.66,1.5,1.71,1,2.54,1.59a76.25,76.25,0,0,1,9.2,7.18A84.78,84.78,0,0,1,131,135.21a102.26,102.26,0,0,1,9.42,19.66,131,131,0,0,1,5.25,20.47,176.69,176.69,0,0,1,1.85,40.73A282.77,282.77,0,0,1,142,255.4l-19.48-3.58a262.1,262.1,0,0,0,3.26-36.56,154.18,154.18,0,0,0-3.32-35.37,107.07,107.07,0,0,0-5-16.3,77.17,77.17,0,0,0-7.79-14.39,58.75,58.75,0,0,0-10.49-11.51,49.5,49.5,0,0,0-6.08-4.26c-.52-.31-1-.61-1.56-.87s-1-.53-1.54-.77-1-.45-1.46-.63c-.22-.08-.47-.18-.64-.23l-.25-.08s-.22-.06.11,0Z"/><path class="cls-5" d="M87.4,103.23H43.27a27.56,27.56,0,0,0-27.45,30.12l-1.3,88.05H116.14l-1.3-88.05A27.56,27.56,0,0,0,87.4,103.23Z"/><path class="cls-6" d="M71.22,213.14,67,217.25a2.35,2.35,0,0,1-3.26,0l-4.25-4.11a2.35,2.35,0,0,1-.71-1.79l3.81-83.72h5.57l3.81,83.72A2.35,2.35,0,0,1,71.22,213.14Z"/><path class="cls-7" d="M68.15,129.77v-1.44l0-.7H62.55l0,.7v1.44A4.65,4.65,0,0,0,68.15,129.77Z"/><path class="cls-6" d="M68.15,127.63h0a4.65,4.65,0,0,1-5.63,0h0L58,117.78H72.67Z"/><path class="cls-4" d="M66.37,117.81H65.12a8.62,8.62,0,0,1-8.37-7.94V80.32H73.88v29.56A7.34,7.34,0,0,1,66.37,117.81Z"/><path class="cls-8" d="M56.77,99.8c.43,6.85.43,15.84,8.56,18-2.57.86-7.28,2.14-6.42,6.85-15-9-7.28-21.41-7.28-21.41Z"/><path class="cls-8" d="M73.9,99.8c-.43,6.85-.58,15.84-8.72,18,2.57.86,7.28,2.14,6.42,6.85,15-9,7.28-21.41,7.28-21.41Z"/><rect class="cls-9" x="28.3" y="8.6" width="74.07" height="80.92" rx="37.04" ry="37.04"/><path class="cls-10" d="M102,47.78H28.62V32.58A30.77,30.77,0,0,1,54.23,2.28h0a30.9,30.9,0,0,1,25.35,7l1.29,1.11A20,20,0,0,0,88,14.33h0a19.91,19.91,0,0,1,14.06,19Z"/><circle class="cls-4" cx="31.72" cy="63.15" r="7.78"/><circle class="cls-4" cx="98.59" cy="63.15" r="7.78"/><rect class="cls-4" x="31.63" y="12.99" width="67.06" height="82.62" rx="33.53" ry="33.53"/><path class="cls-11" d="M48.83,63.15a6.52,6.52,0,0,0,5.83,0"/><path class="cls-11" d="M75.65,63.15a6.52,6.52,0,0,0,5.83,0"/><ellipse class="cls-12" cx="51.75" cy="56.54" rx="2.92" ry="4.47"/><ellipse class="cls-12" cx="78.57" cy="56.54" rx="2.92" ry="4.47"/><path class="cls-13" d="M63.11,72.64a9.58,9.58,0,0,1-2.74-1.4,5.23,5.23,0,0,1-2-2.73,3.77,3.77,0,0,1,0-1.93A6,6,0,0,1,58.94,65l.72-1.3a13.14,13.14,0,0,1,.86-1.31,24.63,24.63,0,0,0,3.07-4.74A10.92,10.92,0,0,0,64.35,55c.11-.95.09-1.93.15-2.9v0a.19.19,0,0,1,.39,0c.1,1,.21,2,.28,3a9.32,9.32,0,0,1-.28,3.08,18.34,18.34,0,0,1-2.73,5.41c-.25.4-.49.8-.69,1.18L60.8,66a3.39,3.39,0,0,0-.54,2.09,4.82,4.82,0,0,0,1.12,2.11c.58.71,1.26,1.4,1.93,2.14a.2.2,0,0,1,0,.28A.21.21,0,0,1,63.11,72.64Z"/><path class="cls-11" d="M57.91,78.44h0a15.32,15.32,0,0,0,14.49,0h0"/><g id="eyebrowa"><path class="cls-14" d="M46.69,47.79s5.05-2.33,9.33-1.17"/><path class="cls-14" d="M83.62,47.79s-5.05-2.33-9.33-1.17"/></g><path class="cls-15" d="M98.69,46.52A33.53,33.53,0,0,0,65.16,13h0A33.53,33.53,0,0,0,31.63,46.52v2.33a16.36,16.36,0,0,0,6.95-13.39h0a5.72,5.72,0,0,1,7.84-5.31h0a50.94,50.94,0,0,0,37.84,0h0a5.72,5.72,0,0,1,7.84,5.31h0A16.36,16.36,0,0,0,98.69,48.6Z"/></g></svg>