<svg id="Layer_1" data-name="Layer 1" xmlns="http://www.w3.org/2000/svg" xmlns:xlink="http://www.w3.org/1999/xlink" width="145.79" height="148.9" viewBox="0 0 145.79 148.9"><defs><style>.cls-1,.cls-10,.cls-13{fill:none;}.cls-2{clip-path:url(#clip-path);}.cls-3{fill:#c3856d;}.cls-4{fill:#e6e6e6;}.cls-5{fill:#eb4d4c;}.cls-6{fill:#d63838;}.cls-7{fill:#ccc;}.cls-14,.cls-8,.cls-9{fill:#27130b;}.cls-13,.cls-14,.cls-9{stroke:#27130b;}.cls-10,.cls-13,.cls-14,.cls-9{stroke-miterlimit:10;}.cls-9{stroke-width:0.45px;}.cls-10{stroke:#9d5d4a;stroke-width:2.12px;}.cls-10,.cls-13{stroke-linecap:round;}.cls-11{fill:#1a1a1a;}.cls-12{fill:#9d5d4a;}.cls-13{stroke-width:2.57px;}.cls-14{stroke-width:0.43px;}</style><clipPath id="clip-path"><rect class="cls-1" width="145.79" height="148.9"/></clipPath></defs><title>avatar-intro</title><g class="cls-2"><path class="cls-3" d="M51,134.82l.17-.06c.08,0,0,0,0,0l-.09,0-.31.1c-.21.06-.51.19-.77.29s-.57.24-.86.36-.59.25-.89.41l-.91.44-.91.5c-.61.31-1.21.7-1.82,1.06a49.72,49.72,0,0,0-7,5.28,59.94,59.94,0,0,0-6.25,6.61,68.9,68.9,0,0,0-5.3,7.73,85.23,85.23,0,0,0-7.83,17.82c-.46,1.61-1,3.17-1.4,4.81l-1.19,4.92c-.34,1.66-.63,3.35-.95,5s-.55,3.38-.77,5.09a169.27,169.27,0,0,0-1.45,20.86l.06,5.3c0,1.77,0,3.54.15,5.32L13,232c.05.89.08,1.78.16,2.67l.26,2.67a335.79,335.79,0,0,0,6.82,42.77l0,.07a8.57,8.57,0,0,1-16.61,4.17,354.15,354.15,0,0,1-9.79-44.72l-.44-2.85c-.14-1-.23-1.92-.34-2.88l-.65-5.77c-.25-1.92-.37-3.86-.5-5.8l-.4-5.83a190.93,190.93,0,0,1,.29-23.63c.14-2,.27-4,.56-6s.48-4,.78-6l1.08-6c.36-2,.91-4,1.37-6A109.45,109.45,0,0,1,4.36,145.6a94.08,94.08,0,0,1,6.68-11,85.79,85.79,0,0,1,8.46-10.09,76.22,76.22,0,0,1,10.27-8.75c.95-.65,1.88-1.32,2.88-1.92l1.48-.92,1.55-.88c.51-.29,1-.58,1.59-.86s1.07-.56,1.66-.83,1.13-.53,1.79-.8c.33-.14.6-.26,1-.4l.57-.21.33-.12.5-.17A13.7,13.7,0,1,1,51,134.82Z"/><path class="cls-4" d="M51,134.82c.34-.11.11,0,.11,0l-.25.08c-.17,0-.41.15-.64.23-.45.18-1,.39-1.46.63s-1,.48-1.54.77-1,.56-1.56.87a49.5,49.5,0,0,0-6.08,4.26,58.76,58.76,0,0,0-10.49,11.51,77.18,77.18,0,0,0-7.79,14.39,107.08,107.08,0,0,0-5,16.3A154.19,154.19,0,0,0,13,219.19a262.1,262.1,0,0,0,3.26,36.56l-19.48,3.58A282.78,282.78,0,0,1-8.7,220a176.69,176.69,0,0,1,1.85-40.73A131,131,0,0,1-1.6,158.81a102.26,102.26,0,0,1,9.42-19.66,84.78,84.78,0,0,1,14.35-17.39,76.26,76.26,0,0,1,9.2-7.18c.83-.55,1.66-1.08,2.54-1.59s1.75-1,2.66-1.5,1.85-1,2.86-1.41c.51-.23,1-.45,1.57-.68.29-.12.52-.22.87-.35s.53-.21,1.24-.44Z"/><path class="cls-3" d="M103.56,108.61l.5.17.33.12.57.21c.39.15.65.27,1,.4.66.27,1.2.53,1.79.8s1.11.55,1.66.83,1.08.56,1.59.86l1.55.88,1.48.92c1,.61,1.93,1.27,2.88,1.92a76.22,76.22,0,0,1,10.27,8.75,85.8,85.8,0,0,1,8.46,10.09,94.08,94.08,0,0,1,6.68,11A109.46,109.46,0,0,1,151,169c.45,2,1,4,1.37,6l1.08,6c.29,2,.52,4,.78,6s.42,4,.56,6a190.92,190.92,0,0,1,.29,23.63l-.4,5.83c-.13,1.94-.25,3.88-.5,5.8l-.65,5.77c-.12,1-.2,1.92-.34,2.88l-.44,2.85A354.15,354.15,0,0,1,143,284.39a8.57,8.57,0,0,1-16.61-4.14l0-.09a335.79,335.79,0,0,0,6.82-42.77l.26-2.67c.08-.89.1-1.78.16-2.67l.29-5.33c.13-1.78.13-3.55.15-5.32l.06-5.3a169.27,169.27,0,0,0-1.45-20.86c-.22-1.71-.42-3.42-.77-5.09s-.61-3.36-.95-5l-1.19-4.92c-.38-1.64-.95-3.21-1.4-4.81a85.23,85.23,0,0,0-7.83-17.82,68.9,68.9,0,0,0-5.3-7.73,59.94,59.94,0,0,0-6.25-6.61,49.72,49.72,0,0,0-7-5.28c-.61-.36-1.21-.75-1.82-1.06l-.91-.5-.91-.44c-.3-.16-.6-.29-.89-.41s-.59-.27-.86-.36-.56-.23-.77-.29l-.31-.1-.09,0s-.08,0,0,0l.17.06a13.7,13.7,0,1,1,7.94-26.21Z"/><path class="cls-4" d="M103.56,108.61c.72.23.87.3,1.24.44s.58.23.87.35c.58.23,1.06.45,1.57.68,1,.46,1.94.92,2.86,1.41s1.81,1,2.66,1.5,1.71,1,2.54,1.59a76.27,76.27,0,0,1,9.2,7.18,84.78,84.78,0,0,1,14.35,17.39,102.26,102.26,0,0,1,9.42,19.66,131,131,0,0,1,5.25,20.47A176.69,176.69,0,0,1,155.36,220a282.78,282.78,0,0,1-5.46,39.33l-19.48-3.58a262.1,262.1,0,0,0,3.26-36.56,154.18,154.18,0,0,0-3.32-35.37,107.08,107.08,0,0,0-5-16.3,77.18,77.18,0,0,0-7.79-14.39A58.76,58.76,0,0,0,107,141.62a49.5,49.5,0,0,0-6.08-4.26c-.52-.31-1-.61-1.56-.87s-1-.53-1.54-.77-1-.45-1.46-.63c-.22-.08-.47-.18-.64-.23l-.25-.08s-.22-.06.11,0Z"/><path class="cls-4" d="M95.25,107.16H51.13a27.56,27.56,0,0,0-27.45,30.12l-1.3,88.05H124l-1.3-88.05A27.56,27.56,0,0,0,95.25,107.16Z"/><path class="cls-5" d="M79.07,217.08l-4.25,4.11a2.35,2.35,0,0,1-3.26,0l-4.25-4.11a2.35,2.35,0,0,1-.71-1.79l3.81-83.72H76l3.81,83.72A2.35,2.35,0,0,1,79.07,217.08Z"/><path class="cls-6" d="M76,133.71v-1.44l0-.7H70.41l0,.7v1.44A4.65,4.65,0,0,0,76,133.71Z"/><path class="cls-5" d="M76,131.57h0a4.65,4.65,0,0,1-5.63,0h0l-4.52-9.85H80.53Z"/><path class="cls-3" d="M74.23,121.75H73a8.62,8.62,0,0,1-8.37-7.94V84.25H81.74v29.56A7.34,7.34,0,0,1,74.23,121.75Z"/><path class="cls-7" d="M64.63,103.74c.43,6.85.43,15.84,8.56,18-2.57.86-7.28,2.14-6.42,6.85-15-9-7.28-21.41-7.28-21.41Z"/><path class="cls-7" d="M81.76,103.74c-.43,6.85-.58,15.84-8.72,18,2.57.86,7.28,2.14,6.42,6.85,15-9,7.28-21.41,7.28-21.41Z"/><rect class="cls-8" x="36.16" y="12.54" width="74.07" height="80.92" rx="37.04" ry="37.04"/><path class="cls-9" d="M109.91,51.71H36.48V36.52A30.77,30.77,0,0,1,62.08,6.22h0a30.9,30.9,0,0,1,25.35,7l1.29,1.11a20,20,0,0,0,7.12,3.93h0a19.91,19.91,0,0,1,14.06,19Z"/><circle class="cls-3" cx="39.58" cy="67.08" r="7.78"/><circle class="cls-3" cx="106.45" cy="67.08" r="7.78"/><rect class="cls-3" x="39.49" y="16.93" width="67.06" height="82.62" rx="33.53" ry="33.53"/><path class="cls-10" d="M56.69,67.08a6.52,6.52,0,0,0,5.83,0"/><path class="cls-10" d="M83.51,67.08a6.52,6.52,0,0,0,5.83,0"/><ellipse class="cls-11" cx="59.6" cy="60.47" rx="2.92" ry="4.47"/><ellipse class="cls-11" cx="86.43" cy="60.47" rx="2.92" ry="4.47"/><path class="cls-12" d="M71,76.58a9.59,9.59,0,0,1-2.74-1.4,5.23,5.23,0,0,1-2-2.73,3.77,3.77,0,0,1,0-1.93,6,6,0,0,1,.64-1.59l.72-1.3a13.16,13.16,0,0,1,.86-1.31,24.63,24.63,0,0,0,3.07-4.74,10.92,10.92,0,0,0,.75-2.67c.11-.95.09-1.93.15-2.9v0a.19.19,0,0,1,.39,0c.1,1,.21,2,.28,3A9.32,9.32,0,0,1,72.75,62,18.34,18.34,0,0,1,70,67.43c-.25.4-.49.8-.69,1.18l-.66,1.29A3.39,3.39,0,0,0,68.12,72a4.82,4.82,0,0,0,1.12,2.11c.58.71,1.26,1.4,1.93,2.14a.2.2,0,0,1,0,.28A.21.21,0,0,1,71,76.58Z"/><path class="cls-10" d="M65.77,82.37h0a15.32,15.32,0,0,0,14.49,0h0"/><g id="eyebrowa"><path class="cls-13" d="M54.55,51.73s5.05-2.33,9.33-1.17"/><path class="cls-13" d="M91.48,51.73s-5.05-2.33-9.33-1.17"/></g><path class="cls-14" d="M106.54,50.46A33.53,33.53,0,0,0,73,16.93h0A33.53,33.53,0,0,0,39.49,50.46v2.33A16.36,16.36,0,0,0,46.43,39.4h0a5.72,5.72,0,0,1,7.84-5.31h0a50.94,50.94,0,0,0,37.84,0h0A5.72,5.72,0,0,1,100,39.4h0a16.36,16.36,0,0,0,6.59,13.14Z"/></g></svg>