<?xml version="1.0" encoding="utf-8"?>
<!-- Generator: Adobe Illustrator 19.0.0, SVG Export Plug-In . SVG Version: 6.00 Build 0)  -->
<svg version="1.1" id="Layer_1" xmlns="http://www.w3.org/2000/svg" xmlns:xlink="http://www.w3.org/1999/xlink" x="0px" y="0px"
	 width="14px" height="10.7px" viewBox="0 0 14 10.7" style="enable-background:new 0 0 14 10.7;" xml:space="preserve">
<style type="text/css">
	.st0{fill:#FFFFFF;}
</style>
<g id="XMLID_2408_">
	<path id="XMLID_2409_" class="st0" d="M13.7,2.7L7.2,9.2L6,10.5c-0.2,0.2-0.4,0.3-0.6,0.3c-0.2,0-0.5-0.1-0.6-0.3L3.5,9.2L0.3,6
		C0.1,5.8,0,5.6,0,5.4c0-0.2,0.1-0.5,0.3-0.6l1.2-1.2c0.2-0.2,0.4-0.3,0.6-0.3c0.2,0,0.5,0.1,0.6,0.3l2.7,2.7l5.9-5.9
		C11.5,0.1,11.7,0,11.9,0c0.2,0,0.5,0.1,0.6,0.3l1.2,1.2C13.9,1.6,14,1.9,14,2.1C14,2.3,13.9,2.5,13.7,2.7z"/>
</g>
</svg>
