<svg xmlns="http://www.w3.org/2000/svg" width="1922.71" height="1200" viewBox="0 0 1922.71 1200"><defs><style>.cls-1{fill:#b7d178;}.cls-2{fill:none;}.cls-3{fill:#afcc69;}.cls-4{fill:#93b860;}.cls-5{fill:#899a6a;}.cls-6{fill:#a9c975;}</style></defs><title>map-bg-v2</title><g id="Layer_1" data-name="Layer 1"><rect class="cls-1" x="-7.74" y="-5.56" width="185.03" height="1207.74"/><path class="cls-2" d="M801.35,1.59h290.86l-.45-.5H800.91Z"/><path class="cls-3" d="M2018.45,127.35h-3.93a88.76,88.76,0,0,0-62.76,26h0a88.76,88.76,0,0,0-26,62.76V282a84,84,0,0,1-24.62,59.43h0a84,84,0,0,1-59.43,24.62h-43.87a82.6,82.6,0,0,0-58.41,24.19h0a82.6,82.6,0,0,0-24.19,58.41v65.09a54.34,54.34,0,0,1-15.92,38.43h0a54.34,54.34,0,0,1-38.43,15.92H1641a54.34,54.34,0,0,1-38.43-15.92l-45-45a116.51,116.51,0,0,0-82.39-34.12h-39.72A116.51,116.51,0,0,0,1353,507.18h0A57.38,57.38,0,0,1,1312.46,524h-5.52a57.38,57.38,0,0,1-40.57-16.81L1254.15,495a57.38,57.38,0,0,1-16.81-40.57h0a57.38,57.38,0,0,1,16.81-40.57h0a49.76,49.76,0,0,0-1.06-71.4l-33.82-31.87a242.39,242.39,0,0,1-76.15-176.4h0a198,198,0,0,0-50.9-132.54H801.35a89.85,89.85,0,0,1,21.9,58.79h0a89.85,89.85,0,0,1-26.32,63.53l-21,21a89.85,89.85,0,0,1-63.53,26.32h-25.8A91.47,91.47,0,0,1,622,144.38h0a91.47,91.47,0,0,0-64.68-26.79H471.67a103,103,0,0,1-72.82-30.16l-4-4a103,103,0,0,0-72.82-30.16h0a103,103,0,0,1-72.82-30.16L227.7,1.59H-200.42L-136.1,65.9a68.78,68.78,0,0,1,17.17,28.63q.73,2.41,1.29,4.88.37,1.64.66,3.3a68.76,68.76,0,0,1,.94,8.41q.08,1.7.08,3.41h0v45.71h10.29a115,115,0,0,1,81.33,33.69L-14.25,204a115,115,0,0,1,33.69,81.33h0a115,115,0,0,0,33.69,81.33L64.8,378.35a115,115,0,0,1,33.69,81.33v58a64.36,64.36,0,0,1-18.85,45.51l-8.3,8.3A64.36,64.36,0,0,0,52.49,617h0a64.36,64.36,0,0,0,18.85,45.51l5.3,5.3a64.36,64.36,0,0,1,18.85,45.51v77.49a75.1,75.1,0,0,0,22,53.11h0a75.1,75.1,0,0,1,22,53.11h0a242.89,242.89,0,0,1-71.14,171.75h0c-.29.29-.59.56-.88.85v2.74q0,.86,0,1.71,0,1.71.17,3.4a68.75,68.75,0,0,0,1.29,9.07q.36,1.69.79,3.35.24.9.5,1.8.19.63.38,1.26.6,1.91,1.3,3.77.47,1.25,1,2.47.34.8.7,1.6c.38.83.76,1.65,1.17,2.46.31.61.63,1.21,1,1.81q1.51,2.79,3.28,5.45,1.07,1.6,2.22,3.14.75,1,1.54,2,.95,1.17,2,2.3l.86,1q.93,1,1.9,2l.12.12,29.22,29.22,4.87,4.87,17,17a68.78,68.78,0,0,1,17.15,28.55l.08.28q.4,1.34.75,2.7t.64,2.73c.06.3.13.59.19.89q.5,2.48.81,5,.1.84.19,1.68.17,1.69.25,3.39t.08,3.41h0V1336.4h0a222.44,222.44,0,0,1-3.41,40.27h103L258,1303a76.42,76.42,0,0,1,22.38-54.58h0a76.42,76.42,0,0,0,22.38-54v-44.07a76.42,76.42,0,0,1,22.38-54l20.81-20.81A76.42,76.42,0,0,1,400,1053h36.3a87.49,87.49,0,0,1,61.86,25.62h0A87.49,87.49,0,0,0,560,1104.29h7a87.49,87.49,0,0,1,61.86,25.62l7.91,7.91a87.49,87.49,0,0,0,61.86,25.62H742A69.67,69.67,0,0,0,791.3,1143l4.31-4.31a69.67,69.67,0,0,1,49.26-20.41H859.6a69.67,69.67,0,0,0,49.26-20.41h0a69.67,69.67,0,0,1,49.26-20.41h22.41a52.32,52.32,0,0,1,37,15.32l42.53,42.53a52.32,52.32,0,0,1,15.32,37v31.11a52.32,52.32,0,0,1-15.32,37h0a52.32,52.32,0,0,0-15.32,37h0a111.41,111.41,0,0,0,32.63,78.78l20.42,20.42h343.66l-70.88-75.06A212.67,212.67,0,0,1,1348.69,1037h0a126.29,126.29,0,0,1,89.3-37h0a126.29,126.29,0,0,1,89.3,37l19.19,19.19a81.71,81.71,0,0,0,57.78,23.93h0A81.71,81.71,0,0,0,1686,998.39v-48a111.22,111.22,0,0,1,32.58-78.64h0a111.22,111.22,0,0,1,78.64-32.58h22.67a111.22,111.22,0,0,1,78.64,32.58l23.18,23.18A58.53,58.53,0,0,0,1963.06,912h0a58.53,58.53,0,0,1,41.39,17.14l17.23,17.23a58.53,58.53,0,0,0,41.39,17.14h60.06v-87.4h-8.06a122.66,122.66,0,0,1-86.73-35.93h0a122.66,122.66,0,0,0-86.73-35.93h-50.05a79.7,79.7,0,0,1-56.36-23.34l-6.19-6.19q-2.38-2.38-4.54-4.94l-8.87-12.89a79.69,79.69,0,0,1-9.93-38.52v-7.75A79.7,79.7,0,0,1,1829,654.28h0a79.7,79.7,0,0,1,56.36-23.34h38.23a41.87,41.87,0,0,0,41.87-41.87h0a41.87,41.87,0,0,1,12.26-29.6l11.37-11.37a249,249,0,0,1,134-69.35V195.26l-41.91-41.91A88.76,88.76,0,0,0,2018.45,127.35ZM943.27,956.73a85.6,85.6,0,0,1-25.07,60.53h0a85.6,85.6,0,0,1-60.53,25.07h-18.1A85.6,85.6,0,0,0,779,1067.4l-8.48,8.48a85.84,85.84,0,0,1-60.7,25.14h0a85.84,85.84,0,0,1-60.7-25.14l-1.26-1.26a85.84,85.84,0,0,0-60.7-25.14H543.55a75.27,75.27,0,0,1-53.23-22h0a75.27,75.27,0,0,0-53.23-22H411.26a75.27,75.27,0,0,0-53.23,22l-5.37,5.37a67.56,67.56,0,0,1-47.77,19.79H292.77A67.56,67.56,0,0,1,245,1032.8l-28.52-28.52a67.56,67.56,0,0,1-19.79-47.77h0a67.56,67.56,0,0,1,19.79-47.77h0a102.24,102.24,0,0,0,29.94-72.18q0-.55,0-1.1A59.38,59.38,0,0,0,229,793.36l-.44-.44A57.72,57.72,0,0,1,211.62,752l.05-48.82a59.33,59.33,0,0,1,17.38-41.88h0a164.65,164.65,0,0,1,116.43-48.23H400a105.42,105.42,0,0,1,63.25,21.08l67.28,50.45A99.09,99.09,0,0,0,590,704.47H633.6a99.09,99.09,0,0,0,70.07-29h0a99.09,99.09,0,0,1,70.07-29h21.58a112.69,112.69,0,0,1,79.69,33h0a112.69,112.69,0,0,1,33,79.69V797a60.19,60.19,0,0,0,17.63,42.56h0a60.19,60.19,0,0,1,17.63,42.56Zm103.32-429.35H785.66a77.28,77.28,0,0,1-54.08-22.08l-27-26.5a77.28,77.28,0,0,1-23.2-55.2V359.48A77.28,77.28,0,0,1,704,304.84l35.8-35.8a77.28,77.28,0,0,1,54.65-22.63h21.71a77.28,77.28,0,0,0,54.65-22.63l37.28-37.28a77.28,77.28,0,0,1,54.65-22.63h0A77.28,77.28,0,0,1,1040,241.14V256a77.28,77.28,0,0,0,22.63,54.65L1112,360a77.28,77.28,0,0,1,22.63,54.65v24.68A77.28,77.28,0,0,1,1112,494l-10.75,10.75A77.28,77.28,0,0,1,1046.59,527.38Zm565.94,230.23a170.54,170.54,0,0,1-50,120.59L1550.77,890a130.21,130.21,0,0,1-92.07,38.14h0A122.63,122.63,0,0,1,1372,892.23h0a122.63,122.63,0,0,0-86.71-35.92h-47.6A122.63,122.63,0,0,1,1151,820.4l-42-42a50.43,50.43,0,0,1-14.77-35.66h0a50.43,50.43,0,0,1,22.56-42l48.75-32.33a91.19,91.19,0,0,1,97.92-1.83h0a91.19,91.19,0,0,0,93.36,1l93.4-54.3A97.54,97.54,0,0,1,1501.62,600h0a97.55,97.55,0,0,1,83.31,51.05l15.83,29.22a97.55,97.55,0,0,1,11.77,46.46Z"/><path class="cls-1" d="M1584.93,651.07A97.55,97.55,0,0,0,1501.62,600h0a97.54,97.54,0,0,0-51.49,13.19l-93.4,54.3a91.19,91.19,0,0,1-93.36-1h0a91.19,91.19,0,0,0-97.92,1.83l-48.75,32.33a50.43,50.43,0,0,0-22.56,42h0a50.43,50.43,0,0,0,14.77,35.66l42,42a122.63,122.63,0,0,0,86.71,35.92h47.6A122.63,122.63,0,0,1,1372,892.23h0a122.63,122.63,0,0,0,86.71,35.92h0A130.21,130.21,0,0,0,1550.77,890l11.81-11.81a170.54,170.54,0,0,0,50-120.59V726.75a97.55,97.55,0,0,0-11.77-46.46Z"/><path class="cls-1" d="M1112,494a77.28,77.28,0,0,0,22.63-54.65V414.66A77.28,77.28,0,0,0,1112,360l-49.38-49.38A77.28,77.28,0,0,1,1040,256V241.14a77.28,77.28,0,0,0-77.28-77.28h0a77.28,77.28,0,0,0-54.65,22.63l-37.28,37.28a77.28,77.28,0,0,1-54.65,22.63H794.41A77.28,77.28,0,0,0,739.77,269L704,304.84a77.28,77.28,0,0,0-22.63,54.65V423.6a77.28,77.28,0,0,0,23.2,55.2l27,26.5a77.28,77.28,0,0,0,54.08,22.08h260.93a77.28,77.28,0,0,0,54.65-22.63Z"/><path class="cls-1" d="M1143.12,134.13h0a242.39,242.39,0,0,0,76.15,176.4l33.82,31.87a49.76,49.76,0,0,1,1.06,71.4h0a57.38,57.38,0,0,0-16.81,40.57h0A57.38,57.38,0,0,0,1254.15,495l12.23,12.23A57.38,57.38,0,0,0,1306.95,524h5.52A57.38,57.38,0,0,0,1353,507.18h0a116.51,116.51,0,0,1,82.39-34.12h39.72a116.51,116.51,0,0,1,82.39,34.12l45,45A54.34,54.34,0,0,0,1641,568.13h19.92a54.34,54.34,0,0,0,38.43-15.92h0a54.34,54.34,0,0,0,15.92-38.43V448.69a82.6,82.6,0,0,1,24.19-58.41h0a82.6,82.6,0,0,1,58.41-24.19h43.87a84,84,0,0,0,59.43-24.62h0A84,84,0,0,0,1925.77,282V216.11a88.76,88.76,0,0,1,26-62.76h0a88.76,88.76,0,0,1,62.76-26h3.93a88.76,88.76,0,0,1,62.76,26l41.91,41.91V1.09H1091.77l.45.5A198,198,0,0,1,1143.12,134.13Z"/><path class="cls-1" d="M1977.71,559.47a41.87,41.87,0,0,0-12.26,29.6h0a41.87,41.87,0,0,1-41.87,41.87h-38.23A79.7,79.7,0,0,0,1829,654.28h0a79.7,79.7,0,0,0-23.34,56.36v7.75a79.69,79.69,0,0,0,9.93,38.52l8.87,12.89q2.16,2.56,4.54,4.94l6.19,6.19a79.7,79.7,0,0,0,56.36,23.34h50.05a122.66,122.66,0,0,1,86.73,35.93h0a122.66,122.66,0,0,0,86.73,35.93h8.06V798.58a31,31,0,0,1-7.2-2.51l-128.18-63a30.39,30.39,0,0,1-17-27.28h0A30.39,30.39,0,0,1,1991.43,677l26.57-9a30.39,30.39,0,0,0,20.67-28.79h0a67.28,67.28,0,0,1,27.64-54.36l26.81-19.55a30.09,30.09,0,0,1,30-3.32V478.75a249,249,0,0,0-134,69.35Z"/><path class="cls-1" d="M249.24,23.13a103,103,0,0,0,72.82,30.16h0a103,103,0,0,1,72.82,30.16l4,4a103,103,0,0,0,72.82,30.16h85.62A91.47,91.47,0,0,1,622,144.38h0a91.47,91.47,0,0,0,64.68,26.79h25.8A89.85,89.85,0,0,0,776,144.86l21-21a89.85,89.85,0,0,0,26.32-63.53h0a89.85,89.85,0,0,0-21.9-58.79l-.44-.5H227.2l.5.5Z"/><path class="cls-1" d="M925.64,839.53A60.19,60.19,0,0,1,908,797V759.11a112.69,112.69,0,0,0-33-79.69h0a112.69,112.69,0,0,0-79.69-33H773.74a99.09,99.09,0,0,0-70.07,29h0a99.09,99.09,0,0,1-70.07,29H590a99.09,99.09,0,0,1-59.45-19.82L463.28,634.2A105.42,105.42,0,0,0,400,613.11H345.48a164.65,164.65,0,0,0-116.43,48.23h0a59.33,59.33,0,0,0-17.38,41.88L211.62,752a57.72,57.72,0,0,0,16.91,40.88l.44.44a59.38,59.38,0,0,1,17.46,42.09q0,.55,0,1.1a102.24,102.24,0,0,1-29.94,72.18h0a67.56,67.56,0,0,0-19.79,47.77h0a67.56,67.56,0,0,0,19.79,47.77L245,1032.8a67.56,67.56,0,0,0,47.77,19.79h12.12a67.56,67.56,0,0,0,47.77-19.79l5.37-5.37a75.27,75.27,0,0,1,53.23-22h25.83a75.27,75.27,0,0,1,53.23,22h0a75.27,75.27,0,0,0,53.23,22h43.66a85.84,85.84,0,0,1,60.7,25.14l1.26,1.26a85.84,85.84,0,0,0,60.7,25.14h0a85.84,85.84,0,0,0,60.7-25.14l8.48-8.48a85.6,85.6,0,0,1,60.53-25.07h18.1a85.6,85.6,0,0,0,60.53-25.07h0a85.6,85.6,0,0,0,25.07-60.53V882.09a60.19,60.19,0,0,0-17.63-42.56Z"/><path class="cls-1" d="M2063.07,963.53a58.53,58.53,0,0,1-41.39-17.14l-17.23-17.23A58.53,58.53,0,0,0,1963.06,912a58.53,58.53,0,0,1-41.39-17.14L1898.5,871.7a111.22,111.22,0,0,0-78.64-32.58h-22.67A111.22,111.22,0,0,0,1686,950.34v48a81.71,81.71,0,0,1-139.48,57.78L1527.29,1037a126.29,126.29,0,0,0-178.6,0h0a212.67,212.67,0,0,0,21.88,264.63l70.88,75.06h681.67V963.53Z"/><path class="cls-1" d="M1077.37,1356.24a111.41,111.41,0,0,1-32.63-78.78h0a52.32,52.32,0,0,1,15.32-37,52.32,52.32,0,0,0,15.32-37v-31.11a52.32,52.32,0,0,0-15.32-37l-42.53-42.53a52.32,52.32,0,0,0-37-15.32H958.13a69.67,69.67,0,0,0-49.26,20.41,69.67,69.67,0,0,1-49.26,20.41H844.87a69.67,69.67,0,0,0-49.26,20.41L791.3,1143A69.67,69.67,0,0,1,742,1163.44h-43.4a87.49,87.49,0,0,1-61.86-25.62l-7.9-7.9A87.49,87.49,0,0,0,567,1104.29h-7a87.49,87.49,0,0,1-61.86-25.62A87.49,87.49,0,0,0,436.28,1053H400a76.42,76.42,0,0,0-54,22.38l-20.81,20.81a76.42,76.42,0,0,0-22.38,54v44.07a76.42,76.42,0,0,1-22.38,54h0A76.42,76.42,0,0,0,258,1303l.52,73.71h839.29Z"/><path class="cls-1" d="M-137.47-6.77a97.55,97.55,0,0,0,16.84,96.25h0a97.54,97.54,0,0,0,44,29.88l102.51,34.1a91.19,91.19,0,0,1,61,70.66h0A91.19,91.19,0,0,0,153,296.33l56.5,15.16A50.43,50.43,0,0,0,256,300.59h0a50.43,50.43,0,0,0,17-34.67l3.7-59.35a122.63,122.63,0,0,0-30.45-88.78L214.69,82.1A122.63,122.63,0,0,1,184.25-6.68h0A122.63,122.63,0,0,0,153.8-95.46h0a130.21,130.21,0,0,0-89.52-43.8l-16.67-1A170.54,170.54,0,0,0-75.86-98L-99-77.54A97.55,97.55,0,0,0-126-38Z"/><path id="bush" class="cls-4" d="M583.94,567.8a25,25,0,0,0-24.09,18.46,24.92,24.92,0,0,0-35.35,16.81H645.12c-3.32-9.88-11.63-17.12-22.63-17.12a24.82,24.82,0,0,0-13.75,4.13A25,25,0,0,0,583.94,567.8Z"/><path id="bush-2" data-name="bush" class="cls-4" d="M1003.94,893.8a25,25,0,0,0-24.09,18.46,24.92,24.92,0,0,0-35.35,16.81h120.62c-3.32-9.88-11.63-17.12-22.63-17.12a24.82,24.82,0,0,0-13.75,4.13A25,25,0,0,0,1003.94,893.8Z"/><path id="bush-3" data-name="bush" class="cls-4" d="M1332.94,523.8a25,25,0,0,0-24.09,18.46,24.92,24.92,0,0,0-35.35,16.81h120.62c-3.32-9.88-11.63-17.12-22.63-17.12a24.82,24.82,0,0,0-13.75,4.13A25,25,0,0,0,1332.94,523.8Z"/><path id="bush-4" data-name="bush" class="cls-4" d="M900.94,75.8a25,25,0,0,0-24.09,18.46,24.92,24.92,0,0,0-35.35,16.81H962.12c-3.32-9.88-11.63-17.12-22.63-17.12a24.82,24.82,0,0,0-13.75,4.13A25,25,0,0,0,900.94,75.8Z"/><rect class="cls-5" x="1060.99" y="540.35" width="3.29" height="41.72"/><path class="cls-4" d="M1075.87,523.17a15,15,0,0,0-4.79-19.35,9.62,9.62,0,1,0-16.72-.13,15,15,0,0,0-5,19.54,19.38,19.38,0,1,0,26.47-.06Z"/><path id="bush-5" data-name="bush" class="cls-4" d="M1051.89,575.47a6.55,6.55,0,0,1,4.83,2.12,5.91,5.91,0,0,1,7.64-3,8.22,8.22,0,0,1,16.1,1.25,8.22,8.22,0,0,1,11.46,6.23h-46.76A6.75,6.75,0,0,1,1051.89,575.47Z"/><rect class="cls-5" x="1510.11" y="785.94" width="3.29" height="41.72"/><path class="cls-4" d="M1525,768.75a15,15,0,0,0-4.79-19.35,9.62,9.62,0,1,0-16.72-.13,15,15,0,0,0-5,19.54,19.38,19.38,0,1,0,26.47-.06Z"/><path id="bush-6" data-name="bush" class="cls-4" d="M1501,821.05a6.55,6.55,0,0,1,4.83,2.12,5.91,5.91,0,0,1,7.64-3,34.39,34.39,0,0,0,19.44.53,8.25,8.25,0,0,1,8.12,6.94h-46.76A6.75,6.75,0,0,1,1501,821.05Z"/><rect class="cls-5" x="609.86" y="159.9" width="3.29" height="41.72"/><path class="cls-4" d="M624.73,142.71a15,15,0,0,0-4.79-19.35,9.62,9.62,0,1,0-16.72-.13,15,15,0,0,0-5,19.54,19.38,19.38,0,1,0,26.47-.06Z"/><path id="bush-7" data-name="bush" class="cls-4" d="M600.75,195a6.55,6.55,0,0,1,4.83,2.12,5.91,5.91,0,0,1,7.64-3,8.22,8.22,0,0,1,16.1,1.25,8.22,8.22,0,0,1,11.46,6.23H594A6.75,6.75,0,0,1,600.75,195Z"/><path id="bush-8" data-name="bush" class="cls-4" d="M413.14,356.71A25,25,0,0,0,389,375.17,24.92,24.92,0,0,0,353.7,392H474.32c-3.32-9.88-11.63-17.12-22.63-17.12A24.82,24.82,0,0,0,437.94,379,25,25,0,0,0,413.14,356.71Z"/><rect class="cls-5" x="1328.86" y="1106.9" width="3.29" height="41.72"/><path class="cls-4" d="M1343.73,1089.71a15,15,0,0,0-4.79-19.35,9.62,9.62,0,1,0-16.72-.13,15,15,0,0,0-5,19.54,19.38,19.38,0,1,0,26.47-.06Z"/><path id="bush-9" data-name="bush" class="cls-4" d="M1319.75,1142a6.55,6.55,0,0,1,4.83,2.12,5.91,5.91,0,0,1,7.64-3,34.39,34.39,0,0,0,19.44.53,8.25,8.25,0,0,1,8.12,6.94H1313A6.75,6.75,0,0,1,1319.75,1142Z"/><path id="bush-10" data-name="bush" class="cls-6" d="M1329.85,379.41a8,8,0,0,1,1.38.12,8,8,0,0,1,14.2-3.13,8,8,0,0,1,9.81-4.61c0-.12,0-.25,0-.37a8,8,0,0,1,16-.58A8,8,0,0,1,1386,375c0,.2,0,.41,0,.61a8,8,0,0,1,10.9,11.19h-75A8,8,0,0,1,1329.85,379.41Z"/><g id="tree"><rect class="cls-5" x="1342.77" y="344.68" width="3.32" height="42.15"/><rect class="cls-4" x="1330.4" y="301.4" width="28.25" height="57.16" rx="14.12" ry="14.12"/></g><path id="bush-11" data-name="bush" class="cls-4" d="M1387.18,379.78A7,7,0,0,0,1382,382a6.31,6.31,0,0,0-8.15-3.19,8.78,8.78,0,0,0-17.18,1.33,8.78,8.78,0,0,0-12.23,6.61h49.74A7,7,0,0,0,1387.18,379.78Z"/><path id="bush-12" data-name="bush" class="cls-6" d="M575.85,867.41a8,8,0,0,1,1.38.12,8,8,0,0,1,14.2-3.13,8,8,0,0,1,9.81-4.61c0-.12,0-.25,0-.37a8,8,0,0,1,16-.58A8,8,0,0,1,632,863c0,.2,0,.41,0,.61a8,8,0,0,1,10.9,11.19h-75A8,8,0,0,1,575.85,867.41Z"/><g id="tree-2" data-name="tree"><rect class="cls-5" x="588.77" y="832.68" width="3.32" height="42.15"/><rect class="cls-4" x="576.4" y="789.4" width="28.25" height="57.16" rx="14.12" ry="14.12"/></g><path id="bush-13" data-name="bush" class="cls-4" d="M633.18,867.78A7,7,0,0,0,628,870a6.31,6.31,0,0,0-8.15-3.19,8.78,8.78,0,0,0-17.18,1.33,8.78,8.78,0,0,0-12.23,6.61H640.2A7,7,0,0,0,633.18,867.78Z"/><path id="bush-14" data-name="bush" class="cls-6" d="M352.13,727.79a8,8,0,0,1,1.38.12,8,8,0,0,1,14.2-3.13,8,8,0,0,1,9.81-4.61c0-.12,0-.25,0-.37a8,8,0,0,1,16-.58,8,8,0,0,1,14.81,4.17c0,.2,0,.41,0,.61a8,8,0,0,1,10.9,11.19h-75A8,8,0,0,1,352.13,727.79Z"/><g id="tree-3" data-name="tree"><rect class="cls-5" x="365.05" y="693.07" width="3.32" height="42.15"/><rect class="cls-4" x="352.68" y="649.79" width="28.25" height="57.16" rx="14.12" ry="14.12"/></g><path id="bush-15" data-name="bush" class="cls-4" d="M409.47,728.17a7,7,0,0,0-5.15,2.26,6.31,6.31,0,0,0-8.15-3.19A8.78,8.78,0,0,0,379,728.58a8.78,8.78,0,0,0-12.23,6.61h49.74A7,7,0,0,0,409.47,728.17Z"/></g></svg>