<svg xmlns="http://www.w3.org/2000/svg" width="250" height="250" viewBox="0 0 250 250"><defs><style>.cls-1{fill:#afcc69;stroke:#c7da99;stroke-width:20px;}.cls-1,.cls-16,.cls-5{stroke-miterlimit:10;}.cls-2{opacity:0.15;}.cls-3{fill:#ecedf0;}.cls-4{font-size:18px;font-family:Roboto-Bold, Roboto;font-weight:700;}.cls-5{fill:none;stroke:#666;stroke-width:3.24px;}.cls-6{fill:#8e8e8e;}.cls-7{fill:#4d4d4d;}.cls-8{fill:#f2f2f2;}.cls-9{fill:#fff;}.cls-10{fill:#adadad;}.cls-11{fill:#848484;}.cls-12{fill:#8c8c8c;}.cls-13{fill:#666;}.cls-14{fill:#b3b3b3;}.cls-15{fill:#ccc;}.cls-16{fill:#bababa;stroke:#bababa;stroke-width:0.32px;}</style></defs><title>mod1-locked-v2</title><g id="Layer_1" data-name="Layer 1"><circle class="cls-1" cx="123.92" cy="125" r="97"/><rect class="cls-2" x="60.73" y="181.33" width="139" height="38"/><rect class="cls-3" x="55.06" y="175.66" width="139" height="38"/><text class="cls-4" transform="translate(86.8 200.66)">Module 1</text><line class="cls-5" x1="19.06" y1="115.61" x2="19.06" y2="156.7"/><path class="cls-6" d="M32.09,98.68a14.75,14.75,0,0,0-4.72-19.06,9.47,9.47,0,1,0-16.47-.13A14.75,14.75,0,0,0,6,98.74a19.08,19.08,0,1,0,26.07-.06Z"/><path id="bush" class="cls-6" d="M8.47,150.19a6.45,6.45,0,0,1,4.75,2.09,5.82,5.82,0,0,1,7.52-2.94,8.1,8.1,0,0,1,15.85,1.23,8.09,8.09,0,0,1,11.29,6.14H1.83A6.65,6.65,0,0,1,8.47,150.19Z"/><polygon class="cls-7" points="125.63 78.88 79.95 78.88 79.95 105.23 74.45 108.4 79.95 108.4 125.63 108.4 176.81 108.4 125.63 78.88"/><rect id="Front_wall" data-name="Front wall" class="cls-8" x="28.78" y="108.4" width="102.36" height="48.3"/><rect class="cls-9" x="28.78" y="146.63" width="102.36" height="10.07"/><g id="Side"><rect class="cls-10" x="131.13" y="108.4" width="45.67" height="48.3"/></g><g id="brick_wall" data-name="brick wall"><polygon class="cls-10" points="157.57 151.12 144.35 151.12 131.13 151.12 131.13 151.16 164.18 151.16 164.18 151.12 157.57 151.12"/><polygon class="cls-10" points="144.35 115.17 144.35 112.29 131.13 112.29 131.13 115.17 137.78 115.17 144.35 115.17"/><polygon class="cls-10" points="150.99 115.17 157.57 115.17 157.57 112.29 144.35 112.29 144.35 115.17 150.99 115.17"/><rect class="cls-10" x="157.57" y="112.29" width="6.61" height="2.88"/><polygon class="cls-10" points="144.35 124.24 144.35 119.7 137.78 119.7 131.13 119.7 131.13 124.24 137.78 124.24 144.35 124.24"/><polygon class="cls-10" points="157.57 124.24 157.57 119.7 150.99 119.7 144.35 119.7 144.35 124.24 150.99 124.24 157.57 124.24"/><rect class="cls-10" x="157.57" y="119.7" width="6.61" height="4.53"/><rect class="cls-11" x="131.13" y="115.17" width="6.64" height="4.53"/><polygon class="cls-10" points="150.99 115.17 144.35 115.17 137.78 115.17 137.78 119.7 144.35 119.7 150.99 119.7 150.99 115.17"/><polygon class="cls-10" points="150.99 115.17 150.99 119.7 157.57 119.7 164.18 119.7 164.18 115.17 157.57 115.17 150.99 115.17"/><polygon class="cls-10" points="144.35 133.31 144.35 128.77 137.78 128.77 131.13 128.77 131.13 133.31 137.78 133.31 144.35 133.31"/><polygon class="cls-10" points="157.57 133.31 157.57 128.77 150.99 128.77 144.35 128.77 144.35 133.31 150.99 133.31 157.57 133.31"/><rect class="cls-10" x="157.57" y="128.77" width="6.61" height="4.53"/><rect class="cls-10" x="131.13" y="133.31" width="6.64" height="4.53"/><rect class="cls-10" x="124.33" y="115.2" width="6.8" height="4.53"/><rect class="cls-10" x="124.33" y="142.09" width="6.8" height="4.53"/><polygon class="cls-10" points="150.99 124.24 144.35 124.24 137.78 124.24 137.78 128.77 144.35 128.77 150.99 128.77 150.99 124.24"/><polygon class="cls-10" points="150.99 124.24 150.99 128.77 157.57 128.77 164.18 128.77 164.18 124.24 157.57 124.24 150.99 124.24"/><polygon class="cls-11" points="144.35 142.05 144.35 137.84 137.78 137.84 131.13 137.84 131.13 142.05 137.78 142.05 144.35 142.05"/><polygon class="cls-10" points="157.57 142.05 157.57 137.84 150.99 137.84 144.35 137.84 144.35 142.05 150.99 142.05 157.57 142.05"/><rect class="cls-10" x="157.57" y="137.84" width="6.61" height="4.21"/><rect class="cls-11" x="131.13" y="133.31" width="6.64" height="4.53"/><polygon class="cls-10" points="150.99 133.31 144.35 133.31 137.78 133.31 137.78 137.84 144.35 137.84 150.99 137.84 150.99 133.31"/><polygon class="cls-10" points="150.99 133.31 150.99 137.84 157.57 137.84 164.18 137.84 164.18 133.31 157.57 133.31 150.99 133.31"/><polygon class="cls-10" points="144.35 146.59 137.78 146.59 131.13 146.59 131.13 151.12 144.35 151.12 144.35 146.59"/><polygon class="cls-10" points="150.99 146.59 144.35 146.59 144.35 151.12 157.57 151.12 157.57 146.59 150.99 146.59"/><rect class="cls-10" x="157.57" y="146.59" width="6.61" height="4.53"/><polygon class="cls-11" points="137.78 142.05 131.13 142.05 131.13 142.38 131.13 146.59 137.78 146.59 137.78 142.05"/><polygon class="cls-10" points="150.99 142.05 144.35 142.05 137.78 142.05 137.78 146.59 144.35 146.59 150.99 146.59 150.99 142.05"/><polygon class="cls-10" points="150.99 142.05 150.99 146.59 157.57 146.59 164.18 146.59 164.18 142.05 157.57 142.05 150.99 142.05"/></g><g id="Door"><rect class="cls-12" x="74.45" y="116.5" width="16.2" height="30.12"/><rect class="cls-13" x="74.52" y="116.58" width="16.19" height="6.45"/><rect class="cls-13" x="59.39" y="131.56" width="36.6" height="6.48" transform="translate(-57.11 212.49) rotate(-90)"/></g><g id="stairs"><rect class="cls-14" x="84.28" y="146.63" width="6.46" height="10.07"/><rect class="cls-15" x="70.5" y="146.63" width="16.86" height="5.05"/><rect class="cls-14" x="67.42" y="151.68" width="16.86" height="5.02"/><rect class="cls-15" x="67.42" y="153.41" width="16.86" height="3.29"/></g><g id="window"><rect class="cls-12" x="43.03" y="119.42" width="12.96" height="18.46"/><rect class="cls-13" x="43.03" y="119.42" width="12.96" height="6.48"/></g><g id="window-2" data-name="window"><rect class="cls-12" x="107.43" y="119.44" width="13.06" height="18.5"/><rect class="cls-13" x="107.49" y="119.42" width="12.96" height="6.48"/></g><rect class="cls-15" x="131.13" y="146.63" width="45.67" height="10.07"/><polygon class="cls-13" points="28.77 108.4 131.13 108.4 79.95 78.88 28.77 108.4"/><rect class="cls-9" x="28.78" y="108.4" width="102.36" height="4.21"/><rect class="cls-15" x="131.13" y="108.4" width="45.67" height="4.21"/><g id="Garage"><polygon class="cls-15" points="208.31 103.25 175.27 103.25 175.19 117.8 183.31 117.8 208.23 117.8 233.47 117.8 233.49 117.78 208.31 103.25"/><rect id="Front_wall-2" data-name="Front wall" class="cls-8" x="150.25" y="117.8" width="50.21" height="38.9"/><g id="Side-2" data-name="Side"><rect class="cls-10" x="200.45" y="117.8" width="33.04" height="38.9"/></g><g id="brick_wall-2" data-name="brick wall"><polygon class="cls-10" points="213.67 120.67 213.67 117.8 200.45 117.8 200.45 120.67 207.09 120.67 213.67 120.67"/><polygon class="cls-10" points="220.31 120.67 226.89 120.67 226.89 117.8 213.67 117.8 213.67 120.67 220.31 120.67"/><rect class="cls-10" x="226.89" y="117.8" width="6.61" height="2.88"/><polygon class="cls-10" points="213.67 129.75 213.67 125.21 207.09 125.21 200.45 125.21 200.45 129.75 207.09 129.75 213.67 129.75"/><polygon class="cls-10" points="226.89 129.75 226.89 125.21 220.31 125.21 213.67 125.21 213.67 129.75 220.31 129.75 226.89 129.75"/><rect class="cls-11" x="226.89" y="125.21" width="6.61" height="4.53"/><rect class="cls-10" x="200.45" y="120.68" width="6.64" height="4.53"/><polygon class="cls-10" points="220.31 120.67 213.67 120.67 207.09 120.67 207.09 125.21 213.67 125.21 220.31 125.21 220.31 120.67"/><polygon class="cls-11" points="220.31 120.67 220.31 125.21 226.89 125.21 233.49 125.21 233.49 120.67 226.89 120.67 220.31 120.67"/><polygon class="cls-11" points="213.67 138.81 213.67 134.28 207.09 134.28 200.45 134.28 200.45 138.81 207.09 138.81 213.67 138.81"/><polygon class="cls-10" points="226.89 138.81 226.89 134.28 220.31 134.28 213.67 134.28 213.67 138.81 220.31 138.81 226.89 138.81"/><rect class="cls-10" x="226.89" y="134.28" width="6.61" height="4.53"/><rect class="cls-11" x="200.45" y="138.81" width="6.64" height="4.53"/><rect class="cls-10" x="193.65" y="138.85" width="6.8" height="4.53"/><polygon class="cls-10" points="220.31 129.75 213.67 129.75 207.09 129.75 207.09 134.28 213.67 134.28 220.31 134.28 220.31 129.75"/><polygon class="cls-10" points="220.31 129.75 220.31 134.28 226.89 134.28 233.49 134.28 233.49 129.75 226.89 129.75 220.31 129.75"/><polygon class="cls-10" points="213.67 147.56 213.67 143.35 207.09 143.35 200.45 143.35 200.45 147.56 207.09 147.56 213.67 147.56"/><polygon class="cls-10" points="226.89 147.56 226.89 143.35 220.31 143.35 213.67 143.35 213.67 147.56 220.31 147.56 226.89 147.56"/><rect class="cls-11" x="226.89" y="143.35" width="6.61" height="4.21"/><rect class="cls-11" x="200.45" y="138.81" width="6.64" height="4.53"/><polygon class="cls-10" points="220.31 138.81 213.67 138.81 207.09 138.81 207.09 143.35 213.67 143.35 220.31 143.35 220.31 138.81"/><polygon class="cls-10" points="220.31 138.81 220.31 143.35 226.89 143.35 233.49 143.35 233.49 138.81 226.89 138.81 220.31 138.81"/><polygon class="cls-10" points="213.67 152.1 207.09 152.1 200.45 152.1 200.45 156.7 213.67 156.7 213.67 152.1"/><polygon class="cls-10" points="220.31 152.1 213.67 152.1 213.67 156.7 226.89 156.7 226.89 152.1 220.31 152.1"/><rect class="cls-10" x="226.89" y="152.1" width="6.61" height="4.6"/><polygon class="cls-10" points="207.09 147.56 200.45 147.56 200.45 147.88 200.45 152.1 207.09 152.1 207.09 147.56"/><polygon class="cls-10" points="220.31 147.56 213.67 147.56 207.09 147.56 207.09 152.1 213.67 152.1 220.31 152.1 220.31 147.56"/><polygon class="cls-11" points="220.31 147.56 220.31 152.1 226.89 152.1 233.49 152.1 233.49 147.56 226.89 147.56 220.31 147.56"/></g><g id="garage_door" data-name="garage door"><rect class="cls-12" x="158.99" y="126.54" width="32.39" height="30.16"/><rect class="cls-13" x="158.99" y="126.54" width="32.39" height="6.48"/><rect class="cls-13" x="147.15" y="138.38" width="30.16" height="6.48" transform="translate(20.61 303.85) rotate(-90)"/></g><polygon class="cls-9" points="175.27 103.25 150.25 117.78 150.27 117.8 200.43 117.8 200.45 117.78 175.27 103.25"/><g id="garage_door_8_rows" data-name="garage door 8 rows"><rect class="cls-13" x="158.99" y="126.54" width="32.39" height="3.77"/><rect class="cls-12" x="158.99" y="130.31" width="32.39" height="3.77"/><rect class="cls-13" x="158.99" y="134.07" width="32.39" height="3.77"/><rect class="cls-12" x="158.99" y="137.84" width="32.39" height="3.77"/><rect class="cls-13" x="158.99" y="141.6" width="32.39" height="3.77"/><rect class="cls-12" x="158.99" y="145.37" width="32.39" height="3.77"/><rect class="cls-13" x="158.99" y="149.14" width="32.39" height="3.77"/><rect class="cls-12" x="158.99" y="152.9" width="32.39" height="3.8"/><rect class="cls-13" x="158.99" y="126.54" width="3.89" height="30.16"/></g></g><path id="bush-2" data-name="bush" class="cls-6" d="M232.52,146.63a7.13,7.13,0,0,0-6.88,5.27,7.12,7.12,0,0,0-10.1,4.8H250a6.8,6.8,0,0,0-6.46-4.89,7.09,7.09,0,0,0-3.93,1.18A7.13,7.13,0,0,0,232.52,146.63Z"/><polygon class="cls-16" points="112.02 156.7 105.87 156.7 108.95 150.51 112.02 156.7"/><polygon class="cls-16" points="118.18 156.7 112.02 156.7 115.1 150.51 118.18 156.7"/><polygon class="cls-16" points="124.33 156.7 118.18 156.7 121.25 150.51 124.33 156.7"/><polygon class="cls-16" points="25.21 156.7 19.06 156.7 22.14 150.67 25.21 156.7"/><polygon class="cls-16" points="35.58 156.7 29.42 156.7 32.5 150.67 35.58 156.7"/><polygon class="cls-16" points="41.73 156.7 35.58 156.7 38.66 150.67 41.73 156.7"/></g></svg>