<svg xmlns="http://www.w3.org/2000/svg" width="250" height="250" viewBox="0 0 250 250"><defs><style>.cls-1{fill:#7676c0;stroke:#3c3ca5;stroke-width:20px;}.cls-1,.cls-10,.cls-11{stroke-miterlimit:10;}.cls-2{opacity:0.15;}.cls-3{fill:#ef8eb5;}.cls-4{fill:#4e8e3b;}.cls-5{fill:#4d4d4d;}.cls-6{fill:#666;}.cls-7{fill:#ccc;}.cls-8{fill:#fff;}.cls-9{fill:#b3b3b3;}.cls-10,.cls-11{fill:none;stroke-width:3.14px;}.cls-10{stroke:#666;}.cls-11{stroke:#4d4d4d;}.cls-12{fill:#465a8c;}.cls-13{fill:#312766;}.cls-14{fill:#afcc69;}.cls-15{font-size:18px;font-family:Roboto-Bold, Roboto;font-weight:700;}</style></defs><title>mod2-current-v2</title><g id="Layer_1" data-name="Layer 1"><circle class="cls-1" cx="123.92" cy="125" r="97"/><rect class="cls-2" x="60.73" y="181.33" width="139" height="38"/><rect class="cls-3" x="55.06" y="175.66" width="139" height="38"/><path id="bush" class="cls-4" d="M58.85,147a9.64,9.64,0,0,0-7.1,3.12,8.7,8.7,0,0,0-11.23-4.39,12.09,12.09,0,0,0-23.67,1.83A12.09,12.09,0,0,0,0,156.68H69.67C69.67,151.34,64.19,147,58.85,147Z"/><polygon class="cls-5" points="211.32 98.98 197.04 98.98 172.64 113.06 172.66 113.07 235.71 113.07 235.73 113.06 211.32 98.98"/><polygon class="cls-6" points="197.12 98.98 49.21 98.98 24.81 113.06 24.83 113.07 172.64 113.06 197.12 98.98"/><polygon class="cls-7" points="235.73 156.68 172.64 156.68 172.64 113.07 235.68 113.03 235.73 156.68"/><rect class="cls-8" x="24.77" y="113.07" width="73.92" height="43.61"/><rect class="cls-8" x="100.02" y="113.07" width="73.92" height="43.61"/><g id="_60_degree_roof" data-name="60 degree roof"><polygon class="cls-6" points="56.49 94.86 24.96 113.07 172.64 113.07 204.23 94.92 204.14 94.86 56.49 94.86"/></g><polygon class="cls-5" points="204.14 94.86 204.29 94.86 172.64 113.07 172.64 117.46 235.71 117.44 235.68 113.03 204.14 94.86"/><g id="_60_degree_roof-2" data-name="60 degree roof"><polygon class="cls-7" points="204.34 99.26 172.64 117.46 172.64 156.68 235.73 156.68 235.71 117.44 204.34 99.26"/></g><polygon class="cls-7" points="172.64 117.46 185.26 117.43 185.26 121.82 172.64 121.82 172.64 117.46"/><rect class="cls-7" x="185.26" y="117.43" width="12.62" height="4.39"/><rect class="cls-7" x="197.87" y="117.43" width="12.62" height="4.39"/><rect class="cls-9" x="210.49" y="117.43" width="12.62" height="4.39"/><polygon class="cls-7" points="223.11 117.43 235.71 117.44 235.73 121.82 223.11 121.82 223.11 117.43"/><rect class="cls-9" x="191.6" y="113.03" width="12.62" height="4.39"/><rect class="cls-7" x="204.21" y="113.03" width="12.62" height="4.39"/><rect class="cls-7" x="172.64" y="126.22" width="12.62" height="4.39"/><rect class="cls-7" x="185.26" y="126.22" width="12.62" height="4.39"/><rect class="cls-7" x="197.87" y="126.22" width="12.62" height="4.39"/><rect class="cls-7" x="210.49" y="126.22" width="12.62" height="4.39"/><rect class="cls-7" x="223.11" y="126.22" width="12.62" height="4.39"/><rect class="cls-9" x="172.64" y="121.82" width="6.34" height="4.39"/><rect class="cls-7" x="178.98" y="121.82" width="12.62" height="4.39"/><rect class="cls-7" x="191.6" y="121.82" width="12.62" height="4.39"/><rect class="cls-9" x="204.21" y="121.82" width="12.62" height="4.39"/><rect class="cls-7" x="229.32" y="121.82" width="6.4" height="4.39"/><rect class="cls-9" x="216.83" y="121.82" width="12.62" height="4.39"/><rect class="cls-9" x="172.64" y="135.01" width="12.62" height="4.39"/><rect class="cls-7" x="185.26" y="135.01" width="12.62" height="4.39"/><rect class="cls-7" x="197.87" y="135.01" width="12.62" height="4.39"/><rect class="cls-7" x="210.49" y="135.01" width="12.62" height="4.39"/><rect class="cls-9" x="223.11" y="135.01" width="12.62" height="4.39"/><rect class="cls-7" x="172.64" y="130.61" width="6.34" height="4.39"/><rect class="cls-7" x="178.98" y="130.61" width="12.62" height="4.39"/><rect class="cls-7" x="191.6" y="130.61" width="12.62" height="4.39"/><rect class="cls-7" x="204.21" y="130.61" width="12.62" height="4.39"/><rect class="cls-7" x="229.32" y="130.61" width="6.4" height="4.39"/><rect class="cls-7" x="216.83" y="130.61" width="12.62" height="4.39"/><rect class="cls-9" x="172.64" y="143.79" width="12.62" height="4.39"/><rect class="cls-7" x="185.26" y="143.79" width="12.62" height="4.39"/><rect class="cls-7" x="197.87" y="143.79" width="12.62" height="4.39"/><rect class="cls-7" x="210.49" y="143.79" width="12.62" height="4.39"/><rect class="cls-7" x="223.11" y="143.79" width="12.62" height="4.39"/><rect class="cls-9" x="172.64" y="139.4" width="6.34" height="4.39"/><rect class="cls-7" x="166.36" y="139.4" width="6.34" height="4.39"/><rect class="cls-7" x="178.98" y="139.4" width="12.62" height="4.39"/><rect class="cls-7" x="191.6" y="139.4" width="12.62" height="4.39"/><rect class="cls-7" x="204.21" y="139.4" width="12.62" height="4.39"/><rect class="cls-7" x="229.32" y="139.4" width="6.4" height="4.39"/><rect class="cls-9" x="216.83" y="139.4" width="12.62" height="4.39"/><rect class="cls-7" x="172.64" y="152.27" width="12.62" height="4.41"/><rect class="cls-7" x="185.26" y="152.27" width="12.62" height="4.41"/><rect class="cls-9" x="197.87" y="152.27" width="12.62" height="4.41"/><rect class="cls-7" x="210.49" y="152.27" width="12.62" height="4.41"/><rect class="cls-7" x="223.11" y="152.27" width="12.62" height="4.41"/><rect class="cls-7" x="172.64" y="147.87" width="6.34" height="4.39"/><rect class="cls-7" x="178.98" y="147.87" width="12.62" height="4.39"/><rect class="cls-9" x="191.6" y="147.87" width="12.62" height="4.39"/><rect class="cls-7" x="204.21" y="147.87" width="12.62" height="4.39"/><rect class="cls-7" x="229.32" y="147.87" width="6.4" height="4.39"/><rect class="cls-7" x="216.83" y="147.87" width="12.62" height="4.39"/><rect class="cls-5" x="24.81" y="113.07" width="147.83" height="4.39"/><g id="aerial"><line class="cls-10" x1="162.83" y1="89.22" x2="162.83" y2="99.89"/><line class="cls-11" x1="177.59" y1="74.78" x2="177.59" y2="98.95"/><line class="cls-11" x1="171" y1="84.19" x2="184.49" y2="84.19"/><line class="cls-11" x1="171" y1="79.17" x2="184.49" y2="79.17"/></g><g id="Door"><rect class="cls-12" x="112.34" y="127.45" width="15.69" height="29.23"/><rect class="cls-13" x="112.34" y="127.45" width="15.69" height="6.28"/><rect class="cls-13" x="100.86" y="138.93" width="29.23" height="6.28" transform="translate(-26.59 257.54) rotate(-90)"/></g><g id="window"><rect class="cls-12" x="140.59" y="125.25" width="21.03" height="17.89"/><rect class="cls-13" x="140.59" y="125.25" width="21.03" height="6.28"/></g><g id="Door-2" data-name="Door"><rect class="cls-12" x="70.67" y="127.45" width="15.69" height="29.23"/><rect class="cls-13" x="70.67" y="127.45" width="15.69" height="6.28"/><rect class="cls-13" x="59.19" y="138.93" width="29.23" height="6.28" transform="translate(-68.26 215.88) rotate(-90)"/></g><g id="window-2" data-name="window"><rect class="cls-12" x="37.09" y="125.25" width="21.03" height="17.89"/><rect class="cls-13" x="37.09" y="125.25" width="21.03" height="6.28"/></g><polygon class="cls-14" points="42.7 156.68 36.73 156.68 39.72 150.73 42.7 156.68"/><polygon class="cls-14" points="48.66 156.68 42.7 156.68 45.68 150.73 48.66 156.68"/><polygon class="cls-14" points="57.45 156.68 51.49 156.68 54.47 150.89 57.45 156.68"/><polygon class="cls-14" points="152.55 156.68 146.59 156.68 149.57 150.73 152.55 156.68"/><polygon class="cls-14" points="158.51 156.68 152.55 156.68 155.53 150.73 158.51 156.68"/><polygon class="cls-14" points="170.13 156.68 164.16 156.68 167.15 150.89 170.13 156.68"/><rect class="cls-7" x="24.81" y="117.41" width="147.83" height="3.45"/><rect class="cls-9" x="77.2" y="134.69" width="39.27" height="4.71" transform="translate(-40.2 233.88) rotate(-90)"/><rect class="cls-7" x="81.44" y="135.16" width="39.27" height="3.77" transform="translate(-35.97 238.12) rotate(-90)"/><path id="bush-2" data-name="bush" class="cls-4" d="M239.18,147a9.64,9.64,0,0,0-7.1,3.12,8.7,8.7,0,0,0-11.23-4.39,12.09,12.09,0,0,0-23.67,1.83,12.09,12.09,0,0,0-16.85,9.11H250C250,151.34,244.52,147,239.18,147Z"/><text class="cls-15" transform="translate(86.8 200.66)">Module 2</text></g></svg>