<svg xmlns="http://www.w3.org/2000/svg" width="250" height="250" viewBox="0 0 250 250"><defs><style>.cls-1{fill:#7676c0;stroke:#3c3ca5;stroke-width:20px;}.cls-1,.cls-10{stroke-miterlimit:10;}.cls-2{opacity:0.15;}.cls-3{fill:#ef8eb5;}.cls-4{fill:#85ba5d;}.cls-5{fill:#f29f53;}.cls-6{fill:#312766;}.cls-7{fill:#ad5d31;}.cls-8{fill:#465a8c;}.cls-9{fill:#0e0c2b;}.cls-10{fill:none;stroke:#312766;stroke-width:3.28px;}.cls-11{fill:#4e8e3b;}.cls-12{fill:#213c68;}.cls-13{fill:#161656;}.cls-14{font-size:18px;font-family:Roboto-Bold, Roboto;font-weight:700;}</style></defs><title>mod3-current-v2</title><g id="Layer_1" data-name="Layer 1"><circle class="cls-1" cx="123.92" cy="125" r="97"/><rect class="cls-2" x="60.73" y="181.33" width="139" height="38"/><rect class="cls-3" x="55.06" y="175.66" width="139" height="38"/><path id="bush" class="cls-4" d="M7.86,149.38a7.93,7.93,0,0,1,1.36.12,7.89,7.89,0,0,1,14-3.09,7.89,7.89,0,0,1,9.68-4.55c0-.12,0-.24,0-.36a7.89,7.89,0,0,1,15.75-.57A7.89,7.89,0,0,1,63.28,145c0,.2,0,.4,0,.6a7.89,7.89,0,0,1,10.75,11H0A7.89,7.89,0,0,1,7.86,149.38Z"/><rect id="Front_wall" data-name="Front wall" class="cls-5" x="41.19" y="111.1" width="103.6" height="45.57"/><polygon id="Roof" class="cls-6" points="168.25 87.89 64.25 87.82 40.97 111.1 145.16 111.1 168.25 87.89"/><g id="Side"><polygon class="cls-7" points="168.25 87.89 144.91 111.1 191.18 111.1 168.25 87.89"/><rect class="cls-7" x="144.8" y="111.1" width="46.23" height="45.57"/></g><g id="Door"><rect class="cls-8" x="87.42" y="126.18" width="16.39" height="30.49"/><rect class="cls-6" x="87.49" y="126.27" width="16.39" height="6.53"/><rect class="cls-6" x="75.45" y="138.15" width="30.49" height="6.56" transform="translate(-50.73 232.13) rotate(-90)"/></g><g id="roof_peak" data-name="roof peak"><polygon class="cls-9" points="95.59 94.05 95.59 94.12 112.61 111.14 129.7 94.05 95.59 94.05"/><polygon class="cls-5" points="78.37 111.44 112.61 111.47 95.52 94.05 78.37 111.44"/></g><circle class="cls-6" cx="94.96" cy="108.81" r="3.28"/><g id="window"><rect class="cls-8" x="55.62" y="122.25" width="13.11" height="18.69"/><rect class="cls-6" x="55.62" y="122.25" width="13.11" height="6.56"/></g><g id="window-2" data-name="window"><rect class="cls-8" x="120.8" y="122.27" width="13.22" height="18.73"/><rect class="cls-6" x="120.86" y="122.25" width="13.11" height="6.56"/></g><path id="bush-2" data-name="bush" class="cls-4" d="M243.3,147.63a6.66,6.66,0,0,0-3.07.75,6.7,6.7,0,0,0-11.45-2,6.7,6.7,0,0,0-8.34-5.19,6.7,6.7,0,0,0-13.3,1.1s0,.09,0,.13a6.69,6.69,0,0,0-10.63,3.38,6.69,6.69,0,0,0-11.22,3.77,6.69,6.69,0,0,0-9.69,7.11h74a6.7,6.7,0,0,0-6.27-9Z"/><g id="tree"><line class="cls-10" x1="22.25" y1="115.11" x2="22.25" y2="156.7"/><rect class="cls-11" x="8.41" y="72.41" width="27.87" height="56.39" rx="13.93" ry="13.93"/></g><g id="Garage"><rect id="Front_wall-2" data-name="Front wall" class="cls-5" x="151.68" y="117.33" width="50.82" height="39.34"/><polygon id="Roof-2" data-name="Roof" class="cls-6" points="219.35 100.65 168.46 100.61 151.74 117.33 202.69 117.33 219.35 100.65"/><g id="Side-2" data-name="Side"><polygon class="cls-7" points="219.35 100.65 202.65 117.33 235.94 117.33 219.35 100.65"/><rect class="cls-7" x="202.5" y="117.33" width="33.44" height="39.34"/></g><g id="window-3" data-name="window"><rect class="cls-12" x="212.66" y="122.25" width="13.11" height="18.69"/><rect class="cls-13" x="212.66" y="122.25" width="13.11" height="6.56"/></g><g id="garage_door" data-name="garage door"><rect class="cls-8" x="160.53" y="126.18" width="32.79" height="30.49"/><rect class="cls-6" x="160.61" y="126.27" width="32.71" height="6.53"/><rect class="cls-6" x="148.57" y="138.15" width="30.49" height="6.56" transform="translate(22.38 305.24) rotate(-90)"/></g><g id="garage_door_8_rows" data-name="garage door 8 rows"><rect class="cls-6" x="160.53" y="126.18" width="32.79" height="3.81"/><rect class="cls-8" x="160.53" y="129.99" width="32.79" height="3.81"/><rect class="cls-6" x="160.53" y="133.81" width="32.79" height="3.81"/><rect class="cls-8" x="160.53" y="137.62" width="32.79" height="3.81"/><rect class="cls-6" x="160.53" y="141.43" width="32.79" height="3.81"/><rect class="cls-8" x="160.53" y="145.24" width="32.79" height="3.81"/><rect class="cls-6" x="160.53" y="149.05" width="32.79" height="3.81"/><rect class="cls-8" x="160.53" y="152.86" width="32.79" height="3.81"/><rect class="cls-6" x="160.53" y="126.18" width="3.93" height="30.49"/></g></g><path id="bush-3" data-name="bush" class="cls-11" d="M64.43,149.75A6.9,6.9,0,0,0,59.34,152a6.23,6.23,0,0,0-8-3.14,8.66,8.66,0,0,0-17,1.31,8.66,8.66,0,0,0-12.07,6.53H71.36A6.93,6.93,0,0,0,64.43,149.75Z"/><path id="bush-4" data-name="bush" class="cls-11" d="M125.45,146.51a7.21,7.21,0,0,0-7,5.34,7.21,7.21,0,0,0-10.22,4.83h35.17A7.21,7.21,0,0,0,132.62,153,7.21,7.21,0,0,0,125.45,146.51Z"/><text class="cls-14" transform="translate(86.8 200.66)">Module 3</text></g></svg>