<svg xmlns="http://www.w3.org/2000/svg" width="250" height="250" viewBox="0 0 250 250"><defs><style>.cls-1{fill:#afcc69;stroke:#c7da99;stroke-width:20px;}.cls-1,.cls-16{stroke-miterlimit:10;}.cls-2{opacity:0.15;}.cls-3{fill:#ecedf0;}.cls-4{font-size:18px;font-family:Roboto-Bold, Roboto;font-weight:700;}.cls-5{fill:#fff;}.cls-6{fill:#2b2b2b;}.cls-7{fill:#666;}.cls-8{fill:#ccc;}.cls-9{fill:#8c8c8c;}.cls-10{fill:#999;}.cls-11{fill:gray;}.cls-12{fill:#686868;}.cls-13{fill:#565656;}.cls-14{fill:#848484;}.cls-15{fill:#adadad;}.cls-16{fill:none;stroke:#666;stroke-width:3.28px;}.cls-17{fill:#8e8e8e;}</style></defs><title>mod4-locked-v2</title><g id="Layer_1" data-name="Layer 1"><circle class="cls-1" cx="123.92" cy="125" r="97"/><rect class="cls-2" x="60.73" y="181.33" width="139" height="38"/><rect class="cls-3" x="55.06" y="175.66" width="139" height="38"/><text class="cls-4" transform="translate(86.8 200.66)">Module 4</text><rect id="Front_wall" data-name="Front wall" class="cls-5" x="28.48" y="109.49" width="146.16" height="47.18"/><polygon class="cls-6" points="201.26 86.26 151.65 86.25 174.75 109.49 224.14 109.49 201.26 86.26"/><polygon class="cls-7" points="101.54 86.25 51.49 86.28 28.45 109.49 174.81 109.49 151.65 86.25 101.54 86.25"/><rect class="cls-8" x="174.64" y="109.49" width="49.5" height="47.18"/><g id="Door"><rect class="cls-9" x="93.05" y="126.2" width="16.38" height="30.47"/><rect class="cls-7" x="93.05" y="126.2" width="16.38" height="6.55"/><rect class="cls-7" x="81.09" y="138.16" width="30.47" height="6.55" transform="translate(-45.11 237.76) rotate(-90)"/></g><rect class="cls-10" x="174.64" y="109.49" width="49.5" height="3.58"/><g id="roof_peak" data-name="roof peak"><rect class="cls-10" x="28.48" y="109.49" width="146.16" height="7.54"/><polygon class="cls-6" points="100.99 92.47 100.99 92.47 117.92 109.53 135 92.45 100.99 92.47"/><rect class="cls-8" x="28.5" y="109.49" width="58.65" height="3.58"/><rect class="cls-8" x="115" y="109.49" width="59.64" height="3.58"/><polygon class="cls-8" points="118.28 109.49 100.99 92.47 83.87 109.49 83.87 113.07 118.28 113.07 118.28 109.49"/><polygon class="cls-10" points="82.28 116.37 119.66 116.37 101.01 98.02 82.28 116.37"/></g><g id="roof_peak-2" data-name="roof peak"><rect class="cls-10" x="178.87" y="109.49" width="41.31" height="7.54"/><polygon class="cls-7" points="200.09 92.47 200.09 92.47 183.16 109.53 166.09 92.45 200.09 92.47"/><rect class="cls-10" x="213.93" y="109.49" width="6.23" height="3.58" transform="translate(434.09 222.56) rotate(-180)"/><rect class="cls-10" x="178.87" y="109.49" width="7.21" height="3.58" transform="translate(364.96 222.56) rotate(-180)"/><polygon class="cls-10" points="182.81 109.49 200.09 92.47 217.21 109.49 217.21 113.07 182.81 113.07 182.81 109.49"/><polygon class="cls-11" points="218.8 116.37 181.42 116.37 200.07 98.02 218.8 116.37"/></g><g id="window"><rect class="cls-9" x="148.75" y="123.91" width="13.11" height="18.68"/><rect class="cls-7" x="148.75" y="123.91" width="13.11" height="6.55"/></g><g id="window-2" data-name="window"><rect class="cls-9" x="125.16" y="123.91" width="13.11" height="18.68"/><rect class="cls-7" x="125.16" y="123.91" width="13.11" height="6.55"/></g><g id="window-3" data-name="window"><rect class="cls-9" x="64.21" y="123.91" width="13.11" height="18.68"/><rect class="cls-7" x="64.21" y="123.91" width="13.11" height="6.55"/></g><g id="window-4" data-name="window"><rect class="cls-9" x="40.62" y="123.91" width="13.11" height="18.68"/><rect class="cls-7" x="40.62" y="123.91" width="13.11" height="6.55"/></g><g id="window-5" data-name="window"><rect class="cls-12" x="192.92" y="122.3" width="13.21" height="18.72"/><rect class="cls-13" x="192.99" y="122.27" width="13.11" height="6.55"/></g><rect class="cls-11" x="174.64" y="113.07" width="49.5" height="3.96"/><g id="garage_door_8_rows" data-name="garage door 8 rows"><rect class="cls-14" x="218.87" y="126.2" width="28.3" height="3.81"/><rect class="cls-15" x="218.87" y="130.01" width="28.3" height="3.81"/><rect class="cls-14" x="218.87" y="133.82" width="28.3" height="3.81"/><rect class="cls-15" x="218.87" y="137.63" width="28.3" height="3.81"/><rect class="cls-14" x="218.87" y="141.44" width="28.3" height="3.81"/><rect class="cls-15" x="218.87" y="145.25" width="28.3" height="3.81"/><rect class="cls-14" x="218.87" y="149.06" width="28.3" height="3.81"/><rect class="cls-15" x="218.87" y="152.86" width="28.3" height="3.81"/><rect class="cls-14" x="218.87" y="126.2" width="3.4" height="30.47"/></g><g id="tree"><line class="cls-16" x1="229.75" y1="115.14" x2="229.75" y2="156.7"/><path class="cls-17" d="M230,130.46h0A10.81,10.81,0,0,1,219.73,123h0a43.21,43.21,0,0,1,2.53-24.88l7.26-17.43,8,19.3a43.21,43.21,0,0,1,3.08,21.17l-.11,1.07A10.81,10.81,0,0,1,230,130.46Z"/></g><g id="garage_door_8_rows-2" data-name="garage door 8 rows"><rect class="cls-14" x="0.32" y="126.2" width="28.3" height="3.81"/><rect class="cls-15" x="0.32" y="130.01" width="28.3" height="3.81"/><rect class="cls-14" x="0.32" y="133.82" width="28.3" height="3.81"/><rect class="cls-15" x="0.32" y="137.63" width="28.3" height="3.81"/><rect class="cls-14" x="0.32" y="141.44" width="28.3" height="3.81"/><rect class="cls-15" x="0.32" y="145.25" width="28.3" height="3.81"/><rect class="cls-14" x="0.32" y="149.06" width="28.3" height="3.81"/><rect class="cls-15" x="0.32" y="152.86" width="28.3" height="3.81"/><rect class="cls-14" x="0.32" y="126.2" width="3.4" height="30.47"/></g><g id="tree-2" data-name="tree"><line class="cls-16" x1="23" y1="115.14" x2="23" y2="156.7"/><path class="cls-17" d="M23.27,130.46h0A10.81,10.81,0,0,1,13,123h0A43.21,43.21,0,0,1,15.5,98.09l7.26-17.43,8,19.3a43.21,43.21,0,0,1,3.08,21.17l-.11,1.07A10.81,10.81,0,0,1,23.27,130.46Z"/></g><path class="cls-17" d="M236.4,153.07a4.72,4.72,0,0,0-2.46.69,4.74,4.74,0,0,0-7.57-3.69,4.75,4.75,0,0,0-7.78-1.47,4.75,4.75,0,0,0-8.82,1.59,4.72,4.72,0,0,0-5,0,4.75,4.75,0,0,0-9.35-.18,4.75,4.75,0,0,0-7,4.2c0,.06,0,.11,0,.17h-.17a4.74,4.74,0,0,0-4.06,2.29H241A4.75,4.75,0,0,0,236.4,153.07Z"/></g></svg>