<svg xmlns="http://www.w3.org/2000/svg" width="2100" height="543.53" viewBox="0 0 2100 543.53"><defs><style>.cls-1{fill:#b7d178;}.cls-2{fill:#93b860;}.cls-3,.cls-5{opacity:0.5;}.cls-4,.cls-5{fill:#fff;}</style></defs><title>modal-bg-v3</title><g id="Layer_1" data-name="Layer 1"><rect class="cls-1" x="-1.58" y="325.85" width="2101.64" height="217.67"/><path class="cls-2" d="M815,319a14.22,14.22,0,0,0-6.55,1.59A14.29,14.29,0,0,0,784,316.31a14.29,14.29,0,0,0-17.79-11.06,14.28,14.28,0,0,0-28.37,2.35c0,.09,0,.19,0,.29a14.28,14.28,0,0,0-22.67,7.22,14.28,14.28,0,0,0-23.93,8.05,14.28,14.28,0,0,0-20.9,12.66,14.53,14.53,0,0,0,.22,2.5h157.8A14.29,14.29,0,0,0,815,319"/><path class="cls-2" d="M519.64,320.81a14.3,14.3,0,0,0-2.46.22,14.29,14.29,0,0,0-25.38-5.6,14.29,14.29,0,0,0-17.54-8.24c0-.22,0-.44,0-.66a14.28,14.28,0,0,0-28.53-1A14.29,14.29,0,0,0,419.29,313c0,.37,0,.73,0,1.08a14.28,14.28,0,0,0-19.47,20h134a14.28,14.28,0,0,0-14.24-13.21"/><path class="cls-2" d="M1659.37,319a14.22,14.22,0,0,0-6.55,1.59,14.29,14.29,0,0,0-24.42-4.31,14.29,14.29,0,0,0-17.79-11.06,14.28,14.28,0,0,0-28.37,2.35c0,.09,0,.19,0,.29a14.28,14.28,0,0,0-22.67,7.22,14.28,14.28,0,0,0-23.93,8.05,14.28,14.28,0,0,0-20.9,12.66,14.53,14.53,0,0,0,.22,2.5h157.8A14.29,14.29,0,0,0,1659.37,319"/><path class="cls-2" d="M1364,320.81a14.3,14.3,0,0,0-2.46.22,14.29,14.29,0,0,0-25.38-5.6,14.29,14.29,0,0,0-17.54-8.24c0-.22,0-.44,0-.66a14.28,14.28,0,0,0-28.53-1,14.29,14.29,0,0,0-26.47,7.46c0,.37,0,.73,0,1.08a14.28,14.28,0,0,0-19.47,20h134A14.28,14.28,0,0,0,1364,320.81"/><path class="cls-2" d="M1983,328.34a12.26,12.26,0,0,1,2.11.19,12.22,12.22,0,0,1,21.76-4.82,12.23,12.23,0,0,1,15-7.1c0-.19,0-.38,0-.57a12.24,12.24,0,0,1,24.46-.89,12.24,12.24,0,0,1,22.69,6.43c0,.31,0,.63,0,.94a12.12,12.12,0,0,1,6.47-1.86,12.31,12.31,0,0,1,10.23,19.07H1970.81A12.27,12.27,0,0,1,1983,328.34"/><path class="cls-2" d="M1850.64,328.34a12.26,12.26,0,0,1,2.11.19,12.22,12.22,0,0,1,21.76-4.82,12.23,12.23,0,0,1,15-7.1c0-.19,0-.38,0-.57a12.24,12.24,0,0,1,24.46-.89,12.24,12.24,0,0,1,22.69,6.43c0,.31,0,.63,0,.94a12.12,12.12,0,0,1,6.47-1.86,12.31,12.31,0,0,1,10.23,19.07H1838.43a12.27,12.27,0,0,1,12.21-11.38"/><path class="cls-2" d="M675.09,319a14.22,14.22,0,0,0-6.55,1.59,14.29,14.29,0,0,0-24.42-4.31,14.29,14.29,0,0,0-17.79-11.06A14.28,14.28,0,0,0,598,307.6c0,.09,0,.19,0,.29a14.28,14.28,0,0,0-22.67,7.22,14.28,14.28,0,0,0-23.93,8.05,14.28,14.28,0,0,0-20.9,12.66,14.53,14.53,0,0,0,.22,2.5h157.8A14.29,14.29,0,0,0,675.09,319"/><path class="cls-2" d="M379.75,320.81a14.3,14.3,0,0,0-2.46.22,14.29,14.29,0,0,0-25.38-5.6,14.29,14.29,0,0,0-17.54-8.24c0-.22,0-.44,0-.66a14.28,14.28,0,0,0-28.53-1A14.29,14.29,0,0,0,279.4,313c0,.37,0,.73,0,1.08A14.28,14.28,0,0,0,260,334H394a14.28,14.28,0,0,0-14.24-13.21"/><path class="cls-2" d="M165.16,319a14.22,14.22,0,0,0-6.55,1.59,14.29,14.29,0,0,0-24.42-4.31,14.29,14.29,0,0,0-17.79-11.06A14.28,14.28,0,0,0,88,307.6c0,.09,0,.19,0,.29a14.28,14.28,0,0,0-22.67,7.22,14.28,14.28,0,0,0-23.93,8.05,14.28,14.28,0,0,0-20.9,12.66,14.53,14.53,0,0,0,.22,2.5h157.8A14.29,14.29,0,0,0,165.16,319"/><path class="cls-2" d="M1078.22,319a14.22,14.22,0,0,0-6.55,1.59,14.29,14.29,0,0,0-24.42-4.31,14.29,14.29,0,0,0-17.79-11.06,14.28,14.28,0,0,0-28.37,2.35c0,.09,0,.19,0,.29a14.28,14.28,0,0,0-22.67,7.22,14.28,14.28,0,0,0-23.93,8.05,14.28,14.28,0,0,0-20.9,12.66,14.53,14.53,0,0,0,.22,2.5h157.8A14.29,14.29,0,0,0,1078.22,319"/><path class="cls-2" d="M1525.49,319a14.22,14.22,0,0,0-6.55,1.59,14.29,14.29,0,0,0-24.42-4.31,14.29,14.29,0,0,0-17.79-11.06,14.28,14.28,0,0,0-28.37,2.35c0,.09,0,.19,0,.29a14.28,14.28,0,0,0-22.67,7.22,14.28,14.28,0,0,0-23.93,8.05,14.28,14.28,0,0,0-20.9,12.66,14.53,14.53,0,0,0,.22,2.5h157.8A14.29,14.29,0,0,0,1525.49,319"/><path class="cls-2" d="M1230.15,320.81a14.3,14.3,0,0,0-2.46.22,14.29,14.29,0,0,0-25.38-5.6,14.29,14.29,0,0,0-17.54-8.24c0-.22,0-.44,0-.66a14.28,14.28,0,0,0-28.53-1A14.29,14.29,0,0,0,1129.8,313c0,.37,0,.73,0,1.08a14.28,14.28,0,0,0-19.47,20h134a14.28,14.28,0,0,0-14.24-13.21"/><path class="cls-2" d="M1703.23,328.34a12.26,12.26,0,0,1,2.11.19,12.22,12.22,0,0,1,21.76-4.82,12.23,12.23,0,0,1,15-7.1c0-.19,0-.38,0-.57a12.24,12.24,0,0,1,24.46-.89,12.24,12.24,0,0,1,22.69,6.43c0,.31,0,.63,0,.94a12.12,12.12,0,0,1,6.47-1.86,12.31,12.31,0,0,1,10.23,19.07H1691a12.27,12.27,0,0,1,12.21-11.38"/><g class="cls-3"><path class="cls-4" d="M863.16,148a20,20,0,0,0-9.24,2.26,20.09,20.09,0,0,0-34.41-6.1,20.11,20.11,0,0,0-25.08-15.67,20.12,20.12,0,0,0-40,3.33c0,.14,0,.27,0,.41a20.09,20.09,0,0,0-32,10.22,20.09,20.09,0,0,0-33.73,11.4,20,20,0,0,0-9.32-2.3,20.18,20.18,0,0,0-20.13,20.23,20.64,20.64,0,0,0,.31,3.54H882A20.24,20.24,0,0,0,863.16,148"/><path class="cls-4" d="M274.15,234.3a20,20,0,0,0-9.24,2.26,20.09,20.09,0,0,0-34.41-6.1,20.11,20.11,0,0,0-25.08-15.67,20.12,20.12,0,0,0-40,3.33c0,.14,0,.27,0,.41a20.09,20.09,0,0,0-32,10.22,20.09,20.09,0,0,0-33.73,11.4,20,20,0,0,0-9.32-2.3,20.18,20.18,0,0,0-20.13,20.23,20.64,20.64,0,0,0,.31,3.54H293a20.24,20.24,0,0,0-18.86-27.31"/><path class="cls-4" d="M1075.06,188.36a9.91,9.91,0,0,0-4.58,1.12,10,10,0,0,0-17.07-3,10,10,0,0,0-12.44-7.77,10,10,0,0,0-19.84,1.65c0,.07,0,.13,0,.2a10,10,0,0,0-15.85,5.07,10,10,0,0,0-16.73,5.65,9.9,9.9,0,0,0-4.63-1.14,10,10,0,0,0-10,10,10.24,10.24,0,0,0,.16,1.76h110.32a10,10,0,0,0-9.36-13.55"/></g><path class="cls-5" d="M1234.25,82.91a20,20,0,0,1,9.24,2.26,20.09,20.09,0,0,1,34.41-6.1A20.11,20.11,0,0,1,1303,63.4a20.12,20.12,0,0,1,40,3.33c0,.14,0,.27,0,.41a20.09,20.09,0,0,1,32,10.22,20.09,20.09,0,0,1,33.73,11.4,20,20,0,0,1,9.32-2.3,20.18,20.18,0,0,1,20.13,20.23,20.64,20.64,0,0,1-.31,3.54H1215.39a20.24,20.24,0,0,1,18.86-27.31"/><path class="cls-5" d="M1638.79,103.08a13.11,13.11,0,0,1,6.06,1.48,13.19,13.19,0,0,1,22.59-4,13.2,13.2,0,0,1,16.46-10.29,13.21,13.21,0,0,1,26.25,2.18c0,.09,0,.18,0,.27a13.19,13.19,0,0,1,21,6.71,13.19,13.19,0,0,1,22.14,7.48,13.1,13.1,0,0,1,6.12-1.51,13.25,13.25,0,0,1,13.22,13.28,13.55,13.55,0,0,1-.21,2.32h-146a13.29,13.29,0,0,1,12.38-17.93"/><path class="cls-5" d="M1754.81,210.51a26.68,26.68,0,0,1,12.34,3,26.83,26.83,0,0,1,46-8.15,26.86,26.86,0,0,1,33.5-20.93,26.88,26.88,0,0,1,53.42,4.44c0,.18,0,.36,0,.54a26.83,26.83,0,0,1,42.68,13.65,26.84,26.84,0,0,1,45.05,15.23,26.66,26.66,0,0,1,12.46-3.07,27,27,0,0,1,26.9,27,27.57,27.57,0,0,1-.42,4.73H1729.62a27,27,0,0,1,25.19-36.48"/><path class="cls-5" d="M341.9,45a13.64,13.64,0,0,1,6.31,1.54,13.72,13.72,0,0,1,23.5-4.17,13.73,13.73,0,0,1,17.12-10.7,13.74,13.74,0,0,1,27.31,2.27c0,.09,0,.18,0,.28a13.72,13.72,0,0,1,21.82,7,13.72,13.72,0,0,1,23,7.78,13.63,13.63,0,0,1,6.37-1.57,13.78,13.78,0,0,1,13.75,13.81,14.1,14.1,0,0,1-.21,2.42H329A13.82,13.82,0,0,1,341.9,45"/></g></svg>