<svg xmlns="http://www.w3.org/2000/svg" width="2100" height="463.39" viewBox="0 0 2100 463.39"><defs><style>.cls-1{fill:#312766;}.cls-2{fill:#fff;}.cls-16,.cls-17,.cls-3{fill:none;}.cls-3{stroke:#0e0c2b;stroke-width:6.4px;}.cls-16,.cls-17,.cls-21,.cls-3{stroke-miterlimit:10;}.cls-4{fill:#ef5932;}.cls-5{fill:#aa4232;}.cls-6{fill:#99281c;}.cls-7{fill:#465a8c;}.cls-8{fill:#213c68;}.cls-9{fill:#161656;}.cls-10{fill:#ccc;}.cls-11{fill:#4d4d4d;}.cls-12{fill:#666;}.cls-13{fill:#377722;}.cls-14{fill:#4e8e3b;}.cls-15,.cls-21{fill:#85ba5d;}.cls-16,.cls-17{stroke:#312766;}.cls-16{stroke-width:3.63px;}.cls-17{stroke-width:5.76px;}.cls-18{fill:#b3b3b3;}.cls-19{fill:#999;}.cls-20{fill:#e6e6e6;}.cls-21{stroke:#85ba5d;stroke-width:0.58px;}.cls-22{fill:#0e0c2b;}.cls-23{fill:#f29f53;}.cls-24{fill:#ad5d31;}.cls-25{fill:#bababa;}.cls-26{fill:#844526;}.cls-27{fill:#fadc5b;}.cls-28{fill:#ffa01e;}.cls-29{fill:#e58007;}</style></defs><title>question-bg4-v2</title><g id="Layer_1" data-name="Layer 1"><path class="cls-1" d="M2096.8,317.13h-6.4V206.75a9.71,9.71,0,0,0-9.7-9.7h-.33a9.74,9.74,0,0,0-9.76,9.7v5.69h-6.4v-5.69a16.15,16.15,0,0,1,16.16-16.1h.33a16.12,16.12,0,0,1,16.1,16.1Z"/><rect class="cls-1" x="2087.2" y="283.82" width="12.8" height="33.3"/><path class="cls-1" d="M2093.6,312.32a6.4,6.4,0,0,1-6.4-6.4V267a6.4,6.4,0,1,1,12.8,0v38.92A6.4,6.4,0,0,1,2093.6,312.32Z"/><circle class="cls-2" cx="2067.36" cy="221.04" r="8.6"/><path class="cls-1" d="M2071.26,215h-7.79a2.56,2.56,0,0,1,0-5.12h7.79a2.56,2.56,0,0,1,0,5.12Z"/><path class="cls-1" d="M1571.8,317.13h-6.4V206.75a9.71,9.71,0,0,0-9.7-9.7h-.33a9.74,9.74,0,0,0-9.76,9.7v5.69h-6.4v-5.69a16.15,16.15,0,0,1,16.16-16.1h.33a16.12,16.12,0,0,1,16.1,16.1Z"/><rect class="cls-1" x="1562.2" y="283.82" width="12.8" height="33.3"/><path class="cls-1" d="M1568.6,312.32a6.4,6.4,0,0,1-6.4-6.4V267a6.4,6.4,0,1,1,12.8,0v38.92A6.4,6.4,0,0,1,1568.6,312.32Z"/><circle class="cls-2" cx="1542.36" cy="221.04" r="8.6"/><path class="cls-1" d="M1546.26,215h-7.79a2.56,2.56,0,0,1,0-5.12h7.79a2.56,2.56,0,0,1,0,5.12Z"/><path class="cls-1" d="M1046.8,317.13h-6.4V206.75a9.71,9.71,0,0,0-9.7-9.7h-.33a9.74,9.74,0,0,0-9.76,9.7v5.69h-6.4v-5.69a16.15,16.15,0,0,1,16.16-16.1h.33a16.12,16.12,0,0,1,16.1,16.1Z"/><rect class="cls-1" x="1037.2" y="283.82" width="12.8" height="33.3"/><path class="cls-1" d="M1043.6,312.32a6.4,6.4,0,0,1-6.4-6.4V267a6.4,6.4,0,1,1,12.8,0v38.92A6.4,6.4,0,0,1,1043.6,312.32Z"/><circle class="cls-2" cx="1017.36" cy="221.04" r="8.6"/><path class="cls-1" d="M1021.26,215h-7.79a2.56,2.56,0,0,1,0-5.12h7.79a2.56,2.56,0,0,1,0,5.12Z"/><path class="cls-1" d="M521.8,317.13h-6.4V206.75a9.71,9.71,0,0,0-9.7-9.7h-.33a9.74,9.74,0,0,0-9.76,9.7v5.69h-6.4v-5.69a16.15,16.15,0,0,1,16.16-16.1h.33a16.12,16.12,0,0,1,16.1,16.1Z"/><rect class="cls-1" x="512.2" y="283.82" width="12.8" height="33.3"/><path class="cls-1" d="M518.6,312.32a6.4,6.4,0,0,1-6.4-6.4V267a6.4,6.4,0,0,1,12.8,0v38.92A6.4,6.4,0,0,1,518.6,312.32Z"/><circle class="cls-2" cx="492.36" cy="221.04" r="8.6"/><path class="cls-1" d="M496.26,215h-7.79a2.56,2.56,0,0,1,0-5.12h7.79a2.56,2.56,0,1,1,0,5.12Z"/><line class="cls-3" x1="1926.55" y1="155.66" x2="1926.55" y2="204.94"/><line class="cls-3" x1="1913.11" y1="174.86" x2="1940.63" y2="174.86"/><line class="cls-3" x1="1913.11" y1="164.62" x2="1940.63" y2="164.62"/><rect id="Front_wall" data-name="Front wall" class="cls-4" x="1676.95" y="233.28" width="202.24" height="95.26"/><g id="Side"><rect class="cls-5" x="1879.19" y="233.28" width="157.45" height="95.26"/></g><g id="brick_wall" data-name="brick wall"><polygon class="cls-5" points="1931.42 317.51 1905.31 317.51 1879.19 317.51 1879.19 317.58 1944.47 317.58 1944.47 317.51 1931.42 317.51"/><polygon class="cls-5" points="1905.31 246.47 1905.31 241.03 1879.19 241.03 1879.19 246.47 1892.31 246.47 1905.31 246.47"/><polygon class="cls-5" points="1918.43 246.47 1931.42 246.47 1931.42 241.03 1905.31 241.03 1905.31 246.47 1918.43 246.47"/><rect class="cls-5" x="1931.42" y="241.03" width="13.06" height="5.43"/><polygon class="cls-6" points="1905.31 264.39 1905.31 255.43 1892.31 255.43 1879.19 255.43 1879.19 264.39 1892.31 264.39 1905.31 264.39"/><polygon class="cls-5" points="1931.42 264.39 1931.42 255.43 1918.43 255.43 1905.31 255.43 1905.31 264.39 1918.43 264.39 1931.42 264.39"/><rect class="cls-5" x="1931.42" y="255.43" width="13.06" height="8.96"/><rect class="cls-5" x="1879.19" y="246.47" width="13.12" height="8.96"/><polygon class="cls-5" points="1918.43 246.47 1905.31 246.47 1892.31 246.47 1892.31 255.43 1905.31 255.43 1918.43 255.43 1918.43 246.47"/><polygon class="cls-5" points="1918.43 246.47 1918.43 255.43 1931.42 255.43 1944.47 255.43 1944.47 246.47 1931.42 246.47 1918.43 246.47"/><polygon class="cls-5" points="1905.31 282.31 1905.31 273.35 1892.31 273.35 1879.19 273.35 1879.19 282.31 1892.31 282.31 1905.31 282.31"/><polygon class="cls-5" points="1931.42 282.31 1931.42 273.35 1918.43 273.35 1905.31 273.35 1905.31 282.31 1918.43 282.31 1931.42 282.31"/><rect class="cls-5" x="1931.42" y="273.35" width="13.06" height="8.96"/><rect class="cls-5" x="1879.19" y="282.31" width="13.12" height="8.96"/><rect class="cls-5" x="1865.75" y="246.54" width="13.44" height="8.96"/><rect class="cls-5" x="1865.75" y="299.66" width="13.44" height="8.96"/><polygon class="cls-5" points="1918.43 264.39 1905.31 264.39 1892.31 264.39 1892.31 273.35 1905.31 273.35 1918.43 273.35 1918.43 264.39"/><polygon class="cls-5" points="1918.43 264.39 1918.43 273.35 1931.42 273.35 1944.47 273.35 1944.47 264.39 1931.42 264.39 1918.43 264.39"/><polygon class="cls-5" points="1905.31 299.59 1905.31 291.27 1892.31 291.27 1879.19 291.27 1879.19 299.59 1892.31 299.59 1905.31 299.59"/><polygon class="cls-5" points="1931.42 299.59 1931.42 291.27 1918.43 291.27 1905.31 291.27 1905.31 299.59 1918.43 299.59 1931.42 299.59"/><rect class="cls-5" x="1931.42" y="291.27" width="13.06" height="8.32"/><rect class="cls-5" x="1879.19" y="282.31" width="13.12" height="8.96"/><polygon class="cls-5" points="1918.43 282.31 1905.31 282.31 1892.31 282.31 1892.31 291.27 1905.31 291.27 1918.43 291.27 1918.43 282.31"/><polygon class="cls-5" points="1918.43 282.31 1918.43 291.27 1931.42 291.27 1944.47 291.27 1944.47 282.31 1931.42 282.31 1918.43 282.31"/><polygon class="cls-6" points="1905.31 308.55 1892.31 308.55 1879.19 308.55 1879.19 317.51 1905.31 317.51 1905.31 308.55"/><polygon class="cls-5" points="1918.43 308.55 1905.31 308.55 1905.31 317.51 1931.42 317.51 1931.42 308.55 1918.43 308.55"/><rect class="cls-5" x="1931.42" y="308.55" width="13.06" height="8.96"/><polygon class="cls-6" points="1892.31 299.59 1879.19 299.59 1879.19 300.23 1879.19 308.55 1892.31 308.55 1892.31 299.59"/><polygon class="cls-5" points="1918.43 299.59 1905.31 299.59 1892.31 299.59 1892.31 308.55 1905.31 308.55 1918.43 308.55 1918.43 299.59"/><polygon class="cls-5" points="1918.43 299.59 1918.43 308.55 1931.42 308.55 1944.47 308.55 1944.47 299.59 1931.42 299.59 1918.43 299.59"/></g><g id="brick_wall-2" data-name="brick wall"><polygon class="cls-5" points="1997.46 257.35 1997.46 251.66 1971.35 251.66 1971.35 257.35 1984.47 257.35 1997.46 257.35"/><polygon class="cls-5" points="2010.59 257.35 2023.58 257.35 2023.58 251.66 1997.46 251.66 1997.46 257.35 2010.59 257.35"/><rect class="cls-5" x="2023.58" y="251.66" width="13.07" height="5.69"/><polygon class="cls-5" points="1997.46 275.27 1997.46 266.31 1984.47 266.31 1971.35 266.31 1971.35 275.27 1984.47 275.27 1997.46 275.27"/><polygon class="cls-5" points="2023.58 275.27 2023.58 266.31 2010.59 266.31 1997.46 266.31 1997.46 275.27 2010.59 275.27 2023.58 275.27"/><rect class="cls-6" x="2023.58" y="266.31" width="13.07" height="8.96"/><rect class="cls-5" x="1971.35" y="257.35" width="13.12" height="8.96"/><polygon class="cls-5" points="2010.59 257.35 1997.46 257.35 1984.47 257.35 1984.47 266.31 1997.46 266.31 2010.59 266.31 2010.59 257.35"/><polygon class="cls-5" points="2010.59 257.35 2010.59 266.31 2023.58 266.31 2036.64 266.31 2036.64 257.35 2023.58 257.35 2010.59 257.35"/><polygon class="cls-5" points="1997.46 293.19 1997.46 284.23 1984.47 284.23 1971.35 284.23 1971.35 293.19 1984.47 293.19 1997.46 293.19"/><polygon class="cls-5" points="2023.58 293.19 2023.58 284.23 2010.59 284.23 1997.46 284.23 1997.46 293.19 2010.59 293.19 2023.58 293.19"/><rect class="cls-6" x="2023.58" y="284.23" width="13.07" height="8.96"/><rect class="cls-5" x="1971.35" y="293.19" width="13.12" height="8.96"/><rect class="cls-5" x="1957.91" y="257.42" width="13.44" height="8.96"/><rect class="cls-5" x="1957.91" y="310.54" width="13.44" height="8.96"/><polygon class="cls-5" points="2010.59 275.27 1997.46 275.27 1984.47 275.27 1984.47 284.23 1997.46 284.23 2010.59 284.23 2010.59 275.27"/><polygon class="cls-6" points="2010.59 275.27 2010.59 284.23 2023.58 284.23 2036.64 284.23 2036.64 275.27 2023.58 275.27 2010.59 275.27"/><polygon class="cls-5" points="1997.46 310.47 1997.46 302.15 1984.47 302.15 1971.35 302.15 1971.35 310.47 1984.47 310.47 1997.46 310.47"/><polygon class="cls-5" points="2023.58 310.47 2023.58 302.15 2010.59 302.15 1997.46 302.15 1997.46 310.47 2010.59 310.47 2023.58 310.47"/><rect class="cls-5" x="2023.58" y="302.15" width="13.07" height="8.32"/><rect class="cls-5" x="1971.35" y="293.19" width="13.12" height="8.96"/><polygon class="cls-5" points="2010.59 293.19 1997.46 293.19 1984.47 293.19 1984.47 302.15 1997.46 302.15 2010.59 302.15 2010.59 293.19"/><polygon class="cls-5" points="2010.59 293.19 2010.59 302.15 2023.58 302.15 2036.64 302.15 2036.64 293.19 2023.58 293.19 2010.59 293.19"/><polygon class="cls-5" points="1997.46 319.43 1984.47 319.43 1971.35 319.43 1971.35 328.54 1997.46 328.54 1997.46 319.43"/><polygon class="cls-5" points="2010.59 319.43 1997.46 319.43 1997.46 328.54 2023.58 328.54 2023.58 319.43 2010.59 319.43"/><rect class="cls-5" x="2023.58" y="319.43" width="13.07" height="9.12"/><polygon class="cls-5" points="1984.47 310.47 1971.35 310.47 1971.35 311.11 1971.35 319.43 1984.47 319.43 1984.47 310.47"/><polygon class="cls-5" points="2010.59 310.47 1997.46 310.47 1984.47 310.47 1984.47 319.43 1997.46 319.43 2010.59 319.43 2010.59 310.47"/><polygon class="cls-5" points="2010.59 310.47 2010.59 319.43 2023.58 319.43 2036.64 319.43 2036.64 310.47 2023.58 310.47 2010.59 310.47"/></g><g id="Door"><rect class="cls-7" x="1819.03" y="268.94" width="32" height="59.6"/><rect class="cls-1" x="1819.03" y="268.94" width="32" height="12.8"/><rect class="cls-1" x="1795.63" y="292.34" width="59.6" height="12.8" transform="translate(1526.69 2124.17) rotate(-90)"/></g><g id="window"><rect class="cls-7" x="1698.71" y="255.5" width="38.4" height="36.48"/><rect class="cls-1" x="1698.71" y="255.5" width="38.4" height="12.8"/></g><g id="window-2" data-name="window"><rect class="cls-7" x="1758.87" y="255.5" width="38.4" height="36.48"/><rect class="cls-1" x="1758.87" y="255.5" width="38.4" height="12.8"/></g><g id="window-3" data-name="window"><rect class="cls-8" x="1909.27" y="255.5" width="38.4" height="36.48"/><rect class="cls-9" x="1909.27" y="255.5" width="38.4" height="12.8"/></g><g id="window-4" data-name="window"><rect class="cls-8" x="1968.79" y="255.5" width="38.4" height="36.48"/><rect class="cls-9" x="1968.79" y="255.5" width="38.4" height="12.8"/></g><rect class="cls-2" x="1676.95" y="233.28" width="202.24" height="7.76"/><rect class="cls-10" x="1879.19" y="233.28" width="157.45" height="7.76"/><g id="roof"><polygon class="cls-11" points="1974.79 197.9 1816.88 197.9 1879.19 233.28 2036.64 233.28 1974.79 197.9"/><polygon class="cls-12" points="1817.19 197.9 1737.69 197.9 1676.87 233.28 1677.01 233.28 1879.19 233.28 1879.27 233.28 1817.19 197.9"/></g><path id="bush" class="cls-13" d="M2083.53,317.73a11.65,11.65,0,0,0-2,.17,45.69,45.69,0,0,1-31.34-11.77,11.59,11.59,0,0,0-3.49.54c0-.18,0-.36,0-.54a11.59,11.59,0,0,0-23.16-.84,11.6,11.6,0,0,0-21.49,6.06c0,.3,0,.59,0,.88a11.6,11.6,0,0,0-17.72,9.85,11.81,11.81,0,0,0,1.91,6.46h108.62A11.51,11.51,0,0,0,2083.53,317.73Z"/><path id="bush-2" data-name="bush" class="cls-13" d="M1624,315.66a12.75,12.75,0,0,1,9.39,4.13,11.51,11.51,0,0,1,14.86-5.81,16,16,0,0,1,31.32,2.42,16,16,0,0,1,22.3,12.14h-91A13.16,13.16,0,0,1,1624,315.66Z"/><path class="cls-14" d="M1918.34,321.42a9.22,9.22,0,0,1,4.81,1.36,9.26,9.26,0,0,1,14.79-7.2,36.48,36.48,0,0,0,23.27-7.6,9.27,9.27,0,0,1,9.15,7.82,9.22,9.22,0,0,1,9.85,0,9.27,9.27,0,0,1,18.26-.35,9.28,9.28,0,0,1,13.62,8.2c0,.11,0,.22,0,.34l.34,0a9.34,9.34,0,0,1,7.93,4.56h-111A9.35,9.35,0,0,1,1918.34,321.42Z"/><polygon class="cls-15" points="2042.39 328.54 2030.23 328.54 2036.31 316.62 2042.39 328.54"/><polygon class="cls-15" points="2054.55 328.54 2042.39 328.54 2048.47 316.62 2054.55 328.54"/><polygon class="cls-15" points="2066.71 328.54 2054.55 328.54 2060.63 316.62 2066.71 328.54"/><polygon class="cls-15" points="1772.95 328.54 1760.79 328.54 1766.87 316.62 1772.95 328.54"/><polygon class="cls-15" points="1785.11 328.54 1772.95 328.54 1779.03 316.62 1785.11 328.54"/><polygon class="cls-15" points="1809.43 328.54 1797.27 328.54 1803.35 316.62 1809.43 328.54"/><line class="cls-16" x1="1648.13" y1="276.89" x2="1648.13" y2="320.47"/><path class="cls-14" d="M1659.45,269.44a12.72,12.72,0,0,0-4.86-17.25,8.92,8.92,0,1,0-12.55,0,12.72,12.72,0,0,0-4.86,17.25,16.13,16.13,0,1,0,22.27,0Z"/><path class="cls-4" d="M1648.57,328.54h0a12,12,0,0,1-11.91-11.66l-.1-9h24l-.1,9A12,12,0,0,1,1648.57,328.54Z"/><path class="cls-14" d="M1746.39,321.42a9.22,9.22,0,0,0-4.81,1.36,9.26,9.26,0,0,0-14.79-7.2,36.48,36.48,0,0,1-23.27-7.6,9.27,9.27,0,0,0-9.15,7.82,9.22,9.22,0,0,0-9.85,0,9.27,9.27,0,0,0-18.26-.35,9.28,9.28,0,0,0-13.62,8.2c0,.11,0,.22,0,.34l-.34,0a9.34,9.34,0,0,0-7.93,4.56h111A9.35,9.35,0,0,0,1746.39,321.42Z"/><line class="cls-17" x1="1067.26" y1="254.95" x2="1067.26" y2="328.01"/><path class="cls-15" d="M1098.94,257.12a31.68,31.68,0,1,1-63.36,0c0-17.5,14.18-90.43,31.68-90.43S1098.94,239.62,1098.94,257.12Z"/><polygon class="cls-14" points="1639.8 328.54 1628.86 328.54 1634.33 317.6 1639.8 328.54"/><polygon class="cls-14" points="1651.03 328.54 1639.8 328.54 1645.28 317.6 1651.03 328.54"/><polygon class="cls-15" points="1048.25 328.54 1037.31 328.54 1042.78 317.6 1048.25 328.54"/><polygon class="cls-15" points="1059.2 328.54 1048.25 328.54 1053.72 317.6 1059.2 328.54"/><g id="Main"><rect class="cls-2" x="1094.33" y="140.19" width="105.98" height="187.78"/><rect class="cls-2" x="1200.32" y="140.19" width="105.98" height="187.78"/><rect class="cls-2" x="1306.3" y="140.19" width="105.98" height="187.78"/><rect class="cls-2" x="1412.28" y="140.19" width="106.57" height="187.78"/><rect class="cls-10" x="1469.59" y="198.09" width="175.68" height="84.08" transform="translate(1317.3 1797.55) rotate(-90)"/></g><g id="Door-2" data-name="Door"><rect class="cls-7" x="1108.73" y="274.4" width="28.8" height="53.57"/><rect class="cls-1" x="1108.73" y="274.4" width="28.8" height="11.52"/><rect class="cls-1" x="1087.71" y="295.42" width="53.57" height="11.52" transform="translate(813.31 1415.67) rotate(-90)"/></g><g id="window-5" data-name="window"><rect class="cls-7" x="1149.63" y="262.3" width="34.56" height="32.83"/><rect class="cls-1" x="1149.63" y="262.3" width="34.56" height="11.52"/></g><g id="Door-3" data-name="Door"><rect class="cls-7" x="1215.1" y="274.4" width="28.8" height="53.57"/><rect class="cls-1" x="1215.1" y="274.4" width="28.8" height="11.52"/><rect class="cls-1" x="1194.08" y="295.42" width="53.57" height="11.52" transform="translate(919.68 1522.04) rotate(-90)"/></g><g id="window-6" data-name="window"><rect class="cls-7" x="1256" y="262.3" width="34.56" height="32.83"/><rect class="cls-1" x="1256" y="262.3" width="34.56" height="11.52"/></g><g id="Door-4" data-name="Door"><rect class="cls-7" x="1321.47" y="274.4" width="28.8" height="53.57"/><rect class="cls-1" x="1321.47" y="274.4" width="28.8" height="11.52"/><rect class="cls-1" x="1300.44" y="295.42" width="53.57" height="11.52" transform="translate(1026.04 1628.41) rotate(-90)"/></g><g id="window-7" data-name="window"><rect class="cls-7" x="1362.36" y="262.3" width="34.56" height="32.83"/><rect class="cls-1" x="1362.36" y="262.3" width="34.56" height="11.52"/></g><g id="Door-5" data-name="Door"><rect class="cls-7" x="1427.84" y="274.4" width="28.8" height="53.57"/><rect class="cls-1" x="1427.84" y="274.4" width="28.8" height="11.52"/><rect class="cls-1" x="1406.81" y="295.42" width="53.57" height="11.52" transform="translate(1132.41 1734.78) rotate(-90)"/></g><g id="window-8" data-name="window"><rect class="cls-7" x="1468.73" y="262.3" width="34.56" height="32.83"/><rect class="cls-1" x="1468.73" y="262.3" width="34.56" height="11.52"/></g><g id="Door-6" data-name="Door"><rect class="cls-7" x="1109.31" y="176.33" width="28.8" height="53.57"/><rect class="cls-1" x="1109.31" y="176.33" width="28.8" height="11.52"/><rect class="cls-1" x="1088.28" y="197.36" width="53.57" height="11.52" transform="translate(911.95 1318.19) rotate(-90)"/></g><g id="window-9" data-name="window"><rect class="cls-7" x="1150.2" y="164.24" width="34.56" height="32.83"/><rect class="cls-1" x="1150.2" y="164.24" width="34.56" height="11.52"/></g><g id="Door-7" data-name="Door"><rect class="cls-7" x="1215.48" y="176.33" width="28.8" height="53.57"/><rect class="cls-1" x="1215.48" y="176.33" width="28.8" height="11.52"/><rect class="cls-1" x="1194.46" y="197.36" width="53.57" height="11.52" transform="translate(1018.12 1424.36) rotate(-90)"/></g><g id="window-10" data-name="window"><rect class="cls-7" x="1256.38" y="164.24" width="34.56" height="32.83"/><rect class="cls-1" x="1256.38" y="164.24" width="34.56" height="11.52"/></g><g id="Door-8" data-name="Door"><rect class="cls-7" x="1321.66" y="176.33" width="28.8" height="53.57"/><rect class="cls-1" x="1321.66" y="176.33" width="28.8" height="11.52"/><rect class="cls-1" x="1300.64" y="197.36" width="53.57" height="11.52" transform="translate(1124.3 1530.54) rotate(-90)"/></g><g id="window-11" data-name="window"><rect class="cls-7" x="1362.56" y="164.24" width="34.56" height="32.83"/><rect class="cls-1" x="1362.56" y="164.24" width="34.56" height="11.52"/></g><g id="Door-9" data-name="Door"><rect class="cls-7" x="1427.84" y="176.33" width="28.8" height="53.57"/><rect class="cls-1" x="1427.84" y="176.33" width="28.8" height="11.52"/><rect class="cls-1" x="1406.81" y="197.36" width="53.57" height="11.52" transform="translate(1230.48 1636.71) rotate(-90)"/></g><g id="window-12" data-name="window"><rect class="cls-7" x="1468.73" y="164.24" width="34.56" height="32.83"/><rect class="cls-1" x="1468.73" y="164.24" width="34.56" height="11.52"/></g><rect class="cls-18" x="1101.24" y="208.16" width="417.61" height="24.77"/><rect class="cls-19" x="1101.24" y="208.16" width="6.91" height="24.77"/><rect class="cls-19" x="1207.23" y="208.16" width="6.91" height="24.77"/><rect class="cls-19" x="1313.21" y="208.16" width="6.91" height="24.77"/><rect class="cls-19" x="1419.2" y="208.16" width="6.91" height="24.77"/><rect class="cls-20" x="1094.33" y="232.93" width="417.6" height="20.16"/><rect class="cls-2" x="1094.33" y="232.93" width="421.06" height="8.06"/><g id="window-13" data-name="window"><rect class="cls-8" x="1541.88" y="164.38" width="34.56" height="32.83"/><rect class="cls-9" x="1541.88" y="164.38" width="34.56" height="11.52"/></g><g id="window-14" data-name="window"><rect class="cls-8" x="1541.88" y="262.3" width="34.56" height="32.83"/><rect class="cls-9" x="1541.88" y="262.3" width="34.56" height="11.52"/></g><rect class="cls-2" x="1087.41" y="140.19" width="431.44" height="12.1"/><rect class="cls-20" x="1087.46" y="142.49" width="431.44" height="10.94"/><rect class="cls-20" x="1318.4" y="227.17" width="187.78" height="13.82" transform="translate(1178.2 1646.36) rotate(-90)"/><rect class="cls-2" x="1405.37" y="140.19" width="6.91" height="187.78"/><rect class="cls-20" x="1212.41" y="227.17" width="187.78" height="13.82" transform="translate(1072.22 1540.38) rotate(-90)"/><rect class="cls-2" x="1299.39" y="140.19" width="6.91" height="187.78"/><rect class="cls-20" x="1106.43" y="227.17" width="187.78" height="13.82" transform="translate(966.24 1434.39) rotate(-90)"/><rect class="cls-2" x="1193.4" y="140.19" width="6.91" height="187.78"/><rect class="cls-20" x="1000.44" y="227.16" width="187.78" height="13.83" transform="translate(860.25 1328.41) rotate(-90)"/><rect class="cls-2" x="996.98" y="230.62" width="187.78" height="6.92" transform="translate(856.79 1324.95) rotate(-90)"/><rect class="cls-2" x="1511.93" y="140.19" width="6.92" height="187.78"/><polygon class="cls-5" points="1559.14 95.32 1559.14 95.32 1518.85 136.01 1518.85 136.16 1599.46 136.16 1599.46 136.01 1559.14 95.32"/><polygon class="cls-4" points="1215.82 95.31 1127.84 95.35 1087.41 136.16 1518.85 136.16 1559.14 95.32 1215.82 95.31"/><rect class="cls-2" x="1087.41" y="136.16" width="431.44" height="6.29"/><rect class="cls-19" x="1518.85" y="136.16" width="80.62" height="17.28"/><g id="roof_peak" data-name="roof peak"><polygon class="cls-5" points="1465.41 106.25 1465.41 106.25 1495.18 136.22 1525.2 106.21 1465.41 106.25"/><polygon class="cls-2" points="1495.8 136.16 1465.41 106.25 1435.32 136.16 1435.32 142.45 1495.8 142.45 1495.8 136.16"/><polygon class="cls-20" points="1432.53 152.29 1498.24 152.29 1465.45 116 1432.53 152.29"/></g><g id="roof_peak-2" data-name="roof peak"><polygon class="cls-5" points="1359.43 106.25 1359.43 106.25 1389.19 136.22 1419.21 106.21 1359.43 106.25"/><polygon class="cls-2" points="1389.82 136.16 1359.43 106.25 1329.34 136.16 1329.34 142.45 1389.82 142.45 1389.82 136.16"/><polygon class="cls-20" points="1326.55 152.29 1392.25 152.29 1359.47 116 1326.55 152.29"/></g><g id="roof_peak-3" data-name="roof peak"><polygon class="cls-5" points="1147.46 106.25 1147.46 106.25 1177.23 136.22 1207.24 106.21 1147.46 106.25"/><polygon class="cls-2" points="1177.85 136.16 1147.46 106.25 1117.37 136.16 1117.37 142.45 1177.85 142.45 1177.85 136.16"/></g><g id="roof_peak-4" data-name="roof peak"><polygon class="cls-5" points="1253.44 106.25 1253.44 106.25 1283.21 136.22 1313.23 106.21 1253.44 106.25"/><polygon class="cls-2" points="1283.84 136.16 1253.44 106.25 1223.36 136.16 1223.36 142.45 1283.84 142.45 1283.84 136.16"/><polygon class="cls-20" points="1220.56 152.29 1286.27 152.29 1253.48 116 1220.56 152.29"/></g><polygon class="cls-20" points="1147.5 116 1123.46 142.5 1171.44 142.5 1147.5 116"/><polygon class="cls-21" points="1539.58 328.25 1528.64 328.25 1534.11 317.31 1539.58 328.25"/><polygon class="cls-21" points="1550.52 328.25 1539.58 328.25 1545.05 317.31 1550.52 328.25"/><polygon class="cls-21" points="1579.32 328.25 1568.38 328.25 1573.85 317.31 1579.32 328.25"/><line class="cls-17" x1="1619.03" y1="254.95" x2="1619.03" y2="328.01"/><path class="cls-14" d="M1636.21,219.66q0-.81,0-1.65a17.21,17.21,0,0,0-34.41.58q0,.75.06,1.48a25.58,25.58,0,0,1-6.62,19,31.68,31.68,0,1,0,47.25-.32A25.86,25.86,0,0,1,1636.21,219.66Z"/><polygon class="cls-22" points="690.98 94.61 973.8 94.61 906.6 27.41 623.78 27.41 690.98 94.61"/><rect class="cls-23" x="557.23" y="118.72" width="301.58" height="158.32"/><rect class="cls-2" x="534.96" y="277.05" width="452.55" height="16"/><rect class="cls-10" x="534.96" y="288.98" width="452.55" height="4.07"/><rect class="cls-2" x="514.41" y="309.03" width="473.1" height="16"/><rect class="cls-2" x="525.38" y="293.02" width="462.13" height="16"/><rect class="cls-10" x="863.38" y="277.04" width="124.13" height="16"/><rect class="cls-10" x="843.08" y="309.03" width="144.43" height="16"/><rect class="cls-10" x="853.8" y="293.01" width="133.72" height="16"/><polygon class="cls-1" points="839.41 94.61 556.6 94.61 623.8 27.41 906.61 27.41 839.41 94.61"/><rect class="cls-24" x="858.81" y="118.9" width="114.98" height="158.15"/><rect class="cls-10" x="858.81" y="93.33" width="128.65" height="25.6"/><polygon class="cls-25" points="734.65 111.28 700.21 109.66 665.77 111.28 665.77 74.31 700.21 33.21 734.65 74.31 734.65 111.28"/><polygon class="cls-2" points="734.65 120.94 700.21 119.33 665.77 120.94 665.77 83.98 700.21 42.88 734.65 83.98 734.65 120.94"/><polygon class="cls-25" points="757.93 74.12 734.84 97.21 734.65 97.21 734.65 74.12 757.93 74.12"/><polyline class="cls-22" points="734.69 74.31 700.21 33.21 723.08 33.21 757.93 74.12"/><rect class="cls-2" x="539.58" y="93.33" width="319.24" height="25.39"/><rect class="cls-24" x="557.23" y="118.93" width="358.4" height="15.67"/><g id="Door-10" data-name="Door"><rect class="cls-7" x="625.86" y="180.13" width="164.33" height="96.92"/><rect class="cls-1" x="625.86" y="180.13" width="164.33" height="13.98"/><rect class="cls-1" x="584.71" y="221.28" width="96.92" height="14.62" transform="translate(404.58 861.76) rotate(-90)"/></g><rect class="cls-2" x="805.25" y="118.72" width="39.99" height="158.32"/><rect class="cls-2" x="797.25" y="256.19" width="55.98" height="20.85"/><rect class="cls-10" x="797.25" y="118.72" width="55.98" height="20.85"/><rect class="cls-25" x="815.24" y="118.72" width="37.99" height="20.85"/><polygon class="cls-10" points="825.24 139.58 805.25 139.58 805.25 150.89 825.24 150.89 825.24 256.46 845.24 256.46 845.24 150.89 845.24 139.58 825.24 139.58"/><rect class="cls-10" x="830.31" y="256.19" width="22.92" height="20.85"/><rect class="cls-2" x="552.55" y="118.72" width="39.99" height="158.32"/><rect class="cls-2" x="544.55" y="256.19" width="55.98" height="20.85"/><rect class="cls-10" x="544.55" y="118.72" width="55.98" height="20.85"/><rect class="cls-25" x="562.54" y="118.72" width="37.99" height="20.85"/><polygon class="cls-10" points="572.54 139.58 552.55 139.58 552.55 150.89 572.54 150.89 572.54 256.46 592.53 256.46 592.53 150.89 592.53 139.58 572.54 139.58"/><rect class="cls-10" x="577.61" y="256.19" width="22.92" height="20.85"/><rect class="cls-2" x="636.78" y="118.72" width="39.99" height="158.32"/><rect class="cls-2" x="628.79" y="256.19" width="55.98" height="20.85"/><rect class="cls-10" x="628.79" y="118.72" width="55.98" height="20.85"/><rect class="cls-25" x="646.78" y="118.72" width="37.99" height="20.85"/><polygon class="cls-10" points="656.77 139.58 636.78 139.58 636.78 150.89 656.77 150.89 656.77 256.46 676.77 256.46 676.77 150.89 676.77 139.58 656.77 139.58"/><rect class="cls-10" x="661.85" y="256.19" width="22.92" height="20.85"/><rect class="cls-2" x="721.02" y="118.72" width="39.99" height="158.32"/><rect class="cls-2" x="713.02" y="256.19" width="55.98" height="20.85"/><rect class="cls-10" x="713.02" y="118.72" width="55.98" height="20.85"/><rect class="cls-25" x="731.01" y="118.72" width="37.99" height="20.85"/><polygon class="cls-10" points="741.01 139.58 721.01 139.58 721.01 150.89 741.01 150.89 741.01 256.46 761 256.46 761 150.89 761 139.58 741.01 139.58"/><rect class="cls-10" x="746.08" y="256.19" width="22.92" height="20.85"/><polygon class="cls-24" points="858.8 134.89 881.8 134.76 881.8 150.59 858.8 150.59 858.8 134.89"/><rect class="cls-24" x="881.8" y="134.76" width="23" height="15.83"/><rect class="cls-24" x="904.8" y="134.76" width="23" height="15.83"/><rect class="cls-24" x="927.8" y="134.76" width="23" height="15.83"/><polygon class="cls-24" points="950.8 134.76 973.77 134.79 973.8 150.59 950.8 150.59 950.8 134.76"/><rect class="cls-24" x="893.36" y="118.93" width="23" height="15.83"/><rect class="cls-24" x="916.36" y="118.93" width="23" height="15.83"/><rect class="cls-24" x="858.8" y="166.42" width="23" height="15.83"/><rect class="cls-24" x="881.8" y="166.42" width="23" height="15.83"/><rect class="cls-24" x="904.8" y="166.42" width="23" height="15.83"/><rect class="cls-24" x="927.8" y="166.42" width="23" height="15.83"/><rect class="cls-24" x="950.8" y="166.42" width="23" height="15.83"/><rect class="cls-24" x="858.8" y="150.59" width="11.56" height="15.83"/><rect class="cls-24" x="870.36" y="150.59" width="23" height="15.83"/><rect class="cls-24" x="893.36" y="150.59" width="23" height="15.83"/><rect class="cls-24" x="916.36" y="150.59" width="23" height="15.83"/><rect class="cls-24" x="962.13" y="150.59" width="11.67" height="15.83"/><rect class="cls-24" x="939.36" y="150.59" width="23" height="15.83"/><rect class="cls-24" x="858.8" y="198.07" width="23" height="15.83"/><rect class="cls-24" x="881.8" y="198.07" width="23" height="15.83"/><rect class="cls-24" x="904.8" y="198.07" width="23" height="15.83"/><rect class="cls-24" x="927.8" y="198.07" width="23" height="15.83"/><rect class="cls-24" x="950.8" y="198.07" width="23" height="15.83"/><rect class="cls-24" x="858.8" y="182.24" width="11.56" height="15.83"/><rect class="cls-24" x="870.36" y="182.24" width="23" height="15.83"/><rect class="cls-24" x="893.36" y="182.24" width="23" height="15.83"/><rect class="cls-24" x="916.36" y="182.24" width="23" height="15.83"/><rect class="cls-24" x="962.13" y="182.24" width="11.67" height="15.83"/><rect class="cls-24" x="939.36" y="182.24" width="23" height="15.83"/><rect class="cls-24" x="858.8" y="229.73" width="23" height="15.83"/><rect class="cls-26" x="881.8" y="229.73" width="23" height="15.83"/><rect class="cls-24" x="904.8" y="229.73" width="23" height="15.83"/><rect class="cls-24" x="927.8" y="229.73" width="23" height="15.83"/><rect class="cls-26" x="950.8" y="229.73" width="23" height="15.83"/><rect class="cls-24" x="858.8" y="213.9" width="11.56" height="15.83"/><rect class="cls-24" x="847.36" y="213.9" width="11.56" height="15.83"/><rect class="cls-24" x="870.36" y="213.9" width="23" height="15.83"/><rect class="cls-24" x="893.36" y="213.9" width="23" height="15.83"/><rect class="cls-24" x="916.36" y="213.9" width="23" height="15.83"/><rect class="cls-24" x="962.13" y="213.9" width="11.67" height="15.83"/><rect class="cls-24" x="939.36" y="213.9" width="23" height="15.83"/><rect class="cls-24" x="858.8" y="260.25" width="23" height="15.83"/><rect class="cls-24" x="881.8" y="260.25" width="23" height="15.83"/><rect class="cls-24" x="904.8" y="260.25" width="23" height="15.83"/><rect class="cls-24" x="927.8" y="260.25" width="23" height="15.83"/><rect class="cls-24" x="950.8" y="260.25" width="23" height="15.83"/><rect class="cls-24" x="858.8" y="244.42" width="11.56" height="15.83"/><rect class="cls-26" x="870.36" y="244.42" width="23" height="15.83"/><rect class="cls-24" x="893.36" y="244.42" width="23" height="15.83"/><rect class="cls-24" x="916.36" y="244.42" width="23" height="15.83"/><rect class="cls-24" x="962.13" y="244.42" width="11.67" height="15.83"/><rect class="cls-24" x="939.36" y="244.42" width="23" height="15.83"/><rect class="cls-10" x="525.38" y="304.95" width="462.13" height="4.07"/><rect class="cls-10" x="514.41" y="320.93" width="473.1" height="4.07"/><g id="window-15" data-name="window"><rect class="cls-8" x="883.69" y="137.79" width="25.6" height="25.6"/><rect class="cls-9" x="883.81" y="137.77" width="25.4" height="5.38"/></g><g id="window-16" data-name="window"><rect class="cls-8" x="923.31" y="137.79" width="25.6" height="25.6"/><rect class="cls-9" x="923.43" y="137.77" width="25.4" height="5.38"/></g><g id="window-17" data-name="window"><rect class="cls-8" x="883.69" y="175.85" width="25.6" height="25.6"/><rect class="cls-9" x="883.81" y="175.83" width="25.4" height="5.38"/></g><g id="window-18" data-name="window"><rect class="cls-8" x="923.31" y="175.85" width="25.6" height="25.6"/><rect class="cls-9" x="923.43" y="175.83" width="25.4" height="5.38"/></g><path id="bush-3" data-name="bush" class="cls-14" d="M453.6,309.9a13,13,0,0,0-6,1.46,13.07,13.07,0,0,0-22.34-3.94A13.07,13.07,0,0,0,409,297.29a13.07,13.07,0,0,0-26,2.15c0,.09,0,.17,0,.26a13.07,13.07,0,0,0-20.74,6.6,13.07,13.07,0,0,0-21.9,7.37,13.06,13.06,0,0,0-18.92,13.87H466.69c.53-1.42,0-3,0-4.57A13.08,13.08,0,0,0,453.6,309.9Z"/><path id="bush-4" data-name="bush" class="cls-14" d="M15.13,313.3a15.47,15.47,0,0,1,2.65.23,15.4,15.4,0,0,1,27.35-6A15.41,15.41,0,0,1,64,298.61c0-.24,0-.47,0-.71a15.4,15.4,0,0,1,30.75-1.11,15.4,15.4,0,0,1,28.53,8c0,.39,0,.78,0,1.17a15.4,15.4,0,0,1,21,21.54H0A15.19,15.19,0,0,1,15.13,313.3Z"/><rect id="Front_wall-2" data-name="Front wall" class="cls-27" x="59.07" y="238.58" width="208.64" height="88.96"/><rect class="cls-28" x="267.71" y="238.58" width="128.64" height="88.96"/><polygon class="cls-28" points="267.71 247.54 293.44 247.47 293.44 256.43 267.71 256.43 267.71 247.54"/><rect class="cls-28" x="293.44" y="247.47" width="25.73" height="8.96"/><rect class="cls-28" x="319.17" y="247.47" width="25.73" height="8.96"/><rect class="cls-28" x="344.9" y="247.47" width="25.73" height="8.96"/><polygon class="cls-28" points="370.63 247.47 396.33 247.49 396.35 256.43 370.63 256.43 370.63 247.47"/><rect class="cls-28" x="306.37" y="238.51" width="25.73" height="8.96"/><rect class="cls-28" x="332.1" y="238.51" width="25.73" height="8.96"/><rect class="cls-28" x="267.71" y="265.39" width="25.73" height="8.96"/><rect class="cls-28" x="293.44" y="265.39" width="25.73" height="8.96"/><rect class="cls-28" x="319.17" y="265.39" width="25.73" height="8.96"/><rect class="cls-28" x="344.9" y="265.39" width="25.73" height="8.96"/><rect class="cls-29" x="370.62" y="265.39" width="25.73" height="8.96"/><rect class="cls-28" x="267.71" y="256.43" width="12.93" height="8.96"/><rect class="cls-28" x="280.64" y="256.43" width="25.73" height="8.96"/><rect class="cls-28" x="306.37" y="256.43" width="25.73" height="8.96"/><rect class="cls-28" x="332.1" y="256.43" width="25.73" height="8.96"/><rect class="cls-29" x="383.3" y="256.43" width="13.06" height="8.96"/><rect class="cls-28" x="357.82" y="256.43" width="25.73" height="8.96"/><rect class="cls-28" x="267.71" y="283.31" width="25.73" height="8.96"/><rect class="cls-28" x="293.44" y="283.31" width="25.73" height="8.96"/><rect class="cls-28" x="319.17" y="283.31" width="25.73" height="8.96"/><rect class="cls-28" x="344.9" y="283.31" width="25.73" height="8.96"/><rect class="cls-28" x="370.62" y="283.31" width="25.73" height="8.96"/><rect class="cls-28" x="267.71" y="274.35" width="12.93" height="8.96"/><rect class="cls-28" x="280.64" y="274.35" width="25.73" height="8.96"/><rect class="cls-28" x="306.37" y="274.35" width="25.73" height="8.96"/><rect class="cls-28" x="332.1" y="274.35" width="25.73" height="8.96"/><rect class="cls-29" x="383.3" y="274.35" width="13.06" height="8.96"/><rect class="cls-28" x="357.82" y="274.35" width="25.73" height="8.96"/><rect class="cls-29" x="267.71" y="301.23" width="25.73" height="8.96"/><rect class="cls-28" x="293.44" y="301.23" width="25.73" height="8.96"/><rect class="cls-28" x="319.17" y="301.23" width="25.73" height="8.96"/><rect class="cls-29" x="344.9" y="301.23" width="25.73" height="8.96"/><rect class="cls-28" x="370.62" y="301.23" width="25.73" height="8.96"/><rect class="cls-29" x="267.71" y="292.27" width="12.93" height="8.96"/><rect class="cls-28" x="254.91" y="292.34" width="12.8" height="8.96"/><rect class="cls-28" x="280.64" y="292.27" width="25.73" height="8.96"/><rect class="cls-28" x="306.37" y="292.27" width="25.73" height="8.96"/><rect class="cls-28" x="332.1" y="292.27" width="25.73" height="8.96"/><rect class="cls-28" x="383.3" y="292.27" width="13.06" height="8.96"/><rect class="cls-28" x="357.82" y="292.27" width="25.73" height="8.96"/><rect class="cls-28" x="267.71" y="318.51" width="25.73" height="9.03"/><rect class="cls-28" x="293.44" y="318.51" width="25.73" height="9.03"/><rect class="cls-28" x="319.17" y="318.51" width="25.73" height="9.03"/><rect class="cls-28" x="344.9" y="318.51" width="25.73" height="9.03"/><rect class="cls-28" x="370.62" y="318.51" width="25.73" height="9.03"/><rect class="cls-28" x="267.71" y="309.55" width="12.93" height="8.96"/><rect class="cls-28" x="280.64" y="309.55" width="25.73" height="8.96"/><rect class="cls-28" x="306.37" y="309.55" width="25.73" height="8.96"/><rect class="cls-29" x="332.1" y="309.55" width="25.73" height="8.96"/><rect class="cls-28" x="383.3" y="309.55" width="13.06" height="8.96"/><rect class="cls-28" x="357.82" y="309.55" width="25.73" height="8.96"/><circle class="cls-1" cx="242.11" cy="268.02" r="6.4"/><line class="cls-3" x1="247.87" y1="191.86" x2="247.87" y2="213.62"/><line class="cls-3" x1="224.19" y1="163.06" x2="224.19" y2="212.34"/><line class="cls-3" x1="210.75" y1="182.26" x2="238.27" y2="182.26"/><line class="cls-3" x1="210.75" y1="172.02" x2="238.27" y2="172.02"/><polygon class="cls-22" points="334.43 202.74 205.63 202.74 267.71 238.5 396.35 238.54 334.43 202.74"/><polygon class="cls-1" points="205.79 202.74 121 202.74 59.07 238.5 59.22 238.58 267.71 238.5 267.71 238.5 205.79 202.74"/><g id="Door-11" data-name="Door"><rect class="cls-7" x="147.39" y="268.02" width="32" height="59.52"/><rect class="cls-1" x="147.39" y="268.02" width="32" height="12.8"/><rect class="cls-1" x="124.03" y="291.38" width="59.52" height="12.8" transform="translate(-143.99 451.58) rotate(-90)"/></g><g id="Door-12" data-name="Door"><rect class="cls-20" x="179.39" y="268.02" width="32" height="59.52"/><rect class="cls-12" x="179.39" y="268.02" width="32" height="12.8"/><path class="cls-18" d="M205,294.26h-19.2a9.6,9.6,0,1,1,19.2,0Z"/></g><g id="window-19" data-name="window"><rect class="cls-7" x="78.27" y="260.34" width="42.88" height="36.48"/><rect class="cls-1" x="78.27" y="260.34" width="42.88" height="12.8"/></g><g id="window-20" data-name="window"><rect class="cls-8" x="310.59" y="260.34" width="42.88" height="36.48"/><rect class="cls-9" x="310.59" y="260.34" width="42.88" height="12.8"/></g><polygon class="cls-28" points="267.71 249.46 59.07 249.46 59.07 238.58 267.71 238.5 267.71 249.46"/><polygon class="cls-29" points="396.35 238.54 267.71 238.5 267.71 249.46 396.35 249.46 396.35 238.54"/><path id="bush-5" data-name="bush" class="cls-13" d="M425.71,314a13.47,13.47,0,0,0-9.92,4.36,12.16,12.16,0,0,0-15.7-6.14A16.9,16.9,0,0,0,367,314.81a16.9,16.9,0,0,0-23.56,12.74h95.79A13.52,13.52,0,0,0,425.71,314Z"/><polygon class="cls-15" points="53.31 327.54 41.15 327.54 47.23 315.38 53.31 327.54"/><polygon class="cls-15" points="65.47 327.54 53.31 327.54 59.39 315.38 65.47 327.54"/><polygon class="cls-15" points="77.63 327.54 65.47 327.54 71.55 315.38 77.63 327.54"/><polygon class="cls-15" points="226.75 327.54 214.59 327.54 220.67 315.38 226.75 327.54"/><polygon class="cls-15" points="238.91 327.54 226.75 327.54 232.83 315.38 238.91 327.54"/><polygon class="cls-15" points="251.07 327.54 238.91 327.54 244.99 315.38 251.07 327.54"/></g></svg>