<svg xmlns="http://www.w3.org/2000/svg" width="2100" height="657.31" viewBox="0 0 2100 657.31"><defs><style>.cls-1{fill:#312766;}.cls-2{fill:#fff;}.cls-3{fill:#4e8e3b;}.cls-19,.cls-4{fill:#85ba5d;}.cls-22,.cls-5,.cls-6{fill:none;}.cls-22,.cls-5{stroke:#312766;}.cls-19,.cls-22,.cls-5,.cls-6{stroke-miterlimit:10;}.cls-5,.cls-6{stroke-width:6.4px;}.cls-6{stroke:#0e0c2b;}.cls-7{fill:gray;}.cls-8{fill:#ccc;}.cls-9{fill:#999;}.cls-10{fill:#465a8c;}.cls-11{fill:#213c68;}.cls-12{fill:#161656;}.cls-13{fill:#844526;}.cls-14{fill:#ad5d31;}.cls-15{fill:#4d4d4d;}.cls-16{fill:#f29f53;}.cls-17{fill:#b3b3b3;}.cls-18{fill:#666;}.cls-19{stroke:#85ba5d;stroke-width:0.64px;}.cls-20{fill:#ef5932;}.cls-21{fill:#aa4232;}.cls-22{stroke-width:3.58px;}.cls-23{fill:#e0e0e0;}.cls-24{fill:#ce4a5a;}.cls-25{fill:#ea5361;}.cls-26{fill:#bababa;}</style></defs><title>question-bg3-v2</title><g id="Layer_1" data-name="Layer 1"><path class="cls-1" d="M2096.8,511.05h-6.4V400.67a9.71,9.71,0,0,0-9.7-9.7h-.33a9.74,9.74,0,0,0-9.76,9.7v5.69h-6.4v-5.69a16.15,16.15,0,0,1,16.16-16.1h.33a16.12,16.12,0,0,1,16.1,16.1Z"/><rect class="cls-1" x="2087.2" y="477.75" width="12.8" height="33.3"/><path class="cls-1" d="M2093.6,506.24a6.4,6.4,0,0,1-6.4-6.4V460.92a6.4,6.4,0,1,1,12.8,0v38.92A6.4,6.4,0,0,1,2093.6,506.24Z"/><circle class="cls-2" cx="2067.36" cy="414.96" r="8.6"/><path class="cls-1" d="M2071.26,408.9h-7.79a2.56,2.56,0,0,1,0-5.12h7.79a2.56,2.56,0,0,1,0,5.12Z"/><path class="cls-1" d="M1571.8,511.05h-6.4V400.67a9.71,9.71,0,0,0-9.7-9.7h-.33a9.74,9.74,0,0,0-9.76,9.7v5.69h-6.4v-5.69a16.15,16.15,0,0,1,16.16-16.1h.33a16.12,16.12,0,0,1,16.1,16.1Z"/><rect class="cls-1" x="1562.2" y="477.75" width="12.8" height="33.3"/><path class="cls-1" d="M1568.6,506.24a6.4,6.4,0,0,1-6.4-6.4V460.92a6.4,6.4,0,1,1,12.8,0v38.92A6.4,6.4,0,0,1,1568.6,506.24Z"/><circle class="cls-2" cx="1542.36" cy="414.96" r="8.6"/><path class="cls-1" d="M1546.26,408.9h-7.79a2.56,2.56,0,0,1,0-5.12h7.79a2.56,2.56,0,0,1,0,5.12Z"/><path class="cls-1" d="M1046.8,511.05h-6.4V400.67a9.71,9.71,0,0,0-9.7-9.7h-.33a9.74,9.74,0,0,0-9.76,9.7v5.69h-6.4v-5.69a16.15,16.15,0,0,1,16.16-16.1h.33a16.12,16.12,0,0,1,16.1,16.1Z"/><rect class="cls-1" x="1037.2" y="477.75" width="12.8" height="33.3"/><path class="cls-1" d="M1043.6,506.24a6.4,6.4,0,0,1-6.4-6.4V460.92a6.4,6.4,0,1,1,12.8,0v38.92A6.4,6.4,0,0,1,1043.6,506.24Z"/><circle class="cls-2" cx="1017.36" cy="414.96" r="8.6"/><path class="cls-1" d="M1021.26,408.9h-7.79a2.56,2.56,0,0,1,0-5.12h7.79a2.56,2.56,0,0,1,0,5.12Z"/><path class="cls-1" d="M521.8,511.05h-6.4V400.67a9.71,9.71,0,0,0-9.7-9.7h-.33a9.74,9.74,0,0,0-9.76,9.7v5.69h-6.4v-5.69a16.15,16.15,0,0,1,16.16-16.1h.33a16.12,16.12,0,0,1,16.1,16.1Z"/><rect class="cls-1" x="512.2" y="477.75" width="12.8" height="33.3"/><path class="cls-1" d="M518.6,506.24a6.4,6.4,0,0,1-6.4-6.4V460.92a6.4,6.4,0,0,1,12.8,0v38.92A6.4,6.4,0,0,1,518.6,506.24Z"/><circle class="cls-2" cx="492.36" cy="414.96" r="8.6"/><path class="cls-1" d="M496.26,408.9h-7.79a2.56,2.56,0,1,1,0-5.12h7.79a2.56,2.56,0,1,1,0,5.12Z"/><path id="bush" class="cls-3" d="M13.52,505.46a13.63,13.63,0,0,1,2.34.2A13.57,13.57,0,0,1,40,500.35a13.58,13.58,0,0,1,16.65-7.83c0-.21,0-.42,0-.63a13.56,13.56,0,0,1,27.09-1A13.57,13.57,0,0,1,108.82,498c0,.35,0,.69,0,1a13.56,13.56,0,0,1,18.49,19H0A13.56,13.56,0,0,1,13.52,505.46Z"/><path id="bush-2" data-name="bush" class="cls-4" d="M444.31,505.46a13.63,13.63,0,0,0-2.34.2,13.57,13.57,0,0,0-24.1-5.32,13.58,13.58,0,0,0-16.65-7.83c0-.21,0-.42,0-.63a13.56,13.56,0,0,0-27.09-1A13.57,13.57,0,0,0,349,498c0,.35,0,.69,0,1a13.56,13.56,0,0,0-18.49,19H457.83A13.56,13.56,0,0,0,444.31,505.46Z"/><g id="tree"><line class="cls-5" x1="79.37" y1="436.25" x2="79.37" y2="517.42"/></g><path class="cls-3" d="M110.73,359.78A32.32,32.32,0,1,0,48,359.69c2.85,11.56,1.56,23.85-4.57,34.05a41.92,41.92,0,1,0,72.19.46A46,46,0,0,1,110.73,359.78Z"/><g id="tree-2" data-name="tree"><line class="cls-5" x1="384.57" y1="437.53" x2="384.57" y2="518.7"/><path class="cls-3" d="M384.57,474.49h0a30.58,30.58,0,0,1-29.63-38.14L382.6,328a2,2,0,0,1,3.94,0L414.2,436.35A30.58,30.58,0,0,1,384.57,474.49Z"/></g><g id="roof_bars" data-name="roof bars"><line class="cls-6" x1="130.33" y1="31.61" x2="130.33" y2="61.69"/><line class="cls-6" x1="115.61" y1="31.61" x2="247.45" y2="31.61"/><line class="cls-6" x1="156.25" y1="31.61" x2="156.25" y2="61.69"/><line class="cls-6" x1="182.17" y1="31.61" x2="182.17" y2="61.69"/><line class="cls-6" x1="208.09" y1="31.61" x2="208.09" y2="61.69"/><line class="cls-6" x1="234.01" y1="31.61" x2="234.01" y2="61.69"/></g><line class="cls-6" x1="318.49" y1="19.45" x2="318.49" y2="49.53"/><line class="cls-6" x1="334.49" y1="10.49" x2="334.49" y2="40.57"/><rect class="cls-7" x="295.45" y="30.97" width="62.72" height="20.48"/><rect class="cls-2" x="89.69" y="67.45" width="94.93" height="450.56"/><rect class="cls-8" x="184.62" y="67.45" width="94.93" height="450.56"/><rect class="cls-9" x="279.56" y="67.45" width="94.93" height="450.56"/><g id="Door"><rect class="cls-10" x="103.45" y="458.49" width="64" height="59.52"/><rect class="cls-1" x="103.45" y="458.49" width="64" height="12.8"/><rect class="cls-1" x="80.09" y="481.85" width="59.52" height="12.8" transform="translate(-378.4 598.1) rotate(-90)"/></g><g id="Door-2" data-name="Door"><rect class="cls-10" x="200.09" y="458.49" width="64" height="59.52"/><rect class="cls-1" x="200.09" y="458.49" width="64" height="12.8"/><rect class="cls-1" x="176.73" y="481.85" width="59.52" height="12.8" transform="translate(-281.76 694.74) rotate(-90)"/></g><g id="Door-3" data-name="Door"><rect class="cls-11" x="294.81" y="458.49" width="64" height="59.52"/><rect class="cls-12" x="294.81" y="458.49" width="64" height="12.8"/><rect class="cls-12" x="271.45" y="481.85" width="59.52" height="12.8" transform="translate(-187.04 789.46) rotate(-90)"/></g><g id="window"><rect class="cls-10" x="103.45" y="394.49" width="64" height="36.48"/><rect class="cls-1" x="103.45" y="394.49" width="64" height="12.8"/></g><g id="window-2" data-name="window"><rect class="cls-10" x="103.45" y="334.84" width="64" height="36.48"/><rect class="cls-1" x="103.45" y="334.84" width="64" height="12.8"/></g><g id="window-3" data-name="window"><rect class="cls-10" x="103.45" y="275.2" width="64" height="36.48"/><rect class="cls-1" x="103.45" y="275.2" width="64" height="12.8"/></g><g id="window-4" data-name="window"><rect class="cls-10" x="103.45" y="215.55" width="64" height="36.48"/><rect class="cls-1" x="103.45" y="215.55" width="64" height="12.8"/></g><g id="window-5" data-name="window"><rect class="cls-10" x="103.45" y="155.9" width="64" height="36.48"/><rect class="cls-1" x="103.45" y="155.9" width="64" height="12.8"/></g><g id="window-6" data-name="window"><rect class="cls-10" x="103.45" y="96.25" width="64" height="36.48"/><rect class="cls-1" x="103.45" y="96.25" width="64" height="12.8"/></g><g id="window-7" data-name="window"><rect class="cls-10" x="200.09" y="394.49" width="64" height="36.48"/><rect class="cls-1" x="200.09" y="394.49" width="64" height="12.8"/></g><g id="window-8" data-name="window"><rect class="cls-10" x="200.09" y="334.84" width="64" height="36.48"/><rect class="cls-1" x="200.09" y="334.84" width="64" height="12.8"/></g><g id="window-9" data-name="window"><rect class="cls-10" x="200.09" y="275.2" width="64" height="36.48"/><rect class="cls-1" x="200.09" y="275.2" width="64" height="12.8"/></g><g id="window-10" data-name="window"><rect class="cls-10" x="200.09" y="215.55" width="64" height="36.48"/><rect class="cls-1" x="200.09" y="215.55" width="64" height="12.8"/></g><g id="window-11" data-name="window"><rect class="cls-10" x="200.09" y="155.9" width="64" height="36.48"/><rect class="cls-1" x="200.09" y="155.9" width="64" height="12.8"/></g><g id="window-12" data-name="window"><rect class="cls-10" x="200.09" y="96.25" width="64" height="36.48"/><rect class="cls-1" x="200.09" y="96.25" width="64" height="12.8"/></g><g id="window-13" data-name="window"><rect class="cls-11" x="294.81" y="393.85" width="64" height="36.48"/><rect class="cls-12" x="294.81" y="393.85" width="64" height="12.8"/></g><g id="window-14" data-name="window"><rect class="cls-11" x="294.81" y="334.2" width="64" height="36.48"/><rect class="cls-12" x="294.81" y="334.2" width="64" height="12.8"/></g><g id="window-15" data-name="window"><rect class="cls-11" x="294.81" y="274.56" width="64" height="36.48"/><rect class="cls-12" x="294.81" y="274.56" width="64" height="12.8"/></g><g id="window-16" data-name="window"><rect class="cls-11" x="294.81" y="214.91" width="64" height="36.48"/><rect class="cls-12" x="294.81" y="214.91" width="64" height="12.8"/></g><g id="window-17" data-name="window"><rect class="cls-11" x="294.81" y="155.26" width="64" height="36.48"/><rect class="cls-12" x="294.81" y="155.26" width="64" height="12.8"/></g><g id="window-18" data-name="window"><rect class="cls-11" x="294.81" y="95.61" width="64" height="36.48"/><rect class="cls-12" x="294.81" y="95.61" width="64" height="12.8"/></g><rect class="cls-8" x="89.69" y="51.45" width="94.93" height="16"/><rect class="cls-9" x="184.62" y="51.45" width="94.93" height="16"/><rect class="cls-9" x="279.56" y="51.45" width="94.93" height="16"/><path class="cls-13" d="M400.68,486.33h0a1.79,1.79,0,0,1,1.79,1.79v29.64a0,0,0,0,1,0,0h-3.58a0,0,0,0,1,0,0V488.12A1.79,1.79,0,0,1,400.68,486.33Z"/><path class="cls-13" d="M453.89,486.33h0a1.79,1.79,0,0,1,1.79,1.79v29.64a0,0,0,0,1,0,0H452.1a0,0,0,0,1,0,0V488.12A1.79,1.79,0,0,1,453.89,486.33Z"/><rect class="cls-14" x="391.72" y="501.06" width="71.13" height="4.57" rx="2.28" ry="2.28"/><rect class="cls-14" x="393.1" y="481.53" width="68.37" height="15.53" rx="1.67" ry="1.67"/><line class="cls-5" x1="578.03" y1="437.77" x2="578.03" y2="518.96"/><path class="cls-3" d="M603.77,404.32a29.15,29.15,0,0,0-9.33-37.65,18.71,18.71,0,1,0-32.53-.25,29.15,29.15,0,0,0-9.65,38,37.71,37.71,0,1,0,51.51-.11Z"/><path id="bush-3" data-name="bush" class="cls-3" d="M557.11,506.1a12.75,12.75,0,0,1,9.39,4.13,11.51,11.51,0,0,1,14.86-5.81,16,16,0,0,1,31.32,2.42A16,16,0,0,1,635,519H544A13.13,13.13,0,0,1,557.11,506.1Z"/><polygon class="cls-15" points="788.59 365.2 698.35 365.2 698.35 417.26 687.47 423.54 698.35 423.54 788.59 423.54 889.71 423.54 788.59 365.2"/><rect id="Front_wall" data-name="Front wall" class="cls-16" x="597.23" y="423.54" width="202.24" height="95.43"/><rect class="cls-2" x="597.23" y="499.06" width="202.24" height="19.91"/><g id="Side"><rect class="cls-14" x="799.47" y="423.54" width="90.24" height="95.43"/></g><g id="brick_wall" data-name="brick wall"><polygon class="cls-14" points="851.69 507.94 825.58 507.94 799.47 507.94 799.47 508.01 864.75 508.01 864.75 507.94 851.69 507.94"/><polygon class="cls-14" points="825.58 436.9 825.58 431.21 799.47 431.21 799.47 436.9 812.59 436.9 825.58 436.9"/><polygon class="cls-14" points="838.7 436.9 851.69 436.9 851.69 431.21 825.58 431.21 825.58 436.9 838.7 436.9"/><rect class="cls-14" x="851.69" y="431.22" width="13.06" height="5.69"/><polygon class="cls-14" points="825.58 454.82 825.58 445.86 812.59 445.86 799.47 445.86 799.47 454.82 812.59 454.82 825.58 454.82"/><polygon class="cls-14" points="851.69 454.82 851.69 445.86 838.7 445.86 825.58 445.86 825.58 454.82 838.7 454.82 851.69 454.82"/><rect class="cls-14" x="851.69" y="445.86" width="13.06" height="8.96"/><rect class="cls-13" x="799.47" y="436.9" width="13.12" height="8.96"/><polygon class="cls-14" points="838.7 436.9 825.58 436.9 812.59 436.9 812.59 445.86 825.58 445.86 838.7 445.86 838.7 436.9"/><polygon class="cls-14" points="838.7 436.9 838.7 445.86 851.69 445.86 864.75 445.86 864.75 436.9 851.69 436.9 838.7 436.9"/><polygon class="cls-14" points="825.58 472.74 825.58 463.78 812.59 463.78 799.47 463.78 799.47 472.74 812.59 472.74 825.58 472.74"/><polygon class="cls-14" points="851.69 472.74 851.69 463.78 838.7 463.78 825.58 463.78 825.58 472.74 838.7 472.74 851.69 472.74"/><rect class="cls-14" x="851.69" y="463.78" width="13.06" height="8.96"/><rect class="cls-14" x="799.47" y="472.74" width="13.12" height="8.96"/><rect class="cls-14" x="786.03" y="436.98" width="13.44" height="8.96"/><rect class="cls-14" x="786.03" y="490.1" width="13.44" height="8.96"/><polygon class="cls-14" points="838.7 454.82 825.58 454.82 812.59 454.82 812.59 463.78 825.58 463.78 838.7 463.78 838.7 454.82"/><polygon class="cls-14" points="838.7 454.82 838.7 463.78 851.69 463.78 864.75 463.78 864.75 454.82 851.69 454.82 838.7 454.82"/><polygon class="cls-13" points="825.58 490.02 825.58 481.7 812.59 481.7 799.47 481.7 799.47 490.02 812.59 490.02 825.58 490.02"/><polygon class="cls-14" points="851.69 490.02 851.69 481.7 838.7 481.7 825.58 481.7 825.58 490.02 838.7 490.02 851.69 490.02"/><rect class="cls-14" x="851.69" y="481.7" width="13.06" height="8.32"/><rect class="cls-13" x="799.47" y="472.74" width="13.12" height="8.96"/><polygon class="cls-14" points="838.7 472.74 825.58 472.74 812.59 472.74 812.59 481.7 825.58 481.7 838.7 481.7 838.7 472.74"/><polygon class="cls-14" points="838.7 472.74 838.7 481.7 851.69 481.7 864.75 481.7 864.75 472.74 851.69 472.74 838.7 472.74"/><polygon class="cls-14" points="825.58 498.98 812.59 498.98 799.47 498.98 799.47 507.94 825.58 507.94 825.58 498.98"/><polygon class="cls-14" points="838.7 498.98 825.58 498.98 825.58 507.94 851.69 507.94 851.69 498.98 838.7 498.98"/><rect class="cls-14" x="851.69" y="498.98" width="13.06" height="8.96"/><polygon class="cls-13" points="812.59 490.02 799.47 490.02 799.47 490.66 799.47 498.98 812.59 498.98 812.59 490.02"/><polygon class="cls-14" points="838.7 490.02 825.58 490.02 812.59 490.02 812.59 498.98 825.58 498.98 838.7 498.98 838.7 490.02"/><polygon class="cls-14" points="838.7 490.02 838.7 498.98 851.69 498.98 864.75 498.98 864.75 490.02 851.69 490.02 838.7 490.02"/></g><g id="Door-4" data-name="Door"><rect class="cls-10" x="687.47" y="439.54" width="32" height="59.52"/><rect class="cls-1" x="687.61" y="439.7" width="31.99" height="12.75"/><rect class="cls-1" x="657.71" y="469.3" width="72.32" height="12.8" transform="translate(218.17 1169.56) rotate(-90)"/></g><g id="stairs"><rect class="cls-17" x="706.9" y="499.06" width="12.77" height="19.91"/><rect class="cls-8" x="679.67" y="499.06" width="33.31" height="9.98"/><rect class="cls-17" x="673.58" y="509.03" width="33.31" height="9.93"/><rect class="cls-8" x="673.58" y="512.47" width="33.31" height="6.49"/></g><g id="window-19" data-name="window"><rect class="cls-10" x="625.39" y="445.3" width="25.6" height="36.48"/><rect class="cls-1" x="625.39" y="445.3" width="25.6" height="12.8"/></g><g id="window-20" data-name="window"><rect class="cls-10" x="752.63" y="445.35" width="25.8" height="36.56"/><rect class="cls-1" x="752.75" y="445.3" width="25.6" height="12.8"/></g><rect class="cls-8" x="799.47" y="499.06" width="90.24" height="19.91"/><polygon class="cls-18" points="597.23 423.54 799.47 423.54 698.35 365.2 597.23 423.54"/><rect class="cls-2" x="597.23" y="423.54" width="202.24" height="8.32"/><rect class="cls-8" x="799.47" y="423.54" width="90.24" height="8.32"/><g id="Garage"><polygon class="cls-8" points="951.95 413.37 886.67 413.37 886.51 442.1 902.55 442.1 951.79 442.1 1001.66 442.1 1001.71 442.07 951.95 413.37"/><rect id="Front_wall-2" data-name="Front wall" class="cls-16" x="837.23" y="442.1" width="99.2" height="76.87"/><g id="Side-2" data-name="Side"><rect class="cls-14" x="936.43" y="442.1" width="65.28" height="76.87"/></g><g id="brick_wall-2" data-name="brick wall"><polygon class="cls-14" points="962.54 447.78 962.54 442.1 936.43 442.1 936.43 447.78 949.55 447.78 962.54 447.78"/><polygon class="cls-14" points="975.66 447.78 988.65 447.78 988.65 442.1 962.54 442.1 962.54 447.78 975.66 447.78"/><rect class="cls-14" x="988.65" y="442.1" width="13.06" height="5.69"/><polygon class="cls-14" points="962.54 465.7 962.54 456.74 949.55 456.74 936.43 456.74 936.43 465.7 949.55 465.7 962.54 465.7"/><polygon class="cls-14" points="988.65 465.7 988.65 456.74 975.66 456.74 962.54 456.74 962.54 465.7 975.66 465.7 988.65 465.7"/><rect class="cls-13" x="988.65" y="456.74" width="13.06" height="8.96"/><rect class="cls-14" x="936.43" y="447.78" width="13.12" height="8.96"/><polygon class="cls-14" points="975.66 447.78 962.54 447.78 949.55 447.78 949.55 456.74 962.54 456.74 975.66 456.74 975.66 447.78"/><polygon class="cls-13" points="975.66 447.78 975.66 456.74 988.65 456.74 1001.71 456.74 1001.71 447.78 988.65 447.78 975.66 447.78"/><polygon class="cls-13" points="962.54 483.62 962.54 474.66 949.55 474.66 936.43 474.66 936.43 483.62 949.55 483.62 962.54 483.62"/><polygon class="cls-14" points="988.65 483.62 988.65 474.66 975.66 474.66 962.54 474.66 962.54 483.62 975.66 483.62 988.65 483.62"/><rect class="cls-14" x="988.65" y="474.66" width="13.06" height="8.96"/><rect class="cls-13" x="936.43" y="483.62" width="13.12" height="8.96"/><rect class="cls-14" x="922.99" y="483.7" width="13.44" height="8.96"/><polygon class="cls-14" points="975.66 465.7 962.54 465.7 949.55 465.7 949.55 474.66 962.54 474.66 975.66 474.66 975.66 465.7"/><polygon class="cls-14" points="975.66 465.7 975.66 474.66 988.65 474.66 1001.71 474.66 1001.71 465.7 988.65 465.7 975.66 465.7"/><polygon class="cls-14" points="962.54 500.9 962.54 492.58 949.55 492.58 936.43 492.58 936.43 500.9 949.55 500.9 962.54 500.9"/><polygon class="cls-14" points="988.65 500.9 988.65 492.58 975.66 492.58 962.54 492.58 962.54 500.9 975.66 500.9 988.65 500.9"/><rect class="cls-13" x="988.65" y="492.58" width="13.06" height="8.32"/><rect class="cls-13" x="936.43" y="483.62" width="13.12" height="8.96"/><polygon class="cls-14" points="975.66 483.62 962.54 483.62 949.55 483.62 949.55 492.58 962.54 492.58 975.66 492.58 975.66 483.62"/><polygon class="cls-14" points="975.66 483.62 975.66 492.58 988.65 492.58 1001.71 492.58 1001.71 483.62 988.65 483.62 975.66 483.62"/><polygon class="cls-14" points="962.54 509.86 949.55 509.86 936.43 509.86 936.43 518.96 962.54 518.96 962.54 509.86"/><polygon class="cls-14" points="975.66 509.86 962.54 509.86 962.54 518.96 988.65 518.96 988.65 509.86 975.66 509.86"/><rect class="cls-14" x="988.65" y="509.86" width="13.06" height="9.1"/><polygon class="cls-14" points="949.55 500.9 936.43 500.9 936.43 501.54 936.43 509.86 949.55 509.86 949.55 500.9"/><polygon class="cls-14" points="975.66 500.9 962.54 500.9 949.55 500.9 949.55 509.86 962.54 509.86 975.66 509.86 975.66 500.9"/><polygon class="cls-13" points="975.66 500.9 975.66 509.86 988.65 509.86 1001.71 509.86 1001.71 500.9 988.65 500.9 975.66 500.9"/></g><g id="garage_door" data-name="garage door"><rect class="cls-10" x="854.51" y="459.38" width="64" height="59.59"/><rect class="cls-1" x="854.51" y="459.38" width="64" height="12.8"/><rect class="cls-1" x="831.11" y="482.77" width="59.59" height="12.8" transform="translate(371.74 1350.08) rotate(-90)"/></g><polygon class="cls-2" points="886.67 413.37 837.23 442.07 837.27 442.1 936.38 442.1 936.43 442.07 886.67 413.37"/><g id="garage_door_8_rows" data-name="garage door 8 rows"><rect class="cls-1" x="854.51" y="459.38" width="64" height="7.44"/><rect class="cls-10" x="854.51" y="466.82" width="64" height="7.44"/><rect class="cls-1" x="854.51" y="474.26" width="64" height="7.44"/><rect class="cls-10" x="854.51" y="481.7" width="64" height="7.44"/><rect class="cls-1" x="854.51" y="489.14" width="64" height="7.44"/><rect class="cls-10" x="854.51" y="496.58" width="64" height="7.44"/><rect class="cls-1" x="854.51" y="504.02" width="64" height="7.44"/><rect class="cls-10" x="854.51" y="511.46" width="64" height="7.51"/><rect class="cls-1" x="854.51" y="459.38" width="7.68" height="59.59"/></g></g><path id="bush-4" data-name="bush" class="cls-3" d="M999.79,499.06a14.08,14.08,0,0,0-13.6,10.42,14.06,14.06,0,0,0-20,9.49h68.08c-1.87-5.58-6.56-9.67-12.77-9.67a14,14,0,0,0-7.76,2.33A14.08,14.08,0,0,0,999.79,499.06Z"/><polygon class="cls-19" points="761.71 518.96 749.55 518.96 755.63 506.74 761.71 518.96"/><polygon class="cls-19" points="773.87 518.96 761.71 518.96 767.79 506.74 773.87 518.96"/><polygon class="cls-19" points="786.03 518.96 773.87 518.96 779.95 506.74 786.03 518.96"/><polygon class="cls-19" points="590.19 518.96 578.03 518.96 584.11 507.06 590.19 518.96"/><polygon class="cls-19" points="610.67 518.96 598.51 518.96 604.59 507.06 610.67 518.96"/><polygon class="cls-19" points="622.83 518.96 610.67 518.96 616.75 507.06 622.83 518.96"/><path id="bush-5" data-name="bush" class="cls-3" d="M1197.91,504.56a13.2,13.2,0,0,0-6.09,1.48,13.26,13.26,0,0,0-22.67-4,13.26,13.26,0,0,0-16.52-10.27,13.26,13.26,0,0,0-26.35,2.18c0,.09,0,.18,0,.27a13.26,13.26,0,0,0-21,6.7,13.26,13.26,0,0,0-22.22,7.48,13.26,13.26,0,0,0-19.2,14.08h147.36c.54-1.45,0-3,0-4.64A13.27,13.27,0,0,0,1197.91,504.56Z"/><path id="bush-6" data-name="bush" class="cls-4" d="M1525,504.56a13.2,13.2,0,0,0-6.09,1.48,13.26,13.26,0,0,0-22.67-4,13.26,13.26,0,0,0-16.52-10.27,13.26,13.26,0,0,0-26.35,2.18c0,.09,0,.18,0,.27a13.26,13.26,0,0,0-21,6.7,13.26,13.26,0,0,0-22.22,7.48,13.26,13.26,0,0,0-19.2,14.08h147.36c.54-1.45,0-3,0-4.64A13.27,13.27,0,0,0,1525,504.56Z"/><rect class="cls-2" x="1181.36" y="453.82" width="218.62" height="68.64"/><rect class="cls-2" x="1138.96" y="441.4" width="42.4" height="81.06"/><rect class="cls-8" x="1138.96" y="441.4" width="42.4" height="3.81"/><polygon class="cls-20" points="1184.21 396.06 1138.96 441.4 1208.93 441.4 1253.7 396.03 1184.21 396.06"/><polygon class="cls-2" points="1408.91 436.92 1173.17 436.92 1181.36 427.29 1181.25 427.29 1290.43 296.99 1399.62 427.29 1399.98 427.73 1408.91 436.92"/><polygon class="cls-21" points="1482.95 423.52 1482.95 448.76 1418.19 449.29 1414.51 444.9 1290.43 296.99 1375.16 296.99 1414.51 343.17 1482.95 423.52"/><polygon class="cls-8" points="1421.11 462.7 1181.36 462.7 1181.36 436.92 1189.43 427.29 1290.43 306.75 1391.43 427.29 1399.98 437.49 1412.93 452.94 1421.11 462.7"/><polygon class="cls-2" points="1421.11 471 1181.36 471 1181.36 445.21 1196.38 427.29 1290.43 315.04 1384.48 427.29 1399.98 445.78 1405.98 452.94 1414.15 462.7 1421.11 471"/><circle class="cls-8" cx="1290.64" cy="367.17" r="17.29"/><path class="cls-10" d="M1280.75,370.92a17.25,17.25,0,0,0,6,13.1,17.29,17.29,0,0,0,15.15-30,17.29,17.29,0,0,0-21.17,16.85Z"/><path class="cls-1" d="M1296.11,360a17.23,17.23,0,0,1,11.6,4.47,17.27,17.27,0,0,0-5.81-10.44,17.29,17.29,0,0,0-21.08,15.17A17.29,17.29,0,0,1,1296.11,360Z"/><rect class="cls-8" x="1399.97" y="427.29" width="82.99" height="95.17"/><g id="Door-5" data-name="Door"><path class="cls-1" d="M1319.71,442.45l-.13,80h-58v-80a27.83,27.83,0,0,1,.53-5.51l.14-.69a29.1,29.1,0,0,1,21.84-22.12l.72-.15a29.11,29.11,0,0,1,26.35,7.92l0,0a29,29,0,0,1,7.93,15A27.83,27.83,0,0,1,1319.71,442.45Z"/></g><path class="cls-10" d="M1319.71,442.45l-.13,80H1272.2V448.4c0-24.22,16.1-26.45,36-26.45h3.08a29,29,0,0,1,7.93,15A27.83,27.83,0,0,1,1319.71,442.45Z"/><path class="cls-10" d="M1435.24,470.79a8.38,8.38,0,0,0-2.29-4.33h0a8.41,8.41,0,0,0-7.61-2.29l-.21,0a8.41,8.41,0,0,0-6.31,6.39l0,.2a8,8,0,0,0-.15,1.59v23.14h16.78V472.38A8,8,0,0,0,1435.24,470.79Z"/><path class="cls-10" d="M1464.15,470.79a8.38,8.38,0,0,0-2.29-4.33h0a8.41,8.41,0,0,0-7.61-2.29l-.21,0a8.41,8.41,0,0,0-6.31,6.39l0,.2a8,8,0,0,0-.15,1.59v23.14h16.78V472.38A8,8,0,0,0,1464.15,470.79Z"/><rect class="cls-8" x="1415.39" y="325.31" width="32.07" height="86.39"/><rect class="cls-8" x="1418.66" y="305.71" width="24.47" height="65.37"/><rect class="cls-2" x="1408.99" y="325.31" width="22.31" height="86.39"/><rect class="cls-2" x="1411.71" y="305.71" width="16.88" height="65.37"/><rect class="cls-21" x="1407.38" y="300.21" width="40.11" height="5.5"/><rect class="cls-20" x="1407.38" y="300.21" width="24.59" height="5.5"/><rect class="cls-8" x="1411.71" y="305.71" width="31.43" height="4.67"/><polygon class="cls-20" points="1427.45 265.45 1407.38 300.21 1447.49 300.21 1427.45 265.45"/><polygon class="cls-21" points="1427.45 265.45 1427.45 300.21 1447.49 300.21 1437.49 282.83 1427.45 265.45"/><polygon class="cls-21" points="1434.55 414.7 1434.55 416.39 1411.39 416.58 1408.02 416.49 1365.72 369.46 1396.01 369.46 1410.08 385.97 1434.55 414.7"/><path class="cls-10" d="M1423.82,337.27a3.74,3.74,0,0,0-1-1.93h0a3.75,3.75,0,0,0-3.39-1l-.09,0a3.75,3.75,0,0,0-2.81,2.85l0,.09a3.59,3.59,0,0,0-.07.71V348.3h7.48V338A3.58,3.58,0,0,0,1423.82,337.27Z"/><polygon class="cls-19" points="1154.45 522.47 1142.29 522.47 1148.37 510.21 1154.45 522.47"/><polygon class="cls-19" points="1166.61 522.47 1154.45 522.47 1160.53 510.21 1166.61 522.47"/><polygon class="cls-19" points="1190.29 522.47 1178.13 522.47 1184.21 510.53 1190.29 522.47"/><polygon class="cls-19" points="1435.62 522.47 1423.46 522.47 1429.54 510.21 1435.62 522.47"/><polygon class="cls-19" points="1447.78 522.47 1435.62 522.47 1441.7 510.21 1447.78 522.47"/><polygon class="cls-19" points="1471.46 522.47 1459.3 522.47 1465.38 510.53 1471.46 522.47"/><g id="Door-6" data-name="Door"><path class="cls-8" d="M1368.58,470v30.6h-22.2V470a10.44,10.44,0,0,1,.2-2.11c0-.09,0-.18.05-.26a11.14,11.14,0,0,1,8.35-8.45l.28-.06a11.08,11.08,0,0,1,2.22-.22,11,11,0,0,1,4.54,1l.44.21a11.23,11.23,0,0,1,2.87,2.06v0a11.2,11.2,0,0,1,2.11,3c.17.35.31.7.45,1.07v0a10.82,10.82,0,0,1,.45,1.65A10.44,10.44,0,0,1,1368.58,470Z"/></g><g id="Door-7" data-name="Door"><path class="cls-10" d="M1368.58,470v30.6H1352.4V472.29a12.06,12.06,0,0,1,.22-2.36c0-.1,0-.2.06-.29a12.52,12.52,0,0,1,9.37-9.49l.31-.06.11,0a11.23,11.23,0,0,1,2.87,2.06v0a11.2,11.2,0,0,1,2.11,3c.17.35.31.7.45,1.07v0a10.82,10.82,0,0,1,.45,1.65A10.44,10.44,0,0,1,1368.58,470Z"/></g><g id="Door-8" data-name="Door"><path class="cls-8" d="M1232.59,470v30.6h-22.2V470a10.44,10.44,0,0,1,.2-2.11c0-.09,0-.18.05-.26a11.14,11.14,0,0,1,8.35-8.45l.28-.06a11.08,11.08,0,0,1,2.22-.22,11,11,0,0,1,4.54,1l.44.21a11.23,11.23,0,0,1,2.87,2.06v0a11.2,11.2,0,0,1,2.11,3c.17.35.31.7.45,1.07v0a10.82,10.82,0,0,1,.45,1.65A10.44,10.44,0,0,1,1232.59,470Z"/></g><g id="Door-9" data-name="Door"><path class="cls-10" d="M1232.59,470v30.6h-16.19V472.29a12.06,12.06,0,0,1,.22-2.36c0-.1,0-.2.06-.29a12.52,12.52,0,0,1,9.37-9.49l.31-.06.11,0a11.23,11.23,0,0,1,2.87,2.06v0a11.2,11.2,0,0,1,2.11,3c.17.35.31.7.45,1.07v0a10.82,10.82,0,0,1,.45,1.65A10.44,10.44,0,0,1,1232.59,470Z"/></g><g id="Door-10" data-name="Door"><path class="cls-8" d="M1168.06,472.93v21.33H1152.6V472.93a7.28,7.28,0,0,1,.14-1.47c0-.06,0-.12,0-.18a7.76,7.76,0,0,1,5.82-5.89l.19,0a7.72,7.72,0,0,1,1.55-.15,7.63,7.63,0,0,1,3.16.68l.31.15a7.83,7.83,0,0,1,2,1.44h0a7.8,7.8,0,0,1,1.47,2.07c.12.24.22.49.31.74v0a7.54,7.54,0,0,1,.32,1.15A7.28,7.28,0,0,1,1168.06,472.93Z"/></g><g id="Door-11" data-name="Door"><path class="cls-10" d="M1168.06,472.93v21.33h-11.28V474.55a8.4,8.4,0,0,1,.16-1.65c0-.07,0-.14,0-.21a8.72,8.72,0,0,1,6.53-6.61l.21,0h.08a7.83,7.83,0,0,1,2,1.44h0a7.8,7.8,0,0,1,1.47,2.07c.12.24.22.49.31.74v0a7.54,7.54,0,0,1,.32,1.15A7.28,7.28,0,0,1,1168.06,472.93Z"/></g><g id="stairs-2" data-name="stairs"><rect class="cls-17" x="1303" y="502.39" width="16.58" height="20.08"/><rect class="cls-8" x="1249.32" y="502.39" width="64.38" height="10.24"/><rect class="cls-17" x="1239.45" y="512.63" width="64.38" height="9.84"/><rect class="cls-8" x="1239.45" y="515.83" width="64.38" height="6.64"/></g><path id="bush-7" data-name="bush" class="cls-3" d="M1603.18,508.22a15.47,15.47,0,0,1,2.65.23,15.4,15.4,0,0,1,27.35-6,15.41,15.41,0,0,1,18.9-8.88c0-.24,0-.47,0-.71a15.4,15.4,0,0,1,30.75-1.11,15.4,15.4,0,0,1,28.53,8c0,.39,0,.78,0,1.17a15.4,15.4,0,0,1,21,21.54H1587.83A15.4,15.4,0,0,1,1603.18,508.22Z"/><line class="cls-22" x1="2078.9" y1="478.06" x2="2078.95" y2="522.47"/><path class="cls-3" d="M2093.28,459.39a16.27,16.27,0,0,0-5.2-21,10.46,10.46,0,1,0-18.17-.14,16.27,16.27,0,0,0-5.38,21.25,21.07,21.07,0,1,0,28.76-.06Z"/><rect class="cls-23" x="2012" y="385.37" width="29.87" height="42.88"/><rect class="cls-2" x="1982.65" y="385.37" width="34.01" height="42.39"/><rect class="cls-23" x="1810.39" y="295.13" width="100.29" height="227.2"/><rect class="cls-2" x="1667.88" y="302.17" width="142.5" height="220.16"/><rect class="cls-23" x="1991.2" y="410.97" width="76.28" height="111.36"/><rect class="cls-23" x="1667.88" y="290.01" width="198.63" height="20.48"/><rect class="cls-24" x="1677.6" y="252.25" width="223.36" height="10.24"/><rect class="cls-25" x="1669.92" y="239.88" width="238.72" height="13.01"/><rect class="cls-25" x="1660.96" y="262.49" width="256.64" height="37.76"/><rect class="cls-24" x="1818.4" y="262.49" width="99.2" height="37.76"/><rect class="cls-2" x="1843.88" y="412.38" width="147.32" height="110.08"/><rect class="cls-23" x="1844" y="402.65" width="162.56" height="19.2"/><rect class="cls-25" x="1844" y="396.89" width="223.36" height="19.2"/><rect class="cls-24" x="1991.2" y="396.89" width="76.16" height="19.2"/><g id="Door-12" data-name="Door"><rect class="cls-10" x="1700.54" y="461.53" width="83.3" height="60.8"/><rect class="cls-1" x="1701.56" y="462.38" width="82.28" height="10.67"/><rect class="cls-1" x="1693.2" y="464.69" width="10.67" height="6.04" transform="translate(1230.83 2166.25) rotate(-90)"/><rect class="cls-23" x="1667.09" y="488.87" width="60.8" height="6.11" transform="translate(1205.56 2189.41) rotate(-90)"/><rect class="cls-2" x="1737.31" y="461.53" width="3.65" height="60.8"/><rect class="cls-25" x="1734.45" y="414.28" width="7.26" height="91.52" transform="translate(2198.12 -1278.04) rotate(90)"/></g><g id="window-21" data-name="window"><rect class="cls-10" x="1678.34" y="317.56" width="25.6" height="25.6"/><rect class="cls-1" x="1678.46" y="317.54" width="25.4" height="5.38"/></g><g id="window-22" data-name="window"><rect class="cls-10" x="1710.34" y="317.56" width="25.6" height="25.6"/><rect class="cls-1" x="1710.46" y="317.54" width="25.4" height="5.38"/></g><g id="window-23" data-name="window"><rect class="cls-10" x="1742.34" y="317.56" width="25.6" height="25.6"/><rect class="cls-1" x="1742.46" y="317.54" width="25.4" height="5.38"/></g><g id="window-24" data-name="window"><rect class="cls-10" x="1774.34" y="317.56" width="25.6" height="25.6"/><rect class="cls-1" x="1774.46" y="317.54" width="25.4" height="5.38"/></g><g id="window-25" data-name="window"><rect class="cls-10" x="1678.34" y="349.56" width="25.6" height="25.6"/><rect class="cls-1" x="1678.46" y="349.54" width="25.4" height="5.38"/></g><g id="window-26" data-name="window"><rect class="cls-10" x="1710.34" y="349.56" width="25.6" height="25.6"/><rect class="cls-1" x="1710.46" y="349.54" width="25.4" height="5.38"/></g><g id="window-27" data-name="window"><rect class="cls-10" x="1742.34" y="349.56" width="25.6" height="25.6"/><rect class="cls-1" x="1742.46" y="349.54" width="25.4" height="5.38"/></g><g id="window-28" data-name="window"><rect class="cls-10" x="1774.34" y="349.56" width="25.6" height="25.6"/><rect class="cls-1" x="1774.46" y="349.54" width="25.4" height="5.38"/></g><g id="window-29" data-name="window"><rect class="cls-10" x="1678.34" y="381.56" width="25.6" height="25.6"/><rect class="cls-1" x="1678.46" y="381.54" width="25.4" height="5.38"/></g><g id="window-30" data-name="window"><rect class="cls-10" x="1710.34" y="381.56" width="25.6" height="25.6"/><rect class="cls-1" x="1710.46" y="381.54" width="25.4" height="5.38"/></g><g id="window-31" data-name="window"><rect class="cls-10" x="1742.34" y="381.56" width="25.6" height="25.6"/><rect class="cls-1" x="1742.46" y="381.54" width="25.4" height="5.38"/></g><g id="window-32" data-name="window"><rect class="cls-10" x="1774.34" y="381.56" width="25.6" height="25.6"/><rect class="cls-1" x="1774.46" y="381.54" width="25.4" height="5.38"/></g><g id="window-33" data-name="window"><rect class="cls-10" x="1678.34" y="413.56" width="25.6" height="25.6"/><rect class="cls-1" x="1678.46" y="413.54" width="25.4" height="5.38"/></g><g id="window-34" data-name="window"><rect class="cls-10" x="1710.34" y="413.56" width="25.6" height="25.6"/><rect class="cls-1" x="1710.46" y="413.54" width="25.4" height="5.38"/></g><g id="window-35" data-name="window"><rect class="cls-10" x="1742.34" y="413.56" width="25.6" height="25.6"/><rect class="cls-1" x="1742.46" y="413.54" width="25.4" height="5.38"/></g><g id="window-36" data-name="window"><rect class="cls-10" x="1774.34" y="413.56" width="25.6" height="25.6"/><rect class="cls-1" x="1774.46" y="413.54" width="25.4" height="5.38"/></g><g id="window-37" data-name="window"><rect class="cls-10" x="1858.18" y="432.14" width="49.82" height="42.19"/><rect class="cls-1" x="1858.41" y="432.1" width="49.43" height="8.86"/></g><g id="window-38" data-name="window"><rect class="cls-11" x="1821.6" y="317.53" width="24.96" height="42.24"/><rect class="cls-12" x="1821.6" y="317.53" width="24.96" height="8.96"/></g><rect class="cls-10" x="1858.18" y="493.55" width="20.38" height="28.77"/><rect class="cls-1" x="1858.18" y="493.55" width="5.66" height="28.77"/><rect class="cls-1" x="1858.18" y="493.55" width="20.38" height="6.04"/><g id="window-39" data-name="window"><rect class="cls-10" x="1920.26" y="432.2" width="21.02" height="17.8"/><rect class="cls-1" x="1920.36" y="432.19" width="20.86" height="3.74"/></g><g id="window-40" data-name="window"><rect class="cls-10" x="1948.42" y="432.2" width="21.02" height="17.8"/><rect class="cls-1" x="1948.52" y="432.19" width="20.86" height="3.74"/></g><g id="window-41" data-name="window"><rect class="cls-11" x="1853.06" y="317.64" width="21.02" height="17.8"/><rect class="cls-12" x="1853.16" y="317.63" width="20.86" height="3.74"/></g><g id="window-42" data-name="window"><rect class="cls-11" x="2005.07" y="432.2" width="21.02" height="17.8"/><rect class="cls-12" x="2005.16" y="432.19" width="20.86" height="3.74"/></g><g id="window-43" data-name="window"><rect class="cls-11" x="2032.59" y="432.2" width="21.02" height="17.8"/><rect class="cls-12" x="2032.68" y="432.19" width="20.86" height="3.74"/></g><g id="window-44" data-name="window"><rect class="cls-10" x="1920.26" y="456.52" width="21.02" height="17.8"/><rect class="cls-1" x="1920.36" y="456.51" width="20.86" height="3.74"/></g><g id="window-45" data-name="window"><rect class="cls-10" x="1948.42" y="456.52" width="21.02" height="17.8"/><rect class="cls-1" x="1948.52" y="456.51" width="20.86" height="3.74"/></g><g id="window-46" data-name="window"><rect class="cls-24" x="1735.13" y="267.68" width="9.84" height="27.43" rx="2.08" ry="2.08"/></g><g id="window-47" data-name="window"><rect class="cls-24" x="1735.13" y="267.68" width="9.84" height="27.43" rx="2.08" ry="2.08" transform="translate(2021.44 -1458.65) rotate(90)"/></g><g id="window-48" data-name="window"><rect class="cls-2" x="1730.65" y="267.68" width="9.84" height="27.43" rx="2.08" ry="2.08"/></g><g id="window-49" data-name="window"><rect class="cls-2" x="1730.65" y="267.68" width="9.84" height="27.43" rx="2.08" ry="2.08" transform="translate(2016.96 -1454.17) rotate(90)"/></g><rect class="cls-26" x="1991.2" y="496.65" width="25.73" height="8.96"/><rect class="cls-26" x="1991.2" y="487.69" width="12.93" height="8.96"/><rect class="cls-26" x="1810.39" y="505.69" width="12.93" height="8.96"/><rect class="cls-26" x="1897.75" y="350.44" width="12.93" height="8.96"/><rect class="cls-26" x="1884.82" y="359.4" width="12.93" height="8.96"/><rect class="cls-23" x="1978.4" y="487.77" width="12.8" height="8.96"/></g></svg>