<svg xmlns="http://www.w3.org/2000/svg" width="2100" height="426.19" viewBox="0 0 2100 426.19"><defs><style>.cls-1{fill:#312766;}.cls-2{fill:#fff;}.cls-19,.cls-24,.cls-25,.cls-3{fill:none;stroke-width:6.4px;}.cls-3{stroke:#312766;}.cls-13,.cls-19,.cls-22,.cls-24,.cls-25,.cls-3{stroke-miterlimit:10;}.cls-4{fill:#4e8e3b;}.cls-5{fill:#4d4d4d;}.cls-6{fill:#f29f53;}.cls-7{fill:#ad5d31;}.cls-8{fill:#844526;}.cls-9{fill:#465a8c;}.cls-10{fill:#b3b3b3;}.cls-11{fill:#ccc;}.cls-12{fill:#666;}.cls-13,.cls-14{fill:#85ba5d;}.cls-13{stroke:#85ba5d;}.cls-13,.cls-22{stroke-width:0.64px;}.cls-15{fill:#0e0c2b;}.cls-16{fill:#213c68;}.cls-17{fill:#161656;}.cls-18{fill:#31a064;}.cls-19{stroke:#fff;}.cls-20{fill:#fadc5b;}.cls-21{fill:#ffa01e;}.cls-22{fill:#78c878;stroke:#78c878;}.cls-23{fill:#33784f;}.cls-24{stroke:#666;}.cls-25{stroke:#4d4d4d;}.cls-26{fill:#afcc69;}</style></defs><title>question-bg2-v2</title><g id="Layer_1" data-name="Layer 1"><path class="cls-1" d="M2096.8,279.93h-6.4V169.55a9.71,9.71,0,0,0-9.7-9.7h-.33a9.74,9.74,0,0,0-9.76,9.7v5.69h-6.4v-5.69a16.15,16.15,0,0,1,16.16-16.1h.33a16.12,16.12,0,0,1,16.1,16.1Z"/><rect class="cls-1" x="2087.2" y="246.63" width="12.8" height="33.3"/><path class="cls-1" d="M2093.6,275.12a6.4,6.4,0,0,1-6.4-6.4V229.8a6.4,6.4,0,1,1,12.8,0v38.92A6.4,6.4,0,0,1,2093.6,275.12Z"/><circle class="cls-2" cx="2067.36" cy="183.84" r="8.6"/><path class="cls-1" d="M2071.26,177.78h-7.79a2.56,2.56,0,0,1,0-5.12h7.79a2.56,2.56,0,0,1,0,5.12Z"/><path class="cls-1" d="M1571.8,279.93h-6.4V169.55a9.71,9.71,0,0,0-9.7-9.7h-.33a9.74,9.74,0,0,0-9.76,9.7v5.69h-6.4v-5.69a16.15,16.15,0,0,1,16.16-16.1h.33a16.12,16.12,0,0,1,16.1,16.1Z"/><rect class="cls-1" x="1562.2" y="246.63" width="12.8" height="33.3"/><path class="cls-1" d="M1568.6,275.12a6.4,6.4,0,0,1-6.4-6.4V229.8a6.4,6.4,0,1,1,12.8,0v38.92A6.4,6.4,0,0,1,1568.6,275.12Z"/><circle class="cls-2" cx="1542.36" cy="183.84" r="8.6"/><path class="cls-1" d="M1546.26,177.78h-7.79a2.56,2.56,0,0,1,0-5.12h7.79a2.56,2.56,0,0,1,0,5.12Z"/><path class="cls-1" d="M1046.8,279.93h-6.4V169.55a9.71,9.71,0,0,0-9.7-9.7h-.33a9.74,9.74,0,0,0-9.76,9.7v5.69h-6.4v-5.69a16.15,16.15,0,0,1,16.16-16.1h.33a16.12,16.12,0,0,1,16.1,16.1Z"/><rect class="cls-1" x="1037.2" y="246.63" width="12.8" height="33.3"/><path class="cls-1" d="M1043.6,275.12a6.4,6.4,0,0,1-6.4-6.4V229.8a6.4,6.4,0,1,1,12.8,0v38.92A6.4,6.4,0,0,1,1043.6,275.12Z"/><circle class="cls-2" cx="1017.36" cy="183.84" r="8.6"/><path class="cls-1" d="M1021.26,177.78h-7.79a2.56,2.56,0,0,1,0-5.12h7.79a2.56,2.56,0,0,1,0,5.12Z"/><path class="cls-1" d="M521.8,279.93h-6.4V169.55a9.71,9.71,0,0,0-9.7-9.7h-.33a9.74,9.74,0,0,0-9.76,9.7v5.69h-6.4v-5.69a16.15,16.15,0,0,1,16.16-16.1h.33a16.12,16.12,0,0,1,16.1,16.1Z"/><rect class="cls-1" x="512.2" y="246.63" width="12.8" height="33.3"/><path class="cls-1" d="M518.6,275.12a6.4,6.4,0,0,1-6.4-6.4V229.8a6.4,6.4,0,0,1,12.8,0v38.92A6.4,6.4,0,0,1,518.6,275.12Z"/><circle class="cls-2" cx="492.36" cy="183.84" r="8.6"/><path class="cls-1" d="M496.26,177.78h-7.79a2.56,2.56,0,0,1,0-5.12h7.79a2.56,2.56,0,1,1,0,5.12Z"/><line class="cls-3" x1="37.65" y1="209.16" x2="37.65" y2="290.35"/><path class="cls-4" d="M63.4,175.71a29.15,29.15,0,0,0-9.33-37.65,18.71,18.71,0,1,0-32.53-.25,29.15,29.15,0,0,0-9.65,38,37.71,37.71,0,1,0,51.51-.11Z"/><path id="bush" class="cls-4" d="M16.74,277.48a12.75,12.75,0,0,1,9.39,4.13A11.51,11.51,0,0,1,41,275.8a16,16,0,0,1,31.32,2.42,16,16,0,0,1,22.3,12.12h-91A13.13,13.13,0,0,1,16.74,277.48Z"/><polygon class="cls-5" points="248.21 136.59 157.97 136.59 157.97 188.65 147.09 194.92 157.97 194.92 248.21 194.92 349.33 194.92 248.21 136.59"/><rect id="Front_wall" data-name="Front wall" class="cls-6" x="56.85" y="194.92" width="202.24" height="95.43"/><rect class="cls-2" x="56.85" y="270.44" width="202.24" height="19.91"/><g id="Side"><rect class="cls-7" x="259.09" y="194.92" width="90.24" height="95.43"/></g><g id="brick_wall" data-name="brick wall"><polygon class="cls-7" points="311.32 279.33 285.2 279.33 259.09 279.33 259.09 279.4 324.37 279.4 324.37 279.33 311.32 279.33"/><polygon class="cls-7" points="285.2 208.29 285.2 202.6 259.09 202.6 259.09 208.29 272.21 208.29 285.2 208.29"/><polygon class="cls-7" points="298.33 208.29 311.32 208.29 311.32 202.6 285.2 202.6 285.2 208.29 298.33 208.29"/><rect class="cls-7" x="311.32" y="202.6" width="13.06" height="5.69"/><polygon class="cls-7" points="285.2 226.21 285.2 217.25 272.21 217.25 259.09 217.25 259.09 226.21 272.21 226.21 285.2 226.21"/><polygon class="cls-7" points="311.32 226.21 311.32 217.25 298.33 217.25 285.2 217.25 285.2 226.21 298.33 226.21 311.32 226.21"/><rect class="cls-7" x="311.32" y="217.25" width="13.06" height="8.96"/><rect class="cls-8" x="259.09" y="208.29" width="13.12" height="8.96"/><polygon class="cls-7" points="298.33 208.29 285.2 208.29 272.21 208.29 272.21 217.25 285.2 217.25 298.33 217.25 298.33 208.29"/><polygon class="cls-7" points="298.33 208.29 298.33 217.25 311.32 217.25 324.37 217.25 324.37 208.29 311.32 208.29 298.33 208.29"/><polygon class="cls-7" points="285.2 244.13 285.2 235.17 272.21 235.17 259.09 235.17 259.09 244.13 272.21 244.13 285.2 244.13"/><polygon class="cls-7" points="311.32 244.13 311.32 235.17 298.33 235.17 285.2 235.17 285.2 244.13 298.33 244.13 311.32 244.13"/><rect class="cls-7" x="311.32" y="235.17" width="13.06" height="8.96"/><rect class="cls-7" x="259.09" y="244.13" width="13.12" height="8.96"/><rect class="cls-7" x="245.65" y="208.36" width="13.44" height="8.96"/><rect class="cls-7" x="245.65" y="261.48" width="13.44" height="8.96"/><polygon class="cls-7" points="298.33 226.21 285.2 226.21 272.21 226.21 272.21 235.17 285.2 235.17 298.33 235.17 298.33 226.21"/><polygon class="cls-7" points="298.33 226.21 298.33 235.17 311.32 235.17 324.37 235.17 324.37 226.21 311.32 226.21 298.33 226.21"/><polygon class="cls-8" points="285.2 261.41 285.2 253.09 272.21 253.09 259.09 253.09 259.09 261.41 272.21 261.41 285.2 261.41"/><polygon class="cls-7" points="311.32 261.41 311.32 253.09 298.33 253.09 285.2 253.09 285.2 261.41 298.33 261.41 311.32 261.41"/><rect class="cls-7" x="311.32" y="253.09" width="13.06" height="8.32"/><rect class="cls-8" x="259.09" y="244.13" width="13.12" height="8.96"/><polygon class="cls-7" points="298.33 244.13 285.2 244.13 272.21 244.13 272.21 253.09 285.2 253.09 298.33 253.09 298.33 244.13"/><polygon class="cls-7" points="298.33 244.13 298.33 253.09 311.32 253.09 324.37 253.09 324.37 244.13 311.32 244.13 298.33 244.13"/><polygon class="cls-7" points="285.2 270.37 272.21 270.37 259.09 270.37 259.09 279.33 285.2 279.33 285.2 270.37"/><polygon class="cls-7" points="298.33 270.37 285.2 270.37 285.2 279.33 311.32 279.33 311.32 270.37 298.33 270.37"/><rect class="cls-7" x="311.32" y="270.37" width="13.06" height="8.96"/><polygon class="cls-8" points="272.21 261.41 259.09 261.41 259.09 262.05 259.09 270.37 272.21 270.37 272.21 261.41"/><polygon class="cls-7" points="298.33 261.41 285.2 261.41 272.21 261.41 272.21 270.37 285.2 270.37 298.33 270.37 298.33 261.41"/><polygon class="cls-7" points="298.33 261.41 298.33 270.37 311.32 270.37 324.37 270.37 324.37 261.41 311.32 261.41 298.33 261.41"/></g><g id="Door"><rect class="cls-9" x="147.09" y="210.92" width="32" height="59.52"/><rect class="cls-1" x="147.23" y="211.09" width="31.99" height="12.75"/><rect class="cls-1" x="117.33" y="240.68" width="72.32" height="12.8" transform="translate(-93.59 400.58) rotate(-90)"/></g><g id="stairs"><rect class="cls-10" x="166.52" y="270.44" width="12.77" height="19.91"/><rect class="cls-11" x="139.3" y="270.44" width="33.31" height="9.98"/><rect class="cls-10" x="133.21" y="280.42" width="33.31" height="9.93"/><rect class="cls-11" x="133.21" y="283.85" width="33.31" height="6.49"/></g><g id="window"><rect class="cls-9" x="85.01" y="216.68" width="25.6" height="36.48"/><rect class="cls-1" x="85.01" y="216.68" width="25.6" height="12.8"/></g><g id="window-2" data-name="window"><rect class="cls-9" x="212.25" y="216.73" width="25.8" height="36.56"/><rect class="cls-1" x="212.37" y="216.68" width="25.6" height="12.8"/></g><rect class="cls-11" x="259.09" y="270.44" width="90.24" height="19.91"/><polygon class="cls-12" points="56.85 194.92 259.09 194.92 157.97 136.59 56.85 194.92"/><rect class="cls-2" x="56.85" y="194.92" width="202.24" height="8.32"/><rect class="cls-11" x="259.09" y="194.92" width="90.24" height="8.32"/><g id="Garage"><polygon class="cls-11" points="411.57 184.75 346.29 184.75 346.13 213.48 362.18 213.48 411.41 213.48 461.29 213.48 461.33 213.46 411.57 184.75"/><rect id="Front_wall-2" data-name="Front wall" class="cls-6" x="296.85" y="213.48" width="99.2" height="76.87"/><g id="Side-2" data-name="Side"><rect class="cls-7" x="396.05" y="213.48" width="65.28" height="76.87"/></g><g id="brick_wall-2" data-name="brick wall"><polygon class="cls-7" points="422.17 219.17 422.17 213.48 396.05 213.48 396.05 219.17 409.17 219.17 422.17 219.17"/><polygon class="cls-7" points="435.29 219.17 448.28 219.17 448.28 213.48 422.17 213.48 422.17 219.17 435.29 219.17"/><rect class="cls-7" x="448.28" y="213.48" width="13.06" height="5.69"/><polygon class="cls-7" points="422.17 237.09 422.17 228.13 409.17 228.13 396.05 228.13 396.05 237.09 409.17 237.09 422.17 237.09"/><polygon class="cls-7" points="448.28 237.09 448.28 228.13 435.29 228.13 422.17 228.13 422.17 237.09 435.29 237.09 448.28 237.09"/><rect class="cls-8" x="448.28" y="228.13" width="13.06" height="8.96"/><rect class="cls-7" x="396.05" y="219.17" width="13.12" height="8.96"/><polygon class="cls-7" points="435.29 219.17 422.17 219.17 409.17 219.17 409.17 228.13 422.17 228.13 435.29 228.13 435.29 219.17"/><polygon class="cls-8" points="435.29 219.17 435.29 228.13 448.28 228.13 461.33 228.13 461.33 219.17 448.28 219.17 435.29 219.17"/><polygon class="cls-8" points="422.17 255.01 422.17 246.05 409.17 246.05 396.05 246.05 396.05 255.01 409.17 255.01 422.17 255.01"/><polygon class="cls-7" points="448.28 255.01 448.28 246.05 435.29 246.05 422.17 246.05 422.17 255.01 435.29 255.01 448.28 255.01"/><rect class="cls-7" x="448.28" y="246.05" width="13.06" height="8.96"/><rect class="cls-8" x="396.05" y="255.01" width="13.12" height="8.96"/><rect class="cls-7" x="382.61" y="255.08" width="13.44" height="8.96"/><polygon class="cls-7" points="435.29 237.09 422.17 237.09 409.17 237.09 409.17 246.05 422.17 246.05 435.29 246.05 435.29 237.09"/><polygon class="cls-7" points="435.29 237.09 435.29 246.05 448.28 246.05 461.33 246.05 461.33 237.09 448.28 237.09 435.29 237.09"/><polygon class="cls-7" points="422.17 272.29 422.17 263.97 409.17 263.97 396.05 263.97 396.05 272.29 409.17 272.29 422.17 272.29"/><polygon class="cls-7" points="448.28 272.29 448.28 263.97 435.29 263.97 422.17 263.97 422.17 272.29 435.29 272.29 448.28 272.29"/><rect class="cls-8" x="448.28" y="263.97" width="13.06" height="8.32"/><rect class="cls-8" x="396.05" y="255.01" width="13.12" height="8.96"/><polygon class="cls-7" points="435.29 255.01 422.17 255.01 409.17 255.01 409.17 263.97 422.17 263.97 435.29 263.97 435.29 255.01"/><polygon class="cls-7" points="435.29 255.01 435.29 263.97 448.28 263.97 461.33 263.97 461.33 255.01 448.28 255.01 435.29 255.01"/><polygon class="cls-7" points="422.17 281.25 409.17 281.25 396.05 281.25 396.05 290.35 422.17 290.35 422.17 281.25"/><polygon class="cls-7" points="435.29 281.25 422.17 281.25 422.17 290.35 448.28 290.35 448.28 281.25 435.29 281.25"/><rect class="cls-7" x="448.28" y="281.25" width="13.06" height="9.1"/><polygon class="cls-7" points="409.17 272.29 396.05 272.29 396.05 272.93 396.05 281.25 409.17 281.25 409.17 272.29"/><polygon class="cls-7" points="435.29 272.29 422.17 272.29 409.17 272.29 409.17 281.25 422.17 281.25 435.29 281.25 435.29 272.29"/><polygon class="cls-8" points="435.29 272.29 435.29 281.25 448.28 281.25 461.33 281.25 461.33 272.29 448.28 272.29 435.29 272.29"/></g><g id="garage_door" data-name="garage door"><rect class="cls-9" x="314.13" y="230.76" width="64" height="59.59"/><rect class="cls-1" x="314.13" y="230.76" width="64" height="12.8"/><rect class="cls-1" x="290.74" y="254.16" width="59.59" height="12.8" transform="translate(59.98 581.09) rotate(-90)"/></g><polygon class="cls-2" points="346.29 184.75 296.85 213.46 296.9 213.48 396.01 213.48 396.05 213.46 346.29 184.75"/><g id="garage_door_8_rows" data-name="garage door 8 rows"><rect class="cls-1" x="314.13" y="230.76" width="64" height="7.44"/><rect class="cls-9" x="314.13" y="238.2" width="64" height="7.44"/><rect class="cls-1" x="314.13" y="245.64" width="64" height="7.44"/><rect class="cls-9" x="314.13" y="253.08" width="64" height="7.44"/><rect class="cls-1" x="314.13" y="260.52" width="64" height="7.44"/><rect class="cls-9" x="314.13" y="267.96" width="64" height="7.44"/><rect class="cls-1" x="314.13" y="275.4" width="64" height="7.44"/><rect class="cls-9" x="314.13" y="282.84" width="64" height="7.51"/><rect class="cls-1" x="314.13" y="230.76" width="7.68" height="59.59"/></g></g><path id="bush-2" data-name="bush" class="cls-4" d="M459.41,270.44a14.08,14.08,0,0,0-13.6,10.42,14.06,14.06,0,0,0-20,9.49h68.08c-1.87-5.58-6.56-9.67-12.77-9.67a14,14,0,0,0-7.76,2.33A14.08,14.08,0,0,0,459.41,270.44Z"/><polygon class="cls-13" points="221.33 290.35 209.17 290.35 215.25 278.12 221.33 290.35"/><polygon class="cls-13" points="233.49 290.35 221.33 290.35 227.41 278.12 233.49 290.35"/><polygon class="cls-13" points="245.65 290.35 233.49 290.35 239.57 278.12 245.65 290.35"/><polygon class="cls-13" points="49.81 290.35 37.65 290.35 43.73 278.44 49.81 290.35"/><polygon class="cls-13" points="70.29 290.35 58.13 290.35 64.21 278.44 70.29 290.35"/><polygon class="cls-13" points="82.45 290.35 70.29 290.35 76.37 278.44 82.45 290.35"/><path id="bush-3" data-name="bush" class="cls-14" d="M564.25,276.05a15.47,15.47,0,0,1,2.65.23,15.4,15.4,0,0,1,27.35-6,15.41,15.41,0,0,1,18.9-8.88c0-.24,0-.47,0-.71a15.4,15.4,0,0,1,30.75-1.11,15.4,15.4,0,0,1,28.53,8c0,.39,0,.78,0,1.17a15.4,15.4,0,0,1,21,21.54H548.9A15.4,15.4,0,0,1,564.25,276.05Z"/><rect id="Front_wall-3" data-name="Front wall" class="cls-6" x="629.31" y="201.34" width="202.24" height="88.96"/><polygon id="Roof" class="cls-1" points="877.33 156.04 674.31 155.9 628.87 201.34 832.27 201.34 877.33 156.04"/><g id="Side-3" data-name="Side"><polygon class="cls-7" points="877.33 156.04 831.78 201.34 922.1 201.34 877.33 156.04"/><rect class="cls-7" x="831.55" y="201.34" width="90.24" height="88.96"/></g><g id="Door-2" data-name="Door"><rect class="cls-9" x="719.55" y="230.78" width="32" height="59.52"/><rect class="cls-1" x="719.69" y="230.94" width="31.99" height="12.75"/><rect class="cls-1" x="696.19" y="254.14" width="59.52" height="12.8" transform="translate(465.41 986.49) rotate(-90)"/></g><g id="roof_peak" data-name="roof peak"><polygon class="cls-15" points="735.49 168.06 735.49 168.19 768.72 201.41 802.07 168.06 735.49 168.06"/><polygon class="cls-6" points="701.88 202 768.72 202.05 735.37 168.06 701.88 202"/></g><circle class="cls-1" cx="734.27" cy="196.86" r="6.4"/><g id="window-3" data-name="window"><rect class="cls-9" x="657.47" y="223.1" width="25.6" height="36.48"/><rect class="cls-1" x="657.47" y="223.1" width="25.6" height="12.8"/></g><g id="window-4" data-name="window"><rect class="cls-9" x="784.71" y="223.15" width="25.8" height="36.56"/><rect class="cls-1" x="784.83" y="223.1" width="25.6" height="12.8"/></g><path id="bush-4" data-name="bush" class="cls-14" d="M1023.84,272.65a13,13,0,0,0-6,1.46,13.07,13.07,0,0,0-22.34-3.94A13.07,13.07,0,0,0,979.22,260a13.07,13.07,0,0,0-26,2.15c0,.09,0,.17,0,.26a13.07,13.07,0,0,0-20.74,6.6,13.07,13.07,0,0,0-21.9,7.37A13.06,13.06,0,0,0,891.7,290.3h144.39a13.07,13.07,0,0,0-12.24-17.65Z"/><g id="tree"><line class="cls-3" x1="592.32" y1="209.17" x2="592.32" y2="290.35"/><rect class="cls-4" x="565.31" y="125.82" width="54.4" height="110.08" rx="27.2" ry="27.2"/></g><g id="Garage-2" data-name="Garage"><rect id="Front_wall-4" data-name="Front wall" class="cls-6" x="844.99" y="213.5" width="99.2" height="76.8"/><polygon id="Roof-2" data-name="Roof" class="cls-1" points="977.09 180.93 877.74 180.86 845.1 213.5 944.56 213.5 977.09 180.93"/><g id="Side-4" data-name="Side"><polygon class="cls-7" points="977.09 180.93 944.48 213.5 1009.47 213.5 977.09 180.93"/><rect class="cls-7" x="944.19" y="213.5" width="65.28" height="76.8"/></g><g id="window-5" data-name="window"><rect class="cls-16" x="964.03" y="223.1" width="25.6" height="36.48"/><rect class="cls-17" x="964.03" y="223.1" width="25.6" height="12.8"/></g><g id="garage_door-2" data-name="garage door"><rect class="cls-9" x="862.27" y="230.78" width="64" height="59.52"/><rect class="cls-1" x="862.41" y="230.94" width="63.86" height="12.75"/><rect class="cls-1" x="838.91" y="254.14" width="59.52" height="12.8" transform="translate(608.13 1129.21) rotate(-90)"/></g><g id="garage_door_8_rows-2" data-name="garage door 8 rows"><rect class="cls-1" x="862.27" y="230.78" width="64" height="7.44"/><rect class="cls-9" x="862.27" y="238.22" width="64" height="7.44"/><rect class="cls-1" x="862.27" y="245.66" width="64" height="7.44"/><rect class="cls-9" x="862.27" y="253.1" width="64" height="7.44"/><rect class="cls-1" x="862.27" y="260.54" width="64" height="7.44"/><rect class="cls-9" x="862.27" y="267.98" width="64" height="7.44"/><rect class="cls-1" x="862.27" y="275.42" width="64" height="7.44"/><rect class="cls-9" x="862.27" y="282.86" width="64" height="7.44"/><rect class="cls-1" x="862.27" y="230.78" width="7.68" height="59.52"/></g></g><path id="bush-5" data-name="bush" class="cls-4" d="M674.67,276.77a13.47,13.47,0,0,0-9.92,4.36A12.16,12.16,0,0,0,649,275,16.9,16.9,0,0,0,616,277.56,16.9,16.9,0,0,0,592.4,290.3h95.79A13.52,13.52,0,0,0,674.67,276.77Z"/><path id="bush-6" data-name="bush" class="cls-4" d="M793.79,270.46a14.08,14.08,0,0,0-13.6,10.42,14.08,14.08,0,0,0-20,9.42H828.9A14.08,14.08,0,0,0,807.79,283,14.08,14.08,0,0,0,793.79,270.46Z"/><path id="bush-7" data-name="bush" class="cls-18" d="M1566,272.68a13,13,0,0,0-6,1.46,13.07,13.07,0,0,0-22.34-3.94,13.07,13.07,0,0,0-16.28-10.13,13.07,13.07,0,0,0-26,2.15c0,.09,0,.17,0,.26a13.07,13.07,0,0,0-20.74,6.6,13.07,13.07,0,0,0-21.9,7.37A13.07,13.07,0,0,0,1433.67,288a13.35,13.35,0,0,0,.2,2.31h145.19c.53-1.42,0-3,0-4.59A13,13,0,0,0,1566,272.68Z"/><path id="bush-8" data-name="bush" class="cls-18" d="M1223.51,272.68a13,13,0,0,0-6,1.46,13.07,13.07,0,0,0-22.34-3.94,13.07,13.07,0,0,0-16.28-10.13,13.07,13.07,0,0,0-26,2.15c0,.09,0,.17,0,.26a13.07,13.07,0,0,0-20.74,6.6,13.07,13.07,0,0,0-21.9,7.37,13,13,0,0,0-6.05-1.49c-7.22,0-12.31,5.85-12.31,13.07a13.53,13.53,0,0,0,0,2.31h143.83a13.09,13.09,0,0,0-12.24-17.67Z"/><rect class="cls-9" x="1270.29" y="7.36" width="52.97" height="24.64"/><line class="cls-19" x1="1272.23" y1="7.36" x2="1272.23" y2="56.64"/><polygon class="cls-5" points="1251.32 163.13 1534.14 163.13 1466.94 95.93 1184.12 95.93 1251.32 163.13"/><rect class="cls-20" x="1117.58" y="187.45" width="346.24" height="102.9"/><polygon class="cls-12" points="1399.75 163.13 1116.94 163.13 1184.14 95.93 1466.95 95.93 1399.75 163.13"/><rect class="cls-21" x="1400.68" y="187.45" width="133.46" height="102.9"/><rect class="cls-2" x="1099.1" y="161.85" width="320.05" height="25.6"/><rect class="cls-21" x="1117.58" y="187.45" width="358.4" height="6.4"/><rect class="cls-21" x="1316.41" y="193.49" width="6.4" height="96.85"/><rect class="cls-21" x="1195.45" y="193.49" width="6.4" height="96.85"/><rect class="cls-11" x="1419.16" y="161.85" width="128.65" height="25.6"/><polygon class="cls-20" points="1316.41 270.01 1259.13 270.01 1201.85 270.01 1201.85 123.77 1259.13 55.41 1316.41 123.77 1316.41 270.01"/><polygon class="cls-21" points="1259.13 70.6 1316.41 138.96 1316.41 123.77 1259.13 55.41 1201.85 123.77 1201.85 138.96 1259.13 70.6"/><path class="cls-9" d="M1263.95,108a21.12,21.12,0,1,0,16.3,20.56A21.13,21.13,0,0,0,1263.95,108Z"/><path class="cls-1" d="M1243,137.41a21.11,21.11,0,0,1,36.46-14.51,21.12,21.12,0,1,0-35.68,20.18A21.12,21.12,0,0,1,1243,137.41Z"/><path class="cls-21" d="M1248.14,128.45A21.13,21.13,0,0,1,1263.95,108a21.12,21.12,0,1,0,.49,41A21.12,21.12,0,0,1,1248.14,128.45Z"/><polygon class="cls-22" points="1137.93 290.35 1125.77 290.35 1131.85 278.01 1137.93 290.35"/><polygon class="cls-22" points="1150.09 290.35 1137.93 290.35 1144.01 278.01 1150.09 290.35"/><polygon class="cls-22" points="1173.77 290.35 1161.61 290.35 1167.69 278.33 1173.77 290.35"/><polygon class="cls-18" points="1445.9 290.35 1433.74 290.35 1439.82 278.01 1445.9 290.35"/><polygon class="cls-18" points="1469.58 290.35 1457.42 290.35 1463.5 278.33 1469.58 290.35"/><polygon class="cls-21" points="1355.13 123.45 1316.41 123.45 1316.41 161.85 1316.73 161.85 1355.13 123.45"/><polyline class="cls-5" points="1316.47 123.77 1259.13 55.41 1297.16 55.41 1355.13 123.45"/><g id="window-6" data-name="window"><rect class="cls-16" x="1419.88" y="206.99" width="25.6" height="25.6"/><rect class="cls-17" x="1420" y="206.97" width="25.4" height="5.38"/></g><g id="window-7" data-name="window"><rect class="cls-16" x="1489.34" y="206.99" width="25.6" height="25.6"/><rect class="cls-17" x="1489.46" y="206.97" width="25.4" height="5.38"/></g><rect class="cls-9" x="1135.86" y="218.33" width="17.36" height="17.36"/><rect class="cls-1" x="1135.86" y="218.02" width="17.36" height="3.72"/><rect class="cls-9" x="1159.62" y="218.33" width="17.36" height="17.36"/><rect class="cls-1" x="1159.62" y="218.02" width="17.36" height="3.72"/><rect class="cls-9" x="1135.86" y="242.4" width="17.36" height="17.36"/><rect class="cls-1" x="1135.86" y="242.09" width="17.36" height="3.72"/><rect class="cls-9" x="1159.62" y="242.4" width="17.36" height="17.36"/><rect class="cls-1" x="1159.62" y="242.09" width="17.36" height="3.72"/><rect class="cls-9" x="1341.19" y="218.33" width="17.36" height="17.36"/><rect class="cls-1" x="1341.19" y="218.02" width="17.36" height="3.72"/><rect class="cls-9" x="1364.94" y="218.33" width="17.36" height="17.36"/><rect class="cls-1" x="1364.94" y="218.02" width="17.36" height="3.72"/><rect class="cls-9" x="1341.19" y="242.4" width="17.36" height="17.36"/><rect class="cls-1" x="1341.19" y="242.09" width="17.36" height="3.72"/><rect class="cls-9" x="1364.94" y="242.4" width="17.36" height="17.36"/><rect class="cls-1" x="1364.94" y="242.09" width="17.36" height="3.72"/><path id="bush-9" data-name="bush" class="cls-23" d="M1551.63,276.81a13.47,13.47,0,0,0-9.92,4.36A12.16,12.16,0,0,0,1526,275a16.9,16.9,0,0,0-33.09,2.56,16.9,16.9,0,0,0-23.56,12.76h95.79A13.54,13.54,0,0,0,1551.63,276.81Z"/><rect class="cls-2" x="1233.27" y="210.97" width="51.72" height="79.37"/><rect class="cls-9" x="1243.13" y="220.73" width="31.96" height="59.52"/><rect class="cls-1" x="1243.13" y="220.73" width="31.96" height="12.75"/><rect class="cls-1" x="1214.72" y="249.14" width="69.62" height="12.8" transform="translate(993.99 1505.07) rotate(-90)"/><g id="stairs-2" data-name="stairs"><rect class="cls-10" x="1262.61" y="270.53" width="12.48" height="19.81"/><rect class="cls-11" x="1238.05" y="270.53" width="32.39" height="9.98"/><rect class="cls-10" x="1230.22" y="280.51" width="32.39" height="9.84"/><rect class="cls-11" x="1230.22" y="283.95" width="32.39" height="6.4"/></g><polygon class="cls-5" points="2014.66 172.66 1985.54 172.66 1935.78 201.36 1935.82 201.39 2064.38 201.39 2064.42 201.36 2014.66 172.66"/><polygon class="cls-12" points="1985.7 172.66 1684.1 172.66 1634.34 201.36 1634.38 201.39 1935.78 201.36 1985.7 172.66"/><polygon class="cls-11" points="2064.42 290.31 1935.78 290.31 1935.78 201.39 2064.31 201.32 2064.42 290.31"/><rect class="cls-2" x="1634.26" y="201.39" width="150.72" height="88.93"/><rect class="cls-2" x="1787.7" y="201.39" width="150.72" height="88.93"/><g id="_60_degree_roof" data-name="60 degree roof"><polygon class="cls-12" points="1698.95 164.27 1634.66 201.39 1935.78 201.39 2000.2 164.38 2000.01 164.27 1698.95 164.27"/></g><polygon class="cls-5" points="2000.01 164.27 2000.31 164.27 1935.78 201.39 1935.78 210.35 2064.39 210.29 2064.31 201.32 2000.01 164.27"/><g id="_60_degree_roof-2" data-name="60 degree roof"><polygon class="cls-11" points="2000.42 173.23 1935.78 210.35 1935.78 290.31 2064.42 290.31 2064.39 210.29 2000.42 173.23"/></g><polygon class="cls-11" points="1935.78 210.35 1961.51 210.28 1961.51 219.24 1935.78 219.24 1935.78 210.35"/><rect class="cls-11" x="1961.51" y="210.28" width="25.73" height="8.96"/><rect class="cls-11" x="1987.23" y="210.28" width="25.73" height="8.96"/><rect class="cls-10" x="2012.96" y="210.28" width="25.73" height="8.96"/><polygon class="cls-11" points="2038.69 210.28 2064.39 210.29 2064.42 219.24 2038.69 219.24 2038.69 210.28"/><rect class="cls-10" x="1974.43" y="201.32" width="25.73" height="8.96"/><rect class="cls-11" x="2000.16" y="201.32" width="25.73" height="8.96"/><rect class="cls-11" x="1935.78" y="228.2" width="25.73" height="8.96"/><rect class="cls-11" x="1961.51" y="228.2" width="25.73" height="8.96"/><rect class="cls-11" x="1987.23" y="228.2" width="25.73" height="8.96"/><rect class="cls-11" x="2012.96" y="228.2" width="25.73" height="8.96"/><rect class="cls-11" x="2038.69" y="228.2" width="25.73" height="8.96"/><rect class="cls-10" x="1935.78" y="219.24" width="12.93" height="8.96"/><rect class="cls-11" x="1948.71" y="219.24" width="25.73" height="8.96"/><rect class="cls-11" x="1974.43" y="219.24" width="25.73" height="8.96"/><rect class="cls-10" x="2000.16" y="219.24" width="25.73" height="8.96"/><rect class="cls-11" x="2051.36" y="219.24" width="13.06" height="8.96"/><rect class="cls-10" x="2025.89" y="219.24" width="25.73" height="8.96"/><rect class="cls-10" x="1935.78" y="246.12" width="25.73" height="8.96"/><rect class="cls-11" x="1961.51" y="246.12" width="25.73" height="8.96"/><rect class="cls-11" x="1987.23" y="246.12" width="25.73" height="8.96"/><rect class="cls-11" x="2012.96" y="246.12" width="25.73" height="8.96"/><rect class="cls-10" x="2038.69" y="246.12" width="25.73" height="8.96"/><rect class="cls-11" x="1935.78" y="237.16" width="12.93" height="8.96"/><rect class="cls-11" x="1948.71" y="237.16" width="25.73" height="8.96"/><rect class="cls-11" x="1974.43" y="237.16" width="25.73" height="8.96"/><rect class="cls-11" x="2000.16" y="237.16" width="25.73" height="8.96"/><rect class="cls-11" x="2051.36" y="237.16" width="13.06" height="8.96"/><rect class="cls-11" x="2025.89" y="237.16" width="25.73" height="8.96"/><rect class="cls-10" x="1935.78" y="264.04" width="25.73" height="8.96"/><rect class="cls-11" x="1961.51" y="264.04" width="25.73" height="8.96"/><rect class="cls-11" x="1987.23" y="264.04" width="25.73" height="8.96"/><rect class="cls-11" x="2012.96" y="264.04" width="25.73" height="8.96"/><rect class="cls-11" x="2038.69" y="264.04" width="25.73" height="8.96"/><rect class="cls-10" x="1935.78" y="255.08" width="12.93" height="8.96"/><rect class="cls-11" x="1922.98" y="255.08" width="12.93" height="8.96"/><rect class="cls-11" x="1948.71" y="255.08" width="25.73" height="8.96"/><rect class="cls-11" x="1974.43" y="255.08" width="25.73" height="8.96"/><rect class="cls-11" x="2000.16" y="255.08" width="25.73" height="8.96"/><rect class="cls-11" x="2051.36" y="255.08" width="13.06" height="8.96"/><rect class="cls-10" x="2025.89" y="255.08" width="25.73" height="8.96"/><rect class="cls-11" x="1935.78" y="281.32" width="25.73" height="9"/><rect class="cls-11" x="1961.51" y="281.32" width="25.73" height="9"/><rect class="cls-10" x="1987.23" y="281.32" width="25.73" height="9"/><rect class="cls-11" x="2012.96" y="281.32" width="25.73" height="9"/><rect class="cls-11" x="2038.69" y="281.32" width="25.73" height="9"/><rect class="cls-11" x="1935.78" y="272.36" width="12.93" height="8.96"/><rect class="cls-11" x="1948.71" y="272.36" width="25.73" height="8.96"/><rect class="cls-10" x="1974.43" y="272.36" width="25.73" height="8.96"/><rect class="cls-11" x="2000.16" y="272.36" width="25.73" height="8.96"/><rect class="cls-11" x="2051.36" y="272.36" width="13.06" height="8.96"/><rect class="cls-11" x="2025.89" y="272.36" width="25.73" height="8.96"/><rect class="cls-5" x="1634.34" y="201.39" width="301.44" height="8.96"/><g id="aerial"><line class="cls-24" x1="1969.7" y1="152.75" x2="1969.7" y2="174.51"/><line class="cls-25" x1="1999.78" y1="123.31" x2="1999.78" y2="172.59"/><line class="cls-25" x1="1986.34" y1="142.51" x2="2013.86" y2="142.51"/><line class="cls-25" x1="1986.34" y1="132.27" x2="2013.86" y2="132.27"/></g><g id="Door-3" data-name="Door"><rect class="cls-9" x="1812.82" y="230.71" width="32" height="59.6"/><rect class="cls-1" x="1812.82" y="230.71" width="32" height="12.8"/><rect class="cls-1" x="1789.42" y="254.11" width="59.6" height="12.8" transform="translate(1558.7 2079.73) rotate(-90)"/></g><g id="window-8" data-name="window"><rect class="cls-9" x="1870.42" y="226.23" width="42.88" height="36.48"/><rect class="cls-1" x="1870.42" y="226.23" width="42.88" height="12.8"/></g><g id="Door-4" data-name="Door"><rect class="cls-9" x="1727.86" y="230.71" width="32" height="59.6"/><rect class="cls-1" x="1727.86" y="230.71" width="32" height="12.8"/><rect class="cls-1" x="1704.46" y="254.11" width="59.6" height="12.8" transform="translate(1473.74 1994.77) rotate(-90)"/></g><g id="window-9" data-name="window"><rect class="cls-9" x="1659.38" y="226.23" width="42.88" height="36.48"/><rect class="cls-1" x="1659.38" y="226.23" width="42.88" height="12.8"/></g><polygon class="cls-26" points="1670.82 290.31 1658.66 290.31 1664.74 278.19 1670.82 290.31"/><polygon class="cls-26" points="1682.98 290.31 1670.82 290.31 1676.9 278.19 1682.98 290.31"/><polygon class="cls-26" points="1700.9 290.31 1688.74 290.31 1694.82 278.51 1700.9 290.31"/><polygon class="cls-26" points="1894.82 290.31 1882.66 290.31 1888.74 278.19 1894.82 290.31"/><polygon class="cls-26" points="1906.98 290.31 1894.82 290.31 1900.9 278.19 1906.98 290.31"/><polygon class="cls-26" points="1930.66 290.31 1918.5 290.31 1924.58 278.51 1930.66 290.31"/><polygon class="cls-14" points="2020.26 290.31 2008.1 290.31 2014.18 278.19 2020.26 290.31"/><polygon class="cls-14" points="2032.42 290.31 2020.26 290.31 2026.34 278.19 2032.42 290.31"/><polygon class="cls-14" points="2044.58 290.31 2032.42 290.31 2038.5 278.19 2044.58 290.31"/><rect class="cls-11" x="1634.34" y="210.23" width="301.44" height="7.04"/><rect class="cls-10" x="1741.18" y="245.47" width="80.08" height="9.6" transform="translate(1530.94 2031.49) rotate(-90)"/><rect class="cls-11" x="1749.82" y="246.43" width="80.08" height="7.68" transform="translate(1539.58 2040.13) rotate(-90)"/></g></svg>