<svg xmlns="http://www.w3.org/2000/svg" width="2100" height="343.13" viewBox="0 0 2100 343.13"><defs><style>.cls-1{fill:#312766;}.cls-17,.cls-2{fill:#fff;}.cls-16,.cls-23,.cls-3,.cls-34{fill:none;}.cls-3{stroke:#0e0c2b;}.cls-16,.cls-17,.cls-23,.cls-3,.cls-34{stroke-miterlimit:10;}.cls-23,.cls-3,.cls-34{stroke-width:6.49px;}.cls-4{fill:#ef5932;}.cls-5{fill:#aa4232;}.cls-6{fill:#99281c;}.cls-7{fill:#465a8c;}.cls-8{fill:#213c68;}.cls-9{fill:#161656;}.cls-10{fill:#ccc;}.cls-11{fill:#4d4d4d;}.cls-12{fill:#666;}.cls-13{fill:#377722;}.cls-14{fill:#4e8e3b;}.cls-15{fill:#85ba5d;}.cls-16,.cls-23{stroke:#312766;}.cls-16{stroke-width:3.69px;}.cls-17{stroke:#465a8c;stroke-width:4.62px;}.cls-18{fill:#e0e0e0;}.cls-19{fill:#ea4c89;}.cls-20{fill:#a01f53;}.cls-21{fill:#844526;}.cls-22{fill:#ad5d31;}.cls-24{fill:#fadc5b;}.cls-25{fill:#ffa01e;}.cls-26{fill:#e58007;}.cls-27{fill:#0e0c2b;}.cls-28{fill:#e6e6e6;}.cls-29{fill:#b3b3b3;}.cls-30{fill:#ffb03d;}.cls-31{fill:#d36e00;}.cls-32{fill:#999;}.cls-33{fill:#c34d29;}.cls-34{stroke:#666;}</style></defs><title>question-bg1-v2</title><g id="Layer_1" data-name="Layer 1"><path class="cls-1" d="M2096.8,196.87h-6.4V86.49a9.71,9.71,0,0,0-9.7-9.7h-.33a9.74,9.74,0,0,0-9.76,9.7v5.69h-6.4V86.49a16.15,16.15,0,0,1,16.16-16.1h.33a16.12,16.12,0,0,1,16.1,16.1Z"/><rect class="cls-1" x="2087.2" y="163.56" width="12.8" height="33.3"/><path class="cls-1" d="M2093.6,192.06a6.4,6.4,0,0,1-6.4-6.4V146.73a6.4,6.4,0,1,1,12.8,0v38.92A6.4,6.4,0,0,1,2093.6,192.06Z"/><circle class="cls-2" cx="2067.36" cy="100.78" r="8.6"/><path class="cls-1" d="M2071.26,94.71h-7.79a2.56,2.56,0,0,1,0-5.12h7.79a2.56,2.56,0,0,1,0,5.12Z"/><path class="cls-1" d="M1571.8,196.87h-6.4V86.49a9.71,9.71,0,0,0-9.7-9.7h-.33a9.74,9.74,0,0,0-9.76,9.7v5.69h-6.4V86.49a16.15,16.15,0,0,1,16.16-16.1h.33a16.12,16.12,0,0,1,16.1,16.1Z"/><rect class="cls-1" x="1562.2" y="163.56" width="12.8" height="33.3"/><path class="cls-1" d="M1568.6,192.06a6.4,6.4,0,0,1-6.4-6.4V146.73a6.4,6.4,0,1,1,12.8,0v38.92A6.4,6.4,0,0,1,1568.6,192.06Z"/><circle class="cls-2" cx="1542.36" cy="100.78" r="8.6"/><path class="cls-1" d="M1546.26,94.71h-7.79a2.56,2.56,0,0,1,0-5.12h7.79a2.56,2.56,0,0,1,0,5.12Z"/><path class="cls-1" d="M1046.8,196.87h-6.4V86.49a9.71,9.71,0,0,0-9.7-9.7h-.33a9.74,9.74,0,0,0-9.76,9.7v5.69h-6.4V86.49a16.15,16.15,0,0,1,16.16-16.1h.33a16.12,16.12,0,0,1,16.1,16.1Z"/><rect class="cls-1" x="1037.2" y="163.56" width="12.8" height="33.3"/><path class="cls-1" d="M1043.6,192.06a6.4,6.4,0,0,1-6.4-6.4V146.73a6.4,6.4,0,1,1,12.8,0v38.92A6.4,6.4,0,0,1,1043.6,192.06Z"/><circle class="cls-2" cx="1017.36" cy="100.78" r="8.6"/><path class="cls-1" d="M1021.26,94.71h-7.79a2.56,2.56,0,0,1,0-5.12h7.79a2.56,2.56,0,0,1,0,5.12Z"/><path class="cls-1" d="M521.8,196.87h-6.4V86.49a9.71,9.71,0,0,0-9.7-9.7h-.33a9.74,9.74,0,0,0-9.76,9.7v5.69h-6.4V86.49a16.15,16.15,0,0,1,16.16-16.1h.33a16.12,16.12,0,0,1,16.1,16.1Z"/><rect class="cls-1" x="512.2" y="163.56" width="12.8" height="33.3"/><path class="cls-1" d="M518.6,192.06a6.4,6.4,0,0,1-6.4-6.4V146.73a6.4,6.4,0,0,1,12.8,0v38.92A6.4,6.4,0,0,1,518.6,192.06Z"/><circle class="cls-2" cx="492.36" cy="100.78" r="8.6"/><path class="cls-1" d="M496.26,94.71h-7.79a2.56,2.56,0,0,1,0-5.12h7.79a2.56,2.56,0,0,1,0,5.12Z"/><line class="cls-3" x1="320.29" y1="31.86" x2="320.29" y2="81.86"/><line class="cls-3" x1="306.66" y1="51.34" x2="334.58" y2="51.34"/><line class="cls-3" x1="306.66" y1="40.95" x2="334.58" y2="40.95"/><rect id="Front_wall" data-name="Front wall" class="cls-4" x="67.02" y="110.62" width="205.22" height="96.67"/><g id="Side"><rect class="cls-5" x="272.24" y="110.62" width="159.77" height="96.67"/></g><g id="brick_wall" data-name="brick wall"><polygon class="cls-5" points="325.23 196.09 298.73 196.09 272.24 196.09 272.24 196.16 338.48 196.16 338.48 196.09 325.23 196.09"/><polygon class="cls-5" points="298.73 124 298.73 118.49 272.24 118.49 272.24 124 285.55 124 298.73 124"/><polygon class="cls-5" points="312.05 124 325.23 124 325.23 118.49 298.73 118.49 298.73 124 312.05 124"/><rect class="cls-5" x="325.23" y="118.49" width="13.25" height="5.51"/><polygon class="cls-6" points="298.73 142.18 298.73 133.09 285.55 133.09 272.24 133.09 272.24 142.18 285.55 142.18 298.73 142.18"/><polygon class="cls-5" points="325.23 142.18 325.23 133.09 312.05 133.09 298.73 133.09 298.73 142.18 312.05 142.18 325.23 142.18"/><rect class="cls-5" x="325.23" y="133.09" width="13.25" height="9.09"/><rect class="cls-5" x="272.24" y="124" width="13.31" height="9.09"/><polygon class="cls-5" points="312.05 124 298.73 124 285.55 124 285.55 133.09 298.73 133.09 312.05 133.09 312.05 124"/><polygon class="cls-5" points="312.05 124 312.05 133.09 325.23 133.09 338.48 133.09 338.48 124 325.23 124 312.05 124"/><polygon class="cls-5" points="298.73 160.37 298.73 151.28 285.55 151.28 272.24 151.28 272.24 160.37 285.55 160.37 298.73 160.37"/><polygon class="cls-5" points="325.23 160.37 325.23 151.28 312.05 151.28 298.73 151.28 298.73 160.37 312.05 160.37 325.23 160.37"/><rect class="cls-5" x="325.23" y="151.28" width="13.25" height="9.09"/><rect class="cls-5" x="272.24" y="160.37" width="13.31" height="9.09"/><rect class="cls-5" x="258.6" y="124.07" width="13.64" height="9.09"/><rect class="cls-5" x="258.6" y="177.97" width="13.64" height="9.09"/><polygon class="cls-5" points="312.05 142.18 298.73 142.18 285.55 142.18 285.55 151.28 298.73 151.28 312.05 151.28 312.05 142.18"/><polygon class="cls-5" points="312.05 142.18 312.05 151.28 325.23 151.28 338.48 151.28 338.48 142.18 325.23 142.18 312.05 142.18"/><polygon class="cls-5" points="298.73 177.9 298.73 169.46 285.55 169.46 272.24 169.46 272.24 177.9 285.55 177.9 298.73 177.9"/><polygon class="cls-5" points="325.23 177.9 325.23 169.46 312.05 169.46 298.73 169.46 298.73 177.9 312.05 177.9 325.23 177.9"/><rect class="cls-5" x="325.23" y="169.46" width="13.25" height="8.44"/><rect class="cls-5" x="272.24" y="160.37" width="13.31" height="9.09"/><polygon class="cls-5" points="312.05 160.37 298.73 160.37 285.55 160.37 285.55 169.46 298.73 169.46 312.05 169.46 312.05 160.37"/><polygon class="cls-5" points="312.05 160.37 312.05 169.46 325.23 169.46 338.48 169.46 338.48 160.37 325.23 160.37 312.05 160.37"/><polygon class="cls-6" points="298.73 186.99 285.55 186.99 272.24 186.99 272.24 196.09 298.73 196.09 298.73 186.99"/><polygon class="cls-5" points="312.05 186.99 298.73 186.99 298.73 196.09 325.23 196.09 325.23 186.99 312.05 186.99"/><rect class="cls-5" x="325.23" y="186.99" width="13.25" height="9.09"/><polygon class="cls-6" points="285.55 177.9 272.24 177.9 272.24 178.55 272.24 186.99 285.55 186.99 285.55 177.9"/><polygon class="cls-5" points="312.05 177.9 298.73 177.9 285.55 177.9 285.55 186.99 298.73 186.99 312.05 186.99 312.05 177.9"/><polygon class="cls-5" points="312.05 177.9 312.05 186.99 325.23 186.99 338.48 186.99 338.48 177.9 325.23 177.9 312.05 177.9"/></g><g id="brick_wall-2" data-name="brick wall"><polygon class="cls-5" points="392.25 135.04 392.25 129.27 365.75 129.27 365.75 135.04 379.07 135.04 392.25 135.04"/><polygon class="cls-5" points="405.56 135.04 418.75 135.04 418.75 129.27 392.25 129.27 392.25 135.04 405.56 135.04"/><rect class="cls-5" x="418.75" y="129.27" width="13.26" height="5.77"/><polygon class="cls-5" points="392.25 153.22 392.25 144.13 379.07 144.13 365.75 144.13 365.75 153.22 379.07 153.22 392.25 153.22"/><polygon class="cls-5" points="418.75 153.22 418.75 144.13 405.56 144.13 392.25 144.13 392.25 153.22 405.56 153.22 418.75 153.22"/><rect class="cls-6" x="418.75" y="144.13" width="13.26" height="9.09"/><rect class="cls-5" x="365.75" y="135.04" width="13.31" height="9.09"/><polygon class="cls-5" points="405.56 135.04 392.25 135.04 379.07 135.04 379.07 144.13 392.25 144.13 405.56 144.13 405.56 135.04"/><polygon class="cls-5" points="405.56 135.04 405.56 144.13 418.75 144.13 432 144.13 432 135.04 418.75 135.04 405.56 135.04"/><polygon class="cls-5" points="392.25 171.41 392.25 162.32 379.07 162.32 365.75 162.32 365.75 171.41 379.07 171.41 392.25 171.41"/><polygon class="cls-5" points="418.75 171.41 418.75 162.32 405.56 162.32 392.25 162.32 392.25 171.41 405.56 171.41 418.75 171.41"/><rect class="cls-6" x="418.75" y="162.32" width="13.26" height="9.09"/><rect class="cls-5" x="365.75" y="171.41" width="13.31" height="9.09"/><rect class="cls-5" x="352.12" y="135.11" width="13.64" height="9.09"/><rect class="cls-5" x="352.12" y="189.01" width="13.64" height="9.09"/><polygon class="cls-5" points="405.56 153.22 392.25 153.22 379.07 153.22 379.07 162.32 392.25 162.32 405.56 162.32 405.56 153.22"/><polygon class="cls-6" points="405.56 153.22 405.56 162.32 418.75 162.32 432 162.32 432 153.22 418.75 153.22 405.56 153.22"/><polygon class="cls-5" points="392.25 188.94 392.25 180.5 379.07 180.5 365.75 180.5 365.75 188.94 379.07 188.94 392.25 188.94"/><polygon class="cls-5" points="418.75 188.94 418.75 180.5 405.56 180.5 392.25 180.5 392.25 188.94 405.56 188.94 418.75 188.94"/><rect class="cls-5" x="418.75" y="180.5" width="13.26" height="8.44"/><rect class="cls-5" x="365.75" y="171.41" width="13.31" height="9.09"/><polygon class="cls-5" points="405.56 171.41 392.25 171.41 379.07 171.41 379.07 180.5 392.25 180.5 405.56 180.5 405.56 171.41"/><polygon class="cls-5" points="405.56 171.41 405.56 180.5 418.75 180.5 432 180.5 432 171.41 418.75 171.41 405.56 171.41"/><polygon class="cls-5" points="392.25 198.03 379.07 198.03 365.75 198.03 365.75 207.28 392.25 207.28 392.25 198.03"/><polygon class="cls-5" points="405.56 198.03 392.25 198.03 392.25 207.28 418.75 207.28 418.75 198.03 405.56 198.03"/><rect class="cls-5" x="418.75" y="198.03" width="13.26" height="9.25"/><polygon class="cls-5" points="379.07 188.94 365.75 188.94 365.75 189.59 365.75 198.03 379.07 198.03 379.07 188.94"/><polygon class="cls-5" points="405.56 188.94 392.25 188.94 379.07 188.94 379.07 198.03 392.25 198.03 405.56 198.03 405.56 188.94"/><polygon class="cls-5" points="405.56 188.94 405.56 198.03 418.75 198.03 432 198.03 432 188.94 418.75 188.94 405.56 188.94"/></g><g id="Door"><rect class="cls-7" x="211.19" y="146.8" width="32.47" height="60.48"/><rect class="cls-1" x="211.19" y="146.8" width="32.47" height="12.99"/><rect class="cls-1" x="187.45" y="170.55" width="60.48" height="12.99" transform="translate(40.64 394.73) rotate(-90)"/></g><g id="window"><rect class="cls-7" x="89.1" y="133.16" width="38.97" height="37.02"/><rect class="cls-1" x="89.1" y="133.16" width="38.97" height="12.99"/></g><g id="window-2" data-name="window"><rect class="cls-7" x="150.15" y="133.16" width="38.97" height="37.02"/><rect class="cls-1" x="150.15" y="133.16" width="38.97" height="12.99"/></g><g id="window-3" data-name="window"><rect class="cls-8" x="302.76" y="133.16" width="38.97" height="37.02"/><rect class="cls-9" x="302.76" y="133.16" width="38.97" height="12.99"/></g><g id="window-4" data-name="window"><rect class="cls-8" x="363.16" y="133.16" width="38.97" height="37.02"/><rect class="cls-9" x="363.16" y="133.16" width="38.97" height="12.99"/></g><rect class="cls-2" x="67.02" y="110.62" width="205.22" height="7.87"/><rect class="cls-10" x="272.24" y="110.62" width="159.77" height="7.87"/><g id="roof"><polygon class="cls-11" points="369.24 74.72 209.01 74.72 272.24 110.62 432 110.62 369.24 74.72"/><polygon class="cls-12" points="209.32 74.72 128.65 74.72 66.93 110.62 67.08 110.62 272.24 110.62 272.31 110.62 209.32 74.72"/></g><path id="bush" class="cls-13" d="M479.59,196.31a11.83,11.83,0,0,0-2,.18,11.77,11.77,0,0,0-20.9-4.61,11.78,11.78,0,0,0-14.44-6.79c0-.18,0-.36,0-.54a11.77,11.77,0,0,0-23.5-.85,11.77,11.77,0,0,0-21.8,6.14c0,.3,0,.6,0,.89a11.77,11.77,0,0,0-18,10,12,12,0,0,0,1.94,6.56H491.14A11.68,11.68,0,0,0,479.59,196.31Z"/><path id="bush-2" data-name="bush" class="cls-13" d="M13.33,194.21a12.94,12.94,0,0,1,9.53,4.19,11.68,11.68,0,0,1,15.08-5.89A16.23,16.23,0,0,1,69.72,195a16.22,16.22,0,0,1,22.63,12.32H0A13.36,13.36,0,0,1,13.33,194.21Z"/><path class="cls-14" d="M312,200.05a9.36,9.36,0,0,1,4.88,1.38,9.4,9.4,0,0,1,15-7.31,9.41,9.41,0,0,1,15.42-2.92,9.41,9.41,0,0,1,17.49,3.15,9.36,9.36,0,0,1,10,0,9.41,9.41,0,0,1,18.53-.35,9.41,9.41,0,0,1,13.82,8.32c0,.12,0,.23,0,.34l.34,0a9.48,9.48,0,0,1,8,4.63H302.83A9.49,9.49,0,0,1,312,200.05Z"/><polygon class="cls-15" points="437.84 207.28 425.5 207.28 431.67 195.18 437.84 207.28"/><polygon class="cls-15" points="450.18 207.28 437.84 207.28 444.01 195.18 450.18 207.28"/><polygon class="cls-15" points="462.52 207.28 450.18 207.28 456.35 195.18 462.52 207.28"/><polygon class="cls-15" points="164.43 207.28 152.09 207.28 158.26 195.18 164.43 207.28"/><polygon class="cls-15" points="176.77 207.28 164.43 207.28 170.6 195.18 176.77 207.28"/><polygon class="cls-15" points="201.45 207.28 189.11 207.28 195.28 195.18 201.45 207.28"/><line class="cls-16" x1="37.77" y1="154.87" x2="37.77" y2="199.09"/><path class="cls-14" d="M49.26,147.31a12.91,12.91,0,0,0-4.93-17.51,9,9,0,1,0-12.73,0,12.91,12.91,0,0,0-4.93,17.51,16.37,16.37,0,1,0,22.6,0Z"/><path class="cls-4" d="M38.22,207.28h0a12.17,12.17,0,0,1-12.09-11.83l-.1-9.13H50.4l-.1,9.13A12.17,12.17,0,0,1,38.22,207.28Z"/><path class="cls-14" d="M137.48,200.05a9.36,9.36,0,0,0-4.88,1.38,9.4,9.4,0,0,0-15-7.31,9.41,9.41,0,0,0-15.42-2.92,9.41,9.41,0,0,0-17.49,3.15,9.36,9.36,0,0,0-10,0A9.41,9.41,0,0,0,56.16,194a9.41,9.41,0,0,0-13.82,8.32c0,.12,0,.23,0,.34l-.34,0a9.48,9.48,0,0,0-8,4.63H146.61A9.49,9.49,0,0,0,137.48,200.05Z"/><path class="cls-14" d="M560.28,186.87a13.2,13.2,0,0,1,6.09,1.48,13.26,13.26,0,0,1,22.67-4,13.26,13.26,0,0,1,16.52-10.27,13.26,13.26,0,0,1,26.35,2.18c0,.09,0,.18,0,.27a13.26,13.26,0,0,1,21,6.7,13.26,13.26,0,0,1,22.22,7.48,13.2,13.2,0,0,1,6.14-1.51c7.33,0,13.26,8,13.26,15.34,0,.79-.07-.75-.21,0H547.85a11.89,11.89,0,0,1-.84-4.4A13.26,13.26,0,0,1,560.28,186.87Z"/><rect id="Front_wall-2" data-name="Front wall" class="cls-2" x="620.76" y="105.44" width="249.32" height="99.09"/><rect class="cls-10" x="870.08" y="105.44" width="81.3" height="99.09"/><g id="window-5" data-name="window"><rect class="cls-7" x="635.05" y="128.2" width="64.94" height="63.59"/><rect class="cls-17" x="640.89" y="133.84" width="26.95" height="26.39"/><rect class="cls-17" x="667.85" y="133.84" width="26.95" height="26.39"/><rect class="cls-17" x="640.89" y="160.23" width="26.95" height="26.39"/><rect class="cls-17" x="667.85" y="160.23" width="26.95" height="26.39"/><rect class="cls-1" x="635.36" y="128.15" width="64.43" height="12.99"/></g><g id="window-6" data-name="window"><rect class="cls-7" x="791.56" y="128.2" width="64.94" height="63.59"/><rect class="cls-17" x="797.4" y="133.84" width="26.95" height="26.39"/><rect class="cls-17" x="824.36" y="133.84" width="26.95" height="26.39"/><rect class="cls-17" x="797.4" y="160.23" width="26.95" height="26.39"/><rect class="cls-17" x="824.36" y="160.23" width="26.95" height="26.39"/><rect class="cls-1" x="791.87" y="128.15" width="64.43" height="12.99"/></g><g id="Door-2" data-name="Door"><g id="Door-3" data-name="Door"><rect class="cls-7" x="714.73" y="133.94" width="70.34" height="70.59"/><rect class="cls-1" x="715.58" y="134.92" width="69.48" height="12.32"/><rect class="cls-1" x="706.88" y="138.53" width="12.32" height="5.1" transform="translate(571.96 854.11) rotate(-90)"/><rect class="cls-18" x="675.96" y="165.76" width="70.59" height="6.94" transform="translate(542.02 880.49) rotate(-90)"/><rect class="cls-2" x="745.78" y="133.94" width="3.08" height="70.59"/><rect class="cls-19" x="742.2" y="93.61" width="8.44" height="77.28" transform="translate(878.67 -614.18) rotate(90)"/></g></g><rect class="cls-19" x="620.76" y="77.57" width="249.32" height="27.87"/><rect class="cls-20" x="870.08" y="77.57" width="81.3" height="27.87"/><rect class="cls-10" x="620.76" y="105.44" width="249.32" height="10.36"/><path class="cls-21" d="M906.13,172.63h0a1.82,1.82,0,0,1,1.82,1.82v30.08a0,0,0,0,1,0,0h-3.64a0,0,0,0,1,0,0V174.45A1.82,1.82,0,0,1,906.13,172.63Z"/><path class="cls-21" d="M960.12,172.63h0a1.82,1.82,0,0,1,1.82,1.82v30.08a0,0,0,0,1,0,0H958.3a0,0,0,0,1,0,0V174.45A1.82,1.82,0,0,1,960.12,172.63Z"/><rect class="cls-22" x="897.04" y="187.58" width="72.18" height="4.63" rx="2.32" ry="2.32"/><rect class="cls-22" x="898.44" y="167.76" width="69.38" height="15.75" rx="1.7" ry="1.7"/><line class="cls-23" x1="985.87" y1="122.46" x2="985.87" y2="204.53"/><path class="cls-14" d="M994.64,157.34h0a11.06,11.06,0,0,1-17.83,0h0a98.17,98.17,0,0,1,0-98.79h0L983,50.07a3.34,3.34,0,0,1,5.38,0l6.23,8.48h0a98.17,98.17,0,0,1,0,98.79Z"/><polygon class="cls-14" points="1006.52 204.53 994.18 204.53 1000.35 192.44 1006.52 204.53"/><polygon class="cls-14" points="1018.86 204.53 1006.52 204.53 1012.69 192.44 1018.86 204.53"/><path id="bush-3" data-name="bush" class="cls-14" d="M1535,190.38a13.2,13.2,0,0,0-6.09,1.48,13.26,13.26,0,0,0-22.67-4,13.26,13.26,0,0,0-16.52-10.27,13.26,13.26,0,0,0-26.35,2.18c0,.09,0,.18,0,.27a13.26,13.26,0,0,0-21,6.7,13.26,13.26,0,0,0-22.22,7.48,13.26,13.26,0,0,0-19.2,14.08h147.36c.54-1.45,0-3,0-4.64A13.27,13.27,0,0,0,1535,190.38Z"/><path id="bush-4" data-name="bush" class="cls-14" d="M1090.09,193.83a15.7,15.7,0,0,1,2.69.24,15.62,15.62,0,0,1,27.76-6.12,15.64,15.64,0,0,1,19.18-9c0-.24,0-.48,0-.72a15.62,15.62,0,0,1,31.2-1.13,15.62,15.62,0,0,1,28.95,8.16c0,.4,0,.79,0,1.19a15.62,15.62,0,0,1,21.3,21.86H1074.73A15.42,15.42,0,0,1,1090.09,193.83Z"/><rect id="Front_wall-3" data-name="Front wall" class="cls-24" x="1134.67" y="118.01" width="211.71" height="90.27"/><rect class="cls-25" x="1346.38" y="118.01" width="130.53" height="90.27"/><polygon class="cls-25" points="1346.38 127.11 1372.49 127.03 1372.49 136.13 1346.38 136.13 1346.38 127.11"/><rect class="cls-25" x="1372.49" y="127.03" width="26.11" height="9.09"/><rect class="cls-25" x="1398.6" y="127.03" width="26.11" height="9.09"/><rect class="cls-25" x="1424.7" y="127.03" width="26.11" height="9.09"/><polygon class="cls-25" points="1450.81 127.03 1476.89 127.05 1476.92 136.13 1450.81 136.13 1450.81 127.03"/><rect class="cls-25" x="1385.61" y="117.94" width="26.11" height="9.09"/><rect class="cls-25" x="1411.72" y="117.94" width="26.11" height="9.09"/><rect class="cls-25" x="1346.38" y="145.22" width="26.11" height="9.09"/><rect class="cls-25" x="1372.49" y="145.22" width="26.11" height="9.09"/><rect class="cls-25" x="1398.6" y="145.22" width="26.11" height="9.09"/><rect class="cls-25" x="1424.7" y="145.22" width="26.11" height="9.09"/><rect class="cls-26" x="1450.81" y="145.22" width="26.11" height="9.09"/><rect class="cls-25" x="1346.38" y="136.13" width="13.12" height="9.09"/><rect class="cls-25" x="1359.5" y="136.13" width="26.11" height="9.09"/><rect class="cls-25" x="1385.61" y="136.13" width="26.11" height="9.09"/><rect class="cls-25" x="1411.72" y="136.13" width="26.11" height="9.09"/><rect class="cls-26" x="1463.67" y="136.13" width="13.25" height="9.09"/><rect class="cls-25" x="1437.82" y="136.13" width="26.11" height="9.09"/><rect class="cls-25" x="1346.38" y="163.4" width="26.11" height="9.09"/><rect class="cls-25" x="1372.49" y="163.4" width="26.11" height="9.09"/><rect class="cls-25" x="1398.6" y="163.4" width="26.11" height="9.09"/><rect class="cls-25" x="1424.7" y="163.4" width="26.11" height="9.09"/><rect class="cls-25" x="1450.81" y="163.4" width="26.11" height="9.09"/><rect class="cls-25" x="1346.38" y="154.31" width="13.12" height="9.09"/><rect class="cls-25" x="1359.5" y="154.31" width="26.11" height="9.09"/><rect class="cls-25" x="1385.61" y="154.31" width="26.11" height="9.09"/><rect class="cls-25" x="1411.72" y="154.31" width="26.11" height="9.09"/><rect class="cls-26" x="1463.67" y="154.31" width="13.25" height="9.09"/><rect class="cls-25" x="1437.82" y="154.31" width="26.11" height="9.09"/><rect class="cls-26" x="1346.38" y="181.59" width="26.11" height="9.09"/><rect class="cls-25" x="1372.49" y="181.59" width="26.11" height="9.09"/><rect class="cls-25" x="1398.6" y="181.59" width="26.11" height="9.09"/><rect class="cls-26" x="1424.7" y="181.59" width="26.11" height="9.09"/><rect class="cls-25" x="1450.81" y="181.59" width="26.11" height="9.09"/><rect class="cls-26" x="1346.38" y="172.49" width="13.12" height="9.09"/><rect class="cls-25" x="1333.4" y="172.57" width="12.99" height="9.09"/><rect class="cls-25" x="1359.5" y="172.49" width="26.11" height="9.09"/><rect class="cls-25" x="1385.61" y="172.49" width="26.11" height="9.09"/><rect class="cls-25" x="1411.72" y="172.49" width="26.11" height="9.09"/><rect class="cls-25" x="1463.67" y="172.49" width="13.25" height="9.09"/><rect class="cls-25" x="1437.82" y="172.49" width="26.11" height="9.09"/><rect class="cls-25" x="1346.38" y="199.12" width="26.11" height="9.16"/><rect class="cls-25" x="1372.49" y="199.12" width="26.11" height="9.16"/><rect class="cls-25" x="1398.6" y="199.12" width="26.11" height="9.16"/><rect class="cls-25" x="1424.7" y="199.12" width="26.11" height="9.16"/><rect class="cls-25" x="1450.81" y="199.12" width="26.11" height="9.16"/><rect class="cls-25" x="1346.38" y="190.03" width="13.12" height="9.09"/><rect class="cls-25" x="1359.5" y="190.03" width="26.11" height="9.09"/><rect class="cls-25" x="1385.61" y="190.03" width="26.11" height="9.09"/><rect class="cls-26" x="1411.72" y="190.03" width="26.11" height="9.09"/><rect class="cls-25" x="1463.67" y="190.03" width="13.25" height="9.09"/><rect class="cls-25" x="1437.82" y="190.03" width="26.11" height="9.09"/><circle class="cls-1" cx="1320.41" cy="147.89" r="6.49"/><line class="cls-3" x1="1326.25" y1="70.61" x2="1326.25" y2="92.69"/><line class="cls-3" x1="1302.22" y1="41.38" x2="1302.22" y2="91.39"/><line class="cls-3" x1="1288.59" y1="60.87" x2="1316.51" y2="60.87"/><line class="cls-3" x1="1288.59" y1="50.47" x2="1316.51" y2="50.47"/><polygon class="cls-27" points="1414.08 81.65 1283.39 81.65 1346.38 117.93 1476.92 117.97 1414.08 81.65"/><polygon class="cls-1" points="1283.55 81.65 1197.51 81.65 1134.67 117.93 1134.83 118.01 1346.38 117.93 1346.38 117.93 1283.55 81.65"/><g id="Door-4" data-name="Door"><rect class="cls-7" x="1224.29" y="147.89" width="32.47" height="60.4"/><rect class="cls-1" x="1224.29" y="147.89" width="32.47" height="12.99"/><rect class="cls-1" x="1200.59" y="171.59" width="60.4" height="12.99" transform="translate(1052.7 1408.87) rotate(-90)"/></g><g id="Door-5" data-name="Door"><rect class="cls-28" x="1256.76" y="147.89" width="32.47" height="60.4"/><rect class="cls-12" x="1256.76" y="147.89" width="32.47" height="12.99"/><path class="cls-29" d="M1282.74,174.51h-19.48a9.74,9.74,0,1,1,19.48,0Z"/></g><g id="window-7" data-name="window"><rect class="cls-7" x="1154.16" y="140.09" width="43.51" height="37.02"/><rect class="cls-1" x="1154.16" y="140.09" width="43.51" height="12.99"/></g><g id="window-8" data-name="window"><rect class="cls-8" x="1389.9" y="140.09" width="43.51" height="37.02"/><rect class="cls-9" x="1389.9" y="140.09" width="43.51" height="12.99"/></g><polygon class="cls-25" points="1346.38 129.06 1134.67 129.06 1134.67 118.01 1346.38 117.93 1346.38 129.06"/><polygon class="cls-26" points="1476.92 117.97 1346.38 117.93 1346.38 129.06 1476.92 129.06 1476.92 117.97"/><path id="bush-5" data-name="bush" class="cls-13" d="M1506.71,194.56a13.67,13.67,0,0,0-10.07,4.42,12.33,12.33,0,0,0-15.93-6.23,17.15,17.15,0,0,0-33.58,2.6,17.15,17.15,0,0,0-23.91,12.93h97.2A13.72,13.72,0,0,0,1506.71,194.56Z"/><polygon class="cls-15" points="1128.83 208.28 1116.49 208.28 1122.66 195.94 1128.83 208.28"/><polygon class="cls-15" points="1141.17 208.28 1128.83 208.28 1135 195.94 1141.17 208.28"/><polygon class="cls-15" points="1153.51 208.28 1141.17 208.28 1147.34 195.94 1153.51 208.28"/><polygon class="cls-15" points="1304.82 208.28 1292.48 208.28 1298.65 195.94 1304.82 208.28"/><polygon class="cls-15" points="1317.16 208.28 1304.82 208.28 1310.99 195.94 1317.16 208.28"/><polygon class="cls-15" points="1329.5 208.28 1317.16 208.28 1323.33 195.94 1329.5 208.28"/><path id="bush-6" data-name="bush" class="cls-15" d="M1639.87,191.73a16.16,16.16,0,0,1,11.91,5.23,14.59,14.59,0,0,1,18.84-7.36,20.28,20.28,0,0,1,39.71,3.07A20.28,20.28,0,0,1,1738.59,208H1625.17C1625.17,199,1630.91,191.73,1639.87,191.73Z"/><polygon class="cls-7" points="1667.09 98.86 1672.51 208.01 1651.57 208.01 1656.98 98.86 1667.09 98.86"/><path class="cls-7" d="M1668.18,154.06v-6.49a20.42,20.42,0,0,0,20.4-20.4V95h6.49v32.2A26.93,26.93,0,0,1,1668.18,154.06Z"/><path class="cls-23" d="M1656.38,150.81a23.65,23.65,0,0,1-23.65-23.65V95"/><polygon class="cls-1" points="1661.96 98.86 1656.98 98.86 1651.57 208.01 1661.96 208.01 1661.96 98.86"/><polygon class="cls-1" points="1668.96 139.77 1658.71 139.77 1658.71 123.53 1668.16 123.53 1668.96 139.77"/><path class="cls-14" d="M1700.68,95.22h-.52a19,19,0,0,0-21-23.84,19,19,0,1,0-36.19-.18l-.71,0a19,19,0,0,0-18.31,24h-.52a19,19,0,0,0-.24,38.05h77.37a19,19,0,1,0,.15-38.05Z"/><line class="cls-3" x1="1971.73" y1="13.13" x2="1971.73" y2="63.14"/><line class="cls-3" x1="1958.09" y1="32.62" x2="1986.02" y2="32.62"/><line class="cls-3" x1="1958.09" y1="22.23" x2="1986.02" y2="22.23"/><polygon id="Front_wall-4" data-name="Front wall" class="cls-30" points="1978.87 207.96 1695.73 207.96 1695.58 104.7 1978.87 104.7 1978.87 207.96"/><g id="Roof-2" data-name="Roof"><polygon class="cls-26" points="2025.44 58.7 1978.87 104.7 1978.87 207.96 2070.44 207.96 2070.55 104.7 2025.44 58.7"/><rect class="cls-10" x="1978.87" y="189.78" width="91.57" height="18.18"/><polygon class="cls-26" points="2057.97 207.31 2031.61 207.31 2005.24 207.31 1978.87 207.31 1978.87 207.96 2070.44 207.96 2070.44 207.31 2057.97 207.31"/><polygon class="cls-31" points="2005.5 135.87 2005.5 126.78 1978.87 126.85 1978.87 135.87 1992.25 135.87 2005.5 135.87"/><polygon class="cls-26" points="2031.48 135.87 2031.48 126.78 2018.23 126.78 2004.85 126.78 2004.85 135.87 2018.23 135.87 2031.48 135.87"/><polygon class="cls-26" points="2031.48 135.87 2044.86 135.87 2058.1 135.87 2058.1 126.78 2044.86 126.78 2031.48 126.78 2031.48 135.87"/><rect class="cls-31" x="2058.1" y="126.78" width="12.34" height="9.09"/><polygon class="cls-26" points="2045.12 126.78 2045.12 117.69 2018.49 117.69 2018.49 126.78 2031.74 126.78 2045.12 126.78"/><polygon class="cls-26" points="2045.12 126.78 2058.1 126.78 2070.44 126.78 2070.44 117.69 2045.12 117.69 2045.12 126.78"/><polygon class="cls-26" points="2005.5 154.06 2005.5 144.97 1992.25 144.97 1978.87 144.97 1978.87 154.06 1992.25 154.06 2005.5 154.06"/><polygon class="cls-26" points="2031.48 154.06 2031.48 144.97 2018.23 144.97 2004.85 144.97 2004.85 154.06 2018.23 154.06 2031.48 154.06"/><polygon class="cls-26" points="2031.48 154.06 2044.86 154.06 2058.1 154.06 2058.1 144.97 2044.86 144.97 2031.48 144.97 2031.48 154.06"/><rect class="cls-31" x="2058.1" y="144.97" width="12.34" height="9.09"/><rect class="cls-26" x="1978.87" y="135.87" width="12.99" height="9.09"/><polygon class="cls-26" points="2018.49 135.87 2005.11 135.87 1991.86 135.87 1991.86 144.97 2005.11 144.97 2018.49 144.97 2018.49 135.87"/><rect class="cls-31" x="1978.87" y="117.69" width="12.99" height="9.09"/><rect class="cls-26" x="1965.89" y="117.69" width="12.99" height="9.09"/><polygon class="cls-26" points="2018.49 117.69 2005.11 117.69 1991.86 117.69 1991.86 126.78 2005.11 126.78 2018.49 126.78 2018.49 117.69"/><polygon class="cls-26" points="2018.49 135.87 2018.49 144.97 2031.74 144.97 2045.12 144.97 2045.12 135.87 2031.74 135.87 2018.49 135.87"/><polygon class="cls-31" points="2045.12 135.87 2045.12 144.97 2058.1 144.97 2070.44 144.97 2070.44 135.87 2058.1 135.87 2045.12 135.87"/><polygon class="cls-26" points="2005.5 172.24 2005.5 163.15 1992.25 163.15 1978.87 163.15 1978.87 172.24 1992.25 172.24 2005.5 172.24"/><polygon class="cls-26" points="2031.48 172.24 2031.48 163.15 2018.23 163.15 2004.85 163.15 2004.85 172.24 2018.23 172.24 2031.48 172.24"/><polygon class="cls-26" points="2031.48 172.24 2044.86 172.24 2058.1 172.24 2058.1 163.15 2044.86 163.15 2031.48 163.15 2031.48 172.24"/><rect class="cls-26" x="2058.1" y="163.15" width="12.34" height="9.09"/><rect class="cls-26" x="1978.87" y="154.06" width="12.99" height="9.09"/><polygon class="cls-26" points="2018.49 154.06 2005.11 154.06 1991.86 154.06 1991.86 163.15 2005.11 163.15 2018.49 163.15 2018.49 154.06"/><polygon class="cls-26" points="2018.49 154.06 2018.49 163.15 2031.74 163.15 2045.12 163.15 2045.12 154.06 2031.74 154.06 2018.49 154.06"/><polygon class="cls-26" points="2045.12 154.06 2045.12 163.15 2058.1 163.15 2070.44 163.15 2070.44 154.06 2058.1 154.06 2045.12 154.06"/><polygon class="cls-31" points="2005.5 189.78 2005.5 181.33 1992.25 181.33 1978.87 181.33 1978.87 189.78 1992.25 189.78 2005.5 189.78"/><polygon class="cls-26" points="2031.48 189.78 2031.48 181.33 2018.23 181.33 2004.85 181.33 2004.85 189.78 2018.23 189.78 2031.48 189.78"/><polygon class="cls-26" points="2031.48 189.78 2044.86 189.78 2058.1 189.78 2058.1 181.33 2044.86 181.33 2031.48 181.33 2031.48 189.78"/><rect class="cls-26" x="2058.1" y="181.33" width="12.34" height="8.44"/><rect class="cls-31" x="1978.87" y="172.24" width="12.99" height="9.09"/><rect class="cls-26" x="1965.89" y="172.24" width="12.99" height="9.09"/><polygon class="cls-26" points="2018.49 172.24 2005.11 172.24 1991.86 172.24 1991.86 181.33 2005.11 181.33 2018.49 181.33 2018.49 172.24"/><polygon class="cls-26" points="2018.49 172.24 2018.49 181.33 2031.74 181.33 2045.12 181.33 2045.12 172.24 2031.74 172.24 2018.49 172.24"/><polygon class="cls-26" points="2045.12 172.24 2045.12 181.33 2058.1 181.33 2070.44 181.33 2070.44 172.24 2058.1 172.24 2045.12 172.24"/><polygon class="cls-29" points="2005.5 198.87 1992.25 198.87 1978.87 198.87 1978.87 207.96 2005.5 207.96 2005.5 198.87"/><polygon class="cls-29" points="2018.23 198.87 2004.85 198.87 2004.85 207.96 2031.48 207.96 2031.48 198.87 2018.23 198.87"/><polygon class="cls-29" points="2044.86 198.87 2031.48 198.87 2031.48 207.96 2058.1 207.96 2058.1 198.87 2044.86 198.87"/><rect class="cls-29" x="2058.1" y="198.87" width="12.34" height="9.09"/><polygon class="cls-32" points="1991.86 189.78 1978.87 189.78 1978.87 190.43 1978.87 198.87 1991.86 198.87 1991.86 189.78"/><polygon class="cls-29" points="2018.49 189.78 2005.11 189.78 1991.86 189.78 1991.86 198.87 2005.11 198.87 2018.49 198.87 2018.49 189.78"/><polygon class="cls-29" points="2018.49 189.78 2018.49 198.87 2031.74 198.87 2045.12 198.87 2045.12 189.78 2031.74 189.78 2018.49 189.78"/><polygon class="cls-29" points="2045.12 189.78 2045.12 198.87 2058.1 198.87 2070.44 198.87 2070.44 189.78 2058.1 189.78 2045.12 189.78"/><polygon class="cls-33" points="1978.87 104.7 1978.87 113.14 2070.44 113.14 2070.45 104.7 2025.44 58.7 1978.87 104.7"/><polygon id="Roof-3" data-name="Roof" class="cls-12" points="2025.44 58.7 1741.02 58.45 1695.07 104.7 1979.24 104.7 2025.44 58.7"/><polygon class="cls-11" points="1978.87 113.14 1695.73 113.14 1695.58 104.7 1978.87 104.7 1978.87 107.3 1978.87 113.14"/><polygon class="cls-11" points="2070.44 113.04 2070.54 104.7 2025.44 58.7 1978.87 104.7 1978.87 113.14 2025.32 67.18 2070.44 113.04"/></g><rect class="cls-2" x="1695.73" y="189.78" width="283.15" height="18.18"/><g id="Door-6" data-name="Door"><rect class="cls-7" x="1894.45" y="129.38" width="64.94" height="60.4"/><rect class="cls-1" x="1894.45" y="129.38" width="64.94" height="12.99"/><rect class="cls-1" x="1870.75" y="153.08" width="60.4" height="12.99" transform="translate(1741.37 2060.52) rotate(-90)"/><g id="stairs"><rect class="cls-29" x="1946.4" y="189.78" width="12.99" height="18.18"/><rect class="cls-10" x="1887.96" y="189.78" width="64.94" height="9.09"/><rect class="cls-29" x="1881.46" y="198.87" width="64.94" height="9.09"/><rect class="cls-10" x="1881.46" y="202.65" width="64.94" height="5.31"/></g></g><g id="window-9" data-name="window"><rect class="cls-7" x="1847.04" y="133.28" width="25.98" height="37.02"/><rect class="cls-1" x="1847.04" y="133.28" width="25.98" height="12.99"/></g><g id="window-10" data-name="window"><rect class="cls-7" x="1802.23" y="133.28" width="25.98" height="37.02"/><rect class="cls-1" x="1802.23" y="133.28" width="25.98" height="12.99"/></g><g id="window-11" data-name="window"><rect class="cls-8" x="2011.87" y="133.33" width="26.18" height="37.09"/><rect class="cls-9" x="2011.99" y="133.28" width="25.98" height="12.99"/></g><g id="aerial"><line class="cls-34" x1="1774.31" y1="51.45" x2="1774.31" y2="68.33"/></g><line class="cls-34" x1="1791.19" y1="67.68" x2="1791.19" y2="43.66"/><g id="garage_door_8_rows" data-name="garage door 8 rows"><rect class="cls-1" x="1715.21" y="147.56" width="64.94" height="7.55"/><rect class="cls-7" x="1715.21" y="155.11" width="64.94" height="7.55"/><rect class="cls-1" x="1715.21" y="162.66" width="64.94" height="7.55"/><rect class="cls-7" x="1715.21" y="170.21" width="64.94" height="7.55"/><rect class="cls-1" x="1715.21" y="177.76" width="64.94" height="7.55"/><rect class="cls-7" x="1715.21" y="185.31" width="64.94" height="7.55"/><rect class="cls-1" x="1715.21" y="192.86" width="64.94" height="7.55"/><rect class="cls-7" x="1715.21" y="200.41" width="64.94" height="7.55"/><rect class="cls-1" x="1715.21" y="147.56" width="7.79" height="60.4"/></g><path id="bush-7" data-name="bush" class="cls-14" d="M2084.65,194.24a13.67,13.67,0,0,0-10.07,4.42,12.33,12.33,0,0,0-15.93-6.23,17.15,17.15,0,0,0-33.58,2.6A17.15,17.15,0,0,0,2001.16,208H2100C2100,200.38,2092.22,194.24,2084.65,194.24Z"/><polygon class="cls-15" points="1822.36 208.28 1810.03 208.28 1816.19 195.94 1822.36 208.28"/><polygon class="cls-15" points="1834.7 208.28 1822.36 208.28 1828.53 195.94 1834.7 208.28"/><polygon class="cls-15" points="1847.04 208.28 1834.7 208.28 1840.87 195.94 1847.04 208.28"/><polygon class="cls-14" points="1649.62 208.28 1637.28 208.28 1643.45 195.94 1649.62 208.28"/><polygon class="cls-14" points="1680.79 208.28 1668.45 208.28 1674.62 195.94 1680.79 208.28"/><polygon class="cls-14" points="1693.13 208.28 1680.79 208.28 1686.96 195.94 1693.13 208.28"/><path class="cls-1" d="M1684.2,139.77h7.73a26.7,26.7,0,0,0,2.44-6.49h-6.72A20.36,20.36,0,0,1,1684.2,139.77Z"/></g></svg>