<svg xmlns="http://www.w3.org/2000/svg" width="50" height="50" viewBox="0 0 50 50"><defs><style>.cls-1{fill:#ea5e65;}</style></defs><title>rotateIcon</title><g id="front"><path class="cls-1" d="M0,45.83V31.25a2,2,0,0,1,.62-1.47,2,2,0,0,1,1.47-.62H16.67a2.07,2.07,0,0,1,1.46,3.55l-4.46,4.46a16.71,16.71,0,0,0,5.24,3.32A16.2,16.2,0,0,0,25,41.67a16.58,16.58,0,0,0,14.19-7.94,39.65,39.65,0,0,0,1.72-3.81,1,1,0,0,1,1-.75h6.25a1.05,1.05,0,0,1,1,1,.58.58,0,0,1,0,.23,25.29,25.29,0,0,1-8.72,14.14A23.87,23.87,0,0,1,24.87,50a24.42,24.42,0,0,1-9.2-1.79A24.92,24.92,0,0,1,7.75,43.1l-4.2,4.2a2,2,0,0,1-1.46.62A2,2,0,0,1,.62,47.3,2,2,0,0,1,0,45.83Zm.59-26v-.23A25.38,25.38,0,0,1,9.38,5.42,24,24,0,0,1,25,0a24.54,24.54,0,0,1,9.25,1.81,25.14,25.14,0,0,1,8,5.09l4.23-4.2a2,2,0,0,1,2.93,0A2,2,0,0,1,50,4.17V18.75a2.12,2.12,0,0,1-2.08,2.08H33.33a2.07,2.07,0,0,1-1.47-3.55l4.49-4.49A16.18,16.18,0,0,0,25,8.34a16.58,16.58,0,0,0-14.19,7.94,39.42,39.42,0,0,0-1.73,3.81,1,1,0,0,1-1,.75H1.63a1,1,0,0,1-.73-.31A1,1,0,0,1,.59,19.79Z"/></g></svg>