<?xml version="1.0" encoding="utf-8"?>
<!-- Generator: Adobe Illustrator 21.0.0, SVG Export Plug-In . SVG Version: 6.00 Build 0)  -->
<svg version="1.1" id="Layer_1" xmlns="http://www.w3.org/2000/svg" xmlns:xlink="http://www.w3.org/1999/xlink" x="0px" y="0px"
	 width="50px" height="50px" viewBox="0 0 50 50" style="enable-background:new 0 0 50 50;" xml:space="preserve">
<style type="text/css">
	.st0{fill:#ECEDF0;}
	.st1{clip-path:url(#SVGID_2_);}
	.st2{enable-background:new    ;}
	.st3{fill:#A9810B;}
	.st4{fill:#896809;}
	.st5{fill:#C4AE6E;}
	.st6{fill:#836409;}
</style>
<circle class="st0" cx="25" cy="25" r="25"/>
<g>
	<defs>
		<circle id="SVGID_1_" cx="25" cy="25" r="25"/>
	</defs>
	<clipPath id="SVGID_2_">
		<use xlink:href="#SVGID_1_"  style="overflow:visible;"/>
	</clipPath>
	<g id="XMLID_19011_" class="st1">
		<g id="XMLID_19012_">
			<g id="XMLID_19013_" class="st2">
				<g id="XMLID_19249_" class="st2">
					<g id="XMLID_19250_" class="st2">
						<path id="XMLID_19251_" class="st3" d="M20.8,21.4l1.1-0.6c-0.6-0.4-1.1-0.5-1.1-0.5l-1.1,0.6C19.7,20.9,20.1,21,20.8,21.4
							L20.8,21.4z"/>
					</g>
				</g>
				<g id="XMLID_19247_">
					<polygon id="XMLID_19248_" class="st4" points="24.7,63 25.8,62.4 25.9,27 24.8,27.6 					"/>
				</g>
				<g id="XMLID_19244_" class="st2">
					<g id="XMLID_19245_" class="st2">
						<path id="XMLID_19246_" class="st3" d="M20.8,40.2l1.1-0.6c-0.6-0.4-1.1-0.5-1.1-0.5l-1.1,0.6C19.7,39.6,20.1,39.8,20.8,40.2
							L20.8,40.2z"/>
					</g>
				</g>
				<g id="XMLID_19241_" class="st2">
					<g id="XMLID_19242_" class="st2">
						<path id="XMLID_19243_" class="st3" d="M24.1,44.6l1.1-0.6c-0.2-0.8-0.6-1.7-1.2-2.6c-0.7-0.9-1.4-1.5-2.1-1.8l-1.1,0.6
							c0.6,0.4,1.4,0.9,2.1,1.8C23.4,42.8,23.8,43.8,24.1,44.6L24.1,44.6z"/>
					</g>
				</g>
				<g id="XMLID_19239_">
					<path id="XMLID_19240_" class="st5" d="M20.8,40.2c-0.6-0.4-1.1-0.5-1.1-0.5c0,0.1,0.3,2.3,1.6,4.1c0.7,0.9,1.4,1.5,2.1,1.8
						c0.3,0.2,0.6,0.3,0.8,0.4l0-1.4c-0.2-0.8-0.6-1.7-1.2-2.6C22.2,41.1,21.4,40.5,20.8,40.2z"/>
				</g>
				<g id="XMLID_19236_" class="st2">
					<g id="XMLID_19237_" class="st2">
						<path id="XMLID_19238_" class="st3" d="M20.8,36.4l1.1-0.6c-0.6-0.4-1.1-0.5-1.1-0.5l-1.1,0.6C19.7,35.9,20.1,36,20.8,36.4
							L20.8,36.4z"/>
					</g>
				</g>
				<g id="XMLID_19233_" class="st2">
					<g id="XMLID_19234_" class="st2">
						<path id="XMLID_19235_" class="st3" d="M24.1,40.8l1.1-0.6c-0.2-0.8-0.6-1.7-1.2-2.6c-0.7-0.9-1.4-1.5-2.1-1.8l-1.1,0.6
							c0.6,0.4,1.4,0.9,2.1,1.8C23.5,39,23.8,40,24.1,40.8L24.1,40.8z"/>
					</g>
				</g>
				<g id="XMLID_19231_">
					<path id="XMLID_19232_" class="st5" d="M20.8,36.4c-0.6-0.4-1.1-0.5-1.1-0.5c0,0.1,0.3,2.3,1.6,4.1c0.7,0.9,1.4,1.5,2.1,1.8
						c0.3,0.2,0.6,0.3,0.8,0.4l0-1.4c-0.2-0.8-0.6-1.7-1.2-2.6C22.2,37.3,21.4,36.7,20.8,36.4z"/>
				</g>
				<g id="XMLID_19228_" class="st2">
					<g id="XMLID_19229_" class="st2">
						<path id="XMLID_19230_" class="st3" d="M20.8,32.6l1.1-0.6c-0.6-0.4-1.1-0.5-1.1-0.5L19.7,32C19.7,32.1,20.1,32.2,20.8,32.6
							L20.8,32.6z"/>
					</g>
				</g>
				<g id="XMLID_19225_" class="st2">
					<g id="XMLID_19226_" class="st2">
						<path id="XMLID_19227_" class="st3" d="M28.1,44.4l1.1-0.6c-0.6-0.4-1.4-0.7-2.1-0.6c-0.2,0-0.3,0.1-0.4,0.2L25.6,44
							c0.1-0.1,0.3-0.1,0.4-0.2C26.7,43.7,27.5,44,28.1,44.4L28.1,44.4z"/>
					</g>
				</g>
				<g id="XMLID_19222_" class="st2">
					<g id="XMLID_19223_" class="st2">
						<path id="XMLID_19224_" class="st3" d="M28.1,47.3l1.1-0.6c0.9-0.5,1.1-2,1.2-2.1l-1.1,0.6C29.2,45.3,29,46.7,28.1,47.3
							L28.1,47.3z"/>
					</g>
				</g>
				<g id="XMLID_19220_">
					<path id="XMLID_19221_" class="st5" d="M28.1,44.4c-0.6-0.4-1.4-0.7-2.1-0.6c-0.6,0.1-1,0.6-1.3,1.1l0,1.4
						c0.2,0.1,0.5,0.3,0.8,0.5c0.6,0.4,1.4,0.7,2.1,0.6c1.3-0.3,1.6-2.2,1.6-2.3C29.2,45.1,28.7,44.8,28.1,44.4z"/>
				</g>
				<g id="XMLID_19217_" class="st2">
					<g id="XMLID_19218_" class="st2">
						<path id="XMLID_19219_" class="st3" d="M29.2,45.2l1.1-0.6c0,0-0.5-0.4-1.1-0.8l-1.1,0.6C28.7,44.8,29.2,45.1,29.2,45.2
							L29.2,45.2z"/>
					</g>
				</g>
				<g id="XMLID_19214_" class="st2">
					<g id="XMLID_19215_" class="st2">
						<path id="XMLID_19216_" class="st3" d="M24.1,37l1.1-0.6c-0.2-0.8-0.6-1.7-1.2-2.6c-0.7-0.9-1.4-1.5-2.1-1.8l-1.1,0.6
							c0.6,0.4,1.4,0.9,2.1,1.8C23.5,35.2,23.9,36.2,24.1,37L24.1,37z"/>
					</g>
				</g>
				<g id="XMLID_19212_">
					<path id="XMLID_19213_" class="st5" d="M20.8,32.6c-0.6-0.4-1.1-0.5-1.1-0.5c0,0.1,0.3,2.3,1.6,4.1c0.7,0.9,1.4,1.5,2.1,1.8
						c0.3,0.2,0.6,0.3,0.8,0.4l0-1.4c-0.2-0.8-0.6-1.7-1.2-2.6C22.2,33.5,21.4,32.9,20.8,32.6z"/>
				</g>
				<g id="XMLID_19209_" class="st2">
					<g id="XMLID_19210_" class="st2">
						<path id="XMLID_19211_" class="st3" d="M20.8,28.8l1.1-0.6c-0.6-0.4-1.1-0.5-1.1-0.5l-1.1,0.6C19.7,28.3,20.2,28.4,20.8,28.8
							L20.8,28.8z"/>
					</g>
				</g>
				<g id="XMLID_19206_" class="st2">
					<g id="XMLID_19207_" class="st2">
						<path id="XMLID_19208_" class="st3" d="M28.1,40.6l1.1-0.6c-0.6-0.4-1.4-0.7-2.1-0.6c-0.2,0-0.3,0.1-0.4,0.2l-1.1,0.6
							c0.1-0.1,0.3-0.1,0.4-0.2C26.7,39.9,27.5,40.2,28.1,40.6L28.1,40.6z"/>
					</g>
				</g>
				<g id="XMLID_19203_" class="st2">
					<g id="XMLID_19204_" class="st2">
						<path id="XMLID_19205_" class="st3" d="M28.1,43.5l1.1-0.6c0.9-0.5,1.1-2,1.2-2.1l-1.1,0.6C29.2,41.5,29,42.9,28.1,43.5
							L28.1,43.5z"/>
					</g>
				</g>
				<g id="XMLID_19200_" class="st2">
					<g id="XMLID_19201_" class="st2">
						<path id="XMLID_19202_" class="st3" d="M29.2,41.4l1.1-0.6c0,0-0.5-0.4-1.1-0.8l-1.1,0.6C28.7,41,29.2,41.3,29.2,41.4
							L29.2,41.4z"/>
					</g>
				</g>
				<g id="XMLID_19198_">
					<path id="XMLID_19199_" class="st5" d="M28.1,40.6c-0.6-0.4-1.4-0.7-2.1-0.6c-0.6,0.1-1,0.6-1.3,1.1l0,1.4
						c0.2,0.1,0.5,0.3,0.8,0.5c0.6,0.4,1.4,0.7,2.1,0.6c1.3-0.3,1.6-2.2,1.6-2.3C29.2,41.3,28.7,41,28.1,40.6z"/>
				</g>
				<g id="XMLID_19196_">
					<path id="XMLID_19197_" class="st5" d="M20.8,28.8c-0.6-0.4-1.1-0.5-1.1-0.5c0,0.1,0.3,2.3,1.6,4.1c0.7,0.9,1.4,1.5,2.1,1.8
						c0.3,0.2,0.6,0.3,0.8,0.4l0-1.4c-0.2-0.8-0.6-1.7-1.2-2.6C22.2,29.7,21.4,29.1,20.8,28.8z"/>
				</g>
				<g id="XMLID_19193_" class="st2">
					<g id="XMLID_19194_" class="st2">
						<path id="XMLID_19195_" class="st3" d="M24.1,33.2l1.1-0.6c-0.2-0.8-0.6-1.7-1.2-2.6c-0.7-0.9-1.4-1.5-2.1-1.8l-1.1,0.6
							c0.6,0.4,1.4,0.9,2.1,1.8C23.5,31.4,23.9,32.4,24.1,33.2L24.1,33.2z"/>
					</g>
				</g>
				<g id="XMLID_19190_" class="st2">
					<g id="XMLID_19191_" class="st2">
						<path id="XMLID_19192_" class="st3" d="M20.8,25l1.1-0.6c-0.6-0.4-1.1-0.5-1.1-0.5l-1.1,0.6C19.7,24.5,20.2,24.6,20.8,25
							L20.8,25z"/>
					</g>
				</g>
				<g id="XMLID_19187_" class="st2">
					<g id="XMLID_19188_" class="st2">
						<path id="XMLID_19189_" class="st3" d="M28.1,36.8l1.1-0.6c-0.6-0.4-1.4-0.7-2.1-0.6c-0.2,0-0.3,0.1-0.4,0.2l-1.1,0.6
							c0.1-0.1,0.3-0.1,0.4-0.2C26.7,36.1,27.5,36.4,28.1,36.8L28.1,36.8z"/>
					</g>
				</g>
				<g id="XMLID_19184_" class="st2">
					<g id="XMLID_19185_" class="st2">
						<path id="XMLID_19186_" class="st3" d="M28.1,39.7l1.1-0.6c0.9-0.5,1.1-2,1.2-2.1l-1.1,0.6C29.2,37.7,29,39.1,28.1,39.7
							L28.1,39.7z"/>
					</g>
				</g>
				<g id="XMLID_19181_" class="st2">
					<g id="XMLID_19182_" class="st2">
						<path id="XMLID_19183_" class="st3" d="M29.2,37.6l1.1-0.6c0,0-0.5-0.4-1.1-0.8l-1.1,0.6C28.8,37.2,29.2,37.5,29.2,37.6
							L29.2,37.6z"/>
					</g>
				</g>
				<g id="XMLID_19179_">
					<path id="XMLID_19180_" class="st5" d="M28.1,36.8c-0.6-0.4-1.4-0.7-2.1-0.6c-0.6,0.1-1,0.6-1.3,1.1l0,1.4
						c0.2,0.1,0.5,0.3,0.8,0.5c0.6,0.4,1.4,0.7,2.1,0.6c1.3-0.3,1.6-2.2,1.6-2.3C29.2,37.5,28.8,37.2,28.1,36.8z"/>
				</g>
				<g id="XMLID_19177_">
					<path id="XMLID_19178_" class="st5" d="M20.8,25c-0.6-0.4-1.1-0.5-1.1-0.5c0,0.1,0.3,2.3,1.6,4.1c0.7,0.9,1.4,1.5,2.1,1.8
						c0.3,0.2,0.6,0.3,0.8,0.4l0-1.4c-0.2-0.8-0.6-1.7-1.2-2.6C22.2,25.9,21.4,25.3,20.8,25z"/>
				</g>
				<g id="XMLID_19174_" class="st2">
					<g id="XMLID_19175_" class="st2">
						<path id="XMLID_19176_" class="st3" d="M24.1,29.4l1.1-0.6C25,27.9,24.6,27,24,26.1c-0.7-0.9-1.4-1.5-2.1-1.8L20.8,25
							c0.6,0.4,1.4,0.9,2.1,1.8C23.5,27.6,23.9,28.6,24.1,29.4L24.1,29.4z"/>
					</g>
				</g>
				<g id="XMLID_19171_" class="st2">
					<g id="XMLID_19172_" class="st2">
						<path id="XMLID_19173_" class="st3" d="M28.1,33l1.1-0.6c-0.6-0.4-1.4-0.7-2.1-0.6c-0.2,0-0.3,0.1-0.4,0.2l-1.1,0.6
							c0.1-0.1,0.3-0.1,0.4-0.2C26.7,32.3,27.5,32.6,28.1,33L28.1,33z"/>
					</g>
				</g>
				<g id="XMLID_19168_" class="st2">
					<g id="XMLID_19169_" class="st2">
						<path id="XMLID_19170_" class="st3" d="M28.1,35.9l1.1-0.6c0.9-0.5,1.1-2,1.2-2.1l-1.1,0.6C29.2,33.9,29,35.3,28.1,35.9
							L28.1,35.9z"/>
					</g>
				</g>
				<g id="XMLID_19165_" class="st2">
					<g id="XMLID_19166_" class="st2">
						<path id="XMLID_19167_" class="st3" d="M29.2,33.8l1.1-0.6c0,0-0.5-0.4-1.1-0.8L28.1,33C28.8,33.4,29.2,33.8,29.2,33.8
							L29.2,33.8z"/>
					</g>
				</g>
				<g id="XMLID_19163_">
					<path id="XMLID_19164_" class="st5" d="M28.1,33c-0.6-0.4-1.4-0.7-2.1-0.6c-0.6,0.1-1,0.6-1.3,1.1l0,1.4
						c0.2,0.1,0.5,0.3,0.8,0.5c0.6,0.4,1.4,0.7,2.1,0.6c1.3-0.3,1.6-2.2,1.6-2.3C29.2,33.8,28.8,33.4,28.1,33z"/>
				</g>
				<g id="XMLID_19160_" class="st2">
					<g id="XMLID_19161_" class="st2">
						<path id="XMLID_19162_" class="st3" d="M28.1,29.2l1.1-0.6c-0.6-0.4-1.4-0.7-2.1-0.6c-0.2,0-0.3,0.1-0.4,0.2l-1.1,0.6
							c0.1-0.1,0.3-0.1,0.4-0.2C26.7,28.5,27.5,28.8,28.1,29.2L28.1,29.2z"/>
					</g>
				</g>
				<g id="XMLID_19157_" class="st2">
					<g id="XMLID_19158_" class="st2">
						<path id="XMLID_19159_" class="st3" d="M29.3,30l1.1-0.6c0,0-0.5-0.4-1.1-0.8l-1.1,0.6C28.8,29.6,29.2,30,29.3,30L29.3,30z"/>
					</g>
				</g>
				<g id="XMLID_19154_" class="st2">
					<g id="XMLID_19155_" class="st2">
						<path id="XMLID_19156_" class="st3" d="M28.1,32.1l1.1-0.6c0.9-0.5,1.1-2,1.2-2.1L29.3,30C29.2,30.1,29,31.5,28.1,32.1
							L28.1,32.1z"/>
					</g>
				</g>
				<g id="XMLID_19152_">
					<path id="XMLID_19153_" class="st5" d="M28.1,29.2c-0.6-0.4-1.4-0.7-2.1-0.6c-0.6,0.1-1,0.6-1.3,1.1l0,1.4
						c0.2,0.1,0.5,0.3,0.8,0.5c0.6,0.4,1.4,0.7,2.1,0.6c1.3-0.3,1.6-2.2,1.6-2.3C29.2,30,28.8,29.6,28.1,29.2z"/>
				</g>
				<g id="XMLID_19150_">
					<polygon id="XMLID_19151_" class="st4" points="24.1,27.2 25.2,26.6 25.2,25.1 24.1,25.8 					"/>
				</g>
				<g id="XMLID_19147_" class="st2">
					<g id="XMLID_19148_" class="st2">
						<path id="XMLID_19149_" class="st3" d="M24.1,25.8l1.1-0.6c-0.2-0.8-0.6-1.7-1.2-2.6c-0.7-0.9-1.4-1.5-2.1-1.8l-1.1,0.6
							c0.6,0.4,1.4,0.9,2.1,1.8C23.4,24,23.8,25,24.1,25.8L24.1,25.8z"/>
					</g>
				</g>
				<g id="XMLID_19145_">
					<path id="XMLID_19146_" class="st5" d="M20.8,21.4c-0.6-0.4-1.1-0.5-1.1-0.5c0,0.1,0.3,2.3,1.6,4.1c0.7,0.9,1.4,1.5,2.1,1.8
						c0.3,0.2,0.6,0.3,0.8,0.4l0-1.4c-0.2-0.8-0.6-1.7-1.2-2.6C22.2,22.3,21.4,21.7,20.8,21.4z"/>
				</g>
				<g id="XMLID_19143_">
					<polygon id="XMLID_19144_" class="st4" points="24.8,27.6 25.9,27 25.9,25.6 24.8,26.2 					"/>
				</g>
				<g id="XMLID_19140_" class="st2">
					<g id="XMLID_19141_" class="st2">
						<path id="XMLID_19142_" class="st3" d="M20.8,17.6l1.1-0.6c-0.6-0.4-1.1-0.5-1.1-0.5l-1.1,0.6C19.7,17.1,20.1,17.2,20.8,17.6
							L20.8,17.6z"/>
					</g>
				</g>
				<g id="XMLID_19138_">
					<polygon id="XMLID_19139_" class="st4" points="24.8,26.2 25.9,25.6 25.9,23.2 24.8,23.8 					"/>
				</g>
				<g id="XMLID_19136_">
					<polygon id="XMLID_19137_" class="st4" points="24.1,23.4 25.2,22.8 25.2,21.3 24.1,22 					"/>
				</g>
				<g id="XMLID_19133_" class="st2">
					<g id="XMLID_19134_" class="st2">
						<path id="XMLID_19135_" class="st3" d="M24.1,22l1.1-0.6c-0.2-0.8-0.6-1.7-1.2-2.6c-0.7-0.9-1.4-1.5-2.1-1.8l-1.1,0.6
							c0.6,0.4,1.4,0.9,2.1,1.8C23.5,20.2,23.8,21.2,24.1,22L24.1,22z"/>
					</g>
				</g>
				<g id="XMLID_19131_">
					<path id="XMLID_19132_" class="st5" d="M20.8,17.6c-0.6-0.4-1.1-0.5-1.1-0.5c0,0.1,0.3,2.3,1.6,4.1c0.7,0.9,1.4,1.5,2.1,1.8
						c0.3,0.2,0.6,0.3,0.8,0.4l0-1.4c-0.2-0.8-0.6-1.7-1.2-2.6C22.2,18.5,21.4,18,20.8,17.6z"/>
				</g>
				<g id="XMLID_19129_">
					<polygon id="XMLID_19130_" class="st4" points="24.8,23.8 25.9,23.2 25.9,21.8 24.8,22.4 					"/>
				</g>
				<g id="XMLID_19126_" class="st2">
					<g id="XMLID_19127_" class="st2">
						<path id="XMLID_19128_" class="st3" d="M20.8,13.8l1.1-0.6c-0.6-0.4-1.1-0.5-1.1-0.5l-1.1,0.6C19.7,13.3,20.1,13.4,20.8,13.8
							L20.8,13.8z"/>
					</g>
				</g>
				<g id="XMLID_19124_">
					<polygon id="XMLID_19125_" class="st4" points="24.8,22.4 25.9,21.8 25.9,19.4 24.8,20 					"/>
				</g>
				<g id="XMLID_19121_" class="st2">
					<g id="XMLID_19122_" class="st2">
						<path id="XMLID_19123_" class="st3" d="M28.1,25.6l1.1-0.6c-0.6-0.4-1.4-0.7-2.1-0.6c-0.2,0-0.3,0.1-0.4,0.2l-1.1,0.6
							c0.1-0.1,0.3-0.1,0.4-0.2C26.7,24.9,27.5,25.3,28.1,25.6L28.1,25.6z"/>
					</g>
				</g>
				<g id="XMLID_19119_">
					<polygon id="XMLID_19120_" class="st4" points="24.1,19.6 25.2,19 25.2,17.6 24.1,18.2 					"/>
				</g>
				<g id="XMLID_19116_" class="st2">
					<g id="XMLID_19117_" class="st2">
						<path id="XMLID_19118_" class="st3" d="M28.1,28.5l1.1-0.6c0.9-0.5,1.1-2,1.2-2.1l-1.1,0.6C29.2,26.5,29,28,28.1,28.5
							L28.1,28.5z"/>
					</g>
				</g>
				<g id="XMLID_19114_">
					<path id="XMLID_19115_" class="st5" d="M28.1,25.6c-0.6-0.4-1.4-0.7-2.1-0.6c-0.6,0.1-1,0.6-1.3,1.1l0,1.4
						c0.2,0.1,0.5,0.3,0.8,0.5c0.6,0.4,1.4,0.7,2.1,0.6c1.3-0.3,1.6-2.2,1.6-2.3C29.2,26.4,28.7,26,28.1,25.6z"/>
				</g>
				<g id="XMLID_19111_" class="st2">
					<g id="XMLID_19112_" class="st2">
						<path id="XMLID_19113_" class="st3" d="M29.2,26.4l1.1-0.6c0,0-0.5-0.4-1.1-0.8l-1.1,0.6C28.7,26,29.2,26.4,29.2,26.4
							L29.2,26.4z"/>
					</g>
				</g>
				<g id="XMLID_19108_" class="st2">
					<g id="XMLID_19109_" class="st2">
						<path id="XMLID_19110_" class="st3" d="M24.1,18.2l1.1-0.6c-0.2-0.8-0.6-1.7-1.2-2.6c-0.7-0.9-1.4-1.5-2.1-1.8l-1.1,0.6
							c0.6,0.4,1.4,0.9,2.1,1.8C23.5,16.5,23.9,17.4,24.1,18.2L24.1,18.2z"/>
					</g>
				</g>
				<g id="XMLID_19106_">
					<path id="XMLID_19107_" class="st5" d="M20.8,13.8c-0.6-0.4-1.1-0.5-1.1-0.5c0,0.1,0.3,2.3,1.6,4.1c0.7,0.9,1.4,1.5,2.1,1.8
						c0.3,0.2,0.6,0.3,0.8,0.4l0-1.4c-0.2-0.8-0.6-1.7-1.2-2.6C22.2,14.7,21.4,14.2,20.8,13.8z"/>
				</g>
				<g id="XMLID_19104_">
					<polygon id="XMLID_19105_" class="st4" points="24.8,20 25.9,19.4 25.9,18 24.8,18.6 					"/>
				</g>
				<g id="XMLID_19101_" class="st2">
					<g id="XMLID_19102_" class="st2">
						<path id="XMLID_19103_" class="st3" d="M20.8,10l1.1-0.6c-0.6-0.4-1.1-0.5-1.1-0.5l-1.1,0.6C19.7,9.5,20.2,9.6,20.8,10
							L20.8,10z"/>
					</g>
				</g>
				<g id="XMLID_19099_">
					<polygon id="XMLID_19100_" class="st4" points="24.8,18.6 25.9,18 25.9,15.6 24.8,16.2 					"/>
				</g>
				<g id="XMLID_19096_" class="st2">
					<g id="XMLID_19097_" class="st2">
						<path id="XMLID_19098_" class="st3" d="M28.1,21.8l1.1-0.6c-0.6-0.4-1.4-0.7-2.1-0.6c-0.2,0-0.3,0.1-0.4,0.2l-1.1,0.6
							c0.1-0.1,0.3-0.1,0.4-0.2C26.7,21.1,27.5,21.5,28.1,21.8L28.1,21.8z"/>
					</g>
				</g>
				<g id="XMLID_19094_">
					<polygon id="XMLID_19095_" class="st4" points="24.1,15.8 25.2,15.2 25.2,13.8 24.1,14.4 					"/>
				</g>
				<g id="XMLID_19091_" class="st2">
					<g id="XMLID_19092_" class="st2">
						<path id="XMLID_19093_" class="st3" d="M28.1,24.7l1.1-0.6c0.9-0.5,1.1-2,1.2-2.1l-1.1,0.6C29.2,22.7,29,24.2,28.1,24.7
							L28.1,24.7z"/>
					</g>
				</g>
				<g id="XMLID_19088_" class="st2">
					<g id="XMLID_19089_" class="st2">
						<path id="XMLID_19090_" class="st3" d="M29.2,22.6l1.1-0.6c0,0-0.5-0.4-1.1-0.8l-1.1,0.6C28.7,22.2,29.2,22.6,29.2,22.6
							L29.2,22.6z"/>
					</g>
				</g>
				<g id="XMLID_19086_">
					<path id="XMLID_19087_" class="st5" d="M28.1,21.8c-0.6-0.4-1.4-0.7-2.1-0.6c-0.6,0.1-1,0.6-1.3,1.1l0,1.4
						c0.2,0.1,0.5,0.3,0.8,0.5c0.6,0.4,1.4,0.7,2.1,0.6c1.3-0.3,1.6-2.2,1.6-2.3C29.2,22.6,28.7,22.2,28.1,21.8z"/>
				</g>
				<g id="XMLID_19084_">
					<path id="XMLID_19085_" class="st5" d="M20.8,10c-0.6-0.4-1.1-0.5-1.1-0.5c0,0.1,0.3,2.3,1.6,4.1c0.7,0.9,1.4,1.5,2.1,1.8
						c0.3,0.2,0.6,0.3,0.8,0.4l0-1.4c-0.2-0.8-0.6-1.7-1.2-2.6C22.2,10.9,21.4,10.4,20.8,10z"/>
				</g>
				<g id="XMLID_19081_" class="st2">
					<g id="XMLID_19082_" class="st2">
						<path id="XMLID_19083_" class="st3" d="M24.1,14.4l1.1-0.6C25,13,24.6,12,24,11.2c-0.7-0.9-1.4-1.5-2.1-1.8L20.8,10
							c0.6,0.4,1.4,0.9,2.1,1.8C23.5,12.7,23.9,13.6,24.1,14.4L24.1,14.4z"/>
					</g>
				</g>
				<g id="XMLID_19079_">
					<polygon id="XMLID_19080_" class="st4" points="24.8,16.2 25.9,15.6 25.9,14.2 24.8,14.8 					"/>
				</g>
				<g id="XMLID_19076_" class="st2">
					<g id="XMLID_19077_" class="st2">
						<path id="XMLID_19078_" class="st3" d="M20.8,6.2l1.1-0.6c-0.6-0.4-1.1-0.5-1.1-0.5l-1.1,0.6C19.7,5.7,20.2,5.8,20.8,6.2
							L20.8,6.2z"/>
					</g>
				</g>
				<g id="XMLID_19074_">
					<polygon id="XMLID_19075_" class="st4" points="24.8,14.8 25.9,14.2 25.9,11.8 24.8,12.4 					"/>
				</g>
				<g id="XMLID_19071_" class="st2">
					<g id="XMLID_19072_" class="st2">
						<path id="XMLID_19073_" class="st3" d="M28.1,18l1.1-0.6c-0.6-0.4-1.4-0.7-2.1-0.6c-0.2,0-0.3,0.1-0.4,0.2l-1.1,0.6
							c0.1-0.1,0.3-0.1,0.4-0.2C26.7,17.3,27.5,17.7,28.1,18L28.1,18z"/>
					</g>
				</g>
				<g id="XMLID_19069_">
					<polygon id="XMLID_19070_" class="st4" points="24.1,12 25.2,11.4 25.2,10 24.1,10.6 					"/>
				</g>
				<g id="XMLID_19066_" class="st2">
					<g id="XMLID_19067_" class="st2">
						<path id="XMLID_19068_" class="st3" d="M28.1,20.9l1.1-0.6c0.9-0.5,1.1-2,1.2-2.1l-1.1,0.6C29.2,18.9,29,20.4,28.1,20.9
							L28.1,20.9z"/>
					</g>
				</g>
				<g id="XMLID_19063_" class="st2">
					<g id="XMLID_19064_" class="st2">
						<path id="XMLID_19065_" class="st3" d="M29.2,18.8l1.1-0.6c0,0-0.5-0.4-1.1-0.8L28.1,18C28.8,18.4,29.2,18.8,29.2,18.8
							L29.2,18.8z"/>
					</g>
				</g>
				<g id="XMLID_19061_">
					<path id="XMLID_19062_" class="st5" d="M28.1,18c-0.6-0.4-1.4-0.7-2.1-0.6c-0.6,0.1-1,0.6-1.3,1.1l0,1.4
						c0.2,0.1,0.5,0.3,0.8,0.5c0.6,0.4,1.4,0.7,2.1,0.6c1.3-0.3,1.6-2.2,1.6-2.3C29.2,18.8,28.8,18.4,28.1,18z"/>
				</g>
				<g id="XMLID_19059_">
					<path id="XMLID_19060_" class="st5" d="M20.8,6.2c-0.6-0.4-1.1-0.5-1.1-0.5c0,0.1,0.3,2.3,1.6,4.1c0.7,0.9,1.4,1.5,2.1,1.8
						c0.3,0.2,0.6,0.3,0.8,0.4l0-1.4c-0.2-0.8-0.6-1.7-1.2-2.6C22.2,7.1,21.4,6.6,20.8,6.2z"/>
				</g>
				<g id="XMLID_19056_" class="st2">
					<g id="XMLID_19057_" class="st2">
						<path id="XMLID_19058_" class="st3" d="M24.1,10.6l1.1-0.6C25,9.2,24.6,8.2,24,7.4c-0.7-0.9-1.4-1.5-2.1-1.8l-1.1,0.6
							c0.6,0.4,1.4,0.9,2.1,1.8C23.5,8.9,23.9,9.8,24.1,10.6L24.1,10.6z"/>
					</g>
				</g>
				<g id="XMLID_19054_">
					<polygon id="XMLID_19055_" class="st4" points="24.1,10.1 25.2,9.5 25.2,9.2 24.1,9.8 					"/>
				</g>
				<g id="XMLID_19052_">
					<polygon id="XMLID_19053_" class="st4" points="24.8,12.4 25.9,11.8 25.9,10.4 24.8,11 					"/>
				</g>
				<g id="XMLID_19050_">
					<polygon id="XMLID_19051_" class="st4" points="24.8,11 25.9,10.4 25.9,9.9 24.8,10.5 					"/>
				</g>
				<g id="XMLID_19048_">
					<polygon id="XMLID_19049_" class="st4" points="24.8,10.5 25.9,9.9 25.9,9.6 24.8,10.2 					"/>
				</g>
				<g id="XMLID_19046_">
					<polygon id="XMLID_19047_" class="st5" points="24.1,9.8 24.1,10.1 24.1,10.6 24.1,12 24.1,14.4 24.1,15.8 24.1,18.2 
						24.1,19.6 24.1,22 24.1,23.4 24.1,25.8 24.1,27.2 24,62.6 24.7,63 24.8,27.6 24.8,26.2 24.8,23.8 24.8,22.4 24.8,20 24.8,18.6 
						24.8,16.2 24.8,14.8 24.8,12.4 24.8,11 24.8,10.5 24.8,10.2 					"/>
				</g>
				<g id="XMLID_19044_">
					<polygon id="XMLID_19045_" class="st6" points="24.8,10.2 25.9,9.6 25.2,9.2 24.1,9.8 					"/>
				</g>
				<g id="XMLID_19041_" class="st2">
					<g id="XMLID_19042_" class="st2">
						<path id="XMLID_19043_" class="st3" d="M28.1,14.2l1.1-0.6c-0.6-0.4-1.4-0.7-2.1-0.6c-0.2,0-0.3,0.1-0.4,0.2l-1.1,0.6
							c0.1-0.1,0.3-0.1,0.4-0.2C26.7,13.5,27.5,13.9,28.1,14.2L28.1,14.2z"/>
					</g>
				</g>
				<g id="XMLID_19038_" class="st2">
					<g id="XMLID_19039_" class="st2">
						<path id="XMLID_19040_" class="st3" d="M28.1,17.1l1.1-0.6c0.9-0.5,1.1-2,1.2-2.1L29.2,15C29.2,15.1,29,16.6,28.1,17.1
							L28.1,17.1z"/>
					</g>
				</g>
				<g id="XMLID_19035_" class="st2">
					<g id="XMLID_19036_" class="st2">
						<path id="XMLID_19037_" class="st3" d="M29.2,15l1.1-0.6c0,0-0.5-0.4-1.1-0.8l-1.1,0.6C28.8,14.6,29.2,15,29.2,15L29.2,15z"/>
					</g>
				</g>
				<g id="XMLID_19033_">
					<path id="XMLID_19034_" class="st5" d="M28.1,14.2c-0.6-0.4-1.4-0.7-2.1-0.6c-0.6,0.1-1,0.6-1.3,1.1l0,1.4
						c0.2,0.1,0.5,0.3,0.8,0.5c0.6,0.4,1.4,0.7,2.1,0.6c1.3-0.3,1.6-2.2,1.6-2.3C29.2,15,28.8,14.6,28.1,14.2z"/>
				</g>
				<g id="XMLID_19030_" class="st2">
					<g id="XMLID_19031_" class="st2">
						<path id="XMLID_19032_" class="st3" d="M28.1,10.4l1.1-0.6c-0.6-0.4-1.4-0.7-2.1-0.6c-0.2,0-0.3,0.1-0.4,0.2L25.6,10
							c0.1-0.1,0.3-0.1,0.4-0.2C26.7,9.7,27.5,10.1,28.1,10.4L28.1,10.4z"/>
					</g>
				</g>
				<g id="XMLID_19027_" class="st2">
					<g id="XMLID_19028_" class="st2">
						<path id="XMLID_19029_" class="st3" d="M24.5,4.1l1.1-0.6c0,0-0.1,0-0.1,0.1l-1.1,0.6C24.4,4.2,24.5,4.1,24.5,4.1L24.5,4.1z"
							/>
					</g>
				</g>
				<g id="XMLID_19024_" class="st2">
					<g id="XMLID_19025_" class="st2">
						<path id="XMLID_19026_" class="st3" d="M24.8,10.5l1.1-0.6c0.4-0.3,1.1-1,1.1-2.2c0-1.8-1.3-4-1.4-4.1l-1.1,0.6
							c0.1,0.1,1.4,2.3,1.4,4.1C25.9,9.5,25.2,10.2,24.8,10.5L24.8,10.5z"/>
					</g>
				</g>
				<g id="XMLID_19022_">
					<path id="XMLID_19023_" class="st5" d="M24.5,4.1c-0.1,0-1.4,0.7-1.4,2.5c0,1.2,0.6,2.7,1.1,3.5l0-0.3l0.7,0.4l0,0.3
						c0.4-0.3,1.1-1,1.1-2.2C25.9,6.4,24.6,4.3,24.5,4.1z"/>
				</g>
				<g id="XMLID_19019_" class="st2">
					<g id="XMLID_19020_" class="st2">
						<path id="XMLID_19021_" class="st3" d="M29.3,11.2l1.1-0.6c0,0-0.5-0.4-1.1-0.8l-1.1,0.6C28.8,10.8,29.2,11.2,29.3,11.2
							L29.3,11.2z"/>
					</g>
				</g>
				<g id="XMLID_19016_" class="st2">
					<g id="XMLID_19017_" class="st2">
						<path id="XMLID_19018_" class="st3" d="M28.1,13.3l1.1-0.6c0.9-0.5,1.1-2,1.2-2.1l-1.1,0.6C29.2,11.3,29,12.8,28.1,13.3
							L28.1,13.3z"/>
					</g>
				</g>
				<g id="XMLID_19014_">
					<path id="XMLID_19015_" class="st5" d="M28.1,10.4c-0.6-0.4-1.4-0.7-2.1-0.6c-0.6,0.1-1,0.6-1.3,1.1l0,1.4
						c0.2,0.1,0.5,0.3,0.8,0.5c0.6,0.4,1.4,0.7,2.1,0.6c1.3-0.3,1.6-2.2,1.6-2.3C29.2,11.2,28.8,10.8,28.1,10.4z"/>
				</g>
			</g>
		</g>
	</g>
</g>
</svg>
