<?xml version="1.0" encoding="utf-8"?>
<!-- Generator: Adobe Illustrator 21.0.0, SVG Export Plug-In . SVG Version: 6.00 Build 0)  -->
<svg version="1.1" id="Layer_1" xmlns="http://www.w3.org/2000/svg" xmlns:xlink="http://www.w3.org/1999/xlink" x="0px" y="0px"
	 width="50px" height="50px" viewBox="0 0 50 50" style="enable-background:new 0 0 50 50;" xml:space="preserve">
<style type="text/css">
	.st0{fill:#ECEDF0;}
	.st1{clip-path:url(#SVGID_2_);}
	.st2{fill:#4F8023;}
	.st3{opacity:0.44;fill:#A5BE3A;}
	.st4{fill:#3D581D;}
	.st5{opacity:0.57;fill:#A5BE3A;}
</style>
<circle class="st0" cx="25" cy="25" r="25"/>
<g>
	<defs>
		<circle id="SVGID_1_" cx="25" cy="25" r="25"/>
	</defs>
	<clipPath id="SVGID_2_">
		<use xlink:href="#SVGID_1_"  style="overflow:visible;"/>
	</clipPath>
	<g id="XMLID_10346_" class="st1">
		<g id="XMLID_10347_">
			<g id="XMLID_10363_">
				<path id="XMLID_10365_" class="st2" d="M27.6,51.2c0-0.2-1.1-8,1.2-18s5.4-16.4,3.3-14.1c-2.1,2.3-5.5,10.2-6.4,15.9
					c-0.9,5.8-1.3,15.2-0.8,17.5C25.3,55,28.1,55.9,27.6,51.2z"/>
				<path id="XMLID_10364_" class="st3" d="M31.7,21.2c0,0-4.6,13.8-4.9,19.1C26.5,45.5,27,50,26,49.8c-1-0.2-0.8-7.6,0-13.3
					C26.7,30.9,32.9,17.5,31.7,21.2z"/>
			</g>
			<g id="XMLID_10360_">
				<path id="XMLID_10362_" class="st4" d="M27.1,52.8c0-0.3-2.6-12.2-1.6-27.6c1-15.4,3.4-25.6,1.5-21.9c-2,3.7-4.6,16.1-4.7,25.1
					c-0.1,8.9,1,23.4,1.9,26.9C25.1,58.7,28.5,59.8,27.1,52.8z"/>
				<path id="XMLID_10361_" class="st5" d="M26.8,6.3c0,0-2.9,21.6-2.4,29.7c0.5,8.1,1.8,14.9,0.6,14.7c-1.2-0.2-2.1-11.6-2.2-20.3
					C22.7,21.6,27.6,0.6,26.8,6.3z"/>
			</g>
			<g id="XMLID_10357_">
				<path id="XMLID_10359_" class="st2" d="M15.1,8.9c0,0,4.7,17.3,6.2,27.1c1.5,9.8,1.8,15.5,1.9,17.6c0.1,2.1,2.2,0.2,2.2-3.8
					c0-4-0.7-12.8-3.8-24.5C18.5,13.4,14,4.7,15.1,8.9z"/>
				<path id="XMLID_10358_" class="st3" d="M16.4,12.3c0,0,5.4,21.5,6.4,28.9c1,7.4,1.5-0.9,0.5-5.4C22.3,31.2,15.1,5.8,16.4,12.3z"
					/>
			</g>
			<g id="XMLID_10354_">
				<path id="XMLID_10356_" class="st4" d="M29.2,61.6c0-0.2-1.3-9.1,1.3-20.4c2.6-11.3,6.2-18.6,3.8-16C32,27.8,28.1,36.8,27,43.3
					c-1.1,6.5-1.5,17.3-1,19.9C26.6,65.9,29.8,66.9,29.2,61.6z"/>
				<path id="XMLID_10355_" class="st5" d="M33.9,27.5c0,0-5.2,15.7-5.6,21.7c-0.4,6,0.2,11.1-1,10.8c-1.1-0.2-0.9-8.7,0-15.1
					C28.2,38.5,35.2,23.3,33.9,27.5z"/>
			</g>
			<g id="XMLID_10351_">
				<path id="XMLID_10353_" class="st2" d="M16.4,30.5c0,0,4.6,13.3,6,20.8c1.4,7.5,1.7,11.9,1.7,13.5c0.1,1.6,5,1.8,5-1.3
					c0-3.1-3.5-11.5-6.4-20.5C19.8,34,15.4,27.3,16.4,30.5z"/>
				<path id="XMLID_10352_" class="st3" d="M17.7,33.2c0,0,5.2,16.5,6.2,22.2c1,5.7,1.6-0.7,0.6-4.2C23.5,47.7,16.5,28.2,17.7,33.2z
					"/>
			</g>
			<g id="XMLID_10348_">
				<path id="XMLID_10350_" class="st2" d="M28.7,36c0,0-1.6,11.4-1.6,17.6c0,6.2,0.5,9.8,0.7,11.1c0.2,1.3-1.8,0.4-2.2-2
					c-0.5-2.5-1-8,0-15.7C26.5,39.3,29.1,33.3,28.7,36z"/>
				<path id="XMLID_10349_" class="st3" d="M28.1,38.4c0,0-1.6,14-1.5,18.8c0.1,4.7-1.3-0.3-1.1-3.3C25.7,50.9,28.3,34.2,28.1,38.4z
					"/>
			</g>
		</g>
	</g>
</g>
</svg>
