<?xml version="1.0" encoding="utf-8"?>
<!-- Generator: Adobe Illustrator 21.0.0, SVG Export Plug-In . SVG Version: 6.00 Build 0)  -->
<svg version="1.1" id="Layer_1" xmlns="http://www.w3.org/2000/svg" xmlns:xlink="http://www.w3.org/1999/xlink" x="0px" y="0px"
	 width="50px" height="50px" viewBox="0 0 50 50" style="enable-background:new 0 0 50 50;" xml:space="preserve">
<style type="text/css">
	.st0{fill:#ECEDF0;}
	.st1{clip-path:url(#SVGID_2_);}
	.st2{fill:#72B600;}
	.st3{fill:#8AD401;}
	.st4{fill:#F19B2C;}
	.st5{fill:#E47E30;}
</style>
<circle class="st0" cx="25" cy="25" r="25"/>
<g>
	<defs>
		<circle id="SVGID_1_" cx="25" cy="25" r="25"/>
	</defs>
	<clipPath id="SVGID_2_">
		<use xlink:href="#SVGID_1_"  style="overflow:visible;"/>
	</clipPath>
	<g id="XMLID_16995_" class="st1">
		<g id="XMLID_17012_">
			<path id="XMLID_17021_" class="st2" d="M24.5,30.6c-0.3,0.2-3.1-4.7-4.7-4.7c-1.6,0-4.8-3-5.7-3.4c-0.4-0.1,4.8-1.7,6.2,1.4
				C21.7,27.1,25.4,30.2,24.5,30.6z"/>
			<path id="XMLID_17019_" class="st2" d="M25,31.9c0-0.6-1.2-13.7-1.2-14.3c0-0.6-3.5-5.9-3.7-6c-0.2-0.2,2.2,0.8,2,0.2
				c-0.3-0.8-1.6-5.7-1.6-6.8s1-0.4,1.6,0.2c0.6,0.6,1.7-4.7,2.5-4.4c0.7,0.3,1.4,3.1,2,4.8c0.6,1.7,1.6-0.4,2.1,0
				c0.4,0.4-2,4.9-2.5,6.7c-0.5,1.7,1.7,0.1,1.8,0.5c0.2,0.5-1.8,1.9-2.4,3.7C25,18.2,25.3,31,25.4,31.9C25.5,32.9,25,31.9,25,31.9z
				"/>
			<path id="XMLID_17017_" class="st3" d="M25.2,32.5c-0.1-0.4-4.1-9.2-4.2-9.7c-0.1-0.4-4.3-3.2-4.4-3.2c-0.2-0.1,2-0.1,1.7-0.4
				c-0.4-0.5-2.6-3.6-2.8-4.3c-0.2-0.7,0.8-0.5,1.4-0.3c0.6,0.2,0.4-3.8,1.1-3.7c0.7,0,1.8,1.8,2.8,2.8c0.9,1.1,1.3-0.7,1.7-0.6
				c0.5,0.2-0.6,4-0.6,5.3c0,1.4,1.4-0.4,1.6-0.1c0.3,0.3-1,1.8-1.2,3.2c-0.1,1.4,3,10.2,3.3,10.8C25.9,33,25.2,32.5,25.2,32.5z"/>
			<path id="XMLID_17015_" class="st3" d="M25.5,29.4c0.3,0.2,3.1-4.7,4.7-4.7c1.6,0,5-2.7,5.7-3.4c0.1-0.1-4.8-1.7-6.2,1.4
				C28.3,25.9,24.7,28.9,25.5,29.4z"/>
			<path id="XMLID_17013_" class="st2" d="M24.9,31.3c0.1-0.4,4.1-9.2,4.2-9.7c0.1-0.4,4.3-3.2,4.4-3.2c0.2-0.1-2-0.1-1.7-0.4
				c0.4-0.5,2.6-3.6,2.8-4.3c0.2-0.7-0.8-0.5-1.4-0.3c-0.6,0.2-0.4-3.8-1.1-3.7c-0.7,0-1.8,1.8-2.8,2.8c-0.9,1.1-1.3-0.7-1.7-0.6
				c-0.5,0.2,0.6,4,0.6,5.3c0,1.4-1.4-0.4-1.6-0.1c-0.3,0.3,1.1,1.8,1.2,3.2c0.1,1.4-3,10.2-3.3,10.8C24.2,31.8,24.9,31.3,24.9,31.3
				z"/>
		</g>
		<g id="XMLID_17010_">
			<path id="XMLID_17011_" class="st4" d="M32.1,44.2c0,1.6-0.1,3.2-0.2,4.7c-1.9,0.7-4.2,1.1-6.6,1.1c-3,0-5.7-0.6-7.9-1.6
				c-0.1-1.3-0.2-2.7-0.2-4.2c0-3.7,0.4-6.6,1-8.7c1.3-4.2,3.7-5.6,6.4-5.6c2.6,0,4.9,1.3,6.2,5.1C31.6,37.2,32.1,40.2,32.1,44.2z"
				/>
		</g>
		<g id="XMLID_17008_">
			<path id="XMLID_17009_" class="st5" d="M30.6,35.8c0,0.4-0.2,0.8-0.6,1l-1.9,1.1c-0.3,0.2-0.6,0-0.6-0.3l0,0c0-0.4,0.3-0.8,0.6-1
				l1.9-1.1C30.4,35.3,30.6,35.4,30.6,35.8L30.6,35.8z"/>
		</g>
		<g id="XMLID_17006_">
			<path id="XMLID_17007_" class="st5" d="M30.6,44.5c0,0.4-0.2,0.8-0.6,1l-1.9,1.1c-0.3,0.2-0.6,0-0.6-0.3l0,0c0-0.4,0.3-0.8,0.6-1
				l1.9-1.1C30.4,44,30.6,44.1,30.6,44.5L30.6,44.5z"/>
		</g>
		<g id="XMLID_17004_">
			<path id="XMLID_17005_" class="st5" d="M20.2,46.5c0,0.4-0.2,0.5-0.6,0.3l-1.9-1.1c-0.3-0.2-0.6-0.6-0.6-1l0,0
				c0-0.4,0.3-0.5,0.6-0.3l1.9,1.1C19.9,45.8,20.2,46.2,20.2,46.5L20.2,46.5z"/>
		</g>
		<g id="XMLID_17002_">
			<path id="XMLID_17003_" class="st5" d="M22,37.1c0,0.4-0.2,0.5-0.6,0.3l-1.9-1.1c-0.3-0.2-0.6-0.6-0.6-1l0,0
				c0-0.4,0.3-0.5,0.6-0.3l1.9,1.1C21.7,36.4,22,36.8,22,37.1L22,37.1z"/>
		</g>
		<g id="XMLID_17000_">
			<path id="XMLID_17001_" class="st5" d="M26.4,48.6c0,0.4-0.3,0.6-0.6,0.6l-2.2,0c-0.4,0-0.6-0.3-0.6-0.6l0,0
				c0-0.4,0.3-0.6,0.6-0.6l2.2,0C26.1,48,26.4,48.3,26.4,48.6L26.4,48.6z"/>
		</g>
		<g id="XMLID_16998_">
			<path id="XMLID_16999_" class="st5" d="M26.4,41.8c0,0.4-0.3,0.6-0.6,0.6l-2.2,0c-0.4,0-0.6-0.3-0.6-0.6l0,0
				c0-0.4,0.3-0.6,0.6-0.6l2.2,0C26.1,41.1,26.4,41.4,26.4,41.8L26.4,41.8z"/>
		</g>
		<g id="XMLID_16996_">
			<path id="XMLID_16997_" class="st5" d="M26.4,32.4c0,0.4-0.3,0.6-0.6,0.6l-2.2,0c-0.4,0-0.6-0.3-0.6-0.6l0,0
				c0-0.4,0.3-0.6,0.6-0.6l2.2,0C26.1,31.8,26.4,32.1,26.4,32.4L26.4,32.4z"/>
		</g>
	</g>
</g>
</svg>
