<?xml version="1.0" encoding="utf-8"?>
<!-- Generator: Adobe Illustrator 21.0.0, SVG Export Plug-In . SVG Version: 6.00 Build 0)  -->
<svg version="1.1" id="Layer_1" xmlns="http://www.w3.org/2000/svg" xmlns:xlink="http://www.w3.org/1999/xlink" x="0px" y="0px"
	 width="50px" height="50px" viewBox="0 0 50 50" style="enable-background:new 0 0 50 50;" xml:space="preserve">
<style type="text/css">
	.st0{fill:#ECEDF0;}
	.st1{clip-path:url(#SVGID_2_);}
	.st2{enable-background:new    ;}
	.st3{fill:#A9810B;}
	.st4{fill:#896809;}
	.st5{fill:#FDC011;}
	.st6{fill:#836409;}
</style>
<circle class="st0" cx="25" cy="25" r="25"/>
<g>
	<defs>
		<circle id="SVGID_1_" cx="25" cy="25" r="25"/>
	</defs>
	<clipPath id="SVGID_2_">
		<use xlink:href="#SVGID_1_"  style="overflow:visible;"/>
	</clipPath>
	<g id="XMLID_15141_" class="st1">
		<g id="XMLID_15142_">
			<g id="XMLID_15143_" class="st2">
				<g id="XMLID_15284_" class="st2">
					<g id="XMLID_15285_" class="st2">
						<path id="XMLID_15286_" class="st3" d="M17.9,33.5l1.8-1.1c-1.1-0.6-1.8-0.8-1.9-0.9L16,32.7C16.1,32.7,16.8,32.9,17.9,33.5
							L17.9,33.5z"/>
					</g>
				</g>
				<g id="XMLID_15282_">
					<polygon id="XMLID_15283_" class="st4" points="24.6,59 26.4,57.9 26.5,42.9 24.6,44 					"/>
				</g>
				<g id="XMLID_15280_">
					<polygon id="XMLID_15281_" class="st4" points="23.4,43.3 25.3,42.2 25.3,39.8 23.4,40.9 					"/>
				</g>
				<g id="XMLID_15277_" class="st2">
					<g id="XMLID_15278_" class="st2">
						<path id="XMLID_15279_" class="st3" d="M23.4,40.9l1.8-1.1c-0.4-1.3-1.1-2.9-2.1-4.3c-1.1-1.5-2.4-2.5-3.5-3.1l-1.8,1.1
							c1.1,0.6,2.4,1.6,3.5,3.1C22.4,38,23,39.6,23.4,40.9L23.4,40.9z"/>
					</g>
				</g>
				<g id="XMLID_15275_">
					<path id="XMLID_15276_" class="st5" d="M17.9,33.5c-1.1-0.6-1.8-0.8-1.9-0.9c0,0.2,0.5,3.9,2.7,6.9c1.1,1.5,2.4,2.5,3.5,3.1
						c0.5,0.3,0.9,0.5,1.3,0.6l0-2.4c-0.4-1.3-1.1-2.9-2.1-4.3C20.3,35.1,18.9,34.1,17.9,33.5z"/>
				</g>
				<g id="XMLID_15273_">
					<polygon id="XMLID_15274_" class="st4" points="24.6,44 26.5,42.9 26.5,40.5 24.6,41.6 					"/>
				</g>
				<g id="XMLID_15270_" class="st2">
					<g id="XMLID_15271_" class="st2">
						<path id="XMLID_15272_" class="st3" d="M17.9,27.2l1.8-1.1c-1.1-0.6-1.8-0.8-1.9-0.9L16,26.3C16.1,26.3,16.8,26.6,17.9,27.2
							L17.9,27.2z"/>
					</g>
				</g>
				<g id="XMLID_15268_">
					<polygon id="XMLID_15269_" class="st4" points="24.6,41.6 26.5,40.5 26.5,36.5 24.6,37.6 					"/>
				</g>
				<g id="XMLID_15266_">
					<polygon id="XMLID_15267_" class="st4" points="23.4,36.9 25.3,35.8 25.3,33.5 23.5,34.5 					"/>
				</g>
				<g id="XMLID_15263_" class="st2">
					<g id="XMLID_15264_" class="st2">
						<path id="XMLID_15265_" class="st3" d="M23.5,34.5l1.8-1.1c-0.4-1.3-1.1-2.9-2.1-4.3c-1.1-1.5-2.4-2.5-3.5-3.1l-1.8,1.1
							c1.1,0.6,2.4,1.6,3.5,3.1C22.4,31.6,23.1,33.2,23.5,34.5L23.5,34.5z"/>
					</g>
				</g>
				<g id="XMLID_15261_">
					<path id="XMLID_15262_" class="st5" d="M17.9,27.2c-1.1-0.6-1.8-0.8-1.9-0.9c0,0.2,0.5,3.9,2.7,6.9c1.1,1.5,2.4,2.5,3.5,3.1
						c0.5,0.3,0.9,0.5,1.3,0.6l0-2.4c-0.4-1.3-1.1-2.9-2.1-4.3C20.3,28.8,19,27.8,17.9,27.2z"/>
				</g>
				<g id="XMLID_15259_">
					<polygon id="XMLID_15260_" class="st4" points="24.6,37.6 26.5,36.5 26.5,34.2 24.6,35.2 					"/>
				</g>
				<g id="XMLID_15256_" class="st2">
					<g id="XMLID_15257_" class="st2">
						<path id="XMLID_15258_" class="st3" d="M17.9,20.8l1.8-1.1c-1.1-0.6-1.8-0.8-1.9-0.9L16.1,20C16.1,20,16.9,20.2,17.9,20.8
							L17.9,20.8z"/>
					</g>
				</g>
				<g id="XMLID_15254_">
					<polygon id="XMLID_15255_" class="st4" points="24.6,35.2 26.5,34.2 26.5,30.2 24.6,31.2 					"/>
				</g>
				<g id="XMLID_15251_" class="st2">
					<g id="XMLID_15252_" class="st2">
						<path id="XMLID_15253_" class="st3" d="M30.2,40.6l1.8-1.1c-1.1-0.6-2.4-1.2-3.5-0.9c-0.3,0.1-0.5,0.1-0.7,0.3L26,40
							c0.2-0.1,0.5-0.2,0.7-0.3C27.8,39.5,29.1,40,30.2,40.6L30.2,40.6z"/>
					</g>
				</g>
				<g id="XMLID_15249_">
					<polygon id="XMLID_15250_" class="st4" points="23.5,30.6 25.3,29.5 25.3,27.1 23.5,28.2 					"/>
				</g>
				<g id="XMLID_15246_" class="st2">
					<g id="XMLID_15247_" class="st2">
						<path id="XMLID_15248_" class="st3" d="M30.1,45.5l1.8-1.1c1.6-0.9,1.9-3.4,1.9-3.5l-1.8,1.1C32,42.1,31.7,44.5,30.1,45.5
							L30.1,45.5z"/>
					</g>
				</g>
				<g id="XMLID_15244_">
					<path id="XMLID_15245_" class="st5" d="M30.2,40.6c-1.1-0.6-2.4-1.2-3.5-0.9c-1,0.2-1.7,1.1-2.1,1.9l0,2.4
						c0.3,0.2,0.8,0.5,1.3,0.8c1.1,0.6,2.4,1.2,3.5,0.9c2.2-0.4,2.7-3.6,2.7-3.8C32,41.9,31.3,41.3,30.2,40.6z"/>
				</g>
				<g id="XMLID_15241_" class="st2">
					<g id="XMLID_15242_" class="st2">
						<path id="XMLID_15243_" class="st3" d="M32.1,41.9l1.8-1.1c0,0-0.8-0.7-1.9-1.3l-1.8,1.1C31.3,41.3,32,41.9,32.1,41.9
							L32.1,41.9z"/>
					</g>
				</g>
				<g id="XMLID_15238_" class="st2">
					<g id="XMLID_15239_" class="st2">
						<path id="XMLID_15240_" class="st3" d="M23.5,28.2l1.8-1.1c-0.4-1.3-1.1-2.9-2.1-4.3c-1.1-1.5-2.4-2.5-3.5-3.1l-1.8,1.1
							c1.1,0.6,2.4,1.6,3.5,3.1C22.4,25.3,23.1,26.9,23.5,28.2L23.5,28.2z"/>
					</g>
				</g>
				<g id="XMLID_15236_">
					<path id="XMLID_15237_" class="st5" d="M17.9,20.8c-1.1-0.6-1.8-0.8-1.9-0.9c0,0.2,0.5,3.9,2.7,6.9c1.1,1.5,2.4,2.5,3.5,3.1
						c0.5,0.3,0.9,0.5,1.3,0.6l0-2.4c-0.4-1.3-1.1-2.9-2.1-4.3C20.3,22.4,19,21.4,17.9,20.8z"/>
				</g>
				<g id="XMLID_15234_">
					<polygon id="XMLID_15235_" class="st4" points="24.6,31.2 26.5,30.2 26.5,27.8 24.7,28.9 					"/>
				</g>
				<g id="XMLID_15231_" class="st2">
					<g id="XMLID_15232_" class="st2">
						<path id="XMLID_15233_" class="st3" d="M17.9,14.4l1.8-1.1c-1.1-0.6-1.8-0.8-1.9-0.9l-1.8,1.1C16.1,13.6,16.9,13.8,17.9,14.4
							L17.9,14.4z"/>
					</g>
				</g>
				<g id="XMLID_15229_">
					<polygon id="XMLID_15230_" class="st4" points="24.7,28.9 26.5,27.8 26.5,23.8 24.7,24.9 					"/>
				</g>
				<g id="XMLID_15226_" class="st2">
					<g id="XMLID_15227_" class="st2">
						<path id="XMLID_15228_" class="st3" d="M30.2,34.3l1.8-1.1c-1.1-0.6-2.4-1.2-3.5-0.9c-0.3,0.1-0.5,0.1-0.7,0.3L26,33.6
							c0.2-0.1,0.5-0.2,0.7-0.3C27.8,33.1,29.2,33.7,30.2,34.3L30.2,34.3z"/>
					</g>
				</g>
				<g id="XMLID_15224_">
					<polygon id="XMLID_15225_" class="st4" points="23.5,24.2 25.3,23.1 25.3,20.7 23.5,21.8 					"/>
				</g>
				<g id="XMLID_15221_" class="st2">
					<g id="XMLID_15222_" class="st2">
						<path id="XMLID_15223_" class="st3" d="M30.1,39.1L32,38c1.6-0.9,1.9-3.4,1.9-3.5l-1.8,1.1C32.1,35.7,31.7,38.2,30.1,39.1
							L30.1,39.1z"/>
					</g>
				</g>
				<g id="XMLID_15218_" class="st2">
					<g id="XMLID_15219_" class="st2">
						<path id="XMLID_15220_" class="st3" d="M32.1,35.6l1.8-1.1c0,0-0.8-0.7-1.9-1.3l-1.8,1.1C31.3,34.9,32,35.5,32.1,35.6
							L32.1,35.6z"/>
					</g>
				</g>
				<g id="XMLID_15216_">
					<path id="XMLID_15217_" class="st5" d="M30.2,34.3c-1.1-0.6-2.4-1.2-3.5-0.9c-1,0.2-1.7,1.1-2.1,1.9l0,2.4
						c0.3,0.2,0.8,0.5,1.3,0.8c1.1,0.6,2.4,1.2,3.5,0.9c2.2-0.4,2.7-3.6,2.7-3.8C32,35.5,31.3,34.9,30.2,34.3z"/>
				</g>
				<g id="XMLID_15214_">
					<path id="XMLID_15215_" class="st5" d="M17.9,14.4c-1.1-0.6-1.8-0.8-1.9-0.9c0,0.2,0.5,3.9,2.7,6.9c1.1,1.5,2.4,2.5,3.5,3.1
						c0.5,0.3,0.9,0.5,1.3,0.6l0-2.4c-0.4-1.3-1.1-2.9-2.1-4.3C20.3,16,19,15.1,17.9,14.4z"/>
				</g>
				<g id="XMLID_15211_" class="st2">
					<g id="XMLID_15212_" class="st2">
						<path id="XMLID_15213_" class="st3" d="M23.5,21.8l1.8-1.1c-0.4-1.3-1.1-2.9-2.1-4.3c-1.1-1.5-2.4-2.5-3.5-3.1l-1.8,1.1
							c1.1,0.6,2.4,1.6,3.5,3.1C22.4,18.9,23.1,20.5,23.5,21.8L23.5,21.8z"/>
					</g>
				</g>
				<g id="XMLID_15209_">
					<polygon id="XMLID_15210_" class="st4" points="24.7,24.9 26.5,23.8 26.5,21.4 24.7,22.5 					"/>
				</g>
				<g id="XMLID_15206_" class="st2">
					<g id="XMLID_15207_" class="st2">
						<path id="XMLID_15208_" class="st3" d="M18,8.1L19.8,7c-1.1-0.6-1.8-0.8-1.9-0.9l-1.8,1.1C16.1,7.2,16.9,7.5,18,8.1L18,8.1z"
							/>
					</g>
				</g>
				<g id="XMLID_15204_">
					<polygon id="XMLID_15205_" class="st4" points="24.7,22.5 26.5,21.4 26.5,17.4 24.7,18.5 					"/>
				</g>
				<g id="XMLID_15201_" class="st2">
					<g id="XMLID_15202_" class="st2">
						<path id="XMLID_15203_" class="st3" d="M30.2,27.9l1.8-1.1c-1.1-0.6-2.4-1.2-3.5-0.9c-0.3,0.1-0.5,0.1-0.7,0.3L26,27.2
							c0.2-0.1,0.5-0.2,0.7-0.3C27.9,26.8,29.2,27.3,30.2,27.9L30.2,27.9z"/>
					</g>
				</g>
				<g id="XMLID_15199_">
					<polygon id="XMLID_15200_" class="st4" points="23.5,17.8 25.4,16.8 25.4,14.4 23.5,15.5 					"/>
				</g>
				<g id="XMLID_15196_" class="st2">
					<g id="XMLID_15197_" class="st2">
						<path id="XMLID_15198_" class="st3" d="M30.2,32.7l1.8-1.1c1.6-0.9,1.9-3.4,1.9-3.5l-1.8,1.1C32.1,29.4,31.7,31.8,30.2,32.7
							L30.2,32.7z"/>
					</g>
				</g>
				<g id="XMLID_15193_" class="st2">
					<g id="XMLID_15194_" class="st2">
						<path id="XMLID_15195_" class="st3" d="M32.1,29.2l1.8-1.1c0,0-0.8-0.7-1.9-1.3l-1.8,1.1C31.3,28.5,32.1,29.2,32.1,29.2
							L32.1,29.2z"/>
					</g>
				</g>
				<g id="XMLID_15191_">
					<path id="XMLID_15192_" class="st5" d="M30.2,27.9c-1.1-0.6-2.4-1.2-3.5-0.9c-1,0.2-1.7,1.1-2.1,1.9l0,2.4
						c0.3,0.2,0.8,0.5,1.3,0.8c1.1,0.6,2.4,1.2,3.5,0.9c2.2-0.4,2.7-3.6,2.7-3.8C32.1,29.2,31.3,28.5,30.2,27.9z"/>
				</g>
				<g id="XMLID_15189_">
					<path id="XMLID_15190_" class="st5" d="M18,8.1c-1.1-0.6-1.8-0.8-1.9-0.9c0,0.2,0.5,3.9,2.7,6.9c1.1,1.5,2.4,2.5,3.5,3.1
						c0.5,0.3,0.9,0.5,1.3,0.6l0-2.4c-0.4-1.3-1.1-2.9-2.1-4.3C20.3,9.7,19,8.7,18,8.1z"/>
				</g>
				<g id="XMLID_15186_" class="st2">
					<g id="XMLID_15187_" class="st2">
						<path id="XMLID_15188_" class="st3" d="M23.5,15.5l1.8-1.1c-0.4-1.3-1.1-2.9-2.1-4.3c-1.1-1.5-2.4-2.5-3.5-3.1L18,8.1
							c1.1,0.6,2.4,1.6,3.5,3.1C22.5,12.5,23.1,14.1,23.5,15.5L23.5,15.5z"/>
					</g>
				</g>
				<g id="XMLID_15184_">
					<polygon id="XMLID_15185_" class="st4" points="23.5,14.7 25.4,13.6 25.4,13 23.5,14.1 					"/>
				</g>
				<g id="XMLID_15182_">
					<polygon id="XMLID_15183_" class="st4" points="24.7,18.5 26.5,17.4 26.5,15.1 24.7,16.1 					"/>
				</g>
				<g id="XMLID_15180_">
					<polygon id="XMLID_15181_" class="st4" points="24.7,16.1 26.5,15.1 26.5,14.2 24.7,15.3 					"/>
				</g>
				<g id="XMLID_15178_">
					<polygon id="XMLID_15179_" class="st4" points="24.7,15.3 26.5,14.2 26.5,13.7 24.7,14.8 					"/>
				</g>
				<g id="XMLID_15176_">
					<polygon id="XMLID_15177_" class="st5" points="23.5,14.1 23.5,14.7 23.5,15.5 23.5,17.8 23.5,21.8 23.5,24.2 23.5,28.2 
						23.5,30.6 23.5,34.5 23.4,36.9 23.4,40.9 23.4,43.3 23.4,58.3 24.6,59 24.6,44 24.6,41.6 24.6,37.6 24.6,35.2 24.6,31.2 
						24.7,28.9 24.7,24.9 24.7,22.5 24.7,18.5 24.7,16.1 24.7,15.3 24.7,14.8 					"/>
				</g>
				<g id="XMLID_15174_">
					<polygon id="XMLID_15175_" class="st6" points="24.7,14.8 26.5,13.7 25.4,13 23.5,14.1 					"/>
				</g>
				<g id="XMLID_15171_" class="st2">
					<g id="XMLID_15172_" class="st2">
						<path id="XMLID_15173_" class="st3" d="M30.2,21.5l1.8-1.1c-1.1-0.6-2.4-1.2-3.5-0.9c-0.3,0.1-0.5,0.1-0.7,0.3L26,20.9
							c0.2-0.1,0.5-0.2,0.7-0.3C27.9,20.4,29.2,20.9,30.2,21.5L30.2,21.5z"/>
					</g>
				</g>
				<g id="XMLID_15168_" class="st2">
					<g id="XMLID_15169_" class="st2">
						<path id="XMLID_15170_" class="st3" d="M30.2,26.4l1.8-1.1c1.6-0.9,1.9-3.4,1.9-3.5l-1.8,1.1C32.1,23,31.7,25.5,30.2,26.4
							L30.2,26.4z"/>
					</g>
				</g>
				<g id="XMLID_15165_" class="st2">
					<g id="XMLID_15166_" class="st2">
						<path id="XMLID_15167_" class="st3" d="M32.1,22.8l1.8-1.1c0,0-0.8-0.7-1.9-1.3l-1.8,1.1C31.3,22.2,32.1,22.8,32.1,22.8
							L32.1,22.8z"/>
					</g>
				</g>
				<g id="XMLID_15163_">
					<path id="XMLID_15164_" class="st5" d="M30.2,21.5c-1.1-0.6-2.4-1.2-3.5-0.9c-1,0.2-1.7,1.1-2.1,1.9l0,2.4
						c0.3,0.2,0.8,0.5,1.3,0.8c1.1,0.6,2.4,1.2,3.5,0.9c2.2-0.4,2.7-3.6,2.7-3.8C32.1,22.8,31.3,22.2,30.2,21.5z"/>
				</g>
				<g id="XMLID_15160_" class="st2">
					<g id="XMLID_15161_" class="st2">
						<path id="XMLID_15162_" class="st3" d="M30.3,15.2l1.8-1.1c-1.1-0.6-2.4-1.2-3.5-0.9c-0.3,0.1-0.5,0.1-0.7,0.3l-1.8,1.1
							c0.2-0.1,0.5-0.2,0.7-0.3C27.9,14,29.2,14.6,30.3,15.2L30.3,15.2z"/>
					</g>
				</g>
				<g id="XMLID_15157_" class="st2">
					<g id="XMLID_15158_" class="st2">
						<path id="XMLID_15159_" class="st3" d="M24.2,4.6L26,3.6c0,0-0.1,0-0.2,0.1l-1.8,1.1C24.1,4.7,24.1,4.6,24.2,4.6L24.2,4.6z"/>
					</g>
				</g>
				<g id="XMLID_15154_" class="st2">
					<g id="XMLID_15155_" class="st2">
						<path id="XMLID_15156_" class="st3" d="M24.7,15.3l1.8-1.1c0.7-0.6,1.8-1.7,1.8-3.8c0-3.1-2.2-6.7-2.3-6.9l-1.8,1.1
							c0.1,0.2,2.4,3.9,2.3,6.9C26.5,13.6,25.4,14.8,24.7,15.3L24.7,15.3z"/>
					</g>
				</g>
				<g id="XMLID_15152_">
					<path id="XMLID_15153_" class="st5" d="M24.2,4.6c-0.1,0.1-2.4,1.1-2.4,4.1c0,2.1,1.1,4.5,1.8,5.9l0-0.6l1.2,0.7l0,0.5
						c0.7-0.6,1.8-1.7,1.8-3.8C26.5,8.5,24.3,4.8,24.2,4.6z"/>
				</g>
				<g id="XMLID_15149_" class="st2">
					<g id="XMLID_15150_" class="st2">
						<path id="XMLID_15151_" class="st3" d="M32.1,16.5l1.8-1.1c0,0-0.8-0.7-1.9-1.3l-1.8,1.1C31.3,15.8,32.1,16.5,32.1,16.5
							L32.1,16.5z"/>
					</g>
				</g>
				<g id="XMLID_15146_" class="st2">
					<g id="XMLID_15147_" class="st2">
						<path id="XMLID_15148_" class="st3" d="M30.2,20l1.8-1.1c1.6-0.9,1.9-3.4,1.9-3.5l-1.8,1.1C32.1,16.6,31.8,19.1,30.2,20
							L30.2,20z"/>
					</g>
				</g>
				<g id="XMLID_15144_">
					<path id="XMLID_15145_" class="st5" d="M30.3,15.2c-1.1-0.6-2.4-1.2-3.5-0.9c-1,0.2-1.7,1.1-2.1,1.9l0,2.4
						c0.3,0.2,0.8,0.5,1.3,0.8c1.1,0.6,2.4,1.2,3.5,0.9c2.2-0.4,2.7-3.6,2.7-3.8C32.1,16.5,31.3,15.8,30.3,15.2z"/>
				</g>
			</g>
		</g>
	</g>
</g>
</svg>
