<?xml version="1.0" encoding="utf-8"?>
<!-- Generator: Adobe Illustrator 21.0.0, SVG Export Plug-In . SVG Version: 6.00 Build 0)  -->
<svg version="1.1" id="Layer_1" xmlns="http://www.w3.org/2000/svg" xmlns:xlink="http://www.w3.org/1999/xlink" x="0px" y="0px"
	 width="100.9px" height="42.7px" viewBox="0 0 100.9 42.7" style="enable-background:new 0 0 100.9 42.7;" xml:space="preserve">
<style type="text/css">
	.st0{fill:none;stroke:#000000;stroke-width:2;stroke-linecap:round;stroke-miterlimit:10;}
	.st1{fill:#FFFFFF;stroke:#000000;stroke-width:2;stroke-linecap:round;stroke-miterlimit:10;}
	.st2{fill:none;stroke:#000000;stroke-width:0.5;stroke-linecap:round;stroke-miterlimit:10;}
</style>
<rect x="32" y="1" class="st0" width="21" height="29.7"/>
<g id="hand">
	<polyline class="st1" points="54,37.5 42.5,37.5 42.5,7.8 63.5,7.8 63.5,27.6 	"/>
	<g>
		<path d="M69.3,29.3c-0.4-0.5-0.9-0.9-1.5-1C67.2,28,66.6,28,66,28.3c-0.4-0.5-0.9-0.9-1.6-1c-0.6-0.1-1.3-0.1-1.9,0.2
			c-0.3-0.3-0.7-0.6-1.1-0.7c-0.4-0.2-0.9-0.2-1.3-0.1v-3.2c0-0.8-0.3-1.5-0.8-2.1c-0.6-0.6-1.2-0.8-2-0.8c-0.8,0-1.5,0.3-2,0.8
			c-0.6,0.6-0.8,1.2-0.8,2.1v7c-0.4-0.2-0.9-0.2-1.4-0.2c-0.5,0.1-0.9,0.3-1.3,0.5c-0.6,0.5-1,1.1-1.1,1.9c-0.1,0.8,0.1,1.5,0.5,2.1
			l4.7,6.7c0.3,0.4,0.6,0.7,1,0.9c0.4,0.2,0.8,0.3,1.3,0.3h7.7c0.7,0,1.3-0.2,1.8-0.6c0.5-0.4,0.9-1,1-1.6l1.2-5.2
			c0.1-0.2,0.1-0.4,0.1-0.6V31C69.9,30.3,69.7,29.8,69.3,29.3z M67.8,34.6l0,0.2L66.6,40c0,0.2-0.1,0.4-0.3,0.5s-0.3,0.2-0.5,0.2
			h-7.7c-0.3,0-0.5-0.1-0.6-0.3l-4.7-6.7c-0.2-0.3-0.2-0.5-0.1-0.8s0.3-0.4,0.6-0.5c0.3-0.1,0.5,0.1,0.7,0.3l1.2,1.6
			c0.2,0.3,0.5,0.3,0.8,0.2c0.3-0.1,0.5-0.3,0.5-0.7V23.4c0-0.3,0.1-0.6,0.4-0.7s0.5-0.1,0.8,0c0.3,0.1,0.4,0.4,0.4,0.7V31
			c0,0.2,0.1,0.4,0.2,0.5c0.1,0.1,0.3,0.2,0.5,0.2H59c0.2,0,0.3-0.1,0.5-0.2c0.1-0.1,0.2-0.3,0.2-0.5v-1.5c0-0.3,0.1-0.6,0.4-0.7
			c0.3-0.1,0.5-0.1,0.8,0s0.4,0.4,0.4,0.7V31c0,0.2,0.1,0.4,0.2,0.5c0.1,0.1,0.3,0.2,0.5,0.2h0.3c0.2,0,0.4-0.1,0.5-0.2
			c0.1-0.1,0.2-0.3,0.2-0.5v-0.9c0-0.3,0.1-0.6,0.4-0.7c0.3-0.1,0.5-0.1,0.8,0c0.3,0.1,0.4,0.4,0.4,0.7V31c0,0.2,0.1,0.4,0.2,0.5
			c0.1,0.1,0.3,0.2,0.5,0.2h0.3c0.2,0,0.4-0.1,0.5-0.2c0.1-0.1,0.2-0.3,0.2-0.5c0-0.3,0.1-0.6,0.4-0.7c0.3-0.1,0.5-0.1,0.8,0
			c0.3,0.1,0.4,0.4,0.4,0.7V34.6z"/>
		<line class="st2" x1="59.1" y1="33.2" x2="59.1" y2="38.2"/>
		<line class="st2" x1="62.1" y1="33.2" x2="62.1" y2="38.2"/>
		<line class="st2" x1="65.1" y1="33.2" x2="65.1" y2="38.2"/>
	</g>
</g>
</svg>
