<svg id="Layer_1" data-name="Layer 1" xmlns="http://www.w3.org/2000/svg" width="35.06" height="27.81" viewBox="0 0 35.06 27.81">
  <defs>
    <style>
      .cls-1 {
        fill: #333;
      }
    </style>
  </defs>
  <title>eyeOpen</title>
  <path class="cls-1" d="M22.41,14.26a4.89,4.89,0,1,0-4.89,4.89A4.9,4.9,0,0,0,22.41,14.26Zm-5.35-1.14a1.43,1.43,0,1,1,1.43,1.43A1.43,1.43,0,0,1,17.06,13.12Zm12.72,1.72a.75.75,0,0,0-1,.25,13.21,13.21,0,0,1-22.46,0A.75.75,0,1,0,5,15.87a14.71,14.71,0,0,0,25,0A.75.75,0,0,0,29.78,14.84Zm.69-3.41,2.31-1.86a.75.75,0,1,0-.94-1.17l-2.45,2a17.94,17.94,0,0,0-4.16-2.8L26.47,5a.75.75,0,0,0-1.35-.65L23.85,7a17.63,17.63,0,0,0-5.46-1.16V2.75a.75.75,0,1,0-1.5,0V5.81A17.66,17.66,0,0,0,11.3,6.94L10,4.32A.75.75,0,0,0,8.7,5L9.92,7.52a17.94,17.94,0,0,0-4.26,2.84l-2.44-2a.75.75,0,1,0-.94,1.17l2.3,1.86a17.7,17.7,0,0,0-2.41,3.2.75.75,0,0,0,1.3.76,16.25,16.25,0,0,1,28.1,0,.75.75,0,0,0,1.29-.76A17.7,17.7,0,0,0,30.47,11.43Z"/>
</svg>
