<svg id="Layer_1" data-name="Layer 1" xmlns="http://www.w3.org/2000/svg" width="35.06" height="27.81" viewBox="0 0 35.06 27.81">
  <defs>
    <style>
      .cls-1 {
        fill: #333;
      }
    </style>
  </defs>
  <title>Artboard 3 copy</title>
  <path class="cls-1" d="M4.59,17.26,2.28,19.13a.75.75,0,1,0,.94,1.17l2.45-2a17.94,17.94,0,0,0,4.16,2.8l-1.25,2.6a.75.75,0,0,0,1.35.65l1.28-2.66a17.63,17.63,0,0,0,5.46,1.16v3.07a.75.75,0,0,0,1.5,0V22.88a17.66,17.66,0,0,0,5.58-1.12L25,24.37a.75.75,0,0,0,1.35-.65l-1.23-2.55a17.94,17.94,0,0,0,4.26-2.84l2.44,2a.75.75,0,1,0,.94-1.17l-2.3-1.86a17.7,17.7,0,0,0,2.41-3.2.75.75,0,0,0-1.3-.76,16.25,16.25,0,0,1-28.1,0,.75.75,0,0,0-1.29.76A17.7,17.7,0,0,0,4.59,17.26Z"/>
</svg>
