<?xml version="1.0" encoding="utf-8"?>
<!-- Generator: Adobe Illustrator 21.0.0, SVG Export Plug-In . SVG Version: 6.00 Build 0)  -->
<svg version="1.1" id="Layer_1" xmlns="http://www.w3.org/2000/svg" xmlns:xlink="http://www.w3.org/1999/xlink" x="0px" y="0px"
	 viewBox="0 0 119.9 55" style="enable-background:new 0 0 119.9 55;" xml:space="preserve">
<g>
	<path d="M37,0.8h-4.5c-1.1,0-1.8,0.1-1.9,0.2c-0.2,0.2-0.3,0.9-0.3,2.2V49c0,1.6,0.1,2.7,0.3,3.1c0.1,0.2,0.5,0.5,1.2,0.7
		c0.7,0.3,2,0.5,3.9,0.6c1.9,0.2,4.5,0.3,7.8,0.3v0.8H6.7v-0.8c3.2,0,5.8-0.1,7.7-0.3c1.9-0.2,3.2-0.4,3.9-0.6
		c0.7-0.3,1.1-0.6,1.3-0.9c0.2-0.4,0.3-1.3,0.3-2.9V3.2c0-1.5-0.2-2.3-0.5-2.4c-0.2-0.1-0.8-0.1-1.8-0.1C13.2,0.8,9.9,2.2,7.5,5
		c-2.8,3.5-4.9,9.8-6.3,19H0V0h32.5H37"/>
	<path d="M36.7,0h28.9v0.8c-3.4,0-5.8,0.2-7.2,0.6c-1.3,0.4-2,1.1-2,2.2c0,0.6,0.2,1.2,0.5,2l13.3,35.6L78,11.6l-1.8-6.1
		c-0.7-2.3-1.5-3.6-2.5-4.1c-1-0.5-3.4-0.7-7.4-0.7V0h29v0.8c-3.4,0-5.8,0.2-7.1,0.6c-1.3,0.4-2,1.1-2,2.3c0,0.6,0.1,1.2,0.3,1.9
		l10.9,35.6l9.3-26.4c1-2.8,1.4-5,1.4-6.8c0-4.8-3.4-7.2-10.2-7.2V0h21.9v0.8c-4,0-7,2.1-8.9,6.2c-0.3,0.6-1.3,3.4-3.1,8.3L93.9,55
		h-2.8L78.6,13.7L67.9,55h-2.9L46.4,5.5c-0.8-2.3-1.7-3.7-2.6-4.1C43,1,40.6,0.8,36.7,0.8"/>
</g>
</svg>
